<?xml version="1.0" encoding="utf-8"?>
<!-- Generator: Adobe Illustrator 28.2.0, SVG Export Plug-In . SVG Version: 6.00 Build 0)  -->
<svg version="1.1" id="Layer_1" xmlns="http://www.w3.org/2000/svg" xmlns:xlink="http://www.w3.org/1999/xlink" x="0px" y="0px"
	 viewBox="0 0 160.9 160.9" style="enable-background:new 0 0 160.9 160.9;" xml:space="preserve">
<style type="text/css">
	.st0{fill:#61B235;}
	.st1{fill:#FFFFFF;}
</style>
<path class="st0" d="M0,0h160.9v160.9H0V0z"/>
<path class="st1" d="M11.8,19.4v5.7l3.8-4h0.1V46h5.4V13.5h-4.3L11.8,19.4z M34.1,23.8c-2.2,0-3.7,0.8-4.6,2.2v-8.1h9.4v-4.4H24.5
	v18.3h5v-0.7c0-1.9,0.9-3,2.4-3c1.7,0,2.3,1.1,2.3,2.9v7.8c0,1.7-0.6,2.9-2.3,2.9c-1.9,0-2.5-1.2-2.5-3.2v-4.1h-5v3.7
	c0,4.9,2,8.1,7.5,8.1s7.8-2.9,7.8-7.4v-7.9C39.7,25.9,37,23.8,34.1,23.8"/>
<g>
	<path class="st1" d="M67.4,108.8c0.2,0,0.4,0.2,0.4,0.4v11.7c0,0.2-0.2,0.4-0.4,0.4h-4.7c-0.2,0-0.4-0.2-0.4-0.4v-11.7
		c0-0.2,0.2-0.4,0.4-0.4H67.4z M119.5,126.3H41.4c-0.2,0-0.4,0.2-0.4,0.4v4.8c0,0.2,0.2,0.4,0.4,0.4h78.1c0.2,0,0.4-0.2,0.4-0.4
		v-4.8C119.9,126.5,119.7,126.3,119.5,126.3 M119.5,135.8H41.4c-0.2,0-0.4,0.2-0.4,0.4v4.8c0,0.2,0.2,0.4,0.4,0.4h78.1
		c0.2,0,0.4-0.2,0.4-0.4v-4.8C119.9,136,119.7,135.8,119.5,135.8 M104.6,95.9c-1-0.8-3.6-2.5-6.8-2.5c-2.3,0-4.4,0.9-6.3,2.7
		c-0.1,0.1-0.2,0.3-0.2,0.5V97c0,0.2,0.1,0.4,0.2,0.5c0.2,0.1,0.3,0.2,0.6,0.1h0.1c0.1-0.1,0.3-0.1,0.4-0.2c0.4-0.3,1.5-0.7,3.1-0.7
		c1.7,0,4.9,0.4,8.1,3.4l0.1,0.1c0.2,0.2,0.4,0.3,0.7,0.3c0.2,0,0.5-0.1,0.7-0.3l0.1-0.1c3.2-2.9,6.4-3.4,8.1-3.4
		c1.6,0,2.7,0.4,3.1,0.7c0.1,0.1,0.2,0.2,0.4,0.3c0.1,0,0.3,0.1,0.5,0c0.3-0.1,0.5-0.3,0.5-0.6v-0.4c0-0.2-0.1-0.4-0.2-0.5
		c-1.9-1.8-4-2.7-6.4-2.7C108.2,93.3,105.6,95.1,104.6,95.9 M99.8,64.7c-0.2,0.1-0.3,0.2-0.3,0.4l-0.1,0.3c-0.1,0.2,0,0.4,0.1,0.6
		c0.1,0.2,0.3,0.3,0.5,0.3h0.1c0.1,0,0.3,0,0.4-0.1c0.1,0,0.2-0.1,0.5-0.1s3.5,0.1,5.6,3.6v0.1c0.1,0.2,0.3,0.3,0.5,0.4h0.2
		c0.1,0,0.3,0,0.4-0.1h0.1c1.1-0.6,2.3-0.9,3.5-0.9c2,0,3.3,0.8,3.6,1.1l0.3,0.3c0.1,0,0.2,0.1,0.3,0.1h0.2c0.1,0,0.2,0,0.3-0.1
		c0.2-0.1,0.3-0.2,0.3-0.4l0.1-0.2v-0.2c0-0.1,0-0.2-0.1-0.3c-1.5-2.6-3.7-3.2-5.3-3.2c-1.2,0-2.2,0.3-2.8,0.5c-0.7-1-2.5-3-5.3-3
		C101.8,64,100.8,64.2,99.8,64.7 M83.3,76.8v0.4c0,0.2,0.1,0.4,0.3,0.5s0.4,0.1,0.5,0.1h0.1c0.1-0.1,0.2-0.1,0.3-0.2
		c0.3-0.2,1.4-0.7,3-0.7c1.5,0,3.8,0.4,6.2,2.3l0.1,0.1c0.2,0.1,0.4,0.2,0.6,0.2h0.1c0.2,0,0.5-0.1,0.6-0.3l0.1-0.1
		c2.6-2.8,5.4-3.2,6.9-3.2c1,0,1.8,0.2,2,0.4c0.1,0.1,0.2,0.2,0.4,0.2h0.5c0.3-0.1,0.5-0.4,0.4-0.7v-0.3c0-0.2-0.1-0.3-0.2-0.5
		c-1.6-1.3-3.2-2-5-2c-2.7,0-4.9,1.6-5.8,2.4c-0.8-0.6-2.8-1.7-5.2-1.7c-2.1,0-3.9,0.9-5.5,2.6C83.3,76.4,83.3,76.6,83.3,76.8
		 M43.7,83c0-4.7,3.8-8.5,8.5-8.5h0.5c0.4-5.9,5.4-10.6,11.4-10.6c6.3,0,11.5,5.1,11.5,11.5c0,1.8-0.4,3.5-1.2,5
		c5.7,1.3,10,6.4,10,12.5c0,7.1-5.7,12.8-12.8,12.8c-0.5,0-17.1-0.1-17.1-0.1c-5,0-9.1-4.1-9.1-9.1c0-2.4,0.9-4.6,2.5-6.2
		C45.5,88.9,43.7,86.2,43.7,83L43.7,83z"/>
</g>
<g>
	<path class="st1" d="M51.4,13.5h2.2v11.3h2.6v1.8h-4.8L51.4,13.5L51.4,13.5z M57.5,13.5h2.2v13.1h-2.2V13.5z M61.3,13.5h5.2v1.8h-3
		v3.8h2.2v1.8h-2.2v5.8h-2.2V13.5L61.3,13.5z M67.7,13.5H73v1.8h-3.1v3.8h2.2v1.8h-2.2v4H73v1.8h-5.3L67.7,13.5L67.7,13.5z"/>
</g>
<g>
	<path class="st1" d="M51.4,42.6v-6.4c0-2.1,1-3.5,3.3-3.5s3.4,1.5,3.4,3.5v6.4c0,2-1,3.5-3.4,3.5C52.4,46.1,51.4,44.6,51.4,42.6z
		 M55.9,42.9v-7.1c0-0.8-0.3-1.4-1.1-1.4s-1.1,0.6-1.1,1.4v7.1c0,0.8,0.3,1.4,1.1,1.4C55.5,44.3,55.9,43.7,55.9,42.9z M61.2,37.7V46
		h-1.9V32.9h2.2l2.4,7.5v-7.5h1.8V46h-1.9L61.2,37.7z M70.5,32.8h2.2v11.3h2.6v1.8h-4.8V32.8z M75.9,46l2.5-13.1h2.5L83.4,46h-2.3
		l-0.4-2.4h-2.3L78,46H75.9z M78.7,41.8h1.8l-0.9-5.3L78.7,41.8L78.7,41.8z M86.2,37.7V46h-1.9V32.9h2.2l2.4,7.5v-7.5h1.8V46h-1.9
		L86.2,37.7z M98.8,36.4v6.1c0,2-0.8,3.5-3.2,3.5h-3.4V32.9h3.4C97.9,32.8,98.8,34.3,98.8,36.4z M95.3,44.2c0.9,0,1.3-0.5,1.3-1.3
		V36c0-0.8-0.3-1.3-1.3-1.3h-0.9v9.5H95.3z"/>
</g>
</svg>
