<?xml version="1.0" encoding="utf-8"?>
<!-- Generator: Adobe Illustrator 28.2.0, SVG Export Plug-In . SVG Version: 6.00 Build 0)  -->
<svg version="1.1" id="Layer_1" xmlns="http://www.w3.org/2000/svg" xmlns:xlink="http://www.w3.org/1999/xlink" x="0px" y="0px"
	 viewBox="0 0 160.9 160.9" style="enable-background:new 0 0 160.9 160.9;" xml:space="preserve">
<style type="text/css">
	.st0{fill:#DDA73A;}
	.st1{fill:#FFFFFF;}
</style>
<path class="st0" d="M0,0h160.9v160.9H0V0z"/>
<path class="st1" d="M30.1,41.5h-8.9V40c0-2.5,0.9-3.5,2.3-5l3.5-3.7c2.8-3,3.4-4.9,3.4-8.2V20c0-4.6-2.2-6.8-7.1-6.8
	c-4.8,0-7.2,2.5-7.2,7.1v3.9h5v-4.1c0-2,1-2.5,2.1-2.5s2,0.4,2,2.4v2.7c0,2.7-0.2,3.7-2,5.6l-3.1,3.3c-3,3.2-4.1,5.3-4.1,8.5v6h14.2
	L30.1,41.5L30.1,41.5z"/>
<g>
	<path class="st1" d="M66.5,136.8v2.5c0,0.6,0.5,1,1,1H94c0.6,0,1-0.5,1-1.1v-2.6c14.9-4.9,26.1-17,28.6-31.8v-0.1v-0.1
		c0-0.6-0.5-1.1-1.1-1.1H37.9c-0.6,0-1.1,0.5-1.1,1.1l0.1,0.5C39.8,119.9,51.3,132.1,66.5,136.8 M95.2,67.3
		c-0.3,0.5-8.5,12.3,0.2,21.8c4,4.4,3.6,8.2,2.5,10.8h5.6c1.1-3.8,0.7-8.7-3.9-13.6c-6.4-7,0.1-16.5,0.2-16.6
		c0.8-1.1,0.4-2.5-0.9-3.1C97.6,65.9,96,66.2,95.2,67.3 M81.1,99.9h5.6c1.1-3.8,0.7-8.7-3.9-13.6c-6.4-7,0.1-16.5,0.2-16.6
		c0.8-1.1,0.4-2.5-0.9-3.1s-2.9-0.3-3.7,0.8c-0.4,0.5-8.5,12.3,0.2,21.8C82.6,93.5,82.2,97.3,81.1,99.9 M61.5,67.3
		c-0.4,0.5-8.5,12.3,0.2,21.8c4,4.4,3.6,8.2,2.5,10.8h5.6c1.1-3.8,0.7-8.7-3.9-13.6c-6.4-7,0.1-16.5,0.2-16.6
		c0.8-1.1,0.4-2.5-0.9-3.1C64,65.9,62.3,66.2,61.5,67.3"/>
</g>
<g>
	<path class="st1" d="M48.2,24.9h3.4v1.8h-5.7v-1.8l3.5-9.5h-3.1v-1.8h5.5v1.8L48.2,24.9z M53,13.5h5.3v1.8h-3.1v3.8h2.2v1.8h-2.2v4
		h3.1v1.8H53V13.5L53,13.5z M61.9,20.6v6h-2.2V13.5h3.2c2.2,0,3,1.1,3,2.9v1.7c0,1.4-0.5,2.2-1.8,2.5l2.1,6h-2.3L61.9,20.6
		L61.9,20.6z M61.9,15.3v4.1h0.7c0.8,0,1.1-0.4,1.1-1.1v-1.9c0-0.7-0.3-1.1-1.1-1.1H61.9z M67.3,23.3v-6.4c0-2.1,1-3.5,3.3-3.5
		s3.4,1.5,3.4,3.5v6.4c0,2-1,3.5-3.4,3.5C68.3,26.8,67.3,25.3,67.3,23.3z M71.8,23.6v-7.1c0-0.8-0.3-1.4-1.1-1.4s-1.1,0.6-1.1,1.4
		v7.1c0,0.8,0.3,1.4,1.1,1.4S71.8,24.4,71.8,23.6z"/>
</g>
<g>
	<path class="st1" d="M50.3,40.1h-2.1v5.8H46V32.8h2.2v5.6h2.1v-5.6h2.2v13.1h-2.2V40.1z M60.4,32.8v9.9c0,2-0.9,3.4-3.1,3.4
		c-2.3,0-3.3-1.3-3.3-3.4v-9.9h2.2V43c0,0.8,0.3,1.3,1.1,1.3s1.1-0.5,1.1-1.3V32.8H60.4L60.4,32.8z M63.7,37.7V46h-1.8V32.9h2.2
		l2.4,7.5v-7.5h1.8V46h-1.9L63.7,37.7z M73.1,38.9h3.1v7h-1.6v-1.4c-0.3,1-0.9,1.6-2.1,1.6c-1.9,0-2.8-1.5-2.8-3.5v-6.4
		c0-2.1,1-3.5,3.3-3.5c2.4,0,3.2,1.4,3.2,3.3v1.2h-2v-1.3c0-0.8-0.3-1.3-1.1-1.3S72,35.2,72,36v7.1c0,0.8,0.3,1.4,1.1,1.4
		c0.7,0,1.1-0.4,1.1-1.3v-2.3h-1v-2H73.1z M77.7,32.8H83v1.8h-3.1v3.8h2.2v1.8h-2.2v4H83V46h-5.3L77.7,32.8L77.7,32.8z M86.5,39.9v6
		h-2.2V32.8h3.2c2.2,0,3,1.1,3,2.9v1.7c0,1.4-0.5,2.2-1.8,2.5l2.1,6h-2.3L86.5,39.9L86.5,39.9z M86.5,34.6v4.1h0.7
		c0.8,0,1.1-0.4,1.1-1.1v-1.9c0-0.7-0.3-1.1-1.1-1.1H86.5z"/>
</g>
</svg>
