<?xml version="1.0" encoding="utf-8"?>
<!-- Generator: Adobe Illustrator 28.2.0, SVG Export Plug-In . SVG Version: 6.00 Build 0)  -->
<svg version="1.1" id="Layer_1" xmlns="http://www.w3.org/2000/svg" xmlns:xlink="http://www.w3.org/1999/xlink" x="0px" y="0px"
	 viewBox="0 0 160.9 160.9" style="enable-background:new 0 0 160.9 160.9;" xml:space="preserve">
<style type="text/css">
	.st0{fill:#1896D4;}
	.st1{fill:#FFFFFF;}
</style>
<path class="st0" d="M0,0h160.9v160.9H0V0z"/>
<path class="st1" d="M21,13.6V46h-5.5V21.2l-3.8,4h-0.1v-5.7l5-5.9H21z M37.6,46v-5.3h2.2v-4.3h-2.2V13.5h-5.4l-9.4,23.8v3.4h9.6V46
	H37.6L37.6,46z M27.6,36.5l4.9-13.4v13.4H27.6z M123.9,117.5c-2-2.7-15.1-19.4-33.4-19.4c-15.9,0-33,14.4-33,14.4S51.1,99.4,38,98.1
	h-0.3c-0.3,0-0.5,0.3-0.5,0.5s0.2,0.5,0.2,0.5c1.7,2.8,6,10.8,6,18.7c0,8-4.3,16-6,18.8l-0.1,0.2c0,0.1-0.1,0.2-0.1,0.3
	c0,0.3,0.2,0.5,0.5,0.5h0.2c13.1-1.2,19.6-14.4,19.6-14.4s17,14.4,33,14.4c18.3,0,31.4-16.7,33.4-19.4c0.1-0.1,0.1-0.1,0.1-0.2v-0.2
	v-0.2L123.9,117.5 M100.6,120c-3,0-5.4-2.4-5.4-5.4s2.4-5.3,5.4-5.3s5.4,2.4,5.4,5.3C106,117.6,103.6,120,100.6,120 M37.5,66.7h-0.1
	c-0.3,0-0.5,0.2-0.5,0.5v3.7c0,0.2,0.1,0.3,0.2,0.4c8.9,7.7,17.2,0.5,19.2-1.4c0-0.1,0.1-0.1,0.1-0.1c0.1-0.1,0.2-0.1,0.3-0.1
	c0.1,0,0.3,0.1,0.4,0.1c10,9.5,20.5,1.8,22.7,0l0.2-0.2h0.4l0.2,0.2c2.2,1.8,12.7,9.5,22.7,0c0.1-0.1,0.2-0.1,0.4-0.1
	c0.1,0,0.2,0,0.3,0.1c0.1,0,0.1,0.1,0.1,0.1c1.9,1.9,10.3,9.1,19.2,1.4c0.1-0.1,0.2-0.2,0.2-0.4v-3.7c0-0.3-0.2-0.5-0.5-0.5h-0.1
	c-0.1,0-0.2,0.1-0.3,0.1c-2.7,1.4-11.2,4.6-18.8-2.6l-0.2-0.2h-0.4c-0.1,0-0.2,0.1-0.3,0.2c-2.3,1.7-12.8,8.8-22.1,0.1l-0.1-0.1
	c-0.1-0.1-0.2-0.2-0.4-0.2c-0.1,0-0.3,0.1-0.4,0.2l-0.1,0.1C70.5,73,60,65.9,57.7,64.2c-0.1-0.1-0.1-0.2-0.3-0.2H57l-0.2,0.2
	c-7.7,7.3-16.1,4-18.8,2.6C37.7,66.8,37.6,66.7,37.5,66.7 M56.2,83.1c0-0.1,0.1-0.1,0.1-0.1c0.1-0.1,0.2-0.1,0.3-0.1
	c0.1,0,0.3,0.1,0.4,0.1c10,9.5,20.5,1.8,22.7,0l0.2-0.2h0.4l0.2,0.2c2.2,1.8,12.7,9.5,22.7,0c0.1-0.1,0.2-0.1,0.4-0.1
	c0.1,0,0.2,0,0.3,0.1c0.1,0,0.1,0.1,0.1,0.1c1.9,1.9,10.3,9.1,19.2,1.4c0.1-0.1,0.2-0.2,0.2-0.4v-3.7c0-0.3-0.2-0.5-0.5-0.5h-0.1
	c-0.1,0-0.2,0.1-0.3,0.1c-2.7,1.4-11.2,4.6-18.8-2.6l-0.2-0.2c-0.1,0-0.1-0.1-0.2-0.1h-0.2c-0.1,0-0.2,0.1-0.3,0.2
	c-2.3,1.7-12.8,8.8-22.1,0.1l-0.1-0.1c-0.1-0.1-0.2-0.1-0.4-0.1c-0.1,0-0.3,0.1-0.4,0.1l-0.1,0.1c-9.3,8.7-19.8,1.6-22.1-0.1
	c-0.1-0.1-0.1-0.2-0.3-0.2h-0.2c-0.1,0-0.1,0-0.2,0.1l-0.2,0.2c-7.7,7.2-16.1,4-18.8,2.6c-0.1,0-0.2-0.1-0.3-0.1h-0.1
	c-0.3,0-0.5,0.2-0.5,0.5v3.7c0,0.2,0.1,0.3,0.2,0.4C45.9,92.2,54.3,85,56.2,83.1 M51.4,13.5h2.2v11.3h2.6v1.8h-4.8L51.4,13.5
	L51.4,13.5z M57.3,13.5h2.2v13.1h-2.2V13.5z M60.9,13.5h5.2v1.8h-3v3.8h2.2v1.8h-2.2v5.8h-2.2V13.5L60.9,13.5z M67.1,13.5h5.3v1.8
	h-3.1v3.8h2.2v1.8h-2.2v4h3.1v1.8h-5.3V13.5L67.1,13.5z M76.5,13.5h3.2c2.2,0,2.9,1,2.9,2.9v1.3c0,1.1-0.4,1.8-1.3,2.1
	c1.1,0.3,1.6,1,1.6,2.2v1.7c0,1.9-0.8,2.9-3,2.9h-3.4L76.5,13.5L76.5,13.5z M78.7,19.1h0.8c0.7,0,1-0.4,1-1.1v-1.6
	c0-0.7-0.3-1.1-1.1-1.1h-0.8v3.8L78.7,19.1L78.7,19.1z M78.7,20.8v4.1h1c0.7,0,1.1-0.4,1.1-1.1v-2c0-0.7-0.3-1.1-1.1-1.1L78.7,20.8z
	 M83.9,13.5h5.3v1.8h-3.1v3.8h2.2v1.8h-2.2v4h3.1v1.8h-5.3V13.5L83.9,13.5z M90.6,13.5h2.2v11.3h2.6v1.8h-4.8L90.6,13.5L90.6,13.5z
	 M96.3,23.3v-6.4c0-2.1,1-3.5,3.3-3.5s3.4,1.5,3.4,3.5v6.4c0,2-1,3.5-3.4,3.5C97.3,26.8,96.3,25.3,96.3,23.3z M100.7,23.6v-7.1
	c0-0.8-0.3-1.4-1.1-1.4s-1.1,0.6-1.1,1.4v7.1c0,0.8,0.3,1.4,1.1,1.4S100.7,24.4,100.7,23.6z M108.8,18.5l-1.2,8.1h-2.1l-1.8-13.1
	h2.1l1,8.3l1.1-8.3h1.8l1.2,8.3l1-8.3h1.9l-1.7,13.1H110L108.8,18.5L108.8,18.5z"/>
<g>
	<path class="st1" d="M56.2,37.8L55,45.9h-2.1l-1.8-13.1h2.1l1,8.3l1.1-8.3h1.8l1.2,8.3l1-8.3h1.9l-1.7,13.1h-2.1L56.2,37.8z
		 M61.1,46l2.5-13.1h2.5L68.6,46h-2.3l-0.4-2.4h-2.3L63.2,46H61.1L61.1,46z M63.8,41.8h1.8l-0.9-5.3L63.8,41.8z M68.1,32.8H74v1.8
		h-1.8v11.3H70V34.6h-1.8v-1.8H68.1z M75,32.8h5.3v1.8h-3.1v3.8h2.2v1.8h-2.2v4h3.1V46H75V32.8L75,32.8z M83.7,39.9v6h-2.2V32.8h3.2
		c2.2,0,3,1.1,3,2.9v1.7c0,1.4-0.5,2.2-1.8,2.5l2.1,6h-2.3L83.7,39.9L83.7,39.9z M83.7,34.6v4.1h0.7c0.8,0,1.1-0.4,1.1-1.1v-1.9
		c0-0.7-0.3-1.1-1.1-1.1H83.7z"/>
</g>
</svg>
