<?xml version="1.0" encoding="utf-8"?>
<!-- Generator: Adobe Illustrator 28.2.0, SVG Export Plug-In . SVG Version: 6.00 Build 0)  -->
<svg version="1.1" id="Layer_1" xmlns="http://www.w3.org/2000/svg" xmlns:xlink="http://www.w3.org/1999/xlink" x="0px" y="0px"
	 viewBox="0 0 160.9 160.9" style="enable-background:new 0 0 160.9 160.9;" xml:space="preserve">
<style type="text/css">
	.st0{fill:#BF8C30;}
	.st1{fill:#FFFFFF;}
</style>
<path class="st0" d="M0,0h160.9v160.9H0V0z"/>
<path class="st1" d="M16.1,21.1L16.1,21.1L16.2,46h5.4V13.5h-4.3l-5.1,5.9v5.7h0.1L16.1,21.1z M24.9,20.2v3.9h5V20
	c0-2,1-2.5,2.1-2.5s2,0.4,2,2.4v2.7c0,2.7-0.2,3.7-2,5.6l-3.1,3.3c-3,3.2-4.1,5.3-4.1,8.5v6H39v-4.5h-9V40c0-2.5,0.9-3.5,2.3-5
	l3.5-3.7c2.8-3,3.4-4.9,3.4-8.2v-3.2c0-4.6-2.2-6.8-7.1-6.8C27.3,13.1,24.9,15.7,24.9,20.2 M125.3,86.2c-6.6-5.2-14.4-5.7-17.5-5.7
	c-1.6,0-3.1,0.1-4.2,0.4l-0.4,0.1C99,82,92.1,83.6,84,93.7L83.8,94c-0.1,0.2-0.2,0.4-0.2,0.6s0,0.4,0.1,0.5l0.2,0.3
	c1.3,2.2,2.4,4.2,3.3,5.8c0.3,0.6,1.2,0.8,1.7,0.2c0.1-0.1,0.1-0.2,0.2-0.2c7-9.7,12.5-11,16.1-11.8l0.4-0.1
	c0.5-0.1,1.3-0.2,2.2-0.2c1.7,0,7.5,0.3,12.1,3.9c4.1,3.2,6.1,8.3,6.1,15.2c0,11.6-5.6,16.1-10.3,17.8c-1.8,0.7-3.7,1-5.7,1
	c-4.8,0-8.6-1.9-8.6-2l-0.3-0.2c-4-1.8-10.1-5.4-15.8-16.9c-11.7-23.5-21.5-25.7-28-27.2L57,80.6c-0.5-0.1-1.9-0.4-4.2-0.4
	c-3.8,0-11,0.7-17.2,5.7c-4.2,3.4-9.3,10-9.3,22c0,7.4,1.5,12.2,5.4,17.3c0.7,1,7.5,9.7,20.5,9.7c1.9,0,3.9-0.2,5.9-0.6
	c2.4-0.5,6-1.6,10.1-4.6l3.4,3.1c0.4,0.3,1,0.3,1.4-0.1c0.2-0.2,0.3-0.4,0.2-0.6l2.6-16.3v-0.2c0-0.3-0.1-0.5-0.3-0.7
	c-0.2-0.2-0.4-0.3-0.7-0.3L58.9,119h-0.3c-0.2,0-0.4,0.1-0.5,0.3c-0.2,0.2-0.3,0.5-0.3,0.7c0,0.3,0.1,0.5,0.3,0.7l3.3,3
	c-1.7,1.1-3.5,1.8-5.1,2.1c-1.4,0.3-2.8,0.4-4.2,0.4c-9,0-13.4-5.9-13.6-6.2l-0.1-0.1c-2.7-3.6-3.7-6.7-3.7-12.1
	c0-6.9,2-12.1,6-15.3c4.5-3.6,10.2-3.8,11.8-3.8c0.9,0,1.7,0.1,2.2,0.2l0.4,0.1c5.2,1.2,12.3,2.8,22.2,22.6
	c5.2,10.5,11.7,17.3,19.9,20.9c1,0.5,6,2.9,12.6,2.9c3,0,6-0.5,8.8-1.6c4.8-1.8,15.9-7.9,15.9-26C134.8,96.2,129.6,89.6,125.3,86.2
	L125.3,86.2z"/>
<g>
	<path class="st1" d="M53.6,20.6v6h-2.2V13.5h3.2c2.2,0,3,1.1,3,2.9v1.7c0,1.4-0.5,2.2-1.8,2.5l2.1,6h-2.3L53.6,20.6L53.6,20.6z
		 M53.6,15.3v4.1h0.7c0.8,0,1.1-0.4,1.1-1.1v-1.9c0-0.7-0.3-1.1-1.1-1.1L53.6,15.3L53.6,15.3z M59.1,13.5h5.3v1.8h-3.1v3.8h2.2v1.8
		h-2.2v4h3.1v1.8h-5.3V13.5L59.1,13.5z M65.6,23.8V22h2.1v1.8c0,0.7,0.3,1.2,1.1,1.2c0.7,0,1-0.5,1-1.2v-0.5c0-0.8-0.3-1.2-1-1.9
		l-1.3-1.3c-1.3-1.2-1.8-2-1.8-3.5v-0.4c0-1.6,1-2.9,3.1-2.9c2.2,0,3.1,1.1,3.1,3v1.1h-2v-1.1c0-0.8-0.3-1.1-1-1.1
		c-0.6,0-1,0.3-1,1.1v0.3c0,0.7,0.4,1.2,1,1.8l1.4,1.4c1.2,1.2,1.8,2,1.8,3.4v0.6c0,1.8-1,3.1-3.2,3.1
		C66.5,26.8,65.6,25.5,65.6,23.8L65.6,23.8z M73.3,13.5h3.3c2.2,0,3,1.1,3,2.9v2.8c0,1.8-0.8,3-3,3h-1.1v4.5h-2.2L73.3,13.5
		L73.3,13.5z M75.5,15.3v5.2h0.8c0.8,0,1.1-0.4,1.1-1.1v-3c0-0.7-0.3-1.1-1.1-1.1H75.5z M81,23.2v-6.4c0-2.1,1-3.5,3.3-3.5
		s3.4,1.5,3.4,3.5v6.4c0,2-1,3.5-3.4,3.5C82,26.8,81,25.2,81,23.2z M85.5,23.6v-7.1c0-0.8-0.3-1.4-1.1-1.4s-1.1,0.6-1.1,1.4v7.1
		c0,0.8,0.3,1.4,1.1,1.4C85.1,24.9,85.5,24.4,85.5,23.6z M91,18.3v8.3h-1.9V13.5h2.2l2.4,7.5v-7.5h1.8v13.1h-1.9L91,18.3z M97,23.8
		V22h2.1v1.8c0,0.7,0.3,1.2,1.1,1.2c0.7,0,1-0.5,1-1.2v-0.5c0-0.8-0.3-1.2-1-1.9l-1.3-1.3c-1.3-1.2-1.8-2-1.8-3.5v-0.4
		c0-1.6,1-2.9,3.1-2.9c2.2,0,3.1,1.1,3.1,3v1.1h-2v-1.1c0-0.8-0.3-1.1-1-1.1c-0.6,0-1,0.3-1,1.1v0.3c0,0.7,0.4,1.2,1,1.8l1.4,1.4
		c1.2,1.2,1.8,2,1.8,3.4v0.6c0,1.8-1,3.1-3.2,3.1C97.8,26.8,97,25.5,97,23.8L97,23.8z M104.6,13.5h2.2v13.1h-2.2V13.5z M108.3,13.5
		h3.2c2.2,0,2.9,1,2.9,2.9v1.3c0,1.1-0.4,1.8-1.3,2.1c1.1,0.3,1.6,1,1.6,2.2v1.7c0,1.9-0.8,2.9-3,2.9h-3.4L108.3,13.5L108.3,13.5z
		 M110.6,19h0.8c0.7,0,1-0.4,1-1.1v-1.6c0-0.7-0.3-1.1-1.1-1.1h-0.8L110.6,19L110.6,19z M110.6,20.7v4.1h1c0.7,0,1.1-0.4,1.1-1.1v-2
		c0-0.7-0.3-1.1-1.1-1.1h-1V20.7z M116.1,13.5h2.2v11.3h2.6v1.8h-4.8L116.1,13.5L116.1,13.5z M122.2,13.5h5.3v1.8h-3.1v3.8h2.2v1.8
		h-2.2v4h3.1v1.8h-5.3V13.5L122.2,13.5z"/>
</g>
<g>
	<path class="st1" d="M51.4,42.5v-6.4c0-2.1,1-3.5,3.3-3.5c2.4,0,3.1,1.4,3.1,3.3v1.6h-2v-1.7c0-0.8-0.3-1.3-1.1-1.3
		s-1.1,0.6-1.1,1.4V43c0,0.8,0.3,1.4,1.1,1.4s1.1-0.5,1.1-1.3v-2.4h2V43c0,1.9-0.8,3.3-3.1,3.3C52.4,46.1,51.4,44.6,51.4,42.5z
		 M59.2,42.5v-6.4c0-2.1,1-3.5,3.3-3.5s3.4,1.5,3.4,3.5v6.4c0,2-1,3.5-3.4,3.5C60.2,46.1,59.2,44.6,59.2,42.5z M63.7,42.9v-7.1
		c0-0.8-0.3-1.4-1.1-1.4s-1.1,0.6-1.1,1.4v7.1c0,0.8,0.3,1.4,1.1,1.4C63.4,44.2,63.7,43.7,63.7,42.9z M69.2,37.7V46h-1.9V32.9h2.2
		l2.4,7.5v-7.5h1.8V46h-1.9L69.2,37.7z M75.1,43.1v-1.8h2.1v1.8c0,0.7,0.3,1.2,1.1,1.2c0.7,0,1-0.5,1-1.2v-0.5c0-0.8-0.3-1.2-1-1.9
		L77,39.4c-1.3-1.2-1.8-2-1.8-3.5v-0.4c0-1.6,1-2.9,3.1-2.9c2.2,0,3.1,1.1,3.1,3v1.1h-2v-1.1c0-0.8-0.3-1.1-1-1.1
		c-0.6,0-1,0.3-1,1.1v0.3c0,0.7,0.4,1.2,1,1.8l1.4,1.4c1.2,1.2,1.8,2,1.8,3.4v0.6c0,1.8-1,3.1-3.2,3.1C76,46.1,75.1,44.8,75.1,43.1
		L75.1,43.1z M89.2,32.8v9.9c0,2-0.9,3.4-3.1,3.4c-2.3,0-3.3-1.3-3.3-3.4v-9.9H85V43c0,0.8,0.3,1.3,1.1,1.3s1.1-0.5,1.1-1.3V32.8
		H89.2L89.2,32.8z M96.8,37.4l-1.6,8.5h-1l-1.6-8.5v8.5h-1.8V32.8h2.6l1.4,7.4l1.3-7.4h2.8v13.1h-2v-8.5H96.8L96.8,37.4z
		 M100.3,32.8h3.3c2.2,0,3,1.1,3,2.9v2.8c0,1.8-0.8,3-3,3h-1.1V46h-2.2L100.3,32.8L100.3,32.8z M102.5,34.6v5.2h0.8
		c0.8,0,1.1-0.4,1.1-1.1v-3c0-0.7-0.3-1.1-1.1-1.1H102.5z M107.3,32.8h5.9v1.8h-1.8v11.3h-2.2V34.6h-1.8L107.3,32.8z M114.2,32.8
		h2.2v13.1h-2.2V32.8z M117.7,42.5v-6.4c0-2.1,1-3.5,3.3-3.5s3.4,1.5,3.4,3.5v6.4c0,2-1,3.5-3.4,3.5
		C118.7,46.1,117.7,44.6,117.7,42.5z M122.2,42.9v-7.1c0-0.8-0.3-1.4-1.1-1.4S120,35,120,35.8v7.1c0,0.8,0.3,1.4,1.1,1.4
		C121.8,44.2,122.2,43.7,122.2,42.9z M127.6,37.7V46h-1.9V32.9h2.2l2.4,7.5v-7.5h1.8V46h-1.9L127.6,37.7z"/>
</g>
<g>
	<path class="st1" d="M51.1,65.2l2.5-13.1h2.5l2.5,13.1h-2.3l-0.4-2.4h-2.3l-0.4,2.4H51.1L51.1,65.2z M53.8,61.1h1.8l-0.9-5.3
		L53.8,61.1z M61.4,57v8.3h-1.9V52.2h2.2l2.4,7.5v-7.5h1.8v13.1H64L61.4,57z M73.9,55.6v6.1c0,2-0.8,3.5-3.2,3.5h-3.4V52.1h3.4
		C73,52.1,73.9,53.6,73.9,55.6z M70.4,63.4c0.9,0,1.3-0.5,1.3-1.3v-6.9c0-0.8-0.3-1.3-1.3-1.3h-0.9v9.5L70.4,63.4L70.4,63.4z
		 M77.3,52.1h3.3c2.2,0,3,1.1,3,2.9v2.8c0,1.8-0.8,3-3,3h-1.1v4.5h-2.2L77.3,52.1L77.3,52.1z M79.5,53.9v5.2h0.8
		c0.8,0,1.1-0.4,1.1-1.1v-3c0-0.7-0.3-1.1-1.1-1.1H79.5z M87,59.2v6h-2.2V52.1H88c2.2,0,3,1.1,3,2.9v1.7c0,1.4-0.5,2.2-1.8,2.5
		l2.1,6H89L87,59.2L87,59.2z M87,53.9V58h0.7c0.8,0,1.1-0.4,1.1-1.1V55c0-0.7-0.3-1.1-1.1-1.1H87z M92.3,61.8v-6.4
		c0-2.1,1-3.5,3.3-3.5s3.4,1.5,3.4,3.5v6.4c0,2-1,3.5-3.4,3.5C93.3,65.4,92.3,63.9,92.3,61.8z M96.8,62.2v-7.1
		c0-0.8-0.3-1.4-1.1-1.4s-1.1,0.6-1.1,1.4v7.1c0,0.8,0.3,1.4,1.1,1.4C96.5,63.5,96.8,63,96.8,62.2z M107,55.6v6.1
		c0,2-0.8,3.5-3.2,3.5h-3.4V52.1h3.4C106.1,52.1,107,53.6,107,55.6z M103.5,63.4c0.9,0,1.3-0.5,1.3-1.3v-6.9c0-0.8-0.3-1.3-1.3-1.3
		h-0.9v9.5L103.5,63.4L103.5,63.4z M114.7,52.1V62c0,2-0.9,3.4-3.1,3.4c-2.3,0-3.3-1.3-3.3-3.4v-9.9h2.2v10.2c0,0.8,0.3,1.3,1.1,1.3
		s1.1-0.5,1.1-1.3V52.1H114.7L114.7,52.1z M116,61.8v-6.4c0-2.1,1-3.5,3.3-3.5c2.4,0,3.1,1.4,3.1,3.3v1.6h-2v-1.7
		c0-0.8-0.3-1.3-1.1-1.3s-1.1,0.6-1.1,1.4v7.1c0,0.8,0.3,1.4,1.1,1.4s1.1-0.5,1.1-1.3V60h2v2.3c0,1.9-0.8,3.3-3.1,3.3
		C117,65.4,116,63.9,116,61.8z M123.5,52.1h5.9v1.8h-1.8v11.3h-2.2V53.9h-1.8L123.5,52.1z M130.4,52.1h2.2v13.1h-2.2V52.1z
		 M133.9,61.8v-6.4c0-2.1,1-3.5,3.3-3.5s3.4,1.5,3.4,3.5v6.4c0,2-1,3.5-3.4,3.5C134.9,65.4,133.9,63.9,133.9,61.8z M138.4,62.2v-7.1
		c0-0.8-0.3-1.4-1.1-1.4s-1.1,0.6-1.1,1.4v7.1c0,0.8,0.3,1.4,1.1,1.4C138,63.5,138.4,63,138.4,62.2z M143.7,57v8.3h-1.9V52.2h2.2
		l2.4,7.5v-7.5h1.8v13.1h-1.9L143.7,57z"/>
</g>
</svg>
