<?xml version="1.0" encoding="utf-8"?>
<!-- Generator: Adobe Illustrator 28.2.0, SVG Export Plug-In . SVG Version: 6.00 Build 0)  -->
<svg version="1.1" id="Layer_1" xmlns="http://www.w3.org/2000/svg" xmlns:xlink="http://www.w3.org/1999/xlink" x="0px" y="0px"
	 viewBox="0 0 160.9 160.9" style="enable-background:new 0 0 160.9 160.9;" xml:space="preserve">
<style type="text/css">
	.st0{fill:#E8422F;}
	.st1{fill:#FFFFFF;}
</style>
<path class="st0" d="M0,0h160.9v160.9H0V0z"/>
<path class="st1" d="M25.6,23.8c-2.2,0-3.7,0.8-4.6,2.2v-8.1h9.4v-4.5H16v18.3h5V31c0-1.9,0.9-3,2.4-3c1.7,0,2.3,1.2,2.3,2.9v7.8
	c0,1.7-0.6,2.9-2.3,2.9c-1.9,0-2.5-1.2-2.5-3.2v-4.1h-5V38c0,4.9,2,8.1,7.5,8.1s7.8-2.9,7.8-7.4V31C31.2,25.8,28.6,23.8,25.6,23.8"
	/>
<g>
	<path class="st1" d="M117.2,60.9h-20c-0.1,0-0.3,0.1-0.3,0.3v6.6c0,0.1,0.1,0.3,0.3,0.3h8l-8.8,8.8c-4.5-3.5-10.1-5.6-16.2-5.6
		C65.8,71.3,54,83.1,54,97.5c0,13.3,10,24.3,22.8,26v7.7h-7.9c-0.1,0-0.3,0.1-0.3,0.3v7.1c0,0.1,0.1,0.3,0.3,0.3h7.9v7.5
		c0,0.1,0.1,0.3,0.3,0.3h7.1c0.1,0,0.3-0.1,0.3-0.3v-7.5h7.9c0.1,0,0.3-0.1,0.3-0.3v-7.1c0-0.1-0.1-0.3-0.3-0.3h-7.9v-7.8
		c12.4-2,21.9-12.8,21.9-25.8c0-5.6-1.8-10.8-4.8-15.1l8.7-8.7v7.4c0,0.1,0.1,0.3,0.3,0.3h6.6c0.1,0,0.3-0.1,0.3-0.3v-20
		C117.5,61,117.3,60.9,117.2,60.9 M80.2,116.8c-10.6,0-19.3-8.7-19.3-19.3c0-10.6,8.6-19.3,19.3-19.3c10.6,0,19.3,8.6,19.3,19.3
		C99.5,108.1,90.8,116.8,80.2,116.8"/>
	<path class="st1" d="M92.1,89.6H68.8c-0.1,0-0.3,0.1-0.3,0.2v5.7c0,0.1,0.1,0.2,0.3,0.2h23.4c0.1,0,0.3-0.1,0.3-0.2v-5.7
		C92.4,89.7,92.3,89.6,92.1,89.6 M92.1,99.7H68.8c-0.1,0-0.3,0.1-0.3,0.2v5.7c0,0.1,0.1,0.2,0.3,0.2h23.4c0.1,0,0.3-0.1,0.3-0.2
		v-5.7C92.4,99.8,92.3,99.7,92.1,99.7"/>
</g>
<g>
	<path class="st1" d="M45.9,32.8h5.3v1.8h-3.1v3.8h2.2v1.8h-2.2v4h3.1V46h-5.3V32.8L45.9,32.8z M54.7,46.8v-0.9
		c-1.8-0.3-2.5-1.6-2.5-3.4v-6.4c0-2.1,1-3.5,3.3-3.5s3.4,1.5,3.4,3.5v6.4c0,1.4-0.5,2.6-1.6,3.1l1.6,0.3v1.6L54.7,46.8L54.7,46.8z
		 M56.7,43v-7.2c0-0.8-0.3-1.4-1.1-1.4s-1.1,0.6-1.1,1.4V43c0,0.8,0.3,1.4,1.1,1.4S56.7,43.8,56.7,43z M66.8,32.8v9.9
		c0,2-0.9,3.4-3.1,3.4c-2.3,0-3.3-1.3-3.3-3.4v-9.9h2.2V43c0,0.8,0.3,1.3,1.1,1.3s1.1-0.5,1.1-1.3V32.8H66.8z M67.9,45.9l2.5-13.1
		h2.5l2.5,13.1h-2.3l-0.4-2.4h-2.3L70,45.9H67.9z M70.7,41.8h1.8l-0.9-5.3L70.7,41.8L70.7,41.8z M76.5,32.8h2.2v11.3h2.6v1.8h-4.8
		V32.8z M82.5,32.8h2.2v13.1h-2.2V32.8z M85.9,32.8h5.9v1.8H90v11.3h-2.2V34.6H86v-1.8H85.9L85.9,32.8z M97.3,40.9v5h-2.2v-5
		l-2.5-8.1h2.3l1.3,5l1.3-5h2.1L97.3,40.9L97.3,40.9z"/>
</g>
<g>
	<path class="st1" d="M49.3,19.6h3.1v7h-1.6v-1.4c-0.3,1-0.9,1.6-2.1,1.6c-1.9,0-2.8-1.5-2.8-3.5v-6.4c0-2.1,1-3.5,3.3-3.5
		c2.4,0,3.2,1.4,3.2,3.3v1.2h-2v-1.3c0-0.8-0.3-1.3-1.1-1.3s-1.1,0.6-1.1,1.4v7.1c0,0.8,0.3,1.4,1.1,1.4c0.7,0,1.1-0.4,1.1-1.3v-2.3
		h-1v-2H49.3L49.3,19.6z M53.9,13.5h5.3v1.8h-3.1v3.8h2.2v1.8h-2.2v4h3.1v1.8h-5.3V13.5L53.9,13.5z M62.4,18.4v8.3h-1.9V13.6h2.2
		l2.4,7.5v-7.5h1.8v13.1H65L62.4,18.4z M75,17v6.1c0,2-0.8,3.5-3.2,3.5h-3.4V13.5h3.4C74.2,13.5,75,15,75,17z M71.5,24.8
		c0.9,0,1.3-0.5,1.3-1.3v-6.9c0-0.8-0.3-1.3-1.3-1.3h-0.9v9.5H71.5z M76.5,13.5h5.3v1.8h-3.1v3.8h2.2v1.8h-2.2v4h3.1v1.8h-5.3V13.5
		L76.5,13.5z M85.3,20.6v6h-2.2V13.5h3.2c2.2,0,3,1.1,3,2.9v1.7c0,1.4-0.5,2.2-1.8,2.5l2.1,6h-2.3L85.3,20.6L85.3,20.6z M85.3,15.3
		v4.1H86c0.8,0,1.1-0.4,1.1-1.1v-1.9c0-0.7-0.3-1.1-1.1-1.1H85.3z"/>
</g>
</svg>
