<?xml version="1.0" encoding="utf-8"?>
<!-- Generator: Adobe Illustrator 28.2.0, SVG Export Plug-In . SVG Version: 6.00 Build 0)  -->
<svg version="1.1" id="Layer_1" xmlns="http://www.w3.org/2000/svg" xmlns:xlink="http://www.w3.org/1999/xlink" x="0px" y="0px"
	 viewBox="0 0 160.9 160.9" style="enable-background:new 0 0 160.9 160.9;" xml:space="preserve">
<style type="text/css">
	.st0{fill:#A31B43;}
	.st1{fill:#FFFFFF;}
</style>
<path class="st0" d="M0,0h160.9v160.9H0V0z"/>
<path class="st1" d="M31.3,38v-3.6c0-3.1-1.1-5.4-3.6-6.5c2.2-1.1,3.2-3,3.2-5.6V21c0-5.1-2.6-7.8-7.7-7.8c-5,0-7.6,2.7-7.6,7.8v1.3
	c0,2.6,1,4.6,3.1,5.6c-2.5,1.1-3.6,3.4-3.6,6.5v3.5c0,4.9,2.3,8.4,8.1,8.4C28.9,46.4,31.3,42.9,31.3,38 M20.7,20.6
	c0-2,0.7-3.1,2.4-3.1c1.8,0,2.5,1.1,2.5,3.1v2.2c0,2-0.7,3.1-2.5,3.1s-2.4-1.2-2.4-3.1V20.6z M25.8,38.6c0,2-0.7,3.4-2.7,3.4
	c-1.9,0-2.6-1.4-2.6-3.4v-5.3c0-2,0.7-3.3,2.6-3.3c2,0,2.7,1.4,2.7,3.3V38.6z"/>
<g>
	<path class="st1" d="M111.7,79.2L95.3,94.8c-0.6,0.6-0.9,1.1-0.9,2.3v43.6c0,0.5,0.4,0.9,0.9,0.9h16.9c0.5,0,0.9-0.4,0.9-0.9V79.6
		C113.2,79,112.8,78.1,111.7,79.2 M64.6,99.4L48.2,115c-0.6,0.6-0.9,1.1-0.9,2.3v23.3c0,0.5,0.4,0.9,0.9,0.9h16.9
		c0.5,0,0.9-0.4,0.9-0.9V99.8C66.1,99.3,65.7,98.4,64.6,99.4"/>
	<path class="st1" d="M119.2,60.3c0-0.1,0-0.3-0.1-0.4s-0.2-0.1-0.3-0.1h-0.2l-12.5,2.8h-0.2c-0.1,0-0.2,0.1-0.2,0.1
		c-0.2,0.2-0.2,0.5,0,0.7l0.1,0.1l2.9,2.9L80.3,94.8L67.2,81.7c-0.1-0.1-0.4-0.1-0.5,0l-3.6,3.6l-21,21c-0.1,0.1-0.1,0.4,0,0.5
		l3.6,3.6c0.1,0.1,0.4,0.1,0.5,0L67,89.7l9.5,9.5l3.6,3.6c0.1,0.1,0.4,0.1,0.5,0l32.2-32.2l3,3c0.2,0.2,0.5,0.2,0.7,0
		c0.1-0.1,0.1-0.2,0.1-0.3l2.8-12.8L119.2,60.3L119.2,60.3z"/>
	<path class="st1" d="M88.3,102.2l-7.9,8c-0.2,0.1-0.4,0.1-0.5,0l-7.2-7.3c-1.3-1.3-1.6-0.2-1.6,0.3v37.6c0,0.5,0.4,0.9,0.9,0.9
		h16.9c0.5,0,0.9-0.4,0.9-0.9v-38.2C89.8,101.9,89.4,101,88.3,102.2"/>
</g>
<g>
	<path class="st1" d="M49.9,17v6.1c0,2-0.8,3.5-3.2,3.5h-3.4V13.5h3.4C49.1,13.5,49.9,15,49.9,17z M46.4,24.8c0.9,0,1.3-0.5,1.3-1.3
		v-6.9c0-0.8-0.3-1.3-1.3-1.3h-0.9v9.5L46.4,24.8L46.4,24.8z M51.3,13.5h5.3v1.8h-3.1v3.8h2.2v1.8h-2.2v4h3.1v1.8h-5.3V13.5
		L51.3,13.5z M57.7,23.2v-6.4c0-2.1,1-3.5,3.3-3.5c2.4,0,3.1,1.4,3.1,3.3v1.6h-2v-1.8c0-0.8-0.3-1.3-1.1-1.3s-1.1,0.6-1.1,1.4v7.1
		c0,0.8,0.3,1.4,1.1,1.4s1.1-0.5,1.1-1.3v-2.4h2v2.3c0,1.9-0.8,3.3-3.1,3.3C58.7,26.8,57.7,25.2,57.7,23.2z M65.5,13.5h5.3v1.8h-3.1
		v3.8h2.2v1.8h-2.2v4h3.1v1.8h-5.3V13.5L65.5,13.5z M73.9,18.3v8.3H72V13.5h2.2l2.4,7.5v-7.5h1.8v13.1h-1.9L73.9,18.3z M79.6,13.5
		h5.9v1.8h-1.8v11.3h-2.2V15.3h-1.8v-1.8H79.6z M93.6,18.5l-1.2,8.1h-2.1l-1.8-13.1h2.1l1,8.3l1.1-8.3h1.8l1.2,8.3l1-8.3h1.9
		l-1.7,13.1h-2L93.6,18.5z M99.5,23.2v-6.4c0-2.1,1-3.5,3.3-3.5s3.4,1.5,3.4,3.5v6.4c0,2-1,3.5-3.4,3.5
		C100.5,26.8,99.5,25.2,99.5,23.2z M103.9,23.6v-7.1c0-0.8-0.3-1.4-1.1-1.4s-1.1,0.6-1.1,1.4v7.1c0,0.8,0.3,1.4,1.1,1.4
		C103.6,24.9,103.9,24.4,103.9,23.6z M109.8,20.6v6h-2.2V13.5h3.2c2.2,0,3,1.1,3,2.9v1.7c0,1.4-0.5,2.2-1.8,2.5l2.1,6h-2.3
		L109.8,20.6L109.8,20.6z M109.8,15.3v4.1h0.7c0.8,0,1.1-0.4,1.1-1.1v-1.9c0-0.7-0.3-1.1-1.1-1.1L109.8,15.3L109.8,15.3z
		 M117.4,20.2v6.4h-2.2V13.5h2.2v5.8l2.4-5.8h2.2l-2.6,5.9l2.6,7.2h-2.3L117.4,20.2L117.4,20.2z M125.1,26.6l2.5-13.1h2.5l2.5,13.1
		h-2.3l-0.4-2.4h-2.3l-0.4,2.4H125.1L125.1,26.6z M127.9,22.4h1.8l-0.9-5.3L127.9,22.4z M135.2,18.3v8.3h-1.9V13.5h2.2l2.4,7.5v-7.5
		h1.8v13.1h-1.9L135.2,18.3z M147.8,17v6.1c0,2-0.8,3.5-3.2,3.5h-3.4V13.5h3.4C147,13.5,147.8,15,147.8,17z M144.3,24.8
		c0.9,0,1.3-0.5,1.3-1.3v-6.9c0-0.8-0.3-1.3-1.3-1.3h-0.9v9.5L144.3,24.8L144.3,24.8z"/>
</g>
<g>
	<path class="st1" d="M43.3,32.8h5.3v1.8h-3.1v3.8h2.2v1.8h-2.2v4h3.1V46h-5.3V32.8L43.3,32.8z M49.5,42.5v-6.4c0-2.1,1-3.5,3.3-3.5
		c2.4,0,3.1,1.4,3.1,3.3v1.6h-2v-1.7c0-0.8-0.3-1.3-1.1-1.3s-1.1,0.6-1.1,1.4V43c0,0.8,0.3,1.4,1.1,1.4s1.1-0.5,1.1-1.3v-2.4h2V43
		c0,1.9-0.8,3.3-3.1,3.3C50.5,46.1,49.5,44.6,49.5,42.5z M57.1,42.5v-6.4c0-2.1,1-3.5,3.3-3.5s3.4,1.5,3.4,3.5v6.4
		c0,2-1,3.5-3.4,3.5C58.2,46.1,57.1,44.6,57.1,42.5z M61.6,42.9v-7.1c0-0.8-0.3-1.4-1.1-1.4s-1.1,0.6-1.1,1.4v7.1
		c0,0.8,0.3,1.4,1.1,1.4C61.3,44.2,61.6,43.7,61.6,42.9z M67,37.7V46h-1.9V32.9h2.2l2.4,7.5v-7.5h1.8V46h-1.9L67,37.7z M72.8,42.5
		v-6.4c0-2.1,1-3.5,3.3-3.5s3.4,1.5,3.4,3.5v6.4c0,2-1,3.5-3.4,3.5C73.8,46.1,72.8,44.6,72.8,42.5z M77.2,42.9v-7.1
		c0-0.8-0.3-1.4-1.1-1.4S75,35,75,35.8v7.1c0,0.8,0.3,1.4,1.1,1.4C76.9,44.2,77.2,43.7,77.2,42.9z M86.8,37.4l-1.6,8.5h-1l-1.6-8.5
		v8.5h-1.8V32.8h2.6l1.4,7.4l1.3-7.4h2.8v13.1h-2L86.8,37.4L86.8,37.4z M90.1,32.8h2.2v13.1h-2.2V32.8z M93.5,42.5v-6.4
		c0-2.1,1-3.5,3.3-3.5c2.4,0,3.1,1.4,3.1,3.3v1.6h-2v-1.7c0-0.8-0.3-1.3-1.1-1.3s-1.1,0.6-1.1,1.4V43c0,0.8,0.3,1.4,1.1,1.4
		s1.1-0.5,1.1-1.3v-2.4h2V43c0,1.9-0.8,3.3-3.1,3.3C94.5,46.1,93.5,44.6,93.5,42.5z M107.1,38.9h3.1v7h-1.6v-1.4
		c-0.3,1-0.9,1.6-2.1,1.6c-1.9,0-2.8-1.5-2.8-3.5v-6.4c0-2.1,1-3.5,3.3-3.5c2.4,0,3.2,1.4,3.2,3.3v1.2h-2v-1.3
		c0-0.8-0.3-1.3-1.1-1.3S106,35.2,106,36v7.1c0,0.8,0.3,1.4,1.1,1.4c0.7,0,1.1-0.4,1.1-1.3v-2.3h-1v-2L107.1,38.9L107.1,38.9z
		 M113.9,39.9v6h-2.2V32.8h3.2c2.2,0,3,1.1,3,2.9v1.7c0,1.4-0.5,2.2-1.8,2.5l2.1,6h-2.3L113.9,39.9z M113.9,34.6v4.1h0.7
		c0.8,0,1.1-0.4,1.1-1.1v-1.9c0-0.7-0.3-1.1-1.1-1.1H113.9z M118.9,42.5v-6.4c0-2.1,1-3.5,3.3-3.5s3.4,1.5,3.4,3.5v6.4
		c0,2-1,3.5-3.4,3.5C119.9,46.1,118.9,44.6,118.9,42.5z M123.4,42.9v-7.1c0-0.8-0.3-1.4-1.1-1.4s-1.1,0.6-1.1,1.4v7.1
		c0,0.8,0.3,1.4,1.1,1.4C123.1,44.2,123.4,43.7,123.4,42.9z M131.3,37.8l-1.2,8.1H128l-1.8-13.1h2.1l1,8.3l1.1-8.3h1.8l1.2,8.3
		l1-8.3h1.9l-1.7,13.1h-2.1L131.3,37.8L131.3,37.8z M137.1,32.8h5.9v1.8h-1.8v11.3h-2.3V34.6h-1.8V32.8z M148,40.1h-2.1v5.8h-2.2
		V32.8h2.2v5.6h2.1v-5.6h2.2v13.1H148V40.1z"/>
</g>
</svg>
