<?xml version="1.0" encoding="utf-8"?>
<!-- Generator: Adobe Illustrator 28.2.0, SVG Export Plug-In . SVG Version: 6.00 Build 0)  -->
<svg version="1.1" id="Layer_1" xmlns="http://www.w3.org/2000/svg" xmlns:xlink="http://www.w3.org/1999/xlink" x="0px" y="0px"
	 viewBox="0 0 160.9 160.9" style="enable-background:new 0 0 160.9 160.9;" xml:space="preserve">
<style type="text/css">
	.st0{fill:#F59C2D;}
	.st1{fill:#FFFFFF;}
</style>
<path class="st0" d="M0,0h160.9v160.9H0V0z"/>
<path class="st1" d="M11.6,19.4v5.7l3.9-4v24.8H21V13.5h-4.4L11.6,19.4z M24,19.4v5.7h0.1l3.8-4v24.8h5.5V13.5H29L24,19.4z"/>
<g>
	<path class="st1" d="M26.6,122.5h24.2c0.3,0,0.6-0.3,0.6-0.6c0-0.2-0.1-0.3-0.2-0.4l-12-15.6l-0.1-0.1c-0.1-0.1-0.3-0.2-0.4-0.2
		c-0.1,0-0.3,0.1-0.4,0.2l-0.1,0.1l-0.1,0.1l-11.8,15.4l-0.2,0.2c-0.1,0.1-0.1,0.2-0.1,0.3C26,122.2,26.3,122.5,26.6,122.5z
		 M50.7,124.7H26.4c-0.3,0-0.6,0.3-0.6,0.6v19c0,0.3,0.3,0.6,0.6,0.6h7.8V133c0-0.3,0.3-0.6,0.6-0.6H42c0.3,0,0.6,0.3,0.6,0.6v11.9
		h8c0.3,0,0.6-0.3,0.6-0.6v-19C51.3,125,51.1,124.7,50.7,124.7L50.7,124.7z M134.5,119.7h-24c-0.3,0-0.6,0.3-0.6,0.6v24.2
		c0,0.3,0.3,0.6,0.6,0.6h24c0.3,0,0.6-0.3,0.6-0.6v-24.2C135.1,120,134.9,119.7,134.5,119.7 M121.4,135.6c0,0.3-0.3,0.6-0.6,0.6
		h-7.2c-0.3,0-0.6-0.3-0.6-0.6v-4.4c0-0.3,0.3-0.6,0.6-0.6h7.2c0.3,0,0.6,0.3,0.6,0.6V135.6z M121.4,127.5c0,0.3-0.3,0.6-0.6,0.6
		h-7.2c-0.3,0-0.6-0.3-0.6-0.6v-4.4c0-0.3,0.3-0.6,0.6-0.6h7.2c0.3,0,0.6,0.3,0.6,0.6V127.5z M132.4,135.6c0,0.3-0.3,0.6-0.6,0.6
		h-7.2c-0.3,0-0.6-0.3-0.6-0.6v-4.4c0-0.3,0.3-0.6,0.6-0.6h7.2c0.3,0,0.6,0.3,0.6,0.6V135.6z M132.4,127.5c0,0.3-0.3,0.6-0.6,0.6
		h-7.2c-0.3,0-0.6-0.3-0.6-0.6v-4.4c0-0.3,0.3-0.6,0.6-0.6h7.2c0.3,0,0.6,0.3,0.6,0.6V127.5z M78.7,63.5H55.3
		c-0.3,0-0.6,0.3-0.6,0.6v80.3c0,0.3,0.3,0.6,0.6,0.6h23.5c0.3,0,0.6-0.3,0.6-0.6V64.1C79.3,63.7,79.1,63.5,78.7,63.5 M64.8,135.8
		c0,0.2-0.1,0.3-0.3,0.3h-5.4c-0.2,0-0.3-0.1-0.3-0.3v-6c0-0.2,0.1-0.3,0.3-0.3h5.4c0.2,0,0.3,0.1,0.3,0.3V135.8z M64.8,122
		c0,0.2-0.1,0.3-0.3,0.3h-5.4c-0.2,0-0.3-0.1-0.3-0.3v-6c0-0.2,0.1-0.3,0.3-0.3h5.4c0.2,0,0.3,0.1,0.3,0.3V122z M64.8,108.2
		c0,0.2-0.1,0.3-0.3,0.3h-5.4c-0.2,0-0.3-0.1-0.3-0.3v-6c0-0.2,0.1-0.3,0.3-0.3h5.4c0.2,0,0.3,0.1,0.3,0.3V108.2z M64.8,94.5
		c0,0.2-0.1,0.3-0.3,0.3h-5.4c-0.2,0-0.3-0.1-0.3-0.3v-6c0-0.2,0.1-0.3,0.3-0.3h5.4c0.2,0,0.3,0.1,0.3,0.3V94.5z M64.8,80.7
		c0,0.2-0.1,0.3-0.3,0.3h-5.4c-0.2,0-0.3-0.1-0.3-0.3v-6c0-0.2,0.1-0.3,0.3-0.3h5.4c0.2,0,0.3,0.1,0.3,0.3V80.7z M75.3,135.8
		c0,0.2-0.1,0.3-0.3,0.3h-5.4c-0.2,0-0.3-0.1-0.3-0.3v-6c0-0.2,0.1-0.3,0.3-0.3H75c0.2,0,0.3,0.1,0.3,0.3V135.8z M75.3,122
		c0,0.2-0.1,0.3-0.3,0.3h-5.4c-0.2,0-0.3-0.1-0.3-0.3v-6c0-0.2,0.1-0.3,0.3-0.3H75c0.2,0,0.3,0.1,0.3,0.3V122z M75.3,108.2
		c0,0.2-0.1,0.3-0.3,0.3h-5.4c-0.2,0-0.3-0.1-0.3-0.3v-6c0-0.2,0.1-0.3,0.3-0.3H75c0.2,0,0.3,0.1,0.3,0.3V108.2z M75.3,94.5
		c0,0.2-0.1,0.3-0.3,0.3h-5.4c-0.2,0-0.3-0.1-0.3-0.3v-6c0-0.2,0.1-0.3,0.3-0.3H75c0.2,0,0.3,0.1,0.3,0.3V94.5z M75.3,80.7
		c0,0.2-0.1,0.3-0.3,0.3h-5.4c-0.2,0-0.3-0.1-0.3-0.3v-6c0-0.2,0.1-0.3,0.3-0.3H75c0.2,0,0.3,0.1,0.3,0.3V80.7z M135.1,117.3
		c0,0.3-0.2,0.5-0.5,0.5h-24.2c-0.3,0-0.5-0.2-0.5-0.5v-4.8c0-0.3,0.2-0.5,0.5-0.5h24.2c0.3,0,0.5,0.2,0.5,0.5V117.3z M107.1,78.6
		c-0.1-0.3-0.3-0.4-0.6-0.4c-0.1,0-0.2,0-0.3,0.1l-0.2,0.2l-23.1,29.3l-0.1,0.1c-0.1,0.1-0.2,0.3-0.2,0.5v36c0,0.3,0.3,0.6,0.6,0.6
		h23.5c0.3,0,0.6-0.3,0.6-0.6V78.8C107.2,78.8,107.2,78.7,107.1,78.6z M97.4,94.5l0.2-0.2c1.6-2,4.2-5.3,5.5-6.9l0.2-0.2
		c0.1-0.1,0.3-0.2,0.5-0.2c0.3,0,0.6,0.2,0.6,0.5v7.4c0,0.4-0.3,0.6-0.6,0.7H98c-0.4,0-0.6-0.3-0.6-0.7
		C97.3,94.8,97.3,94.6,97.4,94.5L97.4,94.5z M93.7,135.5c0,0.3-0.3,0.6-0.6,0.6h-7c-0.3,0-0.6-0.3-0.6-0.6v-4.4
		c0-0.3,0.3-0.6,0.6-0.6h7c0.3,0,0.6,0.3,0.6,0.6V135.5z M93.7,127.5c0,0.3-0.3,0.6-0.6,0.6h-7c-0.3,0-0.6-0.3-0.6-0.6v-4.4
		c0-0.3,0.3-0.6,0.6-0.6h7c0.3,0,0.6,0.3,0.6,0.6V127.5z M93.7,119.4c0,0.3-0.3,0.6-0.6,0.6h-7c-0.3,0-0.6-0.3-0.6-0.6V115
		c0-0.3,0.3-0.6,0.6-0.6h7c0.3,0,0.6,0.3,0.6,0.6V119.4z M93.8,101.6v9.6c0,0.3-0.3,0.6-0.6,0.6h-7c-0.3,0-0.6-0.3-0.6-0.6V110v-0.2
		v-0.1c0,0,0-0.1,0.1-0.1c0,0,0-0.1,0.1-0.1c0.9-1.3,4.9-6.3,6.6-8.3l0.2-0.2c0.1-0.1,0.3-0.2,0.5-0.2c0.3,0,0.6,0.2,0.6,0.5v0.3
		L93.8,101.6L93.8,101.6z M104.5,135.5c0,0.3-0.3,0.6-0.6,0.6h-7c-0.3,0-0.6-0.3-0.6-0.6v-4.4c0-0.3,0.3-0.6,0.6-0.6h7
		c0.3,0,0.6,0.3,0.6,0.6V135.5z M104.5,127.5c0,0.3-0.3,0.6-0.6,0.6h-7c-0.3,0-0.6-0.3-0.6-0.6v-4.4c0-0.3,0.3-0.6,0.6-0.6h7
		c0.3,0,0.6,0.3,0.6,0.6V127.5z M104.5,119.4c0,0.3-0.3,0.6-0.6,0.6h-7c-0.3,0-0.6-0.3-0.6-0.6V115c0-0.3,0.3-0.6,0.6-0.6h7
		c0.3,0,0.6,0.3,0.6,0.6V119.4z M104.5,111.3c0,0.3-0.3,0.6-0.6,0.6h-7c-0.3,0-0.6-0.3-0.6-0.6v-4.4c0-0.3,0.3-0.6,0.6-0.6h7
		c0.3,0,0.6,0.3,0.6,0.6V111.3z M104.5,103.2c0,0.3-0.3,0.6-0.6,0.6h-7c-0.3,0-0.6-0.3-0.6-0.6v-4.4c0-0.3,0.3-0.6,0.6-0.6h7
		c0.3,0,0.6,0.3,0.6,0.6V103.2z"/>
</g>
<g>
	<path class="st1" d="M44,23.8V22h2.1v1.8c0,0.7,0.3,1.2,1.1,1.2c0.7,0,1-0.5,1-1.2v-0.5c0-0.8-0.3-1.2-1-1.9l-1.3-1.3
		c-1.3-1.2-1.8-2-1.8-3.5v-0.4c0-1.6,1-2.9,3.1-2.9c2.2,0,3.1,1.1,3.1,3v1.1h-2v-1.1c0-0.8-0.3-1.1-1-1.1c-0.6,0-1,0.3-1,1.1v0.3
		c0,0.7,0.4,1.2,1,1.8l1.4,1.4c1.2,1.2,1.8,2,1.8,3.4v0.6c0,1.8-1,3.1-3.2,3.1S44,25.5,44,23.8L44,23.8z M57.7,13.5v9.9
		c0,2-0.9,3.4-3.1,3.4c-2.3,0-3.3-1.3-3.3-3.4v-9.9h2.2v10.2c0,0.8,0.3,1.3,1.1,1.3s1.1-0.5,1.1-1.3V13.5H57.7z M58.9,23.8V22H61
		v1.8c0,0.7,0.3,1.2,1.1,1.2c0.7,0,1-0.5,1-1.2v-0.5c0-0.8-0.3-1.2-1-1.9l-1.3-1.3c-1.3-1.2-1.8-2-1.8-3.5v-0.4
		c0-1.6,0.9-2.9,3.1-2.9s3.1,1.1,3.1,3v1.1h-2v-1.1c0-0.8-0.3-1.1-1-1.1c-0.6,0-1,0.3-1,1.1v0.3c0,0.7,0.4,1.2,1,1.8l1.4,1.4
		c1.2,1.2,1.8,2,1.8,3.4v0.6c0,1.8-1,3.1-3.2,3.1C59.7,26.8,58.9,25.5,58.9,23.8L58.9,23.8z M65.7,13.5h5.9v1.8h-1.8v11.3h-2.2V15.3
		h-1.8v-1.8H65.7L65.7,13.5z M71.2,26.6l2.5-13.1h2.5l2.5,13.1h-2.3L76,24.2h-2.3l-0.4,2.4H71.2z M74,22.4h1.8l-0.9-5.3L74,22.4
		L74,22.4z M79.6,13.5h2.2v13.1h-2.2V13.5z M84.9,18.3v8.3H83V13.5h2.2l2.4,7.5v-7.5h1.8v13.1h-1.9L84.9,18.3z M90.2,26.6l2.5-13.1
		h2.5l2.5,13.1h-2.3L95,24.2h-2.3l-0.4,2.4H90.2z M93,22.4h1.8l-0.9-5.3L93,22.4L93,22.4z M98.4,13.5h3.2c2.2,0,2.9,1,2.9,2.9v1.3
		c0,1.1-0.4,1.8-1.3,2.1c1.1,0.3,1.6,1,1.6,2.2v1.7c0,1.9-0.8,2.9-3,2.9h-3.4V13.5z M100.6,19h0.8c0.7,0,1-0.4,1-1.1v-1.6
		c0-0.7-0.3-1.1-1.1-1.1h-0.8L100.6,19L100.6,19z M100.6,20.7v4.1h1c0.7,0,1.1-0.4,1.1-1.1v-2c0-0.7-0.3-1.1-1.1-1.1h-1V20.7z
		 M105.8,13.5h2.2v11.3h2.6v1.8h-4.8V13.5L105.8,13.5z M111.5,13.5h5.3v1.8h-3.1v3.8h2.2v1.8h-2.2v4h3.1v1.8h-5.3V13.5L111.5,13.5z
		 M120.5,23.2v-6.4c0-2.1,1-3.5,3.3-3.5c2.4,0,3.1,1.4,3.1,3.3v1.6h-2v-1.8c0-0.8-0.3-1.3-1.1-1.3s-1.1,0.6-1.1,1.4v7.1
		c0,0.8,0.3,1.4,1.1,1.4s1.1-0.5,1.1-1.3v-2.4h2v2.3c0,1.9-0.8,3.3-3.1,3.3C121.4,26.8,120.5,25.2,120.5,23.2z M127.9,13.5h2.2v13.1
		h-2.2V13.5z M130.9,13.5h5.9v1.8H135v11.3h-2.2V15.3H131v-1.8H130.9L130.9,13.5z M137.7,13.5h2.2v13.1h-2.2V13.5z M141.1,13.5h5.3
		v1.8h-3.1v3.8h2.2v1.8h-2.2v4h3.1v1.8h-5.3V13.5L141.1,13.5z M146.9,23.8V22h2.1v1.8c0,0.7,0.3,1.2,1.1,1.2c0.7,0,1-0.5,1-1.2v-0.5
		c0-0.8-0.3-1.2-1-1.9l-1.3-1.3c-1.3-1.2-1.8-2-1.8-3.5v-0.4c0-1.6,1-2.9,3.1-2.9c2.2,0,3.1,1.1,3.1,3v1.1h-2v-1.1
		c0-0.8-0.3-1.1-1-1.1c-0.6,0-1,0.3-1,1.1v0.3c0,0.7,0.4,1.2,1,1.8l1.4,1.4c1.2,1.2,1.8,2,1.8,3.4v0.6c0,1.8-1,3.1-3.2,3.1
		S146.9,25.5,146.9,23.8L146.9,23.8z"/>
</g>
<g>
	<path class="st1" d="M44,45.9l2.5-13.1H49l2.5,13.1h-2.2l-0.4-2.4h-2.3l-0.4,2.4H44L44,45.9z M46.8,41.8h1.8l-0.9-5.3L46.8,41.8
		L46.8,41.8z M54.3,37.7V46h-1.9V32.9h2.2l2.4,7.5v-7.5h1.8V46h-1.9L54.3,37.7z M66.7,36.3v6.1c0,2-0.8,3.5-3.2,3.5h-3.4V32.8h3.4
		C65.8,32.8,66.7,34.3,66.7,36.3z M63.2,44.1c0.9,0,1.3-0.5,1.3-1.3v-6.9c0-0.8-0.3-1.3-1.3-1.3h-0.9v9.5L63.2,44.1L63.2,44.1z
		 M69.9,42.5v-6.4c0-2.1,1-3.5,3.3-3.5c2.4,0,3.1,1.4,3.1,3.3v1.6h-2v-1.7c0-0.8-0.3-1.3-1.1-1.3s-1.1,0.6-1.1,1.4V43
		c0,0.8,0.3,1.4,1.1,1.4s1.1-0.5,1.1-1.3v-2.4h2V43c0,1.9-0.8,3.3-3.1,3.3C70.8,46.1,69.9,44.6,69.9,42.5z M77.5,42.5v-6.4
		c0-2.1,1-3.5,3.3-3.5s3.4,1.5,3.4,3.5v6.4c0,2-1,3.5-3.4,3.5C78.5,46.1,77.5,44.6,77.5,42.5z M81.9,42.9v-7.1
		c0-0.8-0.3-1.4-1.1-1.4s-1.1,0.6-1.1,1.4v7.1c0,0.8,0.3,1.4,1.1,1.4C81.6,44.2,81.9,43.7,81.9,42.9z M91.5,37.4l-1.6,8.5h-1
		l-1.6-8.5v8.5h-1.8V32.8h2.6l1.4,7.4l1.3-7.4h2.8v13.1h-2L91.5,37.4z M100.8,37.4l-1.6,8.5h-1l-1.6-8.5v8.5h-1.8V32.8h2.6l1.4,7.4
		l1.3-7.4h2.8v13.1h-2v-8.5H100.8L100.8,37.4z M110.5,32.8v9.9c0,2-0.9,3.4-3.1,3.4c-2.3,0-3.3-1.3-3.3-3.4v-9.9h2.2V43
		c0,0.8,0.3,1.3,1.1,1.3s1.1-0.5,1.1-1.3V32.8H110.5z M113.5,37.7V46h-1.9V32.9h2.2l2.4,7.5v-7.5h1.8V46h-1.9L113.5,37.7z
		 M119.3,32.8h2.2v13.1h-2.2V32.8z M122.5,32.8h5.9v1.8h-1.8v11.3h-2.3V34.6h-1.8V32.8z M129.4,32.8h2.2v13.1h-2.2V32.8z
		 M132.8,32.8h5.3v1.8H135v3.8h2.2v1.8H135v4h3.1V46h-5.3V32.8L132.8,32.8z M139,43.1v-1.8h2.1v1.8c0,0.7,0.3,1.2,1.1,1.2
		c0.7,0,1-0.5,1-1.2v-0.5c0-0.8-0.3-1.2-1-1.9l-1.3-1.3c-1.3-1.2-1.8-2-1.8-3.5v-0.4c0-1.6,0.9-2.9,3.1-2.9s3.1,1.1,3.1,3v1.1h-2
		v-1.1c0-0.8-0.3-1.1-1-1.1c-0.6,0-1,0.3-1,1.1v0.3c0,0.7,0.4,1.2,1,1.8l1.4,1.4c1.2,1.2,1.8,2,1.8,3.4v0.6c0,1.8-1,3.1-3.2,3.1
		C139.9,46.1,139,44.8,139,43.1L139,43.1z"/>
</g>
</svg>
