<?xml version="1.0" encoding="utf-8"?>
<!-- Generator: Adobe Illustrator 28.2.0, SVG Export Plug-In . SVG Version: 6.00 Build 0)  -->
<svg version="1.1" id="Layer_1" xmlns="http://www.w3.org/2000/svg" xmlns:xlink="http://www.w3.org/1999/xlink" x="0px" y="0px"
	 viewBox="0 0 160.9 160.9" style="enable-background:new 0 0 160.9 160.9;" xml:space="preserve">
<style type="text/css">
	.st0{fill:#3F7F45;}
	.st1{fill:#FFFFFF;}
</style>
<path class="st0" d="M0,0h160.9v160.9H0V0z"/>
<path class="st1" d="M20.3,13.5V46h-5.5V21.1l-3.8,4h-0.1v-5.7l5-5.9L20.3,13.5z M38.3,20.6v2.8c0,2.7-1.5,4.5-3.7,5.3
	c2.7,0.6,4,2.5,4,5.5V39c0,4.5-2.4,7.4-7.9,7.4s-7.5-3.2-7.5-8.1V34h5v4.6c0,1.9,0.7,3.2,2.5,3.2c1.7,0,2.4-1.2,2.4-2.9v-5.4
	c0-1.7-0.8-2.6-2.7-2.6h-2.3v-4.2h2.1c1.8,0,2.9-0.9,2.9-2.6v-3.5c0-1.8-0.6-2.9-2.3-2.9c-1.7,0-2.3,1.1-2.3,3.2v3.3h-5v-2.9
	c0-4.8,2-8.1,7.6-8.1C36.1,13.2,38.3,16,38.3,20.6 M139.5,100.8c-4.2-5.9-23.4-29.7-59.1-29.7s-54.8,23.7-59.1,29.7
	c-0.2,0.3-0.3,0.5-0.5,0.7c0.1,0.2,0.3,0.4,0.5,0.7c4.2,5.9,23.4,29.7,59.1,29.7c35.6,0,54.8-23.7,59.1-29.7
	c0.2-0.3,0.3-0.5,0.5-0.7C139.8,101.3,139.7,101,139.5,100.8 M60.5,86.1c0.3-0.5,1.4-1.8,1.5-2c0.3-0.4,0.8-0.4,1.2-0.5
	s0.9,0.1,0.9,0.4c0.1,0.3-0.1,1.4-0.3,1.6c-0.5,0.5-1.9,1.3-2.6,1.2C60.7,86.7,60.4,86.3,60.5,86.1 M59.3,88.6
	c0.1-0.1,0.1-0.1,0.1-0.2c0.4-0.5,1.3-0.6,2-0.7c0.6-0.1,1.4,0.2,1.5,0.6c0.1,0.4-1.5,1.2-1.9,1.4c-0.9,0.8-2.2,2.4-3,2.6
	c-0.3,0.1-0.5,0-0.6-0.1C57.9,91.1,58.6,89.8,59.3,88.6 M72.6,116c-0.5,1.9-1,2.6-1.5,3.2c-0.5,0.6-2.3,1.4-3.4,1.3
	c-1.1-0.1-1.3-3.1-1.3-4.6c0-0.5-0.8,1.1-1.2-2.2c-0.3-2.1-1.6,0.2-1.7-1.2c-0.1-1.4-0.8-1.1-1.5-2s-1.6,0.1-2.5,0.5
	c-1,0.4-0.6,0.7-1.9,0.2h-0.1c-1.3-3-2-6.2-2-9.7c0-0.8,0-1.7,0.1-2.5c0-0.1,0.1-0.2,0.2-0.2c1.3-1.6,1.3-1.9,1.3-1.9l1.5-0.5
	c0,0,2.3,0.4,4.1,1c1.4,0.5,3.7,1.8,5,1.2c1-0.4,1.7-0.9,1.6-1.7c-0.1-1-0.9-1.2-1.8-0.6c-0.4,0.2-1.1-1.5-1.7-1.4
	C65.2,95,66.5,97,66,97c-0.5,0.1-1.5-2.1-1.7-2.4c-0.2-0.3-0.9-1.2-1.6-0.5c-1.5,1.4-3.8,1.3-4.3,1.7c-1.5,1.1-1.8-0.4-1.8-1.2
	c0.1-0.2,0.1-0.4,0.2-0.6c0.5-0.5,2.2-0.7,2.8-0.3s1.1-0.1,1.4-0.4c0.3-0.3,0.2-0.7,0-1s0.3-0.6,0.7-0.7c0.3-0.1,1.4-0.9,1.9-1.1
	c0.4-0.3,2.7-0.5,3.8,0c1,0.5,2,0.1,2.5-0.5c0.6-0.8,1.4-1.3,1.8-1.5c0.4-0.2-0.9-1.3-1.9-0.1c-1,1.3-1.5,1.4-2,1.4
	s-3.3-0.7-3.7-1.6c-0.3-0.9,0.9-1.6,2-2.1s4-0.5,4.7-0.7c1.5-0.3,3.4-1.1,4.4-0.4c1,0.6-4,1.8-2.4,2.7c0.6,0.3,3.2-1.5,4.1-2
	c2.1-1.1-2.1-1.5-1.5-3.7c0.6-2.5-5.2-1.6-8-1.3c3.9-2.5,8.4-3.9,13.4-3.9c11.7,0,21.5,8.1,24.1,19c0,0.5-0.1,0.9-0.1,1.1
	c-0.2,0.9-1.9,1.7-2.9,0.2c-0.3-0.4-1.3-1.4-1.3,0.4c0,1.7,1.7,1.9,0.1,2.9c-1.6,1-1.9,0.8-2.6,1c-0.7,0.3-1.4,2-1.3,3
	c0.2,0.9,2.4,3.5,0.8,3.4c-0.4,0-3.4-2.1-3.9-3.4c-0.5-1.4-1.1-2.7-1.5-3.8c-0.4-1-1.5-1.3-2.3-0.7c-0.9,0.6,0.2,1.2-0.4,2.5
	c-0.6,1.3-1.1,2.4-2,1.4c-2.4-2.8-5.9-1.4-6.5-4.5c-0.3-1.7-1.7-1.5-2.9-2.5c-1.2-0.9-1.9-1.5-2.1-0.8c-0.2,0.6,3.8,3.8,4.1,4.6
	c0.4,1.2-1.2,2.3-2.4,2.5c-1.2,0.3-1.7-0.7-2.9-1.9s-1.7-2.1-1.7-1.1c-0.1,1.4,1.1,3.4,2.3,4.1c1,0.6,2.1,0.9,1.8,2
	c-0.3,1,0,0.4-1.1,1.6c-1.1,1.1-1.3,1.5-1.3,3c0.1,1.6-0.3,1.6-0.6,2.9C73.7,115.2,73.1,114.1,72.6,116 M99.3,106.1
	c0.8-0.1,2.1,1.1,1.6,1.5s-1.7,0.3-2.4-0.2C97.9,106.9,98.9,106.1,99.3,106.1 M98.2,105.3c-0.3-0.1-0.5-0.4-0.7-1s0.3-1,0.8-0.7
	s1.2,1,1.2,1.4C99.5,105.5,98.5,105.5,98.2,105.3 M87.2,105.3c-0.5,0.4-1.7,0.3-2.4-0.2c-0.6-0.5,0.4-1.3,0.8-1.3
	C86.5,103.7,87.7,104.9,87.2,105.3 M77.1,110.2c-0.3,0.6-1.3,4.7-1.9,4.2c-0.6-0.5,0.3-4.8,0.4-5.2
	C76.6,107.5,78.7,107.6,77.1,110.2 M80.5,126.4c-2.4,0-4.8-0.4-7-1c-0.3-0.3-0.5-0.7-0.3-1.2c0.8-2,3.1-2.8,4.9-3
	c4-0.4,9.3,2.6,10.2,2.1c0.8-0.5,2.5-2.7,5-2.6c1.7,0.1,1.7,0.4,2.3,0.6C91.4,124.5,86.1,126.4,80.5,126.4 M98,119.2
	c-0.2-0.1-0.5-0.2-0.8-0.3c-1.4-0.7-1.2,0.4-1.9,0.2s0.8-1.8-1.3-0.5c-2,1.3-1.5-0.2-2.3-2.4c-0.9-2.2,1-4.7,2.6-5.3
	c2.2-0.8,3.5-0.9,4.5-1.2c3-0.7,3.6-2.5,4.2-1.4l0.3,0.6c0.2,0.3,0.4,1,0.4,1.6C102.4,113.8,100.5,116.7,98,119.2 M104.8,106.7
	c-0.7-0.2-3.5-4-1.2-6.6c0.4-0.4-0.7-1.6-0.4-1.7c1.2-0.1,1.8,0.7,2.2,1.7v1.4C105.3,103.3,105.1,105,104.8,106.7 M51.3,23.3v-6.4
	c0-2.1,1-3.5,3.3-3.5c2.4,0,3.1,1.4,3.1,3.3v1.6h-2v-1.7c0-0.8-0.3-1.3-1.1-1.3s-1.1,0.6-1.1,1.4v7.1c0,0.8,0.3,1.4,1.1,1.4
	s1.1-0.5,1.1-1.3v-2.4h2v2.3c0,1.9-0.8,3.3-3.1,3.3C52.3,26.8,51.3,25.3,51.3,23.3L51.3,23.3z M59.1,13.5h2.2v11.3h2.6v1.8h-4.8
	V13.5z M65.2,13.5h2.2v13.1h-2.2V13.5z M75.1,18.1l-1.6,8.5h-1l-1.6-8.5v8.5h-1.8V13.5h2.6l1.4,7.4l1.3-7.4h2.8v13.1h-2L75.1,18.1
	L75.1,18.1z M78.3,26.7l2.5-13.1h2.5l2.5,13.1h-2.3l-0.4-2.4h-2.3l-0.4,2.4H78.3z M81,22.5h1.8l-0.9-5.3L81,22.5L81,22.5z
	 M85.5,13.5h5.9v1.8h-1.8v11.3h-2.2V15.3h-1.8L85.5,13.5L85.5,13.5z M92.6,13.5h5.3v1.8h-3.1v3.8H97v1.8h-2.2v4h3.1v1.8h-5.3V13.5
	L92.6,13.5z M50.9,45.7l2.5-13.1h2.5l2.5,13.1h-2.2l-0.4-2.4h-2.3l-0.4,2.4H50.9L50.9,45.7z M53.7,41.5h1.8l-0.9-5.3L53.7,41.5
	L53.7,41.5z M59.1,42.3v-6.4c0-2.1,1-3.5,3.3-3.5c2.4,0,3.1,1.4,3.1,3.3v1.6h-2v-1.7c0-0.8-0.3-1.3-1.1-1.3s-1.1,0.6-1.1,1.4v7.1
	c0,0.8,0.3,1.4,1.1,1.4s1.1-0.5,1.1-1.3v-2.4h2v2.3c0,1.9-0.8,3.3-3.1,3.3C60,45.9,59.1,44.3,59.1,42.3L59.1,42.3z M66.3,32.6h5.9
	v1.8h-1.8v11.3h-2.2V34.4h-1.8L66.3,32.6L66.3,32.6z M73.4,32.6h2.2v13.1h-2.2V32.6z M77.1,42.3v-6.4c0-2.1,1-3.5,3.3-3.5
	s3.4,1.5,3.4,3.5v6.4c0,2-1,3.5-3.4,3.5C78.1,45.9,77.1,44.3,77.1,42.3z M81.5,42.7v-7.1c0-0.8-0.3-1.4-1.1-1.4s-1.1,0.6-1.1,1.4
	v7.1c0,0.8,0.3,1.4,1.1,1.4C81.2,44,81.5,43.5,81.5,42.7z M87.1,37.4v8.3h-1.9V32.6h2.2l2.4,7.5v-7.5h1.8v13.1h-1.9L87.1,37.4z"/>
</svg>
