<?xml version="1.0" encoding="utf-8"?>
<!-- Generator: Adobe Illustrator 28.2.0, SVG Export Plug-In . SVG Version: 6.00 Build 0)  -->
<svg version="1.1" id="Layer_1" xmlns="http://www.w3.org/2000/svg" xmlns:xlink="http://www.w3.org/1999/xlink" x="0px" y="0px"
	 viewBox="0 0 160.9 160.9" style="enable-background:new 0 0 160.9 160.9;" xml:space="preserve">
<style type="text/css">
	.st0{fill:#DE1868;}
	.st1{fill:#FFFFFF;}
</style>
<path class="st0" d="M0,0h160.9v160.9H0V0z"/>
<path class="st1" d="M15.6,21.1v24.8H21V13.5h-4.3l-5.1,5.8V25h0.1L15.6,21.1L15.6,21.1z M41,37.6V21.9c0-5.1-2.5-8.8-8.1-8.8
	c-5.5,0-8,3.7-8,8.8v15.7c0,5,2.5,8.8,8,8.8C38.4,46.3,41,42.6,41,37.6 M30.3,38.4V21c0-2,0.7-3.4,2.6-3.4c1.9,0,2.6,1.4,2.6,3.4
	v17.4c0,2-0.7,3.4-2.6,3.4S30.3,40.4,30.3,38.4"/>
<g>
	<path class="st1" d="M53.6,20.6v6h-2.2V13.4h3.2c2.2,0,3,1.1,3,2.9V18c0,1.4-0.5,2.2-1.8,2.5l2.1,6h-2.3L53.6,20.6z M53.6,15.2v4.1
		h0.7c0.8,0,1.1-0.4,1.1-1.1v-1.9c0-0.7-0.3-1.1-1.1-1.1H53.6z M59.1,13.4h5.3v1.8h-3.1V19h2.2v1.8h-2.2v4h3.1v1.8h-5.3V13.4z
		 M71.9,17v6.1c0,2-0.8,3.5-3.2,3.5h-3.4V13.4h3.4C71.1,13.4,71.9,14.9,71.9,17z M68.4,24.8c0.9,0,1.3-0.5,1.3-1.3v-6.9
		c0-0.8-0.3-1.3-1.3-1.3h-0.9v9.5L68.4,24.8L68.4,24.8z M79.8,13.4v9.9c0,2-0.9,3.4-3.1,3.4c-2.3,0-3.3-1.3-3.3-3.4v-9.9h2.2v10.2
		c0,0.8,0.3,1.3,1.1,1.3s1.1-0.5,1.1-1.3V13.4H79.8z M81.2,23.2v-6.4c0-2.1,1-3.5,3.3-3.5c2.4,0,3.1,1.4,3.1,3.3v1.6h-2v-1.8
		c0-0.8-0.3-1.3-1.1-1.3s-1.1,0.6-1.1,1.4v7.1c0,0.8,0.3,1.4,1.1,1.4s1.1-0.5,1.1-1.3v-2.4h2v2.3c0,1.9-0.8,3.3-3.1,3.3
		C82.2,26.7,81.2,25.2,81.2,23.2z M89,13.4h5.3v1.8h-3.1V19h2.2v1.8h-2.2v4h3.1v1.8H89V13.4z M102.3,17v6.1c0,2-0.8,3.5-3.2,3.5
		h-3.4V13.4h3.4C101.5,13.4,102.3,14.9,102.3,17z M98.8,24.8c0.9,0,1.3-0.5,1.3-1.3v-6.9c0-0.8-0.3-1.3-1.3-1.3h-0.9v9.5L98.8,24.8
		L98.8,24.8z"/>
</g>
<g>
	<path class="st1" d="M51.4,32.6h2.2v13.1h-2.2V32.6z M56.9,37.4v8.3H55V32.6h2.2l2.4,7.5v-7.5h1.8v13.1h-1.9L56.9,37.4z M62.7,32.6
		H68v1.8h-3.1v3.8h2.2V40h-2.2v4H68v1.8h-5.3V32.6L62.7,32.6z M71.3,46.6v-0.9c-1.8-0.3-2.5-1.6-2.5-3.4v-6.4c0-2.1,1-3.5,3.3-3.5
		s3.4,1.5,3.4,3.5v6.4c0,1.4-0.5,2.6-1.6,3.1l1.6,0.3v1.6L71.3,46.6z M73.3,42.8v-7.2c0-0.8-0.3-1.4-1.1-1.4s-1.1,0.6-1.1,1.4v7.2
		c0,0.8,0.3,1.4,1.1,1.4C72.9,44.1,73.3,43.6,73.3,42.8z M83.1,32.6v9.9c0,2-0.9,3.4-3.1,3.4c-2.3,0-3.3-1.3-3.3-3.4v-9.9h2.2v10.2
		c0,0.8,0.3,1.3,1.1,1.3s1.1-0.5,1.1-1.3V32.6H83.1z M83.8,45.7l2.5-13.1h2.5l2.5,13.1H89l-0.4-2.4h-2.3l-0.4,2.4H83.8z M86.6,41.5
		h1.8l-0.9-5.3L86.6,41.5L86.6,41.5z M92.3,32.6h2.2v11.3h2.6v1.8h-4.8V32.6L92.3,32.6z M98.1,32.6h2.2v13.1h-2.2V32.6z M101.3,32.6
		h5.9v1.8h-1.8v11.3h-2.2V34.4h-1.8v-1.8H101.3L101.3,32.6z M108.2,32.6h2.2v13.1h-2.2V32.6z M111.7,32.6h5.3v1.8h-3.1v3.8h2.2V40
		h-2.2v4h3.1v1.8h-5.3V32.6L111.7,32.6z M117.9,42.9v-1.8h2.1v1.8c0,0.7,0.3,1.2,1.1,1.2c0.7,0,1-0.5,1-1.2v-0.5
		c0-0.8-0.3-1.2-1-1.9l-1.3-1.3c-1.3-1.2-1.8-2-1.8-3.5v-0.4c0-1.6,1-2.9,3.1-2.9c2.2,0,3.1,1.1,3.1,3v1.1h-2v-1.1
		c0-0.8-0.3-1.1-1-1.1c-0.6,0-1,0.3-1,1.1v0.3c0,0.7,0.4,1.2,1,1.8l1.4,1.4c1.2,1.2,1.8,2,1.8,3.4v0.6c0,1.8-1,3.1-3.2,3.1
		C118.7,45.9,117.9,44.6,117.9,42.9L117.9,42.9z"/>
</g>
<g>
	<path class="st1" d="M53.1,87.9L38,103l15.1,15.2V87.9z M107.9,118.2L123,103l-15.1-15.1V118.2z M95.7,75.7L80.5,60.6L65.4,75.7
		H95.7z M65.4,130.4l15.1,15.1l15.2-15.1H65.4z M64.1,88.9H97V98H64.1V88.9z M64.1,107.7H97v9.5H64.1V107.7z"/>
</g>
</svg>
