<?xml version="1.0" encoding="utf-8"?>
<!-- Generator: Adobe Illustrator 28.2.0, SVG Export Plug-In . SVG Version: 6.00 Build 0)  -->
<svg version="1.1" id="Layer_1" xmlns="http://www.w3.org/2000/svg" xmlns:xlink="http://www.w3.org/1999/xlink" x="0px" y="0px"
	 viewBox="0 0 160.9 160.9" style="enable-background:new 0 0 160.9 160.9;" xml:space="preserve">
<style type="text/css">
	.st0{fill:#C51D2E;}
	.st1{fill:#FFFFFF;}
</style>
<path class="st0" d="M0,0h160.9v160.9H0V0z"/>
<path class="st1" d="M25.2,46h5.2v-5.3h2.2v-4.3h-2.2V13.5H25l-9.4,23.8v3.3h9.6L25.2,46L25.2,46z M20.4,36.4L25.3,23v13.4H20.4z"/>
<g>
	<path class="st1" d="M70.6,86.3L41.7,69.6v54l28.9,8.7V86.3z M73.7,86.4v45.9l29.1-8.8V69.6L73.7,86.4z M125.4,68.3
		c0-1.9-1.5-3.4-3.4-3.4s-3.4,1.5-3.4,3.4V72h6.8L125.4,68.3L125.4,68.3z M119.5,122.6h-0.9l3.4,11.9l3.4-11.9h-0.8h0.8v-48h-6.8v48
		H119.5z"/>
	<path class="st1" d="M109,72l-3.1-2.5V125l-32.1,10.4h-3.2l-32-8.9v-57L35.5,72v56.6l34.9,9.7H74l32.1-10.2l2.9-0.9L109,72z"/>
</g>
<g>
	<path class="st1" d="M46,32.8h5.3v1.8h-3.1v3.8h2.2v1.8h-2.2v4h3.1V46H46V32.8L46,32.8z M59.2,36.3v6.1c0,2-0.8,3.5-3.2,3.5h-3.4
		V32.8H56C58.4,32.8,59.2,34.3,59.2,36.3z M55.7,44.1c0.9,0,1.3-0.5,1.3-1.3v-6.9c0-0.8-0.3-1.3-1.3-1.3h-0.9v9.5H55.7z M67.1,32.8
		v9.9c0,2-0.9,3.4-3.1,3.4c-2.3,0-3.3-1.3-3.3-3.4v-9.9h2.2V43c0,0.8,0.3,1.3,1.1,1.3s1.1-0.5,1.1-1.3V32.8H67.1z M68.5,42.5v-6.4
		c0-2.1,1-3.5,3.3-3.5c2.4,0,3.1,1.4,3.1,3.3v1.6h-2v-1.7c0-0.8-0.3-1.3-1.1-1.3s-1.1,0.6-1.1,1.4V43c0,0.8,0.3,1.4,1.1,1.4
		s1.1-0.5,1.1-1.3v-2.4h2V43c0,1.9-0.8,3.3-3.1,3.3C69.5,46.1,68.5,44.6,68.5,42.5L68.5,42.5z M75.7,45.9l2.5-13.1h2.5l2.5,13.1
		h-2.3l-0.4-2.4h-2.3l-0.4,2.4H75.7z M78.4,41.8h1.8l-0.9-5.3L78.4,41.8L78.4,41.8z M82.9,32.8h5.9v1.8H87v11.3h-2.2V34.6H83v-1.8
		H82.9L82.9,32.8z M90,32.8h2.2v13.1H90V32.8z M93.7,42.5v-6.4c0-2.1,1-3.5,3.3-3.5s3.4,1.5,3.4,3.5v6.4c0,2-1,3.5-3.4,3.5
		C94.7,46.1,93.7,44.6,93.7,42.5z M98.2,42.9v-7.1c0-0.8-0.3-1.4-1.1-1.4S96,35,96,35.8v7.1c0,0.8,0.3,1.4,1.1,1.4
		C97.8,44.2,98.2,43.7,98.2,42.9z M103.7,37.7V46h-1.9V32.9h2.2l2.4,7.5v-7.5h1.8V46h-1.9L103.7,37.7z"/>
</g>
<g>
	<path class="st1" d="M48.5,27.5v-0.9C46.7,26.3,46,25,46,23.2v-6.4c0-2.1,1-3.5,3.3-3.5s3.4,1.5,3.4,3.5v6.4c0,1.4-0.5,2.6-1.6,3.1
		l1.6,0.3v1.6L48.5,27.5L48.5,27.5z M50.5,23.7v-7.2c0-0.8-0.3-1.4-1.1-1.4s-1.1,0.6-1.1,1.4v7.2c0,0.8,0.3,1.4,1.1,1.4
		C50.1,25.1,50.5,24.5,50.5,23.7z M60.5,13.5v9.9c0,2-0.9,3.4-3.1,3.4c-2.3,0-3.3-1.3-3.3-3.4v-9.9h2.2v10.2c0,0.8,0.3,1.3,1.1,1.3
		s1.1-0.5,1.1-1.3V13.5H60.5z M61.4,26.6l2.5-13.1h2.5l2.5,13.1h-2.3l-0.4-2.4h-2.3l-0.4,2.4H61.4z M64.1,22.5h1.8L65,17.2
		L64.1,22.5L64.1,22.5z M69.9,13.5h2.2v11.3h2.6v1.8h-4.8V13.5z M75.8,13.5H78v13.1h-2.2V13.5z M79.1,13.5H85v1.8h-1.8v11.3H81V15.3
		h-1.8L79.1,13.5z M90.3,21.6v5h-2.2v-5l-2.5-8.1h2.3l1.3,5l1.3-5h2.1L90.3,21.6L90.3,21.6z"/>
</g>
</svg>
