<?xml version="1.0" encoding="utf-8"?>
<!-- Generator: Adobe Illustrator 28.2.0, SVG Export Plug-In . SVG Version: 6.00 Build 0)  -->
<svg version="1.1" id="Layer_1" xmlns="http://www.w3.org/2000/svg" xmlns:xlink="http://www.w3.org/1999/xlink" x="0px" y="0px"
	 viewBox="0 0 160.9 160.9" style="enable-background:new 0 0 160.9 160.9;" xml:space="preserve">
<style type="text/css">
	.st0{fill:#E5273C;}
	.st1{fill:#FFFFFF;}
</style>
<path class="st0" d="M0,0h160.9v160.9H0V0z"/>
<path class="st1" d="M22.4,21.2L22.4,21.2L22.5,46h5.4V13.6h-4.3l-5,5.9v5.7L22.4,21.2z M131.2,81.3c2.5,0,4.4-2,4.4-4.5
	s-2-4.5-4.4-4.5c-2.5,0-4.5,2-4.5,4.5S128.7,81.3,131.2,81.3z M136.4,83H126c-3,0.3-5.4,2.8-5.4,5.9v12.3c0,0.9,0.8,1.7,1.7,1.7
	c1,0,1.7-0.8,1.7-1.7V90.6c0-0.4,0.1-0.9,0.8-0.9c0.5,0,0.6,0.5,0.6,0.9v31.8c0,1.4,1.1,2.5,2.5,2.5s2.5-1.1,2.5-2.5V104
	c0-0.2,0.1-0.7,0.7-0.7s0.7,0.5,0.7,0.7v18.3c0,1.4,1.1,2.5,2.5,2.5s2.5-1.1,2.5-2.5V90.5c0-0.3,0.1-0.9,0.6-0.9
	c0.7,0,0.8,0.5,0.8,0.9v10.6c0,0.9,0.8,1.7,1.7,1.7c1,0,1.7-0.8,1.7-1.7V88.9C141.8,85.8,139.4,83.2,136.4,83L136.4,83z M96,83.4
	c2.3,0,4.2-1.9,4.2-4.2c0-2.3-1.9-4.2-4.2-4.2s-4.2,1.9-4.2,4.2C91.8,81.5,93.7,83.4,96,83.4z M101,91.1c0.6-0.2,0.7,0.6,0.7,0.6
	l2.8,9.5c0,0,0.5,2,2.3,1.5s1.2-2.6,1.2-2.6l-3.5-11.4c0,0-1.3-3.3-4-3.3h-9c-2.8,0-4,3.3-4,3.3L84,100.1c0,0-0.6,2.1,1.2,2.6
	s2.3-1.5,2.3-1.5l2.8-9.5c0,0,0.2-0.7,0.7-0.6c0.6,0.2,0.3,0.9,0.3,0.9l-4.9,17.9H91v12.8c0,1.2,1,2.2,2.2,2.2s2.2-1,2.2-2.2v-12.8
	h1.2v12.8c0,1.2,1,2.2,2.2,2.2s2.2-1,2.2-2.2v-12.8h4.6L100.7,92C100.7,92,100.5,91.3,101,91.1L101,91.1z M70.7,83.4
	c2.3,0,4.2-1.9,4.2-4.2c0-2.3-1.9-4.2-4.2-4.2s-4.2,1.9-4.2,4.2C66.5,81.5,68.4,83.4,70.7,83.4z M79.2,88.7c0,0-1.2-3.3-4-3.3h-9
	c-2.8,0-4,3.3-4,3.3l-3.5,11.4c0,0-0.1,0.3-0.1,0.7c-0.2-0.3-0.6-0.5-1-0.5c-0.5,0-0.9,0.2-1.1,0.6c-0.1,0.1-1.7,3-2.3,3.5
	c-0.6,0.6-1.1,0.5-1.1,0.5h-4.2c0,0-0.5,0.1-1.1-0.5c-0.5-0.5-2.2-3.5-2.3-3.5c-0.2-0.4-0.6-0.6-1.1-0.6c-0.4,0-0.8,0.2-1,0.6v-12
	c0-3.1-2.4-5.6-5.4-5.9H27.6c-3,0.3-5.4,2.8-5.4,5.9v12.3c0,0.7,0.4,1.2,0.9,1.5c0,0-0.1,0.1-0.1,0.2l-4,21
	c-0.1,0.4,0.2,0.7,0.5,0.8h0.1c0.3,0,0.6-0.2,0.6-0.5l4-21V103c0.8-0.2,1.3-0.9,1.3-1.7V90.7c0-0.4,0.1-0.9,0.8-0.9
	c0.5,0,0.6,0.5,0.6,0.9v31.8c0,1.4,1.1,2.5,2.5,2.5s2.5-1.1,2.5-2.5V104c0-0.2,0.1-0.7,0.7-0.7s0.7,0.5,0.7,0.7v18.3
	c0,1.4,1.1,2.5,2.5,2.5s2.5-1.1,2.5-2.5V90.5c0-0.3,0.1-0.9,0.6-0.9c0.7,0,0.8,0.5,0.8,0.9v10.6c0,0.9,0.8,1.7,1.7,1.7
	c0.7,0,1.3-0.4,1.6-1c0,0.1,0.1,0.2,0.1,0.2l3.5,6.4c0,0,0.2,0.4,0.2,0.8v1.3l-1.9,6.9h1.9v5.6c0,1,0.8,1.7,1.7,1.7
	c1,0,1.7-0.8,1.7-1.7v-5.4v-0.2h1v5.6c0,1,0.8,1.7,1.7,1.7c1,0,1.7-0.8,1.7-1.7v-5.6h1.9l-1.9-6.9v-1.2c0-0.4,0.2-0.8,0.2-0.8
	l3.3-5.9c0,0,0.2-0.4,0.3-0.8c0.2,0.4,0.5,0.7,1,0.9c1.8,0.5,2.3-1.5,2.3-1.5l2.8-9.5c0,0,0.2-0.7,0.7-0.6c0.6,0.2,0.3,0.9,0.3,0.9
	l-4.9,17.9h4.6v12.8c0,1.2,1,2.2,2.2,2.2s2.2-1,2.2-2.2v-12.8h1.2v12.8c0,1.2,1,2.2,2.2,2.2s2.2-1,2.2-2.2v-12.8h4.6L74.9,92
	c0,0-0.2-0.8,0.3-0.9c0.6-0.2,0.7,0.6,0.7,0.6l2.8,9.5c0,0,0.5,2,2.3,1.5s1.2-2.6,1.2-2.6L79.2,88.7z M114.4,102.7
	c1.9,0,3.5-1.6,3.5-3.5s-1.6-3.5-3.5-3.5s-3.5,1.6-3.5,3.5C110.9,101.2,112.4,102.7,114.4,102.7z M122.7,112.7
	c0-0.1-2.2-5.5-2.5-6.3c-0.8-2.3-2.2-2.3-3.6-2.3h-2.2h-2.7c-1.8,0.1-2.4,1-4.4,6.2c-0.3,0.7-1.3,3.2-1.3,3.3
	c-0.2,0.4-0.3,1.3,0.5,1.7c1,0.4,1.5-0.5,1.5-0.5l1.9-6.1c0,0,0.3-0.4,0.3,0V123c0,1,0.8,1.8,1.8,1.8s1.8-0.8,1.8-1.8v-5.7
	c0,0-0.1-0.8,0.5-0.8s0.5,0.8,0.5,0.8v5.7c0,1,0.8,1.8,1.8,1.8s1.8-0.8,1.8-1.8v-14.3c0-0.4,0.2-0.1,0.2-0.1l1.5,4.2
	c0,0,0.6,1.9,0.8,1.9c0.7,0.3,1.5,0,1.7-0.7C123,113.6,122.9,113.1,122.7,112.7L122.7,112.7z M32.8,81.3c2.5,0,4.5-2,4.5-4.5
	s-2-4.5-4.5-4.5s-4.4,2-4.4,4.5S30.4,81.3,32.8,81.3z"/>
<path class="st1" d="M51,102.7c1.9,0,3.5-1.6,3.5-3.5s-1.6-3.5-3.5-3.5s-3.5,1.6-3.5,3.5C47.5,101.2,49.1,102.7,51,102.7z
	 M48.1,18.2v8.3h-1.9V13.4h2.2l2.4,7.5v-7.5h1.8v13.1h-1.9L48.1,18.2z M54.1,23.1v-6.4c0-2.1,1-3.5,3.3-3.5s3.4,1.5,3.4,3.5v6.4
	c0,2-1,3.5-3.4,3.5C55.1,26.6,54.1,25.1,54.1,23.1z M58.6,23.4v-7.1c0-0.8-0.3-1.4-1.1-1.4s-1.1,0.6-1.1,1.4v7.1
	c0,0.8,0.3,1.4,1.1,1.4C58.2,24.8,58.6,24.2,58.6,23.4z M46.3,32.8h3.3c2.2,0,3,1.1,3,2.9v2.8c0,1.8-0.8,3-3,3h-1.1V46h-2.2V32.8z
	 M48.5,34.6v5.2h0.8c0.8,0,1.1-0.4,1.1-1.1v-3c0-0.7-0.3-1.1-1.1-1.1L48.5,34.6L48.5,34.6z M53.9,42.6v-6.4c0-2.1,1-3.5,3.3-3.5
	s3.4,1.5,3.4,3.5v6.4c0,2-1,3.5-3.4,3.5C54.9,46.1,53.9,44.6,53.9,42.6z M58.4,42.9v-7.1c0-0.8-0.3-1.4-1.1-1.4s-1.1,0.6-1.1,1.4
	v7.1c0,0.8,0.3,1.4,1.1,1.4C58,44.3,58.4,43.7,58.4,42.9z M68.8,32.8l-2.5,13.1h-2.4l-2.5-13.1h2.2l1.5,9.2l1.6-9.2H68.8L68.8,32.8z
	 M69.9,32.8h5.3v1.8h-3.1v3.8h2.2v1.8h-2.2v4h3.1V46h-5.3V32.8L69.9,32.8z M78.7,39.9v6h-2.2V32.8h3.2c2.2,0,3,1.1,3,2.9v1.7
	c0,1.4-0.5,2.2-1.8,2.5l2.1,6h-2.3L78.7,39.9L78.7,39.9z M78.7,34.6v4.1h0.7c0.8,0,1.1-0.4,1.1-1.1v-1.9c0-0.7-0.3-1.1-1.1-1.1H78.7
	z M83.7,32.8h5.9v1.8h-1.8V46h-2.2V34.7h-1.8L83.7,32.8L83.7,32.8z M95.1,40.9v5h-2.2v-5l-2.5-8.1h2.3l1.3,5l1.3-5h2.1L95.1,40.9
	L95.1,40.9z"/>
</svg>
