<?xml version="1.0" encoding="utf-8"?>
<!-- Generator: Adobe Illustrator 28.2.0, SVG Export Plug-In . SVG Version: 6.00 Build 0)  -->
<svg version="1.1" id="Layer_1" xmlns="http://www.w3.org/2000/svg" xmlns:xlink="http://www.w3.org/1999/xlink" x="0px" y="0px"
	 viewBox="0 0 160.9 160.9" style="enable-background:new 0 0 160.9 160.9;" xml:space="preserve">
<style type="text/css">
	.st0{fill:#F1F1F1;}
	.st1{fill:#64B335;}
	.st2{fill:#DDA73A;}
	.st3{fill:#C51D2E;}
	.st4{fill:#4E9F38;}
	.st5{fill:#3F7F45;}
	.st6{fill:#FCC30C;}
	.st7{fill:#E8422F;}
	.st8{fill:#F59C2D;}
	.st9{fill:#1896D4;}
	.st10{fill:#A31B43;}
	.st11{fill:#2EBCE1;}
	.st12{fill:#ED692F;}
	.st13{fill:#E5273C;}
	.st14{fill:#DE1868;}
	.st15{fill:#1A496A;}
	.st16{fill:#BF8C30;}
	.st17{fill:#02699F;}
	.st18{fill:#020203;}
</style>
<path class="st0" d="M0,0h160.9v160.9H0V0z"/>
<path class="st1" d="M60,49.5c1-1.8,2.3-3.4,3.8-4.9L51.4,31c-3.1,3-5.8,6.4-7.9,10.2L60,49.5z"/>
<path class="st2" d="M90.4,39.9c1.9,0.9,3.6,2,5.2,3.2L108,29.6c-3.3-2.8-7-5.1-11-6.9L90.4,39.9z"/>
<path class="st3" d="M118.8,44l-16.4,8.2c0.8,1.8,1.3,3.8,1.6,5.8l18.3-1.7C121.7,51.9,120.5,47.8,118.8,44"/>
<path class="st4" d="M101.1,49.8l16.4-8.2c-2-3.8-4.6-7.2-7.7-10.2L97.4,44.9C98.9,46.4,100.1,48,101.1,49.8"/>
<path class="st5" d="M56.8,61.5v-1.1l-18.3-1.6c-0.1,0.9-0.1,1.8-0.1,2.7c0,3.5,0.4,6.9,1.2,10.2l17.7-5.1
	C57,64.9,56.8,63.2,56.8,61.5"/>
<path class="st6" d="M98.8,76.5c-1.3,1.6-2.8,3-4.5,4.2l9.7,15.6c3.6-2.4,6.8-5.4,9.5-8.8L98.8,76.5z"/>
<path class="st7" d="M104.2,61.5c0,1.7-0.2,3.4-0.5,5l17.7,5.1c0.8-3.2,1.2-6.6,1.2-10.1c0-0.9,0-1.7-0.1-2.6l-18.3,1.7L104.2,61.5"
	/>
<path class="st8" d="M62.5,76.8L47.9,87.9c2.7,3.3,5.9,6.3,9.5,8.6l9.7-15.6C65.3,79.8,63.8,78.4,62.5,76.8"/>
<path class="st9" d="M57.1,57.7c0.3-2.1,0.9-4,1.8-5.9l-16.4-8.2c-1.8,3.9-3.1,8-3.6,12.4L57.1,57.7z"/>
<path class="st10" d="M101.8,97.7l-9.6-15.6c-1.8,1-3.6,1.8-5.6,2.3l3.4,18.1C94.2,101.5,98.2,99.9,101.8,97.7"/>
<path class="st11" d="M103,69.1c-0.6,1.9-1.5,3.7-2.6,5.3l14.7,11.1c2.4-3.4,4.3-7.2,5.6-11.3L103,69.1z"/>
<path class="st12" d="M83.9,84.9c-1.1,0.2-2.3,0.2-3.4,0.2c-0.9,0-1.9-0.1-2.8-0.2L74.3,103c2,0.3,4.1,0.5,6.2,0.5
	c2.3,0,4.6-0.2,6.8-0.6L83.9,84.9L83.9,84.9z"/>
<path class="st13" d="M82,37.8c2,0.1,4,0.5,5.9,1.1l6.6-17.1c-3.9-1.4-8.1-2.2-12.5-2.4V37.8z"/>
<path class="st14" d="M75.1,84.6c-2.1-0.5-4-1.2-5.8-2.2L59.6,98c3.7,2.1,7.8,3.7,12.1,4.6L75.1,84.6L75.1,84.6z"/>
<path class="st15" d="M73.4,38.8c1.9-0.6,3.9-1,6-1.1V19.3c-4.4,0.1-8.7,0.9-12.6,2.3L73.4,38.8z"/>
<path class="st16" d="M60.8,74.7c-1.2-1.7-2.1-3.6-2.8-5.6l-17.7,5.1c1.3,4.2,3.3,8.1,5.8,11.7L60.8,74.7L60.8,74.7z"/>
<path class="st17" d="M65.8,42.9c1.6-1.2,3.3-2.3,5.1-3.1l-6.6-17.1c-4,1.7-7.6,3.9-10.8,6.6L65.8,42.9z"/>
<path class="st18" d="M15.6,116.2h7.6v2.3h-2.4v14.7h-2.9v-14.7h-2.4L15.6,116.2z M29.9,125.7h-2.8v7.5h-2.9v-17h2.9v7.2h2.8v-7.2
	h2.9v17h-2.9V125.7z M34.3,116.2h6.8v2.3h-4v4.9h2.8v2.3h-2.8v5.2h4v2.3h-6.8V116.2z M49.1,124.1h4.1v9.1h-2.1v-1.9
	c-0.4,1.3-1.2,2.1-2.7,2.1c-2.5,0-3.6-2-3.6-4.6v-8.2c0-2.7,1.3-4.6,4.3-4.6c3.2,0,4.1,1.8,4.1,4.3v1.5h-2.6v-1.7
	c0-1.1-0.4-1.7-1.4-1.7s-1.5,0.7-1.5,1.8v9.1c0,1,0.4,1.8,1.4,1.8c0.9,0,1.4-0.5,1.4-1.6v-3h-1.4V124.1z M54.7,116.2h2.9v14.7H61
	v2.3h-6.3V116.2z M61.5,128.8v-8.2c0-2.7,1.3-4.6,4.3-4.6s4.3,1.9,4.3,4.6v8.2c0,2.6-1.3,4.6-4.3,4.6S61.5,131.4,61.5,128.8z
	 M67.3,129.2v-9.1c0-1-0.5-1.8-1.5-1.8s-1.5,0.7-1.5,1.8v9.1c0,1,0.5,1.8,1.5,1.8C66.9,131,67.3,130.3,67.3,129.2L67.3,129.2z
	 M71.6,116.2h4.1c2.9,0,3.8,1.3,3.8,3.7v1.7c0,1.4-0.5,2.3-1.7,2.7c1.4,0.3,2.1,1.3,2.1,2.8v2.3c0,2.4-1.1,3.7-3.9,3.7h-4.4V116.2z
	 M74.4,123.3h1c0.9,0,1.4-0.5,1.4-1.4v-2.1c0-0.9-0.4-1.4-1.4-1.4h-1V123.3z M74.4,125.5v5.3h1.3c1,0,1.4-0.5,1.4-1.4v-2.6
	c0-0.9-0.4-1.4-1.4-1.4h-1.3V125.5L74.4,125.5z M80.5,133.2l3.2-17H87l3.2,17h-2.9l-0.5-3.1h-3l-0.5,3.1H80.5L80.5,133.2z
	 M84.1,127.8h2.3l-1.1-6.8L84.1,127.8L84.1,127.8z M91.2,116.2h2.9v14.7h3.4v2.3h-6.3V116.2z M105.2,124.1h4.1v9.1h-2.1v-1.9
	c-0.4,1.3-1.2,2.1-2.7,2.1c-2.5,0-3.6-2-3.6-4.6v-8.2c0-2.7,1.3-4.6,4.3-4.6c3.2,0,4.1,1.8,4.1,4.3v1.5h-2.6v-1.7
	c0-1.1-0.4-1.7-1.4-1.7s-1.5,0.7-1.5,1.8v9.1c0,1,0.4,1.8,1.4,1.8c0.9,0,1.4-0.5,1.4-1.6v-3h-1.4L105.2,124.1L105.2,124.1z
	 M110.7,128.8v-8.2c0-2.7,1.3-4.6,4.3-4.6s4.3,1.9,4.3,4.6v8.2c0,2.6-1.3,4.6-4.3,4.6S110.7,131.4,110.7,128.8z M116.5,129.2v-9.1
	c0-1-0.5-1.8-1.5-1.8s-1.5,0.7-1.5,1.8v9.1c0,1,0.5,1.8,1.5,1.8C116.1,131,116.5,130.3,116.5,129.2L116.5,129.2z M119.9,133.2
	l3.2-17h3.3l3.2,17h-2.9l-0.5-3.1h-3l-0.5,3.1H119.9L119.9,133.2z M123.5,127.8h2.3l-1.1-6.8L123.5,127.8L123.5,127.8z M130.6,116.2
	h2.9v14.7h3.4v2.3h-6.3V116.2z M137.5,129.5v-2.3h2.7v2.3c0,1,0.4,1.5,1.4,1.5c0.9,0,1.3-0.6,1.3-1.5v-0.7c0-1-0.4-1.6-1.3-2.4
	l-1.7-1.7c-1.6-1.6-2.4-2.6-2.4-4.5v-0.6c0-2.1,1.2-3.7,4-3.7c2.9,0,4,1.4,4,3.9v1.4h-2.6v-1.5c0-1-0.5-1.5-1.4-1.5
	c-0.8,0-1.4,0.5-1.4,1.4v0.4c0,1,0.5,1.5,1.4,2.3l1.8,1.8c1.6,1.6,2.3,2.5,2.3,4.4v0.8c0,2.3-1.3,4-4.2,4
	C138.6,133.4,137.5,131.7,137.5,129.5L137.5,129.5z M21.6,141.1h-3.4v3.8h-0.7V137H22v0.7h-3.8v2.8h3.4V141.1L21.6,141.1z M24.6,145
	c-1.8,0-2.2-1.1-2.2-2.7s0.4-2.7,2.2-2.7s2.2,1.1,2.2,2.7S26.4,145,24.6,145z M24.6,140.2c-1.4,0-1.5,0.9-1.5,2.1s0.1,2.1,1.5,2.1
	s1.5-0.9,1.5-2.1S25.9,140.2,24.6,140.2z M30.9,140.3c-0.2-0.1-0.4-0.1-0.6-0.1c-0.7,0-1.1,0.1-1.5,0.3v4.4h-0.7v-5.3h0.4l0.2,0.4
	c0.5-0.4,1.1-0.5,1.7-0.5c0.2,0,0.4,0,0.6,0.1v0.7L30.9,140.3L30.9,140.3z M34.3,139.1c0,1.1,0.7,1.2,1.9,1.4
	c1.6,0.2,2.5,0.6,2.5,2.1c0,1.1-0.6,2.4-2.9,2.4c-0.7,0-1.7-0.2-2.2-0.4v-0.7c0.5,0.2,1.1,0.4,2.2,0.4c1.6,0,2.1-0.8,2.1-1.7
	c0-1.1-0.5-1.3-1.8-1.5c-1.9-0.2-2.6-0.7-2.6-2c0-0.9,0.4-2.2,2.7-2.2c1,0,1.6,0.2,2.1,0.4v0.7c-0.7-0.3-1.3-0.4-2.1-0.4
	C34.6,137.6,34.3,138.3,34.3,139.1z M40.4,143.5c0,0.7,0.4,0.9,1.1,0.9c0.7,0,1-0.1,1.4-0.3v-4.4h0.7v5.3h-0.4l-0.2-0.4
	c-0.5,0.4-1,0.5-1.6,0.5c-1.3,0-1.8-0.6-1.8-1.6v-3.8h0.7L40.4,143.5z M46.8,141.9c1.5,0.1,1.9,0.6,1.9,1.5c0,0.8-0.5,1.6-2.1,1.6
	c-0.5,0-1.2-0.1-1.6-0.3v-0.6c0.3,0.1,0.8,0.2,1.6,0.2c1.1,0,1.4-0.5,1.4-1s-0.1-0.8-1.2-0.9c-1.5-0.1-1.8-0.7-1.8-1.4
	s0.5-1.6,2-1.6c0.5,0,1.1,0.1,1.5,0.3v0.6c-0.4-0.1-0.8-0.2-1.5-0.2c-1,0-1.3,0.4-1.3,0.9C45.6,141.6,45.8,141.8,46.8,141.9z
	 M52.6,145h-0.5c-0.9,0-1.7-0.4-1.7-1.4v-3.4h-1.1v-0.3l1.1-0.3v-1.4l0.7-0.2v1.7h1.6v0.6h-1.6v3.3c0,0.6,0.3,0.9,1,0.9h0.4
	L52.6,145L52.6,145z M55.7,140.2c-0.7,0-1.2,0.1-1.6,0.3v-0.6c0.5-0.2,1.1-0.3,1.6-0.3c1.6,0,2,0.7,2,1.8v3.6h-0.4l-0.2-0.4
	c-0.5,0.3-1.1,0.5-1.6,0.5c-1.4,0-1.8-0.8-1.8-1.7s0.5-1.6,1.9-1.6l1.4-0.1v-0.3C56.9,140.5,56.6,140.2,55.7,140.2z M55.5,142.2
	c-0.7,0.1-1.1,0.5-1.1,1.1c0,0.5,0.1,1,1.1,1c0.6,0,0.9-0.2,1.4-0.4v-1.8L55.5,142.2z M59.5,137.5c0.3,0,0.5,0.2,0.5,0.5
	s-0.2,0.5-0.5,0.5S59,138.3,59,138C59,137.8,59.2,137.5,59.5,137.5z M59.2,143.9v-4.2h0.7v4.3c0,0.4,0.1,0.5,0.4,0.5v0.6
	C59.6,145,59.2,144.7,59.2,143.9L59.2,143.9z M64.8,141.1c0-0.7-0.4-0.9-1.1-0.9s-1,0.1-1.4,0.3v4.4h-0.7v-5.3H62l0.2,0.4
	c0.5-0.4,1-0.5,1.6-0.5c1.3,0,1.8,0.6,1.8,1.6v3.8h-0.7v-3.8H64.8L64.8,141.1z M68.7,140.2c-0.7,0-1.2,0.1-1.6,0.3v-0.6
	c0.5-0.2,1.1-0.3,1.6-0.3c1.6,0,2,0.7,2,1.8v3.6h-0.4l-0.2-0.4c-0.5,0.3-1.1,0.5-1.6,0.5c-1.4,0-1.8-0.8-1.8-1.7s0.5-1.6,1.9-1.6
	l1.4-0.1v-0.3C69.9,140.5,69.7,140.2,68.7,140.2z M68.5,142.2c-0.7,0.1-1.1,0.5-1.1,1.1c0,0.5,0.1,1,1.1,1c0.6,0,0.9-0.2,1.4-0.4
	v-1.8L68.5,142.2z M76.4,142.3c0,1.5-0.5,2.7-2.2,2.7c-0.6,0-1.1-0.2-1.6-0.5l-0.2,0.4H72V137h0.7v3c0.5-0.3,1-0.4,1.5-0.4
	C75.9,139.5,76.4,140.8,76.4,142.3z M72.8,140.5v3.5c0.4,0.2,0.8,0.3,1.5,0.3c1.3,0,1.4-1,1.4-2.1s-0.2-2.1-1.4-2.1
	C73.6,140.2,73.2,140.3,72.8,140.5L72.8,140.5z M77.8,143.9V137h0.7v6.9c0,0.4,0.1,0.5,0.4,0.5v0.6C78.2,145,77.8,144.7,77.8,143.9z
	 M82.3,139.5c1.8,0,2,1.2,2,2.7v0.3h-3.5c0,0.9,0.3,1.8,1.5,1.8c0.8,0,1.2-0.1,1.7-0.3v0.6c-0.6,0.3-1.2,0.3-1.7,0.3
	c-1.8,0-2.2-1.2-2.2-2.7S80.5,139.5,82.3,139.5L82.3,139.5z M80.8,142h2.7c0-0.9-0.1-1.8-1.3-1.8C81.1,140.2,80.9,141.1,80.8,142
	L80.8,142z M87.8,144.9V137H90c2.6,0,3.3,1.7,3.3,4c0,2.2-0.7,4-3.3,4L87.8,144.9z M88.5,144.2H90c1.9,0,2.5-1.4,2.5-3.3
	s-0.6-3.3-2.5-3.3h-1.5V144.2z M96.4,139.5c1.8,0,2,1.2,2,2.7v0.3h-3.5c0,0.9,0.3,1.8,1.5,1.8c0.8,0,1.2-0.1,1.7-0.3v0.6
	c-0.6,0.3-1.2,0.3-1.7,0.3c-1.8,0-2.2-1.2-2.2-2.7S94.6,139.5,96.4,139.5L96.4,139.5z M94.9,142h2.7c0-0.9-0.1-1.8-1.3-1.8
	S94.9,141.1,94.9,142L94.9,142z M99.9,139.6l1.5,4.3l1.5-4.3h0.8l-2.1,5.4h-0.5l-2.1-5.4H99.9L99.9,139.6z M106.5,139.5
	c1.8,0,2,1.2,2,2.7v0.3H105c0,0.9,0.3,1.8,1.5,1.8c0.8,0,1.2-0.1,1.7-0.3v0.6c-0.6,0.3-1.2,0.3-1.7,0.3c-1.8,0-2.2-1.2-2.2-2.7
	S104.7,139.5,106.5,139.5L106.5,139.5z M105,142h2.7c0-0.9-0.1-1.8-1.3-1.8S105,141.1,105,142L105,142z M109.9,143.9V137h0.7v6.9
	c0,0.4,0.1,0.5,0.4,0.5v0.6C110.3,145,109.9,144.7,109.9,143.9z M114.4,145c-1.8,0-2.2-1.1-2.2-2.7s0.4-2.7,2.2-2.7
	c1.8,0,2.2,1.1,2.2,2.7S116.2,145,114.4,145z M114.4,140.2c-1.4,0-1.5,0.9-1.5,2.1s0.1,2.1,1.5,2.1s1.5-0.9,1.5-2.1
	S115.7,140.2,114.4,140.2z M118.6,144.6v3h-0.7v-7.9h0.4l0.2,0.4c0.5-0.3,1.1-0.5,1.6-0.5c1.7,0,2.2,1.2,2.2,2.7s-0.5,2.7-2.2,2.7
	C119.6,145,119,144.9,118.6,144.6z M121.5,142.3c0-1-0.2-2.1-1.4-2.1c-0.7,0-1.1,0.1-1.5,0.3v3.5c0.4,0.2,0.8,0.3,1.5,0.3
	C121.3,144.4,121.5,143.3,121.5,142.3z M129.7,141.1c0-0.7-0.4-0.9-1-0.9c-0.7,0-1,0.1-1.4,0.3c0,0.2,0.1,0.3,0.1,0.5v3.8h-0.7v-3.7
	c0-0.7-0.4-0.9-1-0.9s-1,0.1-1.4,0.3v4.4h-0.7v-5.3h0.4l0.2,0.4c0.5-0.4,1.1-0.5,1.5-0.5c0.7,0,1.2,0.2,1.5,0.6
	c0.5-0.4,1.1-0.6,1.6-0.6c1.1,0,1.7,0.5,1.7,1.6v3.8h-0.7L129.7,141.1z M133.9,139.5c1.8,0,2,1.2,2,2.7v0.3h-3.5
	c0,0.9,0.3,1.8,1.5,1.8c0.8,0,1.2-0.1,1.7-0.3v0.6c-0.6,0.3-1.2,0.3-1.7,0.3c-1.8,0-2.2-1.2-2.2-2.7S132.1,139.5,133.9,139.5
	L133.9,139.5z M132.4,142h2.7c0-0.9-0.1-1.8-1.3-1.8S132.4,141.1,132.4,142L132.4,142z M140.3,141.1c0-0.7-0.4-0.9-1.1-0.9
	s-1,0.1-1.4,0.3v4.4h-0.7v-5.3h0.4l0.2,0.4c0.5-0.4,1-0.5,1.6-0.5c1.3,0,1.8,0.6,1.8,1.6v3.8h-0.7v-3.8H140.3L140.3,141.1z
	 M145.1,145h-0.5c-0.9,0-1.7-0.4-1.7-1.4v-3.4h-1.1v-0.3l1.1-0.3v-1.4l0.7-0.2v1.7h1.6v0.6h-1.6v3.3c0,0.6,0.3,0.9,1,0.9h0.4
	L145.1,145L145.1,145z"/>
</svg>
