<?xml version="1.0" encoding="utf-8"?>
<!-- Generator: Adobe Illustrator 28.2.0, SVG Export Plug-In . SVG Version: 6.00 Build 0)  -->
<svg version="1.1" id="Layer_1" xmlns="http://www.w3.org/2000/svg" xmlns:xlink="http://www.w3.org/1999/xlink" x="0px" y="0px"
	 viewBox="0 0 160.9 160.9" style="enable-background:new 0 0 160.9 160.9;" xml:space="preserve">
<style type="text/css">
	.st0{fill:#2EBCE1;}
	.st1{fill:#FFFFFF;}
</style>
<path class="st0" d="M0,0h160.9v160.9H0V0z"/>
<path class="st1" d="M24.4,46.4c5.8,0,8-3.2,8-8.2v-4.8c0-5.3-2.1-8-6-8c-2.3,0-3.7,1.1-4.5,2.6v-7c0-2,0.6-3.4,2.6-3.4
	s2.5,1.2,2.5,3.2V23h5v-1.7c0-4.8-1.6-8.1-7.6-8.1c-5.7,0-7.9,3.7-7.9,8.8v15.8C16.4,42.7,18.6,46.4,24.4,46.4 M21.9,32.7
	c0.1-1.8,0.9-3,2.6-3c1.9,0,2.6,1.1,2.6,3.3v5.6c0,2.1-0.8,3.3-2.6,3.3S22,40.7,22,38.6L21.9,32.7L21.9,32.7z M110.2,65.1
	c-0.1-0.1-0.3-0.2-0.5-0.2H51.3c-0.2,0-0.4,0.1-0.5,0.2c-0.1,0.2-0.2,0.4-0.1,0.6l9.8,59.3c0.1,0.3,0.3,0.6,0.7,0.6h12l0.8,9.7h-5.1
	l11.8,11.8l11.8-11.8h-5.1l0.8-9.6h12.2c0.3,0,0.6-0.2,0.7-0.6l9.2-59.3C110.4,65.4,110.3,65.2,110.2,65.1L110.2,65.1z M87.7,112.6
	c0,0-2.7,2.7-7,2.4c-4.3,0.3-7-2.4-7-2.4c-4.4-4.4-2.8-9.8-1.3-12.6c0.9-1.8,7.7-11.9,8.2-12.7v-0.1v0.1c0.6,0.9,7.3,11,8.2,12.7
	C90.5,102.8,92,108.2,87.7,112.6L87.7,112.6z M106.2,77.6c-1.6-0.7-3.6-0.4-5.5,0.3c-7.2,2.9-12.2,4-19.8,1.6
	c-4.8-1.5-9.3-4.6-14.6-2.7c-3.5,1.3-6.8,2.5-10.8,2.4l-2.3-11.8h54.6L106.2,77.6L106.2,77.6z"/>
<g>
	<path class="st1" d="M45.8,45.9l2.5-13.1h2.5l2.5,13.1H51l-0.4-2.4h-2.3l-0.4,2.4H45.8z M48.6,41.8h1.8l-0.9-5.3L48.6,41.8z
		 M56.1,37.7V46h-1.9V32.9h2.2l2.4,7.5v-7.5h1.8V46h-1.9L56.1,37.7z M68.8,36.3v6.1c0,2-0.8,3.5-3.2,3.5h-3.4V32.8h3.4
		C68,32.8,68.8,34.3,68.8,36.3z M65.4,44.1c0.9,0,1.3-0.5,1.3-1.3v-6.9c0-0.8-0.3-1.3-1.3-1.3h-0.9v9.5H65.4z M73.8,43.1v-1.8h2.1
		v1.8c0,0.7,0.3,1.2,1.1,1.2c0.7,0,1-0.5,1-1.2v-0.5c0-0.8-0.3-1.2-1-1.9l-1.3-1.3c-1.3-1.2-1.8-2-1.8-3.5v-0.4c0-1.6,1-2.9,3.1-2.9
		c2.2,0,3.1,1.1,3.1,3v1.1h-2v-1.1c0-0.8-0.3-1.1-1-1.1c-0.6,0-1,0.3-1,1.1v0.3c0,0.7,0.4,1.2,1,1.8l1.4,1.4c1.2,1.2,1.8,2,1.8,3.4
		v0.6c0,1.8-1,3.1-3.2,3.1C74.6,46.1,73.8,44.8,73.8,43.1L73.8,43.1z M80.8,45.9l2.5-13.1h2.5l2.5,13.1H86l-0.4-2.4h-2.3l-0.4,2.4
		H80.8L80.8,45.9z M83.5,41.8h1.8l-0.9-5.3L83.5,41.8z M91.2,37.7V46h-1.9V32.9h2.2l2.4,7.5v-7.5h1.8V46h-1.9L91.2,37.7z M97.5,32.8
		h2.2v13.1h-2.2V32.8z M100.8,32.8h5.9v1.8h-1.8v11.3h-2.2V34.6h-1.8L100.8,32.8z M106.1,45.9l2.5-13.1h2.5l2.5,13.1h-2.3l-0.4-2.4
		h-2.3l-0.4,2.4H106.1L106.1,45.9z M108.9,41.8h1.8l-0.9-5.3L108.9,41.8z M112.9,32.8h5.9v1.8H117v11.3h-2.2V34.6H113L112.9,32.8z
		 M120,32.8h2.2v13.1H120V32.8z M123.6,42.5v-6.4c0-2.1,1-3.5,3.3-3.5s3.4,1.5,3.4,3.5v6.4c0,2-1,3.5-3.4,3.5
		C124.7,46.1,123.6,44.6,123.6,42.5z M128.1,42.9v-7.1c0-0.8-0.3-1.4-1.1-1.4s-1.1,0.6-1.1,1.4v7.1c0,0.8,0.3,1.4,1.1,1.4
		C127.8,44.2,128.1,43.7,128.1,42.9z M133.7,37.7V46h-1.9V32.9h2.2l2.4,7.5v-7.5h1.8V46h-1.9L133.7,37.7z"/>
</g>
<g>
	<path class="st1" d="M46.1,23.1v-6.4c0-2.1,1-3.5,3.3-3.5c2.4,0,3.1,1.4,3.1,3.3v1.6h-2v-1.7c0-0.8-0.3-1.3-1.1-1.3
		s-1.1,0.6-1.1,1.4v7.1c0,0.8,0.3,1.4,1.1,1.4s1.1-0.5,1.1-1.3v-2.4h2v2.3c0,1.9-0.8,3.3-3.1,3.3C47,26.7,46.1,25.2,46.1,23.1
		L46.1,23.1z M53.9,13.4h2.2v11.3h2.6v1.8h-4.8L53.9,13.4L53.9,13.4z M59.9,13.4h5.3v1.8h-3.1V19h2.2v1.8h-2.2v4h3.1v1.8h-5.3V13.4
		L59.9,13.4z M66.2,26.5l2.5-13.1h2.5l2.5,13.1h-2.3L71,24.1h-2.3l-0.4,2.4H66.2L66.2,26.5z M69,22.4h1.8l-0.9-5.3L69,22.4z
		 M76.7,18.3v8.3h-1.9V13.5H77l2.4,7.5v-7.5h1.8v13.1h-1.9L76.7,18.3z M90.7,18.4l-1.2,8.1h-2.1l-1.8-13.1h2.1l1,8.3l1.1-8.3h1.8
		l1.2,8.3l1-8.3h1.9L94,26.5h-2.1L90.7,18.4L90.7,18.4z M95.8,26.5l2.5-13.1h2.5l2.5,13.1H101l-0.4-2.4h-2.3l-0.4,2.4H95.8
		L95.8,26.5z M98.5,22.4h1.8l-0.9-5.3L98.5,22.4z M103,13.4h5.9v1.8h-1.8v11.3h-2.2V15.2h-1.8L103,13.4z M109.9,13.4h5.3v1.8h-3.1
		V19h2.2v1.8h-2.2v4h3.1v1.8h-5.3V13.4L109.9,13.4z M118.6,20.5v6h-2.2V13.4h3.2c2.2,0,3,1.1,3,2.9V18c0,1.4-0.5,2.2-1.8,2.5l2.1,6
		h-2.3L118.6,20.5L118.6,20.5z M118.6,15.2v4.1h0.7c0.8,0,1.1-0.4,1.1-1.1v-1.9c0-0.7-0.3-1.1-1.1-1.1H118.6z"/>
</g>
</svg>
