<?xml version="1.0" encoding="utf-8"?>
<!-- Generator: Adobe Illustrator 28.2.0, SVG Export Plug-In . SVG Version: 6.00 Build 0)  -->
<svg version="1.1" id="Layer_1" xmlns="http://www.w3.org/2000/svg" xmlns:xlink="http://www.w3.org/1999/xlink" x="0px" y="0px"
	 viewBox="0 0 160.9 160.9" style="enable-background:new 0 0 160.9 160.9;" xml:space="preserve">
<style type="text/css">
	.st0{fill:#1A496A;}
	.st1{fill:#FFFFFF;}
</style>
<path class="st0" d="M0,0h160.9v160.9H0V0z"/>
<path class="st1" d="M24.1,13.5V46h-5.5V21.1l-3.9,4v-5.7l5-5.9L24.1,13.5z M26.6,13.5h13.6v5.1L33.1,46h-5.4L35,18h-8.4L26.6,13.5z
	 M121.3,97.6c0-11.3-9-20.5-20.2-20.9c-2.9-8.1-10.7-14-19.8-14s-16.9,5.8-19.8,14c-11.2,0.4-20.2,9.6-20.2,20.9
	c0,6.7,3.2,12.7,8.1,16.5c-0.5,1.8-0.8,3.8-0.8,5.8c0,11.6,9.4,21,21,21c4.4,0,8.5-1.4,11.8-3.7c3.3,2.2,7.3,3.5,11.6,3.5
	c11.6,0,21-9.4,21-21c0-2-0.3-3.9-0.8-5.7C118.2,110.3,121.3,104.3,121.3,97.6 M98.1,83.7c0,8.4-6.2,15.3-14.3,16.5
	c-0.1-0.8-0.2-1.7-0.2-2.6c0-8.4,6.2-15.3,14.3-16.5C98,81.9,98.1,82.8,98.1,83.7 M81.5,131.8c-3.1-3-5.1-7.3-5.1-12
	c0-4.6,1.9-8.8,4.9-11.9c3.1,3,5.1,7.3,5.1,12S84.5,128.8,81.5,131.8 M64.9,81.1c8.1,1.2,14.3,8.1,14.3,16.5c0,0.9-0.1,1.7-0.2,2.6
	c-8.1-1.2-14.3-8.1-14.3-16.5C64.7,82.8,64.7,81.9,64.9,81.1 M77.4,105.1c-2.8,5.5-8.4,9.3-14.9,9.3c-2.8,0-5.4-0.7-7.7-1.9
	c2.8-5.5,8.4-9.3,15-9.3C72.4,103.2,75.1,103.9,77.4,105.1 M85.4,105c2.3-1.2,4.9-1.9,7.7-1.9c6.6,0,12.3,3.8,15,9.4
	c-2.3,1.2-5,1.9-7.7,1.9C93.8,114.4,88.1,110.6,85.4,105 M81.4,66.9c6.9,0,12.8,4.1,15.3,10.1c-6.8,1.2-12.5,5.7-15.3,11.8
	c-2.8-6.1-8.5-10.6-15.3-11.8C68.6,71.1,74.5,66.9,81.4,66.9 M45.7,97.6c0-8.6,6.6-15.7,14.9-16.6c-0.1,0.9-0.2,1.8-0.2,2.7
	c0,6.1,2.6,11.6,6.8,15.5c-7,0.8-12.9,5-16.1,10.9C47.8,107,45.7,102.6,45.7,97.6 M52.9,120c0-1.2,0.1-2.3,0.4-3.5
	c2.8,1.3,5.8,2.1,9.1,2.1c3.7,0,7.1-0.9,10.1-2.6c-0.2,1.2-0.4,2.5-0.4,3.9c0,5.7,2.3,10.8,5.9,14.6c-2.5,1.5-5.4,2.3-8.4,2.3
	C60.4,136.7,52.9,129.2,52.9,120 M109.9,119.8c0,9.2-7.5,16.7-16.7,16.7c-3,0-5.8-0.8-8.3-2.2c3.6-3.8,5.8-8.8,5.8-14.4
	c0-1.4-0.1-2.7-0.4-4c3,1.7,6.5,2.6,10.2,2.6c3.3,0,6.4-0.8,9.1-2.1C109.7,117.6,109.9,118.7,109.9,119.8 M95.6,99
	c4.1-3.8,6.7-9.3,6.7-15.4c0-0.9-0.1-1.8-0.2-2.7c8.4,0.9,14.9,8,14.9,16.6c0,4.9-2.1,9.3-5.5,12.4C108.5,104.1,102.6,99.9,95.6,99"
	/>
<g>
	<path class="st1" d="M51.3,13.5h3.3c2.2,0,3,1.1,3,2.9v2.8c0,1.8-0.8,3-3,3h-1.1v4.5h-2.2V13.5z M53.6,15.3v5.2h0.8
		c0.8,0,1.1-0.4,1.1-1.1v-3c0-0.7-0.3-1.1-1.1-1.1L53.6,15.3L53.6,15.3z M57.9,26.7l2.5-13.1h2.5l2.5,13.1h-2.3l-0.4-2.4h-2.3
		L60,26.7H57.9z M60.7,22.5h1.8l-0.9-5.3L60.7,22.5L60.7,22.5z M68.8,20.6v6h-2.2V13.5h3.2c2.2,0,3,1.1,3,2.9v1.7
		c0,1.4-0.5,2.2-1.8,2.5l2.1,6h-2.3L68.8,20.6L68.8,20.6z M68.8,15.3v4.1h0.7c0.8,0,1.1-0.4,1.1-1.1v-1.9c0-0.7-0.3-1.1-1.1-1.1
		H68.8z M73.6,13.5h5.9v1.8h-1.8v11.3h-2.2V15.3h-1.8v-1.8H73.6L73.6,13.5z M82.7,18.4v8.3h-1.9V13.6H83l2.4,7.5v-7.5h1.8v13.1h-1.9
		L82.7,18.4z M89.1,13.5h5.3v1.8h-3.1v3.8h2.2v1.8h-2.2v4h3.1v1.8h-5.3V13.5L89.1,13.5z M98,20.6v6h-2.2V13.5H99c2.2,0,3,1.1,3,2.9
		v1.7c0,1.4-0.5,2.2-1.8,2.5l2.1,6H100L98,20.6L98,20.6z M98,15.3v4.1h0.7c0.8,0,1.1-0.4,1.1-1.1v-1.9c0-0.7-0.3-1.1-1.1-1.1H98z
		 M103.1,23.8v-1.7h2.1v1.8c0,0.7,0.3,1.2,1.1,1.2c0.7,0,1-0.5,1-1.2v-0.5c0-0.8-0.3-1.2-1-1.9l-1.3-1.3c-1.3-1.2-1.8-2-1.8-3.5
		v-0.4c0-1.6,1-2.9,3.1-2.9c2.2,0,3.1,1.1,3.1,3v1.1h-2v-1.1c0-0.8-0.3-1.1-1-1.1c-0.6,0-1,0.3-1,1.1v0.3c0,0.7,0.4,1.2,1,1.8
		l1.4,1.4c1.2,1.2,1.8,2,1.8,3.4v0.6c0,1.8-1,3.1-3.2,3.1C104,26.8,103.1,25.6,103.1,23.8L103.1,23.8z M115.2,20.9h-2.1v5.8h-2.3
		V13.6h2.2v5.6h2.1v-5.6h2.2v13.1h-2.2v-5.8H115.2L115.2,20.9z M118.9,13.5h2.2v13.1h-2.2V13.5z M122.5,13.5h3.3c2.2,0,3,1.1,3,2.9
		v2.8c0,1.8-0.8,3-3,3h-1v4.5h-2.2L122.5,13.5z M124.8,15.3v5.2h0.8c0.8,0,1.1-0.4,1.1-1.1v-3c0-0.7-0.3-1.1-1.1-1.1L124.8,15.3
		L124.8,15.3z M129.7,23.8v-1.7h2.1v1.8c0,0.7,0.3,1.2,1.1,1.2c0.7,0,1-0.5,1-1.2v-0.5c0-0.8-0.3-1.2-1-1.9l-1.3-1.3
		c-1.3-1.2-1.8-2-1.8-3.5v-0.4c0-1.6,1-2.9,3.1-2.9c2.2,0,3.1,1.1,3.1,3v1.1h-2v-1.1c0-0.8-0.3-1.1-1-1.1c-0.6,0-1,0.3-1,1.1v0.3
		c0,0.7,0.4,1.2,1,1.8l1.4,1.4c1.2,1.2,1.8,2,1.8,3.4v0.6c0,1.8-1,3.1-3.2,3.1C130.6,26.8,129.7,25.6,129.7,23.8L129.7,23.8z"/>
</g>
<g>
	<path class="st1" d="M51.3,32.6h5.2v1.8h-3v3.8h2.2V40h-2.2v5.8h-2.2V32.6L51.3,32.6z M57.3,42.4V36c0-2.1,1-3.5,3.3-3.5
		S64,34,64,36v6.4c0,2-1,3.5-3.4,3.5C58.3,45.9,57.3,44.4,57.3,42.4z M61.8,42.7v-7.1c0-0.8-0.3-1.4-1.1-1.4s-1.1,0.6-1.1,1.4v7.1
		c0,0.8,0.3,1.4,1.1,1.4C61.4,44.1,61.8,43.5,61.8,42.7z M67.6,39.7v6h-2.2V32.6h3.2c2.2,0,3,1.1,3,2.9v1.7c0,1.4-0.5,2.2-1.8,2.5
		l2.1,6h-2.3L67.6,39.7L67.6,39.7z M67.6,34.4v4.1h0.7c0.8,0,1.1-0.4,1.1-1.1v-1.9c0-0.7-0.3-1.1-1.1-1.1H67.6z M75.2,32.6h5.9v1.8
		h-1.8v11.3h-2.2V34.4h-1.8v-1.8H75.2L75.2,32.6z M86.4,40h-2.1v5.8h-2.2V32.7h2.2v5.6h2.1v-5.6h2.2v13.1h-2.2V40z M90.1,32.6h5.3
		v1.8h-3.1v3.8h2.2V40h-2.2v4h3.1v1.8h-5.3V32.6L90.1,32.6z M102.5,38.8h3.1v7H104v-1.4c-0.3,1-0.9,1.6-2.1,1.6
		c-1.9,0-2.8-1.5-2.8-3.5v-6.4c0-2.1,1-3.5,3.3-3.5c2.4,0,3.2,1.4,3.2,3.3v1.2h-2v-1.3c0-0.8-0.3-1.3-1.1-1.3s-1.1,0.6-1.1,1.4V43
		c0,0.8,0.3,1.4,1.1,1.4c0.7,0,1.1-0.4,1.1-1.3v-2.3h-1v-2L102.5,38.8L102.5,38.8z M106.8,42.4V36c0-2.1,1-3.5,3.3-3.5
		s3.4,1.5,3.4,3.5v6.4c0,2-1,3.5-3.4,3.5C107.9,45.9,106.8,44.4,106.8,42.4z M111.3,42.7v-7.1c0-0.8-0.3-1.4-1.1-1.4
		s-1.1,0.6-1.1,1.4v7.1c0,0.8,0.3,1.4,1.1,1.4S111.3,43.5,111.3,42.7z M114.2,45.8l2.5-13.1h2.5l2.5,13.1h-2.3l-0.4-2.4h-2.3
		l-0.4,2.4H114.2z M116.9,41.6h1.8l-0.9-5.3L116.9,41.6L116.9,41.6z M122.8,32.6h2.2v11.3h2.6v1.8h-4.8V32.6z M128.4,42.9v-1.8h2.1
		v1.8c0,0.7,0.3,1.2,1.1,1.2c0.7,0,1-0.5,1-1.2v-0.5c0-0.8-0.3-1.2-1-1.9l-1.3-1.3c-1.3-1.2-1.8-2-1.8-3.5v-0.4c0-1.6,1-2.9,3.1-2.9
		c2.2,0,3.1,1.1,3.1,3v1.1h-2v-1.1c0-0.8-0.3-1.1-1-1.1c-0.6,0-1,0.3-1,1.1v0.3c0,0.7,0.4,1.2,1,1.8l1.4,1.4c1.2,1.2,1.8,2,1.8,3.4
		v0.6c0,1.8-1,3.1-3.2,3.1C129.3,45.9,128.4,44.7,128.4,42.9L128.4,42.9z"/>
</g>
</svg>
