<?xml version="1.0" encoding="utf-8"?>
<!-- Generator: Adobe Illustrator 28.2.0, SVG Export Plug-In . SVG Version: 6.00 Build 0)  -->
<svg version="1.1" id="Layer_1" xmlns="http://www.w3.org/2000/svg" xmlns:xlink="http://www.w3.org/1999/xlink" x="0px" y="0px"
	 viewBox="0 0 160.9 160.9" style="enable-background:new 0 0 160.9 160.9;" xml:space="preserve">
<style type="text/css">
	.st0{fill:#FCC30C;}
	.st1{fill:#FFFFFF;}
</style>
<path class="st0" d="M0,0h160.9v160.9H0V0z"/>
<path class="st1" d="M16.5,17.9h8.4l-7.3,28H23l7.2-27.4v-5H16.5V17.9z"/>
<g>
	<path class="st1" d="M45.6,26.6l2.5-13.1h2.5l2.5,13.1h-2.3l-0.4-2.4h-2.3l-0.4,2.4H45.6z M48.4,22.4h1.8l-0.9-5.3L48.4,22.4
		L48.4,22.4z M53.9,13.5h5.2v1.8h-3v3.8h2.2v1.8h-2.2v5.8h-2.2V13.5L53.9,13.5z M60,13.5h5.2v1.8h-3v3.8h2.2v1.8h-2.2v5.8H60V13.5
		L60,13.5z M65.8,23.2v-6.4c0-2.1,1-3.5,3.3-3.5s3.4,1.5,3.4,3.5v6.4c0,2-1,3.5-3.4,3.5C66.8,26.8,65.8,25.2,65.8,23.2z M70.3,23.6
		v-7.1c0-0.8-0.3-1.4-1.1-1.4s-1.1,0.6-1.1,1.4v7.1c0,0.8,0.3,1.4,1.1,1.4C70,24.9,70.3,24.4,70.3,23.6z M75.9,20.6v6h-2.2V13.5h3.2
		c2.2,0,3,1.1,3,2.9v1.7c0,1.4-0.5,2.2-1.8,2.5l2.1,6h-2.3L75.9,20.6z M75.9,15.3v4.1h0.7c0.8,0,1.1-0.4,1.1-1.1v-1.9
		c0-0.7-0.3-1.1-1.1-1.1L75.9,15.3L75.9,15.3z M87.7,17v6.1c0,2-0.8,3.5-3.2,3.5h-3.4V13.5h3.4C86.8,13.5,87.7,15,87.7,17z
		 M84.2,24.8c0.9,0,1.3-0.5,1.3-1.3v-6.9c0-0.8-0.3-1.3-1.3-1.3h-0.9v9.5L84.2,24.8L84.2,24.8z M88.2,26.6l2.5-13.1h2.5l2.5,13.1
		h-2.3L93,24.2h-2.3l-0.4,2.4H88.2z M91,22.4h1.8l-0.9-5.3L91,22.4L91,22.4z M96.5,13.5h3.2c2.2,0,2.9,1,2.9,2.9v1.3
		c0,1.1-0.4,1.8-1.3,2.1c1.1,0.3,1.6,1,1.6,2.2v1.7c0,1.9-0.8,2.9-3,2.9h-3.4V13.5z M98.7,19h0.8c0.7,0,1-0.4,1-1.1v-1.6
		c0-0.7-0.3-1.1-1.1-1.1h-0.8V19L98.7,19L98.7,19z M98.7,20.7v4.1h1c0.7,0,1.1-0.4,1.1-1.1v-2c0-0.7-0.3-1.1-1.1-1.1h-1V20.7z
		 M104,13.5h2.2v11.3h2.6v1.8H104V13.5L104,13.5z M109.8,13.5h5.3v1.8H112v3.8h2.2v1.8H112v4h3.1v1.8h-5.3V13.5L109.8,13.5z
		 M117.7,26.6l2.5-13.1h2.5l2.5,13.1h-2.3l-0.4-2.4h-2.3l-0.4,2.4H117.7z M120.5,22.4h1.8l-0.9-5.3L120.5,22.4L120.5,22.4z
		 M127.9,18.3v8.3H126V13.5h2.2l2.4,7.5v-7.5h1.8v13.1h-1.9L127.9,18.3z M140.2,17v6.1c0,2-0.8,3.5-3.2,3.5h-3.4V13.5h3.4
		C139.4,13.5,140.2,15,140.2,17z M136.8,24.8c0.9,0,1.3-0.5,1.3-1.3v-6.9c0-0.8-0.3-1.3-1.3-1.3h-0.9v9.5L136.8,24.8L136.8,24.8z"/>
</g>
<g>
	<path class="st1" d="M45.9,42.5v-6.3c0-2,1-3.5,3.3-3.5c2.4,0,3.1,1.4,3.1,3.3v1.5h-2v-1.7c0-0.8-0.3-1.3-1.1-1.3s-1.1,0.6-1.1,1.4
		v7c0,0.8,0.3,1.4,1.1,1.4s1.1-0.5,1.1-1.3v-2.4h2v2.3c0,1.9-0.8,3.3-3.1,3.3C46.9,46.1,45.9,44.6,45.9,42.5L45.9,42.5z M53.7,32.8
		h2.2v11.3h2.6v1.8h-4.8V32.8L53.7,32.8z M59.7,32.8h5.2v1.8h-3v3.7h2.2v1.8h-2.2v4h3v1.8h-5.2V32.8L59.7,32.8z M66,45.9l2.5-13.1
		H71l2.5,13.1h-2.3l-0.4-2.4h-2.3l-0.4,2.4H66z M68.8,41.8h1.8l-0.9-5.3L68.8,41.8L68.8,41.8z M76.4,37.7v8.2h-1.9V32.8h2.2l2.4,7.5
		v-7.5h1.8v13.1H79L76.4,37.7z M86.8,32.8H92v1.8h-3v3.7h2.2v1.8H89v4h3v1.8h-5.2V32.8L86.8,32.8z M95.2,37.7v8.2h-1.9V32.8h2.2
		l2.4,7.5v-7.5h1.8v13.1h-1.9L95.2,37.7z M101.2,32.8h5.2v1.8h-3v3.7h2.2v1.8h-2.2v4h3v1.8h-5.2V32.8L101.2,32.8z M110,39.9v6h-2.2
		V32.8h3.2c2.2,0,3,1.1,3,2.9v1.7c0,1.4-0.5,2.2-1.8,2.5l2.1,5.9H112L110,39.9z M110,34.6v4.1h0.7c0.8,0,1.1-0.4,1.1-1.1v-1.9
		c0-0.7-0.3-1.1-1.1-1.1H110z M118.7,38.9h3.1v7h-1.6v-1.4c-0.3,1-0.9,1.6-2.1,1.6c-1.9,0-2.8-1.5-2.8-3.5v-6.3c0-2,1-3.5,3.3-3.5
		c2.4,0,3.1,1.4,3.1,3.3v1.2h-2V36c0-0.8-0.3-1.3-1.1-1.3s-1.1,0.6-1.1,1.4v7c0,0.8,0.3,1.4,1.1,1.4c0.7,0,1.1-0.4,1.1-1.3v-2.3h-1
		V38.9L118.7,38.9z M127.5,40.9v5h-2.2v-5l-2.5-8.1h2.3l1.3,5l1.3-5h2.1L127.5,40.9L127.5,40.9z"/>
</g>
<g>
	<path class="st1" d="M80.6,142.4c1.1,0,1.9-0.9,1.9-1.8v-10.3c0-0.9-0.9-1.8-1.9-1.8c-1.1,0-1.9,1-1.9,1.8v10.3
		C78.7,141.4,79.6,142.4,80.6,142.4 M80.4,78c-13,0-23.6,10.6-23.6,23.6s10.6,23.6,23.6,23.6s23.6-10.6,23.6-23.6
		C104,88.5,93.5,78,80.4,78 M78.7,87.3c0-0.8,0.8-1.6,1.8-1.6s1.7,0.9,1.7,1.6v8.1c0,0.8-0.8,1.6-1.7,1.6c-1,0-1.8-0.9-1.8-1.6V87.3
		z M80.4,113.6c-6.8,0-12.3-5.5-12.3-12.3c0-5.5,3.6-10.2,8.6-11.7v4.6c-2.6,1.3-4.4,4-4.4,7.1c0,4.4,3.6,8,8,8s8-3.6,8-8
		c0-3.1-1.8-5.8-4.4-7.2v-4.6c5,1.5,8.6,6.2,8.6,11.7C92.7,108.1,87.2,113.6,80.4,113.6 M53.4,101.3c0-1.1-0.9-1.9-1.8-1.9H41.2
		c-0.9,0-1.8,0.9-1.8,1.9c0,1.1,1,1.9,1.8,1.9h10.3C52.4,103.3,53.4,102.4,53.4,101.3 M121.5,101.3c0-1.1-0.9-1.9-1.8-1.9h-10.3
		c-0.9,0-1.8,0.9-1.8,1.9c0,1.1,1,1.9,1.8,1.9h10.3C120.5,103.3,121.5,102.4,121.5,101.3 M80.4,74.3c1.1,0,1.9-0.9,1.9-1.8V62.2
		c0-0.9-0.9-1.8-1.9-1.8c-1.1,0-1.9,1-1.9,1.8v10.2C78.5,73.3,79.4,74.3,80.4,74.3 M56.9,87.9c0.5-0.9,0.1-2.2-0.6-2.6l-9-5.1
		c-0.8-0.4-2-0.2-2.5,0.8c-0.5,0.9-0.1,2.2,0.6,2.6l9,5.1C55.1,89.1,56.4,88.8,56.9,87.9 M116.1,121.7c0.5-0.9,0.1-2.2-0.6-2.6
		l-9-5.1c-0.8-0.4-2-0.2-2.5,0.8c-0.5,0.9-0.1,2.2,0.6,2.6l9,5.1C114.3,122.9,115.5,122.7,116.1,121.7 M93.9,77.8
		c0.9,0.5,2.1,0.1,2.6-0.6l5.1-9c0.4-0.8,0.2-2-0.8-2.5c-0.9-0.5-2.2-0.1-2.6,0.6l-5.1,9C92.7,76.1,93,77.3,93.9,77.8 M60,137
		c0.9,0.5,2.1,0.1,2.6-0.6l5.1-9c0.4-0.8,0.2-2-0.8-2.5c-0.9-0.5-2.2-0.1-2.6,0.6l-5.1,9C58.8,135.2,59.1,136.4,60,137 M66.9,77.9
		c0.9-0.5,1.2-1.8,0.8-2.5l-5.1-9c-0.4-0.8-1.7-1.2-2.6-0.6c-0.9,0.5-1.2,1.8-0.8,2.6l5.1,9C64.8,78,66,78.4,66.9,77.9 M100.9,136.9
		c0.9-0.5,1.2-1.8,0.8-2.5l-5.1-9c-0.4-0.8-1.7-1.2-2.6-0.6c-0.9,0.5-1.2,1.8-0.8,2.6l5.1,9C98.7,137.1,100,137.5,100.9,136.9
		 M103.9,87.8c0.5,0.9,1.8,1.2,2.5,0.8l9-5.1c0.8-0.4,1.2-1.7,0.6-2.6c-0.5-0.9-1.8-1.2-2.6-0.8l-9,5.1
		C103.8,85.7,103.4,86.9,103.9,87.8 M44.9,121.8c0.5,0.9,1.8,1.2,2.5,0.8l9-5.1c0.8-0.4,1.2-1.7,0.6-2.6c-0.5-0.9-1.8-1.2-2.6-0.8
		l-9,5.1C44.7,119.6,44.3,120.9,44.9,121.8"/>
</g>
</svg>
