<?xml version="1.0" encoding="utf-8"?>
<!-- Generator: Adobe Illustrator 28.2.0, SVG Export Plug-In . SVG Version: 6.00 Build 0)  -->
<svg version="1.1" id="Layer_1" xmlns="http://www.w3.org/2000/svg" xmlns:xlink="http://www.w3.org/1999/xlink" x="0px" y="0px"
	 viewBox="0 0 160.9 160.9" style="enable-background:new 0 0 160.9 160.9;" xml:space="preserve">
<style type="text/css">
	.st0{fill:#02699F;}
	.st1{fill:#FFFFFF;}
</style>
<path class="st0" d="M0,0h160.9v160.9H0V0z"/>
<path class="st1" d="M12.4,19.4v5.7h0.1l3.8-4V46h5.5V13.5h-4.4L12.4,19.4z M40.9,38.2v-4.8c0-5.3-2.1-8-6-8c-2.3,0-3.7,1.1-4.5,2.6
	v-7c0-2,0.6-3.4,2.6-3.4s2.5,1.1,2.5,3.2V23h5v-1.7c0-4.8-1.6-8.1-7.6-8.1c-5.7,0-7.9,3.7-7.9,8.8v15.8c0,5,2.2,8.7,7.9,8.7
	C38.6,46.4,40.9,43.2,40.9,38.2 M35.5,38.7c0,2.1-0.8,3.3-2.6,3.3s-2.5-1.2-2.5-3.3v-5.9c0.1-1.8,0.9-3,2.6-3c1.9,0,2.6,1.1,2.6,3.3
	L35.5,38.7L35.5,38.7z"/>
<g>
	<path class="st1" d="M51.4,13.5h3.3c2.2,0,3,1.1,3,2.9v2.8c0,1.8-0.8,3-3,3h-1.1v4.5h-2.2V13.5z M53.6,15.3v5.2h0.8
		c0.8,0,1.1-0.4,1.1-1.1v-3c0-0.7-0.3-1.1-1.1-1.1L53.6,15.3L53.6,15.3z M58.8,13.5h5.3v1.8H61v3.8h2.2v1.8H61v4h3.1v1.8h-5.3V13.5
		L58.8,13.5z M65,26.7l2.5-13.1H70l2.5,13.1h-2.3l-0.4-2.4h-2.3l-0.4,2.4H65z M67.8,22.5h1.8l-0.9-5.3L67.8,22.5L67.8,22.5z
		 M73.3,23.3v-6.4c0-2.1,1-3.5,3.3-3.5c2.4,0,3.1,1.4,3.1,3.3v1.6h-2v-1.7c0-0.8-0.3-1.3-1.1-1.3s-1.1,0.6-1.1,1.4v7.1
		c0,0.8,0.3,1.4,1.1,1.4s1.1-0.5,1.1-1.3v-2.4h2v2.3c0,1.9-0.8,3.3-3.1,3.3C74.3,26.8,73.3,25.3,73.3,23.3L73.3,23.3z M81.1,13.5
		h5.3v1.8h-3.1v3.8h2.2v1.8h-2.2v4h3.1v1.8h-5.3V13.5L81.1,13.5z M90,24.7l-1.1,3h-1.2l0.3-3.1L90,24.7z M99.6,13.5v10.2
		c0,1.9-0.8,3.1-3,3.1c-2.3,0-2.9-1.3-2.9-2.9v-2.6h2.1V24c0,0.7,0.2,1,0.8,1s0.8-0.4,0.8-1.1V13.5H99.6L99.6,13.5z M107.4,13.5v9.9
		c0,2-0.9,3.4-3.1,3.4c-2.3,0-3.3-1.3-3.3-3.4v-9.9h2.2v10.2c0,0.8,0.3,1.3,1.1,1.3s1.1-0.5,1.1-1.3V13.5H107.4z M108.8,23.8v-1.7
		h2.1v1.8c0,0.7,0.3,1.2,1.1,1.2c0.7,0,1-0.5,1-1.2v-0.5c0-0.8-0.3-1.2-1-1.9l-1.3-1.3c-1.3-1.2-1.8-2-1.8-3.5v-0.4
		c0-1.6,1-2.9,3.1-2.9c2.2,0,3.1,1.1,3.1,3v1.1h-2v-1.1c0-0.8-0.3-1.1-1-1.1c-0.6,0-1,0.3-1,1.1v0.3c0,0.7,0.4,1.2,1,1.8l1.4,1.4
		c1.2,1.2,1.8,2,1.8,3.4v0.6c0,1.8-1,3.1-3.2,3.1C109.6,26.8,108.8,25.6,108.8,23.8L108.8,23.8z M116.2,13.5h5.9v1.8h-1.8v11.3h-2.2
		V15.3h-1.9V13.5z M123.3,13.5h2.2v13.1h-2.2V13.5z M127,23.3v-6.4c0-2.1,1-3.5,3.3-3.5c2.4,0,3.1,1.4,3.1,3.3v1.6h-2v-1.7
		c0-0.8-0.3-1.3-1.1-1.3s-1.1,0.6-1.1,1.4v7.1c0,0.8,0.3,1.4,1.1,1.4s1.1-0.5,1.1-1.3v-2.4h2v2.3c0,1.9-0.8,3.3-3.1,3.3
		C128,26.8,127,25.3,127,23.3L127,23.3z M134.8,13.5h5.3v1.8H137v3.8h2.2v1.8H137v4h3.1v1.8h-5.3V13.5L134.8,13.5z"/>
</g>
<g>
	<path class="st1" d="M51,46.4l2.5-13.1H56l2.5,13.1h-2.3L55.8,44h-2.3l-0.4,2.4H51z M53.8,42.2h1.8l-0.9-5.3L53.8,42.2L53.8,42.2z
		 M61.5,38.1v8.3h-1.9V33.3h2.2l2.4,7.5v-7.5H66v13.1h-1.9L61.5,38.1z M74.1,36.8v6.1c0,2-0.8,3.5-3.2,3.5h-3.4V33.3h3.4
		C73.3,33.2,74.1,34.7,74.1,36.8z M70.7,44.6c0.9,0,1.3-0.5,1.3-1.3v-6.9c0-0.8-0.3-1.3-1.3-1.3h-0.9v9.5H70.7z M77.7,43.6v-1.8h2.1
		v1.8c0,0.7,0.3,1.2,1.1,1.2c0.7,0,1-0.5,1-1.2v-0.5c0-0.8-0.3-1.2-1-1.9l-1.3-1.3c-1.3-1.2-1.8-2-1.8-3.5V36c0-1.6,1-2.9,3.1-2.9
		c2.2,0,3.1,1.1,3.1,3v1.1h-2v-1.1c0-0.8-0.3-1.1-1-1.1c-0.6,0-1,0.3-1,1.1v0.3c0,0.7,0.4,1.2,1,1.8l1.4,1.4c1.2,1.2,1.8,2,1.8,3.4
		v0.6c0,1.8-1,3.1-3.2,3.1C78.6,46.5,77.7,45.3,77.7,43.6L77.7,43.6z M84.9,33.2h5.9V35H89v11.3h-2.2V35H85v-1.8H84.9L84.9,33.2z
		 M94.2,40.4v6H92V33.3h3.2c2.2,0,3,1.1,3,2.9v1.7c0,1.4-0.5,2.2-1.8,2.5l2.1,6h-2.3L94.2,40.4L94.2,40.4z M94.2,35v4.1h0.7
		c0.8,0,1.1-0.4,1.1-1.1v-1.9c0-0.7-0.3-1.1-1.1-1.1L94.2,35L94.2,35z M99.6,43v-6.4c0-2.1,1-3.5,3.3-3.5s3.4,1.5,3.4,3.5V43
		c0,2-1,3.5-3.4,3.5C100.6,46.5,99.6,45,99.6,43z M104.1,43.3v-7.1c0-0.8-0.3-1.4-1.1-1.4s-1.1,0.6-1.1,1.4v7.1
		c0,0.8,0.3,1.4,1.1,1.4C103.7,44.7,104.1,44.1,104.1,43.3z M109.6,38.1v8.3h-1.9V33.3h2.2l2.4,7.5v-7.5h1.8v13.1h-1.9L109.6,38.1z
		 M119,39.4h3.1v7h-1.6V45c-0.3,1-0.9,1.6-2.1,1.6c-1.9,0-2.8-1.5-2.8-3.5v-6.4c0-2.1,1-3.5,3.3-3.5c2.4,0,3.2,1.4,3.2,3.3v1.2h-2
		v-1.3c0-0.8-0.3-1.3-1.1-1.3s-1.1,0.6-1.1,1.4v7.1c0,0.8,0.3,1.4,1.1,1.4c0.7,0,1.1-0.4,1.1-1.3v-2.6h-1v-1.7H119L119,39.4z"/>
</g>
<g>
	<path class="st1" d="M51.4,52.1h2.2v13.1h-2.2V52.1z M57,57v8.3h-1.8V52.1h2.2l2.4,7.5v-7.5h1.8v13.1h-1.9L57,57L57,57z M62.9,62.4
		v-1.8H65v1.8c0,0.7,0.3,1.2,1.1,1.2c0.7,0,1-0.5,1-1.2v-0.5c0-0.8-0.3-1.2-1-1.9l-1.3-1.3c-1.3-1.2-1.8-2-1.8-3.5v-0.4
		c0-1.6,1-2.9,3.1-2.9c2.2,0,3.1,1.1,3.1,3V56h-2v-1.1c0-0.8-0.3-1.1-1-1.1c-0.6,0-1,0.3-1,1.1v0.3c0,0.7,0.4,1.2,1,1.8l1.4,1.4
		c1.2,1.2,1.8,2,1.8,3.4v0.6c0,1.8-1,3.1-3.2,3.1C63.8,65.4,62.9,64.1,62.9,62.4L62.9,62.4z M70.1,52.1H76v1.8h-1.8v11.3H72V53.9
		h-1.8L70.1,52.1z M77.2,52.1h2.2v13.1h-2.2V52.1z M80.6,52.1h5.9v1.8h-1.8v11.3h-2.2V53.9h-1.8v-1.8H80.6L80.6,52.1z M94.1,52.1V62
		c0,2-0.9,3.4-3.1,3.4c-2.3,0-3.3-1.3-3.3-3.4v-9.9h2.2v10.2c0,0.8,0.3,1.3,1.1,1.3s1.1-0.5,1.1-1.3V52.1H94.1z M95.3,52.1h5.9v1.8
		h-1.8v11.3h-2.2V53.9h-1.8v-1.8H95.3L95.3,52.1z M102.4,52.1h2.2v13.1h-2.2V52.1z M106.1,61.8v-6.4c0-2.1,1-3.5,3.3-3.5
		s3.4,1.5,3.4,3.5v6.4c0,2-1,3.5-3.4,3.5C107.1,65.4,106.1,63.9,106.1,61.8z M110.6,62.2v-7.1c0-0.8-0.3-1.4-1.1-1.4
		s-1.1,0.6-1.1,1.4v7.1c0,0.8,0.3,1.4,1.1,1.4C110.2,63.5,110.6,63,110.6,62.2L110.6,62.2z M116.1,57v8.3h-1.9V52.1h2.2l2.4,7.5
		v-7.5h1.8v13.1h-1.9L116.1,57L116.1,57z M122,62.4v-1.8h2.1v1.8c0,0.7,0.3,1.2,1.1,1.2c0.7,0,1-0.5,1-1.2v-0.5c0-0.8-0.3-1.2-1-1.9
		l-1.3-1.3c-1.3-1.2-1.8-2-1.8-3.5v-0.4c0-1.6,1-2.9,3.1-2.9c2.2,0,3.1,1.1,3.1,3V56h-2v-1.1c0-0.8-0.3-1.1-1-1.1
		c-0.6,0-1,0.3-1,1.1v0.3c0,0.7,0.4,1.2,1,1.8l1.4,1.4c1.2,1.2,1.8,2,1.8,3.4v0.6c0,1.8-1,3.1-3.2,3.1C122.9,65.4,122,64.1,122,62.4
		L122,62.4z"/>
</g>
<g>
	<path class="st1" d="M104,79.2c0,0-1.4,1.8-1,3.6s2.4,2.8,2.4,2.8s1.4-1.8,1-3.6S104,79.2,104,79.2 M101.8,89.4c0,0,1.4-1.8,1-3.6
		s-2.4-2.8-2.4-2.8s-1.4,1.8-1,3.5C99.8,88.4,101.8,89.4,101.8,89.4 M107.4,87.5c0,0,1.4,1.4,3.1,1.3c1.6-0.1,2.8-1.8,2.8-1.8
		s-1.4-1.4-3.1-1.3C108.6,85.8,107.4,87.5,107.4,87.5 M109.7,79.8c-1.3,1.3-1.1,3.7-1.1,3.7s2.3,0.2,3.7-1.1
		c1.3-1.3,1.1-3.7,1.1-3.7S111,78.5,109.7,79.8 M106.8,92.9c1.6,0.2,3.1-1.2,3.1-1.2s-1.1-1.7-2.7-1.9c-1.6-0.2-3.1,1.2-3.1,1.2
		S105.2,92.7,106.8,92.9 M108.2,121H96.1c-0.9,0-1.7,0.8-1.7,1.7s0.8,1.7,1.7,1.7h12.1c0.9,0,1.7-0.8,1.7-1.7
		C110,121.8,109.2,121,108.2,121 M108.2,140H96.1c-0.9,0-1.7,0.8-1.7,1.7s0.8,1.7,1.7,1.7h12.1c0.9,0,1.7-0.8,1.7-1.7
		C110,140.7,109.2,140,108.2,140 M53.7,116.9c-0.3-0.1-0.6-0.2-0.8-0.2C52.9,116.7,53.2,116.8,53.7,116.9"/>
	<path class="st1" d="M107.8,125.7H96.6c-0.5,0-1,0.4-1,1v3.4l-7.3,0.8l-10.7-0.2v-6.6c1.4-0.2,2.8-0.5,4.3-0.9
		c10.3-2.9,12.6-11.4,12.3-17.3c-0.2-6,1.7-8.3,4.5-9.4c0.8-0.3,1.6-0.5,2.3-0.6c0,1.5,0.3,3.2,1,5.2c0.2,0,0.5,0,0.7-0.1
		c-0.7-2.1-1-3.8-1-5.3c1.4-0.2,2.4-0.1,2.4-0.1s-1-0.5-2.3-1.7c0.5-2.8,2.2-4.6,3.9-6.4c1-1,2-2,2.7-3.2l-0.6-0.4
		c-0.7,1.2-1.7,2.1-2.6,3.1c-1.7,1.7-3.4,3.5-4,6.4c-0.6-0.5-1.2-1.1-1.8-1.8c-2.5-2.9-5.8-0.8-10.5,3.6c-4.7,4.3-10.5,4.5-16.3-1.4
		C65,86,58.4,86.1,53.9,86.5c3.1,1.3,4.2,4.2,5.8,11.6c1.6,7.7,5.8,11.2,11.5,11.7c-3.2,1.1-3.3,2.9-7.5,5.8
		c-3.3,2.3-7.9,1.6-9.8,1.1c3.5,1.1,7.5,4.7,11.2,6c2.1,0.7,4.4,1.2,6.7,1.4v6.3L52.6,130v4.4l35.9-0.8l7.3,0.8v3.4c0,0.5,0.4,1,1,1
		H108c0.5,0,1-0.4,1-1v-11.2C108.8,126.1,108.3,125.7,107.8,125.7L107.8,125.7z M73.4,124.3c0.8,0,1.6,0,2.4-0.1v6.3l-2.4-0.1V124.3
		L73.4,124.3z M51.3,133.7c0,0.9-0.6,1.7-1.4,1.7H49c-0.8,0-1.4-0.7-1.4-1.7v-3c0-0.9,0.6-1.7,1.4-1.7h0.9c0.8,0,1.4,0.7,1.4,1.7
		V133.7z"/>
</g>
</svg>
