<?xml version="1.0" encoding="UTF-8"?>
<svg id="Layer_1" xmlns="http://www.w3.org/2000/svg" version="1.1" viewBox="0 0 484.51 160.94">
  <!-- Generator: Adobe Illustrator 30.2.1, SVG Export Plug-In . SVG Version: 2.1.1 Build 1)  -->
  <path d="M0,108.5h27.44v-61.75H0v61.75ZM81.74,26.18c4.67,0,8.87.75,12.6,2.24,3.73,1.49,6.88,3.55,9.45,6.16,2.57,2.61,4.55,5.74,5.95,9.38s2.1,7.56,2.1,11.76-.68,8.24-2.03,11.83c-1.35,3.59-3.31,6.7-5.88,9.31-2.57,2.61-5.72,4.67-9.45,6.16-3.73,1.49-7.98,2.24-12.74,2.24h-6.3v-38.51h-27.44v61.75h40.6c7.28,0,14.07-1.45,20.37-4.34,6.3-2.89,11.81-6.77,16.52-11.62,4.71-4.85,8.4-10.48,11.06-16.87,2.66-6.39,3.99-13.04,3.99-19.95s-1.35-13.7-4.06-20.09c-2.71-6.39-6.42-11.99-11.13-16.8-4.71-4.81-10.22-8.66-16.52-11.55-6.3-2.89-13.04-4.34-20.23-4.34H0v23.24M182.74,36.54c-1.12-1.21-1.68-2.75-1.68-4.62,0-2.71,1.12-4.9,3.36-6.58,2.24-1.68,5.13-2.52,8.68-2.52,2.8,0,5.69.58,8.68,1.75,2.99,1.17,5.97,2.96,8.96,5.39l10.92-21.42c-5.23-2.8-10.69-4.92-16.38-6.37-5.69-1.45-11.15-2.17-16.38-2.17-5.6,0-10.66.84-15.19,2.52-4.53,1.68-8.35,4.04-11.48,7.07-3.13,3.03-5.55,6.67-7.28,10.92-1.73,4.25-2.59,8.98-2.59,14.21s.82,9.54,2.45,12.95c1.63,3.41,3.78,6.23,6.44,8.47,2.66,2.24,5.69,4.04,9.1,5.39,3.41,1.35,6.88,2.59,10.43,3.71,2.99,1.03,5.53,1.96,7.63,2.8,2.1.84,3.8,1.75,5.11,2.73,1.31.98,2.24,2.05,2.8,3.22.56,1.17.84,2.54.84,4.13,0,2.61-1.1,4.95-3.29,7-2.19,2.05-5.53,3.08-10.01,3.08-3.92,0-7.89-.89-11.9-2.66-4.01-1.77-8.07-4.48-12.18-8.12l-11.76,22.12c11.39,7.93,23.75,11.9,37.1,11.9,6.44,0,12.2-.86,17.29-2.59,5.09-1.73,9.38-4.15,12.88-7.28,3.5-3.13,6.16-6.88,7.98-11.27,1.82-4.39,2.73-9.29,2.73-14.7,0-8.03-2.08-14.54-6.23-19.53-4.15-4.99-10.71-8.98-19.67-11.97-2.24-.75-4.5-1.45-6.79-2.1-2.29-.65-4.34-1.42-6.16-2.31-1.82-.89-3.29-1.94-4.41-3.15M308.14,108.5h27.44V2.94h-27.44v40.74h-39.62V2.94h-27.44v105.56h27.44v-43.54h39.62v43.54ZM356.14,108.5h27.44V2.94h-27.44v105.56ZM455.81,38.22c0,8.77-5.04,13.16-15.12,13.16h-9.1v-26.32h9.1c10.08,0,15.12,4.39,15.12,13.16M484.51,38.22c0-11.2-3.15-19.88-9.45-26.04-6.3-6.16-15.38-9.24-27.23-9.24h-43.68v105.56h27.44v-35h16.24c11.85,0,20.93-3.08,27.23-9.24,6.3-6.16,9.45-14.84,9.45-26.04"/>
  <path d="M479.96,153.37c.48.46,1.12.69,1.91.69s1.44-.23,1.91-.69c.48-.46.72-1.04.72-1.73s-.24-1.27-.72-1.73c-.48-.46-1.12-.69-1.91-.69s-1.43.23-1.91.69c-.48.46-.72,1.04-.72,1.73s.24,1.27.72,1.73M463,136.4l6.29,17.94,3.17-.34-.66-4.93-3.8-12.67h-4.99ZM468.62,155.29c-.14.45-.33.82-.57,1.11s-.55.5-.94.64-.89.21-1.5.21c-.12,0-.24,0-.37,0-.13,0-.25,0-.37,0v3.41c.39.1.72.17,1,.23.28.05.64.08,1.08.08.93,0,1.71-.15,2.35-.44.64-.29,1.17-.66,1.6-1.12.43-.46.77-.94,1.02-1.45.25-.51.45-.98.61-1.42l7.03-20.12h-4.99l-4.64,15.51-1.31,3.38ZM456.23,153.88h4.67v-24.82h-4.67v24.82ZM445.69,149.08c0,1.23.2,2.22.61,2.97.41.75.99,1.3,1.75,1.64.76.34,1.65.51,2.67.51.56,0,1.07-.04,1.54-.11.46-.08.89-.18,1.29-.31l-.02-3.43c-.16.03-.36.06-.59.09s-.49.04-.78.04c-.41,0-.75-.05-1.02-.15-.27-.1-.47-.29-.61-.56-.13-.27-.2-.66-.2-1.16v-16.53h-4.65v17ZM443.17,139.7h10.18v-3.3h-10.18v3.3ZM430.34,142.65c.15-.58.37-1.09.67-1.53.3-.44.67-.78,1.13-1.03.46-.25,1-.37,1.62-.37s1.11.09,1.53.27c.42.18.73.48.95.91.22.43.32,1.03.32,1.81v11.16h4.68v-11.15c0-1.23-.13-2.27-.39-3.12-.27-.85-.64-1.53-1.13-2.05-.49-.52-1.07-.89-1.75-1.13-.68-.24-1.43-.36-2.25-.36-1.03,0-1.97.2-2.8.59-.83.39-1.55.96-2.16,1.7-.6.74-1.07,1.63-1.41,2.67-.33,1.04-.5,2.2-.5,3.5h1.26c0-.67.08-1.29.23-1.88M430.51,136.4h-4.36v17.48h4.65v-13.75l-.29-3.73ZM415.88,143.23c-1.34,0-2.51.13-3.52.38-1.01.25-1.86.62-2.53,1.12-.67.49-1.18,1.09-1.53,1.8-.34.71-.52,1.52-.52,2.44,0,1.01.26,1.91.78,2.71.52.79,1.23,1.41,2.13,1.86.9.45,1.9.67,3.01.67.87,0,1.63-.13,2.26-.4.64-.26,1.18-.6,1.63-1.02.45-.42.83-.86,1.12-1.33.3-.47.53-.93.7-1.37l-1.23-1.97c-.01.37-.16.75-.45,1.16-.29.41-.69.75-1.2,1.03-.52.28-1.13.42-1.83.42-.46,0-.87-.09-1.21-.27-.35-.18-.61-.42-.79-.74-.18-.32-.27-.68-.27-1.07s.07-.77.2-1.1c.14-.33.35-.63.64-.88.29-.25.66-.45,1.11-.59.45-.14.99-.21,1.6-.21h2.6l-.03-2.63h-2.7ZM418.14,152.1c.11.72.28,1.31.51,1.78h4.7v-.27c-.23-.45-.4-.98-.52-1.59-.12-.61-.18-1.39-.18-2.35v-7.48c0-1.36-.3-2.49-.91-3.39-.61-.91-1.44-1.58-2.5-2.04-1.06-.45-2.26-.68-3.62-.68-1.13,0-2.15.15-3.06.44-.91.29-1.69.69-2.35,1.2-.66.51-1.16,1.1-1.5,1.77-.35.67-.52,1.37-.52,2.12h4.65c0-.44.1-.83.31-1.16.2-.33.5-.58.87-.76.38-.18.82-.27,1.34-.27.6,0,1.1.11,1.48.34.38.23.67.54.85.94.18.4.27.89.27,1.45v7.79c0,.72.06,1.44.17,2.16M400.44,133.52c.47.44,1.11.66,1.91.66s1.42-.22,1.9-.66c.48-.44.72-1,.72-1.68s-.24-1.24-.72-1.68c-.48-.44-1.11-.66-1.9-.66s-1.43.22-1.91.66c-.48.44-.71,1-.71,1.68s.24,1.24.71,1.68M400.01,153.88h4.67v-17.48h-4.67v17.48ZM391.26,153.88h4.67v-24.82h-4.67v24.82ZM382.5,153.88h4.67v-24.82h-4.67v24.82ZM374.16,133.52c.47.44,1.11.66,1.91.66s1.42-.22,1.9-.66c.48-.44.72-1,.72-1.68s-.24-1.24-.72-1.68c-.48-.44-1.11-.66-1.9-.66s-1.43.22-1.91.66c-.47.44-.71,1-.71,1.68s.24,1.24.71,1.68M373.74,153.88h4.67v-17.48h-4.67v17.48ZM370.64,136.13c-.27-.04-.53-.06-.79-.06-.82,0-1.55.19-2.18.58-.64.39-1.17.94-1.61,1.65-.44.71-.77,1.54-.99,2.5-.23.95-.34,2-.34,3.13l.94.29c.02-.59.11-1.12.27-1.58.16-.46.39-.86.71-1.18.32-.32.72-.57,1.19-.73s1.05-.25,1.71-.25c.26,0,.55.01.86.04.32.03.59.06.82.09l.08-4.31c-.17-.07-.39-.12-.66-.15M365.76,136.4h-4.38v17.48h4.65v-13.67l-.27-3.81ZM354.18,153.11c1.27-.52,2.23-1.29,2.89-2.32.66-1.03.98-2.3.98-3.8,0-.95-.2-1.84-.61-2.67-.4-.83-1.04-1.5-1.92-2.03-.88-.52-2.03-.77-3.47-.75l-1.12-1.31h-5.82l-.03,3.33h4.67c.83,0,1.5.14,2,.41.51.28.88.67,1.11,1.17.23.51.35,1.1.35,1.79,0,.61-.13,1.16-.39,1.63-.26.48-.66.85-1.2,1.12-.54.27-1.23.41-2.08.41h-5.27l-1.89,3.78h7.16c1.82,0,3.36-.26,4.63-.77M351.17,142.31c1.5-.05,2.71-.34,3.64-.86.93-.52,1.61-1.18,2.05-2,.44-.82.65-1.71.65-2.68,0-1.1-.2-2.05-.6-2.85-.4-.8-.98-1.47-1.73-2-.75-.53-1.67-.92-2.76-1.18-1.08-.26-2.31-.39-3.68-.39h-8.21v23.53h4.85v-19.73h3.36c.9,0,1.65.1,2.22.31.58.2,1,.53,1.28.99.27.45.41,1.05.41,1.78,0,.65-.14,1.19-.43,1.64-.29.45-.71.79-1.28,1.02-.57.23-1.3.35-2.2.35h-5.07l.03,3.33h6.04l1.41-1.24ZM317.52,142.94c.12-.64.32-1.2.58-1.67s.61-.85,1.04-1.12c.43-.28.95-.41,1.55-.41s1.11.11,1.54.32c.44.22.8.52,1.1.91.3.39.52.85.68,1.4.16.54.25,1.15.28,1.83v2.12c-.04.83-.2,1.56-.48,2.2-.27.64-.67,1.13-1.19,1.49-.52.36-1.17.54-1.97.54-.61,0-1.13-.13-1.56-.4-.43-.26-.77-.64-1.03-1.11s-.45-1.03-.57-1.66c-.11-.62-.17-1.3-.17-2.02v-.34c0-.74.06-1.44.18-2.08M313.13,148.87c.3,1.08.74,2.01,1.32,2.81.58.8,1.29,1.42,2.13,1.86.85.44,1.81.66,2.9.66s1.94-.22,2.71-.65c.78-.43,1.44-1.04,1.98-1.82.54-.78.98-1.69,1.32-2.74.33-1.05.58-2.18.73-3.39v-.74c-.15-1.27-.39-2.44-.73-3.51-.33-1.07-.77-2-1.32-2.8-.54-.79-1.2-1.4-1.97-1.83-.77-.43-1.67-.65-2.69-.65-1.09,0-2.06.22-2.91.65-.85.43-1.57,1.04-2.15,1.83-.58.79-1.02,1.73-1.32,2.82-.3,1.09-.45,2.31-.45,3.64v.34c0,1.27.15,2.45.45,3.52M324.2,153.88h4.22v-24.82h-4.69v21.01l.47,3.81ZM306.6,153.75c.88-.31,1.64-.7,2.27-1.19.63-.48,1.13-.99,1.49-1.52l-2.26-2.46c-.53.67-1.15,1.17-1.88,1.49-.73.33-1.51.49-2.35.49-.68,0-1.28-.12-1.82-.36-.53-.24-.99-.57-1.36-1-.37-.43-.66-.94-.86-1.53-.2-.59-.3-1.24-.3-1.94v-.65c0-.77.07-1.49.2-2.14.14-.65.34-1.22.61-1.7.27-.48.63-.86,1.08-1.13.44-.27.97-.4,1.58-.4.72,0,1.31.15,1.78.45.46.3.81.71,1.04,1.22.23.51.35,1.09.35,1.74v.36h-9.32v3.1h13.9v-1.94c0-1.28-.17-2.45-.5-3.5-.33-1.05-.83-1.95-1.48-2.71-.65-.75-1.46-1.34-2.42-1.75-.96-.41-2.06-.61-3.3-.61s-2.41.22-3.43.65c-1.01.44-1.87,1.06-2.58,1.87-.71.81-1.25,1.76-1.62,2.86-.38,1.1-.57,2.31-.57,3.64v.65c0,1.16.2,2.26.6,3.29.4,1.03.97,1.93,1.72,2.71.75.78,1.66,1.38,2.74,1.82,1.08.44,2.3.66,3.65.66,1.13,0,2.14-.15,3.02-.46M292.98,136.13c-.27-.04-.53-.06-.79-.06-.82,0-1.55.19-2.18.58-.64.39-1.17.94-1.61,1.65-.44.71-.77,1.54-.99,2.5-.23.95-.34,2-.34,3.13l.94.29c.02-.59.11-1.12.27-1.58.16-.46.39-.86.71-1.18.32-.32.72-.57,1.2-.73.48-.17,1.05-.25,1.7-.25.26,0,.55.01.86.04.32.03.59.06.82.09l.08-4.31c-.17-.07-.39-.12-.66-.15M288.1,136.4h-4.38v17.48h4.65v-13.67l-.28-3.81ZM276.92,153.75c.88-.31,1.64-.7,2.27-1.19.63-.48,1.13-.99,1.49-1.52l-2.26-2.46c-.53.67-1.15,1.17-1.88,1.49-.73.33-1.51.49-2.35.49-.68,0-1.29-.12-1.82-.36-.53-.24-.99-.57-1.36-1-.37-.43-.66-.94-.86-1.53-.2-.59-.3-1.24-.3-1.94v-.65c0-.77.07-1.49.2-2.14.14-.65.34-1.22.61-1.7.28-.48.63-.86,1.08-1.13.44-.27.97-.4,1.58-.4.72,0,1.31.15,1.78.45.46.3.81.71,1.04,1.22.23.51.35,1.09.35,1.74v.36h-9.32v3.1h13.9v-1.94c0-1.28-.17-2.45-.5-3.5-.33-1.05-.83-1.95-1.48-2.71s-1.46-1.34-2.42-1.75c-.96-.41-2.06-.61-3.3-.61s-2.41.22-3.43.65c-1.01.44-1.87,1.06-2.58,1.87-.7.81-1.25,1.76-1.62,2.86-.38,1.1-.57,2.31-.57,3.64v.65c0,1.16.2,2.26.6,3.29.4,1.03.97,1.93,1.72,2.71.75.78,1.66,1.38,2.74,1.82,1.08.44,2.29.66,3.65.66,1.13,0,2.14-.15,3.02-.46M247.71,136.4l5.9,17.48h2.96l-.08-3.38-3.89-14.11h-4.88ZM255.16,153.88h2.94l5.9-17.48h-4.86l-3.88,14.09-.1,3.39ZM241.21,133.52c.47.44,1.11.66,1.91.66s1.42-.22,1.9-.66c.48-.44.72-1,.72-1.68s-.24-1.24-.72-1.68c-.48-.44-1.11-.66-1.9-.66s-1.43.22-1.91.66c-.47.44-.71,1-.71,1.68s.24,1.24.71,1.68M240.79,153.88h4.67v-17.48h-4.67v17.48ZM232.03,153.88h4.67v-24.82h-4.67v24.82ZM224.99,153.75c.88-.31,1.64-.7,2.27-1.19.63-.48,1.13-.99,1.5-1.52l-2.26-2.46c-.53.67-1.16,1.17-1.88,1.49-.73.33-1.51.49-2.35.49-.68,0-1.28-.12-1.82-.36-.53-.24-.99-.57-1.36-1s-.66-.94-.86-1.53c-.2-.59-.3-1.24-.3-1.94v-.65c0-.77.07-1.49.2-2.14.13-.65.34-1.22.61-1.7.27-.48.63-.86,1.07-1.13.44-.27.97-.4,1.58-.4.72,0,1.31.15,1.78.45.46.3.81.71,1.04,1.22.23.51.35,1.09.35,1.74v.36h-9.32v3.1h13.9v-1.94c0-1.28-.17-2.45-.5-3.5-.33-1.05-.83-1.95-1.48-2.71-.65-.75-1.46-1.34-2.41-1.75-.96-.41-2.06-.61-3.3-.61s-2.41.22-3.43.65c-1.01.44-1.87,1.06-2.58,1.87-.71.81-1.25,1.76-1.62,2.86-.38,1.1-.57,2.31-.57,3.64v.65c0,1.16.2,2.26.6,3.29.4,1.03.97,1.93,1.72,2.71.75.78,1.66,1.38,2.74,1.82,1.08.44,2.29.66,3.65.66,1.13,0,2.14-.15,3.02-.46M192.7,153.88h4.85v-23.53h-4.85v23.53ZM204.3,153.08c1.32-.53,2.46-1.29,3.41-2.28.95-.99,1.69-2.17,2.21-3.55.52-1.38.78-2.9.78-4.57v-1.11c0-1.68-.26-3.21-.78-4.58-.52-1.37-1.26-2.56-2.22-3.55-.96-.99-2.09-1.75-3.4-2.29-1.31-.53-2.75-.8-4.32-.8h-5.27v3.8h5.27c.94,0,1.77.16,2.49.48.72.32,1.33.79,1.83,1.41.5.62.87,1.4,1.12,2.31.25.92.38,1.98.38,3.18v1.15c0,1.57-.22,2.91-.67,4.02-.45,1.11-1.11,1.95-1.98,2.53-.87.58-1.94.86-3.22.86h-5.09l-.03,3.78h5.12c1.6,0,3.05-.27,4.37-.8M167.31,153.37c.48.46,1.12.69,1.91.69s1.43-.23,1.91-.69c.48-.46.72-1.04.72-1.73s-.24-1.27-.72-1.73c-.48-.46-1.12-.69-1.91-.69s-1.44.23-1.91.69c-.48.46-.72,1.04-.72,1.73s.24,1.27.72,1.73M151.85,142.94c.12-.64.32-1.2.58-1.67.26-.47.61-.85,1.04-1.12.43-.28.95-.41,1.55-.41s1.11.11,1.54.32c.44.22.8.52,1.1.91.3.39.52.85.68,1.4.16.54.25,1.15.28,1.83v2.12c-.04.83-.2,1.56-.48,2.2-.27.64-.67,1.13-1.19,1.49-.52.36-1.18.54-1.97.54-.61,0-1.13-.13-1.56-.4-.43-.26-.77-.64-1.03-1.11-.26-.48-.45-1.03-.57-1.66-.11-.62-.17-1.3-.17-2.02v-.34c0-.74.06-1.44.18-2.08M147.46,148.87c.3,1.08.74,2.01,1.32,2.81.58.8,1.29,1.42,2.13,1.86.85.44,1.81.66,2.9.66s1.94-.22,2.71-.65c.78-.43,1.44-1.04,1.98-1.82.54-.78.98-1.69,1.32-2.74.33-1.05.58-2.18.73-3.39v-.74c-.15-1.27-.39-2.44-.73-3.51-.33-1.07-.77-2-1.32-2.8-.54-.79-1.2-1.4-1.97-1.83-.77-.43-1.67-.65-2.69-.65-1.09,0-2.06.22-2.91.65-.85.43-1.57,1.04-2.15,1.83-.58.79-1.02,1.73-1.32,2.82-.3,1.09-.45,2.31-.45,3.64v.34c0,1.27.15,2.45.45,3.52M158.53,153.88h4.22v-24.82h-4.69v21.01l.47,3.81ZM133.29,142.65c.15-.58.37-1.09.67-1.53.3-.44.67-.78,1.13-1.03.46-.25,1-.37,1.62-.37s1.11.09,1.53.27c.41.18.73.48.94.91.22.43.32,1.03.32,1.81v11.16h4.69v-11.15c0-1.23-.13-2.27-.4-3.12-.26-.85-.64-1.53-1.13-2.05-.49-.52-1.07-.89-1.75-1.13-.68-.24-1.43-.36-2.25-.36-1.03,0-1.97.2-2.8.59-.84.39-1.55.96-2.16,1.7-.6.74-1.07,1.63-1.41,2.67-.33,1.04-.5,2.2-.5,3.5h1.26c0-.67.08-1.29.23-1.88M133.45,136.4h-4.36v17.48h4.65v-13.75l-.29-3.73ZM118.83,143.23c-1.34,0-2.51.13-3.52.38-1.01.25-1.86.62-2.53,1.12-.67.49-1.18,1.09-1.53,1.8-.35.71-.52,1.52-.52,2.44,0,1.01.26,1.91.78,2.71.52.79,1.23,1.41,2.13,1.86.9.45,1.9.67,3.01.67.87,0,1.63-.13,2.26-.4.63-.26,1.18-.6,1.63-1.02.45-.42.83-.86,1.12-1.33.3-.47.53-.93.7-1.37l-1.23-1.97c-.01.37-.16.75-.44,1.16-.28.41-.69.75-1.2,1.03-.52.28-1.13.42-1.83.42-.46,0-.87-.09-1.21-.27-.35-.18-.61-.42-.79-.74-.18-.32-.28-.68-.28-1.07s.07-.77.2-1.1c.14-.33.35-.63.64-.88.29-.25.66-.45,1.12-.59.45-.14.99-.21,1.6-.21h2.6l-.03-2.63h-2.7ZM121.08,152.1c.11.72.28,1.31.51,1.78h4.7v-.27c-.23-.45-.4-.98-.52-1.59-.12-.61-.18-1.39-.18-2.35v-7.48c0-1.36-.3-2.49-.91-3.39-.61-.91-1.44-1.58-2.5-2.04-1.06-.45-2.26-.68-3.62-.68-1.13,0-2.15.15-3.06.44-.91.29-1.69.69-2.35,1.2-.66.51-1.16,1.1-1.5,1.77-.35.67-.52,1.37-.52,2.12h4.65c0-.44.1-.83.31-1.16.21-.33.5-.58.87-.76.38-.18.82-.27,1.34-.27.6,0,1.1.11,1.48.34.38.23.67.54.85.94.18.4.27.89.27,1.45v7.79c0,.72.06,1.44.17,2.16M109.15,136.13c-.27-.04-.53-.06-.79-.06-.82,0-1.55.19-2.18.58-.64.39-1.17.94-1.61,1.65-.44.71-.77,1.54-.99,2.5-.23.95-.34,2-.34,3.13l.94.29c.02-.59.11-1.12.27-1.58.16-.46.39-.86.71-1.18s.72-.57,1.2-.73c.48-.17,1.05-.25,1.7-.25.26,0,.55.01.86.04.32.03.59.06.82.09l.08-4.31c-.17-.07-.39-.12-.66-.15M104.27,136.4h-4.38v17.48h4.65v-13.67l-.28-3.81ZM92.69,153.11c1.27-.52,2.23-1.29,2.88-2.32.66-1.03.99-2.3.99-3.8,0-.95-.2-1.84-.61-2.67-.4-.83-1.04-1.5-1.92-2.03-.88-.52-2.03-.77-3.47-.75l-1.11-1.31h-5.82l-.03,3.33h4.67c.83,0,1.5.14,2,.41.51.28.88.67,1.11,1.17.23.51.35,1.1.35,1.79,0,.61-.13,1.16-.39,1.63-.26.48-.66.85-1.2,1.12-.54.27-1.23.41-2.08.41h-5.27l-1.89,3.78h7.16c1.82,0,3.36-.26,4.63-.77M89.68,142.31c1.5-.05,2.71-.34,3.64-.86s1.62-1.18,2.05-2c.44-.82.65-1.71.65-2.68,0-1.1-.2-2.05-.6-2.85-.4-.8-.97-1.47-1.73-2-.75-.53-1.67-.92-2.76-1.18-1.08-.26-2.31-.39-3.68-.39h-8.21v23.53h4.85v-19.73h3.36c.9,0,1.64.1,2.22.31.58.2,1,.53,1.28.99.28.45.41,1.05.41,1.78,0,.65-.14,1.19-.43,1.64-.29.45-.71.79-1.28,1.02-.57.23-1.3.35-2.2.35h-5.07l.03,3.33h6.04l1.4-1.24ZM67.69,136.13c-.27-.04-.53-.06-.79-.06-.82,0-1.55.19-2.18.58-.64.39-1.17.94-1.61,1.65-.44.71-.77,1.54-.99,2.5-.23.95-.34,2-.34,3.13l.94.29c.02-.59.11-1.12.27-1.58.16-.46.39-.86.71-1.18.32-.32.72-.57,1.2-.73.48-.17,1.05-.25,1.7-.25.26,0,.55.01.87.04.32.03.59.06.82.09l.08-4.31c-.17-.07-.39-.12-.66-.15M62.81,136.4h-4.38v17.48h4.65v-13.67l-.28-3.81ZM50.41,148.36c-.23.67-.62,1.2-1.18,1.59-.56.39-1.31.58-2.27.58-.38,0-.72-.05-1.03-.15s-.57-.26-.8-.48c-.23-.23-.4-.52-.53-.87-.12-.36-.19-.79-.19-1.31v-11.33h-4.65v11.3c0,1.16.14,2.16.43,2.98.28.82.68,1.5,1.19,2.02.51.52,1.13.9,1.84,1.15.72.24,1.5.36,2.35.36,1.11,0,2.07-.2,2.89-.61.82-.4,1.5-.97,2.04-1.7.54-.73.94-1.59,1.21-2.59.27-1,.4-2.08.4-3.24l-1.37.03c0,.83-.12,1.58-.35,2.25M50.51,153.88h4.38v-17.48h-4.65v13.3l.28,4.18ZM25.32,142.97c.13-.63.34-1.19.62-1.68s.66-.88,1.11-1.15c.46-.28,1.02-.42,1.67-.42s1.22.14,1.68.42c.46.28.84.66,1.12,1.15.28.49.49,1.05.63,1.68.14.63.2,1.3.2,2.01v.34c0,.73-.07,1.42-.2,2.05-.13.64-.34,1.19-.62,1.67-.28.48-.65.85-1.11,1.12-.46.27-1.02.4-1.66.4s-1.23-.14-1.7-.4c-.46-.27-.84-.64-1.12-1.12-.28-.48-.49-1.04-.62-1.67-.13-.64-.19-1.32-.19-2.05v-.34c0-.71.07-1.38.19-2.01M21.02,148.85c.37,1.08.9,2.02,1.61,2.83.7.8,1.57,1.43,2.6,1.87,1.03.44,2.21.66,3.53.66s2.5-.22,3.52-.66c1.02-.44,1.89-1.06,2.59-1.87.71-.8,1.24-1.74,1.61-2.83.37-1.08.55-2.26.55-3.53v-.34c0-1.28-.18-2.46-.55-3.55-.37-1.08-.9-2.02-1.61-2.82-.71-.8-1.58-1.42-2.61-1.87-1.03-.45-2.21-.67-3.54-.67s-2.5.22-3.52.67c-1.02.45-1.89,1.07-2.59,1.87-.7.8-1.23,1.74-1.6,2.82-.37,1.08-.55,2.26-.55,3.55v.34c0,1.27.18,2.45.55,3.53M0,130.36l7.76,14.96v8.56h4.91v-8.56l7.74-14.96h-5.28l-4.91,10.73-4.91-10.73H0Z"/>
</svg>