<?xml version="1.0" standalone="no"?>
<!DOCTYPE svg PUBLIC "-//W3C//DTD SVG 1.1//EN" "http://www.w3.org/Graphics/SVG/1.1/DTD/svg11.dtd" >
<svg xmlns="http://www.w3.org/2000/svg">
<metadata></metadata>
<defs>
<font id="untitled_2regular" horiz-adv-x="1701" >
<font-face units-per-em="2048" ascent="2048" descent="0" />
<missing-glyph horiz-adv-x="512" />
<glyph horiz-adv-x="0" />
<glyph unicode="&#xd;" horiz-adv-x="512" />
<glyph horiz-adv-x="0" />
<glyph horiz-adv-x="0" />
<glyph unicode=" "  horiz-adv-x="512" />
<glyph unicode="&#x09;" horiz-adv-x="512" />
<glyph unicode="&#xa0;" horiz-adv-x="512" />
<glyph unicode="0" d="M856 1139l-180 -103q-76 -45 -76 -162q-2 -119 68 -241q68 -123 176 -182q102 -59 178 -15l180 105l228 -398q-47 -57 -107 -92q-98 -57 -219 -51t-242 65.5t-233.5 169t-198.5 259.5q-115 199 -145 399q-31 201 24 360q55 160 185 236q63 39 133 47z" />
<glyph unicode="1" d="M84 1536h1536v-193h-768l135 -135l408 -407l-135 -135l-312 311v-977h-192v977l-312 -311l-135 135l408 407l135 135h-768v193z" />
<glyph unicode="2" d="M1518 1153q102 -176 102 -385q0 -205 -102 -385q-104 -176 -281 -281q-174 -102 -385 -102q-213 0 -385 102q-178 104 -281 281q-102 174 -102 385q0 213 102 385q98 174 281 281q172 102 385 102q211 0 385 -102q179 -107 281 -281zM1382 545q45 109 45 224.5t-45 221.5 q-92 213 -307 307q-106 45 -223 46.5t-223 -46.5q-106 -45 -184 -121.5t-123 -185.5q-47 -106 -47.5 -222t47.5 -224q90 -217 307 -307q106 -47 223 -46t223 46q215 92 307 307z" />
<glyph unicode="3" d="M1518 1153q102 -176 102 -385q0 -205 -102 -385q-104 -176 -281 -281q-174 -102 -385 -102q-213 0 -385 102q-178 104 -281 281q-102 174 -102 385q0 213 102 385q98 174 281 281q172 102 385 102q211 0 385 -102q179 -107 281 -281zM1382 545q45 109 45 224.5t-45 221.5 q-92 213 -307 307q-106 45 -223 46.5t-223 -46.5q-106 -45 -184 -121.5t-123 -185.5q-47 -106 -47.5 -222t47.5 -224q90 -217 307 -307q106 -47 223 -46t223 46q215 92 307 307zM1032 948q76 -76 76 -180t-76 -180q-80 -76 -180 -76q-104 0 -180 76q-76 74 -76 180t76 180 q76 76 180 76q100 0 180 -76z" />
<glyph unicode="4" d="M1323 0q0 250 -98 481t-264 398q-166 166 -396 264q-227 98 -479 98v295q211 0 408 -55q199 -55 365.5 -154.5t307.5 -241.5q139 -139 240 -311q98 -170 153.5 -366.5t55.5 -407.5h-293zM86 1014q203 0 391 -80q186 -80 324 -217q137 -139 215 -324q80 -188 80 -393h-295 q0 145 -53.5 276.5t-155.5 233.5t-232.5 156.5t-273.5 54.5v293zM86 207q0 84 59 143q57 59 146 60q86 0 143 -60q59 -59 60 -143q0 -88 -60 -146q-59 -59 -143 -59q-86 0 -146 59q-59 60 -59 146z" />
<glyph unicode="5" d="M1022 768l598 -598l-170 -170l-598 598l-598 -598l-170 170l598 598l-598 598l170 170l598 -598l598 598l170 -170z" />
<glyph unicode="6" d="M756 0l-635 635l145 145l445 -442l692 1198l178 -102z" />
<glyph unicode="7" d="M276 1343v-1150h1151v1150h-1151zM84 0v1536h1536v-1536h-1536zM852 1075l479 -479l-137 -135l-342 344l-342 -344l-137 135z" />
<glyph unicode="8" d="M1427 1343h-1151v-1150h1151v1150zM84 1536h1536v-1536h-1536v1536zM1159 768l-479 -479l-135 137l344 342l-344 342l135 137z" />
<glyph unicode="9" d="M1427 193v1150h-1151v-1150h1151zM1620 1536v-1536h-1536v1536h1536zM852 461l-479 479l137 135l342 -344l342 344l137 -135z" />
<glyph unicode=":" d="M193 193h1150v1150h-1150v-1150zM1536 0h-1536v1536h1536v-1536zM461 768l479 479l135 -137l-344 -342l344 -342l-135 -137z" />
<glyph unicode=";" d="M1536 1536v-1536h-254l-221 385h-1061v1151h1536zM1343 897v446h-1150v-768h978l172 -299v621zM977 1118q0 -92 -82 -166q-20 -18 -32.5 -35.5t-12.5 -35.5v-4q0 -27 -33 -27h-96q-25 0 -25 31v8q0 39 21 67q25 35 57 68q43 43 43 86q0 20 -12 33q-14 10 -31 10 q-25 0 -39 -14q-12 -12 -16 -41t-33 -29h-98q-29 0 -29 31q0 82 59 131q57 49 158 49q78 0 142 -41q59 -41 59 -121zM713 770q27 20 61 21q35 0 62 -21q25 -23 24 -53q0 -35 -24 -55q-23 -20 -62 -21q-39 0 -61 21q-27 23 -27 55q0 30 27 53z" />
<glyph unicode="&#x3c;" horiz-adv-x="1671" d="M1434 1153q102 -172 102 -385q0 -211 -102 -385q-106 -178 -281 -281q-172 -102 -385 -102q-211 0 -385 102q-176 104 -281 281q-102 174 -102 385q0 213 102 385q102 174 281 281q174 102 385 102q213 0 385 -102q177 -105 281 -281zM1399 877v2q0 6 -2 16t-6 25v2 q-4 20 -11.5 39.5t-15.5 39.5v3l-2 2q-8 20 -17.5 38.5t-19.5 36.5l-2 4q0 2 -18 31l-2 4q-6 12 -25 33q-35 -31 -73 -56.5t-79 -47.5q10 -53 16.5 -106.5t8.5 -111.5h254zM137 662v-5l8 -41v-2q4 -23 11.5 -42t15.5 -40q33 -80 86 -149q66 59 152 104q-23 111 -25 218h-254 zM446 215l7 -2q4 -4 16 -10l4 -2q2 -2 4 -2q12 -8 17 -9q4 -2 9 -6t9 -4l4 -2q-6 12 -14 28.5t-19 37.5q-10 25 -21 53.5t-22 60.5q-23 -14 -47 -30.5t-49 -38.5q18 -16 38.5 -31.5t43.5 -30.5zM1364 532q8 20 15 40t12 42v2l8 41v5l6 43h-254q-2 -106 -25 -218 q86 -45 152 -104q53 69 86 149zM600 1239q-25 -53 -43 -117q211 -72 422 0q-18 63 -43 117q-35 78 -80 124t-88 46t-88 -46t-80 -124zM344 1247q23 -18 46.5 -35.5t49.5 -33.5q18 63 43 114l18.5 37l14.5 29q-47 -20 -90 -48t-82 -63zM1024 182q4 0 9 3t9 5q4 0 17 9l4 2 q2 0 4 2q12 6 16 10l7 2l20 12q23 14 43.5 29.5t38.5 32.5q-25 23 -49.5 39t-46.5 30q-10 -33 -21.5 -61.5t-21.5 -52.5l-18.5 -37l-14.5 -29zM936 297q25 51 43 117q-211 72 -422 0q18 -66 43 -117q35 -78 80 -123t88 -45t88 45t80 123zM530 539q115 39 238 39t238 -39 q6 35 11 76.5t7 89.5h-512q2 -47 7 -89t11 -77zM1024 831q-2 47 -7 89.5t-11 76.5q-115 -39 -238 -39t-238 39q-6 -35 -11 -76.5t-7 -89.5h512zM1192 1247q-39 35 -82 62.5t-90 48.5q6 -12 14 -28.5t19 -37.5q25 -51 43 -114q27 16 50 33.5t46 35.5zM258 1153 q-18 -20 -25 -33l-2 -4q-18 -29 -18 -31l-2 -4q-10 -18 -19.5 -36.5t-17.5 -38.5l-2 -2v-3q-8 -20 -15 -39.5t-12 -39.5v-2q-4 -14 -6 -24.5t-2 -16.5v-2l-6 -46h254q2 57 8 110.5t17 107.5q-41 23 -79 48t-73 56z" />
<glyph unicode="=" horiz-adv-x="915" d="M768 383q0 -80 -30.5 -149.5t-83 -122t-122 -82t-149.5 -29.5t-149.5 29.5t-122 82t-82 122t-29.5 149.5v864q0 59 22.5 112.5t61.5 92.5t92 61.5t113 22.5q59 0 111.5 -22.5t91 -61.5t61 -92t22.5 -113v-864q0 -80 -56 -135t-136 -55t-135 55t-55 135v2v576h126v-578 q0 -27 18.5 -45.5t45.5 -18.5t46.5 18.5t19.5 45.5v864q0 66 -47.5 114t-112.5 48q-66 0 -114 -48t-48 -114v-864q0 -53 20.5 -99t55.5 -81t81 -54.5t99 -19.5t100 19.5t82 54.5t55.5 81t20.5 99v578h127v-578v0z" />
<glyph unicode="&#x3e;" horiz-adv-x="935" d="M770 1536v-1536l-385 385l-385 -385v1536h770z" />
<glyph unicode="?" horiz-adv-x="1435" d="M332 575h225l109 -192l108 192h223l-108 193l108 193h-217l-114 192l-109 -192h-225l110 -193zM897 1153h434l-217 -385l217 -385h-448l-217 -383l-217 383h-449v2l217 383l-217 383v2h449l217 383z" />
<glyph unicode="@" horiz-adv-x="1435" d="M897 1153h434l-217 -385l217 -385h-448l-217 -383l-217 383h-449v2l217 383l-217 383v2h449l217 383z" />
<glyph unicode="A" horiz-adv-x="1341" d="M1217 0h-1217v223q0 168 82 305q80 137 221 222q139 82 305 81q166 0 305 -81q137 -84 222 -222q82 -139 82 -305v-223zM856 936q-104 -104 -248 -105q-145 0 -250 105q-102 102 -102 248q0 147 102 250q102 102 250 102q145 0 248 -102q104 -104 105 -250 q-1 -144 -105 -248z" />
<glyph unicode="B" horiz-adv-x="1646" d="M1499 219q37 -37 37 -90q0 -55 -37 -92t-90 -37t-90 37l-381 381q-152 -98 -330 -99q-168 0 -305 82q-139 82 -221 222q-82 137 -82 305t82 305q80 137 221 221q139 82 305 82t305 -82q137 -84 222 -221q82 -139 82 -305q0 -180 -99 -330zM856 680q104 104 105 248 q0 145 -105 250q-102 102 -248 102q-147 0 -250 -102q-102 -102 -102 -250q0 -145 102 -248q104 -104 250 -105q144 1 248 105z" />
<glyph unicode="C" horiz-adv-x="1589" d="M0 1217v319h1536v-319h-1536zM0 608v320h1536v-320h-1536zM0 0v319h1536v-319h-1536z" />
<glyph unicode="D" horiz-adv-x="1671" d="M1434 1153q102 -172 102 -385q0 -211 -102 -385q-106 -178 -281 -281q-172 -102 -385 -102q-211 0 -385 102q-176 104 -281 281q-102 174 -102 385q0 213 102 385q102 174 281 281q174 102 385 102q213 0 385 -102q177 -105 281 -281zM1298 545q47 109 46 224.5 t-46 221.5q-92 215 -307 307q-106 45 -222 46.5t-224 -46.5q-215 -90 -307 -307q-45 -106 -46.5 -222t46.5 -224q90 -217 307 -307q109 -47 224.5 -46t221.5 46q217 92 307 307zM1217 864v-192h-898v192h898z" />
<glyph unicode="E" horiz-adv-x="1671" d="M1434 1153q102 -172 102 -385q0 -211 -102 -385q-106 -178 -281 -281q-172 -102 -385 -102q-211 0 -385 102q-176 104 -281 281q-102 174 -102 385q0 213 102 385q102 174 281 281q174 102 385 102q213 0 385 -102q177 -105 281 -281zM1298 545q47 109 46 224.5 t-46 221.5q-92 215 -307 307q-106 45 -222 46.5t-224 -46.5q-215 -90 -307 -307q-45 -106 -46.5 -222t46.5 -224q90 -217 307 -307q109 -47 224.5 -46t221.5 46q217 92 307 307zM1217 672h-353v-353h-192v353h-353v192h353v353h192v-353h353v-192z" />
<glyph unicode="F" horiz-adv-x="1671" d="M1434 1153q102 -172 102 -385q0 -211 -102 -385q-106 -178 -281 -281q-172 -102 -385 -102q-211 0 -385 102q-176 104 -281 281q-102 174 -102 385q0 213 102 385q102 174 281 281q174 102 385 102q213 0 385 -102q177 -105 281 -281zM1298 545q47 109 46 224.5 t-46 221.5q-92 215 -307 307q-106 45 -222 46.5t-224 -46.5q-215 -90 -307 -307q-45 -106 -46.5 -222t46.5 -224q90 -217 307 -307q109 -47 224.5 -46t221.5 46q217 92 307 307zM1190 768l-639 -371v742z" />
<glyph unicode="G" horiz-adv-x="1671" d="M1434 1153q102 -172 102 -385q0 -211 -102 -385q-106 -178 -281 -281q-172 -102 -385 -102q-211 0 -385 102q-176 104 -281 281q-102 174 -102 385q0 213 102 385q102 174 281 281q174 102 385 102q213 0 385 -102q177 -105 281 -281zM1298 545q47 109 46 224.5 t-46 221.5q-92 215 -307 307q-106 45 -222 46.5t-224 -46.5q-215 -90 -307 -307q-45 -106 -46.5 -222t46.5 -224q90 -217 307 -307q109 -47 224.5 -46t221.5 46q217 92 307 307zM672 319v193h192v-193h-192zM672 641v576h192v-576h-192z" />
<glyph unicode="H" horiz-adv-x="1671" d="M1434 1153q102 -172 102 -385q0 -211 -102 -385q-106 -178 -281 -281q-172 -102 -385 -102q-211 0 -385 102q-176 104 -281 281q-102 174 -102 385q0 213 102 385q102 174 281 281q174 102 385 102q213 0 385 -102q177 -105 281 -281zM1298 545q47 109 46 224.5 t-46 221.5q-92 215 -307 307q-106 45 -222 46.5t-224 -46.5q-215 -90 -307 -307q-45 -106 -46.5 -222t46.5 -224q90 -217 307 -307q109 -47 224.5 -46t221.5 46q217 92 307 307zM682 303l-332 334l135 135l156 -156l311 539l166 -96z" />
<glyph unicode="I" horiz-adv-x="1671" d="M1434 1153q102 -172 102 -385q0 -211 -102 -385q-106 -178 -281 -281q-172 -102 -385 -102q-211 0 -385 102q-176 104 -281 281q-102 174 -102 385q0 213 102 385q102 174 281 281q174 102 385 102q213 0 385 -102q177 -105 281 -281zM1298 545q47 109 46 224.5 t-46 221.5q-92 215 -307 307q-106 45 -222 46.5t-224 -46.5q-215 -90 -307 -307q-45 -106 -46.5 -222t46.5 -224q90 -217 307 -307q109 -47 224.5 -46t221.5 46q217 92 307 307zM1153 518l-135 -135l-250 250l-250 -250l-135 135l250 250l-250 250l135 135l250 -250l250 250 l135 -135l-250 -250z" />
<glyph unicode="J" d="M0 0v1536h1536v-1536h-1536zM193 1343v-1150h1150v1150h-1150zM641 616l311 539l166 -96l-436 -756l-332 334l135 135z" />
<glyph unicode="K" d="M1536 1536v-1536h-1536v1536h1536zM1343 193v1150h-1150v-1150h1150zM633 768l-250 250l135 135l250 -250l250 250l135 -135l-250 -250l250 -250l-135 -135l-250 250l-250 -250l-135 135z" />
<glyph unicode="L" d="M0 0v1536h1536v-1536h-1536zM193 1343v-1150h1150v1150h-1150z" />
<glyph unicode="M" horiz-adv-x="1325" d="M-315 453l768 768l768 -768l-138 -138l-630 633l-633 -633z" />
<glyph unicode="N" horiz-adv-x="993" d="M135 1536l768 -768l-768 -768l-135 135l633 633l-633 633z" />
<glyph unicode="O" horiz-adv-x="1327" d="M1221 1083l-768 -768l-768 768l135 138l633 -633l630 633z" />
<glyph unicode="P" horiz-adv-x="1015" d="M768 0l-768 768l768 768l135 -135l-631 -633l631 -633z" />
<glyph unicode="Q" horiz-adv-x="1658" d="M768 1536l512 -512v-256h256v-768h-1536v768h256v768h512zM1087 1024h-319v319h-319v-768h638v449z" />
<glyph unicode="R" horiz-adv-x="1720" d="M922 1638v-1042l331 334l146 -146l-434 -434l-146 -145l-145 145l-434 434l145 146l332 -334v1042h205zM205 410v-205h614h615v205h204v-205v-205h-1638v410h205z" />
<glyph unicode="S" horiz-adv-x="1720" d="M836 1057q0 29 32 28h461q16 0 26.5 -7t10.5 -23v-86q0 -23 -10 -45.5t-15 -32.5q-66 -129 -116.5 -278.5t-83.5 -290.5q-4 -23 -10.5 -36.5t-34.5 -13.5h-144q-27 0 -26 31q0 16 3 33.5t7 34.5q16 63 39.5 133.5t51.5 142.5t58.5 138.5t61.5 119.5h-279q-33 0 -32 29 v123v0zM272 932q0 31 35 45q35 16 76 35.5t76 48.5q23 16 38 23.5t46 7.5h71q16 0 26.5 -8.5t10.5 -24.5v-752q0 -16 -10 -25.5t-27 -9.5h-129q-14 0 -25 9.5t-11 25.5v539q-12 -8 -31 -17.5t-39.5 -18.5t-41 -16.5t-34.5 -9.5q-31 -4 -31 25v123v0zM1501 1227h-1366v-1092 h1366v1092zM1364 1434q0 29 -19.5 48t-48.5 19t-49 -19.5t-20 -47.5q0 -29 20.5 -48.5t48.5 -19.5q29 0 48.5 19.5t19.5 48.5zM408 1434q0 29 -19.5 48t-48.5 19t-48.5 -19.5t-19.5 -47.5q0 -29 19.5 -48.5t48.5 -19.5t48.5 19.5t19.5 48.5zM1638 0h-1638v1638h1638v-1638z " />
<glyph unicode="T" horiz-adv-x="1720" d="M205 137h137v135h-137v-135zM477 137h137v135h-137v-135zM1024 137h137v135h-137v-135zM1296 137h138v135h-138v-135zM205 477h137v137h-137v-137zM477 477h137v137h-137v-137zM1024 477h137v137h-137v-137zM1296 477h138v137h-138v-137zM205 819h137v137h-137v-137z M477 819h137v137h-137v-137zM1024 819h137v137h-137v-137zM1296 819h138v137h-138v-137zM205 1161h137v135h-137v-135zM477 1161h137v135h-137v-135zM819 1366v-342l410 272l409 -272v-1024h-1638v1366l410 272z" />
<glyph unicode="U" horiz-adv-x="1361" d="M1296 989q0 -111 -38.5 -227.5t-99 -226t-135.5 -207t-146.5 -170t-133 -115.5t-94.5 -43q-35 0 -96 43t-133 115.5t-146.5 170t-135 207t-99.5 226.5t-39 227q0 135 51 253t139.5 206t206 139t252.5 51v-270q-78 0 -147.5 -29.5t-120.5 -81t-81 -121t-30 -147.5 t30 -146.5t81 -119.5t120.5 -81t147.5 -30t146.5 30t120 81t81 119.5t29.5 146.5t-29.5 147.5t-81 121t-120 81t-146.5 29.5v270q133 0 251 -51t206 -139t139 -206t51 -253z" />
<glyph unicode="V" horiz-adv-x="1720" d="M199 1245q0 -16 -19 -16h-67q-20 0 -21 16v271q-12 -8 -35.5 -17.5t-40.5 -13.5q-16 -4 -16 12v62q0 14 18 22t40 17.5t40 23.5q12 10 19.5 13t23.5 3h39q18 0 19 -16v-377v0zM276 631q0 -16 -16 -17h-240q-18 0 -18 17v45q0 4 2 12t16 23l107 114q18 20 29.5 39t11.5 37 q0 33 -31 33t-37 -41q0 -18 -18 -19h-66q-16 0 -16 19q0 68 43 99.5t98 31.5q66 0 99.5 -33t33.5 -86q0 -37 -18 -71.5t-72 -83.5l-51 -45h127q16 0 16 -15v-59v0zM283 139q0 -63 -38 -101t-104 -38q-37 0 -67.5 10t-50.5 35q-8 10 -15.5 26.5t-7.5 32.5q0 14 16 17l56 4 q16 2 24 -10q12 -27 41 -27q23 0 33 15.5t10 33.5q0 27 -16.5 36t-38.5 9h-15.5t-19.5 -2q-20 -2 -20 15v34q0 12 4 19.5t10 13.5l61 57h-114q-16 0 -17 15v61q0 14 17 15h221q18 0 18 -15v-47q0 -10 -5 -18t-9 -13l-70 -63q53 -8 75 -39t22 -76zM410 1536h1228v-205h-1228 v205zM410 922h1228v-205h-1228v205zM1638 102h-1228v205h1228v-205z" />
<glyph unicode="W" horiz-adv-x="1720" d="M1110 489q10 -29 -23 -43q-39 -23 -77.5 -29.5t-71.5 -6.5q-16 0 -48 2t-61 12q-23 6 -47 11t-43 5q-16 0 -41.5 -4t-58.5 -20q-10 -6 -27.5 -2t-25.5 16l-47 80q-8 14 -3 28.5t15 20.5q41 29 70.5 60.5t29.5 85.5v23t-4 22h-84q-37 0 -37 28v62q0 29 37 28h49 q-10 16 -27.5 59.5t-17.5 88.5q0 39 16.5 76.5t49.5 68.5t82 49.5t114 18.5q133 0 193.5 -57.5t64.5 -147.5q2 -10 -4 -21.5t-26 -11.5h-127q-16 0 -23.5 8.5t-11.5 20.5q-8 20 -21.5 30.5t-39.5 10.5q-29 0 -45.5 -17.5t-16.5 -42.5q0 -35 14.5 -69.5t30.5 -63.5h127 q35 0 35 -28v-62q0 -29 -35 -28h-98v-21q0 -33 -8.5 -66.5t-36.5 -70.5q10 0 18 1t19 1q10 0 21 -1t22 -5q16 -2 30.5 -4t28.5 -2q16 0 40 4t46 12q18 8 35.5 6t21.5 -16l27 -99v0zM1434 819q0 127 -48.5 239.5t-131.5 195.5t-195.5 131.5t-239.5 48.5t-239.5 -48.5 t-195.5 -131.5t-131 -195.5t-48 -239.5t48 -239.5t131 -195.5t195.5 -131t239.5 -48t239.5 48t195.5 131t131.5 195.5t48.5 239.5zM1638 819q0 -170 -64.5 -319.5t-175 -260t-260 -175t-319.5 -64.5t-319.5 64.5t-260 175t-175 260t-64.5 319.5t64.5 319.5t175 260t260 175 t319.5 64.5t319.5 -64.5t260 -175t175 -260t64.5 -319.5z" />
<glyph unicode="X" horiz-adv-x="1720" d="M891 748l-143 143l-146 -289zM1434 819q0 129 -48.5 239.5t-132.5 194.5l-264 -602l-604 -266l266 602l602 266q-84 84 -194.5 132.5t-239.5 48.5q-127 0 -239.5 -48.5t-195.5 -131.5t-131 -195.5t-48 -239.5q0 -129 48 -239.5t132 -194.5t194.5 -132t239.5 -48 q127 0 239.5 48t195.5 131t131.5 195.5t48.5 239.5zM1638 819q0 -170 -64.5 -319.5t-175 -260t-260 -175t-319.5 -64.5t-319.5 64.5t-260 175t-175 260t-64.5 319.5t64.5 319.5t175 260t260 175t319.5 64.5t319.5 -64.5t260 -175t175 -260t64.5 -319.5z" />
<glyph unicode="Y" horiz-adv-x="1720" d="M229 229l365 99l-266 266zM727 1257l530 -530l-530 -532l-727 -195l195 727zM1638 1106l-290 -289l-531 531l289 290z" />
<glyph unicode="Z" horiz-adv-x="1720" d="M1638 1092v-136l-819 -546l-819 546v136h1638zM1638 0v784l-819 -544l-819 544v-784h1638z" />
<glyph unicode="[" horiz-adv-x="2150" d="M190 1174v-981h1635v319l188 139v-481q0 -66 -26.5 -99.5t-59.5 -50.5q-37 -18 -84 -20h-1673q-66 0 -99.5 25.5t-50.5 58.5q-18 37 -20 86v1024q0 66 25.5 99.5t58.5 49.5q37 18 86 23h657l-260 -192h-377zM2048 1032l-649 -493v262q-31 8 -71 14t-87 7t-99 -5t-106 -22 q-84 -27 -179 -76t-177 -98q-96 -57 -188 -125q66 211 188 378q51 72 119.5 140.5t158 122t199 86t242.5 32.5v273z" />
<glyph unicode="\" horiz-adv-x="2048" />
<glyph unicode="f" horiz-adv-x="1720" d="M1638 68q0 -20 -8 -35q-6 -12 -20.5 -22.5t-38.5 -10.5h-441v635h213l33 248h-246v157q0 53 23 86t100 33h131v221q-16 4 -69 7.5t-121 3.5q-143 0 -231.5 -83t-88.5 -243v-182h-212v-248h212v-635h-806q-20 0 -35 8q-12 6 -22.5 19.5t-10.5 40.5v1503q0 18 8 33 q6 12 19.5 23t40.5 11h1503q18 0 33 -8q12 -6 23 -20.5t11 -38.5v-1503v0z" />
<glyph unicode="g" horiz-adv-x="1720" d="M1638 1130v-1062q0 -20 -8 -35q-6 -12 -20.5 -22.5t-38.5 -10.5h-672q6 25 10 50.5t2 51.5q0 129 -57 207q-57 74 -139 142l-84 69q-18 18 -37 43q-23 23 -23 64q0 39 21 71q10 14 20.5 27.5t22.5 24.5q18 18 36.5 34.5t35.5 32.5q16 16 30.5 33.5t28.5 38.5 q59 82 59 213q0 37 -3 68.5t-13 60.5t-21.5 51.5t-23.5 42.5q-29 45 -55 72q-16 14 -28.5 24.5t-25.5 18.5h154l154 90h-498q-100 0 -213 -25q-115 -25 -221 -112q-10 -8 -16.5 -16.5t-14.5 -16.5v211q0 18 8 33q6 12 19.5 23t40.5 11h1503q18 0 33 -8q12 -6 23 -20.5 t11 -38.5v-314h-262v261h-127v-261h-260v-127h260v-262h127v262h262zM289 668q18 0 37.5 1t42.5 3q-4 -10 -7.5 -20.5l-7.5 -22.5q-10 -25 -10 -56q0 -29 7 -51t18 -43q12 -18 23 -37.5t26 -38.5q-45 0 -99.5 -5t-119.5 -15q-106 -18 -199 -64v457q53 -53 125 -80.5 t164 -27.5zM403 735q-78 0 -137 47q-31 25 -55.5 53.5t-44.5 63.5q-78 141 -78 281q-2 100 53 184q70 82 168 82q76 0 137 -45q29 -23 51.5 -52.5t41.5 -64.5q37 -76 56 -149.5t19 -147.5q0 -16 -1 -37.5t-5 -46.5q-6 -47 -41 -98q-68 -68 -164 -70zM0 170q23 37 49 59 q16 16 34.5 26.5t35.5 18.5q16 8 29.5 13.5t23.5 9.5q88 27 160 35q39 4 62.5 4h33.5q16 2 30.5 1t26.5 -3q70 -49 121 -89t84 -75q61 -68 62 -166v-4h-684q-20 0 -35 8q-12 6 -22.5 19.5t-10.5 40.5v102v0z" />
<glyph unicode="i" horiz-adv-x="1720" d="M821 1141q-68 0 -128 -24.5t-105 -67.5t-70.5 -101.5t-25.5 -124.5t25.5 -124t70.5 -101t105.5 -68.5t127.5 -25.5q68 0 128.5 25.5t104.5 68.5t69.5 101.5t25.5 123.5q0 66 -25.5 124.5t-69.5 101.5t-104.5 67.5t-128.5 24.5v0zM1454 946h-145q20 -63 20 -141 q0 -102 -40 -192.5t-108.5 -157t-161.5 -105.5t-198 -39q-106 0 -199.5 39t-162 105.5t-108.5 156.5t-40 193q0 37 5.5 71.5t15.5 69.5h-150v-692q0 -29 18.5 -47.5t47.5 -18.5h1141q27 0 46 18.5t19 47.5v692zM1194 1456q-31 0 -52.5 -21.5t-21.5 -52.5v-176 q0 -31 21.5 -52t52.5 -21h184q31 0 52.5 21.5t21.5 51.5v176q0 31 -21.5 52.5t-52.5 21.5h-184zM211 1638h1216q43 0 82 -16t68 -45t45 -68t16 -82v-1216q0 -43 -16 -82t-45 -67.5t-68 -45t-82 -16.5h-1216q-43 0 -82 16.5t-67.5 45t-45 67.5t-16.5 82v1216q0 43 16.5 82 t45 68t67.5 45t82 16v0z" />
<glyph unicode="l" horiz-adv-x="1720" d="M1638 68q0 -20 -8 -35q-6 -12 -20.5 -22.5t-38.5 -10.5h-1503q-20 0 -35 8q-12 6 -22.5 19.5t-10.5 40.5v1503q0 18 8 33q6 12 19.5 23t40.5 11h1503q18 0 33 -8q12 -6 23 -20.5t11 -38.5v-1503v0zM244 233h248v783h-248v-783zM510 1264q0 59 -41 100t-100 41t-101.5 -41 t-42.5 -100t42 -100.5t102 -41.5q59 0 100 41.5t41 100.5zM1413 664q0 78 -11 146.5t-43 118.5t-89.5 78.5t-151.5 28.5q-92 0 -150.5 -40t-82.5 -87h-2v107h-238v-783h246v388q0 39 5 74.5t20.5 63t45 45t76.5 17.5t74 -19.5t39 -50t14 -67.5t2 -70v-381h246v431z" />
<glyph unicode="p" horiz-adv-x="1720" d="M819 1638q170 0 319.5 -64.5t260 -175t175 -260t64.5 -319.5t-64.5 -319.5t-175 -260t-260 -175t-319.5 -64.5q-59 0 -117.5 8t-113.5 25q23 37 46 83t36 93l10 41q6 25 17.5 68.5t29.5 115.5q23 -41 79 -71.5t122 -30.5q98 0 179 42t139.5 117.5t91 178t32.5 223.5 q0 92 -37 176t-105.5 149.5t-164.5 104.5t-213 39q-145 0 -255 -47t-183.5 -121t-110.5 -165t-37 -177q0 -106 41 -192.5t127 -120.5q35 -14 41 20q4 10 9 32.5t10 33.5q4 16 0.5 23t-13.5 22q-25 29 -40 68.5t-15 92.5q0 78 28.5 149t81 125t127 86t166.5 32 q166 0 254 -89.5t88 -224.5q0 -88 -18 -166.5t-53 -139t-83 -95.5t-106 -35q-33 0 -59.5 12.5t-45 34t-25.5 50t1 61.5q18 78 45 156.5t27 134.5q0 51 -26.5 86.5t-84.5 35.5q-66 0 -111.5 -60t-45.5 -150q0 -23 4 -46q4 -20 8 -42.5t14 -43.5q-35 -143 -56.5 -230 t-31.5 -134q-14 -55 -18 -82q-10 -47 -13.5 -95t-1.5 -91q-109 47 -198.5 122.5t-154 173t-100.5 212t-36 241.5q0 170 64.5 319.5t175 260t260 175t319.5 64.5z" />
<glyph unicode="r" horiz-adv-x="1720" d="M1638 68q0 -20 -8 -35q-6 -12 -20.5 -22.5t-38.5 -10.5h-1503q-20 0 -35 8q-12 6 -22.5 19.5t-10.5 40.5v1503q0 18 8 33q6 12 19.5 23t40.5 11h1503q18 0 33 -8q12 -6 23 -20.5t11 -38.5v-1503v0zM207 369q0 -68 48 -115t116 -47t114.5 47t46.5 115t-47 115.5t-114 47.5 q-68 0 -116 -47.5t-48 -115.5zM207 780q117 0 220 -43t185 -125t125 -186t43 -221h236q0 168 -63.5 315.5t-173 258t-257 174t-315.5 63.5v-236zM1432 205q0 254 -96.5 478t-262.5 391t-389 263.5t-477 96.5v-236q205 0 385 -78t314 -213t212 -316t78 -386h236v0z" />
<glyph unicode="t" horiz-adv-x="1720" d="M1638 90q0 -37 -26.5 -63.5t-63.5 -26.5h-1458q-37 0 -63.5 26.5t-26.5 63.5v1458q0 37 26.5 63.5t63.5 26.5h1458q37 0 63.5 -26.5t26.5 -63.5v-1458v0zM1237 1122q35 23 60.5 53.5t37.5 71.5q-63 -39 -143 -55q-31 33 -73 52.5t-89 19.5t-88 -17.5t-71.5 -48.5t-48 -72 t-17.5 -88q0 -27 6 -51q-141 8 -260 69.5t-203 166.5q-29 -51 -29 -113q0 -59 27 -108.5t72 -77.5q-51 0 -101 26v-2q0 -82 51.5 -142.5t129.5 -76.5q-27 -8 -60 -8h-21t-22 4q23 -68 79 -111t130 -45q-57 -47 -127.5 -71.5t-150.5 -24.5h-25.5t-28.5 2q76 -47 162 -73.5 t182 -26.5q154 0 273 58.5t199.5 150.5t122.5 205.5t42 224.5v28q68 47 113 115q-66 -27 -129 -35z" />
<glyph unicode="y" horiz-adv-x="2445" d="M2306 1284q8 -72 13 -139.5t8 -120.5q2 -63 2 -117v-176q0 -57 -2 -119q-2 -53 -6.5 -119.5t-14.5 -138.5q-8 -61 -22.5 -104t-30.5 -72q-18 -33 -39 -55q-33 -35 -68 -53.5t-65.5 -27.5t-57 -12t-43.5 -5q-96 -6 -223 -13q-109 -4 -258 -9t-334 -3q-229 0 -380.5 4 t-243.5 8q-109 6 -168 11q-18 4 -49 7t-66 12t-71.5 27.5t-69.5 53.5q-20 23 -39 55q-16 29 -31.5 72t-23.5 104q-10 72 -14.5 138.5t-6.5 119.5q-2 61 -2 119v176q0 53 2 117q2 53 6 120.5t15 139.5q8 59 23 103.5t32 72.5q18 33 39 56q33 35 66.5 54t65.5 28.5t57.5 11.5 t43.5 4q96 6 223 12q106 4 256 8t334 4h2q184 0 334 -4t258 -8q127 -6 223 -12q16 -2 43 -4t57.5 -11.5t65.5 -29t68 -53.5q18 -23 37 -56q16 -29 30.5 -73t24.5 -103zM1554 844l-630 327v-655z" />
<glyph unicode="&#x2000;" horiz-adv-x="819" />
<glyph unicode="&#x2001;" horiz-adv-x="1638" />
<glyph unicode="&#x2002;" horiz-adv-x="819" />
<glyph unicode="&#x2003;" horiz-adv-x="1638" />
<glyph unicode="&#x2004;" horiz-adv-x="546" />
<glyph unicode="&#x2005;" horiz-adv-x="409" />
<glyph unicode="&#x2006;" horiz-adv-x="273" />
<glyph unicode="&#x2007;" horiz-adv-x="273" />
<glyph unicode="&#x2008;" horiz-adv-x="204" />
<glyph unicode="&#x2009;" horiz-adv-x="327" />
<glyph unicode="&#x200a;" horiz-adv-x="91" />
<glyph unicode="&#x202f;" horiz-adv-x="327" />
<glyph unicode="&#x205f;" horiz-adv-x="409" />
<glyph unicode="&#x25fc;" horiz-adv-x="1024" d="M0 0v0v0v0v0z" />
</font>
</defs>
</svg>
