<?xml version="1.0" standalone="no"?>
<!DOCTYPE svg PUBLIC "-//W3C//DTD SVG 1.1//EN" "http://www.w3.org/Graphics/SVG/1.1/DTD/svg11.dtd" >
<svg xmlns="http://www.w3.org/2000/svg">
<metadata></metadata>
<defs>
<font id="neuzeit_for_plymouthlight" horiz-adv-x="971" >
<font-face units-per-em="2048" ascent="1542" descent="-506" />
<missing-glyph horiz-adv-x="414" />
<glyph horiz-adv-x="2048" />
<glyph horiz-adv-x="2048" />
<glyph unicode="&#xd;" horiz-adv-x="569" />
<glyph unicode=" "  horiz-adv-x="414" />
<glyph unicode="&#x09;" horiz-adv-x="414" />
<glyph unicode="&#xa0;" horiz-adv-x="414" />
<glyph unicode="!" horiz-adv-x="623" d="M268 1356q0 37 37 37h17q36 0 36 -37v-889q0 -37 -36 -37h-17q-37 0 -37 37v889zM372 133.5q25 -26.5 25 -61.5t-25 -61.5t-61 -26.5q-37 0 -62.5 25.5t-25.5 62.5t25.5 62.5t62.5 25.5q36 0 61 -26.5z" />
<glyph unicode="&#x22;" horiz-adv-x="786" d="M170 952q-13 0 -22.5 8t-9.5 22q0 3 1 7l70 367q3 20 15 28.5t28 8.5h12q13 0 22.5 -8t9.5 -22q0 -3 -1 -7l-70 -367q-3 -20 -15 -28.5t-28 -8.5h-12zM518 952q-13 0 -22.5 8t-9.5 22q0 3 1 7l70 367q3 20 15.5 28.5t27.5 8.5h12q13 0 22.5 -8t9.5 -22q0 -3 -1 -7 l-70 -367q-3 -20 -15 -28.5t-28 -8.5h-12z" />
<glyph unicode="#" d="M358 1333q3 24 14 30.5t27 6.5h9q12 0 22.5 -5.5t10.5 -22.5q0 -4 -1 -9l-59 -399h278l60 399q3 24 11.5 30.5t25.5 6.5h8q12 0 23 -5.5t11 -22.5q0 -4 -1 -9l-62 -399h191q17 0 28 -8.5t11 -24.5v-14q0 -16 -11 -24.5t-28 -8.5h-201l-49 -338h192q16 0 26.5 -8.5 t10.5 -24.5v-14q0 -15 -10.5 -24t-26.5 -9h-204l-60 -399q-3 -24 -11.5 -30.5t-25.5 -6.5h-8q-12 0 -23 5.5t-11 22.5q0 4 1 9l60 399h-279l-59 -399q-3 -24 -14 -30.5t-27 -6.5h-8q-14 0 -22.5 7.5t-8.5 29.5l57 399h-186q-16 0 -26.5 9t-10.5 24v14q0 16 10.5 24.5 t26.5 8.5h199l49 338h-189q-17 0 -27 8.5t-10 24.5v14q0 16 10 24.5t27 8.5h201zM598 516l49 338h-278l-50 -338h279z" />
<glyph unicode="$" d="M446 -27q-155 8 -244.5 68.5t-125 147t-35.5 135.5q0 38 43 38q47 0 50.5 -36t20 -85.5t51 -89t94.5 -65t146 -31.5v607q-199 49 -285 133t-86 229q0 162 104 261t267 108v100q0 16 6.5 26.5t25.5 10.5h11q18 0 25 -9.5t7 -25.5v-102q136 -10 219 -70t113.5 -149 t30.5 -127q0 -19 -9.5 -27t-23.5 -8h-12q-43 0 -49 45.5t-31.5 102.5t-85 99t-152.5 50v-574q189 -42 285 -129.5t96 -232.5q0 -172 -101 -280.5t-280 -119.5v-182q0 -15 -8 -24t-27 -9q-25 0 -32.5 9.5t-7.5 25.5v180zM521 645v-590q138 7 213.5 86.5t75.5 216.5 q0 115 -73.5 187t-215.5 100zM446 752v557q-133 -7 -207 -83.5t-74 -199.5q0 -113 66.5 -175.5t214.5 -98.5z" />
<glyph unicode="%" horiz-adv-x="1626" d="M1190 1409q9 17 18.5 27t28.5 10h23q13 0 19 -6t6 -18t-7 -25l-836 -1440q-9 -17 -18.5 -27t-28.5 -10h-22q-13 0 -19.5 6t-6.5 18t7 25zM605.5 1297.5q84.5 -95.5 84.5 -244.5q0 -145 -82.5 -240.5t-210.5 -95.5q-126 0 -208.5 95.5t-82.5 240.5q0 141 82.5 240.5 t208.5 99.5q124 0 208.5 -95.5zM546.5 869.5q55.5 70.5 55.5 183.5q0 117 -56 187.5t-149 70.5t-147.5 -71.5t-54.5 -186.5q0 -118 54.5 -186t147.5 -68q94 0 149.5 70.5zM1436 557.5q84 -95.5 84 -244.5q0 -144 -83 -240t-210 -96q-126 0 -208.5 95.5t-82.5 240.5 q0 143 83 241.5t208 98.5t209 -95.5zM1376 130q56 71 56 183q0 118 -55.5 188t-149.5 70t-148.5 -71.5t-54.5 -186.5q0 -113 54 -183.5t149 -70.5q93 0 149 71z" />
<glyph unicode="&#x26;" horiz-adv-x="1264" d="M479 803q-77 108 -104 178.5t-27 146.5q0 114 75.5 188.5t194.5 74.5q109 0 173.5 -68t64.5 -178q0 -114 -62 -199.5t-190 -163.5l344 -424q25 48 38 103l26 112q6 37 39 37h18q14 0 24.5 -8.5t10.5 -23.5q0 -42 -32 -141.5t-62 -147.5l200 -234q5 -6 7.5 -13t2.5 -14 q0 -13 -9 -20.5t-29 -7.5h-13q-22 0 -36 9t-27 24l-143 174q-91 -119 -206 -176.5t-255 -57.5q-174 0 -274.5 103t-100.5 270q0 130 66.5 231.5t285.5 225.5zM557 848q100 51 155.5 124t55.5 156q0 85 -41 131t-115 46q-70 0 -121 -49.5t-51 -133.5q0 -62 30 -130.5 t87 -143.5zM727 113q101 54 176 161l-375 465q-181 -98 -245 -188t-64 -205q0 -126 78 -206.5t211 -80.5q118 0 219 54z" />
<glyph unicode="'" horiz-adv-x="438" d="M170 952q-13 0 -22.5 8t-9.5 22q0 3 1 7l70 367q3 20 15 28.5t28 8.5h12q13 0 22.5 -8t9.5 -22q0 -3 -1 -7l-70 -367q-3 -20 -15 -28.5t-28 -8.5h-12z" />
<glyph unicode="(" horiz-adv-x="643" d="M140.5 838.5q15.5 102.5 49 206t76 190t116 185.5t82.5 102l12 3h3q14 0 27 -14l12 -12q9 -9 9 -25l-3 -15q-3 -10 -43.5 -56.5t-105.5 -156.5t-108.5 -270t-43.5 -347q0 -106 14.5 -205t44.5 -194t71 -178t105 -166t66.5 -87t2.5 -15q0 -16 -9 -26l-12 -12 q-13 -12 -27 -13h-3q-5 0 -13.5 3.5t-79.5 97.5t-129 214.5t-93.5 269t-35.5 311.5q0 107 15.5 209.5z" />
<glyph unicode=")" horiz-adv-x="643" d="M165 -267h-2q-15 0 -28 13l-12 12q-9 10 -9 26q0 11 2.5 15t66.5 87t105 166t71 178t44.5 194t14.5 205t-14.5 205.5t-44.5 194t-71.5 178t-105.5 166.5t-66 85.5t-2 15.5q0 16 9 25l12 12q13 13 29 14l11 -2q8 -2 80.5 -96.5t130.5 -215t94 -270t36 -312.5 q0 -107 -15.5 -209.5t-49 -206t-76 -190.5t-115 -185t-82.5 -101z" />
<glyph unicode="*" d="M426 1049l-244 86q-9 4 -14 9t-5 12q0 4 1 9l4 15q2 8 6 12t15 4q7 0 14 -2l239 -86v244q0 24 6 32.5t23 8.5h10q16 0 22.5 -8t6.5 -31v-244l233 84q7 2 14 2q11 0 15 -4t6 -12l4 -15q0 -4 1 -8q0 -8 -6 -13t-15 -9l-238 -88l152 -205q8 -11 9 -22q0 -10 -11 -19l-8 -6 q-9 -7 -17 -7q-6 0 -13 4.5t-11 10.5l-152 209l-147 -209q-4 -6 -11.5 -10.5t-13.5 -4.5q-8 0 -16 7l-8 6q-11 9 -11 20q0 10 8 21z" />
<glyph unicode="+" d="M526 545h351q17 0 24.5 -5.5t7.5 -19.5v-35q0 -14 -7.5 -19t-24.5 -5h-351v-355q0 -18 -5 -27t-19 -9h-35q-25 0 -25 36v355h-344q-18 0 -27.5 5t-9.5 19v35q0 14 9.5 19.5t27.5 5.5h344v356q0 33 25 33h35q14 0 19 -8t5 -25v-356z" />
<glyph unicode="," horiz-adv-x="449" d="M179 141q5 13 14.5 18.5t23.5 5.5q6 0 13 -1l33 -8q12 -2 19 -11.5t7 -20.5q0 -8 -5 -18l-195 -352q-7 -13 -15 -20t-18 -7q-7 0 -16 3l-6 2q-11 3 -16.5 9.5t-5.5 14.5q0 11 8 27z" />
<glyph unicode="-" horiz-adv-x="664" d="M143 428q-15 0 -26 10.5t-11 26.5v27q0 15 11 25.5t26 10.5h377q16 0 26.5 -10.5t10.5 -25.5v-27q0 -16 -10.5 -26.5t-26.5 -10.5h-377z" />
<glyph unicode="." horiz-adv-x="449" d="M272 133.5q25 -26.5 25 -61.5t-25 -61.5t-61 -26.5q-37 0 -62.5 25.5t-25.5 62.5t25.5 62.5t62.5 25.5q36 0 61 -26.5z" />
<glyph unicode="/" horiz-adv-x="745" d="M582 1380q6 17 15 27t26 10h24q13 0 19 -6t6 -19q0 -8 -4 -18l-512 -1364q-5 -15 -14.5 -26t-26.5 -11h-23q-11 0 -18.5 7.5t-7.5 18.5q0 10 6 24z" />
<glyph unicode="0" d="M165.5 1237q110.5 182 328.5 182q217 0 319 -162.5t102 -547.5q0 -364 -110 -546.5t-326 -182.5q-220 0 -322 165t-102 557q0 353 110.5 535zM740.5 1202q-76.5 131 -248.5 131q-176 0 -257 -154.5t-81 -476.5q0 -364 74.5 -500t250.5 -136q174 0 256 153t82 490 q0 362 -76.5 493z" />
<glyph unicode="1" d="M498 1253q-57 -43 -150 -89.5t-110 -46.5q-10 0 -16.5 7t-6.5 21v33q0 29 43.5 44t125.5 65t115.5 91t57.5 41h14q10 0 14.5 -6.5t4.5 -15.5v-1360q0 -19 -11 -28t-26 -9h-16q-16 0 -27.5 8.5t-11.5 28.5v1216z" />
<glyph unicode="2" d="M78 57q0 17 6 30.5t18 27.5l381 424l105 122q82 95 130 190t48 196q0 136 -70 211t-207 75q-104 0 -170 -47t-93 -124t-28 -126t-42 -49h-15q-37 0 -37 39v6q16 186 116.5 286.5t271.5 100.5q168 0 270 -98t102 -266q0 -112 -54 -224t-136 -209l-92 -108l-385 -424h639 q36 0 36 -37v-16q0 -19 -8 -28t-28 -9h-721q-16 0 -26.5 9t-10.5 28v20z" />
<glyph unicode="3" d="M64 322q0 15 8.5 24.5t29.5 9.5q47 0 51 -43.5t33.5 -107t95 -105t165.5 -41.5q158 0 244.5 100.5t86.5 268.5q0 174 -67 258t-215 84q-75 0 -134 -22t-76 -22q-18 0 -28 11.5t-10 30.5q0 14 8 30.5t37 47.5l440 457h-592q-37 0 -37 36v17q0 18 10 27.5t27 9.5h674 q19 0 28 -11t9 -26v-23q0 -17 -7 -31t-20 -28l-405 -422l4 -6q20 5 39.5 7.5t38.5 2.5q181 0 278 -111.5t97 -314.5q0 -196 -111 -326.5t-307 -130.5q-176 0 -276.5 92t-118.5 250v7z" />
<glyph unicode="4" d="M750 393v-356q0 -16 -8.5 -26.5t-28.5 -10.5h-19q-20 0 -28.5 10.5t-8.5 26.5v356h-585q-16 0 -26.5 7.5t-10.5 23.5v22q0 11 5 22t13 24l539 882q9 16 23.5 23.5t31.5 7.5h66q37 0 37 -37v-885h118q37 0 37 -37v-16q0 -37 -37 -37h-118zM657 483v826h-4l-497 -826h501z " />
<glyph unicode="5" d="M778 1393q37 0 37 -37v-17q0 -36 -37 -36h-551l-30 -510h4q49 57 122 83.5t173 26.5q183 0 285 -117t102 -342q0 -206 -110.5 -338.5t-315.5 -132.5q-168 0 -265 89.5t-114 240.5v7q0 16 9 25t26 9h12q40 0 45.5 -42t33.5 -103.5t89.5 -100.5t159.5 -39q158 0 244.5 97 t86.5 288q0 180 -76 276.5t-227 96.5q-98 0 -167 -38.5t-103.5 -80t-60.5 -41.5l-15 5q-13 0 -24 10t-11 22l39 662q2 15 14 26t27 11h598z" />
<glyph unicode="6" d="M882 1152.5q-6 -9.5 -14 -13.5l-4 -2q-12 -7 -24 -7q-34 0 -56.5 53t-79 101.5t-161.5 48.5q-177 0 -270.5 -173.5t-102.5 -477.5h6q32 96 120 153.5t206 57.5q190 0 291.5 -119t101.5 -334q0 -188 -104 -327.5t-287 -139.5q-214 0 -318 154.5t-104 534.5q0 359 121 558 t334 199q107 0 180 -37.5t122 -111t49 -98.5q0 -10 -6 -19.5zM721.5 161.5q77.5 102.5 77.5 276.5q0 189 -76 279t-227 90q-129 0 -219.5 -102t-90.5 -252q0 -178 85.5 -286t228.5 -108q144 0 221.5 102.5z" />
<glyph unicode="7" d="M252 39q35 278 193.5 643t353.5 621h-703q-20 0 -28.5 10.5t-8.5 25.5v17q0 15 8.5 26t28.5 11h758q15 0 26 -11t11 -26v-27q0 -34 -27 -67.5t-127.5 -200t-197.5 -391.5t-140 -390t-47.5 -208t-16 -57.5t-32.5 -14.5h-14q-22 0 -29.5 8.5t-7.5 23.5v7z" />
<glyph unicode="8" d="M330 762v6q-92 35 -146.5 115.5t-54.5 187.5q0 144 106 246t250 102q151 0 256 -96.5t105 -239.5q0 -116 -50.5 -196.5t-148.5 -118.5v-6q144 -49 211.5 -143t67.5 -238q0 -176 -120.5 -288.5t-320.5 -112.5q-198 0 -317 114.5t-119 274.5q0 150 69 246t212 147z M675.5 1258q-72.5 75 -190.5 75q-112 0 -185 -76.5t-73 -193.5q0 -115 71 -189.5t187 -74.5q119 0 191 75t72 189q0 120 -72.5 195zM736.5 148.5q90.5 82.5 90.5 246.5q0 134 -91.5 227t-250.5 93q-157 0 -247.5 -93t-90.5 -227q0 -156 88 -242.5t250 -86.5 q161 0 251.5 82.5z" />
<glyph unicode="9" d="M795 729h-4q-38 -100 -123 -155.5t-203 -55.5q-183 0 -288 117t-105 317q0 193 104 330t285 137q214 0 319 -156t105 -513q0 -372 -122 -574.5t-335 -202.5q-108 0 -181 39t-120.5 112t-47.5 98q0 9 5.5 18.5t13.5 13.5l8 4q9 5 21 5q30 0 44.5 -32.5t46 -76.5 t80.5 -69.5t126 -25.5q175 0 269 173.5t102 496.5zM694.5 1227.5q-85.5 105.5 -227.5 105.5q-145 0 -222 -102t-77 -279q0 -170 77.5 -259t225.5 -89q125 0 217 100.5t92 253.5q0 164 -85.5 269.5z" />
<glyph unicode=":" horiz-adv-x="612" d="M370 133.5q25 -26.5 25 -61.5t-25 -61.5t-61 -26.5q-37 0 -62.5 25.5t-25.5 62.5t25.5 62.5t62.5 25.5q36 0 61 -26.5zM370 962.5q25 -26.5 25 -61.5t-25 -61.5t-61 -26.5q-37 0 -62.5 25.5t-25.5 62.5t25.5 62.5t62.5 25.5q36 0 61 -26.5z" />
<glyph unicode=";" horiz-adv-x="612" d="M367 962.5q25 -26.5 25 -61.5t-25 -61.5t-61 -26.5q-37 0 -62.5 25.5t-25.5 62.5t25.5 62.5t62.5 25.5q36 0 61 -26.5zM259 141q5 13 14.5 18.5t23.5 5.5q6 0 13 -1l33 -8q12 -2 19 -11.5t7 -20.5q0 -8 -5 -18l-195 -352q-7 -13 -15 -20t-18 -7q-7 0 -16 3l-6 2 q-11 3 -17 9.5t-6 15.5q0 10 8 26z" />
<glyph unicode="&#x3c;" d="M877 170q18 -9 26 -17.5t8 -25.5v-18q0 -11 -5.5 -19t-14.5 -8q-6 0 -14 4l-789 371q-11 5 -19 14t-8 25v14q0 15 8 25t19 16l789 371q8 4 14 4q8 0 14 -8.5t6 -18.5v-18q0 -17 -8 -25.5t-26 -17.5l-717 -334z" />
<glyph unicode="=" d="M98 621q-18 0 -27.5 5t-9.5 19v35q0 25 37 25h779q32 0 32 -25v-35q0 -14 -7.5 -19t-24.5 -5h-779zM98 301q-18 0 -27.5 5.5t-9.5 19.5v34q0 14 9.5 19.5t27.5 5.5h779q17 0 24.5 -5.5t7.5 -19.5v-34q0 -14 -7.5 -19.5t-24.5 -5.5h-779z" />
<glyph unicode="&#x3e;" d="M813 504l-717 334q-18 9 -26.5 17.5t-8.5 25.5v18q0 10 6 18.5t15 8.5q6 0 14 -4l789 -371q11 -6 18.5 -16t7.5 -25v-14q0 -16 -7.5 -25t-18.5 -14l-789 -371q-8 -4 -14 -4q-9 0 -15 8t-6 19v18q0 17 8.5 25.5t26.5 17.5z" />
<glyph unicode="?" horiz-adv-x="991" d="M550 133.5q25 -26.5 25 -61.5t-25 -61.5t-61 -26.5q-38 0 -63.5 25.5t-25.5 62.5t25.5 62.5t63.5 25.5q36 0 61 -26.5zM532 387q0 -37 -37 -37h-19q-37 0 -37 40q0 169 21.5 229t51 102t108 104.5t118 121t39.5 165.5q0 102 -67 165.5t-174 63.5q-95 0 -155.5 -40.5 t-88 -107.5t-28.5 -113t-42 -46h-14q-37 0 -37 39v6q14 162 107 251t256 89q152 0 246 -84.5t94 -224.5q0 -108 -49 -192t-145 -156t-122 -133.5t-26 -178.5v-63z" />
<glyph unicode="@" horiz-adv-x="1849" d="M1480.5 1131.5q205.5 -189.5 205.5 -510.5q0 -232 -108 -384.5t-255 -152.5q-88 0 -141.5 53.5t-53.5 124.5h-4q-32 -76 -103 -127t-163 -51q-128 0 -205.5 96.5t-77.5 263.5q0 196 109 340t272 144q91 0 157 -51.5t85 -137.5h4l27 127q4 17 10.5 25t17.5 8h5l38 -6l9 -2 q4 -2 7 -5.5t4 -10.5v-5q0 -6 -1 -14l-70 -315q-17 -70 -28 -144t-11 -102q0 -75 32.5 -105t90.5 -30q98 0 178 129t80 327q0 285 -169 452t-451 167q-295 0 -479.5 -211t-184.5 -530q0 -328 180 -523.5t480 -195.5q166 0 286.5 45.5t193.5 99.5t79 63.5t22 9.5q14 0 25 -18 l6 -10q7 -11 7 -21l-4 -15q-3 -10 -67.5 -60.5t-149.5 -93t-183.5 -64.5t-214.5 -22q-341 0 -550.5 225.5t-209.5 587.5q0 223 97 410.5t273.5 298t393.5 110.5q304 0 509.5 -189.5zM1083.5 300.5q75.5 140.5 75.5 330.5q0 101 -49 161t-145 60q-127 0 -209 -127t-82 -291 q0 -133 55 -203.5t148 -70.5q131 0 206.5 140.5z" />
<glyph unicode="A" horiz-adv-x="1118" d="M492 1360q6 14 18.5 23.5t32.5 9.5h18q22 0 34.5 -10t19.5 -27l469 -1313q3 -10 3 -18q0 -25 -38 -25h-17q-21 0 -32 12.5t-19 32.5l-141 401h-578l-143 -411q-6 -17 -17 -26t-34 -9h-8q-18 0 -29 9.5t-11 23.5q0 10 5 22zM807 539l-256 731h-4l-254 -731h514z" />
<glyph unicode="B" horiz-adv-x="1079" d="M178 1356q0 18 10.5 27.5t28.5 9.5h277q196 0 295.5 -81.5t99.5 -242.5q0 -123 -55.5 -211.5t-163.5 -132.5v-2q154 -29 220 -114t66 -224q0 -178 -122 -281.5t-318 -103.5h-299q-18 0 -28.5 9t-10.5 28v1319zM481 756q144 0 227 77.5t83 213.5q0 155 -81.5 205.5 t-258.5 50.5h-181v-547h211zM500 90q170 0 264 76t94 219t-83.5 212t-276.5 69h-228v-576h230z" />
<glyph unicode="C" horiz-adv-x="1321" d="M1221 350l18 -10q16 -8 18 -22v-4q0 -33 -84 -129.5t-200 -154t-252 -57.5q-304 0 -469.5 187t-165.5 536q0 315 176.5 519t482.5 204q152 0 263.5 -53.5t174.5 -139t63 -112.5q0 -9 -4.5 -17t-12.5 -12l-17 -8q-10 -5 -21 -5q-26 0 -42 33.5t-64 91.5t-134.5 97 t-211.5 39q-259 0 -407 -178t-148 -457q0 -307 139.5 -473t397.5 -166q111 0 204 46t152.5 110.5t81.5 102t45 37.5q8 0 17 -5z" />
<glyph unicode="D" horiz-adv-x="1300" d="M178 1356q0 18 10 27.5t25 9.5h311q333 0 510.5 -186.5t177.5 -497.5q0 -180 -84 -350t-237 -264.5t-356 -94.5h-322q-15 0 -25 9t-10 28v1319zM545 90q263 0 416 176t153 443q0 280 -151 437t-435 157h-258v-1213h275z" />
<glyph unicode="E" d="M178 1356q0 18 10.5 27.5t28.5 9.5h612q37 0 37 -37v-15q0 -38 -37 -38h-559v-537h490q37 0 37 -37v-16q0 -37 -37 -37h-490v-586h572q18 0 28.5 -10t10.5 -29v-14q0 -19 -10.5 -28t-28.5 -9h-625q-18 0 -28.5 9t-10.5 28v1319z" />
<glyph unicode="F" horiz-adv-x="905" d="M178 1356q0 18 10.5 27.5t28.5 9.5h606q37 0 37 -37v-15q0 -38 -37 -38h-553v-537h482q18 0 28.5 -9t10.5 -28v-16q0 -19 -10.5 -28t-28.5 -9h-482v-639q0 -37 -37 -37h-16q-18 0 -28.5 9t-10.5 28v1319z" />
<glyph unicode="G" horiz-adv-x="1411" d="M1016 1363q116 -56 184 -146t68 -124q0 -10 -7 -18t-16 -12l-8 -4q-11 -6 -23 -6l-16 2q-10 2 -55 79t-144.5 138t-236.5 61q-273 0 -425.5 -180t-152.5 -455q0 -296 150 -467.5t397 -171.5q220 0 345.5 146.5t140.5 398.5h-445q-37 0 -37 37v16q0 37 37 37h500 q37 0 37 -35q0 -290 -154 -488t-428 -198q-284 0 -462.5 198.5t-178.5 524.5q0 308 181.5 515.5t490.5 207.5q142 0 258 -56z" />
<glyph unicode="H" horiz-adv-x="1294" d="M178 1356q0 18 10.5 27.5t28.5 9.5h16q37 0 37 -37v-590h754v590q0 37 39 37h16q37 0 37 -37v-1319q0 -37 -37 -37h-16q-39 0 -39 37v639h-754v-639q0 -37 -37 -37h-16q-18 0 -28.5 9t-10.5 28v1319z" />
<glyph unicode="I" horiz-adv-x="449" d="M178 1356q0 37 37 37h18q37 0 37 -37v-1319q0 -37 -37 -37h-18q-37 0 -37 37v1319z" />
<glyph unicode="J" horiz-adv-x="707" d="M461 1356q0 18 10.5 27.5t26.5 9.5h18q16 0 26.5 -9.5t10.5 -27.5v-961q0 -237 -91.5 -329.5t-258.5 -92.5q-51 0 -102.5 8t-51.5 49q0 20 12.5 29.5t29.5 9.5q4 0 38.5 -5t77.5 -5q98 0 152.5 37.5t78 114t23.5 238.5v907z" />
<glyph unicode="K" horiz-adv-x="1077" d="M377 725l620 -690q6 -6 6 -13q0 -9 -7.5 -15.5t-22.5 -6.5h-29q-21 0 -30.5 5t-22.5 20l-619 690h-2v-678q0 -19 -10.5 -28t-26.5 -9h-16q-15 0 -27 9t-12 28v1319q0 18 12 27.5t27 9.5h16q16 0 26.5 -9.5t10.5 -27.5v-623h2l607 635q13 15 22.5 20t30.5 5h29 q15 0 22 -6.5t7 -15.5q0 -7 -5 -13z" />
<glyph unicode="L" horiz-adv-x="887" d="M178 1356q0 18 10 27.5t27 9.5h18q37 0 37 -37v-1266h533q18 0 28.5 -11t10.5 -28v-14q0 -17 -10.5 -27t-28.5 -10h-586q-15 0 -27 9t-12 28v1319z" />
<glyph unicode="M" horiz-adv-x="1550" d="M815 29q-5 -14 -13 -21.5t-26 -7.5q-21 0 -30.5 7.5t-14.5 21.5l-420 1243h-4q-8 -154 -22.5 -293t-20.5 -205l-69 -729q-3 -26 -10.5 -35.5t-32.5 -9.5h-15q-18 0 -25.5 11t-7.5 25l125 1303q4 31 18.5 42.5t39.5 11.5h28q25 0 41 -11t27 -39l391 -1171l404 1171 q8 26 20.5 38t40.5 12h25q24 0 36 -10t15 -33l127 -1307v-8q0 -20 -9.5 -27.5t-27.5 -7.5h-10q-19 0 -30.5 9.5t-14.5 35.5l-76 797q-8 81 -14.5 159t-11.5 166l-7 113h-4z" />
<glyph unicode="N" horiz-adv-x="1311" d="M178 1356q0 18 10.5 27.5t28.5 9.5h23q19 0 29 -7.5t22 -23.5l751 -1208h2v1202q0 37 37 37h15q37 0 37 -37v-1319q0 -20 -9.5 -28.5t-27.5 -8.5h-25q-20 0 -32 7.5t-23 23.5l-744 1196h-4v-1190q0 -37 -37 -37h-14q-18 0 -28.5 9t-10.5 28v1319z" />
<glyph unicode="O" horiz-adv-x="1450" d="M1188 1218q176 -201 176 -520q0 -307 -185 -516t-456 -209q-291 0 -464 197.5t-173 527.5q0 322 176.5 521.5t460.5 199.5q289 0 465 -201zM1114 238.5q152 179.5 152 459.5q0 293 -144.5 464t-392.5 171q-251 0 -398 -170t-147 -465q0 -299 141.5 -469t397.5 -170 q239 0 391 179.5z" />
<glyph unicode="P" horiz-adv-x="1081" d="M178 1356q0 20 12 28.5t27 8.5h318q216 0 328 -107.5t112 -316.5q0 -197 -126 -307.5t-353 -110.5h-226v-514q0 -37 -37 -37h-20q-15 0 -25 9t-10 28v1319zM522 641q181 0 268 85.5t87 246.5q0 167 -79.5 248.5t-258.5 81.5h-269v-662h252z" />
<glyph unicode="Q" horiz-adv-x="1450" d="M1405 35q6 -6 7 -17v-2q0 -11 -13 -24l-15 -12q-14 -15 -25 -15l-2 1q-12 0 -20 9l-176 185q-93 -93 -202 -140t-236 -47q-291 0 -464 199t-173 526q0 321 175.5 521t461.5 200q287 0 464 -201t177 -520q0 -139 -38.5 -259.5t-106.5 -211.5zM932.5 100.5 q96.5 41.5 169.5 122.5l-144 142q-6 6 -7 18q0 11 14 25l12 12q14 14 25 14h2q12 -2 20 -10l133 -129q53 85 81 189.5t28 213.5q0 290 -144.5 462.5t-392.5 172.5q-251 0 -398 -170t-147 -465q0 -296 142 -467.5t397 -171.5q113 0 209.5 41.5z" />
<glyph unicode="R" horiz-adv-x="1069" d="M178 1356q0 18 10.5 27.5t28.5 9.5h315q219 0 329 -95.5t110 -281.5q0 -166 -80 -262.5t-238 -126.5l332 -578q8 -11 9 -21v-3q0 -13 -7.5 -19t-21.5 -6h-31q-17 0 -26.5 8.5t-20.5 24.5l-336 588h-281v-584q0 -37 -37 -37h-16q-18 0 -28.5 9t-10.5 28v1319zM559 711 q154 0 233.5 74.5t79.5 218.5q0 146 -78 222.5t-243 76.5h-281v-592h289z" />
<glyph unicode="S" horiz-adv-x="1073" d="M126 381h10q24 0 34 -8.5t15 -36.5q37 -277 369 -277q157 0 244.5 91t87.5 225q0 130 -78 196.5t-272 91.5t-305 115t-111 254q0 179 114 283t291 104q127 0 225 -43.5t146.5 -141.5t48.5 -169q0 -19 -9.5 -27t-25.5 -8h-12q-44 0 -50 48t-35.5 111t-99 103.5 t-183.5 40.5q-150 0 -231 -81t-81 -212q0 -136 85 -201t273.5 -90.5t298 -109.5t109.5 -258q0 -172 -119.5 -290t-320.5 -118q-166 0 -270.5 62.5t-145 157t-40.5 149.5q0 39 38 39z" />
<glyph unicode="T" horiz-adv-x="909" d="M408 1303h-367q-37 0 -37 48q0 42 37 42h827q37 0 37 -42q0 -48 -37 -48h-368v-1266q0 -37 -37 -37h-17q-38 0 -38 37v1266z" />
<glyph unicode="U" horiz-adv-x="1241" d="M166 1356q0 37 39 37h16q37 0 37 -37v-871q0 -206 95.5 -316t269.5 -110q170 0 265 115.5t95 310.5v871q0 37 37 37h18q37 0 37 -37v-875q0 -230 -123.5 -369t-328.5 -139q-208 0 -332.5 136.5t-124.5 365.5v881z" />
<glyph unicode="V" horiz-adv-x="1049" d="M29 1339q-2 8 -2 18l-1 2q0 16 9 25t28 9h17q18 0 28 -10t15 -25l391 -1190h4l408 1188q8 21 18.5 29t30.5 8h12q32 0 32 -28q0 -11 -5 -26l-453 -1302q-8 -20 -18 -28.5t-29 -8.5h-6q-12 0 -24.5 8.5t-18.5 28.5z" />
<glyph unicode="W" horiz-adv-x="1620" d="M20 1337q-4 13 -4 23q0 17 9 25t27 8h17q15 0 25.5 -8t17.5 -29l247 -1161h5l407 1163q8 18 18 26.5t27 8.5h10q19 0 28 -9t15 -26l371 -1176h4l269 1168q6 24 18.5 33.5t28.5 9.5h16q12 0 21.5 -7.5t9.5 -22.5q0 -10 -4 -24l-310 -1302q-5 -16 -15 -26.5t-24 -10.5h-10 q-17 0 -27 10t-16 27l-381 1200h-4l-422 -1204q-11 -33 -41 -33h-10q-32 0 -41 39z" />
<glyph unicode="X" horiz-adv-x="1047" d="M518 621l-354 -592q-9 -16 -20 -24.5t-29 -8.5h-12q-18 0 -27.5 9t-9.5 22t10 30l391 652l-364 622q-11 19 -11 35q0 14 9 20.5t28 6.5h12q20 0 31.5 -11.5t18.5 -21.5l329 -563l340 563q6 11 17 22t28 11h17q19 0 28 -8.5t9 -21.5q0 -15 -11 -32l-376 -622l378 -652 q10 -18 10 -31t-9.5 -21.5t-28.5 -8.5h-10q-19 0 -29.5 8.5t-20.5 24.5z" />
<glyph unicode="Y" horiz-adv-x="997" d="M455 586l-418 749q-12 18 -12 32q0 12 7.5 19t24.5 7h21q15 0 28 -8t25 -29l371 -697l366 695q14 22 25 30.5t31 8.5h14q15 0 22.5 -6t7.5 -19q0 -14 -11 -31l-412 -751v-549q0 -19 -11 -28t-26 -9h-16q-16 0 -26.5 9t-10.5 28v549z" />
<glyph unicode="Z" horiz-adv-x="1053" d="M33 61q0 16 6 27l14 23l846 1192h-754q-32 0 -32 38v15q0 37 34 37h836q16 0 25.5 -9t9.5 -26v-21q0 -15 -6.5 -29t-14.5 -26l-841 -1192h796q35 0 35 -39v-14q0 -19 -9.5 -28t-25.5 -9h-886q-14 0 -23.5 10t-9.5 27v24z" />
<glyph unicode="[" horiz-adv-x="643" d="M184 1493q0 19 11 28t26 9h228q36 0 36 -38q0 -40 -36 -40h-185v-1649h185q36 0 36 -40q0 -37 -36 -37h-228q-15 0 -26 9t-11 27v1731z" />
<glyph unicode="\" horiz-adv-x="745" d="M668 23q5 -13 5 -23q0 -11 -7.5 -19t-18.5 -8h-22q-17 0 -26.5 11t-14.5 26l-512 1364q-4 10 -4 18q0 13 6 19t18 6h25q17 0 26 -10t15 -27z" />
<glyph unicode="]" horiz-adv-x="643" d="M459 -238q0 -18 -11 -27t-26 -9h-227q-37 0 -37 37q0 40 37 40h184v1649h-184q-37 0 -37 40q0 38 37 38h227q15 0 26 -9t11 -28v-1731z" />
<glyph unicode="^" d="M102 430q-11 0 -18.5 6t-7.5 15q0 6 4 14l354 680q10 18 18 23.5t23 5.5h13q14 0 20.5 -6t15.5 -23l357 -680q4 -8 4 -15q0 -8 -8 -14t-19 -6h-12q-22 0 -31.5 9.5t-17.5 25.5l-318 612l-319 -612q-9 -19 -18 -27t-23 -8h-17z" />
<glyph unicode="_" horiz-adv-x="950" d="M-37 -154h1024v-102h-1024v102z" />
<glyph unicode="`" horiz-adv-x="449" d="M357 1200q6 -9 6 -16q0 -6 -5 -10.5t-15 -4.5h-22q-16 0 -28.5 9.5t-23.5 21.5l-174 189q-12 12 -12 23q0 7 6.5 13.5t18.5 6.5h63q17 0 25.5 -8t19.5 -23z" />
<glyph unicode="a" horiz-adv-x="1004" d="M481 551l264 10v109q0 233 -262 233q-91 0 -143.5 -27t-76.5 -70.5t-30.5 -80.5t-44.5 -37h-16q-36 0 -36 31q0 30 34.5 104t110.5 120t211 46q159 0 251.5 -81t92.5 -228v-471q0 -41 1 -86t3 -82v-8q0 -17 -9 -25t-24 -8h-31q-31 0 -31 37v94h-4q-44 -77 -133.5 -118.5 t-181.5 -41.5q-156 0 -241 79t-85 194q0 143 93.5 219t287.5 88zM650.5 129q94.5 74 94.5 190v158l-196 -8q-206 -11 -279 -60t-73 -159q0 -90 60 -142.5t177 -52.5q122 0 216.5 74z" />
<glyph unicode="b" horiz-adv-x="1122" d="M158 1409q0 37 39 37h14q37 0 37 -37v-637h2q43 98 133 157.5t207 59.5q184 0 302 -142t118 -368q0 -217 -121 -362.5t-303 -145.5q-113 0 -201.5 52.5t-134.5 148.5h-2v-133q0 -20 -11 -29.5t-26 -9.5h-14q-16 0 -27.5 9t-11.5 28v1372zM820.5 173q92.5 118 92.5 308 q0 194 -89 309t-242 115q-150 0 -239 -117.5t-89 -306.5q0 -196 86.5 -311t241.5 -115q146 0 238.5 118z" />
<glyph unicode="c" horiz-adv-x="987" d="M880 774q0 -15 -20 -24l-22 -13q-9 -5 -17 -5q-16 0 -42.5 47t-83 86.5t-150.5 39.5q-152 0 -244 -125t-92 -319q0 -182 89.5 -294t246.5 -112q88 0 147 42.5t87.5 91.5t45.5 49q7 0 17 -5l26 -14q16 -8 17 -23q0 -39 -94 -132t-254 -93q-191 0 -307.5 134.5 t-116.5 349.5q0 237 123 385.5t296 148.5q109 0 181 -32.5t119.5 -93.5t47.5 -89z" />
<glyph unicode="d" horiz-adv-x="1122" d="M965 37q0 -19 -10.5 -28t-28.5 -9h-15q-37 0 -37 37v153h-2q-43 -99 -134 -158t-206 -59q-184 0 -301.5 143t-117.5 367q0 219 121 363.5t303 144.5q112 0 200.5 -52t134.5 -148h2v616q0 20 11 29.5t26 9.5h15q15 0 27 -9t12 -28v-1372zM301.5 789.5 q-92.5 -117.5 -92.5 -308.5t89.5 -307.5t242.5 -116.5q148 0 237.5 118t89.5 306q0 197 -86.5 311.5t-240.5 114.5q-147 0 -239.5 -117.5z" />
<glyph unicode="e" horiz-adv-x="1061" d="M839.5 859.5q108.5 -129.5 108.5 -337.5q0 -34 -11 -45.5t-30 -11.5h-698q2 -184 96 -297t250 -113q103 0 170 46.5t96.5 95.5t49.5 49q6 0 12 -2l28 -15q16 -8 17 -23v-3q0 -23 -54 -86t-136 -104.5t-183 -41.5q-194 0 -318 141t-124 367q0 224 125 367t313 143 q180 0 288.5 -129.5zM856 549q0 155 -86 255.5t-219 100.5q-139 0 -230 -97.5t-108 -258.5h643z" />
<glyph unicode="f" horiz-adv-x="557" d="M199 874h-174q-19 0 -28 7.5t-9 25.5v21q0 20 9 27.5t28 7.5h174v55q0 208 63.5 318t204.5 110q72 0 95.5 -8t23.5 -45q0 -24 -8.5 -30.5t-22.5 -6.5q-9 0 -17 1l-18 2l-25 2q-15 0 -36 1q-88 0 -129 -83.5t-41 -266.5v-49h254q17 0 24.5 -7.5t7.5 -25.5v-23 q0 -18 -7.5 -25.5t-24.5 -7.5h-254v-837q0 -37 -35 -37h-18q-37 0 -37 37v837z" />
<glyph unicode="g" horiz-adv-x="1122" d="M203 -137q37 0 58.5 -50.5t89 -94.5t169.5 -44q174 0 260 110t86 327v77h-6q-46 -88 -133 -138t-192 -50q-181 0 -301.5 139t-120.5 355q0 208 122.5 351.5t301.5 143.5q111 0 197 -51t126 -137h4v125q0 37 37 37h19q36 0 36 -37v-826q0 -250 -112 -380t-334 -130 q-97 0 -176 38t-129.5 103.5t-50.5 100.5q0 14 9.5 22.5t24.5 8.5h15zM776 197q90 113 90 299q0 183 -88 296t-239 113q-148 0 -239 -113.5t-91 -295.5q0 -183 91 -297.5t239 -114.5q147 0 237 113z" />
<glyph unicode="h" horiz-adv-x="1042" d="M158 1409q0 37 39 37h14q37 0 37 -37v-631h2q48 91 129.5 140t189.5 49q149 0 235.5 -94t86.5 -250v-586q0 -37 -35 -37h-18q-37 0 -37 37v538q0 155 -57.5 231.5t-184.5 76.5q-135 0 -223 -101.5t-88 -253.5v-491q0 -37 -37 -37h-14q-39 0 -39 37v1372z" />
<glyph unicode="i" horiz-adv-x="461" d="M175.5 1363q23.5 21 55.5 21q36 0 57 -22.5t21 -56.5t-22 -55t-56 -21q-32 0 -55.5 20t-23.5 58q0 35 23.5 56zM184 926q0 37 37 37h17q36 0 36 -37v-889q0 -37 -36 -37h-17q-37 0 -37 37v889z" />
<glyph unicode="j" horiz-adv-x="461" d="M184 926q0 37 37 37h17q36 0 36 -37v-1094q0 -134 -54 -188t-189 -54q-22 0 -31.5 12t-9.5 29q0 21 10.5 32t36.5 11q89 0 118 36.5t29 135.5v1080zM175.5 1363q23.5 21 55.5 21q36 0 57 -22.5t21 -56.5t-22 -55t-56 -21q-32 0 -55.5 20t-23.5 58q0 35 23.5 56z" />
<glyph unicode="k" horiz-adv-x="934" d="M248 537h4l463 405q13 9 22.5 15t26.5 6h33q18 0 26 -5.5t8 -13.5q0 -16 -16 -31l-463 -401l467 -461q5 -5 10 -11t5 -15q0 -13 -11.5 -19t-25.5 -6h-23q-20 0 -32.5 6.5t-26.5 20.5l-463 458h-4v-448q0 -37 -37 -37h-14q-39 0 -39 37v1372q0 37 39 37h14q37 0 37 -37 v-872z" />
<glyph unicode="l" horiz-adv-x="461" d="M184 1409q0 37 37 37h17q36 0 36 -37v-1372q0 -37 -36 -37h-17q-37 0 -37 37v1372z" />
<glyph unicode="m" horiz-adv-x="1546" d="M158 926q0 37 39 37h10q18 0 29.5 -9.5t11.5 -27.5v-148h2q42 91 115 140t170 49t166.5 -53t97.5 -152q37 95 121.5 150t187.5 55q137 0 212 -91t75 -253v-586q0 -37 -37 -37h-17q-36 0 -36 37v538q0 169 -49 238.5t-162 69.5q-119 0 -196 -101t-77 -254v-491 q0 -37 -37 -37h-16q-37 0 -37 37v538q0 164 -51.5 236t-161.5 72q-118 0 -194 -101.5t-76 -253.5v-491q0 -10 -11.5 -23.5t-25.5 -13.5h-14q-15 0 -27 14t-12 23v889z" />
<glyph unicode="n" horiz-adv-x="1042" d="M158 926q0 37 39 37h10q18 0 29.5 -9.5t11.5 -27.5v-148h2q48 91 129.5 140t189.5 49q149 0 235.5 -94t86.5 -250v-586q0 -37 -37 -37h-16q-37 0 -37 37v538q0 162 -61 235t-181 73q-135 0 -223 -101.5t-88 -253.5v-491q0 -37 -37 -37h-14q-39 0 -39 37v889z" />
<glyph unicode="o" horiz-adv-x="1112" d="M874.5 845.5q124.5 -143.5 124.5 -366.5q0 -219 -127.5 -363.5t-316.5 -144.5t-315.5 142.5t-126.5 365.5q0 218 127.5 364t314.5 146q195 0 319.5 -143.5zM807.5 172.5q95.5 117.5 95.5 308.5t-95.5 307.5t-252.5 116.5t-251.5 -118t-94.5 -306q0 -189 95.5 -307.5 t250.5 -118.5q157 0 252.5 117.5z" />
<glyph unicode="p" horiz-adv-x="1122" d="M158 926q0 37 39 37h14q37 0 37 -37v-154h2q43 98 133 157.5t207 59.5q184 0 302 -142t118 -368q0 -217 -121 -362.5t-303 -145.5q-113 0 -201.5 52.5t-134.5 148.5h-2v-543q0 -20 -11 -29.5t-26 -9.5h-14q-16 0 -27.5 9.5t-11.5 27.5v1299zM820.5 173q92.5 118 92.5 308 q0 194 -89 309t-242 115q-150 0 -239 -117.5t-89 -306.5q0 -196 86.5 -311t241.5 -115q146 0 238.5 118z" />
<glyph unicode="q" horiz-adv-x="1122" d="M965 -373q0 -18 -10.5 -27.5t-28.5 -9.5h-15q-37 0 -37 37v563h-2q-43 -99 -134 -158t-206 -59q-184 0 -301.5 143t-117.5 367q0 219 121 363.5t303 144.5q112 0 200.5 -52t134.5 -148h2v133q0 20 11 29.5t26 9.5h15q15 0 27 -9.5t12 -27.5v-1299zM301.5 789.5 q-92.5 -117.5 -92.5 -308.5t89.5 -307.5t242.5 -116.5q148 0 237.5 118t89.5 306q0 197 -86.5 311.5t-240.5 114.5q-147 0 -239.5 -117.5z" />
<glyph unicode="r" horiz-adv-x="653" d="M158 926q0 37 39 37h14q37 0 37 -37v-203h4q37 96 139 174t211 78q29 0 40 -9t11 -28v-16q0 -20 -6 -28.5t-26 -8.5q-151 0 -262 -127.5t-111 -319.5v-401q0 -37 -37 -37h-14q-39 0 -39 37v889z" />
<glyph unicode="s" horiz-adv-x="895" d="M75 244q0 30 26 30h27q34 0 41 -57.5t69.5 -108.5t204.5 -51q137 0 210 50.5t73 150.5q0 88 -58.5 129t-226.5 60.5t-248.5 78.5t-80.5 179q0 130 94 207t252 77q153 0 244 -68t102 -196v-6q0 -31 -27 -31h-26q-10 0 -20 4t-26.5 68t-73.5 104.5t-173 40.5 q-120 0 -189 -54t-69 -140q0 -87 69 -125.5t224 -55.5t238 -78.5t83 -189.5q0 -138 -96 -213.5t-275 -75.5q-163 0 -260.5 70.5t-107.5 194.5v6z" />
<glyph unicode="t" horiz-adv-x="582" d="M195 874h-160q-37 0 -37 31v27q0 31 37 31h160v241q0 39 36 39h17q37 0 37 -39v-241h252q32 0 32 -31v-27q0 -31 -32 -31h-252v-598q0 -105 32.5 -153.5t110.5 -48.5q25 0 44.5 4t29.5 4q28 0 28 -31v-16q0 -22 -14.5 -32.5t-63.5 -11.5l-38 -1q-101 0 -160 62.5 t-59 191.5v630z" />
<glyph unicode="u" horiz-adv-x="1044" d="M152 926q0 37 36 37h17q37 0 37 -37v-539q0 -162 57.5 -234.5t185.5 -72.5q136 0 224 101.5t88 252.5v492q0 37 37 37h14q18 0 28.5 -9.5t10.5 -27.5v-889q0 -19 -10.5 -28t-33.5 -9q-46 0 -46 37v147h-2q-48 -91 -130.5 -139.5t-191.5 -48.5q-148 0 -234.5 92t-86.5 252 v586z" />
<glyph unicode="v" horiz-adv-x="893" d="M53 920q-4 9 -4 17q0 11 7 18.5t22 7.5h22q19 0 29.5 -8t18.5 -25l290 -776h4l293 776q8 18 17.5 25.5t29.5 7.5h21q14 0 22.5 -5.5t8.5 -15.5q0 -5 -2 -12l-349 -897q-8 -16 -17 -24.5t-29 -8.5q-18 0 -28 8.5t-18 24.5z" />
<glyph unicode="w" horiz-adv-x="1384" d="M67 920q-5 12 -5 21q0 10 8.5 16t22.5 6h25q11 0 21.5 -6t19.5 -29l248 -742h4l235 742q6 15 16 25t27 10h6q17 0 26 -7.5t17 -27.5l246 -754h4l242 754q6 17 19 26t30 9h21q12 0 19 -6t7 -17q0 -8 -4 -20l-291 -885q-8 -22 -19 -28.5t-22 -6.5h-10q-17 0 -26 9.5 t-15 25.5l-246 756h-4l-239 -756q-7 -17 -15 -26t-20 -9h-12q-14 0 -21.5 9.5t-13.5 25.5z" />
<glyph unicode="x" horiz-adv-x="893" d="M394 496l-293 415q-12 16 -12 30q0 11 7.5 16.5t21.5 5.5h29q17 0 31.5 -8.5t23.5 -22.5l250 -361l258 361q11 14 22.5 22.5t28.5 8.5h31q23 0 25 -16v-4q0 -14 -13 -32l-299 -415l317 -453q10 -15 10 -25q0 -8 -6 -13t-18 -5h-39q-17 0 -28.5 8.5t-22.5 22.5l-270 387 l-277 -391q-20 -27 -53 -27h-35q-13 0 -18.5 5.5t-5.5 15.5q0 12 10 24z" />
<glyph unicode="y" horiz-adv-x="895" d="M51 913q-5 13 -5 22q0 13 8.5 20.5t25.5 7.5h20q17 0 27.5 -9.5t18.5 -27.5l292 -776h4l299 776q8 17 17 27t26 10h27q14 0 22.5 -7t8.5 -19q0 -11 -6 -26l-504 -1288q-8 -15 -15 -24t-24 -9h-31q-18 0 -27.5 8t-9.5 18q0 5 2 11l164 398z" />
<glyph unicode="z" horiz-adv-x="842" d="M717 88q17 0 26 -5.5t9 -19.5v-38q0 -14 -9 -19.5t-26 -5.5h-592q-16 0 -25.5 6t-9.5 23v39q0 31 21 57l540 749h-512q-35 0 -35 25v39q0 25 35 25h578q15 0 25 -5t10 -20v-43q0 -16 -6 -29.5t-15 -27.5l-543 -750h529z" />
<glyph unicode="{" horiz-adv-x="643" d="M262 1341q0 91 50 140t159 49q27 0 33 -8.5t6 -22.5v-14q0 -17 -5 -23t-25 -6q-72 0 -100 -30t-28 -85v-383q0 -153 -28.5 -222.5t-98.5 -110.5v-4q74 -44 100.5 -111t26.5 -209v-395q0 -55 28 -85t100 -30q20 0 25 -6t5 -23v-14q0 -13 -6 -22t-33 -9q-107 0 -158 49.5 t-51 139.5v389q0 184 -29 225.5t-70.5 56.5t-43.5 20.5t-2 14.5v23q0 21 34 30.5t72.5 50t38.5 242.5v383z" />
<glyph unicode="|" horiz-adv-x="459" d="M184 1499q0 37 37 37h17q36 0 36 -37v-1974q0 -37 -36 -37h-17q-37 0 -37 37v1974z" />
<glyph unicode="}" horiz-adv-x="643" d="M381 958q0 -200 37.5 -241.5t72.5 -51t35 -30.5v-23l-2 -14q-2 -7 -43 -20.5t-70.5 -56t-29.5 -226.5v-389q0 -91 -51.5 -140t-157.5 -49q-27 0 -33 9t-6 22v14q0 17 5 23t25 6q72 0 100 30t28 85v395q0 142 26.5 209t100.5 111v4q-70 41 -98.5 110.5t-28.5 222.5v383 q0 55 -28 85t-100 30q-20 0 -25 6t-5 23v14q0 14 6 22.5t33 8.5q108 0 158.5 -49t50.5 -140v-383z" />
<glyph unicode="~" d="M131.5 545.5q70.5 60.5 161.5 60.5q93 0 204 -64.5t179 -64.5q62 0 103.5 33t53.5 52.5t29 21.5h4q13 0 26.5 -10.5t13.5 -25.5q0 -36 -73 -90.5t-159 -54.5q-100 0 -206.5 62.5t-180.5 62.5q-60 0 -103.5 -35t-55 -53t-30.5 -19q-17 0 -27 11.5t-10 24.5q0 28 70.5 88.5 z" />
<glyph unicode="&#xa1;" horiz-adv-x="623" d="M352 -395q0 -37 -37 -37h-16q-37 0 -37 37v889q0 36 37 36h16q37 0 37 -36v-889zM248 827.5q-25 26.5 -25 61.5t25 61.5t61 26.5q37 0 62.5 -25.5t25.5 -62.5t-25.5 -62.5t-62.5 -25.5q-36 0 -61 26.5z" />
<glyph unicode="&#xa2;" d="M471 -25q-166 22 -262 152t-96 328q0 215 101 358.5t257 169.5v86q0 21 8 29t34 8q21 0 27.5 -8.5t6.5 -28.5v-80q155 -4 235.5 -90t80.5 -122v-3q0 -15 -19 -24l-23 -13q-9 -5 -16 -5q-18 0 -42.5 46.5t-76 84.5t-139.5 42v-850q81 2 136.5 45t81.5 90.5t43 47.5 q7 0 17 -5l27 -14q15 -8 16 -23q0 -39 -89 -131t-232 -94v-82q0 -21 -6 -28.5t-25 -7.5h-14q-19 0 -25 7.5t-6 28.5v86zM471 61v836q-119 -25 -190.5 -143.5t-71.5 -292.5q0 -164 69 -270.5t193 -129.5z" />
<glyph unicode="&#xa3;" d="M732 770q17 0 25 -5.5t8 -19.5v-38q0 -14 -8 -19.5t-25 -5.5h-362q19 -49 25.5 -90.5t6.5 -77.5q0 -106 -52 -212t-136 -187l4 -4q26 9 58.5 12.5t80.5 3.5q84 0 186 -33t189 -33q48 0 94 21t57 21q10 0 18 -5.5t13 -17.5l5 -8q5 -11 5 -20q0 -29 -65 -52t-147 -23 q-75 0 -204.5 37t-211.5 37q-55 0 -102 -16t-66 -29.5t-35 -13.5q-11 0 -24.5 21.5t-13.5 32.5q0 19 37.5 41t90 86.5t89 155.5t36.5 163q0 52 -8.5 96t-30.5 94h-180q-18 0 -27.5 5.5t-9.5 19.5v38q0 14 9.5 19.5t27.5 5.5h131q-44 77 -70 153t-26 136q0 166 108.5 263 t280.5 97q135 0 227 -47.5t135.5 -128.5t43.5 -133q0 -22 -10.5 -31.5t-30.5 -9.5q-16 0 -30.5 5.5t-38.5 82t-96.5 126.5t-195.5 50q-149 0 -223 -74t-74 -200q0 -46 20 -103.5t53 -116.5l38 -69h401z" />
<glyph unicode="&#xa4;" d="M51 270q-8 10 -8 20q0 6 4 14.5t12 17.5l74 69q-48 62 -77 135.5t-29 157.5q0 85 29 159t77 136l-74 70q-8 8 -13.5 17t-5.5 15q0 8 7 17l25 22q8 9 16 9q6 0 14.5 -5.5t16.5 -13.5l76 -74q66 53 136.5 81t153.5 28q87 0 160 -28t135 -81l72 74q8 8 17 13.5t15 5.5 q8 0 15 -7l25 -24q7 -7 7 -16q0 -6 -5.5 -15.5t-14.5 -17.5l-69 -70q48 -66 76 -138t28 -157q0 -82 -28 -154.5t-76 -138.5l69 -69q8 -8 12.5 -17.5t4.5 -17.5q0 -12 -10 -23l-19 -18q-8 -9 -16 -9q-5 0 -14 6t-17 13l-72 78q-66 -53 -137 -81t-158 -28q-83 0 -153.5 28 t-136.5 81l-76 -78q-13 -11 -25 -13l-5 -1q-10 0 -19 10zM754 962.5q-114 118.5 -269 118.5q-150 0 -263 -118.5t-113 -278.5q0 -158 113 -276.5t263 -118.5q155 0 269 118.5t114 276.5q0 160 -114 278.5z" />
<glyph unicode="&#xa5;" d="M163 379q-16 0 -26.5 9t-10.5 26v12q0 17 10.5 26t26.5 9h270v174h-270q-16 0 -26.5 7t-10.5 24v16q0 15 10.5 23t26.5 8h221l-303 630q-5 11 -5 22q0 14 6.5 21t20.5 7h33q19 0 29 -9t18 -24l291 -655l316 655q8 15 17 24t26 9h41q8 0 12 -7t4 -16q0 -12 -8 -29 l-318 -628h228q15 0 25.5 -8t10.5 -23v-16q0 -17 -10.5 -24t-25.5 -7h-269v-174h267q17 0 27.5 -9t10.5 -26v-12q0 -17 -10.5 -26t-27.5 -9h-267v-342q0 -16 -10 -26.5t-27 -10.5h-16q-15 0 -26 10.5t-11 26.5v342h-270z" />
<glyph unicode="&#xa6;" horiz-adv-x="459" d="M184 1499q0 37 37 37h17q36 0 36 -37v-729q0 -37 -36 -37h-17q-37 0 -37 37v729zM184 254q0 37 37 37h17q36 0 36 -37v-729q0 -37 -36 -37h-17q-37 0 -37 37v729z" />
<glyph unicode="&#xa7;" d="M654.5 -180.5q76.5 61.5 76.5 162.5q0 93 -61.5 150.5t-247.5 141.5t-248.5 156.5t-62.5 169.5q0 96 56 170t146 102q-68 37 -107.5 102.5t-39.5 147.5q0 137 95.5 217t240.5 80q120 0 199.5 -44.5t113.5 -115t34 -114.5q0 -13 -8 -20t-20 -7h-22q-33 0 -40.5 53.5 t-68.5 108.5t-188 55q-119 0 -183.5 -54.5t-64.5 -150.5q0 -76 46 -134t177 -119l151 -71q112 -54 166 -119t54 -167q0 -94 -59 -166.5t-144 -99.5q80 -43 126 -106t46 -158q0 -147 -102.5 -231.5t-259.5 -84.5q-134 0 -221 52t-121 129t-34 124q0 13 8 21t20 8h22 q32 0 37 -38t34 -91t92.5 -87t160.5 -34q125 0 201.5 61.5zM563 309q87 15 142 71.5t55 139.5q0 72 -38.5 116t-108.5 78.5t-130 61.5l-92 43q-84 -15 -137 -72t-53 -141q0 -69 42.5 -117t112.5 -83l113 -54z" />
<glyph unicode="&#xa8;" horiz-adv-x="449" d="M-19 1352.5q24 21.5 56 21.5q35 0 56.5 -23t21.5 -57t-22 -54.5t-56 -20.5q-32 0 -56 20t-24 57q0 35 24 56.5zM356 1352.5q24 21.5 56 21.5q35 0 56 -23t21 -57t-21.5 -54.5t-55.5 -20.5q-32 0 -56 20t-24 57q0 35 24 56.5z" />
<glyph unicode="&#xa9;" horiz-adv-x="1751" d="M1234 1320q165 -97 259 -264.5t94 -359.5q0 -194 -97.5 -364t-261.5 -264.5t-351 -94.5q-194 0 -359 98.5t-259.5 264.5t-94.5 360t93.5 359t259 263.5t360.5 98.5q192 0 357 -97zM1322 245q185 188 185 451q0 174 -85.5 322.5t-231.5 233.5t-313 85q-260 0 -444.5 -188 t-184.5 -453t185 -452t444 -187q260 0 445 188zM1201.5 959.5q-4.5 -7.5 -13.5 -13.5l-10 -6q-9 -5 -18 -5q-21 0 -44.5 35.5t-80 66t-138.5 30.5q-138 0 -226.5 -104t-88.5 -271q0 -154 85 -247t232 -93q87 0 146.5 39t81.5 76t37 37q7 0 16 -4l18 -13q14 -8 16 -17v-4 q0 -18 -48 -71.5t-118 -87t-149 -33.5q-183 0 -294 115.5t-111 300.5q0 208 118 331.5t287 123.5q143 0 225 -67.5t82 -99.5q0 -11 -4.5 -18.5z" />
<glyph unicode="&#xaa;" horiz-adv-x="950" d="M245 1059q95 51 283 59l123 4v70q0 81 -52 117.5t-148 36.5q-89 0 -133 -32.5t-53 -81t-52 -48.5q-16 0 -28 8.5t-12 27.5q0 30 28.5 85t92 86.5t169.5 31.5q130 0 198 -60t68 -165v-336l1 -59q0 -30 3 -62v-5q0 -18 -12.5 -26t-23.5 -8q-22 0 -34 10t-12 31v60h-4 q-40 -53 -111 -87t-155 -34q-105 0 -168 56t-63 145q0 125 95 176zM651 956v88l-88 -2q-179 -6 -253 -38t-74 -111q0 -64 44 -98.5t123 -34.5q100 0 174 57.5t74 138.5z" />
<glyph unicode="&#xab;" horiz-adv-x="944" d="M322 829q8 14 18 23.5t27 9.5h24q11 0 20 -5.5t9 -14.5q0 -5 -4 -13l-183 -299l181 -309q4 -7 4 -13q0 -8 -9 -14t-20 -6h-24q-17 0 -27.5 9.5t-18.5 23.5l-161 279q-8 13 -8 30q0 11 2.5 18.5t5.5 12.5zM664 829q8 14 18 23.5t27 9.5h24q11 0 20 -5.5t9 -14.5 q0 -5 -4 -13l-183 -299l181 -309q4 -7 4 -13q0 -8 -9 -14t-20 -6h-24q-17 0 -27 9.5t-18 23.5l-162 279q-8 13 -8 30q0 11 2.5 18.5t5.5 12.5z" />
<glyph unicode="&#xac;" d="M877 705q32 0 32 -25v-406q0 -18 -5 -27t-19 -9h-35q-14 0 -19.5 9t-5.5 27v347h-727q-18 0 -27.5 5t-9.5 19v35q0 25 37 25h779z" />
<glyph unicode="&#xad;" horiz-adv-x="664" d="M143 428q-15 0 -26 10.5t-11 26.5v27q0 15 11 25.5t26 10.5h377q16 0 26.5 -10.5t10.5 -25.5v-27q0 -16 -10.5 -26.5t-26.5 -10.5h-377z" />
<glyph unicode="&#xae;" horiz-adv-x="1143" d="M246 1337q135 138 323 138q189 0 326 -138t137 -327q0 -190 -137.5 -326.5t-325.5 -136.5q-186 0 -322 136.5t-136 326.5q0 189 135 327zM844 1287q-114 114 -275 114q-160 0 -272.5 -114t-112.5 -277q0 -162 113 -279t272 -117q160 0 274.5 117.5t114.5 278.5 q0 163 -114 277zM438 748q-13 0 -17.5 6.5t-4.5 15.5v471q0 12 4 19.5t18 7.5h140q82 0 131 -36t49 -102q0 -65 -35 -100.5t-94 -44.5l127 -207q4 -6 4 -12q0 -8 -5 -13t-16 -5h-22q-16 0 -23.5 8t-13.5 18l-119 205h-78v-209q0 -9 -4.5 -15.5t-17.5 -6.5h-23zM569 1038 q119 0 119 90q0 39 -30.5 59.5t-84.5 20.5h-90v-170h86z" />
<glyph unicode="&#xaf;" horiz-adv-x="449" d="M23 1245q-20 0 -34 9.5t-14 29.5v10q0 20 14 27.5t34 7.5h399q20 0 33.5 -7.5t13.5 -27.5v-10q0 -20 -13.5 -29.5t-33.5 -9.5h-399z" />
<glyph unicode="&#xb0;" horiz-adv-x="745" d="M162 1380q82 82 211 82t211 -82t82 -211q0 -128 -81 -210t-212 -82t-212 82t-81 210q0 129 82 211zM532 1328q-62 63 -159 63t-159 -63t-62 -159q0 -95 61.5 -158t159.5 -63t159.5 63t61.5 158q0 96 -62 159z" />
<glyph unicode="&#xb1;" d="M526 668h351q17 0 24.5 -5.5t7.5 -19.5v-35q0 -14 -7.5 -19t-24.5 -5h-351v-238q0 -18 -5 -27.5t-19 -9.5h-35q-25 0 -25 37v238h-344q-18 0 -27.5 5t-9.5 19v35q0 14 9.5 19.5t27.5 5.5h344v239q0 33 25 33h35q14 0 19 -8t5 -25v-239zM98 86q-18 0 -27.5 5.5t-9.5 19.5 v34q0 14 9.5 19.5t27.5 5.5h779q17 0 24.5 -5.5t7.5 -19.5v-34q0 -14 -7.5 -19.5t-24.5 -5.5h-779z" />
<glyph unicode="&#xb2;" horiz-adv-x="745" d="M164 598q-16 0 -25.5 7t-9.5 26v12q0 16 5 23.5t16 19.5l217 236q109 112 138.5 170t29.5 112q0 63 -36.5 99t-105.5 36q-73 0 -115 -43t-51 -118q0 -14 -7.5 -25.5t-24.5 -11.5h-17q-14 0 -22.5 9t-8.5 22v6q9 108 76 170.5t172 62.5q102 0 161.5 -54.5t59.5 -148.5 q0 -69 -41 -143t-141 -174l-205 -215h353q36 0 36 -31v-18q0 -29 -36 -29h-418z" />
<glyph unicode="&#xb3;" horiz-adv-x="745" d="M129 820q6 9 22 9h12q34 0 39 -45t44 -87t118 -42q83 0 127.5 50.5t44.5 134.5q0 93 -40.5 137.5t-115.5 44.5q-23 0 -45.5 -3t-40.5 -9l-23 -8q-11 -4 -19 -5h-4q-7 0 -11.5 4t-4.5 15v24q0 11 7 19.5t16 17.5l236 238h-302q-34 0 -34 28v19q0 15 9.5 23t24.5 8h373 q13 0 23 -6.5t10 -18.5v-25q0 -17 -8 -28.5t-19 -22.5l-200 -200q11 2 21.5 3t21.5 1q94 0 152.5 -68.5t58.5 -177.5q0 -116 -68.5 -191t-185.5 -75q-80 0 -132 26.5t-82.5 77.5t-30.5 107q0 16 6 25z" />
<glyph unicode="&#xb4;" horiz-adv-x="449" d="M224 1401q11 15 19.5 23t25.5 8h64q12 0 18.5 -6.5t6.5 -13.5q0 -10 -13 -23l-174 -189q-11 -12 -23.5 -21.5t-27.5 -9.5h-23q-9 0 -14.5 4.5t-5.5 11.5q0 6 6 15z" />
<glyph unicode="&#xb5;" horiz-adv-x="1044" d="M152 926q0 37 36 37h17q37 0 37 -37v-539q0 -162 57.5 -234.5t185.5 -72.5q136 0 224 101.5t88 252.5v492q0 37 37 37h14q18 0 28.5 -9.5t10.5 -27.5v-889q0 -19 -10.5 -28t-33.5 -9q-46 0 -46 37v147h-2q-48 -91 -130.5 -139.5t-191.5 -48.5q-147 0 -231 108v-534 q0 -16 -9 -26.5t-24 -10.5h-21q-36 0 -36 37v1356z" />
<glyph unicode="&#xb6;" horiz-adv-x="1073" d="M840 1393q37 0 37 -37v-1710q0 -37 -37 -37h-17q-37 0 -37 37v1667h-194v-1667q0 -37 -37 -37h-16q-37 0 -37 37v1038q-156 0 -268.5 99.5t-112.5 248.5q0 163 104.5 262t280.5 99h334z" />
<glyph unicode="&#xb7;" horiz-adv-x="449" d="M272 672.5q25 -26.5 25 -61.5t-25 -61.5t-61 -26.5q-37 0 -62.5 25.5t-25.5 62.5t25.5 62.5t62.5 25.5q36 0 61 -26.5z" />
<glyph unicode="&#xb8;" horiz-adv-x="449" d="M198 8q8 11 12.5 14t13.5 3h33q8 0 12.5 -4t4.5 -9t-5 -12l-71 -109l2 -2q8 2 21.5 3.5t29.5 1.5q74 0 122 -38.5t48 -107.5q0 -89 -62 -137.5t-172 -48.5q-43 0 -93.5 7t-50.5 29q0 7 3 17l2 8q4 13 9 18.5t17 5.5q5 0 11 -1l50 -5q25 -3 59 -3q61 0 96 24.5t35 71.5 q0 45 -32.5 67.5t-94.5 22.5q-35 0 -56 -3.5t-24 -3.5h-4q-6 0 -11 7l-6 8q-4 5 -4 11v3q0 8 4 13z" />
<glyph unicode="&#xb9;" horiz-adv-x="745" d="M203 1249v11q0 25 22 34.5t75.5 42.5t71.5 53.5t34 20.5h20q8 0 11 -5t3 -11v-760q0 -14 -5.5 -25.5t-22.5 -11.5h-23q-15 0 -23 11.5t-8 25.5v649q-23 -19 -71.5 -44.5t-63.5 -25.5q-8 0 -14 7t-6 28z" />
<glyph unicode="&#xba;" horiz-adv-x="950" d="M190 1316.5q98 108.5 252 108.5q163 0 257 -105t94 -265q0 -153 -98 -263t-253 -110q-160 0 -255 104.5t-95 268.5q0 153 98 261.5zM632 1267.5q-73 80.5 -190 80.5q-121 0 -191.5 -81.5t-70.5 -211.5q0 -135 71 -215t191 -80q122 0 192.5 80t70.5 215q0 132 -73 212.5z " />
<glyph unicode="&#xbb;" horiz-adv-x="944" d="M781 561q9 -11 9 -31q0 -17 -9 -30l-161 -279q-8 -14 -18 -23.5t-27 -9.5h-25q-11 0 -20 6t-9 14q0 6 4 13l181 309l-183 299q-4 8 -4 13q0 9 9 14.5t20 5.5h25q17 0 27 -9.5t18 -23.5zM439 561q9 -11 9 -31q0 -17 -9 -30l-161 -279q-8 -14 -18 -23.5t-27 -9.5h-25 q-11 0 -20 6t-9 14q0 6 4 13l181 309l-183 299q-4 8 -4 13q0 9 9 14.5t20 5.5h25q17 0 27 -9.5t18 -23.5z" />
<glyph unicode="&#xbc;" horiz-adv-x="1688" d="M969 252q0 11 2.5 18t7.5 15l336 495q9 16 19 24.5t24 8.5h22q16 0 21.5 -10.5t5.5 -26.5v-481h82q14 0 22.5 -6.5t8.5 -20.5v-24q0 -17 -8.5 -23t-22.5 -6h-82v-178q0 -16 -4.5 -26.5t-20.5 -10.5h-28q-17 0 -23 10.5t-6 26.5v178h-332q-11 0 -17.5 7t-6.5 18v12z M1325 295v377l-256 -377h256zM1147 1409q9 17 18.5 27t28.5 10h23q13 0 19 -6t6 -18t-7 -25l-836 -1440q-9 -17 -18.5 -27t-28.5 -10h-22q-13 0 -19.5 6t-6.5 18t7 25zM203 1249v11q0 25 22 34.5t75.5 42.5t71.5 53.5t34 20.5h20q8 0 11 -5t3 -11v-760q0 -14 -5.5 -25.5 t-22.5 -11.5h-23q-15 0 -23 11.5t-8 25.5v649q-23 -19 -71.5 -44.5t-63.5 -25.5q-8 0 -14 7t-6 28z" />
<glyph unicode="&#xbd;" horiz-adv-x="1688" d="M1147 1409q9 17 18.5 27t28.5 10h23q13 0 19 -6t6 -18t-7 -25l-836 -1440q-9 -17 -18.5 -27t-28.5 -10h-22q-13 0 -19.5 6t-6.5 18t7 25zM1071 0q-15 0 -25 7.5t-10 25.5v12q0 16 5 23.5t16 19.5l217 236q109 112 138.5 170t29.5 112q0 63 -36 99t-106 36 q-78 0 -117.5 -45t-47.5 -116q0 -14 -8 -25.5t-25 -11.5h-17q-14 0 -22 9t-8 22v6q7 106 73.5 169.5t174.5 63.5q100 0 160.5 -54t60.5 -149q0 -71 -42.5 -145t-140.5 -172l-204 -215h352q37 0 37 -31v-18q0 -29 -37 -29h-418zM203 1249v11q0 25 22 34.5t75.5 42.5 t71.5 53.5t34 20.5h20q8 0 11 -5t3 -11v-760q0 -14 -5.5 -25.5t-22.5 -11.5h-23q-15 0 -23 11.5t-8 25.5v649q-23 -19 -71.5 -44.5t-63.5 -25.5q-8 0 -14 7t-6 28z" />
<glyph unicode="&#xbe;" horiz-adv-x="1688" d="M980 252q0 11 2.5 18t7.5 15l336 495q9 16 19 24.5t24 8.5h23q15 0 20.5 -10.5t5.5 -26.5v-481h82q31 0 31 -27v-24q0 -17 -8.5 -23t-22.5 -6h-82v-178q0 -16 -4.5 -26.5t-19.5 -10.5h-29q-17 0 -23 10.5t-6 26.5v178h-331q-25 0 -25 25v12zM1336 295v377l-256 -377h256z M1220 1409q9 17 18.5 27t28.5 10h22q13 0 19.5 -6t6.5 -18t-7 -25l-836 -1440q-9 -17 -18.5 -27t-28.5 -10h-23q-13 0 -19 6t-6 18t7 25zM162 819.5q6 9.5 21 9.5h13q32 0 38.5 -47t46 -87t115.5 -40q83 0 127.5 49.5t44.5 135.5q0 92 -40.5 137t-114.5 45q-23 0 -45.5 -3 t-40.5 -9l-23 -8q-11 -4 -19 -5h-4q-7 0 -11.5 4t-4.5 15v24q0 11 6.5 19.5t16.5 17.5l235 238h-301q-35 0 -35 28v19q0 15 10 23t25 8h373q12 0 22.5 -6.5t10.5 -18.5v-25q0 -17 -8 -28.5t-19 -22.5l-201 -200q11 2 21.5 3t21.5 1q94 0 152.5 -68.5t58.5 -177.5 q0 -116 -68.5 -191t-185.5 -75q-122 0 -183 65t-61 146q0 15 6 24.5z" />
<glyph unicode="&#xbf;" horiz-adv-x="991" d="M439 827.5q-25 26.5 -25 61.5t25 61.5t61 26.5q37 0 62.5 -25.5t25.5 -62.5t-25.5 -62.5t-62.5 -25.5q-36 0 -61 26.5zM457 573q0 37 37 37h18q37 0 37 -40q0 -195 -39 -275.5t-121 -142.5t-130 -125.5t-48 -178.5q0 -102 67.5 -165.5t174.5 -63.5q96 0 157 41.5t87 108 t27 112t42 45.5h14q37 0 37 -39v-6q-14 -162 -107 -251t-255 -89q-153 0 -246.5 85t-93.5 224q0 112 49 194.5t143.5 153.5t122 133.5t27.5 178.5v63z" />
<glyph unicode="&#xc0;" horiz-adv-x="1118" d="M492 1360q6 14 18.5 23.5t32.5 9.5h18q22 0 34.5 -10t19.5 -27l469 -1313q3 -10 3 -18q0 -25 -38 -25h-17q-21 0 -32 12.5t-19 32.5l-141 401h-578l-143 -411q-6 -17 -17 -26t-34 -9h-8q-18 0 -29 9.5t-11 23.5q0 10 5 22zM807 539l-256 731h-4l-254 -731h514zM605 1546 q6 -9 6 -16q0 -5 -5 -9.5t-15 -4.5h-22q-16 0 -28.5 9t-23.5 21l-174 189q-12 12 -12 23q0 7 6.5 13.5t18.5 6.5h63q17 0 25.5 -8t19.5 -23z" />
<glyph unicode="&#xc1;" horiz-adv-x="1118" d="M492 1360q6 14 18.5 23.5t32.5 9.5h18q22 0 34.5 -10t19.5 -27l469 -1313q3 -10 3 -18q0 -25 -38 -25h-17q-21 0 -32 12.5t-19 32.5l-141 401h-578l-143 -411q-6 -17 -17 -26t-34 -9h-8q-18 0 -29 9.5t-11 23.5q0 10 5 22zM807 539l-256 731h-4l-254 -731h514zM650 1747 q11 15 19.5 23t25.5 8h64q12 0 18.5 -6.5t6.5 -13.5q0 -10 -13 -23l-174 -189q-11 -12 -23.5 -21t-27.5 -9h-23q-9 0 -14.5 4.5t-5.5 10.5t6 15z" />
<glyph unicode="&#xc2;" horiz-adv-x="1118" d="M492 1360q6 14 18.5 23.5t32.5 9.5h18q22 0 34.5 -10t19.5 -27l469 -1313q3 -10 3 -18q0 -25 -38 -25h-17q-21 0 -32 12.5t-19 32.5l-141 401h-578l-143 -411q-6 -17 -17 -26t-34 -9h-8q-18 0 -29 9.5t-11 23.5q0 10 5 22zM807 539l-256 731h-4l-254 -731h514zM784 1548 q6 -9 6 -15t-5.5 -10.5t-15.5 -4.5h-16q-16 0 -28 9t-23 21l-146 160l-145 -160q-11 -12 -23.5 -21t-27.5 -9h-17q-9 0 -14.5 4.5t-5.5 10.5t6 15l141 201q11 15 19.5 23t25.5 8h82q17 0 25.5 -8t19.5 -23z" />
<glyph unicode="&#xc3;" horiz-adv-x="1118" d="M492 1360q6 14 18.5 23.5t32.5 9.5h18q22 0 34.5 -10t19.5 -27l469 -1313q3 -10 3 -18q0 -25 -38 -25h-17q-21 0 -32 12.5t-19 32.5l-141 401h-578l-143 -411q-6 -17 -17 -26t-34 -9h-8q-18 0 -29 9.5t-11 23.5q0 10 5 22zM807 539l-256 731h-4l-254 -731h514zM368 1611 q-23 -31 -29.5 -55t-30.5 -24h-6q-14 0 -19.5 8t-5.5 25q0 50 44.5 108t115.5 58q32 0 69 -13t81 -41l31 -19q20 -12 36.5 -18t36.5 -6q40 0 63 31.5t29.5 55.5t30.5 24h6q15 0 20.5 -8t5.5 -23q0 -49 -43.5 -108.5t-115.5 -59.5q-66 0 -140 48t-116 48q-40 0 -63 -31z" />
<glyph unicode="&#xc4;" horiz-adv-x="1118" d="M492 1360q6 14 18.5 23.5t32.5 9.5h18q22 0 34.5 -10t19.5 -27l469 -1313q3 -10 3 -18q0 -25 -38 -25h-17q-21 0 -32 12.5t-19 32.5l-141 401h-578l-143 -411q-6 -17 -17 -26t-34 -9h-8q-18 0 -29 9.5t-11 23.5q0 10 5 22zM807 539l-256 731h-4l-254 -731h514z M317 1674.5q24 21.5 56 21.5q35 0 56.5 -23t21.5 -57t-22 -55t-56 -21q-32 0 -56 20.5t-24 57.5q0 35 24 56.5zM692 1674.5q24 21.5 56 21.5q35 0 56 -23t21 -57t-21.5 -55t-55.5 -21q-32 0 -56 20.5t-24 57.5q0 35 24 56.5z" />
<glyph unicode="&#xc5;" horiz-adv-x="1118" d="M492 1360q6 14 18.5 23.5t32.5 9.5h18q22 0 34.5 -10t19.5 -27l469 -1313q3 -10 3 -18q0 -25 -38 -25h-17q-21 0 -32 12.5t-19 32.5l-141 401h-578l-143 -411q-6 -17 -17 -26t-34 -9h-8q-18 0 -29 9.5t-11 23.5q0 10 5 22zM807 539l-256 731h-4l-254 -731h514z M426.5 1808q55.5 56 130.5 56q80 0 135.5 -57t55.5 -134t-55.5 -131.5t-135.5 -54.5q-77 0 -131.5 53.5t-54.5 132.5t55.5 135zM643.5 1759q-36.5 35 -86.5 35q-49 0 -84 -36t-35 -85t35 -85t84 -36q50 0 86.5 35t36.5 86t-36.5 86z" />
<glyph unicode="&#xc6;" horiz-adv-x="1608" d="M810 387h-510l-196 -352q-11 -19 -24.5 -27t-33.5 -8h-8q-21 0 -30.5 8.5t-9.5 20.5q0 10 7 22l733 1301q14 23 27 32t35 9h661q37 0 37 -37v-15q0 -38 -37 -38h-559v-537h490q37 0 37 -37v-16q0 -37 -37 -37h-490v-586h572q18 0 28.5 -10t10.5 -29v-14q0 -19 -10.5 -28 t-28.5 -9h-625q-39 0 -39 37v350zM810 477v823l-461 -823h461z" />
<glyph unicode="&#xc7;" horiz-adv-x="1321" d="M688 -25q-293 11 -447.5 198.5t-154.5 522.5q0 315 176.5 519t482.5 204q152 0 263.5 -53.5t174.5 -139t63 -112.5q0 -9 -4.5 -17t-12.5 -12l-17 -8q-10 -5 -21 -5q-26 0 -42 33.5t-64 91.5t-134.5 97t-211.5 39q-259 0 -407 -178t-148 -457q0 -307 139.5 -473 t397.5 -166q111 0 204 46t152.5 110.5t81.5 102t45 37.5q8 0 17 -5l18 -10q16 -8 18 -22v-4q0 -31 -78 -122t-185 -149t-228 -68l-55 -84l2 -2q8 2 21.5 3.5t29.5 1.5q74 0 122 -38.5t48 -107.5q0 -89 -62 -137.5t-172 -48.5q-43 0 -93.5 7t-50.5 29q0 7 3 17l2 8 q4 13 9 18.5t17 5.5q5 0 11 -1l50 -5q25 -3 59 -3q61 0 96 24.5t35 71.5q0 45 -32.5 67.5t-94.5 22.5q-35 0 -56 -3.5t-24 -3.5h-4q-6 0 -11 7l-6 8q-4 5 -4 11v3q0 8 4 13z" />
<glyph unicode="&#xc8;" d="M178 1356q0 18 10.5 27.5t28.5 9.5h612q37 0 37 -37v-15q0 -38 -37 -38h-559v-537h490q37 0 37 -37v-16q0 -37 -37 -37h-490v-586h572q18 0 28.5 -10t10.5 -29v-14q0 -19 -10.5 -28t-28.5 -9h-625q-18 0 -28.5 9t-10.5 28v1319zM611 1546q6 -9 6 -16q0 -5 -5 -9.5 t-15 -4.5h-22q-16 0 -28.5 9t-23.5 21l-174 189q-12 12 -12 23q0 7 6.5 13.5t18.5 6.5h63q17 0 25.5 -8t19.5 -23z" />
<glyph unicode="&#xc9;" d="M178 1356q0 18 10.5 27.5t28.5 9.5h612q37 0 37 -37v-15q0 -38 -37 -38h-559v-537h490q37 0 37 -37v-16q0 -37 -37 -37h-490v-586h572q18 0 28.5 -10t10.5 -29v-14q0 -19 -10.5 -28t-28.5 -9h-625q-18 0 -28.5 9t-10.5 28v1319zM611 1747q11 15 19.5 23t25.5 8h64 q12 0 18.5 -6.5t6.5 -13.5q0 -10 -13 -23l-174 -189q-11 -12 -23.5 -21t-27.5 -9h-23q-9 0 -14.5 4.5t-5.5 10.5t6 15z" />
<glyph unicode="&#xca;" d="M178 1356q0 18 10.5 27.5t28.5 9.5h612q37 0 37 -37v-15q0 -38 -37 -38h-559v-537h490q37 0 37 -37v-16q0 -37 -37 -37h-490v-586h572q18 0 28.5 -10t10.5 -29v-14q0 -19 -10.5 -28t-28.5 -9h-625q-18 0 -28.5 9t-10.5 28v1319zM761 1548q6 -9 6 -15t-5.5 -10.5 t-15.5 -4.5h-16q-16 0 -28 9t-23 21l-146 160l-145 -160q-11 -12 -23.5 -21t-27.5 -9h-17q-9 0 -14.5 4.5t-5.5 10.5t6 15l141 201q11 15 19.5 23t25.5 8h82q17 0 25.5 -8t19.5 -23z" />
<glyph unicode="&#xcb;" d="M178 1356q0 18 10.5 27.5t28.5 9.5h612q37 0 37 -37v-15q0 -38 -37 -38h-559v-537h490q37 0 37 -37v-16q0 -37 -37 -37h-490v-586h572q18 0 28.5 -10t10.5 -29v-14q0 -19 -10.5 -28t-28.5 -9h-625q-18 0 -28.5 9t-10.5 28v1319zM292 1674.5q24 21.5 56 21.5 q35 0 56.5 -23t21.5 -57t-22 -55t-56 -21q-32 0 -56 20.5t-24 57.5q0 35 24 56.5zM667 1674.5q24 21.5 56 21.5q35 0 56 -23t21 -57t-21.5 -55t-55.5 -21q-32 0 -56 20.5t-24 57.5q0 35 24 56.5z" />
<glyph unicode="&#xcc;" horiz-adv-x="449" d="M178 1356q0 37 37 37h18q37 0 37 -37v-1319q0 -37 -37 -37h-18q-37 0 -37 37v1319zM280 1546q6 -9 6 -16q0 -5 -5 -9.5t-15 -4.5h-22q-16 0 -28.5 9t-23.5 21l-174 189q-12 12 -12 23q0 7 6.5 13.5t18.5 6.5h63q17 0 25.5 -8t19.5 -23z" />
<glyph unicode="&#xcd;" horiz-adv-x="449" d="M178 1356q0 37 37 37h18q37 0 37 -37v-1319q0 -37 -37 -37h-18q-37 0 -37 37v1319zM308 1747q11 15 19.5 23t25.5 8h64q12 0 18.5 -6.5t6.5 -13.5q0 -10 -13 -23l-174 -189q-11 -12 -23.5 -21t-27.5 -9h-23q-9 0 -14.5 4.5t-5.5 10.5t6 15z" />
<glyph unicode="&#xce;" horiz-adv-x="449" d="M178 1356q0 37 37 37h18q37 0 37 -37v-1319q0 -37 -37 -37h-18q-37 0 -37 37v1319zM449 1548q6 -9 6 -15t-5.5 -10.5t-15.5 -4.5h-16q-16 0 -28 9t-23 21l-146 160l-145 -160q-11 -12 -23.5 -21t-27.5 -9h-17q-9 0 -14.5 4.5t-5.5 10.5t6 15l141 201q11 15 19.5 23 t25.5 8h82q17 0 25.5 -8t19.5 -23z" />
<glyph unicode="&#xcf;" horiz-adv-x="449" d="M178 1356q0 37 37 37h18q37 0 37 -37v-1319q0 -37 -37 -37h-18q-37 0 -37 37v1319zM-20 1674.5q24 21.5 56 21.5q35 0 56.5 -23t21.5 -57t-22 -55t-56 -21q-32 0 -56 20.5t-24 57.5q0 35 24 56.5zM355 1674.5q24 21.5 56 21.5q35 0 56 -23t21 -57t-21.5 -55t-55.5 -21 q-32 0 -56 20.5t-24 57.5q0 35 24 56.5z" />
<glyph unicode="&#xd0;" horiz-adv-x="1323" d="M201 690h-109q-37 0 -37 33v27q0 30 37 30h109v576q0 18 9.5 27.5t25.5 9.5h311q334 0 511 -188t177 -496q0 -180 -84 -350t-237.5 -264.5t-356.5 -94.5h-321q-16 0 -25.5 9t-9.5 28v653zM567 90q263 0 416.5 176t153.5 443q0 278 -151 436t-435 158h-258v-523h321 q17 0 25 -6.5t8 -23.5v-27q0 -33 -33 -33h-321v-600h274z" />
<glyph unicode="&#xd1;" horiz-adv-x="1311" d="M178 1356q0 18 10.5 27.5t28.5 9.5h23q19 0 29 -7.5t22 -23.5l751 -1208h2v1202q0 37 37 37h15q37 0 37 -37v-1319q0 -20 -9.5 -28.5t-27.5 -8.5h-25q-20 0 -32 7.5t-23 23.5l-744 1196h-4v-1190q0 -37 -37 -37h-14q-18 0 -28.5 9t-10.5 28v1319zM511 1611 q-23 -31 -29.5 -55t-30.5 -24h-6q-14 0 -19.5 8t-5.5 25q0 50 44.5 108t115.5 58q32 0 69 -13t81 -41l31 -19q20 -12 36.5 -18t36.5 -6q40 0 63 31.5t29.5 55.5t30.5 24h6q15 0 20.5 -8t5.5 -23q0 -49 -43.5 -108.5t-115.5 -59.5q-66 0 -140 48t-116 48q-40 0 -63 -31z" />
<glyph unicode="&#xd2;" horiz-adv-x="1450" d="M1188 1218q176 -201 176 -520q0 -307 -185 -516t-456 -209q-291 0 -464 197.5t-173 527.5q0 322 176.5 521.5t460.5 199.5q289 0 465 -201zM1114 238.5q152 179.5 152 459.5q0 293 -144.5 464t-392.5 171q-251 0 -398 -170t-147 -465q0 -299 141.5 -469t397.5 -170 q239 0 391 179.5zM791 1546q6 -9 6 -16q0 -5 -5 -9.5t-15 -4.5h-22q-16 0 -28.5 9t-23.5 21l-174 189q-12 12 -12 23q0 7 6.5 13.5t18.5 6.5h63q17 0 25.5 -8t19.5 -23z" />
<glyph unicode="&#xd3;" horiz-adv-x="1450" d="M1188 1218q176 -201 176 -520q0 -307 -185 -516t-456 -209q-291 0 -464 197.5t-173 527.5q0 322 176.5 521.5t460.5 199.5q289 0 465 -201zM1114 238.5q152 179.5 152 459.5q0 293 -144.5 464t-392.5 171q-251 0 -398 -170t-147 -465q0 -299 141.5 -469t397.5 -170 q239 0 391 179.5zM806 1747q11 15 19.5 23t25.5 8h64q12 0 18.5 -6.5t6.5 -13.5q0 -10 -13 -23l-174 -189q-11 -12 -23.5 -21t-27.5 -9h-23q-9 0 -14.5 4.5t-5.5 10.5t6 15z" />
<glyph unicode="&#xd4;" horiz-adv-x="1450" d="M1188 1218q176 -201 176 -520q0 -307 -185 -516t-456 -209q-291 0 -464 197.5t-173 527.5q0 322 176.5 521.5t460.5 199.5q289 0 465 -201zM1114 238.5q152 179.5 152 459.5q0 293 -144.5 464t-392.5 171q-251 0 -398 -170t-147 -465q0 -299 141.5 -469t397.5 -170 q239 0 391 179.5zM950 1548q6 -9 6 -15t-5.5 -10.5t-15.5 -4.5h-16q-16 0 -28 9t-23 21l-146 160l-145 -160q-11 -12 -23.5 -21t-27.5 -9h-17q-9 0 -14.5 4.5t-5.5 10.5t6 15l141 201q11 15 19.5 23t25.5 8h82q17 0 25.5 -8t19.5 -23z" />
<glyph unicode="&#xd5;" horiz-adv-x="1450" d="M1188 1218q176 -201 176 -520q0 -307 -185 -516t-456 -209q-291 0 -464 197.5t-173 527.5q0 322 176.5 521.5t460.5 199.5q289 0 465 -201zM1114 238.5q152 179.5 152 459.5q0 293 -144.5 464t-392.5 171q-251 0 -398 -170t-147 -465q0 -299 141.5 -469t397.5 -170 q239 0 391 179.5zM534 1611q-23 -31 -29.5 -55t-30.5 -24h-6q-14 0 -19.5 8t-5.5 25q0 50 44.5 108t115.5 58q32 0 69 -13t81 -41l31 -19q20 -12 36.5 -18t36.5 -6q40 0 63 31.5t29.5 55.5t30.5 24h6q15 0 20.5 -8t5.5 -23q0 -49 -43.5 -108.5t-115.5 -59.5q-66 0 -140 48 t-116 48q-40 0 -63 -31z" />
<glyph unicode="&#xd6;" horiz-adv-x="1450" d="M1188 1218q176 -201 176 -520q0 -307 -185 -516t-456 -209q-291 0 -464 197.5t-173 527.5q0 322 176.5 521.5t460.5 199.5q289 0 465 -201zM1114 238.5q152 179.5 152 459.5q0 293 -144.5 464t-392.5 171q-251 0 -398 -170t-147 -465q0 -299 141.5 -469t397.5 -170 q239 0 391 179.5zM483 1674.5q24 21.5 56 21.5q35 0 56.5 -23t21.5 -57t-22 -55t-56 -21q-32 0 -56 20.5t-24 57.5q0 35 24 56.5zM858 1674.5q24 21.5 56 21.5q35 0 56 -23t21 -57t-21.5 -55t-55.5 -21q-32 0 -56 20.5t-24 57.5q0 35 24 56.5z" />
<glyph unicode="&#xd7;" d="M472 561l248 248q14 13 25 13q9 0 16 -7l25 -24q8 -9 8 -17v-3q-2 -9 -14 -21l-248 -248l245 -246q8 -7 12 -14t4 -12q0 -8 -7 -17l-25 -25q-7 -7 -15 -7q-13 0 -28 18l-246 243l-243 -243q-8 -8 -14.5 -12t-12.5 -4q-7 0 -16 7l-25 25q-7 7 -7 15q0 13 17 28l242 244 l-246 246q-13 13 -13 24q0 9 7 16l25 25q9 8 17 8h3q8 -2 21 -14z" />
<glyph unicode="&#xd8;" horiz-adv-x="1450" d="M1214 1188q73 -94 111.5 -218.5t38.5 -271.5q0 -307 -185 -516t-456 -209q-134 0 -244.5 43t-191.5 123l-109 -123q-10 -12 -22 -12q-10 0 -21 10l-12 15q-9 9 -9 18q0 5 3.5 12.5t9.5 14.5l109 123q-73 94 -111.5 220.5t-38.5 280.5q0 322 176.5 521.5t460.5 199.5 q136 0 246.5 -45t193.5 -129l117 133q11 14 22 14q10 0 21 -12l12 -14q9 -9 9 -18q0 -5 -3.5 -12.5t-9.5 -14.5zM293 262l815 922q-68 72 -162.5 110.5t-216.5 38.5q-249 0 -397 -172t-148 -463q0 -271 109 -436zM1157 1122l-815 -921q68 -69 162.5 -105.5t218.5 -36.5 q237 0 390 181t153 458q0 131 -27.5 237.5t-81.5 186.5z" />
<glyph unicode="&#xd9;" horiz-adv-x="1241" d="M166 1356q0 37 39 37h16q37 0 37 -37v-871q0 -206 95.5 -316t269.5 -110q170 0 265 115.5t95 310.5v871q0 37 37 37h18q37 0 37 -37v-875q0 -230 -123.5 -369t-328.5 -139q-208 0 -332.5 136.5t-124.5 365.5v881zM687 1546q6 -9 6 -16q0 -5 -5 -9.5t-15 -4.5h-22 q-16 0 -28.5 9t-23.5 21l-174 189q-12 12 -12 23q0 7 6.5 13.5t18.5 6.5h63q17 0 25.5 -8t19.5 -23z" />
<glyph unicode="&#xda;" horiz-adv-x="1241" d="M166 1356q0 37 39 37h16q37 0 37 -37v-871q0 -206 95.5 -316t269.5 -110q170 0 265 115.5t95 310.5v871q0 37 37 37h18q37 0 37 -37v-875q0 -230 -123.5 -369t-328.5 -139q-208 0 -332.5 136.5t-124.5 365.5v881zM718 1747q11 15 19.5 23t25.5 8h64q12 0 18.5 -6.5 t6.5 -13.5q0 -10 -13 -23l-174 -189q-11 -12 -23.5 -21t-27.5 -9h-23q-9 0 -14.5 4.5t-5.5 10.5t6 15z" />
<glyph unicode="&#xdb;" horiz-adv-x="1241" d="M166 1356q0 37 39 37h16q37 0 37 -37v-871q0 -206 95.5 -316t269.5 -110q170 0 265 115.5t95 310.5v871q0 37 37 37h18q37 0 37 -37v-875q0 -230 -123.5 -369t-328.5 -139q-208 0 -332.5 136.5t-124.5 365.5v881zM845 1548q6 -9 6 -15t-5.5 -10.5t-15.5 -4.5h-16 q-16 0 -28 9t-23 21l-146 160l-145 -160q-11 -12 -23.5 -21t-27.5 -9h-17q-9 0 -14.5 4.5t-5.5 10.5t6 15l141 201q11 15 19.5 23t25.5 8h82q17 0 25.5 -8t19.5 -23z" />
<glyph unicode="&#xdc;" horiz-adv-x="1241" d="M166 1356q0 37 39 37h16q37 0 37 -37v-871q0 -206 95.5 -316t269.5 -110q170 0 265 115.5t95 310.5v871q0 37 37 37h18q37 0 37 -37v-875q0 -230 -123.5 -369t-328.5 -139q-208 0 -332.5 136.5t-124.5 365.5v881zM378 1674.5q24 21.5 56 21.5q35 0 56.5 -23t21.5 -57 t-22 -55t-56 -21q-32 0 -56 20.5t-24 57.5q0 35 24 56.5zM753 1674.5q24 21.5 56 21.5q35 0 56 -23t21 -57t-21.5 -55t-55.5 -21q-32 0 -56 20.5t-24 57.5q0 35 24 56.5z" />
<glyph unicode="&#xdd;" horiz-adv-x="997" d="M455 586l-418 749q-12 18 -12 32q0 12 7.5 19t24.5 7h21q15 0 28 -8t25 -29l371 -697l366 695q14 22 25 30.5t31 8.5h14q15 0 22.5 -6t7.5 -19q0 -14 -11 -31l-412 -751v-549q0 -19 -11 -28t-26 -9h-16q-16 0 -26.5 9t-10.5 28v549zM566 1747q11 15 19.5 23t25.5 8h64 q12 0 18.5 -6.5t6.5 -13.5q0 -10 -13 -23l-174 -189q-11 -12 -23.5 -21t-27.5 -9h-23q-9 0 -14.5 4.5t-5.5 10.5t6 15z" />
<glyph unicode="&#xde;" horiz-adv-x="1104" d="M178 1356q0 20 12 28.5t27 8.5h16q37 0 37 -37v-221h265q216 0 328 -107.5t112 -316.5q0 -197 -126 -307.5t-353 -110.5h-226v-256q0 -37 -37 -37h-20q-15 0 -25 9t-10 28v1319zM522 383q174 0 264.5 84t90.5 248q0 166 -81.5 247.5t-256.5 81.5h-269v-661h252z" />
<glyph unicode="&#xdf;" horiz-adv-x="1057" d="M156 961q0 231 101 358t288 127q163 0 261.5 -98.5t98.5 -260.5q0 -125 -64.5 -206.5t-174.5 -108.5v-4q145 -31 215.5 -123t70.5 -239q0 -178 -101 -297t-267 -119q-69 0 -115.5 12.5t-46.5 35.5q0 7 4 17l4 17q2 10 7.5 16.5t15.5 6.5t46.5 -10.5t82.5 -10.5 q128 0 201 93.5t73 242.5t-88.5 228t-257.5 79q-17 0 -26 9.5t-9 25.5v12q0 15 11 26t36 11q132 0 209.5 74.5t77.5 205.5q0 136 -71 208.5t-193 72.5q-148 0 -223.5 -101t-75.5 -305v-919q0 -16 -11 -26.5t-26 -10.5h-14q-17 0 -28 10.5t-11 26.5v924z" />
<glyph unicode="&#xe0;" horiz-adv-x="1004" d="M481 551l264 10v109q0 233 -262 233q-91 0 -143.5 -27t-76.5 -70.5t-30.5 -80.5t-44.5 -37h-16q-36 0 -36 31q0 30 34.5 104t110.5 120t211 46q159 0 251.5 -81t92.5 -228v-471q0 -41 1 -86t3 -82v-8q0 -17 -9 -25t-24 -8h-31q-31 0 -31 37v94h-4q-44 -77 -133.5 -118.5 t-181.5 -41.5q-156 0 -241 79t-85 194q0 143 93.5 219t287.5 88zM650.5 129q94.5 74 94.5 190v158l-196 -8q-206 -11 -279 -60t-73 -159q0 -90 60 -142.5t177 -52.5q122 0 216.5 74zM545 1200q6 -9 6 -16q0 -6 -5 -10.5t-15 -4.5h-22q-16 0 -28.5 9.5t-23.5 21.5l-174 189 q-12 12 -12 23q0 7 6.5 13.5t18.5 6.5h63q17 0 25.5 -8t19.5 -23z" />
<glyph unicode="&#xe1;" horiz-adv-x="1004" d="M481 551l264 10v109q0 233 -262 233q-91 0 -143.5 -27t-76.5 -70.5t-30.5 -80.5t-44.5 -37h-16q-36 0 -36 31q0 30 34.5 104t110.5 120t211 46q159 0 251.5 -81t92.5 -228v-471q0 -41 1 -86t3 -82v-8q0 -17 -9 -25t-24 -8h-31q-31 0 -31 37v94h-4q-44 -77 -133.5 -118.5 t-181.5 -41.5q-156 0 -241 79t-85 194q0 143 93.5 219t287.5 88zM650.5 129q94.5 74 94.5 190v158l-196 -8q-206 -11 -279 -60t-73 -159q0 -90 60 -142.5t177 -52.5q122 0 216.5 74zM560 1401q11 15 19.5 23t25.5 8h64q12 0 18.5 -6.5t6.5 -13.5q0 -10 -13 -23l-174 -189 q-11 -12 -23.5 -21.5t-27.5 -9.5h-23q-9 0 -14.5 4.5t-5.5 11.5q0 6 6 15z" />
<glyph unicode="&#xe2;" horiz-adv-x="1004" d="M481 551l264 10v109q0 233 -262 233q-91 0 -143.5 -27t-76.5 -70.5t-30.5 -80.5t-44.5 -37h-16q-36 0 -36 31q0 30 34.5 104t110.5 120t211 46q159 0 251.5 -81t92.5 -228v-471q0 -41 1 -86t3 -82v-8q0 -17 -9 -25t-24 -8h-31q-31 0 -31 37v94h-4q-44 -77 -133.5 -118.5 t-181.5 -41.5q-156 0 -241 79t-85 194q0 143 93.5 219t287.5 88zM650.5 129q94.5 74 94.5 190v158l-196 -8q-206 -11 -279 -60t-73 -159q0 -90 60 -142.5t177 -52.5q122 0 216.5 74zM714 1200q6 -9 6 -15q0 -7 -5.5 -11.5t-15.5 -4.5h-16q-16 0 -28 9.5t-23 21.5l-146 160 l-145 -160q-11 -12 -23.5 -21.5t-27.5 -9.5h-17q-9 0 -14.5 4.5t-5.5 11.5q0 6 6 15l141 201q11 15 19.5 23t25.5 8h82q17 0 25.5 -8t19.5 -23z" />
<glyph unicode="&#xe3;" horiz-adv-x="1004" d="M481 551l264 10v109q0 233 -262 233q-91 0 -143.5 -27t-76.5 -70.5t-30.5 -80.5t-44.5 -37h-16q-36 0 -36 31q0 30 34.5 104t110.5 120t211 46q159 0 251.5 -81t92.5 -228v-471q0 -41 1 -86t3 -82v-8q0 -17 -9 -25t-24 -8h-31q-31 0 -31 37v94h-4q-44 -77 -133.5 -118.5 t-181.5 -41.5q-156 0 -241 79t-85 194q0 143 93.5 219t287.5 88zM650.5 129q94.5 74 94.5 190v158l-196 -8q-206 -11 -279 -60t-73 -159q0 -90 60 -142.5t177 -52.5q122 0 216.5 74zM292 1267q-23 -31 -29.5 -55t-30.5 -24h-6q-14 0 -19.5 8t-5.5 25q0 48 43.5 106.5 t116.5 58.5q35 0 74.5 -15t75.5 -38l31 -19q20 -12 36.5 -18t36.5 -6q40 0 63 31.5t29.5 55.5t30.5 24h6q15 0 20.5 -8t5.5 -23q0 -49 -43.5 -108.5t-115.5 -59.5q-66 0 -140 48t-116 48q-40 0 -63 -31z" />
<glyph unicode="&#xe4;" horiz-adv-x="1004" d="M481 551l264 10v109q0 233 -262 233q-91 0 -143.5 -27t-76.5 -70.5t-30.5 -80.5t-44.5 -37h-16q-36 0 -36 31q0 30 34.5 104t110.5 120t211 46q159 0 251.5 -81t92.5 -228v-471q0 -41 1 -86t3 -82v-8q0 -17 -9 -25t-24 -8h-31q-31 0 -31 37v94h-4q-44 -77 -133.5 -118.5 t-181.5 -41.5q-156 0 -241 79t-85 194q0 143 93.5 219t287.5 88zM650.5 129q94.5 74 94.5 190v158l-196 -8q-206 -11 -279 -60t-73 -159q0 -90 60 -142.5t177 -52.5q122 0 216.5 74zM231 1352.5q24 21.5 56 21.5q35 0 56.5 -23t21.5 -57t-22 -54.5t-56 -20.5q-32 0 -56 20 t-24 57q0 35 24 56.5zM606 1352.5q24 21.5 56 21.5q35 0 56 -23t21 -57t-21.5 -54.5t-55.5 -20.5q-32 0 -56 20t-24 57q0 35 24 56.5z" />
<glyph unicode="&#xe5;" horiz-adv-x="1004" d="M481 551l264 10v109q0 233 -262 233q-91 0 -143.5 -27t-76.5 -70.5t-30.5 -80.5t-44.5 -37h-16q-36 0 -36 31q0 30 34.5 104t110.5 120t211 46q159 0 251.5 -81t92.5 -228v-471q0 -41 1 -86t3 -82v-8q0 -17 -9 -25t-24 -8h-31q-31 0 -31 37v94h-4q-44 -77 -133.5 -118.5 t-181.5 -41.5q-156 0 -241 79t-85 194q0 143 93.5 219t287.5 88zM650.5 129q94.5 74 94.5 190v158l-196 -8q-206 -11 -279 -60t-73 -159q0 -90 60 -142.5t177 -52.5q122 0 216.5 74zM362.5 1460q55.5 56 130.5 56q80 0 135.5 -57t55.5 -134t-55.5 -131.5t-135.5 -54.5 q-77 0 -131.5 53.5t-54.5 132.5t55.5 135zM579.5 1411q-36.5 35 -86.5 35q-49 0 -84 -36t-35 -85q0 -51 35.5 -86t83.5 -35t85.5 34t37.5 87q0 51 -36.5 86z" />
<glyph unicode="&#xe6;" horiz-adv-x="1608" d="M795 776h4q56 103 142.5 158t186.5 55q164 0 265.5 -128.5t101.5 -338.5q0 -34 -10 -45.5t-29 -11.5h-643q2 -186 87.5 -298t232.5 -112q92 0 153 45.5t89 95.5t49 50q6 0 12 -2l28 -15q17 -8 17 -22q0 -27 -52 -92t-127 -104.5t-165 -39.5q-116 0 -210.5 62.5 t-142.5 167.5h-4q-40 -97 -137 -162.5t-225 -65.5q-153 0 -233.5 79.5t-80.5 193.5q0 154 102 229.5t322 75.5h201v121q0 117 -64.5 176t-189.5 59q-87 0 -137 -28t-72.5 -71t-28.5 -80.5t-47 -37.5h-12q-38 0 -38 29q0 25 30.5 99t104.5 122.5t206 48.5q117 0 199.5 -50.5 t114.5 -162.5zM725 332v133h-199q-175 0 -252 -49.5t-77 -165.5q0 -90 59.5 -142.5t165.5 -52.5q122 0 212.5 76t90.5 201zM1403 551q0 159 -77 256.5t-202 97.5q-131 0 -217 -107.5t-88 -246.5h584z" />
<glyph unicode="&#xe7;" horiz-adv-x="987" d="M485 -27q-168 18 -270 149.5t-102 332.5q0 237 123 385.5t296 148.5q109 0 181 -32.5t119.5 -93.5t47.5 -89q0 -15 -20 -24l-22 -13q-9 -5 -17 -5q-16 0 -42.5 47t-83 86.5t-150.5 39.5q-152 0 -244 -125t-92 -319q0 -182 89.5 -294t246.5 -112q88 0 147 42.5t87.5 91.5 t45.5 49q7 0 17 -5l26 -14q16 -8 17 -23q0 -37 -90.5 -126.5t-231.5 -96.5l-53 -82l2 -2q8 2 22 3.5t29 1.5q74 0 122 -38.5t48 -107.5q0 -89 -62 -137.5t-171 -48.5q-20 0 -48 2t-46 6l-23 4q-11 4 -19.5 9t-8.5 15q0 7 3 17l2 8q4 13 9 18.5t18 5.5q4 0 10 -1l50 -5 q25 -3 59 -3q61 0 96 24.5t35 71.5q0 45 -32.5 67.5t-94.5 22.5q-35 0 -56 -3.5t-24 -3.5h-3q-6 0 -11 7l-6 8q-4 5 -4 11v3q0 8 4 13z" />
<glyph unicode="&#xe8;" horiz-adv-x="1061" d="M839.5 859.5q108.5 -129.5 108.5 -337.5q0 -34 -11 -45.5t-30 -11.5h-698q2 -184 96 -297t250 -113q103 0 170 46.5t96.5 95.5t49.5 49q6 0 12 -2l28 -15q16 -8 17 -23v-3q0 -23 -54 -86t-136 -104.5t-183 -41.5q-194 0 -318 141t-124 367q0 224 125 367t313 143 q180 0 288.5 -129.5zM856 549q0 155 -86 255.5t-219 100.5q-139 0 -230 -97.5t-108 -258.5h643zM623 1200q6 -9 6 -16q0 -6 -5 -10.5t-15 -4.5h-22q-16 0 -28.5 9.5t-23.5 21.5l-174 189q-12 12 -12 23q0 7 6.5 13.5t18.5 6.5h63q17 0 25.5 -8t19.5 -23z" />
<glyph unicode="&#xe9;" horiz-adv-x="1061" d="M839.5 859.5q108.5 -129.5 108.5 -337.5q0 -34 -11 -45.5t-30 -11.5h-698q2 -184 96 -297t250 -113q103 0 170 46.5t96.5 95.5t49.5 49q6 0 12 -2l28 -15q16 -8 17 -23v-3q0 -23 -54 -86t-136 -104.5t-183 -41.5q-194 0 -318 141t-124 367q0 224 125 367t313 143 q180 0 288.5 -129.5zM856 549q0 155 -86 255.5t-219 100.5q-139 0 -230 -97.5t-108 -258.5h643zM617 1401q11 15 19.5 23t25.5 8h64q12 0 18.5 -6.5t6.5 -13.5q0 -10 -13 -23l-174 -189q-11 -12 -23.5 -21.5t-27.5 -9.5h-23q-9 0 -14.5 4.5t-5.5 11.5q0 6 6 15z" />
<glyph unicode="&#xea;" horiz-adv-x="1061" d="M839.5 859.5q108.5 -129.5 108.5 -337.5q0 -34 -11 -45.5t-30 -11.5h-698q2 -184 96 -297t250 -113q103 0 170 46.5t96.5 95.5t49.5 49q6 0 12 -2l28 -15q16 -8 17 -23v-3q0 -23 -54 -86t-136 -104.5t-183 -41.5q-194 0 -318 141t-124 367q0 224 125 367t313 143 q180 0 288.5 -129.5zM856 549q0 155 -86 255.5t-219 100.5q-139 0 -230 -97.5t-108 -258.5h643zM765 1200q6 -9 6 -15q0 -7 -5.5 -11.5t-15.5 -4.5h-16q-16 0 -28 9.5t-23 21.5l-146 160l-145 -160q-11 -12 -23.5 -21.5t-27.5 -9.5h-17q-9 0 -14.5 4.5t-5.5 11.5q0 6 6 15 l141 201q11 15 19.5 23t25.5 8h82q17 0 25.5 -8t19.5 -23z" />
<glyph unicode="&#xeb;" horiz-adv-x="1061" d="M839.5 859.5q108.5 -129.5 108.5 -337.5q0 -34 -11 -45.5t-30 -11.5h-698q2 -184 96 -297t250 -113q103 0 170 46.5t96.5 95.5t49.5 49q6 0 12 -2l28 -15q16 -8 17 -23v-3q0 -23 -54 -86t-136 -104.5t-183 -41.5q-194 0 -318 141t-124 367q0 224 125 367t313 143 q180 0 288.5 -129.5zM856 549q0 155 -86 255.5t-219 100.5q-139 0 -230 -97.5t-108 -258.5h643zM300 1352.5q24 21.5 56 21.5q35 0 56.5 -23t21.5 -57t-22 -54.5t-56 -20.5q-32 0 -56 20t-24 57q0 35 24 56.5zM675 1352.5q24 21.5 56 21.5q35 0 56 -23t21 -57t-21.5 -54.5 t-55.5 -20.5q-32 0 -56 20t-24 57q0 35 24 56.5z" />
<glyph unicode="&#xec;" horiz-adv-x="461" d="M184 926q0 37 37 37h17q36 0 36 -37v-889q0 -37 -36 -37h-17q-37 0 -37 37v889zM264 1200q6 -9 6 -16q0 -6 -5 -10.5t-15 -4.5h-22q-16 0 -28.5 9.5t-23.5 21.5l-174 189q-12 12 -12 23q0 7 6.5 13.5t18.5 6.5h63q17 0 25.5 -8t19.5 -23z" />
<glyph unicode="&#xed;" horiz-adv-x="461" d="M184 926q0 37 37 37h17q36 0 36 -37v-889q0 -37 -36 -37h-17q-37 0 -37 37v889zM320 1401q11 15 19.5 23t25.5 8h64q12 0 18.5 -6.5t6.5 -13.5q0 -10 -13 -23l-174 -189q-11 -12 -23.5 -21.5t-27.5 -9.5h-23q-9 0 -14.5 4.5t-5.5 11.5q0 6 6 15z" />
<glyph unicode="&#xee;" horiz-adv-x="461" d="M184 926q0 37 37 37h17q36 0 36 -37v-889q0 -37 -36 -37h-17q-37 0 -37 37v889zM454 1200q6 -9 6 -15q0 -7 -5.5 -11.5t-15.5 -4.5h-16q-16 0 -28 9.5t-23 21.5l-146 160l-145 -160q-11 -12 -23.5 -21.5t-27.5 -9.5h-17q-9 0 -14.5 4.5t-5.5 11.5q0 6 6 15l141 201 q11 15 19.5 23t25.5 8h82q17 0 25.5 -8t19.5 -23z" />
<glyph unicode="&#xef;" horiz-adv-x="461" d="M184 926q0 37 37 37h17q36 0 36 -37v-889q0 -37 -36 -37h-17q-37 0 -37 37v889zM22 1352.5q24 21.5 56 21.5q35 0 56.5 -23t21.5 -57t-22 -54.5t-56 -20.5q-32 0 -56 20t-24 57q0 35 24 56.5zM327 1352.5q24 21.5 56 21.5q35 0 56.5 -23t21.5 -57t-22 -54.5t-56 -20.5 q-32 0 -56 20t-24 57q0 35 24 56.5z" />
<glyph unicode="&#xf0;" horiz-adv-x="1116" d="M811 1460q11 8 21 9q10 0 18 -13l16 -22q6 -9 6 -16q0 -6 -7 -12.5t-15 -12.5l-141 -93q123 -125 177.5 -228t86 -234.5t31.5 -309.5q0 -244 -120 -399.5t-321 -155.5q-200 0 -325 145t-125 363q0 205 122 356.5t324 151.5q112 0 197 -50.5t141 -150.5q-27 125 -85 235 t-179 228l-172 -112q-11 -7 -19 -9h-3q-7 0 -15 11l-18 24q-6 8 -6 16q0 6 5.5 12.5t14.5 12.5l147 97q-42 36 -95.5 65.5t-80 42.5t-26.5 29q0 9 6 20l8 15q5 10 12 15t19 5q18 0 87 -37.5t150 -103.5zM807.5 171.5q95.5 116.5 95.5 307.5q0 189 -93.5 307.5t-250.5 118.5 q-161 0 -255.5 -118t-94.5 -308q0 -189 97 -306.5t253 -117.5q153 0 248.5 116.5zM207 1446z" />
<glyph unicode="&#xf1;" horiz-adv-x="1042" d="M158 926q0 37 39 37h10q18 0 29.5 -9.5t11.5 -27.5v-148h2q48 91 129.5 140t189.5 49q149 0 235.5 -94t86.5 -250v-586q0 -37 -37 -37h-16q-37 0 -37 37v538q0 162 -61 235t-181 73q-135 0 -223 -101.5t-88 -253.5v-491q0 -37 -37 -37h-14q-39 0 -39 37v889zM325 1267 q-23 -31 -29.5 -55t-30.5 -24h-6q-14 0 -19.5 8t-5.5 25q0 48 43.5 106.5t116.5 58.5q35 0 74.5 -15t75.5 -38l31 -19q20 -12 36.5 -18t36.5 -6q40 0 63 31.5t29.5 55.5t30.5 24h6q15 0 20.5 -8t5.5 -23q0 -49 -43.5 -108.5t-115.5 -59.5q-66 0 -140 48t-116 48 q-40 0 -63 -31z" />
<glyph unicode="&#xf2;" horiz-adv-x="1112" d="M874.5 845.5q124.5 -143.5 124.5 -366.5q0 -219 -127.5 -363.5t-316.5 -144.5t-315.5 142.5t-126.5 365.5q0 218 127.5 364t314.5 146q195 0 319.5 -143.5zM807.5 172.5q95.5 117.5 95.5 308.5t-95.5 307.5t-252.5 116.5t-251.5 -118t-94.5 -306q0 -189 95.5 -307.5 t250.5 -118.5q157 0 252.5 117.5zM629 1200q6 -9 6 -16q0 -6 -5 -10.5t-15 -4.5h-22q-16 0 -28.5 9.5t-23.5 21.5l-174 189q-12 12 -12 23q0 7 6.5 13.5t18.5 6.5h63q17 0 25.5 -8t19.5 -23z" />
<glyph unicode="&#xf3;" horiz-adv-x="1112" d="M874.5 845.5q124.5 -143.5 124.5 -366.5q0 -219 -127.5 -363.5t-316.5 -144.5t-315.5 142.5t-126.5 365.5q0 218 127.5 364t314.5 146q195 0 319.5 -143.5zM807.5 172.5q95.5 117.5 95.5 308.5t-95.5 307.5t-252.5 116.5t-251.5 -118t-94.5 -306q0 -189 95.5 -307.5 t250.5 -118.5q157 0 252.5 117.5zM636 1401q11 15 19.5 23t25.5 8h64q12 0 18.5 -6.5t6.5 -13.5q0 -10 -13 -23l-174 -189q-11 -12 -23.5 -21.5t-27.5 -9.5h-23q-9 0 -14.5 4.5t-5.5 11.5q0 6 6 15z" />
<glyph unicode="&#xf4;" horiz-adv-x="1112" d="M874.5 845.5q124.5 -143.5 124.5 -366.5q0 -219 -127.5 -363.5t-316.5 -144.5t-315.5 142.5t-126.5 365.5q0 218 127.5 364t314.5 146q195 0 319.5 -143.5zM807.5 172.5q95.5 117.5 95.5 308.5t-95.5 307.5t-252.5 116.5t-251.5 -118t-94.5 -306q0 -189 95.5 -307.5 t250.5 -118.5q157 0 252.5 117.5zM780 1200q6 -9 6 -15q0 -7 -5.5 -11.5t-15.5 -4.5h-16q-16 0 -28 9.5t-23 21.5l-146 160l-145 -160q-11 -12 -23.5 -21.5t-27.5 -9.5h-17q-9 0 -14.5 4.5t-5.5 11.5q0 6 6 15l141 201q11 15 19.5 23t25.5 8h82q17 0 25.5 -8t19.5 -23z" />
<glyph unicode="&#xf5;" horiz-adv-x="1112" d="M874.5 845.5q124.5 -143.5 124.5 -366.5q0 -219 -127.5 -363.5t-316.5 -144.5t-315.5 142.5t-126.5 365.5q0 218 127.5 364t314.5 146q195 0 319.5 -143.5zM807.5 172.5q95.5 117.5 95.5 308.5t-95.5 307.5t-252.5 116.5t-251.5 -118t-94.5 -306q0 -189 95.5 -307.5 t250.5 -118.5q157 0 252.5 117.5zM364 1267q-23 -31 -29.5 -55t-30.5 -24h-6q-14 0 -19.5 8t-5.5 25q0 48 43.5 106.5t116.5 58.5q35 0 74.5 -15t75.5 -38l31 -19q20 -12 36.5 -18t36.5 -6q40 0 63 31.5t29.5 55.5t30.5 24h6q15 0 20.5 -8t5.5 -23q0 -49 -43.5 -108.5 t-115.5 -59.5q-66 0 -140 48t-116 48q-40 0 -63 -31z" />
<glyph unicode="&#xf6;" horiz-adv-x="1112" d="M874.5 845.5q124.5 -143.5 124.5 -366.5q0 -219 -127.5 -363.5t-316.5 -144.5t-315.5 142.5t-126.5 365.5q0 218 127.5 364t314.5 146q195 0 319.5 -143.5zM807.5 172.5q95.5 117.5 95.5 308.5t-95.5 307.5t-252.5 116.5t-251.5 -118t-94.5 -306q0 -189 95.5 -307.5 t250.5 -118.5q157 0 252.5 117.5zM313 1352.5q24 21.5 56 21.5q35 0 56.5 -23t21.5 -57t-22 -54.5t-56 -20.5q-32 0 -56 20t-24 57q0 35 24 56.5zM688 1352.5q24 21.5 56 21.5q35 0 56 -23t21 -57t-21.5 -54.5t-55.5 -20.5q-32 0 -56 20t-24 57q0 35 24 56.5z" />
<glyph unicode="&#xf7;" d="M877 545q17 0 24.5 -5.5t7.5 -19.5v-35q0 -14 -7.5 -19t-24.5 -5h-779q-18 0 -27.5 5t-9.5 19v35q0 14 9.5 19.5t27.5 5.5h779zM429.5 859.5q23.5 21.5 55.5 21.5q35 0 56.5 -23t21.5 -57t-22 -55t-56 -21q-32 0 -55.5 20.5t-23.5 57.5q0 35 23.5 56.5zM429.5 259.5 q23.5 21.5 55.5 21.5q35 0 56.5 -23t21.5 -57t-22 -55t-56 -21q-32 0 -55.5 20.5t-23.5 57.5q0 35 23.5 56.5z" />
<glyph unicode="&#xf8;" horiz-adv-x="1112" d="M188 176q-37 62 -57 137.5t-20 165.5q0 218 127.5 364t314.5 146q97 0 177 -37t138 -102l105 102q11 14 21 14q11 0 20 -14l12 -14q8 -10 8 -19q0 -6 -4.5 -13t-11.5 -13l-105 -102q41 -65 62.5 -143.5t21.5 -168.5q0 -219 -127.5 -363.5t-316.5 -144.5q-94 0 -175.5 37 t-141.5 105l-103 -103q-11 -11 -21 -11l-2 1q-11 0 -20 10l-12 17q-7 9 -7 17q0 6 3.5 13.5t9.5 14.5zM852 727l-559 -557q45 -56 110 -85.5t150 -29.5q157 0 252.5 117.5t95.5 308.5q0 73 -12 135t-37 111zM252 238l559 555q-45 54 -109 83t-149 29q-157 0 -251.5 -118 t-94.5 -306q0 -72 11 -133t34 -110z" />
<glyph unicode="&#xf9;" horiz-adv-x="1044" d="M152 926q0 37 36 37h17q37 0 37 -37v-539q0 -162 57.5 -234.5t185.5 -72.5q136 0 224 101.5t88 252.5v492q0 37 37 37h14q18 0 28.5 -9.5t10.5 -27.5v-889q0 -19 -10.5 -28t-33.5 -9q-46 0 -46 37v147h-2q-48 -91 -130.5 -139.5t-191.5 -48.5q-148 0 -234.5 92t-86.5 252 v586zM595 1200q6 -9 6 -16q0 -6 -5 -10.5t-15 -4.5h-22q-16 0 -28.5 9.5t-23.5 21.5l-174 189q-12 12 -12 23q0 7 6.5 13.5t18.5 6.5h63q17 0 25.5 -8t19.5 -23z" />
<glyph unicode="&#xfa;" horiz-adv-x="1044" d="M152 926q0 37 36 37h17q37 0 37 -37v-539q0 -162 57.5 -234.5t185.5 -72.5q136 0 224 101.5t88 252.5v492q0 37 37 37h14q18 0 28.5 -9.5t10.5 -27.5v-889q0 -19 -10.5 -28t-33.5 -9q-46 0 -46 37v147h-2q-48 -91 -130.5 -139.5t-191.5 -48.5q-148 0 -234.5 92t-86.5 252 v586zM601 1401q11 15 19.5 23t25.5 8h64q12 0 18.5 -6.5t6.5 -13.5q0 -10 -13 -23l-174 -189q-11 -12 -23.5 -21.5t-27.5 -9.5h-23q-9 0 -14.5 4.5t-5.5 11.5q0 6 6 15z" />
<glyph unicode="&#xfb;" horiz-adv-x="1044" d="M152 926q0 37 36 37h17q37 0 37 -37v-539q0 -162 57.5 -234.5t185.5 -72.5q136 0 224 101.5t88 252.5v492q0 37 37 37h14q18 0 28.5 -9.5t10.5 -27.5v-889q0 -19 -10.5 -28t-33.5 -9q-46 0 -46 37v147h-2q-48 -91 -130.5 -139.5t-191.5 -48.5q-148 0 -234.5 92t-86.5 252 v586zM755 1200q6 -9 6 -15q0 -7 -5.5 -11.5t-15.5 -4.5h-16q-16 0 -28 9.5t-23 21.5l-146 160l-145 -160q-11 -12 -23.5 -21.5t-27.5 -9.5h-17q-9 0 -14.5 4.5t-5.5 11.5q0 6 6 15l141 201q11 15 19.5 23t25.5 8h82q17 0 25.5 -8t19.5 -23z" />
<glyph unicode="&#xfc;" horiz-adv-x="1044" d="M152 926q0 37 36 37h17q37 0 37 -37v-539q0 -162 57.5 -234.5t185.5 -72.5q136 0 224 101.5t88 252.5v492q0 37 37 37h14q18 0 28.5 -9.5t10.5 -27.5v-889q0 -19 -10.5 -28t-33.5 -9q-46 0 -46 37v147h-2q-48 -91 -130.5 -139.5t-191.5 -48.5q-148 0 -234.5 92t-86.5 252 v586zM280 1352.5q24 21.5 56 21.5q35 0 56.5 -23t21.5 -57t-22 -54.5t-56 -20.5q-32 0 -56 20t-24 57q0 35 24 56.5zM655 1352.5q24 21.5 56 21.5q35 0 56 -23t21 -57t-21.5 -54.5t-55.5 -20.5q-32 0 -56 20t-24 57q0 35 24 56.5z" />
<glyph unicode="&#xfd;" horiz-adv-x="895" d="M51 913q-5 13 -5 22q0 13 8.5 20.5t25.5 7.5h20q17 0 27.5 -9.5t18.5 -27.5l292 -776h4l299 776q8 17 17 27t26 10h27q14 0 22.5 -7t8.5 -19q0 -11 -6 -26l-504 -1288q-8 -15 -15 -24t-24 -9h-31q-18 0 -27.5 8t-9.5 18q0 5 2 11l164 398zM515 1401q11 15 19.5 23t25.5 8 h64q12 0 18.5 -6.5t6.5 -13.5q0 -10 -13 -23l-174 -189q-11 -12 -23.5 -21.5t-27.5 -9.5h-23q-9 0 -14.5 4.5t-5.5 11.5q0 6 6 15z" />
<glyph unicode="&#xfe;" horiz-adv-x="1122" d="M158 1409q0 37 39 37h14q37 0 37 -37v-637h2q43 98 133 157.5t207 59.5q184 0 302 -142t118 -368q0 -217 -121 -362.5t-303 -145.5q-113 0 -201.5 52.5t-134.5 148.5h-2v-543q0 -20 -11 -29.5t-26 -9.5h-14q-16 0 -27.5 9.5t-11.5 27.5v1782zM820.5 173 q92.5 118 92.5 308q0 194 -89 309t-242 115q-150 0 -239 -117.5t-89 -306.5q0 -196 86.5 -311t241.5 -115q146 0 238.5 118z" />
<glyph unicode="&#xff;" horiz-adv-x="895" d="M51 913q-5 13 -5 22q0 13 8.5 20.5t25.5 7.5h20q17 0 27.5 -9.5t18.5 -27.5l292 -776h4l299 776q8 17 17 27t26 10h27q14 0 22.5 -7t8.5 -19q0 -11 -6 -26l-504 -1288q-8 -15 -15 -24t-24 -9h-31q-18 0 -27.5 8t-9.5 18q0 5 2 11l164 398zM200 1352.5q24 21.5 56 21.5 q35 0 56.5 -23t21.5 -57t-22 -54.5t-56 -20.5q-32 0 -56 20t-24 57q0 35 24 56.5zM575 1352.5q24 21.5 56 21.5q35 0 56 -23t21 -57t-21.5 -54.5t-55.5 -20.5q-32 0 -56 20t-24 57q0 35 24 56.5z" />
<glyph unicode="&#x131;" horiz-adv-x="461" d="M184 926q0 37 37 37h17q36 0 36 -37v-889q0 -37 -36 -37h-17q-37 0 -37 37v889z" />
<glyph unicode="&#x152;" horiz-adv-x="1798" d="M1004 295q-62 -156 -171.5 -239t-248.5 -83q-227 0 -362.5 198t-135.5 527q0 320 138 520.5t360 200.5q149 0 256.5 -76.5t163.5 -228.5v242q0 37 36 37h619q35 0 35 -37v-15q0 -38 -33 -38h-565v-537h495q33 0 33 -37v-16q0 -37 -33 -37h-495v-586h577q35 0 35 -39v-14 q0 -37 -37 -37h-631q-36 0 -36 37v258zM894 238q110 179 110 473q0 301 -106.5 461.5t-299.5 160.5q-188 0 -301 -170t-113 -465q0 -300 109.5 -469.5t300.5 -169.5q190 0 300 179z" />
<glyph unicode="&#x153;" horiz-adv-x="1722" d="M737.5 917.5q94.5 -71.5 143.5 -200.5h4q46 130 140 201t218 71q164 0 265.5 -128.5t101.5 -338.5q0 -34 -10 -45.5t-27 -11.5h-649q2 -186 87.5 -298t229.5 -112q91 0 151.5 44t90 95.5t50.5 51.5q5 0 11 -2l29 -15q17 -8 17 -22q0 -28 -53 -93.5t-126.5 -104 t-165.5 -38.5q-124 0 -220.5 72t-141.5 197h-6q-51 -125 -144.5 -197t-214.5 -72q-175 0 -290 143t-115 365q0 219 116.5 364.5t288.5 145.5q125 0 219.5 -71.5zM751 172.5q87 117.5 87 308.5q0 189 -86 306.5t-230 117.5q-143 0 -228 -117.5t-85 -306.5q0 -191 87 -308.5 t226 -117.5q142 0 229 117.5zM1518 549q0 154 -79 255t-202 101q-130 0 -214 -102t-95 -254h590z" />
<glyph unicode="&#x178;" horiz-adv-x="997" d="M455 586l-418 749q-12 18 -12 32q0 12 7.5 19t24.5 7h21q15 0 28 -8t25 -29l371 -697l366 695q14 22 25 30.5t31 8.5h14q15 0 22.5 -6t7.5 -19q0 -14 -11 -31l-412 -751v-549q0 -19 -11 -28t-26 -9h-16q-16 0 -26.5 9t-10.5 28v549zM264 1674.5q24 21.5 56 21.5 q35 0 56.5 -23t21.5 -57t-22 -54.5t-56 -20.5q-32 0 -56 20t-24 57q0 35 24 56.5zM639 1674.5q24 21.5 56 21.5q35 0 56 -23t21 -57t-21.5 -54.5t-55.5 -20.5q-32 0 -56 20t-24 57q0 35 24 56.5z" />
<glyph unicode="&#x2c6;" horiz-adv-x="449" d="M450 1200q6 -9 6 -15q0 -7 -5.5 -11.5t-15.5 -4.5h-16q-16 0 -28 9.5t-23 21.5l-146 160l-145 -160q-11 -12 -23.5 -21.5t-27.5 -9.5h-17q-9 0 -14.5 4.5t-5.5 11.5q0 6 6 15l141 201q11 15 19.5 23t25.5 8h82q17 0 25.5 -8t19.5 -23z" />
<glyph unicode="&#x2da;" horiz-adv-x="449" d="M90.5 1460q55.5 56 130.5 56q80 0 135.5 -57t55.5 -134t-55.5 -131.5t-135.5 -54.5q-77 0 -131.5 53.5t-54.5 132.5t55.5 135zM307.5 1411q-36.5 35 -86.5 35q-49 0 -84 -36t-35 -85q0 -51 35.5 -86t83.5 -35t85.5 34t37.5 87q0 51 -36.5 86z" />
<glyph unicode="&#x2dc;" horiz-adv-x="449" d="M34 1267q-23 -31 -29.5 -55t-30.5 -24h-6q-14 0 -19.5 8t-5.5 25q0 48 43.5 106.5t116.5 58.5q35 0 74.5 -15t75.5 -38l31 -19q20 -12 36.5 -18t36.5 -6q40 0 63 31.5t29.5 55.5t30.5 24h6q15 0 20.5 -8t5.5 -23q0 -49 -43.5 -108.5t-115.5 -59.5q-66 0 -140 48t-116 48 q-40 0 -63 -31z" />
<glyph unicode="&#x2000;" horiz-adv-x="932" />
<glyph unicode="&#x2001;" horiz-adv-x="1864" />
<glyph unicode="&#x2002;" horiz-adv-x="932" />
<glyph unicode="&#x2003;" horiz-adv-x="1864" />
<glyph unicode="&#x2004;" horiz-adv-x="621" />
<glyph unicode="&#x2005;" horiz-adv-x="466" />
<glyph unicode="&#x2006;" horiz-adv-x="310" />
<glyph unicode="&#x2007;" horiz-adv-x="310" />
<glyph unicode="&#x2008;" horiz-adv-x="233" />
<glyph unicode="&#x2009;" horiz-adv-x="372" />
<glyph unicode="&#x200a;" horiz-adv-x="103" />
<glyph unicode="&#x2010;" horiz-adv-x="664" d="M143 428q-15 0 -26 10.5t-11 26.5v27q0 15 11 25.5t26 10.5h377q16 0 26.5 -10.5t10.5 -25.5v-27q0 -16 -10.5 -26.5t-26.5 -10.5h-377z" />
<glyph unicode="&#x2011;" horiz-adv-x="664" d="M143 428q-15 0 -26 10.5t-11 26.5v27q0 15 11 25.5t26 10.5h377q16 0 26.5 -10.5t10.5 -25.5v-27q0 -16 -10.5 -26.5t-26.5 -10.5h-377z" />
<glyph unicode="&#x2012;" horiz-adv-x="664" d="M143 428q-15 0 -26 10.5t-11 26.5v27q0 15 11 25.5t26 10.5h377q16 0 26.5 -10.5t10.5 -25.5v-27q0 -16 -10.5 -26.5t-26.5 -10.5h-377z" />
<glyph unicode="&#x2013;" horiz-adv-x="950" d="M0 477q-15 0 -26 11t-11 26v27q0 15 11 26t26 11h950q16 0 26.5 -11t10.5 -26v-27q0 -15 -10.5 -26t-26.5 -11h-950z" />
<glyph unicode="&#x2014;" horiz-adv-x="1974" d="M410 477q-16 0 -26.5 11t-10.5 26v27q0 15 10.5 26t26.5 11h1155q15 0 26 -11t11 -26v-27q0 -15 -11 -26t-26 -11h-1155z" />
<glyph unicode="&#x2018;" horiz-adv-x="438" d="M116 1010q-10 4 -15 13.5t-5 18.5q0 7 3 13l179 329q7 13 15.5 20.5t18.5 7.5q7 0 15 -3l6 -2q10 -3 16 -9.5t6 -15.5q0 -10 -8 -26l-149 -332q-5 -13 -16.5 -19.5t-23.5 -6.5q-5 0 -9 1z" />
<glyph unicode="&#x2019;" horiz-adv-x="438" d="M327 1393q10 -4 15 -12.5t5 -18.5q0 -7 -4 -14l-178 -330q-7 -13 -15.5 -20.5t-18.5 -7.5q-7 0 -15 3l-6 2q-11 3 -17 10t-6 16q0 10 8 26l150 331q5 14 16.5 20t23.5 6q4 0 9 -1z" />
<glyph unicode="&#x201a;" horiz-adv-x="438" d="M327 156q10 -4 15 -12.5t5 -18.5q0 -7 -4 -14l-178 -330q-7 -13 -15.5 -20.5t-18.5 -7.5q-7 0 -15 3l-6 2q-11 3 -17 10t-6 16q0 10 8 26l150 331q5 14 16.5 20t23.5 6q4 0 9 -1z" />
<glyph unicode="&#x201c;" horiz-adv-x="786" d="M116 1010q-10 4 -15 13.5t-5 18.5q0 7 3 13l179 329q7 13 15.5 20.5t18.5 7.5q7 0 15 -3l6 -2q10 -3 16 -9.5t6 -15.5q0 -10 -8 -26l-149 -332q-5 -13 -16.5 -19.5t-23.5 -6.5q-5 0 -9 1zM454 1010q-11 4 -15.5 13t-4.5 18q0 8 3 14l178 329q7 13 16 20.5t19 7.5 q7 0 15 -3l6 -2q10 -3 16 -9.5t6 -15.5q0 -10 -8 -26l-149 -332q-6 -13 -17.5 -19.5t-23.5 -6.5q-5 0 -9 1z" />
<glyph unicode="&#x201d;" horiz-adv-x="786" d="M665 1393q9 -4 14 -13.5t5 -18.5q0 -7 -3 -13l-178 -330q-7 -13 -15.5 -20.5t-18.5 -7.5q-7 0 -15 3l-6 2q-11 3 -17 10t-6 16q0 10 8 26l150 331q5 14 16.5 20t23.5 6q4 0 9 -1zM327 1393q10 -4 15 -12.5t5 -18.5q0 -7 -4 -14l-178 -330q-7 -13 -15.5 -20.5t-18.5 -7.5 q-7 0 -15 3l-6 2q-11 3 -17 10t-6 16q0 10 8 26l150 331q5 14 16.5 20t23.5 6q4 0 9 -1z" />
<glyph unicode="&#x201e;" horiz-adv-x="786" d="M665 156q9 -4 14 -13.5t5 -18.5q0 -7 -3 -13l-178 -330q-7 -13 -15.5 -20.5t-18.5 -7.5q-7 0 -15 3l-6 2q-11 3 -17 10t-6 16q0 10 8 26l150 331q5 14 16.5 20t23.5 6q4 0 9 -1zM327 156q10 -4 15 -12.5t5 -18.5q0 -7 -4 -14l-178 -330q-7 -13 -15.5 -20.5t-18.5 -7.5 q-7 0 -15 3l-6 2q-11 3 -17 10t-6 16q0 10 8 26l150 331q5 14 16.5 20t23.5 6q4 0 9 -1z" />
<glyph unicode="&#x2022;" horiz-adv-x="950" d="M213.5 982q109.5 108 261.5 108t261.5 -108t109.5 -261t-109 -262t-262 -109t-262 109t-109 262t109.5 261z" />
<glyph unicode="&#x2026;" horiz-adv-x="1493" d="M1341 133.5q25 -26.5 25 -61.5t-25 -61.5t-61 -26.5q-37 0 -62.5 25.5t-25.5 62.5t25.5 62.5t62.5 25.5q36 0 61 -26.5zM272 133.5q25 -26.5 25 -61.5t-25 -61.5t-61 -26.5q-37 0 -62.5 25.5t-25.5 62.5t25.5 62.5t62.5 25.5q36 0 61 -26.5zM806 134.5q25 -25.5 25 -62.5 t-25 -62.5t-61 -25.5q-37 0 -62.5 25.5t-25.5 62.5t25.5 62.5t62.5 25.5q36 0 61 -25.5z" />
<glyph unicode="&#x202f;" horiz-adv-x="372" />
<glyph unicode="&#x2039;" horiz-adv-x="602" d="M322 809q8 14 18 23.5t27 9.5h24q11 0 20 -6t9 -14q0 -6 -4 -13l-183 -299l181 -309q4 -8 4 -13q0 -9 -9 -14.5t-20 -5.5h-24q-17 0 -27.5 9.5t-18.5 23.5l-161 278q-8 13 -8 31q0 11 2.5 18.5t5.5 12.5z" />
<glyph unicode="&#x203a;" horiz-adv-x="602" d="M439 541q9 -11 9 -31q0 -18 -9 -31l-161 -278q-8 -14 -18 -23.5t-27 -9.5h-25q-11 0 -20 5.5t-9 14.5q0 5 4 13l181 309l-183 299q-4 7 -4 13q0 8 9 14t20 6h25q17 0 27 -9.5t18 -23.5z" />
<glyph unicode="&#x205f;" horiz-adv-x="466" />
<glyph unicode="&#x20ac;" d="M197 903q40 231 191 373.5t370 142.5q53 0 105 -7.5t52 -36.5q0 -7 -2 -15l-2 -12q-2 -13 -9 -20t-22 -7l-4 1q-7 0 -34 3.5t-34 4.5l-28 2q-14 0 -24 1q-186 0 -306.5 -118t-154.5 -312h455q14 0 22.5 -5t8.5 -16q0 -4 -1 -8l-6 -32q-6 -29 -43 -29h-450 q-3 -31 -5 -57.5t-2 -44.5l4 -87q0 -16 3 -28h422q15 0 24 -5t9 -17q0 -3 -1 -7l-6 -32q-6 -29 -41 -29h-397q34 -212 147.5 -325t288.5 -113q29 0 54 3t45 7l33 7q13 3 20 3q11 0 20 -5.5t14 -21.5l3 -4q3 -9 3 -16q0 -34 -66.5 -47.5t-115.5 -13.5q-220 0 -365.5 143 t-178.5 383h-121q-14 0 -21 5t-7 16q0 5 1 10l6 26q3 19 14 26t29 7h86l-3 76q0 14 -1 33q0 31 1.5 55t4.5 53h-110q-14 0 -21 5t-7 16q0 5 1 10l6 26q3 19 14 26t29 7h103z" />
<glyph unicode="&#x2122;" horiz-adv-x="1716" d="M1485 666q0 -37 -35 -37t-35 37v637l-260 -654q-10 -20 -28 -20q-10 0 -15.5 4t-11.5 18l-266 652v-637q0 -37 -35 -37t-35 37v690q0 17 11 27t28 10h37q33 0 45 -31l243 -602l238 600q6 14 16 23.5t27 9.5h37q17 0 28 -8t11 -29v-690zM371 629q-33 0 -33 37v655h-184 q-14 0 -20.5 9.5t-6.5 23.5v8q0 11 5.5 21t21.5 10h446q11 0 18 -7t7 -24v-8q0 -14 -5.5 -23.5t-19.5 -9.5h-186v-655q0 -37 -33 -37h-10z" />
<glyph unicode="&#x25fc;" horiz-adv-x="965" d="M0 965h965v-965h-965v965z" />
<glyph unicode="&#xe000;" horiz-adv-x="449" d="M357 1546q6 -9 6 -16q0 -5 -5 -9.5t-15 -4.5h-22q-16 0 -28.5 9t-23.5 21l-174 189q-12 12 -12 23q0 7 6.5 13.5t18.5 6.5h63q17 0 25.5 -8t19.5 -23z" />
<glyph unicode="&#xe002;" horiz-adv-x="449" d="M224 1747q11 15 19.5 23t25.5 8h64q12 0 18.5 -6.5t6.5 -13.5q0 -10 -13 -23l-174 -189q-11 -12 -23.5 -21t-27.5 -9h-23q-9 0 -14.5 4.5t-5.5 10.5t6 15z" />
<glyph unicode="&#xe004;" horiz-adv-x="449" d="M450 1548q6 -9 6 -15t-5.5 -10.5t-15.5 -4.5h-16q-16 0 -28 9t-23 21l-146 160l-145 -160q-11 -12 -23.5 -21t-27.5 -9h-17q-9 0 -14.5 4.5t-5.5 10.5t6 15l141 201q11 15 19.5 23t25.5 8h82q17 0 25.5 -8t19.5 -23z" />
<glyph unicode="&#xe009;" horiz-adv-x="449" d="M34 1611q-23 -31 -29.5 -55t-30.5 -24h-6q-14 0 -19.5 8t-5.5 25q0 50 44.5 108t115.5 58q32 0 69 -13t81 -41l31 -19q20 -12 36.5 -18t36.5 -6q40 0 63 31.5t29.5 55.5t30.5 24h6q15 0 20.5 -8t5.5 -23q0 -49 -43.5 -108.5t-115.5 -59.5q-66 0 -140 48t-116 48 q-40 0 -63 -31z" />
<glyph unicode="&#xe00b;" horiz-adv-x="449" d="M-19 1674.5q24 21.5 56 21.5q35 0 56.5 -23t21.5 -57t-22 -55t-56 -21q-32 0 -56 20.5t-24 57.5q0 35 24 56.5zM356 1674.5q24 21.5 56 21.5q35 0 56 -23t21 -57t-21.5 -55t-55.5 -21q-32 0 -56 20.5t-24 57.5q0 35 24 56.5z" />
<glyph unicode="&#xe011;" horiz-adv-x="449" d="M90.5 1808q55.5 56 130.5 56q80 0 135.5 -57t55.5 -134t-55.5 -131.5t-135.5 -54.5q-77 0 -131.5 53.5t-54.5 132.5t55.5 135zM307.5 1759q-36.5 35 -86.5 35q-49 0 -84 -36t-35 -85t35 -85t84 -36q50 0 86.5 35t36.5 86t-36.5 86z" />
<glyph unicode="&#xfb01;" horiz-adv-x="1018" d="M732.5 1363q23.5 21 55.5 21q36 0 57 -22.5t21 -56.5t-22 -55t-56 -21q-32 0 -55.5 20t-23.5 58q0 35 23.5 56zM741 926q0 37 37 37h17q36 0 36 -37v-889q0 -37 -36 -37h-17q-37 0 -37 37v889zM199 874h-174q-19 0 -28 7.5t-9 25.5v21q0 20 9 27.5t28 7.5h174v55 q0 208 63.5 318t204.5 110q72 0 95.5 -8t23.5 -45q0 -24 -8.5 -30.5t-22.5 -6.5q-9 0 -17 1l-18 2l-25 2q-15 0 -36 1q-88 0 -129 -83.5t-41 -266.5v-49h254q17 0 24.5 -7.5t7.5 -25.5v-23q0 -18 -7.5 -25.5t-24.5 -7.5h-254v-837q0 -37 -35 -37h-18q-37 0 -37 37v837z" />
<glyph unicode="&#xfb02;" horiz-adv-x="1018" d="M741 1409q0 37 37 37h17q36 0 36 -37v-1372q0 -37 -36 -37h-17q-37 0 -37 37v1372zM199 874h-174q-19 0 -28 7.5t-9 25.5v21q0 20 9 27.5t28 7.5h174v55q0 208 63.5 318t204.5 110q72 0 95.5 -8t23.5 -45q0 -24 -8.5 -30.5t-22.5 -6.5q-9 0 -17 1l-18 2l-25 2 q-15 0 -36 1q-88 0 -129 -83.5t-41 -266.5v-49h254q17 0 24.5 -7.5t7.5 -25.5v-23q0 -18 -7.5 -25.5t-24.5 -7.5h-254v-837q0 -37 -35 -37h-18q-37 0 -37 37v837z" />
</font>
</defs>
</svg>
