<?xml version="1.0" standalone="no"?>
<!DOCTYPE svg PUBLIC "-//W3C//DTD SVG 1.1//EN" "http://www.w3.org/Graphics/SVG/1.1/DTD/svg11.dtd" >
<svg xmlns="http://www.w3.org/2000/svg">
<metadata></metadata>
<defs>
<font id="neuzeit_for_plymouthbold" horiz-adv-x="995" >
<font-face units-per-em="2048" ascent="1542" descent="-506" />
<missing-glyph horiz-adv-x="467" />
<glyph horiz-adv-x="2048" />
<glyph horiz-adv-x="2048" />
<glyph unicode="&#xd;" horiz-adv-x="541" />
<glyph unicode=" "  horiz-adv-x="467" />
<glyph unicode="&#x09;" horiz-adv-x="467" />
<glyph unicode="&#xa0;" horiz-adv-x="467" />
<glyph unicode="!" horiz-adv-x="664" d="M281 477q-34 0 -58 15.5t-24 62.5v760q0 47 24 62.5t58 15.5h104q34 0 57 -15.5t23 -62.5v-760q0 -47 -23 -62.5t-57 -15.5h-104zM178 133q0 33 11.5 61.5t32.5 49.5t49 33t61 12t61 -12t48.5 -33t32 -49.5t11.5 -61.5q0 -32 -11.5 -60t-32 -49.5t-48.5 -34t-61 -12.5 t-61 12.5t-49 34t-32.5 49.5t-11.5 60z" />
<glyph unicode="&#x22;" horiz-adv-x="819" d="M518 877q-15 0 -29 4t-23.5 13t-13.5 24t-1 36l55 361q6 40 31 59t59 19h37q15 0 29 -4t23.5 -13.5t13.5 -24.5t1 -36l-55 -361q-6 -40 -31 -58.5t-59 -18.5h-37zM188 877q-31 0 -52 17t-15 60l53 361q6 42 31.5 60t60.5 18h35q31 0 52.5 -17.5t15.5 -60.5l-54 -361 q-6 -42 -31.5 -59.5t-60.5 -17.5h-35z" />
<glyph unicode="#" d="M215 399h-76q-34 0 -57 13t-23 45v45q0 32 23 44.5t57 12.5h99l30 252h-75q-35 0 -57.5 12.5t-22.5 44.5v45q0 32 22.5 45t57.5 13h94l41 321q5 34 21 56t50 22h45q15 0 26 -6.5t17 -17.5t8 -25t1 -29l-39 -321h168l39 321q5 34 20 56t49 22h49q32 0 43.5 -23.5 t8.5 -54.5l-41 -321h61q34 0 57 -13t23 -45v-45q0 -32 -23 -44.5t-57 -12.5h-82l-31 -252h60q34 0 57 -12.5t23 -44.5v-45q0 -32 -23 -45t-57 -13h-82l-41 -321q-5 -34 -20.5 -56t-49.5 -22h-45q-32 0 -43 23.5t-8 54.5l39 321h-166l-41 -321q-5 -34 -20.5 -56t-49.5 -22 h-47q-15 0 -25.5 6.5t-16.5 17.5t-8.5 25t-0.5 29zM573 559l29 252h-166l-30 -252h167z" />
<glyph unicode="$" d="M78 317q-2 15 -0.5 29.5t9 25t22 17t38.5 6.5h89q35 0 53 -22t26 -56q11 -51 39 -84.5t80 -39.5v403q-40 14 -81.5 29.5t-80.5 37t-74 50t-60.5 68.5t-40.5 92.5t-15 121.5q0 87 24 155t69.5 117.5t111 80.5t147.5 43v96q0 23 10 35t33 12h29q37 0 37 -47v-94 q58 -4 114 -20t102.5 -49.5t80.5 -87t49 -132.5q2 -15 0 -29t-9.5 -25t-22 -17.5t-36.5 -6.5h-88q-19 0 -32 5.5t-22.5 16t-16.5 24.5t-13 32q-15 45 -44.5 65.5t-61.5 26.5v-391q75 -25 142 -54t117 -74t79.5 -111.5t29.5 -166.5q0 -110 -35.5 -186.5t-90 -125t-119.5 -72 t-123 -27.5v-170q0 -47 -41 -47h-25q-23 0 -33 12t-10 35v170q-57 0 -115.5 16t-107.5 54.5t-85 101.5t-48 157zM543 193q60 6 98.5 55.5t38.5 134.5q0 45 -9.5 75t-27.5 50.5t-43.5 34t-56.5 24.5v-374zM434 1196q-20 -4 -41.5 -15.5t-39.5 -32.5t-30 -52.5t-12 -75.5 q0 -45 10.5 -76t27.5 -51.5t39 -33t46 -21.5v358z" />
<glyph unicode="%" horiz-adv-x="1618" d="M1069 1346q17 28 35 45.5t55 17.5h25q25 0 40 -17.5t3 -48.5l-690 -1314q-16 -31 -39 -49.5t-60 -18.5h-20q-13 0 -25 4.5t-19.5 13.5t-8.5 21.5t8 28.5zM432 684q-65 0 -120 22t-95 66t-63 110.5t-23 155.5q0 90 23 156.5t63 111t95 66t120 21.5q63 0 117.5 -21.5 t95 -66t63.5 -111t23 -156.5q0 -89 -23 -155.5t-63.5 -110.5t-95 -66t-117.5 -22zM432 834q29 0 47 17t28 45.5t13.5 65.5t3.5 76q0 40 -3.5 77t-13.5 65.5t-28 45.5t-47 17q-30 0 -49 -17t-29.5 -45.5t-14 -65.5t-3.5 -77q0 -39 3.5 -76t14 -65.5t29.5 -45.5t49 -17z M887 332q0 89 23 155t63 110t94.5 65.5t118.5 21.5t119 -21.5t95.5 -65.5t63.5 -110t23 -155q0 -90 -23 -156.5t-63.5 -111t-95.5 -66t-119 -21.5t-118.5 21.5t-94.5 66t-63 111t-23 156.5zM1094 332q0 -40 3.5 -77.5t13.5 -66t28 -46t47 -17.5q30 0 48.5 17.5t29 46 t14.5 66t4 77.5q0 39 -4 76t-14.5 65.5t-29 46t-48.5 17.5q-29 0 -47 -17.5t-28 -46t-13.5 -65.5t-3.5 -76z" />
<glyph unicode="&#x26;" horiz-adv-x="1274" d="M80 381q0 86 24.5 155t64 122.5t89 92t100.5 62.5q-54 72 -79 134t-25 128q0 64 24.5 122t68.5 101.5t106.5 69t138.5 25.5q86 0 149.5 -25t105.5 -65.5t62.5 -93t20.5 -107.5q0 -63 -17.5 -113t-49.5 -91.5t-78 -76t-103 -65.5l219 -295q16 28 26 73t13 99q3 32 22 55 t66 23h82q25 0 40.5 -6.5t23 -17t9.5 -25t1 -29.5q-13 -96 -47 -189t-86 -168l155 -204q10 -14 11 -27t-5 -23t-18 -16t-27 -6h-157q-18 0 -31.5 4.5t-24 12.5t-20 19t-19.5 25l-26 35q-27 -22 -63.5 -44t-81 -39.5t-96.5 -28.5t-111 -11q-110 0 -195 30t-143.5 84 t-88.5 129t-30 165zM340 418q0 -46 15 -85.5t42.5 -69t67.5 -46t90 -16.5q60 0 109 19t81 54l-272 379q-72 -40 -102.5 -97.5t-30.5 -137.5zM498 1081q0 -40 15 -83t58 -97q39 20 64.5 40t41 42.5t22 48t6.5 55.5q0 54 -28 83.5t-73 29.5q-21 0 -40 -7.5t-33.5 -22 t-23.5 -37t-9 -52.5z" />
<glyph unicode="'" horiz-adv-x="489" d="M188 877q-31 0 -52 17t-15 60l53 361q6 42 31.5 60t60.5 18h35q31 0 52.5 -17.5t15.5 -60.5l-54 -361q-6 -42 -31.5 -59.5t-60.5 -17.5h-35v0z" />
<glyph unicode="(" horiz-adv-x="684" d="M352 -225q-65 81 -119 177.5t-92.5 204.5t-60 226.5t-21.5 245.5q0 123 22.5 242t62 228t93 206t115.5 178q20 26 53 33.5t64 -9.5l25 -14q15 -9 23.5 -21t10.5 -25t-1 -26.5t-11 -23.5q-56 -72 -101.5 -157t-78 -182t-50.5 -204.5t-18 -224.5q0 -118 18 -225.5 t50.5 -204t78 -181.5t101.5 -157q16 -23 12.5 -51.5t-34.5 -45.5l-25 -14q-37 -22 -66 -12.5t-51 37.5z" />
<glyph unicode=")" horiz-adv-x="684" d="M174 -139q56 72 102 157t78.5 181.5t50 204t17.5 225.5q0 117 -17.5 224.5t-50 204.5t-78.5 182t-102 157q-8 10 -11.5 23.5t-1 26.5t11.5 25t24 21l24 14q37 22 66 12t51 -36q62 -81 115.5 -178t93 -206t62 -228t22.5 -242q0 -124 -22.5 -242.5t-62 -227.5t-93 -206 t-115.5 -178q-20 -26 -53 -34t-64 9l-24 14q-31 17 -35.5 45.5t12.5 51.5z" />
<glyph unicode="*" d="M274 772q-26 19 -22 43.5t24 50.5l99 140l-154 47q-14 4 -26.5 10.5t-21.5 15.5t-13 20t0 25l14 47q9 32 35.5 36t58.5 -7l146 -51l-6 166q0 32 13.5 55t47.5 23h41q34 0 49.5 -23t13.5 -55l-4 -170l144 57q32 14 58 9t40 -37l14 -37q10 -29 -7 -52t-48 -32l-162 -49 l107 -134q18 -24 19 -51.5t-23 -46.5l-39 -29q-29 -18 -53 -5.5t-41 38.5l-86 137l-84 -139q-17 -26 -42 -37.5t-53 6.5z" />
<glyph unicode="+" d="M174 406q-47 0 -63.5 22.5t-16.5 54.5v39q0 16 3.5 30.5t12.5 25t24.5 16.5t39.5 6h225v285q0 47 23 62.5t57 15.5h37q16 0 30.5 -3.5t25.5 -12t17.5 -23.5t6.5 -39v-285h225q24 0 39.5 -6t24.5 -16.5t12.5 -25t3.5 -30.5v-39q0 -32 -16 -54.5t-64 -22.5h-225v-285 q0 -24 -6.5 -39t-17.5 -24t-25.5 -12t-30.5 -3h-37q-34 0 -57 15t-23 63v285h-225v0z" />
<glyph unicode="," horiz-adv-x="500" d="M125 223q9 37 38.5 53t63.5 11l97 -19q13 -3 25 -10.5t20 -19t10 -25.5t-4 -29l-164 -407q-9 -23 -21.5 -35.5t-27 -18t-30.5 -5.5t-32 3l-37 9q-30 6 -40.5 25t0.5 63z" />
<glyph unicode="-" horiz-adv-x="702" d="M211 393q-24 0 -39.5 6t-24.5 16.5t-12.5 25t-3.5 30.5v47q0 16 3.5 30.5t12.5 25t24.5 16.5t39.5 6h281q24 0 39.5 -6t24.5 -16.5t12 -25t3 -30.5v-47q0 -16 -3 -30.5t-12 -25t-24.5 -16.5t-39.5 -6h-281v0z" />
<glyph unicode="." horiz-adv-x="500" d="M96 133q0 33 11.5 61.5t32.5 49.5t49 33t61 12q31 0 59.5 -12t50 -33t34 -49.5t12.5 -61.5q0 -32 -12.5 -60t-34 -49.5t-50 -34t-59.5 -12.5q-33 0 -61 12.5t-49 34t-32.5 49.5t-11.5 60z" />
<glyph unicode="/" horiz-adv-x="780" d="M522 1343q13 32 31 53t55 21h64q14 0 26.5 -4.5t21 -13.5t11 -23t-3.5 -33q-56 -158 -114.5 -321t-117.5 -327t-118 -327t-115 -321q-11 -29 -31.5 -51.5t-54.5 -22.5h-65q-29 0 -47 15.5t-9 58.5z" />
<glyph unicode="0" d="M496 -25q-94 0 -163 24t-118 68.5t-80 108.5t-49 144t-24.5 174.5t-6.5 201.5q0 84 5.5 170t21.5 166.5t46 151t79 123t119.5 82.5t169.5 30t170.5 -29.5t121 -81t79.5 -121t46 -150t21.5 -168t5.5 -173.5q0 -93 -7 -183t-25 -170t-49 -147.5t-80.5 -116.5t-119 -76.5 t-163.5 -27.5zM498 209q46 0 77 25t49.5 82t26.5 150t8 230q0 138 -8 232t-26.5 151.5t-49.5 82t-77 24.5q-45 0 -76 -27.5t-50 -87t-27.5 -152.5t-8.5 -223q0 -144 8.5 -238.5t27.5 -149.5t50 -77t76 -22z" />
<glyph unicode="1" d="M446 1083l-219 -100q-15 -5 -28.5 -6t-24.5 4.5t-17.5 18.5t-6.5 36v109q0 32 20 51t51 35q56 28 115 63.5t113 75.5l10 8q12 10 22.5 17.5t21 13t23 8t29.5 2.5h80q17 0 32 -3t26 -12t17.5 -24t6.5 -39v-1263q0 -24 -6.5 -39t-17.5 -24t-26 -12t-32 -3h-109 q-34 0 -57 15t-23 63v1005z" />
<glyph unicode="2" d="M72 170q0 34 14 58.5t37 52.5l373 424q69 78 110 153t41 156q0 78 -35.5 124t-109.5 46q-62 0 -106.5 -43.5t-59.5 -118.5q-6 -32 -26.5 -55t-69.5 -23h-95q-23 0 -37.5 6.5t-22.5 17t-10.5 25t-0.5 29.5q11 100 50 174.5t97.5 124t132 74t154.5 24.5q103 0 181.5 -28 t131 -78.5t79 -122t26.5 -158.5q0 -66 -15.5 -126.5t-50.5 -124t-93 -135.5t-142 -161l-234 -243h461q24 0 39.5 -6t24.5 -16.5t12.5 -25t3.5 -30.5v-86q0 -16 -3.5 -30.5t-12.5 -25t-24.5 -16.5t-39.5 -6h-700q-35 0 -57.5 15t-22.5 63v92z" />
<glyph unicode="3" d="M57 258q-9 31 2.5 55t59.5 29l119 14q35 5 56 -15t38 -52q42 -80 151 -80q49 0 83.5 19.5t56 52t31.5 73.5t10 84q0 98 -50.5 156.5t-156.5 58.5q-23 0 -38.5 -2.5t-37.5 -5.5h-9.5t-9.5 -2q-79 -15 -79 41v131q0 34 14.5 55.5t40.5 47.5l229 237h-385q-24 0 -39.5 6 t-24.5 16.5t-12.5 25t-3.5 30.5v82q0 16 3.5 30.5t12.5 25t24.5 16.5t39.5 6h621q24 0 39.5 -6t24.5 -16.5t12.5 -25t3.5 -30.5v-105q0 -29 -18 -55.5t-38 -48.5l-260 -264q78 0 146.5 -30.5t119.5 -83.5t81 -125.5t30 -156.5q0 -104 -33.5 -190.5t-94 -149.5t-145.5 -98 t-188 -35q-77 0 -146 17t-125 52.5t-96.5 89t-58.5 126.5z" />
<glyph unicode="4" d="M127 346q-17 0 -32 6t-26 16.5t-17.5 25t-6.5 30.5v102q0 35 11 75t28 71l393 665q19 31 51.5 49.5t67.5 18.5h147q34 0 57 -15t23 -63v-772h60q24 0 39.5 -6t24.5 -16.5t12.5 -25t3.5 -30.5v-53q0 -16 -3.5 -30.5t-12.5 -25t-24.5 -16.5t-39.5 -6h-60v-268 q0 -48 -23 -63t-57 -15h-100q-34 0 -57 15t-23 63v268h-436zM563 555v569l-311 -569h311z" />
<glyph unicode="5" d="M68 238q-11 29 -1 52.5t58 28.5l123 13q18 1 29.5 -1t20 -7.5t15.5 -14t15 -18.5l16 -23q22 -28 55 -43.5t84 -15.5q48 0 82 18t56 50.5t32.5 77.5t10.5 100q0 46 -11 87.5t-34 72.5t-59 49t-87 18q-28 0 -58.5 -7.5t-58.5 -23.5l-32 -18q-11 -6 -20 -11t-19 -8.5 t-22.5 -5t-29.5 -0.5l-77 4q-34 2 -50 25.5t-14 54.5l37 623q1 15 8 29.5t18.5 25t26.5 17t31 6.5h580q24 0 39.5 -6t24.5 -16.5t12 -25t3 -30.5v-82q0 -16 -3 -30.5t-12 -25t-24.5 -16.5t-39.5 -6h-424l-21 -301q45 26 93 39.5t104 13.5q73 0 145 -25.5t128 -79.5 t91 -138.5t35 -202.5q0 -96 -28.5 -184.5t-86 -156t-144 -107.5t-202.5 -40q-77 0 -142.5 15t-118.5 47t-92 82t-62 121z" />
<glyph unicode="6" d="M518 -27q-94 0 -165 28.5t-122 78t-84.5 117t-53.5 146t-28 164.5t-8 173q0 98 12 191t38 175t66 150.5t96 118t128.5 77t163.5 27.5q88 0 153 -24t110 -63t72 -87.5t40 -97.5q3 -15 2 -28.5t-8 -25t-21 -19t-37 -9.5l-108 -10q-21 -2 -35 3t-25 14.5t-19.5 23 t-18.5 30.5q-14 26 -41.5 44t-73.5 18q-61 0 -103 -37t-68 -96t-38.5 -132.5t-13.5 -146.5q17 22 41 42t54.5 35.5t68.5 24.5t83 9q75 0 143.5 -26.5t120.5 -81t82.5 -138t30.5 -197.5q0 -112 -32.5 -199.5t-90 -148t-137.5 -92t-174 -31.5zM348 449q0 -37 7.5 -80t26.5 -80 t51.5 -61.5t82.5 -24.5q51 0 83.5 22.5t52 56.5t27 74.5t7.5 77.5t-6.5 77.5t-24 75t-49 57t-82.5 22.5t-84.5 -20t-54 -51.5t-29 -70t-8.5 -75.5z" />
<glyph unicode="7" d="M238 76q18 79 45 170t60 187t71 194t77 191.5t79 179t77 157.5h-485q-26 0 -41.5 6t-24 16.5t-11.5 25t-3 30.5v82q0 16 3 30.5t11.5 25t24 16.5t41.5 6h692q34 0 57 -23t23 -55v-88q0 -37 -10.5 -63.5t-26.5 -57.5q-59 -113 -114 -245t-102.5 -268t-85.5 -269t-63 -248 q-4 -16 -10 -30t-16.5 -24t-27.5 -16t-42 -6h-135q-23 0 -37 6.5t-21 17t-7.5 24t2.5 28.5z" />
<glyph unicode="8" d="M61 391q0 72 17 128t47 99t72 75t92 55q-96 49 -142.5 123t-46.5 178q0 79 25 147t74.5 117.5t123.5 77.5t173 28q98 0 172.5 -29t124.5 -79t75 -117.5t25 -144.5q0 -50 -15 -95.5t-40.5 -84t-60 -69t-72.5 -50.5q48 -20 90 -51.5t73 -76t48.5 -102t17.5 -129.5 q0 -111 -35.5 -190t-95.5 -129.5t-139.5 -74.5t-167.5 -24q-87 0 -166 24t-138.5 74.5t-95 129.5t-35.5 190zM496 856q68 0 105.5 47.5t37.5 128.5t-37.5 128.5t-105.5 47.5t-105 -47.5t-37 -128.5t37 -128.5t105 -47.5zM326 412q0 -46 11 -84.5t32.5 -66t53 -43t73.5 -15.5 q41 0 73 15.5t54 43t33.5 66t11.5 84.5q0 67 -17.5 110.5t-44 69t-56.5 35.5t-54 10t-53.5 -10t-55.5 -35.5t-43.5 -69t-17.5 -110.5z" />
<glyph unicode="9" d="M66 246q-3 15 -2.5 29.5t7.5 25.5t21 18t37 9l107 8q40 3 60.5 -16t39.5 -54q15 -26 42 -43.5t75 -17.5q60 0 102 37t68 96t38 132t13 146q-17 -21 -41 -41t-54.5 -35.5t-68 -24.5t-82.5 -9q-75 0 -144 26.5t-121 81t-83 137.5t-31 197q0 112 32.5 199.5t90.5 148 t137.5 92t173.5 31.5q95 0 166 -28.5t122.5 -78t85 -117t53.5 -146t28 -164.5t8 -172q0 -99 -12 -192t-38 -175t-66 -150.5t-96.5 -118t-129.5 -77t-164 -27.5q-88 0 -153 24t-110 62.5t-72 87.5t-39 99zM477 727q51 0 85.5 20t55 51.5t29 70t8.5 75.5t-7.5 80t-26.5 80 t-52 61.5t-84 24.5q-50 0 -82.5 -22.5t-51.5 -56.5t-26.5 -75t-7.5 -78t6.5 -77.5t24 -74.5t48.5 -56.5t81 -22.5z" />
<glyph unicode=":" horiz-adv-x="655" d="M328 678q-33 0 -61 12.5t-49 34t-32.5 49.5t-11.5 60q0 33 11.5 61.5t32.5 49t49 32.5t61 12q31 0 59.5 -12t49.5 -32.5t33.5 -49t12.5 -61.5q0 -32 -12.5 -60t-33.5 -49.5t-49.5 -34t-59.5 -12.5zM174 133q0 33 11.5 61.5t32.5 49.5t49 33t61 12q31 0 59.5 -12t49.5 -33 t33.5 -49.5t12.5 -61.5q0 -32 -12.5 -60t-33.5 -49.5t-49.5 -34t-59.5 -12.5q-33 0 -61 12.5t-49 34t-32.5 49.5t-11.5 60z" />
<glyph unicode=";" horiz-adv-x="655" d="M328 678q-33 0 -61 12.5t-49 34t-32.5 49.5t-11.5 60q0 33 11.5 61.5t32.5 49t49 32.5t61 12q31 0 59.5 -12t49.5 -32.5t33.5 -49t12.5 -61.5q0 -32 -12.5 -60t-33.5 -49.5t-49.5 -34t-59.5 -12.5zM203 223q11 37 39.5 53t62.5 11l96 -19q28 -6 45 -29.5t7 -54.5 l-164 -407q-9 -23 -21.5 -35.5t-27 -18t-30.5 -5.5t-32 3l-37 9q-31 6 -41.5 25t0.5 63z" />
<glyph unicode="&#x3c;" d="M158 408q-28 14 -46 29t-18 44v47q0 28 18 42t46 28l665 307q14 6 27.5 8.5t24.5 -2t17.5 -17.5t6.5 -36v-74q0 -32 -21.5 -54t-50.5 -38l-413 -188l413 -193q29 -15 50.5 -37.5t21.5 -54.5v-72q0 -23 -6.5 -35.5t-17.5 -17t-24.5 -2.5t-27.5 8l-665 308v0z" />
<glyph unicode="=" d="M174 563q-24 0 -39.5 6t-24.5 16.5t-12.5 25t-3.5 30.5v41q0 16 3.5 30.5t12.5 25t24.5 16.5t39.5 6h647q24 0 39.5 -6t24.5 -16.5t12.5 -25t3.5 -30.5v-41q0 -16 -3.5 -30.5t-12.5 -25t-24.5 -16.5t-39.5 -6h-647zM174 248q-24 0 -39.5 6t-24.5 16.5t-12.5 25t-3.5 30.5 v39q0 32 16.5 54.5t63.5 22.5h647q48 0 64 -22.5t16 -54.5v-39q0 -16 -3.5 -30.5t-12.5 -25t-24.5 -16.5t-39.5 -6h-647z" />
<glyph unicode="&#x3e;" d="M94 219q0 32 21.5 54.5t50.5 37.5l414 193l-414 188q-32 16 -52 37t-20 55v74q0 23 6.5 36t17.5 17.5t24.5 2t27.5 -8.5l666 -307q27 -14 45 -28t18 -42v-47q0 -29 -18 -44t-45 -29l-666 -308q-14 -6 -27.5 -8t-24.5 2.5t-17.5 17t-6.5 35.5v72z" />
<glyph unicode="?" horiz-adv-x="1014" d="M385 508q2 103 46 178t112 135q24 22 46 46.5t39 52t27.5 59t10.5 68.5q0 75 -37 110t-103 35q-54 0 -91 -34t-48 -99q-2 -14 -5 -25.5t-10.5 -19.5t-21 -12.5t-35.5 -4.5h-110q-24 0 -39 6.5t-23.5 17t-11 25t-0.5 29.5q11 81 43.5 145t84 108.5t121 67.5t155.5 23 q76 0 147.5 -20t127 -64.5t89 -115t33.5 -170.5q0 -66 -16 -117.5t-41.5 -92.5t-58 -74.5t-66.5 -62.5q-29 -26 -51 -49t-36 -46.5t-21.5 -49t-8.5 -55.5v-8q0 -36 -14 -48t-41 -12h-134q-29 0 -44 14t-15 52v8zM367 133q0 33 12 61.5t32.5 49.5t48.5 33t60 12 q31 0 59.5 -12t50 -33t34 -49.5t12.5 -61.5q0 -32 -12.5 -60t-34 -49.5t-50 -34t-59.5 -12.5q-32 0 -60 12.5t-48.5 34t-32.5 49.5t-12 60z" />
<glyph unicode="@" horiz-adv-x="1948" d="M135 502q0 129 31.5 246t89 217t138 181t178.5 138t211 88t235 31q105 0 207 -21.5t192.5 -64.5t167 -107.5t132.5 -151t87 -194.5t31 -237q0 -145 -38.5 -255.5t-102 -184.5t-146.5 -112t-172 -38q-46 0 -83.5 12t-64.5 34t-42 51.5t-17 64.5h-2q-19 -29 -46.5 -57.5 t-63 -52t-79.5 -38t-95 -14.5q-80 0 -142 28.5t-105 79.5t-65 122.5t-22 158.5q0 68 15 135.5t43.5 128.5t69 113t91.5 90.5t111 60t127 21.5q81 0 140.5 -31.5t84.5 -81.5q6 32 23.5 54t52.5 22h73q22 0 36 -6.5t21.5 -17.5t9 -24.5t-0.5 -27.5l-78 -405q-6 -29 -11 -61.5 t-5 -63.5q0 -42 13.5 -69t51.5 -27q45 0 82 26t63.5 74.5t41 117.5t14.5 154q0 147 -45 258.5t-125 187t-191 114t-243 38.5q-144 0 -262.5 -54t-203 -148.5t-131 -224t-46.5 -279.5q0 -160 49 -288t137.5 -218t211 -138.5t269.5 -48.5q81 0 150.5 12.5t131.5 36t117.5 58 t106.5 78.5q26 21 54 26.5t51 -20.5l39 -45q12 -15 16 -30t1.5 -29.5t-9.5 -27.5t-17 -22q-63 -60 -140 -105t-162.5 -74t-176.5 -43.5t-182 -14.5q-198 0 -361 66t-279 184.5t-179.5 283t-63.5 361.5zM795 422q0 -28 5.5 -60t21 -59.5t43 -46t71.5 -18.5q60 0 102.5 32.5 t69 81.5t39 106.5t12.5 106.5q0 38 -6.5 75.5t-23 67.5t-44.5 49t-71 19q-54 0 -95 -33.5t-68.5 -85t-41.5 -114.5t-14 -121z" />
<glyph unicode="A" horiz-adv-x="1235" d="M453 1319q11 32 40.5 53t63.5 21h131q35 0 64.5 -21t40.5 -53l411 -1245q7 -21 5 -35t-10.5 -23t-21.5 -12.5t-28 -3.5h-162q-35 0 -54 21t-30 53l-65 217h-451l-61 -215q-11 -34 -30.5 -55t-53.5 -21h-156q-14 0 -26.5 4.5t-21 13.5t-11 23t3.5 33zM780 516l-166 520 l-161 -520h327z" />
<glyph unicode="B" horiz-adv-x="1165" d="M141 1315q0 47 23 62.5t57 15.5h395q108 0 189 -27t136 -76.5t82.5 -119.5t27.5 -156q0 -56 -15 -101.5t-40 -81t-58.5 -62.5t-69.5 -46q43 -12 84 -39t72.5 -67t50.5 -92.5t19 -116.5q0 -96 -34 -172t-95 -128.5t-147 -80t-189 -27.5h-408q-34 0 -57 15t-23 63v1237z M571 819q45 0 82.5 11t64.5 32.5t41.5 53.5t14.5 75t-13.5 74t-37.5 51t-57 29.5t-72 9.5h-176v-336h153zM586 238q60 0 102 13.5t68.5 37.5t38.5 56t12 69q0 34 -10.5 66t-34 57.5t-62 41t-94.5 15.5h-188v-356h168z" />
<glyph unicode="C" horiz-adv-x="1409" d="M96 696q0 101 22 194t63 173t99.5 146t132.5 112.5t161.5 72t185.5 25.5q103 0 195 -21.5t168.5 -67t134.5 -116.5t92 -170q5 -14 6 -28t-4.5 -25.5t-19 -20.5t-36.5 -14l-143 -28q-34 -5 -56.5 13.5t-37.5 49.5q-42 96 -118.5 138t-178.5 42q-84 0 -151.5 -38t-115 -103 t-73 -152t-25.5 -184q0 -111 27 -198.5t76 -148.5t118.5 -93.5t153.5 -32.5q82 0 155.5 35.5t123.5 114.5q17 32 38 50t56 13l160 -20q22 -3 34.5 -11.5t18 -20.5t4 -25.5t-7.5 -26.5q-41 -89 -102.5 -156t-138 -111.5t-166.5 -67t-187 -22.5q-145 0 -267 47.5t-210 139 t-137.5 226.5t-49.5 310z" />
<glyph unicode="D" horiz-adv-x="1409" d="M141 1315q0 47 23 62.5t57 15.5h443q152 0 271 -45.5t201.5 -134t125.5 -218.5t43 -299q0 -167 -51 -296.5t-138 -218t-202 -135t-242 -46.5h-451q-34 0 -57 15t-23 63v1237zM651 238q101 0 171 41t113.5 107t63 148t19.5 164q0 88 -19 170t-63.5 146t-118.5 102.5 t-184 38.5h-215v-917h233z" />
<glyph unicode="E" horiz-adv-x="1077" d="M141 1315q0 47 23 62.5t57 15.5h674q24 0 39.5 -6t24.5 -16.5t12.5 -25t3.5 -30.5v-92q0 -16 -3.5 -30.5t-12.5 -25t-24.5 -16.5t-39.5 -6h-477v-318h393q47 0 63.5 -22.5t16.5 -54.5v-93q0 -32 -16.5 -54.5t-63.5 -22.5h-393v-332h506q24 0 39.5 -6t24.5 -16.5t12.5 -25 t3.5 -30.5v-92q0 -16 -3.5 -30.5t-12.5 -25t-24.5 -16.5t-39.5 -6h-703q-34 0 -57 15t-23 63v1237z" />
<glyph unicode="F" horiz-adv-x="1014" d="M141 1315q0 47 23 62.5t57 15.5h639q24 0 39.5 -6t24.5 -16.5t12.5 -25t3.5 -30.5v-92q0 -16 -3.5 -30.5t-12.5 -25t-24.5 -16.5t-39.5 -6h-442v-318h360q48 0 64 -22.5t16 -54.5v-93q0 -32 -16 -54.5t-64 -22.5h-360v-502q0 -48 -23 -63t-57 -15h-117q-34 0 -57 15 t-23 63v1237z" />
<glyph unicode="G" horiz-adv-x="1468" d="M96 696q0 94 21 184t60 170t96.5 148t129.5 117t159 76.5t186 27.5q139 0 237.5 -32.5t166 -83t108.5 -111.5t65 -117q6 -13 7.5 -26t-4 -24t-18 -19t-34.5 -11l-146 -20q-20 -2 -34 1.5t-25 12t-20 21.5t-19 28q-40 62 -107.5 97.5t-176.5 35.5q-76 0 -142.5 -32.5 t-116 -94t-78 -149.5t-28.5 -199q0 -95 26.5 -181t76 -151t120 -104t158.5 -39q82 0 142 22.5t100 61t61.5 90t26.5 109.5h-238q-26 0 -41.5 6t-24 16.5t-11.5 25t-3 30.5v71q0 16 3 30.5t11.5 25t24 16.5t41.5 6h465q16 0 30 -6.5t24.5 -17t16.5 -25t5 -29.5 q-9 -168 -56 -295.5t-129.5 -213t-199 -128.5t-264.5 -43q-99 0 -186 27.5t-159 77t-129.5 117t-96.5 148t-60 170t-21 183.5z" />
<glyph unicode="H" horiz-adv-x="1393" d="M141 1315q0 47 23 62.5t57 15.5h117q34 0 57 -15.5t23 -62.5v-488h559v488q0 47 23 62.5t57 15.5h114q17 0 32 -3.5t25.5 -12t16.5 -23.5t6 -39v-1237q0 -48 -22.5 -63t-57.5 -15h-114q-34 0 -57 15t-23 63v502h-559v-502q0 -48 -23 -63t-57 -15h-117q-34 0 -57 15 t-23 63v1237z" />
<glyph unicode="I" horiz-adv-x="565" d="M145 1315q0 47 23 62.5t57 15.5h115q34 0 57 -15.5t23 -62.5v-1237q0 -48 -23 -63t-57 -15h-115q-34 0 -57 15t-23 63v1237z" />
<glyph unicode="J" horiz-adv-x="782" d="M379 1315q0 47 23 62.5t57 15.5h116q17 0 32 -3.5t25.5 -12t16.5 -23.5t6 -39v-854q0 -139 -32 -232.5t-89.5 -150.5t-138.5 -81t-178 -24h-18.5t-18.5 2q-43 4 -72.5 18.5t-29.5 45.5v121q0 28 14.5 38.5t36.5 10.5h29q8 0 17 -1t20 -1q53 0 88.5 14.5t56.5 45.5t30 79 t9 115v854z" />
<glyph unicode="K" horiz-adv-x="1165" d="M141 1315q0 47 23 62.5t57 15.5h117q34 0 57 -15.5t23 -62.5v-561l370 573q20 32 47 49t64 17h180q20 0 34.5 -7.5t14.5 -25.5q0 -5 -4.5 -15t-9.5 -18l-412 -604l420 -651q6 -10 12.5 -20.5t6.5 -18.5q0 -16 -13.5 -24.5t-37.5 -8.5h-195q-37 0 -63.5 17.5t-45.5 48.5 l-368 598v-586q0 -48 -23 -63t-57 -15h-117q-34 0 -57 15t-23 63v1237z" />
<glyph unicode="L" horiz-adv-x="971" d="M141 1315q0 47 23 62.5t57 15.5h117q34 0 57 -15.5t23 -62.5v-1055h428q24 0 39.5 -6t24.5 -16.5t12.5 -25t3.5 -30.5v-104q0 -16 -3.5 -30.5t-12.5 -25t-24.5 -16.5t-39.5 -6h-625q-34 0 -57 15t-23 63v1237z" />
<glyph unicode="M" horiz-adv-x="1688" d="M1227 846l-240 -776q-12 -31 -27.5 -50.5t-52.5 -19.5h-155q-35 0 -50 19.5t-24 50.5l-223 774l-68 -770q-3 -32 -18 -53t-50 -21h-149q-31 0 -47.5 16t-11.5 58l141 1245q3 32 28 53t60 21h166q35 0 53.5 -20t28.5 -52l256 -907l274 913q22 66 92 66h160 q34 0 58.5 -21.5t27.5 -52.5l121 -1245q0 -32 -17 -53t-44 -21h-164q-35 0 -49.5 21t-16.5 53z" />
<glyph unicode="N" horiz-adv-x="1409" d="M141 1315q0 47 23 62.5t57 15.5h172q35 0 58.5 -19.5t40.5 -48.5l512 -883v873q0 47 22.5 62.5t56.5 15.5h105q34 0 57 -15.5t23 -62.5v-1237q0 -48 -23 -63t-57 -15h-166q-37 0 -57 19.5t-37 48.5l-522 901v-891q0 -48 -23 -63t-57 -15h-105q-34 0 -57 15t-23 63v1237z " />
<glyph unicode="O" horiz-adv-x="1569" d="M96 694q0 141 46 271.5t134 231.5t216 161.5t292 60.5q165 0 292.5 -60.5t215 -161.5t133 -231.5t45.5 -271.5q0 -92 -20.5 -181.5t-60 -169.5t-98 -148t-134.5 -117.5t-169.5 -77t-203.5 -27.5q-109 0 -203 27.5t-170 77t-135 117.5t-99 148t-60.5 169t-20.5 182z M395 694q0 -93 25 -178.5t73.5 -151t121.5 -104.5t169 -39t169 39t122 104.5t74 151t25 178.5q0 94 -25 180.5t-74 151.5t-122 104t-169 39t-169 -39t-121.5 -104t-73.5 -151.5t-25 -180.5z" />
<glyph unicode="P" horiz-adv-x="1165" d="M141 1315q0 47 23 62.5t57 15.5h381q79 0 161.5 -21t150 -72t110.5 -136.5t43 -213.5q0 -120 -39.5 -204t-102.5 -136.5t-142 -76t-158 -23.5h-207v-432q0 -48 -23 -63t-57 -15h-117q-34 0 -57 15t-23 63v1237zM584 745q64 0 105 19.5t64 49.5t31.5 66t8.5 70 q0 35 -11.5 71.5t-36.5 66t-64.5 48.5t-94.5 19h-168v-410h166z" />
<glyph unicode="Q" horiz-adv-x="1569" d="M96 694q0 141 46 271.5t134 231.5t216 161.5t292 60.5q165 0 292.5 -60.5t215 -161.5t133 -231.5t45.5 -271.5q0 -66 -12.5 -133t-36 -131.5t-56 -123.5t-71.5 -109l56 -52q14 -14 24 -30t10 -25q0 -12 -8.5 -25.5t-19.5 -27.5l-53 -60q-13 -14 -26 -24t-32 -10 q-12 0 -27 6.5t-30 21.5l-82 78q-68 -35 -148.5 -55.5t-173.5 -20.5q-109 0 -203 27.5t-170 77t-135 117.5t-99 148t-60.5 169t-20.5 182zM395 694q0 -93 25 -178.5t73.5 -151t121.5 -104.5t169 -39q32 0 61.5 5t55.5 16l-76 71q-18 17 -24.5 32t-5 28.5t8.5 25.5t17 23 l41 51q13 14 27 23.5t33 9.5q11 0 27 -7t30 -20l108 -98q42 65 64.5 143.5t22.5 169.5q0 94 -25 180.5t-74 151.5t-122 104t-169 39t-169 -39t-121.5 -104t-73.5 -151.5t-25 -180.5z" />
<glyph unicode="R" horiz-adv-x="1165" d="M141 1315q0 47 23 62.5t57 15.5h420q106 0 188.5 -33t138.5 -89.5t85.5 -132t29.5 -161.5q0 -55 -14.5 -115t-45 -114t-77 -96.5t-110.5 -63.5l274 -520q5 -10 7.5 -16.5t2.5 -14.5q0 -14 -13.5 -25.5t-45.5 -11.5h-184q-39 0 -58 19.5t-35 50.5l-225 479h-141v-471 q0 -48 -23 -63t-57 -15h-117q-34 0 -57 15t-23 63v1237zM588 776q66 0 109 17t67.5 44.5t34.5 61.5t10 68q0 37 -10 71.5t-36 60t-70.5 41t-112.5 15.5h-162v-379h170z" />
<glyph unicode="S" horiz-adv-x="1176" d="M82 334q0 21 16 38t52 19l133 6q26 -2 43.5 -19t31.5 -46q17 -38 42.5 -61.5t54.5 -37t59 -18t57 -4.5q57 0 102.5 9t77.5 29t49 52t17 78t-18.5 79.5t-55 57.5t-90.5 41t-125 31q-103 20 -180 51t-128.5 78t-77 112.5t-25.5 153.5q0 85 31 164t92 139.5t152.5 96.5 t211.5 36q153 0 258.5 -46.5t159.5 -131.5q22 -34 34.5 -70t12.5 -73q0 -22 -15 -37t-50 -19l-125 -8q-29 -2 -47.5 12.5t-40.5 51.5q-53 90 -185 90q-47 0 -87 -10.5t-69.5 -31.5t-46 -53.5t-16.5 -76.5q0 -45 16.5 -76t50 -52t84.5 -35t119 -26q98 -17 178.5 -46 t138 -76.5t89 -117.5t31.5 -169t-32.5 -181t-96 -140.5t-157.5 -91t-218 -32.5t-213 25t-150 70t-95.5 107t-49.5 136v23z" />
<glyph unicode="T" horiz-adv-x="1022" d="M373 1145h-269q-24 0 -39 6t-24 16.5t-12.5 25t-3.5 30.5v92q0 16 3.5 30.5t12.5 25t24 16.5t39 6h814q24 0 39.5 -6t24.5 -16.5t12 -25t3 -30.5v-92q0 -16 -3 -30.5t-12 -25t-24.5 -16.5t-39.5 -6h-269v-1067q0 -48 -23 -63t-57 -15h-116q-34 0 -57 15t-23 63v1067z" />
<glyph unicode="U" horiz-adv-x="1339" d="M129 1315q0 47 23 62.5t57 15.5h115q34 0 58 -15.5t24 -62.5v-740q0 -173 62 -263.5t202 -90.5q137 0 202.5 90t65.5 264v740q0 47 23 62.5t57 15.5h115q34 0 56.5 -15.5t22.5 -62.5v-737q0 -163 -44 -278t-118 -187.5t-172.5 -106t-207.5 -33.5q-110 0 -208 33.5 t-172 106t-117.5 187.5t-43.5 278v737z" />
<glyph unicode="V" horiz-adv-x="1165" d="M31 1319q-13 40 6 57t51 17h154q34 0 56 -21t32 -55l262 -924l250 924q9 34 29 55t55 21h151q15 0 28 -4t21.5 -12.5t11.5 -22.5t-3 -35l-381 -1245q-11 -32 -40.5 -53t-64.5 -21h-131q-34 0 -62.5 21t-39.5 53z" />
<glyph unicode="W" horiz-adv-x="1761" d="M57 1317q-9 41 11 58.5t51 17.5h143q35 0 56.5 -22t27.5 -54l189 -914l186 914q6 32 26.5 54t55.5 22h162q35 0 55.5 -22t28.5 -54l198 -916l172 916q6 32 27.5 54t56.5 22h142q31 0 49.5 -16t11.5 -60l-301 -1241q-8 -32 -36 -54t-62 -22h-131q-36 0 -63.5 22t-35.5 54 l-194 864l-195 -864q-8 -32 -35 -54t-61 -22h-133q-35 0 -63 21t-38 55z" />
<glyph unicode="X" horiz-adv-x="1165" d="M422 705l-352 620q-10 17 -10 29.5t7 21t19 13t25 4.5h186q38 0 58.5 -19t37.5 -51l201 -389l197 389q17 32 37.5 51t58.5 19h180q12 0 23 -5t18 -14t7.5 -21.5t-7.5 -27.5l-356 -620l370 -637q9 -16 9 -28.5t-7 -21.5t-18.5 -13.5t-24.5 -4.5h-196q-38 0 -60 18t-39 50 l-206 389l-211 -389q-17 -31 -37.5 -49.5t-59.5 -18.5h-186q-14 0 -26 4.5t-19 12.5t-7 20.5t9 28.5z" />
<glyph unicode="Y" horiz-adv-x="1112" d="M422 539l-383 784q-12 32 4.5 51t42.5 19h180q38 0 57.5 -20t34.5 -52l209 -496l209 496q13 29 34 50.5t56 21.5h160q13 0 24.5 -5t18.5 -14t8.5 -22t-4.5 -29l-377 -784v-461q0 -48 -22.5 -63t-57.5 -15h-114q-34 0 -57 15t-23 63v461z" />
<glyph unicode="Z" horiz-adv-x="1147" d="M78 170q0 34 11.5 58t33.5 55l612 860h-534q-26 0 -41.5 6t-24 16.5t-11.5 25t-3 30.5v94q0 16 3 30.5t11.5 25t24 16.5t41.5 6h792q34 0 57 -15.5t23 -62.5v-92q0 -34 -12.5 -59t-34.5 -54l-612 -862h579q25 0 40.5 -6t24.5 -16.5t12 -25t3 -30.5v-92q0 -16 -3 -30.5 t-12 -25t-24.5 -16.5t-40.5 -6h-835q-34 0 -57 15t-23 63v92z" />
<glyph unicode="[" horiz-adv-x="684" d="M125 1452q0 24 6.5 39t17.5 24t25.5 12t30.5 3h280q25 0 40.5 -6t24.5 -16.5t12 -25t3 -30.5v-27q0 -16 -3 -30t-12 -24.5t-24.5 -16.5t-40.5 -6h-125v-1440h125q25 0 40.5 -6t24.5 -16.5t12 -25t3 -30.5v-27q0 -16 -3 -30t-12 -24.5t-24.5 -16.5t-40.5 -6h-280 q-16 0 -30.5 3t-25.5 11.5t-17.5 23.5t-6.5 39v1649z" />
<glyph unicode="\" horiz-adv-x="780" d="M55 1343q-7 20 -4 34t11.5 23t21.5 13t27 4h63q34 0 54.5 -22.5t31.5 -51.5l467 -1296q6 -18 3.5 -32t-11 -23.5t-21 -14t-26.5 -4.5h-66q-37 0 -55 21t-31 53z" />
<glyph unicode="]" horiz-adv-x="684" d="M119 -170q0 16 3 30.5t11.5 25t24 16.5t41.5 6h125v1440h-125q-26 0 -41.5 6t-24 16.5t-11.5 24.5t-3 30v27q0 16 3 30.5t11.5 25t24 16.5t41.5 6h278q17 0 32 -3t26 -12t17.5 -24t6.5 -39v-1649q0 -47 -24 -62t-58 -15h-278q-26 0 -41.5 6t-24 16.5t-11.5 24.5t-3 30v27 v0z" />
<glyph unicode="^" d="M150 608q-12 0 -25 2t-20.5 9t-7 20t13.5 35l268 436q17 28 39.5 46t56.5 18h45q34 0 56.5 -18t39.5 -46l267 -436q12 -21 12 -34t-7 -20t-19.5 -9.5t-24.5 -2.5h-92q-38 0 -58 18.5t-39 47.5l-161 252l-156 -252q-19 -29 -38 -47.5t-56 -18.5h-94v0z" />
<glyph unicode="_" horiz-adv-x="975" d="M-4 -154h985v-102h-985v102z" />
<glyph unicode="`" horiz-adv-x="500" d="M334 1135q-35 0 -60 15t-47 40l-141 149q-7 8 -7.5 17.5t3.5 18t12 14.5t19 6h133q38 0 57.5 -18.5t36.5 -47.5l76 -129q12 -21 12 -34t-7.5 -20t-20 -9t-25.5 -2h-41v0z" />
<glyph unicode="a" horiz-adv-x="1077" d="M84 274q0 91 36 150t102.5 93.5t160.5 47.5t209 13h92v38q0 86 -35.5 132.5t-118.5 46.5q-52 0 -90.5 -19.5t-64.5 -62.5q-13 -19 -26.5 -30t-47.5 -11h-115q-23 0 -36.5 6.5t-20.5 17.5t-7.5 25t3.5 29q14 51 46 94.5t84.5 75.5t125.5 50.5t168 18.5q115 0 191 -26.5 t121 -74.5t63 -116t18 -151v-471q0 -19 1 -38.5t3 -39.5q1 -14 0.5 -27t-7.5 -23t-21.5 -16t-40.5 -6h-86q-24 0 -40 6t-26.5 16.5t-15.5 25t-7 30.5l-4 37q-42 -68 -112 -104t-178 -36q-56 0 -113.5 15.5t-104 50.5t-76.5 92t-30 141zM354 287q0 -35 10.5 -58t29 -37 t44 -20t56.5 -6q36 0 70 11t61 35.5t43 63t16 93.5v53h-66q-49 0 -96.5 -5t-84.5 -19.5t-60 -41t-23 -69.5z" />
<glyph unicode="b" horiz-adv-x="1202" d="M127 1368q0 25 6 40t17 23.5t25.5 11.5t31.5 3h108q34 0 57 -15t23 -63v-524q63 78 132 111.5t157 33.5q100 0 180 -41t135.5 -110.5t85 -161t29.5 -193.5q0 -101 -31.5 -193t-88.5 -162.5t-137 -112.5t-177 -42q-90 0 -162.5 33t-132.5 115v-43q0 -48 -23 -63t-57 -15 h-98q-34 0 -57 15t-23 63v1290zM387 479q0 -60 15 -112.5t43.5 -92t70 -62t94.5 -22.5q55 0 96.5 23.5t70 63t43 91.5t14.5 109q0 55 -14 106t-41 90.5t-68 63t-95 23.5q-58 0 -101 -23.5t-71.5 -62.5t-42.5 -89.5t-14 -105.5z" />
<glyph unicode="c" horiz-adv-x="1073" d="M86 473q0 111 35.5 205.5t101.5 163.5t159 108t208 39q77 0 139 -13t111.5 -37t86.5 -58t64 -76q8 -12 12 -25.5t1.5 -26.5t-12.5 -24t-31 -18l-103 -41q-34 -11 -60 3t-50 40q-25 29 -61 48t-89 19q-64 0 -108 -26.5t-71.5 -71t-39.5 -102t-12 -119.5q0 -59 15 -108.5 t44 -85.5t71.5 -56.5t96.5 -20.5q53 0 89 18t62 50q25 28 50 40.5t59 0.5l104 -41q32 -12 39 -40.5t-10 -53.5q-59 -85 -159 -137t-240 -52q-129 0 -223.5 37.5t-156.5 104t-92 157.5t-30 199z" />
<glyph unicode="d" horiz-adv-x="1202" d="M86 483q0 102 29.5 193.5t85 161t135 110.5t180.5 41q43 0 81 -7.5t73.5 -24.5t68.5 -45t66 -68v524q0 48 23 63t57 15h106q34 0 57 -15t23 -63v-1290q0 -48 -23 -63t-57 -15h-96q-34 0 -57 15t-23 63v43q-57 -82 -131 -115t-164 -33q-97 0 -177 42t-137 112.5 t-88.5 162.5t-31.5 193zM367 477q0 -57 14.5 -109t43.5 -91.5t71 -63t98 -23.5q52 0 93 22.5t69.5 62t43.5 92t15 112.5q0 55 -14 105.5t-42.5 89.5t-72 62.5t-102.5 23.5q-53 0 -93.5 -23.5t-68 -63t-41.5 -90.5t-14 -106z" />
<glyph unicode="e" horiz-adv-x="1130" d="M86 479q0 117 36 211.5t101.5 160.5t158 102t206.5 36q117 0 206 -34.5t148 -99t89 -157.5t30 -211q0 -22 -7 -36.5t-18 -23t-26 -12t-31 -3.5h-619q2 -42 18 -83.5t46.5 -74t75.5 -52.5t104 -20q47 0 82.5 12.5t63.5 36.5q28 26 57 40t70 3l92 -24q37 -13 43.5 -38 t-8.5 -48q-57 -97 -158.5 -143t-251.5 -46q-120 0 -214.5 36t-159.5 102t-99.5 159t-34.5 207zM786 584q-1 35 -10.5 73t-32 69.5t-59 52t-90.5 20.5q-64 0 -107 -21t-70 -53.5t-40.5 -70t-16.5 -70.5h426z" />
<glyph unicode="f" horiz-adv-x="649" d="M166 754h-64q-24 0 -39 6t-24 16.5t-12.5 24.5t-3.5 30v54q0 16 3.5 30.5t12.5 25t24 16.5t39 6h64v84q0 70 20 141.5t63.5 128.5t111.5 93t163 36q16 0 31 -1t31 -3q14 -2 25 -4.5t18.5 -9.5t11.5 -19.5t4 -32.5v-106q0 -19 -10 -33t-41 -14h-41q-66 0 -92.5 -49 t-26.5 -140v-71h121q24 0 39.5 -6t24.5 -16.5t12.5 -25t3.5 -30.5v-54q0 -32 -16.5 -54.5t-63.5 -22.5h-121v-676q0 -48 -23 -63t-57 -15h-108q-34 0 -57 15t-23 63v676z" />
<glyph unicode="g" horiz-adv-x="1202" d="M291 -100q26 3 41.5 -5t29.5 -22q22 -20 41 -35t40.5 -24.5t48 -14t63.5 -4.5q68 0 117.5 14.5t81 47.5t46.5 86t15 131v78q-45 -81 -120.5 -116.5t-172.5 -35.5q-87 0 -165.5 32t-138 94t-94 153t-34.5 208q0 101 32.5 192t91 160t139.5 109.5t179 40.5q103 0 175 -42 t110 -113v51q0 47 23 62.5t57 15.5h96q34 0 57 -15.5t23 -62.5v-809q0 -108 -28.5 -197.5t-91 -153.5t-161 -99.5t-239.5 -35.5q-173 0 -280.5 55t-155.5 152q-6 13 -8 26.5t2.5 25.5t17 20.5t35.5 11.5zM367 494q0 -86 22 -141.5t55.5 -87.5t73.5 -44t76 -12q16 0 39 4 t47.5 15.5t48.5 31t43 50.5t31 75t12 104q0 135 -59.5 203t-171.5 68q-49 0 -89 -21t-68.5 -57t-44 -84.5t-15.5 -103.5z" />
<glyph unicode="h" horiz-adv-x="1116" d="M127 1368q0 48 23 63t57 15h108q34 0 57 -15t23 -63v-516q53 69 121.5 103t140.5 34q84 0 146.5 -26t104.5 -71.5t62.5 -107t20.5 -131.5v-575q0 -48 -23 -63t-57 -15h-108q-34 0 -57 15t-23 63v508q0 52 -14.5 87.5t-37.5 57t-52 30.5t-58 9q-37 0 -67.5 -16.5 t-52.5 -46t-34 -70.5t-12 -90v-469q0 -48 -23 -63t-57 -15h-108q-34 0 -57 15t-23 63v1290z" />
<glyph unicode="i" horiz-adv-x="510" d="M256 1104q-35 0 -63.5 14t-49 36.5t-32 50t-11.5 55.5q0 30 11.5 59t32 51t49 35.5t63.5 13.5q30 0 58 -12t49 -32.5t34 -49t13 -61.5q0 -31 -12.5 -59.5t-33.5 -51t-49 -36t-59 -13.5zM121 885q0 47 24 62.5t58 15.5h106q34 0 57 -15.5t23 -62.5v-807q0 -48 -23 -63 t-57 -15h-106q-17 0 -32 3t-26 12t-17.5 24t-6.5 39v807z" />
<glyph unicode="j" horiz-adv-x="510" d="M260 1104q-35 0 -63.5 14t-49 36.5t-32 50t-11.5 55.5q0 30 11.5 59t32 51t49 35.5t63.5 13.5q30 0 58 -12t49 -32.5t34 -49t13 -61.5q0 -31 -12.5 -59.5t-33.5 -51t-49 -36t-59 -13.5zM125 885q0 24 6.5 39t17.5 23.5t25.5 12t30.5 3.5h108q34 0 57 -15.5t23 -62.5v-930 q0 -111 -30 -182t-79 -111.5t-110.5 -56t-124.5 -15.5q-13 0 -26.5 2t-24 8.5t-17 18.5t-6.5 31v131q0 17 9 31t41 14q45 0 72.5 32t27.5 101v926z" />
<glyph unicode="k" horiz-adv-x="989" d="M127 1368q0 48 23 63t57 15h106q34 0 57 -15t23 -63v-774l234 307q21 28 44 45t60 17h168q39 0 39 -27q0 -6 -5 -13.5t-13 -17.5l-310 -370l344 -474q7 -9 12 -17t5 -13q0 -31 -47 -31h-179q-37 0 -61 17t-41 46l-250 359v-344q0 -48 -23 -63t-57 -15h-106q-34 0 -57 15 t-23 63v1290z" />
<glyph unicode="l" horiz-adv-x="510" d="M121 1368q0 24 6.5 39t17.5 24t26 12t32 3h106q34 0 57 -15t23 -63v-1290q0 -48 -23 -63t-57 -15h-106q-17 0 -32 3t-26 12t-17.5 24t-6.5 39v1290z" />
<glyph unicode="m" horiz-adv-x="1667" d="M127 885q0 47 23 62.5t57 15.5h96q34 0 57 -15.5t23 -62.5v-37q60 75 134 108t155 33q24 0 58 -4t71 -18.5t72 -42.5t61 -76q34 46 72.5 74t77.5 43t76 19.5t67 4.5q58 0 115 -18t102 -55t72.5 -93t27.5 -131v-614q0 -48 -23 -63t-57 -15h-106q-34 0 -57 15t-23 63v543 q0 27 -7.5 54t-23 48t-41 34t-61.5 13q-39 0 -71 -16t-54.5 -41.5t-34.5 -56t-12 -58.5v-520q0 -48 -23 -63t-57 -15h-109q-34 0 -56.5 15t-22.5 63v516q0 37 -8.5 69.5t-26.5 56t-46.5 37t-68.5 13.5q-37 0 -66.5 -16t-50.5 -42.5t-32 -60t-11 -67.5v-506q0 -48 -23 -63 t-57 -15h-108q-34 0 -57 15t-23 63v807z" />
<glyph unicode="n" horiz-adv-x="1116" d="M127 885q0 47 23 62.5t57 15.5h96q34 0 57 -15.5t23 -62.5v-37q29 41 62 68.5t69 43.5t74.5 22.5t77.5 6.5q84 0 145 -26t101 -71.5t59.5 -107t19.5 -131.5v-575q0 -48 -23 -63t-57 -15h-108q-34 0 -57 15t-23 63v508q0 52 -13 87.5t-35 57t-50 30.5t-58 9 q-36 0 -67.5 -16.5t-54.5 -46t-36.5 -70.5t-13.5 -90v-469q0 -48 -23 -63t-57 -15h-108q-34 0 -57 15t-23 63v807z" />
<glyph unicode="o" horiz-adv-x="1196" d="M86 483q0 95 33 186t97.5 162t159.5 114.5t220 43.5q134 0 231 -43.5t159.5 -114.5t92 -162t29.5 -186q0 -97 -32.5 -188.5t-97 -162.5t-160 -114t-222.5 -43q-135 0 -231.5 43t-158.5 114t-91 162.5t-29 188.5zM358 481q0 -65 14 -119t43.5 -93t74 -61t106.5 -22t107 22 t74 61t43 93t14 119q0 64 -14 118.5t-43 94.5t-74 62t-107 22t-106.5 -22t-74 -62t-43.5 -94.5t-14 -118.5z" />
<glyph unicode="p" horiz-adv-x="1202" d="M127 885q0 47 23 62.5t57 15.5h96q34 0 57 -15.5t23 -62.5v-43q58 84 131.5 115.5t165.5 31.5q97 0 177 -42t137 -112.5t88.5 -162.5t31.5 -193t-29.5 -193t-85 -161.5t-135.5 -110.5t-180 -41q-45 0 -83.5 6t-73.5 22t-67.5 43.5t-64.5 70.5v-447q0 -47 -23 -62.5 t-57 -15.5h-108q-34 0 -57 15.5t-23 62.5v1217zM385 483q0 -54 14.5 -104.5t43.5 -89.5t72.5 -62.5t102.5 -23.5q54 0 94.5 23.5t67.5 63t40.5 91t13.5 106.5q0 58 -14.5 109.5t-43 90t-70 61t-96.5 22.5q-53 0 -94.5 -22t-70.5 -60.5t-44.5 -91t-15.5 -113.5z" />
<glyph unicode="q" horiz-adv-x="1202" d="M86 479q0 101 31.5 193t88.5 162.5t137 112.5t177 42q90 0 163.5 -32t133.5 -113v41q0 47 23 62.5t57 15.5h94q34 0 57 -15.5t23 -62.5v-1217q0 -47 -23 -62.5t-57 -15.5h-106q-34 0 -57 15.5t-23 62.5v451q-32 -45 -64.5 -73t-67 -44.5t-73.5 -22.5t-84 -6 q-101 0 -180.5 41t-135 110.5t-85 161.5t-29.5 193zM367 487q0 -55 14 -106.5t41.5 -91t68 -63t93.5 -23.5q59 0 102.5 23.5t72 62.5t42.5 89.5t14 104.5q0 61 -15 113.5t-43.5 91t-70 60.5t-94.5 22q-56 0 -98 -22.5t-70 -61t-42.5 -90t-14.5 -109.5z" />
<glyph unicode="r" horiz-adv-x="731" d="M131 885q0 47 23 62.5t57 15.5h98q34 0 57 -15.5t23 -62.5v-131q19 51 52 95t75 79q9 7 23 17t32.5 20t41 17t46.5 7q22 0 36 -10.5t14 -36.5v-151q0 -17 -6 -28t-16.5 -18.5t-24.5 -12.5t-31 -9q-26 -8 -59.5 -19t-65.5 -38q-47 -39 -77 -96t-30 -136v-356 q0 -48 -22.5 -63t-57.5 -15h-108q-34 0 -57 15t-23 63v807z" />
<glyph unicode="s" horiz-adv-x="975" d="M84 203q-3 15 0 29t11.5 25t21 18t28.5 8l111 4q35 2 51.5 -11t30.5 -34q-1 1 1 -2l5 -7.5t6.5 -9.5t5.5 -8q23 -26 57.5 -36.5t71.5 -10.5q24 0 50 4t47 15t35 30.5t14 50.5t-16 50t-43.5 31.5t-64 20t-77.5 15.5l-65 12q-51 9 -100.5 25.5t-88 46.5t-62.5 76t-24 114 q0 85 30.5 147.5t83 103t122.5 60t149 19.5q78 0 143.5 -13.5t116.5 -41.5t86 -71t51 -101q4 -15 3.5 -28.5t-7 -24.5t-20.5 -18.5t-37 -8.5l-111 -6q-18 -1 -29 1.5t-18.5 7t-12.5 12l-11 16.5q-8 14 -13 20.5t-10 11.5q-42 50 -133 50q-24 0 -47.5 -5.5t-41.5 -16t-29 -27 t-11 -37.5q0 -32 17 -53t45.5 -34.5t67 -22t81.5 -15.5l66 -13q53 -10 104 -27t91 -48t64.5 -79t24.5 -120q0 -47 -18.5 -103.5t-66.5 -105.5t-131 -82t-212 -33q-74 0 -137.5 12t-114.5 39t-87 71t-54 108z" />
<glyph unicode="t" horiz-adv-x="670" d="M166 754h-57q-48 0 -64 22.5t-16 54.5v54q0 16 3.5 30.5t12.5 25t24.5 16.5t39.5 6h57v198q0 48 23 63t57 15h110q34 0 57 -15t23 -63v-198h133q25 0 40.5 -6t24.5 -16.5t12 -25t3 -30.5v-54q0 -16 -3 -30t-12 -24.5t-24.5 -16.5t-40.5 -6h-133v-465q0 -50 23 -67t71 -17 h25q10 0 20 -2t18.5 -8t13.5 -18t5 -32v-69q0 -34 -20.5 -51t-48.5 -25q-22 -6 -47 -8t-43 -2q-64 0 -116.5 12t-90.5 43t-59 83t-21 132v494z" />
<glyph unicode="u" horiz-adv-x="1116" d="M123 885q0 47 24 62.5t58 15.5h106q34 0 57 -15.5t23 -62.5v-508q0 -52 13.5 -88t35 -58t49 -31.5t56.5 -9.5q38 0 70 17t55 47t36 71.5t13 90.5v469q0 47 23 62.5t57 15.5h108q34 0 58 -15.5t24 -62.5v-807q0 -24 -6.5 -39t-17.5 -24t-26 -12t-32 -3h-98q-34 0 -57 15 t-23 63v37q-57 -79 -129.5 -110.5t-150.5 -31.5q-86 0 -147.5 26.5t-101 72.5t-58.5 107t-19 130v576z" />
<glyph unicode="v" horiz-adv-x="989" d="M35 889q-7 19 -4.5 33t11 23t21 13.5t25.5 4.5h156q32 0 52 -21.5t30 -52.5l172 -561l168 561q9 32 29.5 53t54.5 21h153q14 0 26.5 -4t20.5 -12.5t10 -22.5t-6 -35l-295 -815q-12 -32 -42 -53t-64 -21h-121q-35 0 -64.5 21t-41.5 53z" />
<glyph unicode="w" horiz-adv-x="1499" d="M39 887q-5 21 -2.5 35.5t10.5 23.5t21 13t28 4h146q34 0 50.5 -22t24.5 -54l125 -568l148 568q9 34 28 55t54 21h159q35 0 54 -22t28 -54l160 -570l123 570q7 32 23 54t53 22h131q15 0 28 -4t21.5 -13t11 -23.5t-3.5 -35.5l-233 -811q-10 -32 -38.5 -54t-62.5 -22h-122 q-36 0 -64 21t-37 55l-153 569l-162 -569q-11 -32 -40 -54t-63 -22h-116q-34 0 -62.5 22t-38.5 54z" />
<glyph unicode="x" horiz-adv-x="989" d="M334 481l-273 418q-8 15 -7 26.5t7 20t16 13t21 4.5h189q37 0 60 -18.5t38 -49.5l111 -195l114 197q17 28 41.5 47t59.5 19h180q12 0 21.5 -5t15 -13.5t5.5 -20t-7 -25.5l-279 -407l287 -429q10 -15 10.5 -26.5t-5.5 -20t-17 -12.5t-23 -4h-188q-35 0 -59.5 19t-41.5 47 l-123 206l-116 -204q-17 -29 -40.5 -48.5t-58.5 -19.5h-180q-12 0 -23 4t-17.5 12.5t-6.5 20t10 26.5z" />
<glyph unicode="y" horiz-adv-x="989" d="M39 889q-7 19 -4.5 33t11 23t21 13.5t25.5 4.5h160q34 0 54 -21.5t28 -52.5l170 -549l164 549q9 32 29.5 53t54.5 21h147q13 0 25.5 -4.5t20.5 -13.5t10 -23t-5 -33l-448 -1225q-13 -32 -33 -53t-55 -21h-140q-13 0 -25.5 3.5t-20.5 12t-10.5 22t5.5 34.5l131 338z" />
<glyph unicode="z" horiz-adv-x="915" d="M66 141q0 34 14 59.5t37 53.5l397 489h-344q-24 0 -39.5 6t-24.5 16.5t-12.5 25t-3.5 30.5v64q0 16 3.5 30.5t12.5 25t24.5 16.5t39.5 6h600q34 0 57 -15.5t23 -62.5v-70q0 -34 -14 -57.5t-37 -50.5l-393 -490h364q24 0 39.5 -6t24.5 -16.5t12.5 -25t3.5 -30.5v-61 q0 -16 -3.5 -30.5t-12.5 -25t-24.5 -16.5t-39.5 -6h-625q-34 0 -56.5 15t-22.5 63v63z" />
<glyph unicode="{" horiz-adv-x="684" d="M170 395q0 53 -23.5 85.5t-54.5 49.5q-15 9 -27 15.5t-20 14.5t-12 18.5t-4 25.5v45q0 16 4 27t11.5 19.5t18.5 14.5t25 13l16 8q25 16 45.5 47.5t20.5 83.5v418q0 64 24 111t60 78t79 46t81 15h82q47 0 63 -12.5t16 -44.5v-74q0 -17 -11 -28t-29 -11h-41 q-29 0 -46.5 -11.5t-26.5 -31t-12 -47t-3 -58.5v-376q0 -58 -20 -96.5t-49.5 -62t-63.5 -35t-62 -15.5q28 -5 62 -17t63.5 -35.5t49.5 -61t20 -93.5v-377q0 -32 3 -58.5t12 -45.5t26.5 -30t46.5 -11h41q18 0 29 -11t11 -28v-76q0 -32 -16 -44.5t-63 -12.5h-82q-38 0 -81 15 t-79 45.5t-60 77.5t-24 111v420z" />
<glyph unicode="|" horiz-adv-x="489" d="M147 1462q0 48 23 63t57 15h35q34 0 57 -15t23 -63v-1671q0 -47 -23 -62.5t-57 -15.5h-35q-34 0 -57 15.5t-23 62.5v1671z" />
<glyph unicode="}" horiz-adv-x="684" d="M109 -143q0 17 11 28t30 11h40q29 0 46.5 11t27 31t12.5 46.5t3 58.5v377q0 57 20 95.5t49.5 62.5t63 35.5t61.5 15.5q-28 4 -61.5 16t-63 35.5t-49.5 61.5t-20 94v376q0 31 -3 58t-12.5 46.5t-27 30.5t-46.5 11h-40q-19 0 -30 11t-11 28v76q0 16 3 27t11.5 17.5t24 9.5 t40.5 3h82q38 0 81 -15t79 -46t60 -78t24 -111v-420q0 -52 23.5 -85t54.5 -50q15 -9 27 -15.5t20 -14.5t12 -18.5t4 -25.5v-45q0 -32 -15.5 -46t-43.5 -28l-16 -8q-25 -15 -45.5 -46.5t-20.5 -84.5v-418q0 -64 -24 -111t-60 -77.5t-79 -45.5t-81 -15h-82q-25 0 -40.5 3 t-24 9.5t-11.5 17.5t-3 27v74v0z" />
<glyph unicode="~" d="M125 444q-31 29 -30.5 58t20.5 55q27 36 54.5 58t54.5 34.5t53 16.5t51 4q32 0 58 -5t49.5 -14.5t45 -23t45.5 -29.5q48 -34 79.5 -45.5t62.5 -11.5q15 0 33.5 10.5t33.5 26.5q10 11 21 20t24 11.5t28.5 -2.5t35.5 -21l26 -23q15 -12 22 -26.5t7 -29t-5 -28.5t-13 -26 q-54 -66 -109 -89.5t-104 -23.5q-29 0 -54.5 5t-49.5 14t-48 22t-49 29q-27 18 -47 28.5t-35.5 16.5t-28.5 8t-26 2q-16 0 -34.5 -9t-35.5 -26q-10 -12 -21 -21t-23.5 -12t-28 2t-35.5 23z" />
<glyph unicode="&#xa1;" horiz-adv-x="664" d="M332 678q-33 0 -61 12t-49 33t-32.5 49.5t-11.5 61.5q0 31 11.5 59.5t32.5 49.5t49 33.5t61 12.5t61 -12.5t48.5 -33.5t32 -49.5t11.5 -59.5q0 -33 -11.5 -61.5t-32 -49.5t-48.5 -33t-61 -12zM199 412q0 47 24 62t58 15h104q34 0 57 -15t23 -62v-760q0 -48 -23 -63 t-57 -15h-104q-17 0 -32 3t-26 12t-17.5 24t-6.5 39v760z" />
<glyph unicode="&#xa2;" d="M57 483q0 105 29.5 191t85 150.5t134.5 106t177 56.5v86q0 20 13 35.5t36 15.5h23q23 0 34 -15.5t11 -35.5v-84q72 -3 141.5 -23.5t126.5 -62.5q12 -9 20.5 -19.5t10.5 -23t-3.5 -27t-21.5 -32.5l-53 -60q-23 -21 -54.5 -18t-57.5 20q-23 14 -53.5 25t-55.5 16v-606 q60 3 117 43q15 10 29 17.5t27 9.5t25.5 -3t24.5 -20l54 -61q28 -33 28 -53q0 -16 -11.5 -27.5t-27.5 -22.5q-27 -18 -60 -33.5t-67.5 -27t-70 -19t-68.5 -8.5v-94q0 -20 -11.5 -35.5t-33.5 -15.5h-27q-23 0 -34 15.5t-11 35.5v96q-99 9 -178 52t-134 111t-84.5 156 t-29.5 189zM483 780q-51 -12 -87.5 -39.5t-60 -67t-35 -88.5t-11.5 -104q0 -53 12 -101t36 -87t60.5 -68.5t85.5 -44.5v600z" />
<glyph unicode="&#xa3;" d="M76 115q-9 18 -9 33t6 28t17 23.5t23 21.5q29 22 54.5 49.5t45 60.5t30.5 71.5t11 82.5q0 54 -9 93.5t-20 68.5h-108q-28 0 -48 9.5t-20 35.5v43q0 25 20 33t48 8h65q-12 22 -25 52t-23.5 64.5t-17.5 72t-7 75.5q0 74 23 142.5t71 121t122.5 84t178.5 31.5 q91 0 158 -18.5t113 -54t72.5 -86.5t37.5 -115q2 -15 0.5 -29.5t-9 -25t-22 -17t-37.5 -6.5h-102q-17 0 -27.5 3t-18 8.5t-13 14t-11.5 19.5q-5 9 -10.5 19.5t-13.5 19.5q-13 22 -38.5 35.5t-68.5 13.5q-46 0 -75 -17t-45 -42t-21.5 -54t-5.5 -53q0 -52 23 -117t61 -141h206 q26 0 45 -8t19 -33v-45q0 -26 -19 -34.5t-45 -8.5h-176q6 -23 11.5 -47t5.5 -49q0 -43 -6 -82t-23 -78t-46.5 -79.5t-76.5 -86.5q57 17 98 17q33 0 64.5 -6t63.5 -13.5t64.5 -13.5t65.5 -6q25 0 52.5 5t56.5 19q13 7 26 12.5t25 3t22 -14.5t17 -40l19 -79q6 -29 -12.5 -53.5 t-43.5 -37.5q-46 -20 -88.5 -30.5t-79.5 -10.5q-44 0 -86 11t-84 24.5t-83.5 25t-84.5 11.5q-21 0 -59.5 -6t-87.5 -29q-32 -14 -60.5 -8.5t-48.5 49.5z" />
<glyph unicode="&#xa4;" d="M76 276q-11 10 -14 21t-0.5 22.5t10 23t16.5 22.5l53 55q-22 24 -38.5 55.5t-27.5 66t-16.5 71t-5.5 71.5q0 36 5.5 73t16.5 71.5t27.5 66t38.5 55.5l-53 56q-17 20 -23 43.5t11 42.5l28 32q23 23 47.5 16t47.5 -30l45 -47q23 17 53 32t63 26t68 17.5t68 6.5 q71 0 139 -22.5t115 -59.5l45 47q11 12 22.5 20.5t23.5 11t24 -1.5t24 -18l26 -28q23 -23 16 -45.5t-26 -42.5l-53 -56q22 -24 38.5 -55.5t27.5 -66t16.5 -71.5t5.5 -73q0 -35 -5.5 -71.5t-16.5 -71t-27.5 -66t-38.5 -55.5l53 -55q19 -22 25.5 -47t-15.5 -44l-22 -22 q-25 -22 -50 -18.5t-48 26.5l-45 47q-23 -17 -53.5 -32t-64 -26t-68.5 -17.5t-68 -6.5q-72 0 -139 22.5t-113 59.5l-45 -47q-23 -23 -46.5 -30t-48.5 18zM496 418q51 0 96 21t78.5 57t53 84.5t19.5 103.5q0 56 -19.5 105t-53 85t-78.5 57t-96 21t-96 -21t-78 -57t-52.5 -85 t-19.5 -105q0 -55 19.5 -103.5t52.5 -84.5t78 -57t96 -21z" />
<glyph unicode="&#xa5;" d="M188 354q-27 0 -47 8.5t-20 34.5v45q0 26 20 34.5t47 8.5h185v162h-185q-27 0 -47 8.5t-20 34.5v45q0 25 20 33t47 8h119l-244 545q-8 19 -6.5 32.5t9.5 22.5t20.5 13t26.5 4h135q34 0 54.5 -22.5t31.5 -51.5l162 -475l176 475q12 34 32.5 54t55.5 20h110q14 0 26.5 -4 t20.5 -13t9.5 -22.5t-6.5 -32.5l-242 -545h117q27 0 46 -8t19 -33v-45q0 -26 -19 -34.5t-46 -8.5h-189v-162h187q29 0 48 -8.5t19 -34.5v-45q0 -26 -19 -34.5t-48 -8.5h-187v-276q0 -32 -23 -55t-57 -23h-73q-34 0 -57 23t-23 55v276h-185v0z" />
<glyph unicode="&#xa6;" horiz-adv-x="489" d="M227 856q-34 0 -57 15t-23 63v467q0 47 23 62.5t57 15.5h35q34 0 57 -15.5t23 -62.5v-467q0 -48 -23 -63t-57 -15h-35zM147 319q0 48 23 63t57 15h35q34 0 57 -15t23 -63v-466q0 -48 -23 -63t-57 -15h-35q-34 0 -57 15t-23 63v466z" />
<glyph unicode="&#xa7;" d="M61 -74q-8 31 5 54.5t61 25.5l82 4q16 1 30 -5.5t26 -17.5t21.5 -24t16.5 -26q23 -53 68.5 -76t101.5 -23q28 0 57 9t52.5 28t38 47t14.5 66t-12 66.5t-36 51t-60.5 41t-84.5 37.5q-21 10 -44.5 19t-49.5 18q-55 21 -107.5 48.5t-93 66t-65.5 90.5t-25 121q0 55 14 100.5 t38 82t57 65t72 49.5q-63 40 -93 98t-30 135q0 85 35 149.5t91.5 107t128.5 64t146 21.5q82 0 147.5 -19t114 -52.5t79.5 -79t44 -97.5q3 -14 2 -27.5t-7.5 -25t-20.5 -18.5t-37 -8l-84 -5q-17 -1 -28.5 2.5t-20.5 10t-15.5 15.5t-13.5 20l-6 12t-8 12q-22 26 -56.5 43 t-87.5 17q-29 0 -56.5 -8t-50 -25t-36 -42.5t-13.5 -60.5q0 -42 21 -73t53 -55t70 -41.5t72 -32.5q72 -32 137 -67.5t114 -79.5t78 -100.5t29 -131.5q0 -42 -11.5 -81.5t-31.5 -73.5t-48 -61.5t-61 -45.5q60 -47 82.5 -106.5t22.5 -131.5q0 -88 -36 -156.5t-95 -116 t-133.5 -72t-151.5 -24.5q-101 0 -173.5 23.5t-121.5 63.5t-77 93t-40 113zM633 330q34 20 51.5 59.5t17.5 79.5q0 39 -12.5 67.5t-32.5 50t-46 37.5t-54 29l-170 82q-18 -6 -35 -18t-30.5 -29.5t-22 -41.5t-8.5 -54q0 -37 12.5 -64t33 -47.5t46 -35.5t51.5 -27z" />
<glyph unicode="&#xa8;" horiz-adv-x="500" d="M438 1122q-29 0 -54 11t-43.5 30.5t-29 44.5t-10.5 54q0 28 10.5 53.5t29 44.5t43.5 30t54 11q28 0 53 -11t44 -30t29.5 -44.5t10.5 -53.5q0 -29 -10.5 -54t-29.5 -44.5t-44 -30.5t-53 -11zM61 1122q-28 0 -53 11t-43.5 30.5t-29.5 44.5t-11 54q0 28 11 53.5t29.5 44.5 t43.5 30t53 11t53.5 -11t45 -30t30.5 -44.5t11 -53.5q0 -29 -11 -54t-30.5 -44.5t-45 -30.5t-53.5 -11z" />
<glyph unicode="&#xa9;" horiz-adv-x="1753" d="M186 696q0 100 24.5 192.5t69.5 172.5t108 145.5t140 112.5t166 72.5t185 25.5t184.5 -25.5t165.5 -72.5t140 -112.5t108 -145.5t69.5 -172.5t24.5 -192.5q0 -99 -24.5 -191.5t-69.5 -172.5t-108 -146.5t-140 -113.5t-165.5 -73t-184.5 -26t-185 26t-166 73t-140 113.5 t-108 146.5t-69.5 172.5t-24.5 191.5zM299 696q0 -135 44.5 -249.5t122.5 -198.5t184 -131t229 -47t228.5 47t183 131t121.5 198.5t44 249.5t-44 249.5t-121.5 198t-183 130.5t-228.5 47t-229 -47t-184 -130.5t-122.5 -198t-44.5 -249.5zM510 702q0 91 27 169t77 134.5 t122.5 88.5t164.5 32q57 0 107.5 -14t92 -42t72 -70t48.5 -97q0 -2 1 -3t1 -3q4 -13 6 -25.5t-1.5 -22.5t-14 -16t-31.5 -6h-64q-32 0 -43.5 11.5t-21.5 29.5l-19 31q-25 35 -62.5 51.5t-80.5 16.5q-48 0 -84.5 -19t-61 -53.5t-37 -83t-12.5 -106.5q0 -56 14 -105t40 -85.5 t63 -57.5t82 -21q48 0 85 18t58 52l17 29q5 10 10 18.5t12.5 14.5t18.5 9t28 3h56q23 0 35 -6.5t16 -17.5t1.5 -24.5t-7.5 -27.5q-20 -48 -53.5 -89.5t-76 -71.5t-91 -47t-99.5 -17q-90 0 -162.5 32.5t-124.5 89.5t-80 134t-28 167z" />
<glyph unicode="&#xaa;" horiz-adv-x="975" d="M406 692q-39 0 -81 11.5t-76.5 37t-56.5 67t-22 101.5q0 68 26 110.5t73.5 66.5t115 33t150.5 9h55v21q0 54 -22 85.5t-76 31.5q-23 0 -40.5 -7.5t-31.5 -19.5q-18 -15 -27 -35q-6 -11 -15 -17.5t-40 -6.5h-92q-23 0 -34 6.5t-13.5 17.5t0.5 24t8 27q12 35 36.5 64.5 t61 51.5t86.5 34t115 12q83 0 138 -18.5t87.5 -53t46 -84t13.5 -110.5v-330q0 -11 1 -26.5t3 -44.5q1 -9 0.5 -16.5t-4.5 -13t-13 -8.5t-26 -3h-84q-31 0 -45.5 17t-20.5 46q-35 -38 -85 -59t-111 -21zM467 842q24 0 46 7.5t39 23t27.5 41t10.5 61.5v29h-35q-33 0 -64.5 -3 t-56.5 -12.5t-40 -26.5t-15 -44q0 -44 25 -60t63 -16z" />
<glyph unicode="&#xab;" horiz-adv-x="975" d="M504 459q-9 15 -15 33t-6 36q0 14 6.5 34t12.5 32l106 201q17 31 36.5 49t57.5 18h60q12 0 23.5 -4.5t18.5 -13t8 -21t-7 -28.5l-148 -269l154 -270q11 -21 10.5 -34t-8 -20.5t-19.5 -10.5t-24 -3h-59q-35 0 -56.5 19.5t-38.5 48.5zM164 459q-8 15 -13.5 33t-5.5 36 q0 17 4.5 33.5t12.5 32.5l108 201q17 31 36 49t56 18h62q13 0 26 -2t21 -8.5t8 -20t-12 -36.5l-148 -269l154 -270q11 -21 10.5 -34t-8 -20.5t-19.5 -10.5t-24 -3h-59q-38 0 -58 18.5t-39 49.5z" />
<glyph unicode="&#xac;" d="M133 563q-24 0 -39.5 6t-24.5 16.5t-12.5 25t-3.5 30.5v41q0 16 3.5 30.5t12.5 25t24.5 16.5t39.5 6h729q34 0 57 -15.5t23 -62.5v-350q0 -48 -23 -63t-57 -15h-39q-34 0 -57 15t-23 63v231h-610v0z" />
<glyph unicode="&#xad;" horiz-adv-x="702" d="M211 393q-24 0 -39.5 6t-24.5 16.5t-12.5 25t-3.5 30.5v47q0 16 3.5 30.5t12.5 25t24.5 16.5t39.5 6h281q24 0 39.5 -6t24.5 -16.5t12 -25t3 -30.5v-47q0 -16 -3 -30.5t-12 -25t-24.5 -16.5t-39.5 -6h-281v0z" />
<glyph unicode="&#xae;" horiz-adv-x="1169" d="M588 551q-94 0 -176.5 35.5t-144 98t-97 146t-35.5 179.5t35.5 180.5t97 148t144 100t176.5 36.5q92 0 173.5 -36.5t142 -100t95.5 -148t35 -180.5t-35 -179.5t-95.5 -146t-142 -98t-173.5 -35.5zM588 618q75 0 141 31t115.5 84.5t78.5 124.5t29 152q0 82 -29 154 t-78.5 125.5t-115.5 84.5t-141 31q-77 0 -144.5 -31t-118 -84.5t-79.5 -125.5t-29 -154q0 -81 29 -152t79.5 -124.5t118 -84.5t144.5 -31zM436 754q-31 0 -42 17t-11 54v398q0 20 6 32.5t17 19t25.5 9t31.5 2.5h143q39 0 77 -8.5t69 -28t50 -51.5t19 -80q0 -52 -28 -90 t-74 -55l90 -152q6 -11 8.5 -23t-1 -22t-15 -16t-33.5 -6h-41q-19 0 -32 5t-22.5 14t-17 22t-16.5 28l-61 127h-46v-125q0 -37 -13 -54t-42 -17h-41zM600 1057q25 0 44.5 16.5t19.5 42.5t-20.5 38.5t-43.5 12.5h-68v-110h68z" />
<glyph unicode="&#xaf;" horiz-adv-x="500" d="M51 1178q-26 0 -43.5 7t-17.5 32v45q0 24 17.5 31t43.5 7h398q26 0 44.5 -7t18.5 -31v-45q0 -25 -18.5 -32t-44.5 -7h-398v0z" />
<glyph unicode="&#xb0;" horiz-adv-x="780" d="M391 819q-66 0 -124 26t-100.5 70.5t-67.5 104t-25 127.5q0 67 25 127t67.5 104.5t100.5 70.5t124 26q65 0 123 -26t101.5 -70.5t68.5 -104.5t25 -127q0 -68 -25 -127.5t-68.5 -104t-101.5 -70.5t-123 -26zM391 979q31 0 59 13.5t49 36t33.5 53t12.5 65.5q0 34 -12.5 65 t-33.5 53.5t-49 36t-59 13.5q-32 0 -59.5 -13.5t-48.5 -36t-33 -53.5t-12 -65q0 -35 12 -65.5t33 -53t48.5 -36t59.5 -13.5z" />
<glyph unicode="&#xb1;" d="M174 535q-47 0 -63.5 22.5t-16.5 54.5v39q0 16 3.5 30.5t12.5 25t24.5 16.5t39.5 6h232v152q0 47 22.5 62t56.5 15h29q34 0 57 -15t23 -62v-152h227q24 0 39.5 -6t24.5 -16.5t12.5 -25t3.5 -30.5v-39q0 -32 -16 -54.5t-64 -22.5h-227v-156q0 -48 -23 -63t-57 -15h-29 q-34 0 -56.5 15t-22.5 63v156h-232zM94 162q0 16 3.5 30.5t12.5 25t24.5 16.5t39.5 6h647q24 0 39.5 -6t24.5 -16.5t12.5 -25t3.5 -30.5v-41q0 -16 -3.5 -30.5t-12.5 -25t-24.5 -16.5t-39.5 -6h-647q-24 0 -39.5 6t-24.5 16.5t-12.5 25t-3.5 30.5v41z" />
<glyph unicode="&#xb2;" horiz-adv-x="780" d="M209 598q-31 0 -52.5 13.5t-21.5 58.5v28q0 25 14 48t35 49l191 217q37 42 57.5 79t20.5 80q0 36 -15 57t-47 21q-18 0 -36 -16t-27 -39l-9 -18q-5 -13 -9 -24t-11 -18.5t-17.5 -11.5t-27.5 -4h-64q-15 0 -25 7t-15.5 18t-7 25t0.5 28q12 51 36.5 91t58 67.5t73.5 42 t84 14.5q61 0 107 -16t77.5 -46t47.5 -72.5t16 -94.5q0 -37 -9.5 -72.5t-29.5 -72.5t-52.5 -78.5t-78.5 -90.5l-100 -104h192q49 0 64.5 -13.5t15.5 -45.5v-48q0 -32 -15.5 -45.5t-64.5 -13.5h-356v0z" />
<glyph unicode="&#xb3;" horiz-adv-x="780" d="M385 584q-41 0 -79 9.5t-70.5 28.5t-57 48t-39.5 67q-11 28 -6 51.5t43 28.5l82 10q22 3 30 -5t19 -23l17 -23q22 -31 61 -31q22 0 37.5 9.5t25.5 25.5t14.5 35.5t4.5 40.5q0 45 -24 72.5t-72 27.5q-20 0 -33 -2t-23 -4q-5 -2 -10.5 -3t-11.5 -1q-16 0 -26.5 9.5 t-10.5 29.5v68q0 32 14 51.5t39 44.5l82 84h-153q-26 0 -41.5 2t-24 7.5t-11.5 15.5t-3 26v55q0 16 3 27t11.5 18t24 10t41.5 3h311q16 0 30 -3t24 -11t16 -22.5t6 -37.5v-33q0 -32 -14.5 -51.5t-39.5 -44.5l-102 -102q90 -14 139 -76t49 -156q0 -62 -19 -112.5t-54.5 -87 t-86 -56.5t-112.5 -20z" />
<glyph unicode="&#xb4;" horiz-adv-x="500" d="M125 1135q-14 0 -27 2t-20.5 9t-7.5 20t12 34l78 129q16 29 35 47.5t57 18.5h135q11 0 18.5 -6t11.5 -14.5t3 -18t-8 -17.5l-140 -149q-23 -26 -47 -40.5t-59 -14.5h-41v0z" />
<glyph unicode="&#xb5;" horiz-adv-x="1120" d="M373 -389q0 -48 -23 -63t-57 -15h-86q-34 0 -57 15t-23 63v1274q0 47 23 62.5t57 15.5h86q34 0 57 -15.5t23 -62.5v-400q0 -27 1.5 -59t6.5 -64t15.5 -61.5t29 -52.5t46 -37t67.5 -14q56 0 95 20.5t64 55t36 79.5t11 94v439q0 47 24 62.5t58 15.5h84q34 0 57 -15.5 t23 -62.5v-807q0 -48 -23 -63t-57 -15h-73q-34 0 -57 15t-23 63v57q-16 -32 -40 -61t-56 -51t-74 -35t-94 -13q-36 0 -68 8t-53 29v-401z" />
<glyph unicode="&#xb6;" horiz-adv-x="1092" d="M391 684q-92 1 -163.5 24.5t-121.5 68t-76 109t-26 146.5q0 107 32.5 176.5t90 110.5t136.5 57.5t171 16.5h440q17 0 32 -3.5t25.5 -12t16.5 -23.5t6 -39v-1626q0 -48 -22.5 -63t-57.5 -15h-34q-34 0 -57 15t-23 63v1544h-174v-1544q0 -48 -23 -63t-57 -15h-35 q-34 0 -57 15t-23 63v995z" />
<glyph unicode="&#xb7;" horiz-adv-x="500" d="M250 449q-33 0 -61 12.5t-49 33.5t-32.5 49t-11.5 60q0 33 11.5 61.5t32.5 49.5t49 33t61 12q31 0 59.5 -12t50 -33t34 -49.5t12.5 -61.5q0 -32 -12.5 -60t-34 -49t-50 -33.5t-59.5 -12.5z" />
<glyph unicode="&#xb8;" horiz-adv-x="500" d="M199 0h112l-53 -106h35q37 0 70 -9t57.5 -27.5t38.5 -47t14 -68.5q0 -56 -20.5 -94t-56 -61t-82.5 -32.5t-101 -9.5q-8 0 -20.5 0.5t-27.5 2t-31 3.5t-30 5q-20 3 -34 13.5t-11 29.5l7 34q3 19 18 23.5t37 1.5q17 -2 38.5 -3t35.5 -1q21 0 40.5 3t35 12t25 24.5t9.5 40.5 q0 21 -8 34t-21.5 20.5t-31 10t-37.5 2.5q-16 0 -31.5 -1.5t-28.5 -4.5q-22 -3 -28 6l-7 9q-6 8 -5.5 14t4.5 12z" />
<glyph unicode="&#xb9;" horiz-adv-x="780" d="M440 598q-34 0 -57 15t-23 63v506q-20 -11 -41.5 -19.5t-44.5 -17.5q-14 -6 -27.5 -10.5t-24.5 -2t-18 12.5t-7 33v53q0 32 20 51t51 35q17 9 38.5 23t47.5 32q25 17 46 28t55 11h37q27 0 40 -12t13 -53v-670q0 -48 -23 -63t-57 -15h-25v0z" />
<glyph unicode="&#xba;" horiz-adv-x="975" d="M485 688q-98 0 -168 31t-114.5 82t-65 117t-20.5 137q0 69 23.5 135t69.5 117t115 82.5t160 31.5q99 0 170 -31.5t116 -82.5t66 -117t21 -135q0 -71 -24 -137t-71 -117t-117 -82t-161 -31zM485 860q39 0 68 14.5t48 40t28.5 61.5t9.5 79q0 42 -9.5 77.5t-28.5 61.5 t-48 40.5t-68 14.5t-68 -14.5t-47.5 -40.5t-28 -61.5t-9.5 -77.5q0 -43 9.5 -79t28 -61.5t47.5 -40t68 -14.5z" />
<glyph unicode="&#xbb;" horiz-adv-x="975" d="M657 524l-153 271q-11 21 -10.5 34t8 20.5t19.5 10t24 2.5h57q38 0 58.5 -18t37.5 -49l113 -203q9 -16 14.5 -33.5t5.5 -36.5q0 -14 -6 -33.5t-12 -31.5l-106 -201q-9 -15 -18 -27.5t-19.5 -21.5t-24.5 -14t-33 -5h-59q-13 0 -25.5 2.5t-20 10t-8 21t10.5 34.5zM213 188 q-13 0 -26 2t-21 9t-8 20.5t12 36.5l147 268l-153 271q-11 21 -10.5 34t8 20.5t19.5 10t24 2.5h59q38 0 58 -18t38 -49l113 -203q8 -16 13.5 -33.5t5.5 -36.5q0 -17 -4.5 -33.5t-12.5 -31.5l-108 -201q-17 -31 -35.5 -49.5t-57.5 -18.5h-61z" />
<glyph unicode="&#xbc;" horiz-adv-x="1753" d="M1100 1346q8 14 16 25.5t18 20t23 13t31 4.5h39q21 0 30.5 -6t11.5 -15.5t-1.5 -21t-7.5 -23.5l-693 -1314q-15 -31 -35 -49.5t-57 -18.5h-41q-22 0 -31.5 6.5t-11 16t2.5 21.5t9 24zM440 598q-34 0 -57 15t-23 63v506q-20 -11 -41.5 -19.5t-44.5 -17.5 q-14 -6 -27.5 -10.5t-24.5 -2t-18 12.5t-7 33v53q0 32 20 51t51 35q17 9 38.5 23t47.5 32q25 17 46 28t55 11h37q27 0 40 -12t13 -53v-670q0 -48 -23 -63t-57 -15h-25zM985 303q0 35 12.5 59.5t30.5 53.5l213 325q19 28 39.5 46t58.5 18h50q34 0 56.5 -23t22.5 -55v-389h23 q31 0 53.5 -14t22.5 -43v-33q0 -29 -22.5 -43.5t-53.5 -14.5h-23v-112q0 -32 -15.5 -55t-49.5 -23h-47q-34 0 -50 23t-16 55v112h-225q-34 0 -57 17t-23 49v47zM1290 338v231l-143 -231h143z" />
<glyph unicode="&#xbd;" horiz-adv-x="1753" d="M1100 1346q8 14 16 25.5t18 20t23 13t31 4.5h39q21 0 30.5 -6t11.5 -15.5t-1.5 -21t-7.5 -23.5l-693 -1314q-15 -31 -35 -49.5t-57 -18.5h-41q-22 0 -31.5 6.5t-11 16t2.5 21.5t9 24zM440 598q-34 0 -57 15t-23 63v506q-20 -11 -41.5 -19.5t-44.5 -17.5 q-14 -6 -27.5 -10.5t-24.5 -2t-18 12.5t-7 33v53q0 32 20 51t51 35q17 9 38.5 23t47.5 32q25 17 46 28t55 11h37q27 0 40 -12t13 -53v-670q0 -48 -23 -63t-57 -15h-25zM1135 0q-15 0 -29 3t-24.5 10.5t-16.5 21.5t-6 37v28q0 25 13.5 48t35.5 49l190 217q38 42 58 79t20 80 q0 36 -14.5 57t-46.5 21q-19 0 -36.5 -16t-27.5 -39l-8 -18q-5 -13 -9 -24t-11 -18.5t-17.5 -11.5t-27.5 -4h-64q-15 0 -25.5 7t-16 18t-6.5 25t1 28q12 51 36 91t57.5 67.5t74 42t84.5 14.5q61 0 107.5 -16t78 -46t48 -72.5t16.5 -94.5q0 -38 -8.5 -72.5t-29 -71.5 t-53.5 -78t-81 -92l-99 -104h191q49 0 65.5 -13.5t16.5 -46.5v-47q0 -32 -16.5 -45.5t-65.5 -13.5h-354z" />
<glyph unicode="&#xbe;" horiz-adv-x="1753" d="M1126 1346q16 29 33.5 46t54.5 17h39q21 0 30.5 -6t11.5 -15.5t-2 -21t-9 -23.5l-690 -1314q-17 -31 -36.5 -49.5t-57.5 -18.5h-41q-22 0 -31.5 6.5t-11 16t3 21.5t10.5 24zM383 584q-41 0 -79 9.5t-70.5 28.5t-57 48t-39.5 67q-11 28 -6 51.5t43 28.5l82 10q22 3 30 -5 t19 -23l17 -23q22 -31 61 -31q22 0 37.5 9.5t25.5 25.5t14.5 35.5t4.5 40.5q0 45 -23.5 72.5t-72.5 27.5q-20 0 -33 -2t-23 -4q-5 -2 -10.5 -3t-11.5 -1q-16 0 -26.5 9.5t-10.5 29.5v68q0 32 14 51.5t39 44.5l82 84h-153q-26 0 -41.5 2t-24 7.5t-11.5 15.5t-3 26v55 q0 16 3 27t11.5 18t24 10t41.5 3h311q16 0 30 -3t24 -11t16 -22.5t6 -37.5v-33q0 -32 -14.5 -51.5t-39.5 -44.5l-102 -102q90 -14 139 -76t49 -156q0 -62 -19 -112.5t-54.5 -87t-86 -56.5t-112.5 -20zM985 274q0 51 12.5 82t30.5 60l213 325q9 15 19.5 26.5t25 20t33.5 13 t45 4.5h25q34 0 56.5 -15t22.5 -63v-389h23q46 0 61 -22t15 -54q0 -29 -15 -50.5t-61 -21.5h-23v-112q0 -48 -22.5 -63t-56.5 -15h-17q-17 0 -32 3t-26 12t-17.5 24t-6.5 39v112h-225q-24 0 -39.5 6t-24.5 16.5t-12.5 25t-3.5 30.5v6zM1290 338v231l-143 -231h143z" />
<glyph unicode="&#xbf;" horiz-adv-x="1014" d="M631 459q-1 -51 -13.5 -95t-33.5 -82.5t-49.5 -72t-61.5 -64.5q-24 -22 -46.5 -46.5t-40 -52t-28 -59t-10.5 -67.5q0 -75 37 -110t102 -35q53 0 88.5 30.5t49.5 85.5q0 4 1 8t1 7q2 14 5 25.5t10 20t20.5 13t37.5 4.5h111q23 0 37.5 -6.5t23 -17t10.5 -25t1 -29.5 q-11 -81 -43 -145t-83.5 -108.5t-121.5 -67.5t-156 -23q-75 0 -146.5 20.5t-127 64.5t-89.5 114.5t-34 171.5q0 65 16 116t42 92t59 74.5t67 63.5q30 25 51.5 48.5t36 47.5t21.5 49.5t8 55.5v8q0 35 13 47t42 12h131q29 0 45.5 -13.5t16.5 -51.5v-8zM647 834 q0 -33 -11.5 -61.5t-32 -49.5t-48.5 -33t-61 -12q-32 0 -60 12t-49 33t-33 49.5t-12 61.5q0 31 12 59.5t33 49.5t49 33.5t60 12.5q33 0 61 -12.5t48.5 -33.5t32 -49.5t11.5 -59.5z" />
<glyph unicode="&#xc0;" horiz-adv-x="1235" d="M453 1319q11 32 40.5 53t63.5 21h131q35 0 64.5 -21t40.5 -53l411 -1245q7 -21 5 -35t-10.5 -23t-21.5 -12.5t-28 -3.5h-162q-35 0 -54 21t-30 53l-65 217h-451l-61 -215q-11 -34 -30.5 -55t-53.5 -21h-156q-14 0 -26.5 4.5t-21 13.5t-11 23t3.5 33zM780 516l-166 520 l-161 -520h327zM602 1524q-35 0 -60 15t-47 40l-141 149q-7 8 -7.5 17.5t3.5 18t12 14.5t19 6h133q38 0 57.5 -18.5t36.5 -47.5l76 -129q12 -21 12 -34t-7.5 -20t-20 -9t-25.5 -2h-41v0z" />
<glyph unicode="&#xc1;" horiz-adv-x="1235" d="M453 1319q11 32 40.5 53t63.5 21h131q35 0 64.5 -21t40.5 -53l411 -1245q7 -21 5 -35t-10.5 -23t-21.5 -12.5t-28 -3.5h-162q-35 0 -54 21t-30 53l-65 217h-451l-61 -215q-11 -34 -30.5 -55t-53.5 -21h-156q-14 0 -26.5 4.5t-21 13.5t-11 23t3.5 33zM780 516l-166 520 l-161 -520h327zM608 1524q-14 0 -27 2t-20.5 9t-7.5 20t12 34l78 129q16 29 35 47.5t57 18.5h135q11 0 18.5 -6t11.5 -14.5t3 -18t-8 -17.5l-140 -149q-23 -26 -47 -40.5t-59 -14.5h-41v0z" />
<glyph unicode="&#xc2;" horiz-adv-x="1235" d="M453 1319q11 32 40.5 53t63.5 21h131q35 0 64.5 -21t40.5 -53l411 -1245q7 -21 5 -35t-10.5 -23t-21.5 -12.5t-28 -3.5h-162q-35 0 -54 21t-30 53l-65 217h-451l-61 -215q-11 -34 -30.5 -55t-53.5 -21h-156q-14 0 -26.5 4.5t-21 13.5t-11 23t3.5 33zM780 516l-166 520 l-161 -520h327zM396 1513q-12 0 -24 2.5t-18.5 9.5t-5.5 19.5t15 32.5l98 143q22 29 46 46.5t61 17.5h108q18 0 31.5 -4.5t24 -13t19.5 -20t19 -26.5l101 -143q14 -20 15 -32.5t-5.5 -19.5t-18.5 -9.5t-24 -2.5h-47q-37 0 -58 17t-42 45l-74 98l-74 -98q-11 -14 -20.5 -25.5 t-20 -19.5t-24 -12.5t-31.5 -4.5h-51v0z" />
<glyph unicode="&#xc3;" horiz-adv-x="1235" d="M453 1319q11 32 40.5 53t63.5 21h131q35 0 64.5 -21t40.5 -53l411 -1245q7 -21 5 -35t-10.5 -23t-21.5 -12.5t-28 -3.5h-162q-35 0 -54 21t-30 53l-65 217h-451l-61 -215q-11 -34 -30.5 -55t-53.5 -21h-156q-14 0 -26.5 4.5t-21 13.5t-11 23t3.5 33zM780 516l-166 520 l-161 -520h327zM334 1526q-23 0 -27 15t1 34q8 32 23.5 62.5t38.5 54t54 37.5t72 14q37 0 70.5 -10.5t64.5 -22.5l27 -12q22 -10 44 -17.5t38 -7.5q38 0 53 25q3 6 7 10l6 8t5 6q10 14 19.5 21.5t32.5 7.5h30q22 0 27 -15.5t0 -33.5q-9 -32 -23.5 -61.5t-37 -52t-53.5 -36.5 t-72 -14q-35 0 -69 10t-64 23l-23 8q-25 11 -46 19t-40 8q-41 0 -66 -33l-8 -17q-8 -14 -16 -22t-33 -8h-35z" />
<glyph unicode="&#xc4;" horiz-adv-x="1235" d="M453 1319q11 32 40.5 53t63.5 21h131q35 0 64.5 -21t40.5 -53l411 -1245q7 -21 5 -35t-10.5 -23t-21.5 -12.5t-28 -3.5h-162q-35 0 -54 21t-30 53l-65 217h-451l-61 -215q-11 -34 -30.5 -55t-53.5 -21h-156q-14 0 -26.5 4.5t-21 13.5t-11 23t3.5 33zM780 516l-166 520 l-161 -520h327zM807 1519q-29 0 -54 11t-43.5 30.5t-29 44.5t-10.5 54q0 28 10.5 53.5t29 44.5t43.5 30t54 11q28 0 53 -11t44 -30t29.5 -44.5t10.5 -53.5q0 -29 -10.5 -54t-29.5 -44.5t-44 -30.5t-53 -11zM430 1519q-28 0 -53 11t-43.5 30.5t-29.5 44.5t-11 54 q0 28 11 53.5t29.5 44.5t43.5 30t53 11t53.5 -11t45 -30t30.5 -44.5t11 -53.5q0 -29 -11 -54t-30.5 -44.5t-45 -30.5t-53.5 -11z" />
<glyph unicode="&#xc5;" horiz-adv-x="1235" d="M453 1319q11 32 40.5 53t63.5 21h131q35 0 64.5 -21t40.5 -53l411 -1245q7 -21 5 -35t-10.5 -23t-21.5 -12.5t-28 -3.5h-162q-35 0 -54 21t-30 53l-65 217h-451l-61 -215q-11 -34 -30.5 -55t-53.5 -21h-156q-14 0 -26.5 4.5t-21 13.5t-11 23t3.5 33zM780 516l-166 520 l-161 -520h327zM612 1487q-39 0 -73.5 15.5t-59.5 42t-39.5 60.5t-14.5 72q0 39 14.5 73.5t39.5 60.5t59.5 41.5t73.5 15.5q37 0 71.5 -15t60 -41t41 -61t15.5 -74q0 -38 -15.5 -72t-41 -60.5t-60 -42t-71.5 -15.5zM612 1587q16 0 30.5 7t25.5 19.5t17.5 29t6.5 34.5 q0 19 -6.5 36t-17.5 29.5t-25.5 19.5t-30.5 7t-30.5 -7t-25.5 -19.5t-17.5 -29.5t-6.5 -36q0 -18 6.5 -34.5t17.5 -29t25.5 -19.5t30.5 -7z" />
<glyph unicode="&#xc6;" horiz-adv-x="1667" d="M606 1321q16 32 45 52t66 20h768q24 0 39.5 -6t24.5 -16.5t12.5 -25t3.5 -30.5v-92q0 -16 -3.5 -30.5t-12.5 -25t-24.5 -16.5t-39.5 -6h-377v-318h291q47 0 63.5 -22.5t16.5 -54.5v-93q0 -32 -16.5 -54.5t-63.5 -22.5h-291v-332h405q24 0 39.5 -6t24.5 -16.5t12.5 -25 t3.5 -30.5v-92q0 -16 -3.5 -30.5t-12.5 -25t-24.5 -16.5t-39.5 -6h-602q-34 0 -57 15t-23 63v221h-372l-94 -227q-16 -32 -46 -52t-67 -20h-160q-14 0 -26.5 4t-20.5 12.5t-9.5 22t7.5 33.5zM831 535v643h-16l-262 -643h278z" />
<glyph unicode="&#xc7;" horiz-adv-x="1409" d="M659 -20q-124 14 -227.5 67.5t-178 144t-116 217t-41.5 287.5q0 101 22 194t63 173t99.5 146t132.5 112.5t161.5 72t185.5 25.5q103 0 195 -21.5t168.5 -67t134.5 -116.5t92 -170q5 -14 6 -28t-4.5 -25.5t-19 -20.5t-36.5 -14l-143 -28q-34 -5 -56.5 13.5t-37.5 49.5 q-42 96 -118.5 138t-178.5 42q-84 0 -151.5 -38t-115 -103t-73 -152t-25.5 -184q0 -111 27 -198.5t76 -148.5t118.5 -93.5t153.5 -32.5q82 0 155.5 35.5t123.5 114.5q17 32 38 50t56 13l160 -20q22 -4 34.5 -13t18 -20t4 -24.5t-7.5 -26.5q-40 -89 -100.5 -155 t-136.5 -110.5t-164 -67.5t-183 -24l-39 -79h35q37 0 70 -9t57.5 -27.5t38.5 -47t14 -68.5q0 -56 -20.5 -94t-56 -61t-82.5 -32.5t-101 -9.5q-8 0 -20.5 0.5t-27.5 2t-31 3.5t-29 5q-20 3 -34.5 13.5t-11.5 29.5l7 34q3 19 18 23.5t37 1.5q17 -2 38.5 -3t35.5 -1 q21 0 40.5 3t35 12t25 24.5t9.5 40.5q0 21 -8 34t-21.5 20.5t-31 10t-37.5 2.5q-16 0 -32 -1.5t-27 -4.5q-11 -2 -19 -1t-14 9l-4 7q-5 8 -4 14t4 12z" />
<glyph unicode="&#xc8;" horiz-adv-x="1077" d="M141 1315q0 47 23 62.5t57 15.5h674q24 0 39.5 -6t24.5 -16.5t12.5 -25t3.5 -30.5v-92q0 -16 -3.5 -30.5t-12.5 -25t-24.5 -16.5t-39.5 -6h-477v-318h393q47 0 63.5 -22.5t16.5 -54.5v-93q0 -32 -16.5 -54.5t-63.5 -22.5h-393v-332h506q24 0 39.5 -6t24.5 -16.5t12.5 -25 t3.5 -30.5v-92q0 -16 -3.5 -30.5t-12.5 -25t-24.5 -16.5t-39.5 -6h-703q-34 0 -57 15t-23 63v1237zM563 1524q-35 0 -60 15t-47 40l-141 149q-7 8 -7.5 17.5t3.5 18t12 14.5t19 6h133q38 0 57.5 -18.5t36.5 -47.5l76 -129q12 -21 12 -34t-7.5 -20t-20 -9t-25.5 -2h-41v0z " />
<glyph unicode="&#xc9;" horiz-adv-x="1077" d="M141 1315q0 47 23 62.5t57 15.5h674q24 0 39.5 -6t24.5 -16.5t12.5 -25t3.5 -30.5v-92q0 -16 -3.5 -30.5t-12.5 -25t-24.5 -16.5t-39.5 -6h-477v-318h393q47 0 63.5 -22.5t16.5 -54.5v-93q0 -32 -16.5 -54.5t-63.5 -22.5h-393v-332h506q24 0 39.5 -6t24.5 -16.5t12.5 -25 t3.5 -30.5v-92q0 -16 -3.5 -30.5t-12.5 -25t-24.5 -16.5t-39.5 -6h-703q-34 0 -57 15t-23 63v1237zM496 1524q-14 0 -27 2t-20.5 9t-7.5 20t12 34l78 129q16 29 35 47.5t57 18.5h135q11 0 18.5 -6t11.5 -14.5t3 -18t-8 -17.5l-140 -149q-23 -26 -47 -40.5t-59 -14.5h-41v0z " />
<glyph unicode="&#xca;" horiz-adv-x="1077" d="M141 1315q0 47 23 62.5t57 15.5h674q24 0 39.5 -6t24.5 -16.5t12.5 -25t3.5 -30.5v-92q0 -16 -3.5 -30.5t-12.5 -25t-24.5 -16.5t-39.5 -6h-477v-318h393q47 0 63.5 -22.5t16.5 -54.5v-93q0 -32 -16.5 -54.5t-63.5 -22.5h-393v-332h506q24 0 39.5 -6t24.5 -16.5t12.5 -25 t3.5 -30.5v-92q0 -16 -3.5 -30.5t-12.5 -25t-24.5 -16.5t-39.5 -6h-703q-34 0 -57 15t-23 63v1237zM310 1513q-12 0 -24 2.5t-18.5 9.5t-5.5 19.5t15 32.5l98 143q22 29 46 46.5t61 17.5h108q18 0 31.5 -4.5t24 -13t19.5 -20t19 -26.5l101 -143q14 -20 15 -32.5t-5.5 -19.5 t-18.5 -9.5t-24 -2.5h-47q-37 0 -58 17t-42 45l-74 98l-74 -98q-11 -14 -20.5 -25.5t-20 -19.5t-24 -12.5t-31.5 -4.5h-51v0z" />
<glyph unicode="&#xcb;" horiz-adv-x="1077" d="M141 1315q0 47 23 62.5t57 15.5h674q24 0 39.5 -6t24.5 -16.5t12.5 -25t3.5 -30.5v-92q0 -16 -3.5 -30.5t-12.5 -25t-24.5 -16.5t-39.5 -6h-477v-318h393q47 0 63.5 -22.5t16.5 -54.5v-93q0 -32 -16.5 -54.5t-63.5 -22.5h-393v-332h506q24 0 39.5 -6t24.5 -16.5t12.5 -25 t3.5 -30.5v-92q0 -16 -3.5 -30.5t-12.5 -25t-24.5 -16.5t-39.5 -6h-703q-34 0 -57 15t-23 63v1237zM729 1519q-29 0 -54 11t-43.5 30.5t-29 44.5t-10.5 54q0 28 10.5 53.5t29 44.5t43.5 30t54 11q28 0 53 -11t44 -30t29.5 -44.5t10.5 -53.5q0 -29 -10.5 -54t-29.5 -44.5 t-44 -30.5t-53 -11zM352 1519q-28 0 -53 11t-43.5 30.5t-29.5 44.5t-11 54q0 28 11 53.5t29.5 44.5t43.5 30t53 11t53.5 -11t45 -30t30.5 -44.5t11 -53.5q0 -29 -11 -54t-30.5 -44.5t-45 -30.5t-53.5 -11z" />
<glyph unicode="&#xcc;" horiz-adv-x="565" d="M145 1315q0 47 23 62.5t57 15.5h115q34 0 57 -15.5t23 -62.5v-1237q0 -48 -23 -63t-57 -15h-115q-34 0 -57 15t-23 63v1237zM250 1524q-35 0 -60 15t-47 40l-141 149q-7 8 -7.5 17.5t3.5 18t12 14.5t19 6h133q38 0 57.5 -18.5t36.5 -47.5l76 -129q12 -21 12 -34t-7.5 -20 t-20 -9t-25.5 -2h-41v0z" />
<glyph unicode="&#xcd;" horiz-adv-x="565" d="M145 1315q0 47 23 62.5t57 15.5h115q34 0 57 -15.5t23 -62.5v-1237q0 -48 -23 -63t-57 -15h-115q-34 0 -57 15t-23 63v1237zM260 1524q-14 0 -27 2t-20.5 9t-7.5 20t12 34l78 129q16 29 35 47.5t57 18.5h135q11 0 18.5 -6t11.5 -14.5t3 -18t-8 -17.5l-140 -149 q-23 -26 -47 -40.5t-59 -14.5h-41v0z" />
<glyph unicode="&#xce;" horiz-adv-x="565" d="M145 1315q0 47 23 62.5t57 15.5h115q34 0 57 -15.5t23 -62.5v-1237q0 -48 -23 -63t-57 -15h-115q-34 0 -57 15t-23 63v1237zM60 1513q-12 0 -24 2.5t-18.5 9.5t-5.5 19.5t15 32.5l98 143q22 29 46 46.5t61 17.5h108q18 0 31.5 -4.5t24 -13t19.5 -20t19 -26.5l101 -143 q14 -20 15 -32.5t-5.5 -19.5t-18.5 -9.5t-24 -2.5h-47q-37 0 -58 17t-42 45l-74 98l-74 -98q-11 -14 -20.5 -25.5t-20 -19.5t-24 -12.5t-31.5 -4.5h-51v0z" />
<glyph unicode="&#xcf;" horiz-adv-x="565" d="M145 1315q0 47 23 62.5t57 15.5h115q34 0 57 -15.5t23 -62.5v-1237q0 -48 -23 -63t-57 -15h-115q-34 0 -57 15t-23 63v1237zM453 1520q-29 0 -52 11t-40 30t-26 44t-9 54q0 28 9 53.5t26 44.5t40 30t52 11q28 0 51.5 -11t41 -30t27 -44.5t9.5 -53.5q0 -29 -9.5 -54 t-27 -44t-41 -30t-51.5 -11zM117 1520q-29 0 -52.5 11t-40.5 30t-26.5 44t-9.5 54q0 28 9.5 53.5t26.5 44.5t40.5 30t52.5 11q28 0 52 -11t41 -30t26.5 -44.5t9.5 -53.5q0 -29 -9.5 -54t-26.5 -44t-41 -30t-52 -11z" />
<glyph unicode="&#xd0;" horiz-adv-x="1409" d="M141 647h-55q-25 0 -41 3t-25 10t-12.5 18t-3.5 27v57q0 16 3.5 27t12.5 17.5t25 9.5t41 3h55v496q0 47 23 62.5t57 15.5h443q152 0 271 -45.5t201.5 -134t125.5 -218.5t43 -299q0 -167 -51 -296.5t-138 -218t-202.5 -135t-243.5 -46.5h-449q-34 0 -57 15t-23 63v569z M651 238q101 0 171 41t113.5 107t63 148t19.5 164q0 88 -19 170t-63.5 146t-118.5 102.5t-184 38.5h-215v-336h266q49 0 64.5 -12.5t15.5 -44.5v-57q0 -32 -15.5 -45t-64.5 -13h-266v-409h233z" />
<glyph unicode="&#xd1;" horiz-adv-x="1409" d="M141 1315q0 47 23 62.5t57 15.5h172q35 0 58.5 -19.5t40.5 -48.5l512 -883v873q0 47 22.5 62.5t56.5 15.5h105q34 0 57 -15.5t23 -62.5v-1237q0 -48 -23 -63t-57 -15h-166q-37 0 -57 19.5t-37 48.5l-522 901v-891q0 -48 -23 -63t-57 -15h-105q-34 0 -57 15t-23 63v1237z M436 1526q-23 0 -27 15t1 34q8 32 23.5 62.5t38.5 54t54 37.5t72 14q37 0 70.5 -10.5t64.5 -22.5l27 -12q22 -10 44 -17.5t38 -7.5q38 0 53 25q3 6 7 10l6 8t5 6q10 14 19.5 21.5t32.5 7.5h30q22 0 27 -15.5t0 -33.5q-9 -32 -23.5 -61.5t-37 -52t-53.5 -36.5t-72 -14 q-35 0 -69 10t-64 23l-23 8q-25 11 -46 19t-40 8q-41 0 -66 -33l-8 -17q-8 -14 -16 -22t-33 -8h-35z" />
<glyph unicode="&#xd2;" horiz-adv-x="1569" d="M96 694q0 141 46 271.5t134 231.5t216 161.5t292 60.5q165 0 292.5 -60.5t215 -161.5t133 -231.5t45.5 -271.5q0 -92 -20.5 -181.5t-60 -169.5t-98 -148t-134.5 -117.5t-169.5 -77t-203.5 -27.5q-109 0 -203 27.5t-170 77t-135 117.5t-99 148t-60.5 169t-20.5 182z M395 694q0 -93 25 -178.5t73.5 -151t121.5 -104.5t169 -39t169 39t122 104.5t74 151t25 178.5q0 94 -25 180.5t-74 151.5t-122 104t-169 39t-169 -39t-121.5 -104t-73.5 -151.5t-25 -180.5zM780 1524q-35 0 -60 15t-47 40l-141 149q-7 8 -7.5 17.5t3.5 18t12 14.5t19 6h133 q38 0 57.5 -18.5t36.5 -47.5l76 -129q12 -21 12 -34t-7.5 -20t-20 -9t-25.5 -2h-41v0z" />
<glyph unicode="&#xd3;" horiz-adv-x="1569" d="M96 694q0 141 46 271.5t134 231.5t216 161.5t292 60.5q165 0 292.5 -60.5t215 -161.5t133 -231.5t45.5 -271.5q0 -92 -20.5 -181.5t-60 -169.5t-98 -148t-134.5 -117.5t-169.5 -77t-203.5 -27.5q-109 0 -203 27.5t-170 77t-135 117.5t-99 148t-60.5 169t-20.5 182z M395 694q0 -93 25 -178.5t73.5 -151t121.5 -104.5t169 -39t169 39t122 104.5t74 151t25 178.5q0 94 -25 180.5t-74 151.5t-122 104t-169 39t-169 -39t-121.5 -104t-73.5 -151.5t-25 -180.5zM791 1524q-14 0 -27 2t-20.5 9t-7.5 20t12 34l78 129q16 29 35 47.5t57 18.5h135 q11 0 18.5 -6t11.5 -14.5t3 -18t-8 -17.5l-140 -149q-23 -26 -47 -40.5t-59 -14.5h-41v0z" />
<glyph unicode="&#xd4;" horiz-adv-x="1569" d="M96 694q0 141 46 271.5t134 231.5t216 161.5t292 60.5q165 0 292.5 -60.5t215 -161.5t133 -231.5t45.5 -271.5q0 -92 -20.5 -181.5t-60 -169.5t-98 -148t-134.5 -117.5t-169.5 -77t-203.5 -27.5q-109 0 -203 27.5t-170 77t-135 117.5t-99 148t-60.5 169t-20.5 182z M395 694q0 -93 25 -178.5t73.5 -151t121.5 -104.5t169 -39t169 39t122 104.5t74 151t25 178.5q0 94 -25 180.5t-74 151.5t-122 104t-169 39t-169 -39t-121.5 -104t-73.5 -151.5t-25 -180.5zM592 1513q-12 0 -24 2.5t-18.5 9.5t-5.5 19.5t15 32.5l98 143q22 29 46 46.5 t61 17.5h108q18 0 31.5 -4.5t24 -13t19.5 -20t19 -26.5l101 -143q14 -20 15 -32.5t-5.5 -19.5t-18.5 -9.5t-24 -2.5h-47q-37 0 -58 17t-42 45l-74 98l-74 -98q-11 -14 -20.5 -25.5t-20 -19.5t-24 -12.5t-31.5 -4.5h-51v0z" />
<glyph unicode="&#xd5;" horiz-adv-x="1569" d="M96 694q0 141 46 271.5t134 231.5t216 161.5t292 60.5q165 0 292.5 -60.5t215 -161.5t133 -231.5t45.5 -271.5q0 -92 -20.5 -181.5t-60 -169.5t-98 -148t-134.5 -117.5t-169.5 -77t-203.5 -27.5q-109 0 -203 27.5t-170 77t-135 117.5t-99 148t-60.5 169t-20.5 182z M395 694q0 -93 25 -178.5t73.5 -151t121.5 -104.5t169 -39t169 39t122 104.5t74 151t25 178.5q0 94 -25 180.5t-74 151.5t-122 104t-169 39t-169 -39t-121.5 -104t-73.5 -151.5t-25 -180.5zM524 1526q-23 0 -27 15t1 34q8 32 23.5 62.5t38.5 54t54 37.5t72 14 q37 0 70.5 -10.5t64.5 -22.5l27 -12q22 -10 44 -17.5t38 -7.5q38 0 53 25q3 6 7 10l6 8t5 6q10 14 19.5 21.5t32.5 7.5h30q22 0 27 -15.5t0 -33.5q-9 -32 -23.5 -61.5t-37 -52t-53.5 -36.5t-72 -14q-35 0 -69 10t-64 23l-23 8q-25 11 -46 19t-40 8q-41 0 -66 -33l-8 -17 q-8 -14 -16 -22t-33 -8h-35z" />
<glyph unicode="&#xd6;" horiz-adv-x="1569" d="M96 694q0 141 46 271.5t134 231.5t216 161.5t292 60.5q165 0 292.5 -60.5t215 -161.5t133 -231.5t45.5 -271.5q0 -92 -20.5 -181.5t-60 -169.5t-98 -148t-134.5 -117.5t-169.5 -77t-203.5 -27.5q-109 0 -203 27.5t-170 77t-135 117.5t-99 148t-60.5 169t-20.5 182z M395 694q0 -93 25 -178.5t73.5 -151t121.5 -104.5t169 -39t169 39t122 104.5t74 151t25 178.5q0 94 -25 180.5t-74 151.5t-122 104t-169 39t-169 -39t-121.5 -104t-73.5 -151.5t-25 -180.5zM977 1519q-29 0 -54 11t-43.5 30.5t-29 44.5t-10.5 54q0 28 10.5 53.5t29 44.5 t43.5 30t54 11q28 0 53 -11t44 -30t29.5 -44.5t10.5 -53.5q0 -29 -10.5 -54t-29.5 -44.5t-44 -30.5t-53 -11zM600 1519q-28 0 -53 11t-43.5 30.5t-29.5 44.5t-11 54q0 28 11 53.5t29.5 44.5t43.5 30t53 11t53.5 -11t45 -30t30.5 -44.5t11 -53.5q0 -29 -11 -54t-30.5 -44.5 t-45 -30.5t-53.5 -11z" />
<glyph unicode="&#xd7;" d="M113 125q-29 27 -29 55q0 11 5.5 24.5t21.5 28.5l251 263l-249 268q-13 14 -20 29t-7 26q0 29 27 55l26 25q23 23 52 27.5t61 -27.5l246 -258l245 254q23 23 52 27.5t61 -27.5l18 -21q16 -15 22.5 -28.5t6.5 -26.5q0 -12 -8 -27.5t-21 -27.5l-241 -254l250 -274 q12 -14 19 -29.5t7 -26.5q0 -29 -26 -55l-27 -27q-23 -23 -52 -27.5t-61 27.5l-249 252l-242 -252q-14 -14 -28.5 -20t-28.5 -6q-17 0 -31 6.5t-27 17.5l-24 29v0z" />
<glyph unicode="&#xd8;" horiz-adv-x="1569" d="M90 -2q-15 17 -12 38t18 38l152 159q-74 100 -113 217.5t-39 245.5q0 94 20.5 184.5t60.5 170.5t99 147.5t135 116.5t169 76.5t202 27.5q140 0 248 -42t193 -117l141 143q8 7 18 13.5t20.5 9.5t21.5 0.5t20 -11.5l22 -22q17 -16 11.5 -36.5t-19.5 -37.5l-145 -152 q77 -100 117 -220t40 -251q0 -93 -20 -183t-59.5 -170.5t-97.5 -148.5t-134.5 -117t-171 -76.5t-205.5 -27.5q-140 0 -253.5 44.5t-196.5 119.5l-139 -147q-9 -9 -20 -14.5t-22.5 -7t-22.5 1t-19 10.5zM1051 1069q-50 46 -119 77.5t-150 31.5q-98 0 -171.5 -39.5 t-122.5 -106t-74 -154t-25 -184.5q0 -69 12.5 -135.5t38.5 -120.5zM520 326q47 -54 112 -82.5t150 -28.5q101 0 176 39.5t125 106.5t74.5 153.5t24.5 181.5q0 72 -15 141.5t-41 125.5z" />
<glyph unicode="&#xd9;" horiz-adv-x="1339" d="M129 1315q0 47 23 62.5t57 15.5h115q34 0 58 -15.5t24 -62.5v-740q0 -173 62 -263.5t202 -90.5q137 0 202.5 90t65.5 264v740q0 47 23 62.5t57 15.5h115q34 0 56.5 -15.5t22.5 -62.5v-737q0 -163 -44 -278t-118 -187.5t-172.5 -106t-207.5 -33.5q-110 0 -208 33.5 t-172 106t-117.5 187.5t-43.5 278v737zM647 1524q-35 0 -60 15t-47 40l-141 149q-7 8 -7.5 17.5t3.5 18t12 14.5t19 6h133q38 0 57.5 -18.5t36.5 -47.5l76 -129q12 -21 12 -34t-7.5 -20t-20 -9t-25.5 -2h-41v0z" />
<glyph unicode="&#xda;" horiz-adv-x="1339" d="M129 1315q0 47 23 62.5t57 15.5h115q34 0 58 -15.5t24 -62.5v-740q0 -173 62 -263.5t202 -90.5q137 0 202.5 90t65.5 264v740q0 47 23 62.5t57 15.5h115q34 0 56.5 -15.5t22.5 -62.5v-737q0 -163 -44 -278t-118 -187.5t-172.5 -106t-207.5 -33.5q-110 0 -208 33.5 t-172 106t-117.5 187.5t-43.5 278v737zM655 1524q-14 0 -27 2t-20.5 9t-7.5 20t12 34l78 129q16 29 35 47.5t57 18.5h135q11 0 18.5 -6t11.5 -14.5t3 -18t-8 -17.5l-140 -149q-23 -26 -47 -40.5t-59 -14.5h-41v0z" />
<glyph unicode="&#xdb;" horiz-adv-x="1339" d="M129 1315q0 47 23 62.5t57 15.5h115q34 0 58 -15.5t24 -62.5v-740q0 -173 62 -263.5t202 -90.5q137 0 202.5 90t65.5 264v740q0 47 23 62.5t57 15.5h115q34 0 56.5 -15.5t22.5 -62.5v-737q0 -163 -44 -278t-118 -187.5t-172.5 -106t-207.5 -33.5q-110 0 -208 33.5 t-172 106t-117.5 187.5t-43.5 278v737zM459 1513q-12 0 -24 2.5t-18.5 9.5t-5.5 19.5t15 32.5l98 143q22 29 46 46.5t61 17.5h108q18 0 31.5 -4.5t24 -13t19.5 -20t19 -26.5l101 -143q14 -20 15 -32.5t-5.5 -19.5t-18.5 -9.5t-24 -2.5h-47q-37 0 -58 17t-42 45l-74 98 l-74 -98q-11 -14 -20.5 -25.5t-20 -19.5t-24 -12.5t-31.5 -4.5h-51v0z" />
<glyph unicode="&#xdc;" horiz-adv-x="1339" d="M129 1315q0 47 23 62.5t57 15.5h115q34 0 58 -15.5t24 -62.5v-740q0 -173 62 -263.5t202 -90.5q137 0 202.5 90t65.5 264v740q0 47 23 62.5t57 15.5h115q34 0 56.5 -15.5t22.5 -62.5v-737q0 -163 -44 -278t-118 -187.5t-172.5 -106t-207.5 -33.5q-110 0 -208 33.5 t-172 106t-117.5 187.5t-43.5 278v737zM860 1519q-29 0 -54 11t-43.5 30.5t-29 44.5t-10.5 54q0 28 10.5 53.5t29 44.5t43.5 30t54 11q28 0 53 -11t44 -30t29.5 -44.5t10.5 -53.5q0 -29 -10.5 -54t-29.5 -44.5t-44 -30.5t-53 -11zM483 1519q-28 0 -53 11t-43.5 30.5 t-29.5 44.5t-11 54q0 28 11 53.5t29.5 44.5t43.5 30t53 11t53.5 -11t45 -30t30.5 -44.5t11 -53.5q0 -29 -11 -54t-30.5 -44.5t-45 -30.5t-53.5 -11z" />
<glyph unicode="&#xdd;" horiz-adv-x="1112" d="M422 539l-383 784q-12 32 4.5 51t42.5 19h180q38 0 57.5 -20t34.5 -52l209 -496l209 496q13 29 34 50.5t56 21.5h160q13 0 24.5 -5t18.5 -14t8.5 -22t-4.5 -29l-377 -784v-461q0 -48 -22.5 -63t-57.5 -15h-114q-34 0 -57 15t-23 63v461zM541 1524q-14 0 -27 2t-20.5 9 t-7.5 20t12 34l78 129q16 29 35 47.5t57 18.5h135q11 0 18.5 -6t11.5 -14.5t3 -18t-8 -17.5l-140 -149q-23 -26 -47 -40.5t-59 -14.5h-41v0z" />
<glyph unicode="&#xde;" horiz-adv-x="1077" d="M141 1315q0 47 23 62.5t57 15.5h117q34 0 57 -15.5t23 -62.5v-162h141q52 0 107 -9t106.5 -29.5t97.5 -54t80 -83t54 -115.5t20 -151q0 -120 -39.5 -204t-103 -136.5t-143 -76.5t-158.5 -24h-162v-192q0 -48 -23 -63t-57 -15h-117q-34 0 -57 15t-23 63v1237zM541 508 q63 0 103 18.5t63.5 48t32 65.5t8.5 71t-11.5 71.5t-36.5 66t-64.5 48t-94.5 18.5h-123v-407h123z" />
<glyph unicode="&#xdf;" horiz-adv-x="1116" d="M131 997q0 88 25.5 169.5t79 143.5t136.5 99t197 37q83 0 157 -21t129.5 -67t87.5 -117.5t32 -171.5q0 -48 -12.5 -94.5t-37 -87.5t-61 -74.5t-84.5 -56.5q48 -10 94 -35t82 -65.5t58 -97.5t22 -132q0 -86 -28.5 -165t-83.5 -139t-136.5 -96t-187.5 -36h-26.5t-26.5 2 q-13 1 -24 4t-18.5 9t-11.5 17t-4 29v117q0 35 17.5 42t48.5 7q51 0 89.5 15.5t64 43t38.5 64.5t13 80q0 48 -12.5 82.5t-34.5 58.5t-52.5 38.5t-66.5 21.5q-34 5 -58 19.5t-24 45.5v74q0 32 23 48.5t57 29.5q20 10 40 26.5t36.5 40.5t26.5 56t10 73q0 50 -12 85t-32 57.5 t-47 32.5t-57 10q-42 0 -71.5 -17t-48 -48t-27.5 -74t-9 -95v-907q0 -32 -23.5 -55t-55.5 -23h-111q-34 0 -57 23t-23 55v919z" />
<glyph unicode="&#xe0;" horiz-adv-x="1077" d="M84 274q0 91 36 150t102.5 93.5t160.5 47.5t209 13h92v38q0 86 -35.5 132.5t-118.5 46.5q-52 0 -90.5 -19.5t-64.5 -62.5q-13 -19 -26.5 -30t-47.5 -11h-115q-23 0 -36.5 6.5t-20.5 17.5t-7.5 25t3.5 29q14 51 46 94.5t84.5 75.5t125.5 50.5t168 18.5q115 0 191 -26.5 t121 -74.5t63 -116t18 -151v-471q0 -19 1 -38.5t3 -39.5q1 -14 0.5 -27t-7.5 -23t-21.5 -16t-40.5 -6h-86q-24 0 -40 6t-26.5 16.5t-15.5 25t-7 30.5l-4 37q-42 -68 -112 -104t-178 -36q-56 0 -113.5 15.5t-104 50.5t-76.5 92t-30 141zM354 287q0 -35 10.5 -58t29 -37 t44 -20t56.5 -6q36 0 70 11t61 35.5t43 63t16 93.5v53h-66q-49 0 -96.5 -5t-84.5 -19.5t-60 -41t-23 -69.5zM574 1135q-35 0 -60 15t-47 40l-141 149q-7 8 -7.5 17.5t3.5 18t12 14.5t19 6h133q38 0 57.5 -18.5t36.5 -47.5l76 -129q12 -21 12 -34t-7.5 -20t-20 -9t-25.5 -2 h-41v0z" />
<glyph unicode="&#xe1;" horiz-adv-x="1077" d="M84 274q0 91 36 150t102.5 93.5t160.5 47.5t209 13h92v38q0 86 -35.5 132.5t-118.5 46.5q-52 0 -90.5 -19.5t-64.5 -62.5q-13 -19 -26.5 -30t-47.5 -11h-115q-23 0 -36.5 6.5t-20.5 17.5t-7.5 25t3.5 29q14 51 46 94.5t84.5 75.5t125.5 50.5t168 18.5q115 0 191 -26.5 t121 -74.5t63 -116t18 -151v-471q0 -19 1 -38.5t3 -39.5q1 -14 0.5 -27t-7.5 -23t-21.5 -16t-40.5 -6h-86q-24 0 -40 6t-26.5 16.5t-15.5 25t-7 30.5l-4 37q-42 -68 -112 -104t-178 -36q-56 0 -113.5 15.5t-104 50.5t-76.5 92t-30 141zM354 287q0 -35 10.5 -58t29 -37 t44 -20t56.5 -6q36 0 70 11t61 35.5t43 63t16 93.5v53h-66q-49 0 -96.5 -5t-84.5 -19.5t-60 -41t-23 -69.5zM492 1135q-14 0 -27 2t-20.5 9t-7.5 20t12 34l78 129q16 29 35 47.5t57 18.5h135q11 0 18.5 -6t11.5 -14.5t3 -18t-8 -17.5l-140 -149q-23 -26 -47 -40.5t-59 -14.5 h-41v0z" />
<glyph unicode="&#xe2;" horiz-adv-x="1077" d="M84 274q0 91 36 150t102.5 93.5t160.5 47.5t209 13h92v38q0 86 -35.5 132.5t-118.5 46.5q-52 0 -90.5 -19.5t-64.5 -62.5q-13 -19 -26.5 -30t-47.5 -11h-115q-23 0 -36.5 6.5t-20.5 17.5t-7.5 25t3.5 29q14 51 46 94.5t84.5 75.5t125.5 50.5t168 18.5q115 0 191 -26.5 t121 -74.5t63 -116t18 -151v-471q0 -19 1 -38.5t3 -39.5q1 -14 0.5 -27t-7.5 -23t-21.5 -16t-40.5 -6h-86q-24 0 -40 6t-26.5 16.5t-15.5 25t-7 30.5l-4 37q-42 -68 -112 -104t-178 -36q-56 0 -113.5 15.5t-104 50.5t-76.5 92t-30 141zM354 287q0 -35 10.5 -58t29 -37 t44 -20t56.5 -6q36 0 70 11t61 35.5t43 63t16 93.5v53h-66q-49 0 -96.5 -5t-84.5 -19.5t-60 -41t-23 -69.5zM308 1124q-12 0 -24 2.5t-18.5 9.5t-5.5 19.5t15 32.5l98 143q22 29 46 46.5t61 17.5h108q18 0 31.5 -4.5t24 -13t19.5 -20t19 -26.5l101 -143q14 -20 15 -32.5 t-5.5 -19.5t-18.5 -9.5t-24 -2.5h-47q-37 0 -58 17t-42 45l-74 98l-74 -98q-11 -14 -20.5 -25.5t-20 -19.5t-24 -12.5t-31.5 -4.5h-51v0z" />
<glyph unicode="&#xe3;" horiz-adv-x="1077" d="M84 274q0 91 36 150t102.5 93.5t160.5 47.5t209 13h92v38q0 86 -35.5 132.5t-118.5 46.5q-52 0 -90.5 -19.5t-64.5 -62.5q-13 -19 -26.5 -30t-47.5 -11h-115q-23 0 -36.5 6.5t-20.5 17.5t-7.5 25t3.5 29q14 51 46 94.5t84.5 75.5t125.5 50.5t168 18.5q115 0 191 -26.5 t121 -74.5t63 -116t18 -151v-471q0 -19 1 -38.5t3 -39.5q1 -14 0.5 -27t-7.5 -23t-21.5 -16t-40.5 -6h-86q-24 0 -40 6t-26.5 16.5t-15.5 25t-7 30.5l-4 37q-42 -68 -112 -104t-178 -36q-56 0 -113.5 15.5t-104 50.5t-76.5 92t-30 141zM354 287q0 -35 10.5 -58t29 -37 t44 -20t56.5 -6q36 0 70 11t61 35.5t43 63t16 93.5v53h-66q-49 0 -96.5 -5t-84.5 -19.5t-60 -41t-23 -69.5zM250 1137q-23 0 -27 15t1 34q8 32 23.5 62.5t38.5 54t54 37.5t72 14q37 0 70.5 -10.5t64.5 -22.5l27 -12q22 -10 44 -17.5t38 -7.5q38 0 53 25q3 6 7 10l6 8t5 6 q10 14 19.5 21.5t32.5 7.5h30q22 0 27 -15.5t0 -33.5q-9 -32 -23.5 -61.5t-37 -52t-53.5 -36.5t-72 -14q-35 0 -69 10t-64 23l-23 8q-25 11 -46 19t-40 8q-41 0 -66 -33l-8 -17q-8 -14 -16 -22t-33 -8h-35z" />
<glyph unicode="&#xe4;" horiz-adv-x="1077" d="M84 274q0 91 36 150t102.5 93.5t160.5 47.5t209 13h92v38q0 86 -35.5 132.5t-118.5 46.5q-52 0 -90.5 -19.5t-64.5 -62.5q-13 -19 -26.5 -30t-47.5 -11h-115q-23 0 -36.5 6.5t-20.5 17.5t-7.5 25t3.5 29q14 51 46 94.5t84.5 75.5t125.5 50.5t168 18.5q115 0 191 -26.5 t121 -74.5t63 -116t18 -151v-471q0 -19 1 -38.5t3 -39.5q1 -14 0.5 -27t-7.5 -23t-21.5 -16t-40.5 -6h-86q-24 0 -40 6t-26.5 16.5t-15.5 25t-7 30.5l-4 37q-42 -68 -112 -104t-178 -36q-56 0 -113.5 15.5t-104 50.5t-76.5 92t-30 141zM354 287q0 -35 10.5 -58t29 -37 t44 -20t56.5 -6q36 0 70 11t61 35.5t43 63t16 93.5v53h-66q-49 0 -96.5 -5t-84.5 -19.5t-60 -41t-23 -69.5zM729 1122q-29 0 -54 11t-43.5 30.5t-29 44.5t-10.5 54q0 28 10.5 53.5t29 44.5t43.5 30t54 11q28 0 53 -11t44 -30t29.5 -44.5t10.5 -53.5q0 -29 -10.5 -54 t-29.5 -44.5t-44 -30.5t-53 -11zM352 1122q-28 0 -53 11t-43.5 30.5t-29.5 44.5t-11 54q0 28 11 53.5t29.5 44.5t43.5 30t53 11t53.5 -11t45 -30t30.5 -44.5t11 -53.5q0 -29 -11 -54t-30.5 -44.5t-45 -30.5t-53.5 -11z" />
<glyph unicode="&#xe5;" horiz-adv-x="1077" d="M84 274q0 91 36 150t102.5 93.5t160.5 47.5t209 13h92v38q0 86 -35.5 132.5t-118.5 46.5q-52 0 -90.5 -19.5t-64.5 -62.5q-13 -19 -26.5 -30t-47.5 -11h-115q-23 0 -36.5 6.5t-20.5 17.5t-7.5 25t3.5 29q14 51 46 94.5t84.5 75.5t125.5 50.5t168 18.5q115 0 191 -26.5 t121 -74.5t63 -116t18 -151v-471q0 -19 1 -38.5t3 -39.5q1 -14 0.5 -27t-7.5 -23t-21.5 -16t-40.5 -6h-86q-24 0 -40 6t-26.5 16.5t-15.5 25t-7 30.5l-4 37q-42 -68 -112 -104t-178 -36q-56 0 -113.5 15.5t-104 50.5t-76.5 92t-30 141zM354 287q0 -35 10.5 -58t29 -37 t44 -20t56.5 -6q36 0 70 11t61 35.5t43 63t16 93.5v53h-66q-49 0 -96.5 -5t-84.5 -19.5t-60 -41t-23 -69.5zM555 1098q-39 0 -73.5 15.5t-59.5 42t-39.5 60.5t-14.5 72q0 39 14.5 73.5t39.5 60.5t59.5 41.5t73.5 15.5q37 0 71.5 -15t60 -41t41 -61t15.5 -74q0 -38 -15.5 -72 t-41 -60.5t-60 -42t-71.5 -15.5zM555 1198q16 0 30.5 7t25.5 19.5t17.5 29t6.5 34.5q0 19 -6.5 36t-17.5 29.5t-25.5 19.5t-30.5 7t-30.5 -7t-25.5 -19.5t-17.5 -29.5t-6.5 -36q0 -18 6.5 -34.5t17.5 -29t25.5 -19.5t30.5 -7z" />
<glyph unicode="&#xe6;" horiz-adv-x="1696" d="M88 268q0 72 23 129t77.5 96.5t144 60.5t222.5 21h131v50q0 85 -33.5 127.5t-117.5 42.5q-105 0 -146 -50q-3 -3 -9.5 -13t-12.5 -21q-6 -9 -11 -16t-12.5 -12t-18.5 -8t-28 -3h-104q-24 0 -38 6.5t-20.5 17.5t-7 25t3.5 29q12 46 40.5 89t77.5 76.5t121.5 53.5t174.5 20 q44 0 89 -7t85.5 -24t75 -44.5t57.5 -67.5q51 68 131.5 105.5t173.5 37.5q117 0 205 -34.5t146 -99t87 -157.5t29 -211q0 -45 -17 -60t-53 -15h-620q1 -42 16.5 -83.5t45.5 -74t75 -52.5t105 -20q45 0 81 12t62 35l14 13q12 12 22.5 21t22 14t24.5 5.5t30 -3.5l100 -29 q21 -5 32.5 -14.5t15.5 -21t1 -24.5t-10 -26q-57 -97 -156 -144t-250 -47q-63 0 -116.5 13t-97.5 36t-79 54.5t-61 68.5q-35 -47 -74 -79.5t-86 -53t-103.5 -30t-125.5 -9.5q-54 0 -112.5 14.5t-108 49t-81.5 91t-32 140.5zM1352 584q-1 35 -10 73t-30.5 69.5t-57 52 t-89.5 20.5q-64 0 -106.5 -21t-69 -53.5t-39 -70t-16.5 -70.5h418zM348 287q0 -66 38.5 -92.5t107.5 -26.5q42 0 77 11.5t60.5 34.5t40 56.5t14.5 77.5v55h-127q-59 0 -99.5 -6t-65.5 -19.5t-35.5 -35.5t-10.5 -55z" />
<glyph unicode="&#xe7;" horiz-adv-x="1073" d="M492 -18h6q-105 12 -182.5 54t-128.5 107t-76 149t-25 181q0 111 35.5 205.5t101.5 163.5t159 108t208 39q77 0 139 -13t111.5 -37t86.5 -58t64 -76h-2q9 -12 13 -25.5t2 -26.5t-12 -24t-31 -18l-103 -41q-34 -11 -60 3t-50 40q-25 29 -61 48t-89 19q-64 0 -108 -26.5 t-71.5 -71t-39.5 -102t-12 -119.5q0 -59 15 -108.5t44 -85.5t71.5 -56.5t96.5 -20.5q53 0 89 18t62 50q25 28 50 40.5t59 0.5l104 -41q32 -12 39 -40.5t-10 -53.5q-59 -84 -154 -134.5t-231 -54.5l-39 -81h35q37 0 70 -9t57.5 -27.5t38.5 -47t14 -68.5q0 -56 -20.5 -94 t-55.5 -61t-82.5 -32.5t-101.5 -9.5q-8 0 -20.5 0.5t-27.5 2t-31 3.5t-29 5q-20 3 -34.5 13.5t-10.5 29.5l6 34q3 19 18 23.5t37 1.5q17 -2 38.5 -3t35.5 -1q21 0 40.5 3t35 12t25 24.5t9.5 40.5q0 21 -8 34t-21 20.5t-30.5 10t-36.5 2.5q-17 0 -33 -1.5t-28 -4.5 q-19 -4 -29 6l-6 9q-6 8 -5.5 14t3.5 12z" />
<glyph unicode="&#xe8;" horiz-adv-x="1130" d="M86 479q0 117 36 211.5t101.5 160.5t158 102t206.5 36q117 0 206 -34.5t148 -99t89 -157.5t30 -211q0 -22 -7 -36.5t-18 -23t-26 -12t-31 -3.5h-619q2 -42 18 -83.5t46.5 -74t75.5 -52.5t104 -20q47 0 82.5 12.5t63.5 36.5q28 26 57 40t70 3l92 -24q37 -13 43.5 -38 t-8.5 -48q-57 -97 -158.5 -143t-251.5 -46q-120 0 -214.5 36t-159.5 102t-99.5 159t-34.5 207zM786 584q-1 35 -10.5 73t-32 69.5t-59 52t-90.5 20.5q-64 0 -107 -21t-70 -53.5t-40.5 -70t-16.5 -70.5h426zM588 1135q-35 0 -60 15t-47 40l-141 149q-7 8 -7.5 17.5t3.5 18 t12 14.5t19 6h133q38 0 57.5 -18.5t36.5 -47.5l76 -129q12 -21 12 -34t-7.5 -20t-20 -9t-25.5 -2h-41v0z" />
<glyph unicode="&#xe9;" horiz-adv-x="1130" d="M86 479q0 117 36 211.5t101.5 160.5t158 102t206.5 36q117 0 206 -34.5t148 -99t89 -157.5t30 -211q0 -22 -7 -36.5t-18 -23t-26 -12t-31 -3.5h-619q2 -42 18 -83.5t46.5 -74t75.5 -52.5t104 -20q47 0 82.5 12.5t63.5 36.5q28 26 57 40t70 3l92 -24q37 -13 43.5 -38 t-8.5 -48q-57 -97 -158.5 -143t-251.5 -46q-120 0 -214.5 36t-159.5 102t-99.5 159t-34.5 207zM786 584q-1 35 -10.5 73t-32 69.5t-59 52t-90.5 20.5q-64 0 -107 -21t-70 -53.5t-40.5 -70t-16.5 -70.5h426zM571 1135q-14 0 -27 2t-20.5 9t-7.5 20t12 34l78 129 q16 29 35 47.5t57 18.5h135q11 0 18.5 -6t11.5 -14.5t3 -18t-8 -17.5l-140 -149q-23 -26 -47 -40.5t-59 -14.5h-41v0z" />
<glyph unicode="&#xea;" horiz-adv-x="1130" d="M86 479q0 117 36 211.5t101.5 160.5t158 102t206.5 36q117 0 206 -34.5t148 -99t89 -157.5t30 -211q0 -22 -7 -36.5t-18 -23t-26 -12t-31 -3.5h-619q2 -42 18 -83.5t46.5 -74t75.5 -52.5t104 -20q47 0 82.5 12.5t63.5 36.5q28 26 57 40t70 3l92 -24q37 -13 43.5 -38 t-8.5 -48q-57 -97 -158.5 -143t-251.5 -46q-120 0 -214.5 36t-159.5 102t-99.5 159t-34.5 207zM786 584q-1 35 -10.5 73t-32 69.5t-59 52t-90.5 20.5q-64 0 -107 -21t-70 -53.5t-40.5 -70t-16.5 -70.5h426zM359 1124q-12 0 -24 2.5t-18.5 9.5t-5.5 19.5t15 32.5l98 143 q22 29 46 46.5t61 17.5h108q18 0 31.5 -4.5t24 -13t19.5 -20t19 -26.5l101 -143q14 -20 15 -32.5t-5.5 -19.5t-18.5 -9.5t-24 -2.5h-47q-37 0 -58 17t-42 45l-74 98l-74 -98q-11 -14 -20.5 -25.5t-20 -19.5t-24 -12.5t-31.5 -4.5h-51v0z" />
<glyph unicode="&#xeb;" horiz-adv-x="1130" d="M86 479q0 117 36 211.5t101.5 160.5t158 102t206.5 36q117 0 206 -34.5t148 -99t89 -157.5t30 -211q0 -22 -7 -36.5t-18 -23t-26 -12t-31 -3.5h-619q2 -42 18 -83.5t46.5 -74t75.5 -52.5t104 -20q47 0 82.5 12.5t63.5 36.5q28 26 57 40t70 3l92 -24q37 -13 43.5 -38 t-8.5 -48q-57 -97 -158.5 -143t-251.5 -46q-120 0 -214.5 36t-159.5 102t-99.5 159t-34.5 207zM786 584q-1 35 -10.5 73t-32 69.5t-59 52t-90.5 20.5q-64 0 -107 -21t-70 -53.5t-40.5 -70t-16.5 -70.5h426zM774 1122q-29 0 -54 11t-43.5 30.5t-29 44.5t-10.5 54 q0 28 10.5 53.5t29 44.5t43.5 30t54 11q28 0 53 -11t44 -30t29.5 -44.5t10.5 -53.5q0 -29 -10.5 -54t-29.5 -44.5t-44 -30.5t-53 -11zM397 1122q-28 0 -53 11t-43.5 30.5t-29.5 44.5t-11 54q0 28 11 53.5t29.5 44.5t43.5 30t53 11t53.5 -11t45 -30t30.5 -44.5t11 -53.5 q0 -29 -11 -54t-30.5 -44.5t-45 -30.5t-53.5 -11z" />
<glyph unicode="&#xec;" horiz-adv-x="510" d="M121 885q0 47 24 62.5t58 15.5h106q34 0 57 -15.5t23 -62.5v-807q0 -48 -23 -63t-57 -15h-106q-17 0 -32 3t-26 12t-17.5 24t-6.5 39v807zM238 1135q-35 0 -60 15t-47 40l-141 149q-7 8 -7.5 17.5t3.5 18t12 14.5t19 6h133q38 0 57.5 -18.5t36.5 -47.5l76 -129 q12 -21 12 -34t-7.5 -20t-20 -9t-25.5 -2h-41v0z" />
<glyph unicode="&#xed;" horiz-adv-x="510" d="M121 885q0 47 24 62.5t58 15.5h106q34 0 57 -15.5t23 -62.5v-807q0 -48 -23 -63t-57 -15h-106q-17 0 -32 3t-26 12t-17.5 24t-6.5 39v807zM242 1135q-14 0 -27 2t-20.5 9t-7.5 20t12 34l78 129q16 29 35 47.5t57 18.5h135q11 0 18.5 -6t11.5 -14.5t3 -18t-8 -17.5 l-140 -149q-23 -26 -47 -40.5t-59 -14.5h-41v0z" />
<glyph unicode="&#xee;" horiz-adv-x="510" d="M121 885q0 47 24 62.5t58 15.5h106q34 0 57 -15.5t23 -62.5v-807q0 -48 -23 -63t-57 -15h-106q-17 0 -32 3t-26 12t-17.5 24t-6.5 39v807zM47 1124q-12 0 -24 2.5t-18.5 9.5t-5.5 19.5t15 32.5l98 143q22 29 46 46.5t61 17.5h108q18 0 31.5 -4.5t24 -13t19.5 -20 t19 -26.5l101 -143q14 -20 15 -32.5t-5.5 -19.5t-18.5 -9.5t-24 -2.5h-47q-37 0 -58 17t-42 45l-74 98l-74 -98q-11 -14 -20.5 -25.5t-20 -19.5t-24 -12.5t-31.5 -4.5h-51v0z" />
<glyph unicode="&#xef;" horiz-adv-x="510" d="M430 1122q-29 0 -52 11t-40 30.5t-26 44.5t-9 54q0 28 9 53.5t26 44.5t40 30t52 11q28 0 52 -11t41 -30t26.5 -44.5t9.5 -53.5q0 -29 -9.5 -54t-26.5 -44.5t-41 -30.5t-52 -11zM92 1122q-29 0 -52 11t-40 30.5t-26 44.5t-9 54q0 28 9 53.5t26 44.5t40 30t52 11t53 -11 t41 -30t26 -44.5t9 -53.5q0 -29 -9 -54t-26 -44.5t-41 -30.5t-53 -11zM121 885q0 47 24 62.5t58 15.5h106q34 0 57 -15.5t23 -62.5v-807q0 -48 -23 -63t-57 -15h-106q-17 0 -32 3t-26 12t-17.5 24t-6.5 39v807z" />
<glyph unicode="&#xf0;" horiz-adv-x="1194" d="M86 481q0 118 38.5 212.5t104.5 160.5t154.5 101.5t189.5 35.5q32 0 57 -2.5t47 -8.5t43 -15.5t46 -24.5q-17 30 -40 63t-51 66t-59 65t-63 60l-170 -74q-28 -12 -52 -13.5t-50 15.5l-25 21q-9 7 -14.5 17.5t-5 21t8.5 20.5t25 17l166 71h-2q-26 20 -53.5 39.5 t-63.5 42.5q-10 5 -16.5 14t-7.5 18.5t5 19.5t21 18l115 53q32 14 59 7.5t56 -27.5l113 -89l176 76q12 6 25 10t26 4.5t25 -3.5t22 -15l18 -20q9 -9 16 -19t7 -20t-8 -19.5t-29 -17.5l-170 -72h2q87 -78 150 -159t104 -169.5t60.5 -188t19.5 -216.5t-27.5 -223t-88 -186.5 t-158 -127.5t-238.5 -47q-114 0 -207.5 36t-160 102t-103.5 160t-37 210zM354 485q0 -62 14 -116t43.5 -94t75.5 -62.5t111 -22.5q61 0 106.5 22.5t75 62.5t44 94t14.5 116q0 64 -17 118.5t-48.5 94.5t-76 62t-98.5 22q-57 0 -102.5 -22t-77 -62t-48 -94.5t-16.5 -118.5z " />
<glyph unicode="&#xf1;" horiz-adv-x="1116" d="M127 885q0 47 23 62.5t57 15.5h96q34 0 57 -15.5t23 -62.5v-37q29 41 62 68.5t69 43.5t74.5 22.5t77.5 6.5q84 0 145 -26t101 -71.5t59.5 -107t19.5 -131.5v-575q0 -48 -23 -63t-57 -15h-108q-34 0 -57 15t-23 63v508q0 52 -13 87.5t-35 57t-50 30.5t-58 9 q-36 0 -67.5 -16.5t-54.5 -46t-36.5 -70.5t-13.5 -90v-469q0 -48 -23 -63t-57 -15h-108q-34 0 -57 15t-23 63v807zM295 1137q-23 0 -27 15t1 34q8 32 23.5 62.5t38.5 54t54 37.5t72 14q37 0 70.5 -10.5t64.5 -22.5l27 -12q22 -10 44 -17.5t38 -7.5q38 0 53 25q3 6 7 10l6 8 t5 6q10 14 19.5 21.5t32.5 7.5h30q22 0 27 -15.5t0 -33.5q-9 -32 -23.5 -61.5t-37 -52t-53.5 -36.5t-72 -14q-35 0 -69 10t-64 23l-23 8q-25 11 -46 19t-40 8q-41 0 -66 -33l-8 -17q-8 -14 -16 -22t-33 -8h-35z" />
<glyph unicode="&#xf2;" horiz-adv-x="1196" d="M86 483q0 95 33 186t97.5 162t159.5 114.5t220 43.5q134 0 231 -43.5t159.5 -114.5t92 -162t29.5 -186q0 -97 -32.5 -188.5t-97 -162.5t-160 -114t-222.5 -43q-135 0 -231.5 43t-158.5 114t-91 162.5t-29 188.5zM358 481q0 -65 14 -119t43.5 -93t74 -61t106.5 -22t107 22 t74 61t43 93t14 119q0 64 -14 118.5t-43 94.5t-74 62t-107 22t-106.5 -22t-74 -62t-43.5 -94.5t-14 -118.5zM576 1135q-35 0 -60 15t-47 40l-141 149q-7 8 -7.5 17.5t3.5 18t12 14.5t19 6h133q38 0 57.5 -18.5t36.5 -47.5l76 -129q12 -21 12 -34t-7.5 -20t-20 -9t-25.5 -2 h-41v0z" />
<glyph unicode="&#xf3;" horiz-adv-x="1196" d="M86 483q0 95 33 186t97.5 162t159.5 114.5t220 43.5q134 0 231 -43.5t159.5 -114.5t92 -162t29.5 -186q0 -97 -32.5 -188.5t-97 -162.5t-160 -114t-222.5 -43q-135 0 -231.5 43t-158.5 114t-91 162.5t-29 188.5zM358 481q0 -65 14 -119t43.5 -93t74 -61t106.5 -22t107 22 t74 61t43 93t14 119q0 64 -14 118.5t-43 94.5t-74 62t-107 22t-106.5 -22t-74 -62t-43.5 -94.5t-14 -118.5zM590 1135q-14 0 -27 2t-20.5 9t-7.5 20t12 34l78 129q16 29 35 47.5t57 18.5h135q11 0 18.5 -6t11.5 -14.5t3 -18t-8 -17.5l-140 -149q-23 -26 -47 -40.5t-59 -14.5 h-41v0z" />
<glyph unicode="&#xf4;" horiz-adv-x="1196" d="M86 483q0 95 33 186t97.5 162t159.5 114.5t220 43.5q134 0 231 -43.5t159.5 -114.5t92 -162t29.5 -186q0 -97 -32.5 -188.5t-97 -162.5t-160 -114t-222.5 -43q-135 0 -231.5 43t-158.5 114t-91 162.5t-29 188.5zM358 481q0 -65 14 -119t43.5 -93t74 -61t106.5 -22t107 22 t74 61t43 93t14 119q0 64 -14 118.5t-43 94.5t-74 62t-107 22t-106.5 -22t-74 -62t-43.5 -94.5t-14 -118.5zM385 1124q-12 0 -24 2.5t-18.5 9.5t-5.5 19.5t15 32.5l98 143q22 29 46 46.5t61 17.5h108q18 0 31.5 -4.5t24 -13t19.5 -20t19 -26.5l101 -143q14 -20 15 -32.5 t-5.5 -19.5t-18.5 -9.5t-24 -2.5h-47q-37 0 -58 17t-42 45l-74 98l-74 -98q-11 -14 -20.5 -25.5t-20 -19.5t-24 -12.5t-31.5 -4.5h-51v0z" />
<glyph unicode="&#xf5;" horiz-adv-x="1196" d="M86 483q0 95 33 186t97.5 162t159.5 114.5t220 43.5q134 0 231 -43.5t159.5 -114.5t92 -162t29.5 -186q0 -97 -32.5 -188.5t-97 -162.5t-160 -114t-222.5 -43q-135 0 -231.5 43t-158.5 114t-91 162.5t-29 188.5zM358 481q0 -65 14 -119t43.5 -93t74 -61t106.5 -22t107 22 t74 61t43 93t14 119q0 64 -14 118.5t-43 94.5t-74 62t-107 22t-106.5 -22t-74 -62t-43.5 -94.5t-14 -118.5zM325 1137q-23 0 -27 15t1 34q8 32 23.5 62.5t38.5 54t54 37.5t72 14q37 0 70.5 -10.5t64.5 -22.5l27 -12q22 -10 44 -17.5t38 -7.5q38 0 53 25q3 6 7 10l6 8t5 6 q10 14 19.5 21.5t32.5 7.5h30q22 0 27 -15.5t0 -33.5q-9 -32 -23.5 -61.5t-37 -52t-53.5 -36.5t-72 -14q-35 0 -69 10t-64 23l-23 8q-25 11 -46 19t-40 8q-41 0 -66 -33l-8 -17q-8 -14 -16 -22t-33 -8h-35z" />
<glyph unicode="&#xf6;" horiz-adv-x="1196" d="M86 483q0 95 33 186t97.5 162t159.5 114.5t220 43.5q134 0 231 -43.5t159.5 -114.5t92 -162t29.5 -186q0 -97 -32.5 -188.5t-97 -162.5t-160 -114t-222.5 -43q-135 0 -231.5 43t-158.5 114t-91 162.5t-29 188.5zM358 481q0 -65 14 -119t43.5 -93t74 -61t106.5 -22t107 22 t74 61t43 93t14 119q0 64 -14 118.5t-43 94.5t-74 62t-107 22t-106.5 -22t-74 -62t-43.5 -94.5t-14 -118.5zM788 1122q-29 0 -54 11t-43.5 30.5t-29 44.5t-10.5 54q0 28 10.5 53.5t29 44.5t43.5 30t54 11q28 0 53 -11t44 -30t29.5 -44.5t10.5 -53.5q0 -29 -10.5 -54 t-29.5 -44.5t-44 -30.5t-53 -11zM411 1122q-28 0 -53 11t-43.5 30.5t-29.5 44.5t-11 54q0 28 11 53.5t29.5 44.5t43.5 30t53 11t53.5 -11t45 -30t30.5 -44.5t11 -53.5q0 -29 -11 -54t-30.5 -44.5t-45 -30.5t-53.5 -11z" />
<glyph unicode="&#xf7;" d="M498 674q-28 0 -53 11t-44 30t-30 44t-11 54q0 28 11 53t30 43t44 28.5t53 10.5q27 0 51.5 -10.5t43 -28.5t29.5 -43t11 -53q0 -29 -11 -54t-29.5 -44t-43 -30t-51.5 -11zM174 406q-47 0 -63.5 22.5t-16.5 54.5v39q0 16 3.5 30.5t12.5 25t24.5 16.5t39.5 6h647 q24 0 39.5 -6t24.5 -16.5t12.5 -25t3.5 -30.5v-39q0 -32 -16 -54.5t-64 -22.5h-647zM360 195q0 27 11 51.5t30 43t44 29.5t53 11q27 0 51.5 -11t43 -29.5t29.5 -43t11 -51.5q0 -29 -11 -54t-29.5 -43.5t-43 -29.5t-51.5 -11q-28 0 -53 11t-44 29.5t-30 43.5t-11 54z" />
<glyph unicode="&#xf8;" horiz-adv-x="1196" d="M127 -16q-12 14 -8.5 29.5t14.5 29.5l78 86q-31 36 -54.5 78t-39 88t-23.5 93.5t-8 94.5q0 95 33 186t97.5 162t159.5 114.5t220 43.5q97 0 173.5 -23t135.5 -63l76 86q15 16 32 21t34 -11l18 -18q12 -14 9.5 -29.5t-13.5 -29.5l-76 -88q60 -73 91.5 -165.5t31.5 -185.5 q0 -97 -32.5 -188.5t-97 -162.5t-160 -114t-222.5 -43q-97 0 -173.5 21t-135.5 61l-76 -84q-7 -8 -15 -13.5t-16.5 -7.5t-17 0.5t-15.5 10.5zM745 727q-59 51 -149 51q-62 0 -106.5 -22t-74 -62t-43.5 -94.5t-14 -118.5q0 -48 6 -86.5t21 -70.5zM446 236q62 -50 150 -50 q62 0 107 22t74 61t43 93t14 119q0 47 -6.5 84.5t-20.5 71.5z" />
<glyph unicode="&#xf9;" horiz-adv-x="1116" d="M123 885q0 47 24 62.5t58 15.5h106q34 0 57 -15.5t23 -62.5v-508q0 -52 13.5 -88t35 -58t49 -31.5t56.5 -9.5q38 0 70 17t55 47t36 71.5t13 90.5v469q0 47 23 62.5t57 15.5h108q34 0 58 -15.5t24 -62.5v-807q0 -24 -6.5 -39t-17.5 -24t-26 -12t-32 -3h-98q-34 0 -57 15 t-23 63v37q-57 -79 -129.5 -110.5t-150.5 -31.5q-86 0 -147.5 26.5t-101 72.5t-58.5 107t-19 130v576zM567 1135q-35 0 -60 15t-47 40l-141 149q-7 8 -7.5 17.5t3.5 18t12 14.5t19 6h133q38 0 57.5 -18.5t36.5 -47.5l76 -129q12 -21 12 -34t-7.5 -20t-20 -9t-25.5 -2h-41v0z " />
<glyph unicode="&#xfa;" horiz-adv-x="1116" d="M123 885q0 47 24 62.5t58 15.5h106q34 0 57 -15.5t23 -62.5v-508q0 -52 13.5 -88t35 -58t49 -31.5t56.5 -9.5q38 0 70 17t55 47t36 71.5t13 90.5v469q0 47 23 62.5t57 15.5h108q34 0 58 -15.5t24 -62.5v-807q0 -24 -6.5 -39t-17.5 -24t-26 -12t-32 -3h-98q-34 0 -57 15 t-23 63v37q-57 -79 -129.5 -110.5t-150.5 -31.5q-86 0 -147.5 26.5t-101 72.5t-58.5 107t-19 130v576zM522 1135q-14 0 -27 2t-20.5 9t-7.5 20t12 34l78 129q16 29 35 47.5t57 18.5h135q11 0 18.5 -6t11.5 -14.5t3 -18t-8 -17.5l-140 -149q-23 -26 -47 -40.5t-59 -14.5h-41 v0z" />
<glyph unicode="&#xfb;" horiz-adv-x="1116" d="M123 885q0 47 24 62.5t58 15.5h106q34 0 57 -15.5t23 -62.5v-508q0 -52 13.5 -88t35 -58t49 -31.5t56.5 -9.5q38 0 70 17t55 47t36 71.5t13 90.5v469q0 47 23 62.5t57 15.5h108q34 0 58 -15.5t24 -62.5v-807q0 -24 -6.5 -39t-17.5 -24t-26 -12t-32 -3h-98q-34 0 -57 15 t-23 63v37q-57 -79 -129.5 -110.5t-150.5 -31.5q-86 0 -147.5 26.5t-101 72.5t-58.5 107t-19 130v576zM344 1124q-12 0 -24 2.5t-18.5 9.5t-5.5 19.5t15 32.5l98 143q22 29 46 46.5t61 17.5h108q18 0 31.5 -4.5t24 -13t19.5 -20t19 -26.5l101 -143q14 -20 15 -32.5 t-5.5 -19.5t-18.5 -9.5t-24 -2.5h-47q-37 0 -58 17t-42 45l-74 98l-74 -98q-11 -14 -20.5 -25.5t-20 -19.5t-24 -12.5t-31.5 -4.5h-51v0z" />
<glyph unicode="&#xfc;" horiz-adv-x="1116" d="M123 885q0 47 24 62.5t58 15.5h106q34 0 57 -15.5t23 -62.5v-508q0 -52 13.5 -88t35 -58t49 -31.5t56.5 -9.5q38 0 70 17t55 47t36 71.5t13 90.5v469q0 47 23 62.5t57 15.5h108q34 0 58 -15.5t24 -62.5v-807q0 -24 -6.5 -39t-17.5 -24t-26 -12t-32 -3h-98q-34 0 -57 15 t-23 63v37q-57 -79 -129.5 -110.5t-150.5 -31.5q-86 0 -147.5 26.5t-101 72.5t-58.5 107t-19 130v576zM739 1122q-29 0 -54 11t-43.5 30.5t-29 44.5t-10.5 54q0 28 10.5 53.5t29 44.5t43.5 30t54 11q28 0 53 -11t44 -30t29.5 -44.5t10.5 -53.5q0 -29 -10.5 -54t-29.5 -44.5 t-44 -30.5t-53 -11zM362 1122q-28 0 -53 11t-43.5 30.5t-29.5 44.5t-11 54q0 28 11 53.5t29.5 44.5t43.5 30t53 11t53.5 -11t45 -30t30.5 -44.5t11 -53.5q0 -29 -11 -54t-30.5 -44.5t-45 -30.5t-53.5 -11z" />
<glyph unicode="&#xfd;" horiz-adv-x="989" d="M39 889q-7 19 -4.5 33t11 23t21 13.5t25.5 4.5h160q34 0 54 -21.5t28 -52.5l170 -549l164 549q9 32 29.5 53t54.5 21h147q13 0 25.5 -4.5t20.5 -13.5t10 -23t-5 -33l-448 -1225q-13 -32 -33 -53t-55 -21h-140q-13 0 -25.5 3.5t-20.5 12t-10.5 22t5.5 34.5l131 338z M459 1135q-14 0 -27 2t-20.5 9t-7.5 20t12 34l78 129q16 29 35 47.5t57 18.5h135q11 0 18.5 -6t11.5 -14.5t3 -18t-8 -17.5l-140 -149q-23 -26 -47 -40.5t-59 -14.5h-41v0z" />
<glyph unicode="&#xfe;" horiz-adv-x="1202" d="M127 1368q0 48 23 63t57 15h108q34 0 57 -15t23 -63v-510q47 62 122.5 96.5t160.5 34.5q97 0 177 -42t137 -112.5t88.5 -162.5t31.5 -193t-29.5 -193t-85 -161.5t-135.5 -110.5t-180 -41q-45 0 -83 6t-72.5 22t-67 43.5t-64.5 70.5v-447q0 -47 -23 -62.5t-57 -15.5h-108 q-34 0 -57 15.5t-23 62.5v1700zM385 483q0 -54 14 -104.5t42.5 -89.5t71.5 -62.5t101 -23.5q55 0 95.5 23.5t67.5 63t40.5 91t13.5 106.5q0 58 -14.5 109.5t-42.5 90t-69.5 61t-96.5 22.5q-53 0 -94.5 -22t-70 -60.5t-43.5 -91t-15 -113.5z" />
<glyph unicode="&#xff;" horiz-adv-x="989" d="M39 889q-7 19 -4.5 33t11 23t21 13.5t25.5 4.5h160q34 0 54 -21.5t28 -52.5l170 -549l164 549q9 32 29.5 53t54.5 21h147q13 0 25.5 -4.5t20.5 -13.5t10 -23t-5 -33l-448 -1225q-13 -32 -33 -53t-55 -21h-140q-13 0 -25.5 3.5t-20.5 12t-10.5 22t5.5 34.5l131 338z M688 1122q-29 0 -54 11t-43.5 30.5t-29 44.5t-10.5 54q0 28 10.5 53.5t29 44.5t43.5 30t54 11q28 0 53 -11t44 -30t29.5 -44.5t10.5 -53.5q0 -29 -10.5 -54t-29.5 -44.5t-44 -30.5t-53 -11zM311 1122q-28 0 -53 11t-43.5 30.5t-29.5 44.5t-11 54q0 28 11 53.5t29.5 44.5 t43.5 30t53 11t53.5 -11t45 -30t30.5 -44.5t11 -53.5q0 -29 -11 -54t-30.5 -44.5t-45 -30.5t-53.5 -11z" />
<glyph unicode="&#x131;" horiz-adv-x="510" d="M121 885q0 47 24 62.5t58 15.5h106q34 0 57 -15.5t23 -62.5v-807q0 -48 -23 -63t-57 -15h-106q-17 0 -32 3t-26 12t-17.5 24t-6.5 39v807z" />
<glyph unicode="&#x152;" horiz-adv-x="1823" d="M635 -27q-122 0 -224.5 43t-177.5 132.5t-117 226t-42 323.5q0 157 41 289t115 228t177 150t228 54q70 0 128.5 -11.5t104.5 -32t80.5 -49t57.5 -62.5v51q0 47 22.5 62.5t56.5 15.5h555q24 0 39.5 -6t24.5 -16.5t12.5 -25t3.5 -30.5v-92q0 -16 -3.5 -30.5t-12.5 -25 t-24.5 -16.5t-39.5 -6h-370v-318h284q48 0 64 -22.5t16 -54.5v-93q0 -32 -16 -54.5t-64 -22.5h-284v-332h399q24 0 39.5 -6t24.5 -16.5t12.5 -25t3.5 -30.5v-92q0 -16 -3.5 -30.5t-12.5 -25t-24.5 -16.5t-39.5 -6h-584q-34 0 -56.5 15t-22.5 63v69q-40 -59 -92 -93.5 t-104 -52.5t-98.5 -23t-76.5 -5zM674 217q78 0 141.5 33t108 94.5t68.5 150t24 199.5q0 50 -5.5 105.5t-19 109t-37.5 102t-61 85.5t-88.5 58.5t-120.5 21.5q-94 0 -158 -40t-103.5 -107t-57 -154.5t-17.5 -182.5q0 -110 20 -198t60.5 -149.5t101.5 -94.5t144 -33z" />
<glyph unicode="&#x153;" horiz-adv-x="1812" d="M86 479q0 117 38.5 211.5t105 160.5t157 102t195.5 36q56 0 108.5 -9t99 -28t85 -49t65.5 -72q54 75 142.5 116.5t203.5 41.5q112 0 197 -34.5t142.5 -99.5t86.5 -158t29 -210q0 -32 -16.5 -53.5t-51.5 -21.5h-606q1 -42 16.5 -83.5t44.5 -74t72.5 -52.5t102.5 -20 q43 0 78 13t63 34l22 25q16 19 31.5 27t44.5 0l107 -29q35 -9 45 -36t-4 -52q-59 -97 -155.5 -143t-242.5 -46q-128 0 -218 42t-142 116q-22 -33 -54 -62t-76.5 -51t-103 -34.5t-133.5 -12.5q-98 0 -185 36t-152 102t-103.5 159.5t-38.5 208.5zM1479 584q-1 35 -10.5 73 t-31 69.5t-56.5 52t-87 20.5q-60 0 -102 -21t-68.5 -53.5t-39.5 -70t-17 -70.5h412zM358 481q0 -142 60.5 -218.5t175.5 -76.5q64 0 109 29.5t73.5 75t41.5 101t13 108.5q0 67 -19.5 119.5t-52.5 88t-76 54t-89 18.5q-54 0 -98 -21.5t-74.5 -60.5t-47 -94t-16.5 -123z" />
<glyph unicode="&#x178;" horiz-adv-x="1112" d="M422 539l-383 784q-12 32 4.5 51t42.5 19h180q38 0 57.5 -20t34.5 -52l209 -496l209 496q13 29 34 50.5t56 21.5h160q13 0 24.5 -5t18.5 -14t8.5 -22t-4.5 -29l-377 -784v-461q0 -48 -22.5 -63t-57.5 -15h-114q-34 0 -57 15t-23 63v461zM757 1519q-29 0 -54 11 t-43.5 30.5t-29 44.5t-10.5 54q0 28 10.5 53.5t29 44.5t43.5 30t54 11q28 0 53 -11t44 -30t29.5 -44.5t10.5 -53.5q0 -29 -10.5 -54t-29.5 -44.5t-44 -30.5t-53 -11zM380 1519q-28 0 -53 11t-43.5 30.5t-29.5 44.5t-11 54q0 28 11 53.5t29.5 44.5t43.5 30t53 11t53.5 -11 t45 -30t30.5 -44.5t11 -53.5q0 -29 -11 -54t-30.5 -44.5t-45 -30.5t-53.5 -11z" />
<glyph unicode="&#x2c6;" horiz-adv-x="500" d="M29 1124q-12 0 -24 2.5t-18.5 9.5t-5.5 19.5t15 32.5l98 143q22 29 46 46.5t61 17.5h108q18 0 31.5 -4.5t24 -13t19.5 -20t19 -26.5l101 -143q14 -20 15 -32.5t-5.5 -19.5t-18.5 -9.5t-24 -2.5h-47q-37 0 -58 17t-42 45l-74 98l-74 -98q-11 -14 -20.5 -25.5t-20 -19.5 t-24 -12.5t-31.5 -4.5h-51v0z" />
<glyph unicode="&#x2da;" horiz-adv-x="500" d="M250 1098q-39 0 -73.5 15.5t-59.5 42t-39.5 60.5t-14.5 72q0 39 14.5 73.5t39.5 60.5t59.5 41.5t73.5 15.5q37 0 71.5 -15t60 -41t41 -61t15.5 -74q0 -38 -15.5 -72t-41 -60.5t-60 -42t-71.5 -15.5zM250 1198q16 0 30.5 7t25.5 19.5t17.5 29t6.5 34.5q0 19 -6.5 36 t-17.5 29.5t-25.5 19.5t-30.5 7t-30.5 -7t-25.5 -19.5t-17.5 -29.5t-6.5 -36q0 -18 6.5 -34.5t17.5 -29t25.5 -19.5t30.5 -7z" />
<glyph unicode="&#x2dc;" horiz-adv-x="500" d="M-31 1137q-23 0 -27 15t1 34q8 32 23.5 62.5t38.5 54t54 37.5t72 14q37 0 70.5 -10.5t64.5 -22.5l27 -12q22 -10 44 -17.5t38 -7.5q38 0 53 25q3 6 7 10l6 8t5 6q10 14 19.5 21.5t32.5 7.5h30q22 0 27 -15.5t0 -33.5q-9 -32 -23.5 -61.5t-37 -52t-53.5 -36.5t-72 -14 q-35 0 -69 10t-64 23l-23 8q-25 11 -46 19t-40 8q-41 0 -66 -33l-8 -17q-8 -14 -16 -22t-33 -8h-35z" />
<glyph unicode="&#x2000;" horiz-adv-x="934" />
<glyph unicode="&#x2001;" horiz-adv-x="1868" />
<glyph unicode="&#x2002;" horiz-adv-x="934" />
<glyph unicode="&#x2003;" horiz-adv-x="1868" />
<glyph unicode="&#x2004;" horiz-adv-x="622" />
<glyph unicode="&#x2005;" horiz-adv-x="467" />
<glyph unicode="&#x2006;" horiz-adv-x="311" />
<glyph unicode="&#x2007;" horiz-adv-x="311" />
<glyph unicode="&#x2008;" horiz-adv-x="233" />
<glyph unicode="&#x2009;" horiz-adv-x="373" />
<glyph unicode="&#x200a;" horiz-adv-x="103" />
<glyph unicode="&#x2010;" horiz-adv-x="702" d="M211 393q-24 0 -39.5 6t-24.5 16.5t-12.5 25t-3.5 30.5v47q0 16 3.5 30.5t12.5 25t24.5 16.5t39.5 6h281q24 0 39.5 -6t24.5 -16.5t12 -25t3 -30.5v-47q0 -16 -3 -30.5t-12 -25t-24.5 -16.5t-39.5 -6h-281v0z" />
<glyph unicode="&#x2011;" horiz-adv-x="702" d="M211 393q-24 0 -39.5 6t-24.5 16.5t-12.5 25t-3.5 30.5v47q0 16 3.5 30.5t12.5 25t24.5 16.5t39.5 6h281q24 0 39.5 -6t24.5 -16.5t12 -25t3 -30.5v-47q0 -16 -3 -30.5t-12 -25t-24.5 -16.5t-39.5 -6h-281v0z" />
<glyph unicode="&#x2012;" horiz-adv-x="702" d="M211 393q-24 0 -39.5 6t-24.5 16.5t-12.5 25t-3.5 30.5v47q0 16 3.5 30.5t12.5 25t24.5 16.5t39.5 6h281q24 0 39.5 -6t24.5 -16.5t12 -25t3 -30.5v-47q0 -16 -3 -30.5t-12 -25t-24.5 -16.5t-39.5 -6h-281v0z" />
<glyph unicode="&#x2013;" horiz-adv-x="975" d="M76 444q-26 0 -41.5 3t-24 10t-11.5 18t-3 27v49q0 16 3 27t11.5 17.5t24 9.5t41.5 3h825q48 0 64 -12.5t16 -44.5v-49q0 -32 -16 -45t-64 -13h-825v0z" />
<glyph unicode="&#x2014;" horiz-adv-x="1948" d="M465 444q-26 0 -41.5 3t-24 10t-11.5 18t-3 27v49q0 16 3 27t11.5 17.5t24 9.5t41.5 3h1020q47 0 63.5 -12.5t16.5 -44.5v-49q0 -32 -16.5 -45t-63.5 -13h-1020v0z" />
<glyph unicode="&#x2018;" horiz-adv-x="489" d="M135 903q-15 2 -27 9t-19.5 18t-9 26t6.5 33l150 357q12 29 33 47.5t55 13.5l43 -8q34 -6 45 -25.5t0 -62.5l-90 -363q-10 -31 -32 -49.5t-54 -13.5z" />
<glyph unicode="&#x2019;" horiz-adv-x="489" d="M121 893q-32 6 -43 25.5t0 62.5l90 362q9 32 30.5 51t55.5 13l100 -18q15 -3 27 -9.5t19.5 -17.5t9 -26t-6.5 -33l-149 -357q-12 -29 -33 -47.5t-55 -13.5z" />
<glyph unicode="&#x201a;" horiz-adv-x="489" d="M168 223q4 16 14.5 29t24.5 21t30.5 11.5t32.5 0.5l82 -17q14 -3 26 -10t19.5 -18t9.5 -25.5t-4 -32.5l-149 -356q-7 -12 -16.5 -24.5t-21.5 -21.5t-25.5 -13.5t-28.5 -2.5l-51 11q-34 6 -40 23.5t7 62.5z" />
<glyph unicode="&#x201c;" horiz-adv-x="819" d="M489 903q-32 5 -49 24.5t-2 61.5l144 361q5 10 13.5 21.5t19 20t23 13t26.5 2.5l51 -10q15 -4 23.5 -9.5t11.5 -14.5t1.5 -23t-6.5 -35l-86 -367q-4 -16 -14 -28.5t-23.5 -20.5t-30 -11t-32.5 -1zM135 903q-32 5 -48 24.5t-1 61.5l143 361q6 10 15 21.5t19.5 20t23 13 t26.5 2.5l37 -8q32 -8 42.5 -24.5t0.5 -59.5l-86 -367q-8 -34 -37 -50.5t-63 -10.5z" />
<glyph unicode="&#x201d;" horiz-adv-x="819" d="M469 891q-32 6 -40.5 22.5t-0.5 61.5l84 366q4 16 14 28.5t23.5 21t30 11.5t32.5 1l72 -17q15 -3 27 -10t19.5 -17.5t8.5 -25t-6 -33.5l-141 -360q-13 -28 -32.5 -45t-51.5 -12zM106 893q-15 3 -23 7.5t-11 13.5t-1.5 23.5t5.5 37.5l84 366q4 16 14 28.5t23.5 21t30 11.5 t32.5 1l72 -17q15 -3 27 -10t19 -17.5t8.5 -25t-5.5 -33.5l-141 -360q-6 -15 -13 -27t-16 -20t-22 -11t-31 1z" />
<glyph unicode="&#x201e;" horiz-adv-x="819" d="M512 223q4 16 14 28.5t23.5 21t30 11.5t32.5 1l70 -17q31 -5 48 -26.5t3 -59.5l-141 -360q-13 -28 -32.5 -45.5t-51.5 -12.5l-39 9q-31 6 -40.5 23t-0.5 61zM160 223q4 16 14 28.5t23.5 21t30 11.5t32.5 1l72 -17q29 -6 45.5 -27.5t3.5 -58.5l-141 -360 q-13 -28 -30.5 -45.5t-51.5 -12.5l-49 11q-15 3 -24.5 8t-13 14t-2.5 23.5t7 36.5z" />
<glyph unicode="&#x2022;" horiz-adv-x="975" d="M487 350q-74 0 -139.5 29t-114 79.5t-76.5 118t-28 144.5t28 144t76.5 117t114 79t139.5 29q75 0 140 -29t114 -79t77 -117t28 -144t-28 -144.5t-77 -118t-114 -79.5t-140 -29z" />
<glyph unicode="&#x2026;" horiz-adv-x="1491" d="M1090 133q0 33 11.5 61.5t32 49.5t48.5 33t61 12q31 0 59 -12t49 -33t33.5 -49.5t12.5 -61.5q0 -32 -12.5 -60t-33.5 -49.5t-49 -34t-59 -12.5q-33 0 -61 12.5t-48.5 34t-32 49.5t-11.5 60zM592 133q0 33 12 61.5t33 49.5t49.5 33t61.5 12q31 0 59 -12t49 -33t33 -49.5 t12 -61.5q0 -32 -12 -60t-33 -49.5t-49 -34t-59 -12.5q-33 0 -61.5 12.5t-49.5 34t-33 49.5t-12 60zM96 133q0 33 11.5 61.5t32.5 49.5t49 33t61 12q31 0 59.5 -12t50 -33t34 -49.5t12.5 -61.5q0 -32 -12.5 -60t-34 -49.5t-50 -34t-59.5 -12.5q-33 0 -61 12.5t-49 34 t-32.5 49.5t-11.5 60z" />
<glyph unicode="&#x202f;" horiz-adv-x="373" />
<glyph unicode="&#x2039;" horiz-adv-x="645" d="M162 459q-8 15 -12.5 33t-4.5 36q0 17 4.5 33.5t12.5 32.5l114 201q19 31 40 49t59 18h63q14 0 27 -2t20.5 -9t7.5 -20.5t-12 -35.5l-153 -269l147 -270q12 -24 12 -37.5t-8 -20t-21 -8.5t-26 -2h-67q-36 0 -58 18.5t-39 49.5z" />
<glyph unicode="&#x203a;" horiz-adv-x="645" d="M215 188q-12 0 -24.5 2.5t-20 10t-8 21t9.5 34.5l145 270l-151 269q-12 22 -12.5 35.5t7 20.5t20.5 9t26 2h65q39 0 59.5 -18t37.5 -49l114 -201q19 -31 19 -66q0 -18 -4.5 -36t-14.5 -33l-104 -203q-17 -31 -39 -49.5t-57 -18.5h-68v0z" />
<glyph unicode="&#x205f;" horiz-adv-x="467" />
<glyph unicode="&#x20ac;" d="M106 487q-26 0 -44 10.5t-15 34.5l6 41q5 28 25 36.5t49 8.5h47q-2 14 -3 36t-1 34q0 19 1 41t3 39h-68q-26 0 -44 13t-15 38l6 33q5 26 25 36.5t49 10.5h68q19 98 62 191.5t110.5 166.5t160.5 117.5t213 44.5q20 0 45.5 -0.5t47.5 -5.5q32 -6 51 -24.5t10 -61.5 q-5 -23 -11.5 -46t-11.5 -46q-5 -22 -22 -33.5t-39 -11.5q-8 0 -14.5 1t-14.5 1q-9 2 -18.5 2h-20.5q-60 0 -109 -26.5t-85 -69t-59 -95t-33 -104.5h272q28 0 46 -11t13 -36l-8 -39q-6 -28 -25.5 -36.5t-49.5 -8.5h-265q-3 -17 -4.5 -37t-1.5 -37q0 -21 1 -40.5t3 -35.5h252 q28 0 46.5 -13t13.5 -38l-7 -35q-5 -26 -24.5 -35.5t-50.5 -9.5h-224q12 -65 38.5 -117.5t64.5 -89.5t87.5 -57t108.5 -20q25 0 40 2t26 4q6 2 14.5 2h16.5q20 0 29.5 -11t15.5 -48l16 -101q5 -32 -17.5 -49t-54.5 -22q-23 -4 -44.5 -5.5t-43.5 -1.5q-114 0 -208 40.5 t-166 110t-119 163t-66 200.5h-76v0z" />
<glyph unicode="&#x2122;" horiz-adv-x="1753" d="M782 1315q0 47 23 62.5t57 15.5h121q34 0 55.5 -22.5t32.5 -51.5l143 -389l140 389q11 29 32.5 51.5t55.5 22.5h123q34 0 57 -15.5t23 -62.5v-608q0 -48 -23 -63t-57 -15h-23q-34 0 -57 15t-23 63v434l-157 -449q-10 -26 -23.5 -44.5t-44.5 -18.5h-43q-31 0 -47.5 18.5 t-26.5 44.5l-157 441v-426q0 -48 -23 -63t-57 -15h-21q-34 0 -57 15t-23 63v608zM387 629q-34 0 -57 15t-23 63v536h-131q-46 0 -61 11t-15 42v45q0 29 15 40.5t61 11.5h457q46 0 61 -11.5t15 -40.5v-45q0 -31 -15 -42t-61 -11h-131v-536q0 -48 -23 -63t-57 -15h-35z" />
<glyph unicode="&#x25fc;" horiz-adv-x="965" d="M0 965h965v-965h-965v965z" />
<glyph unicode="&#xfb01;" horiz-adv-x="1128" d="M166 754h-64q-24 0 -39 6t-24 16.5t-12.5 24.5t-3.5 30v54q0 16 3.5 30.5t12.5 25t24 16.5t39 6h64v84q0 70 20 141.5t63.5 128.5t111.5 93t163 36q16 0 31 -1t31 -3q14 -2 25 -4.5t18.5 -9.5t11.5 -19.5t4 -32.5v-106q0 -19 -10 -33t-41 -14h-41q-66 0 -92.5 -49 t-26.5 -140v-71h121q24 0 39.5 -6t24.5 -16.5t12.5 -25t3.5 -30.5v-54q0 -32 -16.5 -54.5t-63.5 -22.5h-121v-676q0 -48 -23 -63t-57 -15h-108q-34 0 -57 15t-23 63v676zM872 1104q-35 0 -63.5 14t-49 36.5t-32 50t-11.5 55.5q0 30 11.5 59t32 51t49 35.5t63.5 13.5 q30 0 58 -12t49 -32.5t34 -49t13 -61.5q0 -31 -12.5 -59.5t-33.5 -51t-49 -36t-59 -13.5zM737 885q0 47 24 62.5t58 15.5h106q34 0 57 -15.5t23 -62.5v-807q0 -48 -23 -63t-57 -15h-106q-17 0 -32 3t-26 12t-17.5 24t-6.5 39v807z" />
<glyph unicode="&#xfb02;" horiz-adv-x="1128" d="M166 754h-64q-24 0 -39 6t-24 16.5t-12.5 24.5t-3.5 30v54q0 16 3.5 30.5t12.5 25t24 16.5t39 6h64v84q0 70 20 141.5t63.5 128.5t111.5 93t163 36q16 0 31 -1t31 -3q14 -2 25 -4.5t18.5 -9.5t11.5 -19.5t4 -32.5v-106q0 -19 -10 -33t-41 -14h-41q-66 0 -92.5 -49 t-26.5 -140v-71h121q24 0 39.5 -6t24.5 -16.5t12.5 -25t3.5 -30.5v-54q0 -32 -16.5 -54.5t-63.5 -22.5h-121v-676q0 -48 -23 -63t-57 -15h-108q-34 0 -57 15t-23 63v676zM737 1368q0 24 6.5 39t17.5 24t26 12t32 3h106q34 0 57 -15t23 -63v-1290q0 -48 -23 -63t-57 -15h-106 q-17 0 -32 3t-26 12t-17.5 24t-6.5 39v1290z" />
</font>
</defs>
</svg>
