<?xml version="1.0" standalone="no"?>
<!DOCTYPE svg PUBLIC "-//W3C//DTD SVG 1.1//EN" "http://www.w3.org/Graphics/SVG/1.1/DTD/svg11.dtd" >
<svg xmlns="http://www.w3.org/2000/svg">
<metadata></metadata>
<defs>
<font id="nregular" horiz-adv-x="974" >
<font-face units-per-em="2048" ascent="1536" descent="-512" />
<missing-glyph horiz-adv-x="440" />
<glyph horiz-adv-x="0" />
<glyph horiz-adv-x="0" />
<glyph unicode="&#xd;" horiz-adv-x="569" />
<glyph unicode=" "  horiz-adv-x="440" />
<glyph unicode="&#x09;" horiz-adv-x="440" />
<glyph unicode="&#xa0;" horiz-adv-x="440" />
<glyph unicode="!" horiz-adv-x="626" d="M207 82q0 45 31.5 75.5t76.5 30.5t76 -30.5t31 -75.5t-31 -77t-76 -32t-76.5 32t-31.5 77zM244 430v911q0 23 14 37.5t37 14.5h41q23 0 37 -14.5t14 -37.5v-911q0 -23 -14.5 -37t-36.5 -14h-41q-23 0 -37 14.5t-14 36.5z" />
<glyph unicode="&#x22;" horiz-adv-x="790" d="M127 977l66 364q4 23 20 37.5t39 14.5h20q20 0 33.5 -15.5t9.5 -36.5l-65 -364q-4 -23 -20.5 -37t-39.5 -14h-20q-20 0 -33.5 15t-9.5 36zM475 977l66 364q4 23 20.5 37.5t38.5 14.5h21q20 0 33.5 -15.5t9.5 -36.5l-66 -364q-4 -23 -20.5 -37t-38.5 -14h-21 q-20 0 -33.5 15t-9.5 36z" />
<glyph unicode="#" d="M6 465v24q0 23 14.5 32t36.5 9h164l43 310h-149q-23 0 -37.5 9t-14.5 32v24q0 23 14.5 32t37.5 9h164l53 373q4 23 19.5 37t37.5 14h17q20 0 34.5 -15.5t10.5 -35.5l-54 -373h238l53 373q4 23 19.5 37t37.5 14h17q20 0 34.5 -15.5t10.5 -35.5l-53 -373h149q23 0 37 -9 t14 -32v-24q0 -23 -14 -32t-37 -9h-164l-43 -310h150q23 0 37 -9t14 -32v-24q0 -23 -14.5 -32t-36.5 -9h-164l-53 -373q-4 -23 -19.5 -37t-38.5 -14h-16q-20 0 -34.5 15.5t-10.5 35.5l53 373h-239l-54 -373q-4 -23 -19 -37t-38 -14h-14q-20 0 -34.5 15.5t-10.5 35.5l53 373 h-150q-23 0 -37 9t-14 32zM340 530h238l43 310h-240z" />
<glyph unicode="$" d="M51 313q-4 20 9.5 36t33.5 16h41q23 0 40.5 -14.5t21.5 -37.5q16 -88 68 -146t167 -69v549q-59 14 -123.5 39t-117 67t-86 105.5t-33.5 159.5q0 88 29.5 154.5t78.5 113.5t114.5 73.5t137.5 33.5v94q0 18 7 31.5t28 13.5h29q18 0 25 -13.5t7 -31.5v-94q147 -6 243.5 -82 t119.5 -244q4 -20 -10.5 -35.5t-34.5 -15.5h-37q-23 0 -40 14t-21 37q-6 39 -21.5 76t-42.5 64.5t-64.5 45t-91.5 19.5v-514q90 -25 161 -55.5t120 -73.5t74.5 -102.5t25.5 -141.5q0 -78 -21.5 -148.5t-67.5 -125t-118.5 -90t-173.5 -44.5v-170q0 -18 -8 -31.5t-26 -13.5 h-27q-20 0 -27.5 13.5t-7.5 31.5v170q-94 6 -161.5 32t-112.5 70t-71 103t-36 131zM217 1032q0 -57 16.5 -98t45 -70.5t67.5 -48t86 -31.5v488q-98 -4 -156.5 -69.5t-58.5 -170.5zM528 96q117 6 179.5 80t62.5 191q0 106 -65.5 166.5t-176.5 87.5v-525z" />
<glyph unicode="%" horiz-adv-x="1630" d="M109 1051q0 88 26.5 153.5t69.5 106.5t96 61.5t107 20.5q51 0 104 -20.5t96 -61.5t70 -106.5t27 -153.5q0 -90 -27 -155t-70 -106.5t-96 -62t-104 -20.5q-53 0 -106.5 20.5t-96.5 62t-69.5 106.5t-26.5 155zM242 1051q0 -100 40 -168t126 -68t125.5 67.5t39.5 168.5 q0 98 -39.5 165.5t-125.5 67.5t-126 -67.5t-40 -165.5zM353.5 -49q-9.5 14 0.5 31l805 1407q12 20 26.5 32.5t37.5 12.5h28q16 0 25.5 -14.5t-0.5 -30.5l-805 -1407q-12 -20 -25.5 -32.5t-35.5 -12.5h-31q-16 0 -25.5 14zM926 319q0 88 26.5 154t69.5 108t95 62.5t106 20.5 q53 0 106 -20.5t96 -62.5t70 -107.5t27 -154.5q0 -90 -27 -154.5t-70 -105.5t-96 -61.5t-106 -20.5t-105.5 20.5t-95.5 61.5t-69.5 105.5t-26.5 154.5zM1057 319q0 -98 40 -165.5t126 -67.5t126 67.5t40 165.5q0 100 -40 168t-126 68t-126 -68t-40 -168z" />
<glyph unicode="&#x26;" horiz-adv-x="1267" d="M102 358q0 86 27 154t72 121t105.5 95t129.5 79q-66 90 -95.5 158.5t-29.5 154.5q0 45 19.5 93.5t56.5 88t92.5 65.5t128.5 26q74 0 126 -21.5t86 -57.5t49.5 -84t15.5 -100q0 -106 -56.5 -193t-195.5 -169l307 -385q20 43 32.5 93t18.5 99q4 23 20.5 37.5t39.5 14.5h41 q20 0 33.5 -15.5t9.5 -36.5q-12 -66 -38 -147.5t-67 -142.5l189 -224q16 -18 12 -39.5t-35 -21.5h-90q-23 0 -37 11.5t-31 29.5l-100 125q-31 -35 -72 -69t-93 -61.5t-116.5 -45t-144.5 -17.5q-96 0 -173 29t-129 79t-80 120.5t-28 156.5zM262 371q0 -47 14.5 -95.5t46 -86 t83 -61.5t122.5 -24q113 0 195 47.5t133 112.5l-350 443q-123 -66 -183.5 -141.5t-60.5 -194.5zM459 1110q0 -55 22.5 -110.5t79.5 -133.5q92 47 137 111.5t45 138.5q0 72 -38.5 113t-98.5 41q-53 0 -100 -40t-47 -120z" />
<glyph unicode="'" horiz-adv-x="442" d="M127 977l66 364q4 23 20 37.5t39 14.5h20q20 0 33.5 -15.5t9.5 -36.5l-65 -364q-4 -23 -20.5 -37t-39.5 -14h-20q-20 0 -33.5 15t-9.5 36z" />
<glyph unicode="(" horiz-adv-x="647" d="M94 629q0 266 90 488t232 386q14 16 35.5 18.5t37.5 -12.5l15 -12q16 -14 18 -34.5t-12 -37.5q-127 -147 -203 -350t-76 -446q0 -242 76 -445.5t203 -351.5q14 -16 12 -36.5t-18 -35.5l-15 -12q-16 -14 -37.5 -12t-35.5 18q-141 164 -231.5 386t-90.5 489z" />
<glyph unicode=")" horiz-adv-x="647" d="M125 -205q-2 21 12 37q127 147 203 351t76 446q0 244 -76 446.5t-203 349.5q-14 16 -12 37t18 35l15 12q16 14 37.5 12.5t35.5 -18.5q141 -164 231.5 -386t90.5 -488t-90 -488.5t-232 -386.5q-14 -16 -35.5 -18t-37.5 12l-15 12q-16 14 -18 35z" />
<glyph unicode="*" d="M158 1153l8 25q6 18 21.5 21t31.5 -3l213 -76v228q0 18 6 31.5t41 13.5h4q35 0 40 -13.5t5 -31.5v-228l209 76q29 10 38 5t20 -30l4 -10q8 -20 3 -32.5t-34 -22.5l-217 -74l139 -180q12 -16 13.5 -32.5t-15.5 -28.5l-20 -17q-16 -12 -31.5 -5t-26.5 24l-131 188 l-129 -188q-10 -16 -27.5 -22.5t-33.5 5.5l-17 15q-16 12 -15 28.5t13 32.5l140 180l-220 74q-16 6 -27 17.5t-5 29.5z" />
<glyph unicode="+" d="M66 494v18q0 23 14 37t37 14h311v320q0 23 14.5 37t36.5 14h17q23 0 37 -14.5t14 -36.5v-320h311q23 0 37 -14t14 -37v-18q0 -23 -14 -37.5t-37 -14.5h-311v-319q0 -23 -14.5 -37t-36.5 -14h-17q-23 0 -37 14t-14 37v319h-311q-23 0 -37 14.5t-14 37.5z" />
<glyph unicode="," horiz-adv-x="452" d="M3.5 -247.5q-1.5 14.5 4.5 30.5l148 387q8 23 27.5 32t39.5 5l49 -10q18 -4 26.5 -22.5t0.5 -35.5l-190 -377q-10 -16 -20.5 -27t-33.5 -7l-32 6q-18 4 -19.5 18.5z" />
<glyph unicode="-" horiz-adv-x="667" d="M109 465v39q0 23 14 37t37 14h348q23 0 37 -14.5t14 -36.5v-39q0 -23 -14.5 -37t-36.5 -14h-348q-23 0 -37 14t-14 37z" />
<glyph unicode="." horiz-adv-x="452" d="M106 102q0 49 36 84t85 35t84 -34.5t35 -84.5q0 -49 -35 -84.5t-84 -35.5t-85 35.5t-36 84.5z" />
<glyph unicode="/" horiz-adv-x="749" d="M53 23l506 1345q8 23 27.5 36t42.5 13h16q18 0 28.5 -15.5t4.5 -33.5l-506 -1345q-8 -23 -27.5 -36.5t-42.5 -13.5h-16q-18 0 -28.5 15.5t-4.5 34.5z" />
<glyph unicode="0" d="M47 700q0 135 17.5 264.5t66.5 230.5t136 162.5t225 61.5q135 0 221 -53t133 -148.5t64.5 -226.5t17.5 -286q0 -135 -17.5 -265.5t-66.5 -234t-136.5 -166t-224.5 -62.5q-135 0 -221 54.5t-133 152t-64.5 229.5t-17.5 287zM203 700q0 -166 16.5 -279.5t51 -183 t87.5 -100.5t125 -31q147 0 218 139.5t71 459.5q0 168 -16.5 280.5t-51 180t-88 96t-124.5 28.5q-74 0 -128.5 -32.5t-90 -103.5t-53 -182.5t-17.5 -271.5z" />
<glyph unicode="1" d="M186 1108v61q0 23 13.5 34t36.5 20q76 29 152.5 71.5t129.5 94.5q16 14 26.5 22t30.5 8h23q16 0 25.5 -12t9.5 -29v-1327q0 -23 -14.5 -37t-36.5 -14h-54q-23 0 -37 14.5t-14 36.5v1147q-47 -31 -111.5 -62.5t-129.5 -56.5q-18 -6 -34 1t-16 28z" />
<glyph unicode="2" d="M68 51v49q0 23 9 38.5t25 33.5l385 424q51 57 96.5 109.5t79 105.5t52 107.5t18.5 115.5q0 70 -20.5 116t-56 73.5t-81 40t-94.5 12.5q-121 0 -179 -70.5t-73 -181.5q-4 -23 -19 -37t-38 -14h-39q-20 0 -34.5 15.5t-12.5 35.5q18 199 127 297t276 98q84 0 157 -23.5 t127 -70.5t85 -118.5t31 -166.5q0 -80 -23.5 -150.5t-64.5 -135t-94.5 -126t-110.5 -124.5l-334 -361h584q23 0 37 -14t14 -37v-41q0 -23 -14.5 -37t-36.5 -14h-727q-23 0 -37 14.5t-14 36.5z" />
<glyph unicode="3" d="M57 297q-4 20 9.5 36.5t33.5 18.5l41 4q23 2 40.5 -11t21.5 -36q16 -86 78.5 -146.5t179.5 -60.5q78 0 132 28t88 72t49 101t15 119q0 61 -13 116.5t-45 98.5t-84 68.5t-128 25.5q-43 0 -76.5 -6t-68.5 -16q-72 -23 -72 30v37q0 23 9 38t26 32l387 407h-530 q-23 0 -37.5 14.5t-14.5 37.5v36q0 23 14.5 37.5t37.5 14.5h665q23 0 37 -14.5t14 -37.5v-51q0 -23 -10 -40t-27 -33l-360 -369l4 -4q31 6 64 6q88 0 156.5 -31t115.5 -86t71.5 -131t24.5 -166q0 -86 -26.5 -169t-81 -148.5t-136 -105.5t-194.5 -40q-109 0 -182.5 28 t-120.5 74t-73 103.5t-34 118.5z" />
<glyph unicode="4" d="M31 428v39q0 23 7 40t19 36l500 819q27 43 78 43h84q23 0 37 -14.5t14 -36.5v-848h109q23 0 37 -14.5t14 -36.5v-27q0 -23 -14.5 -37t-36.5 -14h-109v-326q0 -23 -14.5 -37t-36.5 -14h-41q-23 0 -37 14.5t-14 36.5v326h-545q-23 0 -37 14.5t-14 36.5zM184 506h443v733h-4 z" />
<glyph unicode="5" d="M68 279q-4 20 8 36.5t33 18.5l45 4q23 2 41 -11.5t24 -35.5q20 -78 78.5 -132.5t167.5 -54.5q131 0 209 85t78 260q0 68 -15.5 128t-47.5 104t-83 69.5t-125 25.5q-137 0 -227 -90q-18 -18 -33.5 -28.5t-40.5 -10.5h-41q-20 0 -34.5 15.5t-12.5 35.5l39 643 q2 23 17.5 37.5t37.5 14.5h602q23 0 37.5 -14.5t14.5 -37.5v-41q0 -23 -14.5 -37t-37.5 -14h-512l-34 -444h4q51 47 115.5 73.5t150.5 26.5q72 0 143.5 -22.5t128 -74.5t91 -140t34.5 -217q0 -84 -24.5 -169t-77.5 -154t-138 -112t-204 -43q-90 0 -157.5 22.5t-117 63.5 t-79 97.5t-43.5 122.5z" />
<glyph unicode="6" d="M66 668q0 178 32.5 317t94 236.5t150.5 147.5t202 50q92 0 154.5 -21.5t104.5 -56t64.5 -81t34.5 -95.5q4 -20 -7 -37.5t-32 -19.5l-39 -4q-23 -4 -43 8t-28 35q-49 139 -211 139q-96 0 -157.5 -53t-98.5 -139t-52.5 -193.5t-17.5 -214.5h4q31 86 110 145.5t195 59.5 q98 0 172 -33t123 -93t74 -142t25 -181q0 -86 -26 -171t-76 -150.5t-128 -106.5t-182 -41q-139 0 -225 56.5t-134.5 151.5t-65.5 221t-17 266zM236 451q0 -68 16 -130.5t50 -110.5t84 -77t118 -29q74 0 123 30t78.5 77t43 106.5t13.5 118.5q0 70 -13.5 129.5t-44 102.5 t-80 67.5t-120.5 24.5q-57 0 -106.5 -23.5t-85.5 -65.5t-56 -98t-20 -122z" />
<glyph unicode="7" d="M59 1305v36q0 23 14.5 37.5t37.5 14.5h747q23 0 37 -14.5t14 -37.5v-67q0 -25 -8 -40t-20 -36q-84 -131 -159 -274.5t-136.5 -291t-105.5 -295t-68 -286.5q-4 -23 -21.5 -37t-40.5 -14h-69q-20 0 -33.5 15.5t-9.5 35.5q18 106 67 260t120 321t158 330.5t179 290.5h-651 q-23 0 -37.5 14.5t-14.5 37.5z" />
<glyph unicode="8" d="M45 377q0 78 21.5 139.5t58.5 108.5t86 80.5t104 56.5v4q-104 39 -153 115.5t-49 181.5q0 76 27.5 140.5t76.5 112.5t117.5 75.5t152.5 27.5t154 -26.5t119 -72.5t76.5 -109.5t27.5 -139.5q0 -104 -49 -185t-153 -120v-4q123 -41 196.5 -131t73.5 -246q0 -82 -30 -156.5 t-87 -131t-140 -90.5t-188 -34q-104 0 -186 32t-139.5 87t-87 128t-29.5 157zM203 401q0 -141 76.5 -219t207.5 -78q135 0 211 78t76 219q0 59 -19.5 111.5t-56 91.5t-90 61.5t-121.5 22.5t-120 -22.5t-88.5 -61.5t-56 -91.5t-19.5 -111.5zM266 1053q0 -98 58.5 -166 t162.5 -68t164 67.5t60 166.5q0 104 -61.5 168.5t-162.5 64.5q-98 0 -159.5 -64.5t-61.5 -168.5z" />
<glyph unicode="9" d="M55 948q0 86 25.5 170t76 150.5t128 108.5t182.5 42q137 0 224 -56t136.5 -151.5t66.5 -221.5t17 -265q0 -178 -32.5 -317.5t-95 -236.5t-151.5 -147.5t-202 -50.5q-90 0 -153.5 22.5t-105.5 58.5t-66.5 81t-36.5 92q-4 20 7 38t31 20l44 4q23 2 43 -9.5t28 -33.5 q49 -139 211 -140q94 0 156.5 53.5t99.5 139.5t52.5 192.5t17.5 215.5h-4q-18 -35 -45 -69t-64 -60.5t-86 -43t-110 -16.5q-98 0 -172 31t-123.5 88t-74 136t-24.5 175zM213 954q0 -68 13.5 -124t44 -96t79.5 -62.5t121 -22.5q57 0 106.5 21.5t85 59.5t56 92.5t20.5 119.5 q0 68 -16 130.5t-50 110.5t-84 76.5t-118 28.5q-74 0 -123 -29.5t-78.5 -77.5t-43 -107.5t-13.5 -119.5z" />
<glyph unicode=":" horiz-adv-x="616" d="M188 102q0 49 36 84t85 35t84 -34.5t35 -84.5q0 -49 -35 -84.5t-84 -35.5t-85 35.5t-36 84.5zM188 870q0 49 36 84t85 35t84 -34.5t35 -84.5q0 -49 -35 -84.5t-84 -35.5t-85 35.5t-36 84.5z" />
<glyph unicode=";" horiz-adv-x="616" d="M92.5 -247.5q-4.5 14.5 1.5 30.5l148 387q8 23 27.5 32t39.5 5l49 -10q18 -4 26.5 -22.5t0.5 -35.5l-190 -377q-10 -16 -24.5 -26t-37.5 -6l-18 4q-18 4 -22.5 18.5zM188 870q0 49 36 84t85 35t84 -34.5t35 -84.5q0 -49 -35 -84.5t-84 -35.5t-85 35.5t-36 84.5z" />
<glyph unicode="&#x3c;" d="M66 492v30q0 20 11 28.5t27 16.5l758 348q16 8 31.5 -2t15.5 -28v-39q0 -23 -12 -34t-35 -21l-618 -287l618 -287q23 -10 35 -22.5t12 -34.5v-39q0 -18 -15 -27.5t-32 -1.5l-758 348q-16 8 -27 19.5t-11 32.5z" />
<glyph unicode="=" d="M66 360v21q0 23 14 37t37 14h741q23 0 37 -14.5t14 -36.5v-21q0 -23 -14 -37t-37 -14h-741q-23 0 -37 14.5t-14 36.5zM66 625v18q0 23 14 37t37 14h741q23 0 37 -14t14 -37v-18q0 -23 -14 -37.5t-37 -14.5h-741q-23 0 -37 14.5t-14 37.5z" />
<glyph unicode="&#x3e;" d="M63 121v39q0 23 12.5 35t35.5 22l618 287l-618 287q-23 10 -35.5 21t-12.5 34v39q0 18 15.5 28.5t32.5 1.5l757 -348q16 -8 27.5 -16t11.5 -29v-30q0 -20 -11 -31.5t-28 -20.5l-757 -348q-16 -8 -32 1t-16 28z" />
<glyph unicode="?" horiz-adv-x="995" d="M156 1081q6 61 29.5 122t68.5 109t113.5 77.5t167.5 29.5q78 0 144 -21.5t115.5 -64.5t77 -105.5t27.5 -144.5q0 -66 -16.5 -118t-47 -96t-73.5 -82.5t-96 -79.5q-49 -37 -76 -89.5t-27 -160.5v-41q0 -16 -10 -26.5t-27 -10.5h-69q-37 0 -37 39v14q0 55 4 103.5 t19.5 91.5t45 84t82.5 84q47 39 79 71.5t52.5 65.5t28.5 68.5t8 78.5q0 98 -58 154.5t-151 56.5q-104 0 -161.5 -56t-67.5 -153q-4 -23 -19.5 -37t-37.5 -14h-41q-20 0 -34.5 15.5t-12.5 35.5zM393 82q0 45 32 75.5t77 30.5t75.5 -30.5t30.5 -75.5t-30.5 -77t-75.5 -32 t-77 32t-32 77z" />
<glyph unicode="@" horiz-adv-x="1978" d="M168 502q0 180 67.5 335.5t185.5 269.5t275.5 178.5t339.5 64.5q154 0 299.5 -45t257 -136.5t179 -227.5t67.5 -318q0 -137 -36 -240.5t-95 -173.5t-139 -105.5t-166 -35.5q-98 0 -148.5 51t-50.5 117h-8q-12 -25 -35.5 -53.5t-59.5 -54.5t-84 -43t-110 -17 q-76 0 -136 27.5t-101 76.5t-63.5 117.5t-22.5 148.5q0 96 30.5 187.5t89 162t140.5 113.5t186 43q86 0 153.5 -35t92.5 -102h8l16 70q4 23 20.5 27.5t39.5 4.5h31q20 0 28 -15t4 -36l-80 -364q-4 -16 -8 -40t-7 -50.5t-6 -52t-3 -44.5q0 -23 4 -44t17.5 -38.5t37 -29 t62.5 -11.5q57 0 106 33t83 90.5t53.5 134t19.5 164.5q0 150 -50 265.5t-139.5 194.5t-212 119t-266.5 40q-160 0 -290 -56.5t-224 -155t-145 -231.5t-51 -286q0 -164 53 -296t149.5 -225.5t230.5 -143.5t296 -50q186 0 326.5 54t252.5 149q16 14 35 17t31 -13l20 -29 q12 -16 8 -34.5t-20 -33.5q-131 -113 -299 -172t-371 -59q-197 0 -356.5 62.5t-273 174t-176 266.5t-62.5 339zM733 430q0 -35 8.5 -77t30 -79.5t58 -63.5t96.5 -26q84 0 141 40t92 98.5t49.5 127t14.5 128.5q0 45 -9.5 89t-32 78.5t-61.5 56t-96 21.5q-70 0 -124 -35.5 t-91 -92t-56.5 -127t-19.5 -138.5z" />
<glyph unicode="A" horiz-adv-x="1226" d="M16 47l502 1299q8 20 27.5 33.5t42.5 13.5h59q23 0 42.5 -13.5t27.5 -36.5l493 -1294q3 -8 3 -15q0 -10 -6 -18q-11 -16 -29 -16h-82q-23 0 -42.5 13.5t-27.5 35.5l-123 344h-590l-123 -344q-8 -23 -21 -36t-48 -13h-72q-19 0 -29 16q-7 10 -6 19q0 6 2 12zM367 532h483 l-236 664h-4z" />
<glyph unicode="B" horiz-adv-x="1153" d="M160 51v1290q0 23 14 37.5t37 14.5h356q90 0 166 -20.5t131.5 -62.5t86 -102.5t30.5 -140.5q0 -117 -51 -204t-170 -138v-2q51 -10 101 -30.5t91 -59.5t66.5 -97.5t25.5 -142.5q0 -96 -38.5 -168.5t-105 -123t-152.5 -76t-179 -25.5h-358q-23 0 -37 14.5t-14 36.5z M315 141h250q68 0 125.5 15.5t99 46t66.5 79t25 113.5q0 137 -88 193.5t-242 56.5h-236v-504zM315 774h211q129 0 211 65.5t82 194.5q0 70 -25.5 115t-68.5 70.5t-98.5 35t-114.5 9.5h-197v-490z" />
<glyph unicode="C" horiz-adv-x="1411" d="M82 696q0 156 54 289t148.5 229.5t223.5 150.5t280 54q121 0 213.5 -24.5t159 -66.5t112.5 -97t75 -115q5 -10 5 -20q1 -10 -3 -18q-8 -20 -27 -27l-53 -23q-20 -8 -41 -1t-31 28q-51 100 -150.5 162.5t-259.5 62.5q-145 0 -247.5 -52t-168 -135t-95 -187.5t-29.5 -209.5 q0 -104 27.5 -208.5t91 -187.5t167 -134t254.5 -51q147 0 254 60.5t166 178.5q10 18 29.5 25.5t40.5 -2.5l45 -23q17 -10 25 -30q3 -9 4 -17q0 -11 -6 -20q-35 -59 -84.5 -115.5t-119 -100.5t-160.5 -71t-210 -27q-152 0 -278.5 50.5t-218 143.5t-142.5 227t-51 302z" />
<glyph unicode="D" horiz-adv-x="1411" d="M174 51v1290q0 23 14.5 37.5t36.5 14.5h381q207 0 345.5 -61.5t221 -160t117.5 -221.5t35 -245q0 -131 -45 -257t-134 -225.5t-222 -161t-308 -61.5h-391q-23 0 -37 14.5t-14 36.5zM330 141h284q141 0 244 48.5t170.5 127t99 180t31.5 208.5q0 104 -29.5 203.5t-96 175 t-174 121.5t-263.5 46h-266v-1110z" />
<glyph unicode="E" horiz-adv-x="1062" d="M160 51v1290q0 23 14 37.5t37 14.5h702q23 0 37.5 -14.5t14.5 -37.5v-38q0 -23 -14.5 -37.5t-37.5 -14.5h-598v-467h519q23 0 37 -14t14 -37v-37q0 -23 -14.5 -37t-36.5 -14h-519v-504h619q23 0 37 -14t14 -37v-39q0 -23 -14.5 -37t-36.5 -14h-723q-23 0 -37 14.5 t-14 36.5z" />
<glyph unicode="F" horiz-adv-x="993" d="M160 51v1290q0 23 14 37.5t37 14.5h684q23 0 37 -14.5t14 -37.5v-38q0 -23 -14 -37.5t-37 -14.5h-580v-467h500q23 0 37 -14t14 -37v-37q0 -23 -14 -37t-37 -14h-500v-594q0 -23 -14 -37t-37 -14h-53q-23 0 -37 14.5t-14 36.5z" />
<glyph unicode="G" horiz-adv-x="1472" d="M82 696q0 137 45 268.5t133 231.5t219 161.5t303 61.5q100 0 186.5 -24.5t156 -67.5t118.5 -101.5t78 -125.5q8 -18 -1 -37t-30 -23l-47 -12q-23 -6 -43 4t-31 31q-23 41 -55.5 80t-81.5 69.5t-117.5 49t-158.5 18.5q-123 0 -218.5 -46t-160 -126t-97 -187.5 t-32.5 -232.5q0 -133 37 -238.5t104.5 -180t160.5 -114.5t206 -40q131 0 218 44t140 111.5t79 146.5t32 150h-420q-23 0 -37 14.5t-14 36.5v37q0 23 14 37.5t37 14.5h534q23 0 36.5 -14.5t13.5 -35.5q-4 -131 -41 -254.5t-114 -219t-195.5 -153t-284.5 -57.5 q-164 0 -289 53.5t-210 148.5t-129 228t-44 293z" />
<glyph unicode="H" horiz-adv-x="1392" d="M160 51v1290q0 23 14 37.5t37 14.5h53q23 0 37 -14.5t14 -37.5v-557h762v557q0 23 14.5 37.5t36.5 14.5h54q23 0 37 -14.5t14 -37.5v-1290q0 -23 -14.5 -37t-36.5 -14h-54q-23 0 -37 14.5t-14 36.5v594h-762v-594q0 -23 -14 -37t-37 -14h-53q-23 0 -37 14.5t-14 36.5z " />
<glyph unicode="I" horiz-adv-x="522" d="M184 51v1290q0 23 14.5 37.5t37.5 14.5h53q23 0 37 -14.5t14 -37.5v-1290q0 -23 -14.5 -37t-36.5 -14h-53q-23 0 -37.5 14.5t-14.5 36.5z" />
<glyph unicode="J" horiz-adv-x="751" d="M51 37v39q0 20 15.5 34.5t35.5 10.5q51 -6 101 -6q84 0 134 22.5t76.5 65.5t35 106.5t8.5 143.5v888q0 23 14 37.5t37 14.5h51q23 0 37 -14.5t14 -37.5v-923q0 -94 -15 -175t-59 -141.5t-123 -94.5t-206 -34q-23 0 -49.5 1t-55.5 6q-23 4 -37 19t-14 38z" />
<glyph unicode="K" horiz-adv-x="1153" d="M160 51v1290q0 23 14 37.5t37 14.5h53q23 0 37 -14.5t14 -37.5v-606h4l566 619q35 39 78 39h102q14 0 22.5 -17.5t-6.5 -32.5l-589 -618l602 -676q8 -9 8 -22q0 -5 -1 -9q-3 -18 -22 -18h-114q-43 0 -76 39l-570 666h-4v-654q0 -23 -14 -37t-37 -14h-53q-23 0 -37 14.5 t-14 36.5z" />
<glyph unicode="L" horiz-adv-x="948" d="M160 51v1290q0 23 14 37.5t37 14.5h53q23 0 37 -14.5t14 -37.5v-1200h545q23 0 37 -14t14 -37v-39q0 -23 -14 -37t-37 -14h-649q-23 0 -37 14.5t-14 36.5z" />
<glyph unicode="M" horiz-adv-x="1691" d="M100 53l142 1286q4 23 21.5 38.5t45.5 15.5h88q27 0 47.5 -16.5t28.5 -41.5l369 -1104l405 1106q10 29 31.5 42.5t48.5 13.5l80 -2q27 0 43 -14.5t20 -37.5l121 -1286v-8q0 -13 -5 -27q-7 -18 -36 -18h-65q-35 0 -43 16.5t-10 38.5l-62 766q-8 94 -14 186.5t-10 188.5h-9 l-424 -1153q-6 -18 -20 -30.5t-37 -12.5h-45q-47 0 -59 43l-390 1153h-8q-4 -100 -10 -198.5t-16 -196.5l-68 -746q-2 -23 -10 -39t-43 -16h-68q-25 0 -34 16q-6 11 -6 24q0 6 1 13z" />
<glyph unicode="N" horiz-adv-x="1411" d="M160 51v1290q0 23 14 37.5t37 14.5h65q49 0 80 -43l738 -1106h2v1097q0 23 14 37.5t37 14.5h53q23 0 37 -14.5t14 -37.5v-1290q0 -23 -14 -37t-37 -14h-65q-49 0 -80 43l-736 1104h-4v-1096q0 -23 -14 -37t-37 -14h-53q-23 0 -37 14.5t-14 36.5z" />
<glyph unicode="O" horiz-adv-x="1579" d="M82 696q0 156 54 289t148.5 229.5t223.5 150.5t280 54q154 0 284 -50t224.5 -144.5t147.5 -227.5t53 -301q0 -158 -54 -290t-149.5 -228t-225.5 -150.5t-280 -54.5q-154 0 -283.5 50.5t-223 143.5t-146.5 227t-53 302zM248 696q0 -109 29.5 -212t94 -185t168 -132 t248.5 -50q147 0 250 50t167.5 132t94 185.5t29.5 211.5q0 104 -29.5 209t-95 188t-168 135t-248.5 52q-145 0 -247.5 -52t-168 -135t-95 -188t-29.5 -209z" />
<glyph unicode="P" horiz-adv-x="1153" d="M160 51v1290q0 23 14 37.5t37 14.5h391q217 0 336 -113t119 -317q0 -104 -36 -183.5t-98.5 -133.5t-150.5 -81.5t-192 -27.5h-265v-486q0 -23 -14 -37t-37 -14h-53q-23 0 -37 14.5t-14 36.5zM315 678h240q68 0 128 15.5t106.5 49t74 88t27.5 134.5q0 152 -90 219t-232 67 h-254v-573z" />
<glyph unicode="Q" horiz-adv-x="1579" d="M82 696q0 156 54 289t148.5 229.5t223.5 150.5t280 54q154 0 284 -50t224.5 -144.5t147.5 -227.5t53 -301q0 -147 -45 -266t-125 -213l143 -145q16 -16 17.5 -37t-14.5 -37l-25 -25q-16 -16 -35.5 -16t-36.5 16l-147 150q-92 -72 -201.5 -111t-239.5 -39 q-154 0 -283.5 50.5t-223 143.5t-146.5 227t-53 302zM248 696q0 -109 29.5 -212t94 -186t168 -133t248.5 -50q111 0 193 29.5t141 80.5l-114 117q-16 16 -15.5 36.5t15.5 37.5l18 20q14 16 35.5 16.5t38.5 -16.5l117 -112q66 88 89 181t23 191q0 104 -29.5 209t-95 188 t-168 135t-248.5 52q-145 0 -247.5 -52t-168 -135t-95 -188t-29.5 -209z" />
<glyph unicode="R" horiz-adv-x="1153" d="M160 51v1290q0 23 14 37.5t37 14.5h381q137 0 229 -34t146.5 -88t77 -123t22.5 -136q0 -94 -27.5 -164t-72.5 -117t-102.5 -76.5t-114.5 -44.5l337 -555q6 -9 6 -19q0 -8 -4 -16q-8 -20 -36 -20h-88q-23 0 -36.5 12.5t-25.5 32.5l-315 551h-273v-545q0 -23 -14 -37 t-37 -14h-53q-23 0 -37 14.5t-14 36.5zM315 737h277q141 0 225 62.5t84 191.5q0 76 -26.5 127t-71.5 80t-101.5 41t-117.5 12h-269v-514z" />
<glyph unicode="S" horiz-adv-x="1165" d="M82 334q-1 5 -1 9q0 15 10 27q13 16 34 15h53q23 0 41.5 -14.5t22.5 -36.5q27 -117 119 -168t233 -51q88 0 150.5 22.5t102.5 59t57.5 84t17.5 96.5q0 61 -16.5 103t-55.5 71t-102.5 47t-155.5 31q-121 16 -210 42.5t-148.5 70.5t-89 114t-29.5 172q0 88 35.5 161t98 124 t148.5 78.5t187 27.5q115 0 197.5 -25.5t139 -71.5t88 -107.5t44.5 -131.5q4 -20 -9.5 -35.5t-33.5 -15.5h-52q-51 0 -65 51q-10 39 -32.5 75t-59.5 63.5t-90.5 43t-124.5 15.5q-156 0 -236 -67.5t-80 -174.5q0 -53 13.5 -95t49.5 -72.5t97.5 -52t157.5 -34.5 q133 -18 228 -47.5t155.5 -76t89.5 -112t29 -155.5q0 -84 -29 -159.5t-91.5 -133t-158.5 -92.5t-231 -35q-229 0 -350 95.5t-148 265.5z" />
<glyph unicode="T" horiz-adv-x="1003" d="M2 1303v38q0 23 14.5 37.5t36.5 14.5h897q23 0 37 -14.5t14 -37.5v-38q0 -23 -14 -37.5t-37 -14.5h-370v-1200q0 -23 -14.5 -37t-37.5 -14h-53q-23 0 -37 14.5t-14 36.5v1200h-371q-23 0 -37 14.5t-14 37.5z" />
<glyph unicode="U" horiz-adv-x="1337" d="M147 461v880q0 23 14.5 37.5t37.5 14.5h53q23 0 37 -14.5t14 -37.5v-856q0 -96 27.5 -165.5t76 -114.5t116 -67.5t147.5 -22.5q72 0 138 22.5t116.5 71.5t80 125t29.5 182v825q0 23 14.5 37.5t36.5 14.5h54q23 0 37 -14.5t14 -37.5v-827q0 -137 -42 -238.5t-112.5 -169 t-165 -100.5t-200.5 -33q-127 0 -225.5 36t-164 100.5t-99.5 153.5t-34 198z" />
<glyph unicode="V" horiz-adv-x="1153" d="M18 1343q-2 6 -2 12q0 11 8 22q12 16 29 16h80q23 0 41.5 -13.5t26.5 -36.5l377 -1126h4l383 1126q8 23 26.5 36.5t40.5 13.5h68q18 1 28 -15q7 -10 7 -22q0 -6 -2 -13l-474 -1294q-8 -23 -27.5 -36t-41.5 -13h-43q-23 0 -41.5 13.5t-26.5 35.5z" />
<glyph unicode="W" horiz-adv-x="1781" d="M25 1343q-1 4 -1 9q0 13 9 25q12 16 30 16h68q23 0 40 -14.5t24 -37.5l256 -1099h4l360 1101q8 23 26.5 36.5t41.5 13.5h43q23 0 42 -13.5t25 -36.5l348 -1112h2l263 1112q4 23 22.5 36.5t40.5 13.5h57q18 1 30 -15q9 -12 10 -26q0 -4 -1 -9l-344 -1294q-6 -23 -23.5 -36 t-39.5 -13h-39q-23 0 -41 13.5t-27 35.5l-354 1114h-4l-373 -1114q-8 -23 -26.5 -36t-40.5 -13h-41q-23 0 -41.5 13.5t-22.5 35.5z" />
<glyph unicode="X" horiz-adv-x="1153" d="M54 14q-4 7 -4 14q0 8 5 15l426 664l-409 643q-10 14 -2 28.5t24 14.5h107q23 0 39 -12.5t28 -32.5l314 -529l313 529q12 20 28.5 32.5t39.5 12.5h98q16 0 24.5 -14.5t-2.5 -28.5l-411 -643l422 -664q5 -8 5 -15q1 -8 -3 -14q-8 -14 -25 -14h-110q-23 0 -39.5 12.5 t-28.5 32.5l-322 543l-327 -543q-12 -20 -28.5 -32.5t-39.5 -12.5h-98q-16 0 -24 14z" />
<glyph unicode="Y" horiz-adv-x="1097" d="M22 1378q9 15 25 15h94q23 0 44.5 -12.5t31.5 -32.5l342 -641l336 641q10 20 31.5 32.5t44.5 12.5h82q16 0 25 -15q4 -6 4 -14t-5 -16l-446 -779v-518q0 -23 -14.5 -37t-36.5 -14h-52q-23 0 -37 14.5t-14 36.5v518l-454 779q-5 8 -5 16t4 14z" />
<glyph unicode="Z" horiz-adv-x="1134" d="M41 51v47q0 23 8 38.5t23 33.5l825 1081h-737q-23 0 -37 14.5t-14 37.5v38q0 23 14 37.5t37 14.5h882q23 0 37.5 -14.5t14.5 -37.5v-43q0 -23 -8.5 -40t-22.5 -35l-823 -1082h782q23 0 37 -14t14 -37v-39q0 -23 -14.5 -37t-36.5 -14h-930q-23 0 -37 14.5t-14 36.5z" />
<glyph unicode="[" horiz-adv-x="647" d="M158 -223v1702q0 23 14 37t37 14h250q23 0 37 -6t14 -45v-4q0 -39 -14.5 -45.5t-36.5 -6.5h-168v-1591h168q23 0 37 -6t14 -45v-4q0 -39 -14.5 -45t-36.5 -6h-250q-23 0 -37 14t-14 37z" />
<glyph unicode="\" horiz-adv-x="749" d="M53 1368q-6 18 1 33.5t30 15.5h20q29 0 44.5 -13t23.5 -36l506 -1345q6 -18 -1 -34t-30 -16h-20q-29 0 -44.5 13.5t-23.5 36.5z" />
<glyph unicode="]" horiz-adv-x="647" d="M137 -219q0 39 14.5 45t36.5 6h168v1591h-168q-23 0 -37 6.5t-14 45.5v4q0 39 14.5 45t36.5 6h250q23 0 37 -14.5t14 -36.5v-1702q0 -23 -14 -37t-37 -14h-250q-23 0 -37 6t-14 45v4z" />
<glyph unicode="^" d="M86 537l330 596q16 27 25.5 34t23.5 7h45q20 0 27.5 -9.5t19.5 -31.5l330 -596q8 -16 -1 -30.5t-26 -14.5h-43q-23 0 -36 12t-23 33l-271 491l-270 -491q-10 -20 -23.5 -32.5t-35.5 -12.5h-45q-16 0 -25.5 14t-1.5 31z" />
<glyph unicode="_" horiz-adv-x="954" d="M-35 -154h1024v-102h-1024v102z" />
<glyph unicode="`" horiz-adv-x="452" d="M67 1418.5q5 13.5 21 13.5h119q23 0 34 -11.5t23 -31.5l109 -177q10 -14 1 -28.5t-26 -14.5h-39q-23 0 -36 10.5t-29 26.5l-172 189q-10 10 -5 23.5z" />
<glyph unicode="a" horiz-adv-x="1060" d="M88 254q0 86 34 144.5t93 95t143 53t183 20.5l221 8v74q0 45 -11.5 85t-39 68.5t-74.5 45t-121 16.5q-111 0 -165 -35.5t-75 -97.5q-8 -23 -20 -36t-35 -13h-57q-20 0 -31.5 15.5t-7.5 35.5q35 135 135 195.5t258 60.5q197 0 295 -84t98 -239v-478q0 -33 2 -67.5t7 -69.5 v-5q0 -16 -12 -30q-14 -16 -36 -16h-59q-23 0 -37 14.5t-14 36.5v76h-4q-25 -45 -63 -74.5t-82 -47t-90 -25t-89 -7.5q-86 0 -150.5 22.5t-107.5 60.5t-65.5 89.5t-22.5 108.5zM248 262q0 -82 57 -124t162 -42q49 0 101.5 14.5t95.5 43t70.5 74.5t27.5 108v125l-168 -6 q-82 -4 -146.5 -13.5t-108.5 -31t-67.5 -57.5t-23.5 -91z" />
<glyph unicode="b" horiz-adv-x="1191" d="M141 51v1344q0 23 14.5 37t37.5 14h49q23 0 37 -14.5t14 -36.5v-602h2q14 23 44 56.5t74 64t103 53t135 22.5q80 0 159 -29.5t142.5 -92t103.5 -159t40 -227.5q0 -113 -37 -206t-100.5 -160.5t-149.5 -104.5t-184 -37q-70 0 -124.5 17.5t-94 44t-67.5 58.5t-44 61h-2 v-103q0 -23 -14.5 -37t-36.5 -14h-49q-23 0 -37.5 14.5t-14.5 36.5zM293 471q0 -76 22.5 -141.5t65.5 -114.5t103.5 -77.5t136.5 -28.5t134 29.5t98 79.5t60.5 116.5t20.5 142.5q0 94 -23.5 166t-65.5 119t-99.5 70.5t-122.5 23.5q-59 0 -119 -24.5t-107 -72.5t-75.5 -121 t-28.5 -167z" />
<glyph unicode="c" horiz-adv-x="1056" d="M96 461q0 125 39 223t106.5 166t156.5 103.5t190 35.5q141 0 237.5 -52t139.5 -146q5 -9 5 -19q0 -9 -4 -18q-10 -19 -30 -25l-49 -14q-9 -3 -18 -3q-33 0 -54 36q-31 47 -84 76.5t-145 29.5q-80 0 -140.5 -30.5t-102.5 -83t-63.5 -125t-21.5 -154.5q0 -66 17.5 -129.5 t57.5 -112.5t101.5 -79.5t151.5 -30.5q92 0 146 32.5t85 81.5q12 18 26.5 29.5t37.5 3.5l61 -20q20 -6 28 -24q3 -8 3 -16q0 -10 -6 -20q-23 -39 -56.5 -74.5t-81 -64.5t-109 -46.5t-136.5 -17.5q-117 0 -208 38t-153.5 104.5t-94.5 155t-32 190.5z" />
<glyph unicode="d" horiz-adv-x="1191" d="M96 481q0 113 37 206t100.5 160.5t149.5 104.5t184 37q66 0 119 -15.5t94 -40t70 -56t47 -64.5h4v582q0 23 14.5 37t36.5 14h45q23 0 37.5 -14.5t14.5 -36.5v-1344q0 -23 -14.5 -37t-37.5 -14h-45q-23 0 -37 14.5t-14 36.5v117h-4q-16 -29 -47 -62.5t-75 -63.5 t-102.5 -49.5t-131.5 -19.5q-80 0 -159 30t-142.5 92.5t-103.5 157.5t-40 228zM258 487q0 -96 23.5 -166.5t65.5 -117.5t99.5 -70.5t122.5 -23.5q59 0 119 24.5t107 72.5t76.5 119.5t29.5 168.5q0 76 -22.5 141t-65.5 114.5t-104.5 78t-137.5 28.5t-134 -29.5t-98 -80 t-60.5 -117t-20.5 -142.5z" />
<glyph unicode="e" horiz-adv-x="1118" d="M90 465q0 115 35 211t99.5 165.5t155.5 108.5t204 39q96 0 178 -28.5t141.5 -88t92 -149.5t32.5 -213q0 -37 -17.5 -50.5t-39.5 -13.5h-719q0 -154 88 -247t242 -93q104 0 169.5 38t102.5 85q14 18 28.5 25.5t37.5 -0.5l51 -16q18 -6 24 -27t-6 -37 q-63 -98 -167.5 -149.5t-250.5 -51.5q-127 0 -218 43t-149.5 112t-86 157t-27.5 180zM254 569h616q0 59 -18 112.5t-55 93.5t-91.5 62.5t-123.5 22.5q-86 0 -146.5 -26.5t-98.5 -69.5t-57.5 -94.5t-25.5 -100.5z" />
<glyph unicode="f" horiz-adv-x="610" d="M-10 885v33q0 23 14 34t37 11h154v65q0 76 15 150.5t51 134t97.5 96.5t153.5 37q18 0 36.5 -1t37.5 -3q37 -2 44 -19.5t7 -40.5v-34q0 -29 -9.5 -37t-29.5 -8q-18 0 -35.5 2t-48.5 2q-53 0 -86 -25t-51.5 -64.5t-24.5 -92t-6 -105.5v-57h227q23 0 37.5 -11.5t14.5 -33.5 v-33q0 -23 -14.5 -34t-37.5 -11h-227v-789q0 -23 -14.5 -37t-36.5 -14h-49q-23 0 -37 14.5t-14 36.5v789h-154q-23 0 -37 11t-14 34z" />
<glyph unicode="g" horiz-adv-x="1191" d="M98 492q0 113 37 203.5t99.5 156.5t146.5 101.5t178 35.5q98 0 187.5 -50t146.5 -142h4v114q0 23 14.5 37.5t36.5 14.5h47q23 0 37.5 -14.5t14.5 -37.5v-819q0 -113 -28 -205t-89.5 -158.5t-156.5 -102.5t-230 -36q-160 0 -266.5 58.5t-141.5 163.5q-6 20 5.5 37.5 t31.5 19.5l66 6h4q40 0 63 -41q27 -49 83 -79.5t157 -30.5q104 0 171.5 32.5t107.5 88t56.5 129t16.5 157.5v80h-4q-27 -59 -67 -99t-87 -64.5t-98 -36t-100 -11.5q-106 0 -188.5 38t-138.5 104.5t-86 155.5t-30 194zM260 506q0 -82 17.5 -150.5t55.5 -118t96 -77t138 -27.5 q57 0 115.5 22.5t106 68.5t78 117t30.5 167q0 63 -20.5 125.5t-61.5 111t-102.5 78t-141.5 29.5q-66 0 -122 -21.5t-98 -64.5t-66.5 -108.5t-24.5 -151.5z" />
<glyph unicode="h" horiz-adv-x="1101" d="M141 51v1344q0 23 14.5 37t37.5 14h49q23 0 37 -14.5t14 -36.5v-598h2q49 92 137 135t193 43q43 0 102 -13.5t112.5 -50.5t91.5 -100t38 -164v-596q0 -23 -14.5 -37t-36.5 -14h-50q-23 0 -37 14.5t-14 36.5v529q0 76 -21.5 126t-55 80.5t-75.5 43t-81 12.5 q-53 0 -104.5 -20.5t-93.5 -59.5t-67.5 -96.5t-25.5 -130.5v-484q0 -23 -14.5 -37t-36.5 -14h-49q-23 0 -37.5 14.5t-14.5 36.5z" />
<glyph unicode="i" horiz-adv-x="464" d="M119 1290q0 47 33.5 81t80.5 34t80 -34t33 -81t-33 -79.5t-80 -32.5t-80.5 32.5t-33.5 79.5zM156 51v860q0 23 14 37.5t37 14.5h49q23 0 37 -14.5t14 -37.5v-860q0 -23 -14 -37t-37 -14h-49q-23 0 -37 14.5t-14 36.5z" />
<glyph unicode="j" horiz-adv-x="464" d="M-25 -313q0 10 9.5 23.5t38.5 13.5q72 0 104.5 31.5t32.5 123.5v1032q0 23 14 37.5t37 14.5h49q23 0 37 -14.5t14 -37.5v-1042q0 -139 -61.5 -209t-226.5 -70q-29 0 -38.5 13.5t-9.5 21.5v62zM123 1290q0 47 32.5 81t80.5 34q47 0 80.5 -34t33.5 -81t-33.5 -79.5 t-80.5 -32.5t-80 32.5t-33 79.5z" />
<glyph unicode="k" horiz-adv-x="968" d="M141 51v1344q0 23 14.5 37t37.5 14h49q23 0 37 -14.5t14 -36.5v-858l418 391q16 16 31.5 25.5t37.5 9.5h101q23 0 28.5 -17.5t-10.5 -32.5l-430 -391l446 -473q8 -8 8 -22q-1 -3 -1 -7q-2 -20 -29 -20h-109q-23 0 -37 10t-30 29l-424 467v-455q0 -23 -14.5 -37t-36.5 -14 h-49q-23 0 -37.5 14.5t-14.5 36.5z" />
<glyph unicode="l" horiz-adv-x="464" d="M156 51v1344q0 23 14 37t37 14h49q23 0 37 -14.5t14 -36.5v-1344q0 -23 -14 -37t-37 -14h-49q-23 0 -37 14.5t-14 36.5z" />
<glyph unicode="m" horiz-adv-x="1681" d="M141 51v860q0 23 14.5 37.5t37.5 14.5h47q23 0 37 -14.5t14 -37.5v-104h4q37 61 114.5 114.5t200.5 53.5q63 0 110.5 -19.5t80.5 -48t53 -61.5t31 -58q41 82 125 134.5t194 52.5q74 0 137.5 -20.5t108.5 -61.5t70.5 -100.5t25.5 -135.5v-606q0 -23 -14 -37t-37 -14h-45 q-23 0 -37 14.5t-14 36.5v565q0 123 -65.5 174.5t-172.5 51.5q-43 0 -87 -18.5t-81 -53.5t-59.5 -83t-22.5 -107v-529q0 -23 -14 -37t-37 -14h-47q-23 0 -37 14.5t-14 36.5v565q0 123 -51.5 174.5t-161.5 51.5q-47 0 -92 -18.5t-82 -53.5t-59.5 -83t-22.5 -107v-529 q0 -23 -14.5 -37t-36.5 -14h-49q-23 0 -37.5 14.5t-14.5 36.5z" />
<glyph unicode="n" horiz-adv-x="1101" d="M141 51v860q0 23 14.5 37.5t37.5 14.5h49q23 0 37 -14.5t14 -37.5v-114h2q49 92 136 135t192 43q43 0 102 -13.5t112.5 -50.5t91.5 -100t38 -164v-596q0 -23 -14.5 -37t-37.5 -14h-49q-23 0 -37 14.5t-14 36.5v529q0 76 -21.5 126t-55 80.5t-75.5 43t-81 12.5 q-53 0 -104.5 -20.5t-92.5 -59.5t-66.5 -96.5t-25.5 -130.5v-484q0 -23 -14.5 -37t-36.5 -14h-49q-23 0 -37.5 14.5t-14.5 36.5z" />
<glyph unicode="o" horiz-adv-x="1185" d="M96 481q0 94 32 186.5t95.5 163t155.5 114.5t213 44q131 0 225 -44t154.5 -114.5t89.5 -163t29 -186.5q0 -96 -33 -187t-95.5 -163t-155.5 -115t-214 -43q-129 0 -223.5 43t-154.5 115t-89 163t-29 187zM258 481q0 -82 23.5 -150.5t66.5 -117.5t104.5 -76.5t139.5 -27.5 t140.5 27.5t105.5 76.5t66.5 117.5t23.5 150.5q0 80 -23.5 148.5t-66.5 118t-105.5 77t-140.5 27.5t-139.5 -27.5t-104.5 -77t-66.5 -118t-23.5 -148.5z" />
<glyph unicode="p" horiz-adv-x="1191" d="M141 -358v1269q0 23 14.5 37.5t37.5 14.5h49q23 0 37 -14.5t14 -37.5v-118h2q14 23 42 56.5t71 64t103 53t140 22.5t159 -29.5t142.5 -92t103.5 -159t40 -227.5q0 -113 -37 -206t-100.5 -160.5t-149.5 -104.5t-184 -37q-63 0 -115.5 16.5t-94.5 42t-72 58.5t-48 66h-2 v-514q0 -23 -14.5 -37.5t-36.5 -14.5h-49q-23 0 -37.5 14.5t-14.5 37.5zM293 471q0 -76 22.5 -141.5t65.5 -114.5t103.5 -77.5t136.5 -28.5t134 29.5t98 79.5t60.5 116.5t20.5 142.5q0 94 -23.5 166t-65.5 119t-99.5 70.5t-122.5 23.5q-59 0 -119 -24.5t-107 -72.5 t-75.5 -121t-28.5 -167z" />
<glyph unicode="q" horiz-adv-x="1191" d="M96 481q0 117 37 211t100.5 161t149.5 101.5t184 34.5q80 0 136.5 -20.5t94.5 -51t61.5 -64.5t37.5 -60h4v118q0 23 14.5 37.5t36.5 14.5h45q23 0 37.5 -14.5t14.5 -37.5v-1269q0 -23 -14.5 -37.5t-37.5 -14.5h-45q-23 0 -37 14.5t-14 37.5v514h-4q-18 -33 -51 -66 t-77 -58.5t-100.5 -42t-119.5 -16.5q-100 0 -183 37t-143.5 104.5t-93.5 160.5t-33 206zM258 477q0 -76 19.5 -142.5t58.5 -116.5t96 -79.5t133 -29.5t137.5 28.5t105.5 77.5t68.5 114.5t24.5 141.5q0 190 -92 287.5t-234 97.5q-147 0 -232 -97.5t-85 -281.5z" />
<glyph unicode="r" horiz-adv-x="696" d="M141 51v860q0 23 14.5 37.5t37.5 14.5h45q23 0 37 -14.5t14 -37.5v-182h4q14 37 47 80t79 80t102.5 61.5t117.5 24.5q53 0 53 -47v-54q0 -10 -8 -27.5t-41 -17.5q-74 0 -137.5 -29.5t-110.5 -81.5t-74.5 -124t-27.5 -158v-385q0 -23 -14.5 -37t-36.5 -14h-49 q-23 0 -37.5 14.5t-14.5 36.5z" />
<glyph unicode="s" horiz-adv-x="954" d="M74 215q-1 5 -1 10q0 13 9 25q12 16 33 16h55q25 0 37 -14t20 -37q16 -51 71.5 -84t170.5 -33q113 0 187.5 38t74.5 122q0 37 -12 63.5t-44 47t-87.5 34t-138.5 25.5q-74 10 -136.5 25.5t-107.5 44t-70.5 74.5t-25.5 120q0 76 30.5 131.5t83.5 92t125 55t154 18.5 q147 0 247.5 -62.5t118.5 -189.5q4 -20 -9 -35.5t-34 -15.5h-53q-25 0 -37 14.5t-20 36.5q-18 57 -70.5 94t-157.5 37q-45 0 -87 -11t-73.5 -31.5t-51 -51.5t-19.5 -69q0 -39 12.5 -64t41 -41t73.5 -26.5t113 -20.5q86 -12 156.5 -29.5t120.5 -49.5t79 -81t29 -125 q0 -55 -21.5 -108.5t-70 -94t-126 -66.5t-190.5 -26q-102 0 -174 17.5t-118 49.5t-71.5 77t-35.5 98z" />
<glyph unicode="t" horiz-adv-x="632" d="M0 883v37q0 23 14.5 33t36.5 10h139v227q0 23 14.5 37t37.5 14h47q23 0 37 -14.5t14 -36.5v-227h235q23 0 37.5 -10.5t14.5 -32.5v-37q0 -23 -14.5 -33t-37.5 -10h-235v-559q0 -66 28.5 -112t112.5 -46h26.5t27.5 2q18 2 32.5 -12.5t14.5 -32.5v-31q0 -23 -14.5 -38 t-37.5 -17q-23 -4 -44 -4h-44q-123 0 -187.5 58t-64.5 202v590h-139q-23 0 -37 10t-14 33z" />
<glyph unicode="u" horiz-adv-x="1101" d="M135 315v596q0 23 14.5 37.5t36.5 14.5h47q23 0 37.5 -14.5t14.5 -37.5v-530q0 -76 21.5 -126t55 -81t74.5 -43t82 -12q51 0 104.5 20.5t94.5 59.5t67.5 96t26.5 133v483q0 23 14.5 37.5t36.5 14.5h47q23 0 37.5 -14.5t14.5 -37.5v-860q0 -23 -14.5 -37t-37.5 -14h-47 q-23 0 -37 14.5t-14 36.5v113h-4q-49 -92 -137 -135t-193 -43q-43 0 -101.5 13t-112.5 50t-91 100.5t-37 165.5z" />
<glyph unicode="v" horiz-adv-x="968" d="M39 915q-4 7 -4 14q0 9 6 18q10 16 29 16h77q23 0 37.5 -13.5t22.5 -34.5l274 -700h4l285 700q10 23 23.5 35.5t35.5 12.5h70q19 1 29 -15q6 -9 5 -19q0 -7 -3 -14l-361 -868q-20 -47 -65 -47h-45q-45 0 -66 47z" />
<glyph unicode="w" horiz-adv-x="1505" d="M43 913q-2 6 -2 12q0 11 7 22q11 16 30 16h74q23 0 36 -13.5t21 -36.5l225 -686h4l228 686q8 23 26.5 36.5t40.5 13.5h39q23 0 41 -13.5t27 -36.5l239 -686h4l222 686q8 23 21 36.5t36 13.5h68q18 1 29 -15q7 -10 7 -22q0 -6 -2 -13l-297 -864q-8 -23 -26.5 -36 t-40.5 -13h-56q-23 0 -36 13.5t-21 35.5l-231 684h-4l-236 -684q-8 -23 -21.5 -36t-35.5 -13h-47q-23 0 -41.5 13.5t-26.5 35.5z" />
<glyph unicode="x" horiz-adv-x="968" d="M46 14q-3 6 -3 12q0 8 6 15l342 446l-319 435q-10 12 -3 26.5t23 14.5h109q23 0 39 -11.5t30 -31.5l226 -336l225 336q14 20 29.5 31.5t37.5 11.5h97q16 0 23 -14.5t-3 -26.5l-321 -426l336 -455q6 -7 6 -15q0 -6 -4 -12q-8 -14 -23 -14h-106q-23 0 -38.5 11.5 t-29.5 31.5l-238 352l-251 -354q-31 -41 -72 -41h-94q-16 0 -24 14z" />
<glyph unicode="y" horiz-adv-x="968" d="M37 915q-2 6 -2 12q0 10 6 20q10 16 29 16h77q23 0 39.5 -13.5t24.5 -36.5l274 -733h4l279 733q8 23 23.5 36.5t37.5 13.5h70q18 0 29 -15q5 -9 5 -19q0 -7 -3 -14l-531 -1277q-20 -47 -63 -48h-70q-18 0 -28.5 15.5t-1.5 32.5l163 380z" />
<glyph unicode="z" horiz-adv-x="890" d="M74 51v37q0 43 32 82l527 659h-490q-23 0 -37 14.5t-14 37.5v30q0 23 14.5 37.5t36.5 14.5h623q23 0 37 -14.5t14 -37.5v-37q0 -43 -33 -81l-526 -660h508q23 0 37 -14.5t14 -36.5v-31q0 -23 -14.5 -37t-36.5 -14h-641q-23 0 -37 14.5t-14 36.5z" />
<glyph unicode="{" horiz-adv-x="647" d="M94 612v31q0 23 13.5 31t37.5 18q39 18 59.5 73.5t20.5 160.5v411q0 86 49.5 139.5t159.5 53.5h41q14 0 24.5 -10.5t10.5 -24.5v-33q0 -33 -35 -32h-4q-115 0 -115 -107v-408q0 -127 -31.5 -191.5t-97.5 -92.5v-4q66 -29 97.5 -94.5t31.5 -190.5v-410q0 -106 115 -106h4 q35 0 35 -33v-33q0 -14 -10.5 -24t-24.5 -10h-41q-111 0 -160 53t-49 139v412q0 106 -20.5 161.5t-59.5 71.5q-23 10 -37 17.5t-14 31.5z" />
<glyph unicode="|" horiz-adv-x="442" d="M168 -236v1725q0 23 9 37t32 14h27q23 0 31.5 -14.5t8.5 -36.5v-1725q0 -23 -9 -37t-31 -14h-27q-23 0 -32 14.5t-9 36.5z" />
<glyph unicode="}" horiz-adv-x="647" d="M137 -207q0 33 35 33h4q115 0 115 106v410q0 125 31.5 190.5t97.5 94.5v4q-66 29 -97.5 93t-31.5 191v408q0 106 -115 107h-4q-35 0 -35 32v33q0 14 10.5 24.5t24.5 10.5h41q111 0 160 -53.5t49 -139.5v-411q0 -104 20.5 -159.5t59.5 -74.5q25 -10 38 -18t13 -31v-31 q0 -25 -14.5 -32t-36.5 -17q-39 -16 -59.5 -71.5t-20.5 -161.5v-412q0 -86 -49 -139t-160 -53h-41q-14 0 -24.5 10t-10.5 24v33z" />
<glyph unicode="~" d="M92.5 469q-2.5 23 11.5 41q41 51 90.5 85t114.5 34q49 0 92 -13.5t95 -48.5q55 -37 91 -52t75 -15q41 0 70.5 21.5t51.5 51.5q12 16 33 17.5t37 -10.5l10 -9q16 -14 18.5 -36.5t-10.5 -38.5q-41 -49 -91 -82t-115 -33q-49 0 -90 11t-99 48q-55 35 -91 50.5t-75 15.5 t-69.5 -20.5t-53.5 -53.5q-12 -16 -31.5 -17t-35.5 11l-10 8q-16 12 -18.5 35z" />
<glyph unicode="&#xa1;" horiz-adv-x="626" d="M207 881q0 45 30.5 76.5t75.5 31.5t77 -31.5t32 -76.5t-32 -76t-77 -31t-75.5 31t-30.5 76zM242 -379v911q0 23 14 37.5t37 14.5h41q23 0 37 -14.5t14 -37.5v-911q0 -23 -14.5 -37t-36.5 -14h-41q-23 0 -37 14.5t-14 36.5z" />
<glyph unicode="&#xa2;" d="M63 479q0 98 30 184.5t85 153t135 108.5t181 52v82q0 20 7 33.5t27 13.5h29q20 0 27.5 -13.5t7.5 -33.5v-78q80 -4 155.5 -36t139.5 -91q14 -14 13 -33.5t-17 -32.5l-39 -30q-16 -14 -32.5 -7t-33.5 23q-33 35 -80 57.5t-106 26.5v-758q59 4 106 27t80 57 q16 16 32.5 23.5t33.5 -6.5l39 -31q16 -12 17 -31.5t-13 -34.5q-63 -59 -139 -90.5t-156 -36.5v-77q0 -20 -7 -33.5t-28 -13.5h-29q-20 0 -27 13t-7 34v82q-100 10 -180.5 52t-135.5 108.5t-85 152.5t-30 184zM211 479q0 -145 75.5 -247.5t207.5 -127.5v750 q-131 -25 -207 -127.5t-76 -247.5z" />
<glyph unicode="&#xa3;" d="M43 711v24q0 18 13.5 26.5t33.5 8.5h109q-53 78 -69.5 150.5t-16.5 126.5q0 78 30.5 146.5t84 118.5t125 78.5t155.5 28.5q104 0 176 -26.5t118 -69.5t70.5 -98.5t32.5 -112.5q4 -20 -9 -36.5t-36 -18.5l-51 -2q-23 -2 -40 11t-21 36q-16 94 -77 141t-153 47 q-111 0 -175 -66.5t-64 -179.5q0 -51 18 -111.5t72 -162.5h344q18 0 31.5 -8t13.5 -27v-24q0 -20 -13.5 -28.5t-31.5 -8.5h-307q20 -68 20 -146q0 -59 -16.5 -113.5t-42 -101.5t-59.5 -88t-68 -73l4 -5q25 10 57.5 19.5t99.5 9.5q41 0 81 -8t87 -23q37 -10 73 -18t77 -8 q33 0 66.5 8t62.5 23q16 10 35.5 1.5t25.5 -26.5l15 -41q6 -20 -2.5 -39.5t-28.5 -30.5q-31 -14 -76 -25.5t-108 -11.5q-51 0 -98.5 11.5t-82.5 21.5q-25 6 -53.5 13.5t-58 12.5t-56 8t-45.5 3q-53 0 -98 -12t-78 -31q-16 -10 -31.5 -11t-25.5 17l-23 49q-10 20 -1.5 38 t26.5 30q47 31 84 76t62.5 94t39 99t13.5 93q0 59 -9.5 104.5t-25.5 80.5h-158q-20 0 -33.5 8t-13.5 29z" />
<glyph unicode="&#xa4;" d="M29 684q0 82 26.5 154.5t73.5 130.5l-68 65q-16 16 -22 30.5t10 31.5l27 26q16 16 30.5 10t30.5 -22l68 -66q59 47 131 74t151 27q82 0 155 -26.5t130 -74.5l66 66q16 16 30.5 22.5t30.5 -10.5l27 -26q16 -16 10 -30.5t-23 -31.5l-65 -65q47 -59 73.5 -131t26.5 -154 q0 -78 -26.5 -150.5t-73.5 -132.5l65 -65q16 -16 20.5 -33.5t-11.5 -34.5l-21 -20q-16 -16 -31.5 -11t-31.5 21l-66 68q-59 -47 -131 -74t-154 -27q-80 0 -151.5 27t-130.5 74l-68 -68q-16 -16 -31.5 -20.5t-31.5 12.5l-23 22q-16 16 -11 31.5t21 32.5l68 65 q-47 57 -73.5 130t-26.5 153zM147 684q0 -72 28 -136.5t74 -111.5t108 -74.5t130 -27.5q70 0 131.5 27.5t108.5 74.5t74.5 111.5t27.5 136.5q0 74 -27.5 137.5t-74.5 111.5t-108.5 75.5t-131.5 27.5q-68 0 -130 -27.5t-108 -75.5t-74 -111.5t-28 -137.5z" />
<glyph unicode="&#xa5;" d="M43 1346q-8 16 1 31.5t28 15.5h96q23 0 36 -12.5t23 -34.5l260 -605l271 605q10 23 22.5 35t34.5 12h86q16 0 25.5 -14.5t1.5 -30.5l-314 -613h187q18 0 31.5 -8t13.5 -27v-30q0 -20 -13.5 -25.5t-31.5 -5.5h-246v-170h244q20 0 33.5 -8t13.5 -29v-24q0 -20 -13.5 -28.5 t-33.5 -8.5h-244v-320q0 -23 -14.5 -37t-36.5 -14h-43q-23 0 -37 14.5t-14 36.5v320h-246q-20 0 -33.5 8t-13.5 29v24q0 20 13 28.5t34 8.5h246v170h-246q-20 0 -33.5 5t-13.5 26v30q0 18 13 26.5t34 8.5h184z" />
<glyph unicode="&#xa6;" horiz-adv-x="442" d="M168 -174v520q0 23 9 37t32 14h27q23 0 31.5 -14t8.5 -37v-520q0 -23 -9 -37t-31 -14h-27q-23 0 -32 14t-9 37zM168 907v520q0 23 9 37.5t32 14.5h27q23 0 31.5 -14.5t8.5 -37.5v-520q0 -23 -9 -37t-31 -14h-27q-23 0 -32 14.5t-9 36.5z" />
<glyph unicode="&#xa7;" d="M63 -25q-2 20 11.5 36t34.5 16h36q23 0 40.5 -14.5t21.5 -37.5q16 -94 72.5 -143t179.5 -49q37 0 78 9t76.5 31.5t59 61.5t23.5 99q0 74 -44 118.5t-109 77.5l-260 125q-41 18 -76 43t-61.5 56.5t-42 74.5t-15.5 101q0 104 60.5 172.5t152.5 97.5q-23 14 -50.5 34.5 t-51 49.5t-40 68.5t-16.5 93.5q0 82 30 143t80 101t115.5 59.5t137.5 19.5q94 0 158.5 -20.5t107.5 -55t64.5 -85t29.5 -107.5q4 -20 -10 -35.5t-35 -15.5h-35q-23 0 -40 14t-21 37q-14 63 -65.5 104t-155.5 41q-98 0 -155.5 -48t-57.5 -134q0 -49 17.5 -84t45 -59.5 t63.5 -43t75 -36.5l178 -82q43 -20 80.5 -46t67.5 -61.5t46.5 -81t16.5 -102.5q0 -104 -53.5 -171.5t-129.5 -96.5q145 -86 146 -256q0 -86 -32 -148.5t-86 -104.5t-124 -61.5t-143 -19.5q-195 0 -287.5 87t-108.5 228zM231 588q0 -41 15.5 -70t43 -52.5t68.5 -44t95 -44.5 l135 -62q25 6 51.5 20.5t48 37t35.5 53.5t14 72q0 45 -16 79.5t-43 60.5t-63.5 45t-75.5 36l-125 53q-29 -4 -60.5 -15.5t-59.5 -33t-45.5 -55t-17.5 -80.5z" />
<glyph unicode="&#xa8;" horiz-adv-x="452" d="M-68 1284q0 43 30 72.5t73 29.5t73.5 -29.5t30.5 -72.5t-30.5 -73.5t-73.5 -30.5t-73 30.5t-30 73.5zM313 1284q0 43 30 72.5t73 29.5t73.5 -29.5t30.5 -72.5t-30.5 -73.5t-73.5 -30.5t-73 30.5t-30 73.5z" />
<glyph unicode="&#xa9;" horiz-adv-x="1773" d="M166 696q0 150 56.5 281t154.5 229.5t229 154.5t283 56q150 0 280.5 -56t229 -154.5t155 -229.5t56.5 -281t-56.5 -280.5t-155 -229t-229.5 -156t-280 -57.5q-152 0 -283 57.5t-229 156t-154.5 229t-56.5 280.5zM272 696q0 -135 47.5 -249.5t130 -198.5t195.5 -131 t244 -47t242.5 47t194.5 131t130 198.5t47 249.5t-47 249t-130 198t-194.5 131t-242.5 47t-244 -47t-195.5 -131t-130 -198t-47.5 -249zM475 700q0 98 30 180.5t85 142.5t135 94t182 34q129 0 225.5 -63.5t131.5 -186.5q4 -20 -7.5 -35.5t-31.5 -15.5h-35q-23 0 -29 13.5 t-16 35.5q-29 68 -88.5 112t-147.5 44q-162 0 -244.5 -99.5t-82.5 -253.5q0 -160 84 -260t245 -100q86 0 147.5 45t88.5 117q8 23 14 36t31 13h33q20 0 31.5 -15.5t5.5 -33.5q-39 -119 -132.5 -188.5t-218.5 -69.5q-100 0 -181 34.5t-137 96t-87 144.5t-31 179z" />
<glyph unicode="&#xaa;" horiz-adv-x="954" d="M152 895q0 82 35.5 128t99 68.5t149.5 29.5t187 12v38q0 29 -7.5 54.5t-25 44t-48 29t-79.5 10.5q-66 0 -100.5 -21.5t-51.5 -56.5q-10 -23 -19 -36t-34 -13h-41q-20 0 -32.5 15t-6.5 36q29 102 102.5 145t184.5 43q141 0 214 -61.5t73 -177.5v-334q0 -23 2 -50.5 t6 -56.5q4 -23 -4 -29.5t-29 -6.5h-53q-23 0 -37 14t-14 37v10q-43 -49 -103.5 -64.5t-113.5 -15.5q-125 0 -189.5 61.5t-64.5 147.5zM289 901q0 -51 37.5 -77.5t103.5 -26.5q31 0 65.5 9t62.5 28.5t46.5 48t18.5 69.5v76q-14 -2 -27.5 -2h-28.5q-63 -4 -114.5 -9t-88 -17.5 t-56 -36t-19.5 -62.5z" />
<glyph unicode="&#xab;" horiz-adv-x="954" d="M142.5 530q0.5 25 11.5 43l149 246q12 20 26.5 31.5t37.5 11.5h61q16 0 25.5 -14t-0.5 -29l-179 -289l172 -297q10 -16 1 -30.5t-25 -14.5h-62q-23 0 -37 12.5t-26 32.5l-143 252q-12 20 -11.5 45zM491 530q1 25 11 43l149 246q12 20 26.5 31.5t37.5 11.5h61 q16 0 25.5 -14t-0.5 -29l-178 -289l172 -297q10 -16 0.5 -30.5t-25.5 -14.5h-61q-23 0 -37.5 12.5t-26.5 32.5l-143 252q-12 20 -11 45z" />
<glyph unicode="&#xac;" d="M55 625v18q0 23 14.5 37t36.5 14h760q23 0 37.5 -14t14.5 -37v-369q0 -23 -14.5 -37t-37.5 -14h-16q-23 0 -37 14.5t-14 36.5v299h-693q-23 0 -37 14.5t-14 37.5z" />
<glyph unicode="&#xad;" horiz-adv-x="667" d="M109 465v39q0 23 14 37t37 14h348q23 0 37 -14.5t14 -36.5v-39q0 -23 -14.5 -37t-36.5 -14h-348q-23 0 -37 14t-14 37z" />
<glyph unicode="&#xae;" horiz-adv-x="1159" d="M113 1010q0 96 36.5 181t100 147.5t148.5 99.5t182 37q96 0 181 -37t148.5 -99.5t100.5 -147.5t37 -181t-37 -180.5t-100.5 -146.5t-148.5 -98t-181 -36t-181.5 36t-149 98t-100 146t-36.5 181zM186 1010q0 -80 31 -152t84 -126t125 -85t154 -31t153.5 31t124.5 85 t84 126t31 152q0 82 -31 153.5t-84 124.5t-124.5 84t-153.5 31t-154 -31t-125 -84t-84 -124.5t-31 -153.5zM397 795v428q0 23 14.5 37t37.5 14h133q37 0 71.5 -8.5t62 -26.5t44 -47t16.5 -72q0 -57 -32.5 -93t-88.5 -48l115 -186q10 -14 5 -28.5t-21 -14.5h-37q-23 0 -36 12 t-24 33l-98 174h-67v-174q0 -18 -7.5 -31.5t-25.5 -13.5h-31q-18 0 -24.5 13t-6.5 32zM492 1044h75q41 0 78 15.5t37 62.5q0 43 -34 57.5t-70 14.5h-86v-150z" />
<glyph unicode="&#xaf;" horiz-adv-x="452" d="M-29 1276v24q0 23 14.5 32t37.5 9h405q23 0 37 -9t14 -32v-24q0 -23 -14 -33t-37 -10h-405q-23 0 -37.5 10t-14.5 33z" />
<glyph unicode="&#xb0;" horiz-adv-x="749" d="M70 1169q0 66 22.5 122.5t63.5 97.5t97 63.5t122 22.5t122 -22.5t97 -63.5t63.5 -97.5t22.5 -122.5t-22.5 -122t-63.5 -97t-97 -63.5t-122 -22.5t-122 22.5t-97 63.5t-63.5 97.5t-22.5 121.5zM172 1169q0 -88 57.5 -145t145.5 -57t145.5 57t57.5 145t-57.5 145.5 t-145.5 57.5t-145.5 -57.5t-57.5 -145.5z" />
<glyph unicode="&#xb1;" d="M66 123v18q0 23 14 37.5t37 14.5h741q23 0 37 -14.5t14 -37.5v-18q0 -23 -14 -37t-37 -14h-741q-23 0 -37 14t-14 37zM66 616v19q0 23 14 37t37 14h311v203q0 23 14.5 37t36.5 14h17q23 0 37 -14.5t14 -36.5v-203h311q23 0 37 -14.5t14 -36.5v-19q0 -23 -14 -37t-37 -14 h-311v-194q0 -23 -14.5 -37.5t-36.5 -14.5h-17q-23 0 -37 14.5t-14 37.5v194h-311q-23 0 -37 14.5t-14 36.5z" />
<glyph unicode="&#xb2;" horiz-adv-x="749" d="M125 641v25q0 20 8 32.5t23 28.5l211 225q57 59 98 113.5t41 118.5q0 66 -39 91t-88 25q-53 0 -84 -31.5t-41 -84.5q-4 -23 -13.5 -37t-31.5 -14h-35q-20 0 -29.5 15t-5.5 36q14 115 81 171t163 56q104 0 173 -54t69 -171q0 -82 -53.5 -159t-116.5 -144l-164 -172h284 q23 0 37.5 -9.5t14.5 -31.5v-29q0 -16 -14.5 -29.5t-37.5 -13.5h-403q-20 0 -33.5 11.5t-13.5 31.5z" />
<glyph unicode="&#xb3;" horiz-adv-x="749" d="M122 806.5q3 16.5 25 18.5l46 2q23 2 30.5 -11t14.5 -36q14 -41 44.5 -66.5t84.5 -25.5q76 0 110.5 46t34.5 112t-31.5 109.5t-107.5 43.5q-29 0 -48.5 -4t-35.5 -8q-20 -4 -35.5 -4t-15.5 18v37q0 18 7 30.5t21 27.5l183 192h-248q-23 0 -37 8.5t-14 30.5v31q0 23 14 31 t37 8h356q18 0 32.5 -14.5t14.5 -32.5v-23q0 -23 -8 -36t-25 -29l-159 -164q104 -4 162.5 -68.5t58.5 -175.5q0 -53 -16.5 -102.5t-49 -86t-81.5 -59t-115 -22.5q-61 0 -105.5 15t-73 42t-45 59.5t-24.5 69.5q-4 20 -1 36.5z" />
<glyph unicode="&#xb4;" horiz-adv-x="452" d="M79 1183.5q-9 14.5 1 28.5l108 177q12 20 23.5 31.5t34.5 11.5h119q16 0 21 -13.5t-5 -23.5l-172 -189q-16 -16 -29.5 -26.5t-36.5 -10.5h-39q-16 0 -25 14.5z" />
<glyph unicode="&#xb5;" horiz-adv-x="1105" d="M133 -416v1327q0 23 14.5 37.5t36.5 14.5h33q23 0 37 -14.5t14 -37.5v-483q0 -176 56.5 -253t203.5 -77q61 0 114.5 24.5t92.5 72t61.5 116t22.5 156.5v444q0 23 14.5 37.5t36.5 14.5h33q23 0 37 -14.5t14 -37.5v-700q0 -80 7 -160q2 -20 -12.5 -35.5t-35.5 -15.5h-43 q-23 0 -37 14.5t-14 36.5v105h-4q-23 -37 -57.5 -70t-77.5 -57.5t-91 -39t-95 -14.5q-141 0 -226 60v-451q0 -23 -14 -37t-37 -14h-33q-23 0 -37 14.5t-14 36.5z" />
<glyph unicode="&#xb6;" horiz-adv-x="1077" d="M72 1032q0 178 111.5 269.5t293.5 91.5h381q23 0 37 -14.5t14 -37.5v-1679q0 -23 -14 -37t-37 -14h-31q-23 0 -37 14.5t-14 36.5v1634h-184v-1634q0 -23 -14.5 -37t-36.5 -14h-33q-23 0 -37 14.5t-14 36.5v1022q-84 0 -155 24.5t-122 70.5t-79.5 110.5t-28.5 142.5z" />
<glyph unicode="&#xb7;" horiz-adv-x="452" d="M106 608q0 49 36 84t85 35t84 -35t35 -84t-35 -85t-84 -36t-85 36t-36 85z" />
<glyph unicode="&#xb8;" horiz-adv-x="452" d="M43 -397l6 28q4 14 14.5 17.5t26.5 1.5q45 -6 88 -6q23 0 47.5 4t44 13t31.5 26.5t12 46.5q0 49 -37.5 65.5t-82.5 16.5q-41 0 -66 -6q-16 -4 -25 6l-8 12q-4 4 -3 11t5 11l72 115q10 16 19.5 25.5t27.5 9.5h29q14 0 16 -12.5t-4 -24.5l-39 -69l2 -3q8 2 21.5 2.5 t21.5 0.5q33 0 63.5 -8.5t55.5 -26t40 -46t15 -67.5q0 -55 -21.5 -92t-55 -58.5t-75.5 -30.5t-85 -9q-27 0 -61 3t-64 9q-14 4 -24.5 11t-6.5 24z" />
<glyph unicode="&#xb9;" horiz-adv-x="749" d="M195 1225v24q0 23 13 37t36 23q37 16 72.5 36.5t64.5 43.5q10 10 20.5 16t26.5 6h18q27 0 27 -33v-729q0 -23 -8 -37t-31 -14h-41q-23 0 -30 14.5t-7 36.5v596q-27 -14 -55.5 -27.5t-58.5 -25.5q-16 -6 -31.5 4t-15.5 29z" />
<glyph unicode="&#xba;" horiz-adv-x="954" d="M94 1055q0 70 23.5 135t69.5 117.5t113 84t155 31.5q96 0 164.5 -31.5t112.5 -84t64.5 -118t20.5 -134.5q0 -70 -23.5 -136.5t-69.5 -118.5t-113.5 -84t-155.5 -32q-96 0 -164 32t-112 84t-64.5 118.5t-20.5 136.5zM236 1055q0 -111 57.5 -179.5t161.5 -68.5t162.5 68.5 t58.5 179.5q0 106 -58.5 174.5t-162.5 68.5t-161.5 -68.5t-57.5 -174.5z" />
<glyph unicode="&#xbb;" horiz-adv-x="954" d="M154.5 202.5q-9.5 14.5 1.5 28.5l178 289l-172 297q-10 16 -1 30.5t25 14.5h62q23 0 37 -12t26 -33l144 -252q12 -20 11 -44.5t-11 -43.5l-150 -246q-12 -20 -26.5 -31.5t-36.5 -11.5h-62q-16 0 -25.5 14.5zM503 202.5q-9 14.5 1 28.5l178 289l-172 297q-10 16 -1 30.5 t26 14.5h61q23 0 37 -12t26 -33l144 -252q12 -20 11 -44.5t-11 -43.5l-150 -246q-12 -20 -26.5 -31.5t-36.5 -11.5h-62q-16 0 -25 14.5z" />
<glyph unicode="&#xbc;" horiz-adv-x="1773" d="M195 1225v24q0 23 13 37t36 23q37 16 72.5 36.5t64.5 43.5q10 10 20.5 16t26.5 6h18q27 0 27 -33v-729q0 -23 -8 -37t-31 -14h-41q-23 0 -30 14.5t-7 36.5v596q-27 -14 -55.5 -27.5t-58.5 -25.5q-16 -6 -31.5 4t-15.5 29zM382.5 -49q-9.5 14 0.5 31l805 1407 q12 20 24.5 32.5t34.5 12.5h33q16 0 25.5 -14.5t-0.5 -30.5l-805 -1407q-12 -20 -24.5 -32.5t-35.5 -12.5h-32q-16 0 -25.5 14zM1073 250v18q0 18 6 31.5t17 30.5l297 440q14 20 27.5 31.5t35.5 11.5h25q23 0 37 -14.5t14 -36.5v-451h59q20 0 34.5 -9t14.5 -30v-28 q0 -23 -14 -30t-35 -7h-59v-156q0 -23 -9.5 -37t-31.5 -14h-35q-23 0 -29 14.5t-6 36.5v156h-305q-18 0 -30.5 12t-12.5 31zM1204 311h217v330z" />
<glyph unicode="&#xbd;" horiz-adv-x="1773" d="M195 1225v24q0 23 13 37t36 23q37 16 72.5 36.5t64.5 43.5q10 10 20.5 16t26.5 6h18q27 0 27 -33v-729q0 -23 -8 -37t-31 -14h-41q-23 0 -30 14.5t-7 36.5v596q-27 -14 -55.5 -27.5t-58.5 -25.5q-16 -6 -31.5 4t-15.5 29zM382.5 -49q-9.5 14 0.5 31l805 1407 q12 20 24.5 32.5t34.5 12.5h33q16 0 25.5 -14.5t-0.5 -30.5l-805 -1407q-12 -20 -24.5 -32.5t-35.5 -12.5h-32q-16 0 -25.5 14zM1108 43v25q0 20 8 32.5t23 28.5l211 225q57 59 98 113.5t41 118.5q0 66 -39 91t-88 25q-53 0 -84 -31.5t-41 -84.5q-4 -23 -13.5 -37t-31.5 -14 h-35q-20 0 -29.5 15t-5.5 36q14 115 81 171t163 56q104 0 173 -54t69 -171q0 -82 -53.5 -159t-116.5 -144l-164 -172h285q23 0 37 -9.5t14 -31.5v-29q0 -16 -14.5 -29.5t-36.5 -13.5h-404q-20 0 -33.5 11.5t-13.5 31.5z" />
<glyph unicode="&#xbe;" horiz-adv-x="1773" d="M122 806.5q3 16.5 25 18.5l46 2q23 2 30.5 -11t14.5 -36q14 -41 44.5 -66.5t84.5 -25.5q76 0 110.5 46t34.5 112t-31.5 109.5t-107.5 43.5q-29 0 -48.5 -4t-35.5 -8q-20 -4 -35.5 -4t-15.5 18v35q0 18 7 31.5t21 28.5l183 192h-248q-23 0 -37 8.5t-14 30.5v31q0 23 14 31 t37 8h356q18 0 32.5 -14.5t14.5 -32.5v-23q0 -23 -8 -36t-25 -29l-159 -164q104 -4 162.5 -68.5t58.5 -175.5q0 -53 -16.5 -102.5t-49 -86t-81.5 -59t-115 -22.5q-61 0 -105.5 15t-73 42t-45 59.5t-24.5 69.5q-4 20 -1 36.5zM423.5 -49q-9.5 14 0.5 31l805 1407 q12 20 24.5 32.5t34.5 12.5h33q16 0 25.5 -14.5t-0.5 -30.5l-805 -1407q-12 -20 -24.5 -32.5t-35.5 -12.5h-32q-16 0 -25.5 14zM1073 250v18q0 18 6 31.5t17 30.5l297 440q14 20 27.5 31.5t35.5 11.5h25q23 0 37 -14.5t14 -36.5v-451h59q20 0 34.5 -9t14.5 -30v-28 q0 -23 -14 -30t-35 -7h-59v-156q0 -23 -9.5 -37t-31.5 -14h-35q-23 0 -29 14.5t-6 36.5v156h-305q-18 0 -30.5 12t-12.5 31zM1204 311h217v330z" />
<glyph unicode="&#xbf;" horiz-adv-x="995" d="M96 -121q0 66 16.5 118t47 96t73.5 83t97 80q49 37 75.5 89t26.5 161v41q0 16 10.5 26.5t26.5 10.5h70q37 0 36 -39v-15q0 -55 -4 -103t-19 -91t-46 -84t-82 -84q-47 -39 -79 -72t-52.5 -65.5t-28.5 -68.5t-8 -79q0 -98 58.5 -154.5t150.5 -56.5q104 0 161.5 56.5 t67.5 152.5q4 23 19.5 37t38.5 14h41q20 0 34.5 -15t12.5 -36q-6 -61 -30 -121.5t-69 -108.5t-113.5 -78t-166.5 -30q-78 0 -144.5 21.5t-115.5 64.5t-77 105.5t-28 144.5zM387 881q0 45 31 76.5t76 31.5t76.5 -31.5t31.5 -76.5t-31.5 -76t-76.5 -31t-76 31t-31 76z" />
<glyph unicode="&#xc0;" horiz-adv-x="1226" d="M16 47l502 1299q8 20 27.5 33.5t42.5 13.5h59q23 0 42.5 -13.5t27.5 -36.5l493 -1294q8 -18 -3 -33.5t-29 -15.5h-82q-23 0 -42.5 13.5t-27.5 35.5l-123 344h-590l-123 -344q-8 -23 -21 -36t-48 -13h-72q-18 0 -28.5 15.5t-4.5 31.5zM331 1766.5q5 13.5 21 13.5h119 q23 0 34 -11.5t23 -31.5l109 -176q10 -14 1 -28.5t-26 -14.5h-39q-23 0 -36 10t-29 26l-172 189q-10 10 -5 23.5zM367 532h483l-236 664h-4z" />
<glyph unicode="&#xc1;" horiz-adv-x="1226" d="M16 47l502 1299q8 20 27.5 33.5t42.5 13.5h59q23 0 42.5 -13.5t27.5 -36.5l493 -1294q8 -18 -3 -33.5t-29 -15.5h-82q-23 0 -42.5 13.5t-27.5 35.5l-123 344h-590l-123 -344q-8 -23 -21 -36t-48 -13h-72q-18 0 -28.5 15.5t-4.5 31.5zM367 532h483l-236 664h-4z M605.5 1532q-9.5 14 0.5 29l109 176q12 20 23.5 31.5t33.5 11.5h119q16 0 21.5 -13.5t-5.5 -23.5l-172 -189q-16 -16 -29.5 -26t-35.5 -10h-39q-16 0 -25.5 14z" />
<glyph unicode="&#xc2;" horiz-adv-x="1226" d="M16 47l502 1299q8 20 27.5 33.5t42.5 13.5h59q23 0 42.5 -13.5t27.5 -36.5l493 -1294q8 -18 -3 -33.5t-29 -15.5h-82q-23 0 -42.5 13.5t-27.5 35.5l-123 344h-590l-123 -344q-8 -23 -21 -36t-48 -13h-72q-18 0 -28.5 15.5t-4.5 31.5zM367 532h483l-236 664h-4z M383.5 1532q-8.5 14 1.5 29l127 176q14 18 27.5 30.5t35.5 12.5h97q23 0 39 -11.5t30 -31.5l125 -176q10 -14 3 -28.5t-23 -14.5h-64q-23 0 -37 11t-28 30l-92 131l-93 -129q-14 -18 -26 -30.5t-35 -12.5h-63q-16 0 -24.5 14z" />
<glyph unicode="&#xc3;" horiz-adv-x="1226" d="M16 47l502 1299q8 20 27.5 33.5t42.5 13.5h59q23 0 42.5 -13.5t27.5 -36.5l493 -1294q8 -18 -3 -33.5t-29 -15.5h-82q-23 0 -42.5 13.5t-27.5 35.5l-123 344h-590l-123 -344q-8 -23 -21 -36t-48 -13h-72q-18 0 -28.5 15.5t-4.5 31.5zM320.5 1546.5q-3.5 14.5 1.5 30.5 q16 72 60 115t124 43q39 0 73.5 -9.5t67.5 -21.5t62.5 -25.5t56.5 -13.5q29 0 44 12.5t26 28.5q10 20 16 31.5t29 11.5h28q16 0 22.5 -14.5t2.5 -30.5q-16 -76 -61.5 -117t-122.5 -41q-39 0 -74 9.5t-70 21.5q-31 14 -60.5 26.5t-56.5 12.5q-29 0 -44 -12.5t-25 -28.5 q-10 -20 -16.5 -31.5t-28.5 -11.5h-35q-16 0 -19.5 14.5zM367 532h483l-236 664h-4z" />
<glyph unicode="&#xc4;" horiz-adv-x="1226" d="M16 47l502 1299q8 20 27.5 33.5t42.5 13.5h59q23 0 42.5 -13.5t27.5 -36.5l493 -1294q8 -18 -3 -33.5t-29 -15.5h-82q-23 0 -42.5 13.5t-27.5 35.5l-123 344h-590l-123 -344q-8 -23 -21 -36t-48 -13h-72q-18 0 -28.5 15.5t-4.5 31.5zM332 1632q0 43 29.5 73t72.5 30 t74 -30t31 -73t-31 -73.5t-74 -30.5t-72.5 30.5t-29.5 73.5zM367 532h483l-236 664h-4zM713 1632q0 43 29.5 73t72.5 30t74 -30t31 -73t-31 -73.5t-74 -30.5t-72.5 30.5t-29.5 73.5z" />
<glyph unicode="&#xc5;" horiz-adv-x="1226" d="M16 47l502 1299q8 20 27.5 33.5t42.5 13.5h59q23 0 42.5 -13.5t27.5 -36.5l493 -1294q8 -18 -3 -33.5t-29 -15.5h-82q-23 0 -42.5 13.5t-27.5 35.5l-123 344h-590l-123 -344q-8 -23 -21 -36t-48 -13h-72q-18 0 -28.5 15.5t-4.5 31.5zM367 532h483l-236 664h-4zM432 1675 q0 39 15.5 74t41 60.5t59.5 41t73 15.5t73.5 -15.5t60 -41t41 -60.5t15.5 -74t-15.5 -72.5t-41 -59t-60 -41t-73.5 -15.5t-74 14.5t-60.5 40t-40 60t-14.5 73.5zM506 1675q0 -47 34 -80.5t81 -33.5t80.5 33.5t33.5 80.5t-33.5 81t-80.5 34t-81 -34t-34 -81z" />
<glyph unicode="&#xc6;" horiz-adv-x="1693" d="M4 45l741 1303q10 20 25.5 32.5t38.5 12.5h735q23 0 37 -14.5t14 -37.5v-38q0 -23 -14 -37.5t-37 -14.5h-524v-467h444q23 0 37.5 -14t14.5 -37v-37q0 -23 -14.5 -37t-37.5 -14h-444v-504h545q23 0 37 -14t14 -37v-39q0 -23 -14.5 -37t-36.5 -14h-650q-23 0 -37 14.5 t-14 36.5v303h-510l-170 -309q-10 -20 -23.5 -32.5t-35.5 -12.5h-94q-16 0 -26.5 14.5t-0.5 30.5zM422 485h442v811h-4z" />
<glyph unicode="&#xc7;" horiz-adv-x="1411" d="M82 696q0 156 54 289t148.5 229.5t223.5 150.5t280 54q121 0 213.5 -24.5t159 -66.5t112.5 -97t75 -115q10 -18 1.5 -37.5t-26.5 -27.5l-53 -23q-20 -8 -41 -1t-31 28q-51 100 -150.5 162.5t-259.5 62.5q-145 0 -247.5 -52t-168 -135t-95 -187.5t-29.5 -209.5 q0 -104 27.5 -208.5t91 -187.5t167 -134t254.5 -51q147 0 254 60.5t166 178.5q10 18 29.5 25.5t40.5 -2.5l45 -23q18 -10 24.5 -30.5t-4.5 -36.5q-33 -57 -81 -112.5t-113.5 -99.5t-153.5 -72t-200 -30l-43 -79l2 -3q8 2 21 2.5t22 0.5q33 0 63.5 -8.5t55 -26t40 -46 t15.5 -67.5q0 -55 -21.5 -92t-55.5 -58.5t-76 -30.5t-85 -9q-27 0 -60.5 3t-64.5 9q-14 4 -24.5 12t-5.5 25l6 24q6 25 41 21q45 -6 88 -6q23 0 47 4t43.5 13t32 26.5t12.5 46.5q0 49 -38 65.5t-83 16.5q-41 0 -65 -6q-18 -4 -23 4l-10 14q-6 8 2 22l78 125 q-139 10 -254 64.5t-198 148t-129 221.5t-46 287z" />
<glyph unicode="&#xc8;" horiz-adv-x="1062" d="M160 51v1290q0 23 14 37.5t37 14.5h702q23 0 37.5 -14.5t14.5 -37.5v-38q0 -23 -14.5 -37.5t-37.5 -14.5h-598v-467h519q23 0 37 -14t14 -37v-37q0 -23 -14.5 -37t-36.5 -14h-519v-504h619q23 0 37 -14t14 -37v-39q0 -23 -14.5 -37t-36.5 -14h-723q-23 0 -37 14.5 t-14 36.5zM321 1766.5q5 13.5 21 13.5h119q23 0 34 -11.5t23 -31.5l109 -176q10 -14 0.5 -28.5t-25.5 -14.5h-39q-23 0 -36 10t-29 26l-172 189q-10 10 -5 23.5z" />
<glyph unicode="&#xc9;" horiz-adv-x="1062" d="M160 51v1290q0 23 14 37.5t37 14.5h702q23 0 37.5 -14.5t14.5 -37.5v-38q0 -23 -14.5 -37.5t-37.5 -14.5h-598v-467h519q23 0 37 -14t14 -37v-37q0 -23 -14.5 -37t-36.5 -14h-519v-504h619q23 0 37 -14t14 -37v-39q0 -23 -14.5 -37t-36.5 -14h-723q-23 0 -37 14.5 t-14 36.5zM468.5 1532q-9.5 14 0.5 29l109 176q12 20 23 31.5t34 11.5h119q16 0 21 -13.5t-5 -23.5l-172 -189q-16 -16 -29.5 -26t-36.5 -10h-38q-16 0 -25.5 14z" />
<glyph unicode="&#xca;" horiz-adv-x="1062" d="M160 51v1290q0 23 14 37.5t37 14.5h702q23 0 37.5 -14.5t14.5 -37.5v-38q0 -23 -14.5 -37.5t-37.5 -14.5h-598v-467h519q23 0 37 -14t14 -37v-37q0 -23 -14.5 -37t-36.5 -14h-519v-504h619q23 0 37 -14t14 -37v-39q0 -23 -14.5 -37t-36.5 -14h-723q-23 0 -37 14.5 t-14 36.5zM315.5 1532q-8.5 14 1.5 29l127 176q14 18 27.5 30.5t36.5 12.5h96q23 0 39 -11.5t31 -31.5l125 -176q10 -14 3 -28.5t-24 -14.5h-63q-23 0 -37 11t-29 30l-92 131l-92 -129q-14 -18 -26.5 -30.5t-35.5 -12.5h-63q-16 0 -24.5 14z" />
<glyph unicode="&#xcb;" horiz-adv-x="1062" d="M160 51v1290q0 23 14 37.5t37 14.5h702q23 0 37.5 -14.5t14.5 -37.5v-38q0 -23 -14.5 -37.5t-37.5 -14.5h-598v-467h519q23 0 37 -14t14 -37v-37q0 -23 -14.5 -37t-36.5 -14h-519v-504h619q23 0 37 -14t14 -37v-39q0 -23 -14.5 -37t-36.5 -14h-723q-23 0 -37 14.5 t-14 36.5zM256 1632q0 43 29.5 73t72.5 30t74 -30t31 -73t-31 -73.5t-74 -30.5t-72.5 30.5t-29.5 73.5zM637 1632q0 43 29.5 73t72.5 30t74 -30t31 -73t-31 -73.5t-74 -30.5t-72.5 30.5t-29.5 73.5z" />
<glyph unicode="&#xcc;" horiz-adv-x="522" d="M-1 1766.5q5 13.5 21 13.5h119q23 0 34 -11.5t24 -31.5l108 -176q10 -14 1 -28.5t-25 -14.5h-39q-23 0 -36 10t-30 26l-172 189q-10 10 -5 23.5zM184 51v1290q0 23 14.5 37.5t37.5 14.5h53q23 0 37 -14.5t14 -37.5v-1290q0 -23 -14.5 -37t-36.5 -14h-53q-23 0 -37.5 14.5 t-14.5 36.5z" />
<glyph unicode="&#xcd;" horiz-adv-x="522" d="M184 51v1290q0 23 14.5 37.5t37.5 14.5h53q23 0 37 -14.5t14 -37.5v-1290q0 -23 -14.5 -37t-36.5 -14h-53q-23 0 -37.5 14.5t-14.5 36.5zM220.5 1532q-9.5 14 0.5 29l109 176q12 20 23.5 31.5t33.5 11.5h119q16 0 21 -13.5t-5 -23.5l-172 -189q-16 -16 -29.5 -26 t-35.5 -10h-39q-16 0 -25.5 14z" />
<glyph unicode="&#xce;" horiz-adv-x="522" d="M16.5 1532q-8.5 14 1.5 29l127 176q14 18 27.5 30.5t36.5 12.5h96q23 0 39 -11.5t31 -31.5l125 -176q10 -14 3 -28.5t-24 -14.5h-63q-23 0 -37 11t-29 30l-92 131l-92 -129q-14 -18 -26.5 -30.5t-35.5 -12.5h-63q-16 0 -24.5 14zM184 51v1290q0 23 14.5 37.5t37.5 14.5 h53q23 0 37 -14.5t14 -37.5v-1290q0 -23 -14.5 -37t-36.5 -14h-53q-23 0 -37.5 14.5t-14.5 36.5z" />
<glyph unicode="&#xcf;" horiz-adv-x="522" d="M-35 1632q0 43 30 73t73 30t73.5 -30t30.5 -73t-30.5 -73.5t-73.5 -30.5t-73 30.5t-30 73.5zM184 51v1290q0 23 14.5 37.5t37.5 14.5h53q23 0 37 -14.5t14 -37.5v-1290q0 -23 -14.5 -37t-36.5 -14h-53q-23 0 -37.5 14.5t-14.5 36.5zM346 1632q0 43 30 73t73 30t73.5 -30 t30.5 -73t-30.5 -73.5t-73.5 -30.5t-73 30.5t-30 73.5z" />
<glyph unicode="&#xd0;" horiz-adv-x="1411" d="M29 723v27q0 23 14 37t37 14h94v540q0 23 14.5 37.5t36.5 14.5h381q207 0 345.5 -61.5t221 -160t117.5 -221.5t35 -245q0 -131 -45 -257t-134 -225.5t-222 -161t-308 -61.5h-391q-23 0 -37 14.5t-14 36.5v621h-94q-23 0 -37 14t-14 37zM330 141h284q141 0 244 48.5 t170.5 127t99 180t31.5 208.5q0 104 -29.5 203.5t-96 175t-174 121.5t-263.5 46h-266v-450h342q23 0 37 -14.5t14 -36.5v-27q0 -23 -14.5 -37t-36.5 -14h-342v-531z" />
<glyph unicode="&#xd1;" horiz-adv-x="1411" d="M160 51v1290q0 23 14 37.5t37 14.5h65q49 0 80 -43l738 -1106h2v1097q0 23 14 37.5t37 14.5h53q23 0 37 -14.5t14 -37.5v-1290q0 -23 -14 -37t-37 -14h-65q-49 0 -80 43l-736 1104h-4v-1096q0 -23 -14 -37t-37 -14h-53q-23 0 -37 14.5t-14 36.5zM402.5 1546.5 q-3.5 14.5 0.5 30.5q16 72 60.5 115t124.5 43q39 0 73.5 -9.5t67.5 -21.5t62.5 -25.5t56.5 -13.5q29 0 44 12.5t26 28.5q10 20 16 31.5t29 11.5h28q16 0 22.5 -14.5t2.5 -30.5q-16 -76 -61.5 -117t-123.5 -41q-39 0 -73.5 9.5t-69.5 21.5q-31 14 -60.5 26.5t-56.5 12.5 q-29 0 -44 -12.5t-25 -28.5q-10 -20 -16.5 -31.5t-28.5 -11.5h-35q-16 0 -19.5 14.5z" />
<glyph unicode="&#xd2;" horiz-adv-x="1579" d="M82 696q0 156 54 289t148.5 229.5t223.5 150.5t280 54q154 0 284 -50t224.5 -144.5t147.5 -227.5t53 -301q0 -158 -54 -290t-149.5 -228t-225.5 -150.5t-280 -54.5q-154 0 -283.5 50.5t-223 143.5t-146.5 227t-53 302zM248 696q0 -109 29.5 -212t94 -185t168 -132 t248.5 -50q147 0 250 50t167.5 132t94 185.5t29.5 211.5q0 104 -29.5 209t-95 188t-168 135t-248.5 52q-145 0 -247.5 -52t-168 -135t-95 -188t-29.5 -209zM558 1766.5q5 13.5 22 13.5h118q23 0 34 -11.5t24 -31.5l108 -176q10 -14 1 -28.5t-25 -14.5h-39q-23 0 -36 10 t-30 26l-172 189q-10 10 -5 23.5z" />
<glyph unicode="&#xd3;" horiz-adv-x="1579" d="M82 696q0 156 54 289t148.5 229.5t223.5 150.5t280 54q154 0 284 -50t224.5 -144.5t147.5 -227.5t53 -301q0 -158 -54 -290t-149.5 -228t-225.5 -150.5t-280 -54.5q-154 0 -283.5 50.5t-223 143.5t-146.5 227t-53 302zM248 696q0 -109 29.5 -212t94 -185t168 -132 t248.5 -50q147 0 250 50t167.5 132t94 185.5t29.5 211.5q0 104 -29.5 209t-95 188t-168 135t-248.5 52q-145 0 -247.5 -52t-168 -135t-95 -188t-29.5 -209zM777.5 1532q-9.5 14 0.5 29l109 176q12 20 23.5 31.5t33.5 11.5h119q16 0 21.5 -13.5t-5.5 -23.5l-172 -189 q-16 -16 -29.5 -26t-35.5 -10h-39q-16 0 -25.5 14z" />
<glyph unicode="&#xd4;" horiz-adv-x="1579" d="M82 696q0 156 54 289t148.5 229.5t223.5 150.5t280 54q154 0 284 -50t224.5 -144.5t147.5 -227.5t53 -301q0 -158 -54 -290t-149.5 -228t-225.5 -150.5t-280 -54.5q-154 0 -283.5 50.5t-223 143.5t-146.5 227t-53 302zM248 696q0 -109 29.5 -212t94 -185t168 -132 t248.5 -50q147 0 250 50t167.5 132t94 185.5t29.5 211.5q0 104 -29.5 209t-95 188t-168 135t-248.5 52q-145 0 -247.5 -52t-168 -135t-95 -188t-29.5 -209zM567.5 1532q-8.5 14 1.5 29l127 176q14 18 27.5 30.5t36.5 12.5h96q23 0 39 -11.5t31 -31.5l125 -176 q10 -14 3 -28.5t-24 -14.5h-63q-23 0 -37.5 11t-28.5 30l-92 131l-92 -129q-14 -18 -26.5 -30.5t-35.5 -12.5h-63q-16 0 -24.5 14z" />
<glyph unicode="&#xd5;" horiz-adv-x="1579" d="M82 696q0 156 54 289t148.5 229.5t223.5 150.5t280 54q154 0 284 -50t224.5 -144.5t147.5 -227.5t53 -301q0 -158 -54 -290t-149.5 -228t-225.5 -150.5t-280 -54.5q-154 0 -283.5 50.5t-223 143.5t-146.5 227t-53 302zM248 696q0 -109 29.5 -212t94 -185t168 -132 t248.5 -50q147 0 250 50t167.5 132t94 185.5t29.5 211.5q0 104 -29.5 209t-95 188t-168 135t-248.5 52q-145 0 -247.5 -52t-168 -135t-95 -188t-29.5 -209zM503 1546.5q-3 14.5 1 30.5q16 72 60 115t124 43q39 0 74 -9.5t67 -21.5q33 -12 63 -25.5t56 -13.5q29 0 44.5 12.5 t25.5 28.5q10 20 16 31.5t29 11.5h29q16 0 22 -14.5t2 -30.5q-16 -76 -61 -117t-123 -41q-39 0 -74 9.5t-70 21.5q-31 14 -60.5 26.5t-55.5 12.5q-29 0 -44.5 -12.5t-25.5 -28.5q-10 -20 -16 -31.5t-29 -11.5h-35q-16 0 -19 14.5z" />
<glyph unicode="&#xd6;" horiz-adv-x="1579" d="M82 696q0 156 54 289t148.5 229.5t223.5 150.5t280 54q154 0 284 -50t224.5 -144.5t147.5 -227.5t53 -301q0 -158 -54 -290t-149.5 -228t-225.5 -150.5t-280 -54.5q-154 0 -283.5 50.5t-223 143.5t-146.5 227t-53 302zM248 696q0 -109 29.5 -212t94 -185t168 -132 t248.5 -50q147 0 250 50t167.5 132t94 185.5t29.5 211.5q0 104 -29.5 209t-95 188t-168 135t-248.5 52q-145 0 -247.5 -52t-168 -135t-95 -188t-29.5 -209zM510 1632q0 43 29.5 73t72.5 30t74 -30t31 -73t-31 -73.5t-74 -30.5t-72.5 30.5t-29.5 73.5zM891 1632q0 43 29.5 73 t72.5 30t74 -30t31 -73t-31 -73.5t-74 -30.5t-72.5 30.5t-29.5 73.5z" />
<glyph unicode="&#xd7;" d="M145.5 225q-0.5 21 16.5 37l241 240l-239 239q-16 16 -16.5 37t16.5 37l10 12q16 16 36.5 16.5t37.5 -16.5l239 -239l238 239q16 16 36.5 16.5t37.5 -16.5l10 -12q16 -16 16 -36.5t-16 -37.5l-238 -235l240 -242q16 -16 15 -36.5t-15 -37.5l-12 -14q-14 -16 -36 -16 t-38 16l-238 240l-239 -240q-16 -16 -37 -16t-37 16l-12 12q-16 16 -16.5 37z" />
<glyph unicode="&#xd8;" horiz-adv-x="1579" d="M82 696q0 158 54 290t148.5 228.5t223.5 149.5t280 53q299 0 486 -174l137 139q10 10 22.5 15.5t24.5 -6.5l23 -23q12 -12 7 -24.5t-18 -24.5l-135 -137q78 -94 120 -215t42 -271q0 -158 -54 -290t-149.5 -228t-225.5 -150.5t-280 -54.5q-299 0 -485 174l-135 -135 q-12 -12 -24.5 -17t-24.5 7l-19 21q-12 12 -8 25t17 26l137 137q-78 92 -121 212t-43 273zM248 696q0 -100 23.5 -195t88.5 -173l805 807q-66 66 -156.5 104.5t-220.5 38.5q-145 0 -247.5 -51t-168 -134t-95 -187.5t-29.5 -209.5zM416 260q66 -66 158 -105.5t214 -39.5 q147 0 250 50t167.5 133t94 186.5t29.5 211.5q0 98 -25.5 196.5t-80.5 176.5z" />
<glyph unicode="&#xd9;" horiz-adv-x="1337" d="M147 461v880q0 23 14.5 37.5t37.5 14.5h53q23 0 37 -14.5t14 -37.5v-856q0 -96 27.5 -165.5t76 -114.5t116 -67.5t147.5 -22.5q72 0 138 22.5t116.5 71.5t80 125t29.5 182v825q0 23 14.5 37.5t36.5 14.5h54q23 0 37 -14.5t14 -37.5v-827q0 -137 -42 -238.5t-112.5 -169 t-165 -100.5t-200.5 -33q-127 0 -225.5 36t-164 100.5t-99.5 153.5t-34 198zM401 1766.5q5 13.5 21 13.5h119q23 0 34 -11.5t23 -31.5l109 -176q10 -14 0.5 -28.5t-25.5 -14.5h-39q-23 0 -36 10t-29 26l-172 189q-10 10 -5 23.5z" />
<glyph unicode="&#xda;" horiz-adv-x="1337" d="M147 461v880q0 23 14.5 37.5t37.5 14.5h53q23 0 37 -14.5t14 -37.5v-856q0 -96 27.5 -165.5t76 -114.5t116 -67.5t147.5 -22.5q72 0 138 22.5t116.5 71.5t80 125t29.5 182v825q0 23 14.5 37.5t36.5 14.5h54q23 0 37 -14.5t14 -37.5v-827q0 -137 -42 -238.5t-112.5 -169 t-165 -100.5t-200.5 -33q-127 0 -225.5 36t-164 100.5t-99.5 153.5t-34 198zM636.5 1532q-9.5 14 0.5 29l108 176q12 20 23.5 31.5t34.5 11.5h119q16 0 21 -13.5t-5 -23.5l-172 -189q-16 -16 -29.5 -26t-36.5 -10h-38q-16 0 -25.5 14z" />
<glyph unicode="&#xdb;" horiz-adv-x="1337" d="M147 461v880q0 23 14.5 37.5t37.5 14.5h53q23 0 37 -14.5t14 -37.5v-856q0 -96 27.5 -165.5t76 -114.5t116 -67.5t147.5 -22.5q72 0 138 22.5t116.5 71.5t80 125t29.5 182v825q0 23 14.5 37.5t36.5 14.5h54q23 0 37 -14.5t14 -37.5v-827q0 -137 -42 -238.5t-112.5 -169 t-165 -100.5t-200.5 -33q-127 0 -225.5 36t-164 100.5t-99.5 153.5t-34 198zM450.5 1532q-8.5 14 2.5 29l127 176q14 18 27.5 30.5t35.5 12.5h96q23 0 39.5 -11.5t30.5 -31.5l125 -176q10 -14 3 -28.5t-24 -14.5h-63q-23 0 -37 11t-29 30l-92 131l-92 -129 q-14 -18 -26.5 -30.5t-34.5 -12.5h-64q-16 0 -24.5 14z" />
<glyph unicode="&#xdc;" horiz-adv-x="1337" d="M147 461v880q0 23 14.5 37.5t37.5 14.5h53q23 0 37 -14.5t14 -37.5v-856q0 -96 27.5 -165.5t76 -114.5t116 -67.5t147.5 -22.5q72 0 138 22.5t116.5 71.5t80 125t29.5 182v825q0 23 14.5 37.5t36.5 14.5h54q23 0 37 -14.5t14 -37.5v-827q0 -137 -42 -238.5t-112.5 -169 t-165 -100.5t-200.5 -33q-127 0 -225.5 36t-164 100.5t-99.5 153.5t-34 198zM371 1632q0 43 29.5 73t72.5 30t74 -30t31 -73t-31 -73.5t-74 -30.5t-72.5 30.5t-29.5 73.5zM752 1632q0 43 29.5 73t72.5 30t73.5 -30t30.5 -73t-30.5 -73.5t-73.5 -30.5t-72.5 30.5t-29.5 73.5z " />
<glyph unicode="&#xdd;" horiz-adv-x="1097" d="M22 1378.5q9 14.5 25 14.5h94q23 0 44.5 -12.5t31.5 -32.5l342 -641l336 641q10 20 31.5 32.5t44.5 12.5h82q16 0 25 -14.5t-1 -30.5l-446 -779v-518q0 -23 -14.5 -37t-36.5 -14h-52q-23 0 -37 14.5t-14 36.5v518l-454 779q-10 16 -1 30.5zM519.5 1532q-9.5 14 0.5 29 l109 176q12 20 23.5 31.5t33.5 11.5h119q16 0 21 -13.5t-5 -23.5l-172 -189q-16 -16 -29.5 -26t-35.5 -10h-39q-16 0 -25.5 14z" />
<glyph unicode="&#xde;" horiz-adv-x="1060" d="M160 51v1290q0 23 14 37.5t37 14.5h53q23 0 37 -14.5t14 -37.5v-206h199q106 0 194.5 -24t151 -74t97 -128t34.5 -186q0 -111 -41 -192.5t-108.5 -134t-154.5 -78t-179 -25.5h-193v-242q0 -23 -14 -37t-37 -14h-53q-23 0 -37 14.5t-14 36.5zM315 426h179q68 0 128 14.5 t106 48t73.5 90t27.5 142.5q0 82 -23.5 136t-66.5 86t-102 44t-129 12h-193v-573z" />
<glyph unicode="&#xdf;" horiz-adv-x="1101" d="M141 51v922q0 86 21.5 171t72 151.5t131 108.5t199.5 42q70 0 139.5 -19.5t124 -60.5t88 -106.5t33.5 -157.5q0 -145 -66.5 -226t-166.5 -116v-4q51 -10 104 -32t96.5 -62.5t70 -102t26.5 -151.5t-32 -166t-88 -132.5t-136 -88t-176 -31.5q-18 0 -38 1t-38 3 q-23 4 -37 13t-14 32v35q0 23 15 36t36 9q14 -2 30.5 -3t34.5 -1q43 0 94.5 13t94.5 47t71.5 91.5t28.5 147.5q0 70 -23.5 120t-65.5 82.5t-98.5 49t-121.5 16.5q-31 0 -41 18.5t-10 28.5v37q0 10 13 30.5t50 20.5q51 0 95 18.5t77 52.5t52.5 84t19.5 115q0 115 -74 174.5 t-180 59.5q-80 0 -132 -33t-81 -83t-40 -113.5t-11 -124.5v-916q0 -23 -14.5 -37t-36.5 -14h-45q-23 0 -37.5 14.5t-14.5 36.5z" />
<glyph unicode="&#xe0;" horiz-adv-x="1060" d="M88 254q0 86 34 144.5t93 95t143 53t183 20.5l221 8v74q0 45 -11.5 85t-39 68.5t-74.5 45t-121 16.5q-111 0 -165 -35.5t-75 -97.5q-8 -23 -20 -36t-35 -13h-57q-20 0 -31.5 15.5t-7.5 35.5q35 135 135 195.5t258 60.5q197 0 295 -84t98 -239v-478q0 -33 2 -67.5t7 -69.5 q2 -20 -11.5 -35.5t-36.5 -15.5h-59q-23 0 -37 14.5t-14 36.5v76h-4q-25 -45 -63 -74.5t-82 -47t-90 -25t-89 -7.5q-86 0 -150.5 22.5t-107.5 60.5t-65.5 89.5t-22.5 108.5zM248 262q0 -82 57 -124t162 -42q49 0 101.5 14.5t95.5 43t70.5 74.5t27.5 108v125l-168 -6 q-82 -4 -146.5 -13.5t-108.5 -31t-67.5 -57.5t-23.5 -91zM296 1418.5q5 13.5 21 13.5h119q23 0 34 -11.5t24 -31.5l108 -177q10 -14 1 -28.5t-25 -14.5h-39q-23 0 -36.5 10.5t-29.5 26.5l-172 189q-10 10 -5 23.5z" />
<glyph unicode="&#xe1;" horiz-adv-x="1060" d="M88 254q0 86 34 144.5t93 95t143 53t183 20.5l221 8v74q0 45 -11.5 85t-39 68.5t-74.5 45t-121 16.5q-111 0 -165 -35.5t-75 -97.5q-8 -23 -20 -36t-35 -13h-57q-20 0 -31.5 15.5t-7.5 35.5q35 135 135 195.5t258 60.5q197 0 295 -84t98 -239v-478q0 -33 2 -67.5t7 -69.5 q2 -20 -11.5 -35.5t-36.5 -15.5h-59q-23 0 -37 14.5t-14 36.5v76h-4q-25 -45 -63 -74.5t-82 -47t-90 -25t-89 -7.5q-86 0 -150.5 22.5t-107.5 60.5t-65.5 89.5t-22.5 108.5zM248 262q0 -82 57 -124t162 -42q49 0 101.5 14.5t95.5 43t70.5 74.5t27.5 108v125l-168 -6 q-82 -4 -146.5 -13.5t-108.5 -31t-67.5 -57.5t-23.5 -91zM462 1183.5q-9 14.5 1 28.5l108 177q12 20 23.5 31.5t34.5 11.5h119q16 0 21 -13.5t-5 -23.5l-172 -189q-16 -16 -29.5 -26.5t-36.5 -10.5h-39q-16 0 -25 14.5z" />
<glyph unicode="&#xe2;" horiz-adv-x="1060" d="M88 254q0 86 34 144.5t93 95t143 53t183 20.5l221 8v74q0 45 -11.5 85t-39 68.5t-74.5 45t-121 16.5q-111 0 -165 -35.5t-75 -97.5q-8 -23 -20 -36t-35 -13h-57q-20 0 -31.5 15.5t-7.5 35.5q35 135 135 195.5t258 60.5q197 0 295 -84t98 -239v-478q0 -33 2 -67.5t7 -69.5 q2 -20 -11.5 -35.5t-36.5 -15.5h-59q-23 0 -37 14.5t-14 36.5v76h-4q-25 -45 -63 -74.5t-82 -47t-90 -25t-89 -7.5q-86 0 -150.5 22.5t-107.5 60.5t-65.5 89.5t-22.5 108.5zM248 262q0 -82 57 -124t162 -42q49 0 101.5 14.5t95.5 43t70.5 74.5t27.5 108v125l-168 -6 q-82 -4 -146.5 -13.5t-108.5 -31t-67.5 -57.5t-23.5 -91zM301.5 1183.5q-8.5 14.5 1.5 28.5l127 177q14 18 27.5 30.5t36.5 12.5h96q23 0 39 -11.5t30 -31.5l125 -177q10 -14 3 -28.5t-23 -14.5h-64q-23 0 -37 11.5t-28 29.5l-92 131l-92 -129q-14 -18 -26.5 -30.5 t-35.5 -12.5h-63q-16 0 -24.5 14.5z" />
<glyph unicode="&#xe3;" horiz-adv-x="1060" d="M88 254q0 86 34 144.5t93 95t143 53t183 20.5l221 8v74q0 45 -11.5 85t-39 68.5t-74.5 45t-121 16.5q-111 0 -165 -35.5t-75 -97.5q-8 -23 -20 -36t-35 -13h-57q-20 0 -31.5 15.5t-7.5 35.5q35 135 135 195.5t258 60.5q197 0 295 -84t98 -239v-478q0 -33 2 -67.5t7 -69.5 q2 -20 -11.5 -35.5t-36.5 -15.5h-59q-23 0 -37 14.5t-14 36.5v76h-4q-25 -45 -63 -74.5t-82 -47t-90 -25t-89 -7.5q-86 0 -150.5 22.5t-107.5 60.5t-65.5 89.5t-22.5 108.5zM241 1198q-3 14 1 31q16 72 60 114.5t124 42.5q39 0 74 -9t67 -21q33 -12 62.5 -25.5t56.5 -13.5 q29 0 44 12t26 29q10 20 16 31.5t29 11.5h28q16 0 22.5 -14.5t2.5 -30.5q-16 -76 -61 -117t-123 -41q-39 0 -74 9.5t-70 21.5q-31 14 -60.5 26.5t-55.5 12.5q-29 0 -44.5 -12.5t-25.5 -28.5q-10 -20 -16.5 -31.5t-28.5 -11.5h-35q-16 0 -19 14zM248 262q0 -82 57 -124 t162 -42q49 0 101.5 14.5t95.5 43t70.5 74.5t27.5 108v125l-168 -6q-82 -4 -146.5 -13.5t-108.5 -31t-67.5 -57.5t-23.5 -91z" />
<glyph unicode="&#xe4;" horiz-adv-x="1060" d="M88 254q0 86 34 144.5t93 95t143 53t183 20.5l221 8v74q0 45 -11.5 85t-39 68.5t-74.5 45t-121 16.5q-111 0 -165 -35.5t-75 -97.5q-8 -23 -20 -36t-35 -13h-57q-20 0 -31.5 15.5t-7.5 35.5q35 135 135 195.5t258 60.5q197 0 295 -84t98 -239v-478q0 -33 2 -67.5t7 -69.5 q2 -20 -11.5 -35.5t-36.5 -15.5h-59q-23 0 -37 14.5t-14 36.5v76h-4q-25 -45 -63 -74.5t-82 -47t-90 -25t-89 -7.5q-86 0 -150.5 22.5t-107.5 60.5t-65.5 89.5t-22.5 108.5zM246 1284q0 43 29.5 72.5t72.5 29.5t74 -29.5t31 -72.5t-31 -73.5t-74 -30.5t-72.5 30.5 t-29.5 73.5zM248 262q0 -82 57 -124t162 -42q49 0 101.5 14.5t95.5 43t70.5 74.5t27.5 108v125l-168 -6q-82 -4 -146.5 -13.5t-108.5 -31t-67.5 -57.5t-23.5 -91zM627 1284q0 43 29.5 72.5t72.5 29.5t74 -29.5t31 -72.5t-31 -73.5t-74 -30.5t-72.5 30.5t-29.5 73.5z" />
<glyph unicode="&#xe5;" horiz-adv-x="1060" d="M88 254q0 86 34 144.5t93 95t143 53t183 20.5l221 8v74q0 45 -11.5 85t-39 68.5t-74.5 45t-121 16.5q-111 0 -165 -35.5t-75 -97.5q-8 -23 -20 -36t-35 -13h-57q-20 0 -31.5 15.5t-7.5 35.5q35 135 135 195.5t258 60.5q197 0 295 -84t98 -239v-478q0 -33 2 -67.5t7 -69.5 q2 -20 -11.5 -35.5t-36.5 -15.5h-59q-23 0 -37 14.5t-14 36.5v76h-4q-25 -45 -63 -74.5t-82 -47t-90 -25t-89 -7.5q-86 0 -150.5 22.5t-107.5 60.5t-65.5 89.5t-22.5 108.5zM248 262q0 -82 57 -124t162 -42q49 0 101.5 14.5t95.5 43t70.5 74.5t27.5 108v125l-168 -6 q-82 -4 -146.5 -13.5t-108.5 -31t-67.5 -57.5t-23.5 -91zM342 1327q0 39 15.5 74t41 60.5t59.5 41t72 15.5q39 0 74 -15.5t60.5 -41t41 -60.5t15.5 -74t-15.5 -72.5t-41 -59.5t-60.5 -41t-74 -15t-73.5 14t-60 40t-40 60.5t-14.5 73.5zM416 1327q0 -47 33.5 -81t80.5 -34 t81 34t34 81t-33.5 81t-81.5 34q-47 0 -80.5 -34t-33.5 -81z" />
<glyph unicode="&#xe6;" horiz-adv-x="1712" d="M88 254q0 86 34 146.5t93 97.5t143 54t183 17h190v74q0 45 -11 86t-36 70.5t-65.5 47t-102.5 17.5q-111 0 -165 -35.5t-75 -97.5q-8 -23 -21 -36t-36 -13h-55q-20 0 -31.5 15.5t-7.5 35.5q35 135 135 195.5t258 60.5q72 0 123 -11t88 -34.5t61.5 -57.5t43.5 -77 q59 86 146 133t212 47q96 0 176 -28.5t136.5 -88t87 -149.5t30.5 -213q0 -33 -11.5 -43t-37.5 -10h-696q0 -76 20.5 -139.5t60 -110.5t98 -74t134.5 -27q104 0 163.5 37t94.5 84q14 20 28.5 28.5t36.5 0.5l52 -18q18 -6 24 -27t-4 -37q-63 -98 -161.5 -149.5t-243.5 -51.5 t-227.5 55.5t-133.5 139.5h-12q-51 -92 -140 -143.5t-233 -51.5q-86 0 -150.5 22.5t-107.5 60.5t-65.5 89.5t-22.5 108.5zM248 262q0 -82 57 -124t162 -42q49 0 96 13.5t85 41t60.5 72.5t22.5 107v127h-137q-82 0 -146.5 -7.5t-108.5 -29t-67.5 -59.5t-23.5 -99zM879 569 h585q0 59 -16 112.5t-50 93.5t-86 62.5t-122 22.5q-86 0 -143.5 -26.5t-93 -69.5t-52 -94.5t-22.5 -100.5z" />
<glyph unicode="&#xe7;" horiz-adv-x="1056" d="M96 461q0 125 39 223t106.5 166t156.5 103.5t190 35.5q141 0 237.5 -52t139.5 -146q10 -18 0.5 -38t-29.5 -24l-62 -16q-23 -6 -35 4t-24 31q-31 47 -84 76.5t-145 29.5q-80 0 -140.5 -30.5t-102.5 -83t-63.5 -125t-21.5 -154.5q0 -66 17.5 -129.5t57.5 -112.5 t101.5 -79.5t151.5 -30.5q92 0 146 32.5t85 81.5q12 18 25.5 28.5t36.5 4.5l63 -20q20 -6 27.5 -24.5t-2.5 -35.5q-23 -39 -56.5 -74.5t-81 -64.5t-109 -46.5t-136.5 -17.5h-9l-43 -79l3 -3q8 2 21 2.5t22 0.5q33 0 63.5 -8.5t55 -26t40 -46t15.5 -67.5q0 -55 -21.5 -92 t-55.5 -58.5t-76 -30.5t-85 -9q-27 0 -60.5 3t-64.5 9q-14 4 -24.5 12t-6.5 25l7 24q6 25 41 21q45 -6 88 -6q23 0 47 4t43.5 13t32 26.5t12.5 46.5q0 49 -38 65.5t-83 16.5q-41 0 -66 -6q-16 -4 -24 6l-6 10q-8 10 0 24l80 130q-96 14 -170 57t-124.5 106.5t-76 144.5 t-25.5 173z" />
<glyph unicode="&#xe8;" horiz-adv-x="1118" d="M90 465q0 115 35 211t99.5 165.5t155.5 108.5t204 39q96 0 178 -28.5t141.5 -88t92 -149.5t32.5 -213q0 -37 -17.5 -50.5t-39.5 -13.5h-719q0 -154 88 -247t242 -93q104 0 169.5 38t102.5 85q14 18 28.5 25.5t37.5 -0.5l51 -16q18 -6 24 -27t-6 -37 q-63 -98 -167.5 -149.5t-250.5 -51.5q-127 0 -218 43t-149.5 112t-86 157t-27.5 180zM254 569h616q0 59 -18 112.5t-55 93.5t-91.5 62.5t-123.5 22.5q-86 0 -146.5 -26.5t-98.5 -69.5t-57.5 -94.5t-25.5 -100.5zM343 1418.5q5 13.5 22 13.5h118q23 0 34 -11.5t24 -31.5 l108 -177q10 -14 1 -28.5t-25 -14.5h-39q-23 0 -36 10.5t-30 26.5l-172 189q-10 10 -5 23.5z" />
<glyph unicode="&#xe9;" horiz-adv-x="1118" d="M90 465q0 115 35 211t99.5 165.5t155.5 108.5t204 39q96 0 178 -28.5t141.5 -88t92 -149.5t32.5 -213q0 -37 -17.5 -50.5t-39.5 -13.5h-719q0 -154 88 -247t242 -93q104 0 169.5 38t102.5 85q14 18 28.5 25.5t37.5 -0.5l51 -16q18 -6 24 -27t-6 -37 q-63 -98 -167.5 -149.5t-250.5 -51.5q-127 0 -218 43t-149.5 112t-86 157t-27.5 180zM254 569h616q0 59 -18 112.5t-55 93.5t-91.5 62.5t-123.5 22.5q-86 0 -146.5 -26.5t-98.5 -69.5t-57.5 -94.5t-25.5 -100.5zM527.5 1183.5q-9.5 14.5 0.5 28.5l109 177q12 20 23.5 31.5 t33.5 11.5h119q16 0 21.5 -13.5t-5.5 -23.5l-172 -189q-16 -16 -29.5 -26.5t-35.5 -10.5h-39q-16 0 -25.5 14.5z" />
<glyph unicode="&#xea;" horiz-adv-x="1118" d="M90 465q0 115 35 211t99.5 165.5t155.5 108.5t204 39q96 0 178 -28.5t141.5 -88t92 -149.5t32.5 -213q0 -37 -17.5 -50.5t-39.5 -13.5h-719q0 -154 88 -247t242 -93q104 0 169.5 38t102.5 85q14 18 28.5 25.5t37.5 -0.5l51 -16q18 -6 24 -27t-6 -37 q-63 -98 -167.5 -149.5t-250.5 -51.5q-127 0 -218 43t-149.5 112t-86 157t-27.5 180zM254 569h616q0 59 -18 112.5t-55 93.5t-91.5 62.5t-123.5 22.5q-86 0 -146.5 -26.5t-98.5 -69.5t-57.5 -94.5t-25.5 -100.5zM342.5 1183.5q-8.5 14.5 1.5 28.5l127 177q14 18 27.5 30.5 t36.5 12.5h96q23 0 39 -11.5t30 -31.5l125 -177q10 -14 3 -28.5t-23 -14.5h-64q-23 0 -37 11.5t-28 29.5l-92 131l-92 -129q-14 -18 -26.5 -30.5t-35.5 -12.5h-63q-16 0 -24.5 14.5z" />
<glyph unicode="&#xeb;" horiz-adv-x="1118" d="M90 465q0 115 35 211t99.5 165.5t155.5 108.5t204 39q96 0 178 -28.5t141.5 -88t92 -149.5t32.5 -213q0 -37 -17.5 -50.5t-39.5 -13.5h-719q0 -154 88 -247t242 -93q104 0 169.5 38t102.5 85q14 18 28.5 25.5t37.5 -0.5l51 -16q18 -6 24 -27t-6 -37 q-63 -98 -167.5 -149.5t-250.5 -51.5q-127 0 -218 43t-149.5 112t-86 157t-27.5 180zM254 569h616q0 59 -18 112.5t-55 93.5t-91.5 62.5t-123.5 22.5q-86 0 -146.5 -26.5t-98.5 -69.5t-57.5 -94.5t-25.5 -100.5zM297 1284q0 43 29.5 72.5t72.5 29.5t74 -29.5t31 -72.5 t-31 -73.5t-74 -30.5t-72.5 30.5t-29.5 73.5zM678 1284q0 43 29.5 72.5t72.5 29.5t74 -29.5t31 -72.5t-31 -73.5t-74 -30.5t-72.5 30.5t-29.5 73.5z" />
<glyph unicode="&#xec;" horiz-adv-x="464" d="M-30 1418.5q5 13.5 22 13.5h119q23 0 34 -11.5t23 -31.5l108 -177q10 -14 1 -28.5t-25 -14.5h-39q-23 0 -36 10.5t-30 26.5l-172 189q-10 10 -5 23.5zM156 51v860q0 23 14 37.5t37 14.5h49q23 0 37 -14.5t14 -37.5v-860q0 -23 -14 -37t-37 -14h-49q-23 0 -37 14.5 t-14 36.5z" />
<glyph unicode="&#xed;" horiz-adv-x="464" d="M156 51v860q0 23 14 37.5t37 14.5h49q23 0 37 -14.5t14 -37.5v-860q0 -23 -14 -37t-37 -14h-49q-23 0 -37 14.5t-14 36.5zM199.5 1183.5q-9.5 14.5 1.5 28.5l108 177q12 20 23.5 31.5t34.5 11.5h118q16 0 21.5 -13.5t-4.5 -23.5l-172 -189q-16 -16 -29.5 -26.5 t-36.5 -10.5h-39q-16 0 -25.5 14.5z" />
<glyph unicode="&#xee;" horiz-adv-x="464" d="M-16.5 1183.5q-8.5 14.5 2.5 28.5l127 177q14 18 27.5 30.5t35.5 12.5h96q23 0 39.5 -11.5t30.5 -31.5l125 -177q10 -14 3 -28.5t-24 -14.5h-63q-23 0 -37 11.5t-29 29.5l-92 131l-92 -129q-14 -18 -26.5 -30.5t-34.5 -12.5h-64q-16 0 -24.5 14.5zM156 51v860 q0 23 14 37.5t37 14.5h49q23 0 37 -14.5t14 -37.5v-860q0 -23 -14 -37t-37 -14h-49q-23 0 -37 14.5t-14 36.5z" />
<glyph unicode="&#xef;" horiz-adv-x="464" d="M-31 1284q0 43 30 72.5t73 29.5t73.5 -29.5t30.5 -72.5t-30.5 -73.5t-73.5 -30.5t-73 30.5t-30 73.5zM156 51v860q0 23 14 37.5t37 14.5h49q23 0 37 -14.5t14 -37.5v-860q0 -23 -14 -37t-37 -14h-49q-23 0 -37 14.5t-14 36.5zM289 1284q0 43 29.5 72.5t72.5 29.5 t74 -29.5t31 -72.5t-31 -73.5t-74 -30.5t-72.5 30.5t-29.5 73.5z" />
<glyph unicode="&#xf0;" horiz-adv-x="1183" d="M96 481q0 94 32 186.5t95.5 163t156.5 114.5t214 44q186 0 303 -151h4q-47 135 -116.5 226t-155.5 169l-180 -96q-18 -10 -33 -13.5t-31 11.5l-16 14q-12 10 -11.5 27.5t17.5 25.5l176 94q-78 57 -172 105q-16 8 -18.5 25.5t12.5 27.5l35 29q18 16 35.5 14t39.5 -12 q53 -25 100.5 -54.5t92.5 -64.5l176 98q18 10 34.5 14.5t33.5 -12.5l14 -14q14 -14 11 -31.5t-19 -27.5l-172 -93q162 -143 247.5 -341.5t85.5 -444.5q0 -109 -28.5 -207t-89 -172t-153.5 -118t-222 -44q-131 0 -225.5 43t-154.5 115t-89 163t-29 187zM258 481 q0 -82 23.5 -150.5t66.5 -117.5t105.5 -76.5t140.5 -27.5q76 0 137.5 27.5t104.5 76.5t66.5 117.5t23.5 150.5q0 80 -23.5 148.5t-66.5 118t-104.5 77t-137.5 27.5q-78 0 -140.5 -27.5t-105.5 -77t-66.5 -118t-23.5 -148.5z" />
<glyph unicode="&#xf1;" horiz-adv-x="1101" d="M141 51v860q0 23 14.5 37.5t37.5 14.5h49q23 0 37 -14.5t14 -37.5v-114h2q49 92 136 135t192 43q43 0 102 -13.5t112.5 -50.5t91.5 -100t38 -164v-596q0 -23 -14.5 -37t-37.5 -14h-49q-23 0 -37 14.5t-14 36.5v529q0 76 -21.5 126t-55 80.5t-75.5 43t-81 12.5 q-53 0 -104.5 -20.5t-92.5 -59.5t-66.5 -96.5t-25.5 -130.5v-484q0 -23 -14.5 -37t-36.5 -14h-49q-23 0 -37.5 14.5t-14.5 36.5zM255 1198q-3 14 1 31q16 72 60 114.5t124 42.5q39 0 74 -9t68 -21t62.5 -25.5t55.5 -13.5q29 0 44.5 12t25.5 29q10 20 16.5 31.5t28.5 11.5h29 q16 0 22 -14.5t2 -30.5q-16 -76 -61 -117t-123 -41q-39 0 -74 9.5t-69 21.5q-31 14 -60.5 26.5t-56.5 12.5q-29 0 -44 -12.5t-26 -28.5q-10 -20 -16 -31.5t-29 -11.5h-35q-16 0 -19 14z" />
<glyph unicode="&#xf2;" horiz-adv-x="1185" d="M96 481q0 94 32 186.5t95.5 163t155.5 114.5t213 44q131 0 225 -44t154.5 -114.5t89.5 -163t29 -186.5q0 -96 -33 -187t-95.5 -163t-155.5 -115t-214 -43q-129 0 -223.5 43t-154.5 115t-89 163t-29 187zM258 481q0 -82 23.5 -150.5t66.5 -117.5t104.5 -76.5t139.5 -27.5 t140.5 27.5t105.5 76.5t66.5 117.5t23.5 150.5q0 80 -23.5 148.5t-66.5 118t-105.5 77t-140.5 27.5t-139.5 -27.5t-104.5 -77t-66.5 -118t-23.5 -148.5zM353 1418.5q5 13.5 22 13.5h119q23 0 34 -11.5t23 -31.5l108 -177q10 -14 1 -28.5t-25 -14.5h-39q-23 0 -36 10.5 t-30 26.5l-172 189q-10 10 -5 23.5z" />
<glyph unicode="&#xf3;" horiz-adv-x="1185" d="M96 481q0 94 32 186.5t95.5 163t155.5 114.5t213 44q131 0 225 -44t154.5 -114.5t89.5 -163t29 -186.5q0 -96 -33 -187t-95.5 -163t-155.5 -115t-214 -43q-129 0 -223.5 43t-154.5 115t-89 163t-29 187zM258 481q0 -82 23.5 -150.5t66.5 -117.5t104.5 -76.5t139.5 -27.5 t140.5 27.5t105.5 76.5t66.5 117.5t23.5 150.5q0 80 -23.5 148.5t-66.5 118t-105.5 77t-140.5 27.5t-139.5 -27.5t-104.5 -77t-66.5 -118t-23.5 -148.5zM568.5 1183.5q-9.5 14.5 0.5 28.5l109 177q12 20 23.5 31.5t33.5 11.5h119q16 0 21.5 -13.5t-5.5 -23.5l-172 -189 q-16 -16 -29.5 -26.5t-35.5 -10.5h-39q-16 0 -25.5 14.5z" />
<glyph unicode="&#xf4;" horiz-adv-x="1185" d="M96 481q0 94 32 186.5t95.5 163t155.5 114.5t213 44q131 0 225 -44t154.5 -114.5t89.5 -163t29 -186.5q0 -96 -33 -187t-95.5 -163t-155.5 -115t-214 -43q-129 0 -223.5 43t-154.5 115t-89 163t-29 187zM258 481q0 -82 23.5 -150.5t66.5 -117.5t104.5 -76.5t139.5 -27.5 t140.5 27.5t105.5 76.5t66.5 117.5t23.5 150.5q0 80 -23.5 148.5t-66.5 118t-105.5 77t-140.5 27.5t-139.5 -27.5t-104.5 -77t-66.5 -118t-23.5 -148.5zM364.5 1183.5q-8.5 14.5 2.5 28.5l127 177q14 18 27.5 30.5t35.5 12.5h96q23 0 39.5 -11.5t30.5 -31.5l125 -177 q10 -14 3 -28.5t-24 -14.5h-63q-23 0 -37 11.5t-29 29.5l-92 131l-92 -129q-14 -18 -26.5 -30.5t-34.5 -12.5h-64q-16 0 -24.5 14.5z" />
<glyph unicode="&#xf5;" horiz-adv-x="1185" d="M96 481q0 94 32 186.5t95.5 163t155.5 114.5t213 44q131 0 225 -44t154.5 -114.5t89.5 -163t29 -186.5q0 -96 -33 -187t-95.5 -163t-155.5 -115t-214 -43q-129 0 -223.5 43t-154.5 115t-89 163t-29 187zM258 481q0 -82 23.5 -150.5t66.5 -117.5t104.5 -76.5t139.5 -27.5 t140.5 27.5t105.5 76.5t66.5 117.5t23.5 150.5q0 80 -23.5 148.5t-66.5 118t-105.5 77t-140.5 27.5t-139.5 -27.5t-104.5 -77t-66.5 -118t-23.5 -148.5zM304.5 1198q-3.5 14 0.5 31q16 72 60.5 114.5t123.5 42.5q39 0 74 -9t68 -21t62.5 -25.5t56.5 -13.5q29 0 44 12t25 29 q10 20 16.5 31.5t28.5 11.5h29q16 0 22.5 -14.5t2.5 -30.5q-16 -76 -61.5 -117t-123.5 -41q-39 0 -73.5 9.5t-69.5 21.5q-31 14 -60.5 26.5t-56.5 12.5q-29 0 -44 -12.5t-26 -28.5q-10 -20 -16 -31.5t-29 -11.5h-34q-16 0 -19.5 14z" />
<glyph unicode="&#xf6;" horiz-adv-x="1185" d="M96 481q0 94 32 186.5t95.5 163t155.5 114.5t213 44q131 0 225 -44t154.5 -114.5t89.5 -163t29 -186.5q0 -96 -33 -187t-95.5 -163t-155.5 -115t-214 -43q-129 0 -223.5 43t-154.5 115t-89 163t-29 187zM258 481q0 -82 23.5 -150.5t66.5 -117.5t104.5 -76.5t139.5 -27.5 t140.5 27.5t105.5 76.5t66.5 117.5t23.5 150.5q0 80 -23.5 148.5t-66.5 118t-105.5 77t-140.5 27.5t-139.5 -27.5t-104.5 -77t-66.5 -118t-23.5 -148.5zM313 1284q0 43 30 72.5t73 29.5t73.5 -29.5t30.5 -72.5t-30.5 -73.5t-73.5 -30.5t-73 30.5t-30 73.5zM694 1284 q0 43 30 72.5t73 29.5t73.5 -29.5t30.5 -72.5t-30.5 -73.5t-73.5 -30.5t-73 30.5t-30 73.5z" />
<glyph unicode="&#xf7;" d="M66 494v18q0 23 14 37t37 14h741q23 0 37 -14t14 -37v-18q0 -23 -14 -37.5t-37 -14.5h-741q-23 0 -37 14.5t-14 37.5zM387 225q0 41 28.5 71t71.5 30t71 -30t28 -71t-28 -70.5t-71 -29.5t-71.5 29.5t-28.5 70.5zM387 782q0 41 28.5 70t71.5 29t71 -29t28 -70t-28 -71.5 t-71 -30.5t-71.5 30.5t-28.5 71.5z" />
<glyph unicode="&#xf8;" horiz-adv-x="1185" d="M78 39.5q4 13.5 16 23.5l101 97q-49 68 -73 151.5t-24 169.5q0 94 32 186.5t95.5 163t156.5 114.5t214 44q111 0 196 -32.5t146 -86.5l92 91q29 29 51 8l19 -19q23 -23 -6 -51l-99 -98q47 -68 71 -151t24 -169q0 -96 -32 -187t-95.5 -163t-155.5 -115t-211 -43 q-117 0 -201 33t-141 88l-96 -92q-12 -12 -26.5 -17t-25.5 7l-20 22q-12 12 -8 25.5zM260 481q0 -125 49 -211l516 492q-84 90 -229 90q-78 0 -140.5 -27.5t-105.5 -77t-66.5 -118t-23.5 -148.5zM362 199q90 -90 234 -90q76 0 137.5 27.5t104.5 76.5t66.5 117.5t23.5 150.5 q0 123 -49 209z" />
<glyph unicode="&#xf9;" horiz-adv-x="1101" d="M135 315v596q0 23 14.5 37.5t36.5 14.5h47q23 0 37.5 -14.5t14.5 -37.5v-530q0 -76 21.5 -126t55 -81t74.5 -43t82 -12q51 0 104.5 20.5t94.5 59.5t67.5 96t26.5 133v483q0 23 14.5 37.5t36.5 14.5h47q23 0 37.5 -14.5t14.5 -37.5v-860q0 -23 -14.5 -37t-37.5 -14h-47 q-23 0 -37 14.5t-14 36.5v113h-4q-49 -92 -137 -135t-193 -43q-43 0 -101.5 13t-112.5 50t-91 100.5t-37 165.5zM292 1418.5q5 13.5 21 13.5h119q23 0 34 -11.5t23 -31.5l109 -177q10 -14 1 -28.5t-26 -14.5h-38q-23 0 -36.5 10.5t-29.5 26.5l-172 189q-10 10 -5 23.5z" />
<glyph unicode="&#xfa;" horiz-adv-x="1101" d="M135 315v596q0 23 14.5 37.5t36.5 14.5h47q23 0 37.5 -14.5t14.5 -37.5v-530q0 -76 21.5 -126t55 -81t74.5 -43t82 -12q51 0 104.5 20.5t94.5 59.5t67.5 96t26.5 133v483q0 23 14.5 37.5t36.5 14.5h47q23 0 37.5 -14.5t14.5 -37.5v-860q0 -23 -14.5 -37t-37.5 -14h-47 q-23 0 -37 14.5t-14 36.5v113h-4q-49 -92 -137 -135t-193 -43q-43 0 -101.5 13t-112.5 50t-91 100.5t-37 165.5zM501 1183.5q-9 14.5 1 28.5l108 177q12 20 23.5 31.5t34.5 11.5h118q16 0 21.5 -13.5t-4.5 -23.5l-172 -189q-16 -16 -29.5 -26.5t-36.5 -10.5h-39 q-16 0 -25 14.5z" />
<glyph unicode="&#xfb;" horiz-adv-x="1101" d="M135 315v596q0 23 14.5 37.5t36.5 14.5h47q23 0 37.5 -14.5t14.5 -37.5v-530q0 -76 21.5 -126t55 -81t74.5 -43t82 -12q51 0 104.5 20.5t94.5 59.5t67.5 96t26.5 133v483q0 23 14.5 37.5t36.5 14.5h47q23 0 37.5 -14.5t14.5 -37.5v-860q0 -23 -14.5 -37t-37.5 -14h-47 q-23 0 -37 14.5t-14 36.5v113h-4q-49 -92 -137 -135t-193 -43q-43 0 -101.5 13t-112.5 50t-91 100.5t-37 165.5zM305.5 1183.5q-8.5 14.5 1.5 28.5l127 177q14 18 27.5 30.5t36.5 12.5h96q23 0 39 -11.5t31 -31.5l124 -177q10 -14 3 -28.5t-23 -14.5h-63q-23 0 -37.5 11.5 t-28.5 29.5l-92 131l-92 -129q-14 -18 -26.5 -30.5t-35.5 -12.5h-63q-16 0 -24.5 14.5z" />
<glyph unicode="&#xfc;" horiz-adv-x="1101" d="M135 315v596q0 23 14.5 37.5t36.5 14.5h47q23 0 37.5 -14.5t14.5 -37.5v-530q0 -76 21.5 -126t55 -81t74.5 -43t82 -12q51 0 104.5 20.5t94.5 59.5t67.5 96t26.5 133v483q0 23 14.5 37.5t36.5 14.5h47q23 0 37.5 -14.5t14.5 -37.5v-860q0 -23 -14.5 -37t-37.5 -14h-47 q-23 0 -37 14.5t-14 36.5v113h-4q-49 -92 -137 -135t-193 -43q-43 0 -101.5 13t-112.5 50t-91 100.5t-37 165.5zM268 1284q0 43 30 72.5t73 29.5t73.5 -29.5t30.5 -72.5t-30.5 -73.5t-73.5 -30.5t-73 30.5t-30 73.5zM649 1284q0 43 30 72.5t73 29.5t73.5 -29.5t30.5 -72.5 t-30.5 -73.5t-73.5 -30.5t-73 30.5t-30 73.5z" />
<glyph unicode="&#xfd;" horiz-adv-x="968" d="M37 915q-6 16 4 32t29 16h77q23 0 39.5 -13.5t24.5 -36.5l274 -733h4l279 733q8 23 23.5 36.5t37.5 13.5h70q18 0 28.5 -15.5t2.5 -32.5l-531 -1277q-20 -47 -63 -48h-70q-18 0 -28.5 15.5t-1.5 32.5l163 380zM443.5 1183.5q-9.5 14.5 0.5 28.5l109 177q12 20 23.5 31.5 t33.5 11.5h119q16 0 21.5 -13.5t-5.5 -23.5l-172 -189q-16 -16 -29.5 -26.5t-35.5 -10.5h-39q-16 0 -25.5 14.5z" />
<glyph unicode="&#xfe;" horiz-adv-x="1191" d="M141 -358v1753q0 23 14.5 37t37.5 14h49q23 0 37 -14.5t14 -36.5v-602h2q14 23 44 56.5t74 64t103 53t135 22.5q80 0 159 -29.5t142.5 -92t103.5 -159t40 -227.5q0 -113 -37 -206t-100.5 -160.5t-149.5 -104.5t-184 -37q-70 0 -124.5 17.5t-94 44t-67.5 58.5t-44 61h-2 v-512q0 -23 -14.5 -37.5t-36.5 -14.5h-49q-23 0 -37.5 14.5t-14.5 37.5zM293 471q0 -76 22.5 -141.5t65.5 -114.5t103.5 -77.5t136.5 -28.5t134 29.5t98 79.5t60.5 116.5t20.5 142.5q0 94 -23.5 166t-65.5 119t-99.5 70.5t-122.5 23.5q-59 0 -119 -24.5t-107 -72.5 t-75.5 -121t-28.5 -167z" />
<glyph unicode="&#xff;" horiz-adv-x="968" d="M37 915q-6 16 4 32t29 16h77q23 0 39.5 -13.5t24.5 -36.5l274 -733h4l279 733q8 23 23.5 36.5t37.5 13.5h70q18 0 28.5 -15.5t2.5 -32.5l-531 -1277q-20 -47 -63 -48h-70q-18 0 -28.5 15.5t-1.5 32.5l163 380zM195 1284q0 43 29.5 72.5t72.5 29.5t73.5 -29.5t30.5 -72.5 t-30.5 -73.5t-73.5 -30.5t-72.5 30.5t-29.5 73.5zM575 1284q0 43 30 72.5t73 29.5t73.5 -29.5t30.5 -72.5t-30.5 -73.5t-73.5 -30.5t-73 30.5t-30 73.5z" />
<glyph unicode="&#x152;" horiz-adv-x="1857" d="M70 696q0 199 53 336t138 223t189.5 124t208.5 38q100 0 171 -25.5t118 -61.5t75 -76t44 -68h4v155q0 23 14.5 37.5t36.5 14.5h586q23 0 37 -14.5t14 -37.5v-38q0 -23 -14 -37.5t-37 -14.5h-483v-467h403q23 0 37 -14t14 -37v-37q0 -23 -14 -37t-37 -14h-403v-504h504 q23 0 37 -14t14 -37v-39q0 -23 -14.5 -37t-36.5 -14h-607q-23 0 -37 14.5t-14 36.5v168h-4q-37 -68 -84 -115t-100.5 -76.5t-111 -42t-112.5 -12.5q-156 0 -267 60.5t-183 162t-105.5 231.5t-33.5 269zM236 719q0 -305 114 -454.5t309 -149.5q96 0 173 42t130.5 120.5 t81 190.5t27.5 251q0 268 -107.5 413.5t-306.5 145.5q-100 0 -178 -43t-132 -119t-82.5 -177t-28.5 -220z" />
<glyph unicode="&#x153;" horiz-adv-x="1835" d="M96 481q0 94 28 186.5t86 163t146 114.5t209 44q147 0 236.5 -61.5t138.5 -165.5q59 106 152.5 166.5t228.5 60.5q96 0 175 -28.5t134.5 -88t85 -149.5t29.5 -213q0 -37 -22.5 -50.5t-32.5 -13.5h-680q2 -154 81.5 -247t227.5 -93q102 0 160.5 37t91.5 84 q14 18 27.5 28.5t33.5 2.5l56 -20q18 -8 24 -28t-4 -36q-61 -98 -157.5 -149.5t-241.5 -51.5q-152 0 -244 65.5t-133 158.5q-47 -104 -139.5 -164t-227.5 -60q-129 0 -219 43t-145.5 115t-80 163t-24.5 187zM258 481q0 -82 20.5 -150.5t59.5 -117.5t97.5 -76.5t135.5 -27.5 q70 0 124.5 27.5t91 76.5t56 117.5t19.5 150.5q0 80 -19.5 148.5t-56 118t-91 77t-124.5 27.5q-78 0 -136 -27.5t-97 -77t-59.5 -118t-20.5 -148.5zM1012 569h575q0 59 -15.5 112.5t-48 93.5t-83.5 62.5t-121 22.5q-80 0 -135.5 -26.5t-91 -69.5t-55 -94.5t-25.5 -100.5z " />
<glyph unicode="&#x178;" horiz-adv-x="1097" d="M22 1378.5q9 14.5 25 14.5h94q23 0 44.5 -12.5t31.5 -32.5l342 -641l336 641q10 20 31.5 32.5t44.5 12.5h82q16 0 25 -14.5t-1 -30.5l-446 -779v-518q0 -23 -14.5 -37t-36.5 -14h-52q-23 0 -37 14.5t-14 36.5v518l-454 779q-10 16 -1 30.5zM266 1632q0 43 30 73t73 30 t73.5 -30t30.5 -73t-30.5 -73.5t-73.5 -30.5t-73 30.5t-30 73.5zM647 1632q0 43 30 73t73 30t73.5 -30t30.5 -73t-30.5 -73.5t-73.5 -30.5t-73 30.5t-30 73.5z" />
<glyph unicode="&#x2c6;" horiz-adv-x="452" d="M-18.5 1183.5q-8.5 14.5 2.5 28.5l127 177q14 18 27.5 30.5t35.5 12.5h96q23 0 39.5 -11.5t30.5 -31.5l125 -177q10 -14 3 -28.5t-24 -14.5h-63q-23 0 -37 11.5t-29 29.5l-92 131l-92 -129q-14 -18 -26.5 -30.5t-34.5 -12.5h-64q-16 0 -24.5 14.5z" />
<glyph unicode="&#x2dc;" horiz-adv-x="452" d="M-80.5 1198q-3.5 14 0.5 31q16 72 60.5 114.5t123.5 42.5q39 0 74 -9t68 -21t62.5 -25.5t56.5 -13.5q29 0 44 12t25 29q10 20 16.5 31.5t28.5 11.5h29q16 0 22.5 -14.5t1.5 -30.5q-16 -76 -61 -117t-123 -41q-39 0 -73.5 9.5t-69.5 21.5q-31 14 -60.5 26.5t-56.5 12.5 q-29 0 -44 -12.5t-26 -28.5q-10 -20 -16 -31.5t-29 -11.5h-34q-16 0 -19.5 14z" />
<glyph unicode="&#x2000;" horiz-adv-x="933" />
<glyph unicode="&#x2001;" horiz-adv-x="1866" />
<glyph unicode="&#x2002;" horiz-adv-x="933" />
<glyph unicode="&#x2003;" horiz-adv-x="1866" />
<glyph unicode="&#x2004;" horiz-adv-x="622" />
<glyph unicode="&#x2005;" horiz-adv-x="466" />
<glyph unicode="&#x2006;" horiz-adv-x="311" />
<glyph unicode="&#x2007;" horiz-adv-x="311" />
<glyph unicode="&#x2008;" horiz-adv-x="233" />
<glyph unicode="&#x2009;" horiz-adv-x="373" />
<glyph unicode="&#x200a;" horiz-adv-x="103" />
<glyph unicode="&#x2010;" horiz-adv-x="667" d="M109 465v39q0 23 14 37t37 14h348q23 0 37 -14.5t14 -36.5v-39q0 -23 -14.5 -37t-36.5 -14h-348q-23 0 -37 14t-14 37z" />
<glyph unicode="&#x2011;" horiz-adv-x="667" d="M109 465v39q0 23 14 37t37 14h348q23 0 37 -14.5t14 -36.5v-39q0 -23 -14.5 -37t-36.5 -14h-348q-23 0 -37 14t-14 37z" />
<glyph unicode="&#x2012;" horiz-adv-x="667" d="M109 465v39q0 23 14 37t37 14h348q23 0 37 -14.5t14 -36.5v-39q0 -23 -14.5 -37t-36.5 -14h-348q-23 0 -37 14t-14 37z" />
<glyph unicode="&#x2013;" horiz-adv-x="954" d="M-35 518v14q0 23 14.5 37.5t36.5 14.5h922q23 0 37 -14.5t14 -37.5v-14q0 -23 -14 -37t-37 -14h-922q-23 0 -37 14.5t-14 36.5z" />
<glyph unicode="&#x2014;" horiz-adv-x="1978" d="M375 518v14q0 23 14 37.5t37 14.5h1126q23 0 37.5 -14.5t14.5 -37.5v-14q0 -23 -14.5 -37t-37.5 -14h-1126q-23 0 -37 14.5t-14 36.5z" />
<glyph unicode="&#x2018;" horiz-adv-x="442" d="M89.5 995.5q-9.5 18.5 0.5 36.5l170 344q10 16 20.5 26.5t30.5 6.5l27 -6q18 -4 22.5 -20.5t-2.5 -32.5l-125 -355q-8 -23 -26.5 -33t-38.5 -4l-51 15q-18 4 -27.5 22.5z" />
<glyph unicode="&#x2019;" horiz-adv-x="442" d="M82 981q-4 16 2 33l125 354q8 23 26.5 33t38.5 4l52 -14q18 -4 27 -22.5t-1 -37.5l-170 -344q-10 -16 -20 -26.5t-31 -6.5l-27 7q-18 4 -22 20z" />
<glyph unicode="&#x201a;" horiz-adv-x="442" d="M82 -217.5q-4 16.5 2 33.5l125 354q8 23 26.5 33t38.5 4l52 -14q18 -4 27 -22.5t-1 -37.5l-170 -344q-10 -16 -20 -26.5t-31 -6.5l-27 6q-18 4 -22 20.5z" />
<glyph unicode="&#x201c;" horiz-adv-x="790" d="M89.5 995.5q-9.5 18.5 0.5 36.5l170 344q10 16 20.5 26.5t30.5 6.5l27 -6q18 -4 22.5 -20.5t-2.5 -32.5l-125 -355q-8 -23 -26.5 -33t-38.5 -4l-51 15q-18 4 -27.5 22.5zM437.5 995.5q-9.5 18.5 0.5 36.5l170 344q10 16 20.5 26.5t30.5 6.5l27 -6q18 -4 22.5 -20.5 t-1.5 -32.5l-125 -355q-8 -23 -26.5 -33t-39.5 -4l-51 15q-18 4 -27.5 22.5z" />
<glyph unicode="&#x201d;" horiz-adv-x="790" d="M82 981q-4 16 2 33l125 354q8 23 26.5 33t38.5 4l52 -14q18 -4 27 -22.5t-1 -37.5l-170 -344q-10 -16 -20 -26.5t-31 -6.5l-27 7q-18 4 -22 20zM430.5 981q-4.5 16 1.5 33l125 354q8 23 26.5 33t39.5 4l51 -14q18 -4 27.5 -22.5t-1.5 -37.5l-170 -344q-10 -16 -20 -26.5 t-31 -6.5l-26 7q-18 4 -22.5 20z" />
<glyph unicode="&#x201e;" horiz-adv-x="790" d="M82 -217.5q-4 16.5 2 33.5l125 354q8 23 26.5 33t38.5 4l52 -14q18 -4 27 -22.5t-1 -37.5l-170 -344q-10 -16 -20 -26.5t-31 -6.5l-27 6q-18 4 -22 20.5zM430.5 -217.5q-4.5 16.5 1.5 33.5l125 354q8 23 26.5 33t39.5 4l51 -14q18 -4 27.5 -22.5t-1.5 -37.5l-170 -344 q-10 -16 -20 -26.5t-31 -6.5l-26 6q-18 4 -22.5 20.5z" />
<glyph unicode="&#x2022;" horiz-adv-x="954" d="M106 721q0 76 29 143.5t80 117.5t117.5 79t144.5 29q76 0 143.5 -29t119 -79t80 -117.5t28.5 -143.5q0 -78 -28.5 -144.5t-80 -117.5t-119 -80t-143.5 -29q-78 0 -144.5 29t-117.5 80t-80 117.5t-29 144.5z" />
<glyph unicode="&#x2026;" horiz-adv-x="1497" d="M106 102q0 49 36 84t85 35t84 -34.5t35 -84.5q0 -49 -35 -84.5t-84 -35.5t-85 35.5t-36 84.5zM629 102q0 49 35.5 84t85.5 35q49 0 83.5 -34.5t34.5 -84.5q0 -49 -34.5 -84.5t-83.5 -35.5t-85 35.5t-36 84.5zM1151 102q0 49 36 84t85 35t84 -34.5t35 -84.5 q0 -49 -35 -84.5t-84 -35.5t-85 35.5t-36 84.5z" />
<glyph unicode="&#x202f;" horiz-adv-x="373" />
<glyph unicode="&#x2039;" horiz-adv-x="606" d="M142.5 510q0.5 25 11.5 43l149 246q12 20 26.5 31.5t37.5 11.5h61q16 0 25.5 -14.5t-0.5 -28.5l-179 -289l172 -297q10 -16 1 -30.5t-25 -14.5h-62q-23 0 -37 12.5t-26 32.5l-143 252q-12 20 -11.5 45z" />
<glyph unicode="&#x203a;" horiz-adv-x="606" d="M154.5 182.5q-9.5 14.5 1.5 28.5l178 289l-172 297q-10 16 -1 30.5t25 14.5h62q23 0 37 -12.5t26 -32.5l144 -252q12 -20 11 -45t-11 -43l-150 -246q-12 -20 -26.5 -31.5t-36.5 -11.5h-62q-16 0 -25.5 14.5z" />
<glyph unicode="&#x205f;" horiz-adv-x="466" />
<glyph unicode="&#x20ac;" d="M31 537l4 30q4 23 20.5 30t38.5 7h68q-2 12 -2 46v48q0 20 3 53t5 52h-90q-20 0 -34.5 10t-10.5 31l6 30q4 23 19.5 29t37.5 6h88q20 100 64.5 192.5t114 163t165 112.5t217.5 42q29 0 59 -2t58 -8q20 -4 31.5 -21.5t5.5 -37.5l-12 -43q-6 -23 -22.5 -27t-39.5 0 q-41 6 -82 6q-98 0 -169.5 -39t-118.5 -96t-74 -122.5t-35 -119.5h410q20 0 33.5 -9t9.5 -30l-6 -30q-4 -23 -20.5 -30t-39.5 -7h-405q-4 -18 -7.5 -49t-3.5 -49v-53.5t2 -47.5h394q20 0 33.5 -8t9.5 -29l-6 -35q-4 -23 -20.5 -28.5t-39.5 -5.5h-356q12 -66 39.5 -134.5 t76 -124t119 -91t166.5 -35.5q18 0 39 1t43 5q23 4 39 -3t23 -28l12 -43q6 -20 -5.5 -37.5t-31.5 -21.5q-31 -8 -61.5 -10.5t-59.5 -2.5q-123 0 -219 39t-167 108.5t-115 166t-60 211.5h-98q-20 0 -33.5 9t-9.5 30z" />
<glyph unicode="&#x2122;" horiz-adv-x="1773" d="M111 1343v5q0 35 13 40t34 5h504q18 0 31.5 -5.5t13.5 -39.5v-5q0 -35 -13.5 -41t-31.5 -6h-199v-616q0 -23 -9.5 -37t-41.5 -14h-6q-33 0 -42.5 14t-9.5 37v616h-196q-20 0 -33.5 6.5t-13.5 40.5zM829 680v661q0 23 14.5 37.5t37.5 14.5h71q23 0 42.5 -12.5t27.5 -34.5 l219 -551l211 551q8 20 27.5 33.5t42.5 13.5h73q23 0 37.5 -14.5t14.5 -37.5v-661q0 -23 -6.5 -37t-45.5 -14h-4q-39 0 -45 14t-6 37v616h-4l-252 -639q-6 -12 -12 -20t-31 -8h-4q-29 0 -34 8t-11 20l-252 639h-4v-616q0 -23 -6 -37t-45 -14h-4q-39 0 -45.5 14t-6.5 37z" />
<glyph unicode="&#xe000;" horiz-adv-x="962" d="M0 0v963h963v-963h-963z" />
<glyph unicode="&#xfb01;" horiz-adv-x="1120" d="M-2 891v20q0 23 14.5 37.5t36.5 14.5h146v65q0 76 15 150.5t51 134t97.5 96.5t153.5 37q18 0 36.5 -1t37.5 -3q23 -4 37 -20.5t14 -39.5v-34q0 -20 -15.5 -34t-33.5 -11q-16 4 -34.5 4h-39.5q-53 0 -86 -25t-51.5 -64.5t-24.5 -92t-6 -105.5v-57h227q23 0 37.5 -14.5 t14.5 -37.5v-20q0 -23 -14.5 -37t-37.5 -14h-227v-789q0 -23 -14.5 -37t-36.5 -14h-49q-23 0 -37 14.5t-14 36.5v789h-146q-23 0 -37 14t-14 37zM770 1290q0 47 33 81t80 34q49 0 81.5 -34t32.5 -81t-32.5 -79.5t-81.5 -32.5q-47 0 -80 32.5t-33 79.5zM809 51v860 q0 23 14.5 37.5t36.5 14.5h49q23 0 37.5 -14.5t14.5 -37.5v-860q0 -23 -14.5 -37t-37.5 -14h-49q-23 0 -37 14.5t-14 36.5z" />
<glyph unicode="&#xfb02;" horiz-adv-x="1120" d="M-2 891v20q0 23 14.5 37.5t36.5 14.5h146v65q0 76 15 150.5t51 134t97.5 96.5t153.5 37q18 0 36.5 -1t37.5 -3q23 -4 37 -20.5t14 -39.5v-34q0 -20 -15.5 -34t-33.5 -11q-16 4 -34.5 4h-39.5q-53 0 -86 -25t-51.5 -64.5t-24.5 -92t-6 -105.5v-57h227q23 0 37.5 -14.5 t14.5 -37.5v-20q0 -23 -14.5 -37t-37.5 -14h-227v-789q0 -23 -14.5 -37t-36.5 -14h-49q-23 0 -37 14.5t-14 36.5v789h-146q-23 0 -37 14t-14 37zM813 51v1344q0 23 14.5 37t36.5 14h49q23 0 37.5 -14.5t14.5 -36.5v-1344q0 -23 -14.5 -37t-37.5 -14h-49q-23 0 -37 14.5 t-14 36.5z" />
</font>
</defs>
</svg>
