<?xml version="1.0" encoding="utf-8"?>
<!-- Generator: Adobe Illustrator 20.1.0, SVG Export Plug-In . SVG Version: 6.00 Build 0)  -->
<svg version="1.1" id="Layer_1" xmlns="http://www.w3.org/2000/svg" xmlns:xlink="http://www.w3.org/1999/xlink" x="0px" y="0px"
	 viewBox="0 0 204.5 29.8" style="enable-background:new 0 0 204.5 29.8;" xml:space="preserve">
<style type="text/css">
	.st0{clip-path:url(#SVGID_2_);fill:#FFFFFF;}
</style>
<g>
	<defs>
		<rect id="SVGID_1_" x="0" y="0" width="204.5" height="29.8"/>
	</defs>
	<clipPath id="SVGID_2_">
		<use xlink:href="#SVGID_1_"  style="overflow:visible;"/>
	</clipPath>
	<path class="st0" d="M199.4,15.9c-0.3,0.3-0.6,0.6-0.8,1c-0.2,0.3-0.4,0.7-0.6,1c-0.2,0.3-0.4,0.7-0.5,1c-0.1,0.2-0.2,0.5-0.3,0.9
		c-0.1,0.4-0.2,0.7-0.3,0.9c0,0.1-0.1,0.2-0.2,0.3c-0.1,0.1-0.2,0.3-0.3,0.5c-0.1,0.2-0.2,0.3-0.3,0.4c-0.1,0.1-0.2,0.3-0.2,0.3
		l0.2-0.9l0.1-0.4c0-0.1,0-0.3,0.1-0.5s0.2-0.5,0.3-0.8c0.1-0.3,0.2-0.5,0.3-0.8c0.1-0.2,0.2-0.4,0.2-0.5c0.1-0.4,0.1-0.7,0.2-1
		c0.1-0.3,0.1-0.5,0.2-0.8c0.1-0.3,0.1-0.5,0.2-0.8c0.1-0.3,0.1-0.6,0.2-1c0-0.1,0.1-0.3,0.1-0.5s0-0.3,0-0.4c0,0,0-0.1-0.1,0
		c-0.1,0-0.1,0-0.2-0.1c0,0,0-0.1,0.1-0.3c0-0.1,0.1-0.2,0.1-0.3c0.1-0.2,0.2-0.3,0.3-0.4s0.2-0.3,0.2-0.4c0.1-0.2,0.1-0.3,0.2-0.5
		c0-0.2,0.1-0.3,0.1-0.5c0.1-0.3,0.1-0.7,0.2-1.2c0.1-0.4,0.1-0.8,0.2-1.2c0,0.4,0.1,0.8,0.3,1.2c0.1,0.4,0.3,0.8,0.4,1.1v0.3
		c0,0.1,0,0.2,0,0.2c0,0,0.1,0.1,0.1,0.1c0,0,0.1,0.1,0.1,0.1c0,0.1,0.1,0.3,0,0.3c0,0.1-0.1,0.2-0.2,0.2c-0.1,0.1-0.1,0.1-0.2,0.2
		c0,0.1-0.1,0.2-0.1,0.3c0,0.2,0.1,0.3,0.3,0.3c0.2,0,0.3,0.1,0.3,0.2c0,0.1,0,0.4,0,0.7s0,0.5-0.1,0.6
		C200,15.3,199.8,15.7,199.4,15.9 M196.8,24.2l-0.2-0.3l0.3-0.4l0.2,0.3L196.8,24.2z M200.5,5.2l-0.2,0.5l0.3,0L200.5,6L200,6.2
		l-0.1-0.6L200.5,5.2z M194.2,17.7l0.4-1.3c0,0,0,0,0.1,0c0.1,0.1,0.1,0.1,0.1,0.1c0,0,0,0.1-0.1,0.3c0,0.1,0,0.2-0.1,0.3l0.1,0.1
		c0,0,0.1,0.1,0.1,0.1c0.1,0.1,0,0.4-0.1,0.9l-0.3,0.3L194.2,17.7z M204.5,12.8c0-0.2,0-0.4,0-0.5s-0.1-0.3-0.1-0.5
		c0-0.1-0.1-0.3-0.2-0.3c-0.1,0-0.2-0.1-0.2-0.1c-0.1,0-0.2,0-0.2,0c-0.1,0-0.1,0-0.1-0.1s0-0.1,0.1-0.3c0.1-0.2,0.2-0.3,0.3-0.3
		c0.1,0,0.1-0.2,0.1-0.5c0-0.3-0.2-0.6-0.4-0.9c-0.2-0.3-0.4-0.5-0.5-0.8c-0.1-0.3-0.3-0.7-0.5-1s-0.3-0.7-0.5-1
		c-0.2-0.3-0.3-0.6-0.4-0.9c-0.1-0.3-0.2-0.6-0.3-0.9c0-0.2-0.1-0.3-0.2-0.5c-0.1-0.1-0.2-0.2-0.3-0.3c-0.1-0.1-0.1-0.2-0.2-0.4
		s-0.1-0.2-0.3-0.2c-0.2,0-0.4,0-0.4,0.1c0,0.1-0.1,0.3-0.2,0.5c-0.1,0.1-0.2,0.3-0.3,0.4c-0.1,0.1-0.2,0.1-0.4-0.1
		c-0.1-0.1-0.1-0.2-0.1-0.4c0-0.2,0-0.3-0.1-0.5c0-0.2-0.1-0.3-0.1-0.5c0-0.1-0.1-0.3-0.1-0.4c-0.2-0.1-0.4-0.1-0.7,0.1
		c-0.3,0.2-0.5,0.3-0.7,0.4c0,0.1,0.1,0.3,0.1,0.6s0.1,0.4,0,0.6c-0.1,0.1-0.2,0.2-0.4,0.3s-0.4,0-0.5,0c-0.1,0-0.1-0.1-0.1-0.2
		c0-0.1-0.1-0.1-0.3,0c-0.2,0-0.4,0.2-0.5,0.4c-0.1,0.1-0.1,0.3-0.2,0.5c0,0.2,0,0.4-0.1,0.6s-0.1,0.4-0.1,0.5
		c0,0.1,0.1,0.2,0.3,0.3c0.1,0,0.2,0,0.3,0c0.1,0,0.2,0,0.3-0.1c0.1,0,0.1,0,0.2,0c0,0,0.1,0.1,0.1,0.2c0,0.1,0,0.3-0.2,0.5
		c-0.1,0.2-0.3,0.3-0.4,0.4c-0.2,0.1-0.3,0.2-0.4,0.2c-0.1,0-0.2,0.1-0.3,0.3c-0.1,0.1-0.1,0.3-0.2,0.5s-0.1,0.4-0.1,0.5
		c0,0.2-0.1,0.3-0.1,0.5c0,0.2,0,0.3,0.2,0.4c0.1,0,0.2,0.1,0.3,0.1c0.1,0,0.1,0,0.2,0c0,0,0.1,0,0.1,0.1c0,0,0,0.2,0,0.3
		c0,0.1-0.1,0.3-0.1,0.5c0,0.2-0.1,0.4-0.2,0.5c-0.1,0-0.2,0-0.3,0h-0.2c-0.2,0.3-0.3,0.6-0.4,1c-0.1,0.3-0.2,0.7-0.3,1
		c-0.1,0.4-0.1,0.7-0.2,1.1s-0.1,0.7-0.2,1.1c-0.1,0.4-0.2,0.7-0.2,1.1c0,0.3-0.1,0.7-0.1,1.1c0,0.1-0.1,0.3-0.1,0.4
		c-0.1,0.2-0.1,0.3-0.2,0.5c-0.1,0.2-0.1,0.3-0.1,0.5c0,0.2,0,0.3,0.1,0.4c0.3-0.2,0.4-0.3,0.5-0.1s0,0.4,0,0.6c0,0.1,0,0.4-0.1,0.7
		c0,0.3-0.1,0.5-0.3,0.6c-0.1-0.2-0.3-0.2-0.6,0c-0.1,0.1-0.1,0.2-0.1,0.3v0.3c-0.1,0.6-0.2,1.2-0.4,1.8s-0.4,1.2-0.5,1.8
		c0,0.2,0,0.4-0.1,0.6c0,0.2,0,0.4,0,0.6c0,0.2,0,0.4,0.1,0.4c0.1,0,0.1,0,0.2-0.1c0.1-0.1,0.2-0.2,0.3-0.3c0.1-0.1,0.2-0.2,0.4-0.2
		c0,0.1,0,0.3,0,0.5c0,0.2,0,0.4-0.1,0.5c0,0.2,0,0.3,0,0.5c0,0.1,0.1,0.3,0.2,0.3c0.2,0.1,0.3,0.1,0.4,0s0.2-0.2,0.3-0.4
		c0.1-0.2,0.1-0.3,0.2-0.4c0-0.1,0.1-0.1,0.4-0.2c0,0.1,0,0.3,0,0.5c0,0.2,0,0.4,0,0.5c0.1,0.1,0.2,0.2,0.4,0.1
		c0.2-0.1,0.4-0.2,0.5-0.3c0.2-0.1,0.3-0.3,0.3-0.5s0.1-0.4,0.2-0.5c0.1-0.1,0.2-0.2,0.4-0.3c0.1,0,0.2-0.2,0.3-0.4
		c0-0.1,0.1-0.2,0-0.3s0-0.2,0.1-0.3c0.2-0.1,0.3-0.2,0.3-0.1c0,0.1,0.1,0.1,0.2,0.1c0.2,0,0.3-0.1,0.4-0.3c0.1-0.1,0.2-0.3,0.3-0.5
		c0.2-0.3,0.4-0.6,0.6-0.8c0.2-0.3,0.4-0.6,0.6-0.9c0.1-0.2,0.2-0.4,0.3-0.6c0.1-0.2,0.2-0.4,0.4-0.6c0.1-0.1,0.3-0.3,0.4-0.4
		c0.2-0.1,0.3-0.3,0.3-0.5c0.1-0.2,0.2-0.3,0.1-0.4s-0.1-0.2-0.2-0.3c-0.1,0-0.1-0.1-0.2,0c-0.1,0-0.1,0-0.1-0.2
		c0,0,0.1-0.1,0.2-0.2c0.1-0.1,0.2-0.2,0.2-0.2c0,0,0.1-0.1,0.2-0.2s0.1-0.2,0.2-0.2c0.1-0.1,0.2-0.1,0.2-0.1c0,0,0.1,0.1,0.1,0.1
		s0.1,0,0.1,0.1c0,0,0.1,0,0.2,0c0.1,0,0.1-0.1,0.2-0.2s0.1-0.1,0.1-0.2c0.2-0.3,0.3-0.6,0.4-1c0.1-0.3,0.3-0.7,0.5-1
		c0.2-0.4,0.4-0.7,0.6-1.1c0.2-0.4,0.5-0.7,0.7-1.1c0.2-0.3,0.4-0.6,0.6-0.9c0.2-0.3,0.3-0.6,0.3-1C204.5,13.2,204.5,13,204.5,12.8
		 M188.7,18.7l0.5-1.1l0.1,0.3l-0.1,0.7L188.7,18.7z M185.6,10l0-0.8l0.4-0.4v1L185.6,10z M190,23c0.1-0.3,0.1-0.7,0.2-1.1
		c0.1-0.4,0.1-0.8,0.2-1.1c0.1-0.3,0.1-0.6,0.1-0.7c0.1-0.2,0.1-0.4,0.1-0.6c0-0.1,0-0.2-0.1-0.3c0-0.1,0-0.2,0.2-0.2
		c0.1-0.2,0.2-0.4,0.2-0.7c0-0.2,0.1-0.5,0.1-0.7c0-0.2,0.1-0.5,0.1-0.7c0-0.2,0.1-0.5,0.1-0.7c0,0,0-0.1,0-0.1c0,0,0-0.1-0.1-0.1
		c0,0-0.1-0.1-0.1-0.1c0,0-0.1,0-0.1-0.1c0,0,0-0.1,0.1-0.3c0.1-0.1,0.1-0.2,0.2-0.3c0.1-0.1,0.2-0.1,0.3-0.1c0.1,0,0.1-0.1,0.2-0.2
		c0.1-0.1,0.1-0.2,0.1-0.3s0-0.2,0-0.3c0-0.2,0.1-0.4,0.2-0.6c0.1-0.2,0.1-0.4,0.2-0.7c0-0.3,0.1-0.5,0.1-0.8c0-0.3,0.1-0.5,0.1-0.8
		c0-0.3,0.1-0.5,0.2-0.8c0.1-0.3,0.1-0.6,0.2-0.8c0-0.1,0.1-0.3,0.2-0.6c0.1-0.3,0.1-0.6,0.2-1c0.1-0.3,0.1-0.7,0.2-1
		c0-0.3,0.1-0.5,0.1-0.6l0.3-1.5c0-0.2,0.1-0.4,0.1-0.6c0-0.2,0-0.4,0.1-0.6c-0.1-0.1-0.2-0.1-0.3-0.2c-0.1-0.1-0.2-0.1-0.4,0
		c-0.1,0.1-0.2,0.2-0.3,0.4c0,0.2-0.1,0.3-0.1,0.4c0,0.1-0.1,0.3-0.1,0.7c0,0.3-0.1,0.5-0.2,0.6c0,0-0.1,0-0.3,0
		c-0.1,0-0.2-0.1-0.3-0.1c-0.1-0.1-0.2-0.1-0.1-0.2c0-0.1,0.1-0.2,0-0.3c0-0.1-0.1-0.2-0.2-0.1c-0.1,0-0.2,0-0.3,0
		c-0.1-0.1-0.1-0.1-0.1-0.2c0-0.1,0-0.2,0.1-0.3c0-0.2,0-0.4-0.2-0.5c-0.2-0.1-0.4,0-0.6,0.2c-0.1,0.1-0.2,0.3-0.3,0.5
		c0,0.2-0.1,0.4-0.1,0.6c0,0.1-0.1,0.2-0.1,0.3c0,0.1,0,0.2,0,0.3c0,0,0,0,0.1,0c0,0,0.1,0,0.1,0c0,0,0,0.1,0,0.1
		c0,0-0.1,0.1-0.1,0.1c0,0.1,0,0.3,0,0.3c0,0.1-0.1,0.3-0.1,0.6c-0.1,0.3-0.1,0.6-0.2,0.9c-0.1,0.3-0.1,0.6-0.2,0.9
		c0,0.3-0.1,0.5-0.1,0.6c0,0.2-0.1,0.4-0.3,0.6c-0.1,0.2-0.2,0.4-0.1,0.6c-0.1,0.1-0.1,0.1-0.2,0.1c0-0.1-0.1-0.3-0.1-0.5
		c0-0.2-0.1-0.5-0.1-0.8s-0.1-0.5-0.1-0.8c0-0.3-0.1-0.4-0.1-0.6c0,0-0.1-0.1,0-0.2c0-0.1,0-0.1,0-0.2c0-0.1-0.1-0.2-0.1-0.1
		s-0.1,0-0.1,0c-0.2-0.1-0.2-0.2-0.2-0.3c0.1-0.1,0.2-0.3,0.3-0.4c0-0.2,0-0.5,0-0.9c0-0.4,0.1-0.8,0.1-1.2c0-0.4,0.1-0.8,0.1-1.2
		c0-0.4,0-0.7,0-0.9c0-0.3,0-0.7,0.1-1.1c0-0.1,0.1-0.2,0.1-0.3c0-0.1,0-0.1,0-0.2c0-0.1-0.1-0.1-0.2-0.1c-0.1,0-0.1-0.1-0.2-0.1
		c-0.2,0-0.4,0.1-0.4,0.3c0,0.1-0.1,0.3-0.2,0.5c0,0-0.1,0.1-0.1,0.2s-0.1,0.2-0.2,0.2c0,0-0.1,0.1-0.2,0.3
		c-0.1,0.2-0.1,0.4-0.2,0.6c-0.1,0.2-0.1,0.4-0.2,0.6c-0.1,0.2-0.1,0.3-0.1,0.3c-0.1,0-0.2,0-0.3,0.1c-0.1,0.1-0.2,0.1-0.2,0.1
		c0,0-0.1-0.1,0-0.2c0-0.1,0.1-0.2,0.1-0.3c0-0.1,0.1-0.3,0.2-0.5c0.1-0.2,0.1-0.4,0.1-0.5c-0.1-0.1-0.2-0.1-0.5,0
		c-0.3,0.1-0.5,0.2-0.6,0.3c-0.1,0.1-0.2,0.3-0.3,0.6c-0.1,0.3-0.1,0.5-0.2,0.7c-0.1,0.3-0.2,0.5-0.2,0.8c-0.1,0.2-0.1,0.5-0.2,0.8
		c0,0.2-0.1,0.4-0.1,0.6c0,0.2-0.1,0.4-0.1,0.6c0,0.2-0.1,0.5-0.1,0.7c0,0.2-0.1,0.4-0.2,0.6c0,0,0,0.2,0,0.4c0,0.2,0,0.4-0.1,0.6
		c0,0.2,0,0.4-0.1,0.6c0,0.2,0,0.3,0,0.3c0,0.1,0.1,0.1,0.1,0.1c0,0,0,0,0,0.1c0,0,0,0.1,0,0.1c0,0.1,0,0.1,0,0.1
		c0,0.2-0.1,0.2-0.1,0.2c0,0-0.1,0-0.3,0.1c-0.1,0.1-0.2,0.2-0.2,0.3c0,0.1,0,0.2-0.1,0.3c0,0.2,0,0.4-0.1,0.6
		c0,0.1-0.1,0.2-0.1,0.3c0,0.1,0,0.2,0,0.3c0.1,0.1,0.2,0.2,0.2,0.1c0-0.1,0.1-0.1,0.2-0.1c0.1,0,0.2,0,0.2,0.1c0,0.1,0,0.2,0,0.3
		c0,0,0,0.1,0,0.3c0,0.1-0.1,0.3-0.1,0.4c0,0.1-0.1,0.2-0.1,0.3c-0.1,0.1-0.1,0.1-0.2,0.1c-0.1,0-0.1-0.1-0.1-0.3
		c0.1-0.1,0.1-0.2,0-0.3c0,0-0.1,0-0.3,0.1c-0.1,0.1-0.2,0.2-0.3,0.2c-0.1,0.2-0.2,0.4-0.2,0.7c0,0.3,0,0.5-0.1,0.7
		c-0.3,0.8-0.5,1.7-0.8,2.6c0,0.3-0.1,0.5-0.1,0.7c0,0.2-0.1,0.5-0.1,0.7c0,0.3,0,0.6-0.1,0.9c0,0.3,0,0.6-0.1,0.9
		c0,0.1,0,0.2-0.1,0.3c0,0.1-0.1,0.2-0.1,0.3c0,0.1-0.1,0.1-0.2,0.2c-0.1,0.1-0.1,0.1-0.2,0.2c0,0.1-0.1,0.2-0.1,0.3
		c0,0.1,0,0.2,0,0.3c0,0.1,0,0.2,0,0.3c0,0.1,0,0.2-0.1,0.3v0.3c0,0,0.1,0,0.2,0c0,0,0.1-0.1,0.1-0.1c0-0.1,0.1-0.1,0.2,0
		c0,0,0.1,0.1,0,0.1c0,0,0,0.1-0.1,0.1c0,0.1,0,0.2-0.1,0.3s-0.1,0.2-0.1,0.3c0,0.2-0.1,0.5-0.1,0.7c-0.1,0.3-0.1,0.5,0,0.7
		c0,0.2,0.1,0.3,0.3,0.3c0.2,0,0.3-0.1,0.4-0.4c0.1-0.2,0.2-0.4,0.2-0.7c0.1-0.2,0.1-0.4,0.2-0.7c0-0.1,0.1-0.2,0.1-0.3
		c0-0.1,0.1-0.2,0.2-0.3c0.1-0.1,0.2-0.1,0.3,0c0,0.1,0.1,0.2,0.1,0.3c0,0.1,0,0.2-0.1,0.3s0,0.2,0,0.3c0.1,0,0.2,0.1,0.3,0.1
		c0.1,0,0.2,0,0.3-0.1c0.2-0.1,0.3-0.3,0.3-0.6c0-0.3,0-0.5,0.2-0.6c0.1-0.1,0.2-0.2,0.3-0.1c0.1,0,0.2,0,0.3,0
		c0.1,0,0.2-0.1,0.2-0.2s0.1-0.2,0.1-0.3c0.1-0.4,0.2-0.9,0.3-1.3c0.1-0.4,0.2-0.9,0.3-1.3c0-0.1,0.1-0.2,0.1-0.3c0-0.1,0-0.2,0-0.3
		c0-0.1-0.1-0.2-0.2-0.2c-0.1,0-0.1-0.1-0.1-0.2c0-0.1,0-0.4,0.1-0.7c0.1-0.3,0.2-0.5,0.3-0.6c0,0.1,0.1,0.1,0.2,0.2
		c0.1,0,0.2,0,0.2-0.1c0-0.1,0.1-0.2,0.1-0.3c0-0.1,0-0.3,0-0.3c0-0.1,0.1-0.3,0.1-0.6c0.1-0.3,0.1-0.6,0.2-0.9
		c0.1-0.3,0.1-0.6,0.2-0.9c0-0.3,0.1-0.5,0.1-0.6c0,0,0,0.2,0.1,0.4c0,0.2,0,0.4,0.1,0.7c0,0.2,0,0.5,0.1,0.7c0,0.2,0,0.4,0.1,0.4
		c0,0.1,0,0.4,0,0.7s0,0.5-0.1,0.6c-0.1,0.1-0.2,0.2-0.2,0.2c-0.1,0-0.1,0.1-0.2,0.3c0,0.1,0,0.2,0,0.3s0.1,0.2,0.1,0.3
		c0,0.2,0.1,0.4,0.1,0.6s0.1,0.4,0.2,0.5c0,0.1,0.1,0.1,0.1,0.2c0,0.1,0.1,0.2,0.1,0.3c0,0.1,0,0.2,0,0.5c0,0.2,0,0.5,0,0.8
		s0,0.6,0,0.8c0,0.3,0,0.4-0.1,0.5c-0.1,0.2-0.1,0.4,0,0.7c0,0.3,0.1,0.5,0,0.7c0,0.2,0,0.4-0.1,0.6c-0.1,0.2-0.1,0.4-0.1,0.6
		c0,0.2,0,0.4,0,0.6c-0.1,0.2-0.1,0.4,0,0.6c0,0.2,0.1,0.3,0.2,0.5c0.1,0.1,0.2,0.1,0.5,0c0,0.1,0,0.3,0,0.4c0,0.1-0.1,0.3-0.1,0.4
		c0,0.1,0,0.2,0.1,0.3c0.1,0,0.2,0,0.4,0c0.1,0,0.2-0.1,0.3-0.3c0.1-0.1,0.1-0.3,0.1-0.4c0-0.1,0-0.3,0.1-0.4c0-0.1,0.1-0.3,0.2-0.4
		l0.1,0.1c0.1,0,0.2,0,0.4,0.1c0.1,0.1,0.2,0,0.4-0.1c0.1-0.1,0.2-0.2,0.3-0.3c0.1-0.2,0.1-0.3,0.1-0.4c0-0.2,0.1-0.4,0.1-0.6
		s0.1-0.5,0.1-0.7c0-0.2,0.1-0.4,0.1-0.7c0-0.2,0.1-0.4,0.1-0.7C189.9,23.6,189.9,23.3,190,23 M179,12h-0.3l0.1-0.5l-0.2,0.1
		l0.1-0.4L179,11l0.1,0.4L179,12z M170.9,27.3c0,0-0.1,0-0.1,0c-0.1,0-0.1,0-0.1,0c0,0,0-0.2,0-0.3c0-0.2,0-0.3,0-0.3c0,0,0,0,0.1,0
		c0,0,0,0,0.1,0c0,0,0,0,0.1,0l0.1-0.1l0.1,0.5l-0.1,0.4c-0.1,0.2-0.2,0.4-0.3,0.4L170.9,27.3z M179.6,19.6c0,0,0.1-0.1,0.1-0.4
		c0-0.3,0-0.6,0.1-0.9c0-0.3,0.1-0.6,0.1-0.9c0.1-0.5,0.3-1,0.4-1.5c0.1-0.5,0.3-1,0.4-1.5c0-0.2,0.1-0.3,0.1-0.5s0-0.3,0.1-0.4
		c0-0.1,0-0.2,0.1-0.3c0-0.1,0.1-0.2,0.1-0.2c0-0.1-0.1-0.1-0.1-0.1c0,0-0.1,0-0.1-0.1c0-0.1,0-0.2,0-0.4c0-0.2,0.1-0.4,0.1-0.5
		c0-0.2,0.1-0.4,0.1-0.5c0-0.1,0.1-0.2,0.3-0.3c0.1-0.1,0.2-0.2,0.4-0.3c0.1-0.2,0.2-0.3,0-0.4c0-0.1-0.1-0.1-0.1-0.1
		c0,0-0.1,0-0.2,0c-0.1,0-0.1,0-0.1,0c0,0-0.1-0.1-0.1-0.2c0-0.2,0-0.3,0.1-0.4c0.1,0,0.3-0.1,0.4-0.3c0.2-0.1,0.3-0.3,0.3-0.4V8.6
		c0-0.4,0.1-0.7,0.2-1.1c0.1-0.4,0.2-0.7,0.3-1.1c0-0.1,0-0.3,0.1-0.5c0-0.2,0-0.3,0-0.4c0-0.1-0.2-0.2-0.3-0.2
		c-0.2,0-0.3,0-0.4,0.1c-0.1,0.1-0.2,0.3-0.2,0.5c0,0.2-0.1,0.4-0.1,0.5c0,0.1-0.2,0.3-0.4,0.5c-0.2,0.2-0.3,0.2-0.5,0.1
		c-0.1-0.1-0.2-0.2-0.1-0.4c0.1-0.2,0-0.3-0.2-0.4c-0.2-0.1-0.3-0.1-0.5,0c-0.1,0.1-0.2,0.2-0.1,0.4c-0.2,0-0.3,0.1-0.5,0.1
		c-0.1,0-0.3,0-0.4,0s-0.2,0.1-0.3,0.2s-0.1,0.3-0.1,0.5c0,0.3,0,0.7-0.1,1c-0.1,0.3-0.2,0.7-0.2,1c-0.1,0.4-0.2,0.7-0.2,1
		c0,0.3-0.1,0.7-0.2,1c-0.1,0.3-0.2,0.6-0.2,0.9s0,0.6-0.1,1c0,0.1-0.1,0.3-0.2,0.5c-0.1,0.2-0.1,0.4-0.1,0.4c0,0.1,0.1,0.2,0.1,0.2
		c0.1,0,0.1,0,0.2,0.1c0,0,0.1,0,0.1,0.1c0,0,0,0.1,0,0.3c0,0,0,0.1-0.1,0.3c0,0.1-0.1,0.2-0.1,0.3c-0.1,0-0.1,0.1-0.2,0.1
		c-0.1,0-0.1,0-0.2,0.1c-0.1,0.1-0.2,0.3-0.2,0.4c0,0.2,0,0.3-0.1,0.5c-0.1,0.7-0.3,1.3-0.3,1.9s-0.2,1.2-0.4,1.9
		c0,0.1-0.1,0.3-0.1,0.5c0,0.2-0.1,0.3-0.1,0.5c0,0.1,0,0.3,0.1,0.4c0.1,0.1,0.1,0.2,0.1,0.4c0,0.2-0.1,0.3-0.2,0.3
		c-0.1,0-0.2,0.1-0.3,0.3c-0.1,0.1-0.1,0.3-0.1,0.4c0,0.2,0,0.3,0,0.4c0,0.1-0.1,0.3-0.1,0.4c0,0.2,0,0.3-0.1,0.5
		c0,0.1-0.1,0.3-0.1,0.4c0,0.2,0,0.3-0.1,0.4c-0.1,0.2-0.2,0.2-0.3,0.2c-0.1,0-0.2-0.1-0.4-0.1c-0.1,0-0.3,0-0.4,0
		c-0.1,0-0.3,0-0.4,0c-0.1-0.2-0.1-0.5,0.1-0.9c0.2-0.4,0.3-0.7,0.3-1c0.1-0.3,0.1-0.7,0.2-1c0.1-0.3,0.2-0.7,0.2-1
		c0.1-0.7,0.3-1.3,0.4-2c0.1-0.7,0.3-1.4,0.5-2.1c0-0.1,0.1-0.2,0.1-0.4c0.1-0.2,0.1-0.4,0.2-0.6c0-0.2,0.1-0.4,0.1-0.6
		c0-0.2,0-0.3-0.1-0.3c0,0-0.1,0-0.2,0c-0.1,0-0.2,0-0.2,0c-0.1-0.1-0.1-0.1-0.1-0.2c0-0.1,0-0.1,0.1-0.2c0-0.1,0.1-0.3,0.1-0.5
		c0-0.2,0.1-0.3,0.2-0.4c0.1-0.1,0.2-0.1,0.2-0.2c0.1,0,0.1,0,0.2-0.1c0,0,0.1-0.1,0.1-0.1c0,0,0.1-0.1,0.1-0.2
		c0.1-0.3,0.2-0.6,0.2-0.9c0.2-0.6,0.3-1.3,0.4-2.1c0.1-0.7,0.3-1.4,0.5-2c0.1-0.2,0.1-0.3,0.2-0.5c0.1-0.1,0.1-0.3,0.1-0.5
		c0-0.2,0.1-0.3,0.1-0.5c0-0.1,0-0.3,0.1-0.5c0.1-0.3,0.2-0.7,0.2-1c0-0.3,0.1-0.6,0.1-1c0-0.3,0.1-0.6,0.2-0.9
		c0.1-0.3,0-0.5-0.4-0.6c-0.3,0-0.5,0-0.6,0.3c-0.1,0.2-0.2,0.5-0.3,0.7c0,0.1-0.1,0.2-0.1,0.3c-0.1,0.1-0.2,0.3-0.3,0.4
		c-0.1,0.1-0.2,0.2-0.3,0.2s-0.2,0-0.3-0.1c-0.1-0.1-0.1-0.2-0.1-0.3c0-0.1,0-0.2,0-0.4c0-0.1,0-0.2,0-0.3c0-0.1-0.1-0.2-0.3-0.2
		c-0.1,0-0.3,0-0.4,0.1c-0.1,0.1-0.2,0.2-0.3,0.3c-0.1,0.1-0.2,0.2-0.3,0.2c-0.1,0.1-0.2,0.1-0.4,0c-0.2,0.3-0.3,0.6-0.3,1
		c-0.1,0.4-0.1,0.7-0.2,1.1c0,0.1-0.1,0.2-0.1,0.3c0,0.1-0.1,0.3-0.1,0.4c0,0.1,0,0.3,0,0.4c0,0.1,0.1,0.2,0.1,0.2
		c0.1,0,0.1,0,0.2,0c0.1,0,0.1-0.1,0.2-0.1c0,0,0.1,0,0.1,0c0,0,0.1,0.1,0.1,0.3c0,0.1,0,0.3-0.1,0.5c0,0.2-0.1,0.3-0.3,0.4
		c-0.1,0.1-0.3,0.2-0.4,0.3c-0.1,0-0.2,0.2-0.3,0.4c-0.1,0.2-0.1,0.4-0.1,0.6c0,0.2-0.1,0.4-0.1,0.6c-0.1,0.5-0.2,1-0.3,1.5
		s-0.2,1-0.3,1.5c-0.1,0.4-0.2,0.9-0.3,1.3c-0.1,0.4-0.2,0.9-0.3,1.3c0,0.1-0.1,0.3-0.1,0.4c0,0.1,0,0.3-0.1,0.5
		c0,0-0.1,0.1-0.1,0.2s0,0.2,0,0.2c0,0,0.1,0,0.2,0c0.1-0.1,0.2-0.1,0.2,0c0.1,0.1,0.1,0.2,0.1,0.4c-0.1,0.2-0.1,0.3-0.2,0.4
		c-0.1,0.1-0.2,0.3-0.3,0.3c-0.1,0.1-0.2,0.2-0.3,0.4c0,0.1-0.1,0.2-0.1,0.3c0,0.1-0.1,0.2-0.1,0.2c0,0.1,0.1,0.2,0.1,0.1
		c0,0,0.1,0,0.2,0c0.1,0.1,0.2,0.2,0.2,0.3s0,0.3-0.1,0.4c0,0.2-0.1,0.3-0.2,0.4c-0.1,0.1-0.2,0.2-0.3,0.3c-0.2,0.1-0.3,0.2-0.3,0.4
		c0,0.1-0.1,0.3-0.1,0.5c-0.1,0.3-0.2,0.7-0.3,1s-0.2,0.6-0.2,0.9c0,0.3-0.1,0.6-0.1,0.9c0,0.3-0.1,0.6-0.2,0.9
		c0,0.1-0.1,0.3-0.2,0.4c-0.1,0.2,0,0.3,0.1,0.4c0.1,0.1,0.2,0.1,0.3,0.1c0.1,0,0.1,0.1,0.1,0.4c-0.1,0.2-0.2,0.3-0.4,0.4
		c-0.2,0.1-0.3,0.2-0.3,0.4c0,0.1-0.1,0.3-0.1,0.5s0,0.3,0.1,0.4c0.1,0.1,0.2,0.2,0.3,0.2c0.1,0,0.3,0,0.4-0.1
		c0.1-0.1,0.3-0.1,0.4-0.2c0.1-0.1,0.3-0.1,0.4-0.1c0.3,0,0.6,0,0.8,0c0.3,0,0.5-0.1,0.8-0.1c0.2,0,0.4-0.1,0.4,0
		c0.1,0,0.1,0.1,0.1,0.3c0,0.2,0,0.3,0,0.4c0,0,0.2,0,0.4,0c0.2,0,0.3-0.1,0.4-0.1c0.1,0,0.2,0,0.3,0.2c0.1,0.2,0.1,0.3,0.1,0.4
		c0,0.1,0.1,0.2,0.3,0.2c0.3,0.1,0.6,0.1,0.9,0c0.1-0.1,0.1-0.3,0.1-0.4c0-0.2,0-0.3,0.1-0.4c0-0.2,0.1-0.3,0.1-0.3
		c0,0,0-0.1,0.1-0.3c0-0.2,0.1-0.3,0.3-0.5c0.1-0.1,0.2-0.2,0.4-0.2c0.1,0,0.2,0,0.3,0.1c0.1,0.1,0.1,0.2,0.1,0.4
		c0,0.2-0.1,0.4-0.1,0.6c0,0.2,0,0.3,0.2,0.5c0.2-0.1,0.4-0.2,0.6-0.3c0.2-0.1,0.3-0.3,0.4-0.6c0.1-0.3,0.2-0.6,0.3-0.9
		c0-0.2,0-0.3-0.1-0.4c0,0-0.1-0.1-0.2-0.1c-0.1,0-0.1-0.1-0.1-0.2c0-0.1,0.1-0.3,0.3-0.3c0.2-0.1,0.3-0.2,0.4-0.3
		c0.1-0.1,0.1-0.3,0.1-0.4c0-0.2,0-0.3,0.1-0.5c0-0.2,0.1-0.3,0.2-0.5c0.1-0.2,0.1-0.3,0.2-0.5c0.1-0.2,0.1-0.4,0.2-0.6
		c0-0.2,0.1-0.4,0.2-0.6c0.1-0.3,0.2-0.7,0.4-1.2c0.2-0.5,0.2-0.9,0.1-1.2c0-0.1-0.1-0.3-0.1-0.3c0-0.1,0-0.2,0.2-0.4
		C179.5,19.8,179.6,19.6,179.6,19.6 M167.6,18.6l-0.4-0.1l0.3-1.4l0.5,0.1l-0.1,0.6L167.6,18.6z M165.8,13.6c0,0.2,0,0.3,0,0.4
		c0,0.2-0.1,0.4-0.1,0.6c0,0.2-0.1,0.4-0.1,0.5c-0.1,0.3-0.2,0.7-0.2,1c-0.1,0.3-0.1,0.7-0.2,1c0,0.2-0.1,0.4-0.1,0.5s0,0.3-0.1,0.5
		c0,0.2-0.1,0.3-0.2,0.5c-0.1,0.2-0.1,0.3-0.2,0.5c-0.1,0.2-0.1,0.3-0.2,0.5s-0.2,0.3-0.3,0.4c-0.1,0.1-0.2,0.3-0.3,0.5
		c-0.1,0.2,0,0.2,0.3,0.1c0.1,0,0.1-0.1,0.2-0.1c0.1-0.1,0.1-0.1,0.2-0.2c0,0,0.1-0.1,0.1-0.1c0,0,0.1,0.1,0.1,0.2
		c0,0.1,0,0.3-0.1,0.5s-0.2,0.4-0.3,0.5c-0.1,0.1-0.2,0.2-0.3,0.3c-0.1,0-0.2,0-0.4,0c0,0-0.1-0.1-0.1-0.2s0-0.1-0.2-0.1
		c-0.1,0-0.2,0.1-0.2,0.2s-0.1,0.1-0.1,0.2c-0.2,0.2-0.4,0.5-0.6,0.8c-0.2,0.3-0.4,0.5-0.4,0.8c0-0.2,0-0.5,0-0.8s0-0.5-0.1-0.8
		c-0.1-0.6-0.1-1.3-0.2-1.9s-0.1-1.3-0.2-1.9c0-0.3-0.1-0.6-0.1-0.9c-0.1-0.3,0-0.6,0.2-0.9c0.1-0.1,0.2-0.3,0.3-0.4
		c0.1-0.1,0.2-0.2,0.3-0.4c0.1-0.4,0-0.6-0.4-0.6c0-0.1,0.1-0.2,0.1-0.4c0.1-0.2,0.2-0.3,0.3-0.4c0.1-0.1,0.1-0.1,0.2-0.2
		c0,0,0.1,0,0.1,0s0.1,0,0.1,0c0,0,0.1,0,0.2-0.1c0.1-0.1,0.1-0.2,0.2-0.3s0.1-0.3,0.2-0.5s0.1-0.3,0.1-0.5c0-0.2,0.1-0.3,0.1-0.4
		c0.1-0.3,0.3-0.7,0.4-1c0.1-0.3,0.3-0.6,0.4-1c0.2-0.4,0.4-0.8,0.5-1.2c0.1-0.4,0.3-0.8,0.6-1.2l0.4-0.4c0,0.1,0.2,0.3,0.4,0.5
		s0.3,0.4,0.3,0.6c0,0.1,0,0.3-0.1,0.5c0,0.2-0.1,0.3-0.2,0.5c-0.1,0.2-0.1,0.3-0.2,0.5c0,0.2-0.1,0.3,0,0.4c0,0.1,0,0.3,0,0.5
		c0,0.2,0.1,0.3,0.2,0.4c0.1,0,0.1,0,0,0.1c0,0,0,0.1,0.1,0.1c0.1,0.1,0.1,0.2,0.1,0.3c0.1,0.1,0.2,0.3,0.2,0.5s0.1,0.4,0.1,0.5
		c0,0.3-0.1,0.4-0.2,0.4c-0.1,0-0.3,0-0.4,0.1C165.8,13.3,165.7,13.5,165.8,13.6 M159.6,25.3l-0.1-0.8l0.5-0.2l0,1.4L159.6,25.3z
		 M167,9.8l0,0.9l-0.6,0.1V10L167,9.8z M169.6,13.5c0.1-0.3,0.2-0.5,0.3-0.8c0-0.1,0.1-0.3,0.2-0.4s0.1-0.3,0.1-0.4
		c0-0.1,0-0.2-0.1-0.3c0-0.1-0.1-0.2-0.1-0.3c-0.1-0.5-0.2-1-0.2-1.5c0-0.1,0-0.3,0-0.4V8.9c0-0.1,0-0.3-0.1-0.4s0.1-0.2,0.3-0.2
		c0.1-0.3,0.1-0.6,0-0.8s-0.2-0.5-0.3-0.8c0-0.1,0-0.3-0.1-0.4c0-0.1,0-0.3-0.1-0.4c0-0.1,0-0.1-0.1-0.2c0-0.1,0-0.1-0.1-0.2
		s-0.1-0.1-0.2,0s-0.1,0-0.2,0c-0.1-0.1-0.1-0.2,0-0.4s0.1-0.3,0.1-0.4c0-0.1,0.1-0.3,0.1-0.4c0-0.1,0-0.2-0.1-0.4
		c-0.1-0.2-0.1-0.4-0.2-0.7c-0.1-0.3-0.2-0.5-0.5-0.5c-0.2,0-0.4,0.1-0.6,0.2c-0.2,0.1-0.4,0.2-0.6,0.3c-0.3,0.2-0.6,0.3-0.9,0.4
		c-0.3,0.1-0.6,0.2-0.9,0.3C165.2,4,165.1,4,165,4c-0.1,0-0.3,0.1-0.4,0.2c-0.1,0.1-0.2,0.3-0.1,0.4c0,0.1,0,0.3-0.1,0.4
		c-0.1,0.1-0.3,0.2-0.4,0.2c-0.1,0-0.3,0-0.4-0.1c-0.1-0.1-0.2-0.2-0.3-0.2s-0.2,0-0.4,0.1c-0.3,0.1-0.5,0.4-0.6,0.8
		c-0.1,0.4-0.3,0.7-0.4,1c-0.2,0.4-0.4,0.8-0.7,1.2c-0.2,0.4-0.4,0.8-0.5,1.2c0,0.1,0,0.2,0,0.2c0,0,0.1,0.1,0.1,0.1
		c0,0,0.1,0,0.1,0c0,0,0.1,0.1,0.1,0.2c0.1,0.1,0.1,0.3,0,0.5c-0.1,0.2-0.1,0.4-0.2,0.5c0,0.1-0.1,0.2-0.2,0.5
		c-0.1,0.2-0.1,0.3-0.2,0.4c-0.1,0-0.2,0.1-0.2,0c0,0,0-0.1,0-0.2s0-0.1,0-0.2c0-0.1,0-0.1,0-0.2c0-0.2-0.1-0.3-0.2-0.2
		c-0.1,0.1-0.1,0.2-0.2,0.3c-0.1,0.2-0.2,0.3-0.2,0.5c-0.1,0.2-0.1,0.3-0.1,0.3c-0.1,0.3-0.2,0.7-0.3,1c-0.1,0.3-0.2,0.7-0.4,1
		c-0.1,0.3-0.3,0.7-0.5,1s-0.3,0.6-0.5,1c0,0.1-0.1,0.3-0.2,0.4c-0.1,0.1-0.1,0.3-0.1,0.4c0,0.1,0,0.3,0.1,0.4
		c0,0.1,0.1,0.2,0.1,0.4c0.1,0.3,0.1,0.7,0.1,1.1c-0.1,0.4-0.1,0.8,0,1.1c0,0.2,0,0.3,0.1,0.4c0.1,0.1,0.2,0.1,0.2,0.1
		c0,0,0.1-0.1,0.2-0.1c0.2,0,0.3,0,0.3,0c0,0.1,0,0.2,0.1,0.4c0,0.1,0.1,0.3,0.1,0.4c0,0.1,0,0.3-0.1,0.5c-0.1,0.1-0.2,0.2-0.3,0.3
		c-0.1,0.1-0.2,0.2-0.3,0.3c0,0.1,0,0.2,0,0.4s0.1,0.3,0.2,0.4c0,0.2,0.1,0.3,0.1,0.5c0,0.2,0,0.4,0,0.5c0,0.3,0.1,0.7,0.1,1
		c0,0.3,0.1,0.7,0.1,1c0,0.1,0,0.3,0,0.4c0,0.2,0,0.3,0.1,0.5s0.1,0.3,0.1,0.4c0.1,0.1,0.2,0.2,0.3,0.2c0.2,0,0.3,0,0.4,0
		c0.1,0,0.1,0.1,0.1,0.3c0,0.2,0,0.3,0,0.4c0,0.1,0.1,0.1,0.3,0.1c0.1,0,0.3,0,0.5,0c0.2,0,0.4-0.1,0.4-0.2c0.1-0.1,0.2-0.3,0.1-0.4
		c0-0.1,0-0.3,0.1-0.4c0.1-0.1,0.2-0.1,0.2-0.1c0,0,0.1,0,0.1,0.1c0,0.1,0,0.1,0,0.2c0,0.1,0,0.1,0,0.2c0.1,0.1,0.2,0.2,0.4,0.1
		c0.1,0,0.3-0.1,0.4-0.1c0.1,0,0.2,0,0.2-0.1c0.1,0,0.1,0,0.2-0.1c0.1,0,0.2,0,0.3,0c0.1,0,0.2,0,0.2,0c0.2-0.1,0.3-0.2,0.3-0.3
		c0-0.1,0.1-0.3,0.1-0.4c0.1-0.1,0.2-0.2,0.3-0.4c0.1-0.1,0.2-0.2,0.3-0.4c0.1-0.1,0.2-0.2,0.3-0.4c0.1-0.1,0.2-0.3,0.3-0.4
		c0.1-0.1,0.2-0.2,0.3-0.4c0.1-0.1,0.2-0.2,0.3-0.4c0.1-0.2,0.2-0.3,0.2-0.3c0,0,0-0.1-0.1-0.3c0-0.2,0-0.3,0.1-0.3
		c0.1,0,0.2-0.1,0.3-0.2c0.1-0.1,0.2-0.2,0.3-0.4c0.1-0.2,0.2-0.3,0.3-0.5c0.2-0.3,0.4-0.5,0.6-0.8c0.2-0.3,0.4-0.5,0.6-0.8
		c0.1-0.3,0.2-0.6,0.3-0.9c0.1-0.3,0.1-0.6,0.2-0.9c0-0.3,0.1-0.7,0.3-1c0.1-0.4,0.2-0.7,0.3-1c0-0.1,0.1-0.3,0.1-0.4
		c0-0.2,0.1-0.3,0.1-0.4c0-0.1,0-0.2,0-0.3c0-0.1-0.1-0.1-0.2-0.1c-0.1,0-0.2,0-0.2,0.1c0,0.1-0.1,0-0.1-0.2c0-0.1,0-0.2,0.1-0.3
		c0-0.1,0.1-0.2,0.1-0.3c0-0.3,0.1-0.4,0.2-0.5c0.1-0.1,0.3-0.2,0.5-0.2C169.4,14,169.5,13.8,169.6,13.5 M155.6,6.1l-0.3,0.1l-0.7,0
		l0-0.2l1.1-0.3c0.1,0,0.3,0,0.4,0h0.4v0.1c0,0,0,0,0,0.1c0,0,0,0,0,0.1c0,0.1,0,0.1,0,0.2L155.6,6.1z M149.6,20.1
		c-0.1,0.1-0.1,0.2-0.1,0.2v0.1c0,0.1,0,0.2,0,0.3l-0.1,0.4l-0.3,0.1c0-0.1,0-0.3,0-0.4c0-0.1,0-0.2,0-0.3s0-0.1,0-0.2
		c0,0,0-0.1,0-0.1c0-0.1,0-0.2,0-0.3c0-0.1,0-0.2,0-0.3c0.1-0.1,0.2-0.1,0.3-0.2c0.1-0.1,0.2-0.2,0.3-0.2c0,0.1,0,0.1,0,0.2
		c0,0.1,0.1,0.2,0.1,0.3c0,0,0,0.1,0,0.1s0,0.1-0.1,0.1C149.7,19.9,149.7,20,149.6,20.1 M159.8,3.7c-0.4,0-0.6,0.1-0.8,0.1
		c-0.1,0-0.2,0-0.3,0c-0.1,0-0.2-0.1-0.2-0.2c-0.1-0.1-0.1-0.2-0.1-0.3c0-0.1-0.1-0.1-0.3-0.1c-0.3,0-0.5,0.1-0.8,0.2
		c-0.3,0.1-0.6,0.1-0.8,0.2c-0.3,0-0.6,0.1-0.9,0.1s-0.6,0.1-0.9,0.2c-0.3,0-0.5,0.1-0.7,0.2c-0.2,0.1-0.5,0.1-0.7,0.2
		c-0.3,0-0.5,0.1-0.7,0.1c-0.2,0-0.4,0.2-0.5,0.4c0,0.1-0.1,0.3-0.1,0.4c0,0.1-0.1,0.3-0.1,0.4c0,0.1,0,0.2-0.1,0.4
		s-0.1,0.3-0.1,0.4c-0.1,0.1-0.2,0.1-0.3,0c-0.1-0.1-0.2-0.1-0.3,0c-0.1,0.1-0.1,0.2-0.2,0.4c0,0.1,0,0.3-0.1,0.4
		c0,0.3-0.1,0.5-0.2,0.8c-0.1,0.3-0.2,0.5-0.2,0.8c0,0.1-0.1,0.3-0.1,0.4s0,0.3,0,0.4c0,0.2,0.1,0.2,0.2,0.2s0.2,0,0.2,0.2
		c0,0.1,0.1,0.2,0,0.3s-0.1,0.2-0.1,0.3c0,0.1-0.1,0.2-0.1,0.3c0,0.1,0,0.2,0,0.3c0,0.2,0,0.5-0.1,0.7c-0.1,0.3-0.2,0.5-0.4,0.6
		c-0.1,0.1-0.2,0.1-0.2,0.1c0,0-0.1,0.1-0.1,0.3c0,0.1-0.1,0.3-0.1,0.4s0,0.3,0,0.4c-0.1,0.6-0.2,1.2-0.4,1.8
		c-0.2,0.6-0.3,1.2-0.4,1.8c-0.1,0.5-0.2,1-0.3,1.4s-0.2,0.9-0.3,1.4c0,0.2-0.1,0.4-0.1,0.5c0,0.2-0.1,0.3-0.1,0.5
		c0,0.1-0.1,0.3-0.2,0.4s-0.1,0.3-0.1,0.4c0,0.2,0.1,0.3,0.2,0.2c0.1-0.1,0.2,0,0.3,0.1c0.1,0,0.1,0.2,0.1,0.4
		c0,0.2-0.1,0.3-0.1,0.4c-0.1,0.1-0.2,0.2-0.3,0.2c-0.1,0-0.2,0.1-0.3,0.2c-0.1,0.1-0.1,0.2-0.1,0.4c0,0.1,0,0.3,0,0.4
		c0,0.2,0,0.4-0.1,0.5c0,0.2-0.1,0.3-0.1,0.5c-0.1,0.6-0.3,1.2-0.3,1.8c0,0.1,0,0.2,0,0.3c0,0.1,0,0.3,0,0.4s0.1,0.2,0.2,0.2
		s0.2,0,0.4,0c0.1-0.1,0.2-0.2,0.3-0.3s0-0.2,0-0.4s0-0.3,0.1-0.4c0-0.1,0.1-0.2,0.3-0.3c0.2-0.1,0.3-0.1,0.3,0s0,0.2,0,0.3
		c0,0.1,0,0.2,0,0.4c0,0.1,0,0.2,0,0.4c0,0.1,0,0.2-0.1,0.4c0,0.1,0,0.2,0.1,0.3c0,0.1,0.1,0.1,0.3,0.1s0.3,0,0.3-0.1
		c0.1-0.1,0.1-0.2,0.2-0.3s0.1-0.3,0.1-0.5c0-0.2,0.1-0.3,0.1-0.5c0-0.2,0.1-0.3,0.1-0.4c0-0.1,0.1-0.3,0.1-0.4
		c0-0.2,0.1-0.3,0.1-0.4c0.1-0.2,0.2-0.3,0.3-0.1s0.1,0.2,0.1,0.3c0.1,0.1,0.2,0.2,0.3,0.1c0.1-0.1,0.1-0.2,0.2-0.3
		c0.1-0.2,0.1-0.3,0.1-0.5c0-0.2,0-0.3,0.1-0.4c0-0.2,0.1-0.3,0.2-0.5c0.1-0.2,0.1-0.3,0.2-0.5c0-0.1,0-0.2-0.1-0.3
		c-0.1-0.1-0.1-0.2-0.1-0.3c0-0.1,0-0.3,0.1-0.4c0.1-0.1,0.1-0.3,0.2-0.4c0-0.2,0-0.3,0-0.3s0.1-0.1,0.2-0.3
		c0.1-0.1,0.2-0.2,0.2-0.3c0-0.1,0-0.2,0.1-0.3c0-0.1,0-0.3,0.1-0.4c0-0.1,0-0.3,0.1-0.4c0-0.2,0.1-0.5,0.2-0.8s0.2-0.5,0.4-0.7
		c0.2-0.1,0.3-0.2,0.5-0.2h0.4c0.2,0,0.4,0,0.6-0.1c0.2,0,0.4-0.1,0.6-0.1c0.3,0,0.5-0.1,0.8-0.1c0.3,0,0.5-0.1,0.8-0.2
		c0.1,0,0.2,0,0.4-0.1c0.1,0,0.2-0.1,0.3-0.2c0.1-0.1,0.1-0.2,0.1-0.4c0-0.1-0.1-0.2-0.2-0.3c-0.1,0-0.2,0-0.4,0
		c-0.2,0-0.4,0.1-0.5,0.1c-0.2,0-0.3,0-0.4,0c-0.1,0-0.2-0.1-0.1-0.3c0-0.1,0.2-0.2,0.3-0.3c0.2,0,0.3-0.1,0.4-0.1
		c0.2,0,0.3-0.1,0.3-0.2s0-0.2,0-0.4c0-0.1,0-0.2,0-0.3c0.1,0,0.2-0.1,0.3-0.1c0.1,0,0.3-0.1,0.4-0.1s0.3-0.1,0.3-0.2
		c0.1-0.2,0.2-0.3,0.1-0.4c0-0.1-0.1-0.2-0.2-0.2c-0.1,0-0.2-0.1-0.4-0.1h-0.4c-0.3,0-0.6,0.1-0.9,0.3c-0.3,0.1-0.6,0.2-0.8,0.1
		c-0.2,0-0.3-0.1-0.3-0.2s-0.2-0.1-0.3-0.1s-0.3,0.1-0.5,0.1c-0.2,0-0.3,0.1-0.4,0.1c0-0.3,0.1-0.7,0.2-1c0.1-0.3,0.2-0.6,0.3-1
		c0-0.1,0.1-0.3,0.2-0.5c0.1-0.2,0.1-0.4,0-0.4c-0.1-0.1-0.2-0.1-0.3,0.1c-0.1,0.2-0.2,0.3-0.3,0.4c-0.1-0.1-0.1-0.2-0.1-0.3
		c0.1-0.1,0.1-0.2,0.2-0.4c0.1-0.1,0.1-0.3,0.1-0.4c0-0.1,0.1-0.3,0.1-0.5c0-0.1,0.1-0.3,0.1-0.4c0-0.1,0.1-0.3,0.1-0.4
		c0.1-0.2,0.2-0.2,0.2-0.2c0.1,0,0.2,0.1,0.3,0.2c0.1-0.1,0.1-0.2,0.2-0.4c0-0.1,0-0.3,0.1-0.4c0-0.2,0.1-0.3,0.1-0.5
		c0-0.1,0.1-0.3,0.1-0.4c0.1-0.3,0.1-0.5,0.2-0.8c0-0.3,0.1-0.5,0.1-0.8c0.4-0.1,0.7-0.2,1-0.2c0.3,0,0.7-0.1,1-0.1
		c0.3,0,0.5-0.1,0.8-0.2s0.5-0.1,0.8-0.2c0.2,0,0.5-0.1,0.8-0.1s0.6-0.2,0.7-0.4c0.1-0.2,0.2-0.3,0.2-0.4s-0.1-0.1-0.2-0.2
		c-0.1,0-0.2,0-0.3,0c-0.1,0-0.3,0-0.4,0.1c-0.2,0-0.4,0.1-0.6,0c-0.2,0-0.2-0.2-0.2-0.5c0.3-0.1,0.5-0.2,0.8-0.2
		c0.3,0,0.5-0.1,0.8-0.1c0.2,0,0.3-0.1,0.3-0.1c0.1,0,0.1-0.1,0.2-0.3c0-0.1,0-0.2,0-0.4c0-0.2,0-0.3-0.1-0.3
		C160.4,3.7,160.2,3.7,159.8,3.7 M137.7,10.3c0,0,0-0.1-0.1-0.1c0-0.1,0-0.1-0.1-0.2l0-0.4l0.3-0.2l0.1-0.6l0.3,0.1l0,0.8
		c-0.1,0.1-0.1,0.3-0.2,0.4c0,0.1-0.1,0.2-0.1,0.3C137.7,10.2,137.7,10.2,137.7,10.3C137.7,10.3,137.7,10.3,137.7,10.3 M144.5,2.2
		c-0.2,0-0.5,0-0.8,0.1c-0.3,0.1-0.6,0.1-0.8,0.1c-0.3,0-0.4,0-0.3-0.2c0.1,0,0.3,0,0.5-0.1c0.2,0,0.4,0,0.6-0.1
		c0.2,0,0.4-0.1,0.5-0.1c0.2-0.1,0.3-0.2,0.4-0.3c0.1-0.3,0.2-0.5,0.1-0.6c-0.1-0.1-0.2-0.1-0.4-0.1c-0.2,0-0.4,0-0.6,0.1
		c-0.2,0-0.4,0.1-0.5,0.1c-0.2,0-0.4,0.1-0.5,0.1c-0.1,0-0.2,0-0.2-0.1c0,0-0.1,0-0.2-0.1c-0.2,0-0.3-0.1-0.4,0
		c-0.1,0-0.3,0.1-0.5,0.1c-0.1,0-0.3,0-0.5,0c-0.2,0-0.4,0-0.6,0.1c-0.2,0-0.4,0.1-0.5,0.2c-0.1,0.1-0.2,0.2-0.1,0.4l0,0
		c-0.5,0.1-0.9,0.2-1.4,0.3c-0.4,0.1-0.9,0.2-1.3,0.3c-0.1,0-0.3,0-0.5,0.1c-0.2,0-0.4,0.1-0.6,0.1c-0.2,0-0.4,0.1-0.6,0.2
		c-0.2,0.1-0.3,0.2-0.5,0.3c-0.1,0.2-0.2,0.4-0.1,0.4s0.3,0.1,0.5,0.1c0.2,0,0.4,0,0.7-0.1c0.2,0,0.4-0.1,0.5-0.1
		c0.1,0,0.3,0,0.4,0.1c0.2,0,0.1,0.2-0.1,0.4C136.5,4,136.4,4,136.1,4c-0.3,0-0.4,0-0.6,0.1c-0.2,0-0.4,0.1-0.6,0.1
		c-0.2,0-0.4,0.1-0.5,0.4c-0.2,0.2-0.3,0.4-0.2,0.5s0.2,0.1,0.4,0.2c0.3,0,0.7,0,1.1-0.1c0.4-0.1,0.8-0.2,1.2-0.2h0.1
		c-0.1,0.3-0.2,0.5-0.2,0.8c-0.1,0.3-0.1,0.6-0.2,0.8c0,0.2-0.1,0.3-0.1,0.5c0,0.1,0,0.3,0.1,0.4c0,0,0.1,0.1,0.1,0c0,0,0.1,0,0.1,0
		c0,0,0,0.1,0,0.2c0,0.1,0,0.2-0.1,0.2c0,0.2-0.1,0.4-0.1,0.5c0,0.1-0.2,0.2-0.3,0.3c-0.1,0.1-0.2,0.2-0.2,0.3
		c0,0.1-0.1,0.2-0.1,0.4c-0.1,0.4-0.2,0.8-0.2,1.1c0,0.4-0.1,0.7-0.1,1.1c0,0.3-0.1,0.7-0.2,1c-0.1,0.3-0.2,0.6-0.3,1
		c0,0,0,0.1,0,0.2c0,0.1,0,0.2,0,0.2c0,0.1,0.1,0.1,0.2,0.1c0.1,0,0.1,0,0.1,0c0.1,0.1,0.1,0.2,0.1,0.4c0,0.2-0.1,0.3-0.1,0.4
		c-0.1,0.3-0.2,0.7-0.3,1c-0.1,0.3-0.2,0.6-0.2,0.9c0,0.2-0.1,0.5-0.1,0.9c0,0.4-0.1,0.7-0.3,0.8c-0.2-0.1-0.3-0.1-0.4-0.1
		c-0.1,0.1-0.1,0.2-0.2,0.3c0,0.1-0.1,0.3-0.1,0.5c0,0.2,0,0.3-0.1,0.4c-0.1,0.5-0.3,1.1-0.4,1.6c-0.1,0.5-0.3,1.1-0.4,1.6
		c0,0.2-0.1,0.4-0.1,0.6c0,0.2-0.1,0.4-0.1,0.6c0,0.2-0.1,0.4-0.1,0.6c0,0.2-0.1,0.4-0.1,0.6c0,0.1-0.1,0.3-0.1,0.4
		c0,0.2,0,0.3,0.1,0.4c0.1,0.1,0.2,0.2,0.3,0.1c0.1,0,0.2,0,0.4,0c0.3,0,0.4,0.2,0.4,0.5c0,0.3,0,0.6-0.1,0.8v0.3
		c0,0.2,0,0.3,0.1,0.4c0,0.1,0.1,0.2,0.2,0.2c0.1,0,0.2,0,0.3-0.2c0.2-0.2,0.3-0.4,0.3-0.8c0-0.3,0.1-0.6,0.1-0.8
		c0-0.1,0.1-0.2,0.1-0.4c0-0.2,0.1-0.3,0.2-0.5c0.1-0.1,0.1-0.2,0.2-0.3c0.1,0,0.2,0,0.2,0.2c0,0.1,0.1,0.2,0,0.3
		c0,0.1,0.1,0.1,0.3,0.1c0.1,0,0.2,0,0.3-0.1c0.1-0.1,0.2-0.2,0.3-0.2c0.1-0.1,0.1-0.3,0.1-0.4c0-0.2,0-0.3,0.1-0.5
		c0-0.2,0-0.4,0.1-0.5c0-0.2,0-0.3,0.1-0.5c0.1-0.7,0.3-1.3,0.6-2c0.2-0.7,0.4-1.3,0.6-2c0-0.2,0.1-0.5,0.2-0.7
		c0.1-0.2,0.1-0.5,0.2-0.7c0-0.1,0.1-0.3,0.1-0.5c0-0.2,0-0.4,0-0.4c0-0.1-0.1-0.1-0.1-0.1c0,0-0.1,0-0.1,0.1c0,0-0.1,0.1-0.1,0.1
		c0,0-0.1,0-0.1-0.1c0-0.1,0-0.2,0.1-0.5c0.1-0.2,0.1-0.4,0.2-0.5c0-0.1,0.1-0.3,0.1-0.4c0-0.1,0.1-0.3,0.2-0.4
		c0.1-0.1,0.2-0.2,0.3-0.2c0.1,0,0.2-0.1,0.3-0.3c0.1-0.1,0.1-0.3,0.1-0.4s0-0.3,0.1-0.5c0.1-0.2,0.1-0.4,0.2-0.6
		c0.1-0.2,0.1-0.4,0.2-0.6l0.3-1.5c0-0.2,0.1-0.4,0.2-0.7c0.1-0.2,0.2-0.5,0.2-0.7c0-0.2,0-0.3-0.1-0.3c-0.1,0-0.2,0-0.3-0.1
		c-0.1-0.1-0.1-0.2,0-0.4c0.1-0.1,0.1-0.3,0.2-0.4c0.1-0.3,0.2-0.7,0.2-1c0-0.3,0.1-0.6,0.2-1c0-0.1,0-0.1,0-0.2s0-0.1,0.1-0.2
		c0-0.1,0.1-0.1,0.2-0.1c0.1,0,0.1,0,0.2-0.1c0.1-0.1,0.1-0.3,0.2-0.4c0-0.2,0-0.3,0.1-0.4c0-0.2,0.1-0.3,0.1-0.5s0.1-0.3,0.1-0.5
		c0.4-0.1,0.7-0.2,0.8-0.3c0.1-0.1,0.2-0.2,0.2-0.3c0-0.1,0.1-0.2,0.1-0.3c0.1,0,0.3,0,0.6-0.1c0.3,0,0.6-0.1,0.9-0.2
		c0.3-0.1,0.6-0.2,0.8-0.3c0.2-0.1,0.4-0.3,0.4-0.5C144.8,2.4,144.7,2.2,144.5,2.2 M131.3,18.6l-0.4-0.1l0.3-1.4l0.5,0.1l-0.1,0.6
		L131.3,18.6z M129.5,13.6c0,0.2,0,0.3,0,0.4c0,0.2-0.1,0.4-0.1,0.6c0,0.2-0.1,0.4-0.1,0.5c-0.1,0.3-0.2,0.7-0.2,1
		c-0.1,0.3-0.1,0.7-0.2,1c0,0.2-0.1,0.4-0.1,0.5c0,0.2,0,0.3-0.1,0.5c0,0.2-0.1,0.3-0.2,0.5c-0.1,0.2-0.1,0.3-0.2,0.5
		c-0.1,0.2-0.1,0.3-0.2,0.5c-0.1,0.1-0.2,0.3-0.3,0.4c-0.1,0.1-0.2,0.3-0.3,0.5c-0.1,0.2,0,0.2,0.3,0.1c0.1,0,0.1-0.1,0.2-0.1
		c0.1-0.1,0.1-0.1,0.2-0.2c0,0,0.1-0.1,0.1-0.1c0,0,0.1,0.1,0.1,0.2c0,0.1,0,0.3-0.1,0.5c-0.1,0.2-0.2,0.4-0.3,0.5
		c-0.1,0.1-0.2,0.2-0.3,0.3c-0.1,0-0.2,0-0.4,0c0,0-0.1-0.1-0.1-0.2c0-0.1,0-0.1-0.2-0.1c-0.1,0-0.2,0.1-0.2,0.2
		c0,0.1-0.1,0.1-0.1,0.2c-0.2,0.2-0.4,0.5-0.6,0.8c-0.2,0.3-0.4,0.5-0.4,0.8c0-0.2,0-0.5,0-0.8s0-0.5-0.1-0.8
		c-0.1-0.6-0.1-1.3-0.2-1.9c0-0.6-0.1-1.3-0.2-1.9c0-0.3-0.1-0.6-0.1-0.9c-0.1-0.3,0-0.6,0.2-0.9c0.1-0.1,0.2-0.3,0.3-0.4
		c0.1-0.1,0.2-0.2,0.3-0.4c0.1-0.4,0-0.6-0.4-0.6c0-0.1,0.1-0.2,0.1-0.4c0.1-0.2,0.2-0.3,0.3-0.4c0.1-0.1,0.1-0.1,0.2-0.2
		c0,0,0.1,0,0.1,0c0,0,0.1,0,0.1,0c0,0,0.1,0,0.2-0.1c0.1-0.1,0.1-0.2,0.2-0.3c0.1-0.1,0.1-0.3,0.2-0.5c0-0.2,0.1-0.3,0.1-0.5
		c0-0.2,0.1-0.3,0.1-0.4c0.1-0.3,0.3-0.7,0.4-1c0.1-0.3,0.3-0.6,0.4-1c0.2-0.4,0.4-0.8,0.5-1.2c0.1-0.4,0.3-0.8,0.6-1.2l0.4-0.4
		c0,0.1,0.2,0.3,0.4,0.5c0.2,0.2,0.3,0.4,0.3,0.6c0,0.1,0,0.3-0.1,0.5c0,0.2-0.1,0.3-0.2,0.5c-0.1,0.2-0.1,0.3-0.2,0.5
		c0,0.2-0.1,0.3,0,0.4c0,0.1,0,0.3,0,0.5c0,0.2,0.1,0.3,0.2,0.4c0.1,0,0.1,0,0,0.1c0,0,0,0.1,0.1,0.1c0.1,0.1,0.1,0.2,0.1,0.3
		c0.1,0.1,0.1,0.3,0.2,0.5c0.1,0.2,0.1,0.4,0.1,0.5c0,0.3-0.1,0.4-0.2,0.4c-0.1,0-0.3,0-0.4,0.1C129.6,13.3,129.5,13.5,129.5,13.6
		 M123.4,25.3l-0.1-0.8l0.5-0.2l0,1.4L123.4,25.3z M130.8,9.8l0,0.9l-0.6,0.1V10L130.8,9.8z M133.4,13.5c0.1-0.3,0.2-0.5,0.3-0.8
		c0-0.1,0.1-0.3,0.2-0.4c0.1-0.2,0.1-0.3,0.1-0.4c0-0.1,0-0.2-0.1-0.3c0-0.1-0.1-0.2-0.1-0.3c-0.1-0.5-0.2-1-0.2-1.5
		c0-0.1,0-0.3,0-0.4V8.9c0-0.1,0-0.3-0.1-0.4c0-0.1,0.1-0.2,0.3-0.2c0.1-0.3,0.1-0.6,0-0.8s-0.2-0.5-0.3-0.8c0-0.1,0-0.3-0.1-0.4
		c0-0.1,0-0.3-0.1-0.4c0-0.1,0-0.1-0.1-0.2c0-0.1,0-0.1-0.1-0.2c0,0-0.1-0.1-0.2,0c-0.1,0-0.2,0-0.2,0c-0.1-0.1-0.1-0.2,0-0.4
		c0.1-0.2,0.1-0.3,0.1-0.4c0-0.1,0.1-0.3,0.1-0.4c0-0.1,0-0.2-0.1-0.4c-0.1-0.2-0.1-0.4-0.2-0.7c-0.1-0.3-0.2-0.5-0.5-0.5
		c-0.2,0-0.4,0.1-0.6,0.2c-0.2,0.1-0.4,0.2-0.6,0.3c-0.3,0.2-0.6,0.3-0.9,0.4c-0.3,0.1-0.6,0.2-0.9,0.3C129,4,128.9,4,128.7,4
		c-0.1,0-0.3,0.1-0.4,0.2c-0.1,0.1-0.2,0.3-0.1,0.4c0,0.1,0,0.3-0.1,0.4c-0.1,0.1-0.3,0.2-0.4,0.2c-0.1,0-0.3,0-0.4-0.1
		c-0.1-0.1-0.2-0.2-0.3-0.2c-0.1-0.1-0.2,0-0.4,0.1c-0.3,0.1-0.5,0.4-0.6,0.8c-0.1,0.4-0.3,0.7-0.4,1c-0.2,0.4-0.4,0.8-0.7,1.2
		c-0.2,0.4-0.4,0.8-0.5,1.2c0,0.1,0,0.2,0,0.2c0,0,0.1,0.1,0.1,0.1c0,0,0.1,0,0.1,0c0,0,0.1,0.1,0.1,0.2c0.1,0.1,0.1,0.3,0,0.5
		c-0.1,0.2-0.1,0.4-0.2,0.5c0,0.1-0.1,0.2-0.2,0.5c-0.1,0.2-0.1,0.3-0.2,0.4c-0.1,0-0.2,0.1-0.2,0c0,0,0-0.1,0-0.2s0-0.1,0-0.2
		c0-0.1,0-0.1,0-0.2c0-0.2-0.1-0.3-0.2-0.2c-0.1,0.1-0.2,0.2-0.2,0.3c-0.1,0.2-0.2,0.3-0.2,0.5c-0.1,0.2-0.1,0.3-0.1,0.3
		c-0.1,0.3-0.2,0.7-0.3,1c-0.1,0.3-0.2,0.7-0.4,1c-0.1,0.3-0.3,0.7-0.5,1c-0.2,0.3-0.3,0.6-0.5,1c0,0.1-0.1,0.3-0.2,0.4
		c-0.1,0.1-0.1,0.3-0.1,0.4c0,0.1,0,0.3,0.1,0.4c0,0.1,0.1,0.2,0.1,0.4c0.1,0.3,0.1,0.7,0.1,1.1c-0.1,0.4-0.1,0.8,0,1.1
		c0,0.2,0,0.3,0.1,0.4c0.1,0.1,0.2,0.1,0.2,0.1c0,0,0.1-0.1,0.2-0.1c0.2,0,0.3,0,0.3,0c0,0.1,0,0.2,0.1,0.4c0,0.1,0.1,0.3,0.1,0.4
		c0,0.1,0,0.3-0.1,0.5c-0.1,0.1-0.2,0.2-0.3,0.3c-0.1,0.1-0.2,0.2-0.3,0.3c0,0.1,0,0.2,0,0.4c0.1,0.1,0.1,0.3,0.2,0.4
		c0,0.2,0.1,0.3,0.1,0.5c0,0.2,0,0.4,0,0.5c0,0.3,0.1,0.7,0.1,1c0,0.3,0.1,0.7,0.1,1c0,0.1,0,0.3,0,0.4c0,0.2,0,0.3,0.1,0.5
		c0,0.2,0.1,0.3,0.1,0.4c0.1,0.1,0.2,0.2,0.3,0.2c0.2,0,0.3,0,0.4,0s0.1,0.1,0.1,0.3c0,0.2,0,0.3,0,0.4c0,0.1,0.1,0.1,0.3,0.1
		c0.1,0,0.3,0,0.5,0c0.2,0,0.4-0.1,0.4-0.2c0.1-0.1,0.2-0.3,0.1-0.4c0-0.1,0-0.3,0.1-0.4C124.9,27,125,27,125,27c0,0,0.1,0,0.1,0.1
		c0,0.1,0,0.1,0,0.2c0,0.1,0,0.1,0,0.2c0.1,0.1,0.2,0.2,0.4,0.1c0.1,0,0.3-0.1,0.4-0.1c0.1,0,0.2,0,0.2-0.1c0.1,0,0.1,0,0.2-0.1
		c0.1,0,0.2,0,0.3,0c0.1,0,0.2,0,0.2,0c0.2-0.1,0.3-0.2,0.3-0.3c0-0.1,0.1-0.3,0.1-0.4c0.1-0.1,0.2-0.2,0.3-0.4
		c0.1-0.1,0.2-0.2,0.3-0.4c0.1-0.1,0.2-0.2,0.3-0.4c0.1-0.1,0.2-0.3,0.3-0.4c0.1-0.1,0.2-0.2,0.3-0.4c0.1-0.1,0.2-0.2,0.3-0.4
		c0.1-0.2,0.2-0.3,0.2-0.3c0,0,0-0.1-0.1-0.3c0-0.2,0-0.3,0.1-0.3c0.1,0,0.2-0.1,0.3-0.2c0.1-0.1,0.2-0.2,0.3-0.4
		c0.1-0.2,0.2-0.3,0.3-0.5c0.2-0.3,0.4-0.5,0.6-0.8c0.2-0.3,0.4-0.5,0.6-0.8c0.1-0.3,0.2-0.6,0.3-0.9c0.1-0.3,0.1-0.6,0.2-0.9
		c0-0.3,0.1-0.7,0.3-1c0.1-0.4,0.2-0.7,0.3-1c0-0.1,0.1-0.3,0.1-0.4c0-0.2,0.1-0.3,0.1-0.4c0-0.1,0-0.2,0-0.3c0-0.1-0.1-0.1-0.2-0.1
		c-0.1,0-0.2,0-0.2,0.1c0,0.1-0.1,0-0.1-0.2c0-0.1,0-0.2,0.1-0.3c0-0.1,0.1-0.2,0.1-0.3c0-0.3,0.1-0.4,0.2-0.5
		c0.1-0.1,0.3-0.2,0.5-0.2C133.2,14,133.3,13.8,133.4,13.5 M121,7.1c-0.1,0-0.2,0-0.2,0c0,0,0-0.2,0.1-0.4c0-0.3,0-0.4,0-0.4
		c0,0,0,0,0-0.1c0-0.1,0-0.1,0-0.2c0-0.1,0-0.1,0-0.2l0.3-0.1l0.1,0.4c0,0.2-0.1,0.3-0.1,0.5c0,0.2-0.1,0.3-0.1,0.4
		c0,0.1,0,0.1,0,0.1S121.1,7,121,7.1 M116.5,13.6c0,0,0-0.1,0-0.3c0-0.1,0-0.2,0-0.3l-0.1-0.1c0,0,0,0-0.1-0.1c0,0,0,0-0.1-0.1
		c-0.1,0-0.1-0.1-0.2-0.2l0.3-0.7c0.1,0,0.2-0.1,0.3-0.2c0.1,0,0.2-0.1,0.3-0.1c0.1,0,0.1-0.1,0.1-0.1c0,0,0,0.1,0,0.1
		c0,0.1-0.1,0.2-0.1,0.2c0,0-0.1,0.1-0.2,0.2s-0.1,0.2-0.1,0.2c0,0,0,0.1,0.1,0.2c0,0,0.1,0.1,0.1,0.1v0.6L116.5,13.6z M118.9,23.1
		c0,0-0.1,0-0.2,0h-0.2c-0.1,0-0.1,0-0.1-0.1c0,0,0-0.2,0-0.5s0.1-0.4,0.1-0.5c0.1-0.1,0.2-0.2,0.4-0.2c0.1,0,0.2-0.1,0.4-0.4
		c0-0.2,0.1-0.3,0.1-0.5c0-0.2,0-0.3,0-0.5c0-0.3,0.1-0.7,0.2-1s0.2-0.7,0.2-1c0-0.2,0.1-0.5,0.1-0.7c0-0.2,0.1-0.4,0.1-0.7
		c0.1-0.5,0.2-0.9,0.3-1.3c0.1-0.4,0.2-0.9,0.3-1.4c0-0.1,0.1-0.3,0.1-0.5s0.1-0.4,0.2-0.6c0-0.2,0.1-0.4,0-0.5
		c0-0.1-0.1-0.2-0.3-0.3c-0.1,0.1-0.2,0.3-0.2,0.4s-0.1,0.3-0.3,0.3c-0.1-0.2-0.2-0.4-0.1-0.7c0.1-0.3,0.2-0.6,0.2-0.8
		c0-0.1,0.1-0.2,0.1-0.4c0.1-0.2,0.1-0.3,0.2-0.4c0.1-0.1,0.2-0.2,0.3-0.2c0.1,0,0.2,0.1,0.3,0.3c0.3-0.2,0.4-0.5,0.4-0.9
		c0-0.3,0.1-0.7,0.2-1s0.2-0.6,0.2-0.9c0.1-0.3,0.1-0.6,0.2-1c0.1-0.5,0.2-1,0.3-1.4c0.1-0.5,0.2-0.9,0.3-1.4c0-0.2,0.1-0.3,0.1-0.5
		c0-0.2,0.1-0.3,0.1-0.5c0-0.2,0.1-0.3,0.1-0.4c0-0.1-0.1-0.2-0.2-0.3c-0.1-0.1-0.2-0.1-0.4-0.2c-0.1,0-0.3,0-0.4,0.2
		C122.1,2.7,122,2.9,122,3c0,0.2,0,0.3,0,0.5c-0.1,0.1-0.1,0.2-0.2,0.3c0,0-0.1,0-0.2,0c-0.1,0-0.1,0-0.2,0c-0.1,0-0.1,0-0.2,0.1
		c-0.1,0-0.1,0.1-0.1,0.2c0,0.1,0,0.1,0,0.2c0,0.1,0,0.1-0.1,0.2c0,0.1-0.1,0.1-0.3,0.1c-0.2,0-0.3,0-0.3-0.2c0-0.1,0-0.3,0.1-0.5
		c0-0.1,0.1-0.2,0.1-0.4s0.1-0.3,0.2-0.5c0-0.2,0-0.3,0-0.4c0-0.1-0.1-0.2-0.2-0.3c-0.2,0-0.3,0-0.5,0.1c-0.1,0.1-0.2,0.2-0.3,0.4
		c-0.1,0.1-0.1,0.3-0.1,0.5s0,0.3-0.1,0.5c0,0.2-0.1,0.3-0.1,0.4c0,0.1-0.1,0.2-0.1,0.4c-0.1,0.2-0.1,0.3-0.1,0.4
		c0,0,0.1,0.2,0.1,0.3c0,0.1,0,0.3-0.1,0.4c-0.1,0.2-0.1,0.3-0.2,0.5c0,0.1,0,0.1-0.1,0.2s0,0.2-0.1,0.2c0,0.1-0.1,0.1-0.2,0.2
		c-0.1,0-0.1,0.1-0.1,0.2c0,0.1,0,0.2,0.1,0.2c0,0,0.1,0,0.2,0.1c0.1,0,0.1,0.1,0.2,0.1c0,0,0.1,0.1,0,0.3c0,0.2-0.1,0.3-0.3,0.3
		c-0.1,0-0.2,0.1-0.3,0.2c-0.1,0.1-0.1,0.3-0.2,0.5c0,0.2-0.1,0.3-0.1,0.5c0,0.2-0.1,0.3-0.1,0.5c0,0.2-0.1,0.3-0.2,0.5
		c-0.1-0.1-0.1-0.3-0.1-0.6c0-0.3,0-0.7-0.1-1s-0.1-0.7-0.1-0.9c0-0.3-0.1-0.4-0.3-0.4c-0.1,0.3-0.2,0.4-0.3,0.4
		c-0.1,0-0.2,0-0.2-0.1c-0.1-0.1-0.1-0.2-0.1-0.4c0-0.2,0-0.3,0-0.4c0-0.2,0-0.3,0-0.5c0-0.1,0.1-0.2,0.1-0.2c0,0,0.1-0.1,0.2-0.2
		c0.1-0.1,0.2-0.3,0.3-0.4c0.1-0.1,0.1-0.2,0.1-0.4c0-0.1,0-0.3,0-0.4c0-0.1-0.1-0.3-0.1-0.4c0-0.1,0-0.3,0-0.4c0-0.2,0-0.3,0-0.5
		c0-0.2,0.1-0.5,0.1-0.9c0.1-0.4,0-0.7-0.1-0.8c0-0.1-0.1-0.1-0.2-0.1c-0.1,0-0.1,0-0.2,0s-0.1,0-0.1,0c0,0-0.1-0.1-0.1-0.2
		c0-0.2,0.1-0.3,0.2-0.5c0.1-0.2,0.1-0.3,0.1-0.5c0-0.1-0.2-0.2-0.3-0.2s-0.3,0-0.4,0.1c-0.2,0.1-0.3,0.2-0.4,0.3
		c0,0.1-0.1,0.2-0.2,0.4c0,0.1-0.1,0.2-0.2,0.4s-0.1,0.4-0.2,0.6c-0.1,0.2-0.2,0.3-0.3,0.5s-0.2,0.1-0.3,0s-0.1-0.3,0-0.4
		c0.1-0.2,0.1-0.3,0-0.4c-0.1-0.1-0.3-0.1-0.4,0c-0.1,0.1-0.2,0.2-0.3,0.4c-0.1,0.3-0.2,0.7-0.3,1c0,0.3-0.1,0.7-0.3,1
		c0,0.1-0.1,0.2-0.1,0.4c-0.1,0.2-0.1,0.4-0.2,0.5c-0.1,0.2-0.1,0.3-0.1,0.5c0,0.2,0,0.3,0.1,0.3c0.1,0,0.1,0.1,0.2,0
		c0.1,0,0.1-0.1,0.2-0.1c0.1,0,0.1-0.1,0.2-0.1c0,0,0.1,0,0.1,0c0.1,0,0.1,0.2,0,0.4s-0.1,0.4-0.2,0.5c-0.1,0.2-0.1,0.3-0.2,0.4
		c-0.1,0-0.2,0.1-0.3,0.3c-0.2,0.1-0.3,0.2-0.3,0.3c-0.1,0.1-0.1,0.2-0.1,0.4c0,0.2,0,0.4,0,0.5s0,0.3-0.1,0.5
		c0,0.1-0.1,0.2-0.1,0.3c0,0.1-0.1,0.2-0.1,0.3c0,0.1,0,0.1,0,0.2c0,0,0,0.1,0,0.2c0,0.2,0,0.3-0.1,0.5c-0.1,0.2-0.2,0.4-0.3,0.6
		c-0.1,0.3-0.2,0.6-0.2,0.9c0.2,0,0.3,0,0.5,0c0.2,0,0.2,0.1,0.2,0.4c0,0.2-0.1,0.3-0.3,0.4c-0.1,0-0.3,0.1-0.4,0.2
		c-0.3,0.1-0.4,0.4-0.5,0.7s-0.2,0.7-0.2,0.9c-0.1,0.4-0.2,0.8-0.4,1.3c-0.1,0.4-0.2,0.9-0.3,1.3V17c0,0.1,0,0.2,0.1,0.3
		c0.2,0,0.3,0,0.3-0.1c0-0.1,0.1-0.3,0.1-0.4c0.1-0.1,0.1-0.2,0.2-0.3c0.1-0.1,0.1,0,0.2,0.2c0,0.1,0,0.2-0.1,0.3s-0.1,0.3-0.1,0.4
		c-0.1,0.2-0.1,0.4-0.2,0.7s-0.2,0.5-0.4,0.5c-0.1-0.1-0.2-0.1-0.3-0.1c-0.1,0.1-0.2,0.2-0.3,0.3c-0.1,0.1-0.1,0.3-0.1,0.4
		s0,0.3,0,0.5c0,0.3-0.1,0.6-0.1,0.9c0,0.3-0.1,0.6-0.2,1c-0.2,0.6-0.3,1.3-0.4,1.9c0,0.1,0,0.3,0,0.4c0,0.1,0,0.3-0.1,0.4
		c0,0.1-0.1,0.3-0.1,0.4c0,0.2,0,0.3,0,0.4c0.1,0.3,0.4,0.4,0.7,0.2c0.2-0.1,0.3-0.2,0.4-0.3c0.1-0.1,0.1-0.3,0.2-0.4
		c0-0.1,0.1-0.3,0.2-0.4c0.1-0.2,0.2-0.2,0.3-0.1c0,0,0.1,0.2,0.1,0.4c0,0.2,0,0.4-0.1,0.5c0,0.1,0,0.3-0.1,0.5
		c-0.1,0.2,0,0.3,0.1,0.4c0.2,0.1,0.3,0,0.4-0.2s0.2-0.3,0.2-0.5c0.1-0.3,0.2-0.6,0.2-1c0-0.3,0.1-0.7,0.2-1c0-0.1,0.1-0.2,0.2-0.4
		c0.1-0.1,0.1-0.2,0.3-0.1s0.2,0.1,0.1,0.3c0,0.1,0,0.2,0,0.3c0.1,0.1,0.2,0.2,0.2,0.2c0.1,0,0.2-0.1,0.2-0.1
		c0.1-0.1,0.1-0.2,0.2-0.3c0-0.1,0.1-0.2,0.1-0.3c0-0.2,0.1-0.4,0.1-0.5c0-0.2,0.1-0.3,0.1-0.5c0-0.3,0.1-0.6,0.2-0.9
		c0.1-0.3,0.2-0.6,0.2-0.9c-0.1,0-0.2,0-0.3,0.1s-0.2,0.1-0.3,0.1c-0.1-0.1-0.1-0.2,0-0.4s0.1-0.3,0.2-0.4c0.1-0.1,0.1-0.2,0.1-0.2
		c0,0,0.1,0,0.1,0h0.1c0,0,0.1,0,0.2-0.1c0.1-0.1,0.2-0.2,0.2-0.4c0-0.2,0-0.3,0.1-0.4c0-0.1,0.1-0.3,0.1-0.4c0-0.1,0.1-0.3,0.1-0.5
		c0.1-0.3,0.1-0.7,0.2-1c0.1-0.3,0.1-0.7,0.2-1c0-0.3,0.1-0.5,0.2-0.8s0.1-0.5,0.2-0.8c0,0.3,0.1,0.6,0.1,0.8c0,0.3,0.1,0.6,0.1,0.8
		c0,0.3,0,0.6-0.1,0.8c0,0.3,0,0.5,0,0.8c0,0.1,0,0.3-0.1,0.5c0,0.2-0.1,0.5-0.1,0.7s0,0.5,0.1,0.7c0,0.2,0.1,0.3,0.2,0.4
		c0.1-0.3,0.3-0.4,0.4-0.4c0.1,0,0.2,0.1,0.2,0.2c0,0.1,0.1,0.3,0.1,0.5c0,0.2,0,0.4,0,0.5c0,0.1,0,0.2-0.1,0.3
		c0,0.1-0.1,0.1-0.1,0.1c0,0-0.1,0-0.2,0c-0.1,0-0.2,0.1-0.3,0.1c-0.1,0.1-0.2,0.3-0.2,0.4s0,0.3,0,0.4c0,0.3,0,0.7-0.1,1
		c-0.1,0.3-0.1,0.6-0.1,0.9s0,0.6,0,0.9c0,0.3,0,0.6,0,0.9c0,0.1,0,0.2,0,0.4c0,0.2,0,0.3,0.1,0.4c0,0.1,0.1,0.1,0.2,0.1
		c0.1,0,0.2,0,0.2,0.1c0,0.1,0.1,0.3,0,0.4c0,0.2-0.1,0.3-0.1,0.5s0,0.3,0,0.4c0,0.1,0.1,0.2,0.3,0.3c0.3,0.1,0.5,0,0.7-0.3
		c0.1-0.1,0.2-0.2,0.2-0.4s0.2-0.3,0.2-0.4c0-0.1,0.1-0.2,0.1-0.4s0-0.4,0.1-0.5s0.1-0.3,0.1-0.5c0.1-0.1,0.2-0.2,0.3-0.3
		c0.1,0.1,0.1,0.2,0.1,0.4c0,0.2-0.1,0.4-0.1,0.5c0,0.1,0,0.2-0.1,0.5c-0.1,0.3-0.1,0.4,0,0.4c0.1,0.2,0.2,0.2,0.3,0.1
		c0.1-0.1,0.2-0.2,0.3-0.5s0.1-0.4,0.2-0.6c0.1-0.2,0.1-0.4,0.1-0.4c0-0.2,0.1-0.4,0.1-0.6c0-0.2,0.1-0.4,0.1-0.6
		c0-0.2,0.1-0.4,0.2-0.6c0.1-0.2,0.1-0.4,0.1-0.6C119,23.2,119,23.1,118.9,23.1 M101.1,13.8l-0.4,0.3l-0.4-0.1l0.3-0.3l0.5-0.3
		l0.8,0l-0.1,0.3L101.1,13.8z M104.5,13c-0.1,0-0.3,0-0.5,0.1c-0.2,0-0.4,0.1-0.5,0.1c-0.2,0-0.3,0-0.4-0.1c-0.1-0.1,0-0.2,0.1-0.4
		c0.2-0.2,0.2-0.3,0.2-0.4c0-0.1-0.2-0.2-0.4-0.1c-0.2,0-0.4,0-0.5,0.1c-0.2,0-0.3,0-0.4,0.1c-0.1,0-0.2,0-0.3,0c-0.1,0-0.2,0-0.3,0
		c-0.1,0-0.2,0-0.4,0.1c-0.1,0-0.2,0-0.3,0s-0.2,0-0.3,0c-0.2,0-0.3,0.1-0.3,0.1c0,0,0,0.1-0.1,0.2c-0.1,0.1-0.2,0.2-0.3,0.3
		c-0.1,0.1-0.3,0.1-0.5,0c0,0,0.1-0.1,0-0.1c0,0,0-0.1,0-0.1c-0.4,0.1-0.7,0.2-1,0.2c-0.3,0-0.5,0.1-0.7,0.1c-0.2,0-0.4,0.1-0.4,0.1
		c-0.3,0-0.5,0.1-0.8,0.1c-0.3,0-0.6,0.1-0.8,0.3c-0.2,0.1-0.3,0.2-0.2,0.3c0.1,0.1,0.1,0.2,0.1,0.4c-0.2,0.1-0.4,0.1-0.5,0.1
		s-0.3,0.1-0.5,0.3c-0.1,0.1-0.2,0.3-0.2,0.5s0.1,0.3,0.2,0.4c0.1,0,0.2,0,0.3,0s0.2-0.1,0.3-0.1c0.1,0,0.2,0,0.3,0s0.2,0,0.2,0.1
		c0.1,0.1,0.1,0.2,0.1,0.3c0,0.1-0.1,0.1-0.2,0.2c-0.1,0-0.2,0.1-0.3,0.1c-0.1,0-0.2,0.1-0.3,0.1c-0.1,0.1-0.2,0.2-0.2,0.4
		s0,0.3,0.2,0.4c0.1,0.1,0.2,0.1,0.4,0.1s0.3,0,0.5,0c0.4,0,0.7-0.1,1-0.2c0.3-0.1,0.6-0.2,1-0.4c0.2-0.1,0.4-0.1,0.5-0.1
		c0.2,0,0.3-0.1,0.5-0.1c0.3-0.1,0.4-0.2,0.4-0.3c0-0.1,0-0.2,0.2-0.4c0.1-0.1,0.2-0.1,0.3-0.2c0.1-0.1,0.3-0.1,0.4-0.1
		c0.1,0,0.2,0,0.3,0s0.1,0.1,0.1,0.2c-0.2,0-0.3,0.1-0.3,0.2c0,0.1,0.1,0.2,0.2,0.2c0.1,0,0.3,0,0.4,0c0.2,0,0.3-0.1,0.4-0.1
		c0.3-0.1,0.6-0.1,0.9-0.2s0.6-0.1,0.9-0.2c0.2-0.1,0.3-0.2,0.4-0.3s0.1-0.3,0-0.4c0,0-0.1-0.1-0.2-0.1s-0.1,0-0.1-0.1
		c0,0-0.1-0.1-0.1-0.1s0-0.1,0.1-0.2c0.1-0.1,0.2-0.1,0.4-0.2c0.2,0,0.4-0.1,0.5-0.1c0.2-0.1,0.3-0.1,0.4-0.2
		c0.1-0.1,0.2-0.2,0.2-0.4C104.7,13,104.7,13,104.5,13 M83.1,16.5c0-0.2,0-0.3,0-0.3c0,0,0.1-0.2,0.1-0.5c0.1-0.3,0.1-0.4,0.1-0.4
		c0,0,0,0,0,0c0,0,0.1,0,0.1,0l0.2-0.1l0,0.3c0,0,0,0.1,0,0.1c0,0.1-0.1,0.2-0.1,0.2s0,0.1-0.1,0.2c-0.1,0.1-0.1,0.1-0.1,0.2
		l0.1,0.1c0,0,0.1,0.1,0.1,0.1l-0.1,0.5c-0.1,0-0.1,0-0.2,0l-0.2-0.1C83.2,16.8,83.2,16.7,83.1,16.5 M80.7,24.1l-0.3-0.3l0-0.5
		l0.4-0.4l0.2,0.6L80.7,24.1z M82.1,13.2c-0.1,0-0.2,0-0.3,0.1c-0.2,0.1-0.2,0.3-0.2,0.5c0,0.2,0,0.4,0,0.6c0,0.2-0.1,0.4-0.1,0.6
		c0,0.2-0.1,0.4-0.1,0.6c-0.1,0.3-0.1,0.7-0.2,1c-0.1,0.4-0.1,0.7-0.2,1c-0.1,0-0.4,0.1-0.7,0.2c-0.3,0.1-0.5,0.2-0.6,0.3
		c-0.1,0.1-0.2,0.1-0.2,0.2c0,0.1,0,0.1,0,0.2c0,0.1,0,0.1-0.1,0.2c0,0.1-0.1,0.1-0.3,0.2c-0.2,0.1-0.3,0.1-0.4,0.1c0,0,0-0.1,0-0.2
		c0-0.1,0.1-0.2,0.1-0.3c0-0.1,0-0.2,0-0.2c0,0-0.1-0.1-0.2-0.1c-0.1,0-0.2,0-0.3,0.1c-0.1,0-0.2,0.1-0.3,0.1c-0.1,0-0.2,0-0.3,0
		c0.1-0.3,0.2-0.5,0.3-0.8c0.1-0.2,0.2-0.5,0.4-0.7c0.1-0.2,0.3-0.4,0.4-0.6c0.1-0.2,0.3-0.4,0.4-0.7c0.1-0.2,0.3-0.4,0.4-0.7
		c0.1-0.2,0.2-0.5,0.4-0.7c0.1-0.3,0.3-0.5,0.5-0.6c0.2-0.2,0.3-0.4,0.2-0.7h-0.5c0-0.1,0.1-0.2,0.1-0.4c0-0.2,0.1-0.3,0.1-0.5
		c0.1-0.2,0.1-0.3,0.2-0.4c0.1-0.1,0.2-0.1,0.4-0.1c0,0.1-0.1,0.2-0.2,0.4c-0.1,0.1-0.1,0.2-0.1,0.4c0.1,0,0.2,0,0.3,0.1
		s0.1,0,0.2,0.1c0-0.1,0.2-0.2,0.3-0.3c0.2-0.1,0.3-0.2,0.3-0.3c0,0,0,0.1,0,0.1c0,0,0,0.1,0.1,0.1c0.2-0.2,0.4-0.3,0.5-0.2
		c0.1,0.1,0.1,0.3,0.1,0.5c0,0.1,0,0.2,0,0.3s0,0.2-0.1,0.3C82.2,13.1,82.1,13.2,82.1,13.2 M87.5,17.3c-0.2,0.1-0.4,0.1-0.6,0.1
		c-0.2,0-0.3-0.1-0.3-0.1s0-0.1,0.1-0.2c0.1-0.1,0.1-0.1,0.2-0.2c0.1-0.1,0.1-0.2,0.1-0.3c0-0.1-0.2-0.2-0.4-0.1
		c-0.3,0-0.4,0.1-0.5,0.1c-0.3,0-0.5,0.1-0.8,0.1c-0.3,0-0.5,0.1-0.8,0.1c0.1-0.2,0.1-0.5,0.2-0.7c0.1-0.2,0.1-0.5,0.2-0.7
		c0-0.3,0-0.6-0.1-0.8c-0.1-0.1-0.2-0.2-0.3-0.3c-0.1-0.1-0.2-0.2-0.1-0.4c0.5-0.1,0.7-0.2,0.7-0.5c0-0.3-0.2-0.5-0.5-0.6
		c0-0.2,0.1-0.3,0.4-0.5c0.2-0.1,0.4-0.3,0.4-0.5c0,0,0.1-0.1,0-0.2c0-0.1,0-0.2,0-0.2c0-0.1,0-0.2,0.1-0.3c0-0.1,0.1-0.2,0.1-0.3
		c0.1-0.4,0.2-0.8,0.4-1.2C86,9.4,86.1,9,86.2,8.6l0.3-1.2c0-0.1,0.1-0.2,0.1-0.3c0-0.1,0.1-0.2,0.1-0.3c0-0.1-0.1-0.2-0.1-0.2
		c-0.1,0-0.1-0.1-0.1-0.2c0-0.2,0-0.4,0.1-0.5c0.1-0.1,0.3-0.3,0.4-0.5c0-0.1,0.1-0.3,0.1-0.5s0-0.4,0-0.5c-0.1-0.1-0.1-0.1-0.2-0.1
		c-0.1,0-0.1,0-0.2,0.1c-0.1,0-0.1,0-0.1,0S86.6,4.2,86.6,4c0-0.2,0-0.4,0-0.6c0-0.2,0-0.4,0-0.6c0-0.1-0.1-0.2,0-0.2
		c0,0,0-0.1-0.1-0.1c0,0-0.2-0.1-0.3-0.1c-0.2,0-0.3,0-0.3,0.1c-0.2,0.1-0.3,0.2-0.4,0.5c-0.1,0.3-0.2,0.5-0.2,0.6
		c0,0.1-0.1,0.3-0.1,0.6c0,0.3-0.1,0.4-0.3,0.4c-0.1,0-0.2,0-0.2-0.1c0-0.1,0-0.1,0-0.2s0-0.2-0.1-0.2c0-0.1-0.1-0.1-0.2-0.1
		c-0.2,0-0.3,0.1-0.4,0.3c-0.1,0.2-0.2,0.4-0.2,0.6c0,0.2-0.1,0.5-0.1,0.7c0,0.2-0.1,0.4-0.1,0.5c0,0-0.1,0.1-0.1,0.2
		c0,0.1,0,0.1,0,0.2c-0.1,0-0.2,0-0.2-0.1C83.1,6.2,83,6.1,83,6c0.2-0.3,0.3-0.6,0.3-0.9c0-0.3-0.1-0.6-0.3-0.8
		c-0.1,0-0.3,0-0.4,0.2S82.4,4.8,82.4,5c-0.1,0.2-0.2,0.4-0.2,0.6C82.1,5.8,82,6,81.9,6c-0.1,0.1-0.2,0.3-0.3,0.5
		c-0.1,0.2-0.3,0.3-0.5,0.2c0,0-0.1-0.1-0.1-0.1c0-0.1,0-0.1,0-0.2c0-0.1,0-0.1-0.1-0.1c-0.1,0-0.2,0-0.3,0.1
		c-0.1,0-0.2,0.2-0.3,0.3S80.1,7.1,80,7.3c-0.1,0.2-0.1,0.4-0.2,0.6c-0.1,0.2-0.1,0.4-0.2,0.5c-0.1,0.4-0.3,0.8-0.4,1.1
		c-0.1,0.4-0.3,0.7-0.6,1c-0.1,0.2-0.2,0.3-0.4,0.5c-0.1,0.2-0.2,0.3-0.3,0.5c-0.1,0.2-0.2,0.4-0.2,0.6c0,0.2-0.1,0.4-0.2,0.6
		c0,0.1-0.1,0.3-0.3,0.4c-0.1,0.2-0.3,0.3-0.4,0.5c-0.1,0.2-0.2,0.3-0.3,0.4c0,0.1,0,0.2,0.1,0.3c0.1-0.1,0.2-0.1,0.3-0.2
		c0.1-0.1,0.2-0.1,0.3-0.1c0,0.1-0.1,0.3-0.1,0.5c0,0.2-0.1,0.4-0.3,0.5c-0.2,0.2-0.3,0.2-0.5,0.2c-0.2-0.1-0.2-0.2-0.1-0.4
		c-0.2,0-0.3,0.2-0.4,0.4c-0.1,0.2-0.2,0.4-0.3,0.7c-0.1,0.3-0.2,0.5-0.3,0.7c-0.1,0.2-0.2,0.4-0.3,0.6c-0.2,0.2-0.3,0.4-0.4,0.5
		s-0.2,0.3-0.3,0.5c0,0.1-0.1,0.2-0.1,0.3c0,0.1,0,0.2-0.1,0.3C74,19,73.9,19,73.8,19.1c-0.1,0-0.2,0.1-0.2,0.2c0,0,0.1,0,0.1,0
		c0.1,0,0.1,0,0.1,0.1c0.1,0.1,0.1,0.3,0.2,0.5s0,0.3-0.2,0.5c-0.2,0.2-0.3,0.2-0.4,0.2c-0.1,0-0.2,0.1-0.3,0.5
		c-0.1,0.3-0.1,0.5,0.1,0.5c0.1,0,0.3,0,0.5-0.1c0.2-0.1,0.4-0.2,0.6-0.3c0.2-0.1,0.3,0,0.3,0.2c0,0.1,0,0.1-0.1,0.2
		s-0.1,0.1-0.2,0.2C74.1,21.8,74,21.9,74,22c0,0.1,0,0.2,0.1,0.3c0,0,0.1,0.1,0.2,0.1c0.1,0,0.2,0,0.3-0.1c0.1,0,0.2-0.1,0.3-0.1
		c0.1,0,0.2-0.1,0.2-0.1c0.2,0,0.4-0.1,0.6-0.2c0.2-0.1,0.4-0.1,0.6-0.2c0.2,0,0.4-0.1,0.6-0.1c0.2,0,0.3,0,0.5,0
		c0.2,0,0.3,0,0.3-0.1c0.1,0,0.1-0.1,0.1-0.2c0-0.1,0.1-0.1,0.1-0.2s0.1-0.2,0.2-0.3c0,0,0.1-0.1,0.2-0.1c0.1,0,0.2-0.1,0.3,0
		c0.1,0,0.2,0.1,0.1,0.2s-0.1,0.1,0,0.2c0.1,0.1,0.3,0.1,0.5,0.1c0.3,0,0.5-0.1,0.8-0.1c0,0.2-0.1,0.4-0.1,0.6
		c0,0.2-0.1,0.4-0.1,0.6c0,0.1-0.1,0.3-0.2,0.6c-0.1,0.2-0.2,0.5-0.3,0.7c-0.1,0.2-0.1,0.5-0.2,0.7c0,0.2,0,0.4,0.1,0.6
		c0,0.1,0.1,0.1,0.2,0.1c0.1,0,0.1,0,0.2,0c0.1,0,0.1,0,0.2,0c0,0,0.1,0.1,0.1,0.2c0,0.1,0,0.3-0.1,0.6c-0.1,0.3-0.1,0.4-0.2,0.6
		c0,0.1-0.1,0.2-0.1,0.3c-0.1,0.1-0.1,0.2-0.2,0.4c0,0.1-0.1,0.2-0.1,0.3c0,0.1-0.1,0.2,0,0.3c0,0.2,0.1,0.3,0.3,0.3
		c0.1,0,0.3-0.1,0.5-0.3c0.1-0.2,0.2-0.4,0.2-0.6c0-0.2,0.1-0.4,0.1-0.6c0-0.1,0.1-0.3,0.3-0.4c0.1-0.1,0.2-0.1,0.3,0.1
		c0,0.1,0,0.3-0.1,0.6c-0.1,0.3-0.2,0.6-0.2,0.9c0,0.2-0.1,0.4-0.1,0.6c0,0.2,0,0.3,0,0.4c0,0.1,0.1,0.2,0.2,0.2
		c0.1,0,0.2,0,0.4-0.1c0.3-0.1,0.5-0.4,0.5-0.7c0-0.3,0.1-0.6,0.1-0.9c0-0.1,0-0.3,0.1-0.4c0-0.2,0.1-0.3,0.1-0.4
		c0-0.1,0.1-0.1,0.2-0.1c0.1,0,0.1,0.1,0.2,0.3c0.3-0.2,0.5-0.5,0.4-0.8c0-0.3,0-0.6,0-0.9c0-0.1,0-0.2,0.1-0.4
		c0-0.2,0.1-0.4,0.1-0.7c0-0.3,0.1-0.6,0.2-1c-0.2-0.1-0.3-0.1-0.5-0.1c-0.1,0-0.1-0.1,0-0.5c0-0.3,0.1-0.4,0.2-0.5s0.3-0.1,0.5,0
		c0.2-0.5,0.3-1,0.5-1.6c0.2,0,0.6-0.1,1-0.1c0.4-0.1,0.8-0.2,1.2-0.3c0.4-0.1,0.7-0.3,1-0.4c0.3-0.2,0.4-0.4,0.5-0.6
		c0-0.2-0.1-0.3-0.2-0.3c-0.2,0-0.4,0.1-0.6,0.1c-0.2,0.1-0.5,0.2-0.6,0.2c-0.2,0.1-0.3,0-0.3-0.1c0-0.1,0.1-0.2,0.3-0.3
		c0.2-0.1,0.4-0.2,0.7-0.3c0.3-0.1,0.5-0.1,0.7-0.2c0.2,0,0.4-0.1,0.5-0.1c0.2-0.1,0.3-0.2,0.5-0.3c0.2-0.1,0.1-0.2-0.1-0.3
		C87.9,17.2,87.7,17.2,87.5,17.3 M71,17.4l-0.3-0.3l-0.1-0.4l0.3-0.9l0.3,0.1L71,16.5l0.1,0.4L71,17.4z M69.5,19
		c0-0.1-0.1-0.1-0.1-0.2c-0.1,0.1-0.3,0.3-0.3,0.5c-0.1,0.2-0.2,0.4-0.3,0.5c-0.1,0.2-0.2,0.4-0.3,0.5c-0.1,0.2-0.2,0.3-0.3,0.5
		c-0.1,0.2-0.3,0.4-0.4,0.6c-0.1,0.2-0.2,0.4-0.3,0.6c-0.1,0.2-0.3,0.4-0.4,0.6c-0.1,0.2-0.2,0.4-0.3,0.6c0-0.4-0.1-0.9-0.1-1.4
		s-0.2-1-0.4-1.3c-0.1,0-0.2,0.1-0.3,0.1c-0.1,0-0.2,0-0.3-0.1c0,0-0.1-0.1-0.1-0.3c0-0.1,0-0.2,0-0.3c0.1-0.1,0.2-0.2,0.4-0.2
		c0.1,0,0.3-0.1,0.4-0.2c0-0.1,0.1-0.2,0.1-0.3c0-0.1,0-0.2,0-0.3c0-0.3-0.1-0.6-0.1-0.9c0-0.3,0-0.6-0.1-0.9c0-0.2-0.1-0.4-0.1-0.6
		c0-0.2,0-0.4,0.2-0.6c0.1-0.3,0.3-0.6,0.4-0.8c0.1-0.3,0.3-0.5,0.4-0.8c0.2-0.3,0.3-0.5,0.4-0.8c0.1-0.3,0.2-0.6,0.4-0.8
		c0-0.1,0.1-0.2,0.2-0.4C68,12.1,68,12,68,11.9c-0.1-0.1-0.2-0.2-0.3-0.1c-0.1,0-0.2,0-0.1-0.2c0-0.1,0-0.2,0.1-0.4
		c0.1-0.2,0.1-0.4,0.2-0.5c0.1-0.2,0.2-0.3,0.3-0.4c0.1-0.1,0.2-0.2,0.3-0.2c-0.1,0.1-0.1,0.2-0.1,0.3c0,0.1,0.1,0.1,0.2,0
		c0.1,0,0.2-0.1,0.2-0.2c0-0.1,0.1-0.2,0.1-0.3c0.1-0.3,0.2-0.5,0.3-0.8c0.1-0.3,0.2-0.5,0.4-0.8c0,0,0-0.1,0.1-0.2
		C69.8,8,69.9,7.9,70,7.7c0.1-0.1,0.2-0.3,0.3-0.5c0.1,0.1,0.2,0.2,0.2,0.3c0,0.1,0.1,0.3,0.1,0.5c0,0.2,0,0.3,0.1,0.5
		c0,0.2,0.1,0.3,0.1,0.4C70.9,9,71,9.1,71,9.2c0,0.1,0,0.2-0.2,0.4c-0.1,0.1-0.2,0.2-0.3,0.3c0,0,0,0.1,0,0.3c0,0.3,0.1,0.5,0.1,0.7
		c0,0.2,0,0.5-0.1,0.7c0,0.3,0,0.5-0.1,0.8c0,0.3-0.1,0.5-0.1,0.8c0,0,0,0.1-0.1,0.2c0,0.1,0,0.2,0,0.2c0,0.1,0.1,0.2,0.1,0.1
		c0,0,0.1-0.1,0.2-0.1c0.2,0,0.3,0,0.4,0c0.1,0,0.1,0.1,0,0.4c0,0.1,0,0.3-0.1,0.4c0,0.1-0.1,0.3-0.2,0.4C70.6,15,70.5,15,70.4,15
		c-0.1,0-0.2,0.1-0.3,0.2C70,15.4,70,15.5,70,15.7c0,0.2,0,0.3-0.1,0.4c0,0.1,0,0.3-0.1,0.4c0,0.2-0.1,0.3-0.1,0.4
		c0,0.1-0.1,0.2-0.1,0.4c-0.1,0.2-0.1,0.3-0.1,0.4c0,0.1,0.1,0.1,0.1,0.1c0,0,0.1-0.1,0.2-0.1c0.1,0,0.1-0.1,0.2-0.1
		c0.1,0,0.1,0,0.2,0c0,0,0.1,0.1,0,0.3s-0.1,0.3-0.2,0.5c-0.1,0.2-0.2,0.3-0.2,0.5c-0.1,0.2-0.2,0.2-0.2,0.3
		C69.6,19.2,69.5,19.1,69.5,19 M68.1,23.8C68,23.9,68,24,67.9,24.1l-0.4,0.1c0-0.1,0-0.2,0-0.3v-0.3c0,0,0,0,0.1-0.1
		c0.1,0,0.2,0,0.2-0.1c0,0,0.1,0,0.1-0.1c0-0.1,0-0.1,0-0.2c0,0,0.1-0.1,0.1-0.1s0.1-0.1,0.1-0.1c0-0.1,0.1-0.1,0.2-0.2h0.2h0.1
		c0,0-0.1,0.1-0.2,0.3c-0.1,0.2-0.2,0.3-0.2,0.3C68.3,23.5,68.2,23.7,68.1,23.8 M68.7,7.4C68.7,7.4,68.7,7.4,68.7,7.4
		c0.1,0,0.1,0,0.1,0h0.1l-0.2,0.5c-0.1,0.1-0.2,0.2-0.3,0.3c0,0-0.1,0.1-0.1,0.1c0,0,0,0.1-0.1,0.1c0,0,0,0.1-0.1,0.1
		c0,0-0.1,0-0.1,0c0,0,0-0.1-0.1-0.1c0.1-0.2,0.2-0.3,0.3-0.5c0.1-0.1,0.1-0.2,0.2-0.3C68.6,7.5,68.6,7.4,68.7,7.4L68.7,7.4z
		 M73.6,16.6c0-0.1,0-0.2,0-0.2c0-0.1-0.1-0.1-0.1-0.1c0,0-0.1,0-0.2,0c-0.1,0-0.3-0.1-0.3-0.2c-0.1-0.1,0-0.2,0.1-0.4
		c0.1-0.2,0.2-0.2,0.4-0.2c0.2,0,0.3,0,0.4-0.1c0.1-0.1,0.1-0.2,0.1-0.4c0-0.2,0-0.3,0.1-0.5c0-0.1,0.1-0.3,0.1-0.4
		c0-0.1,0.1-0.3,0.1-0.4c0-0.3,0.1-0.5,0.2-0.8c0.1-0.3,0.1-0.5,0.2-0.8c0-0.3,0-0.6,0-0.8c-0.1-0.3-0.1-0.5-0.1-0.8
		c0-0.1,0-0.3,0-0.5c0-0.2,0-0.4-0.1-0.5c-0.2,0.1-0.3,0.2-0.3,0.3c0,0.1,0,0.3-0.1,0.4c-0.1,0.2-0.2,0.3-0.3,0.2
		c-0.1-0.1-0.1-0.2-0.1-0.3c0-0.3-0.1-0.6,0-0.9c0-0.3,0-0.6,0.1-0.9c0,0,0-0.1,0-0.2c0-0.1,0-0.2,0-0.3c0-0.1,0.1-0.2,0.1-0.2
		c0,0,0.1,0,0.2,0c0,0,0.1,0.1,0.1,0.1v0.2v0.2c0,0.1,0,0.1,0.1,0.1c0.1,0.1,0.2,0.1,0.3,0c0.1-0.1,0.1-0.2,0.1-0.4
		c0-0.2,0-0.3,0-0.5c0-0.2,0-0.3,0-0.3c0-0.3-0.1-0.6-0.2-0.8c-0.1-0.3-0.1-0.5-0.1-0.8c0-0.1,0-0.2,0-0.4c0-0.2,0-0.3-0.1-0.3
		c-0.1-0.1-0.3-0.1-0.4,0c-0.1,0.1-0.2,0-0.3-0.2c0-0.2,0-0.3,0.1-0.4c0.1-0.1,0.2-0.2,0.3-0.3c0.1-0.2,0.1-0.3,0-0.3
		c-0.1,0-0.1-0.1-0.2-0.3c-0.1-0.1-0.1-0.2-0.2-0.3c-0.1-0.1-0.1-0.2-0.2-0.3c-0.1-0.1-0.2-0.2-0.3-0.2c-0.1,0-0.3,0-0.4,0
		c-0.1,0.1-0.2,0.2-0.3,0.3c0,0.1,0,0.3,0,0.4c0,0.1,0,0.3-0.1,0.4c0,0.1-0.2,0.2-0.4,0.2c-0.2,0-0.3,0-0.3-0.2c0-0.2,0-0.3-0.1-0.3
		c-0.1,0-0.3,0-0.4,0.1c-0.2,0.1-0.3,0.2-0.4,0.2c-0.1,0.1-0.2,0.1-0.3,0.1c-0.1,0-0.1-0.1-0.2-0.1c0,0-0.1-0.1-0.1-0.1
		c0,0-0.1,0-0.3,0.1c-0.1,0-0.2,0.1-0.3,0.2c-0.1,0.1-0.2,0.1-0.3,0.2C69,4,69,4,69,4.1c0,0.1,0,0.1,0.1,0.2c0,0,0,0.1,0,0.1
		c0,0-0.1,0.1-0.2,0.1c-0.2,0.1-0.3,0.1-0.3,0c0-0.1-0.1-0.2-0.2-0.3c-0.1,0.1-0.3,0.2-0.4,0.4c-0.1,0.2-0.2,0.4-0.3,0.6
		s-0.2,0.4-0.3,0.6C67.2,6,67.1,6.2,67,6.3c-0.2,0.3-0.4,0.6-0.7,0.9c-0.3,0.3-0.5,0.6-0.6,0.9c-0.2,0.6-0.5,1.2-0.8,1.9
		c-0.3,0.6-0.5,1.2-0.7,1.9c0,0.1-0.1,0.2-0.2,0.3c-0.1,0.1-0.1,0.2-0.1,0.3c0,0.2,0.1,0.2,0.1,0.2c0,0,0.1-0.1,0.2-0.1
		c0.3,0,0.4,0,0.3,0.2c0,0.2-0.1,0.3-0.2,0.6c-0.1,0.2-0.2,0.4-0.3,0.5c-0.1,0.1-0.2,0.1-0.4-0.1c0,0-0.1-0.1-0.1-0.2
		c0-0.1-0.1,0-0.2,0.1c-0.1,0.1-0.2,0.3-0.2,0.4c0,0.2-0.1,0.3-0.1,0.4c-0.1,0.2-0.2,0.4-0.3,0.6c-0.1,0.2-0.2,0.4-0.3,0.6
		c0,0.1-0.1,0.2-0.1,0.3c0,0.1,0,0.2,0,0.3c0,0.1,0.1,0.1,0.2,0c0.1-0.1,0.2-0.1,0.2-0.1c0.1,0.1,0.1,0.2,0.2,0.3s0,0.3,0,0.4
		C62.8,17,62.7,17,62.6,17c-0.1,0-0.2,0-0.4,0.1c-0.1,0.1-0.1,0.2-0.1,0.4c0.1,0.1,0.1,0.3,0.2,0.4c0,0.1,0.1,0.3,0.1,0.5
		c0,0.2,0,0.3,0,0.4c0,0.3,0,0.6,0,0.9c0,0.3,0.1,0.6,0.1,0.9c0,0.3,0.1,0.7,0.1,1c0,0.3,0,0.7,0.1,1c0,0.2,0.1,0.3,0.1,0.4
		c0,0,0.1,0,0.3-0.1c0.2-0.1,0.3-0.2,0.4-0.2c0.1,0,0.1,0.1,0.2,0.3c0,0.1,0.1,0.2,0.1,0.4s0,0.3-0.1,0.5c-0.1,0.1-0.2,0.2-0.4,0.1
		c-0.1,0-0.2,0-0.3,0.2c-0.1,0.1-0.1,0.3-0.1,0.4c0,0.1,0.1,0.3,0.1,0.4c0,0.1,0.1,0.2,0.1,0.4c0,0.1,0,0.2,0,0.4
		c0,0.3,0.1,0.5,0.1,0.8s0.1,0.5,0.1,0.7c0,0.3,0.2,0.4,0.5,0.5c0.3,0.1,0.5,0,0.6-0.4c0-0.1,0.1-0.3,0.1-0.4c0-0.1,0.1-0.2,0.3-0.3
		c0.3-0.2,0.5-0.2,0.7,0.1c0,0.1,0.1,0.3,0,0.4c0,0.2,0,0.3-0.1,0.4c0,0.1,0,0.3,0.1,0.4c0,0.1,0.2,0.2,0.3,0.2h0.4
		c0.2,0,0.3,0,0.4-0.1c0.1-0.1,0.1-0.2,0.1-0.4c0-0.2,0-0.3,0-0.4c0.1-0.2,0.3-0.2,0.3-0.1s0.1,0.2,0.1,0.3c0.1,0,0.2,0,0.3,0
		c0.1,0,0.2,0,0.3-0.1c0.2,0,0.3,0,0.3-0.1c0.1,0,0.1-0.1,0.2-0.3c0-0.1,0.1-0.2,0.1-0.3s0.1-0.1,0.2-0.3c0.1-0.1,0.2-0.2,0.3-0.2
		c0.1,0,0.1-0.1,0.2-0.3c0.4-0.4,0.7-0.8,1-1.3c0-0.1,0.1-0.2,0.1-0.3c0-0.1,0-0.1-0.3-0.1c-0.1,0-0.2,0.1-0.3,0.2
		c-0.1,0.1-0.2,0.2-0.3,0.3c-0.1-0.1-0.1-0.2-0.1-0.3c0-0.1,0.1-0.2,0.2-0.3c0.1-0.1,0.2-0.2,0.3-0.3c0.1-0.1,0.2-0.2,0.2-0.3
		c0.1-0.1,0.3-0.3,0.4-0.6c0.2-0.3,0.3-0.4,0.5-0.4c0,0,0,0.1,0,0.1c0,0,0,0,0,0.1c0.1,0,0.2-0.1,0.3-0.2c0.1-0.1,0.3-0.3,0.4-0.4
		c0.1-0.2,0.2-0.3,0.3-0.5c0.1-0.2,0.2-0.3,0.2-0.3c0.1-0.1,0.2-0.2,0.3-0.4c0.1-0.1,0.2-0.2,0.2-0.4c0-0.1,0.1-0.3,0.1-0.4
		c0-0.1,0-0.3,0.1-0.4c0-0.2,0.1-0.3,0.2-0.5c0.1-0.1,0.2-0.3,0.2-0.5c0-0.2,0.1-0.3,0.1-0.5c0-0.2,0-0.3,0.1-0.5
		c0-0.2,0.1-0.3,0.1-0.5c0-0.1,0-0.3,0.1-0.5C73.6,16.8,73.6,16.7,73.6,16.6 M57.4,16.5c0-0.2,0-0.3,0-0.3c0,0,0.1-0.2,0.1-0.5
		c0.1-0.3,0.1-0.4,0.1-0.4c0,0,0,0,0,0c0,0,0.1,0,0.1,0l0.2-0.1l0,0.3c0,0,0,0.1,0,0.1c0,0.1-0.1,0.2-0.1,0.2s0,0.1-0.1,0.2
		c-0.1,0.1-0.1,0.1-0.1,0.2l0.1,0.1c0,0,0.1,0.1,0.1,0.1l-0.1,0.5c-0.1,0-0.1,0-0.2,0l-0.2-0.1C57.5,16.8,57.5,16.7,57.4,16.5
		 M55,24.1l-0.3-0.3l0-0.5l0.4-0.4l0.2,0.6L55,24.1z M56.4,13.2c-0.1,0-0.2,0-0.3,0.1c-0.2,0.1-0.2,0.3-0.2,0.5c0,0.2,0,0.4,0,0.6
		c0,0.2-0.1,0.4-0.1,0.6c0,0.2-0.1,0.4-0.1,0.6c-0.1,0.3-0.1,0.7-0.2,1c-0.1,0.4-0.1,0.7-0.2,1c-0.1,0-0.4,0.1-0.7,0.2
		c-0.3,0.1-0.5,0.2-0.6,0.3c-0.1,0.1-0.2,0.1-0.2,0.2c0,0.1,0,0.1,0,0.2c0,0.1,0,0.1-0.1,0.2c0,0.1-0.1,0.1-0.3,0.2
		c-0.2,0.1-0.3,0.1-0.4,0.1c0,0,0-0.1,0-0.2c0-0.1,0.1-0.2,0.1-0.3c0-0.1,0-0.2,0-0.2c0,0-0.1-0.1-0.2-0.1c-0.1,0-0.2,0-0.3,0.1
		c-0.1,0-0.2,0.1-0.3,0.1c-0.1,0-0.2,0-0.3,0c0.1-0.3,0.2-0.5,0.3-0.8s0.2-0.5,0.4-0.7c0.1-0.2,0.3-0.4,0.4-0.6
		c0.1-0.2,0.3-0.4,0.4-0.7c0.1-0.2,0.3-0.4,0.4-0.7c0.1-0.2,0.2-0.5,0.4-0.7c0.1-0.3,0.3-0.5,0.5-0.6c0.2-0.2,0.3-0.4,0.2-0.7h-0.5
		c0-0.1,0.1-0.2,0.1-0.4s0.1-0.3,0.1-0.5c0.1-0.2,0.1-0.3,0.2-0.4c0.1-0.1,0.2-0.1,0.4-0.1c0,0.1-0.1,0.2-0.2,0.4
		c-0.1,0.1-0.1,0.2-0.1,0.4c0.1,0,0.2,0,0.3,0.1c0.1,0,0.1,0,0.2,0.1c0-0.1,0.2-0.2,0.3-0.3c0.2-0.1,0.3-0.2,0.3-0.3
		c0,0,0,0.1,0,0.1c0,0,0,0.1,0.1,0.1c0.2-0.2,0.4-0.3,0.4-0.2c0.1,0.1,0.1,0.3,0.1,0.5c0,0.1,0,0.2,0,0.3s0,0.2-0.1,0.3
		C56.5,13.1,56.5,13.2,56.4,13.2 M61.9,17.3c-0.2,0.1-0.4,0.1-0.6,0.1c-0.2,0-0.3-0.1-0.3-0.1s0-0.1,0.1-0.2
		c0.1-0.1,0.1-0.1,0.2-0.2c0.1-0.1,0.1-0.2,0.1-0.3c0-0.1-0.2-0.2-0.4-0.1c-0.3,0-0.4,0.1-0.5,0.1c-0.3,0-0.5,0.1-0.8,0.1
		c-0.3,0-0.5,0.1-0.8,0.1c0.1-0.2,0.1-0.5,0.2-0.7c0.1-0.2,0.1-0.5,0.2-0.7c0-0.3,0-0.6-0.1-0.8c-0.1-0.1-0.2-0.2-0.3-0.3
		c-0.1-0.1-0.2-0.2-0.1-0.4c0.5-0.1,0.7-0.2,0.7-0.5c0-0.3-0.2-0.5-0.5-0.6c0-0.2,0.1-0.3,0.4-0.5c0.2-0.1,0.4-0.3,0.4-0.5
		c0,0,0.1-0.1,0-0.2c0-0.1,0-0.2,0-0.2c0-0.1,0-0.2,0.1-0.3c0-0.1,0.1-0.2,0.1-0.3c0.1-0.4,0.2-0.8,0.4-1.2c0.1-0.4,0.2-0.8,0.4-1.2
		l0.3-1.2c0-0.1,0.1-0.2,0.1-0.3S61,6.9,61,6.8c0-0.1-0.1-0.2-0.1-0.2c-0.1,0-0.1-0.1-0.1-0.2c0-0.2,0-0.4,0.1-0.5
		c0.1-0.1,0.3-0.3,0.4-0.5c0-0.1,0.1-0.3,0.1-0.5s0-0.4,0-0.5c-0.1-0.1-0.1-0.1-0.2-0.1c-0.1,0-0.1,0-0.2,0.1c-0.1,0-0.1,0-0.1,0
		S60.9,4.2,60.9,4c0-0.2,0-0.4,0-0.6s0-0.4,0-0.6c0-0.1-0.1-0.2,0-0.2c0,0,0-0.1-0.1-0.1c0,0-0.1-0.1-0.3-0.1c-0.2,0-0.3,0-0.3,0.1
		C60,2.5,59.8,2.7,59.8,3c-0.1,0.3-0.2,0.5-0.2,0.6c0,0.1-0.1,0.3-0.1,0.6s-0.1,0.4-0.3,0.4c-0.1,0-0.2,0-0.2-0.1c0-0.1,0-0.1,0-0.2
		s0-0.2-0.1-0.2c0-0.1-0.1-0.1-0.2-0.1c-0.2,0-0.3,0.1-0.4,0.3c-0.1,0.2-0.2,0.4-0.2,0.6c0,0.2-0.1,0.5-0.1,0.7
		c0,0.2-0.1,0.4-0.1,0.5c0,0-0.1,0.1-0.1,0.2c0,0.1,0,0.1,0,0.2c-0.1,0-0.2,0-0.2-0.1S57.4,6.1,57.3,6c0.2-0.3,0.3-0.6,0.3-0.9
		c0-0.3-0.1-0.6-0.3-0.8c-0.1,0-0.3,0-0.4,0.2c-0.1,0.1-0.2,0.3-0.3,0.5c-0.1,0.2-0.2,0.4-0.2,0.6C56.4,5.8,56.3,6,56.3,6
		c-0.1,0.1-0.2,0.3-0.3,0.5c-0.1,0.2-0.3,0.3-0.5,0.2c0,0-0.1-0.1-0.1-0.1c0-0.1,0-0.1,0-0.2c0-0.1,0-0.1-0.1-0.1
		c-0.1,0-0.2,0-0.3,0.1c-0.1,0-0.2,0.2-0.3,0.3c-0.1,0.2-0.2,0.4-0.3,0.6c-0.1,0.2-0.1,0.4-0.2,0.6C54,8.2,54,8.4,53.9,8.5
		c-0.1,0.4-0.3,0.8-0.4,1.1c-0.1,0.4-0.3,0.7-0.6,1c-0.1,0.2-0.2,0.3-0.4,0.5c-0.1,0.2-0.2,0.3-0.3,0.5C52.1,11.8,52,12,52,12.2
		c0,0.2-0.1,0.4-0.2,0.6c0,0.1-0.1,0.3-0.3,0.4c-0.1,0.2-0.3,0.3-0.4,0.5c-0.1,0.2-0.2,0.3-0.3,0.4c0,0.1,0,0.2,0.1,0.3
		c0.1-0.1,0.2-0.1,0.3-0.2c0.1-0.1,0.2-0.1,0.3-0.1c0,0.1-0.1,0.3-0.1,0.5c0,0.2-0.1,0.4-0.3,0.5c-0.2,0.2-0.3,0.2-0.5,0.2
		c-0.2-0.1-0.2-0.2-0.1-0.4c-0.2,0-0.3,0.2-0.4,0.4c-0.1,0.2-0.2,0.4-0.3,0.7c-0.1,0.3-0.2,0.5-0.3,0.7c-0.1,0.2-0.2,0.4-0.3,0.6
		c-0.2,0.2-0.3,0.4-0.4,0.5c-0.1,0.2-0.2,0.3-0.3,0.5c0,0.1-0.1,0.2-0.1,0.3c0,0.1,0,0.2-0.1,0.3c-0.1,0.1-0.2,0.1-0.3,0.2
		c-0.1,0-0.2,0.1-0.2,0.2c0,0,0.1,0,0.1,0c0.1,0,0.1,0,0.1,0.1c0.1,0.1,0.1,0.3,0.2,0.5s0,0.3-0.2,0.5c-0.2,0.2-0.3,0.2-0.4,0.2
		c-0.1,0-0.2,0.1-0.3,0.5c-0.1,0.3-0.1,0.5,0.1,0.5s0.3,0,0.5-0.1c0.2-0.1,0.4-0.2,0.6-0.3c0.2-0.1,0.3,0,0.3,0.2
		c0,0.1,0,0.1-0.1,0.2c-0.1,0.1-0.1,0.1-0.2,0.2c-0.1,0.1-0.1,0.2-0.2,0.3c0,0.1,0,0.2,0.1,0.3c0,0,0.1,0.1,0.2,0.1
		c0.1,0,0.2,0,0.3-0.1c0.1,0,0.2-0.1,0.3-0.1c0.1,0,0.2-0.1,0.2-0.1c0.2,0,0.4-0.1,0.6-0.2c0.2-0.1,0.4-0.1,0.6-0.2
		c0.2,0,0.4-0.1,0.6-0.1c0.2,0,0.3,0,0.5,0c0.2,0,0.3,0,0.3-0.1c0.1,0,0.1-0.1,0.1-0.2s0.1-0.1,0.1-0.2s0.1-0.2,0.2-0.3
		c0,0,0.1-0.1,0.2-0.1c0.1,0,0.2-0.1,0.3,0c0.1,0,0.2,0.1,0.1,0.2c-0.1,0.1-0.1,0.1,0,0.2c0.1,0.1,0.3,0.1,0.5,0.1
		c0.3,0,0.5-0.1,0.8-0.1c0,0.2-0.1,0.4-0.1,0.6c0,0.2-0.1,0.4-0.1,0.6c0,0.1-0.1,0.3-0.2,0.6c-0.1,0.2-0.2,0.5-0.3,0.7
		c-0.1,0.2-0.1,0.5-0.2,0.7c0,0.2,0,0.4,0.1,0.6c0,0.1,0.1,0.1,0.2,0.1c0.1,0,0.1,0,0.2,0c0.1,0,0.1,0,0.2,0c0,0,0.1,0.1,0.1,0.2
		c0,0.1,0,0.3-0.1,0.6C54,26,54,26.2,53.9,26.4c0,0.1-0.1,0.2-0.1,0.3c-0.1,0.1-0.1,0.2-0.2,0.4c0,0.1-0.1,0.2-0.1,0.3
		c0,0.1-0.1,0.2,0,0.3c0,0.2,0.1,0.3,0.3,0.3c0.1,0,0.3-0.1,0.5-0.3c0.1-0.2,0.2-0.4,0.2-0.6c0-0.2,0.1-0.4,0.1-0.6
		c0-0.1,0.1-0.3,0.3-0.4c0.1-0.1,0.2-0.1,0.3,0.1c0,0.1,0,0.3-0.1,0.6c-0.1,0.3-0.2,0.6-0.2,0.9c0,0.2-0.1,0.4-0.1,0.6
		c0,0.2,0,0.3,0,0.4c0,0.1,0.1,0.2,0.2,0.2c0.1,0,0.2,0,0.4-0.1c0.3-0.1,0.5-0.4,0.5-0.7c0-0.3,0.1-0.6,0.1-0.9c0-0.1,0-0.3,0.1-0.4
		s0.1-0.3,0.1-0.4c0-0.1,0.1-0.1,0.2-0.1c0.1,0,0.1,0.1,0.2,0.3c0.3-0.2,0.5-0.5,0.4-0.8c0-0.3,0-0.6,0-0.9c0-0.1,0-0.2,0.1-0.4
		c0-0.2,0.1-0.4,0.1-0.7c0-0.3,0.1-0.6,0.2-1c-0.2-0.1-0.3-0.1-0.5-0.1c-0.1,0-0.1-0.1,0-0.5c0-0.3,0.1-0.4,0.2-0.5
		c0.1-0.1,0.3-0.1,0.5,0c0.2-0.5,0.3-1,0.5-1.6c0.2,0,0.6-0.1,1-0.1c0.4-0.1,0.8-0.2,1.2-0.3c0.4-0.1,0.7-0.3,1-0.4
		c0.3-0.2,0.4-0.4,0.5-0.6c0-0.2-0.1-0.3-0.2-0.3c-0.2,0-0.4,0.1-0.6,0.1c-0.2,0.1-0.5,0.2-0.6,0.2c-0.2,0.1-0.3,0-0.3-0.1
		c0-0.1,0.1-0.2,0.3-0.3c0.2-0.1,0.4-0.2,0.7-0.3c0.3-0.1,0.5-0.1,0.7-0.2c0.2,0,0.4-0.1,0.5-0.1c0.2-0.1,0.3-0.2,0.5-0.3
		c0.2-0.1,0.1-0.2-0.1-0.3C62.2,17.2,62,17.2,61.9,17.3 M38.9,13.4c-0.2,0.4-0.4,0.7-0.8,0.8c0,0-0.1,0-0.2,0s-0.2,0-0.3,0.1
		c-0.1,0-0.1,0.1-0.2,0.2c0,0.1-0.1,0.2-0.1,0.2c-0.1,0.1-0.3,0.2-0.4,0.4c-0.2,0.1-0.3,0.2-0.4,0.4c0.1-0.2,0.2-0.4,0.2-0.7
		c0-0.2,0-0.4,0.1-0.7c0.1-0.2,0.1-0.4,0.2-0.6c0.1-0.2,0.1-0.4,0.1-0.6c0-0.2,0-0.3-0.1-0.3c-0.1,0-0.2,0.1-0.4,0.2
		c-0.1-0.1-0.1-0.2-0.1-0.4s0-0.4,0.1-0.6s0.1-0.4,0.2-0.5c0.1-0.2,0.2-0.3,0.3-0.3c0,0,0.1,0.1,0.1,0.1c0,0,0,0.1,0.1,0.1
		c0.1-0.1,0.2-0.3,0.2-0.4s0-0.3,0.1-0.5c0-0.2,0.1-0.4,0.1-0.5c0-0.2,0.1-0.3,0.1-0.5c0.1-0.3,0.1-0.7,0.2-1s0.1-0.7,0.2-1
		c0.1,0,0.2,0.1,0.3,0.3c0.1,0.1,0.1,0.3,0.1,0.5c0,0.2,0,0.4,0.1,0.5s0,0.3,0.1,0.4c0,0.2,0.1,0.3,0.2,0.3c0.1,0,0.3,0,0.4-0.1
		c0.1,0,0.3-0.1,0.4,0c0.1,0,0.2,0.1,0.1,0.3c0,0.1-0.2,0.3-0.4,0.3c-0.2,0.1-0.3,0.2-0.4,0.4c0,0.1,0,0.2,0.1,0.3s0.2,0.1,0.3,0.3
		c0.2,0.3,0.3,0.5,0.2,0.7c-0.1,0.2-0.2,0.5-0.4,0.8C39.3,12.6,39.1,13,38.9,13.4 M37.1,17.5l-0.2,0.3l-0.6,0.4L36,18.1l0.8-0.8
		l0.4-0.2c0.1,0,0.2-0.1,0.2-0.1c0.1,0,0.1-0.1,0.1-0.1l0,0c0,0,0,0,0,0.1c0,0,0,0,0,0.1l0.1,0.1L37.1,17.5z M37,9l-0.3,0.7
		l-0.3-0.1c0-0.1,0-0.3,0.1-0.4c0-0.3,0.1-0.4,0.1-0.4c0-0.1,0-0.2,0.1-0.4c0-0.1,0.1-0.2,0.1-0.4l0.4-0.2v0.3v0.2c0,0,0,0.1,0,0.1
		v0.3v0.2L37,9z M43.2,10.2c-0.1,0.1-0.2,0.1-0.3,0c-0.1,0-0.2-0.2-0.1-0.3s0.1-0.3,0.1-0.5c0.1,0,0.4-0.1,0.6-0.1
		c0.1-0.2,0.1-0.5-0.1-0.7c-0.2-0.2-0.3-0.4-0.4-0.6c-0.1-0.3-0.2-0.5-0.3-0.8c-0.1-0.3-0.2-0.5-0.4-0.8C42.2,6.2,42.1,6,42,5.7
		S41.8,5.1,41.7,5c-0.2-0.1-0.3-0.1-0.3,0c-0.1,0.1-0.1,0.3,0,0.4c0,0.1,0.1,0.2,0.1,0.4c0,0.1,0,0.2-0.3,0.3
		c-0.3,0-0.4-0.1-0.5-0.4c-0.1-0.3-0.2-0.6-0.3-0.8c-0.1-0.3-0.1-0.4,0-0.4s0.2,0,0.4-0.2C41,4.2,41,4.1,40.9,4s-0.2-0.3-0.2-0.4
		c-0.1-0.2-0.3-0.4-0.4-0.6c-0.2-0.2-0.3-0.3-0.5-0.5c-0.2-0.3-0.3-0.4-0.5-0.5c-0.2-0.1-0.5,0-0.8,0.3c-0.2,0.1-0.3,0.3-0.3,0.4
		c0,0.1,0,0.2,0,0.3c0,0.1,0.1,0.2,0.2,0.3c0.1,0.1,0.1,0.2,0.1,0.3c0,0.1,0,0.3-0.1,0.4S38.2,3.9,38,3.9c-0.2,0-0.3-0.1-0.3-0.2
		c0-0.1-0.2,0-0.3,0.2c-0.1,0.1-0.2,0.2-0.2,0.4c0,0.1-0.1,0.2-0.2,0.3c-0.1,0-0.2,0-0.3-0.1c-0.1-0.1-0.2-0.2-0.2-0.3
		c-0.1-0.2-0.2-0.4-0.3-0.5c-0.1-0.1-0.3,0-0.6,0.3c-0.1,0.1-0.2,0.3-0.2,0.4c0,0.1,0.1,0.2,0.1,0.3c0.1,0.1,0.1,0.2,0.2,0.3
		s0.1,0.2,0,0.4c-0.1,0.2-0.2,0.3-0.3,0.2c-0.1-0.1-0.2,0-0.4,0.1c-0.2,0.1-0.3,0.2-0.2,0.4s0.1,0.3,0.1,0.4c0,0.1,0,0.3-0.1,0.5
		c-0.1,0.2-0.1,0.3-0.1,0.5c0,0.2-0.1,0.4-0.1,0.5c0,0.2-0.1,0.3-0.1,0.5c0,0.1-0.1,0.3-0.2,0.4c-0.1,0.2-0.1,0.3,0,0.4
		c0.1,0.1,0.1,0.2,0.2,0.2c0,0,0.1,0,0.1-0.1s0.1-0.1,0.1-0.2s0.1-0.1,0.1-0.2c0.1-0.2,0.2-0.3,0.3-0.2c0.1,0,0.1,0.2,0.1,0.4
		c0,0.2-0.1,0.4-0.1,0.5C35,9.7,34.9,9.9,34.9,10c0,0.2-0.1,0.3-0.1,0.5c0,0.1,0,0.3-0.1,0.4c0,0.1,0,0.2-0.1,0.3
		c0,0.1,0,0.2-0.1,0.2c-0.1,0.1-0.2,0.1-0.2,0.1c0,0-0.1-0.1-0.2,0c-0.2,0-0.3,0.1-0.4,0.2c-0.1,0.1-0.1,0.3-0.1,0.4
		c0,0.2,0,0.3,0,0.5c0,0.2,0,0.3,0,0.5c-0.1,0.3-0.2,0.6-0.3,0.9c-0.1,0.3-0.2,0.5-0.3,0.8c-0.1,0.5-0.2,1-0.4,1.5
		c-0.1,0.5-0.2,1-0.3,1.5c0,0.2-0.1,0.5-0.1,0.7c0,0.2-0.1,0.4-0.1,0.7c0.2,0,0.3,0,0.4-0.2c0.1-0.2,0.2-0.3,0.3-0.4
		c0,0.1,0.1,0.2,0,0.4c0,0.2-0.1,0.3-0.1,0.5s-0.1,0.3-0.1,0.5c0,0.2-0.1,0.3-0.1,0.4c0,0.1,0,0.2,0,0.4c0,0.2-0.1,0.3-0.1,0.5
		c-0.1,0.1-0.1,0.2-0.2,0.1s-0.1-0.1-0.1-0.1c0-0.1,0-0.1-0.1-0.2c0-0.1-0.1-0.1-0.1-0.1c-0.1,0-0.1,0.1-0.2,0.2
		c-0.1,0.1-0.1,0.3-0.1,0.5c0,0.2-0.1,0.4-0.1,0.6c0,0.2,0,0.3,0,0.4c0,0.3-0.1,0.7-0.2,1c-0.1,0.3-0.1,0.6-0.2,1
		c0,0.3-0.1,0.6-0.2,0.9c-0.1,0.3-0.1,0.6-0.2,0.9c0,0.2-0.1,0.4-0.1,0.7c0,0.2,0,0.5-0.1,0.7c0,0.1,0,0.2,0,0.3c0,0.1,0,0.2,0,0.3
		c0,0.1,0.1,0.2,0.1,0.2c0.1,0.1,0.1,0.1,0.3,0c0.2-0.1,0.3-0.3,0.3-0.6s0.1-0.5,0.1-0.7c0.1,0,0.1,0,0.2,0s0.1,0.1,0.1,0.1
		c0,0.1,0.1,0.1,0.1,0.1c0,0,0.1,0.1,0.2,0.1c0.2,0,0.3-0.1,0.4-0.3c0.1-0.1,0.1-0.3,0.2-0.4c0-0.1,0.1-0.3,0.1-0.4
		c0-0.1,0-0.3,0.2-0.4c0.2-0.1,0.3-0.2,0.4-0.1s0.1,0.2,0.1,0.3c0,0.1,0,0.3-0.1,0.4c-0.1,0.2-0.1,0.3-0.1,0.5c0,0.2,0,0.3,0,0.4
		c0,0.1,0.1,0.2,0.3,0.2c0.2,0,0.4-0.1,0.5-0.2s0.1-0.3,0.1-0.4c0-0.2,0-0.3,0-0.5s0-0.3,0.1-0.4c0,0,0.1-0.1,0.2-0.1
		c0.1,0,0.1,0,0.1-0.1c0.1-0.1,0.1-0.2,0.1-0.2c0,0,0-0.1,0-0.2c0.1-0.3,0.1-0.6,0.1-0.8c0-0.2,0.1-0.5,0.1-0.8s0.1-0.5,0.2-0.7
		c0-0.1-0.1-0.1-0.3-0.2c-0.1-0.1-0.1-0.2,0-0.3c0.1-0.1,0.1-0.1,0.2-0.1c0.1,0,0.2,0,0.2-0.1c0,0,0.1-0.1,0.1-0.2s0-0.2,0.1-0.2
		c0-0.2,0.1-0.5,0.1-0.9s0.1-0.6,0.2-0.8c0.1-0.1,0.2-0.2,0.3-0.3c0.1-0.1,0.3-0.2,0.4-0.3c0.1-0.1,0.2-0.2,0.3-0.3
		c0.1-0.1,0.2-0.2,0.3-0.3c0.3-0.3,0.6-0.5,0.9-0.8c0.3-0.3,0.6-0.5,0.9-0.8c0.2-0.1,0.3-0.3,0.5-0.4s0.3-0.3,0.5-0.5
		c-0.1-0.1-0.2-0.2-0.3-0.3c-0.1,0-0.1-0.2,0-0.4c0.2-0.3,0.4-0.4,0.6-0.3c0.1,0,0.2,0.1,0.2,0.2c0,0.1,0.1,0,0.3-0.1
		c0.1-0.1,0.2-0.2,0.3-0.3c0.1-0.1,0.1-0.2,0.2-0.4c0.2-0.2,0.4-0.5,0.6-0.6c0.2-0.2,0.4-0.4,0.6-0.6c0.1-0.2,0.2-0.3,0.3-0.5
		c0-0.1,0.1-0.3,0.1-0.4s0-0.3,0-0.4c0-0.1,0-0.3,0-0.5c0-0.3,0.1-0.4,0.3-0.5c0.2-0.1,0.3-0.1,0.6-0.1c0-0.1,0.1-0.2,0.1-0.4
		c0.1-0.2,0.1-0.3,0.1-0.5s0.1-0.3,0.1-0.5c0-0.1,0-0.2-0.1-0.3C43.5,10.1,43.4,10.1,43.2,10.2 M28.5,6.7L28,6.7c0-0.1,0-0.3,0-0.4
		c0-0.2,0.1-0.4,0.1-0.4s0.1-0.1,0.2-0.1c0.2,0,0.2-0.1,0.3-0.1l0.2,0.4L28.5,6.7z M24.7,24.4l-0.3,0.8l-0.2-0.1
		c0-0.1,0-0.3,0.1-0.4c0-0.1,0-0.2,0.1-0.3c0-0.1,0-0.1,0-0.2c0,0,0-0.1,0-0.1c0,0,0-0.1,0.1-0.3c0-0.1,0.1-0.2,0.1-0.4l0.3-0.1
		c0,0.1,0,0.2,0,0.3c0,0,0,0.1,0,0.1c0,0,0,0,0,0.1v0.1v0.5L24.7,24.4z M32.6,4.1c0,0-0.1,0-0.2,0c-0.1,0-0.2,0-0.3,0.1
		c-0.1,0-0.2,0-0.2,0c0,0,0-0.1,0-0.2c0-0.1,0.1-0.2,0.3-0.2c0.2,0,0.4-0.1,0.6-0.1c0.2,0,0.4-0.1,0.6-0.1c0.2,0,0.3,0,0.4,0
		c0.3,0,0.6-0.2,0.9-0.3C35,3,35,2.7,34.8,2.4c-0.1-0.1-0.2-0.1-0.3-0.1c-0.2,0-0.3,0-0.5,0.1c-0.2,0-0.4,0.1-0.5,0.1
		c-0.2,0-0.3,0-0.4,0c-0.1,0-0.2-0.1-0.2-0.1c0,0-0.1,0-0.3,0c-0.3,0-0.5,0.1-0.8,0.2c-0.3,0.1-0.5,0.1-0.8,0.2s-0.6,0.1-0.9,0.1
		c-0.3,0-0.6,0.1-0.8,0.1c-0.1,0-0.3,0.1-0.4,0.1c-0.2,0-0.3,0.1-0.5,0.1c-0.1,0.1-0.3,0.1-0.3,0.2s-0.1,0.2,0,0.3
		c-0.3,0.2-0.5,0.2-0.6,0.1c-0.2-0.1-0.3-0.1-0.6-0.1c-0.1,0-0.2,0-0.3,0.1c-0.1,0.1-0.2,0.1-0.4,0.1C25.8,4,25.7,4,25.6,4
		c-0.1,0-0.2,0-0.4,0c-0.3,0-0.5,0.1-0.6,0.2c-0.1,0.1-0.2,0.3-0.2,0.6c0,0.3,0,0.5,0.1,0.5s0.3,0,0.6-0.1c0,0,0,0.1,0,0.1
		c0,0,0,0.1,0.1,0.1c0,0,0.2,0,0.5-0.1L25.5,6c-0.2,0-0.4,0.1-0.5,0.1c-0.2,0-0.3,0.1-0.4,0.1c-0.1,0-0.2,0.1-0.4,0.3
		c-0.1,0.1-0.1,0.3,0,0.5c0.1,0.1,0.3,0.2,0.5,0.1C24.9,7,25,7,25.2,7c0.3,0,0.6-0.1,0.9-0.2c0.3-0.1,0.6-0.1,1-0.2
		c0,0.2-0.1,0.4-0.1,0.6c0,0.2,0,0.4,0,0.5c0,0.3-0.1,0.7-0.2,1c-0.1,0.4-0.2,0.7-0.2,1c0,0.2-0.1,0.4-0.2,0.5
		c-0.1,0.2-0.1,0.3-0.1,0.5c0,0.2-0.1,0.3-0.1,0.5c0,0.1,0,0.3-0.1,0.5c0,0.2-0.1,0.3-0.1,0.5c0,0.2-0.1,0.3,0,0.5
		c0,0.1,0.1,0.2,0.1,0.2c0,0,0.1,0,0.1,0c0,0,0.1,0,0.2-0.1c0.1,0,0.1,0,0.2,0.1c0,0,0.1,0.2,0.1,0.4c0,0.2,0,0.4,0,0.6
		c0,0.2-0.1,0.4-0.2,0.6C26.2,15,26.1,15,26,15c0,0,0-0.1,0-0.1c0,0,0-0.1,0-0.1c-0.1,0-0.3,0-0.5,0.1c-0.2,0.1-0.3,0.1-0.4,0.3
		c-0.1,0.1-0.2,0.3-0.2,0.4c0,0.2,0,0.3,0,0.4c-0.1,0.3-0.1,0.7-0.2,1c-0.1,0.4-0.1,0.7-0.2,1c0,0.2-0.1,0.3-0.1,0.5
		c0,0.1-0.1,0.2-0.1,0.3c0,0.1-0.1,0.2-0.1,0.3c0,0.1-0.1,0.3-0.1,0.5c0,0.1-0.1,0.2-0.1,0.4c0,0.2-0.1,0.4-0.1,0.6
		c0,0.2-0.1,0.4-0.1,0.6c0,0.2,0,0.3,0,0.4c0,0.1,0.1,0.1,0.2,0.1c0.1,0,0.1,0,0.2,0.1c0.1,0,0.1,0.1,0.1,0.1c0,0.1,0,0.2-0.1,0.3
		c-0.1,0.2-0.2,0.3-0.3,0.3s-0.2,0.1-0.4,0.1c-0.1,0.3-0.2,0.7-0.2,1c-0.1,0.3-0.1,0.7-0.2,1c-0.1,0.3-0.2,0.6-0.3,1.1
		c-0.2,0.4-0.2,0.7-0.1,1c0,0.1,0.1,0.2,0.1,0.1c0,0,0.1,0.1,0,0.3c0,0.1-0.1,0.3-0.2,0.4c0,0.1-0.1,0.3-0.1,0.5c0,0.2,0,0.3,0,0.5
		c0,0.1,0.1,0.2,0.2,0.3c0.1,0.1,0.3,0.1,0.4,0c0.2,0,0.3-0.1,0.4-0.2c0-0.1,0.1-0.2,0.1-0.4c0-0.1,0-0.2,0.1-0.4
		c0-0.2,0-0.4,0.1-0.6s0.1-0.4,0.2-0.6c0.1-0.2,0.2-0.2,0.3-0.2c0.1,0,0.1,0,0.2,0.1c0,0.1,0,0.1,0,0.2c0,0.1,0,0.2-0.1,0.3
		c0,0.1,0,0.2,0,0.2c0,0,0.2,0,0.4,0c0.2-0.1,0.4-0.1,0.5,0c0,0.1,0,0.2-0.1,0.4c0,0.2-0.1,0.3-0.1,0.5s-0.1,0.3-0.1,0.4
		s0,0.2,0.1,0.3c0.1,0,0.2-0.1,0.3-0.1c0.1,0,0.2-0.1,0.3-0.2c0.1-0.1,0.2-0.2,0.2-0.4c0.1-0.2,0.1-0.4,0.1-0.6
		c0-0.2,0.1-0.4,0.1-0.6c0-0.2,0.1-0.3,0.1-0.5c0-0.2,0.1-0.3,0.2-0.5c0.1-0.2,0.1-0.3,0.2-0.5c0-0.2,0.1-0.4,0-0.5
		c0-0.1,0-0.3,0.1-0.5c0.1-0.1,0.2-0.3,0.4-0.5c0.1-0.2,0.1-0.3-0.1-0.5c-0.1,0-0.1-0.1-0.2,0c-0.1,0-0.1,0-0.2,0.1
		c-0.1,0-0.1,0-0.1,0c0,0-0.1-0.1-0.1-0.3c0-0.1,0-0.2,0.1-0.4c0-0.2,0.1-0.4,0.1-0.6c0.1-0.2,0.1-0.4,0.2-0.5
		c0.1-0.1,0.2-0.2,0.3-0.1c0,0,0.1,0.1,0,0.2c0,0.1,0,0.2-0.1,0.3c0,0.1,0,0.2,0,0.3c0,0.1,0.1,0.1,0.2,0.1c0.2,0,0.3-0.2,0.3-0.4
		c0-0.2,0.1-0.3,0.1-0.5c0-0.3,0.1-0.7,0.2-1.1c0.1-0.4,0.2-0.8,0.3-1.1c0.1-0.3,0.1-0.5,0.2-0.8c0-0.2,0.1-0.4,0.1-0.6
		c0-0.2,0.1-0.4,0.1-0.6c0-0.2,0.1-0.5,0.2-0.8c0.1-0.4,0.2-0.8,0.3-1.1c0.1-0.4,0.2-0.7,0.3-1.1c0.1-0.5,0.3-0.9,0.3-1.4
		c0.1-0.5,0.2-0.9,0.3-1.3c0-0.1,0-0.2,0.1-0.2c0-0.1,0-0.1,0-0.2c0,0,0-0.1-0.1-0.2c-0.1-0.1-0.1-0.1-0.1-0.2c0-0.1,0-0.2,0.1-0.4
		c0.1-0.1,0.2-0.2,0.3-0.4c0.1-0.1,0.1-0.3,0.2-0.4c0-0.1,0-0.3-0.1-0.4c-0.2,0-0.3,0.1-0.4,0.1c-0.1,0-0.2-0.1-0.2-0.2
		c0-0.1,0-0.3,0-0.4c0-0.2,0.1-0.3,0.2-0.4C29.9,8.2,30,8.1,30.1,8s0.2-0.1,0.3-0.2c0.1-0.1,0.2-0.1,0.3-0.2s0.1-0.2,0.2-0.4
		c0-0.2,0.1-0.4,0.2-0.7c0.1-0.3,0.1-0.6,0.1-0.8c0.3,0,0.7-0.1,1-0.1c0.3,0,0.6-0.1,1-0.1c0.1,0,0.3,0,0.5-0.1c0.2,0,0.3,0,0.5-0.1
		c0.2,0,0.3-0.1,0.4-0.2c0.1-0.1,0.2-0.2,0.2-0.4c0-0.2,0-0.3-0.1-0.3c-0.1,0-0.3,0-0.5,0c-0.2,0-0.4,0.1-0.6,0.1
		c-0.2,0-0.3,0.1-0.5,0.1C33.1,4.2,33,4,32.6,4.1 M18.8,6.7l-0.5-0.1c0-0.1,0-0.3,0-0.4c0-0.2,0.1-0.4,0.1-0.4s0.1-0.1,0.2-0.1
		c0.2,0,0.2-0.1,0.3-0.1l0.2,0.4L18.8,6.7z M14.9,24.4l-0.3,0.8l-0.2-0.1c0-0.1,0-0.3,0.1-0.4c0-0.1,0-0.2,0.1-0.3
		c0-0.1,0-0.1,0-0.2c0,0,0-0.1,0-0.1c0,0,0-0.1,0.1-0.3c0-0.1,0.1-0.2,0.1-0.4l0.3-0.1c0,0.1,0,0.2,0,0.3c0,0,0,0.1,0,0.1
		c0,0,0,0,0,0.1v0.1v0.5L14.9,24.4z M22.9,4.1c0,0-0.1,0-0.2,0c-0.1,0-0.2,0-0.3,0.1c-0.1,0-0.2,0-0.2,0c0,0,0-0.1,0-0.2
		c0-0.1,0.1-0.2,0.3-0.2s0.4-0.1,0.6-0.1c0.2,0,0.4-0.1,0.6-0.1c0.2,0,0.3,0,0.4,0c0.3,0,0.6-0.2,0.9-0.3C25.2,3,25.2,2.7,25,2.4
		c-0.1-0.1-0.2-0.1-0.3-0.1c-0.2,0-0.3,0-0.5,0.1c-0.2,0-0.4,0.1-0.5,0.1c-0.2,0-0.3,0-0.4,0c-0.1,0-0.2-0.1-0.2-0.1
		c0,0-0.1,0-0.3,0c-0.3,0-0.5,0.1-0.8,0.2c-0.3,0.1-0.5,0.1-0.8,0.2c-0.3,0-0.6,0.1-0.9,0.1c-0.3,0-0.6,0.1-0.8,0.1
		C19.2,2.9,19,3,18.9,3c-0.2,0-0.3,0.1-0.5,0.1c-0.1,0.1-0.3,0.1-0.3,0.2s-0.1,0.2,0,0.3c-0.3,0.2-0.5,0.2-0.6,0.1
		c-0.2-0.1-0.3-0.1-0.6-0.1c-0.1,0-0.2,0-0.3,0.1c-0.1,0.1-0.2,0.1-0.4,0.1C16.1,4,16,4,15.9,4c-0.1,0-0.2,0-0.4,0
		c-0.3,0-0.5,0.1-0.6,0.2c-0.1,0.1-0.2,0.3-0.2,0.6c0,0.3,0,0.5,0.1,0.5s0.3,0,0.6-0.1c0,0,0,0.1,0,0.1c0,0,0,0.1,0.1,0.1
		c0,0,0.2,0,0.5-0.1L15.8,6c-0.2,0-0.4,0.1-0.5,0.1c-0.2,0-0.3,0.1-0.4,0.1c-0.1,0-0.2,0.1-0.4,0.3c-0.1,0.1-0.1,0.3,0,0.5
		c0.1,0.1,0.3,0.2,0.5,0.1C15.1,7,15.3,7,15.4,7c0.3,0,0.6-0.1,0.9-0.2c0.3-0.1,0.6-0.1,1-0.2c0,0.2-0.1,0.4-0.1,0.6
		c0,0.2,0,0.4,0,0.5c0,0.3-0.1,0.7-0.2,1c-0.1,0.4-0.2,0.7-0.2,1c0,0.2-0.1,0.4-0.2,0.5c-0.1,0.2-0.1,0.3-0.1,0.5
		c0,0.2-0.1,0.3-0.1,0.5c0,0.1,0,0.3-0.1,0.5c0,0.2-0.1,0.3-0.1,0.5c0,0.2-0.1,0.3,0,0.5c0,0.1,0.1,0.2,0.1,0.2c0,0,0.1,0,0.1,0
		c0,0,0.1,0,0.2-0.1c0.1,0,0.1,0,0.2,0.1c0,0,0.1,0.2,0.1,0.4c0,0.2,0,0.4,0,0.6c0,0.2-0.1,0.4-0.2,0.6C16.5,15,16.4,15,16.3,15
		c0,0,0-0.1,0-0.1c0,0,0-0.1,0-0.1c-0.1,0-0.3,0-0.5,0.1c-0.2,0.1-0.3,0.1-0.4,0.3c-0.1,0.1-0.2,0.3-0.2,0.4c0,0.2,0,0.3,0,0.4
		c-0.1,0.3-0.1,0.7-0.2,1c-0.1,0.4-0.1,0.7-0.2,1c0,0.2-0.1,0.3-0.1,0.5c0,0.1-0.1,0.2-0.1,0.3c0,0.1-0.1,0.2-0.1,0.3
		c0,0.1-0.1,0.3-0.1,0.5c0,0.1-0.1,0.2-0.1,0.4c0,0.2-0.1,0.4-0.1,0.6c0,0.2-0.1,0.4-0.1,0.6c0,0.2,0,0.3,0,0.4
		c0,0.1,0.1,0.1,0.2,0.1c0.1,0,0.1,0,0.2,0.1c0.1,0,0.1,0.1,0.1,0.1c0,0.1,0,0.2-0.1,0.3c-0.1,0.2-0.2,0.3-0.3,0.3s-0.2,0.1-0.4,0.1
		c-0.1,0.3-0.2,0.7-0.2,1c-0.1,0.3-0.1,0.7-0.2,1c-0.1,0.3-0.2,0.6-0.3,1.1c-0.2,0.4-0.2,0.7-0.1,1c0,0.1,0.1,0.2,0.1,0.1
		c0,0,0.1,0.1,0,0.3c0,0.1-0.1,0.3-0.2,0.4c0,0.1-0.1,0.3-0.1,0.5c0,0.2,0,0.3,0,0.5c0,0.1,0.1,0.2,0.2,0.3c0.1,0.1,0.3,0.1,0.4,0
		c0.2,0,0.3-0.1,0.4-0.2c0-0.1,0.1-0.2,0.1-0.4c0-0.1,0-0.2,0.1-0.4c0-0.2,0-0.4,0.1-0.6c0-0.2,0.1-0.4,0.2-0.6
		c0.1-0.2,0.2-0.2,0.3-0.2c0.1,0,0.1,0,0.2,0.1c0,0.1,0,0.1,0,0.2c0,0.1,0,0.2-0.1,0.3c0,0.1,0,0.2,0,0.2c0,0,0.2,0,0.4,0
		c0.2-0.1,0.4-0.1,0.4,0c0,0.1,0,0.2-0.1,0.4c0,0.2-0.1,0.3-0.1,0.5s-0.1,0.3-0.1,0.4s0,0.2,0.1,0.3c0.1,0,0.2-0.1,0.3-0.1
		c0.1,0,0.2-0.1,0.3-0.2c0.1-0.1,0.2-0.2,0.2-0.4c0.1-0.2,0.1-0.4,0.1-0.6c0-0.2,0.1-0.4,0.1-0.6c0-0.2,0.1-0.3,0.1-0.5
		c0-0.2,0.1-0.3,0.2-0.5c0.1-0.2,0.1-0.3,0.2-0.5c0-0.2,0.1-0.4,0-0.5c0-0.1,0-0.3,0.1-0.5c0.1-0.1,0.2-0.3,0.4-0.5
		c0.1-0.2,0.1-0.3-0.1-0.5c-0.1,0-0.1-0.1-0.2,0c-0.1,0-0.1,0-0.2,0.1c-0.1,0-0.1,0-0.1,0s-0.1-0.1-0.1-0.3c0-0.1,0-0.2,0.1-0.4
		s0.1-0.4,0.1-0.6c0.1-0.2,0.1-0.4,0.2-0.5c0.1-0.1,0.2-0.2,0.3-0.1c0,0,0.1,0.1,0,0.2c0,0.1,0,0.2-0.1,0.3c0,0.1,0,0.2,0,0.3
		c0,0.1,0.1,0.1,0.2,0.1c0.2,0,0.3-0.2,0.3-0.4c0-0.2,0.1-0.3,0.1-0.5c0-0.3,0.1-0.7,0.2-1.1c0.1-0.4,0.2-0.8,0.3-1.1
		c0.1-0.3,0.1-0.5,0.2-0.8c0-0.2,0.1-0.4,0.1-0.6c0-0.2,0.1-0.4,0.1-0.6c0-0.2,0.1-0.5,0.2-0.8c0.1-0.4,0.2-0.8,0.3-1.1
		c0.1-0.4,0.2-0.7,0.3-1.1c0.1-0.5,0.3-0.9,0.3-1.4c0.1-0.5,0.2-0.9,0.3-1.3c0-0.1,0-0.2,0.1-0.2c0-0.1,0-0.1,0-0.2
		c0,0,0-0.1-0.1-0.2c-0.1-0.1-0.1-0.1-0.1-0.2c0-0.1,0-0.2,0.1-0.4c0.1-0.1,0.2-0.2,0.3-0.4c0.1-0.1,0.1-0.3,0.2-0.4
		c0-0.1,0-0.3-0.1-0.4c-0.2,0-0.3,0.1-0.4,0.1c-0.1,0-0.2-0.1-0.2-0.2c0-0.1,0-0.3,0-0.4c0-0.2,0.1-0.3,0.2-0.4
		c0.1-0.1,0.2-0.2,0.3-0.3s0.2-0.1,0.3-0.2c0.1-0.1,0.2-0.1,0.3-0.2c0.1-0.1,0.1-0.2,0.2-0.4c0-0.2,0.1-0.4,0.2-0.7s0.1-0.6,0.1-0.8
		c0.3,0,0.7-0.1,1-0.1c0.3,0,0.6-0.1,1-0.1c0.1,0,0.3,0,0.5-0.1c0.2,0,0.3,0,0.5-0.1c0.2,0,0.3-0.1,0.4-0.2c0.1-0.1,0.2-0.2,0.2-0.4
		c0-0.2,0-0.3-0.1-0.3c-0.1,0-0.3,0-0.5,0c-0.2,0-0.4,0.1-0.6,0.1c-0.2,0-0.3,0.1-0.5,0.1C23.4,4.2,23.2,4,22.9,4.1 M8.3,24.3
		L8.1,25l-0.3,0.1c0-0.2,0-0.3,0.1-0.4c0-0.1,0-0.2,0-0.3s0-0.1,0-0.1c0,0,0-0.1,0.1-0.2c0-0.1,0.1-0.2,0.1-0.3
		c0-0.1,0.1-0.3,0.1-0.5h0.1c0,0,0,0,0.1,0c0,0,0,0,0.1,0c0.1,0,0.1,0,0.2,0l-0.1,0.7L8.3,24.3z M6.9,7.9C6.8,8,6.8,8,6.8,8.1
		c0,0,0,0.2-0.1,0.4c0,0.1,0,0.2,0,0.4L6.3,8.9c0-0.1,0-0.3,0-0.4c0-0.1,0-0.2,0-0.3c0-0.1,0-0.1,0-0.2c0,0,0-0.1,0-0.1
		c0-0.1,0-0.2,0-0.3c0-0.1,0-0.2,0-0.3l0.2-0.1C6.9,7.1,7,7,7,7c0,0.1,0,0.1,0,0.2l0.1,0.2c0,0,0,0.1,0,0.1c0,0,0,0.1,0,0.1
		C7,7.7,7,7.8,6.9,7.9 M12.1,13.7c0.1-0.2,0.1-0.3,0-0.4c0-0.1-0.1-0.1-0.1-0.1c0,0-0.1,0-0.1,0.1c0,0-0.1,0.1-0.1,0.1
		c0,0-0.1,0.1-0.2,0.1c0-0.1,0-0.2-0.1-0.3c-0.1-0.1-0.1-0.2-0.1-0.3c0-0.1,0-0.3,0-0.4s0.1-0.3,0.1-0.4c0-0.1,0.1-0.3,0.1-0.5
		s0.1-0.3,0.2-0.4c0.1-0.2,0.2-0.2,0.3-0.1c0,0.1,0.1,0.2,0.1,0.3c0.2-0.1,0.3-0.2,0.3-0.4s0.1-0.3,0.1-0.5c0-0.2,0.1-0.4,0.2-0.8
		c0.1-0.3,0.2-0.7,0.3-1c0-0.3,0.1-0.6,0.1-0.8c0-0.2-0.1-0.4-0.3-0.4c-0.1,0-0.1,0-0.2,0c-0.1,0-0.1,0-0.1,0.1c0,0-0.1,0-0.1,0
		s0-0.1,0-0.2c0-0.1,0.1-0.3,0.1-0.4c0.1-0.1,0.1-0.3,0.1-0.4c0-0.1,0.1-0.2,0.1-0.4c0.1-0.1,0.1-0.3,0.1-0.5c0-0.2,0-0.3,0-0.4
		S13,4.9,12.9,4.8c-0.1,0-0.2-0.1-0.4,0c-0.2,0-0.3,0.1-0.4,0.1c-0.2,0-0.3,0.1-0.4,0.2c0,0.1-0.1,0.2-0.1,0.4
		c0,0.1-0.1,0.2-0.1,0.3c0,0.1-0.1,0.3-0.1,0.5c0,0.2-0.1,0.3-0.1,0.5c0,0.1-0.1,0.2-0.2,0.2c-0.2,0.1-0.3,0.1-0.3,0
		c0-0.1,0-0.2,0-0.4c0-0.2,0.1-0.3,0.1-0.4c0-0.1,0-0.2-0.1-0.4c0-0.1,0-0.2,0-0.3s0-0.3,0-0.4c0-0.1,0-0.2-0.1-0.3
		s-0.1-0.1-0.3-0.1c-0.1,0-0.3,0.1-0.3,0.2c-0.1,0.1-0.1,0.2-0.2,0.4C10,5.4,10,5.5,10,5.7C9.9,5.8,9.9,6,9.9,6
		C9.8,6.3,9.7,6.6,9.6,6.9c0,0.3-0.1,0.6-0.1,0.9c0,0.2-0.1,0.3,0,0.4c0,0.1,0.1,0.1,0.3,0.2C9.9,8.4,10,8.5,10,8.5s0,0.1,0,0.3
		c0,0.1-0.1,0.3-0.1,0.4c0,0.1-0.1,0.3-0.2,0.4c-0.2,0.4-0.4,0.4-0.4,0C9.1,9.7,9,9.8,8.9,9.9c-0.1,0.1-0.1,0.3-0.2,0.5
		s0,0.3-0.1,0.5c0,0.2,0,0.3,0,0.4c0,0.1,0,0.1,0,0.1c-0.1,0.1-0.3,0.1-0.4,0.2s-0.3,0.1-0.4,0c0.1-0.1,0.1-0.2,0.1-0.2
		c0,0,0-0.1-0.1-0.1s-0.1,0-0.2,0s-0.2,0-0.2,0.1c0,0-0.1,0-0.1,0.1c0,0-0.1,0-0.2,0.1c0-0.2,0.1-0.4,0.1-0.6s0.1-0.4,0.2-0.6
		c0.1-0.4,0.2-0.8,0.2-1.2c0-0.4,0.1-0.8,0.3-1.2c0.1-0.3,0.2-0.7,0.3-1c0.1-0.3,0.1-0.6,0.3-1c0,0,0-0.1,0.1-0.2
		c0-0.1,0.1-0.2,0.1-0.2c0-0.1-0.1-0.2-0.1-0.1s-0.1,0-0.1,0C8.1,5.5,8,5.3,8.2,5c0.1-0.2,0.2-0.3,0.3-0.3c0.1,0,0.2-0.1,0.3-0.2
		C8.9,4.4,9,4.3,8.9,4.1s0-0.3,0-0.4c0-0.1,0-0.3,0.1-0.4c0-0.1,0.1-0.3,0.1-0.4c0-0.1,0.1-0.3,0.1-0.4s0-0.2-0.1-0.3
		C8.7,2,8.5,2,8.3,2.2C8.1,2.4,8,2.7,7.9,3c0,0.1-0.1,0.2-0.1,0.4c0,0.1-0.2,0.2-0.3,0.2c-0.1,0-0.3,0-0.3-0.1
		C7.1,3.3,7,3.4,6.9,3.7c0,0.1-0.1,0.2-0.1,0.4c0,0.2-0.1,0.3-0.1,0.5c0,0.2-0.1,0.3-0.2,0.4C6.3,5,6.2,5,6.1,4.9C6,4.9,6,4.8,6,4.6
		C6,4.5,6,4.3,6,4.2c0-0.2,0.1-0.3,0.1-0.5c0-0.2,0.1-0.3,0.1-0.4c0-0.1,0.1-0.2,0.1-0.4s0-0.2-0.1-0.3c-0.1,0-0.2,0-0.4,0
		C5.6,2.7,5.4,2.8,5.4,2.9C5.2,3,5.1,3.2,5.1,3.4S5,3.9,4.9,4c0,0.2-0.1,0.4-0.1,0.6S4.7,5,4.7,5.2c0,0.3-0.1,0.5-0.2,0.8
		C4.4,6.3,4.4,6.5,4.4,6.8c0,0.1,0,0.2,0,0.3c0,0.1,0.1,0.2,0.1,0.3c0.1,0,0.2,0,0.3-0.1c0-0.1,0.1-0.2,0.1-0.3c0.1,0,0.2,0,0.2,0.1
		c0,0.1,0,0.1,0,0.2C5.1,7.2,5,7.2,5,7.3c0,0.1-0.1,0.1-0.1,0.2c0,0.1-0.1,0.3-0.1,0.4c0,0.2-0.1,0.3-0.2,0.5
		C4.5,8.5,4.4,8.6,4.3,8.6c-0.1,0-0.2,0-0.4,0.1C3.8,8.8,3.7,9,3.7,9.1c0,0.2,0,0.3,0,0.4c0,0,0,0,0.1,0s0,0,0.1,0.1
		c0,0,0,0.1,0,0.1s0,0.1,0,0.1c0,0.1,0,0.1-0.1,0.2c0,0.1-0.1,0.1-0.1,0.2c0,0.1-0.1,0.3-0.1,0.4s-0.1,0.3-0.1,0.4
		c-0.2,0.6-0.3,1.1-0.4,1.6c-0.1,0.7-0.3,1.4-0.5,2.1s-0.4,1.4-0.4,2.1c0,0.2,0,0.3,0.1,0.3c0,0,0.2,0,0.3-0.2
		c0.1-0.1,0.1-0.2,0.2-0.3c0.1-0.1,0.2-0.1,0.3,0c0,0,0,0.1,0,0.3c0,0.1-0.1,0.3-0.1,0.5c-0.1,0.2-0.1,0.3-0.2,0.5
		c0,0.1-0.1,0.3-0.1,0.3c-0.1,0.2-0.2,0.4-0.3,0.5c-0.1,0.1-0.2,0-0.3-0.2c0-0.1,0-0.1,0-0.2c0-0.1,0-0.1-0.2,0
		c-0.1,0-0.2,0.1-0.2,0.3s-0.1,0.2-0.1,0.3c0,0.2-0.1,0.4,0,0.5c0,0.2,0,0.3,0,0.5c0,0.3-0.1,0.5-0.2,0.8c-0.1,0.3-0.2,0.6-0.2,0.9
		C1,21.9,1,22.3,0.9,22.6c-0.1,0.4-0.1,0.7-0.2,1.1c0,0.2-0.1,0.4-0.1,0.5s0,0.3-0.1,0.5c0,0.3-0.1,0.6-0.2,0.9
		c0,0.2-0.1,0.5-0.2,0.8S0,27.1,0,27.3c0.1,0.2,0.3,0.2,0.5-0.1c0.1-0.1,0.2-0.3,0.2-0.4s0-0.2,0-0.3c0-0.1,0-0.2,0.1-0.3
		s0.1-0.3,0.2-0.4c0.1-0.1,0.1-0.2,0.2-0.2c0.1,0,0.1,0,0.2,0.2c0,0.2,0,0.4-0.1,0.8c-0.1,0.3-0.2,0.6-0.2,0.8c0,0.1,0,0.3,0.1,0.3
		c0.1,0.1,0.2,0.1,0.3,0.1s0.3,0,0.4-0.1c0.1-0.1,0.3-0.2,0.3-0.3c0.1-0.1,0.1-0.3,0.1-0.5s0-0.4,0.1-0.5c0-0.2,0.1-0.4,0.1-0.5
		s0-0.3,0.1-0.5c0-0.1,0.1-0.3,0.2-0.4c0.1-0.1,0.2-0.2,0.3,0c0,0,0.1,0.1,0.1,0.2v0.2c0,0,0,0.1,0.1,0.1c0,0,0.1,0,0.3-0.1
		c0.4-0.1,0.6-0.3,0.6-0.6c0-0.3,0.1-0.6,0.1-0.9s0.1-0.5,0.2-0.8c0.1-0.3,0.2-0.6,0.2-0.8c0-0.3,0.1-0.6,0.2-0.9
		c0.1-0.3,0.2-0.6,0.3-0.9c0-0.2,0.1-0.4,0.1-0.6c0-0.2,0.1-0.4,0.2-0.6c0-0.1,0.1-0.3,0.1-0.4s0.1-0.3,0-0.5c-0.1,0-0.3,0-0.3,0
		c-0.1,0-0.2-0.1-0.3-0.2c-0.1-0.2-0.1-0.3,0-0.4c0.1-0.1,0.2-0.1,0.4-0.2c0.2,0,0.4-0.1,0.5-0.2C5.9,17.1,6,17,6,16.9
		c0-0.1,0-0.2,0-0.3c0-0.1,0-0.3,0-0.4c0-0.1,0.1-0.3,0.1-0.4c0-0.1,0.1-0.3,0.1-0.4c0.1,0,0.2-0.1,0.3-0.1c0.1,0,0.2-0.1,0.2-0.1
		c0.2,0,0.4-0.1,0.6-0.2c0.2-0.1,0.4-0.1,0.6-0.2c0,0.3-0.1,0.6-0.2,0.9s-0.1,0.6-0.2,0.9c-0.1,0.3-0.1,0.5-0.2,0.8
		s-0.1,0.5-0.2,0.8c0,0.1-0.1,0.3-0.1,0.4c0,0.1,0,0.3-0.1,0.4c0,0.1-0.1,0.2-0.2,0.4s-0.1,0.3-0.1,0.4c0.1,0.1,0.2,0.1,0.3,0
		s0.2-0.1,0.3-0.1c0.1,0,0.1,0.2,0.1,0.3c0,0.2,0,0.3-0.1,0.4c0,0.1-0.1,0.3-0.1,0.4c0,0.2,0,0.3-0.1,0.5c0,0.1-0.1,0.3-0.2,0.4
		S7,21.7,6.9,21.5v-0.2v-0.3c0-0.1,0-0.1-0.1-0.1S6.7,21,6.6,21c-0.1,0-0.2,0.2-0.2,0.3c0,0.2-0.1,0.3-0.1,0.4
		c0,0.3-0.1,0.5-0.1,0.8c0,0.3-0.1,0.6-0.1,0.8C6,23.7,6,24,5.9,24.2c0,0.3-0.1,0.5-0.2,0.8c-0.1,0.3-0.2,0.6-0.2,0.9
		c0,0.3-0.1,0.5-0.1,0.8c0,0.1,0,0.2-0.1,0.4c0,0.1,0,0.2,0.1,0.3c0.2,0,0.3,0,0.3-0.2S5.9,27,6,26.9c0.1-0.1,0.2-0.2,0.3-0.1
		c0,0.1,0,0.2,0,0.3s0,0.3-0.1,0.5c0,0.2-0.1,0.3-0.1,0.3c0,0.1-0.1,0.3-0.1,0.4C6,28.5,6,28.7,6,28.8c0,0.1,0,0.3,0,0.3
		c0,0.1,0.1,0.1,0.3,0.1c0.3,0,0.6-0.1,0.7-0.4c0.1-0.2,0.2-0.5,0.3-0.7c0-0.1,0.1-0.3,0.1-0.4c0-0.1,0.2-0.2,0.3-0.3
		c0.2,0,0.2,0,0.2,0.2c0,0.1,0,0.3-0.1,0.4c0,0.1,0,0.2-0.1,0.3c0,0.2-0.1,0.3-0.1,0.5c0,0.2,0,0.3,0,0.4c0,0.1,0.1,0.2,0.2,0.2
		c0.2,0,0.3-0.1,0.4-0.4s0.3-0.6,0.4-0.9c0.1-0.4,0.2-0.7,0.3-1C8.9,26.8,9,26.6,9,26.5c0.1-0.4,0.2-0.7,0.3-1.1
		c0-0.4,0.1-0.7,0.3-1.1c0.3-0.8,0.6-1.7,0.8-2.6c0-0.2,0.1-0.5,0.1-0.7c0-0.2,0.1-0.5,0.1-0.7c0-0.1,0-0.3,0.1-0.4s0.1-0.3,0.1-0.5
		c0-0.1,0.1-0.2,0.1-0.3c0-0.1,0.1-0.2,0.1-0.3c0-0.2,0-0.3-0.1-0.3c-0.1,0-0.2,0-0.3,0c-0.2-0.1-0.3-0.3-0.2-0.6
		c0-0.2,0.1-0.3,0.2-0.3c0.1,0,0.2-0.1,0.3-0.2c0.1-0.2,0.2-0.4,0.3-0.8s0.1-0.6,0.1-0.8c0.1-0.3,0.2-0.6,0.3-0.9
		c0.1-0.3,0.2-0.6,0.3-0.9C12,14,12,13.9,12.1,13.7"/>
</g>
</svg>
