<?xml version="1.0" encoding="utf-8"?>
<!-- Generator: Adobe Illustrator 22.1.0, SVG Export Plug-In . SVG Version: 6.00 Build 0)  -->
<svg version="1.1" id="Layer_1" xmlns="http://www.w3.org/2000/svg" xmlns:xlink="http://www.w3.org/1999/xlink" x="0px" y="0px"
	 viewBox="0 0 108.6 155.9" style="enable-background:new 0 0 108.6 155.9;" xml:space="preserve">
<style type="text/css">
	.st0{fill:#343434;}
</style>
<g>
	<path class="st0" d="M67.7,18.5l1.9-1.2c-0.3-0.7-0.9-1.4-1.4-2c-3-3-8.3-4.7-12.6-5c0-0.2-0.1-0.4-0.1-0.6
		c0.1-0.2,0.1-0.3,0.1-0.5c0,0,0,0,0-0.1c0,0,0,0,0,0C55.8,9,56,8.8,56.2,8.7C56.9,8,57.2,6.9,57,5.9c-0.2-1.5-2-2-2-2l0-1.3h1.4
		l0-1H55V0l-1.2,0l0,1.6l-1.4,0l0,1h1.4l0,1.2c0,0-1.1,0.4-1.5,0.9c-0.6,0.7-0.9,1.8-0.6,2.7c0.2,0.7,0.7,1.3,1.4,1.6c0,0,0,0,0,0
		c0,0,0,0,0,0.1c0,0.2,0.1,0.4,0.1,0.5c-0.1,0.2-0.1,0.4-0.1,0.6c-4.4,0.3-9.2,1.5-13,5.4c-0.4,0.5-0.8,1-1.1,1.6
		c0.7,0.4,1.3,0.9,2,1.2c2.5-3.8,6.8-5.2,11.1-5.6c0.3,1.2,0.5,2.5,0.7,3.7c0.6-0.1,1-0.7,1.6-0.8l1.4,1c0.3-1.2,0.5-2.5,0.8-3.8
		l0.1-0.1c1.6,0.1,3.2,0.4,4.6,0.9C63.8,14.6,66.2,16.2,67.7,18.5 M66.8,32.6L71,18.8l-0.1-0.1c-0.9,0.7-2,1.1-2.9,1.7
		c-0.3,0.6-0.2,1.1-0.6,1.8c-0.2-0.3-0.3-0.6-0.5-0.8c-0.5-0.4-1.1-0.4-1.7-0.3c-1,0.3-1.4,1.2-1.6,2c-0.3,1.1,0.1,2.2,0.8,3
		c0.2,0.1,0.4,0,0.6-0.1c0.1-0.6,0.1-1.2,0.5-1.6c0.3-0.3,0.7-0.4,1.2-0.3c0.1,0.1,0.2,0.3,0.3,0.4c0.2,0.6-0.1,1.2-0.3,1.7
		c-0.5,0.8-1.3,1.3-2.1,1.1c-0.9-0.1-1.7-0.7-2.2-1.5c-0.4-0.8-0.4-2,0-2.9c0.2,0,1.3-0.5,1.1-1.4c-0.1-0.3-0.7-0.7-0.7-0.7l0.2-2.8
		l-1.5,0l-0.5,2.5c0,0-0.8,0.3-1.1,0.7c-0.2,0.3-0.3,0.6-0.3,0.9c0.1,0.4,0.6,0.7,0.9,0.8c0,1.7-0.8,3.5-2.5,4.2
		c-0.7,0.3-1.4,0.1-2-0.4c-0.4-0.6-0.7-1.3-0.4-2c0.1-0.5,0.6-0.6,1.1-0.7c0.3,0.1,0.5,0.3,0.6,0.5c0.1,0.4,0,0.8-0.1,1.2
		c0.1,0.1,0.3,0.3,0.4,0.2c0.8-0.3,1.5-1.1,1.5-2c0.3-0.9,0-1.9-0.6-2.6c-0.5-0.5-1.2-0.7-1.9-0.5c-0.7,0.1-1.1,0.9-1.4,1
		c-0.1-0.6,0.3-1.1,0.5-1.7c0.5-1.1-0.5-2-1.2-2.7h-0.3c-0.6,0.7-1.5,1.4-1.4,2.3c0.1,0.7,0.6,1.4,0.4,2.1c-0.4-0.3-0.9-0.8-1.5-0.9
		c-0.7,0-1.5,0.2-1.9,0.9c-0.7,1.1-0.5,2.7,0.3,3.7c0.3,0.3,0.7,0.6,1.1,0.4c0.1-0.4-0.1-0.8,0-1.3c0.1-0.3,0.3-0.6,0.6-0.7
		c0.4-0.2,0.8,0.1,1.1,0.4c0.4,0.7,0.1,1.5-0.3,2.1c-0.5,0.4-1.1,0.8-1.8,0.7c-1.7-0.5-2.4-2.3-2.7-3.9c-0.4-1,1.1-0.9,0.7-1.9
		c-0.1-0.5-1.1-0.8-1.1-0.8L47.1,18l-1.4,0c0,0,0.4,2.4,0.3,2.7c-0.2,0.2-0.3,0.2-0.6,0.5c-0.3,0.3-0.2,0.6-0.1,1
		c0.2,0.6,0.8,0.4,1.2,0.9c0.3,1.4,0,2.8-1,3.7c-0.6,0.5-1.3,0.7-2,0.6c-0.8-0.1-1.4-0.7-1.8-1.4c-0.2-0.6-0.3-1.2,0.2-1.7
		c0.2-0.2,0.6-0.3,0.8-0.1c0.7,0.3,0.7,1.1,0.8,1.7c0.1,0.1,0.3,0.3,0.5,0.3c0.7-0.5,1-1.3,1.1-2.1c-0.1-1.1-0.3-2.3-1.4-3
		c-0.6-0.2-1.3-0.1-1.7,0.2c-0.4,0.3-0.5,0.8-0.9,1c-0.1-0.6-0.3-1.2-0.4-1.8l-2.9-1.8l-0.1,0l4.1,13.7L66.8,32.6z M106.5,101.5
		c-1.3,3.2-4.9,4.1-8.1,4.6c-6.8,0.5-12.8-1.7-18.5-4.2c-0.5-0.2-0.9-0.5-1.3-0.8c6.9-3.5,15.4-5.8,23.7-3.7
		c1.3,0.4,2.6,0.9,3.6,1.9C106.5,99.9,106.6,100.7,106.5,101.5 M71.9,100.1c-3.9,2.9-7.5,6.2-10.7,9.7l-0.5-0.5
		c-2.7-2.6-5.1-5.8-6.4-9l0,0c-1.3,3.2-3.7,6.3-6.4,9l-0.4,0.3c-3.2-3.8-6.9-7.2-11.1-9.9c4.3-3.3,8.2-7,11.7-11.1
		c2.6,2.6,4.9,5.6,6.2,8.7l0,0c1.2-2.9,3.3-5.8,5.7-8.2C63.4,93.3,67.4,97.1,71.9,100.1 M56.5,84.4c-1.3,2.3-2,3.9-2.2,4.3l0,0
		c-0.2-0.5-1-2.3-2.5-4.8c0.6-0.9,1.2-1.7,1.8-2.6l0.4-0.6C54.8,82,55.7,83.2,56.5,84.4 M53.2,73.8c-3-5.8-5.2-11.9-5-19
		c0.4-3.1,1.1-6.2,3.6-8.4c0.6-0.4,1.4-0.5,2.1-0.4c0.8,0.3,1.6,1,2.1,1.7c3.1,5.6,1.5,13.4-0.1,19.2C55.1,69.2,54.3,71.6,53.2,73.8
		 M51.3,114.7c1.9-3,2.8-5.1,3-5.6l0,0c0.2,0.5,1.1,2.7,3,5.6c-1.1,1.4-2.1,2.9-3.1,4.4C53.3,117.6,52.3,116.1,51.3,114.7 M55,125.7
		c0.8,1.1,1.2,2.4,1.8,3.6c2.9,6.6,5.4,16.5,0.6,23.1c-0.8,0.9-1.9,1.6-3.2,1.3c-2.3-1-2.7-3.5-3.3-5.6
		C49.6,140.1,51.8,132.5,55,125.7 M29.7,98.8c-7.2,3.6-16.4,6.2-24.6,3.1c-1.3-0.6-2.9-1.4-3-3.1c0.6-3.4,4.3-4.5,7.2-5.1
		c7.5-0.7,14.3,1.6,20.4,4.9V98.8z M108.3,98.2c-1.1-2.9-4.2-4.5-6.9-5.4c-9.8-2.1-19.1,1.4-27.1,5.8c-4.6-2.9-8.9-6.9-12.5-11.2
		l0.4-0.4c6.9-5.3,15.5-7.4,24.4-7.9c0,0,10.1-0.3,13.1,0.8l0.1-20.5c-2.2-0.6-10.4,1.1-10.4,1.1C72,65,62.5,75.2,58,82.1
		c-0.9-1.3-1.7-2.6-2.4-3.9c1.3-2.1,2.1-4.3,3.1-6.5c2.7-6.9,5.2-16.1,1.7-23.4c-1.3-2.4-3.8-4.9-6.9-4.5c-4.4,0.9-6.3,5.5-6.9,9.6
		c-0.5,8.4,2,15.9,5.2,22.9c-0.8,1.3-1.6,2.6-2.5,3.9c-5-6.7-14.2-15.6-30.3-19.6c0,0-8.2-1.7-10.4-1.1L8.7,80
		c3-1.1,13.1-0.8,13.1-0.8c8.3,0.4,16.3,2.3,22.9,6.9c-3.7,4.3-7.9,8.1-12.4,11.3c-2.9-1.3-5.9-2.6-9-3.5C16.7,92,8.1,90.1,2.3,95.1
		c-1.7,1.6-2.8,3.8-2,6.2c1.5,4.4,6.3,5.8,10.4,6.3c8.7,0.3,16.3-2.3,23.3-6.2c4.3,2.7,8.1,6.2,11.5,10.1c-6.8,4.9-15,6.9-23.6,7.3
		c0,0-10.1,0.3-13.1-0.8l-0.1,20.5c2.2,0.6,10.4-1.1,10.4-1.1c16.6-4.2,26-13.6,30.8-20.4c1,1.5,2,3,2.9,4.5c-1.6,2.9-3,5.9-4.1,9.1
		c-2.3,6.5-4.2,15.6-0.2,21.9c1.4,2,3.5,3.7,6.1,3.5c3.6-0.4,5.6-4,6.5-7.1c2-9-1-17.6-4.5-25.2c-0.4-0.6,0.4-1,0.6-1.5
		c0.9-1.3,1.8-2.5,2.7-3.8c5.1,6.6,14.2,15,29.7,18.9c0,0,8.2,1.7,10.4,1.1l-0.1-20.5c-3,1.1-13.1,0.8-13.1,0.8
		c-7.9-0.4-15.6-2.2-22-6.2c3.4-3.7,7.2-7.2,11.4-10c2.5,1.3,5.1,2.3,7.8,3.2c6.9,1.9,16.8,4.3,22.8-1.2
		C108.2,102.8,109.1,100.5,108.3,98.2"/>
</g>
</svg>
