<?xml version="1.0" encoding="utf-8"?>
<!-- Generator: Adobe Illustrator 22.1.0, SVG Export Plug-In . SVG Version: 6.00 Build 0)  -->
<svg version="1.1" id="Layer_1" xmlns="http://www.w3.org/2000/svg" xmlns:xlink="http://www.w3.org/1999/xlink" x="0px" y="0px"
	 viewBox="0 0 141.7 97.4" style="enable-background:new 0 0 141.7 97.4;" xml:space="preserve">
<style type="text/css">
	.st0{fill:#343434;}
</style>
<g>
	<path class="st0" d="M70.9,6.3l55.7,23.2L70.9,52.7L15.2,29.5L70.9,6.3z M35.4,44.3l35.4,14.8l35.4-14.8v36.5
		C96,87.6,83.7,91.5,70.5,91.5c-12.9,0-24.9-3.8-35-10.3V44.3z M141.7,29.5L70.9,0L0,29.5l9.3,3.9v51h5.9V35.9l14.3,6v42.6
		c11.6,8.2,25.7,13.1,40.9,13.1c15.6,0,30-5.1,41.7-13.6v-42L141.7,29.5z"/>
</g>
</svg>
