<?xml version="1.0" encoding="utf-8"?>
<!-- Generator: Adobe Illustrator 22.1.0, SVG Export Plug-In . SVG Version: 6.00 Build 0)  -->
<svg version="1.1" id="Layer_1" xmlns="http://www.w3.org/2000/svg" xmlns:xlink="http://www.w3.org/1999/xlink" x="0px" y="0px"
	 viewBox="0 0 155.9 144.5" style="enable-background:new 0 0 155.9 144.5;" xml:space="preserve">
<style type="text/css">
	.st0{fill:#343434;}
</style>
<g>
	<path class="st0" d="M117.5,26.4c-2.8,18-17,32.2-35,35c0.1-0.8,0.3-1.6,0.5-2.4c2.7-4.4,4.6-9,5.7-13.9
		C95.1,35.3,105.4,28.3,117.5,26.4 M76,58.7C65.2,44,65.2,23.9,76,9.2C86.7,23.9,86.7,44,76,58.7 M124,19.9
		C124,19.9,124,19.9,124,19.9c-1,0-2,0-2.9,0.1c-0.1,0-0.2,0-0.3,0c-0.9,0.1-1.9,0.2-2.8,0.3c0,0,0,0,0,0
		c-10.9,1.4-20.6,6.4-28,13.7C90,23.6,86.7,13.2,80,4.5l0,0c0,0,0,0,0,0c-0.6-0.7-1.2-1.5-1.8-2.2c-0.1-0.1-0.1-0.1-0.2-0.2
		c-0.6-0.7-1.3-1.4-2-2.1c0,0,0,0,0,0c-0.7,0.7-1.4,1.4-2,2.2c-0.1,0.1-0.1,0.1-0.2,0.2C58,20.4,58,47.5,73.8,65.6
		c0.1,0.1,0.1,0.1,0.2,0.2c0.6,0.7,1.3,1.5,2,2.2c1,0,2,0,2.9-0.1c0.1,0,0.2,0,0.3,0c23-1.5,41.6-19.3,44.4-41.9h0c0,0,0,0,0,0
		c0.1-0.9,0.2-1.9,0.3-2.8c0-0.1,0-0.2,0-0.3C124,21.9,124,20.9,124,19.9 M152.4,59.4c-4.7-4.7-12.3-4.7-17,0l-19.1,19.1
		c-1.7-0.9-3.6-1.4-5.6-1.4h-72c-3.3,0-6.3,1.3-8.5,3.5l4.2,4.2c1.2-1.2,2.7-1.8,4.2-1.8H49h61.7c0.3,0,0.7,0,1,0.1
		c0.2,0,0.4,0.1,0.6,0.1c0.1,0,0.3,0.1,0.4,0.1c0.2,0.1,0.3,0.1,0.5,0.2c0.2,0.1,0.4,0.2,0.6,0.3c0.1,0.1,0.2,0.1,0.3,0.2
		c0.4,0.3,0.7,0.6,1,0.9c0.2,0.2,0.4,0.5,0.6,0.7c0.1,0.1,0.1,0.2,0.2,0.3c0.1,0.3,0.3,0.5,0.4,0.8c0.3,0.7,0.4,1.4,0.4,2.2
		c0,3.3-2.7,6-6,6h-2.5l0.4-0.4l-0.6,0.4H74.8c0,0,0,0-0.1,0c0,0,0,0-0.1,0h0v0c-1.6,0-2.9,1.4-2.9,3c0,1.6,1.3,3,2.9,3v0h36
		c0,0,0,0,0,0c6.6,0,12-5.4,12-12c0-2.4-0.7-4.7-1.9-6.5l18.9-18.9c2.3-2.3,6.1-2.3,8.5,0c2.3,2.3,2.3,6.1,0,8.5l-7.3,7.3
		l-35.2,35.2l-7.3,7.3c-1.1,1.1-2.6,1.8-4.2,1.8H83.6v0H46l0,0L33.7,136L8.5,110.8l25.9-25.9l-4.2-4.2L0,110.8l3.1,3.1l1.2,1.2
		l25.3,25.3l2.1,2.1l2.1,2.1l14.7-14.7H94c2.8,0,5.4-1,7.4-2.6l0.1,0.1l50.9-50.9C157.1,71.7,157.1,64.1,152.4,59.4"/>
</g>
</svg>
