<?xml version="1.0" encoding="utf-8"?>
<!-- Generator: Adobe Illustrator 22.1.0, SVG Export Plug-In . SVG Version: 6.00 Build 0)  -->
<svg version="1.1" id="Layer_1" xmlns="http://www.w3.org/2000/svg" xmlns:xlink="http://www.w3.org/1999/xlink" x="0px" y="0px"
	 viewBox="0 0 134.6 115.3" style="enable-background:new 0 0 134.6 115.3;" xml:space="preserve">
<style type="text/css">
	.st0{fill:#343434;}
</style>
<g>
	<path class="st0" d="M33.7,73.6h-9.2l42.9,41.6l49.5-48h-9.2l-40.3,39.1L33.7,73.6z M0,67.3c0,1.8,1.4,3.2,3.2,3.2h43.1
		c1.4,0,2.6-0.9,3-2.2l3.4-10.1l9.8,29.3c0.4,1.3,1.7,2.2,3,2.2l0.2,0c1.4-0.1,2.6-1.1,3-2.5l9.5-42.9l3.4,17.2
		c0.3,1.5,1.6,2.6,3.1,2.6h46.6c1.8,0,3.2-1.4,3.2-3.2c0-1.8-1.4-3.2-3.2-3.2h-44l-5.9-29.5c-0.3-1.5-1.6-2.6-3.2-2.6
		c-1.5,0-2.8,1-3.1,2.5L64.9,74.5L55.8,47c-0.4-1.3-1.7-2.2-3-2.2c-1.4,0-2.6,0.9-3,2.2L44,64H3.2C1.4,64,0,65.5,0,67.3 M134.6,35.2
		c0-9.4-3.8-18.3-10.6-25c-14.1-13.7-37-13.7-51.1,0l-5.5,5.4l-5.5-5.4c-14.1-13.7-37-13.7-51.1,0C3.8,16.9,0,25.8,0,35.2
		c0,9.4,3.8,18.3,10.6,25l0.6,0.6h9.2l-5.4-5.2c-5.6-5.4-8.7-12.7-8.7-20.4c0-7.7,3.1-14.9,8.7-20.4c5.8-5.7,13.5-8.5,21.1-8.5
		c7.6,0,15.3,2.8,21.1,8.5l10,9.7l10-9.7c11.6-11.3,30.6-11.3,42.2,0c5.6,5.4,8.7,12.7,8.7,20.4c0,7.1-2.7,13.9-7.6,19.2h8.2
		C132.6,48.7,134.6,42.1,134.6,35.2"/>
</g>
</svg>
