<?xml version="1.0" encoding="utf-8"?>
<!-- Generator: Adobe Illustrator 22.1.0, SVG Export Plug-In . SVG Version: 6.00 Build 0)  -->
<svg version="1.1" id="Layer_1" xmlns="http://www.w3.org/2000/svg" xmlns:xlink="http://www.w3.org/1999/xlink" x="0px" y="0px"
	 viewBox="0 0 141.7 109" style="enable-background:new 0 0 141.7 109;" xml:space="preserve">
<style type="text/css">
	.st0{fill:#343434;}
</style>
<g>
	<path class="st0" d="M0,100.4L0,100.4l5.9,0v0h0.2c6.5-7.2,15.9-11.8,26.4-11.8c14.2,0,26.4,8.3,32.1,20.4h12.6
		c5.7-12,17.9-20.4,32.1-20.4c10.5,0,19.9,4.6,26.4,11.8h0.2v0h5.9v0v-1.9V15.8C134.2,6.2,122.4,0,109.3,0C91.8,0,77,10.8,70.9,26
		c-6.1-15.2-21-26-38.4-26C19.3,0,7.6,6.2,0,15.8 M32.5,82.7C32.5,82.7,32.5,82.7,32.5,82.7C32.5,82.7,32.5,82.7,32.5,82.7
		L32.5,82.7z M109.2,82.7C109.2,82.7,109.2,82.7,109.2,82.7C109.3,82.7,109.3,82.7,109.2,82.7L109.2,82.7z M135.8,92.4
		c-7.2-6.1-16.4-9.7-26.6-9.7c-15.1,0-28.2,8.1-35.4,20.1V41.3c0-19.6,15.9-35.4,35.4-35.4c10.6,0,20.1,4.7,26.6,12V92.4z M5.9,17.9
		c6.5-7.4,16-12,26.6-12c19.6,0,35.4,15.9,35.4,35.4v0v61.4c-7.2-12-20.4-20.1-35.4-20.1c-10.1,0-19.4,3.7-26.6,9.7"/>
</g>
</svg>
