<?xml version="1.0" encoding="utf-8"?>
<!-- Generator: Adobe Illustrator 22.1.0, SVG Export Plug-In . SVG Version: 6.00 Build 0)  -->
<svg version="1.1" id="Layer_1" xmlns="http://www.w3.org/2000/svg" xmlns:xlink="http://www.w3.org/1999/xlink" x="0px" y="0px"
	 viewBox="0 0 141.7 141.7" style="enable-background:new 0 0 141.7 141.7;" xml:space="preserve">
<style type="text/css">
	.st0{fill:#343434;}
</style>
<g>
	<path class="st0" d="M118.4,26.6c-4.6,4.9-9.9,9.1-15.8,12.4c-3.3-13.3-8.7-24.2-15.3-31C99.3,11.1,110.1,17.7,118.4,26.6 M54.5,8
		c-6.6,6.9-12,17.7-15.3,31c-5.9-3.3-11.3-7.5-15.8-12.4C31.7,17.7,42.4,11.1,54.5,8 M37.9,96.8c-6.9,3.6-13,8.3-18.4,13.9
		c-8-10.3-12.9-23-13.6-36.8h29.5C35.6,81.9,36.5,89.6,37.9,96.8 M37.9,45c-1.4,7.2-2.2,14.9-2.4,22.9H6
		c0.6-13.9,5.6-26.6,13.6-36.8C24.8,36.6,31,41.4,37.9,45 M23.4,115.2c4.6-4.9,9.9-9.1,15.8-12.4c3.3,13.3,8.7,24.2,15.3,31
		C42.4,130.6,31.7,124.1,23.4,115.2 M44.5,100.1c8.1-3.6,17-5.6,26.4-5.6s18.3,2,26.4,5.6c-4.9,21.2-14.8,35.7-26.4,35.7
		S49.4,121.3,44.5,100.1 M100.4,73.8c-0.1,7.1-0.8,14-1.9,20.3c-8.5-3.6-17.8-5.6-27.6-5.6s-19.1,2-27.6,5.6
		c-1.1-6.4-1.8-13.2-1.9-20.3H100.4z M98.4,47.6c1.1,6.4,1.8,13.2,1.9,20.3h-59c0.1-7.1,0.8-14,1.9-20.3c8.5,3.6,17.8,5.6,27.6,5.6
		S90,51.2,98.4,47.6 M97.2,41.6c-8.1,3.6-17,5.6-26.4,5.6s-18.3-2-26.4-5.6C49.4,20.5,59.3,5.9,70.9,5.9c0,0,0,0,0,0s0,0,0,0
		C82.4,5.9,92.4,20.5,97.2,41.6 M87.2,133.8c6.6-6.9,12-17.7,15.3-31c5.9,3.3,11.3,7.5,15.8,12.4C110.1,124.1,99.3,130.6,87.2,133.8
		 M103.8,96.8c1.4-7.2,2.2-14.9,2.4-22.9h29.5c-0.6,13.9-5.6,26.6-13.6,36.8C116.9,105.1,110.7,100.4,103.8,96.8 M122.2,31.1
		c8,10.3,12.9,23,13.6,36.8h-29.5c-0.2-8.1-1-15.8-2.4-22.9C110.7,41.4,116.9,36.6,122.2,31.1 M124.2,24.2c-0.6-0.7-1.3-1.5-2-2.2
		c0,0,0,0,0,0C109.3,8.5,91.1,0,70.9,0c0,0,0,0,0,0c0,0,0,0,0,0C49.6,0,30.5,9.4,17.5,24.2c0,0,0,0-0.1,0.1C6.6,36.8,0,53,0,70.9
		c0,17.8,6.6,34.1,17.5,46.5c0,0,0,0.1,0.1,0.1c0.7,0.7,1.3,1.5,2,2.2c0,0,0,0,0,0c12.9,13.6,31.1,22.1,51.3,22.1
		s38.4-8.5,51.3-22.1c0,0,0,0,0,0c0.7-0.7,1.3-1.4,2-2.2c0,0,0-0.1,0.1-0.1c10.9-12.5,17.5-28.7,17.5-46.5
		c0-16.8-5.8-32.2-15.6-44.3c0,0,0,0,0,0C125.6,25.8,124.9,25.1,124.2,24.2C124.3,24.3,124.2,24.3,124.2,24.2"/>
</g>
</svg>
