<?xml version="1.0" encoding="utf-8"?>
<!-- Generator: Adobe Illustrator 22.1.0, SVG Export Plug-In . SVG Version: 6.00 Build 0)  -->
<svg version="1.1" id="Layer_1" xmlns="http://www.w3.org/2000/svg" xmlns:xlink="http://www.w3.org/1999/xlink" x="0px" y="0px"
	 viewBox="0 0 141.7 118.1" style="enable-background:new 0 0 141.7 118.1;" xml:space="preserve">
<style type="text/css">
	.st0{fill:#343434;}
</style>
<g>
	<path class="st0" d="M93.6,92.1l42-46c0.1,0.6,0.2,1.2,0.2,1.7c0,3.6-8.8,18.5-24.8,35.9c-16.4,17.8-31.4,28.5-40.2,28.5
		s-23.8-10.7-40.2-28.5C14.7,66.3,5.9,51.5,5.9,47.8c0-0.5,0.1-1,0.2-1.7l42,46L8.3,40.5c1.6-3.1,4.2-6.8,7.6-10.6l37.2,58.7l-33-63
		c0.8-0.7,1.6-1.4,2.4-2.2c2.3-1.9,4.9-3.9,7.9-5.9L58.7,86L36,14.4c3.6-1.9,7.7-3.7,12.2-5.1l16.5,75.1L54.5,7.7
		c4.1-0.9,8.5-1.5,13.2-1.7l3.2,77.9L74.1,6c4.7,0.2,9.1,0.7,13.2,1.5L77,84.4L93.6,9.1c4.5,1.4,8.6,3.1,12.3,4.9L83,86l28.3-68.8
		c3.3,2.1,6.1,4.2,8.5,6.2c0.7,0.6,1.3,1.2,2,1.8L88.6,88.6l37.4-59c3.4,3.9,5.9,7.6,7.5,10.8L93.6,92.1z M141.7,47.8
		c0-6.6-6.2-18.6-18.1-28.9c-10-8.6-27.3-19-52.8-19C46.3,0,29,10.3,18.8,18.9C9.5,26.9,0,39.3,0,47.8c0,7.4,13.3,25.6,26.4,39.9
		c10.4,11.4,30.1,30.4,44.5,30.4c14.4,0,34.1-19.1,44.5-30.4C128.5,73.5,141.7,55.2,141.7,47.8"/>
</g>
</svg>
