<?xml version="1.0" encoding="UTF-8"?>
<svg id="Layer_1" xmlns="http://www.w3.org/2000/svg" xmlns:xlink="http://www.w3.org/1999/xlink" version="1.1" viewBox="0 0 510.24 70.86">
  <!-- Generator: Adobe Illustrator 30.3.0, SVG Export Plug-In . SVG Version: 2.1.3 Build 182)  -->
  <defs>
    <style>
      .st0 {
        fill: none;
      }

      .st1 {
        fill: #28387c;
      }

      .st2 {
        fill: url(#linear-gradient);
      }

      .st3 {
        fill: #fff;
      }

      .st4 {
        clip-path: url(#clippath);
      }
    </style>
    <clipPath id="clippath">
      <path class="st0" d="M481.86,0c-51.98.02-162.98,3.75-226.74,32.97C191.36,3.75,80.36.02,28.37,0h-.79C10.49,0,0,.41,0,.41v70.46h510.24V.41S499.74.01,482.66,0h-.8Z"/>
    </clipPath>
    <linearGradient id="linear-gradient" x1="-83.41" y1="-1.58" x2="-83.41" y2="5.63" gradientTransform="translate(386.72 6536.9) rotate(90) scale(77.95)" gradientUnits="userSpaceOnUse">
      <stop offset="0" stop-color="#9fcac5"/>
      <stop offset="1" stop-color="#28387c"/>
    </linearGradient>
  </defs>
  <g class="st4">
    <rect class="st2" y="0" width="510.24" height="70.86"/>
  </g>
  <path class="st1" d="M431.48,46.42c.46-.21.83-.49,1.11-.85.28-.36.46-.77.54-1.24h-1.5c-.06.21-.17.41-.33.58-.16.17-.35.32-.59.42-.24.11-.52.16-.84.16-.39,0-.73-.09-1.05-.27-.31-.18-.56-.44-.73-.8-.17-.35-.26-.79-.26-1.32s.09-1,.26-1.35.41-.61.71-.78.63-.26,1-.26c.39,0,.74.09,1.03.27s.52.44.68.77c.16.34.24.73.24,1.19l.28-.5h-4.67v1.09h5.84v-.4c0-.73-.13-1.36-.4-1.9s-.65-.96-1.16-1.26-1.13-.45-1.87-.45-1.38.15-1.91.46c-.53.31-.93.73-1.2,1.27-.27.54-.41,1.16-.41,1.87s.14,1.33.43,1.87c.28.54.7.96,1.23,1.27.54.3,1.18.45,1.94.45.62,0,1.17-.1,1.63-.31M438.05,46.63l2.85-6.99h-1.63l-1.92,5.17-1.86-5.17h-1.72l2.81,6.99h1.47ZM446.71,46.42c.46-.21.83-.49,1.11-.85.28-.36.46-.77.54-1.24h-1.5c-.06.21-.17.41-.33.58-.16.17-.35.32-.59.42-.24.11-.52.16-.84.16-.39,0-.74-.09-1.05-.27s-.56-.44-.73-.8c-.17-.35-.26-.79-.26-1.32s.09-1,.26-1.35c.18-.35.41-.61.71-.78s.63-.26,1-.26c.39,0,.74.09,1.03.27s.52.44.68.77c.16.34.24.73.24,1.19l.28-.5h-4.67v1.09h5.84v-.4c0-.73-.13-1.36-.4-1.9s-.65-.96-1.16-1.26-1.13-.45-1.87-.45-1.38.15-1.91.46c-.53.31-.93.73-1.2,1.27-.27.54-.41,1.16-.41,1.87s.14,1.33.43,1.87c.29.54.7.96,1.23,1.27.54.3,1.18.45,1.94.45.62,0,1.17-.1,1.63-.31M451.53,46.6v-3.06c0-.5.06-.9.18-1.21.12-.31.29-.55.52-.72.23-.17.51-.29.85-.35.33-.06.71-.1,1.14-.1v-1.54c-.06-.02-.14-.03-.22-.03h-.24c-.54,0-1,.13-1.38.4s-.68.66-.88,1.17c-.21.51-.32,1.13-.35,1.85h.3v-3.36h-1.52v6.96h1.6ZM457.56,49.6l4.07-9.96h-1.65l-2.15,5.65-.25.36-1.61,3.95h1.6-.01ZM458.33,45.35l-2.07-5.7h-1.72l2.93,7.27.85-1.57h.01ZM472.36,46.6v-10.42h-1.6v5.86l.32,1.05-.22,1.13v2.38s1.5,0,1.5,0ZM470.06,46.27c.44-.3.78-.73,1.01-1.27s.35-1.17.35-1.89c0-.53-.07-1.02-.2-1.45-.13-.44-.33-.81-.58-1.14-.25-.32-.56-.57-.92-.74-.36-.17-.78-.25-1.25-.25-.62,0-1.16.15-1.63.45s-.84.72-1.1,1.25c-.26.54-.39,1.16-.39,1.88,0,.54.08,1.03.23,1.47.15.44.36.82.64,1.14.27.32.61.57.99.74.38.17.81.26,1.27.26.62,0,1.16-.15,1.6-.45M467.87,45.16c-.29-.19-.51-.46-.67-.81-.16-.35-.24-.76-.24-1.24s.08-.89.24-1.23.38-.61.67-.8c.28-.19.61-.28.99-.28.28,0,.54.05.78.16.24.1.44.26.61.46.17.2.3.45.39.73.09.28.14.61.14.97,0,.48-.08.89-.24,1.24-.16.35-.39.62-.68.81-.29.19-.62.28-1,.28s-.71-.09-.99-.28M478.61,46.27c.44-.3.77-.73,1-1.27s.34-1.17.34-1.89c0-.53-.07-1.02-.2-1.45-.13-.44-.33-.81-.58-1.14-.25-.32-.56-.57-.92-.74-.36-.17-.78-.25-1.25-.25-.62,0-1.16.15-1.63.45s-.84.72-1.1,1.25c-.26.54-.39,1.16-.39,1.88,0,.54.08,1.03.23,1.47.15.44.37.82.65,1.14s.61.57,1,.74c.39.17.81.26,1.28.26.62,0,1.14-.15,1.58-.45M476.41,45.16c-.29-.19-.51-.46-.67-.81-.16-.35-.24-.76-.24-1.24s.08-.89.24-1.23.38-.61.67-.8.62-.28.99-.28c.29,0,.55.05.78.16.23.1.44.26.61.46.17.2.3.45.39.73.09.28.14.61.14.97,0,.48-.08.89-.24,1.24-.16.35-.39.62-.68.81-.29.19-.62.28-1,.28s-.71-.09-.99-.28M480.89,46.6v-6.96h-1.53v2.44l.22,1.01-.22.47v3.05h1.53ZM484.91,49.6l4.07-9.96h-1.65l-2.15,5.65-.25.36-1.61,3.95h1.6-.01ZM485.68,45.35l-2.07-5.7h-1.72l2.93,7.27.85-1.57h.01Z"/>
  <path class="st1" d="M405.44,31.68v-1.38h-4.3v-2.87h3.89v-1.25h-3.89v-2.77h4.3v-1.38h-5.93v9.65h5.93ZM408.24,31.68l1.96-3.11h-.54l2,3.11h1.89l-2.74-4.08-.03,1.19,2.69-4.06h-1.78l-1.96,3.17h.55l-1.92-3.17h-1.89l2.66,4.06v-1.19l-2.69,4.08h1.8ZM418.11,31.81c.19-.02.37-.04.54-.08.17-.03.31-.07.4-.12v-1.35c-.15.11-.32.19-.52.23-.2.04-.39.06-.57.06-.29,0-.51-.03-.67-.1-.17-.06-.29-.19-.36-.39-.07-.19-.11-.47-.11-.84v-7.11h-1.56v7.14c0,.51.04.92.12,1.25s.22.59.41.79c.19.19.43.33.73.41.3.08.66.12,1.08.12.15,0,.31,0,.5-.03M419.05,24.72h-5.11v1.18h5.11v-1.18ZM422.15,31.68v-3.06c0-.5.06-.9.18-1.21.12-.31.29-.55.52-.72.23-.17.51-.29.85-.35s.71-.1,1.14-.1v-1.54c-.06-.02-.14-.03-.22-.03h-.24c-.54,0-1,.13-1.38.4s-.68.65-.88,1.17c-.21.51-.32,1.13-.35,1.85h.3v-3.36h-1.52v6.96h1.6ZM430.4,31.34c.44-.3.77-.72,1-1.27.23-.54.34-1.17.34-1.89,0-.53-.07-1.02-.2-1.45-.13-.44-.33-.81-.58-1.14-.25-.32-.56-.57-.92-.74-.36-.17-.78-.25-1.25-.25-.61,0-1.16.15-1.63.45-.47.3-.84.72-1.1,1.25-.26.54-.39,1.17-.39,1.88,0,.54.07,1.03.23,1.47.15.44.37.82.65,1.14s.61.57,1,.74.81.25,1.28.25c.61,0,1.14-.15,1.58-.45M428.2,30.24c-.29-.19-.51-.46-.67-.81s-.24-.76-.24-1.24.08-.89.24-1.23c.16-.35.38-.61.67-.8s.61-.28.99-.28c.28,0,.54.05.78.16.24.1.44.26.61.46.17.2.3.45.39.73.09.28.14.61.14.96,0,.48-.08.89-.24,1.24s-.39.62-.67.81-.62.28-1,.28-.71-.09-.99-.28M432.68,31.68v-6.96h-1.53v2.44l.22,1.01-.22.47v3.05h1.53ZM439.77,31.35c.55-.31.97-.73,1.27-1.27s.45-1.17.45-1.87-.15-1.35-.45-1.89c-.3-.54-.73-.96-1.27-1.27-.55-.3-1.19-.45-1.94-.45s-1.38.15-1.93.45c-.55.3-.98.73-1.27,1.27-.3.54-.45,1.17-.45,1.89s.15,1.33.45,1.87c.3.54.72.97,1.27,1.27s1.19.46,1.93.46,1.39-.15,1.94-.46M436.74,30.22c-.3-.2-.53-.47-.69-.81s-.23-.75-.23-1.2.08-.86.23-1.21c.16-.35.39-.62.69-.81s.67-.29,1.09-.29c.32,0,.61.06.86.17s.47.27.64.47c.17.2.3.45.39.74.09.29.13.6.13.94,0,.46-.08.86-.24,1.2-.16.35-.39.62-.69.81-.3.2-.66.3-1.1.3s-.79-.1-1.09-.3M444.6,31.68v-3.06c0-.5.06-.9.18-1.21.12-.31.29-.55.52-.72.23-.17.51-.29.85-.35s.71-.1,1.14-.1v-1.54c-.07-.02-.14-.03-.22-.03h-.23c-.54,0-1,.13-1.39.4-.38.27-.67.65-.88,1.17-.21.51-.32,1.13-.35,1.85h.3v-3.36h-1.51v6.96h1.6,0ZM455.14,31.68v-10.42h-1.6v5.86l.32,1.05-.22,1.13v2.38h1.5ZM452.84,31.34c.44-.3.78-.72,1.01-1.27.23-.54.35-1.17.35-1.89,0-.53-.07-1.02-.2-1.45-.13-.44-.33-.81-.58-1.14-.25-.32-.56-.57-.92-.74-.36-.17-.78-.25-1.25-.25-.62,0-1.16.15-1.63.45-.47.3-.84.72-1.1,1.25-.26.54-.39,1.17-.39,1.88,0,.54.08,1.03.23,1.47.15.44.36.82.64,1.14.28.32.61.57.99.74.39.17.81.25,1.27.25.62,0,1.16-.15,1.6-.45M450.65,30.24c-.28-.19-.51-.46-.67-.81s-.24-.76-.24-1.24.08-.89.24-1.23c.16-.35.38-.61.67-.8.29-.19.62-.28.99-.28.28,0,.54.05.78.16.23.1.44.26.61.46.17.2.3.45.39.73.09.28.14.61.14.96,0,.48-.08.89-.24,1.24s-.39.62-.68.81c-.29.19-.62.28-1,.28s-.71-.09-.99-.28M458.65,24.72h-1.6v6.96h1.6v-6.96ZM458.8,21.62h-1.89v1.72h1.89v-1.72ZM462.16,31.68v-3.24c0-.61.08-1.1.23-1.47.15-.36.35-.62.61-.79.25-.16.54-.24.85-.24.24,0,.45.03.65.1.19.06.36.17.49.32s.23.35.3.6c.07.25.1.57.1.96v3.76h1.6v-4.23c0-.47-.05-.88-.16-1.23-.11-.35-.27-.65-.48-.89-.22-.24-.48-.42-.8-.54-.32-.12-.68-.19-1.1-.19-.58,0-1.07.13-1.47.4s-.72.65-.94,1.14-.33,1.09-.33,1.78h.37v-3.2h-1.52v6.96h1.6ZM473.1,31.34c.44-.3.77-.72,1-1.27.23-.54.34-1.17.34-1.89,0-.53-.07-1.02-.2-1.45-.13-.44-.33-.81-.58-1.14-.25-.32-.56-.57-.92-.74-.36-.17-.78-.25-1.25-.25-.62,0-1.16.15-1.63.45-.47.3-.84.72-1.1,1.25-.26.54-.39,1.17-.39,1.88,0,.54.08,1.03.23,1.47.15.44.37.82.65,1.14s.61.57,1,.74.81.25,1.28.25c.61,0,1.14-.15,1.58-.45M470.9,30.24c-.29-.19-.51-.46-.67-.81s-.24-.76-.24-1.24.08-.89.24-1.23c.16-.35.38-.61.67-.8s.61-.28.99-.28c.29,0,.54.05.78.16.23.1.44.26.61.46.17.2.3.45.39.73.09.28.14.61.14.96,0,.48-.08.89-.24,1.24s-.39.62-.67.81-.62.28-1,.28-.71-.09-.99-.28M475.38,31.68v-6.96h-1.53v2.44l.22,1.01-.22.47v3.05h1.53ZM478.88,31.68v-3.06c0-.5.06-.9.18-1.21.12-.31.29-.55.52-.72.23-.17.51-.29.85-.35s.71-.1,1.14-.1v-1.54c-.06-.02-.14-.03-.22-.03h-.23c-.54,0-1,.13-1.39.4-.38.27-.67.65-.88,1.17-.21.51-.32,1.13-.35,1.85h.3v-3.36h-1.52v6.96h1.6ZM484.91,34.68l4.07-9.96h-1.65l-2.15,5.65-.25.36-1.61,3.95h1.6-.01ZM485.68,30.42l-2.07-5.7h-1.72l2.93,7.27.85-1.57h.01Z"/>
  <path class="st3" d="M52.48,34.52c-.07.03-.07.18-.07.39s.03.32.07.32c.17,0,.46.07.81.18.39.1.6.25.63.35.07.35.14.91.14,1.72v8c0,1.02-.03,1.68-.14,1.93-.07.14-.28.25-.63.32-.35.1-.63.14-.81.14-.04,0-.07.11-.07.35,0,.21.03.32.07.39l.42-.03c.28,0,.67-.04,1.12-.07s.91-.03,1.26-.03c.46,0,1.44.03,2.98.14.04-.07.04-.21.04-.35,0-.25-.04-.35-.07-.35-.21,0-.53-.07-.95-.17-.42-.1-.67-.24-.7-.42-.1-.35-.17-.95-.17-1.79v-7.58c0-1.37.07-2.11.24-2.21.21-.1.63-.14,1.23-.14.77,0,1.37.28,1.75.81.39.56.56,1.3.56,2.24,0,.84-.21,1.54-.6,2.1-.39.56-.91.84-1.61.84-.46,0-.84-.07-1.19-.21-.03,0-.03.03-.07.14v.31c.04.11.04.18.07.21.11.14.32.28.6.39s.6.18.88.18c.88,0,1.65-.21,2.35-.67.7-.46,1.23-.98,1.58-1.61.35-.63.53-1.3.53-1.93,0-.56-.11-1.05-.32-1.51s-.46-.81-.77-1.12c-.32-.28-.67-.53-1.09-.74-.42-.21-.84-.35-1.26-.42s-.84-.11-1.26-.11-.91,0-1.44.04c-.53.03-1.02.03-1.4.03-.28.04-1.23,0-2.7-.03M67.43,35.68c.03-.1.24-.21.6-.32.39-.1.63-.17.77-.17.07,0,.07-.11.07-.35,0-.1-.03-.21-.07-.35-1.68.07-2.6.14-2.7.14-.39,0-.91-.03-1.65-.07-.7-.03-1.09-.07-1.16-.07-.04.04-.04.14-.04.39,0,.21.04.32.07.32.18,0,.42.03.77.17.35.1.53.21.6.32.1.35.18.95.18,1.79v8c0,.98-.04,1.61-.14,1.93-.07.14-.24.25-.6.32-.35.1-.63.14-.81.14-.03,0-.07.11-.07.35,0,.18.04.28.07.35l2.81-.07c.7-.03,1.96-.03,3.72.03,1.75.04,2.95.07,3.51.07.04-.21.11-.49.18-.81.11-.35.18-.63.28-.84.07-.25.21-.56.39-1.02s.28-.74.32-.88c-.07-.07-.28-.14-.6-.14-.18,0-.28.04-.28.14-.14.49-.39.91-.67,1.3s-.53.63-.77.74c-.56.28-1.4.46-2.53.46h-.77c-.88,0-1.37-.11-1.44-.28-.14-.42-.18-.98-.18-1.68v-8.03c-.04-.81.03-1.4.14-1.86M78.34,41.99c.11.21.14.35.14.42v3.12c0,.84-.07,1.44-.17,1.86-.04.11-.25.21-.6.35s-.6.18-.77.18c-.03,0-.07.1-.07.35,0,.18.04.28.07.35.14,0,.56-.03,1.23-.07.67-.04,1.16-.07,1.54-.07.28,0,.56,0,.88.03.28,0,.63.04.98.07.35.03.63.03.81.07.03-.07.03-.21.03-.35,0-.21-.03-.35-.07-.35-.11,0-.35-.07-.7-.18-.35-.1-.56-.24-.6-.31-.11-.42-.18-1.05-.18-1.9v-3.3c0-.17.53-1.12,1.58-2.84s1.79-2.88,2.21-3.47c.18-.21.46-.39.81-.49.39-.14.67-.17.88-.17.07,0,.07-.1.07-.35,0-.1,0-.21-.03-.35-.14,0-.39.03-.63.03-.28.03-.53.03-.81.07-.25,0-.56.03-.88.03-.28,0-1.12-.03-2.53-.14-.03.07-.07.18-.07.39s.04.28.07.28c.42,0,.77.07,1.02.17.25.11.39.25.39.42,0,.25-.28.84-.84,1.82-.56.95-1.16,1.89-1.75,2.77-.07.11-.14.11-.21.04l-2.25-4.1c-.14-.25-.17-.42-.17-.56,0-.21.14-.35.42-.46.28-.1.53-.14.77-.14.04,0,.07-.1.07-.28,0-.21,0-.32-.04-.39-1.68.07-2.67.14-2.91.14-1.51,0-2.46,0-2.77.03-.04.07-.04.14-.04.28s.04.21.07.21c.14,0,.32.04.6.11s.49.17.63.28c.32.21.7.7,1.09,1.47M89.14,45.68c-.03.7-.1,1.16-.24,1.4-.07.21-.35.42-.81.56-.46.14-.84.21-1.05.21-.07,0-.07.11-.07.35,0,.18.03.28.07.35.14,0,.53-.04,1.16-.07.63-.03,1.12-.07,1.51-.07.07,0,.98.03,2.67.14.03-.07.03-.18.03-.32,0-.25-.03-.39-.07-.39-.17,0-.49-.07-.98-.21-.49-.14-.77-.28-.84-.46-.04-.14-.07-.35-.07-.67.14-2.77.24-5.93.35-9.4l4.74,11.37c.07.03.14.03.21.03.28,0,.56-.28.81-.81l4.03-9.82c.04-.07.07-.14.11-.14.11,0,.21.42.25,1.3l.21,6.42v1.19c0,.32-.07.56-.21.74-.11.11-.28.21-.6.32-.28.1-.53.14-.67.14-.07,0-.07.14-.07.39,0,.14.04.25.07.32.21,0,.53-.04.91-.07.39-.03.7-.03,1.02-.03s.6-.03.88-.03c.04,0,.91.03,2.6.14.03-.07.03-.18.03-.32,0-.25-.03-.39-.07-.39-.14,0-.39-.07-.7-.17-.35-.1-.53-.21-.6-.35-.21-.53-.32-1.19-.35-1.93-.14-4.56-.25-7.47-.28-8.74-.03-.6.07-.98.28-1.12.32-.21.67-.35,1.02-.35h.04c.07,0,.07-.11.07-.35,0-.18-.03-.28-.07-.35-1.12.07-1.96.11-2.53.11-.74,0-1.3-.04-1.72-.07l-.77,2.46c-.74,1.93-1.72,4.35-2.95,7.33,0,.03-.03.07-.07.07s-.07,0-.07-.03c-.39-.98-.91-2.24-1.58-3.75-.67-1.54-1.19-2.81-1.65-3.89-.46-1.05-.74-1.79-.88-2.17-1.3.07-2,.14-2.07.14-.35,0-.81,0-1.33-.07-.53-.04-.88-.07-1.09-.07-.07.07-.07.18-.07.32,0,.24.04.35.07.35.18,0,.49.03.91.14.42.1.67.21.7.32.04.14.07.32.07.6,0,.25-.03.88-.07,1.93M114.65,36.45c.7.67,1.16,1.51,1.47,2.45.28.95.42,1.97.42,3.05,0,1.54-.32,2.88-.98,4-.67,1.12-1.58,1.68-2.77,1.68-.98,0-1.79-.35-2.49-1.05s-1.19-1.51-1.47-2.49c-.28-.95-.42-1.97-.42-3.02,0-1.58.32-2.91.95-4s1.58-1.65,2.77-1.65c.98,0,1.82.35,2.53,1.02M112.44,48.69c1.86,0,3.44-.7,4.77-2.1,1.33-1.4,2-3.09,2-5.05s-.67-3.65-2-5.05c-1.33-1.4-2.91-2.1-4.77-2.1s-3.44.7-4.77,2.1c-1.33,1.4-2,3.09-2,5.05s.67,3.65,2,5.05c1.3,1.4,2.91,2.1,4.77,2.1M119.77,34.48s-.07.18-.07.39.03.32.07.32c.18,0,.42.03.77.17.35.1.53.21.6.32.11.28.18.88.18,1.79v4.6c0,2.28.49,3.89,1.47,4.95.98,1.02,2.32,1.54,4,1.54.81,0,1.51-.11,2.14-.32s1.19-.56,1.68-1.02c.49-.46.88-1.09,1.12-1.9.28-.81.39-1.75.39-2.84v-4.98c0-.81.07-1.4.25-1.75.14-.17.39-.32.81-.42.42-.11.7-.18.91-.18.07,0,.07-.11.07-.35,0-.14,0-.25-.04-.35-.14,0-.49.03-1.09.07-.6.03-1.05.07-1.4.07-.25,0-1.12-.04-2.67-.14-.04.07-.07.17-.04.39,0,.21.04.28.11.28.17,0,.49.07.91.17s.67.25.74.39c.14.28.21.84.21,1.68v5.16c0,1.65-.32,2.84-.98,3.54-.67.7-1.51,1.05-2.6,1.05s-1.96-.42-2.6-1.3c-.63-.88-.95-2.04-.95-3.47v-4.81c0-.81.07-1.44.18-1.86,0-.1.21-.21.6-.32.39-.1.63-.17.77-.17.07,0,.07-.11.07-.35,0-.1,0-.21-.04-.35-1.54.07-2.46.14-2.7.14-.14,0-1.09-.03-2.88-.14M136.93,34.48c-.35,0-.84-.07-1.47-.21l-.39,3.19c.1.1.28.17.56.17.14,0,.21-.03.21-.14.21-.77.49-1.26.81-1.54.32-.28.84-.42,1.51-.42,1.23,0,1.89.1,2,.35.14.21.17.88.17,2.04v7.65c0,.77-.07,1.37-.17,1.75-.04.1-.25.21-.6.32-.35.1-.63.14-.81.14-.07,0-.07.14-.07.39,0,.18.04.28.07.35.14,0,.56-.03,1.23-.07.67-.03,1.19-.07,1.58-.07.28,0,.56,0,.88.03.32,0,.63.03.98.07.35.03.63.03.81.07.04-.07.04-.21.04-.35,0-.25-.04-.39-.07-.39-.14,0-.39-.07-.74-.17s-.56-.21-.56-.32c-.14-.46-.18-1.09-.18-1.82v-7.58c0-.91.07-1.58.18-2,.07-.25.74-.35,2.04-.35.7,0,1.19.14,1.51.42.31.28.6.81.77,1.58.04.07.11.11.21.11.28,0,.46-.04.56-.14l-.39-3.23c-.63.14-1.09.21-1.47.21-.56,0-1.33.03-2.32.07-.95.03-1.75.07-2.35.07s-1.37,0-2.32-.07c-.88-.04-1.65-.07-2.21-.11M161.9,47.68c-.35-.1-.56-.21-.6-.32-.14-.49-.18-1.12-.18-1.89v-7.93c0-.81.07-1.44.18-1.86.03-.1.24-.21.6-.32.39-.1.63-.17.77-.17.07,0,.07-.11.07-.35,0-.1-.03-.21-.07-.35-1.68.07-2.6.14-2.7.14-.39,0-.91-.03-1.65-.07-.7-.03-1.09-.07-1.16-.07-.03.04-.03.14-.03.39,0,.21.03.32.07.32.18,0,.42.03.77.17.35.1.53.21.6.32.1.35.18.91.18,1.79v3.16s0,.07-.04.07c-1.26.03-2.21.03-2.77.03-.53,0-1.51,0-2.88-.03l-.04-.07v-3.09c0-.81.07-1.44.18-1.86.04-.1.24-.21.6-.32.39-.1.63-.17.77-.17.07,0,.07-.11.07-.35,0-.1-.04-.21-.07-.35-1.68.07-2.6.14-2.7.14-.39,0-.91-.03-1.65-.07-.7-.03-1.09-.07-1.16-.07-.04.04-.04.14-.04.39,0,.21.04.32.07.32.18,0,.42.03.77.17.35.1.53.21.6.32.1.35.18.91.18,1.79v8.14c0,.74-.07,1.33-.18,1.79-.04.11-.25.21-.6.32s-.63.14-.81.14c-.07,0-.07.14-.07.39,0,.14.04.25.07.28.21,0,.53-.03.91-.07.39-.03.7-.03,1.02-.03s.6-.03.88-.03c.11,0,.98.03,2.67.14.04-.07.04-.17.04-.28,0-.28-.04-.39-.07-.39-.14,0-.39-.07-.74-.17s-.56-.21-.6-.32c-.14-.49-.18-1.12-.18-1.89v-3.51s.98-.07,2.91-.11c.53,0,1.47,0,2.77.03l.04.07v3.65c0,.74-.07,1.33-.18,1.79-.04.11-.25.21-.6.32s-.63.14-.81.14c-.07,0-.07.14-.07.39,0,.14.04.25.07.28.21,0,.53-.03.91-.07.39-.03.7-.03,1.02-.03s.6-.03.88-.03c.11,0,.98.03,2.67.14.04-.07.04-.17.04-.28,0-.28-.04-.39-.07-.39-.07,0-.32-.07-.67-.17"/>
  <path class="st3" d="M52.52,21.4s-.03.14-.03.28.03.25.07.25c.1,0,.32.04.56.11.25.07.39.14.42.24.07.21.1.63.1,1.26v3.33c0,1.65.35,2.81,1.05,3.54.7.74,1.65,1.09,2.88,1.09.56,0,1.09-.07,1.54-.25.46-.14.84-.39,1.23-.74.35-.32.63-.77.81-1.37.17-.56.28-1.26.28-2.03v-3.54c0-.6.07-1.02.18-1.26.1-.14.28-.24.56-.31.28-.07.53-.11.67-.11.03,0,.07-.07.07-.24,0-.11,0-.18-.04-.25-.1,0-.35.03-.77.07s-.77.07-1.02.07c-.18,0-.81-.04-1.93-.11-.04.03-.04.14-.04.28s.04.21.07.21c.14,0,.35.04.63.14.32.07.49.17.53.28.1.18.14.6.14,1.23v3.65c0,1.19-.25,2.03-.7,2.56-.46.53-1.09.77-1.89.77s-1.44-.32-1.89-.95c-.46-.63-.67-1.47-.67-2.49v-3.51c0-.6.04-1.05.11-1.33,0-.07.14-.17.42-.24s.46-.11.56-.11c.03,0,.07-.07.07-.25,0-.07,0-.18-.04-.25-1.12.07-1.75.11-1.96.11,0-.04-.67-.07-1.96-.14M67.99,23.05c-.53-.7-.88-1.26-1.05-1.61-.56.03-1.05.07-1.37.07-.14,0-.74-.03-1.82-.07-.04.03-.07.14-.07.28s.03.25.07.25c.14,0,.35.03.67.1.31.07.49.14.53.21.11.21.18.56.18,1.12v5.96c0,.63-.03,1.05-.14,1.26-.07.14-.28.28-.56.35s-.53.1-.7.1c-.03,0-.07.07-.07.25,0,.14.04.21.07.24.14,0,.39-.03.81-.07.39-.03.74-.03,1.02-.03.04,0,.7.03,1.9.1.03-.03.03-.14.03-.28s-.03-.21-.07-.21c-.14,0-.35-.03-.7-.14-.32-.07-.53-.18-.56-.32-.07-.21-.11-.63-.11-1.26v-6.17l6.07,8.03c.17.25.31.35.49.35s.28-.03.35-.07c-.04-1.05-.07-1.75-.07-2.14v-5.75c0-.56.07-.98.18-1.26.11-.14.28-.24.56-.31s.53-.11.67-.11c.04,0,.07-.07.07-.25,0-.1,0-.21-.03-.25-.11,0-.35.03-.77.07-.42.04-.77.07-1.02.07-.21,0-.84-.03-1.93-.11-.03.03-.03.14-.03.28s.03.21.07.21c.18,0,.39.03.67.1s.46.17.53.28c.1.28.14.67.14,1.23v4.14c0,.28,0,.49-.04.63M76.3,29.43c0,.53-.04.95-.11,1.26-.03.07-.17.14-.42.25-.25.07-.46.1-.56.1-.04,0-.07.1-.07.28,0,.1.03.17.07.21.17,0,.39-.03.63-.03.28,0,.53-.03.74-.03h.63c.07,0,.7.03,1.93.1.04-.07.04-.14.04-.21,0-.18-.04-.28-.07-.28-.11,0-.28-.03-.53-.1s-.39-.14-.42-.21c-.11-.35-.14-.81-.14-1.37v-5.79c0-.56.04-1.02.11-1.33.04-.07.18-.14.46-.24.28-.07.46-.11.56-.11.04,0,.07-.07.07-.25,0-.07,0-.14-.04-.25-1.23.07-1.86.11-1.96.11-.28,0-.67,0-1.19-.04-.53-.03-.81-.03-.84-.03-.03.03-.03.11-.03.28,0,.14.03.25.07.25.1,0,.32.03.56.1.25.07.39.14.42.24.07.25.11.67.11,1.26v5.82h-.02ZM84.23,25.57c-.77-1.89-1.16-2.91-1.16-3.12,0-.14.07-.25.21-.32s.28-.14.42-.17c.14-.04.25-.04.32-.04.03,0,.07-.07.07-.21s0-.25-.04-.28c-1.26.07-1.93.11-2.07.11-.28,0-.67,0-1.16-.04-.49-.03-.77-.03-.84-.03-.03.03-.03.14-.03.28s.03.25.07.25c.14,0,.35.03.6.1.24.07.38.17.46.32.14.28.35.74.56,1.37l3.12,7.79c.07.1.14.14.25.14.25,0,.46-.17.6-.56l3.16-7.4c.28-.67.49-1.09.67-1.33.1-.14.28-.25.53-.32.21-.07.39-.1.53-.1.04,0,.04-.07.04-.25,0-.1,0-.17-.04-.25-.14,0-.39.04-.74.07-.35.03-.67.03-.91.03s-.56,0-.95-.03-.63-.03-.74-.03c-.03.03-.03.14-.03.28s0,.21.07.21c.25,0,.49.03.74.14.25.1.35.25.35.42,0,.21-.1.56-.31,1.05l-2.21,5.26s-.07-.1-.21-.35M91.18,21.43s-.07.14-.07.28.03.25.07.25c.14,0,.35.03.6.1.24.07.39.17.42.28.07.21.11.63.11,1.26v5.72c0,.7-.04,1.16-.11,1.4-.03.1-.18.18-.46.25-.25.07-.46.1-.56.1-.04,0-.04.07-.04.25,0,.14,0,.21.04.24l2.03-.07c.53-.03,1.4,0,2.7,0,1.26.03,2.1.03,2.53.03.03-.14.07-.35.14-.6s.14-.46.21-.63.14-.42.28-.74c.11-.31.18-.53.21-.63-.07-.07-.21-.1-.42-.1-.14,0-.21.03-.21.1-.1.35-.28.67-.46.91-.21.28-.39.46-.56.53-.42.21-1.02.32-1.82.32h-.56c-.63,0-.98-.07-1.05-.21-.1-.28-.14-.67-.14-1.23v-2.35c0-.07.35-.1,1.09-.1.81,0,1.26.03,1.4.1.07.03.1.07.14.1.03.03.03.07.1.21s.11.35.18.6c.04.07.11.11.25.11s.25-.04.28-.07v-2.88s-.14-.07-.28-.07-.25.04-.25.11c-.03.11-.07.25-.1.39-.07.31-.14.49-.25.53-.1.03-.46.07-1.05.07h-.88c-.46,0-.67-.03-.67-.1v-2.32c0-.53.04-.95.11-1.23.04-.14.42-.21,1.16-.21h.81c.95,0,1.61.46,1.96,1.37.04.07.11.1.21.1.18,0,.28-.03.32-.07,0-.03-.07-.35-.21-.88-.1-.53-.21-.98-.24-1.26-.56,0-1.44.03-2.56.07-1.12.03-1.93.07-2.35.07-.7-.04-1.37-.07-2.03-.11M105.46,24.28c0,.56-.14,1.02-.46,1.37s-.63.53-1.02.53h-.39c-.32,0-.53-.03-.7-.1-.18-.07-.25-.21-.25-.46v-1.75c0-1.02.07-1.54.18-1.58.17-.07.46-.1.88-.1,1.16.03,1.75.74,1.75,2.1M102.83,21.47h-1.05c-.28,0-.95,0-2.03-.03-.03.03-.07.11-.07.28s.04.25.07.25c.11,0,.32.03.6.14.28.07.42.17.46.24.07.25.1.67.1,1.26v5.72c0,.74-.03,1.19-.1,1.4-.04.1-.18.18-.46.25-.25.07-.46.1-.6.1-.03,0-.03.07-.03.25,0,.14,0,.24.03.28l.32-.03c.21,0,.49-.03.81-.03.35,0,.63-.03.91-.03.32,0,1.05.03,2.18.1.04-.07.04-.14.04-.24,0-.18-.04-.25-.07-.25-.14,0-.35-.03-.67-.1s-.49-.18-.53-.28c-.07-.25-.1-.7-.1-1.3v-2.14c0-.17.07-.25.25-.25s.31,0,.35.04c.07.04.17.07.24.18.07.07.18.21.32.35.11.17.25.32.32.46.1.14.24.35.42.63.17.28.35.53.49.7.21.35.42.63.63.84.21.21.46.46.77.7.32.24.67.42,1.09.53.42.1.88.17,1.4.17.17,0,.35,0,.46-.03.04-.07.07-.17.07-.28s-.04-.18-.07-.25c-.35,0-.74-.14-1.12-.46-.39-.32-.81-.67-1.16-1.12-.56-.7-1.12-1.58-1.72-2.6-.04-.07-.04-.1.07-.14.49-.21.95-.56,1.3-1.05.35-.49.53-1.02.53-1.54,0-.39-.07-.74-.25-1.05-.14-.32-.35-.56-.6-.77-.25-.17-.53-.35-.84-.49-.32-.14-.6-.21-.91-.28-.28-.07-.56-.07-.84-.07-.18-.07-.56-.07-.98-.03M110.37,24.84c.11.25.21.46.32.63.1.17.32.35.53.56.25.21.42.35.6.46.14.11.39.25.67.42.07.03.14.1.18.1.1.03.24.14.46.28.21.14.39.21.49.28s.25.17.42.32c.18.14.28.25.39.35.07.11.18.25.24.42.07.18.11.32.11.49,0,.56-.14.98-.46,1.26s-.7.42-1.19.42c-.39,0-.7-.07-1.02-.24-.32-.14-.53-.35-.7-.6-.18-.25-.32-.49-.42-.7-.11-.21-.18-.42-.21-.6-.03-.07-.18-.1-.46-.1-.14,0-.25.03-.25.1,0,.18.03.53.11,1.09.07.56.17,1.02.24,1.37,1.26.28,2.18.42,2.81.42.88,0,1.61-.28,2.28-.81.67-.53.98-1.19.98-2,0-.28-.03-.56-.11-.81-.07-.25-.18-.46-.28-.63-.11-.18-.25-.35-.46-.53s-.39-.32-.49-.39c-.11-.07-.32-.21-.6-.35-.28-.17-.46-.28-.53-.32-.04-.03-.21-.1-.42-.24-.25-.14-.39-.25-.46-.28s-.18-.14-.39-.28c-.18-.14-.32-.25-.39-.32s-.14-.21-.25-.32c-.11-.14-.18-.28-.21-.42-.04-.14-.07-.28-.07-.42,0-.46.14-.81.39-1.05.25-.28.6-.39,1.09-.39.53,0,.98.21,1.37.67.39.46.6.91.67,1.37.04.11.18.14.46.14.1,0,.18-.03.18-.14,0-.88-.07-1.65-.18-2.35-.14-.04-.39-.11-.77-.18-.39-.11-.67-.18-.88-.18-.21-.03-.46-.03-.74-.03-.81,0-1.51.25-2.18.77-.63.53-.95,1.16-.95,1.93-.07.28-.04.56.07.81M118.26,29.43c0,.53-.03.95-.11,1.26-.03.07-.18.14-.42.25-.25.07-.46.1-.56.1-.03,0-.07.1-.07.28,0,.1.03.17.07.21.18,0,.39-.03.63-.03.28,0,.53-.03.74-.03h.63c.07,0,.7.03,1.93.1.03-.07.03-.14.03-.21,0-.18-.03-.28-.07-.28-.11,0-.28-.03-.53-.1s-.39-.14-.42-.21c-.11-.35-.14-.81-.14-1.37v-5.79c0-.56.03-1.02.1-1.33.04-.07.18-.14.46-.24.28-.07.46-.11.56-.11.03,0,.07-.07.07-.25,0-.07,0-.14-.03-.25-1.23.07-1.86.11-1.97.11-.28,0-.67,0-1.19-.04-.53-.03-.81-.03-.84-.03-.03.03-.03.11-.03.28,0,.14.03.25.07.25.11,0,.32.03.56.1.25.07.39.14.42.24.07.25.11.67.11,1.26v5.82h0ZM123.21,21.4c-.25,0-.6-.03-1.05-.14l-.28,2.31c.07.07.21.11.39.11.1,0,.14-.04.14-.11.14-.56.35-.91.56-1.12.25-.21.6-.28,1.09-.28.88,0,1.37.07,1.44.25.11.14.14.63.14,1.47v5.51c0,.56-.03.98-.1,1.26-.04.07-.18.14-.42.25-.25.07-.46.1-.56.1-.04,0-.07.1-.07.28,0,.11.03.21.07.25.11,0,.42-.03.88-.07.49-.03.88-.03,1.12-.03h.63c.21,0,.46.03.7.03s.46.03.6.03c.03-.07.03-.14.03-.25,0-.18-.03-.28-.07-.28-.11,0-.28-.03-.53-.11-.28-.07-.38-.14-.42-.21-.11-.35-.14-.77-.14-1.33v-5.44c0-.67.03-1.12.14-1.44.04-.18.53-.25,1.47-.25.49,0,.88.1,1.09.28.25.21.42.56.56,1.12.04.03.07.07.14.07.21,0,.35-.04.42-.11l-.24-2.31c-.46.1-.81.14-1.05.14-.42,0-.98.03-1.65.07-.7.03-1.26.03-1.68.03s-.98,0-1.68-.03-1.23-.03-1.65-.07M135.59,26.8c.07.14.11.24.11.28v2.25c0,.6-.04,1.05-.11,1.33-.03.07-.18.17-.42.25-.25.07-.46.1-.56.1-.04,0-.04.07-.04.25,0,.11.04.21.07.25.1,0,.42-.03.88-.07.46-.03.84-.03,1.12-.03h.63c.21,0,.46.03.7.03s.46.03.56.03c.04-.07.04-.14.04-.25,0-.17-.04-.24-.07-.24-.07,0-.24-.03-.53-.14-.25-.07-.39-.17-.42-.24-.07-.32-.11-.77-.11-1.37v-2.39c0-.14.39-.81,1.16-2.03.77-1.23,1.3-2.07,1.58-2.49.1-.14.32-.28.6-.35.28-.11.49-.14.63-.14.04,0,.07-.07.07-.24,0-.07,0-.18-.03-.25-.1,0-.28.03-.46.03-.21,0-.39.03-.56.03h-.63c-.21,0-.81-.03-1.82-.1-.04.03-.04.14-.04.28s.04.21.07.21c.32,0,.56.03.74.14.18.07.28.18.28.28,0,.18-.21.63-.6,1.3-.42.7-.84,1.37-1.26,2-.04.07-.11.07-.14.03l-1.75-2.81c-.11-.17-.14-.32-.14-.39,0-.14.11-.24.32-.31s.39-.11.56-.11c.04,0,.04-.07.07-.21,0-.14,0-.25-.04-.28-1.23.07-1.93.11-2.1.11-1.09,0-1.76,0-2,.03-.04.03-.04.1-.04.21s.04.14.07.14c.1,0,.25.04.42.07.21.07.35.1.46.17.25.14.49.49.81,1.05M151.59,22.8c.49.49.84,1.09,1.05,1.75.21.67.32,1.4.32,2.21,0,1.12-.25,2.07-.7,2.88-.46.81-1.12,1.23-2,1.23-.7,0-1.3-.24-1.79-.74-.49-.49-.84-1.09-1.05-1.79-.21-.7-.32-1.4-.32-2.18,0-1.12.25-2.1.7-2.88.46-.81,1.12-1.19,2-1.19.67-.03,1.3.21,1.79.7M149.98,31.64c1.33,0,2.49-.49,3.44-1.51s1.44-2.21,1.44-3.65-.49-2.63-1.44-3.65c-.95-1.02-2.1-1.51-3.44-1.51s-2.49.49-3.44,1.51-1.44,2.21-1.44,3.65.49,2.63,1.44,3.65c.95,1.02,2.11,1.51,3.44,1.51M159.69,31.54s.04-.1.04-.25c0-.18-.04-.25-.07-.25-.1,0-.32-.03-.67-.14-.32-.11-.49-.18-.56-.28-.1-.28-.18-.7-.18-1.26v-2.39c0-.07.35-.1,1.09-.1.81,0,1.26.03,1.4.1.07.03.11.07.14.11,0,0,.04.07.11.21s.1.35.18.6c.04.07.11.11.25.11s.25-.03.28-.07v-2.88s-.14-.07-.28-.07-.25.03-.25.1c-.04.11-.07.25-.11.39-.07.32-.14.49-.24.53-.11.03-.46.07-1.05.07h-.84c-.46,0-.67-.03-.67-.1v-2.39c0-.56.04-.98.07-1.23.04-.14.42-.21,1.16-.21h.81c.95,0,1.61.46,1.97,1.37.03.07.1.1.21.1.18,0,.28-.03.32-.07,0-.03-.07-.35-.21-.88-.11-.53-.21-.98-.25-1.26-.53,0-1.37.03-2.49.07-1.12.03-1.93.07-2.42.03-.67,0-1.33-.03-2-.07-.04.03-.07.14-.07.28s.04.25.07.25c.14,0,.35.03.6.1s.39.17.42.28c.07.21.11.63.11,1.26v5.72c0,.7-.04,1.16-.11,1.4-.04.1-.18.18-.46.25-.25.07-.46.1-.6.1-.04,0-.04.07-.04.25,0,.14,0,.21.04.24h.32c.17-.03.46-.03.81-.07.35,0,.67-.03.98-.03.28-.03.98,0,2.21.07"/>
  <path class="st3" d="M44.31,27.36v-6.1h-23.05v6.07c0,1.96,0,2.95.07,5.26.84,9.96,7.33,14.88,11.47,17.01,4.1-2.14,10.63-7.09,11.47-17.01.04-2.28.04-3.26.04-5.23M24.17,40.55c1.12.1,2.53-.07,3.61-.53,2.25-.95,3.72-.91,4.95.07,1.26-.98,2.7-1.02,4.95-.07,1.12.46,2.56.67,3.68.53-1.44,2.67-3.3,4.67-5.16,6.14-1.23.98-2.42,1.72-3.47,2.28-2.53-1.37-6.17-3.96-8.56-8.42M32.66,36.7c-1.72-.98-3.05-.98-4.88,0-.91.49-1.9.74-2.84.74-.74,0-1.54-.17-2.24-.46-.42-1.33-.7-2.81-.84-4.42-.04-.77-.04-1.4-.04-2,1.89.95,3.72,1.02,5.72.25,1.93-.7,3.54-.88,5.19.53,1.68-1.4,3.3-1.23,5.19-.53,2.03.74,3.86.67,5.79-.28,0,.56-.03,1.23-.03,2-.14,1.58-.42,3.05-.81,4.38-.74.32-1.51.49-2.28.49-.95,0-1.93-.24-2.84-.74-1.86-.98-3.19-.98-4.88,0l-.07.03M43.75,27.22s-1.4.98-2.98.98c-3.05,0-3.44-1.44-5.96-1.44-1.09,0-2,.81-2,.81,0,0-.91-.81-2-.81-2.53,0-2.91,1.44-5.96,1.44-1.58,0-2.98-.98-2.98-.98v-1.09c.1.07.24.1.39.07-.35-.18-.46-.49-.28-.7.1-.14.32-.35.21-.6.46.07.25.42.74.6.32.11.74-.03.88-.38-.32.21-.67.14-.74-.11-.07-.18-.14-.46-.39-.49.28-.35.49,0,.88-.32.25-.21.35-.67.1-.95,0,.39-.21.63-.46.6-.21,0-.49-.07-.67.14-.18-.42.25-.42.18-.95-.07-.32-.39-.63-.77-.56.35.18.46.49.28.7-.11.14-.32.35-.21.6-.07-.03-.14-.03-.18-.07v-1.89h21.93v.74c-.14-.07-.28-.11-.42-.11.35.18.46.49.28.7-.1.14-.32.35-.21.6-.46-.04-.25-.39-.74-.6-.32-.11-.74.03-.88.39.31-.21.67-.14.74.1.07.18.14.46.39.49-.28.35-.49,0-.88.32-.24.21-.35.67-.1.95,0-.39.21-.63.46-.6.17.03.46.1.63-.11.18.42-.25.42-.17.95.03.32.39.63.77.56-.35-.18-.46-.49-.28-.7.1-.14.32-.35.21-.6.07,0,.14.04.17.07v2.25h.03-.01ZM38.59,24.56c.28-.35.49,0,.88-.32.25-.21.35-.67.1-.95,0,.39-.21.63-.46.6-.17-.03-.46-.11-.63.1-.18-.42.25-.42.18-.95-.04-.32-.39-.63-.77-.56.35.18.46.49.28.7-.1.14-.32.35-.21.6-.42-.07-.21-.42-.7-.63-.32-.11-.74.03-.88.39.32-.21.67-.14.74.1.07.18.14.46.39.49-.28.35-.49,0-.88.32-.24.21-.35.67-.1.95,0-.39.21-.63.46-.6.18.03.46.1.63-.11.17.42-.25.42-.18.95.03.32.39.63.77.56-.35-.18-.46-.49-.28-.7.11-.14.32-.35.21-.6.46.07.25.42.74.6.32.11.74-.03.88-.38-.32.21-.67.14-.74-.11-.07-.14-.14-.42-.42-.46M33.33,24.56c.28-.35.49,0,.88-.32.24-.21.35-.67.1-.95,0,.39-.21.63-.46.6-.17-.03-.46-.11-.63.1-.18-.42.25-.42.18-.95-.07-.32-.39-.63-.77-.56.35.18.46.49.28.7-.1.14-.32.35-.21.6-.42-.07-.21-.42-.7-.63-.32-.11-.74.03-.88.39.32-.21.67-.14.74.1.07.18.14.46.39.49-.28.35-.49,0-.88.32-.24.21-.35.67-.1.95,0-.39.21-.63.46-.6.18.03.46.1.63-.11.18.42-.24.42-.17.95.07.32.39.63.77.56-.35-.18-.46-.49-.28-.7.1-.14.32-.35.21-.6.46.07.24.42.74.6.32.11.74-.03.88-.38-.31.21-.67.14-.74-.11-.07-.14-.14-.42-.42-.46M28.28,24.56c.28-.35.49,0,.88-.32.25-.21.35-.67.1-.95,0,.39-.21.63-.46.6-.17-.03-.46-.11-.63.1-.18-.42.24-.42.17-.95-.03-.32-.39-.63-.77-.56.35.18.46.49.28.7-.1.14-.32.35-.21.6-.42-.07-.21-.42-.7-.63-.32-.11-.74.03-.88.39.31-.21.67-.14.74.1.07.18.14.46.42.49-.28.35-.49,0-.88.32-.24.21-.35.67-.1.95,0-.39.21-.63.46-.6.18.03.46.1.63-.11.17.42-.25.42-.18.95.07.32.39.63.77.56-.35-.18-.46-.49-.28-.7.11-.14.32-.35.21-.6.46.07.25.42.74.6.32.11.74-.03.88-.38-.32.21-.67.14-.74-.11-.14-.14-.21-.42-.46-.46M25.54,33.05s-.39.35-.77.67c-.07.07-.67.49-.39.95.14.25.35.25.35.25,0,0,.1.39.49.46.17.03.32-.07.32-.07,0,0,.1.28.49.28.1,0,.17-.03.24-.03.18-.07.25-.25.25-.25,0,0,.11.11.32.07.39-.07.49-.46.49-.46,0,0,.21,0,.35-.25.28-.46-.32-.91-.39-.95-.35-.32-.74-.67-.74-.67l.46-.39s.03-.07.03-.14c0-.03-.03-.07-.1-.07h-.6c-.03-.1-.17-.21-.28-.21-.14,0-.25.07-.28.21h-.56s-.07.04-.11.07c0,.03,0,.1.03.14l.39.39h.01ZM31.12,34.66c.14.25.35.25.35.25,0,0,.11.39.49.46.18.03.32-.07.32-.07,0,0,.11.28.49.28.11,0,.18-.03.25-.03.17-.07.25-.25.25-.25,0,0,.1.11.31.07.39-.07.49-.46.49-.46,0,0,.21,0,.35-.25.28-.46-.31-.91-.39-.95-.35-.32-.74-.67-.74-.67l.46-.39s.03-.07.03-.14c0-.03-.03-.07-.1-.07h-.6c-.03-.1-.17-.21-.28-.21-.14,0-.25.07-.28.21h-.56s-.07.04-.11.07c0,.03,0,.1.03.14l.46.39s-.39.35-.77.67c-.14.07-.74.49-.46.95M37.82,34.66c.14.25.35.25.35.25,0,0,.1.39.49.46.18.03.32-.07.32-.07,0,0,.1.28.49.28.1,0,.18-.03.25-.03.21-.07.24-.25.24-.25,0,0,.11.11.32.07.39-.07.49-.46.49-.46,0,0,.21,0,.35-.25.28-.46-.32-.91-.39-.95-.35-.32-.74-.67-.74-.67l.46-.39s.04-.07.04-.14c0-.03-.04-.07-.11-.07h-.6c-.03-.1-.18-.21-.28-.21s-.25.07-.28.21h-.56s-.07.04-.11.07c0,.03,0,.1.03.14l.46.39s-.39.35-.77.67c-.1.07-.7.49-.46.95M29.12,41.92c-.28.35-.49,0-.88.32-.25.21-.35.67-.1.95,0-.39.21-.63.46-.6.18.03.46.11.63-.11.18.42-.25.42-.18.95.04.32.39.63.77.56-.35-.18-.46-.49-.28-.7.1-.14.32-.35.21-.6.46.03.25.42.74.6.32.1.74-.03.88-.39-.32.21-.67.14-.74-.1-.07-.18-.14-.46-.39-.49.28-.35.49,0,.88-.32.24-.21.35-.67.1-.95,0,.39-.21.63-.46.6-.18-.03-.46-.1-.63.11-.18-.42.25-.42.18-.95-.03-.32-.39-.63-.77-.56.35.18.46.49.28.7-.11.14-.32.35-.21.6-.46-.03-.25-.42-.74-.6-.32-.11-.74.03-.88.39.32-.21.67-.14.74.1.07.17.14.46.39.49M32.24,45.71c-.28.35-.49,0-.88.32-.24.21-.35.67-.1.95,0-.39.21-.63.46-.6.18.03.46.11.63-.1.18.42-.24.42-.17.95.03.32.39.63.77.56-.35-.18-.46-.49-.28-.7.1-.14.32-.35.21-.6.46.03.24.42.74.6.32.11.74-.03.88-.39-.31.21-.67.14-.74-.1-.07-.18-.14-.46-.39-.49.28-.35.49,0,.88-.32.24-.21.35-.67.1-.95,0,.39-.21.63-.46.6-.17-.04-.46-.11-.63.1-.18-.42.24-.42.17-.95-.03-.32-.39-.63-.77-.56.35.18.46.49.28.7-.1.14-.32.35-.21.6-.46-.03-.25-.42-.74-.6-.35-.11-.77.03-.91.38.31-.21.67-.14.74.11.07.17.18.46.42.49M34.28,43.22c0-.39.21-.63.46-.6.17.03.46.11.63-.11.17.42-.25.42-.18.95.03.32.39.63.77.56-.35-.18-.46-.49-.28-.7.11-.14.32-.35.21-.6.46.07.25.42.74.6.32.1.74-.03.88-.39-.32.21-.67.14-.74-.1-.07-.18-.18-.46-.42-.49.28-.35.49,0,.88-.32.25-.21.35-.67.11-.95,0,.39-.21.63-.46.6-.17-.03-.46-.1-.63.11-.18-.42.24-.42.17-.95-.07-.32-.39-.63-.77-.56.35.18.46.49.28.7-.1.14-.32.35-.21.6-.46-.03-.24-.42-.74-.6-.32-.11-.74.03-.88.39.31-.21.67-.14.74.1.07.17.14.46.39.49-.28.35-.49,0-.88.32-.21.18-.28.63-.07.95"/>
</svg>