<?xml version="1.0" encoding="utf-8"?>
<!-- Generator: Adobe Illustrator 20.1.0, SVG Export Plug-In . SVG Version: 6.00 Build 0)  -->
<svg version="1.1" id="Layer_1" xmlns="http://www.w3.org/2000/svg" xmlns:xlink="http://www.w3.org/1999/xlink" x="0px" y="0px"
	 viewBox="0 0 283 283" style="enable-background:new 0 0 283 283;" xml:space="preserve">
<style type="text/css">
	.st0{clip-path:url(#SVGID_2_);}
	.st1{clip-path:url(#SVGID_6_);}
	.st2{clip-path:url(#SVGID_7_);}
	.st3{clip-path:url(#SVGID_8_);fill:#FFFFFF;}
	.st4{clip-path:url(#SVGID_8_);}
	.st5{opacity:0.5;}
	.st6{clip-path:url(#SVGID_10_);fill:#FFFFFF;}
	.st7{clip-path:url(#SVGID_12_);}
	.st8{clip-path:url(#SVGID_14_);fill:#FFFFFF;}
	.st9{clip-path:url(#SVGID_16_);fill:#FDFEFF;}
</style>
<g>
	<g>
		<defs>
			<rect id="SVGID_1_" width="283" height="283"/>
		</defs>
		<clipPath id="SVGID_2_">
			<use xlink:href="#SVGID_1_"  style="overflow:visible;"/>
		</clipPath>
		<g class="st0">
			<g>
				<defs>
					<rect id="SVGID_3_" width="283" height="283"/>
				</defs>
				<defs>
					<rect id="SVGID_4_" width="283" height="283"/>
				</defs>
				<defs>
					<rect id="SVGID_5_" width="283" height="283"/>
				</defs>
				<clipPath id="SVGID_6_">
					<use xlink:href="#SVGID_3_"  style="overflow:visible;"/>
				</clipPath>
				<clipPath id="SVGID_7_" class="st1">
					<use xlink:href="#SVGID_4_"  style="overflow:visible;"/>
				</clipPath>
				<clipPath id="SVGID_8_" class="st2">
					<use xlink:href="#SVGID_5_"  style="overflow:visible;"/>
				</clipPath>
				<path class="st3" d="M272.8,141.7c0,72.4-58.7,131.1-131.1,131.1S10.6,214.1,10.6,141.7S69.3,10.6,141.7,10.6
					S272.8,69.3,272.8,141.7 M283,0H0v283h283V0z"/>
				<path class="st3" d="M141.7,209.1c37.2,0,67.3-30.1,67.3-67.3s-30.1-67.3-67.3-67.3s-67.3,30.1-67.3,67.3
					C74.4,178.9,104.6,209.1,141.7,209.1"/>
				<g class="st4">
					<g class="st5">
						<g>
							<defs>
								<rect id="SVGID_9_" x="1.6" y="3.6" width="280.2" height="270.2"/>
							</defs>
							<clipPath id="SVGID_10_">
								<use xlink:href="#SVGID_9_"  style="overflow:visible;"/>
							</clipPath>
							<path class="st6" d="M265.7,141.7c0,68.5-55.5,124-124,124s-124-55.5-124-124s55.5-124,124-124S265.7,73.2,265.7,141.7
								 M272.8,141.7c0-72.4-58.7-131.1-131.1-131.1S10.6,69.3,10.6,141.7s58.7,131.1,131.1,131.1S272.8,214.1,272.8,141.7"/>
						</g>
					</g>
					<g>
						<defs>
							<rect id="SVGID_11_" width="283" height="283"/>
						</defs>
						<clipPath id="SVGID_12_">
							<use xlink:href="#SVGID_11_"  style="overflow:visible;"/>
						</clipPath>
						<g class="st7">
							<g class="st5">
								<g>
									<defs>
										<rect id="SVGID_13_" x="58.3" y="60.3" width="166.8" height="156.8"/>
									</defs>
									<clipPath id="SVGID_14_">
										<use xlink:href="#SVGID_13_"  style="overflow:visible;"/>
									</clipPath>
									<path class="st8" d="M209.1,141.7c0,37.2-30.1,67.3-67.3,67.3s-67.3-30.1-67.3-67.3s30.1-67.3,67.3-67.3
										C178.9,74.4,209.1,104.5,209.1,141.7 M216.1,141.7c0-41.1-33.3-74.4-74.4-74.4s-74.4,33.3-74.4,74.4s33.3,74.4,74.4,74.4
										S216.1,182.8,216.1,141.7"/>
								</g>
							</g>
							<g>
								<defs>
									<rect id="SVGID_15_" width="283" height="283"/>
								</defs>
								<clipPath id="SVGID_16_">
									<use xlink:href="#SVGID_15_"  style="overflow:visible;"/>
								</clipPath>
								<path class="st9" d="M232.3,99.4l8.6-3.6c0.5-0.2,0.7-0.8,0.5-1.4l-1.6-3.9c-0.2-0.6-0.8-0.9-1.3-0.6l-20.1,8.5
									c-0.5,0.2-0.7,0.8-0.5,1.4l1.6,3.9c0.2,0.6,0.8,0.9,1.3,0.6l9.2-3.9l-6.6,9.8c-0.4,0.6-0.7,1.2-0.2,2.4l1.8,4.2
									c0.3,0.6,1.1,0.5,1.5,0l7.6-11.4l11.8,3c0.7,0.2,1.4-0.2,1.1-0.9l-1.8-4.3c-0.4-0.9-0.8-1.3-1.8-1.5L232.3,99.4z
									 M220.3,79.7l4-3l1.4,1.8c1.4,1.9,0.6,3-0.3,3.7c-0.9,0.6-2.3,1.1-3.7-0.7L220.3,79.7z M213.3,91.2c-0.5,1-0.3,1.4,0,1.9
									l2.8,3.7c0.4,0.5,0.8,0.4,1.1,0.2c0.3-0.2,0.4-0.3,0.5-0.6l4.1-8.5c2.8,1.4,5.5,0.5,7.5-1c3.5-2.6,4.2-6.9,1-11.1l-4.9-6.6
									c-0.4-0.5-1-0.6-1.4-0.3l-17.5,13c-0.5,0.4-0.5,0.9-0.1,1.5l2.5,3.3c0.4,0.5,1,0.6,1.4,0.3l6.2-4.6l0.8,1.1L213.3,91.2z
									 M192.2,56.5c-4.5,5.8-3.8,12.5,2.3,17.3c6.2,4.8,13.1,3.4,17.3-2.1c4.4-5.7,4-12.5-2.2-17.4
									C203.5,49.6,196.5,50.9,192.2,56.5 M206.6,67.6c-2.3,3-5.6,4-8.5,1.6c-3-2.3-2.8-5.7-0.5-8.7s5.6-4,8.6-1.7
									C209.1,61.2,209,64.5,206.6,67.6 M174,60c-0.1,1.1,0.3,1.5,1,1.7l4.2,1.4c0.7,0.2,1.2,0,1.6-0.6l11.9-18.3
									c0.6-0.9,0.4-1.4-0.2-1.7l-4-1.4c-0.6-0.2-1.2-0.3-1.9,0.8l-6.3,10.5L182,40c0.1-0.8-0.2-1.2-1-1.5l-3.6-1.2
									c-0.9-0.3-1.4,0-1.8,0.6L169,48.7l1.6-12.2c0.1-1-0.2-1.5-1.1-1.8l-4-1.4c-0.6-0.2-1.1,0.1-1.2,1.2l-2.1,21.7
									c-0.1,0.9,0.4,1.3,0.9,1.4l4.2,1.4c0.8,0.3,1.4-0.1,1.8-0.8l6.1-9.9L174,60z M140.1,54c0,0.6,0.4,1,1,1l13.9,0.8
									c0.6,0,1.1-0.3,1.1-0.8l0.2-3.6c0-0.6-0.4-1-1-1l-8.6-0.5l0.2-3.8l6.7,0.4c0.6,0,1.1-0.3,1.1-0.8l0.2-3.6c0-0.6-0.4-1-1-1
									l-6.7-0.4l0.2-3.6l8.1,0.5c0.6,0,1.1-0.3,1.1-0.9l0.2-3.6c0-0.6-0.4-0.9-1-1l-13.4-0.8c-0.6,0-1.1,0.3-1.1,0.9L140.1,54z
									 M134.1,38.5c0.6-0.1,0.7-0.5,0.6-1.1c-0.2-1.4-0.7-2.3-1.3-3.1c-1.5-1.9-4.3-2.7-8.3-2c-5.9,0.9-8.4,5.1-7.8,9
									c0.7,4.3,3.3,5.7,8.9,5.8c2.7,0,4.2,0.3,4.5,1.8c0.2,1.4-0.8,2.2-2.8,2.5c-1.5,0.2-2.6,0.2-3.4-1.3
									c-0.2-0.4-0.6-0.6-1.3-0.5l-3.9,0.6c-0.8,0.1-0.8,0.7-0.8,1.2c0.4,2.4,1.5,3.8,3.6,4.8c1.6,0.8,3.9,0.9,6.7,0.4
									c5.9-1,8.7-4.4,7.9-9.2c-0.7-4.3-3.1-6.1-9-6c-2.8,0.1-4.2-0.1-4.4-1.5c-0.2-1.2,0.6-2.2,2.4-2.4c1.6-0.3,2.3,0.3,2.8,1.1
									c0.3,0.5,0.6,0.7,1.3,0.6L134.1,38.5z M103,49.4l-1.8-4.7l2.1-0.8c2.2-0.9,3,0.2,3.5,1.3c0.4,1,0.5,2.5-1.7,3.4L103,49.4z
									 M112.3,59.2c0.8,0.7,1.3,0.7,1.9,0.5l4.3-1.7c0.6-0.2,0.6-0.6,0.5-1c-0.1-0.3-0.2-0.4-0.4-0.6l-7.1-6.1
									c2.1-2.4,1.9-5.2,1-7.5c-1.6-4.1-5.5-5.8-10.4-3.9l-7.6,3c-0.6,0.2-0.9,0.8-0.7,1.3l8,20.3c0.2,0.6,0.8,0.7,1.4,0.5l3.9-1.5
									c0.6-0.2,0.9-0.8,0.7-1.3L105,54l1.3-0.5L112.3,59.2z M89.1,61.2c1.9,2.6,1.7,4.5-0.3,5.9c-2.1,1.5-3.8,0.9-5.6-1.8
									l-7.5-10.7c-0.3-0.5-0.9-0.5-1.5-0.2l-3.3,2.3c-0.5,0.4-0.8,1-0.4,1.5L78,69c4.3,6.1,9,6,13.8,2.6c4.5-3.1,6.8-8,2.5-14.1
									l-7.6-10.7c-0.3-0.5-0.9-0.5-1.5-0.2L81.8,49c-0.5,0.4-0.7,0.9-0.3,1.4L89.1,61.2z M57.2,89.7c5.7,4.6,12.4,4.2,17.3-1.9
									c5-6.1,3.7-13-1.6-17.4c-5.6-4.5-12.4-4.3-17.4,1.8C50.6,78.3,51.8,85.3,57.2,89.7 M68.7,75.7c2.9,2.4,3.8,5.7,1.4,8.6
									s-5.7,2.7-8.7,0.3c-3-2.4-3.9-5.7-1.5-8.6C62.3,73,65.7,73.2,68.7,75.7 M51.2,93.1c0.1-0.5-0.4-1-0.7-1.1
									c-5.5-1.1-9,2.3-11,7.4c-2.7,6.8,0.5,13.2,6.9,15.8c7.4,3,13.1,0.5,15.8-6.3c1.9-4.7,1.3-9.9-2.7-13.2
									c-0.4-0.3-1-0.4-1.3,0.2l-2.3,4c-0.3,0.5-0.2,1.1,0.2,1.5c1.3,1.5,1.6,3.5,0.9,5.2c-1.2,3-4.1,4-8.1,2.4
									c-3.5-1.4-5.4-4.3-4.1-7.6c0.8-2.1,2.5-2.9,4.3-2.9c0.5,0,1-0.4,1.1-0.9L51.2,93.1z"/>
							</g>
						</g>
					</g>
				</g>
			</g>
		</g>
	</g>
</g>
</svg>
