<?xml version="1.0" encoding="utf-8"?>
<!-- Generator: Adobe Illustrator 20.1.0, SVG Export Plug-In . SVG Version: 6.00 Build 0)  -->
<svg version="1.1" id="Layer_1" xmlns="http://www.w3.org/2000/svg" xmlns:xlink="http://www.w3.org/1999/xlink" x="0px" y="0px"
	 viewBox="0 0 283.5 283.5" style="enable-background:new 0 0 283.5 283.5;" xml:space="preserve">
<style type="text/css">
	.st0{clip-path:url(#SVGID_2_);}
	.st1{clip-path:url(#SVGID_4_);fill:#FFFFFF;}
	.st2{opacity:0.5;clip-path:url(#SVGID_4_);}
	.st3{clip-path:url(#SVGID_6_);fill:#FFFFFF;}
	.st4{clip-path:url(#SVGID_8_);fill:#FFFFFF;}
	.st5{clip-path:url(#SVGID_4_);fill:#FDFEFF;}
</style>
<g>
	<defs>
		<rect id="SVGID_1_" y="-0.6" width="283.5" height="283.5"/>
	</defs>
	<clipPath id="SVGID_2_">
		<use xlink:href="#SVGID_1_"  style="overflow:visible;"/>
	</clipPath>
	<g class="st0">
		<defs>
			<rect id="SVGID_3_" y="-0.6" width="283.5" height="283.5"/>
		</defs>
		<clipPath id="SVGID_4_">
			<use xlink:href="#SVGID_3_"  style="overflow:visible;"/>
		</clipPath>
		<path class="st1" d="M272.8,141.1c0,72.4-58.7,131.1-131.1,131.1S10.6,213.5,10.6,141.1S69.3,10,141.7,10S272.8,68.7,272.8,141.1
			 M283.5-0.6H0v283.5h283.5V-0.6z"/>
		<path class="st1" d="M141.7,208.5c37.2,0,67.3-30.1,67.3-67.3c0-37.2-30.1-67.3-67.3-67.3s-67.3,30.1-67.3,67.3
			C74.4,178.3,104.6,208.5,141.7,208.5"/>
		<g class="st2">
			<g>
				<defs>
					<rect id="SVGID_5_" x="1.6" y="3" width="280.2" height="270.2"/>
				</defs>
				<clipPath id="SVGID_6_">
					<use xlink:href="#SVGID_5_"  style="overflow:visible;"/>
				</clipPath>
				<path class="st3" d="M265.7,141.1c0,68.5-55.5,124-124,124s-124-55.5-124-124s55.5-124,124-124S265.7,72.6,265.7,141.1
					 M272.8,141.1C272.8,68.7,214.1,10,141.7,10C69.3,10,10.6,68.7,10.6,141.1s58.7,131.1,131.1,131.1
					C214.1,272.2,272.8,213.5,272.8,141.1"/>
			</g>
		</g>
		<g class="st2">
			<g>
				<defs>
					<rect id="SVGID_7_" x="58.3" y="59.7" width="166.8" height="156.8"/>
				</defs>
				<clipPath id="SVGID_8_">
					<use xlink:href="#SVGID_7_"  style="overflow:visible;"/>
				</clipPath>
				<path class="st4" d="M209.1,141.1c0,37.2-30.1,67.3-67.3,67.3c-37.2,0-67.3-30.1-67.3-67.3s30.1-67.3,67.3-67.3
					C178.9,73.8,209.1,103.9,209.1,141.1 M216.1,141.1c0-41.1-33.3-74.4-74.4-74.4c-41.1,0-74.4,33.3-74.4,74.4s33.3,74.4,74.4,74.4
					C182.8,215.5,216.1,182.2,216.1,141.1"/>
			</g>
		</g>
		<path class="st5" d="M232.3,98.8l8.6-3.6c0.5-0.2,0.7-0.8,0.5-1.4l-1.6-3.9c-0.2-0.6-0.8-0.9-1.3-0.6l-20.1,8.5
			c-0.5,0.2-0.7,0.8-0.5,1.4l1.6,3.9c0.2,0.6,0.8,0.9,1.3,0.6l9.2-3.9l-6.6,9.8c-0.4,0.6-0.7,1.2-0.2,2.4l1.8,4.2
			c0.3,0.6,1.1,0.5,1.5,0l7.6-11.4l11.8,3c0.7,0.2,1.4-0.2,1.1-0.9l-1.8-4.3c-0.4-0.9-0.8-1.3-1.8-1.5L232.3,98.8z M220.3,79.1l4-3
			l1.4,1.8c1.4,1.9,0.6,3-0.3,3.7c-0.9,0.6-2.3,1.1-3.7-0.7L220.3,79.1z M213.3,90.6c-0.5,1-0.3,1.4,0,1.9l2.8,3.7
			c0.4,0.5,0.8,0.4,1.1,0.2c0.3-0.2,0.4-0.3,0.5-0.6l4.1-8.5c2.8,1.4,5.5,0.5,7.5-1c3.5-2.6,4.2-6.9,1-11.1l-4.9-6.6
			c-0.4-0.5-1-0.6-1.4-0.3l-17.5,13c-0.5,0.4-0.5,0.9-0.1,1.5l2.5,3.3c0.4,0.5,1,0.6,1.4,0.3l6.2-4.6l0.8,1.1L213.3,90.6z
			 M192.2,55.9c-4.5,5.8-3.8,12.5,2.3,17.3c6.2,4.8,13.1,3.4,17.3-2.1c4.4-5.7,4-12.5-2.2-17.4C203.5,49,196.5,50.3,192.2,55.9
			 M206.6,67c-2.3,3-5.6,4-8.5,1.6c-3-2.3-2.8-5.7-0.5-8.7c2.3-3,5.6-4,8.6-1.7C209.1,60.6,209,63.9,206.6,67 M174,59.4
			c-0.1,1.1,0.3,1.5,1,1.7l4.2,1.4c0.7,0.2,1.2,0,1.6-0.6l11.9-18.3c0.6-0.9,0.4-1.4-0.2-1.7l-4-1.4c-0.6-0.2-1.2-0.3-1.9,0.8
			l-6.3,10.5l1.7-12.4c0.1-0.8-0.2-1.2-1-1.5l-3.6-1.2c-0.9-0.3-1.4,0-1.8,0.6L169,48.1l1.6-12.2c0.1-1-0.2-1.5-1.1-1.8l-4-1.4
			c-0.6-0.2-1.1,0.1-1.2,1.2l-2.1,21.7c-0.1,0.9,0.4,1.3,0.9,1.4l4.2,1.4c0.8,0.3,1.4-0.1,1.8-0.8l6.1-9.9L174,59.4z M140.1,53.4
			c0,0.6,0.4,1,1,1l13.9,0.8c0.6,0,1.1-0.3,1.1-0.8l0.2-3.6c0-0.6-0.4-1-1-1l-8.6-0.5l0.2-3.8l6.7,0.4c0.6,0,1.1-0.3,1.1-0.8
			l0.2-3.6c0-0.6-0.4-1-1-1l-6.7-0.4l0.2-3.6l8.1,0.5c0.6,0,1.1-0.3,1.1-0.9l0.2-3.6c0-0.6-0.4-0.9-1-1l-13.4-0.8
			c-0.6,0-1.1,0.3-1.1,0.9L140.1,53.4z M134.1,37.9c0.6-0.1,0.7-0.5,0.6-1.1c-0.2-1.4-0.7-2.3-1.3-3.1c-1.5-1.9-4.3-2.7-8.3-2
			c-5.9,0.9-8.4,5.1-7.8,9c0.7,4.3,3.3,5.7,8.9,5.8c2.7,0,4.2,0.3,4.5,1.8c0.2,1.4-0.8,2.2-2.8,2.5c-1.5,0.2-2.6,0.2-3.4-1.3
			c-0.2-0.4-0.6-0.6-1.3-0.5l-3.9,0.6c-0.8,0.1-0.8,0.7-0.8,1.2c0.4,2.4,1.5,3.8,3.6,4.8c1.6,0.8,3.9,0.9,6.7,0.4
			c5.9-1,8.7-4.4,7.9-9.2c-0.7-4.3-3.1-6.1-9-6c-2.8,0.1-4.2-0.1-4.4-1.5c-0.2-1.2,0.6-2.2,2.4-2.4c1.6-0.3,2.3,0.3,2.8,1.1
			c0.3,0.5,0.6,0.7,1.3,0.6L134.1,37.9z M103,48.8l-1.8-4.7l2.1-0.8c2.2-0.9,3,0.2,3.5,1.3c0.4,1,0.5,2.5-1.7,3.4L103,48.8z
			 M112.3,58.6c0.8,0.7,1.3,0.7,1.9,0.5l4.3-1.7c0.6-0.2,0.6-0.6,0.5-1c-0.1-0.3-0.2-0.4-0.4-0.6l-7.1-6.1c2.1-2.4,1.9-5.2,1-7.5
			c-1.6-4.1-5.5-5.8-10.4-3.9l-7.6,3c-0.6,0.2-0.9,0.8-0.7,1.3l8,20.3c0.2,0.6,0.8,0.7,1.4,0.5l3.9-1.5c0.6-0.2,0.9-0.8,0.7-1.3
			l-2.8-7.2l1.3-0.5L112.3,58.6z M89.1,60.6c1.9,2.6,1.7,4.5-0.3,5.9c-2.1,1.5-3.8,0.9-5.6-1.8l-7.5-10.7c-0.3-0.5-0.9-0.5-1.5-0.2
			l-3.3,2.3c-0.5,0.4-0.8,1-0.4,1.5L78,68.4c4.3,6.1,9,6,13.8,2.6c4.5-3.1,6.8-8,2.5-14.1l-7.6-10.7c-0.3-0.5-0.9-0.5-1.5-0.2
			l-3.4,2.4c-0.5,0.4-0.7,0.9-0.3,1.4L89.1,60.6z M57.2,89.1c5.7,4.6,12.4,4.2,17.3-1.9c5-6.1,3.7-13-1.6-17.4
			c-5.6-4.5-12.4-4.3-17.4,1.8C50.6,77.7,51.8,84.7,57.2,89.1 M68.7,75.1c2.9,2.4,3.8,5.7,1.4,8.6c-2.4,2.9-5.7,2.7-8.7,0.3
			c-3-2.4-3.9-5.7-1.5-8.6C62.3,72.4,65.7,72.6,68.7,75.1 M51.2,92.5c0.1-0.5-0.4-1-0.7-1.1c-5.5-1.1-9,2.3-11,7.4
			c-2.7,6.8,0.5,13.2,6.9,15.8c7.4,3,13.1,0.5,15.8-6.3c1.9-4.7,1.3-9.9-2.7-13.2c-0.4-0.3-1-0.4-1.3,0.2l-2.3,4
			c-0.3,0.5-0.2,1.1,0.2,1.5c1.3,1.5,1.6,3.5,0.9,5.2c-1.2,3-4.1,4-8.1,2.4c-3.5-1.4-5.4-4.3-4.1-7.6c0.8-2.1,2.5-2.9,4.3-2.9
			c0.5,0,1-0.4,1.1-0.9L51.2,92.5z"/>
	</g>
</g>
</svg>
