<svg id="Layer_1" data-name="Layer 1" xmlns="http://www.w3.org/2000/svg" viewBox="0 0 238.6 281.29"><defs><style>.cls-1{fill:#fff;}</style></defs><title>Artboard 1</title><path class="cls-1" d="M129.56,137.55h49.36v3.14a2.75,2.75,0,0,0-1.77-.38c1.44.78,1.91,2.08,1.23,3-.48.62-1.35,1.48-.94,2.49-1.88-.22-1-1.77-3.06-2.56a3,3,0,0,0-3.71,1.59c1.39-.86,2.76-.62,3.18.41.29.72.61,1.92,1.69,2.06-1.13,1.52-2,0-3.75,1.37a3,3,0,0,0-.48,4c0-1.63.84-2.7,1.95-2.54.77.11,2,.43,2.63-.44.75,1.74-1,1.73-.69,3.93a3,3,0,0,0,3.22,2.42c-1.43-.78-1.91-2.08-1.23-3,.48-.62,1.35-1.49.94-2.49a1.93,1.93,0,0,1,.79.24v9.3a25.07,25.07,0,0,1-13.9,4.36,28,28,0,0,1-12.32-3c-8.29-4.1-14.7-4.09-19.59,0l-.45.38-.46-.38c-4.9-4.12-11.3-4.14-19.59,0-5.4,2.68-15.54,5.72-26.12-1.29v-4.49a2.72,2.72,0,0,0,1.71.35c-1.43-.78-1.91-2.08-1.23-3,.48-.62,1.36-1.49.94-2.49,1.88.22,1,1.77,3.06,2.57a3,3,0,0,0,3.71-1.59c-1.39.85-2.76.62-3.18-.42-.29-.72-.61-1.91-1.69-2.06,1.13-1.52,2,0,3.75-1.36a3,3,0,0,0,.48-4c0,1.63-.84,2.7-1.95,2.54-.77-.11-2-.43-2.63.44-.75-1.74,1-1.73.7-3.93a3,3,0,0,0-3.23-2.41c1.44.78,1.91,2.08,1.23,3-.48.62-1.36,1.48-.94,2.49a1.93,1.93,0,0,1-.73-.21v-8h29.1c-.21-.67-.43-1.46-.62-2.33H84.2v41.2a100.37,100.37,0,0,0,.4,10.93c.75.44,1.64.8,1.93.63s.49-.27.72-.38a99.15,99.15,0,0,1-.77-12.3v-.7c7.89,4.08,15.71,4.49,24.38,1.3,8-2.94,14.81-3.68,21.78,2.24,7-5.91,13.77-5.18,21.78-2.24,8.62,3.17,16.43,2.81,24.48-1.35v.75a92.56,92.56,0,0,1-3.56,26,24.26,24.26,0,0,1-10,2.17,25.12,25.12,0,0,1-11.89-3c-7.78-4.17-13.32-4.17-20.48,0l-.35.21-.36-.21c-7.15-4.16-12.7-4.15-20.47,0a24.6,24.6,0,0,1-21.77.88,86.33,86.33,0,0,1-2.27-10.14,22.55,22.55,0,0,0,.7,9,4.51,4.51,0,0,0,2.19,2.73c.59.29.62.57-.1,1a4,4,0,0,1-2.24.47c9.82,27.16,30.3,43.15,44.33,50.45C150,245.84,177.43,225,181,183a5.27,5.27,0,0,1-.93-3.76,61.82,61.82,0,0,0,.27-14.86,7.81,7.81,0,0,1,.6-3c.06-.12.17-.3.3-.5V135.22H133A36.1,36.1,0,0,1,129.56,137.55Zm3.14,114.7c-11.1-5.95-26.38-16.9-36.28-35.29A33,33,0,0,0,112,214.81c9.43-3.92,15.47-3.84,20.69.3,5.21-4.14,11.26-4.22,20.69-.3A32.92,32.92,0,0,0,169,216.94C159.1,235.35,143.81,246.3,132.71,252.25ZM127,112.62c-3.14-4.71-9.35-12-9.7-12.49s-.71-1,.21-1.29c1.23-.38,4.33-1.43,4.92-1.57a1.6,1.6,0,0,1,1.71.64c3.14,4,10,11.64,11.8,13.68a27.23,27.23,0,0,0-.49,4.5,44.6,44.6,0,0,0-7.68,3.73c-1,.67-1.34.35-1.71-.14-3.39-4.46-13.41-15-16.48-17.05-.86-.57-.71-1.14.07-1.36s2.36-.63,3.57-1a1.77,1.77,0,0,1,1.85.43c.93.79,8.78,9.06,11.35,12.06C126.79,113.22,127.25,113,127,112.62Zm19.35,7c.37-.68-.62-1-1.36-1.17a24.14,24.14,0,0,1-6.81,5.26c-1,.51-1.88.24-2.13-1a28,28,0,0,1-.6-5.61,31.84,31.84,0,0,0-11.6,7.06.91.91,0,0,1-1.48-.13c-1.2-1.4-2.53-2.87-3.92-4.37-5.75,7.24-1.17,19.21-.9,19.58a1.19,1.19,0,0,0,1.14.52c12.2-.62,21.52-13.06,24.41-15.69,6-5.43,10.62-4.44,12.44-3.09a7.49,7.49,0,0,0,.73-.71c-4.63-3.25-10.67.76-11.07,1s-.6.07-.22-.37S146.12,120,146.32,119.58ZM140,126c-.69.77-3.44,3.33-4.28,4a1.34,1.34,0,0,1-1.61.15,73.83,73.83,0,0,0-9.32-4.46c-.62-.22-.6-.59-.31-.87.56-.54,1.69-1.51,2.19-1.92a.87.87,0,0,1,1-.21c1.25.47,6.94,2.9,8.86,3.9a1.51,1.51,0,0,0,1.39.09,13.42,13.42,0,0,0,1.57-.91C140.22,125.38,140.31,125.71,140,126Zm12.57,100.7a3,3,0,0,1-3.71,1.59c-2.09-.8-1.18-2.35-3.06-2.57.42,1-.46,1.88-.94,2.49-.69.88-.21,2.18,1.23,3a3,3,0,0,1-3.22-2.42c-.35-2.21,1.44-2.19.69-3.93-.66.87-1.86.54-2.63.43-1.1-.16-2,.91-1.95,2.54a3,3,0,0,1,.48-4c1.73-1.41,2.62.15,3.75-1.37-1.08-.14-1.4-1.33-1.69-2.06-.42-1-1.78-1.27-3.17-.42a3,3,0,0,1,3.7-1.58c2.09.8,1.18,2.35,3.06,2.56-.42-1,.46-1.88.94-2.49.69-.88.21-2.18-1.23-3a3,3,0,0,1,3.23,2.42c.35,2.21-1.45,2.19-.7,3.93.66-.87,1.86-.54,2.63-.44,1.1.16,2-.91,1.95-2.54a3,3,0,0,1-.48,4c-1.73,1.41-2.62-.15-3.75,1.37,1.08.14,1.4,1.34,1.69,2.06C149.84,227.34,151.21,227.58,152.6,226.73Zm-12.84,15.88a3,3,0,0,1-3.71,1.59c-2.09-.8-1.18-2.35-3.06-2.57.41,1-.46,1.88-.94,2.49-.69.88-.21,2.18,1.23,3a3,3,0,0,1-3.22-2.42c-.35-2.21,1.44-2.19.69-3.93-.67.87-1.86.54-2.63.44-1.1-.16-2,.91-1.95,2.54a3,3,0,0,1,.48-4c1.73-1.41,2.62.16,3.75-1.37-1.08-.14-1.4-1.34-1.69-2.06-.42-1-1.79-1.27-3.18-.41a3,3,0,0,1,3.71-1.59c2.09.8,1.18,2.35,3.06,2.57-.41-1,.46-1.88.94-2.49.69-.88.21-2.18-1.23-3a3,3,0,0,1,3.23,2.42c.35,2.21-1.45,2.19-.7,3.93.66-.86,1.86-.54,2.63-.43,1.1.16,2-.91,1.95-2.54a3,3,0,0,1-.48,4c-1.73,1.41-2.62-.16-3.75,1.36,1.08.14,1.4,1.34,1.69,2.06C137,243.22,138.37,243.46,139.76,242.61ZM123,228.31c-2.09-.8-1.17-2.35-3.06-2.57.42,1-.46,1.88-.94,2.49-.69.88-.21,2.18,1.23,3a3,3,0,0,1-3.23-2.42c-.35-2.21,1.44-2.19.7-3.93-.67.87-1.86.54-2.63.43-1.1-.16-2,.91-1.95,2.54a3,3,0,0,1,.48-4c1.73-1.41,2.62.15,3.75-1.37-1.08-.14-1.4-1.33-1.69-2.06-.42-1-1.78-1.27-3.17-.42a3,3,0,0,1,3.7-1.58c2.09.8,1.18,2.35,3.06,2.56-.42-1,.46-1.88.94-2.49.69-.88.21-2.18-1.23-3a3,3,0,0,1,3.22,2.42c.35,2.21-1.44,2.19-.69,3.93.67-.87,1.86-.54,2.63-.44,1.1.16,2-.91,1.95-2.54a3,3,0,0,1-.48,4c-1.73,1.41-2.62-.15-3.75,1.37,1.08.14,1.4,1.34,1.69,2.06.42,1,1.78,1.27,3.17.42A3,3,0,0,1,123,228.31Zm33.48-94.5a9.29,9.29,0,0,0,1.67-7.21,9.13,9.13,0,0,0,1.74.08,14.24,14.24,0,0,1-.35,5.23c-.21.69.15.67.39.06a14.1,14.1,0,0,0,.79-5.37,7.68,7.68,0,0,0,.87-.18c.2,1.46.1,5.47-1.45,7.38ZM43.21,233.57c0-1.19.09-3,.22-4.84a23.15,23.15,0,0,0,7.6-4.12A18.62,18.62,0,0,1,43.21,233.57ZM67.36,210c-.5-1-2.28-5-.33-7.48,2.09-2.66,2.24-4.6,2-5.48.51-.47,1-1,1.52-1.47.67,2.44,2.34,13.77-1.5,18.63-.63-.31-4.87-4.2-8.28-10.59l1-.73A55.3,55.3,0,0,0,67,210.72C67.47,211.28,67.86,211,67.36,210ZM50.64,242.2a3.91,3.91,0,0,1,1.44.79c.27-.53,2.43-3.78,5.58-2.92.45.12.47,0,.27-.21-1.62-1.89-6,.17-10.73-1-.54-.13-.67-.5-.1-.46a41.17,41.17,0,0,0,6.37-.12c0-.13-.27-.6-1.38-.87-.63-.15-5.49,0-6.74-.1-.54,0-2.65-.16-3-2.29-.18-1.09.36-10,.53-12.71-.86.54-1.59,1-2.15,1.24a81.48,81.48,0,0,1,.48,12.81,1.12,1.12,0,0,1-.7,1c-.42.25-3.15-.35-4.25,1.09-.34.45-.2.47.2.23s3-2,6.81,3.12c.31.42.46.54.84.5A11.33,11.33,0,0,1,52,245c.48.37.91.62.4-.3a9,9,0,0,0-2-2.1C50.08,242.28,50.25,242.12,50.64,242.2Zm-5.94-1a6.71,6.71,0,0,0-3.45-2.75c-.4-.13-.28-.42.11-.42a3.93,3.93,0,0,1,3.93,3.09C45.36,241.5,44.92,241.64,44.71,241.22Zm2.24-.9c-.64-.23-.59-.87.19-.72a17.19,17.19,0,0,0,5.8.37c.53-.06.64.29.1.46A13.47,13.47,0,0,1,46.95,240.33ZM57.42,125.85a4.45,4.45,0,0,1,1-2c.64-.59,2.06-1.31,3-2,1-.82,1.82-2.05,3.27-3.06.82-.57,9.14-4.43,21.2-6.38.87-.14.61-.34.2-.32-10.81.45-28.41.69-31.49.73A11.73,11.73,0,0,0,55,114a7.23,7.23,0,0,1,.45,5.33C55,121,55,122.64,57.42,125.85Zm-.35-8.6c.18-.61.41-.66.41.24s-.08,2.09,0,2.77.33.62.89.44c1.62-.52,3.07-3.09,4.17-3.45s1.58-.3,2.64-.66c2.8-1,6.17-2,8.41-2.57,1.07-.26,1.28.25.26.61a75.56,75.56,0,0,0-9.57,3.51c-1.57.76-2.26,2.18-3.24,3a8.28,8.28,0,0,1-3,1.66C56.67,123.22,55.85,121.5,57.07,117.25Zm83.49,14.18c-.19-.62-.47-1.63-.65-2.47.52-.55,1-1.09,1.42-1.57a13,13,0,0,0,2.36,6.43h-3.12a16.09,16.09,0,0,1-1.86-3.6l.71-.73a10.31,10.31,0,0,0,.79,2C140.45,131.88,140.68,131.81,140.56,131.42Zm14,14.33c-.41-1,.46-1.88.94-2.49.69-.88.21-2.18-1.23-3a3,3,0,0,1,3.23,2.41c.35,2.21-1.45,2.19-.7,3.93.67-.87,1.86-.54,2.63-.44,1.1.16,2-.91,1.95-2.54a3,3,0,0,1-.48,4c-1.73,1.41-2.62-.15-3.75,1.36,1.08.14,1.4,1.34,1.69,2.06.42,1,1.78,1.27,3.18.42a3,3,0,0,1-3.71,1.59c-2.09-.8-1.17-2.35-3.06-2.57.42,1-.46,1.88-.94,2.49-.69.88-.21,2.18,1.23,3a3,3,0,0,1-3.22-2.42c-.36-2.21,1.44-2.19.69-3.93-.67.87-1.86.54-2.63.44-1.1-.16-2,.91-1.95,2.54a3,3,0,0,1,.48-4c1.73-1.41,2.62.15,3.75-1.37-1.08-.14-1.4-1.33-1.69-2.06-.42-1-1.78-1.27-3.18-.41a3,3,0,0,1,3.71-1.59C153.56,144,152.65,145.54,154.53,145.76Zm33.26,38.92c-.2-2.26-.73-3.14-1.63-4,.08-.21.15-.42.23-.65l.18.14c2.9,2.17,1.44,7.07,1.22,7.64s-.35.32-.54.08a30.5,30.5,0,0,0-2.65-4.28,7.54,7.54,0,0,0,1.08-1.76s0,.06,0,.09a6.94,6.94,0,0,1,1.56,3.12C187.36,185.43,187.85,185.4,187.79,184.67Zm-3.6-.67c.29.95,1.46,2.37,1.37,3.58,0,.58-.29.59-.49.21a21.49,21.49,0,0,0-1.77-3.37A1.73,1.73,0,0,0,184.19,184Zm22.16,7.27c.74-.07,2.12-.21,2.87-.33.05-.3.11-.61.17-.91.15-.67.38-1.47.65-2.32-1.05-.69-4.45-3.59-3.49-9.57.28-.14,2.09-.82,3.18-1.29-.58-.52-1.21-1.06-1.87-1.62-5.86,3-9.89,6.1-11.73,8.38-1.26,1.57-1,4.72-.11,6.61a36.9,36.9,0,0,0,4.46,5.74c.87.94,2,4.29-.2,5.34s-11.94,4.15-13.57,4.7a8.93,8.93,0,0,0-4.2,2.76c-.45.67-1.76,2.23-.64,3.1.59.46,3.19.3,3.93.09,2.33-.68.8-1.43,2.22-2.33.83-.53,1.15,0,1.43.49s.52.62,1.11.38a8.07,8.07,0,0,0,2-1.66c.67-.71,7.46-3.16,10-3.8,1.61-.4,3.77-.35,4.49-.67a2.77,2.77,0,0,0,1.59-2.76c0-.79-1.08-1.93-1.46-2.39a7.28,7.28,0,0,1-1.74-7.1C205.67,191.47,206,191.31,206.35,191.27ZM186.74,210a4.48,4.48,0,0,1-3,1.34c-.6,0-.53-.43-.22-.47a5,5,0,0,0,2.49-1.58C186.43,208.62,187.39,209.2,186.74,210Zm20.43-9.12a1.88,1.88,0,0,1-1.68,2.78c-6.08.73-11.84,4.26-15.43,5.15-.49.12-.64-.17,0-.43,4-1.56,9.09-4.43,14.34-5.63,1.72-.39,1.78-1.3,1.08-2.27-.51-.73-2.35-2.79-1.58-7.15.09-.49.45-.66.41.22C204.1,197.93,206.28,199.39,207.18,200.85Zm-74.85-55.09c-.42-1,.46-1.88.94-2.49.69-.88.21-2.18-1.23-3a3,3,0,0,1,3.23,2.41c.35,2.21-1.45,2.19-.7,3.93.66-.87,1.86-.54,2.63-.44,1.1.16,2-.91,1.95-2.54a3,3,0,0,1-.48,4c-1.73,1.41-2.62-.15-3.75,1.36,1.08.14,1.4,1.34,1.69,2.06.42,1,1.78,1.27,3.17.42a3,3,0,0,1-3.71,1.59c-2.09-.8-1.18-2.35-3.06-2.57.42,1-.46,1.88-.94,2.49-.69.88-.21,2.18,1.23,3a3,3,0,0,1-3.22-2.42c-.35-2.21,1.44-2.19.69-3.93-.66.87-1.86.54-2.63.44-1.1-.16-2,.91-1.95,2.54a3,3,0,0,1,.48-4c1.73-1.41,2.62.15,3.75-1.37-1.08-.14-1.4-1.33-1.69-2.06-.42-1-1.78-1.27-3.17-.41a3,3,0,0,1,3.71-1.59C131.36,144,130.45,145.54,132.33,145.76ZM84.94,199.54c1.16-1.39.78-2.93.16-4.58-.3-.81-3.16-6.2-3.24-7.59a4,4,0,0,1,.29-2c.17-.28.33-.18.33.36a12,12,0,0,0,1.26,4.74c.29.56.51.48.32-.18a12.07,12.07,0,0,1-.39-2c0-.81.13-.55.53-.34a5.85,5.85,0,0,0,1.24.54c.29.08.22.32.17.57a15.63,15.63,0,0,0-.48,3c.06.67.21.71.39,0A13.26,13.26,0,0,1,86.62,189c.41-.62.7-.51.51.25a20.77,20.77,0,0,0,.56,11.85,3.56,3.56,0,0,0,1.68,2.1c.6.31-.42.46-1.21.29a3.07,3.07,0,0,1-1.86-1.16c-.23-.3-.74-.51-1.38,0-1.12.91-10.29,7.5-11.32,8.26-.48.35-.78,1.47-1.51,2A2,2,0,0,1,71,213a18.16,18.16,0,0,0,1.12-3.91C75.13,207.81,83.73,201,84.94,199.54Zm15.66-12.61a2,2,0,0,1-.05-.43v-.93l-2.44-2.26a.45.45,0,0,1-.11-.45.35.35,0,0,1,.32-.27h2.39a1.65,1.65,0,0,1,3.11,0h2.39a.35.35,0,0,1,.32.27.45.45,0,0,1-.11.45L104,185.57v.93a2,2,0,0,1-.05.43,9.86,9.86,0,0,0,3.25,2.52,1.78,1.78,0,0,1,1,1.65,2,2,0,0,1-1,1.8,1.12,1.12,0,0,1-.53.13,2.19,2.19,0,0,1-1.65,1.61,1.33,1.33,0,0,1-1-.24,2.1,2.1,0,0,1-3.49,0,1.33,1.33,0,0,1-1,.24A2.19,2.19,0,0,1,97.82,193a1.11,1.11,0,0,1-.53-.12,2,2,0,0,1-1-1.8,1.78,1.78,0,0,1,1-1.65A9.83,9.83,0,0,0,100.6,186.93Zm91.35-43.78h0v0ZM131,187a1.85,1.85,0,0,1-.05-.43v-.93l-2.44-2.26a.45.45,0,0,1-.11-.45.35.35,0,0,1,.32-.27h2.39a1.65,1.65,0,0,1,3.11,0h2.39a.35.35,0,0,1,.32.27.46.46,0,0,1-.11.45l-2.44,2.26v.93a2,2,0,0,1-.05.43,9.87,9.87,0,0,0,3.25,2.53,1.78,1.78,0,0,1,1,1.65,2,2,0,0,1-1,1.81,1.12,1.12,0,0,1-.53.12,2.19,2.19,0,0,1-1.65,1.61,1.34,1.34,0,0,1-1-.24,2.1,2.1,0,0,1-3.49,0,1.34,1.34,0,0,1-1,.24,2.19,2.19,0,0,1-1.65-1.61,1.1,1.1,0,0,1-.53-.12,2,2,0,0,1-1-1.81,1.78,1.78,0,0,1,1-1.65A9.9,9.9,0,0,0,131,187Zm30.46-.07a2,2,0,0,1-.05-.43v-.93L159,183.27a.46.46,0,0,1-.11-.45.35.35,0,0,1,.32-.27h2.39a1.65,1.65,0,0,1,3.11,0h2.38a.34.34,0,0,1,.32.27.45.45,0,0,1-.11.45l-2.44,2.26v.93a2.09,2.09,0,0,1-.05.43,9.84,9.84,0,0,0,3.25,2.52,1.78,1.78,0,0,1,1,1.65,2,2,0,0,1-1,1.81,1.09,1.09,0,0,1-.53.12,2.2,2.2,0,0,1-1.65,1.61,1.35,1.35,0,0,1-1-.24,2.1,2.1,0,0,1-3.49,0,1.35,1.35,0,0,1-1,.24A2.2,2.2,0,0,1,158.7,193a1.09,1.09,0,0,1-.53-.12,2,2,0,0,1-1-1.81,1.78,1.78,0,0,1,1-1.65A9.85,9.85,0,0,0,161.47,186.89ZM113.57,149c1.08.14,1.4,1.34,1.69,2.06.42,1,1.78,1.27,3.18.42a3,3,0,0,1-3.71,1.59c-2.09-.8-1.18-2.35-3.06-2.57.42,1-.46,1.88-.94,2.49-.69.88-.21,2.18,1.23,3a3,3,0,0,1-3.22-2.42c-.35-2.21,1.44-2.19.69-3.93-.66.87-1.85.54-2.63.44-1.1-.16-2,.91-1.95,2.54a3,3,0,0,1,.48-4c1.73-1.41,2.62.15,3.75-1.37-1.08-.14-1.4-1.33-1.69-2.06-.42-1-1.78-1.27-3.17-.41a3,3,0,0,1,3.71-1.59c2.09.8,1.18,2.35,3.06,2.56-.42-1,.46-1.88.94-2.49.69-.88.21-2.18-1.23-3a3,3,0,0,1,3.23,2.41c.35,2.21-1.45,2.19-.7,3.93.66-.87,1.86-.54,2.63-.44,1.1.16,2-.91,1.95-2.54a3,3,0,0,1-.48,4C115.59,149.09,114.7,147.53,113.57,149ZM199.95,133c-5.39,1.69-7.84,7-7.94,8.58,0,.42.27.1.6-.34a8.8,8.8,0,0,1,4.23-2.95c.37-.11.66.18.21.39-5.5,2.59-5.09,9.29-4.45,11.41.13.45.25.29.52-.05a6.8,6.8,0,0,0,1.65-2.94c.87-2.6,2.39-7.19,7.63-8.25,1-.21,1.26.25.31.49-6.09,1.53-7.76,9.78-7.68,14.09a1.26,1.26,0,0,1-.94,1.19c-3.5.56-6.11,3.12-9.36,4a2.75,2.75,0,0,0-1.41.72,18.05,18.05,0,0,0-1.62,2.36,7.73,7.73,0,0,0-.57,2.88,64.07,64.07,0,0,1-.31,14.84,3.63,3.63,0,0,0,.89,3.11c.22.21.44.44.64.67l0,0c1,1.26,3.28-1.66,3.44-4.4-.12-.71-.77-1.36-.81-1.85,0-.25.2-.7,1.34-.83.22,0,.21-.38.15-.73a1.92,1.92,0,0,0-.61-.82,3.72,3.72,0,0,1-.87-1.79,25.62,25.62,0,0,1-.77-5.4c0-.31.19-.65.68-.94,2.23-1.33,2.57-2.17,2.39-3.15,2.31.18,7.15-1.4,9.23-1.19,1.5.15,5.26,1.6,6.18,1.7s2.73-.13,3.35-.85c2.2-2.56,2.52-7.81,2.43-8.74s.54-1.2.7-.09a18.6,18.6,0,0,1-1.39,8.18c0,3.83,4.62,8.11,5.82,11.63.06.16.11.32.15.46.82,2.8-2.07,11.24-3.08,15-.74,2.79-.7,5.79.12,7.33,2.95,5.54,9.8,10.3,11,11.25a8.38,8.38,0,0,1,3.15,4.54c.41,2.19,1.15,10.39,1.19,11.93a14.19,14.19,0,0,1-.51,4.43,37.81,37.81,0,0,1-1.89,4.27,3.25,3.25,0,0,0-.05,1.75,7.68,7.68,0,0,0,4.69-1.29h0a1.16,1.16,0,0,1,.15-.15,2.07,2.07,0,0,0,.82-1.83c0-1.13-.05-1.41.18-1.43,1-.08,1.68-.19,1.49-1.15-.8-4.12-1.4-11.82.87-17.08.91-2.09.34-3.18,0-3.64s-1.33-.23-2.87-.37c-1.1-.11-4.12-.93-2.74-7.37.58-2.73,5.46-5.26,2.87-12.69-.22-.65.12-.8.44-.3a5.05,5.05,0,0,0,4.26,2.68,4,4,0,0,1-1.86-2c-.21-.47,0-.68.32-.33a4.76,4.76,0,0,0,2.52,2,2.36,2.36,0,0,0,2.41-1.07,4.4,4.4,0,0,1-3.39-2c-.24-.39.11-.47.29-.28.53.57,2.33,1.79,3.23,1.6s1-1,1.17-1.71c.06-.36,0-.45-.36-.45-3.67,0-6.37-3.48-7.74-7.65-3.83-11.64-9-17.18-10.73-22.73a3,3,0,0,1,.09-2.58,23.42,23.42,0,0,0,2.75-9.2,2.55,2.55,0,0,1,.84-2c10.57-8.36,14.34-25.86,8.12-36.59a2.75,2.75,0,0,1-2.13-.09c-.41-.25-.63-.7.4-.59a3.83,3.83,0,0,0,2.82-.73c.36-.4.25-.56-.12-.6a1.57,1.57,0,0,1-1-.38c-.17-.19-.13-.42.23-.37A3.31,3.31,0,0,0,235,101.1c.37-.53.05-.62-.28-.5a2.67,2.67,0,0,1-1,.13c-.47-.07-.34-.37.27-.59s2.24-.92,2.58-1.85c.15-.4.06-.51-.31-.34-1.43.66-1.46,0-1-.28,1.15-.73,1.92-1.22,2.31-2.3.13-.36-.1-.53-.49-.29-2.69,1.69-8.92,2.5-11.53,7.51-.22.43-.64.3-.43-.23h0c-3.67-.24-5.82,2.34-11.13,1.83-.31,0-.62,0-.26.48a6.29,6.29,0,0,0,1.49,1.27c.17.1.19.35-.24.43-4.06.73-6.34,2.89-9.83,3.73-.47.12-.72.2-.63.69.15.83.54,1.27,1,1.26,1.9-.05.23.54.23.54a3,3,0,0,0,2.67,1.63c1-.05,2.23-.68,3.77-.84.43,0,.57.29.05.41-1.1.26-2.28.78-3.25,1,.88,1,2.28,1,4.22.69,3.3-.6,4.77.14,5.81.79,3.23,2,4.76,2.35,6,1.93a3.79,3.79,0,0,1-1.07-1c-.22-.35,0-.57.36-.32,1.69,1.36,3.25.46,3.41-.28a2.38,2.38,0,0,1-1-.27c-.26-.17-.17-.42.14-.4.11,0,2.3.15,2.11-1.41a2.18,2.18,0,0,1-.85-.13c-.25-.12-.28-.36.14-.39s1.35-.25,1.46-1.07c.09-.33.34-.19.39,0a1.34,1.34,0,0,1-.54,1.47,1.77,1.77,0,0,1-1.08,2.23,2,2,0,0,1-2.28,1.82c-.85,1-3.21,1.68-6.6-.55-1.87,2.2-4.79,1.49-6,1.18-.19-.05-.29.05-.14.35a4.09,4.09,0,0,0,4,1.89c.73,0,.71.35,0,.48a4.83,4.83,0,0,1-3.71-.89,9.73,9.73,0,0,0-5.73,2.48,5.94,5.94,0,0,1,3.18.39c.22.2.11.44-.33.38a8.56,8.56,0,0,0-9,3.82,7.5,7.5,0,0,1,3.43-.18c.44.1.45.48-.24.47a9.43,9.43,0,0,0-8.6,4.9,16.9,16.9,0,0,1,3.42-.67C200.39,132.52,200.41,132.81,199.95,133Zm-3.78,8.29a13.28,13.28,0,0,0-2.3,5.12c-.2.76-.57,1.07-.61.1a7.42,7.42,0,0,1,2.61-5.48C196.26,140.63,196.63,140.61,196.17,141.25ZM217,109c-.2-.44.25-.63.46-.28a3.2,3.2,0,0,0,5.86-1.7.29.29,0,1,1,.58,0A3.65,3.65,0,0,1,217,109Zm6.91-3.05a7.73,7.73,0,0,0-1.53.22,2.47,2.47,0,1,1-4.73,1.4,2.32,2.32,0,0,1-1.1-.12c-.4-.16-.29-.54.16-.5,2.6.19,4.79-1.88,7.24-1.48C224.49,105.53,224.47,105.9,223.94,105.92Zm4-2.4c-.58.09-.83-.13-.77-.62.46-3.25,5.58-5.49,7.25-6,.57-.17.75.23,0,.52-4.89,2-5.54,3.72-5.68,4.53,0,.28.14.34.46.23a7.55,7.55,0,0,0,2.32-1.53c.45-.42.65-.09.4.23A8.78,8.78,0,0,1,228,103.52Zm-20.9,52.73c-.55,8.2-5,6.19-5.74,6-4.24-1-4.83-1.32-8.62-.48a21.38,21.38,0,0,1-6.17.58,3.14,3.14,0,0,1-2,3.5c-.54.37-.92.54-.91,1.21a23.24,23.24,0,0,0,1.33,7.45c.24.43.57.92-.06,1.39-1.38,1-.1,1.91.17,2.66.11.31.16.5-.08,1.31a5.91,5.91,0,0,1-.89,1.78c-.29.42-1,.2-.56-.51a5.53,5.53,0,0,0,.76-1.62,1.06,1.06,0,0,0-.09-.91c-.23-.51-1.58-1.77-.27-3.12a.82.82,0,0,0,.25-1.06,26.22,26.22,0,0,1-1.34-7.85,1.54,1.54,0,0,1,.82-1.41c1.9-.93,2.15-2,2.12-3.84,0-.3.22-.53.43,0,.07.19.13.37.19.54,5.91-.19,7-2.54,14.12-1,.88.19,4.68.49,5.93-4.62C206.67,155.31,207.12,155.35,207.06,156.25Zm22.44,52.8c1.77.28,1.4,1.72,1.07,3-1.39,5.53-1,12.62-.61,16.39.15,1.32-1,1-1.3,1.31s-.12,1.34-.11,2.15c0,.65-.73,1.17-1.88,1.59-.66.24-.9-.1-.07-.57s1.22-.89,1.16-1.47c-.07-.76-.3-2.14.12-2.54s1.38,0,1.2-1.35c-.73-5.12-.06-14.91,0-15.73.12-1.3-.19-1.61-1.09-1.92a4.33,4.33,0,0,1-3-3.87c0-.47.31-.65.49-.12A4.14,4.14,0,0,0,229.5,209.05Zm-8.25-12.63c3.52.11,5.3-3.06,5.46-5.66.21-3.61-1.27-7.31-1.1-10.08.09-1.41.38-.91.46-.05.42,4.49,2,6.43,2,10.59,0,4.79-3,8.22-7.16,8-3.9-.23-8.08-4.57-5.12-11.63.41-1,.61-.36.45.18C214.56,193.5,218.29,196.32,221.25,196.42Zm9-89.43c-.24-.52.2-.8.54-.13,7.5,14.83-2.74,29.53-7.95,33.89a3.61,3.61,0,0,0-1.25,2.71,22.25,22.25,0,0,1-2.37,8.55c-.59,1-.91.82-.64-.1.79-2.75,1.12-3.47,1.51-9.06a4.85,4.85,0,0,1,2.22-3.94C228.62,133.86,235.69,119.07,230.28,107Zm-14.91,13.37c-.22-.13-.24-.38.17-.3a6.32,6.32,0,0,0,4.31-.77c.63-.36,1,.12.44.51A5.12,5.12,0,0,1,215.37,120.36Zm-4.7,2.76c-.6-.06-.75-.4,0-.62a10.28,10.28,0,0,1,4.14-.28c.5.1.53.37-.07.37a17.11,17.11,0,0,0-1.72,0c-.31,0-.26.18-.07.24a6.45,6.45,0,0,1,2.46,1.13c.32.29.18.49-.38.23A14,14,0,0,0,210.67,123.12Zm13-2.6c.11-.3.41-.24.35.21-1,7.09-17.14,11.42-15.34,19.87.2.93-.18,1.07-.56.19C204.07,131.56,221,127.9,223.68,120.52Zm-18.8,6.56c-.66,0-.9-.34-.18-.76a10.05,10.05,0,0,1,4.41-1.12c.57,0,.66.25,0,.38a19,19,0,0,0-2,.43c-.33.12-.24.28,0,.31a7.47,7.47,0,0,1,3.12.87c.42.3.3.52-.36.31A14.06,14.06,0,0,0,204.88,127.09Zm2.39,21.84c-.36.62-.6.51-.42-.32.54-2.53-.47-4.68-2.83-4.65-4.5.07-6.57,5.39-5.84,10.28.13.87-.21,1-.55,0-1.53-4.43.73-12.7,6.47-12.62C208.16,141.68,208.74,146.43,207.27,148.92ZM199.52,132c-.71.12-1-.27-.28-.81a11.05,11.05,0,0,1,4.71-1.7c.62,0,.75.21,0,.42a20.45,20.45,0,0,0-2.19.7c-.35.16-.24.29,0,.3a8.31,8.31,0,0,1,3.51.67c.48.28.39.54-.36.38A15.37,15.37,0,0,0,199.52,132Zm1.69,3.91c.55,0,.68.34-.1.49a20.35,20.35,0,0,0-5.71,1.74c-.71.33-1.09,0-.47-.78a10,10,0,0,1,4.52-2.89c.64-.19.91,0,.22.39a19.4,19.4,0,0,0-2.22,1.25c-.33.25-.19.37.07.3A10.09,10.09,0,0,1,201.21,135.89Zm-50-120.38a1.2,1.2,0,0,1-.19-1.07l2.16-.35a.54.54,0,1,1,.16,1.07Zm70.4,90.84a1.75,1.75,0,0,1-1.17,2.52,1.88,1.88,0,0,1-2.19-1.43,11.32,11.32,0,0,0,1.17-.34,3,3,0,0,1-.1.85c-.07.32.18.64.7.51a1.75,1.75,0,0,0,1.15-2Zm4-5a7.64,7.64,0,0,0-1.23,0c.7-1.21,1.89-2.5,2.47-3.58.14-.26.28-.17.33,0a5.63,5.63,0,0,1,.12,1.42A8.15,8.15,0,0,0,225.6,101.39ZM135.26,23.57a1.07,1.07,0,0,1,1.13-.79c.64.16.36.78.94.74-.13-.34.14-.7.29-1a.69.69,0,0,0-.37-1,.77.77,0,0,1,1,.68c.11.77-.44.87-.21,1.46.21-.35.57-.31.8-.31s.61-.45.6-1a1.28,1.28,0,0,1-.15,1.47c-.53.61-.8.1-1.15.71.33,0,.43.4.52.64s.54.35,1,0a1.07,1.07,0,0,1-1.13.79c-.64-.16-.36-.77-.94-.74.13.34-.14.7-.29,1a.69.69,0,0,0,.38,1,.77.77,0,0,1-1-.68c-.11-.77.44-.87.21-1.46-.21.35-.57.3-.81.31s-.61.44-.6,1a1.29,1.29,0,0,1,.15-1.47c.53-.61.8-.1,1.15-.71-.33,0-.43-.4-.52-.64S135.69,23.18,135.26,23.57Zm-17.6-2.4-2.17.37c-.94.16-1.07-1-.21-1.11l2.25-.39A1.31,1.31,0,0,0,117.66,21.17Zm2,.41,3.12-.54C121.93,22,120.27,22.42,119.63,21.58Zm6.84,3.27a1,1,0,0,1,1.07-.75c.61.15.34.73.89.7-.12-.32.13-.67.27-.9a.65.65,0,0,0-.36-.94.73.73,0,0,1,.94.64c.1.73-.42.83-.21,1.38.2-.33.54-.29.77-.3s.58-.42.56-1a1.22,1.22,0,0,1-.14,1.39c-.5.58-.76.09-1.09.68.31,0,.41.38.49.61s.52.33.92,0a1,1,0,0,1-1.08.75c-.61-.16-.34-.74-.89-.71.12.32-.13.67-.27.91a.65.65,0,0,0,.36.94.73.73,0,0,1-.94-.64c-.1-.73.42-.83.2-1.38-.19.33-.54.29-.76.3s-.58.42-.57,1a1.22,1.22,0,0,1,.14-1.4c.5-.58.76-.09,1.09-.68-.31,0-.41-.38-.49-.61S126.88,24.48,126.47,24.85Zm.9,10.64a.73.73,0,0,1,0-.27.46.46,0,0,1,0-.19.33.33,0,0,1,.16-.31,1.4,1.4,0,0,0,.62-.64s0,0,0,0v-.42l-.6-.94h.63c.05-.23.18-.39.32-.39s.27.16.32.39h.63l-.6.94V34s0,0,0,0a1.4,1.4,0,0,0,.62.64.33.33,0,0,1,.15.31.46.46,0,0,1,0,.19.82.82,0,0,1,0,.27.67.67,0,0,1-.18.51.16.16,0,0,1-.1,0,.55.55,0,0,1-.32.46.22.22,0,0,1-.24-.12.31.31,0,0,1-.59,0,.22.22,0,0,1-.24.13.54.54,0,0,1-.31-.46.16.16,0,0,1-.11,0A.67.67,0,0,1,127.37,35.49ZM122,37.71a.52.52,0,0,1-.32.44.22.22,0,0,1-.24-.12.31.31,0,0,1-.6,0,.22.22,0,0,1-.24.12.52.52,0,0,1-.32-.44.16.16,0,0,1-.11,0,.63.63,0,0,1-.19-.48.67.67,0,0,1,.05-.26.37.37,0,0,1,0-.18.31.31,0,0,1,.16-.3,1.37,1.37,0,0,0,.63-.61s0,0,0,0v-.39l-.61-.9h.63c.05-.22.18-.37.33-.37s.28.15.33.37h.64l-.61.9v.39s0,0,0,0a1.36,1.36,0,0,0,.63.61.31.31,0,0,1,.15.3.37.37,0,0,1,0,.18.6.6,0,0,1,.05.26.62.62,0,0,1-.19.48A.15.15,0,0,1,122,37.71Zm-3.23-11.43a1,1,0,0,1,1-.71c.58.15.33.7.84.67-.11-.31.13-.63.26-.86a.62.62,0,0,0-.34-.89.69.69,0,0,1,.89.61c.1.7-.4.79-.19,1.32.19-.32.51-.28.73-.28s.55-.4.54-.93a1.16,1.16,0,0,1-.13,1.33c-.48.55-.72.09-1,.64.3,0,.39.36.47.58s.49.32.88,0a1,1,0,0,1-1,.71c-.58-.15-.32-.7-.84-.67.11.3-.13.63-.26.86a.62.62,0,0,0,.34.89.69.69,0,0,1-.89-.61c-.1-.7.4-.79.19-1.31-.18.31-.51.28-.73.28s-.55.4-.54.93a1.15,1.15,0,0,1,.13-1.32c.48-.55.72-.09,1-.65-.3,0-.39-.36-.47-.58S119.13,25.93,118.75,26.28Zm16.75,8.49a.76.76,0,0,1,.05-.29.46.46,0,0,1,0-.2.35.35,0,0,1,.17-.33,1.49,1.49,0,0,0,.67-.67.34.34,0,0,1,0,0v-.44l-.65-1h.68c.05-.24.19-.41.35-.41s.29.17.35.41h.68l-.65,1v.44a.37.37,0,0,1,0,0,1.48,1.48,0,0,0,.67.67.34.34,0,0,1,.17.33.46.46,0,0,1,0,.2.76.76,0,0,1,.05.29.69.69,0,0,1-.2.53.16.16,0,0,1-.11,0,.57.57,0,0,1-.34.48.24.24,0,0,1-.26-.13.33.33,0,0,1-.32.24.34.34,0,0,1-.32-.24.23.23,0,0,1-.25.13.58.58,0,0,1-.34-.48.17.17,0,0,1-.11,0A.69.69,0,0,1,135.49,34.78ZM118.43,21a1.24,1.24,0,0,1-.16-1.12l5.24-.89a1.29,1.29,0,0,0,.17,1.12Zm11.29-7.62c-.37-1.15-1-3-1-3.23,0-.47,1.83-.84,4-.84s4,.37,4,.84c0,.23-.66,2.43-.9,3.26a4.77,4.77,0,0,0-.79-.18c.09-.46.4-2,.52-2.56s.06-.54-.26-.66a6.08,6.08,0,0,0-1.91-.17c-.25,0-.15.15,0,.19.81.19.75.36.76.49s-.25,1.91-.36,2.58c-.34,0-.7,0-1.08,0A11.48,11.48,0,0,0,129.72,13.42Zm2-7a30.86,30.86,0,0,0-4-1.29l.09-.33c.32.09.83.21,1,.24a3.22,3.22,0,0,1,.05-1.32.64.64,0,0,1,.65-.34c.49,0,.56-.27.13-.41A31,31,0,0,0,126,2.13c-.41-.05-.58,0-.59.16l-.17-.11c-.27-.24-.18-.5.31-.48a41.45,41.45,0,0,1,6.2,1.44Zm-6.17,14.13,3-.52A2.14,2.14,0,0,1,125.53,20.57Zm4.55-1.51-5.63,1a1.2,1.2,0,0,1-.2-1.11l5.71-1A1.31,1.31,0,0,0,130.08,19.06Zm-.74,29.2-1-.13.06-.39a9.55,9.55,0,0,1,1.09-.36Zm-1.12,8.06L127,56.2l.23-1.39,1.2.16Zm.28-2-1.19-.16.24-1.43,1.15.14ZM127,52l-1-.12.26-1.34,1,.12Zm.33-2-1-.12.22-1.13.2-.14.77.09Zm1.46,2.21-1.13-.14.22-1.35,1.1.13Zm-.59-3.43,1,.13-.18,1.3L128,50.08Zm-1.88,7.34L125.16,56l.27-1.38,1.12.15Zm.34-2-1.1-.14.28-1.41,1.06.13Zm6.11-8c4.16,0,9,1.62,14.2,4.7a21.68,21.68,0,0,1-4.68-10.17c-1.28-7.39,1.08-15.35,7-23.67l-.62.09a4.11,4.11,0,0,1-3.46,1.88,2.58,2.58,0,0,1-2-.79h-.06l-1,.11A4.25,4.25,0,0,1,139,19.86a2.77,2.77,0,0,1-2.05-.88l-1.22.16a3.64,3.64,0,0,1-3.06,1.72,2.68,2.68,0,0,1-1.9-.74l-1.29.23a3.38,3.38,0,0,1-2.75,1.53,2.71,2.71,0,0,1-2-.81l-.73.12-.31.05a3.9,3.9,0,0,1-3.07,1.67,2.13,2.13,0,0,1-1.71-.77l-.86.16c-7.27,11.72,0,25.54,4.28,31.9C123.27,49.07,127.07,46,132.76,46ZM118.57,23.18a3.26,3.26,0,0,0,2,.64,5,5,0,0,0,3.68-1.77l.17,0a3.84,3.84,0,0,0,2.31.75,4.34,4.34,0,0,0,3.33-1.63l.46-.08a3.77,3.77,0,0,0,2.2.67,4.79,4.79,0,0,0,3.7-1.82l.28,0a3.86,3.86,0,0,0,2.42.84A5.3,5.3,0,0,0,142.84,19l.18,0a3.64,3.64,0,0,0,2.28.84,5.18,5.18,0,0,0,1-.1,40.83,40.83,0,0,0-3.54,7.41,8.35,8.35,0,0,1-7.62.81,5.69,5.69,0,0,0-6.73,1.4,5,5,0,0,0-6.18.37c-1.95,1.48-4.24,2.93-6.3,2.54A20,20,0,0,1,118.57,23.18Zm-2.71,11.33a9,9,0,0,0,5.63-1.93c3.34-2.46,5.28-2.61,7-.92,1.7-2.27,3.64-2.78,7-1.45a9.31,9.31,0,0,0,6.36-.1A27.51,27.51,0,0,0,141,37a6.8,6.8,0,0,1-5.22-.39,5.76,5.76,0,0,0-6.9,1.23c-2.67-1.12-4.44-1.1-6.9,1.23a6.9,6.9,0,0,1-5,2.12A29.09,29.09,0,0,1,115.86,34.51Zm1.8,8.8a8.44,8.44,0,0,0,4.88-1.83c3.14-2.62,4.64-2.55,6.59-.86,1.67-2.23,3.45-2.76,6.78-1.22a8.12,8.12,0,0,0,5.26.21c.05.45.11.89.19,1.34a23.08,23.08,0,0,0,2.53,7.2,26.57,26.57,0,0,0-11.13-2.89c-5.31,0-9.23,2.49-10.89,6.79A46,46,0,0,1,117.66,43.31ZM125,2.53l-.17,1.36c.34,0,.67,0,.95,0s.29-.11.17-.29,0-.3.23-.13c.61.45.44.85.06.87-1.64.12-5.21-.31-6-.85-.34-.24-.11-.61.32-.74.27-.08.31.08.2.14s-.27.21-.08.3a7.87,7.87,0,0,0,1.94.46c.14-1,.28-2.28.29-2.5.08-1.37-2-1.39-3.73-.85a13.52,13.52,0,0,1-6.57.76c-.37,0-.42.06-.14.26a15.67,15.67,0,0,0,6.35,2.19c0-.06,0-.12,0-.17a1.32,1.32,0,0,1,1.27-1.18l.54-.1c.1-.43.15-1.14-1-1-.3,0-.47-.19,0-.37a4.07,4.07,0,0,1,1.64-.21h.11c1.47.11,1.45,1.75-1.22,2.18-.73.11-.76.61-.76,1s0,1.6.05,2.19a1,1,0,0,0,.48.81,13.6,13.6,0,0,0,5.34,1.07,1.31,1.31,0,0,0,1-.59c.14-.28.56-1.49.7-1.91s.36-.85.2-1.18C126.87,3.37,125.56,3,125,2.53Zm1.29,2.6a16.64,16.64,0,0,1-.58,1.75.75.75,0,0,1-.71.39,7.89,7.89,0,0,1-2-.24c-.17-.13-.15-.28.17-.3s.78,0,.9-.24.54-1.72.54-1.72a9.8,9.8,0,0,0,1.46,0C126.27,4.78,126.29,4.93,126.25,5.12ZM132.75,47l.16,9.54h-1.18l.2-9.5Zm-1-5.23a1,1,0,0,1,.81-.94c.6,0,.49.6,1,.44-.18-.27,0-.64,0-.9a.62.62,0,0,0-.55-.79.69.69,0,0,1,1,.38c.27.65-.19.86.13,1.32.1-.35.43-.39.64-.45s.44-.52.29-1a1.16,1.16,0,0,1,.19,1.32c-.33.65-.68.26-.85.88.29-.09.46.25.59.45s.55.19.84-.25a1,1,0,0,1-.82.94c-.59,0-.48-.6-1-.44.18.27,0,.65,0,.9a.62.62,0,0,0,.54.79.69.69,0,0,1-1-.37c-.27-.65.19-.86-.14-1.32-.1.35-.43.39-.63.45s-.43.53-.29,1a1.15,1.15,0,0,1-.19-1.32c.33-.65.68-.26.85-.88-.29.09-.46-.25-.6-.45S132,41.29,131.72,41.73Zm-7.71,4a1.16,1.16,0,0,1-.17-1.32c.34-.64.68-.25.87-.86-.29.08-.46-.26-.59-.46s-.55-.2-.84.23a1,1,0,0,1,.83-.92c.6,0,.47.61,1,.46-.18-.27,0-.65.06-.9a.62.62,0,0,0-.53-.79.69.69,0,0,1,1,.4c.25.66-.21.86.11,1.32.11-.35.44-.38.64-.44s.45-.52.32-1a1.15,1.15,0,0,1,.17,1.32c-.34.64-.68.25-.86.86.29-.08.46.26.58.46s.55.2.85-.23a1,1,0,0,1-.84.93c-.59,0-.47-.61-1-.46.18.27,0,.65-.06.89a.62.62,0,0,0,.53.8.69.69,0,0,1-1-.4c-.25-.66.21-.86-.11-1.32-.11.35-.44.38-.65.44S123.88,45.2,124,45.71Zm-9,11.1A22.62,22.62,0,0,1,110.89,52l.92.15c2,3.37,7.39,8.26,20.89,8.26s18.86-4.89,20.89-8.26l.93-.15a22.62,22.62,0,0,1-4.14,4.85c-.41.44-.18.64.34.22a24.12,24.12,0,0,0,4.54-5.19l.84-.14c-1.32,2.68-4.71,7.39-12.61,9.75a1.54,1.54,0,0,0-2.89.71c-.54.11-1.1.2-1.68.29a1.54,1.54,0,0,0-3,.32c-.57,0-1.16.07-1.77.09a1.54,1.54,0,0,0-3,0c-.58,0-1.14,0-1.69-.08a1.54,1.54,0,0,0-3-.31c-.61-.09-1.19-.19-1.76-.3a1.54,1.54,0,0,0-2.88-.71c-7.9-2.36-11.29-7.07-12.61-9.75l.84.14A24.07,24.07,0,0,0,114.7,57C115.21,57.45,115.44,57.24,115,56.81Zm-2.57,1.44a27.44,27.44,0,0,1-4.83-6.83l.85.14c1.61,3.41,5.26,8.26,13.24,10.66a1.54,1.54,0,0,0,2.9.72c.6.12,1.22.22,1.86.31a1.54,1.54,0,0,0,3,.31c.57,0,1.16.07,1.76.09a1.54,1.54,0,0,0,3,0c.63,0,1.24-.05,1.84-.1a1.54,1.54,0,0,0,3-.32c.61-.09,1.21-.19,1.78-.3a1.54,1.54,0,0,0,2.9-.72c8-2.4,11.64-7.25,13.24-10.66l.85-.14A27.44,27.44,0,0,1,153,58.25c-.44.54-.19.73.36.21a28.38,28.38,0,0,0,5.19-7.17l.71-.12c-2.2,5-7.5,14.89-26.51,14.89S108.4,56.19,106.2,51.17l.71.12a28.37,28.37,0,0,0,5.19,7.17C112.65,59,112.9,58.79,112.46,58.25Zm25.87-10.41,0,.18-1,.13-.08-.6Zm-.45,4.27-.19-1.35,1.1-.13L139,52Zm.29,2.1-.2-1.44,1.15-.14.24,1.43Zm19-17.31A3.92,3.92,0,0,0,154.4,36c-1-1.72.21-3.32,2.73-1Zm5.7,5.57-4.5.71c0-1.06,0-5,0-7.49ZM150.26,51c4.09-.64,8.73-1.44,13.6-2.23a.5.5,0,1,1,.15,1c-4,.64-10.41,1.78-13.56,2.27C149.59,52.14,149.48,51.12,150.26,51Zm2.17-13.85a6.22,6.22,0,0,0,1.12-1.79,2.82,2.82,0,0,0,.37.73c.92,1.33.76,1.89.38,2.1S153.08,38.12,152.43,37.15Zm-1.34,9c-.94.15-1.07-1-.21-1.11,4.5-.7,9.4-1.48,14.76-2.35a.55.55,0,1,1,.16,1.07C161.46,44.43,154.55,45.58,151.09,46.12Zm6-2.76-1.75.28,1.75-4.06ZM144.26,15.55l6.06-1a1.3,1.3,0,0,0,.16,1.08l-6,1A1.21,1.21,0,0,1,144.26,15.55Zm-13.21-1.28.4,0V15l-.4,0-8.53,3.63-2.59.45Zm2.87.69v-.65a10.93,10.93,0,0,0,1.35-.17l11.28.39-3.3.54-8-.28A10.84,10.84,0,0,1,133.93,15Zm2.77,3-5.86,1a1.23,1.23,0,0,1-.16-1.12l5.91-1A1.33,1.33,0,0,0,136.7,17.94Zm7-1.17-6.21,1a1.25,1.25,0,0,1-.14-1.11l6.2-1A1.31,1.31,0,0,0,143.68,16.77Zm-5.93,1.74,3.47-.58C140.31,18.86,138.79,19.39,137.76,18.51Zm-6.26,1.05,3.24-.54A2.47,2.47,0,0,1,131.5,19.56Zm8.82,30.21-1,.12-.21-1.3.94-.11ZM132.76,13.7l0,3.11-.81.14,0-3.14A2.14,2.14,0,0,1,132.76,13.7Zm7.94,38.06-1,.13-.22-1.35,1-.12ZM140,54l-.23-1.42,1.05-.13.28,1.41Zm-1.56,2.24-.19-1.35,1.2-.16.22,1.35Zm1.89-.26-.22-1.33,1.12-.14.25,1.27Zm3.55-38.46,3.77-.62C146.59,18.14,144.53,18.28,143.89,17.48ZM132.71,8.74l-.64,0,.17-8.43a2,2,0,0,1,.51,0l.05,8.45ZM154.62,38.6c.17-.08-1,1.17-1.63,1.13-2-.13-2.28-4.81-5.2-4.72C151.77,33.18,151.77,40.06,154.62,38.6ZM14.43,159.28a5.61,5.61,0,0,0,3.44-.57,50,50,0,0,0,8.77-5.64c0,.07.05.15.08.22a2.82,2.82,0,0,0,.35.61c-2.41,1.8-5.15,3.72-6.86,4.75-.74.45-.63.77.31.26a77.11,77.11,0,0,0,6.91-4.62,3,3,0,0,0,1.17.65,60.9,60.9,0,0,1-8.7,6.18C16.39,163,14.84,160.93,14.43,159.28Zm-2.1-3.79a.44.44,0,0,0,0-.06,5.13,5.13,0,0,0,3.65-.25,52,52,0,0,0,9.62-5.48,3.37,3.37,0,0,0,1,.35c-2.75,1.88-6.34,4.16-8.43,5.26-.76.4-.67.73.3.27a83.08,83.08,0,0,0,8.39-5.05,3.52,3.52,0,0,0-.38,1.55s0,.09,0,.13a57.15,57.15,0,0,1-8.77,5.54C14,159.49,12.58,157.18,12.33,155.49Zm9.94-26.12c-8-.41-17.81-2.16-21.77-6.82-.27-.32-.34-.45.38-.22.22.07,2.67.8,8.18,1.87a57.46,57.46,0,0,0,8.73,2.88,76,76,0,0,1-12.59-2.7c-.67-.21-.65.07,0,.3a66.28,66.28,0,0,0,17.69,3.49l.44.08A3.2,3.2,0,0,0,22.27,129.38Zm8,43.48c-2.84,2.44-4.76,1.11-5.6-.33a6,6,0,0,0,2.8-1.26,47.19,47.19,0,0,0,6.82-6.77h0a4.43,4.43,0,0,0-.06.6,3.72,3.72,0,0,0,.07.71c-1.57,1.79-3.17,3.51-4.28,4.58-.63.6-.45.89.36.18s2.49-2.42,4.09-4.18a3.38,3.38,0,0,0,.75,1.19A46,46,0,0,1,30.28,172.85ZM10.49,151.57a5,5,0,0,0,3.57,0,53.64,53.64,0,0,0,10.32-5,3.18,3.18,0,0,0-.1.79c0,.06,0,.13,0,.19-2.7,1.59-5.9,3.34-7.82,4.22-.79.36-.71.69.28.29a79.21,79.21,0,0,0,7.63-3.94,2.86,2.86,0,0,0,.13.4,2.58,2.58,0,0,0,.44.64,57.55,57.55,0,0,1-9.08,5C12.22,155.69,10.78,153.2,10.49,151.57Zm16.64,18.8c-3.17,2.41-5,.63-5.7-.94a5.67,5.67,0,0,0,3.23-1.09,45.15,45.15,0,0,0,6.8-5.86,3.09,3.09,0,0,0,.22.46,2.82,2.82,0,0,0,.23.31c-1.78,1.79-3.62,3.57-4.87,4.63-.66.56-.5.86.35.2,1.09-.85,3-2.58,4.88-4.46a3.31,3.31,0,0,0,1.14.68A51.1,51.1,0,0,1,27.13,170.37Zm-22-30.28a5.34,5.34,0,0,0,3,.52c4.17-.34,10.24-2.33,13.87-3.66a3.9,3.9,0,0,0,.08.44,3.4,3.4,0,0,0,.14.4,112.77,112.77,0,0,1-11.1,3.46c-.84.19-.84.53.22.34a87.27,87.27,0,0,0,11.12-3.31,3.2,3.2,0,0,0,.7.81c-3.22,1.4-9.19,3.73-13.12,4.41C6.57,144.12,5.48,141.74,5.18,140.1Zm-2.38-9.45a5.14,5.14,0,0,0,3.06,1.29c4.94.59,12.87-.56,16.05-1.11,0,0,0,0,0,0a3.34,3.34,0,0,0,.1.73,109.27,109.27,0,0,1-13.23,2.08c-.86.06-.91.39.16.37a86,86,0,0,0,13.24-1.93,3.52,3.52,0,0,0,.5.86l-.1-.05c-2.27.7-10.59,2.67-15.47,2.71C2.82,135.65,2.65,132.11,2.79,130.64Zm-.23-5.18c2.9,1.87,6.93,3,11.07,3.75-2.2.05-4.33.06-5.76,0-.86,0-1,.28.12.38a78.21,78.21,0,0,0,8.59.06c1.87.22,3.71.37,5.43.45l0,.13-.07-.06c-2.34.43-10.83,1.42-15.68.89C1.81,130.57,2.23,126.8,2.56,125.47Zm6.08,22.41a5.15,5.15,0,0,0,3.32.2,55.52,55.52,0,0,0,11.21-4.5,3,3,0,0,0,.45.71c-2.94,1.49-6.65,3.22-8.81,4-.81.3-.76.64.26.31A83.17,83.17,0,0,0,24,144.69a3.11,3.11,0,0,0,1,.58l-.14.2A63.67,63.67,0,0,1,14,150.67C10.53,151.78,9.14,149.46,8.63,147.87ZM3.7,135.65a5.16,5.16,0,0,0,3.14.89c5.16,0,13.44-2.23,16.29-3.08a3.69,3.69,0,0,0,.35.26,4,4,0,0,0-.64.68,107.77,107.77,0,0,1-13.19,3.14c-.86.13-.88.46.19.36A87.57,87.57,0,0,0,22.4,135.1a3.43,3.43,0,0,0-.33,1.14c-3.25,1.14-9.6,3.07-13.68,3.45C4.61,140,3.81,137.3,3.7,135.65Zm30,39.45c-2.68,2.62-4.68,1.4-5.61,0a6.2,6.2,0,0,0,2.57-1.4,41.49,41.49,0,0,0,5.22-5.64,3.17,3.17,0,0,0,.94.35c-1.3,1.65-2.58,3.21-3.51,4.22-.59.63-.39.91.37.15s2.25-2.47,3.7-4.27a4.11,4.11,0,0,0,1.64-.27.19.19,0,0,1,0,0,1.87,1.87,0,0,0,0,.23A50.23,50.23,0,0,1,33.72,175.1Zm-26.84-31a5.23,5.23,0,0,0,3.15.32c4.29-.69,10.47-3.32,13.92-4.92l.16.07a4.48,4.48,0,0,0-.94,1.37c-3.15,1.36-7.74,3.12-10.24,3.85-.83.24-.8.58.24.32A85.22,85.22,0,0,0,23,141.65a3.12,3.12,0,0,0-.07.64,3.56,3.56,0,0,0,.06.57A62.57,62.57,0,0,1,12,147.12C8.56,147.93,7.31,145.74,6.87,144.13Zm11.87,22a5.29,5.29,0,0,0,3.65-.89A47.61,47.61,0,0,0,30,159.13a3.54,3.54,0,0,0,.88.38c-2.24,2-4.81,4.25-6.43,5.45-.69.52-.55.83.34.22a78.55,78.55,0,0,0,6.74-5.53l.09,0a4.23,4.23,0,0,0-.38,1.63c0,.1,0,.2,0,.29a52.47,52.47,0,0,1-6.87,5.86C21,169.66,19.28,167.71,18.74,166.1Zm84,101.38a.76.76,0,0,1,0,.66c-.29.06-.27-.21-.41-.32A.36.36,0,0,1,102.78,267.47Zm-11.12-5.32c0,.31-.18.39-.33.21S91.53,262,91.66,262.15Zm-3.76-2.1a4.15,4.15,0,0,1-1.67,2.49c-.82.18-1.62-.64-2.28-1,.41-1.49,1.58-2.25,2.24-3.49l1,0A2.22,2.22,0,0,1,87.91,260.05Zm114-27.07c4,.95,6.32.07,6.36-.86s-.72-1.76-3.22-2.64c-8.5-3-23.71-2-34.65,2.17-2.84,1.09-4.41,2.29-4.78,3.78a3.78,3.78,0,0,0,1.14,3.46c2.5,2.56,7.49,8.48,9.38,13.09q.83-.5,1.62-1a60.93,60.93,0,0,0-5.85-9.23c-.55-.67-.58-1,0-1a35.17,35.17,0,0,0,4.09,0s3,5.15,4.52,8.35a39.76,39.76,0,0,0,4.81-4.24c-.38-1.14-1.11-3-1.29-3.37-.28-.6-.89-.67-1.79-.74-.72-.06-.9-.61,0-.78a13.74,13.74,0,0,1,4.68-.32,2.14,2.14,0,0,1,1.64,1c.49.89-.06,2.24-1.16,3.54-10.3,12.2-34.64,21.1-54.61,21.1s-44.3-8.9-54.61-21.1c-1.09-1.29-1.65-2.64-1.16-3.54s2.15-1.22,3.35-1.1c2.49.15,5.33.9,7.34,1,.87,0,.81.84,0,.93a15,15,0,0,0-1.85.29c-1.22.3-2.91,4.34-3.31,5.35a50.4,50.4,0,0,0,6.86,5c1.89-4.61,6.88-10.52,9.38-13.09a3.78,3.78,0,0,0,1.14-3.46c-.37-1.49-1.94-2.69-4.78-3.78-10.94-4.19-26.16-5.15-34.65-2.17-2.5.88-3.26,1.7-3.22,2.64,0,.33.32.65.88.89-1-1.34,2-2.69,4-3.2.85-.22.87.25.23.59s-.82.63-.84,1a7.34,7.34,0,0,0,.37,1.92,15,15,0,0,0,1.73-.3c3.32-.79,5.51-.67,6.7.34a2.65,2.65,0,0,1,.93,2.55c-.07.78-.32,3.15-.43,5.87a26.61,26.61,0,0,1,3,.16,4.1,4.1,0,0,1,1.36-3.36c1.67-1.34,4.81-1.26,9.6-.41,8.82,1.56,12.64,0,13.22-1.5a2.41,2.41,0,0,0-.85-2.59c-.78-.72-.8-1.2.29-.57a3.06,3.06,0,0,1,1.5,3.61c-.51,1.28-3.23,4.05-14.41,2.08-4.3-.76-7.15-.61-8.47.45-1,.78-1,2-1,3.14V243A37.67,37.67,0,0,1,71.8,255c-.89,2-.38,3.66,1.7,5.72,8,8,29.57,20.52,59.21,20.52s51.17-12.56,59.21-20.52c2.08-2.06,2.59-3.77,1.7-5.72A37.65,37.65,0,0,1,190.49,243v-.22c0-1.16-.08-2.36-1-3.14-1.32-1.06-4.17-1.21-8.47-.45-11.18,2-13.9-.8-14.41-2.08a2.38,2.38,0,0,1,.34-2.23h0l.11-.17a2.76,2.76,0,0,1,.31-.36l0,0a4.13,4.13,0,0,1,.33-.29l.11-.09a12.74,12.74,0,0,1,4.08-1.87c1-.28,1.12.32.33.86a2.13,2.13,0,0,0-1.06,1.41c-.23,1.25,1.24,3.53,1.8,4.41a34.11,34.11,0,0,0,7.78-.61c4.79-.85,7.93-.93,9.59.41a4.1,4.1,0,0,1,1.36,3.36,26.64,26.64,0,0,1,3-.16c-.12-2.72-.37-5.1-.43-5.87a2.65,2.65,0,0,1,.92-2.55C196.35,232.31,198.54,232.2,201.86,233Zm-126,23.29c-.6.08-1.06.48-1.91.37.36-.84,1.41-.48,2-1s.54-1.46,1.14-2.08c0-.15,0-.31,0-.46a3.52,3.52,0,0,0,1-1.41c.09-.32-.31-.13-.27-.39.14-.54,1.26-.52,1.71-.37-.52,1.78-1.66,2.94-2.35,4.56,0,.3.36.12.34.39C77.37,256.46,76.51,256.2,75.9,256.28Zm4.86,4.2c-.06-.46.28-.56.38-.87-.23-.49.14-.82.17-1.26.07-1.12-.79-2.08-1.06-3-1.19.66-1.07,2.91-3.19,2.46,0-.33.23-.47.59-.48a18.59,18.59,0,0,0,2.61-4.7c.28-.15,1-.37,1.26-.09-.47,1.93.48,3.32.9,4.75a1.66,1.66,0,0,0,1-1.68,1.75,1.75,0,0,1,1.71-.5c-.1.68-.58,1-1,1.35a6.43,6.43,0,0,1-1.28,1.88C82.56,259.44,81.93,260.49,80.76,260.48Zm4,2.56c-.37-.09-.61-.45-.94-.58-.48-.19-1-.07-1.21-.57a45.78,45.78,0,0,1,3.08-4.44c0-.32-.3-.23-.21-.59a1.68,1.68,0,0,1,1.52-.17c.05.24-.11.29-.05.53.25.28.79.26,1.27.3a2.66,2.66,0,0,1,.85,2.5c-.84,1.14-1.4,2.55-2.85,3.11C85.74,262.95,85.24,263.14,84.79,263Zm8.08,3c.39,0,.33-.42.79-.35A1.93,1.93,0,0,1,92,267c-.74-.87,0-3.7-1.21-3.82-.62-.06-1.19.59-1.64.9.05.29.41.25.41.59-.66.83-1.61-.19-2.39-.28.35-1,2.2-.62,2.62-1.58,0-.5-.78-.23-1.13-.37a.7.7,0,0,1,.65-.68c.5-.11,1.07.28,1.46.23,1-.1,1.27-2.15,2.62-1.45-.18.82-.69,1.33-.54,2.46.36.37,1.06.38,1.41.76,0,.13,0,.27,0,.4-.35.34-.93.11-1.39,0C92.56,264.62,92.83,265.5,92.88,266ZM98,269c-.37.14-.6.5-.85.55a2.56,2.56,0,0,1-2.82-1.59c-.19-3.23,2.14-5.47,5.27-4.49a9.7,9.7,0,0,1,.83,1.51c-.91,1.28-1.62-.53-2.21-1-.72,0-.83-.17-1.32,0a3.43,3.43,0,0,0-1.54,2.35,2.26,2.26,0,0,0,1.51,2.42,1.2,1.2,0,0,0,.88-2.21c-.35-.07-.65.15-.86,0,.28-1,2.14-.87,2.58-.12,0,.86-.16,2-.94,2.47C98.42,268.94,98.11,268.92,98,269Zm6.31.85c-.1.6.32.66.29,1.19.06.14.42,0,.47.12.16.55-.57.78-1,1-.87-.25-.64-1.78-1.05-2.63-.31-.64-.9-.58-1.68-.89-.4.16-.5.6-.84.81.06.23.52,0,.47.39-.4.77-1.51.34-2.25.18.16-1.06,1.6-.89,1.95-1.77-.05-.17-.49.06-.47-.19.2-.63,1-.3,1.51-.43,1.16-.31,1.16-2,2.4-2.17.31,1-.42,2-.06,3,.37.42,1.43.2,1.34.83C105.35,269.77,104.77,269.63,104.29,269.82Zm3.8-1.81c0,1.54-1.11,2.79-.71,4.06a1.59,1.59,0,0,1-1.51.63c-.06-.38.29-.37.38-.61a13.57,13.57,0,0,1,.23-1.46c.13-.4.22-.65.37-1.27s.54-1,.5-1.34c-.12-.88-1.41-.66-2.2-.55,0-.84.57-1.18,1.37-1.09.23,0,.6.3,1,.38.78.14,1.67,0,2.06.48a1,1,0,0,1,.8.18,4,4,0,0,1,1.32-.43c-.36.54-.72,1.2-1.36,1.29S108.91,267.63,108.09,268Zm5.81,2.06a.29.29,0,0,1,0-.46,4.24,4.24,0,0,0-1.87-.55,2.5,2.5,0,0,0-.57,1.07c.44.6,1.72.33,2.27.81.09.44-.48.78-.91.95a2.65,2.65,0,0,0-1.53-.43,2,2,0,0,0-.56,1.47c.41.54,1.52.35,2.2.61.19,1.58-3.42.58-3.51,0,0-.29.3-.38.45-.67a13.78,13.78,0,0,0,1-4.4c.42-.26.92-.78,1.38-.29a9.26,9.26,0,0,1,2.86.6A2.63,2.63,0,0,1,113.9,270.07Zm5.66-.19c-.44.19-.5.78-.47,1.46.44.53,1.82.12,2.31.6-.3.63-.71,1.5-1.4,1.52-.12-.42.34-.51.2-.73a2.87,2.87,0,0,0-1.19-.14c-.59.26-.26.91-.4,1.46-.05.19-.3.32-.47.59-.27.46-.3,1.17-1,1.12-.1-.42.39-.79.54-1.19a45,45,0,0,1,.75-4.7c-.23-.23-.46.26-.66.06.14-.75,1.3-1.34,1.86-.85a3.85,3.85,0,0,1,2.84.34,4.21,4.21,0,0,1-1.4,1.52c-.18-.23,0-.53.07-.73C120.77,270,120,270.13,119.56,269.88Zm4.09,2.6c0,.19-.19.4-.2.6-.06.67.24,1.28.13,1.86a2.22,2.22,0,0,1-1.66,1.45c-.19-.58.52-.79.73-1.19,0-1.41.21-2.53.28-4,.05-.29-.35-.13-.33-.4a1.28,1.28,0,0,1,1.33-1.12C123.8,270.53,123.81,271.54,123.66,272.48Zm6.22,1.48c-.42.68.43,2.32-.67,2.38-.58-1.6-2.56-1.81-3.36-3.19-.3.5-.06,1.54-.14,2.25-.38.21-.72.77-1.13.72-.16-.43.22-.49.34-.93.44-1.72-.77-5.09,1.28-5.16.09.37-.26.31-.27.59.49,1.67,1.75,2.57,3,3.52.39-.54.28-1.58.34-2.45.06-.24-.3-.06-.27-.27a1.22,1.22,0,0,1,.93-1.19C130.2,271.51,129.45,272.74,129.88,274Zm6,1.81a5.63,5.63,0,0,1-3.12.78c-2.32-.78-1.68-4.88,0-6,.51,0,.73-.32,1.26-.39,1-.13,2.29.27,2.31.94a.61.61,0,0,1-.53.66c-.62.1-1-.7-1.65-.73a2.62,2.62,0,0,0-1.59.66,3.16,3.16,0,0,0-.34,2.52,2.75,2.75,0,0,0,2.64,1.47c.95-.28,1-2.29.08-2.45-.51-.09-.46.36-1.06.33a1.39,1.39,0,0,1,2.65-.39A4.36,4.36,0,0,1,135.83,275.77Zm1.78.87c-.2-.47.27-.71.47-1-.07-1.49-.29-2.84-.45-4.24,0-.19-.39-.05-.46-.2a1.78,1.78,0,0,1,1.2-1.19c.28.24.11,1.12,0,1.39.61.94.22,2.86.85,3.78A2.34,2.34,0,0,1,137.62,276.64Zm4.72-5.54c-.23,1.38.65,2.93,0,4.17.07.31.48-.09.66.13s0,.6-.07.86c-.72-.1-1.42.59-1.85,0-.09-.63.73-.71.87-1.32.08-.36-.24-.79-.33-1.39s.07-1,0-1.32-.46-.7-.46-1a3.81,3.81,0,0,0-2.12.52c-.16-.41.2-.74.27-1.12a.72.72,0,0,0,.79-.46,36.11,36.11,0,0,0,3.84-.25,7.59,7.59,0,0,0,1.53-1.85c.11,0,.12.06.2.07-.1,1.36-1,1.89-1.47,2.91A5.42,5.42,0,0,0,142.34,271.1ZM149,275c-.6.46-1.55.36-2.32.59-.35.1-.56.47-.93.39-.15-.61.17-1.11.07-1.79-.05-.36-.37-.65-.46-1s0-.57-.06-.86c-.19-1.2-.78-2,.21-2.58,1.05.1,2.3-.8,3.38-.45-.07.59-.5.82-.8,1.19-.73-.35-1.46.13-2.19.19a7.25,7.25,0,0,1,.19,1.52,23.79,23.79,0,0,0,2.59-.59,2.37,2.37,0,0,1-.4,1.52c-.27.22-.26-.28-.59-.2s-.69.23-1.13.26c-.08.36-.17,1.19.06,1.46.91-.06,1.39-.55,2.45-.46C149.26,274.54,149,274.69,149,275Zm4.12-.63c-.32-.39.16-.62.22-1,.18-1.11-.78-2.72-.85-3.79-.1-.19-.31.13-.4-.07.13-.74.37-1.37,1-1.57.07,1.52,1,3.51.89,5.12C154,273.61,153.8,274.33,153.14,274.4Zm6.39-1.72a4.32,4.32,0,0,0-3-1.72c-.27,0-.31-.31-.59-.34,0,.77,1.28,2.26-.12,2.91,0-1.25-.8-2.39-.92-3.6-.07-.71,0-1.12-.5-1.47a1.67,1.67,0,0,1,.75-1.18c.71.51.49,1.91,1.34,2.28.75.15,1.31.47,2.11.57.27-.81-.38-1.28-.36-2.06,0-.23-.41-.12-.46-.34.15-.7.25-1.45,1-1.5.08,2.11,1,4,1.2,6.12C159.8,272.41,159.79,272.67,159.53,272.67Zm5.7-3.39c-.59.46-.23,1.93-1,2.23a43.72,43.72,0,0,1-4.14-4.66,4.81,4.81,0,0,1,.15-.92c1.51.39,2,2.36,3.32,3.12.11.39.19.81.64.88a4.13,4.13,0,0,0,.72-3c-.1-.93-1-1.26-1-1.94s.66-.66,1.2-.24c.07.6.43,1.14.49,1.8C165.72,267.49,165.16,268.4,165.23,269.28Zm5.58-.95c-1.14.13-1.46,1.09-2.61,1.21a1.09,1.09,0,0,0-.26-.21c.53-1.64-.53-2.84-.91-4.19-.41-.06-.25.46-.73.32,0-1,.52-1.31.7-2a26,26,0,0,1,3.14-1.53,1.5,1.5,0,0,1-.5,1.71s-.3-.21-.33-.21a5.58,5.58,0,0,0-1.8.76,2.93,2.93,0,0,0,.57,1.2c.82,0,1.21-.5,2-.55a2,2,0,0,1,0,1.13,2.23,2.23,0,0,0-1.54.76c0,.52.3.75.24,1.33.46.09.93-.32,1.21-.64.66.12.95-.42,1.4-.3C171.55,267.62,171,268,170.81,268.33Zm7.48-3.09c-.51.1-.58-.35-1-.55-1.08-.54-2.66.05-4-.28.11.59.67.74.63,1.47.06.27.3.36.38.61-.24.52,0,1.55-.69,1.57-.42-.5.06-.9-.17-1.53s-.94-1.24-1.15-2c0-.1,0-.24,0-.33-.42-1-1.66-1.77-.73-2.93.59.17.69.81.9,1.34.79.89,3,.7,4.43.62a2.58,2.58,0,0,0-1.08-2.07c0-.2.07-.24.07-.4-.21,0-.49,0-.59-.08.21-.5.06-1.37.37-1.78h.2a35.58,35.58,0,0,0,2.61,5.35C178.42,264.6,178.52,265.09,178.3,265.24Zm4.83-3c-.21,0-.23-.26-.46-.28.47-2.17-.84-3.18-1.63-4.34-.3,0-.17.41-.54.32-.12-.16-.1-.47-.32-.54-.49.14-.78.5-1.27.64-.55,1.92,1.21,2.62,1.51,4.14.23,0,.26-.33.46-.12a2.2,2.2,0,0,1-.71,2.24c0-2-1.55-3-2.09-4.68-.26-.07-.2.19-.46.12-.11-.65-.09-1.64.3-2,.21,0,.17.18.33.21.35-.25.37-.84.62-1.18a7.51,7.51,0,0,0,2.48-1.67c1-.24,1.42-1.1,2-1.75,0-.5-.48-.49-.51-.94.38,0,.52.15.72.28a5.74,5.74,0,0,1-1.26,3.35,1.3,1.3,0,0,0-.87.58c.58,1.25,1.81,2.19,1.84,3.75.48.12.39-.37.87-.25C184.8,261.19,183.41,261.48,183.13,262.22Zm6-6.24c.23,0,.2.2.32.27-.32,1.67-1.8,2.13-2.71,3.19-.33-.21-.16-.51-.25-.8-.39-1.29-1.53-2.1-2-3.35a4.16,4.16,0,0,1-.65-.41c-.08-.55-.08-1.25.3-1.52.29-.06.11.33.32.34.3-1.2,1.74-1.21,2.17-2.28.19-.05.17.1.33.07,0,.56.34,1.57,0,1.85s-.24-.3-.46-.34c-.54.41-1,.89-1.55,1.29a3.22,3.22,0,0,0,.64,1.14c.75-.28,1-1.12,1.95-1.15.29.3,0,.87,0,1.13-.45.27-1,.47-1.21,1,.1.6.49.92.7,1.41A7.36,7.36,0,0,0,189.15,256Zm45-23.24c-1.37-.7-2.83-1.29-3.63-1.6-.24,0-.34.21-.19,1.3a2,2,0,0,1-1,1.72,1,1,0,0,0-.43.95,7.74,7.74,0,0,1-3.26,5.79c1.4-.08,2.86-.21,4.11-.41,0,0,2.75-3.6,2.34-6.11-.13-.79.32-1.4,1.46-.94a10,10,0,0,1,3.09,2.16c1.64,1.79,1,5.26-8.15,6.1-1.4.13-2.88.2-4.41.22a8.48,8.48,0,0,1-2.08.81c-1,.24-1.06-.24-.82-.81-7.69-.16-16.08-1.46-21.59-3.51-2.7-1-3.35-2.7-3-3.49s1.25-.95,2.53-.81h0l.24,0h.07a24.55,24.55,0,0,1,2.86.6c.74.25.5.89-.14.84-.42,0-.89,0-1.07.23a5,5,0,0,0-.4,2,54.65,54.65,0,0,0,5.68,1.48c.68-2.11,1.21-4,1.53-5.3-1.33.49-3.46.58-6.53-.14-3.28-.78-4.53-.36-5.3.15-.56.37-.5,1.13-.45,1.76a90.27,90.27,0,0,1,0,11.56,4.12,4.12,0,0,0,2,4.06c5.67,2.88,19.91,4.84,31.26,3.05,2.88-.45,3.74-1.89,4.38-4.57a23.82,23.82,0,0,1,3.34-8.05C239.66,237.45,238.59,235,234.11,232.74Zm-20.54,17.7c-.49-.38-.38-.59-1-.49a6.73,6.73,0,0,1-2.38-.11c-.58-.17-.5-.67.11-.61a6,6,0,0,0,3.2-.3c.72-.29,1.65,0,1.55.92A.88.88,0,0,1,213.57,250.45Zm3-2.27c-.87-.06-1-1-.63-1.69a6,6,0,0,0,.87-3.09c0-.61.56-.59.62,0a6.66,6.66,0,0,1-.32,2.36c-.22.6,0,.53.3,1.08A.88.88,0,0,1,216.6,248.18Zm6.33,2.14a6.66,6.66,0,0,1-2.38-.09c-.62-.16-.53.06-1,.4a.88.88,0,0,1-1.41-.71c0-.87.93-1.14,1.62-.79a6,6,0,0,0,3.16.56C223.48,249.7,223.52,250.21,222.93,250.32Zm10.19-7a69.8,69.8,0,0,0-2.46,7.83A2.61,2.61,0,0,1,229.2,253a11.92,11.92,0,0,1-3.76.56c-.7-.11-.64-.64.3-.94a2.4,2.4,0,0,0,1.67-1.57c.81-2.87,2.39-8.23,2.39-8.23,1.24-.11,2.41-.34,2.86-.42C233.3,242.3,233.46,242.54,233.12,243.34Zm-188-132.73a1.41,1.41,0,0,1,.08-.46c0-.15.14-.16.12,0a1.29,1.29,0,0,0,1.21,1.5c.41,0,.54-.19.29-.4s-.52-.62-.05-.59.73.16.84-.28a1.22,1.22,0,0,0-.25-.85c-.1-.13-.08-.18.07-.08a1.45,1.45,0,0,1,.61,1.17,1.46,1.46,0,0,1-2.93,0ZM46,176.77c-.38.77-.11,1,.4,0s1.26-2.57,2-4.41a2.88,2.88,0,0,0,1.37-.76A3.55,3.55,0,0,0,50,172a48.38,48.38,0,0,1-3,7,5.72,5.72,0,0,1-1.49,1.81l0,0h0a3.06,3.06,0,0,1-4.06-.43,7.87,7.87,0,0,0,1-1.11,41.68,41.68,0,0,0,3.95-6.89l.08,0a4.51,4.51,0,0,0,1.34.06C47.13,174.16,46.48,175.7,46,176.77Zm5-.24c-.26.82,0,1,.4,0,.27-.74.61-1.87,1-3.17l.38,0a3.48,3.48,0,0,0,1.16-.2,39.44,39.44,0,0,1-1.51,5.42c-1.43,3.74-4,3.17-5.37,2.18a8.47,8.47,0,0,0,.74-1.08,41.64,41.64,0,0,0,2.93-7,3.21,3.21,0,0,0,1.22.58C51.53,174.52,51.21,175.67,50.94,176.53Zm-9.86-.32c-.47.72-.24,1,.39.09.74-1,1.92-3,3.11-5.06a2.64,2.64,0,0,0,1,.91,46.39,46.39,0,0,1-3.75,6.42c-2.34,3.17-4.61,2-5.7.73a6.52,6.52,0,0,0,2.08-1.66,40.48,40.48,0,0,0,4.26-6.25,3.41,3.41,0,0,0,1.65-.44C43,173,41.9,174.95,41.08,176.2ZM69.35,234c-.56-.47-2-.87-5.47,0-3,.7-5,.61-6.29.13.37,1.31,1,3.14,1.67,5.25a48.36,48.36,0,0,0,5.42-1.49,6.09,6.09,0,0,0-.53-2.12c-.18-.24-.7-.27-1.12-.23-.65.05-.84-.49-.1-.75A25.6,25.6,0,0,1,66,234.1h.06l.12,0h0c1.38-.17,2.35.31,2.58,1,.32,1-.2,2.32-2.9,3.33a45.13,45.13,0,0,1-6.51,1.91,4.51,4.51,0,0,1,.26.63c.19.6,0,.85-.75.41-3.32-1.89-6.21,1.87-6.15,2.36a4.34,4.34,0,0,1,1,2.7c-.05.59-.47.67-.93.27a14,14,0,0,0-4.19-2.6,4.47,4.47,0,0,0,.83,2.41c.42.65.25,1.63-.62,1.69a.88.88,0,0,1-.84-1.34c.29-.55.52-.48.3-1.08a5.17,5.17,0,0,1-.32-1.92,9.61,9.61,0,0,0-4.09-.37,1.12,1.12,0,0,1-1-.58c-.24-.33-.47-.63-.71-.9-1.7-.07-4.8-.22-6.3-.41-6.52-.8-8.13-3.19-7.55-5v0s0-.07.06-.11a2.76,2.76,0,0,1,.54-.87l.11-.1a10.62,10.62,0,0,1,4.23-2.45c1-.33,1.12.32.33.86s-1,1-1.06,1.41a22,22,0,0,0,.92,4.77c.4.13.83.25,1.3.37a38,38,0,0,0,6.55.62c-3.23-3-5.57-1-5.73-.84-.36.32-.76.26-.57-.36a4.58,4.58,0,0,1,1.73-2.61,6.86,6.86,0,0,1,3-.5c.57,0,.7-.2.77-.74s0-3.23-.24-6.22a99.24,99.24,0,0,0-9.61,3.27c-3.47,1.69-4.82,4.35-1.77,8.71a23.82,23.82,0,0,1,3.34,8.05c.64,2.67,1.5,4.11,4.38,4.57,11.35,1.79,25.56-.23,31.26-3.05a3.87,3.87,0,0,0,2-4.06,90.37,90.37,0,0,1,0-11.56A2,2,0,0,0,69.35,234ZM45.89,250.66c-.52-.34-.42-.56-1-.4a6.76,6.76,0,0,1-2.38.09c-.59-.12-.55-.63.06-.62a6,6,0,0,0,3.16-.56c.69-.35,1.65-.09,1.62.79A.88.88,0,0,1,45.89,250.66Zm9.32-.79a6.69,6.69,0,0,1-2.38.11c-.63-.11-.52.1-1,.49a.88.88,0,0,1-1.46-.59c-.1-.87.84-1.21,1.55-.92a6,6,0,0,0,3.19.3C55.72,249.2,55.8,249.71,55.22,249.87Zm11.88.5A11.33,11.33,0,0,1,64,251.71c-.7.12-1.5-.58-.59-1,1.71-.77,1.66-1.5,1.63-2.14-.12-3-.49-8.53-.49-8.53.87-.33,1.4-.51,2-.71s1-.12,1,.74c-.1,2.39.18,7.38.26,8.55A1.89,1.89,0,0,1,67.1,250.37Zm-4.45-57c.26-1.32.64-1.53.64-.47,2-1.9,16.56-13.2,10.35-25.79.32-.44,2.45-7.08-4-20.36-.52-1.07-.2-1.32.46-.36,2.16,3.15,7.47,12.42,5.95,21,.33.42,9.58,13.56-13.95,31.73-.26.84-.54,1.66-.87,2.46,5.48-3.65,24.54-17.89,16.29-34.05,1.68-12.44-5.83-22.6-19.79-39.73-3-3.69-3.7-5.32-3.37-7.17.06-.33.11-.65.16-1a15.13,15.13,0,0,0-1.62-3.1c-.83,3.53-7.54,5.24-9.7.12-.22-.51.21-.7.47-.3,1.64,2.47,5.44,2.62,7.58.71a2.13,2.13,0,0,0,.08-2.7c-1.19-1.59-2-3.36-.39-5.14a13.56,13.56,0,0,0,2.48-3.44c-1.81-.62-8.48-3.2-12.87,1.76-3.71,4.19-1.28,13.2,7.53,21.59,2.71,2.58,4.7,4.48,7.64,7.52,9.09,9.36,11.37,19,2.18,28.38a17.33,17.33,0,0,0,5.88-.33c.6-.13,1.07.42-.08.71C49.15,169.08,41,155.35,35.73,136a12.77,12.77,0,0,1-.57-4.05,24.33,24.33,0,0,0-.62-7c-1-4.38-1.85-8.5-2.55-12.34-2.15-1.58-5.47.19-4.42,3.1.12.32,0,.69-.55.64-2.36-.21-4.18,2.68-1.41,4.83.45.35.53.87-.18,1a2.84,2.84,0,0,0-1,5.21c.59.39.61.85,0,1.1a2.57,2.57,0,0,0-.31,4.65c.58.28.63.63.15,1-2.3,1.68-1.35,4.57.61,4.85.48.07.65.51.19.87-2.52,2-1.28,4.52.61,4.76.56.07.71.4.31.83-1.49,1.62-1.18,4,1.69,3.93.75,0,.65.56.44.83-1.58,2-.48,3.92,1.18,4.05.44,0,.64.25.42.77-.86,2,.07,3.85,2.38,3.87.61,0,.73.49.51.89-1.31,2.37.09,3.88,1.95,3.92.58,0,.8.1.67.72a2.59,2.59,0,0,0,3.82,3c.58-.27,1.05-.06,1,.69-.24,1.82,2.23,3.34,4.06,2,.54-.39.93-.38,1.13.32.43,1.53,3.11,1.75,4.13.48a.66.66,0,0,1,1.17.15,2.49,2.49,0,0,0,4.44.29c.28-.53.73-.75,1.18-.43a2.1,2.1,0,0,0,2.73-.3c.3-.39.88-.11.69.32A2.47,2.47,0,0,1,58,172.08a2.77,2.77,0,0,1-2.34-.38l0,0a2.91,2.91,0,0,1-.81.93,37.69,37.69,0,0,1-1.72,6.5c-.93,2.37-2.27,3.21-3.59,3.31-5,6.74-14.44,4.84-19.35,3.47,1-1.1,4-4.32,5.45-5.83l-.45-.49a3.77,3.77,0,0,1-.38,0c-3.66,3.79-23.63,24.27-25.18,26.64a6.85,6.85,0,0,0-1.2,3.58,10.21,10.21,0,0,0,2.6-.76A102.85,102.85,0,0,1,18,201.52c.9-.9,1.35-.69.36.36-1.33,1.41-5.25,5.66-7,8.11a5.87,5.87,0,0,0-1.2,3.58,10.37,10.37,0,0,0,2.46-.7c.09-.13.17-.26.26-.38a96.35,96.35,0,0,1,7.36-8c.9-.9,1.35-.69.36.36-1.33,1.41-5.25,5.65-7,8.11a5.83,5.83,0,0,0-1.2,3.58,10.16,10.16,0,0,0,2.46-.7A98.84,98.84,0,0,1,22.11,208c.9-.9,1.35-.69.36.36-1.33,1.41-5.25,5.66-7,8.11a5.83,5.83,0,0,0-1.2,3.58,7.79,7.79,0,0,0,4.2-1.83c6-5.72,14.38-14.21,19.46-18.29,1.61-1.29,2.21-1,.62.48l-.67.63a6.72,6.72,0,0,1,4.67,3.78c.38,1.13.08,1.71-.58,1.57a20.71,20.71,0,0,0-10.69,1L29.62,209c4.89-2,10.53-2.08,12.94-1.52a34,34,0,0,1,4.36-6.85c.45-.54,1.14-.25.5.66a48.57,48.57,0,0,0-7.85,21.29C39.58,223.07,58.87,212.83,62.65,193.33ZM44.48,108.64a5.47,5.47,0,0,1,2.74-.17c1,.21,1.27.88,2.14.88s.63.43.08.49a2.64,2.64,0,0,1-.86,0,2.12,2.12,0,1,1-4.08.82,2.08,2.08,0,0,1,.7-1.56c-.3,0-.54.08-.68.08C44,109.14,43.89,108.87,44.48,108.64Zm-.76,2.49a2.84,2.84,0,0,0,5.33,1c.17-.29.44-.25.38.14-.49,3.33-6,3.44-6.13-1.1C43.28,110.71,43.65,110.69,43.72,111.13ZM30.4,116.7c.57.15.43.59,0,.56a1.3,1.3,0,0,0-1.21,2.2c.33.4-.1.72-.43.4A1.8,1.8,0,0,1,30.4,116.7Zm-1.26,5.4c.62.06.55.54.14.58a1.37,1.37,0,0,0-.88,2.49c.4.37,0,.77-.38.49A1.9,1.9,0,0,1,29.13,122.09Zm-.75,6c.65,0,.64.5.22.58a1.44,1.44,0,0,0-.59,2.72c.47.33.12.8-.33.56A2,2,0,0,1,28.38,128.08Zm-.5,6.88c.65-.3.87.27.46.51-1.5.9-1.13,2.57.52,3,.6.15.41.74-.15.71A2.16,2.16,0,0,1,27.88,135Zm.88,7.23c.61-.46.93.07.58.44-1.24,1.33-.55,2.88,1.16,3,.66,0,.56.69,0,.76C27.66,146.67,26.77,143.7,28.76,142.19Zm4.76,11.31c-2.86.86-4.4-2-2.53-4,.54-.58,1-.1.69.35-1.1,1.7-.05,3.08,1.74,2.84C34.12,152.62,34.12,153.32,33.52,153.5Zm3.74,6.25c-2.67,1-4.27-1.68-2.61-3.67.48-.58.91-.15.67.29-1,1.76.12,3,1.81,2.67C37.82,158.91,37.85,159.54,37.26,159.75Zm4.76,4.9c-2.06,1.46-4.53-.45-3.47-2.63.31-.65.81-.38.69.08A1.64,1.64,0,0,0,41.7,164C42.27,163.75,42.48,164.33,42,164.66Zm6.07,2.52c-1.42,1.94-4.22.95-3.93-1.34.09-.68.62-.59.64-.14a1.55,1.55,0,0,0,2.79,1.05C48,166.31,48.4,166.74,48.09,167.17Zm6.3,1.06a2,2,0,0,1-3.93-.27c-.09-.64.42-.69.56-.28a1.47,1.47,0,0,0,2.82.28C54.11,167.45,54.58,167.76,54.39,168.23Zm-43.93,39.9c-.6.61-1,.26-.39-.45,2.32-2.83,8.16-8.95,9.46-10.18.54-.51.72-.3.28.23C18.78,199,13,205.57,10.46,208.13Zm1.92,3.42c-.6.61-1,.26-.43-.45,2.32-2.83,8.16-8.95,9.46-10.18.54-.51.76-.3.32.23C20.7,202.4,14.91,209,12.38,211.55Zm2.38,2.87c-.6.61-1,.26-.47-.44,2.32-2.83,8.16-9,9.46-10.18.55-.51.8-.3.36.23C23.09,205.28,17.29,211.86,14.76,214.42Zm11.29-6.76c-1,1.25-6.83,7.83-9.35,10.39-.6.61-1,.26-.47-.45,2.32-2.83,8.16-8.95,9.46-10.18C26.23,206.92,26.49,207.13,26.05,207.66Zm18.32,11.09c-.66.53-.86.22-.42-.25a74.77,74.77,0,0,0,11.73-16.09c.55-1,3.61-2.56,3-1.07C56.14,207.94,48.6,215.7,44.37,218.75ZM32.12,177.34a6.73,6.73,0,0,0,2-1.4,42.89,42.89,0,0,0,5.18-6.43,3.26,3.26,0,0,0,.61.83c-1.05,1.6-2.08,3.09-2.85,4.09-.53.68-.31.94.38.12s1.73-2.25,2.85-3.89a3.37,3.37,0,0,0,.32.22,3.72,3.72,0,0,0,.94.4,43.77,43.77,0,0,1-3.88,5.56C35.27,179.68,33.17,178.63,32.12,177.34ZM16.59,162.78a5.5,5.5,0,0,0,3.5-.74,50.36,50.36,0,0,0,8.5-6.16,3.24,3.24,0,0,0,0,.54,3.49,3.49,0,0,0,0,.56c-2.23,1.84-4.7,3.77-6.27,4.83-.72.48-.59.8.32.24a72.16,72.16,0,0,0,6.1-4.51,3.21,3.21,0,0,0,.34.71,2.48,2.48,0,0,0,.31.38,53.06,53.06,0,0,1-7.25,5.66C18.76,166.31,17.1,164.39,16.59,162.78ZM102.38,50.54l1.21.2A32.63,32.63,0,0,0,110,60.6c.57.55.81.38.35-.21a35.76,35.76,0,0,1-6.12-9.55l1.13.19c2.54,6.25,8.39,15.79,27.36,15.79S157.53,57.29,160.07,51l1.13-.19a35.78,35.78,0,0,1-6.12,9.55c-.46.58-.21.76.35.21a32.66,32.66,0,0,0,6.41-9.87l1.21-.2c-1.74,3.75-7,13.91-16.76,16.58-3.5,1-7.16.77-13.57.77s-10.07.22-13.57-.77C109.37,64.45,104.12,54.28,102.38,50.54Zm12-4.42c-3.46-.54-10.37-1.69-14.72-2.39a.55.55,0,1,1,.17-1.07c5.36.87,10.27,1.65,14.76,2.35C115.4,45.14,115.28,46.26,114.33,46.12ZM101.41,48.2l-.68-3.62c4.35.71,9.68,1.61,13.23,2.17h0l.67,3.6-1.36-.23L112.88,48l-1.18-.13.37,2L111,49.72l-.38-2.05-1.18-.13.37,2-1.11-.18-.38-2.06-1.18-.13.37,2L106.34,49,106,46.92l-1.18-.13.37,2L104,48.61l-.38-2.07-1.18-.13.37,2-1.4-.22ZM115,52c-3.15-.49-9.61-1.63-13.56-2.27a.5.5,0,1,1,.15-1c4.87.79,9.52,1.59,13.6,2.23C115.94,51.12,115.83,52.14,115,52ZM108.7,77.34c-1.15-1.48-.5-4.47,2.29-5.5a9.48,9.48,0,0,1,2.3,3.4c.12.34-.2.36-.61,0s-.64-.08-.28.35c.89,1.05,1.89.85,1.63-.36A10,10,0,0,0,112,71.67l-.1-.07a2.18,2.18,0,0,1,2.09.83c.7.77,1.91,3.15,3.37,3.66.28.1-1.87,1.74-4.23,2.33A9.41,9.41,0,0,1,110,75.05c-.16-.32.15-.38.61-.08s.64,0,.23-.38c-1-.93-2-.61-1.57.56A9.17,9.17,0,0,0,112,78.62,3.54,3.54,0,0,1,108.7,77.34ZM108.88,62c.25,2,.58,5,.91,6.81.12.65.43.83,1.33.66s4.91-.93,7.24-1.4A22.31,22.31,0,0,1,108.88,62Zm5.12,6c-.4.09-1.86.36-2.53.46-.39.06-.81,0-.9-.48s-.23-1.92-.3-2.63c-.05-.54.29-.6.45-.06a17.1,17.1,0,0,0,.62,2.29,10.4,10.4,0,0,0,2.58,0C114.55,67.45,114.61,67.8,114,67.94Zm-8.35-31a3.91,3.91,0,0,0-2.73-.88c-1-1.72.21-3.32,2.73-1Zm-4.7.26a6.19,6.19,0,0,0,1.12-1.78,2.9,2.9,0,0,0,.37.73c.92,1.33.76,1.89.38,2.1S101.61,38.17,101,37.19Zm9.54,6.52-3.65-.58c0-1.07,0-4.23,0-6.61Zm-4.85-.77-1.34-.21,1.34-3.11C105.65,41,105.65,42.25,105.65,42.94Zm9.88,9.73c1.47,1.51,5,4.63,17.18,4.63s15.71-3.11,17.18-4.63a1.12,1.12,0,0,0,.22,0l.81-.13A19.88,19.88,0,0,1,148.18,55c-.39.35-.17.56.31.22a21.85,21.85,0,0,0,3.19-2.83l1-.17c-1.73,2.61-6.91,7.29-20,7.29s-18.27-4.69-20-7.29l1,.17a21.75,21.75,0,0,0,3.19,2.83c.48.34.7.13.31-.22a19.63,19.63,0,0,1-2.73-2.48l.8.13A1.15,1.15,0,0,0,115.53,52.67ZM105.7,88.15c.13-.53,1.45-5.66,4.64-8.61a7.38,7.38,0,0,0,3.83-.39s.35-.13.83-.33a30.83,30.83,0,0,0-3.29,6.79c-.37,1.09-.82,1.46-1.39,1.65-1,.32-1,.86-.15.75.38-.05,2.31-.35,3-.53.51-.12.64-.26.8-.87.94-3.61,3.07-8.13,4.74-9.95a4.61,4.61,0,0,0,.7.14,13,13,0,0,0,3.8-.35,54,54,0,0,0-2.36,8.83,2.07,2.07,0,0,1-1.71,1.64,82.13,82.13,0,0,1-12.77,2.28C105.77,89.24,105.56,88.72,105.7,88.15Zm-2.56-49.5c.16-.08-1,1.17-1.63,1.13-2-.13-2.28-4.81-5.2-4.72C100.29,33.22,100.29,40.11,103.14,38.65ZM24.48,116.27c-6-6-18.16-20-16.07-29.83.07-.32.17-.26.34.21s4.78,12.94,17.74,28.82a3.5,3.5,0,0,0-.86.17c-4.23-4.82-12.41-15.11-15.91-24.37-.24-.65-.49-.52-.29.1,3.21,9.83,11.41,19.73,15.68,24.49A3.47,3.47,0,0,0,24.48,116.27Zm2.12-2c-3.72-5-16.53-23.5-12.41-34.68.11-.3.21-.23.31.26s2.51,14,12.93,32.41A3.21,3.21,0,0,0,27,113c-2.84-4.5-10.32-17.45-12.35-28.32-.12-.68-.39-.59-.3.05,1.65,11.76,9.72,24.73,12.41,28.83A3.46,3.46,0,0,0,26.6,114.32ZM3.33,93.81c0-.32.07-.37.34.05S10,104.59,23.9,116.92a3,3,0,0,0-.34.63c0,.06,0,.13-.05.19-5.37-4.42-13.39-11.94-18-19.44-.36-.6-.57-.42-.26.14,4.43,8.13,12.75,15.62,18.09,19.9,0,.12,0,.23,0,.35a3,3,0,0,0,.08.65l-.55-.38C15.43,113.64,3.3,102.82,3.33,93.81Zm18.93,31.41C4.42,118.78,1.19,111.15.83,109.9c-.09-.31,0-.39.37-.07a82.18,82.18,0,0,0,9.69,6.39,69.32,69.32,0,0,0,11.63,7.37l0,.09a81.9,81.9,0,0,1-18-10.43c-.54-.44-.68-.21-.2.22,5.2,4.6,12.19,8.28,18.08,10.76,0,0,0,.09,0,.13a3.79,3.79,0,0,0-.05.63C22.24,125.07,22.25,125.14,22.26,125.22Zm5.88-13.51C26,107.54,15,85.77,22,74.55c.17-.28.26-.18.26.32S22,90,29.72,111.16a3,3,0,0,0-.62.13c-.91-2-7.9-19-7.67-31.74,0-.69-.28-.64-.32,0-.74,13.45,6.62,30,7.52,31.92A3.59,3.59,0,0,0,28.14,111.72ZM23,122.83c-8.22-4.37-20.67-12.88-22-21.37,0-.32.07-.3.4.08s6.12,7.34,18,15.93c1.54,1.16,3,2.18,4.39,3l.2.13a5.17,5.17,0,0,0,.78.88,4.26,4.26,0,0,0-.48.21c-6-3.59-14.75-9.64-20.47-16.15-.46-.52-.63-.32-.24.19,5.46,7,14.21,12.78,20.16,16.29A3.66,3.66,0,0,0,23,122.83Zm57.26-13.3c-.45-.3-.54-.62-.64-.12a7.4,7.4,0,0,0,0,2.18h1c0-.46.1-.94.39-.89A8.93,8.93,0,0,0,90,108c.31-.33.63-.06.22.51a35.19,35.19,0,0,1-2.77,3h1c.77,0,1.1.85,0,1.08l-1.36.28a2.41,2.41,0,0,0,2.35,1.66c.7.07.77.44,0,.6-2,.41-3.67-.25-4.25-1.85l-1.11.25a2.69,2.69,0,0,0,2.65,2.35c.58.06.54.48,0,.63-2.23.6-4.47.31-5.48-2.29l-1,.26a4.51,4.51,0,0,0,4.37,3.08c2.85.08,6.28-2.15,7.58-3s2.75,0,2.14,1.46c-1.91,4.61-10.14,3.24-11.15,15.11-.05.66-.3.94.39.56,5.52-3,14.41-.82,14-15.8-.06-2.34,2.48-2.24,2.06-.05-2.21,11.73,8.12,10.85,10.38,7.74.39-.54.29-.62-.28-.9-6.09-3-1.25-8.67-5.37-16.58a92.78,92.78,0,0,0-7.59-6.13,6.8,6.8,0,0,0-3.14-1.07c-1.43-.1-2.21-.75-1.42-2.13,1.32-2.31,8.16-11.43,15.32-16.55a50.71,50.71,0,0,0-12.5,8C84.77,96.6,71.63,90,72.76,79.23c.67-6.36,8-5.87,8,.14,5.72-2.16,6.88-8.17,1-9.44-.86-.19-1-.89,0-1.26C89.55,65.55,92.26,59,92.48,56c-8.15,1.74-12.79-.85-20.74,9.13-2.19,2.75-4.64.68-3.16-2.65,2.09-4.7,7.05-11.74,8.21-14.86a5.93,5.93,0,0,0-.24-5.39c-.82-1.34-9.36-10.88-10.46-12.12-2.12-2.37-4.37-2.69-7.75-2.28-15.58,1.91-19.73-2.59-18.43-8.4.27-1.21.61-.46.52.12a5.58,5.58,0,0,0,2.07,5.68c1-1.12,4.22-3.45,4.82-7.92.05-.43,0-.5-.4-.52-3.87-.18-6.43.7-7.43,1.75a10.4,10.4,0,0,0-2.6,7.16c-.1,6.18,6.48,10.72,12.8,10.62.64,0,.79.23.63,1s-.55,8.32,9.38,8.59c.47,0,.62-.12.42-.52-2.73-5.27.18-12.27,7.15-10.58-.16-.27-.31-.55-.49-.8a6.33,6.33,0,0,0-3.41,0,6.16,6.16,0,0,0-2.09-4,8.76,8.76,0,0,0-1.13-.25c-1.8-.26-1.76-.72-.22-.68,4.4.12,8.46,4,9.47,8.09.46,1.85.14,3.84-2.36,7.52a95.15,95.15,0,0,0-9.57,18.12c-.39,1-1.16,1-1.65-.31-2.67-6.84-8.52-7.76-14.28-11.23-.35-.21-.49-.08-.41.22,1.29,5.26.39,9.05,7.48,14.58.75.58.42,1.18-.12,1.28-6.3,1.1-5.4,8.95.14,10.54.42.12.5,0,.42-.3-.88-3.68,3.8-5.46,6.41-1.37,4.24,6.65,7.24,7.38,9.42,7.69a15,15,0,0,0,6.39,6.47q-.16-.59-.29-1.21c-2.75-1.33-4.81-4.38-5.56-5.77a7.32,7.32,0,0,1-2.7-1.08c.61-1.16,3.79-3.93,8.17-.57,0-.3.09-.59.14-.89.19-1,.71-1.11.52.45-1.71,14.39,9.36,21.93,21.22,18.53.64-.18,1.3.18.89,1.28a22.5,22.5,0,0,1-2.51,4.52l.36.29c.6.49.42,1.07-.67.75l-.48-.12C85.89,111.87,81.06,110.09,80.22,109.53ZM41.06,19.2a6.31,6.31,0,0,1,4.29-1.45c.76,0,.83.13.73.73-.34,2-1.6,3.81-3.57,5.58-.51.46-.73,0-.09-.69,3.57-3.8,3-6-.86-3.86C40.77,20,40.74,19.53,41.06,19.2Zm5.52,15.63C41.07,33.6,36.72,29.37,38,23.25c.21-1,.68-1,.92-.33a8.13,8.13,0,0,0,2.34,3.61c.42.35.39.48,0,.61a2.24,2.24,0,0,0-.67,3.76c.21.21.45.14.32-.23-.68-1.9.94-3.21,3-2.71.42.1.35.44,0,.5a2.17,2.17,0,0,0-.94,3.86,12.22,12.22,0,0,0,3.77,1.88C47.46,34.5,47.1,35,46.58,34.84Zm13.14.95a9.48,9.48,0,0,0-1.21,8.43c.25.76.08.86-.69.73-1.26-.21-3.78-.91-5-2.49-.35-.46,0-.46.32-.35a4.08,4.08,0,0,0,3.61-.42c.87-.63.4-1.5.1-1.27a4.17,4.17,0,0,1-4.59.14c-.69-.46-.67-1.88-.2-1.54,1.81,1.3,4.77.48,5.32-.75a7.59,7.59,0,0,1,1.76-2.67C59.88,34.93,60.14,35.16,59.72,35.78Zm-.19-4.18c.57,0,.51.27,0,.41a14.14,14.14,0,0,0-8.05,4.71c-.21.23-.18-.67-.48-1s-1.26-.35-.89-.57C52.06,34,56.23,31.83,59.54,31.6ZM70.3,41.49c.44-.65,1-.53,1.63-.11a17.89,17.89,0,0,1,3.46,3.38,1.71,1.71,0,0,1,.33,1.86,26.59,26.59,0,0,1-2.29,4.51c-.42.56-.73.25-.51-.28a5.3,5.3,0,0,0,.64-2.45,17,17,0,0,0-4-4.06C69,43.92,69.74,42.33,70.3,41.49ZM46.71,62.08c0,.66-.32.75-.73-.12-1.24-2.64,1.09-4.29,2.89-4.24.4,0-.6-.67-1-.78a2.59,2.59,0,0,0-3,1.88c0,.47-.3.54-.58.09-1.06-1.69-1.31-4.6-1.76-5.55-.18-.39,0-.31.34-.17,3.93,2,9.43,4.37,11,8.87.27.79-.17.8-.43.3a10.63,10.63,0,0,0-2.54-3.12A3.07,3.07,0,0,0,46.71,62.08Zm6.23,11c-3.31-.48-4.62,1.31-4.85,2.55-.07.39-.15.61-.62.39-.73-.34-3.35-2.39-2.21-5.45.17-.47.52-.39.54.13a2.54,2.54,0,0,0,2,2.68c.62.09,1-.14.23-.67a2.91,2.91,0,0,1-1-3.47c.19-.3.51-.33.46.14a2.86,2.86,0,0,0,2.71,2.88,6.16,6.16,0,0,1,2.7.3C53.46,72.79,53.34,73.1,52.95,73Zm2.82-.24a12,12,0,0,0-5.92-5.25c-.28-.12,0-.29.23-.68s-.86-1.67-.49-1.45a15.91,15.91,0,0,1,6.54,7.21C56.35,73.16,56,73.22,55.76,72.81Zm6.55,4a73.09,73.09,0,0,1-6.47-12c-.17-.4.78.09,1.17,0s1.16-.92,1.22-.62A43.45,43.45,0,0,0,62.71,76.6C62.94,77,62.64,77.27,62.31,76.81Zm7.56-9.22C68.73,69.43,68,73,67.51,76.85c-.07.48-.43.51-.45-.06a76.72,76.72,0,0,1,.48-10c0-.43.59.52,1,.65S70,67.32,69.87,67.58ZM82.1,71.52c0-.11.22-.25.37.1a2.39,2.39,0,0,1-1,2.7c-.79.45-.39.76.22.68a2.34,2.34,0,0,0,2.08-2.56c0-.1.15-.34.34,0s1.18,3.31-2.1,5.22c-.45.26-.52,0-.62-.39C81,75.78,79.57,73.69,76.14,74c-.4,0-.49-.33.11-.48a11,11,0,0,1,3.54.06A2.39,2.39,0,0,0,82.1,71.52Zm-7.3-7.7c6.42-7.5,12-5.06,15.82-6.34.31-.11.45-.13.27.26a15.82,15.82,0,0,1-3.32,5c-.4.35-.63.21-.53-.26.25-1.22-.89-2.95-2.88-3.2-.45-.06-1.61.33-1.23.44,1.74.49,3.71,3.19,2,5.47-.57.77-.92.53-.73-.1.88-2.9-2.78-4.8-3.6-4.5a28.73,28.73,0,0,0-5.49,3.69C74.72,64.64,74.25,64.46,74.8,63.83Zm-2.48,9.62a16.3,16.3,0,0,1,8-5c.42-.11-.63.7-.56,1.09s.61.8.3.84c-4.28.56-5.39,1.87-7.51,3.44C72.16,74.13,71.95,73.87,72.32,73.44ZM84.26,99.06c-8.33-1.19-10.78-7.83-11.77-12.49-.13-.48.2-.76.51-.3a13.87,13.87,0,0,0,5,4.83c.54.27.57.51.12.56-1.17.12-2.29,1.65.06,3.79-.94-1.67.29-3.57,3.34-3,1,.17,1,.64.38.7-3,.26-2.53,2.81-1.71,3.42a12.2,12.2,0,0,0,4.22,1.87C85,98.58,85.17,99.19,84.26,99.06ZM96,122.38c-1.55,5.86-8.5,6.79-11.27,7.84-.31.12-.54,0-.51-.38a17.52,17.52,0,0,1,1.87-5.48c.25-.41.59-.58.71-.14.29,1.15,1.2,3,3.32,2.94.82,0,1.57-.63,1.14-.62-2,0-4.07-2-3.21-4.25.31-.8.7-.71.79-.1.41,2.81,3.69,3.46,4.39,3A7.79,7.79,0,0,0,95.6,122C95.84,121.54,96.22,121.64,96,122.38Zm4.8-1.8a2.84,2.84,0,0,0,3.72-.4c.68-1,.12-2.61.5-6,.07-.62.37-.5.4-.11.26,3.3-.49,6.9,2.89,8.87.34.2.37.29,0,.66a5.69,5.69,0,0,1-6.78-.28c-.37-.33-.3-.62.18-.43,1.7.65,3.41.07,3.81-.87.25-.57-.15-1-.87-.41a3,3,0,0,1-4.12-.64C100.26,120.62,100.44,120.31,100.83,120.58Zm-.39-15.38a57.49,57.49,0,0,1-.34,8.46c0,.38-.48-.43-.84-.61s-1.54.52-1.39.3c1.08-1.5,1.63-4.92,2.15-8.28C100.08,104.66,100.43,104.68,100.44,105.2ZM93,113.08a36.49,36.49,0,0,0,5-9.08c.2-.46.55-.42.41.13a81.68,81.68,0,0,1-3.19,9.62c-.16.4-.61-.5-.93-.69S92.7,113.47,93,113.08Zm14.1-31.64c.71-.57,1.18-.61.5.21a45.71,45.71,0,0,0-2.47,4.18,78.91,78.91,0,0,0-5.35,7.09c-.29.49-.1.93.82.93,4.42,0,12.27-2.71,13.77-3.28,5.45-2.08,8.29-4,9.19-8.55a1.44,1.44,0,0,1,1-1.16l12.78-4.23a7.83,7.83,0,0,1,.79,1.13c-2.47.8-10.37,3.38-12.18,4-.63.23-.93.5-1,.86-1,5.42-7.16,8.49-7.52,8.85s-.16.69.6.45c6.89-2.15,14.22-5,14.51-5s2.52,0,1.9.29C103.78,99.28,93.31,98,93.42,97.65,94,95.87,101.48,86,107.13,81.44Zm-55.07,32.3a28.56,28.56,0,0,1,2.65,4,6.83,6.83,0,0,0-.39-3.13c-.67-1.57-1.15-2.48-1.07-3.12.15-1.22,2.7-2.73,5.29-3.55,5.36-1.69,23.32-2.68,25-2.7a33.16,33.16,0,0,1,5.42.34c1.47.21,1.26,0-.1-.57a14.17,14.17,0,0,0-4.25-.88c-2.09-.21-12.06-.16-30.39,1.63-.47,1.59-2.37,3.5-2.88,4.19C50.54,111,51,112.33,52.06,113.74Zm1.62-5.6c1.23-1.1,4.63-1.72,6.24-1.89.91-.1,1,.29.09.5a21.88,21.88,0,0,0-5.79,2.16C53.74,109.24,52.93,108.82,53.69,108.15ZM26.67,99c-.9-6.82-1-16.21,1.73-19.35.21-.25.4-.34.39.15-.11,5.16.24,16.11,3,31.87a4.31,4.31,0,0,0-1.18-.46A116.57,116.57,0,0,1,26.67,99Zm102.2-16.66a2.08,2.08,0,1,1-2.08,2.08A2.08,2.08,0,0,1,128.87,82.37Zm-105.68,45C5.24,124.2.67,117.64.07,116.53c-.15-.28-.1-.36.35-.13a67.81,67.81,0,0,0,9.71,4.13,63,63,0,0,0,7.92,4,79,79,0,0,1-13.78-5.38c-.62-.32-.7-.08-.14.25a69.24,69.24,0,0,0,18.36,6.88A3.67,3.67,0,0,0,23.19,127.38Zm8.36-24.05c-.71-6.57-1.94-23.28,3.74-28.76.24-.23.47-.25.36.24-1.84,8.45-.41,33.26,1.19,41.69.41,2.19,1.05,1.59.78-.07-.2-1.24-.76-5.58-1.25-11.26l.06.41c-.44-8.26.35-16.7,3.23-19.73.39-.41.59-.49.5,0-.59,3.48-1,10.48-.22,20.68-.11.11-.23.2-.34.32a8.67,8.67,0,0,0-1.44,2.45c-1.3,3.77-.08,9.4,4,15l1.5,1.91.47.52c2,15.14,6.82,28.94,16,33.67-.16.25-.35.51-.56.78-1.28-.47-4.83-2.8-7.87-6.93-1.35,4.37-.93,7,.08,8.52-5.78-3.63-10.57-11.84-14.87-27a11.33,11.33,0,0,1-.51-3.83,20.92,20.92,0,0,0-.52-6.86C35.29,122.62,33.2,114,31.55,103.33ZM137.6,50.1l-.18-1.3,1-.13.21,1.3Zm42,168.57a15.47,15.47,0,0,0,2.44-5.65,7.07,7.07,0,0,0,1.78.16,9.08,9.08,0,0,1-1.53,3.34c-.3.41,0,.63.48.2a6.71,6.71,0,0,0,2-3.64c.26,0,.51-.08.8-.15-.74,3.39-1.63,4.34-5.37,6C179.58,219.22,179.41,219,179.62,218.67ZM156.37,77.35a25,25,0,0,1,3.77,2.18c.34.27.45.48-.5.26-4.81-1.13-13.37-1.69-15.07-1.79a15.81,15.81,0,0,1,4.23,9.92c0,.81-.46.79-1.43.32l-.7-.37c.15,1.78.25,3.56.28,5.21,0,.43-.65-.44-1-.52s-1.49.27-1.37,0a17,17,0,0,0,1-5.39,12.47,12.47,0,0,1-2.87-2.78c-1,2.48-3.15,3.53-5.39,5.36-1.52,1.36-1.86,1.87-2.21,2.9-.28.81,1.68,4.21,4.85,3.76.69-.1.9.22.16.78-2.27,1.71-5.16-.37-5.82-2.26-.14-.42-.46.74-.4,1.21.16,1.31,2.44,2.93,3.78,2.86.51,0,.68.23.32.59a15,15,0,0,1-4.93,2.76c-.39.15-.56,0-.58-.37-.29-3.95.14-7.61,2.16-10.51l.28-.38A11.19,11.19,0,0,1,137,88.92c1.94-1.64,4.15-3.19,5-5.16.28-.8.79-.91,1.31-.05,1.6,2.66,4.29,3.51,4.74,4A16.15,16.15,0,0,0,141,75.79a21.33,21.33,0,0,1-3.27-.11c4.88,4.63.73,9.65-2,12.31-5.08,5-4.51,10.29-4.37,14.54,0,1.07.34.9,1.27.7a13.5,13.5,0,0,0,7.83-4.37c1.8-2,1.67-4.17,4-4.8,1.1-.3,2.41.42,2,2.29-.52,2.66-6.57,6.84-8.3,11.34A25.8,25.8,0,0,0,137,121.43c.15.94.5,1.1,1,.79,6.54-3.85,9-8.54,9.55-9.75,1-2.21.83-5.84,1.36-8.87.36-2,3.35-2.21,2.56,1.25-1.34,5.91-.4,9.56,2.29,12.57.45.51,1,.54.79-.37-1-4.91,2.5-7.17,3-11.79.29-2.79-.26-4.19-.09-6.55s2.37-2.52,2.73-.13c1.12,7.46,1.28,21.33-5.61,24.06-.59.23-.67.37-.28.9,2.27,3.12,12.6,4,10.38-7.74-.41-2.19,2.08-2.29,2.06.05-.06,9.22,3.17,10.8,4.93,12.25.32-.27.62-.53.9-.79-2.88-1.8-4.42-3.61-4.7-8.52,0-.81.42-.89.58-.16a5.66,5.66,0,0,0,1.13,2.71c1.1,1.38,4,.53,3.56-1.53-.13-.6.29-.85.62,0,1,2.63-1.73,3.92-3.51,3.35-.37-.12.17.82.86,1.16a2.86,2.86,0,0,0,3.95-2.38c0-.45.36-.46.57,0a8.86,8.86,0,0,1,.58,1.6s0,0,0,.06a3.34,3.34,0,0,1,.95-.5c-1.27-4.27-5.27-5.4-6.8-7.48-1-1.29.33-2.22,1.69-1.3s4.84,3.31,7.69,3.23a4.46,4.46,0,0,0,4.2-2.8,20.67,20.67,0,0,0,1.34-5c.29-3.17-4.51-5.12-5-5.28s-.69,0-.75.55a9.54,9.54,0,0,0,.63,4.19c2.82.6,3.55-1.62,1.51-3-1.26-.72-.76,1.66-.67,2.19s-.13.74-.36.16a9,9,0,0,1-.53-3c0-.47.11-.54.51-.36a10.94,10.94,0,0,1,1.27.65l0,0c3.65,2.08,1.55,6.15-3.32,4.17-3.83-1.56-6.85-5.9-8-9-.41-1.1.25-1.46.89-1.28,11.86,3.4,22.93-4.14,21.22-18.53-.19-1.56.33-1.48.52-.45.06.3.1.6.14.89,4.37-3.35,7.55-.59,8.17.57a7.3,7.3,0,0,1-2.69,1.08c-.74,1.39-2.8,4.44-5.56,5.77q-.13.62-.29,1.21a15,15,0,0,0,6.39-6.47c2.17-.31,5.18-1,9.42-7.69,2.61-4.1,7.3-2.31,6.41,1.37-.08.33,0,.43.42.3,5.54-1.6,6.45-9.45.14-10.54-.54-.09-.87-.69-.12-1.28,7.09-5.53,6.18-9.32,7.48-14.58.07-.3-.07-.43-.41-.22-5.76,3.47-11.6,4.39-14.27,11.23-.49,1.26-1.26,1.28-1.65.31a95,95,0,0,0-9.57-18.12c-2.51-3.68-2.82-5.67-2.36-7.52,1-4.1,5.07-8,9.47-8.09,1.54,0,1.58.42-.22.68a8.72,8.72,0,0,0-1.13.25,6.15,6.15,0,0,0-2.09,4,6.34,6.34,0,0,0-3.41,0c-.18.26-.34.53-.49.8,7-1.69,9.88,5.31,7.15,10.58-.21.4-.06.54.41.52,9.93-.27,9.54-7.84,9.38-8.59s0-1,.63-1c6.32.1,12.89-4.45,12.8-10.62a10.39,10.39,0,0,0-2.6-7.16c-1-1.05-3.56-1.93-7.43-1.75-.39,0-.45.09-.4.52.59,4.47,3.84,6.8,4.82,7.92a5.58,5.58,0,0,0,2.07-5.68c-.08-.58.25-1.33.53-.12,1.3,5.81-2.85,10.31-18.43,8.4-3.38-.41-5.63-.09-7.75,2.28-1.11,1.24-9.64,10.78-10.46,12.12a5.92,5.92,0,0,0-.24,5.39c1.15,3.11,6.12,10.16,8.21,14.86,1.48,3.33-1,5.4-3.16,2.65-7.95-10-12.59-7.39-20.74-9.13.22,3,2.93,9.6,10.79,12.71.94.37.82,1.08,0,1.26-5.91,1.27-4.75,7.29,1,9.44,0-6,7.32-6.5,8-.14,1.13,10.75-12,17.37-22.29,8.92-4.21-3.47-5.52-8.42-11.93-11A4.71,4.71,0,0,1,156.37,77.35Zm-12.08,5.37A7.71,7.71,0,0,0,145.56,84c.28.2.48.15.33-.36a15.86,15.86,0,0,0-.73-1.81c-.25-.55,0-.6.29-.2A9.16,9.16,0,0,1,147,85.45c.08.76-.18.65-.65.27A9.39,9.39,0,0,1,144,83.1C143.63,82.57,144,82.38,144.29,82.72Zm-3-4.89a13.12,13.12,0,0,1,1.54,4.3c.08.43-.21.07-.45.1s-.47.38-.49.07a12.27,12.27,0,0,0-.93-4.23C140.61,77.22,140.89,77.19,141.27,77.83Zm5,34.54c-2.88,1.92-5.59.36-6.17-1.65-.13-.44-.54.78-.46,1.5a3.41,3.41,0,0,0,4.23,2.71c.52-.16.68.09.3.6a21.46,21.46,0,0,1-5.45,4.81c-.43.25-.75-.08-.75-.48-.08-4.24-1.44-11.31,6.83-19.17.72-.69.91-.17.47.34a29.06,29.06,0,0,0-4.35,7.13c-.32,1,1.79,4.5,5.21,3.37C146.84,111.27,147.2,111.74,146.25,112.37Zm4.9-11.76c-.36-.07-1.38.58-1.33.28a49.25,49.25,0,0,0,1-13.71c0-.49.25-.57.38,0a65.17,65.17,0,0,1,1,14C152.12,101.54,151.49,100.67,151.16,100.61Zm2.47,13.67c0,1-.21.81-.63.24a10.34,10.34,0,0,1-1.2-5.59c.07-.51.31-.28.52.06.7,1.19,2.25,1.17,2.92-.57.1-.25,0-.6-.27-.37-1.37,1.2-2.74.21-2.88-1.9,0-.47.24-.55.36-.15.4,1.34,2.34,2,3.28-.24a11.72,11.72,0,0,0,.5-3.81c0-.84.42-.68.49-.18C157.59,108.18,153.65,110.46,153.63,114.28Zm5.05-18.63c-.44.05-1.33.81-1.37.47a66.89,66.89,0,0,0-3.49-14.77c-.18-.52.1-.71.42-.16,2.12,3.54,4.31,9.61,5.72,14.64C160.09,96.3,159.09,95.6,158.68,95.65ZM174.14,108c3.74,3.95,7.5,3.8,9,3.53.45-.08.67.12.56.69-.78,4.23-3.09,5.09-6.1,4.29-.54-.15-.58-.57,0-.63,2.54-.28,3-2.38,2.4-3.35-.31-.53-.73-.36-.76.1-.09,1.69-1.74,3-4.35,2.5-.74-.16-.67-.53,0-.6,2.08-.21,2.52-1.58,2.3-2.29-.4-1.35-1.66-1.45-3.3-3.74C173.52,107.93,173.83,107.66,174.14,108Zm42.71-38.65c-.05-.47.27-.44.46-.14a2.91,2.91,0,0,1-1,3.47c-.73.53-.39.76.23.67a2.54,2.54,0,0,0,2-2.68c0-.52.37-.59.54-.12,1.14,3.05-1.48,5.11-2.21,5.45-.47.22-.55,0-.62-.39-.22-1.24-1.53-3-4.85-2.55-.39.06-.52-.26,0-.52a6.16,6.16,0,0,1,2.7-.3A2.86,2.86,0,0,0,216.86,69.34Zm-6.32-7.28c1.56-4.5,7.06-6.89,11-8.87.29-.15.52-.22.34.17-.45,1-.7,3.86-1.76,5.55-.28.45-.54.38-.58-.09a2.59,2.59,0,0,0-3-1.88c-.44.11-1.44.79-1,.78,1.8,0,4.13,1.6,2.89,4.24-.41.87-.72.78-.73.12a3.07,3.07,0,0,0-4.12-2.84A10.69,10.69,0,0,0,211,62.36C210.7,62.86,210.26,62.85,210.53,62.06Zm4.22,3.36c.37-.22-.66,1.09-.48,1.45s.51.56.23.68a12,12,0,0,0-5.92,5.25c-.26.41-.59.36-.37-.17A15.94,15.94,0,0,1,214.75,65.42ZM201.63,76.6a43.4,43.4,0,0,0,4.49-12.46c.06-.3.8.5,1.22.62s1.33-.38,1.17,0a73.24,73.24,0,0,1-6.47,12C201.7,77.27,201.4,77,201.63,76.6Zm21.14-57.08c-3.87-2.17-4.43.06-.86,3.86.64.68.42,1.15-.09.69-2-1.78-3.23-3.55-3.57-5.58-.1-.61,0-.7.73-.73a6.31,6.31,0,0,1,4.29,1.45C223.6,19.53,223.57,20,222.77,19.52Zm-5.06,14.67a12.2,12.2,0,0,0,3.77-1.88,2.17,2.17,0,0,0-.94-3.86c-.37-.06-.44-.4,0-.5,2-.5,3.65.81,3,2.71-.13.37.12.44.32.23a2.24,2.24,0,0,0-.67-3.76c-.41-.13-.44-.25,0-.61a8.1,8.1,0,0,0,2.34-3.61c.24-.72.71-.7.92.33,1.24,6.12-3.11,10.35-8.62,11.59C217.24,35,216.88,34.5,217.71,34.19Zm-5.65,6.35a4.17,4.17,0,0,1-4.59-.14c-.3-.23-.76.64.1,1.27a4.08,4.08,0,0,0,3.61.42c.35-.11.67-.11.32.35-1.21,1.59-3.73,2.29-5,2.49-.77.13-.95,0-.69-.73a9.48,9.48,0,0,0-1.21-8.43c-.42-.62-.16-.85.57-.21a7.56,7.56,0,0,1,1.75,2.67c.54,1.23,3.5,2.05,5.32.75C212.72,38.66,212.75,40.08,212.06,40.54Zm2.13-5.36c.37.22-.61.29-.89.57s-.27,1.2-.48,1A14.14,14.14,0,0,0,204.76,32c-.47-.13-.53-.45,0-.41C208.11,31.83,212.28,34,214.19,35.18Zm-19.32,9.54a17,17,0,0,0-4,4.06,5.3,5.3,0,0,0,.64,2.45c.23.53-.08.85-.5.28A26.66,26.66,0,0,1,188.76,47a1.71,1.71,0,0,1,.33-1.86,18,18,0,0,1,3.46-3.38c.62-.43,1.2-.54,1.63.11C194.74,42.7,195.44,44.29,194.87,44.71Zm1,22.69c.38-.13.92-1.08,1-.65a76.71,76.71,0,0,1,.48,10c0,.57-.38.54-.45.06-.54-3.82-1.22-7.42-2.36-9.27C194.31,67.32,195.41,67.54,195.83,67.4Zm-15.7-2.35c.19.63-.16.87-.73.1-1.7-2.28.28-5,2-5.47.38-.11-.78-.49-1.23-.44-2,.25-3.14,2-2.88,3.2.1.47-.12.61-.53.26a15.83,15.83,0,0,1-3.32-5c-.18-.39,0-.37.27-.26,3.79,1.28,9.4-1.16,15.82,6.34.54.63.08.81-.32.41a28.68,28.68,0,0,0-5.49-3.69C182.9,60.25,179.25,62.15,180.12,65.05ZM188.2,74c-3.43-.27-4.83,1.82-5.22,3.28-.1.38-.17.66-.62.39-3.28-1.91-2.35-4.79-2.09-5.22s.34-.09.34,0A2.34,2.34,0,0,0,182.69,75c.62.08,1-.22.22-.68a2.39,2.39,0,0,1-1-2.7c.15-.35.35-.21.37-.1a2.39,2.39,0,0,0,2.32,2,11,11,0,0,1,3.54-.06C188.7,73.63,188.6,74,188.2,74Zm-3.92-3.56c-.31,0,.22-.41.3-.84s-1-1.2-.56-1.09a16.3,16.3,0,0,1,8,5c.37.43.15.69-.24.4C189.66,72.27,188.55,71,184.28,70.4Zm-10,28c.73-.06,2.87,0,3.36-.3.84-.55,1.39-2.73.52-4.48-.32-.64.74-.62,1.75-.57.56,0,.86.54,1.1,1.25a6.5,6.5,0,0,1-.29,3.65,2.12,2.12,0,0,1-1.84,1.34,18,18,0,0,1-4.63-.31C173.59,98.73,173.7,98.42,174.28,98.38Zm-8.56,14.34c-.44,0-1.43.52-1.35.21.55-2.1.16-5.74-.43-9.55-.07-.48.27-.62.45-.07a76.28,76.28,0,0,1,2.45,9.75C166.91,113.48,166.12,112.73,165.72,112.72Zm5.79-.24c.14.41-.84,0-1.24,0s-1,1.29-1,1a45.37,45.37,0,0,0-2-10.13c-.15-.46.17-.65.43-.14A76.44,76.44,0,0,1,171.5,112.48Zm-8.06-24.4a41,41,0,0,0,7.37,10.19c.21.22-1,.25-1.26.51s-.28,1.31-.53,1a45.1,45.1,0,0,1-5.9-11.46C162.95,87.73,163.2,87.65,163.44,88.08Zm-2.25,28c0,1.86-.81,3.05-.44,4.11.22.62,1.25,1.1,2.77.35.43-.21.57,0,.26.34a3.12,3.12,0,0,1-4,.77c-.78-.47-1-.16-.75.41.41.94,1.89,1.4,3.59.74.48-.19.55.11.18.43a5.69,5.69,0,0,1-6.78.28c-.35-.38-.34-.47,0-.66a10.06,10.06,0,0,0,4.76-7C160.83,115.48,161.18,115.5,161.19,116.12Zm53.21,108.49a29.38,29.38,0,0,0,10.06,5c-.53,1.21-1.27,2.69-1.65,3.4a1.65,1.65,0,0,0-.18.77C219,231.48,215.75,228.27,214.39,224.61Zm-13.7-60.28a15.62,15.62,0,0,0,2,.55h.22c2.1,6.18,10,9.14,10,13.21l-.13.67,0,.17C211.47,175.8,202.3,170.76,200.69,164.32Zm-21.05,52.88c-.35.55-1.55.62-1.1.09a13.39,13.39,0,0,0,2.21-4.68s.52.1.51.4A9.66,9.66,0,0,1,179.64,217.21ZM120.42,71.65c1.26-.41,1.45-1.41.26-1.58s-4.25.75-6.09,1.46a3.69,3.69,0,0,0-.78-.81,15.81,15.81,0,0,1,5.71-1.8,2.48,2.48,0,0,1,2.08.51,18.89,18.89,0,0,1,2.5,3.31,12.61,12.61,0,0,1-4.7,1.06c-.36,0-.26-.31.22-.57s.3-.57-.23-.38c-1.3.46-1.47,1.46-.25,1.65a12.36,12.36,0,0,0,5.44-1.12,6.73,6.73,0,0,0,1.3,1.23,18.26,18.26,0,0,1-6.31,1.13c-2.24-.27-3.49-2.07-4.47-3.48,1.48-.58,4.1-1.57,5.32-1.51.35,0,.25.31-.22.54S119.91,71.81,120.42,71.65Zm36.76,38.62a17.38,17.38,0,0,0,2,3.36c-.08.38-.16.75-.25,1.11a21.79,21.79,0,0,1-2.17-3.45ZM127.53,70.64c-1-.93-2-.61-1.57.56a10.07,10.07,0,0,0,2.66,3.39,5.87,5.87,0,0,1-.81-.13c-3.22-.81-3.62-4.63-5.77-5.7l.16,0c1.82.17,3.85.19,6.2.18a9,9,0,0,1,2,3.07c.12.34-.2.36-.61,0s-.64-.08-.27.35c.89,1.05,1.88.85,1.63-.36a9.75,9.75,0,0,0-1.66-3.07h1.08c1.5.94,2,3.74,3.65,5.26a21.86,21.86,0,0,1-4.16.47,10.09,10.09,0,0,1-3.35-3.54c-.16-.32.15-.38.61-.08S127.94,71,127.53,70.64Zm30.88,35.15c.31-2.93-.43-4.06-.25-6.55.13-1.75,1.18-1.6,1.37.26a52,52,0,0,1-.17,13.15,24.74,24.74,0,0,1-1.78-3.46A14.34,14.34,0,0,0,158.41,105.79Zm4.22-57.38.37-2-1.18.13-.38,2.06-1.11.18.37-2-1.19.13L159.12,49l-1.11.18.37-2-1.19.13-.38,2.05-1.11.18.37-2-1.18.13-.38,2-1.11.18.37-2-1.19.13-.38,2.06-1.41.24.67-3.6h0c3.54-.56,8.87-1.46,13.23-2.17L164,48.2h0ZM222.84,240.1a8.62,8.62,0,0,0,1.07-4.24,6.43,6.43,0,0,0,2.43-.4,11.24,11.24,0,0,1-1.57,3.55c-.28.42,0,.62.49.17a9,9,0,0,0,2.15-4.15,6.51,6.51,0,0,0,.63-.33c-.21,3.49-3.22,5.78-5.08,6.5C222.26,241.48,222.26,241.33,222.84,240.1ZM133,70.44c1.62-.15,4.63-.4,5.86,0,.34.12.16.38-.38.48s-.46.45.1.43c1.38,0,1.86-1,.74-1.5s-4.76-.48-6.77-.28a6.39,6.39,0,0,0-.47-.71h.62c2.85,0,5.28,0,7.44,0a24.41,24.41,0,0,1,1.51,3.63,12.79,12.79,0,0,1-4.68.17c-.36-.06-.2-.36.32-.52s.4-.5-.16-.42c-1.36.21-1.71,1.17-.54,1.58a12.5,12.5,0,0,0,5.41-.09,3.53,3.53,0,0,0,1,1.22,18.19,18.19,0,0,1-6.41-.13C134.59,73.67,133.8,72,133,70.44Zm86.67,169.83a23.68,23.68,0,0,1-5.06-4.26,31.2,31.2,0,0,0,6.91,1.64C221,238.56,220.27,239.52,219.69,240.28ZM135.18,84.22a2.08,2.08,0,1,1,2.08-2.08A2.08,2.08,0,0,1,135.18,84.22Zm43,39.6c.6-.06,2.15-.21,2.78-.25a2.37,2.37,0,0,1,2.64,1.29,11,11,0,0,0,3.05,2.81c.76.38,3.78,1.8,4.68,2.27a34.61,34.61,0,0,1,4.47,2.67,5.88,5.88,0,0,0-.54,1.12c-.14.45.08.73.63.67a13.28,13.28,0,0,0-3.7,4c-3,.41-4.35-2.37-4.68-3.12a43.22,43.22,0,0,0-4.53-7.84c-.34-.45.43-1.74-1.69-.77a4,4,0,0,1-3.31,0,1.76,1.76,0,0,0-2.08.79,36.92,36.92,0,0,1-3.49,4.17c-1,1.14-.5,1.35.53.46a32.63,32.63,0,0,0,3.75-4c.53-.66.84-.77,1.26-.49a3.05,3.05,0,0,0,3.16,0c.54-.33.84-.18,1.2.38a80.48,80.48,0,0,1,5,10.12c1,2.28,1.46,2.73,3.72,2.74a7.57,7.57,0,0,0-.31,1.62,4.66,4.66,0,0,1-2.46-.2,2.87,2.87,0,0,1-1.88-2.26c-.28-1.12-2.35-7.54-4.13-10.32-.8-1.24-1.43-1.17-1.89-1.21a11.54,11.54,0,0,0-1.87,0,3.19,3.19,0,0,0-1.88.66c-.64.51-3.15,3.37-4.85,4.58h-6.15a3.29,3.29,0,0,1,1.93-1.93,29.59,29.59,0,0,0,8.65-7A2.36,2.36,0,0,1,178.13,123.82Zm-19.51-51.1a3.25,3.25,0,0,1,0,1.62,12.54,12.54,0,0,1-5-.49c-.34-.11-.15-.38.39-.47s.47-.44-.09-.43c-1.38,0-1.86.9-.77,1.48a12.71,12.71,0,0,0,5,.74c-.72,1-2.18,1.49-4.43.86a3.42,3.42,0,0,1-2.05-2.09,25.61,25.61,0,0,1-.92-2.88,14.7,14.7,0,0,1,5,.54c.33.15.12.39-.42.44s-.5.41.06.44c1.37.08,1.94-.82.86-1.43s-3.82-.88-5.8-.86a4,4,0,0,0-.77-1.28C149.33,68.55,157.72,68.72,158.62,72.71Zm-11.71-.56c.66,1.21,1.68,1.21,1.67,0a10,10,0,0,0-1.2-3.69,2.78,2.78,0,0,1,1.53,1c1.29,1.61,1.2,4.27,2.68,6.19a19.62,19.62,0,0,1-4.07-.34,10.33,10.33,0,0,1-3.06-4.58c-.09-.35.22-.34.61,0s.63.13.3-.33c-.81-1.11-1.82-1-1.65.23A10,10,0,0,0,146,74.95a7,7,0,0,1-.76-.27c-2.68-1.18-3.1-4.48-3.86-5.82a24.35,24.35,0,0,0,4.89-.62A9.47,9.47,0,0,1,147.86,72c0,.36-.27.31-.6-.12S146.65,71.66,146.92,72.15ZM159.3,58.73c.51-.68,1-1.37,1.42-2-.94,3.76-2.45,9.79-2.66,10.49-.39,1.32-1,1.71-2,1.59-1.15-.15-2.25-2.18.11-3.39.63-.32.38-.68,0-.67a4.1,4.1,0,0,0-3,1.83,1.9,1.9,0,0,1-1.63.73l-2.39,0a25.16,25.16,0,0,0,9.28-7.34c-.4,1.92-1.09,5.65-1.12,5.95-.09.73.17.86.43,0C157.86,65.12,158.89,60.53,159.3,58.73ZM154,66.89a3,3,0,0,0,.17,1.42,18.36,18.36,0,0,0-1.82-.33l.33-.11C153.63,67.46,154,66.72,154,66.89ZM221,240a19.32,19.32,0,0,0,2.09-3.34,22.12,22.12,0,0,1-1.28,3.83,4.08,4.08,0,0,1-.75.26C220.65,240.83,220.37,240.84,221,240Z"/></svg>