<svg id="Layer_1" data-name="Layer 1" xmlns="http://www.w3.org/2000/svg" viewBox="0 0 241.04 283.18"><defs><style>.cls-1{fill:#1d1d1b;}</style></defs><title>crest-black</title><path class="cls-1" d="M79,256.35c0-.27-.38-.09-.34-.39.68-1.61,1.83-2.78,2.35-4.56-.46-.15-1.57-.17-1.71.37,0,.26.36.07.27.39a3.52,3.52,0,0,1-1,1.41c0,.15,0,.31,0,.46-.61.61-.56,1.49-1.15,2.08s-1.6.2-2,1c.85.11,1.31-.29,1.91-.37S78.8,257,79,256.35Z"/><path class="cls-1" d="M187.72,256.9c.23-.5.76-.7,1.21-1,0-.26.31-.82,0-1.12-1,0-1.19.88-1.95,1.15a3.25,3.25,0,0,1-.64-1.14c.54-.4,1-.88,1.55-1.29.22,0,.22.52.46.34s0-1.29,0-1.85c-.16,0-.14-.12-.33-.07-.42,1.07-1.87,1.08-2.17,2.28-.21,0,0-.4-.32-.34-.37.27-.38,1-.3,1.52a4.18,4.18,0,0,0,.66.41c.45,1.25,1.59,2.06,2,3.35.09.29-.08.59.25.8.91-1.06,2.39-1.52,2.71-3.19-.13-.07-.1-.29-.33-.27a7.35,7.35,0,0,1-2.16,1.81C188.21,257.82,187.82,257.5,187.72,256.9Z"/><path class="cls-1" d="M85.48,256.94c.44-.35.93-.67,1-1.35a1.74,1.74,0,0,0-1.71.5,1.66,1.66,0,0,1-1,1.68c-.42-1.43-1.37-2.82-.9-4.75-.3-.28-1-.06-1.26.09a18.6,18.6,0,0,1-2.61,4.7c-.35,0-.57.14-.58.48,2.12.45,2-1.8,3.19-2.45.27.94,1.13,1.9,1.06,3,0,.45-.4.77-.17,1.26-.1.31-.44.4-.38.87,1.17,0,1.8-1,2-2.16A6.45,6.45,0,0,0,85.48,256.94Z"/><path class="cls-1" d="M184.72,260.88c0-1.56-1.26-2.5-1.84-3.75a1.3,1.3,0,0,1,.87-.58A5.74,5.74,0,0,0,185,253.2c-.21-.13-.35-.32-.72-.28,0,.44.53.44.51.94-.61.65-1,1.5-2,1.75a7.53,7.53,0,0,1-2.49,1.67c-.26.34-.27.93-.62,1.18-.16,0-.12-.23-.33-.21-.4.34-.41,1.33-.3,2,.26.07.2-.19.46-.12.54,1.7,2,2.71,2.09,4.68a2.2,2.2,0,0,0,.71-2.24c-.21-.21-.24.15-.46.13-.3-1.52-2.06-2.22-1.51-4.14.5-.14.78-.49,1.27-.64.22.07.2.38.32.54.36.09.24-.34.54-.32.8,1.16,2.1,2.17,1.63,4.34.23,0,.25.24.46.28.28-.74,1.67-1,1-2.1C185.11,260.51,185.2,261,184.72,260.88Z"/><path class="cls-1" d="M90.53,260.53a2.66,2.66,0,0,0-.85-2.5c-.48,0-1,0-1.27-.3-.05-.24.11-.29.05-.53a1.68,1.68,0,0,0-1.52.17c-.08.36.26.27.21.59a46.11,46.11,0,0,0-3.08,4.44c.19.49.72.38,1.21.57.33.13.57.49.94.58s.94-.09,1.46.1C89.13,263.08,89.69,261.68,90.53,260.53ZM87.67,263c-.82.18-1.62-.64-2.28-1,.41-1.49,1.58-2.25,2.24-3.49l1,0a2.22,2.22,0,0,1,.71,2A4.15,4.15,0,0,1,87.67,263Z"/><path class="cls-1" d="M177.27,259.4h-.2c-.3.41-.15,1.28-.37,1.78.11.11.39.06.59.08,0,.16-.12.19-.08.4a2.58,2.58,0,0,1,1.08,2.07c-1.41.08-3.64.27-4.43-.62-.21-.53-.31-1.18-.9-1.34-.93,1.16.31,1.93.74,2.93,0,.09,0,.23,0,.33.21.77.95,1.45,1.15,2s-.25,1,.17,1.53c.71,0,.46-1.06.69-1.57-.08-.24-.33-.34-.38-.61,0-.73-.53-.88-.63-1.47,1.38.34,3-.25,4,.28.4.2.47.65,1,.55.22-.15.12-.64.15-1A35.48,35.48,0,0,1,177.27,259.4Z"/><path class="cls-1" d="M95.65,264.66v-.4c-.35-.38-1-.4-1.41-.76-.14-1.13.36-1.64.54-2.46-1.35-.7-1.66,1.35-2.62,1.45-.39,0-1-.34-1.46-.23a.7.7,0,0,0-.65.68c.36.14,1.12-.13,1.13.37-.42,1-2.27.55-2.62,1.58.78.08,1.73,1.1,2.39.28,0-.34-.36-.3-.41-.59.45-.31,1-1,1.64-.9,1.22.12.47,2.94,1.21,3.82a1.93,1.93,0,0,0,1.69-1.3c-.46-.07-.4.35-.79.35,0-.54-.32-1.42,0-1.86C94.73,264.77,95.3,265,95.65,264.66Zm-2.89-1.79c0-.2.19-.34.33-.21C93.12,263,92.91,263.05,92.76,262.87Z"/><path class="cls-1" d="M171.4,267.9c-.28.32-.74.73-1.21.64.06-.58-.23-.81-.24-1.33a2.23,2.23,0,0,1,1.54-.76,2,2,0,0,0,0-1.12c-.79.06-1.18.53-2,.55a3,3,0,0,1-.57-1.2,5.6,5.6,0,0,1,1.8-.76s.3.21.33.21a1.5,1.5,0,0,0,.5-1.71,26,26,0,0,0-3.14,1.53c-.19.73-.73,1.09-.7,2,.49.15.33-.38.73-.32.38,1.35,1.44,2.55.91,4.19a1.1,1.1,0,0,1,.26.21c1.14-.12,1.47-1.08,2.61-1.21.23-.33.74-.71.55-1.25C172.35,267.47,172.06,268,171.4,267.9Z"/><path class="cls-1" d="M100.87,266.93c-.44-.75-2.3-.83-2.58.13.21.13.51-.09.86,0a1.2,1.2,0,0,1-.88,2.21,2.27,2.27,0,0,1-1.51-2.42,3.43,3.43,0,0,1,1.54-2.35c.5-.21.61,0,1.32,0,.59.48,1.3,2.29,2.21,1a9.7,9.7,0,0,0-.83-1.51c-3.12-1-5.45,1.26-5.27,4.49A2.56,2.56,0,0,0,98.55,270c.25-.05.48-.41.85-.55.13-.05.44,0,.53-.08C100.71,269,100.84,267.79,100.87,266.93Z"/><path class="cls-1" d="M166.55,265.21c-.54-.42-1.19-.53-1.2.24s.92,1,1,1.94a4.13,4.13,0,0,1-.72,3c-.45-.06-.53-.48-.64-.87-1.36-.76-1.8-2.72-3.32-3.12a4.88,4.88,0,0,0-.15.92,43.62,43.62,0,0,0,4.15,4.66c.74-.31.38-1.77,1-2.23-.07-.88.49-1.79.39-2.78C167,266.35,166.62,265.81,166.55,265.21Z"/><path class="cls-1" d="M105.49,269c-.36-1.09.38-2,.06-3-1.24.19-1.25,1.86-2.4,2.17-.49.13-1.32-.2-1.51.43,0,.25.42,0,.47.19-.35.88-1.79.71-1.95,1.77.74.16,1.85.59,2.25-.18,0-.34-.41-.16-.47-.39.34-.21.45-.65.84-.81.77.31,1.37.25,1.68.89.41.85.18,2.38,1.05,2.63.4-.23,1.13-.46,1-1,0-.16-.41,0-.47-.12,0-.53-.39-.59-.29-1.19.48-.19,1.06-.05,1.12-.49C106.91,269.21,105.86,269.43,105.49,269Zm-1.27-.37c-.29.06-.27-.21-.41-.32a.36.36,0,0,1,.39-.34A.77.77,0,0,1,104.22,268.64Z"/><path class="cls-1" d="M113.14,267.52a4,4,0,0,0-1.32.43,1,1,0,0,0-.8-.18c-.4-.46-1.29-.34-2.06-.48-.41-.07-.77-.35-1-.37-.8-.09-1.39.25-1.37,1.09.79-.12,2.08-.34,2.2.55,0,.3-.37.78-.5,1.34s-.25.87-.37,1.27a13.8,13.8,0,0,0-.23,1.46c-.09.24-.44.22-.38.61a1.59,1.59,0,0,0,1.51-.63c-.41-1.27.75-2.51.71-4.06.82-.39,1.59.38,2.26.28S112.78,268.05,113.14,267.52Z"/><path class="cls-1" d="M159.2,268.24c0,.22.42.11.46.34,0,.79.62,1.25.36,2.06-.79-.1-1.36-.43-2.11-.57-.85-.37-.63-1.77-1.34-2.28a1.67,1.67,0,0,0-.75,1.18c.49.35.43.76.5,1.47.12,1.2,1,2.34.92,3.6,1.41-.65.08-2.14.13-2.91.28,0,.32.3.59.34a4.31,4.31,0,0,1,3,1.72c.26,0,.27-.26.47-.32-.25-2.16-1.12-4-1.2-6.12C159.46,266.79,159.36,267.55,159.2,268.24Z"/><path class="cls-1" d="M113.69,268.7c-.46-.49-1,0-1.38.29a13.8,13.8,0,0,1-1,4.4c-.15.29-.49.38-.45.67.09.57,3.7,1.57,3.51,0-.68-.26-1.79-.07-2.2-.61a2,2,0,0,1,.56-1.47,2.65,2.65,0,0,1,1.53.43c.42-.17,1-.51.91-.95-.55-.48-1.83-.21-2.27-.81a2.52,2.52,0,0,1,.57-1.07,4.23,4.23,0,0,1,1.87.55.29.29,0,0,0,0,.46,2.62,2.62,0,0,0,1.23-1.29A9.25,9.25,0,0,0,113.69,268.7Z"/><path class="cls-1" d="M146.89,268.57a7.59,7.59,0,0,1-1.53,1.85,36.1,36.1,0,0,1-3.84.25.72.72,0,0,1-.8.46c-.07.38-.42.72-.27,1.13a3.81,3.81,0,0,1,2.12-.52c0,.3.38.59.46,1s-.07.85,0,1.32.4,1,.33,1.39c-.13.61-1,.69-.87,1.32.43.6,1.13-.09,1.85,0,.11-.26.32-.6.07-.86s-.59.18-.66-.13c.66-1.24-.22-2.79,0-4.17a5.42,5.42,0,0,1,1.85-.06c.44-1,1.37-1.55,1.47-2.91C147,268.63,147,268.55,146.89,268.57Z"/><path class="cls-1" d="M153.54,270c.08.21.3-.12.4.07.07,1.07,1,2.68.85,3.79-.06.37-.54.59-.22,1,.66-.07.87-.79.89-1.31.07-1.61-.81-3.59-.89-5.12C153.9,268.67,153.67,269.31,153.54,270Z"/><path class="cls-1" d="M122.51,271.46a4.2,4.2,0,0,0,1.4-1.52,3.86,3.86,0,0,0-2.84-.34c-.56-.48-1.71.1-1.86.85.2.19.43-.29.66-.06a44.72,44.72,0,0,0-.75,4.7c-.14.4-.63.77-.53,1.19.7,0,.73-.67,1-1.12.17-.28.42-.4.47-.59.14-.55-.18-1.2.4-1.46a2.87,2.87,0,0,1,1.19.14c.14.22-.33.31-.2.73.69,0,1.1-.88,1.4-1.52-.49-.48-1.87-.07-2.31-.6,0-.68,0-1.26.47-1.46.39.25,1.21.07,1.58.34C122.52,270.93,122.33,271.23,122.51,271.46Z"/><path class="cls-1" d="M148.06,275.2c-.23-.26-.14-1.09-.06-1.46.43,0,.65-.28,1.13-.26s.32.42.59.2a2.37,2.37,0,0,0,.4-1.52,23.78,23.78,0,0,1-2.58.59,7.39,7.39,0,0,0-.19-1.52c.73-.06,1.46-.54,2.19-.19.29-.37.72-.6.8-1.19-1.08-.35-2.33.55-3.38.45-1,.56-.4,1.38-.21,2.58,0,.29,0,.62.06.86s.41.63.46,1c.1.67-.22,1.18-.07,1.79.37.08.58-.29.93-.39.77-.23,1.72-.13,2.32-.59,0-.34.25-.48.07-.79C149.45,274.65,149,275.14,148.06,275.2Z"/><path class="cls-1" d="M124,271.33c0,.27.38.11.33.4-.07,1.44-.32,2.56-.28,4-.21.39-.92.61-.73,1.19a2.21,2.21,0,0,0,1.66-1.45c.12-.57-.18-1.19-.12-1.86,0-.2.17-.4.2-.6.15-.94.14-1.95.28-2.78A1.28,1.28,0,0,0,124,271.33Z"/><path class="cls-1" d="M139.8,270.53a1.78,1.78,0,0,0-1.2,1.19c.08.15.44,0,.46.2.16,1.41.38,2.75.45,4.24-.2.28-.66.52-.47,1a2.35,2.35,0,0,0,1.6-1.45c-.62-.92-.24-2.84-.85-3.78C139.91,271.65,140.08,270.77,139.8,270.53Z"/><path class="cls-1" d="M131.32,270.76a1.22,1.22,0,0,0-.93,1.19c0,.21.33,0,.26.27-.06.87.05,1.91-.34,2.45-1.22-.95-2.47-1.85-3-3.52,0-.29.35-.22.27-.59-2.05.07-.83,3.44-1.28,5.16-.11.44-.49.5-.33.93.41,0,.75-.52,1.13-.72.08-.71-.16-1.75.14-2.25.8,1.38,2.78,1.59,3.36,3.19,1.1-.06.25-1.7.67-2.38C130.88,273.25,131.63,272,131.32,270.76Z"/><path class="cls-1" d="M135.21,274.09c.6,0,.55-.42,1.06-.33.95.17.87,2.18-.08,2.45a2.74,2.74,0,0,1-2.64-1.47,3.15,3.15,0,0,1,.34-2.52,2.62,2.62,0,0,1,1.59-.66c.62,0,1,.83,1.65.73a.61.61,0,0,0,.53-.66c0-.66-1.36-1.07-2.31-.94-.53.07-.75.42-1.26.39-1.63,1.08-2.28,5.18,0,6a5.63,5.63,0,0,0,3.12-.78,4.36,4.36,0,0,0,.6-2.58A1.39,1.39,0,0,0,135.21,274.09Z"/><path class="cls-1" d="M217.63,188.25c.16-.54,0-1.17-.45-.18-3,7.06,1.23,11.4,5.12,11.63,4.2.25,7.13-3.18,7.16-8,0-4.16-1.55-6.1-2-10.59-.08-.86-.37-1.36-.46.05-.17,2.76,1.32,6.47,1.1,10.08-.15,2.61-1.94,5.78-5.46,5.66C219.71,196.83,216,194,217.63,188.25Z"/><path class="cls-1" d="M224.77,107.5a3.2,3.2,0,0,1-5.86,1.7c-.21-.35-.66-.17-.46.28a3.65,3.65,0,0,0,6.9-2A.29.29,0,1,0,224.77,107.5Z"/><path class="cls-1" d="M223.76,139.42a4.85,4.85,0,0,0-2.22,3.94c-.38,5.59-.72,6.31-1.51,9.06-.27.92.05,1.05.64.1A22.26,22.26,0,0,0,223,144a3.61,3.61,0,0,1,1.25-2.71c5.21-4.37,15.45-19.06,7.95-33.89-.34-.67-.77-.39-.54.13C237.11,119.58,230,134.36,223.76,139.42Z"/><path class="cls-1" d="M221.28,119.8a6.32,6.32,0,0,1-4.31.77c-.41-.08-.4.18-.17.3a5.13,5.13,0,0,0,4.93-.56C222.26,119.93,221.91,119.44,221.28,119.8Z"/><path class="cls-1" d="M216.81,124.49a6.45,6.45,0,0,0-2.46-1.13c-.19-.06-.24-.2.07-.24a17.08,17.08,0,0,1,1.73,0c.6,0,.57-.27.07-.37a10.28,10.28,0,0,0-4.14.28c-.72.22-.57.56,0,.62a14,14,0,0,1,4.33,1.09C217,125,217.13,124.79,216.81,124.49Z"/><path class="cls-1" d="M211.25,128c.66.21.77,0,.36-.31a7.47,7.47,0,0,0-3.12-.87c-.23,0-.31-.19,0-.31a19,19,0,0,1,2-.43c.64-.13.56-.36,0-.38a10,10,0,0,0-4.41,1.12c-.72.42-.48.8.18.76A14.06,14.06,0,0,1,211.25,128Z"/><path class="cls-1" d="M200.95,132.49a15.37,15.37,0,0,1,5.45,0c.75.15.84-.1.36-.38a8.31,8.31,0,0,0-3.51-.67c-.25,0-.37-.13,0-.3a20.43,20.43,0,0,1,2.19-.7c.7-.21.57-.45,0-.42a11.06,11.06,0,0,0-4.71,1.7C199.92,132.21,200.23,132.61,200.95,132.49Z"/><path class="cls-1" d="M202.64,136.4a10.09,10.09,0,0,0-3.69.5c-.26.07-.4-.05-.07-.3a19.44,19.44,0,0,1,2.22-1.25c.69-.37.43-.58-.22-.39a10,10,0,0,0-4.52,2.89c-.62.75-.24,1.11.47.78a20.34,20.34,0,0,1,5.71-1.74C203.32,136.74,203.19,136.45,202.64,136.4Z"/><path class="cls-1" d="M197.29,141.49a7.42,7.42,0,0,0-2.61,5.48c0,1,.41.66.61-.1a13.27,13.27,0,0,1,2.3-5.12C198.06,141.12,197.69,141.14,197.29,141.49Z"/><path class="cls-1" d="M199.05,154.76c.34,1,.68.86.55,0-.74-4.89,1.34-10.21,5.84-10.28,2.36,0,3.38,2.11,2.83,4.65-.18.83.06.94.42.32,1.46-2.49.89-7.24-3.17-7.3C199.78,142.05,197.53,150.33,199.05,154.76Z"/><path class="cls-1" d="M207.88,156.69c-1.25,5.11-5,4.81-5.93,4.62-7.14-1.5-8.21.86-14.12,1-.05-.17-.11-.35-.19-.54-.2-.51-.43-.28-.42,0,0,1.82-.22,2.91-2.12,3.84a1.54,1.54,0,0,0-.82,1.41,26.18,26.18,0,0,0,1.34,7.85.81.81,0,0,1-.25,1.06c-1.31,1.36,0,2.62.27,3.12a1.05,1.05,0,0,1,.09.91,5.56,5.56,0,0,1-.76,1.62c-.44.71.26.93.56.51a5.89,5.89,0,0,0,.89-1.78c.24-.81.19-1,.08-1.31-.26-.76-1.55-1.64-.16-2.66.63-.47.3-1,.06-1.39a23.21,23.21,0,0,1-1.33-7.45c0-.68.37-.84.91-1.21a3.13,3.13,0,0,0,2-3.5,21.39,21.39,0,0,0,6.17-.58c3.78-.84,4.37-.54,8.62.48.76.19,5.2,2.2,5.75-6C208.55,155.86,208.09,155.82,207.88,156.69Z"/><path class="cls-1" d="M205.78,194c0-.88-.32-.7-.41-.22-.77,4.37,1.07,6.43,1.58,7.15.7,1,.64,1.88-1.08,2.27-5.25,1.2-10.34,4.07-14.34,5.63-.68.26-.53.55,0,.43,3.59-.9,9.35-4.42,15.43-5.15a1.88,1.88,0,0,0,1.68-2.78C207.71,199.9,205.52,198.44,205.78,194Z"/><path class="cls-1" d="M187.43,209.77a5,5,0,0,1-2.49,1.58c-.31,0-.38.46.22.47a4.48,4.48,0,0,0,3-1.34C188.82,209.71,187.86,209.12,187.43,209.77Z"/><path class="cls-1" d="M226.4,206.58a4.32,4.32,0,0,0,3,3.87c.9.32,1.21.62,1.09,1.92-.08.82-.75,10.61,0,15.73.19,1.32-.77,1-1.2,1.35s-.2,1.78-.12,2.54c.06.58-.44,1.05-1.16,1.47s-.59.81.08.57c1.15-.42,1.89-.95,1.88-1.59,0-.81-.21-1.78.11-2.15s1.45,0,1.3-1.31c-.43-3.77-.79-10.86.61-16.39.33-1.31.71-2.75-1.07-3a4.14,4.14,0,0,1-4-3.1C226.71,205.93,226.36,206.11,226.4,206.58Z"/><path class="cls-1" d="M233.4,101.4c.25-.32,0-.65-.4-.23a7.56,7.56,0,0,1-2.32,1.53c-.31.11-.5,0-.46-.23.13-.81.79-2.54,5.68-4.53.71-.29.54-.69,0-.52-1.67.49-6.79,2.73-7.25,6-.07.49.19.72.77.62A8.78,8.78,0,0,0,233.4,101.4Z"/><path class="cls-1" d="M225.42,106c-2.45-.4-4.65,1.67-7.24,1.48-.46,0-.56.34-.16.5a2.33,2.33,0,0,0,1.1.12,2.47,2.47,0,1,0,4.73-1.4,7.73,7.73,0,0,1,1.53-.22C225.9,106.41,225.92,106,225.42,106Zm-3.51,3.42a1.88,1.88,0,0,1-2.19-1.43,11.29,11.29,0,0,0,1.17-.34,3,3,0,0,1-.1.85c-.07.32.18.64.7.51a1.75,1.75,0,0,0,1.15-2l.44-.14A1.75,1.75,0,0,1,221.9,109.38Z"/><path class="cls-1" d="M209.55,141.3c.39.88.76.74.56-.19-1.8-8.46,14.35-12.78,15.34-19.87.06-.45-.24-.52-.35-.21C222.39,128.41,205.49,132.07,209.55,141.3Z"/><path class="cls-1" d="M50.85,112.78c.06-.39-.21-.43-.38-.14a2.84,2.84,0,0,1-5.33-1c-.07-.44-.44-.42-.42,0C44.83,116.22,50.36,116.11,50.85,112.78Z"/><path class="cls-1" d="M59.5,123.27a8.29,8.29,0,0,0,3-1.66c1-.79,1.68-2.21,3.24-3a75.5,75.5,0,0,1,9.57-3.51c1-.36.81-.87-.26-.61-2.24.56-5.62,1.6-8.41,2.57-1.05.36-1.6.33-2.64.66s-2.54,2.94-4.17,3.45c-.56.18-.81.14-.89-.44s0-1.77,0-2.77-.24-.85-.42-.24C57.28,122,58.1,123.72,59.5,123.27Z"/><path class="cls-1" d="M34.85,153.22c-1.79.24-2.84-1.14-1.74-2.84.29-.45-.14-.93-.69-.35-1.88,2-.34,4.84,2.53,4C35.55,153.83,35.54,153.12,34.85,153.22Z"/><path class="cls-1" d="M38.55,159.55c-1.69.32-2.78-.91-1.81-2.67.24-.44-.19-.87-.67-.29-1.66,2-.06,4.63,2.61,3.67C39.28,160,39.25,159.42,38.55,159.55Z"/><path class="cls-1" d="M31.93,146.09c-1.71-.08-2.39-1.63-1.16-3,.34-.37,0-.89-.58-.44-2,1.51-1.1,4.48,1.72,4.15C32.5,146.78,32.59,146.12,31.93,146.09Z"/><path class="cls-1" d="M30.29,138.95c-1.66-.4-2-2.07-.52-3,.41-.25.19-.81-.46-.51a2.16,2.16,0,0,0,.83,4.2C30.7,139.69,30.89,139.1,30.29,138.95Z"/><path class="cls-1" d="M43.13,164.56a1.64,1.64,0,0,1-2.47-1.95c.12-.46-.38-.72-.69-.08-1.05,2.18,1.41,4.1,3.47,2.63C43.91,164.84,43.7,164.26,43.13,164.56Z"/><path class="cls-1" d="M49,167.26a1.55,1.55,0,0,1-2.79-1.05c0-.46-.56-.54-.65.14-.29,2.28,2.51,3.27,3.93,1.34C49.83,167.25,49.44,166.82,49,167.26Z"/><path class="cls-1" d="M29.1,132.45c.46.23.81-.24.33-.56a1.44,1.44,0,0,1,.59-2.72c.42-.09.43-.6-.22-.58A2,2,0,0,0,29.1,132.45Z"/><path class="cls-1" d="M55.26,168.46a1.47,1.47,0,0,1-2.82-.28c-.14-.41-.64-.36-.56.28a2,2,0,0,0,3.93.27C56,168.26,55.54,168,55.26,168.46Z"/><path class="cls-1" d="M29.44,126.16c.4.28.79-.12.38-.49a1.37,1.37,0,0,1,.88-2.49c.41,0,.48-.51-.14-.58A1.9,1.9,0,0,0,29.44,126.16Z"/><path class="cls-1" d="M30.66,120a1.3,1.3,0,0,1,1.21-2.2c.39,0,.52-.41,0-.56a1.8,1.8,0,0,0-1.59,3.17C30.56,120.69,31,120.37,30.66,120Z"/><path class="cls-1" d="M57.11,202.92A74.78,74.78,0,0,1,45.38,219c-.44.47-.24.78.42.25,4.22-3.06,11.77-10.81,14.34-17.41C60.73,200.37,57.66,201.91,57.11,202.92Z"/><path class="cls-1" d="M42.79,238.56c-.39,0-.51.29-.11.42a6.71,6.71,0,0,1,3.45,2.75c.21.42.65.28.59-.08A3.93,3.93,0,0,0,42.79,238.56Z"/><path class="cls-1" d="M54.46,240.94c.54-.17.43-.51-.1-.45a17.2,17.2,0,0,1-5.8-.37c-.78-.15-.83.49-.19.72A13.47,13.47,0,0,0,54.46,240.94Z"/><path class="cls-1" d="M45.93,109.65c.13,0,.38,0,.68-.08a2.09,2.09,0,0,0-.7,1.56,2.12,2.12,0,1,0,4.09-.82,2.64,2.64,0,0,0,.86,0c.54-.06.66-.49-.08-.49s-1.11-.67-2.14-.88a5.47,5.47,0,0,0-2.74.17C45.31,109.37,45.48,109.65,45.93,109.65Zm.85,1a1.29,1.29,0,0,0,1.21,1.5c.41,0,.54-.19.29-.4s-.52-.62-.06-.59.73.16.84-.28a1.22,1.22,0,0,0-.25-.85c-.1-.13-.08-.18.07-.08a1.44,1.44,0,0,1,.61,1.17,1.46,1.46,0,0,1-2.92,0,1.41,1.41,0,0,1,.08-.46C46.71,110.52,46.8,110.51,46.79,110.64Z"/><path class="cls-1" d="M27.12,207.94c-1.31,1.23-7.15,7.34-9.46,10.18-.58.71-.13,1.06.47.45,2.53-2.57,8.32-9.14,9.35-10.39C27.92,207.64,27.66,207.43,27.12,207.94Z"/><path class="cls-1" d="M25.18,204.31c-1.31,1.23-7.15,7.34-9.46,10.18-.57.7-.13,1.06.47.44,2.53-2.57,8.33-9.14,9.35-10.39C26,204,25.73,203.8,25.18,204.31Z"/><path class="cls-1" d="M22.84,201.43c-1.31,1.23-7.15,7.34-9.46,10.18-.58.7-.17,1.06.43.45,2.52-2.56,8.32-9.15,9.35-10.39C23.6,201.13,23.39,200.92,22.84,201.43Z"/><path class="cls-1" d="M21,198c-1.31,1.23-7.15,7.34-9.46,10.18-.58.7-.22,1.06.39.45,2.52-2.56,8.32-9.14,9.35-10.39C21.68,197.72,21.51,197.51,21,198Z"/><path class="cls-1" d="M55.66,109.42a21.9,21.9,0,0,1,5.79-2.16c.86-.2.82-.59-.09-.5-1.61.17-5,.79-6.25,1.89C54.36,109.33,55.17,109.75,55.66,109.42Z"/><path class="cls-1" d="M220.41,18.26c-.76,0-.83.13-.73.73.34,2,1.6,3.81,3.57,5.58.51.46.73,0,.09-.69-3.57-3.8-3-6,.86-3.86.8.45.83,0,.5-.32A6.31,6.31,0,0,0,220.41,18.26Z"/><path class="cls-1" d="M219.18,35.35c5.51-1.24,9.86-5.47,8.62-11.59-.21-1-.68-1-.92-.33A8.11,8.11,0,0,1,224.55,27c-.42.35-.39.48,0,.61a2.24,2.24,0,0,1,.67,3.76c-.2.21-.45.14-.32-.23.68-1.9-.94-3.21-3-2.71-.42.1-.35.44,0,.5a2.17,2.17,0,0,1,.94,3.86,12.19,12.19,0,0,1-3.76,1.88C218.31,35,218.67,35.46,219.18,35.35Z"/><path class="cls-1" d="M206.19,32.52a14.14,14.14,0,0,1,8.05,4.71c.21.23.18-.67.48-1s1.26-.35.89-.57c-1.91-1.17-6.08-3.35-9.39-3.57C205.66,32.07,205.72,32.39,206.19,32.52Z"/><path class="cls-1" d="M213.68,39.51c-1.81,1.3-4.77.48-5.32-.75a7.57,7.57,0,0,0-1.75-2.67c-.73-.65-1-.42-.57.2a9.48,9.48,0,0,1,1.21,8.43c-.25.76-.08.86.69.73,1.26-.21,3.77-.91,5-2.49.35-.46,0-.46-.32-.35a4.08,4.08,0,0,1-3.61-.42c-.87-.63-.4-1.5-.1-1.27a4.17,4.17,0,0,0,4.59.14C214.18,40.59,214.15,39.17,213.68,39.51Z"/><path class="cls-1" d="M212.39,62.87a10.66,10.66,0,0,1,2.54-3.12,3.07,3.07,0,0,1,4.12,2.84c0,.66.32.75.73-.12,1.24-2.64-1.09-4.29-2.89-4.24-.4,0,.6-.67,1-.78a2.59,2.59,0,0,1,3,1.88c0,.47.3.54.58.09,1.06-1.69,1.31-4.6,1.76-5.55.18-.39,0-.31-.34-.17-3.93,2-9.43,4.37-11,8.87C211.68,63.36,212.13,63.37,212.39,62.87Z"/><path class="cls-1" d="M198.25,77.36c.07.48.43.51.45-.06a76.71,76.71,0,0,0-.48-10c0-.43-.59.52-1,.65s-1.52-.08-1.35.18C197,69.94,197.72,73.54,198.25,77.36Z"/><path class="cls-1" d="M203.46,77.31a73.25,73.25,0,0,0,6.47-12c.17-.4-.78.09-1.17,0s-1.16-.92-1.22-.62a43.43,43.43,0,0,1-4.49,12.46C202.83,77.54,203.12,77.78,203.46,77.31Z"/><path class="cls-1" d="M210,73.32a12,12,0,0,1,5.92-5.25c.28-.12,0-.29-.23-.68s.86-1.67.48-1.45a15.93,15.93,0,0,0-6.54,7.21C209.41,73.67,209.74,73.73,210,73.32Z"/><path class="cls-1" d="M193.45,73.95a16.3,16.3,0,0,0-8-5c-.42-.11.63.7.56,1.09s-.61.8-.3.84c4.27.56,5.39,1.87,7.51,3.44C193.6,74.64,193.82,74.38,193.45,73.95Z"/><path class="cls-1" d="M189.52,74a11,11,0,0,0-3.54.06,2.39,2.39,0,0,1-2.32-2c0-.11-.22-.25-.37.1a2.39,2.39,0,0,0,1,2.7c.79.45.39.76-.22.68A2.34,2.34,0,0,1,182,72.94c0-.1-.15-.34-.34,0s-1.18,3.31,2.09,5.22c.45.26.52,0,.62-.39.39-1.46,1.78-3.55,5.22-3.28C190,74.5,190.12,74.14,189.52,74Z"/><path class="cls-1" d="M212.87,73c-.57.26-.44.57,0,.52,3.31-.48,4.62,1.31,4.85,2.55.07.39.15.61.62.39.73-.34,3.35-2.39,2.21-5.45-.17-.47-.52-.39-.54.13a2.54,2.54,0,0,1-2,2.68c-.62.09-1-.14-.23-.67a2.91,2.91,0,0,0,1-3.47c-.19-.3-.51-.33-.46.14a2.86,2.86,0,0,1-2.71,2.88A6.16,6.16,0,0,0,212.87,73Z"/><path class="cls-1" d="M185.15,61.06a28.7,28.7,0,0,1,5.49,3.69c.4.4.87.22.32-.41-6.42-7.5-12-5.06-15.82-6.34-.31-.11-.45-.13-.27.26a15.84,15.84,0,0,0,3.32,5c.4.35.63.21.53-.26-.25-1.22.89-2.95,2.88-3.2.45-.06,1.61.33,1.23.44-1.74.49-3.71,3.19-2,5.47.57.77.92.53.73-.1C180.67,62.66,184.33,60.76,185.15,61.06Z"/><path class="cls-1" d="M147.74,86.22c.47.38.73.49.65-.27a9.17,9.17,0,0,0-1.53-3.86c-.32-.41-.54-.35-.29.2a16,16,0,0,1,.73,1.81c.15.51-.05.56-.33.36a7.67,7.67,0,0,1-1.27-1.24c-.32-.34-.66-.15-.32.39A9.38,9.38,0,0,0,147.74,86.22Z"/><path class="cls-1" d="M143.3,82.8c0,.31.25,0,.49-.07s.53.33.44-.1a13.09,13.09,0,0,0-1.54-4.3c-.38-.63-.66-.61-.33.23A12.24,12.24,0,0,1,143.3,82.8Z"/><path class="cls-1" d="M147.55,112c-3.42,1.13-5.53-2.36-5.21-3.37a29,29,0,0,1,4.35-7.13c.44-.51.25-1-.47-.34-8.27,7.86-6.91,14.93-6.83,19.17,0,.39.32.73.75.48a21.48,21.48,0,0,0,5.45-4.81c.38-.51.22-.76-.3-.6a3.41,3.41,0,0,1-4.24-2.71c-.09-.72.33-1.95.46-1.5.59,2,3.3,3.58,6.17,1.65C148.62,112.24,148.27,111.78,147.55,112Z"/><path class="cls-1" d="M157.65,102.45a11.72,11.72,0,0,1-.5,3.81c-.94,2.23-2.88,1.59-3.28.24-.12-.4-.39-.32-.36.15.14,2.11,1.51,3.1,2.88,1.9.27-.23.36.11.27.37-.67,1.74-2.22,1.77-2.92.57-.2-.34-.44-.57-.52-.06a10.34,10.34,0,0,0,1.2,5.59c.41.56.62.75.63-.24,0-3.82,4-6.1,3.08-12.52C158.07,101.78,157.65,101.62,157.65,102.45Z"/><path class="cls-1" d="M157.43,123.4c-.35.19-.37.29,0,.66a5.69,5.69,0,0,0,6.78-.28c.38-.33.3-.62-.18-.43-1.7.65-3.19.2-3.59-.74-.25-.57,0-.88.75-.41a3.12,3.12,0,0,0,4-.77c.3-.3.16-.55-.26-.34-1.52.75-2.55.27-2.77-.35-.37-1.05.48-2.24.44-4.11,0-.62-.36-.64-.42-.25A10.06,10.06,0,0,1,157.43,123.4Z"/><path class="cls-1" d="M178.65,112.74c.21.71-.22,2.08-2.3,2.29-.7.07-.77.44,0,.6,2.61.55,4.26-.81,4.35-2.5,0-.47.44-.64.76-.1.57,1,.14,3.07-2.4,3.35-.58.06-.54.48,0,.63,3,.8,5.32-.05,6.1-4.29.11-.58-.12-.77-.56-.69-1.49.27-5.25.42-9-3.53-.31-.33-.63-.06-.22.51C177,111.3,178.25,111.39,178.65,112.74Z"/><path class="cls-1" d="M175.69,99.46a18,18,0,0,0,4.63.31,2.13,2.13,0,0,0,1.84-1.34,6.51,6.51,0,0,0,.29-3.65c-.24-.71-.54-1.22-1.1-1.25-1-.05-2.07-.07-1.75.57.87,1.75.31,3.94-.52,4.48-.49.32-2.63.24-3.36.3C175.13,98.93,175,99.24,175.69,99.46Z"/><path class="cls-1" d="M155.24,81.86a66.78,66.78,0,0,1,3.49,14.77c0,.34.94-.41,1.37-.47s1.41.64,1.28.18c-1.4-5-3.6-11.09-5.72-14.64C155.34,81.15,155.07,81.34,155.24,81.86Z"/><path class="cls-1" d="M153.55,101.61a65,65,0,0,0-1-14c-.12-.55-.42-.47-.37,0a49.24,49.24,0,0,1-1,13.71c-.05.3,1-.35,1.33-.28S153.55,102,153.55,101.61Z"/><path class="cls-1" d="M170.45,100.24c.25.35.29-.71.53-1s1.47-.29,1.26-.51a41,41,0,0,1-7.37-10.19c-.24-.43-.49-.35-.32.2A45.11,45.11,0,0,0,170.45,100.24Z"/><path class="cls-1" d="M165.36,103.89c.6,3.81,1,7.45.43,9.55-.08.3.91-.23,1.35-.21s1.2.76,1.12.34a76.43,76.43,0,0,0-2.45-9.75C165.63,103.27,165.29,103.41,165.36,103.89Z"/><path class="cls-1" d="M168.61,103.85a45.26,45.26,0,0,1,2,10.13c0,.31.61-.93,1-1s1.38.39,1.24,0a76.61,76.61,0,0,0-3.89-9.27C168.78,103.21,168.47,103.39,168.61,103.85Z"/><path class="cls-1" d="M194,42.26a17.9,17.9,0,0,0-3.46,3.38,1.72,1.72,0,0,0-.33,1.86A26.74,26.74,0,0,0,192.47,52c.42.56.73.25.5-.28a5.31,5.31,0,0,1-.64-2.45,17,17,0,0,1,4-4.06c.57-.42-.13-2-.69-2.85C195.17,41.72,194.59,41.83,194,42.26Z"/><path class="cls-1" d="M43,20c3.87-2.17,4.43.06.86,3.86-.64.68-.42,1.15.09.69,2-1.78,3.23-3.55,3.57-5.58.1-.61,0-.7-.73-.73a6.31,6.31,0,0,0-4.29,1.45C42.16,20,42.19,20.48,43,20Z"/><path class="cls-1" d="M48.05,34.7a12.21,12.21,0,0,1-3.77-1.88A2.17,2.17,0,0,1,45.23,29c.37-.06.44-.4,0-.5-2-.5-3.65.81-3,2.71.13.37-.12.44-.32.23a2.24,2.24,0,0,1,.67-3.76c.41-.13.44-.25,0-.61a8.11,8.11,0,0,1-2.34-3.61c-.24-.72-.71-.7-.92.33C38.14,29.87,42.5,34.11,48,35.35,48.52,35.46,48.89,35,48.05,34.7Z"/><path class="cls-1" d="M52.47,36.26c.31.31.27,1.2.48,1A14.14,14.14,0,0,1,61,32.52c.47-.13.53-.45,0-.41-3.31.22-7.47,2.4-9.39,3.57C51.21,35.91,52.18,36,52.47,36.26Z"/><path class="cls-1" d="M60.58,36.09a7.57,7.57,0,0,0-1.75,2.67c-.54,1.23-3.5,2.05-5.32.75-.47-.34-.5,1.08.2,1.54a4.16,4.16,0,0,0,4.59-.14c.3-.23.77.64-.1,1.27a4.08,4.08,0,0,1-3.61.42c-.35-.11-.67-.11-.32.35,1.21,1.59,3.73,2.29,5,2.49.77.13.95,0,.69-.73a9.48,9.48,0,0,1,1.21-8.43C61.57,35.67,61.31,35.44,60.58,36.09Z"/><path class="cls-1" d="M75,48.91a5.29,5.29,0,0,1-.64,2.45c-.22.53.08.85.51.28a26.67,26.67,0,0,0,2.29-4.51,1.72,1.72,0,0,0-.33-1.86,17.89,17.89,0,0,0-3.46-3.38c-.62-.43-1.2-.54-1.63.11-.57.84-1.26,2.43-.69,2.85A17,17,0,0,1,75,48.91Z"/><path class="cls-1" d="M52.26,59.75a10.66,10.66,0,0,1,2.54,3.12c.26.5.7.49.43-.3-1.56-4.5-7.06-6.89-11-8.87-.29-.15-.52-.22-.34.17.45,1,.7,3.86,1.76,5.55.28.45.54.38.58-.09a2.59,2.59,0,0,1,3-1.88c.44.11,1.44.79,1,.78-1.8,0-4.13,1.6-2.89,4.24.41.87.72.78.73.12A3.07,3.07,0,0,1,52.26,59.75Z"/><path class="cls-1" d="M69.94,67.91c-.38-.13-.92-1.08-1-.65a76.72,76.72,0,0,0-.48,10c0,.57.38.54.45.06.54-3.82,1.22-7.42,2.36-9.27C71.46,67.83,70.35,68.05,69.94,67.91Z"/><path class="cls-1" d="M59.65,64.65c-.06-.3-.8.5-1.22.62s-1.33-.38-1.17,0a73.24,73.24,0,0,0,6.47,12c.34.46.63.23.4-.21A43.43,43.43,0,0,1,59.65,64.65Z"/><path class="cls-1" d="M51,65.93c-.37-.22.66,1.09.49,1.45s-.51.56-.23.68a12,12,0,0,1,5.92,5.25c.26.41.59.36.37-.17A15.92,15.92,0,0,0,51,65.93Z"/><path class="cls-1" d="M81.49,70.91c.31,0-.22-.41-.3-.84s1-1.2.56-1.09a16.3,16.3,0,0,0-8,5c-.37.43-.15.69.24.4C76.1,72.78,77.21,71.48,81.49,70.91Z"/><path class="cls-1" d="M77.67,74c-.6.15-.5.51-.11.48,3.43-.27,4.83,1.82,5.22,3.28.1.38.17.66.62.39,3.28-1.91,2.35-4.79,2.09-5.22s-.34-.09-.34,0a2.34,2.34,0,0,1-2.08,2.56c-.62.08-1-.22-.22-.68a2.39,2.39,0,0,0,1-2.7c-.15-.35-.35-.21-.37-.1a2.39,2.39,0,0,1-2.32,2A11,11,0,0,0,77.67,74Z"/><path class="cls-1" d="M54.32,73a6.16,6.16,0,0,0-2.7-.3,2.86,2.86,0,0,1-2.71-2.88c0-.47-.27-.44-.46-.14a2.91,2.91,0,0,0,1,3.47c.73.53.39.76-.23.67a2.54,2.54,0,0,1-2-2.68c0-.52-.36-.59-.54-.12-1.14,3.05,1.48,5.11,2.21,5.45.47.22.55,0,.62-.39.22-1.24,1.53-3,4.85-2.55C54.77,73.61,54.89,73.3,54.32,73Z"/><path class="cls-1" d="M76.55,64.75A28.7,28.7,0,0,1,82,61.06c.82-.3,4.48,1.6,3.6,4.5-.19.63.16.87.73.1,1.7-2.28-.28-5-2-5.47-.38-.11.78-.49,1.23-.44,2,.25,3.14,2,2.88,3.2-.1.47.13.61.53.26a15.82,15.82,0,0,0,3.32-5c.18-.39,0-.37-.27-.26-3.79,1.28-9.41-1.16-15.82,6.34C75.68,65,76.15,65.15,76.55,64.75Z"/><path class="cls-1" d="M102,121.43a3,3,0,0,0,4.12.64c.72-.55,1.12-.16.87.41-.41.94-2.12,1.53-3.82.87-.48-.19-.55.11-.18.43a5.69,5.69,0,0,0,6.78.28c.35-.38.33-.46,0-.66-3.38-2-2.63-5.57-2.89-8.87,0-.39-.33-.51-.4.11-.38,3.43.18,5-.5,6a2.84,2.84,0,0,1-3.72.4C101.87,120.82,101.69,121.13,102,121.43Z"/><path class="cls-1" d="M100.69,113.57c.36.17.79,1,.84.61a57.21,57.21,0,0,0,.34-8.46c0-.52-.36-.54-.42-.12-.52,3.36-1.07,6.78-2.15,8.28C99.14,114.09,100.3,113.37,100.69,113.57Z"/><path class="cls-1" d="M95.78,113.57c.32.19.77,1.1.93.69a81.5,81.5,0,0,0,3.19-9.62c.14-.55-.21-.59-.41-.13a36.52,36.52,0,0,1-5,9.08C94.13,114,95.42,113.36,95.78,113.57Z"/><path class="cls-1" d="M85.82,98.9A12.21,12.21,0,0,1,81.6,97c-.82-.61-1.28-3.16,1.71-3.42.63-.05.62-.53-.38-.7-3-.52-4.27,1.37-3.34,3-2.34-2.14-1.23-3.67-.06-3.79.45,0,.42-.29-.12-.56a13.87,13.87,0,0,1-5-4.83c-.31-.46-.63-.18-.51.3,1,4.66,3.44,11.3,11.77,12.49C86.6,99.7,86.42,99.09,85.82,98.9Z"/><path class="cls-1" d="M97,122.5a7.79,7.79,0,0,1-2.36,3.17c-.7.47-4-.17-4.39-3-.09-.61-.47-.71-.79.1C88.63,125,90.72,127,92.7,127c.44,0-.32.58-1.14.63-2.12.11-3-1.78-3.32-2.94-.11-.44-.45-.27-.71.14a17.55,17.55,0,0,0-1.87,5.48c0,.37.2.5.51.38,2.77-1.05,9.72-2,11.27-7.84C97.65,122.15,97.27,122,97,122.5Z"/><path class="cls-1" d="M141,126.32a13.36,13.36,0,0,1-1.57.91,1.51,1.51,0,0,1-1.39-.09c-1.91-1-7.6-3.43-8.86-3.9a.87.87,0,0,0-1,.21c-.5.41-1.63,1.38-2.19,1.92-.29.28-.3.65.31.87a73.86,73.86,0,0,1,9.32,4.46,1.34,1.34,0,0,0,1.61-.15c.83-.68,3.59-3.24,4.27-4C141.73,126.21,141.65,125.88,141,126.32Z"/><path class="cls-1" d="M115.34,68a10.41,10.41,0,0,1-2.58,0,17.09,17.09,0,0,1-.62-2.29c-.16-.54-.5-.47-.45.06.07.71.2,2.16.3,2.63s.52.53.9.48c.67-.1,2.14-.36,2.53-.46C116,68.3,116,68,115.34,68Z"/><path class="cls-1" d="M127.42,5.31a9.8,9.8,0,0,1-1.46,0s-.41,1.45-.54,1.72-.58.21-.91.24-.34.17-.17.3a7.89,7.89,0,0,0,2,.24.75.75,0,0,0,.71-.39,16.88,16.88,0,0,0,.58-1.75C127.72,5.44,127.7,5.29,127.42,5.31Z"/><path class="cls-1" d="M236.14,232.39c-1.31-.62-2.37-1.06-3.06-1.32a1.92,1.92,0,0,0,.23-1.55c-.64-3.25-1.45-11.41,1.23-17a4.19,4.19,0,0,0-.42-4.33c-.48-.68-.92-.53-2.19-.47s-4.51.82-3-6.22c.41-2,3.84-4.23,3.36-10.07-.05-.69.06-.77.39-.54a3.89,3.89,0,0,0,3.65.36,3,3,0,0,0,3.27-2.09,3.08,3.08,0,0,0,1.31-2.8c0-.31-.07-.46-.5-.44-3.08.14-5.81-2.61-7.62-7.65-4.64-12.94-8.51-16.46-10.48-22.09a3,3,0,0,1,0-2.62,19.22,19.22,0,0,0,2.83-8.2,2.79,2.79,0,0,1,.82-2.11c9.92-8.56,14.57-25.21,7.9-37.88a2.91,2.91,0,0,0,1.22-1.74,3.5,3.5,0,0,0,2.33-3.19,3.16,3.16,0,0,0,1.56-2.87,3.83,3.83,0,0,0,.91-2.15c.08-.63-.39-.81-1.07-.44-3,1.66-6.56,2.23-9.19,4.13a6.16,6.16,0,0,0-.33-1.54c-.17-.47-.74-.46-1.11.07-1,1.45-2.34,2.74-3.29,4.42-3.11.55-6.15,2.49-10.72,2-.33,0-.66.12-.28.64a6.67,6.67,0,0,0,1.47,1.57c.17.12.21.24-.08.3-4.26.85-5.8,2.75-9.46,3.72-.48.13-.66.33-.57.89a2.9,2.9,0,0,0,1.27,2c.67,1.58,2.08,2.5,3,2.35.93,1.55,2.49,2,4.9,1.56,3.29-.66,4.87,0,5.92.77-.86.87-2.52,1.94-6.2.9-.47-.13-.54,0-.45.53a3,3,0,0,0,.77,1.28c.2.21.24.3-.34.37a8.53,8.53,0,0,0-6.05,3.12,8.87,8.87,0,0,0-5.9,4.85,10.93,10.93,0,0,0-4.45,3.45,23.43,23.43,0,0,0-4.63-2.69c-1.4-.64-3.67-1.6-4.53-2.06a11.8,11.8,0,0,1-3-2.93,3.16,3.16,0,0,0-3.06-1.54c-.62,0-2.07.17-2.79.25-1.21-4.35-5.26-5.62-6.76-7.42-.82-1-.35-.75.75,0,1.29.88,4.43,3.26,7.48,3.18a4.84,4.84,0,0,0,4.74-3,27.24,27.24,0,0,0,1.54-5.51c.12-4.28-5.3-6.68-5.8-6.84-.88-.27-1.56-.2-1.61,1.13a11.33,11.33,0,0,0,.7,4.48c-.2-.08-.41-.16-.62-.26-2.85-1.34-5.25-4.33-6.61-6.95-.22-.42,0-.88.6-.68,8.14,2.55,16.77-1.05,19.9-9a15.86,15.86,0,0,0,7.13-6.92c2.28-.32,5.44-1.09,9.89-8.07,2.55-4,5.56-2.28,4.71,1.22-.08.35.2.6.66.54,7.32-1.09,9.39-10.06,2.33-12.21-.55-.17-.46-.25,0-.52,6.13-3.62,6.46-9.67,7.32-15.74.08-.55-.66-.91-1.31-.49-6.51,4.23-12.73,4.18-14.84,10.6-.44,1.35-.79,1.13-1.22.12A109.82,109.82,0,0,0,199.46,44c-1-1.54-2.72-4.39-1.83-6.89a11.38,11.38,0,0,1,.48-1.12c7.28-1.77,9.26,5.78,6,10.05-.54.71-.34,1.27.37,1.33,10.66.91,12.28-6.59,11.74-9.37-.07-.33,0-.48.34-.49,8.13-.11,13.28-5.09,13.05-11.47a11.28,11.28,0,0,0-2.87-7.52c-1.09-1.14-3.62-2.73-8.29-2.19-.64.07-1,.45-.89,1,.37,5.37,4.19,7.63,5.19,8.69-2.55,1.56-7.22,2.24-15.26,1.26-2.67-.33-5.13-.5-7.71,1.76-1.25,1.1-10.71,11.75-11.53,13.09a6.58,6.58,0,0,0-.64,6.16c1.15,3.11,5.41,9,8.15,14.17,1.43,2.7.1,4.25-1.32,2.09-6.54-10-14.86-7.63-21.35-9-.74-.16-1.14.39-1,1,.55,3.48,3.14,10.3,10.5,13.1.62.24,1.08.23.24.48-6.15,1.84-4.26,9.75,2.67,11.39a.42.42,0,0,0,.56-.43c-.19-5.57,5.4-7.39,6.15-1.24,1.11,9.1-10.53,16.05-20.81,7.59-4.2-3.45-4.93-7.65-11.78-10.22a3.73,3.73,0,0,0,1.63-4.13A4.7,4.7,0,0,0,159,70.17a2.68,2.68,0,0,0,1.51-2.1c.54-2.23,2.8-11.35,3.44-13.89.67-1.25,1.21-2.38,1.61-3.31l.11,0a1.11,1.11,0,0,0,.66-1.94l.74-4,.19,0a1.19,1.19,0,1,0-.29-2.36l-2.12.34-5.1-7.7c0-.42,0-.75,0-.92a.6.6,0,1,0-1.19,0v.65c-1.55-1.46-3.2-1.17-3.59-.13h0a10.67,10.67,0,0,1-1.41,2.39c-2.37-4-5-1.92-5.28-1.61s-.19.42.32.38c2.73-.22,2.83,2.44,4.4,4.31a1.63,1.63,0,0,0,2.29.35,3.88,3.88,0,0,0,1.31-1.26,2.14,2.14,0,0,0-.42-2.3,4.64,4.64,0,0,1,2.38,1v.59l-2.42,5.6L152,45a1.21,1.21,0,0,0,.09,2.4L151.39,51h0a1.11,1.11,0,0,0-1,1C148,50,136.89,37.41,152.27,16.84l2.56-.42a1.23,1.23,0,1,0-.29-2.45l-3.35.54-13.29-.45c.33-1.05,1.08-3.5,1.1-3.67,0-.51-1.68-1-3.92-1.12L135,1c.24-.08.4-.2.4-.33s-.56-.45-1.26-.45-1.26.2-1.26.45.14.23.35.31l0,2.12a27.58,27.58,0,0,0-6.44-1.31c-.44,0-.72.21-.77.48h0c-.09.74-.16,1.35-.23,2.14-.41,0-.83-.07-1.23-.12.07-.54.32-2.39.36-2.76.09-.94-1.22-2.12-4.5-1.11a15.1,15.1,0,0,1-7.74.57c-.58-.12-.67,0-.4.34s2.77,2.76,8,3.47c0,.77,0,1.67.08,1.93a1.8,1.8,0,0,0,1.1,1.35,17.52,17.52,0,0,0,5.2,1,1.78,1.78,0,0,0,1.77-1.1,16.51,16.51,0,0,0,.6-1.7,31.54,31.54,0,0,1,4.17,1.44l0,1.63c-2.19.12-3.86.62-3.81,1.12,0,.19,1.14,3.54,1.45,4.46l-12,5.12-2.3.41c-1.65.29-1.26,2.77.26,2.48l2-.36c-8.25,13.55,2,29.27,4.74,33.26-3.72-1.06-5.13-2.5-5.64-3a1.14,1.14,0,0,0-.83-1.73h0l-.67-3.63a1.21,1.21,0,0,0,.09-2.4l-3.7-.62-4.33-8.54c0-.7,0-1.25,0-1.5a.6.6,0,1,0-1.19,0c0,.13,0,.36,0,.65-1.55-1.46-3.19-1.17-3.59-.13h0a10.71,10.71,0,0,1-1.41,2.39c-2.37-4-5-1.92-5.28-1.61s-.19.42.32.38c2.73-.22,2.83,2.44,4.4,4.31a1.63,1.63,0,0,0,2.29.35,3.89,3.89,0,0,0,1.31-1.26,2.14,2.14,0,0,0-.42-2.3,4.64,4.64,0,0,1,2.38,1v.59l-1.92,4.45-3.85-.62a1.19,1.19,0,1,0-.29,2.36l.18,0,.74,4a1.11,1.11,0,0,0,.67,1.94l.11,0a41.09,41.09,0,0,0,6.36,10.26c.23,1.68,1.07,7.94,1.17,8.52a1.66,1.66,0,0,0,2.35,1.29l.34-.08a1.38,1.38,0,0,1-.57.44,5.53,5.53,0,0,0-3.68,3.56,4,4,0,0,0,.51,3.61,4.25,4.25,0,0,0,1,.9c-5.13,1.15-9.62,4.6-14.35,8.25C85.27,95.74,73.91,88.94,75,79.85c.75-6.15,6.34-4.34,6.15,1.24a.42.42,0,0,0,.56.43c6.93-1.64,8.83-9.54,2.67-11.39-.84-.25-.39-.24.24-.48C92,66.85,94.58,60,95.14,56.55c.1-.66-.3-1.2-1-1-6.5,1.42-14.81-.92-21.35,9-1.42,2.16-2.75.61-1.32-2.09,2.73-5.15,7-11.06,8.15-14.17a6.58,6.58,0,0,0-.64-6.16C78.11,40.8,68.65,30.14,67.4,29c-2.58-2.26-5-2.09-7.71-1.76-8,1-12.71.3-15.26-1.26,1-1.06,4.82-3.32,5.19-8.69.08-.56-.25-.94-.89-1-4.67-.53-7.2,1-8.29,2.19A11.28,11.28,0,0,0,37.58,26c-.23,6.38,4.92,11.37,13,11.47.3,0,.4.16.34.49-.54,2.77,1.08,10.28,11.74,9.37.71-.06.91-.62.37-1.33-3.26-4.27-1.28-11.83,6-10.05a11.15,11.15,0,0,1,.48,1.12c.89,2.5-.87,5.35-1.83,6.89A109.82,109.82,0,0,0,58.58,61c-.43,1-.78,1.23-1.22-.12-2.11-6.42-8.33-6.37-14.84-10.6-.65-.42-1.39-.06-1.31.49.86,6.07,1.19,12.11,7.32,15.74.46.27.55.36,0,.52-7.06,2.15-5,11.12,2.33,12.21.46.07.74-.19.66-.54-.84-3.5,2.17-5.23,4.71-1.22,4.45,7,7.61,7.75,9.89,8.07a15.86,15.86,0,0,0,7.13,6.92c3.13,8,11.75,11.56,19.9,9,.53-.16,1.16-.4.6.68a24.78,24.78,0,0,1-2.08,3.22,12.12,12.12,0,0,0-5-1.39c-2.18-.23-11.8-.49-31.17,1.42-1.49-.49-8.13-3-13.13.7a100.43,100.43,0,0,1-.07-20.62c.13-1-.17-1.2-1.09-.49-2.53,2-3.74,6.17-4.12,10.56-.33-7.46-.29-15.41.74-21.24.18-1,0-1.08-1-.43-3.86,2.6-5.3,9.56-5.53,16.82-.33-3.82-.54-7.7-.54-11.51,0-1-.3-1.06-1.11-.23-3.17,3.22-3.25,10.17-2.91,15.42A95.07,95.07,0,0,1,24.24,74.1c0-1-.27-1.21-.95-.27-5.26,7.39-2.55,19.23.7,27.93a103.54,103.54,0,0,1-7.75-22.7c-.2-1-.47-1.13-.95-.09-3.33,7.35.36,17.24,4.64,25a99.14,99.14,0,0,1-9.68-18.19c-.38-1-.64-1-.94.07-2.07,7.67,3.55,17.1,9.21,24.1A101.56,101.56,0,0,1,4.94,93c-.55-.89-.83-.9-.92.24-.41,5.76,3.3,11.78,8.12,17a86.13,86.13,0,0,1-9.73-9.54c-.68-.79-.93-.77-.87.38.24,4.63,3.57,9.23,7.94,13.23a74.6,74.6,0,0,1-7.59-5.23c-.82-.65-1-.59-.76.52.84,3.74,4,7.06,8,9.87a68.66,68.66,0,0,1-8.27-3.64c-.93-.48-1.11-.39-.63.63,1.37,3,4.34,5.33,8,7.2a56.82,56.82,0,0,1-7-1.71c-1-.32-1.1-.09-.52.86a9.69,9.69,0,0,0,2.54,2.66,6.62,6.62,0,0,0,.26,4.79,6.77,6.77,0,0,0,.76,5.06,6.32,6.32,0,0,0,1.39,4.57A6.23,6.23,0,0,0,7.32,144a6.32,6.32,0,0,0,1.73,3.74,6.71,6.71,0,0,0,1.81,3.67,6,6,0,0,0,1.82,3.94,5.25,5.25,0,0,0,2.07,4,5.24,5.24,0,0,0,2.13,3.51A5.4,5.4,0,0,0,19,166.15a5.19,5.19,0,0,0,2.71,3.56A4.89,4.89,0,0,0,25,173a4.61,4.61,0,0,0,3.46,2.71c.7,1.17,2.11,2.64,4,2.42a5,5,0,0,0,2.79,2c-3.54,3.58-22.62,23-24.6,25.73a8.6,8.6,0,0,0-1.84,4.71c0,.9.18.92,1.09.83a7.78,7.78,0,0,0,1.55-.33,7.36,7.36,0,0,0-.85,3.21c0,.9.18.91,1.09.82a7.89,7.89,0,0,0,1.67-.37,7,7,0,0,0-.55,2.55c0,.9.18.91,1.09.82a7.58,7.58,0,0,0,1.52-.32,7.25,7.25,0,0,0-.75,3c0,.9.18.91,1.09.82a9.88,9.88,0,0,0,5-2.11c.62-.6,4.14-4,8.16-8,2.78-1.28,9-3.17,14.49-2.4a45.44,45.44,0,0,0-3.83,14.16c0,1.09.5,1.51,1.45,1.28.19,1.23.35,3,.48,4.7a74.79,74.79,0,0,0-10.09,3.44c-5.72,3-4.6,6.89-2.32,10.18a20.66,20.66,0,0,1,3.32,7.83c.6,2.49,1.29,4.89,5.28,5.52,10.68,1.68,25.39.22,32.11-3.19,2.19-1.11,2.53-3.42,2.38-5.3-.1-1.29-.12-2.7-.09-4.08a24.73,24.73,0,0,1,3,.17A36.19,36.19,0,0,1,72.28,255c-1.5,3.28.09,5.63,1.65,7.18,8.2,8.12,30.11,21,60.2,21s52-12.9,60.19-21c1.57-1.55,3.15-3.9,1.65-7.18a36.24,36.24,0,0,1-2.84-11.18,24.72,24.72,0,0,1,3-.17c0,1.38,0,2.79-.09,4.08-.15,1.88.19,4.2,2.38,5.3,6.72,3.41,21.43,4.87,32.11,3.19,4-.63,4.69-3,5.28-5.52a20.64,20.64,0,0,1,3.32-7.83C241.42,239.58,242.87,235.61,236.14,232.39ZM228.27,98.3c.14-.26.28-.17.33,0a5.67,5.67,0,0,1,.12,1.42A8.16,8.16,0,0,0,227,101.9a7.63,7.63,0,0,0-1.23,0C226.51,100.67,227.69,99.38,228.27,98.3Zm-21.68,30.47c.69,0,.68-.37.24-.47a7.49,7.49,0,0,0-3.43.18,8.56,8.56,0,0,1,9-3.82c.44.07.55-.18.33-.38a5.94,5.94,0,0,0-3.18-.39,9.74,9.74,0,0,1,5.73-2.48,4.83,4.83,0,0,0,3.71.89c.69-.13.72-.53,0-.48a4.09,4.09,0,0,1-4-1.89c-.15-.29,0-.4.14-.35,1.17.31,4.09,1,6-1.18,3.39,2.23,5.75,1.52,6.6.55a2,2,0,0,0,2.28-1.82A1.77,1.77,0,0,0,231,114.9a1.34,1.34,0,0,0,.54-1.47c-.05-.15-.3-.29-.39,0-.11.82-.94,1-1.47,1.07s-.39.28-.14.39a2.18,2.18,0,0,0,.85.13c.2,1.56-2,1.41-2.11,1.41-.31,0-.4.22-.14.4a2.37,2.37,0,0,0,1,.27c-.16.74-1.72,1.64-3.41.28-.32-.25-.58,0-.36.32a3.79,3.79,0,0,0,1.07,1c-1.22.42-2.76.1-6-1.93-1-.65-2.51-1.38-5.81-.79-1.94.35-3.34.36-4.22-.69,1-.26,2.15-.78,3.25-1,.51-.12.38-.45-.05-.41-1.54.17-2.81.79-3.77.84a3,3,0,0,1-2.67-1.63s1.67-.59-.23-.54c-.5,0-.9-.42-1-1.26-.09-.49.16-.58.63-.69,3.49-.84,5.76-3,9.83-3.73.43-.08.41-.32.24-.43a6.28,6.28,0,0,1-1.49-1.27c-.37-.46-.05-.51.26-.48,5.31.51,7.46-2.07,11.13-1.83h0c-.21.53.21.66.43.23,2.61-5,8.84-5.82,11.53-7.51.4-.25.62-.07.49.29-.39,1.08-1.16,1.57-2.31,2.3-.47.3-.44.94,1,.28.37-.17.47-.07.31.34-.34.93-2,1.63-2.58,1.85s-.74.52-.27.59a2.67,2.67,0,0,0,1-.13c.33-.12.65,0,.28.5a3.31,3.31,0,0,1-3.24,1.34c-.36,0-.4.19-.23.38a1.57,1.57,0,0,0,1,.38c.36,0,.48.2.12.6a3.84,3.84,0,0,1-2.82.73c-1-.11-.81.33-.4.59a2.76,2.76,0,0,0,2.13.09c6.23,10.73,2.45,28.23-8.12,36.59a2.55,2.55,0,0,0-.84,2,23.4,23.4,0,0,1-2.75,9.2,3,3,0,0,0-.09,2.58c1.69,5.55,6.9,11.09,10.73,22.73,1.37,4.18,4.06,7.62,7.74,7.65.39,0,.42.09.36.45-.13.76-.36,1.54-1.17,1.71s-2.7-1-3.23-1.6c-.18-.19-.53-.11-.29.28a4.4,4.4,0,0,0,3.39,2,2.36,2.36,0,0,1-2.41,1.07,4.77,4.77,0,0,1-2.52-2c-.27-.35-.53-.14-.32.33a4.05,4.05,0,0,0,1.86,2,5.05,5.05,0,0,1-4.26-2.68c-.32-.5-.66-.35-.44.3,2.58,7.43-2.29,10-2.87,12.69-1.38,6.44,1.64,7.26,2.74,7.37,1.54.14,2.5-.21,2.87.37s.86,1.56,0,3.64c-2.27,5.25-1.67,13-.87,17.08.19,1-.51,1.07-1.49,1.15-.23,0-.22.3-.18,1.43a2.07,2.07,0,0,1-.82,1.83,1.16,1.16,0,0,0-.15.15h0a7.69,7.69,0,0,1-4.69,1.29,3.25,3.25,0,0,1,.05-1.75A38,38,0,0,0,227,229.4a14.2,14.2,0,0,0,.51-4.43c0-1.54-.77-9.74-1.19-11.93a8.38,8.38,0,0,0-3.15-4.54c-1.17-.95-8-5.7-11-11.25-.82-1.54-.87-4.54-.12-7.33,1-3.79,3.91-12.23,3.08-15,0-.14-.09-.3-.15-.46-1.19-3.52-5.79-7.8-5.82-11.63a18.58,18.58,0,0,0,1.39-8.18c-.16-1.11-.8-.85-.7.09s-.23,6.19-2.43,8.74c-.61.72-2.43,1-3.34.85s-4.68-1.55-6.18-1.7c-2.08-.21-6.92,1.37-9.23,1.19.18,1-.16,1.82-2.39,3.15-.49.29-.69.62-.68.94a25.63,25.63,0,0,0,.77,5.4,3.73,3.73,0,0,0,.87,1.79,1.93,1.93,0,0,1,.61.82c.05.36.07.71-.15.73-1.14.13-1.36.58-1.34.83,0,.5.68,1.14.81,1.85-.16,2.74-2.39,5.65-3.44,4.4l0,0c-.2-.23-.41-.46-.64-.67a3.63,3.63,0,0,1-.89-3.11,64.09,64.09,0,0,0,.31-14.84,7.71,7.71,0,0,1,.57-2.87,18,18,0,0,1,1.62-2.36,2.75,2.75,0,0,1,1.42-.72c3.24-.89,5.85-3.44,9.35-4a1.26,1.26,0,0,0,.94-1.19c-.08-4.31,1.59-12.57,7.68-14.1.95-.24.72-.7-.31-.49-5.24,1.06-6.75,5.65-7.63,8.25a6.81,6.81,0,0,1-1.65,2.94c-.27.34-.38.5-.52.05-.64-2.13-1.05-8.83,4.45-11.42.45-.21.16-.5-.21-.39A8.8,8.8,0,0,0,194,141.7c-.33.44-.63.76-.6.34.11-1.56,2.55-6.89,7.94-8.58.46-.15.45-.44,0-.45a16.93,16.93,0,0,0-3.42.67A9.43,9.43,0,0,1,206.59,128.78Zm4.44,104h0c.22-1.47-1.35-2.71-4.13-3.69-8.77-3.07-24.41-2.16-35.62,2.14-3.36,1.29-5.19,2.63-5.62,4.64a4.5,4.5,0,0,0,1.39,4.34c2.63,3.06,7.65,8.55,9.42,12.95a89.43,89.43,0,0,1-42.32,11.43,89.41,89.41,0,0,1-42.32-11.43c1.77-4.4,6.79-9.88,9.42-12.94a4.5,4.5,0,0,0,1.39-4.34c-.43-2-2.26-3.35-5.62-4.64-11.21-4.3-26.85-5.21-35.62-2.14-2.91,1-4.5,2.32-4.11,3.88h0A35.77,35.77,0,0,0,59,239.16h0a7.14,7.14,0,0,0-3-.43,2.77,2.77,0,0,0-2.43-1.62c-1.7-.17-5.56,0-6.76-.09-1.57-.17-2-.89-2.11-1.43,4.62-2.7,8.26-6.3,9.1-11.4.16-1-.57-1.21-1.05-.7a19.09,19.09,0,0,1-7.76,4.66,39.88,39.88,0,0,1,.86-6.3C50.35,218.74,57.1,213,61.23,205c2.4,5.35,6.88,9.78,8.25,10.5s1.73.08,2.26-.76a3.62,3.62,0,0,0,2.88-1.28,14.54,14.54,0,0,1,1.88-2.3c.9-.75,8.08-5.65,10.06-7.19.37-.29.62-.33,1.07.11a2.54,2.54,0,0,0,.48.36c9.07,29.24,31.46,45,45.66,52.34l.32.17.32-.17c17.46-9,46-30,49.31-71.91a15.79,15.79,0,0,1,2.92,5.67c.2.41.65.34.8-.27a8,8,0,0,0,.25-2.06c.49.42.85,1.66,1.06,1.92s.58.38.8-.17.56-1.57.78-2.32c.65-2.23.95-5.67-1.56-7.42-.54-.38-.73-.42-.74-1.15a2.53,2.53,0,0,0-.39-1.23c-.16-.21.1-.36.53-.34s.73,0,.81-.34a3.48,3.48,0,0,0-.53-2.1,7.26,7.26,0,0,1-1-1.12,3.57,3.57,0,0,1-.43-1.21,21.18,21.18,0,0,1-.34-4.26.93.93,0,0,1,.56-1c2.76-1.55,2.6-2.31,2.54-2.86,1.77.13,5.18-1.25,8.15-1a17.51,17.51,0,0,1,2.77.67c1.11,4.55,4.49,7.82,7.61,10.5-6.36,3.3-10.8,7.34-11.76,8.79-1.94,2.93-.66,6.48.34,8.11a53.5,53.5,0,0,0,4.27,5.4c.73,1.07,1.17,3.09.1,3.83s-10,3.65-13.73,4.85a8.89,8.89,0,0,0-5,3.8c-.59,1.09-1.47,2.6-1.13,3s-1.4,3.92-2.7,5.3c-.47.49-.11,1.31,1.64,1-1,1.54.13,1.87,1.09,1.54a14.51,14.51,0,0,0,4.67-2.53,9.78,9.78,0,0,0,1.92-3.93c.13-.51.09-.8.78-1.12s.68-.79.78-1.16.33-.59.71-.16c.62.69,1.32.75,2.6-.1.87-.58,1.08-1.37,2.39-1.92s8.19-3,10-3.14,3.6-.13,4.71-1c1.44-1.07,1.28-3.57,1.08-4.13a8.26,8.26,0,0,0-1.82-2.47,5.94,5.94,0,0,1-1.55-5.33c.09-.52.37-.67,1.13-.66.58,0,1.13,0,1.65,0a9.75,9.75,0,0,0,.71,5.31c3.33,5.82,9.94,10.19,11.55,11.58a7,7,0,0,1,2.56,3.49c.36,1.59,1.36,10.36,1.41,11.92a13.62,13.62,0,0,1-.46,4c-4.18-1.28-7.87-2.7-10.66-5.64-.49-.51-1.22-.3-1.05.7.84,5.08,4.93,8.87,9.61,11.61a4.85,4.85,0,0,1-.57,1.35,32.07,32.07,0,0,1-8.93-2.24c-.5-.21-1,.25-.7.79a23,23,0,0,0,5.41,5.68,84.07,84.07,0,0,1-10.19-1.29A38.76,38.76,0,0,0,211,232.75ZM51.87,243.07a9,9,0,0,1,2,2.1c.51.92.08.67-.4.3a11.32,11.32,0,0,0-7.85-2.62c-.38,0-.53-.08-.84-.5-3.77-5.12-6.41-3.36-6.81-3.12s-.54.21-.2-.23c1.1-1.44,3.83-.84,4.25-1.09a1.12,1.12,0,0,0,.7-1,81.58,81.58,0,0,0-.48-12.81c.56-.29,1.29-.7,2.15-1.24-.17,2.73-.71,11.62-.53,12.71.34,2.13,2.45,2.25,3,2.29,1.24.1,6.11,0,6.74.1,1.11.26,1.38.73,1.38.87a41.17,41.17,0,0,1-6.37.13c-.57,0-.43.33.1.46,4.75,1.16,9.11-.9,10.73,1,.2.24.18.33-.27.21-3.15-.86-5.32,2.39-5.58,2.92a3.9,3.9,0,0,0-1.44-.79C51.68,242.63,51.5,242.79,51.87,243.07Zm-7.24-9c0-1.19.09-3,.22-4.84a23.15,23.15,0,0,0,7.6-4.12A18.62,18.62,0,0,1,44.64,234.08Zm18.6-30.71a55.37,55.37,0,0,0,5.15,7.85c.51.56.89.25.39-.73s-2.28-5-.34-7.48c2.09-2.66,2.24-4.6,2-5.48q.76-.71,1.52-1.47c.67,2.44,2.34,13.77-1.5,18.63-.63-.31-4.87-4.2-8.28-10.59ZM59.6,127.32a11,11,0,0,1,.37-1.51c.32-.73.83-.8,1.74-1.29a8.47,8.47,0,0,0,2.55-1.71,13.43,13.43,0,0,1,2.82-2.69c1.85-1.16,6.75-3.06,13.71-4.91a5.45,5.45,0,0,0,5.29,4c3.06.08,6.19-2.31,7.48-3.18,1.1-.75,1.73-.39,1,.68-2.36,3.65-9.41,1.84-10.87,14.71-.18,1.6.22,2.39,1.69,1.58,3.66-2,13.63-1,14.08-12.07,0-.87.47-.9.51.17.28,7.91,10,7.15,12.55,3.49.85-1.2.29-1.46-.29-1.69-6.44-2.56-1.56-7.66-5.13-15.1,3.95,3.54,8.26,7.72,12.08,11.77-3.73,4.64-3.82,10.46-3.09,14.81h-32v42.61c0,2.17.12,4.69.29,7.08a2.22,2.22,0,0,0-.36.19c-1.12.7-1.74,1.8-1.52,3.75.26,2.34,3,7,3.32,8,.57,1.64.52,2.69-.3,3.67-1.52,1.81-9,7.63-11.84,8.89a38.46,38.46,0,0,0-.82-13.34c6.49-6.79,12.36-16.47,7.25-26.62C82.54,155.28,73.95,144.91,59.6,127.32Zm-3.2-12.84a11.69,11.69,0,0,1-.44-1.11c3.07,0,20.68-.28,31.49-.73.41,0,.67.18-.2.32-12.05,1.95-20.37,5.8-21.2,6.38-1.45,1-2.23,2.23-3.27,3.06-.9.7-2.32,1.42-3,2a4.47,4.47,0,0,0-1,2c-2.44-3.22-2.47-4.82-2-6.55A7.23,7.23,0,0,0,56.41,114.48Zm24-5.61a9,9,0,0,0-.28,3.24c-11.12.16-20.27.41-24.37.4a1.39,1.39,0,0,1,.12-.61c.31-.69,2.43-2,4.49-2.6,5.54-1.7,24.35-2.85,26.1-2.79,1.59.06,2.92.13,4,.25-3.67,4.27-8,3.33-9,2.16C81.1,108.49,80.69,108.23,80.45,108.87ZM115.6,79.66s.35-.13.83-.33a30.79,30.79,0,0,0-3.29,6.79c-.37,1.09-.82,1.46-1.39,1.65-1,.32-1,.86-.15.75.38-.05,2.31-.35,3-.53.51-.12.64-.26.8-.87.94-3.61,3.07-8.13,4.74-9.95a4.64,4.64,0,0,0,.7.14,13,13,0,0,0,3.8-.35,54,54,0,0,0-2.36,8.83,2.07,2.07,0,0,1-1.71,1.64,82.14,82.14,0,0,1-12.77,2.28c-.65,0-.86-.5-.71-1.07s1.45-5.66,4.64-8.61A7.38,7.38,0,0,0,115.6,79.66Zm6.25-7.51c1.26-.41,1.45-1.41.26-1.58s-4.25.75-6.09,1.46a3.67,3.67,0,0,0-.78-.81,15.81,15.81,0,0,1,5.71-1.8,2.48,2.48,0,0,1,2.09.51,18.89,18.89,0,0,1,2.5,3.31,12.62,12.62,0,0,1-4.7,1.06c-.36,0-.26-.31.22-.57s.3-.57-.23-.38c-1.3.46-1.47,1.46-.25,1.65A12.36,12.36,0,0,0,126,73.88a6.7,6.7,0,0,0,1.3,1.23A18.27,18.27,0,0,1,121,76.23c-2.24-.27-3.49-2.07-4.47-3.48,1.48-.58,4.1-1.57,5.32-1.51.35,0,.25.31-.22.54S121.34,72.32,121.85,72.16Zm8-2.73a9,9,0,0,1,2,3.07c.12.34-.2.36-.61,0s-.64-.08-.27.35c.89,1.05,1.88.85,1.63-.36a9.77,9.77,0,0,0-1.66-3.07H132c1.5.94,2,3.74,3.65,5.26a21.85,21.85,0,0,1-4.16.47,10.08,10.08,0,0,1-3.35-3.54c-.16-.32.15-.38.61-.08s.64,0,.23-.38c-1-.93-2-.61-1.57.56A10.08,10.08,0,0,0,130,75.09a5.84,5.84,0,0,1-.81-.13c-3.22-.81-3.63-4.63-5.77-5.7l.16,0C125.45,69.41,127.47,69.43,129.82,69.42Zm17.9-.68a9.44,9.44,0,0,1,1.55,3.75c0,.36-.27.31-.6-.12s-.61-.21-.34.29c.66,1.21,1.68,1.21,1.67,0a10,10,0,0,0-1.2-3.69,2.78,2.78,0,0,1,1.53,1c1.29,1.61,1.2,4.27,2.68,6.19a19.63,19.63,0,0,1-4.07-.34,10.34,10.34,0,0,1-3.06-4.58c-.09-.35.23-.34.61,0s.63.13.3-.33c-.81-1.11-1.82-1-1.65.23a10,10,0,0,0,2.31,4.28,7.06,7.06,0,0,1-.76-.27c-2.68-1.18-3.1-4.48-3.86-5.82A24.34,24.34,0,0,0,147.73,68.74Zm-6.15.66A24.41,24.41,0,0,1,143.09,73a12.78,12.78,0,0,1-4.68.17c-.36-.06-.2-.36.32-.52s.4-.5-.16-.42c-1.36.21-1.71,1.17-.54,1.58a12.49,12.49,0,0,0,5.41-.09,3.54,3.54,0,0,0,1,1.22,18.18,18.18,0,0,1-6.41-.13c-2-.66-2.83-2.37-3.61-3.9,1.62-.15,4.63-.4,5.86,0,.34.12.16.38-.38.48s-.46.45.1.43c1.38,0,1.86-1,.74-1.5s-4.76-.48-6.77-.28a6.54,6.54,0,0,0-.47-.71h.62C137,69.4,139.42,69.45,141.58,69.4ZM109.06,82.17a45.54,45.54,0,0,0-2.47,4.18,78.89,78.89,0,0,0-5.35,7.09c-.3.49-.1.93.82.93,4.42,0,12.27-2.71,13.77-3.28,5.45-2.08,8.29-4,9.19-8.55a1.44,1.44,0,0,1,1-1.16l12.78-4.23a7.82,7.82,0,0,1,.79,1.13c-2.47.8-10.37,3.38-12.17,4-.63.23-.93.5-1,.86-1,5.42-7.16,8.49-7.52,8.85s-.16.69.6.45c6.9-2.15,14.23-5,14.51-5s2.52,0,1.9.29c-30.68,12.06-41.14,10.77-41,10.43.57-1.78,8.06-11.66,13.71-16.21C109.27,81.38,109.74,81.34,109.06,82.17Zm50.53,17.58c.13-1.75,1.18-1.6,1.37.26a52,52,0,0,1-.17,13.15A24.64,24.64,0,0,1,159,109.7a14.33,14.33,0,0,0,.82-3.4C160.14,103.36,159.41,102.23,159.59,99.75Zm-1,11a17.39,17.39,0,0,0,2,3.36c-.08.38-.16.75-.25,1.11a21.79,21.79,0,0,1-2.17-3.45Zm-12.22,8.14c.74.18,1.73.5,1.36,1.17-.2.38-1,.89-1.39,1.31s-.19.6.22.38,6.43-4.23,11.07-1a7.37,7.37,0,0,1-.73.71c-1.81-1.35-6.48-2.34-12.44,3.09-2.88,2.63-12.2,15.07-24.41,15.69a1.19,1.19,0,0,1-1.14-.52c-.27-.37-4.86-12.35.9-19.58,1.39,1.49,2.72,3,3.92,4.37a.91.91,0,0,0,1.48.13,31.85,31.85,0,0,1,11.6-7.06,28,28,0,0,0,.6,5.61c.26,1.2,1.12,1.48,2.13,1A24.13,24.13,0,0,0,146.39,118.92Zm14.89,8.28a14.25,14.25,0,0,1-.35,5.23c-.21.69.15.67.39.06a14.11,14.11,0,0,0,.79-5.37,7.65,7.65,0,0,0,.87-.18c.2,1.46.1,5.47-1.45,7.38h-3.66a9.29,9.29,0,0,0,1.66-7.21A9.15,9.15,0,0,0,161.28,127.19Zm32.1,16.48h0Zm-.24.8c-1.11,4.1-.09,7.21.27,7.73s.88.75,1.18,0c.23-.59.56-.82.72,0a3.57,3.57,0,0,1,.08,1.31.84.84,0,0,1-.59.7c-4,1.22-6.09,3.37-9,4.11a2.89,2.89,0,0,0-1.4.64c-.12.12-.25.27-.38.43V134.32h-9.51a25.81,25.81,0,0,0,3.91-3.43,2.21,2.21,0,0,1,1.53-.66,9.51,9.51,0,0,1,1.67,0c.41.05,1.08.11,1.81,1.37,1.64,2.79,3.43,8.88,3.7,10a3.47,3.47,0,0,0,2,2.41,8.58,8.58,0,0,0,2.4.37C192.25,144.39,192.81,144.17,193.13,144.47Zm-10.51-8.74v25.66c-.13.2-.24.38-.3.5a7.79,7.79,0,0,0-.6,3,61.81,61.81,0,0,1-.27,14.86,5.28,5.28,0,0,0,.93,3.76c-3.53,42-30.91,62.82-48.3,71.87-14-7.3-34.5-23.29-44.33-50.45a4,4,0,0,0,2.25-.47c.72-.46.69-.75.1-1a4.52,4.52,0,0,1-2.19-2.73,22.58,22.58,0,0,1-.7-9,86.13,86.13,0,0,0,2.27,10.14,24.6,24.6,0,0,0,21.77-.88c7.77-4.16,13.32-4.17,20.47,0l.35.21.35-.21c7.15-4.16,12.7-4.15,20.48,0a25.12,25.12,0,0,0,11.89,3,24.25,24.25,0,0,0,10-2.17,92.56,92.56,0,0,0,3.56-26v-.75c-8.05,4.15-15.87,4.51-24.48,1.35-8-2.94-14.81-3.67-21.78,2.24-7-5.91-13.77-5.18-21.78-2.24-8.67,3.18-16.5,2.77-24.38-1.3v.7a99.15,99.15,0,0,0,.77,12.3c-.23.11-.48.24-.72.38s-1.18-.19-1.93-.63a100.13,100.13,0,0,1-.41-10.93v-41.2H116.4c.19.87.41,1.66.63,2.33H87.92v8a1.94,1.94,0,0,0,.73.21c-.41-1,.46-1.88.94-2.49.69-.88.21-2.18-1.23-3a3,3,0,0,1,3.23,2.41c.35,2.21-1.45,2.19-.7,3.93.66-.87,1.86-.54,2.63-.44,1.1.16,2-.91,1.95-2.54a3,3,0,0,1-.48,4c-1.73,1.41-2.62-.15-3.75,1.36,1.08.14,1.4,1.34,1.69,2.06.42,1,1.78,1.27,3.18.42a3,3,0,0,1-3.71,1.59c-2.09-.8-1.18-2.35-3.06-2.57.42,1-.46,1.88-.94,2.49-.69.88-.21,2.18,1.23,3a2.73,2.73,0,0,1-1.71-.35v4.49c10.58,7,20.71,4,26.12,1.29,8.28-4.1,14.69-4.09,19.59,0l.45.38.45-.38c4.9-4.12,11.31-4.14,19.59,0a28.05,28.05,0,0,0,12.32,3,25.07,25.07,0,0,0,13.9-4.36v-9.3a1.92,1.92,0,0,0-.79-.24c.42,1-.46,1.88-.94,2.49-.69.88-.21,2.18,1.23,3a3,3,0,0,1-3.23-2.42c-.35-2.21,1.44-2.19.69-3.93-.67.87-1.86.54-2.63.44-1.1-.16-2,.91-1.95,2.54a3,3,0,0,1,.48-4c1.73-1.41,2.62.15,3.75-1.37-1.08-.14-1.4-1.33-1.69-2.06-.42-1-1.78-1.27-3.18-.41a3,3,0,0,1,3.71-1.59c2.09.8,1.18,2.35,3.06,2.56-.41-1,.46-1.88.94-2.49.69-.88.21-2.18-1.23-3a2.74,2.74,0,0,1,1.76.38v-3.14H131a36.35,36.35,0,0,0,3.48-2.33Zm4.47,46.63s0,.06,0,.09a7,7,0,0,1,1.56,3.12c.11.37.59.34.53-.39-.19-2.26-.73-3.14-1.63-4,.08-.21.15-.42.23-.65l.18.14c2.9,2.17,1.44,7.07,1.22,7.64s-.35.32-.54.08a30.32,30.32,0,0,0-2.65-4.28A7.5,7.5,0,0,0,187.1,182.36Zm-1.48,2.15c.29.95,1.46,2.37,1.37,3.58,0,.58-.3.59-.49.21a21.53,21.53,0,0,0-1.77-3.37A1.73,1.73,0,0,0,185.62,184.51Zm-99.09,11c-.3-.81-3.16-6.2-3.24-7.59a4,4,0,0,1,.3-2c.17-.28.33-.18.33.36A12,12,0,0,0,85.17,191c.29.56.51.48.32-.18a12.2,12.2,0,0,1-.39-2c0-.81.13-.54.53-.34a5.84,5.84,0,0,0,1.24.54c.29.08.22.32.17.57a15.71,15.71,0,0,0-.49,3c.06.67.21.71.39,0A13.31,13.31,0,0,1,88,189.48c.41-.62.7-.51.51.25a20.77,20.77,0,0,0,.56,11.85,3.56,3.56,0,0,0,1.67,2.1c.6.31-.42.46-1.2.29a3.07,3.07,0,0,1-1.86-1.16c-.23-.3-.75-.51-1.38,0-1.13.91-10.29,7.5-11.32,8.26-.48.35-.78,1.47-1.51,2a2,2,0,0,1-1.11.44,18.17,18.17,0,0,0,1.12-3.91c3-1.29,11.62-8.11,12.83-9.56S87.15,197.12,86.53,195.47ZM102,187v-.93l-2.44-2.26a.45.45,0,0,1-.11-.45.35.35,0,0,1,.32-.27h2.39a1.65,1.65,0,0,1,3.11,0h2.39a.35.35,0,0,1,.32.27.45.45,0,0,1-.11.45l-2.44,2.26V187a1.91,1.91,0,0,1-.05.43,9.85,9.85,0,0,0,3.25,2.52,1.78,1.78,0,0,1,1,1.65,2,2,0,0,1-1,1.8,1.12,1.12,0,0,1-.53.13,2.19,2.19,0,0,1-1.65,1.61,1.33,1.33,0,0,1-1-.24,2.1,2.1,0,0,1-3.49,0,1.33,1.33,0,0,1-1,.24,2.19,2.19,0,0,1-1.65-1.61,1.1,1.1,0,0,1-.53-.12,2,2,0,0,1-1-1.8,1.78,1.78,0,0,1,1-1.65,9.83,9.83,0,0,0,3.25-2.52A2,2,0,0,1,102,187Zm30.41,0v-.93l-2.44-2.26a.46.46,0,0,1-.11-.45.35.35,0,0,1,.32-.27h2.39a1.65,1.65,0,0,1,3.11,0H138a.35.35,0,0,1,.32.27.46.46,0,0,1-.11.45l-2.44,2.26V187a2,2,0,0,1-.05.43A9.86,9.86,0,0,0,139,190a1.78,1.78,0,0,1,1,1.65,2,2,0,0,1-1,1.81,1.11,1.11,0,0,1-.53.12,2.19,2.19,0,0,1-1.65,1.61,1.34,1.34,0,0,1-1-.24,2.1,2.1,0,0,1-3.49,0,1.34,1.34,0,0,1-1,.24,2.19,2.19,0,0,1-1.65-1.61,1.09,1.09,0,0,1-.53-.12,2,2,0,0,1-1-1.81,1.78,1.78,0,0,1,1-1.65,9.89,9.89,0,0,0,3.25-2.53A1.91,1.91,0,0,1,132.38,187Zm30.46-.07V186l-2.44-2.26a.46.46,0,0,1-.11-.45.34.34,0,0,1,.32-.27H163a1.65,1.65,0,0,1,3.11,0h2.39a.34.34,0,0,1,.32.27.45.45,0,0,1-.11.45L166.26,186V187a2,2,0,0,1-.05.43,9.84,9.84,0,0,0,3.25,2.52,1.78,1.78,0,0,1,1,1.65,2,2,0,0,1-1,1.81,1.1,1.1,0,0,1-.53.12,2.2,2.2,0,0,1-1.65,1.61,1.35,1.35,0,0,1-1-.24,2.1,2.1,0,0,1-3.49,0,1.35,1.35,0,0,1-1,.24,2.2,2.2,0,0,1-1.65-1.61,1.09,1.09,0,0,1-.53-.12,2,2,0,0,1-1-1.81,1.78,1.78,0,0,1,1-1.65,9.85,9.85,0,0,0,3.25-2.52A2,2,0,0,1,162.84,187Zm-28.15-43.2c.69-.88.21-2.18-1.23-3a3,3,0,0,1,3.23,2.41c.35,2.21-1.45,2.19-.7,3.93.67-.87,1.86-.54,2.63-.44,1.1.16,2-.91,1.95-2.54a3,3,0,0,1-.48,4c-1.73,1.41-2.62-.15-3.75,1.36,1.08.14,1.4,1.34,1.69,2.06.42,1,1.78,1.27,3.17.42a3,3,0,0,1-3.71,1.59c-2.09-.8-1.18-2.35-3.06-2.57.42,1-.46,1.88-.94,2.49-.68.88-.21,2.18,1.23,3a3,3,0,0,1-3.22-2.42c-.35-2.21,1.44-2.19.69-3.93-.66.87-1.86.54-2.63.44-1.1-.16-2,.91-1.95,2.54a3,3,0,0,1,.48-4c1.73-1.41,2.62.15,3.75-1.37-1.08-.14-1.4-1.33-1.69-2.06-.42-1-1.78-1.27-3.17-.41a3,3,0,0,1,3.71-1.59c2.09.8,1.18,2.35,3.06,2.56C133.34,145.26,134.22,144.39,134.7,143.77Zm-22.54,9.77c-.69.88-.21,2.18,1.23,3a3,3,0,0,1-3.22-2.42c-.35-2.21,1.44-2.19.69-3.93-.66.87-1.85.54-2.63.44-1.1-.16-2,.91-1.95,2.54a3,3,0,0,1,.48-4c1.73-1.41,2.62.15,3.75-1.37-1.08-.14-1.4-1.33-1.69-2.06-.42-1-1.78-1.27-3.17-.41a3,3,0,0,1,3.7-1.59c2.09.8,1.18,2.35,3.06,2.56-.42-1,.46-1.88.94-2.49.69-.88.21-2.18-1.23-3a3,3,0,0,1,3.23,2.41c.35,2.21-1.45,2.19-.7,3.93.66-.87,1.86-.54,2.63-.44,1.1.16,2-.91,1.95-2.54a3,3,0,0,1-.48,4c-1.73,1.41-2.62-.15-3.75,1.36,1.08.14,1.4,1.34,1.69,2.06.42,1,1.78,1.27,3.18.42a3,3,0,0,1-3.71,1.59c-2.09-.8-1.18-2.35-3.06-2.57C113.51,152.06,112.64,152.93,112.16,153.54Zm44.74-9.77c.69-.88.21-2.18-1.23-3a3,3,0,0,1,3.23,2.41c.35,2.21-1.45,2.19-.7,3.93.66-.87,1.86-.54,2.63-.44,1.1.16,2-.91,1.95-2.54a3,3,0,0,1-.48,4c-1.73,1.41-2.62-.15-3.75,1.36,1.08.14,1.4,1.34,1.69,2.06.42,1,1.78,1.27,3.18.42a3,3,0,0,1-3.71,1.59c-2.09-.8-1.17-2.35-3.06-2.57.42,1-.46,1.88-.94,2.49-.69.88-.21,2.18,1.23,3a3,3,0,0,1-3.23-2.42c-.35-2.21,1.44-2.19.69-3.93-.66.87-1.86.54-2.63.44-1.1-.16-2,.91-1.95,2.54a3,3,0,0,1,.48-4c1.73-1.41,2.62.15,3.75-1.37-1.08-.14-1.4-1.33-1.69-2.06-.42-1-1.78-1.27-3.18-.41a3,3,0,0,1,3.71-1.59c2.09.8,1.18,2.35,3.06,2.56C155.54,145.26,156.41,144.39,156.89,143.77Zm-16-13.79a10.37,10.37,0,0,0,.79,2c.24.39.47.32.35-.06-.19-.62-.47-1.63-.65-2.47.52-.55,1-1.09,1.42-1.57a13,13,0,0,0,2.36,6.43H142a16.08,16.08,0,0,1-1.86-3.6Zm-1.41,1.43a18.25,18.25,0,0,0,1.4,2.9h-4.58C137.41,133.35,138.47,132.37,139.44,131.42Zm26.67,2.9h-3.57a12.27,12.27,0,0,0,1.24-7.66,5.76,5.76,0,0,0,3.54-5.55c0-1.06.41-.83.49,0,.54,5.87,2.75,6.94,4.37,8.25a25.75,25.75,0,0,1-4.12,2.63A3.54,3.54,0,0,0,166.1,134.32Zm-37.71-21.19c-3.14-4.71-9.35-12-9.7-12.49s-.71-1,.21-1.29c1.23-.38,4.33-1.43,4.92-1.57a1.6,1.6,0,0,1,1.71.64c3.14,4,10,11.64,11.8,13.68a27.12,27.12,0,0,0-.49,4.5,44.6,44.6,0,0,0-7.68,3.73c-1,.67-1.34.35-1.71-.14-3.39-4.46-13.41-15-16.48-17.05-.86-.57-.71-1.14.07-1.36s2.36-.63,3.57-1a1.77,1.77,0,0,1,1.85.43c.93.79,8.78,9.06,11.34,12.06C128.22,113.73,128.67,113.55,128.39,113.13Zm8.21-28.4a2.08,2.08,0,1,1,2.08-2.08A2.08,2.08,0,0,1,136.61,84.73Zm-4.23.22a2.08,2.08,0,1,1-2.08-2.08A2.08,2.08,0,0,1,132.37,85Zm72,80.44c2.1,6.18,10,9.14,10,13.21h0l-.13.67,0,.17c-1.29-3.12-10.45-8.17-12.07-14.6a15.62,15.62,0,0,0,2,.55Zm6.45,25.16c-.07.3-.12.61-.17.91-.76.12-2.13.26-2.87.33-.35,0-.68.2-.84.84a7.28,7.28,0,0,0,1.74,7.1c.38.46,1.45,1.6,1.46,2.39a2.77,2.77,0,0,1-1.59,2.76c-.71.33-2.88.27-4.49.67-2.57.64-9.36,3.1-10,3.8a8,8,0,0,1-2,1.66c-.59.24-.83.07-1.11-.38s-.6-1-1.43-.49c-1.43.9.11,1.65-2.22,2.33-.74.21-3.34.37-3.93-.09-1.12-.87.19-2.43.64-3.1a8.94,8.94,0,0,1,4.2-2.76c1.64-.54,11.49-3.69,13.58-4.7s1.06-4.4.2-5.34a36.84,36.84,0,0,1-4.46-5.74c-.86-1.89-1.15-5,.11-6.61,1.84-2.29,5.87-5.39,11.73-8.38.66.56,1.29,1.1,1.87,1.62-1.08.46-2.89,1.15-3.18,1.29-1,6,2.44,8.89,3.49,9.57C211.21,189.08,211,189.87,210.83,190.54Zm-29.78,28.63a15.47,15.47,0,0,0,2.44-5.65,7.06,7.06,0,0,0,1.78.16,9.07,9.07,0,0,1-1.53,3.34c-.3.41,0,.63.48.2a6.73,6.73,0,0,0,2-3.64c.26,0,.51-.08.8-.15-.74,3.39-1.63,4.34-5.37,6C181,219.73,180.84,219.49,181.05,219.18ZM180,217.8a13.37,13.37,0,0,0,2.21-4.68s.52.1.51.4a9.65,9.65,0,0,1-1.62,4.19C180.72,218.26,179.51,218.33,180,217.8Zm42.54,23.43c-.43.1-.71.11-.05-.75a19.27,19.27,0,0,0,2.09-3.34,22,22,0,0,1-1.28,3.83A4.06,4.06,0,0,1,222.51,241.23Zm1.72-7.71a1.66,1.66,0,0,0-.18.77c-3.58-2.3-6.87-5.51-8.22-9.17a29.39,29.39,0,0,0,10.06,5C225.35,231.33,224.61,232.81,224.22,233.52Zm-8.17,3a31.21,31.21,0,0,0,6.91,1.64c-.58.91-1.27,1.86-1.85,2.62A23.69,23.69,0,0,1,216.05,236.53Zm8.32,5.2c-.69.26-.69.11-.11-1.12a8.6,8.6,0,0,0,1.07-4.24,6.43,6.43,0,0,0,2.43-.4,11.25,11.25,0,0,1-1.58,3.55c-.28.42,0,.62.49.17a9,9,0,0,0,2.15-4.15,6.41,6.41,0,0,0,.63-.33C229.25,238.71,226.24,241,224.38,241.73ZM185,125.37a11,11,0,0,0,3.05,2.81c.76.38,3.78,1.8,4.68,2.27a34.68,34.68,0,0,1,4.47,2.67,5.82,5.82,0,0,0-.54,1.12c-.14.45.08.73.63.67a13.3,13.3,0,0,0-3.7,4c-3,.41-4.35-2.37-4.68-3.12a43.28,43.28,0,0,0-4.53-7.84c-.34-.45.42-1.74-1.69-.77a4,4,0,0,1-3.31,0,1.76,1.76,0,0,0-2.08.79,37,37,0,0,1-3.49,4.17c-1,1.14-.5,1.35.53.46a32.48,32.48,0,0,0,3.75-4c.53-.66.84-.77,1.26-.49a3.05,3.05,0,0,0,3.16,0c.54-.33.84-.18,1.2.38a80.36,80.36,0,0,1,5,10.12c1,2.28,1.46,2.73,3.72,2.74a7.63,7.63,0,0,0-.31,1.62,4.66,4.66,0,0,1-2.45-.2,2.87,2.87,0,0,1-1.88-2.26c-.28-1.12-2.35-7.54-4.13-10.32-.8-1.24-1.43-1.17-1.89-1.21a11.54,11.54,0,0,0-1.87,0,3.19,3.19,0,0,0-1.88.66c-.64.51-3.15,3.37-4.85,4.58h-6.15a3.29,3.29,0,0,1,1.93-1.93,29.58,29.58,0,0,0,8.65-7,2.36,2.36,0,0,1,1.92-1.11c.6-.06,2.15-.21,2.78-.25A2.37,2.37,0,0,1,185,125.37ZM170.72,88.65C181,97.11,194.14,90.49,193,79.74c-.67-6.36-8-5.87-8,.14-5.72-2.16-6.89-8.17-1-9.44.86-.19,1-.89,0-1.26-7.86-3.11-10.57-9.7-10.79-12.71,8.15,1.74,12.79-.85,20.74,9.13,2.19,2.75,4.64.68,3.16-2.65-2.09-4.7-7.05-11.74-8.21-14.86a5.92,5.92,0,0,1,.24-5.39c.82-1.34,9.36-10.88,10.46-12.12,2.12-2.37,4.37-2.69,7.75-2.28,15.58,1.91,19.73-2.59,18.43-8.4-.27-1.21-.61-.46-.52.12a5.58,5.58,0,0,1-2.07,5.68c-1-1.12-4.22-3.45-4.82-7.92-.05-.43,0-.5.4-.52,3.87-.18,6.43.7,7.43,1.75a10.4,10.4,0,0,1,2.6,7.16c.1,6.18-6.48,10.72-12.8,10.62-.64,0-.79.23-.63,1s.55,8.32-9.38,8.59c-.47,0-.62-.12-.41-.52,2.73-5.27-.18-12.27-7.15-10.58.16-.27.31-.54.49-.8a6.33,6.33,0,0,1,3.41,0,6.15,6.15,0,0,1,2.09-4,8.72,8.72,0,0,1,1.13-.25c1.8-.26,1.76-.72.22-.68-4.4.12-8.46,4-9.47,8.09-.46,1.85-.15,3.84,2.36,7.52a95.09,95.09,0,0,1,9.57,18.12c.39,1,1.16,1,1.65-.31,2.67-6.84,8.52-7.76,14.27-11.23.35-.21.49-.08.41.22-1.29,5.26-.39,9.05-7.48,14.58-.75.58-.42,1.18.12,1.28,6.3,1.1,5.4,8.95-.14,10.54-.42.12-.5,0-.42-.3.88-3.68-3.8-5.46-6.41-1.37-4.24,6.65-7.24,7.38-9.42,7.69a15,15,0,0,1-6.39,6.47q.16-.59.29-1.21c2.75-1.33,4.81-4.38,5.56-5.77A7.31,7.31,0,0,0,203,82.74c-.61-1.16-3.79-3.93-8.17-.57,0-.3-.09-.59-.14-.89-.19-1-.71-1.11-.52.45,1.71,14.39-9.36,21.93-21.22,18.53-.64-.18-1.3.18-.89,1.28,1.14,3.07,4.15,7.41,8,9,4.87,2,7-2.09,3.32-4.17l0,0a11.05,11.05,0,0,0-1.27-.65c-.4-.19-.49-.12-.51.36a9,9,0,0,0,.53,3c.23.58.45.38.36-.16s-.59-2.91.67-2.19c2,1.36,1.31,3.59-1.51,3a9.54,9.54,0,0,1-.63-4.19c.05-.54.34-.68.75-.55s5.27,2.11,5,5.28a20.62,20.62,0,0,1-1.34,5,4.46,4.46,0,0,1-4.2,2.8c-2.85.08-6.39-2.35-7.69-3.23s-2.65,0-1.69,1.3c1.54,2.08,5.53,3.21,6.8,7.48a3.34,3.34,0,0,0-.95.5s0,0,0-.06a8.87,8.87,0,0,0-.58-1.6c-.22-.46-.56-.44-.57,0a2.86,2.86,0,0,1-3.95,2.38c-.68-.34-1.23-1.28-.86-1.16,1.78.57,4.53-.71,3.51-3.35-.33-.85-.75-.6-.62,0,.43,2.05-2.46,2.91-3.56,1.53a5.64,5.64,0,0,1-1.13-2.71c-.16-.73-.63-.65-.58.16.28,4.91,1.81,6.72,4.7,8.52l-.9.79c-1.77-1.45-5-3-4.93-12.25,0-2.34-2.48-2.24-2.06-.05C168.34,128,158,127.16,155.75,124c-.39-.54-.31-.67.28-.9,6.89-2.73,6.73-16.6,5.61-24.06-.36-2.38-2.56-2.18-2.73.13s.38,3.76.09,6.55c-.48,4.62-4,6.87-3,11.79.18.91-.34.87-.79.37-2.69-3-3.63-6.66-2.29-12.57.78-3.46-2.21-3.28-2.56-1.25-.53,3-.34,6.66-1.36,8.87-.56,1.21-3,5.9-9.55,9.75-.53.31-.88.15-1-.79a25.81,25.81,0,0,1,1.22-13.72c1.73-4.5,7.78-8.69,8.3-11.34.37-1.87-.95-2.59-2-2.29-2.3.63-2.17,2.78-4,4.8a13.5,13.5,0,0,1-7.83,4.37c-.93.2-1.24.36-1.27-.71-.14-4.25-.71-9.54,4.37-14.54,2.7-2.66,6.85-7.68,2-12.31a21.34,21.34,0,0,0,3.27.11,16.15,16.15,0,0,1,7.07,11.88c-.45-.45-3.14-1.3-4.74-4-.52-.86-1-.74-1.31.05-.85,2-3.07,3.52-5,5.16h0a11.19,11.19,0,0,0-2.16,2.16L136,92c-2,2.9-2.45,6.56-2.16,10.51,0,.33.19.52.58.37a15.07,15.07,0,0,0,4.93-2.76c.36-.37.19-.62-.32-.59-1.34.07-3.62-1.55-3.78-2.86-.06-.47.26-1.63.4-1.21.66,1.89,3.55,4,5.82,2.26.74-.56.52-.88-.16-.78-3.17.45-5.13-3-4.85-3.76.35-1,.69-1.55,2.21-2.9,2.24-1.83,4.34-2.87,5.39-5.36a12.48,12.48,0,0,0,2.87,2.78,17,17,0,0,1-1,5.39c-.13.28.94-.08,1.37,0s1.05.95,1,.52c0-1.65-.13-3.43-.28-5.21l.7.37c1,.47,1.42.49,1.43-.32A15.79,15.79,0,0,0,146,78.51c1.7.1,10.26.66,15.07,1.79.95.22.84,0,.5-.26a24.94,24.94,0,0,0-3.77-2.18,4.7,4.7,0,0,0,1-.25C165.2,80.23,166.5,85.19,170.72,88.65ZM160.05,73.22a3.24,3.24,0,0,1,0,1.62,12.54,12.54,0,0,1-5-.49c-.34-.11-.15-.38.39-.47s.47-.44-.09-.43c-1.38,0-1.86.9-.77,1.48a12.72,12.72,0,0,0,5,.74c-.72,1-2.18,1.49-4.43.86a3.42,3.42,0,0,1-2.05-2.09,26,26,0,0,1-.92-2.88,14.7,14.7,0,0,1,5,.54c.33.15.12.39-.42.44s-.5.41.06.44c1.38.08,1.94-.82.86-1.43s-3.82-.88-5.8-.86a3.94,3.94,0,0,0-.77-1.28C150.75,69.06,159.15,69.23,160.05,73.22Zm-6.31-4.72.33-.11c1-.42,1.34-1.16,1.32-1a2.92,2.92,0,0,0,.17,1.42A18.37,18.37,0,0,0,153.74,68.5Zm5.74-.81c-.39,1.32-1,1.71-2,1.59-1.15-.15-2.25-2.18.11-3.39.63-.32.38-.68,0-.67a4.1,4.1,0,0,0-3,1.83,1.9,1.9,0,0,1-1.63.73l-2.39,0a25.17,25.17,0,0,0,9.28-7.34c-.4,1.92-1.09,5.65-1.12,5.95-.09.73.17.86.43,0,.21-.72,1.24-5.32,1.64-7.12.51-.68,1-1.37,1.42-2C161.21,60.95,159.7,67,159.49,67.68ZM164.25,43l-4.5.71c0-1.06,0-5,0-7.49ZM155,35.87a2.85,2.85,0,0,0,.37.73c.92,1.33.76,1.89.38,2.1s-1.22-.07-1.87-1A6.19,6.19,0,0,0,155,35.87Zm-.56,4.37c-2-.13-2.28-4.81-5.19-4.72,4-1.84,4,5,6.82,3.59C156.21,39,155.08,40.28,154.42,40.24Zm1.4-3.73c-1-1.72.21-3.32,2.73-1V37.4A3.92,3.92,0,0,0,155.82,36.51Zm2.73,3.57c0,1.79,0,3.38,0,3.78l-1.75.28Zm-6.24,5.43c4.5-.7,9.4-1.48,14.76-2.35a.55.55,0,1,1,.17,1.07c-4.35.7-11.26,1.86-14.72,2.39C151.57,46.77,151.44,45.65,152.31,45.51Zm.58,1.74h0c3.54-.56,8.87-1.46,13.23-2.17l-.68,3.62h0l-1.35.22.37-2-1.18.13-.38,2.06-1.11.18.37-2-1.18.13-.38,2.06-1.11.18.37-2-1.18.13-.38,2.05-1.11.18.37-2-1.18.13-.38,2-1.11.18.37-2-1.18.13-.38,2.06-1.41.24Zm-1.2,4.25c4.09-.64,8.73-1.44,13.6-2.23a.5.5,0,1,1,.15,1c-4,.64-10.41,1.78-13.56,2.27C151,52.65,150.9,51.62,151.69,51.5Zm-43.35.3A28.32,28.32,0,0,0,113.53,59c.54.52.8.33.36-.21a27.42,27.42,0,0,1-4.83-6.83l.85.14c1.6,3.41,5.26,8.26,13.24,10.66a1.54,1.54,0,0,0,2.9.72c.6.12,1.22.22,1.86.31a1.54,1.54,0,0,0,3,.31c.57,0,1.16.07,1.76.09a1.54,1.54,0,0,0,3,0c.63,0,1.24-.05,1.84-.1a1.54,1.54,0,0,0,3-.32c.61-.09,1.21-.19,1.78-.3a1.54,1.54,0,0,0,2.9-.72c8-2.4,11.64-7.25,13.24-10.66l.85-.14a27.41,27.41,0,0,1-4.83,6.83c-.43.54-.18.73.36.21a28.33,28.33,0,0,0,5.19-7.17l.71-.12c-2.2,5-7.5,14.89-26.51,14.89s-24.31-9.87-26.51-14.89Zm3.25.55a24.1,24.1,0,0,0,4.54,5.19c.51.42.75.21.34-.22a22.62,22.62,0,0,1-4.14-4.85l.92.15c2,3.37,7.39,8.26,20.89,8.26S153,56,155,52.62l.92-.15a22.62,22.62,0,0,1-4.14,4.85c-.41.44-.18.64.34.22a24.12,24.12,0,0,0,4.54-5.19l.84-.14c-1.32,2.68-4.71,7.39-12.61,9.75a1.54,1.54,0,0,0-2.89.71c-.54.11-1.1.2-1.68.29a1.54,1.54,0,0,0-3,.32c-.58,0-1.16.07-1.77.09a1.54,1.54,0,0,0-3,0c-.58,0-1.14,0-1.69-.08a1.54,1.54,0,0,0-3-.31q-.91-.13-1.76-.3a1.54,1.54,0,0,0-2.89-.71c-7.9-2.36-11.29-7.07-12.61-9.75Zm38.35.95a14.33,14.33,0,0,1-6.38,2.81l-1.35-6.92A42.3,42.3,0,0,1,149.93,53.29Zm-20,1.52-1.19-.16.24-1.43,1.15.14Zm.29-2.1-1.13-.14.22-1.35,1.1.13Zm.28-2-1.08-.13.21-1.3,1,.13Zm-2.29-1.6.77.09-.22,1.3-1-.12.22-1.13Zm2.57-.35-1-.13.06-.39a9.52,9.52,0,0,1,1.09-.36ZM127.65,51l1,.12-.22,1.35-1-.12Zm-.39,2,1.06.13-.24,1.42-1.1-.14Zm-.4,2.05,1.12.15-.23,1.4-1.15-.17Zm1.77.23,1.2.16-.19,1.35-1.24-.12Zm2.95-7.6q.5-.1,1-.16L132.4,57q-1.1,0-2.1-.1Zm1.78-.23.81,0,.16,9.54h-1.18ZM135.92,57l-.16-9.43a19.54,19.54,0,0,1,2.22.35l1.24,8.89C138.21,56.87,137.11,56.94,135.92,57Zm2.93-7.67,1-.13.21,1.3-1.08.13Zm1.37,1.82.22,1.35-1.13.14-.19-1.35Zm-.82,2.14,1.15-.14.24,1.43-1.19.15ZM141.2,53l1.06-.13.28,1.41-1.1.14Zm-.11-.65L140.87,51l1-.12.26,1.34Zm-.33-2-.21-1.3.94-.11.25,1.29Zm-1-2.05,0,.18-1,.13-.08-.6Zm.12,8.36-.19-1.35,1.2-.16.22,1.35Zm1.89-.26-.22-1.33,1.12-.14.25,1.27Zm-21.91-34.9a1.24,1.24,0,0,1-.16-1.12l5.24-.89a1.3,1.3,0,0,0,.17,1.12Zm13.59-7.23a2.14,2.14,0,0,1,.75-.11l0,3.11-.81.14Zm4.58,3a1.32,1.32,0,0,0,.11,1.12l-5.86,1a1.23,1.23,0,0,1-.16-1.12Zm7.85-.18a1.21,1.21,0,0,1-.18-1.09l6.06-1a1.31,1.31,0,0,0,.16,1.08Zm-.77.13-6.22,1a1.25,1.25,0,0,1-.14-1.11l6.2-1A1.31,1.31,0,0,0,145.11,17.28Zm-13.6,2.29-5.63,1a1.2,1.2,0,0,1-.2-1.11l5.71-1A1.31,1.31,0,0,0,131.51,19.57Zm-1.5,1a2.14,2.14,0,0,1-3,.52Zm6.16-1a2.47,2.47,0,0,1-3.24.54Zm6.49-1.09c-.91.94-2.44,1.46-3.47.58Zm6.44-1.07c-1.07,1.28-3.13,1.42-3.77.62Zm5.56-2.77a.55.55,0,1,1,.16,1.07l-2.13.35a1.2,1.2,0,0,1-.19-1.07Zm-19.27,2.52,0-2.31a11,11,0,0,0,1.35-.17L148,15ZM128.43,5.74c-.14.42-.56,1.63-.7,1.91a1.31,1.31,0,0,1-1,.59,13.59,13.59,0,0,1-5.34-1.07,1,1,0,0,1-.48-.81c0-.59-.06-1.69-.06-2.19s0-.9.76-1c2.67-.42,2.69-2.07,1.22-2.18h-.11a4.07,4.07,0,0,0-1.64.21c-.46.19-.29.4,0,.37,1.14-.1,1.08.62,1,1l-.54.1a1.32,1.32,0,0,0-1.27,1.18s0,.11,0,.17a15.66,15.66,0,0,1-6.35-2.19c-.28-.2-.22-.31.14-.26a13.51,13.51,0,0,0,6.57-.76c1.77-.54,3.81-.52,3.73.85,0,.23-.15,1.54-.29,2.5a7.87,7.87,0,0,1-1.94-.46c-.19-.09-.14-.16.08-.3s.07-.22-.2-.14c-.43.13-.67.51-.32.74.77.54,4.34,1,6,.85.38,0,.55-.42-.06-.87-.22-.17-.34,0-.23.13s.11.28-.17.29-.61,0-.95,0L126.39,3c.6.47,1.91.85,2.24,1.53C128.79,4.89,128.57,5.32,128.43,5.74Zm.69-.09.09-.33c.32.09.83.21,1,.24a3.2,3.2,0,0,1,0-1.32.64.64,0,0,1,.65-.34c.5,0,.56-.27.13-.41a31,31,0,0,0-3.56-.85c-.41-.05-.58,0-.59.16l-.17-.11c-.27-.24-.18-.5.31-.48a41.45,41.45,0,0,1,6.2,1.44l0,3.3A30.85,30.85,0,0,0,129.12,5.65ZM133.67.83a2,2,0,0,1,.51,0l.05,8.46h-.09l-.64,0Zm.47,9c2.15,0,4,.37,4,.84,0,.23-.66,2.43-.9,3.26a4.76,4.76,0,0,0-.79-.18c.09-.46.4-2,.52-2.56s.06-.54-.26-.66a6.09,6.09,0,0,0-1.91-.17c-.25,0-.15.15,0,.19.81.19.75.36.76.49s-.25,1.91-.36,2.58c-.34,0-.7,0-1.08,0a11.48,11.48,0,0,0-3,.31c-.37-1.15-1-3-1-3.23C130.13,10.23,132,9.86,134.14,9.86Zm-1.65,4.92.4,0,0,2.73-11.5,2Zm-15.77,6.16,2.25-.39a1.31,1.31,0,0,0,.13,1.13l-2.17.37C116,22.22,115.85,21.09,116.71,20.94Zm7.46.61c-.83.92-2.49,1.38-3.12.54Zm-4.68,1.27.86-.16a2.13,2.13,0,0,0,1.71.77,3.9,3.9,0,0,0,3.07-1.67l.32-.05.73-.12a2.7,2.7,0,0,0,2,.81,3.38,3.38,0,0,0,2.75-1.53l1.29-.23a2.69,2.69,0,0,0,1.9.74,3.64,3.64,0,0,0,3.06-1.72l1.22-.16a2.77,2.77,0,0,0,2.05.88,4.25,4.25,0,0,0,3.17-1.65l1-.11h.06a2.58,2.58,0,0,0,2,.79,4.11,4.11,0,0,0,3.46-1.88l.63-.09c-5.93,8.32-8.29,16.28-7,23.67a21.67,21.67,0,0,0,4.68,10.17c-5.17-3.08-10-4.7-14.2-4.7-5.69,0-9.49,3-10.41,8.17C119.51,48.36,112.23,34.55,119.5,22.82Zm7.7,27.1-1.26,6.43q-.76-.14-1.43-.29A9.33,9.33,0,0,1,127.2,49.92Zm6.94,7.89c12.16,0,15.71-3.11,17.18-4.63a1.14,1.14,0,0,0,.22,0l.81-.13a19.88,19.88,0,0,1-2.73,2.48c-.39.35-.17.56.31.22a21.86,21.86,0,0,0,3.18-2.83l1-.17c-1.73,2.61-6.91,7.29-20,7.29s-18.27-4.69-20-7.29l1,.17a21.85,21.85,0,0,0,3.19,2.83c.48.34.7.13.31-.22a19.76,19.76,0,0,1-2.73-2.48l.8.13a1.16,1.16,0,0,0,.22,0C118.43,54.69,122,57.81,134.14,57.81ZM111.92,44.22l-3.65-.58c0-1.07,0-4.23,0-6.61Zm-8.42-8.31a2.86,2.86,0,0,0,.37.73c.92,1.33.76,1.89.38,2.1s-1.22-.06-1.87-1A6.21,6.21,0,0,0,103.5,35.92Zm-.56,4.37c-2-.13-2.27-4.81-5.19-4.72,4-1.84,4,5,6.82,3.59C104.74,39.07,103.6,40.33,102.94,40.29Zm1.41-3.73c-1-1.72.21-3.32,2.73-1v1.92A3.91,3.91,0,0,0,104.35,36.56Zm2.73,3.57c0,1.38,0,2.63,0,3.32l-1.34-.21Zm-5.87,3c5.36.87,10.27,1.65,14.76,2.35.86.13.74,1.26-.21,1.11-3.46-.54-10.37-1.69-14.72-2.39A.55.55,0,1,1,101.2,43.16Zm14.19,4.09h0l.67,3.6-1.36-.23-.38-2.06-1.18-.13.37,2-1.11-.18L112,48.18,110.81,48l.37,2-1.11-.18-.38-2.06-1.18-.13.37,2-1.11-.18-.38-2.06-1.18-.13.37,2-1.11-.18L105.08,47l-1.18-.13.37,2-1.4-.22h0l-.68-3.62C106.52,45.79,111.85,46.69,115.39,47.25Zm-12.41,2c4.87.79,9.52,1.59,13.6,2.23.79.12.67,1.15-.19,1-3.15-.49-9.61-1.63-13.56-2.27A.5.5,0,1,1,103,49.28Zm2,2a32.65,32.65,0,0,0,6.41,9.87c.57.55.81.37.35-.21a35.77,35.77,0,0,1-6.12-9.55l1.13.19c2.54,6.25,8.39,15.79,27.36,15.79S159,57.79,161.5,51.54l1.13-.19a35.77,35.77,0,0,1-6.12,9.55c-.46.58-.21.76.35.21a32.64,32.64,0,0,0,6.41-9.87l1.21-.2c-1.74,3.75-7,13.91-16.76,16.58-3.5,1-7.16.77-13.57.77s-10.07.22-13.57-.77C110.8,65,105.55,54.79,103.8,51Zm7.53,18.69c-.9.17-1.21,0-1.33-.66-.33-1.76-.66-4.78-.91-6.81a22.31,22.31,0,0,0,9.48,6.06C117.45,69,113.33,69.78,112.54,69.93Zm-.13,2.42a9.48,9.48,0,0,1,2.3,3.4c.12.34-.2.36-.61,0s-.64-.08-.27.35c.89,1.05,1.89.85,1.63-.36a10,10,0,0,0-2.08-3.57l-.1-.07a2.18,2.18,0,0,1,2.09.83c.7.77,1.91,3.15,3.37,3.66.28.1-1.87,1.74-4.23,2.33a9.41,9.41,0,0,1-3.12-3.37c-.16-.32.15-.38.61-.08s.64,0,.23-.38c-1-.93-2-.61-1.57.56a9.16,9.16,0,0,0,2.73,3.46,3.54,3.54,0,0,1-3.27-1.27C109,76.37,109.62,73.38,112.42,72.36ZM95.1,101.53c.41-1.1-.25-1.46-.89-1.28C82.34,103.66,71.27,96.11,73,81.72c.19-1.56-.33-1.48-.52-.45-.06.3-.1.6-.14.89-4.37-3.35-7.55-.59-8.17.57a7.32,7.32,0,0,0,2.7,1.08c.74,1.39,2.8,4.44,5.56,5.77q.12.62.29,1.21a15,15,0,0,1-6.39-6.47c-2.17-.31-5.18-1-9.42-7.69-2.61-4.1-7.3-2.31-6.41,1.37.08.33,0,.43-.42.3-5.54-1.6-6.45-9.45-.14-10.54.54-.09.87-.69.12-1.28-7.09-5.53-6.18-9.32-7.48-14.58-.07-.3.07-.43.41-.22,5.76,3.47,11.6,4.39,14.27,11.23.49,1.26,1.26,1.28,1.65.31A95.09,95.09,0,0,1,68.46,45.1c2.51-3.68,2.82-5.67,2.36-7.52-1-4.1-5.07-8-9.47-8.09-1.54,0-1.58.42.22.68a8.71,8.71,0,0,1,1.13.25,6.16,6.16,0,0,1,2.09,4,6.33,6.33,0,0,1,3.41,0c.18.26.34.53.49.8-7-1.69-9.88,5.31-7.15,10.58.21.4.06.54-.41.52-9.93-.27-9.54-7.84-9.38-8.59s0-1-.63-1c-6.32.1-12.9-4.45-12.8-10.62A10.4,10.4,0,0,1,40.91,19c1-1.05,3.56-1.93,7.43-1.75.39,0,.46.09.4.52-.59,4.47-3.84,6.8-4.82,7.92A5.58,5.58,0,0,1,41.85,20c.08-.58-.25-1.33-.52-.12C40,25.7,44.18,30.2,59.76,28.29c3.38-.41,5.63-.09,7.75,2.28C68.62,31.81,77.15,41.35,78,42.69a5.93,5.93,0,0,1,.24,5.39C77.06,51.19,72.1,58.24,70,62.94c-1.48,3.33,1,5.4,3.16,2.65,8-10,12.59-7.39,20.74-9.13-.22,3-2.92,9.6-10.79,12.71-.94.37-.82,1.08,0,1.26,5.91,1.27,4.75,7.29-1,9.44,0-6-7.32-6.5-8-.14-1.13,10.75,12,17.37,22.28,8.92a50.7,50.7,0,0,1,12.5-8c-7.16,5.12-14,14.24-15.32,16.55-.79,1.38,0,2,1.42,2.13a6.8,6.8,0,0,1,3.14,1.07,93,93,0,0,1,7.59,6.13c4.11,7.91-.73,13.57,5.37,16.58.57.28.67.37.28.9-2.27,3.12-12.6,4-10.38-7.74.41-2.19-2.12-2.29-2.06.05.39,15-8.51,12.76-14,15.8-.69.38-.45.1-.39-.56,1-11.87,9.24-10.5,11.15-15.11.61-1.48-.78-2.38-2.14-1.46s-4.72,3.11-7.58,3A4.52,4.52,0,0,1,81.65,115l1-.26c1,2.6,3.25,2.88,5.48,2.29.54-.15.58-.57,0-.63A2.7,2.7,0,0,1,85.52,114l1.11-.25c.58,1.59,2.28,2.26,4.25,1.85.74-.16.67-.53,0-.6a2.41,2.41,0,0,1-2.35-1.66l1.36-.28c1.14-.23.81-1.08,0-1.08h-1a35.25,35.25,0,0,0,2.77-3c.41-.57.09-.84-.22-.51a8.93,8.93,0,0,1-9.1,2.7c-.29-.05-.4.43-.39.89H81a7.36,7.36,0,0,1,0-2.18c.1-.5.19-.18.64.12.84.56,5.67,2.34,10.15-3.07l.48.12c1.08.32,1.27-.26.67-.75l-.36-.29A22.49,22.49,0,0,0,95.1,101.53Zm-39.42,4.71C74,104.46,84,104.4,86.06,104.62a14.18,14.18,0,0,1,4.25.88c1.36.54,1.57.78.1.57a33.17,33.17,0,0,0-5.42-.34c-1.69,0-19.66,1-25,2.7-2.6.82-5.14,2.33-5.29,3.55-.08.65.4,1.55,1.07,3.12a6.85,6.85,0,0,1,.39,3.13,28.55,28.55,0,0,0-2.65-4c-1.1-1.41-1.53-2.71-.7-3.81C53.3,109.75,55.2,107.83,55.67,106.24Zm-19-31.17c.24-.23.47-.25.36.24-1.84,8.45-.41,33.26,1.19,41.69.41,2.19,1,1.59.78-.07-.2-1.24-.76-5.58-1.25-11.26l.06.41c-.44-8.26.35-16.7,3.23-19.73.39-.41.59-.49.5,0-.59,3.48-1,10.48-.22,20.68-.11.11-.23.2-.34.32a8.69,8.69,0,0,0-1.44,2.45c-1.3,3.77-.08,9.4,4,15l1.5,1.91.47.52c2,15.14,6.82,28.94,16,33.67-.16.25-.35.51-.56.78-1.28-.47-4.83-2.8-7.87-6.93-1.35,4.37-.93,7,.08,8.52-5.78-3.63-10.57-11.84-14.87-27a11.33,11.33,0,0,1-.51-3.83,20.9,20.9,0,0,0-.52-6.86c-.54-2.5-2.64-11.08-4.29-21.79C32.26,97.26,31,80.56,36.71,75.07Zm26,83.85s-.19.43-.6,1.11c-7.55-4-12.65-15.17-15.15-31.31.37.38.74.75,1.13,1.13,3.35,3.13,4.74,4.58,8.25,8C62.89,145.33,65.95,152.17,62.67,158.92ZM29.83,80.19c.21-.25.4-.34.39.15-.11,5.16.24,16.11,3,31.87a4.28,4.28,0,0,0-1.18-.46,116.84,116.84,0,0,1-4-12.21C27.2,92.71,27.08,83.33,29.83,80.19Zm-6.45-5.13c.17-.28.26-.18.26.32s-.23,15.19,7.51,36.3a3,3,0,0,0-.62.13c-.91-2-7.9-19-7.67-31.74,0-.69-.28-.64-.32,0-.74,13.45,6.62,30,7.52,31.92a3.61,3.61,0,0,0-.49.25C27.43,108.05,16.44,86.28,23.39,75.05Zm-7.77,5.1c.11-.3.21-.23.31.26s2.51,14,12.93,32.41a3.25,3.25,0,0,0-.44.64C25.58,109,18.1,96,16.07,85.15c-.12-.68-.39-.59-.3.05C17.42,97,25.49,109.94,28.18,114a3.41,3.41,0,0,0-.16.79C24.3,109.79,11.5,91.33,15.62,80.16ZM9.83,87c.07-.32.17-.26.34.21S15,100.1,27.92,116a3.5,3.5,0,0,0-.86.17C22.83,111.34,14.65,101,11.15,91.78c-.24-.65-.49-.52-.29.1,3.21,9.83,11.41,19.73,15.68,24.49a3.44,3.44,0,0,0-.64.41C19.89,110.78,7.75,96.83,9.83,87ZM4.75,94.32c0-.32.07-.37.34.05s6.36,10.73,20.24,23.06a3,3,0,0,0-.34.63c0,.06,0,.13-.05.19C19.56,113.82,11.54,106.3,7,98.8c-.36-.6-.57-.42-.26.14,4.43,8.13,12.75,15.62,18.09,19.9a3.26,3.26,0,0,0,0,.35,3,3,0,0,0,.08.65l-.55-.38C16.86,114.15,4.72,103.33,4.75,94.32ZM2.42,102c0-.32.07-.3.4.08s6.12,7.34,18,15.93c1.54,1.16,3,2.18,4.39,3l.2.13a5.13,5.13,0,0,0,.78.88,4.3,4.3,0,0,0-.48.21c-6-3.59-14.75-9.64-20.47-16.15-.46-.52-.64-.32-.24.19,5.46,7,14.21,12.78,20.16,16.29a3.69,3.69,0,0,0-.79.77C16.17,119,3.71,110.45,2.42,102Zm-.16,8.44c-.09-.31,0-.39.37-.07a82.1,82.1,0,0,0,9.69,6.39A69.24,69.24,0,0,0,24,124.09l0,.09a81.93,81.93,0,0,1-18-10.43c-.54-.44-.68-.21-.2.22,5.2,4.6,12.19,8.28,18.08,10.76,0,0,0,.09,0,.13a3.79,3.79,0,0,0-.05.63c0,.08,0,.15,0,.23C5.84,119.29,2.61,111.65,2.26,110.41ZM1.5,117c-.15-.28-.1-.36.35-.13A67.88,67.88,0,0,0,11.56,121a63,63,0,0,0,7.92,4A79.06,79.06,0,0,1,5.7,119.62c-.62-.32-.7-.08-.14.25a69.26,69.26,0,0,0,18.36,6.88,3.66,3.66,0,0,0,.71,1.14C6.67,124.71,2.1,118.15,1.5,117Zm.43,6c-.27-.32-.34-.45.38-.22.22.07,2.67.8,8.18,1.87a57.41,57.41,0,0,0,8.73,2.87,76,76,0,0,1-12.59-2.7c-.67-.21-.65.07,0,.3a66.29,66.29,0,0,0,17.69,3.49l.44.08a3.21,3.21,0,0,0-1,1.13C15.72,129.47,5.88,127.73,1.93,123.06ZM4,126c2.9,1.87,6.93,3,11.07,3.75-2.2.05-4.33.06-5.76,0-.86,0-1,.28.12.38a78.21,78.21,0,0,0,8.59.06c1.87.22,3.71.37,5.43.45l0,.13-.07-.06c-2.34.43-10.83,1.42-15.68.89C3.24,131.08,3.66,127.31,4,126Zm.24,5.18a5.14,5.14,0,0,0,3.06,1.29c4.94.59,12.87-.56,16.05-1.11v0a3.22,3.22,0,0,0,.1.73,109.3,109.3,0,0,1-13.23,2.08c-.86.06-.91.39.16.37a86,86,0,0,0,13.24-1.93,3.5,3.5,0,0,0,.5.86l-.1-.05c-2.27.7-10.59,2.67-15.47,2.71C4.24,136.16,4.07,132.62,4.22,131.15Zm.9,5a5.17,5.17,0,0,0,3.14.89c5.16,0,13.43-2.23,16.29-3.08a3.7,3.7,0,0,0,.35.26,4.09,4.09,0,0,0-.64.68A107.77,107.77,0,0,1,11.07,138c-.86.13-.88.46.19.36a87.61,87.61,0,0,0,12.57-2.79,3.4,3.4,0,0,0-.33,1.14c-3.25,1.14-9.6,3.07-13.68,3.45C6,140.54,5.24,137.81,5.12,136.15Zm1.48,4.45a5.34,5.34,0,0,0,3,.52c4.17-.34,10.24-2.33,13.87-3.66a3.91,3.91,0,0,0,.08.44,3.41,3.41,0,0,0,.14.4,112.89,112.89,0,0,1-11.1,3.46c-.84.19-.84.53.22.34A87.3,87.3,0,0,0,24,138.79a3.2,3.2,0,0,0,.7.81c-3.22,1.4-9.19,3.73-13.12,4.41C8,144.63,6.91,142.24,6.6,140.61Zm1.7,4a5.23,5.23,0,0,0,3.15.32c4.29-.69,10.47-3.32,13.92-4.92l.16.07a4.48,4.48,0,0,0-.94,1.37c-3.15,1.36-7.74,3.12-10.24,3.85-.83.24-.81.58.24.32a85.15,85.15,0,0,0,9.78-3.49,3.12,3.12,0,0,0-.07.64,3.45,3.45,0,0,0,.06.57,62.53,62.53,0,0,1-10.94,4.25C10,148.44,8.74,146.25,8.3,144.63Zm1.76,3.75a5.14,5.14,0,0,0,3.32.2,55.55,55.55,0,0,0,11.21-4.5,3,3,0,0,0,.45.71c-2.94,1.49-6.65,3.22-8.81,4-.81.3-.76.64.26.31a83.11,83.11,0,0,0,8.95-3.92,3.11,3.11,0,0,0,1,.58l-.14.2a63.64,63.64,0,0,1-10.86,5.2C12,152.29,10.57,150,10.06,148.38Zm1.86,3.7a5,5,0,0,0,3.57,0,53.64,53.64,0,0,0,10.32-5,3.18,3.18,0,0,0-.1.79c0,.06,0,.13,0,.19-2.7,1.59-5.9,3.34-7.82,4.22-.79.36-.71.69.28.29a79.21,79.21,0,0,0,7.64-3.94,2.63,2.63,0,0,0,.13.4,2.55,2.55,0,0,0,.43.64,57.54,57.54,0,0,1-9.08,5C13.64,156.19,12.21,153.71,11.92,152.08ZM13.76,156l0-.06a5.13,5.13,0,0,0,3.65-.25A52,52,0,0,0,27,150.22a3.38,3.38,0,0,0,1,.35c-2.75,1.88-6.34,4.16-8.43,5.26-.76.4-.67.73.3.27A83.18,83.18,0,0,0,28.28,151a3.5,3.5,0,0,0-.38,1.55s0,.09,0,.13a57.19,57.19,0,0,1-8.76,5.54C15.43,160,14,157.68,13.76,156Zm2.1,3.79a5.61,5.61,0,0,0,3.44-.57,50.06,50.06,0,0,0,8.77-5.64l.08.22a2.87,2.87,0,0,0,.35.61c-2.41,1.8-5.15,3.72-6.86,4.75-.74.45-.63.77.31.26a77.4,77.4,0,0,0,6.91-4.62,3,3,0,0,0,1.17.65,60.85,60.85,0,0,1-8.7,6.18C17.82,163.48,16.26,161.43,15.86,159.79Zm2.16,3.5a5.5,5.5,0,0,0,3.5-.74,50.36,50.36,0,0,0,8.5-6.16,3.34,3.34,0,0,0,0,.54,3.6,3.6,0,0,0,0,.56c-2.23,1.84-4.69,3.77-6.27,4.83-.72.48-.59.8.32.24a72.19,72.19,0,0,0,6.1-4.51,3.2,3.2,0,0,0,.34.71,2.54,2.54,0,0,0,.31.38,53.05,53.05,0,0,1-7.25,5.66C20.18,166.82,18.52,164.9,18,163.29Zm2.15,3.32a5.28,5.28,0,0,0,3.65-.89,47.58,47.58,0,0,0,7.61-6.07,3.53,3.53,0,0,0,.88.38c-2.24,2-4.81,4.25-6.43,5.45-.69.52-.55.83.34.22A78.55,78.55,0,0,0,33,160.15l.09,0a4.25,4.25,0,0,0-.38,1.63c0,.1,0,.2,0,.29A52.53,52.53,0,0,1,25.81,168C22.46,170.17,20.71,168.22,20.17,166.6Zm2.69,3.34a5.67,5.67,0,0,0,3.23-1.09,45.2,45.2,0,0,0,6.8-5.86,3.09,3.09,0,0,0,.22.46,2.84,2.84,0,0,0,.23.31c-1.78,1.79-3.62,3.57-4.87,4.63-.66.56-.5.86.35.2,1.09-.85,3-2.58,4.88-4.46a3.31,3.31,0,0,0,1.14.68,51.17,51.17,0,0,1-6.28,6.06C25.39,173.29,23.53,171.51,22.86,169.95ZM26.11,173a6,6,0,0,0,2.8-1.26A47.19,47.19,0,0,0,35.73,165h0a4.28,4.28,0,0,0-.06.6,3.8,3.8,0,0,0,.07.71c-1.57,1.79-3.17,3.51-4.28,4.58-.63.6-.45.89.36.18s2.49-2.42,4.09-4.18a3.38,3.38,0,0,0,.75,1.19,46,46,0,0,1-5,5.29C28.87,175.8,27,174.47,26.11,173Zm3.42,2.59a6.19,6.19,0,0,0,2.57-1.4,41.43,41.43,0,0,0,5.22-5.64,3.19,3.19,0,0,0,.94.35c-1.3,1.65-2.58,3.21-3.51,4.22-.59.63-.39.91.37.15s2.25-2.47,3.7-4.27a4.12,4.12,0,0,0,1.64-.27s0,0,0,0a2.07,2.07,0,0,0,0,.23,50.23,50.23,0,0,1-5.34,6.58C32.46,178.23,30.46,177,29.53,175.62Zm4,2.22a6.73,6.73,0,0,0,2-1.4A42.82,42.82,0,0,0,40.78,170a3.27,3.27,0,0,0,.61.83c-1.05,1.6-2.08,3.09-2.85,4.09-.53.68-.31.94.38.12s1.73-2.25,2.85-3.89a3.52,3.52,0,0,0,.32.22,3.71,3.71,0,0,0,.94.4,43.76,43.76,0,0,1-3.88,5.56C36.69,180.19,34.6,179.14,33.55,177.85Zm9.34-1c.74-1,1.92-3,3.1-5.06a2.66,2.66,0,0,0,1,.91,46.4,46.4,0,0,1-3.75,6.42c-2.34,3.17-4.61,2-5.7.73a6.54,6.54,0,0,0,2.08-1.66,40.63,40.63,0,0,0,4.26-6.25,3.4,3.4,0,0,0,1.65-.44c-1.11,2-2.25,4-3.07,5.25C42,177.43,42.26,177.68,42.89,176.81Zm4.89.51c.52-.95,1.26-2.57,2-4.41a2.87,2.87,0,0,0,1.37-.76,3.71,3.71,0,0,0,.24.37,48.28,48.28,0,0,1-3,7A5.75,5.75,0,0,1,47,181.33l0,0h0a3.06,3.06,0,0,1-4.06-.43,8,8,0,0,0,1-1.11,41.68,41.68,0,0,0,3.95-6.89l.08,0a4.51,4.51,0,0,0,1.34.06c-.67,1.66-1.33,3.19-1.85,4.26C47,178,47.27,178.26,47.78,177.32Zm5-.3c.27-.74.61-1.87,1-3.17l.38,0a3.48,3.48,0,0,0,1.16-.2,39.59,39.59,0,0,1-1.51,5.42c-1.43,3.74-4,3.17-5.37,2.18a8.37,8.37,0,0,0,.74-1.08,41.64,41.64,0,0,0,2.93-7,3.21,3.21,0,0,0,1.22.58c-.32,1.26-.63,2.41-.91,3.27S52.4,178,52.77,177ZM41,223.06a48.57,48.57,0,0,1,7.85-21.29c.63-.92-.05-1.21-.5-.66A34,34,0,0,0,44,207.94c-2.42-.57-8-.46-12.94,1.52l1.62-1.57a20.71,20.71,0,0,1,10.69-1c.66.14,1-.44.58-1.57a6.71,6.71,0,0,0-4.67-3.78l.67-.63c1.6-1.5,1-1.77-.61-.48-5.08,4.08-13.51,12.57-19.47,18.29a7.79,7.79,0,0,1-4.2,1.83A5.83,5.83,0,0,1,16.86,217c1.79-2.46,5.71-6.71,7-8.11,1-1,.54-1.26-.36-.36a98.81,98.81,0,0,0-7.27,7.85,10.13,10.13,0,0,1-2.46.7A5.84,5.84,0,0,1,15,213.5c1.79-2.46,5.71-6.71,7-8.11,1-1,.54-1.26-.36-.36a96.17,96.17,0,0,0-7.36,8c-.09.12-.18.25-.26.38a10.39,10.39,0,0,1-2.46.7,5.86,5.86,0,0,1,1.19-3.58c1.79-2.46,5.71-6.71,7-8.11,1-1,.54-1.26-.36-.36a102.65,102.65,0,0,0-7.05,7.58,10.23,10.23,0,0,1-2.6.76A6.85,6.85,0,0,1,11,206.79c1.55-2.37,21.52-22.85,25.18-26.64a3.71,3.71,0,0,0,.38,0l.45.49c-1.44,1.51-4.42,4.73-5.45,5.83,4.9,1.37,14.3,3.27,19.35-3.47,1.32-.11,2.66-.94,3.59-3.31a37.68,37.68,0,0,0,1.72-6.5,2.92,2.92,0,0,0,.81-.93l0,0a2.77,2.77,0,0,0,2.34.38A2.47,2.47,0,0,0,61,171.47c.19-.43-.38-.71-.69-.32a2.1,2.1,0,0,1-2.73.3c-.45-.32-.9-.1-1.18.43a2.49,2.49,0,0,1-4.44-.29.66.66,0,0,0-1.17-.15c-1,1.28-3.7,1.05-4.13-.48-.2-.7-.59-.71-1.13-.32-1.83,1.33-4.3-.18-4.06-2,.1-.75-.37-1-1-.69a2.59,2.59,0,0,1-3.82-3c.13-.62-.09-.71-.67-.72-1.86,0-3.26-1.55-1.95-3.92.22-.4.1-.89-.51-.89-2.32,0-3.24-1.87-2.38-3.87.22-.52,0-.73-.42-.77-1.66-.14-2.76-2-1.18-4.05.21-.27.31-.85-.44-.83-2.87.09-3.18-2.32-1.69-3.94.4-.44.25-.76-.31-.83-1.89-.24-3.13-2.8-.6-4.76.46-.36.29-.8-.19-.87-2-.28-2.91-3.16-.61-4.85.47-.35.42-.7-.15-1a2.57,2.57,0,0,1,.31-4.65c.61-.26.59-.71,0-1.1a2.84,2.84,0,0,1,1-5.21c.7-.17.62-.69.18-1-2.78-2.15-.95-5,1.41-4.83.55.05.67-.32.55-.64-1-2.91,2.26-4.68,4.42-3.1.7,3.84,1.54,8,2.55,12.34a24.35,24.35,0,0,1,.61,7,12.82,12.82,0,0,0,.57,4.05c5.26,19.33,13.42,33.07,27.95,29.36,1.15-.29.68-.85.08-.71a17.32,17.32,0,0,1-5.88.33c9.18-9.38,6.91-19-2.18-28.38-2.94-3-4.94-4.94-7.64-7.52-8.81-8.38-11.24-17.39-7.53-21.59,4.38-5,11.05-2.38,12.87-1.76a13.53,13.53,0,0,1-2.48,3.44c-1.63,1.78-.81,3.55.39,5.14a2.13,2.13,0,0,1-.08,2.7c-2.13,1.91-5.94,1.77-7.58-.7-.26-.4-.69-.21-.47.3,2.16,5.12,8.87,3.41,9.7-.12a15.13,15.13,0,0,1,1.62,3.1c0,.31-.11.63-.16,1-.34,1.85.36,3.48,3.37,7.17,14,17.12,21.47,27.29,19.79,39.73,8.25,16.17-10.81,30.4-16.29,34.05.32-.8.6-1.62.87-2.46,23.53-18.16,14.28-31.3,13.95-31.73,1.52-8.57-3.79-17.84-5.95-21-.66-1-1-.71-.46.36,6.48,13.28,4.35,19.93,4,20.36,6.22,12.59-8.36,23.88-10.35,25.79,0-1.06-.38-.85-.64.47C60.3,213.34,41,223.58,41,223.06Zm30.21,24.77a3.87,3.87,0,0,1-2,4.06c-5.7,2.82-19.91,4.84-31.26,3.05-2.88-.45-3.74-1.89-4.38-4.57a23.82,23.82,0,0,0-3.34-8.05c-3.05-4.36-1.7-7,1.77-8.71a99.38,99.38,0,0,1,9.61-3.27c.2,3,.29,5.79.24,6.22s-.2.7-.77.74a6.85,6.85,0,0,0-3,.5,4.57,4.57,0,0,0-1.73,2.61c-.19.62.21.68.57.36.16-.14,2.5-2.2,5.73.84a38,38,0,0,1-6.55-.62c-.47-.12-.9-.25-1.3-.37a22.09,22.09,0,0,1-.92-4.77c0-.38.27-.88,1.06-1.41s.64-1.18-.33-.86A10.63,10.63,0,0,0,30.37,236l-.11.1a2.8,2.8,0,0,0-.54.87s0,.07-.06.11v0c-.58,1.81,1,4.2,7.55,5,1.5.19,4.6.34,6.3.41.23.27.47.57.7.9a1.13,1.13,0,0,0,1,.58,9.62,9.62,0,0,1,4.09.37,5.17,5.17,0,0,0,.32,1.92c.22.6,0,.53-.3,1.08a.88.88,0,0,0,.84,1.34c.87-.06,1-1,.62-1.69A4.47,4.47,0,0,1,50,244.6a14,14,0,0,1,4.19,2.6c.47.4.88.32.93-.27a4.34,4.34,0,0,0-1-2.7c-.06-.49,2.83-4.25,6.15-2.36.77.44.94.2.75-.41a4.39,4.39,0,0,0-.26-.63,45.11,45.11,0,0,0,6.51-1.91c2.7-1,3.22-2.36,2.9-3.33-.23-.7-1.21-1.18-2.58-1h0l-.12,0h-.06a25.58,25.58,0,0,0-3.06.65c-.74.25-.55.8.1.75.42,0,.93,0,1.12.23a6.08,6.08,0,0,1,.53,2.12,48.38,48.38,0,0,1-5.42,1.49c-.67-2.1-1.29-3.94-1.67-5.25,1.29.47,3.33.56,6.29-.13,3.51-.83,4.91-.43,5.47,0a2,2,0,0,1,.44,1.76A90.32,90.32,0,0,0,71.21,247.83Zm121.89-5.41a4.1,4.1,0,0,0-1.36-3.36c-1.67-1.34-4.81-1.26-9.59-.41a34.1,34.1,0,0,1-7.78.61c-.57-.88-2-3.16-1.81-4.41a2.14,2.14,0,0,1,1.06-1.41c.79-.54.65-1.14-.33-.86a12.74,12.74,0,0,0-4.08,1.87l-.11.09a4.33,4.33,0,0,0-.33.29l0,0a2.68,2.68,0,0,0-.31.36l-.11.17h0a2.39,2.39,0,0,0-.34,2.23c.5,1.28,3.23,4.05,14.41,2.08,4.3-.76,7.15-.61,8.47.45,1,.78,1,2,1,3.14v.22A37.68,37.68,0,0,0,195,255.56c.89,2,.38,3.66-1.7,5.72-8,8-29.58,20.52-59.21,20.52S83,269.25,74.93,261.28c-2.08-2.06-2.59-3.77-1.7-5.72a37.72,37.72,0,0,0,3.12-12.07v-.22c0-1.16.08-2.36,1-3.14,1.32-1.06,4.17-1.21,8.47-.45,11.17,2,13.9-.8,14.41-2.08a3.06,3.06,0,0,0-1.5-3.61c-1.09-.63-1.07-.16-.29.57a2.41,2.41,0,0,1,.85,2.59c-.58,1.48-4.41,3.06-13.22,1.5-4.79-.85-7.93-.93-9.59.41a4.1,4.1,0,0,0-1.36,3.36,26.63,26.63,0,0,0-3-.16c.11-2.72.37-5.1.43-5.87a2.65,2.65,0,0,0-.92-2.55c-1.19-1-3.38-1.12-6.7-.34a15,15,0,0,1-1.73.3,7.39,7.39,0,0,1-.37-1.92c0-.34.31-.68.84-1s.61-.81-.23-.59c-2,.51-5,1.86-4,3.2-.56-.24-.87-.56-.88-.89,0-.94.72-1.76,3.22-2.64,8.5-3,23.71-2,34.65,2.17,2.84,1.09,4.41,2.29,4.78,3.78a3.78,3.78,0,0,1-1.14,3.46c-2.5,2.56-7.49,8.48-9.38,13.09a50.29,50.29,0,0,1-6.86-5c.4-1,2.1-5,3.31-5.35a15,15,0,0,1,1.85-.29c.81-.09.87-.88,0-.93-2-.11-4.85-.86-7.34-1-1.2-.12-2.78.07-3.35,1.1s.07,2.24,1.16,3.54c10.3,12.2,34.64,21.1,54.61,21.1s44.3-8.9,54.61-21.1c1.09-1.29,1.65-2.64,1.16-3.54a2.14,2.14,0,0,0-1.64-1,13.74,13.74,0,0,0-4.68.32c-.86.17-.68.72,0,.78.9.07,1.52.14,1.79.74.18.39.91,2.23,1.29,3.37a39.84,39.84,0,0,1-4.81,4.24c-1.55-3.2-4.52-8.35-4.52-8.35a35.16,35.16,0,0,1-4.09,0c-.58,0-.55.34,0,1a60.94,60.94,0,0,1,5.85,9.23q-.79.52-1.62,1c-1.89-4.61-6.88-10.52-9.38-13.09a3.78,3.78,0,0,1-1.14-3.46c.37-1.49,1.94-2.69,4.78-3.78C182.71,228,197.93,227,206.42,230c2.5.88,3.26,1.7,3.22,2.64s-2.36,1.8-6.36.86c-3.32-.79-5.51-.67-6.7.34a2.65,2.65,0,0,0-.92,2.55c.07.78.32,3.15.43,5.87A26.61,26.61,0,0,0,193.1,242.42Zm44.93-.1a23.8,23.8,0,0,0-3.34,8.05c-.64,2.67-1.5,4.11-4.38,4.57-11.35,1.79-25.58-.18-31.26-3.05a4.12,4.12,0,0,1-2-4.06,90.25,90.25,0,0,0,0-11.56c-.05-.62-.12-1.38.45-1.76.77-.51,2-.92,5.3-.15,3.07.72,5.2.63,6.53.14-.32,1.33-.86,3.19-1.53,5.3a54.56,54.56,0,0,1-5.68-1.48,5,5,0,0,1,.4-2c.18-.24.66-.27,1.07-.23.64.05.88-.58.14-.84a24.47,24.47,0,0,0-2.86-.6h-.07l-.24,0h0c-1.28-.14-2.21.17-2.53.81s.26,2.48,3,3.49c5.51,2.06,13.89,3.35,21.59,3.51-.25.58-.22,1.05.82.81a8.46,8.46,0,0,0,2.08-.81c1.53,0,3-.1,4.41-.22,9.11-.84,9.79-4.3,8.15-6.1a10,10,0,0,0-3.09-2.16c-1.14-.46-1.59.15-1.46.94.41,2.52-2.34,6.11-2.34,6.11-1.25.2-2.71.33-4.11.41a7.75,7.75,0,0,0,3.26-5.79,1,1,0,0,1,.43-.95,2,2,0,0,0,1-1.72c-.15-1.09-.05-1.26.19-1.3.8.31,2.27.9,3.63,1.6C240,235.54,241.09,238,238,242.32Z"/><path class="cls-1" d="M68.93,240.6c0-.87-.44-.95-1-.74s-1.08.38-2,.71c0,0,.37,5.55.49,8.53,0,.65.08,1.37-1.63,2.14-.91.41-.1,1.1.59,1a11.31,11.31,0,0,0,3.08-1.34,1.89,1.89,0,0,0,.66-1.73C69.11,248,68.84,243,68.93,240.6Z"/><path class="cls-1" d="M234.08,242.92c-.44.07-1.61.31-2.86.42,0,0-1.58,5.36-2.39,8.23a2.4,2.4,0,0,1-1.67,1.57c-1,.3-1,.83-.31.94a11.92,11.92,0,0,0,3.76-.56,2.61,2.61,0,0,0,1.46-1.82,69.6,69.6,0,0,1,2.46-7.83C234.89,243.05,234.73,242.81,234.08,242.92Z"/><path class="cls-1" d="M47.11,249.67a6,6,0,0,1-3.16.56c-.61,0-.65.5-.06.62a6.76,6.76,0,0,0,2.38-.09c.62-.16.53.06,1,.4a.88.88,0,0,0,1.41-.71C48.76,249.59,47.8,249.32,47.11,249.67Z"/><path class="cls-1" d="M56.54,249.77a6,6,0,0,1-3.19-.3c-.72-.29-1.65,0-1.55.92a.88.88,0,0,0,1.47.59c.49-.39.38-.59,1-.49a6.69,6.69,0,0,0,2.38-.11C57.22,250.22,57.14,249.71,56.54,249.77Z"/><path class="cls-1" d="M224.3,250.21a6,6,0,0,1-3.16-.56c-.69-.35-1.65-.09-1.62.79a.88.88,0,0,0,1.41.71c.52-.34.42-.56,1-.4a6.67,6.67,0,0,0,2.38.09C224.95,250.71,224.91,250.2,224.3,250.21Z"/><path class="cls-1" d="M214.91,249.45a6,6,0,0,1-3.19.3c-.6-.06-.68.45-.11.61a6.73,6.73,0,0,0,2.38.11c.63-.11.52.1,1,.49a.88.88,0,0,0,1.47-.59C216.56,249.5,215.63,249.16,214.91,249.45Z"/><path class="cls-1" d="M218.57,246.27a6.68,6.68,0,0,0,.32-2.36c-.06-.6-.57-.61-.62,0a6,6,0,0,1-.87,3.09c-.42.65-.25,1.63.63,1.69a.88.88,0,0,0,.84-1.34C218.58,246.8,218.35,246.87,218.57,246.27Z"/><path class="cls-1" d="M123.61,30.22a5,5,0,0,1,6.18-.37,5.69,5.69,0,0,1,6.73-1.4,8.35,8.35,0,0,0,7.62-.81,40.83,40.83,0,0,1,3.54-7.41,5.17,5.17,0,0,1-1,.1,3.64,3.64,0,0,1-2.28-.84l-.18,0a5.3,5.3,0,0,1-3.73,1.72,3.86,3.86,0,0,1-2.42-.84l-.28,0a4.79,4.79,0,0,1-3.7,1.82,3.77,3.77,0,0,1-2.19-.67l-.46.08a4.34,4.34,0,0,1-3.33,1.63,3.84,3.84,0,0,1-2.31-.75l-.17,0A5,5,0,0,1,122,24.33a3.27,3.27,0,0,1-2-.64,20,20,0,0,0-2.69,9.07C119.37,33.15,121.66,31.7,123.61,30.22Zm14.21-6.93c.64.16.36.78.94.74-.13-.34.14-.7.29-1a.69.69,0,0,0-.37-1,.77.77,0,0,1,1,.68c.11.77-.44.87-.21,1.46.2-.35.57-.31.8-.31s.61-.45.6-1a1.28,1.28,0,0,1-.15,1.47c-.53.61-.8.1-1.15.71.33,0,.43.4.52.64s.54.35,1,0a1.07,1.07,0,0,1-1.13.79c-.64-.16-.36-.77-.94-.74.13.34-.14.7-.29,1a.69.69,0,0,0,.38,1,.77.77,0,0,1-1-.68c-.11-.77.44-.87.21-1.45-.21.35-.57.3-.81.31s-.61.44-.6,1A1.29,1.29,0,0,1,137,25.4c.53-.61.8-.1,1.15-.71-.33,0-.43-.4-.52-.64s-.54-.35-1,0A1.07,1.07,0,0,1,137.82,23.29ZM129,24.6c.61.15.34.73.89.7-.12-.32.13-.67.27-.9a.65.65,0,0,0-.36-.94.73.73,0,0,1,.94.64c.1.73-.42.83-.2,1.38.19-.33.54-.29.77-.3s.58-.42.56-1a1.22,1.22,0,0,1-.14,1.39c-.5.58-.76.09-1.09.68.31,0,.41.38.49.61s.52.33.92,0a1,1,0,0,1-1.08.75c-.61-.16-.34-.74-.89-.71.12.32-.13.67-.27.91a.65.65,0,0,0,.36.94.73.73,0,0,1-.94-.64c-.1-.73.42-.83.2-1.38-.19.33-.54.29-.76.3s-.58.42-.57,1a1.22,1.22,0,0,1,.14-1.4c.5-.58.76-.09,1.09-.68-.32,0-.41-.38-.49-.61s-.52-.33-.92,0A1,1,0,0,1,129,24.6Zm-7.78,1.47c.58.15.33.7.84.67-.11-.31.13-.63.26-.86A.62.62,0,0,0,122,25a.69.69,0,0,1,.89.61c.1.7-.4.79-.19,1.32.19-.32.51-.28.73-.28s.55-.4.54-.93a1.16,1.16,0,0,1-.13,1.33c-.48.55-.72.09-1,.64.3,0,.39.36.47.58s.49.32.88,0a1,1,0,0,1-1,.71c-.58-.15-.32-.7-.84-.67.11.3-.13.63-.26.86a.62.62,0,0,0,.34.89.69.69,0,0,1-.89-.61c-.1-.7.4-.79.19-1.31-.18.31-.51.28-.73.28s-.55.4-.54.93a1.15,1.15,0,0,1,.13-1.32c.48-.55.72-.09,1-.65-.3,0-.39-.36-.47-.58s-.49-.31-.87,0A1,1,0,0,1,121.19,26.08Z"/><path class="cls-1" d="M134.17,45.78a26.56,26.56,0,0,1,11.13,2.89,23.11,23.11,0,0,1-2.53-7.21c-.08-.44-.14-.89-.19-1.34a8.12,8.12,0,0,1-5.26-.21c-3.33-1.54-5.11-1-6.78,1.22-1.95-1.69-3.45-1.76-6.59.86a8.44,8.44,0,0,1-4.87,1.83,46,46,0,0,0,4.2,8.74C124.94,48.27,128.87,45.78,134.17,45.78ZM134,41.29c.6,0,.49.6,1,.44-.18-.27,0-.64,0-.9a.62.62,0,0,0-.55-.79.69.69,0,0,1,1,.37c.27.65-.19.86.13,1.32.1-.35.43-.39.64-.45s.44-.52.29-1a1.16,1.16,0,0,1,.19,1.32c-.33.65-.68.26-.85.88.29-.09.46.25.59.45s.55.19.84-.25a1,1,0,0,1-.82.94c-.59,0-.49-.6-1-.44.18.27,0,.65,0,.9a.62.62,0,0,0,.55.79.69.69,0,0,1-1-.37c-.27-.65.19-.86-.14-1.32-.1.35-.43.39-.64.45s-.43.53-.29,1a1.15,1.15,0,0,1-.19-1.32c.33-.65.68-.26.85-.88-.29.09-.46-.25-.6-.45s-.55-.19-.84.25A1,1,0,0,1,134,41.29Zm-8.69,3.6c.34-.64.68-.25.86-.86-.29.08-.46-.26-.59-.46s-.55-.2-.84.23a1,1,0,0,1,.83-.92c.6,0,.47.61,1,.46-.18-.27,0-.65.06-.9a.62.62,0,0,0-.53-.79.69.69,0,0,1,1,.4c.25.66-.21.86.11,1.32.11-.35.44-.38.64-.44s.45-.52.32-1a1.16,1.16,0,0,1,.17,1.32c-.34.64-.68.25-.86.86.29-.08.46.26.58.46s.55.2.85-.23a1,1,0,0,1-.84.93c-.59,0-.47-.61-1-.46.18.27,0,.65-.06.89a.62.62,0,0,0,.53.8.69.69,0,0,1-1-.4c-.25-.66.21-.86-.11-1.32-.11.35-.44.38-.65.44s-.44.52-.31,1A1.16,1.16,0,0,1,125.27,44.9Z"/><path class="cls-1" d="M130.27,38.36a5.76,5.76,0,0,1,6.9-1.23,6.8,6.8,0,0,0,5.22.39,27.42,27.42,0,0,1,.85-6.89,9.31,9.31,0,0,1-6.36.1c-3.34-1.33-5.28-.82-7,1.45-1.71-1.69-3.65-1.54-7,.92A9,9,0,0,1,117.29,35a29,29,0,0,0,1.1,6.68,6.9,6.9,0,0,0,5-2.12C125.83,37.25,127.6,37.24,130.27,38.36Zm6.66-3.56a.35.35,0,0,1,.17-.33,1.49,1.49,0,0,0,.67-.67.34.34,0,0,1,0,0v-.44l-.65-1h.68c.05-.24.19-.41.35-.41s.29.17.35.41h.68l-.65,1v.44s0,0,0,0a1.48,1.48,0,0,0,.67.67.34.34,0,0,1,.17.33.44.44,0,0,1,0,.2.74.74,0,0,1,.05.29.68.68,0,0,1-.2.53.16.16,0,0,1-.11,0,.57.57,0,0,1-.34.48.23.23,0,0,1-.25-.13.33.33,0,0,1-.63,0,.23.23,0,0,1-.25.13.58.58,0,0,1-.34-.48.17.17,0,0,1-.11,0,.69.69,0,0,1-.19-.53A.76.76,0,0,1,137,35,.47.47,0,0,1,136.93,34.8Zm-8.12.74a.33.33,0,0,1,.16-.31,1.4,1.4,0,0,0,.62-.64s0,0,0,0v-.42l-.6-.94h.63c.05-.23.18-.39.32-.39s.27.16.32.39h.63l-.6.94v.42s0,0,0,0a1.4,1.4,0,0,0,.62.64.33.33,0,0,1,.15.31.45.45,0,0,1,0,.19.79.79,0,0,1,0,.27.67.67,0,0,1-.18.51.16.16,0,0,1-.1,0,.55.55,0,0,1-.32.46.22.22,0,0,1-.24-.12.3.3,0,0,1-.59,0,.22.22,0,0,1-.24.13.54.54,0,0,1-.31-.46.16.16,0,0,1-.11,0,.67.67,0,0,1-.18-.51.73.73,0,0,1,0-.27A.45.45,0,0,1,128.81,35.54Zm-5.72,3.12a.22.22,0,0,1-.24-.12.31.31,0,0,1-.6,0,.22.22,0,0,1-.24.12.53.53,0,0,1-.32-.44.16.16,0,0,1-.1,0,.62.62,0,0,1-.19-.48.67.67,0,0,1,.05-.26.36.36,0,0,1,0-.18.31.31,0,0,1,.16-.3,1.36,1.36,0,0,0,.63-.61v-.44l-.61-.9h.64c.05-.22.18-.37.33-.37s.28.15.33.37h.64l-.61.9v.39s0,0,0,0a1.36,1.36,0,0,0,.63.61.31.31,0,0,1,.15.3.37.37,0,0,1,0,.18.7.7,0,0,1-.13.74.15.15,0,0,1-.11,0A.52.52,0,0,1,123.08,38.66Z"/><path class="cls-1" d="M154.77,215.32c-9.42-3.92-15.47-3.84-20.69.3-5.21-4.14-11.26-4.22-20.69-.3a33,33,0,0,1-15.54,2.15c9.9,18.39,25.18,29.34,36.28,35.29,11.1-6,26.39-16.9,36.29-35.31A32.92,32.92,0,0,1,154.77,215.32Zm-30.38,13.51c-2.09-.8-1.17-2.35-3.06-2.57.42,1-.46,1.88-.94,2.49-.69.88-.21,2.18,1.23,3a3,3,0,0,1-3.23-2.42c-.35-2.21,1.44-2.19.69-3.93-.67.87-1.86.54-2.63.43-1.1-.16-2,.91-1.95,2.54a3,3,0,0,1,.48-4c1.73-1.41,2.62.15,3.75-1.37-1.08-.14-1.4-1.33-1.69-2.06-.42-1-1.78-1.27-3.17-.42a3,3,0,0,1,3.7-1.58c2.09.8,1.18,2.35,3.06,2.56-.41-1,.46-1.88.94-2.49.69-.88.21-2.18-1.23-3a3,3,0,0,1,3.22,2.42c.35,2.21-1.44,2.19-.69,3.93.67-.87,1.86-.54,2.63-.44,1.1.16,2-.91,1.95-2.54a3,3,0,0,1-.48,4c-1.73,1.41-2.62-.15-3.75,1.37,1.08.14,1.4,1.34,1.69,2.06.42,1,1.78,1.27,3.17.42A3,3,0,0,1,124.39,228.82Zm13.09,15.88c-2.09-.8-1.18-2.35-3.06-2.57.41,1-.46,1.88-.94,2.49-.69.88-.21,2.18,1.23,3a3,3,0,0,1-3.22-2.42c-.35-2.21,1.44-2.19.69-3.93-.66.87-1.86.54-2.63.44-1.1-.16-2,.91-1.95,2.54a3,3,0,0,1,.48-4c1.73-1.41,2.62.16,3.75-1.37-1.08-.14-1.4-1.34-1.69-2.06-.42-1-1.78-1.27-3.18-.41a3,3,0,0,1,3.71-1.59c2.09.8,1.18,2.35,3.06,2.57-.41-1,.46-1.88.94-2.49.69-.88.21-2.18-1.23-3a3,3,0,0,1,3.23,2.42c.35,2.21-1.45,2.19-.7,3.93.66-.86,1.86-.54,2.63-.43,1.1.16,2-.91,1.95-2.54a3,3,0,0,1-.48,4c-1.73,1.41-2.62-.16-3.75,1.36,1.08.14,1.4,1.34,1.69,2.06.42,1,1.78,1.27,3.18.41A3,3,0,0,1,137.48,244.7Zm12.84-15.88c-2.09-.8-1.18-2.35-3.06-2.57.42,1-.46,1.88-.94,2.49-.69.88-.21,2.18,1.23,3a3,3,0,0,1-3.22-2.42c-.35-2.21,1.44-2.19.69-3.93-.66.87-1.86.54-2.63.43-1.1-.16-2,.91-1.95,2.54a3,3,0,0,1,.48-4c1.73-1.41,2.62.15,3.75-1.37-1.08-.14-1.4-1.33-1.69-2.06-.42-1-1.78-1.27-3.17-.42a3,3,0,0,1,3.7-1.58c2.09.8,1.18,2.35,3.06,2.56-.42-1,.46-1.88.94-2.49.69-.88.21-2.18-1.23-3a3,3,0,0,1,3.23,2.42c.35,2.21-1.45,2.19-.7,3.93.67-.87,1.86-.54,2.63-.44,1.1.16,2-.91,1.95-2.54a3,3,0,0,1-.48,4c-1.73,1.41-2.62-.15-3.75,1.37,1.08.14,1.4,1.34,1.69,2.06.42,1,1.78,1.27,3.17.42A3,3,0,0,1,150.32,228.82Z"/></svg>