<?xml version="1.0" encoding="utf-8"?>
<!-- Generator: Adobe Illustrator 22.1.0, SVG Export Plug-In . SVG Version: 6.00 Build 0)  -->
<svg version="1.1" id="Layer_1" xmlns="http://www.w3.org/2000/svg" xmlns:xlink="http://www.w3.org/1999/xlink" x="0px" y="0px"
	 viewBox="0 0 141.7 60.7" style="enable-background:new 0 0 141.7 60.7;" xml:space="preserve">
<style type="text/css">
	.st0{fill:#FFFFFF;}
</style>
<g>
	<g>
		<path class="st0" d="M134.1,4.3h7.6v-4h-12v28h12v-4h-7.6v-8.2h6v-4h-6V4.3z M122.8,17.9v4c0,2-0.9,2.7-2.3,2.7
			c-1.4,0-2.3-0.7-2.3-2.7V6.8c0-2,0.9-2.8,2.3-2.8c1.4,0,2.3,0.8,2.3,2.8v3h4.2V7.1c0-4.5-2.2-7.1-6.6-7.1c-4.3,0-6.6,2.6-6.6,7.1
			v14.6c0,4.5,2.2,7.1,6.6,7.1c4.3,0,6.6-2.6,6.6-7.1v-3.7H122.8z M106.5,28.4h4.5v-28h-3.9v16.8l-4.5-16.8h-5.5v28h4V8.1
			L106.5,28.4z M86.8,4.3h7.6v-4h-12v28h12v-4h-7.6v-8.2h6v-4h-6V4.3z M72.8,4.3c1.6,0,2.2,0.9,2.2,2.9V10c0,2.2-1,3-2.6,3h-1.7V4.3
			H72.8z M80,28.4c-0.4-1-0.5-2-0.5-3.4v-4.3c0-2.9-0.7-5-2.9-6c2-0.9,2.9-2.8,2.9-5.7V6.8c0-4.3-2-6.5-6.5-6.5h-6.6v28h4.4V16.9
			h1.5c2,0,2.9,1,2.9,3.6v4.4c0,2.3,0.2,2.7,0.4,3.4H80z M55.9,4.3h7.6v-4h-12v28h12v-4h-7.6v-8.2h6v-4h-6V4.3z M42.1,4.3h7.3v-4
			H37.7v28h4.4V16.8h5.7v-4h-5.7V4.3z M28.4,4.3h7.3v-4H24v28h4.4V16.8h5.7v-4h-5.7V4.3z M16.3,28.4h4.4v-28h-4.4V28.4z M6.9,4.3
			c1.4,0,2.2,0.7,2.2,2.7v14.6c0,2-0.8,2.7-2.2,2.7H4.4v-20H6.9z M0,28.4h7c4.4,0,6.6-2.4,6.6-6.9V7.3c0-4.5-2.2-6.9-6.6-6.9H0V28.4
			z"/>
		<path class="st0" d="M75.9,36.7c1.6,0,2.2,0.9,2.2,2.9v2.8c0,2.2-1,3-2.6,3h-1.7v-8.6H75.9z M83,60.7c-0.4-1-0.5-2-0.5-3.4V53
			c0-2.9-0.7-5-2.9-6c2-0.9,2.9-2.8,2.9-5.7v-2.2c0-4.3-2-6.5-6.5-6.5h-6.6v28h4.4V49.3h1.5c2,0,2.9,1,2.9,3.6v4.4
			c0,2.3,0.2,2.7,0.4,3.4H83z M59,36.7h7.6v-4h-12v28h12v-4H59v-8.2h6v-4h-6V36.7z M48.1,60.7h4.5l-6.1-15.5l6.1-12.5h-4.4
			l-5.8,12.2V32.7H38v28h4.4v-8.6l1.4-2.6L48.1,60.7z M28,37.7l2.1,14.2h-4.2L28,37.7z M31.5,32.7H25l-4.5,28h4l0.8-5.1h5.4l0.8,5.1
			H36L31.5,32.7z M6.1,32.7H0v28h3.8V40.9l3.3,19.8h4.2l3-20.1v20.1h4.2v-28h-6.1l-3,19.9L6.1,32.7z"/>
	</g>
</g>
</svg>
