<?xml version="1.0" encoding="utf-8"?>
<!-- Generator: Adobe Illustrator 20.1.0, SVG Export Plug-In . SVG Version: 6.00 Build 0)  -->
<svg version="1.1" id="Layer_1" xmlns="http://www.w3.org/2000/svg" xmlns:xlink="http://www.w3.org/1999/xlink" x="0px" y="0px"
	 viewBox="0 0 283 283" style="enable-background:new 0 0 283 283;" xml:space="preserve">
<style type="text/css">
	.st0{clip-path:url(#SVGID_2_);}
	.st1{clip-path:url(#SVGID_6_);}
	.st2{clip-path:url(#SVGID_7_);}
	.st3{clip-path:url(#SVGID_8_);fill:#FFFFFF;}
	.st4{clip-path:url(#SVGID_8_);}
	.st5{opacity:0.5;}
	.st6{clip-path:url(#SVGID_10_);fill:#FFFFFF;}
</style>
<g>
	<g>
		<defs>
			<rect id="SVGID_1_" width="283" height="283"/>
		</defs>
		<clipPath id="SVGID_2_">
			<use xlink:href="#SVGID_1_"  style="overflow:visible;"/>
		</clipPath>
		<g class="st0">
			<g>
				<defs>
					<rect id="SVGID_3_" width="283" height="283"/>
				</defs>
				<defs>
					<rect id="SVGID_4_" width="283" height="283"/>
				</defs>
				<defs>
					<rect id="SVGID_5_" width="283" height="283"/>
				</defs>
				<clipPath id="SVGID_6_">
					<use xlink:href="#SVGID_3_"  style="overflow:visible;"/>
				</clipPath>
				<clipPath id="SVGID_7_" class="st1">
					<use xlink:href="#SVGID_4_"  style="overflow:visible;"/>
				</clipPath>
				<clipPath id="SVGID_8_" class="st2">
					<use xlink:href="#SVGID_5_"  style="overflow:visible;"/>
				</clipPath>
				<path class="st3" d="M272.8,141.7c0,72.4-58.7,131.1-131.1,131.1S10.6,214.1,10.6,141.7S69.3,10.6,141.7,10.6
					S272.8,69.3,272.8,141.7 M283,0H0v283h283V0z"/>
				<path class="st3" d="M141.7,209.1c37.2,0,67.3-30.1,67.3-67.3s-30.1-67.3-67.3-67.3s-67.3,30.1-67.3,67.3
					C74.4,178.9,104.6,209.1,141.7,209.1"/>
				<g class="st4">
					<g class="st5">
						<g>
							<defs>
								<rect id="SVGID_9_" x="8.7" y="10.7" width="266" height="256"/>
							</defs>
							<clipPath id="SVGID_10_">
								<use xlink:href="#SVGID_9_"  style="overflow:visible;"/>
							</clipPath>
							<path class="st6" d="M137.5,45.6l4.2-0.1l-2.3-6.6L137.5,45.6z M216.1,141.7c0,41.1-33.3,74.4-74.4,74.4
								s-74.4-33.3-74.4-74.4s33.3-74.4,74.4-74.4S216.1,100.6,216.1,141.7 M204.4,54.2c0,1.1-0.3,2.1-1,3.2
								c-0.3,0.5-0.7,0.7-1.1,0.4l-3.7-2.2c-0.6-0.4-0.7-0.7-0.6-1.3c0.2-1,0-1.8-1.4-2.7c-1.6-0.9-2.8-0.8-3.4,0.3
								c-0.7,1.2,0.2,2.3,2.4,4c4.6,3.8,5.3,6.7,3,10.4c-2.5,4.1-6.8,5-12,1.9c-2.5-1.5-4.1-3-4.9-4.7c-1-2.1-0.9-3.9,0.4-6
								c0.2-0.4,0.7-0.8,1.3-0.4l3.4,2c0.6,0.4,0.7,0.8,0.6,1.2c-0.3,1.6,0.5,2.4,1.7,3.1c1.7,1,3,1.2,3.7-0.1
								c0.8-1.3-0.2-2.5-2.2-4.3c-4.3-3.7-5.3-6.5-3.1-10.2c2.1-3.4,6.7-5,11.8-1.9C202.9,49.4,204.5,51.7,204.4,54.2 M181.8,39.4
								l-3.5,21.3c-0.1,0.9-0.6,1.2-1.3,1l-4.2-1.1c-0.8-0.2-1-0.7-0.9-1.4l2.4-11.8l-6.4,10.8c-0.4,0.6-0.7,0.9-1.7,0.6l-2.5-0.7
								c-1-0.3-1.2-0.7-1.2-1.4l0.2-12.4l-4,11.2c-0.3,0.7-0.7,1-1.6,0.8l-3.9-1.1c-0.7-0.2-0.9-0.6-0.6-1.5l8.1-20
								c0.2-0.6,0.9-0.9,1.6-0.7l4.4,1.2c0.7,0.2,1,0.7,1,1.4l0.2,12.5l6.8-10.7c0.3-0.6,0.9-0.7,1.6-0.6l4.3,1.2
								C181.5,38.3,181.9,38.8,181.8,39.4 M150.7,55l-4.4,0.1c-0.9,0-1.4-0.3-1.9-1.3l-1.3-3.1l-7,0.2L135,54
								c-0.3,0.8-0.5,1.4-1.7,1.4l-4.3,0.2c-0.7,0-0.8-0.8-0.7-1.2l7.3-21.8c0.3-0.8,1-1,1.5-1l4.3-0.1c0.8,0,1.3,0.4,1.5,0.9
								l8.4,21.5C151.5,54.3,151.3,55,150.7,55 M126.7,56l-4.9,1.5c-0.6,0.2-1.4,0.2-2-0.4l-4.5-4.4l-1.4,6.1
								c-0.2,0.8-0.7,1.3-1.5,1.5l-4.7,1.4c-0.5,0.1-0.8-0.1-0.9-0.4c-0.1-0.3,0-0.6,0.1-0.8l3.2-12.1l-9-8.2
								c-0.2-0.1-0.3-0.3-0.4-0.5c-0.1-0.4,0.1-0.8,0.5-0.9l4.6-1.4c1-0.3,1.4-0.2,2.2,0.6l4.3,4.3l1.3-6c0.2-1,0.7-1.4,1.5-1.6
								l4.4-1.3c0.4-0.1,0.7,0.1,0.8,0.4c0.1,0.2,0.1,0.4,0,0.7l-3,11.9l9.4,8.4c0.2,0.2,0.4,0.4,0.4,0.6
								C127.3,55.5,127.1,55.9,126.7,56 M99,55.9l-5.9,3.3l1.9,3.3l7.6-4.2c0.6-0.3,1.1-0.2,1.4,0.3l1.8,3.2c0.3,0.5,0,1-0.5,1.3
								L93,69.9c-0.6,0.3-1.1,0.2-1.4-0.3L81,50.5c-0.3-0.5-0.1-1.1,0.5-1.4l11.8-6.5c0.6-0.3,1.1-0.3,1.4,0.3l1.7,3.2
								c0.3,0.5,0.1,1-0.5,1.4l-7.1,4l1.7,3.2l5.9-3.3c0.6-0.3,1.1-0.2,1.4,0.3l1.8,3.2C99.8,55.1,99.6,55.6,99,55.9 M265.7,141.7
								c0-68.5-55.5-124-124-124s-124,55.5-124,124s55.5,124,124,124S265.7,210.2,265.7,141.7"/>
						</g>
					</g>
				</g>
			</g>
		</g>
	</g>
</g>
</svg>
