<?xml version="1.0" encoding="utf-8"?>
<!-- Generator: Adobe Illustrator 22.1.0, SVG Export Plug-In . SVG Version: 6.00 Build 0)  -->
<svg version="1.1" id="Layer_1" xmlns="http://www.w3.org/2000/svg" xmlns:xlink="http://www.w3.org/1999/xlink" x="0px" y="0px"
	 viewBox="0 0 141.7 82.3" style="enable-background:new 0 0 141.7 82.3;" xml:space="preserve">
<style type="text/css">
	.st0{fill:#FFFFFF;}
</style>
<g>
	<g>
		<path class="st0" d="M132.1,49.5c2.1,0,3,1.2,3,3.9v3.7c0,3-1.3,4-3.6,4h-2.3V49.5H132.1z M141.7,81.9c-0.6-1.4-0.6-2.8-0.6-4.6
			v-5.8c0-3.9-1-6.8-3.9-8c2.6-1.2,3.9-3.8,3.9-7.7v-3c0-5.8-2.6-8.7-8.8-8.7h-9v37.8h5.9V66.5h2.1c2.7,0,3.9,1.3,3.9,4.8v5.9
			c0,3.1,0.2,3.7,0.5,4.6H141.7z M109.3,49.5h10.3v-5.4h-16.2v37.8h16.2v-5.4h-10.3V65.4h8.2V60h-8.2V49.5z M90.8,49.5h9.8v-5.4
			H84.8v37.8h5.9V66.3h7.7v-5.4h-7.7V49.5z M63,72.8c0,6,3.2,9.5,9,9.5c5.8,0,9-3.5,9-9.5V53.2c0-6-3.2-9.5-9-9.5
			c-5.8,0-9,3.5-9,9.5V72.8z M68.9,52.8c0-2.7,1.2-3.7,3.1-3.7c1.9,0,3.1,1,3.1,3.7v20.4c0,2.7-1.2,3.7-3.1,3.7
			c-1.9,0-3.1-1-3.1-3.7V52.8z M41.6,72.8c0,6,3.2,9.5,9,9.5c5.8,0,9-3.5,9-9.5V53.2c0-6-3.2-9.5-9-9.5c-5.8,0-9,3.5-9,9.5V72.8z
			 M47.5,52.8c0-2.7,1.2-3.7,3.1-3.7s3.1,1,3.1,3.7v20.4c0,2.7-1.2,3.7-3.1,3.7s-3.1-1-3.1-3.7V52.8z M29.2,49.5c2.1,0,3,1.2,3,3.9
			v3.7c0,3-1.4,4-3.6,4h-2.3V49.5H29.2z M38.8,81.9c-0.6-1.4-0.6-2.8-0.6-4.6v-5.8c0-3.9-1-6.8-3.9-8c2.6-1.2,3.9-3.8,3.9-7.7v-3
			c0-5.8-2.6-8.7-8.8-8.7h-9v37.8h5.9V66.5h2.1c2.7,0,3.9,1.3,3.9,4.8v5.9c0,3.1,0.2,3.7,0.5,4.6H38.8z M8.7,49.5
			c1.9,0,2.9,0.9,2.9,3.6v5.7c0,2.7-1,3.6-2.9,3.6H5.9V49.5H8.7z M8.7,44.1H0v37.8h5.9V67.7h2.8c5.9,0,8.9-3.3,8.9-9.3v-4.9
			C17.6,47.4,14.7,44.1,8.7,44.1"/>
		<path class="st0" d="M108.4,5.4h10.3V0h-16.2v37.8h16.2v-5.4h-10.3V21.3h8.2v-5.4h-8.2V5.4z M89.6,5.4c2.1,0,3,1.2,3,3.9V13
			c0,3-1.3,4-3.6,4h-2.3V5.4H89.6z M99.2,37.8c-0.6-1.4-0.6-2.8-0.6-4.6v-5.8c0-3.9-1-6.8-3.9-8c2.6-1.2,3.9-3.8,3.9-7.7v-3
			c0-5.8-2.6-8.7-8.8-8.7h-9v37.8h5.9V22.4h2.1c2.7,0,3.9,1.3,3.9,4.8v5.9c0,3.1,0.2,3.7,0.5,4.6H99.2z M59,0v28.8
			c0,6,3,9.5,8.9,9.5c5.8,0,8.9-3.5,8.9-9.5V0h-5.6v29.2c0,2.7-1.2,3.7-3.1,3.7c-1.9,0-3.1-1-3.1-3.7V0H59z M38.3,5.4h6.2v32.4h5.9
			V5.4h6.2V0H38.3V5.4z M18.3,0v28.8c0,6,3,9.5,8.9,9.5c5.8,0,8.9-3.5,8.9-9.5V0h-5.6v29.2c0,2.7-1.2,3.7-3.1,3.7
			c-1.9,0-3.1-1-3.1-3.7V0H18.3z M5.9,5.4h9.8V0H0v37.8h5.9V22.2h7.7v-5.4H5.9V5.4z"/>
	</g>
</g>
</svg>
