<svg id="Layer_1" data-name="Layer 1" xmlns="http://www.w3.org/2000/svg" viewBox="0 0 141.73 95.8"><defs><style>.cls-1{fill:#fff;}</style></defs><title>gamechanger3</title><path class="cls-1" d="M135.13,57.23l-1.52,3.36c-1.23,2.72-2.8,3.16-4.73,2.43l-2-.76,4.73-10.47,2.49.94c1.84.69,2.16,2.06,1.06,4.5M61.12,75l-6.44,2.27-2.55-22ZM37.77,33l4.35-18.34L43.26,33Zm98.64,14.88L128.59,45,115.21,74.6h-5.32l.84-9.56h7l.4-4.66h-7l.8-9.09h8.86l.41-4.66h-14l-1.72,19.62-2.35-8.5-8.51,3,1.49,5.35,2.76-1,1.91,6.9c.74,2.68-.21,4.07-2.14,4.76s-3.42.14-4.16-2.53L88.89,54c-.74-2.67.2-4.12,2.13-4.8s3.43-.09,4.17,2.58l1.11,4,5.75-2-1-3.64a9.78,9.78,0,0,0-3.8-5.89h4.89l.4-4.66H93.68L94.51,30h7l.41-4.66h-7l.8-9.09h8.85l.41-4.67H91L88.14,44.26h.46a11.2,11.2,0,0,0-3.69,2.41l0-.27H80.41l-1.7,19.34L75.4,47.56l3.79.68L90.59,5l-9.3-1.67L68.64,33.23,71.81,1.67,62.51,0,51.11,43.21l5.83,1L65,13.7,61.93,45.15l6.32,1.13L81,16.12l-8,30.28H68.82l-2.1,24L55.34,46.14l-7.93,2.8.21-2.31H41.81L40.45,62.17H34l1.36-15.54h-5.7l-.52,5.9A7.76,7.76,0,0,0,26.48,49a10.16,10.16,0,0,0,3.75-4.51h4.82L36.61,38h7L44,44.53h5.75L47.14,8.27H38.8l-7.55,30.5c0-.5,0-1-.08-1.54L29.83,22.15,19.21,24l.61,6.79,3.44-.6L24,39c.3,3.39-1.1,4.88-3.52,5.3s-4-.54-4.34-3.94L13.9,14.65c-.3-3.4,1.1-5,3.52-5.37s4,.61,4.34,4l.46,5.09,7.17-1.24L29,12.51c-.68-7.6-4.93-11.28-12.37-10S5.68,8.83,6.36,16.44l2.2,24.72c.31,3.49,1.38,6.14,3.16,7.87a14.88,14.88,0,0,0-4.54,7.88L.66,81.63c-2,7.61.59,12.62,7.81,13.92s12.11-2.39,14.12-10l1.66-6.32L17.3,78l-1.79,6.79c-.9,3.39-2.69,4.35-5,3.93s-3.49-1.9-2.6-5.3l6.78-25.67c.89-3.39,2.7-4.42,5-4s3.47,2,2.58,5.37l-1.35,5.09,7,1.25.15-.59-1.57,18h5.7l1.35-15.54H40L38.64,82.89h5.8L46.54,59l3.61,34.28,6.14-2.17-.92-7.89,8.21-2.89,3.22,7.07L73.55,85l-3-6.34,2-23.32,4.28,23.4H82.1l1.67-19.08L88.31,76C90,82,94,84.37,100,82.26a11.33,11.33,0,0,0,4.76-3h9L118.39,81l6.26-13.88,1.79.68c2.36.88,2.87,2.44,1.44,5.61l-2.42,5.35c-1.25,2.78-1.3,3.38-1.41,4.37l5.27,2a11.42,11.42,0,0,1,1.31-4.35L133,75.5c1.6-3.55,1.92-6.45-.17-8.55,2.82-.25,4.94-2.13,6.52-5.63l1.21-2.68c2.37-5.26,1.23-8.71-4.15-10.73"/></svg>