<svg id="Layer_1" data-name="Layer 1" xmlns="http://www.w3.org/2000/svg" viewBox="0 0 141.73 78.79"><defs><style>.cls-1{fill:#fff;}</style></defs><title>gamechanger</title><path class="cls-1" d="M70.25,42.38h-7.1v36h5.09V52.3l7.05,26.08H81.1v-36h-5V63.92ZM26,42.38H20.31v36H26V63H32.4V78.38h5.76v-36H32.4V57.81H26Zm-9.1-14.61V16.35H9V21.5h2.57v6.63c0,2.57-1.13,3.5-2.93,3.5s-2.93-.93-2.93-3.5V8.69c0-2.57,1.13-3.55,2.93-3.55s2.93,1,2.93,3.55v3.86h5.35V9.05c0-5.76-2.88-9-8.44-9S0,3.29,0,9.05V27.77c0,5.76,2.88,9.05,8.43,9.05s8.44-3.29,8.44-9m0,42V65H11.52V70.1c0,2.57-1.13,3.49-2.93,3.49s-2.93-.92-2.93-3.49V50.66c0-2.58,1.13-3.55,2.93-3.55s2.93,1,2.93,3.55v3.85h5.35V51C16.87,45.26,14,42,8.43,42S0,45.26,0,51V69.74c0,5.76,2.88,9.05,8.43,9.05s8.44-3.29,8.44-9.05M31.32,25H25.87l2.72-18.2Zm1.75,11.42h5.71L33,.41H24.74L19,36.41h5.19l1-6.53h6.94ZM47.67,67,50.4,48.75,53.12,67ZM46.54,42.38l-5.76,36H46l1-6.54h6.94l1,6.54h5.71l-5.76-36Zm13.22-6h5.35V.41H57.24L53.38,26,49.22.41H41.35v36h4.93V11L50.5,36.41h5.35l3.91-25.82Zm9.46,0H84.65V31.27H74.88V20.72h7.76V15.58H74.88v-10h9.77V.41H69.22Zm32.35,33.33V58.32H93.65v5.14h2.57V70.1c0,2.57-1.13,3.49-2.93,3.49s-2.93-.92-2.93-3.49V50.66c0-2.58,1.13-3.55,2.93-3.55s2.93,1,2.93,3.55v3.85h5.35V51c0-5.76-2.88-9.05-8.44-9.05S84.7,45.26,84.7,51V69.74c0,5.76,2.88,9.05,8.43,9.05s8.44-3.29,8.44-9.05m3.65,8.64h15.43V73.23h-9.77V62.69h7.76V57.55h-7.76v-10h9.77V42.38H105.22Zm30.19-23.61c0,2.88-1.29,3.81-3.4,3.81H129.8V47.52h2.73c2,0,2.88,1.13,2.88,3.7Zm6.32,23.61a10.74,10.74,0,0,1-.62-4.38V68.45c0-3.75-.92-6.48-3.75-7.66,2.52-1.19,3.7-3.6,3.7-7.31V50.66c0-5.56-2.52-8.28-8.38-8.28h-8.54v36h5.66V63.72h1.95c2.58,0,3.71,1.23,3.71,4.58V74c0,2.93.2,3.5.51,4.43Z"/></svg>