<?xml version="1.0" encoding="utf-8"?>
<!-- Generator: Adobe Illustrator 28.3.0, SVG Export Plug-In . SVG Version: 6.00 Build 0)  -->
<svg version="1.1" id="Layer_1" xmlns="http://www.w3.org/2000/svg" xmlns:xlink="http://www.w3.org/1999/xlink" x="0px" y="0px"
	 viewBox="0 0 660 130" style="enable-background:new 0 0 660 130;" xml:space="preserve">
<style type="text/css">
	.st0{fill:#00A0B0;}
	.st1{fill:#FFFFFF;}
</style>
<g>
	<path class="st0" d="M100.2,108.7c12.9,0,22.6-9.5,22.6-22.2c0-12.7-9.7-22.2-22.6-22.2H9.8c0,33.8,16.6,44.4,33.8,44.4
		 M112.6,86.5c0,7.3-5.4,12.8-12.7,12.8h-7.3V73.7h7.3C107.2,73.7,112.6,79.3,112.6,86.5 M152.9,92.3c0,4.6-3.4,8.1-8,8.1
		c-4.6,0-8-3.5-8-8.1c0-4.6,3.4-8.1,8-8.1C149.5,84.2,152.9,87.7,152.9,92.3 M162.9,108.7h2.6v-9.1h-0.6c-1.7,0-2.6-1-2.6-2.6V75.9
		h-9.4v3.3c-2.5-2.6-5.9-4.1-9.9-4.1c-9,0-15.8,7.4-15.8,17.2s6.8,17.2,15.8,17.2c4.6,0,8.4-2,11-5.2
		C155.5,107.2,158.4,108.7,162.9,108.7 M201.1,106.7V75.9h-9.4v16.6c0,3.7-2.6,6.2-6.4,6.2c-3.5,0-5.9-2.4-5.9-6V75.9h-9.4v19.5
		c0,7.5,4.8,12.3,12.1,12.3c3.9,0,7.1-1.4,9.5-4v3.3c0,3.9-2.5,6.4-6,6.4c-2.6,0-4.8-1.3-5.8-3.4h-9.6c1.7,7.1,7.5,11.6,15.4,11.6
		C194.7,121.7,201.1,115.8,201.1,106.7"/>
	<path class="st1" d="M184,46.3c-4.5,0-7.9-3.3-7.9-7.5c0-4.3,3.3-7.5,7.9-7.5c4.5,0,7.9,3.2,7.9,7.5C191.9,43,188.5,46.3,184,46.3
		 M182.2,54.8c3.9,0,7.2-1.4,9.7-3.8v1.6c0,4.9-2.8,7.8-7.2,7.8c-3.2,0-5.8-1.5-6.7-3.6h-9.5c1.3,7.1,7.8,11.6,16.1,11.6
		c10,0,16.6-6.4,16.6-16.2V23.6h-9.2v3c-2.5-2.4-5.8-3.8-9.7-3.8c-8.9,0-15.5,6.9-15.5,16C166.7,47.9,173.3,54.8,182.2,54.8
		 M129.5,55.7h9.2V38.2c0-4,2.7-6.6,6.7-6.6c3.7,0,6.2,2.5,6.2,6.4v8.1c0,6.2,3.3,9.5,9.8,9.5h2.6v-8.9h-0.6c-1.6,0-2.6-0.9-2.6-2.6
		V35c0-7.4-4.9-12.2-12.3-12.2c-4,0-7.2,1.3-9.8,3.9v-3.2h-9.2V55.7z M112.9,55.7h9.2V23.6h-9.2V55.7z M117.5,19.6
		c3.3,0,5.7-2.4,5.7-5.7c0-3.2-2.5-5.6-5.7-5.6c-3.2,0-5.7,2.4-5.7,5.6C111.8,17.2,114.2,19.6,117.5,19.6 M88.5,55.7h9.5l7.4-18.1
		c2.3-5.7,3.1-10.3,2.4-14h-9.5c0.7,3.3-0.1,7.2-1.8,12.1l-3.2,8.4l-7.4-20.5H75.4L88.5,55.7z M62.3,55.7h9.2V23.6h-9.2V55.7z
		 M66.9,19.6c3.3,0,5.7-2.4,5.7-5.7c0-3.2-2.5-5.6-5.7-5.6c-3.2,0-5.7,2.4-5.7,5.6C61.2,17.2,63.6,19.6,66.9,19.6 M32.8,56.4
		c6.2,0,10.9-2.2,13.9-6.4v5.7H55V30.8H34.2v8.8h10.1c-1.7,4.5-6,7.4-11.5,7.4c-7.4,0-13-5.6-13-13.1c0-7.5,5.6-13.1,13-13.1
		c4.5,0,8.3,2.1,10.5,5.3h10.9c-2.3-8.6-11-14.7-21.4-14.7c-13.1,0-23,9.7-23,22.5S19.7,56.4,32.8,56.4"/>
	<path class="st1" d="M79.5,80.5h0.9v-7h-0.6c-0.4,0.6-1.1,1-1.8,1v0.9c0.6,0,1.2-0.2,1.6-0.6V80.5z M72.4,80.5H77v-0.9h-3.7
		c0.3-1.5,3.6-1.8,3.6-4.1c0-1.2-1-2.1-2.2-2.1c-1.3,0-2.2,0.9-2.2,2.1h1c0-0.7,0.5-1.2,1.3-1.2c0.7,0,1.3,0.5,1.3,1.3
		c0,1.8-3.6,2-3.6,4.2V80.5z M68.8,78.1h2.9v-0.8h-2.9V78.1z M64.9,79.7c-1,0-1.7-1.1-1.7-2.7s0.7-2.7,1.7-2.7c1,0,1.7,1.1,1.7,2.7
		S65.9,79.7,64.9,79.7 M64.9,80.6c1.6,0,2.7-1.5,2.7-3.6c0-2.1-1.1-3.6-2.7-3.6c-1.6,0-2.7,1.5-2.7,3.6
		C62.2,79.1,63.3,80.6,64.9,80.6 M56.6,80.5h4.6v-0.9h-3.7c0.3-1.5,3.6-1.8,3.6-4.1c0-1.2-1-2.1-2.2-2.1c-1.3,0-2.2,0.9-2.2,2.1h1
		c0-0.7,0.5-1.2,1.3-1.2c0.7,0,1.3,0.5,1.3,1.3c0,1.8-3.6,2-3.6,4.2V80.5z M47.9,80.5h0.9v-2.9c0-0.9,0.6-1.6,1.6-1.6
		c0.9,0,1.5,0.6,1.5,1.5v1.7c0,0.8,0.4,1.2,1.2,1.2h0.3v-0.8h-0.1c-0.3,0-0.5-0.2-0.5-0.5v-1.8c0-1.3-0.8-2.1-2.1-2.1
		c-0.8,0-1.5,0.3-1.9,0.9v-2.9h-0.9V80.5z M44.2,80.6c1.3,0,2.4-0.8,2.6-2h-0.9c-0.2,0.7-0.9,1.2-1.7,1.2c-1.1,0-1.9-0.8-1.9-1.9
		c0-1.1,0.8-1.9,1.9-1.9c0.8,0,1.4,0.5,1.7,1.2h0.9c-0.2-1.2-1.3-2-2.6-2c-1.6,0-2.8,1.2-2.8,2.7S42.6,80.6,44.2,80.6 M35.5,80.5
		h0.9l0.8-4.2l2.3,0.3c-0.4,0.7-0.6,1.4-0.6,2c0,1.2,0.7,1.9,1.8,1.9h0.3v-0.8h-0.2c-0.6,0-1-0.4-1-1.1s0.4-1.5,1-2.4v-0.2l-3.5-0.4
		c0-0.4-0.3-0.6-0.7-0.6c-0.4,0-0.6,0.3-0.6,0.6c0,0.3,0.2,0.5,0.4,0.6L35.5,80.5z M31.5,79.7c-1.1,0-1.9-0.8-1.9-1.9
		c0-1.1,0.8-1.9,1.9-1.9c1.1,0,1.8,0.8,1.8,1.9C33.3,78.9,32.5,79.7,31.5,79.7 M31.3,80.6c0.9,0,1.6-0.4,2-1.1c0.1,0.6,0.5,1,1.2,1
		h0.3v-0.8h-0.1c-0.3,0-0.5-0.2-0.5-0.5v-3.8h-0.9v0.9c-0.4-0.6-1.1-1.1-2-1.1c-1.5,0-2.6,1.2-2.6,2.7S29.8,80.6,31.3,80.6
		 M20.1,80.5H21V75l2.4,5.5h0.7l2.5-5.5v5.5h0.9v-7h-1.2l-2.5,5.6l-2.5-5.6h-1.2V80.5z"/>
	<path class="st1" d="M70,96.2h6.9v3.1h1.8v-3.1h1.8v-1.7h-1.8v-4H77v4h-4.6c2.4-3.1,3.7-6.1,4-9.1h-1.9c-0.4,3-1.8,6.1-4.5,9.4
		V96.2z M59.3,99.3h9.3v-1.7h-7.4c0.6-3,7.3-3.5,7.3-8.2c0-2.5-1.9-4.3-4.5-4.3c-2.6,0-4.5,1.8-4.5,4.3h1.9c0-1.4,1.1-2.4,2.6-2.4
		c1.5,0,2.6,1,2.6,2.5c0,3.6-7.2,4-7.2,8.3V99.3z M51.9,97.8c-2,0-3.5-2.2-3.5-5.5c0-3.2,1.4-5.5,3.5-5.5c2,0,3.5,2.2,3.5,5.5
		C55.4,95.5,53.9,97.8,51.9,97.8 M51.9,99.5c3.2,0,5.4-3,5.4-7.2c0-4.3-2.2-7.2-5.4-7.2c-3.2,0-5.4,3-5.4,7.2
		C46.5,96.6,48.7,99.5,51.9,99.5 M35.2,99.3h9.3v-1.7H37c0.6-3,7.3-3.5,7.3-8.2c0-2.5-1.9-4.3-4.5-4.3c-2.6,0-4.5,1.8-4.5,4.3h1.9
		c0-1.4,1.1-2.4,2.6-2.4c1.5,0,2.6,1,2.6,2.5c0,3.6-7.2,4-7.2,8.3V99.3z"/>
	<path class="st1" d="M432.3,63.2c-0.1,0.1-0.1,0.4-0.1,0.8c0,0.4,0.1,0.6,0.1,0.6c0.4,0,0.9,0.1,1.6,0.3c0.8,0.2,1.2,0.5,1.3,0.7
		c0.1,0.7,0.3,1.8,0.3,3.4v16c0,2-0.1,3.4-0.3,3.9c-0.1,0.3-0.6,0.5-1.3,0.6c-0.7,0.2-1.3,0.3-1.6,0.3c-0.1,0-0.1,0.2-0.1,0.7
		c0,0.4,0.1,0.6,0.1,0.8l0.8-0.1c0.6,0,1.3-0.1,2.2-0.1c0.9-0.1,1.8-0.1,2.5-0.1c0.9,0,2.9,0.1,6,0.3c0.1-0.1,0.1-0.4,0.1-0.7
		c0-0.5-0.1-0.7-0.1-0.7c-0.4,0-1.1-0.1-1.9-0.4c-0.8-0.2-1.3-0.5-1.4-0.8c-0.2-0.7-0.4-1.9-0.4-3.6V70c0-2.7,0.1-4.2,0.5-4.4
		c0.4-0.2,1.3-0.3,2.5-0.3c1.5,0,2.7,0.6,3.5,1.6c0.8,1.1,1.1,2.6,1.1,4.5c0,1.7-0.4,3.1-1.2,4.2c-0.8,1.1-1.8,1.7-3.2,1.7
		c-0.9,0-1.7-0.1-2.4-0.4c-0.1,0-0.1,0.1-0.1,0.3v0.6c0.1,0.2,0.1,0.3,0.1,0.4c0.2,0.3,0.6,0.6,1.2,0.8c0.6,0.2,1.2,0.4,1.8,0.4
		c1.8,0,3.3-0.4,4.7-1.3c1.4-0.9,2.5-2,3.2-3.2c0.7-1.3,1.1-2.6,1.1-3.9c0-1.1-0.2-2.1-0.6-3c-0.4-0.9-0.9-1.6-1.5-2.2
		c-0.6-0.6-1.3-1.1-2.2-1.5c-0.8-0.4-1.7-0.7-2.5-0.8c-0.8-0.1-1.7-0.2-2.5-0.2c-0.8,0-1.8,0-2.9,0.1c-1.1,0.1-2,0.1-2.8,0.1
		C437.2,63.3,435.3,63.2,432.3,63.2 M462.2,65.5c0.1-0.2,0.5-0.4,1.2-0.6c0.8-0.2,1.3-0.4,1.5-0.4c0.1,0,0.1-0.2,0.1-0.7
		c0-0.2-0.1-0.4-0.1-0.7c-3.4,0.1-5.2,0.3-5.4,0.3c-0.8,0-1.8-0.1-3.3-0.1c-1.4-0.1-2.2-0.1-2.3-0.1c-0.1,0.1-0.1,0.3-0.1,0.8
		c0,0.4,0.1,0.6,0.1,0.6c0.4,0,0.8,0.1,1.5,0.4c0.7,0.2,1.1,0.4,1.2,0.6c0.2,0.7,0.4,1.9,0.4,3.6v16c0,2-0.1,3.2-0.3,3.9
		c-0.1,0.3-0.5,0.5-1.2,0.6c-0.7,0.2-1.3,0.3-1.6,0.3c-0.1,0-0.1,0.2-0.1,0.7c0,0.4,0.1,0.6,0.1,0.7l5.6-0.1
		c1.4-0.1,3.9-0.1,7.4,0.1c3.5,0.1,5.9,0.1,7,0.1c0.1-0.4,0.2-1,0.4-1.6c0.2-0.7,0.4-1.3,0.6-1.7c0.1-0.5,0.4-1.1,0.8-2
		c0.4-0.9,0.6-1.5,0.6-1.8c-0.1-0.1-0.6-0.3-1.2-0.3c-0.3,0-0.6,0.1-0.6,0.3c-0.3,1-0.8,1.8-1.3,2.6c-0.6,0.8-1.1,1.3-1.5,1.5
		c-1.1,0.6-2.8,0.9-5.1,0.9h-1.5c-1.8,0-2.7-0.2-2.9-0.6c-0.3-0.8-0.4-2-0.4-3.4V69.2C461.9,67.6,462,66.4,462.2,65.5 M484,78.1
		c0.2,0.4,0.3,0.7,0.3,0.8v6.2c0,1.7-0.1,2.9-0.4,3.7c-0.1,0.2-0.5,0.4-1.2,0.7c-0.7,0.3-1.2,0.4-1.5,0.4c-0.1,0-0.1,0.2-0.1,0.7
		c0,0.4,0.1,0.6,0.1,0.7c0.3,0,1.1-0.1,2.5-0.1c1.3-0.1,2.3-0.1,3.1-0.1c0.6,0,1.1,0,1.8,0.1c0.6,0,1.3,0.1,2,0.1
		c0.7,0.1,1.3,0.1,1.6,0.1c0.1-0.1,0.1-0.4,0.1-0.7c0-0.4-0.1-0.7-0.1-0.7c-0.2,0-0.7-0.1-1.4-0.4c-0.7-0.2-1.1-0.5-1.2-0.6
		c-0.2-0.8-0.4-2.1-0.4-3.8v-6.6c0-0.4,1.1-2.2,3.2-5.7c2.1-3.4,3.6-5.8,4.4-6.9c0.4-0.4,0.9-0.8,1.6-1c0.8-0.3,1.3-0.4,1.8-0.4
		c0.1,0,0.1-0.2,0.1-0.7c0-0.2,0-0.4-0.1-0.7c-0.3,0-0.8,0.1-1.3,0.1c-0.6,0.1-1.1,0.1-1.6,0.1c-0.5,0-1.1,0.1-1.8,0.1
		c-0.6,0-2.2-0.1-5.1-0.3c-0.1,0.1-0.1,0.3-0.1,0.8c0,0.4,0.1,0.6,0.1,0.6c0.8,0,1.5,0.1,2,0.4c0.5,0.2,0.8,0.5,0.8,0.8
		c0,0.5-0.6,1.7-1.7,3.6c-1.1,1.9-2.3,3.8-3.5,5.5c-0.1,0.2-0.3,0.2-0.4,0.1l-4.5-8.2c-0.3-0.5-0.4-0.8-0.4-1.1
		c0-0.4,0.3-0.7,0.8-0.9c0.6-0.2,1.1-0.3,1.5-0.3c0.1,0,0.1-0.2,0.1-0.6c0-0.4,0-0.6-0.1-0.8c-3.4,0.1-5.3,0.3-5.8,0.3
		c-3,0-4.9,0-5.5,0.1c-0.1,0.1-0.1,0.3-0.1,0.6c0,0.3,0.1,0.4,0.1,0.4c0.3,0,0.6,0.1,1.2,0.2c0.6,0.1,1,0.4,1.3,0.6
		c0.6,0.4,1.4,1.4,2.2,2.9 M505.6,85.5c-0.1,1.4-0.2,2.3-0.5,2.8c-0.1,0.4-0.7,0.8-1.6,1.1c-0.9,0.3-1.7,0.4-2.1,0.4
		c-0.1,0-0.1,0.2-0.1,0.7c0,0.4,0.1,0.6,0.1,0.7c0.3,0,1.1-0.1,2.3-0.1c1.3-0.1,2.2-0.1,3-0.1c0.1,0,2,0.1,5.3,0.3
		c0.1-0.1,0.1-0.4,0.1-0.6c0-0.5-0.1-0.8-0.1-0.8c-0.4,0-1-0.1-2-0.4c-1-0.3-1.5-0.6-1.7-0.9c-0.1-0.3-0.1-0.7-0.1-1.3
		c0.3-5.5,0.5-11.9,0.7-18.8l9.5,22.7c0.1,0.1,0.3,0.1,0.4,0.1c0.6,0,1.1-0.6,1.6-1.6l8.1-19.6c0.1-0.1,0.1-0.3,0.2-0.3
		c0.2,0,0.4,0.8,0.5,2.6l0.4,12.8v2.4c0,0.6-0.1,1.1-0.4,1.5c-0.2,0.2-0.6,0.4-1.2,0.6c-0.6,0.2-1.1,0.3-1.3,0.3
		c-0.1,0-0.1,0.3-0.1,0.8c0,0.3,0.1,0.5,0.1,0.6c0.4,0,1.1-0.1,1.8-0.1c0.8-0.1,1.4-0.1,2-0.1c0.6,0,1.2-0.1,1.8-0.1
		c0.1,0,1.8,0.1,5.2,0.3c0.1-0.1,0.1-0.4,0.1-0.6c0-0.5-0.1-0.8-0.1-0.8c-0.3,0-0.8-0.1-1.4-0.4c-0.7-0.2-1.1-0.4-1.2-0.7
		c-0.4-1.1-0.6-2.4-0.7-3.9c-0.3-9.1-0.5-14.9-0.6-17.5c-0.1-1.2,0.1-2,0.6-2.2c0.6-0.4,1.3-0.7,2-0.7h0.1c0.1,0,0.1-0.2,0.1-0.7
		c0-0.4-0.1-0.6-0.1-0.7c-2.2,0.1-3.9,0.2-5.1,0.2c-1.5,0-2.6-0.1-3.4-0.1l-1.5,4.9c-1.5,3.9-3.4,8.7-5.9,14.7
		c0,0.1-0.1,0.1-0.1,0.1s-0.1,0-0.1-0.1c-0.8-2-1.8-4.5-3.2-7.5c-1.3-3.1-2.4-5.6-3.3-7.8c-0.9-2.1-1.5-3.6-1.8-4.4
		c-2.6,0.1-4,0.3-4.1,0.3c-0.7,0-1.6,0-2.7-0.1c-1.1-0.1-1.8-0.1-2.2-0.1c-0.1,0.1-0.1,0.4-0.1,0.6c0,0.5,0.1,0.7,0.1,0.7
		c0.4,0,1,0.1,1.8,0.3c0.8,0.2,1.3,0.4,1.4,0.6c0.1,0.3,0.1,0.6,0.1,1.2c0,0.5-0.1,1.8-0.1,3.9 M556.6,67c1.4,1.3,2.3,3,2.9,4.9
		c0.6,1.9,0.8,3.9,0.8,6.1c0,3.1-0.6,5.8-2,8c-1.3,2.2-3.2,3.4-5.5,3.4c-2,0-3.6-0.7-5-2.1c-1.4-1.4-2.4-3-2.9-5
		c-0.6-1.9-0.8-3.9-0.8-6c0-3.2,0.6-5.8,1.9-8c1.3-2.2,3.2-3.3,5.5-3.3C553.6,65,555.2,65.7,556.6,67 M552.2,91.5
		c3.7,0,6.9-1.4,9.5-4.2c2.7-2.8,4-6.2,4-10.1s-1.3-7.3-4-10.1c-2.7-2.8-5.8-4.2-9.5-4.2s-6.9,1.4-9.5,4.2c-2.7,2.8-4,6.2-4,10.1
		s1.3,7.3,4,10.1C545.3,90.1,548.5,91.5,552.2,91.5 M566.9,63.1c-0.1,0.1-0.1,0.4-0.1,0.8c0,0.4,0.1,0.6,0.1,0.6
		c0.4,0,0.8,0.1,1.5,0.4c0.7,0.2,1.1,0.4,1.2,0.6c0.2,0.6,0.4,1.8,0.4,3.6v9.2c0,4.6,1,7.8,2.9,9.9c2,2,4.6,3.1,8,3.1
		c1.6,0,3-0.2,4.3-0.6s2.4-1.1,3.4-2c1-0.9,1.8-2.2,2.2-3.8c0.6-1.6,0.8-3.5,0.8-5.7v-10c0-1.6,0.1-2.8,0.5-3.5
		c0.3-0.4,0.8-0.6,1.6-0.8c0.8-0.2,1.4-0.4,1.8-0.4c0.1,0,0.1-0.2,0.1-0.7c0-0.3,0-0.5-0.1-0.7c-0.3,0-1,0.1-2.2,0.1
		c-1.2,0.1-2.1,0.1-2.8,0.1c-0.5,0-2.2-0.1-5.3-0.3c-0.1,0.1-0.1,0.4-0.1,0.8c0,0.4,0.1,0.6,0.2,0.6c0.4,0,1,0.1,1.8,0.4
		c0.8,0.2,1.3,0.5,1.5,0.8c0.3,0.6,0.4,1.7,0.4,3.4v10.3c0,3.3-0.6,5.7-2,7.1c-1.3,1.4-3,2.1-5.2,2.1c-2.2,0-3.9-0.8-5.2-2.6
		c-1.3-1.8-1.9-4.1-1.9-6.9v-9.6c0-1.6,0.1-2.9,0.4-3.7c0-0.2,0.4-0.4,1.2-0.6c0.8-0.2,1.3-0.4,1.5-0.4c0.1,0,0.1-0.2,0.1-0.7
		c0-0.2,0-0.4-0.1-0.7c-3.1,0.1-4.9,0.3-5.4,0.3C572.4,63.4,570.5,63.3,566.9,63.1 M601.2,63.1c-0.7,0-1.7-0.1-2.9-0.4l-0.8,6.4
		c0.2,0.2,0.6,0.4,1.1,0.4c0.3,0,0.4-0.1,0.4-0.3c0.4-1.5,1-2.5,1.6-3.1c0.6-0.6,1.7-0.8,3-0.8c2.5,0,3.8,0.2,4,0.7
		c0.3,0.4,0.4,1.8,0.4,4.1v15.3c0,1.5-0.1,2.7-0.4,3.5c-0.1,0.2-0.5,0.4-1.2,0.6c-0.7,0.2-1.3,0.3-1.6,0.3c-0.1,0-0.1,0.3-0.1,0.8
		c0,0.4,0.1,0.6,0.1,0.7c0.3,0,1.1-0.1,2.5-0.1c1.3-0.1,2.4-0.1,3.2-0.1c0.6,0,1.1,0,1.8,0.1c0.6,0,1.3,0.1,2,0.1
		c0.7,0.1,1.3,0.1,1.6,0.1c0.1-0.1,0.1-0.4,0.1-0.7c0-0.5-0.1-0.8-0.1-0.8c-0.3,0-0.8-0.1-1.5-0.4c-0.7-0.2-1.1-0.4-1.1-0.6
		c-0.3-0.9-0.4-2.2-0.4-3.6V70c0-1.8,0.1-3.2,0.4-4c0.1-0.5,1.5-0.7,4.1-0.7c1.4,0,2.4,0.3,3,0.8c0.6,0.6,1.2,1.6,1.5,3.2
		c0.1,0.1,0.2,0.2,0.4,0.2c0.6,0,0.9-0.1,1.1-0.3l-0.8-6.5c-1.3,0.3-2.2,0.4-2.9,0.4c-1.1,0-2.7,0.1-4.6,0.1
		c-1.9,0.1-3.5,0.1-4.7,0.1s-2.7,0-4.6-0.1C603.9,63.2,602.3,63.2,601.2,63.1 M651.2,89.5c-0.7-0.2-1.1-0.4-1.2-0.6
		c-0.3-1-0.4-2.2-0.4-3.8V69.2c0-1.6,0.1-2.9,0.4-3.7c0.1-0.2,0.5-0.4,1.2-0.6c0.8-0.2,1.3-0.4,1.5-0.4c0.1,0,0.1-0.2,0.1-0.7
		c0-0.2-0.1-0.4-0.1-0.7c-3.4,0.1-5.2,0.3-5.4,0.3c-0.8,0-1.8-0.1-3.3-0.1c-1.4-0.1-2.2-0.1-2.3-0.1c-0.1,0.1-0.1,0.3-0.1,0.8
		c0,0.4,0.1,0.6,0.1,0.6c0.4,0,0.8,0.1,1.5,0.4c0.7,0.2,1.1,0.4,1.2,0.6c0.2,0.7,0.4,1.8,0.4,3.6v6.3c0,0.1,0,0.1-0.1,0.1
		c-2.5,0.1-4.4,0.1-5.5,0.1c-1.1,0-3,0-5.8-0.1l-0.1-0.1v-6.2c0-1.6,0.1-2.9,0.4-3.7c0.1-0.2,0.5-0.4,1.2-0.6
		c0.8-0.2,1.3-0.4,1.5-0.4c0.1,0,0.1-0.2,0.1-0.7c0-0.2-0.1-0.4-0.1-0.7c-3.4,0.1-5.2,0.3-5.4,0.3c-0.8,0-1.8-0.1-3.3-0.1
		c-1.4-0.1-2.2-0.1-2.3-0.1c-0.1,0.1-0.1,0.3-0.1,0.8c0,0.4,0.1,0.6,0.1,0.6c0.4,0,0.8,0.1,1.5,0.4c0.7,0.2,1.1,0.4,1.2,0.6
		c0.2,0.7,0.4,1.8,0.4,3.6v16.3c0,1.5-0.1,2.7-0.4,3.6c-0.1,0.2-0.5,0.4-1.2,0.6c-0.7,0.2-1.3,0.3-1.6,0.3c-0.1,0-0.1,0.3-0.1,0.8
		c0,0.3,0.1,0.5,0.1,0.6c0.4,0,1.1-0.1,1.8-0.1c0.8-0.1,1.4-0.1,2-0.1c0.6,0,1.2-0.1,1.8-0.1c0.2,0,2,0.1,5.3,0.3
		c0.1-0.1,0.1-0.4,0.1-0.6c0-0.6-0.1-0.8-0.1-0.8c-0.3,0-0.8-0.1-1.5-0.4c-0.7-0.2-1.1-0.4-1.2-0.6c-0.3-1-0.4-2.2-0.4-3.8v-7
		c0-0.1,2-0.1,5.8-0.2c1.1,0,2.9,0,5.5,0.1l0.1,0.1v7.3c0,1.5-0.1,2.7-0.4,3.6c-0.1,0.2-0.5,0.4-1.2,0.6c-0.7,0.2-1.3,0.3-1.6,0.3
		c-0.1,0-0.1,0.3-0.1,0.8c0,0.3,0.1,0.5,0.1,0.6c0.4,0,1.1-0.1,1.8-0.1c0.8-0.1,1.4-0.1,2-0.1c0.6,0,1.2-0.1,1.8-0.1
		c0.2,0,2,0.1,5.3,0.3c0.1-0.1,0.1-0.4,0.1-0.6c0-0.6-0.1-0.8-0.1-0.8C652.4,89.8,651.9,89.7,651.2,89.5"/>
	<path class="st1" d="M432.4,36.9c-0.1,0.1-0.1,0.3-0.1,0.6c0,0.3,0.1,0.5,0.1,0.5c0.2,0,0.6,0.1,1.1,0.2c0.5,0.1,0.8,0.3,0.8,0.5
		c0.1,0.4,0.2,1.3,0.2,2.5v6.7c0,3.3,0.7,5.6,2.1,7.1c1.4,1.5,3.3,2.2,5.8,2.2c1.1,0,2.2-0.1,3.1-0.5c0.9-0.3,1.7-0.8,2.5-1.5
		c0.7-0.6,1.3-1.5,1.6-2.7c0.4-1.1,0.6-2.5,0.6-4.1v-7.1c0-1.2,0.1-2,0.4-2.5c0.2-0.3,0.6-0.5,1.1-0.6c0.6-0.1,1.1-0.2,1.3-0.2
		c0.1,0,0.1-0.1,0.1-0.5c0-0.2,0-0.4-0.1-0.5c-0.2,0-0.7,0.1-1.5,0.1s-1.5,0.1-2,0.1c-0.4,0-1.6-0.1-3.9-0.2
		c-0.1,0.1-0.1,0.3-0.1,0.6c0,0.3,0.1,0.4,0.1,0.4c0.3,0,0.7,0.1,1.3,0.3c0.6,0.1,1,0.3,1.1,0.6c0.2,0.4,0.3,1.2,0.3,2.5v7.3
		c0,2.4-0.5,4.1-1.4,5.1c-0.9,1.1-2.2,1.5-3.8,1.5c-1.6,0-2.9-0.6-3.8-1.9c-0.9-1.3-1.3-2.9-1.3-5v-7c0-1.2,0.1-2.1,0.2-2.7
		c0-0.1,0.3-0.4,0.8-0.5c0.6-0.1,0.9-0.2,1.1-0.2c0.1,0,0.1-0.1,0.1-0.5c0-0.1,0-0.4-0.1-0.5c-2.2,0.1-3.5,0.2-3.9,0.2
		C436.3,37.1,435,37.1,432.4,36.9 M463.3,40.2c-1.1-1.4-1.8-2.5-2.1-3.2c-1.1,0.1-2.1,0.1-2.7,0.1c-0.3,0-1.5-0.1-3.6-0.1
		c-0.1,0.1-0.1,0.3-0.1,0.6c0,0.3,0.1,0.5,0.1,0.5c0.3,0,0.7,0.1,1.3,0.2c0.6,0.1,1,0.3,1.1,0.4c0.2,0.4,0.4,1.1,0.4,2.2v11.9
		c0,1.3-0.1,2.1-0.3,2.5c-0.1,0.3-0.6,0.6-1.1,0.7c-0.6,0.1-1.1,0.2-1.4,0.2c-0.1,0-0.1,0.1-0.1,0.5c0,0.3,0.1,0.4,0.1,0.5
		c0.3,0,0.8-0.1,1.6-0.1c0.8-0.1,1.5-0.1,2-0.1c0.1,0,1.4,0.1,3.8,0.2c0.1-0.1,0.1-0.3,0.1-0.6c0-0.3-0.1-0.4-0.1-0.4
		c-0.3,0-0.7-0.1-1.4-0.3c-0.6-0.1-1.1-0.4-1.1-0.6c-0.1-0.4-0.2-1.3-0.2-2.5V40.5l12.1,16.1c0.4,0.5,0.6,0.7,1,0.7
		c0.4,0,0.6-0.1,0.7-0.1c-0.1-2.1-0.1-3.5-0.1-4.3V41.4c0-1.1,0.1-2,0.4-2.5c0.2-0.3,0.6-0.5,1.1-0.6c0.6-0.1,1.1-0.2,1.3-0.2
		c0.1,0,0.1-0.1,0.1-0.5c0-0.2,0-0.4-0.1-0.5c-0.2,0-0.7,0.1-1.5,0.1s-1.5,0.1-2,0.1c-0.4,0-1.7-0.1-3.9-0.2
		c-0.1,0.1-0.1,0.3-0.1,0.6c0,0.3,0.1,0.4,0.1,0.4c0.4,0,0.8,0.1,1.3,0.2c0.6,0.1,0.9,0.3,1.1,0.6c0.2,0.6,0.3,1.3,0.3,2.5v8.3
		c0,0.6,0,1-0.1,1.3 M480,53c0,1.1-0.1,1.9-0.2,2.5c-0.1,0.1-0.3,0.3-0.8,0.5c-0.5,0.1-0.9,0.2-1.1,0.2c-0.1,0-0.1,0.2-0.1,0.6
		c0,0.2,0.1,0.4,0.1,0.4c0.4,0,0.8-0.1,1.3-0.1c0.6,0,1.1-0.1,1.5-0.1h1.3c0.1,0,1.4,0.1,3.9,0.2c0.1-0.1,0.1-0.3,0.1-0.4
		c0-0.4-0.1-0.6-0.1-0.6c-0.2,0-0.6-0.1-1.1-0.2c-0.5-0.1-0.8-0.3-0.8-0.4c-0.2-0.7-0.3-1.6-0.3-2.7V41.4c0-1.1,0.1-2,0.2-2.7
		c0.1-0.1,0.4-0.3,0.9-0.5c0.6-0.1,0.9-0.2,1.1-0.2c0.1,0,0.1-0.1,0.1-0.5c0-0.1,0-0.3-0.1-0.5c-2.5,0.1-3.7,0.2-3.9,0.2
		c-0.6,0-1.3,0-2.4-0.1c-1.1-0.1-1.6-0.1-1.7-0.1c-0.1,0.1-0.1,0.2-0.1,0.6c0,0.3,0.1,0.5,0.1,0.5c0.2,0,0.6,0.1,1.1,0.2
		c0.5,0.1,0.8,0.3,0.8,0.5c0.1,0.5,0.2,1.3,0.2,2.5V53z M495.8,45.3c-1.5-3.8-2.3-5.8-2.3-6.2c0-0.3,0.1-0.5,0.4-0.6
		c0.3-0.1,0.6-0.3,0.8-0.4c0.3-0.1,0.5-0.1,0.6-0.1c0.1,0,0.1-0.1,0.1-0.4c0-0.3,0-0.5-0.1-0.6c-2.5,0.1-3.9,0.2-4.1,0.2
		c-0.6,0-1.3,0-2.3-0.1c-1-0.1-1.5-0.1-1.7-0.1c-0.1,0.1-0.1,0.3-0.1,0.6c0,0.3,0.1,0.5,0.1,0.5c0.3,0,0.7,0.1,1.2,0.2
		c0.5,0.1,0.8,0.4,0.9,0.6c0.3,0.6,0.7,1.5,1.1,2.7l6.2,15.6c0.1,0.2,0.3,0.3,0.5,0.3c0.5,0,0.9-0.4,1.2-1.1l6.3-14.8
		c0.6-1.3,1-2.2,1.3-2.7c0.2-0.3,0.6-0.5,1.1-0.6c0.4-0.1,0.8-0.2,1.1-0.2c0.1,0,0.1-0.1,0.1-0.5c0-0.2,0-0.4-0.1-0.5
		c-0.3,0-0.8,0.1-1.5,0.1c-0.7,0.1-1.3,0.1-1.8,0.1c-0.5,0-1.1,0-1.9-0.1c-0.8-0.1-1.3-0.1-1.5-0.1c-0.1,0.1-0.1,0.3-0.1,0.6
		c0,0.3,0,0.4,0.1,0.4c0.5,0,1,0.1,1.5,0.3c0.5,0.2,0.7,0.5,0.7,0.8c0,0.4-0.2,1.1-0.6,2.1l-4.4,10.5c0,0.1-0.1-0.2-0.4-0.7
		 M509.7,37c-0.1,0.1-0.1,0.3-0.1,0.6c0,0.3,0.1,0.5,0.1,0.5c0.3,0,0.7,0.1,1.2,0.2c0.5,0.1,0.8,0.3,0.8,0.6
		c0.1,0.4,0.2,1.3,0.2,2.5v11.4c0,1.4-0.1,2.3-0.2,2.8c-0.1,0.2-0.3,0.4-0.9,0.5c-0.5,0.1-0.9,0.2-1.1,0.2c-0.1,0-0.1,0.1-0.1,0.5
		c0,0.3,0,0.4,0.1,0.5l4.1-0.1c1.1-0.1,2.8,0,5.4,0c2.5,0.1,4.2,0.1,5.1,0.1c0.1-0.3,0.1-0.7,0.3-1.2c0.1-0.5,0.3-0.9,0.4-1.3
		c0.1-0.4,0.3-0.8,0.6-1.5c0.2-0.6,0.4-1.1,0.4-1.3c-0.1-0.1-0.4-0.2-0.8-0.2c-0.3,0-0.4,0.1-0.4,0.2c-0.2,0.7-0.6,1.3-0.9,1.8
		c-0.4,0.6-0.8,0.9-1.1,1.1c-0.8,0.4-2,0.6-3.6,0.6h-1.1c-1.3,0-2-0.1-2.1-0.4c-0.2-0.6-0.3-1.3-0.3-2.5v-4.7c0-0.1,0.7-0.2,2.2-0.2
		c1.6,0,2.5,0.1,2.8,0.2c0.1,0.1,0.2,0.1,0.3,0.2c0.1,0.1,0.1,0.1,0.2,0.4c0.1,0.3,0.2,0.7,0.4,1.2c0.1,0.1,0.2,0.2,0.5,0.2
		s0.5-0.1,0.6-0.1v-5.8c-0.1-0.1-0.3-0.1-0.6-0.1s-0.5,0.1-0.5,0.2c-0.1,0.2-0.1,0.5-0.2,0.8c-0.1,0.6-0.3,1-0.5,1.1
		c-0.2,0.1-0.9,0.1-2.1,0.1h-0.1h-1.6c-0.9,0-1.3-0.1-1.3-0.2v-4.6c0-1.1,0.1-1.9,0.2-2.5c0.1-0.3,0.8-0.4,2.3-0.4h1.6
		c1.9,0,3.2,0.9,3.9,2.7c0.1,0.1,0.2,0.2,0.4,0.2c0.4,0,0.6-0.1,0.6-0.1c0-0.1-0.1-0.7-0.4-1.8c-0.2-1.1-0.4-2-0.5-2.5
		c-1.1,0-2.9,0.1-5.1,0.1s-3.9,0.1-4.7,0.1C512.4,37.1,511,37.1,509.7,37 M538.3,42.7c0,1.1-0.3,2-0.9,2.7c-0.6,0.7-1.3,1.1-2,1.1
		h-0.8c-0.6,0-1.1-0.1-1.4-0.2c-0.4-0.1-0.5-0.4-0.5-0.9v-3.5c0-2,0.1-3.1,0.4-3.2c0.4-0.1,0.9-0.2,1.8-0.2
		C537.1,38.5,538.3,40,538.3,42.7 M533,37.1h-2.1c-0.6,0-1.9,0-4.1-0.1c-0.1,0.1-0.1,0.2-0.1,0.6c0,0.4,0.1,0.5,0.1,0.5
		c0.2,0,0.6,0.1,1.2,0.3c0.6,0.1,0.8,0.4,0.9,0.5c0.1,0.5,0.2,1.3,0.2,2.5v11.4c0,1.5-0.1,2.4-0.2,2.8c-0.1,0.2-0.4,0.4-0.9,0.5
		c-0.5,0.1-0.9,0.2-1.2,0.2c-0.1,0-0.1,0.1-0.1,0.5c0,0.3,0,0.5,0.1,0.6l0.6-0.1c0.4,0,1-0.1,1.6-0.1c0.7,0,1.3-0.1,1.8-0.1
		c0.6,0,2.1,0.1,4.3,0.2c0.1-0.1,0.1-0.3,0.1-0.5c0-0.4-0.1-0.5-0.1-0.5c-0.3,0-0.7-0.1-1.3-0.2c-0.6-0.1-1-0.4-1.1-0.6
		c-0.1-0.5-0.2-1.4-0.2-2.6v-4.3c0-0.4,0.1-0.5,0.5-0.5c0.4,0,0.6,0,0.7,0.1c0.1,0.1,0.4,0.1,0.5,0.4c0.1,0.1,0.4,0.4,0.6,0.7
		c0.2,0.3,0.5,0.6,0.6,0.9c0.2,0.3,0.5,0.7,0.8,1.3c0.4,0.6,0.7,1.1,1,1.4c0.4,0.7,0.8,1.3,1.3,1.7c0.4,0.4,0.9,0.9,1.5,1.4
		c0.6,0.5,1.3,0.8,2.2,1.1c0.8,0.2,1.8,0.4,2.8,0.4c0.4,0,0.7,0,0.9-0.1c0.1-0.1,0.1-0.3,0.1-0.6c0-0.2-0.1-0.4-0.1-0.5
		c-0.7,0-1.5-0.3-2.2-0.9c-0.8-0.6-1.6-1.3-2.3-2.2c-1.1-1.4-2.2-3.2-3.4-5.2c-0.1-0.1-0.1-0.2,0.1-0.3c1-0.4,1.9-1.1,2.6-2.1
		c0.7-1,1.1-2,1.1-3.1c0-0.8-0.1-1.5-0.5-2.1c-0.3-0.6-0.7-1.1-1.2-1.5c-0.5-0.4-1.1-0.7-1.7-1c-0.6-0.3-1.2-0.4-1.8-0.6
		c-0.6-0.1-1.1-0.1-1.7-0.1C534.6,37,533.8,37,533,37.1 M548.1,43.8c0.2,0.5,0.4,0.9,0.6,1.3c0.2,0.3,0.6,0.7,1.1,1.1
		c0.5,0.4,0.8,0.7,1.2,0.9c0.3,0.2,0.8,0.5,1.3,0.8c0.1,0.1,0.3,0.2,0.3,0.2c0.2,0.1,0.5,0.3,0.9,0.6c0.4,0.3,0.8,0.4,1,0.6
		c0.2,0.1,0.5,0.4,0.8,0.6c0.4,0.3,0.6,0.5,0.8,0.7c0.1,0.2,0.4,0.5,0.5,0.8c0.1,0.3,0.2,0.6,0.2,1c0,1.1-0.3,2-0.9,2.5
		c-0.6,0.6-1.4,0.8-2.4,0.8c-0.8,0-1.4-0.1-2-0.5c-0.6-0.3-1.1-0.7-1.4-1.2c-0.3-0.5-0.6-1-0.8-1.4c-0.2-0.4-0.4-0.8-0.4-1.2
		c-0.1-0.1-0.3-0.2-0.9-0.2c-0.3,0-0.5,0.1-0.5,0.2c0,0.3,0.1,1.1,0.2,2.2c0.1,1.1,0.4,2,0.5,2.7c2.5,0.6,4.3,0.8,5.6,0.8
		c1.8,0,3.2-0.6,4.6-1.6c1.3-1.1,2-2.4,2-4c0-0.6-0.1-1.1-0.2-1.6c-0.1-0.5-0.4-0.9-0.6-1.3c-0.2-0.4-0.5-0.7-0.9-1.1
		c-0.4-0.4-0.8-0.6-1-0.8c-0.2-0.1-0.6-0.4-1.2-0.7c-0.6-0.3-0.9-0.6-1.1-0.6c-0.1-0.1-0.4-0.2-0.8-0.5c-0.5-0.3-0.8-0.5-0.9-0.6
		c-0.1-0.1-0.4-0.3-0.8-0.6c-0.4-0.3-0.6-0.5-0.8-0.6c-0.1-0.1-0.3-0.4-0.5-0.6c-0.2-0.3-0.4-0.6-0.4-0.8s-0.1-0.6-0.1-0.8
		c0-0.9,0.3-1.6,0.8-2.1c0.5-0.6,1.2-0.8,2.2-0.8c1.1,0,2,0.4,2.7,1.3c0.8,0.9,1.2,1.8,1.3,2.7c0.1,0.2,0.4,0.3,0.9,0.3
		c0.2,0,0.4-0.1,0.4-0.3c0-1.8-0.1-3.3-0.4-4.7c-0.3-0.1-0.8-0.2-1.5-0.4c-0.8-0.2-1.3-0.4-1.8-0.4c-0.4-0.1-0.9-0.1-1.5-0.1
		c-1.6,0-3,0.5-4.3,1.5c-1.3,1.1-1.9,2.3-1.9,3.9C547.8,42.8,547.9,43.3,548.1,43.8 M563.9,53c0,1.1-0.1,1.9-0.2,2.5
		c-0.1,0.1-0.4,0.3-0.8,0.5c-0.5,0.1-0.9,0.2-1.1,0.2c-0.1,0-0.1,0.2-0.1,0.6c0,0.2,0.1,0.4,0.1,0.4c0.3,0,0.8-0.1,1.3-0.1
		c0.6,0,1.1-0.1,1.5-0.1h1.3c0.1,0,1.4,0.1,3.9,0.2c0.1-0.1,0.1-0.3,0.1-0.4c0-0.4-0.1-0.6-0.1-0.6c-0.2,0-0.6-0.1-1.1-0.2
		c-0.5-0.1-0.8-0.3-0.8-0.4c-0.2-0.7-0.3-1.6-0.3-2.7V41.4c0-1.1,0.1-2,0.2-2.7c0.1-0.1,0.4-0.3,0.9-0.5c0.6-0.1,0.9-0.2,1.1-0.2
		c0.1,0,0.1-0.1,0.1-0.5c0-0.1,0-0.3-0.1-0.5c-2.5,0.1-3.7,0.2-3.9,0.2c-0.6,0-1.3,0-2.4-0.1c-1.1-0.1-1.6-0.1-1.7-0.1
		c-0.1,0.1-0.1,0.2-0.1,0.6c0,0.3,0.1,0.5,0.1,0.5c0.2,0,0.6,0.1,1.1,0.2c0.5,0.1,0.8,0.3,0.8,0.5c0.1,0.5,0.2,1.3,0.2,2.5V53z
		 M573.8,36.9c-0.5,0-1.2-0.1-2.1-0.3l-0.6,4.6c0.1,0.1,0.4,0.2,0.8,0.2c0.2,0,0.3-0.1,0.3-0.2c0.3-1.1,0.7-1.8,1.1-2.2
		c0.5-0.4,1.2-0.6,2.2-0.6c1.8,0,2.7,0.1,2.9,0.5c0.2,0.3,0.3,1.3,0.3,2.9v11c0,1.1-0.1,2-0.2,2.5c-0.1,0.1-0.4,0.3-0.8,0.5
		c-0.5,0.1-0.9,0.2-1.1,0.2c-0.1,0-0.1,0.2-0.1,0.6c0,0.2,0.1,0.4,0.1,0.5c0.2,0,0.8-0.1,1.8-0.1c1-0.1,1.8-0.1,2.2-0.1h1.3
		c0.4,0,0.9,0.1,1.4,0.1c0.5,0,0.9,0.1,1.2,0.1c0.1-0.1,0.1-0.3,0.1-0.5c0-0.4-0.1-0.6-0.1-0.6c-0.2,0-0.6-0.1-1.1-0.2
		c-0.6-0.1-0.8-0.3-0.8-0.4c-0.2-0.7-0.3-1.5-0.3-2.7V41.9c0-1.3,0.1-2.2,0.3-2.9c0.1-0.3,1.1-0.5,2.9-0.5c1,0,1.8,0.2,2.2,0.6
		c0.5,0.4,0.8,1.1,1.1,2.2c0.1,0.1,0.1,0.1,0.3,0.1c0.4,0,0.7-0.1,0.8-0.2l-0.5-4.6c-0.9,0.2-1.6,0.3-2.1,0.3c-0.8,0-2,0.1-3.3,0.1
		c-1.4,0.1-2.5,0.1-3.4,0.1c-0.8,0-2,0-3.4-0.1C575.7,37,574.6,37,573.8,36.9 M598.5,47.7c0.1,0.3,0.2,0.5,0.2,0.6v4.5
		c0,1.2-0.1,2.1-0.2,2.7c-0.1,0.1-0.4,0.4-0.8,0.5c-0.5,0.1-0.9,0.2-1.1,0.2c-0.1,0-0.1,0.1-0.1,0.5c0,0.2,0.1,0.4,0.1,0.5
		c0.2,0,0.8-0.1,1.8-0.1c0.9-0.1,1.7-0.1,2.2-0.1h1.3c0.4,0,0.9,0.1,1.4,0.1c0.5,0,0.9,0.1,1.1,0.1c0.1-0.1,0.1-0.3,0.1-0.5
		c0-0.4-0.1-0.5-0.1-0.5c-0.1,0-0.5-0.1-1.1-0.3c-0.5-0.1-0.8-0.4-0.8-0.5c-0.1-0.6-0.2-1.5-0.2-2.7v-4.8c0-0.3,0.8-1.6,2.3-4.1
		c1.5-2.5,2.6-4.1,3.2-5c0.2-0.3,0.6-0.6,1.2-0.7c0.6-0.2,1-0.3,1.3-0.3c0.1,0,0.1-0.1,0.1-0.5c0-0.1,0-0.4-0.1-0.5
		c-0.2,0-0.6,0.1-0.9,0.1c-0.4,0-0.8,0.1-1.1,0.1H607c-0.4,0-1.6-0.1-3.6-0.2c-0.1,0.1-0.1,0.3-0.1,0.6c0,0.3,0.1,0.4,0.1,0.4
		c0.6,0,1.1,0.1,1.5,0.3c0.4,0.1,0.6,0.4,0.6,0.6c0,0.4-0.4,1.3-1.2,2.6c-0.8,1.4-1.7,2.7-2.5,4c-0.1,0.1-0.2,0.1-0.3,0.1l-3.5-5.6
		c-0.2-0.4-0.3-0.6-0.3-0.8c0-0.3,0.2-0.5,0.6-0.6c0.4-0.1,0.8-0.2,1.1-0.2c0.1,0,0.1-0.1,0.1-0.4c0-0.3,0-0.5-0.1-0.6
		c-2.5,0.1-3.9,0.2-4.2,0.2c-2.2,0-3.5,0-4,0.1c-0.1,0.1-0.1,0.2-0.1,0.4c0,0.2,0.1,0.3,0.1,0.3c0.2,0,0.5,0.1,0.8,0.1
		c0.4,0.1,0.7,0.2,0.9,0.4c0.5,0.3,1,1,1.6,2.1 M630.5,39.7c1,1,1.7,2.2,2.1,3.5c0.4,1.3,0.6,2.8,0.6,4.4c0,2.2-0.5,4.1-1.4,5.8
		s-2.2,2.5-4,2.5c-1.4,0-2.6-0.5-3.6-1.5c-1-1-1.7-2.2-2.1-3.6c-0.4-1.4-0.6-2.8-0.6-4.3c0-2.2,0.5-4.2,1.4-5.8
		c0.9-1.6,2.2-2.4,4-2.4C628.3,38.3,629.5,38.8,630.5,39.7 M627.3,57.4c2.7,0,5-1,6.9-3c1.9-2,2.9-4.4,2.9-7.3c0-2.9-1-5.3-2.9-7.3
		c-1.9-2-4.2-3-6.9-3c-2.7,0-5,1-6.9,3c-1.9,2-2.9,4.4-2.9,7.3c0,2.9,1,5.3,2.9,7.3C622.3,56.4,624.6,57.4,627.3,57.4 M646.7,57.2
		c0.1-0.1,0.1-0.2,0.1-0.5c0-0.4-0.1-0.5-0.1-0.5c-0.2,0-0.6-0.1-1.3-0.3c-0.6-0.2-1-0.4-1.1-0.6c-0.2-0.6-0.4-1.4-0.4-2.5v-4.8
		c0-0.1,0.7-0.2,2.2-0.2c1.6,0,2.5,0.1,2.8,0.2c0.1,0.1,0.2,0.1,0.3,0.2c0,0,0.1,0.1,0.2,0.4s0.2,0.7,0.4,1.2
		c0.1,0.1,0.2,0.2,0.5,0.2s0.5-0.1,0.6-0.1v-5.8c-0.1-0.1-0.3-0.1-0.6-0.1s-0.5,0.1-0.5,0.2c-0.1,0.2-0.1,0.5-0.2,0.8
		c-0.1,0.6-0.3,1-0.5,1.1c-0.2,0.1-0.9,0.1-2.1,0.1h-0.1h-1.5c-0.9,0-1.3-0.1-1.3-0.2v-4.8c0-1.1,0.1-2,0.1-2.5
		c0.1-0.3,0.8-0.4,2.3-0.4h1.6c1.9,0,3.2,0.9,3.9,2.7c0.1,0.1,0.2,0.2,0.4,0.2c0.4,0,0.6-0.1,0.6-0.1c0-0.1-0.1-0.7-0.4-1.8
		c-0.2-1.1-0.4-2-0.5-2.5c-1.1,0-2.7,0.1-5,0.1c-2.2,0.1-3.9,0.1-4.8,0.1c-1.3,0-2.7-0.1-4-0.1c-0.1,0.1-0.1,0.3-0.1,0.6
		c0,0.3,0.1,0.5,0.1,0.5c0.3,0,0.7,0.1,1.2,0.2c0.5,0.1,0.8,0.3,0.8,0.6c0.1,0.4,0.2,1.3,0.2,2.5v11.4c0,1.4-0.1,2.3-0.2,2.8
		c-0.1,0.2-0.4,0.4-0.9,0.5c-0.5,0.1-0.9,0.2-1.2,0.2c-0.1,0-0.1,0.1-0.1,0.5c0,0.3,0,0.4,0.1,0.5h0.6c0.4-0.1,0.9-0.1,1.6-0.1
		c0.7,0,1.3-0.1,2-0.1C642.9,57,644.3,57.1,646.7,57.2"/>
	<path class="st1" d="M416,48.9V36.7h-46.1v12.1c0,3.9,0,5.9,0.1,10.5c1.7,19.9,14.7,29.8,22.9,34c8.2-4.3,21.3-14.2,22.9-34
		C416,54.8,416,52.8,416,48.9 M375.7,75.2c2.2,0.2,5.1-0.1,7.2-1.1c4.5-1.9,7.4-1.8,9.9,0.1c2.5-2,5.4-2,9.9-0.1
		c2.2,0.9,5.1,1.3,7.4,1.1c-2.9,5.3-6.6,9.3-10.3,12.3c-2.5,2-4.8,3.4-6.9,4.6C387.8,89.3,380.5,84.2,375.7,75.2 M392.7,67.5
		c-3.4-2-6.1-2-9.8,0c-1.8,1-3.8,1.5-5.7,1.5c-1.5,0-3.1-0.4-4.5-0.9c-0.8-2.7-1.4-5.6-1.7-8.8c-0.1-1.5-0.1-2.8-0.1-4
		c3.8,1.9,7.4,2,11.4,0.5c3.9-1.4,7.1-1.8,10.4,1.1c3.4-2.8,6.6-2.5,10.4-1.1c4.1,1.5,7.7,1.3,11.6-0.6c0,1.1-0.1,2.5-0.1,4
		c-0.3,3.2-0.8,6.1-1.6,8.8c-1.5,0.6-3,1-4.6,1c-1.9,0-3.9-0.5-5.7-1.5c-3.7-2-6.4-2-9.8,0l-0.1,0.1 M414.8,48.6c0,0-2.8,2-6,2
		c-6.1,0-6.9-2.9-11.9-2.9c-2.2,0-4,1.6-4,1.6s-1.8-1.6-4-1.6c-5.1,0-5.8,2.9-11.9,2.9c-3.2,0-6-2-6-2v-2.2c0.2,0.1,0.5,0.2,0.8,0.1
		c-0.7-0.4-0.9-1-0.6-1.4c0.2-0.3,0.6-0.7,0.4-1.2c0.9,0.1,0.5,0.8,1.5,1.2c0.6,0.2,1.5-0.1,1.8-0.8c-0.6,0.4-1.3,0.3-1.5-0.2
		c-0.1-0.4-0.3-0.9-0.8-1c0.6-0.7,1,0,1.8-0.6c0.5-0.4,0.7-1.3,0.2-1.9c0,0.8-0.4,1.3-0.9,1.2c-0.4,0-1-0.1-1.3,0.3
		c-0.4-0.8,0.5-0.8,0.4-1.9c-0.1-0.6-0.8-1.3-1.5-1.1c0.7,0.4,0.9,1,0.6,1.4c-0.2,0.3-0.6,0.7-0.4,1.2c-0.1-0.1-0.3-0.1-0.3-0.1
		v-3.8h43.9v1.5c-0.3-0.1-0.6-0.2-0.8-0.2c0.7,0.3,0.9,1,0.6,1.4c-0.2,0.3-0.6,0.7-0.4,1.2c-0.9-0.1-0.5-0.8-1.5-1.2
		c-0.6-0.2-1.5,0.1-1.8,0.8c0.6-0.4,1.3-0.3,1.5,0.2c0.1,0.4,0.3,0.9,0.8,1c-0.6,0.7-1,0-1.8,0.6c-0.5,0.4-0.7,1.3-0.2,1.9
		c0-0.8,0.4-1.3,0.9-1.2c0.4,0.1,0.9,0.2,1.3-0.2c0.4,0.8-0.5,0.8-0.4,1.9c0.1,0.6,0.8,1.3,1.5,1.1c-0.7-0.4-0.9-1-0.6-1.4
		c0.2-0.3,0.6-0.7,0.4-1.2c0.1,0,0.3,0.1,0.4,0.1L414.8,48.6L414.8,48.6z M404.5,43.2c0.6-0.7,1,0,1.8-0.6c0.5-0.4,0.7-1.3,0.2-1.9
		c0,0.8-0.4,1.3-0.9,1.2c-0.4-0.1-0.9-0.2-1.3,0.2c-0.4-0.8,0.5-0.8,0.4-1.9c-0.1-0.6-0.8-1.3-1.5-1.1c0.7,0.4,0.9,1,0.6,1.4
		c-0.2,0.3-0.6,0.7-0.4,1.2c-0.8-0.1-0.4-0.8-1.4-1.3c-0.6-0.2-1.5,0.1-1.8,0.8c0.6-0.4,1.3-0.3,1.5,0.2c0.1,0.4,0.3,0.9,0.8,1
		c-0.6,0.7-1,0-1.8,0.6c-0.5,0.4-0.7,1.3-0.2,1.9c0-0.8,0.4-1.3,0.9-1.2c0.4,0.1,0.9,0.2,1.3-0.2c0.4,0.8-0.5,0.8-0.4,1.9
		c0.1,0.6,0.8,1.3,1.5,1.1c-0.7-0.4-0.9-1-0.6-1.4c0.2-0.3,0.6-0.7,0.4-1.2c0.9,0.1,0.5,0.8,1.5,1.2c0.6,0.2,1.5-0.1,1.8-0.8
		c-0.6,0.4-1.3,0.3-1.5-0.2C405.2,43.9,405.1,43.3,404.5,43.2 M394,43.2c0.6-0.7,1,0,1.8-0.6c0.5-0.4,0.7-1.3,0.2-1.9
		c0,0.8-0.4,1.3-0.9,1.2c-0.4-0.1-0.9-0.2-1.3,0.2c-0.4-0.8,0.5-0.8,0.4-1.9c-0.1-0.6-0.8-1.3-1.5-1.1c0.7,0.4,0.9,1,0.6,1.4
		c-0.2,0.3-0.6,0.7-0.4,1.2c-0.8-0.1-0.4-0.8-1.4-1.3c-0.6-0.2-1.5,0.1-1.8,0.8c0.6-0.4,1.3-0.3,1.5,0.2c0.1,0.4,0.3,0.9,0.8,1
		c-0.6,0.7-1,0-1.8,0.6c-0.5,0.4-0.7,1.3-0.2,1.9c0-0.8,0.4-1.3,0.9-1.2c0.4,0.1,0.9,0.2,1.3-0.2c0.4,0.8-0.5,0.8-0.4,1.9
		c0.1,0.6,0.8,1.3,1.5,1.1c-0.7-0.4-0.9-1-0.6-1.4c0.2-0.3,0.6-0.7,0.4-1.2c0.9,0.1,0.5,0.8,1.5,1.2c0.6,0.2,1.5-0.1,1.8-0.8
		c-0.6,0.4-1.3,0.3-1.5-0.2C394.7,43.9,394.6,43.3,394,43.2 M383.9,43.2c0.6-0.7,1,0,1.8-0.6c0.5-0.4,0.7-1.3,0.2-1.9
		c0,0.8-0.4,1.3-0.9,1.2c-0.3-0.1-0.9-0.2-1.3,0.2c-0.3-0.8,0.5-0.8,0.4-1.9c-0.1-0.6-0.8-1.3-1.5-1.1c0.7,0.4,0.9,1,0.6,1.4
		c-0.2,0.3-0.6,0.7-0.4,1.2c-0.8-0.1-0.4-0.8-1.4-1.3c-0.6-0.2-1.5,0.1-1.8,0.8c0.6-0.4,1.3-0.3,1.5,0.2c0.1,0.4,0.3,0.9,0.8,1
		c-0.6,0.7-1,0-1.8,0.6c-0.5,0.4-0.7,1.3-0.2,1.9c0-0.8,0.4-1.3,0.9-1.2c0.4,0.1,0.9,0.2,1.3-0.2c0.4,0.8-0.5,0.8-0.4,1.9
		c0.1,0.6,0.8,1.3,1.5,1.1c-0.7-0.4-0.9-1-0.6-1.4c0.2-0.3,0.6-0.7,0.4-1.2c0.9,0.1,0.5,0.8,1.5,1.2c0.6,0.2,1.5-0.1,1.8-0.8
		c-0.6,0.4-1.3,0.3-1.5-0.2C384.5,43.9,384.4,43.3,383.9,43.2 M378.4,60.2c0,0-0.8,0.7-1.5,1.3c-0.1,0.1-1.3,1-0.8,1.9
		c0.3,0.5,0.7,0.5,0.7,0.5s0.2,0.8,1,0.9c0.3,0.1,0.6-0.1,0.6-0.1s0.2,0.6,1,0.6c0.2,0,0.4-0.1,0.5-0.1c0.4-0.1,0.5-0.5,0.5-0.5
		s0.2,0.2,0.6,0.1c0.8-0.1,1-0.9,1-0.9s0.4,0,0.7-0.5c0.6-0.9-0.6-1.8-0.8-1.9c-0.7-0.6-1.5-1.3-1.5-1.3l0.9-0.8
		c0.1-0.1,0.1-0.1,0.1-0.3c0-0.1-0.1-0.1-0.2-0.1H380c-0.1-0.2-0.4-0.4-0.6-0.4c-0.3,0-0.5,0.1-0.6,0.4h-1.1c-0.1,0-0.1,0.1-0.2,0.1
		c0,0.1,0,0.2,0.1,0.3L378.4,60.2z M389.6,63.5c0.3,0.5,0.7,0.5,0.7,0.5s0.2,0.8,1,0.9c0.4,0.1,0.6-0.1,0.6-0.1s0.2,0.6,1,0.6
		c0.2,0,0.4-0.1,0.5-0.1c0.4-0.1,0.5-0.5,0.5-0.5s0.2,0.2,0.6,0.1c0.8-0.1,1-0.9,1-0.9s0.4,0,0.7-0.5c0.6-0.9-0.6-1.8-0.8-1.9
		c-0.7-0.6-1.5-1.3-1.5-1.3l0.9-0.8c0.1-0.1,0.1-0.1,0.1-0.3c0-0.1-0.1-0.1-0.2-0.1h-1.2c-0.1-0.2-0.4-0.4-0.6-0.4
		c-0.3,0-0.5,0.1-0.6,0.4h-1.1c-0.1,0-0.1,0.1-0.2,0.1c0,0.1,0,0.2,0.1,0.3l0.9,0.8c0,0-0.8,0.7-1.5,1.3
		C390.2,61.7,389,62.5,389.6,63.5 M403,63.5c0.3,0.5,0.7,0.5,0.7,0.5s0.2,0.8,1,0.9c0.4,0.1,0.6-0.1,0.6-0.1s0.2,0.6,1,0.6
		c0.2,0,0.4-0.1,0.5-0.1c0.4-0.1,0.5-0.5,0.5-0.5s0.2,0.2,0.6,0.1c0.8-0.1,1-0.9,1-0.9s0.4,0,0.7-0.5c0.6-0.9-0.6-1.8-0.8-1.9
		c-0.7-0.6-1.5-1.3-1.5-1.3l0.9-0.8c0.1-0.1,0.1-0.1,0.1-0.3c0-0.1-0.1-0.1-0.2-0.1h-1.2c-0.1-0.2-0.4-0.4-0.6-0.4
		c-0.2,0-0.5,0.1-0.6,0.4h-1.1c-0.1,0-0.1,0.1-0.2,0.1c0,0.1,0,0.2,0.1,0.3l0.9,0.8c0,0-0.8,0.7-1.5,1.3
		C403.7,61.7,402.5,62.5,403,63.5 M385.6,78c-0.6,0.7-1,0-1.8,0.6c-0.5,0.4-0.7,1.3-0.2,1.9c0-0.8,0.4-1.3,0.9-1.2
		c0.4,0.1,0.9,0.2,1.3-0.2c0.4,0.8-0.5,0.8-0.4,1.9c0.1,0.6,0.8,1.3,1.5,1.1c-0.7-0.4-0.9-1-0.6-1.4c0.2-0.3,0.6-0.7,0.4-1.2
		c0.9,0.1,0.5,0.8,1.5,1.2c0.6,0.2,1.5-0.1,1.8-0.8c-0.6,0.4-1.3,0.3-1.5-0.2c-0.1-0.4-0.3-0.9-0.8-1c0.6-0.7,1,0,1.8-0.6
		c0.5-0.4,0.7-1.3,0.2-1.9c0,0.8-0.4,1.3-0.9,1.2c-0.4-0.1-0.9-0.2-1.3,0.2c-0.4-0.8,0.5-0.8,0.4-1.9c-0.1-0.6-0.8-1.3-1.5-1.1
		c0.7,0.4,0.9,1,0.6,1.4c-0.2,0.3-0.6,0.7-0.4,1.2c-0.9-0.1-0.5-0.8-1.5-1.2c-0.6-0.2-1.5,0.1-1.8,0.8c0.6-0.4,1.3-0.3,1.5,0.2
		C385,77.3,385.1,77.9,385.6,78 M391.8,85.6c-0.6,0.7-1,0-1.8,0.6c-0.5,0.4-0.7,1.3-0.2,1.9c0-0.8,0.4-1.3,0.9-1.2
		c0.4,0.1,0.9,0.2,1.3-0.2c0.4,0.8-0.5,0.8-0.4,1.9c0.1,0.6,0.8,1.3,1.5,1.1c-0.7-0.4-0.9-1-0.6-1.4c0.2-0.3,0.6-0.7,0.4-1.2
		c0.9,0.1,0.5,0.8,1.5,1.2c0.6,0.2,1.5-0.1,1.8-0.8c-0.6,0.4-1.3,0.3-1.5-0.2c-0.1-0.4-0.3-0.9-0.8-1c0.6-0.7,1,0,1.8-0.6
		c0.5-0.4,0.7-1.3,0.2-1.9c0,0.8-0.4,1.3-0.9,1.2c-0.4-0.1-0.9-0.2-1.3,0.2c-0.4-0.8,0.5-0.8,0.4-1.9c-0.1-0.6-0.8-1.3-1.5-1.1
		c0.7,0.4,0.9,1,0.6,1.4c-0.2,0.3-0.6,0.7-0.4,1.2c-0.9-0.1-0.5-0.8-1.5-1.2c-0.7-0.2-1.5,0.1-1.8,0.8c0.6-0.4,1.3-0.3,1.5,0.2
		C391.1,84.9,391.3,85.5,391.8,85.6 M395.9,80.6c0-0.8,0.4-1.3,0.9-1.2c0.4,0.1,0.9,0.2,1.3-0.2c0.4,0.8-0.5,0.8-0.4,1.9
		c0.1,0.6,0.8,1.3,1.5,1.1c-0.7-0.4-0.9-1-0.6-1.4c0.2-0.3,0.6-0.7,0.4-1.2c0.9,0.1,0.5,0.8,1.5,1.2c0.6,0.2,1.5-0.1,1.8-0.8
		c-0.6,0.4-1.3,0.3-1.5-0.2c-0.1-0.4-0.4-0.9-0.8-1c0.6-0.7,1,0,1.8-0.6c0.5-0.4,0.7-1.3,0.2-1.9c0,0.8-0.4,1.3-0.9,1.2
		c-0.4-0.1-0.9-0.2-1.3,0.2c-0.4-0.8,0.5-0.8,0.4-1.9c-0.1-0.6-0.8-1.3-1.5-1.1c0.7,0.4,0.9,1,0.6,1.4c-0.2,0.3-0.6,0.7-0.4,1.2
		c-0.9-0.1-0.5-0.8-1.5-1.2c-0.6-0.2-1.5,0.1-1.8,0.8c0.6-0.4,1.3-0.3,1.5,0.2c0.1,0.4,0.3,0.9,0.8,1c-0.6,0.7-1,0-1.8,0.6
		C395.6,79,395.5,79.9,395.9,80.6"/>
</g>
</svg>
