<?xml version="1.0" encoding="utf-8"?>
<!-- Generator: Adobe Illustrator 28.3.0, SVG Export Plug-In . SVG Version: 6.00 Build 0)  -->
<svg version="1.1" id="Layer_1" xmlns="http://www.w3.org/2000/svg" xmlns:xlink="http://www.w3.org/1999/xlink" x="0px" y="0px"
	 viewBox="0 0 660 130" style="enable-background:new 0 0 660 130;" xml:space="preserve">
<style type="text/css">
	.st0{clip-path:url(#SVGID_00000145751857685468150600000016064340582076459924_);fill:#00A1B1;}
	.st1{clip-path:url(#SVGID_00000145751857685468150600000016064340582076459924_);fill:#FFFFFF;}
</style>
<g>
	<defs>
		<rect id="SVGID_1_" width="660" height="130"/>
	</defs>
	<clipPath id="SVGID_00000011720981725223208750000013137908524717705103_">
		<use xlink:href="#SVGID_1_"  style="overflow:visible;"/>
	</clipPath>
	<path style="clip-path:url(#SVGID_00000011720981725223208750000013137908524717705103_);fill:#00A0B0;" d="M196.8,94.7
		c8.1,0,14.3-6,14.3-14c0-8-6.1-14-14.3-14h-56.9c0,21.3,10.5,28,21.3,28 M204.6,80.7c0,4.6-3.4,8.1-8,8.1H192V72.6h4.6
		C201.2,72.6,204.6,76.1,204.6,80.7 M230,84.3c0,2.9-2.1,5.1-5.1,5.1c-2.9,0-5-2.2-5-5.1c0-2.9,2.1-5.1,5-5.1
		C227.8,79.2,230,81.4,230,84.3 M236.3,94.7h1.7v-5.7h-0.4c-1.1,0-1.7-0.6-1.7-1.7V74H230v2.1c-1.6-1.6-3.7-2.6-6.2-2.6
		c-5.7,0-10,4.7-10,10.8c0,6.2,4.3,10.8,10,10.8c2.9,0,5.3-1.3,6.9-3.3C231.6,93.7,233.5,94.7,236.3,94.7 M260.3,93.4V74h-5.9v10.5
		c0,2.3-1.6,3.9-4,3.9c-2.2,0-3.7-1.5-3.7-3.8V74h-5.9v12.3c0,4.7,3,7.8,7.6,7.8c2.4,0,4.5-0.9,6-2.5v2.1c0,2.5-1.6,4-3.8,4
		c-1.6,0-3-0.8-3.6-2.1h-6.1c1.1,4.5,4.7,7.3,9.7,7.3C256.3,102.8,260.3,99.1,260.3,93.4"/>
	<path style="clip-path:url(#SVGID_00000011720981725223208750000013137908524717705103_);fill:#FFFFFF;" d="M249.6,55.3
		c-2.9,0-5-2.1-5-4.7c0-2.7,2.1-4.7,5-4.7c2.8,0,5,2,5,4.7C254.5,53.3,252.4,55.3,249.6,55.3 M248.4,60.7c2.5,0,4.6-0.9,6.1-2.4v1
		c0,3.1-1.8,4.9-4.6,4.9c-2,0-3.7-0.9-4.2-2.3h-6c0.8,4.5,4.9,7.3,10.2,7.3c6.3,0,10.4-4,10.4-10.2V41h-5.8v1.9
		c-1.5-1.5-3.7-2.4-6.1-2.4c-5.6,0-9.8,4.3-9.8,10.1C238.7,56.3,242.8,60.7,248.4,60.7 M215.2,61.3h5.8v-11c0-2.5,1.7-4.1,4.2-4.1
		c2.3,0,3.9,1.6,3.9,4v5.1c0,3.9,2.1,6,6.2,6h1.6v-5.6h-0.4c-1,0-1.6-0.6-1.6-1.6v-5.8c0-4.6-3.1-7.7-7.7-7.7
		c-2.5,0-4.6,0.8-6.2,2.5v-2h-5.8V61.3z M204.8,61.3h5.8V41h-5.8V61.3z M207.6,38.5c2.1,0,3.6-1.5,3.6-3.6c0-2-1.5-3.5-3.6-3.5
		c-2,0-3.6,1.5-3.6,3.5C204.1,37,205.6,38.5,207.6,38.5 M189.4,61.3h6l4.7-11.4c1.5-3.6,1.9-6.5,1.5-8.8h-6c0.4,2.1-0.1,4.5-1.2,7.6
		l-2,5.3L187.8,41h-6.6L189.4,61.3z M172.9,61.3h5.8V41h-5.8V61.3z M175.8,38.5c2.1,0,3.6-1.5,3.6-3.6c0-2-1.5-3.5-3.6-3.5
		c-2,0-3.6,1.5-3.6,3.5C172.2,37,173.8,38.5,175.8,38.5 M154.3,61.7c3.9,0,6.9-1.4,8.7-4v3.6h5.2V45.6h-13.1v5.6h6.4
		c-1.1,2.8-3.8,4.7-7.2,4.7c-4.6,0-8.2-3.5-8.2-8.3c0-4.7,3.5-8.3,8.2-8.3c2.9,0,5.2,1.3,6.6,3.3h6.9c-1.5-5.4-6.9-9.2-13.5-9.2
		c-8.3,0-14.5,6.1-14.5,14.2S146.1,61.7,154.3,61.7"/>
	<path style="clip-path:url(#SVGID_00000011720981725223208750000013137908524717705103_);fill:#FFFFFF;" d="M183.7,76.9h0.6v-4.4
		h-0.4c-0.3,0.4-0.7,0.6-1.2,0.6v0.5c0.4,0,0.7-0.2,1-0.4V76.9z M179.3,76.9h2.9v-0.5h-2.3c0.2-0.9,2.3-1.1,2.3-2.6
		c0-0.8-0.6-1.3-1.4-1.3c-0.8,0-1.4,0.6-1.4,1.3h0.6c0-0.4,0.3-0.8,0.8-0.8c0.5,0,0.8,0.3,0.8,0.8c0,1.1-2.3,1.3-2.3,2.6V76.9z
		 M177,75.4h1.8v-0.5H177V75.4z M174.5,76.4c-0.6,0-1.1-0.7-1.1-1.7s0.5-1.7,1.1-1.7c0.6,0,1.1,0.7,1.1,1.7S175.2,76.4,174.5,76.4
		 M174.5,76.9c1,0,1.7-0.9,1.7-2.3s-0.7-2.3-1.7-2.3c-1,0-1.7,0.9-1.7,2.3S173.5,76.9,174.5,76.9 M169.3,76.9h2.9v-0.5h-2.3
		c0.2-0.9,2.3-1.1,2.3-2.6c0-0.8-0.6-1.3-1.4-1.3c-0.8,0-1.4,0.6-1.4,1.3h0.6c0-0.4,0.3-0.8,0.8-0.8c0.5,0,0.8,0.3,0.8,0.8
		c0,1.1-2.3,1.3-2.3,2.6V76.9z M163.9,76.9h0.5V75c0-0.6,0.4-1,1-1c0.6,0,1,0.4,1,1v1.1c0,0.5,0.3,0.7,0.8,0.7h0.2v-0.5h-0.1
		c-0.2,0-0.3-0.1-0.3-0.3v-1.2c0-0.8-0.5-1.3-1.3-1.3c-0.5,0-0.9,0.2-1.2,0.6v-1.9h-0.5V76.9z M161.5,76.9c0.8,0,1.5-0.5,1.6-1.3
		h-0.6c-0.1,0.4-0.5,0.7-1,0.7c-0.7,0-1.2-0.5-1.2-1.2c0-0.7,0.5-1.2,1.2-1.2c0.5,0,0.9,0.3,1,0.7h0.6c-0.1-0.7-0.8-1.3-1.6-1.3
		c-1,0-1.7,0.7-1.7,1.7C159.8,76.2,160.5,76.9,161.5,76.9 M156,76.9h0.5l0.5-2.7l1.5,0.2c-0.3,0.5-0.4,0.9-0.4,1.3
		c0,0.7,0.4,1.2,1.2,1.2h0.2v-0.5h-0.1c-0.4,0-0.6-0.3-0.6-0.7c0-0.4,0.2-1,0.6-1.5v-0.1l-2.2-0.3c0-0.2-0.2-0.4-0.4-0.4
		c-0.2,0-0.4,0.2-0.4,0.4c0,0.2,0.1,0.3,0.3,0.4L156,76.9z M153.5,76.4c-0.7,0-1.2-0.5-1.2-1.2c0-0.7,0.5-1.2,1.2-1.2
		c0.7,0,1.2,0.5,1.2,1.2C154.7,75.9,154.2,76.4,153.5,76.4 M153.4,76.9c0.5,0,1-0.3,1.3-0.7c0.1,0.4,0.3,0.6,0.8,0.6h0.2v-0.5h-0.1
		c-0.2,0-0.3-0.1-0.3-0.3v-2.4h-0.5v0.6c-0.3-0.4-0.7-0.7-1.3-0.7c-0.9,0-1.6,0.7-1.6,1.7C151.8,76.2,152.5,76.9,153.4,76.9
		 M146.3,76.9h0.6v-3.4l1.5,3.4h0.4l1.5-3.4v3.4h0.6v-4.4h-0.8l-1.6,3.5l-1.6-3.5h-0.8V76.9z"/>
	<path style="clip-path:url(#SVGID_00000011720981725223208750000013137908524717705103_);fill:#FFFFFF;" d="M177.7,86.8h4.4v2h1.2
		v-2h1.2v-1.1h-1.2v-2.5h-1.1v2.5h-2.9c1.5-2,2.3-3.9,2.5-5.7h-1.2c-0.2,1.9-1.2,3.9-2.8,5.9V86.8z M171,88.7h5.8v-1.1h-4.7
		c0.4-1.9,4.6-2.2,4.6-5.2c0-1.6-1.2-2.7-2.8-2.7c-1.6,0-2.8,1.1-2.8,2.7h1.2c0-0.9,0.7-1.5,1.6-1.5c0.9,0,1.6,0.6,1.6,1.6
		c0,2.3-4.5,2.5-4.5,5.3V88.7z M166.4,87.8c-1.3,0-2.2-1.4-2.2-3.4s0.9-3.4,2.2-3.4c1.3,0,2.2,1.4,2.2,3.4S167.6,87.8,166.4,87.8
		 M166.4,88.9c2,0,3.4-1.9,3.4-4.6c0-2.7-1.4-4.6-3.4-4.6c-2,0-3.4,1.9-3.4,4.6C162.9,87,164.3,88.9,166.4,88.9 M155.9,88.7h5.8
		v-1.1H157c0.4-1.9,4.6-2.2,4.6-5.2c0-1.6-1.2-2.7-2.8-2.7c-1.6,0-2.8,1.1-2.8,2.7h1.2c0-0.9,0.7-1.5,1.6-1.5c0.9,0,1.6,0.6,1.6,1.6
		c0,2.3-4.5,2.5-4.5,5.3V88.7z"/>
	<path style="clip-path:url(#SVGID_00000011720981725223208750000013137908524717705103_);fill:#FFFFFF;" d="M485.9,30.5V19.3h-42.5
		v11.2c0,3.6,0,5.4,0.1,9.7c1.6,18.4,13.5,27.4,21.2,31.4c7.6-3.9,19.6-13.1,21.2-31.4C485.9,36,485.9,34.2,485.9,30.5 M448.7,54.9
		c2.1,0.2,4.7-0.1,6.7-1c4.1-1.7,6.9-1.7,9.1,0.1c2.3-1.8,5-1.9,9.1-0.1c2.1,0.8,4.7,1.2,6.8,1c-2.7,4.9-6.1,8.6-9.5,11.3
		c-2.3,1.8-4.5,3.2-6.4,4.2C459.9,67.9,453.1,63.1,448.7,54.9 M464.4,47.8c-3.2-1.8-5.6-1.8-9,0c-1.7,0.9-3.5,1.4-5.2,1.4
		c-1.4,0-2.8-0.3-4.1-0.8c-0.8-2.5-1.3-5.2-1.6-8.2c-0.1-1.4-0.1-2.6-0.1-3.7c3.5,1.7,6.9,1.9,10.5,0.5c3.6-1.3,6.5-1.6,9.6,1
		c3.1-2.6,6.1-2.3,9.6-1c3.8,1.4,7.1,1.2,10.7-0.5c0,1-0.1,2.3-0.1,3.7c-0.3,2.9-0.8,5.6-1.5,8.1c-1.4,0.6-2.8,0.9-4.2,0.9
		c-1.7,0-3.6-0.5-5.2-1.4c-3.4-1.8-5.9-1.8-9,0l-0.1,0.1 M484.8,30.3c0,0-2.6,1.8-5.5,1.8c-5.6,0-6.3-2.7-11-2.7
		c-2,0-3.7,1.5-3.7,1.5s-1.7-1.5-3.7-1.5c-4.7,0-5.4,2.7-11,2.7c-2.9,0-5.5-1.8-5.5-1.8v-2c0.2,0.1,0.5,0.2,0.7,0.1
		c-0.6-0.3-0.8-0.9-0.5-1.3c0.2-0.3,0.6-0.6,0.4-1.1c0.8,0.1,0.5,0.8,1.4,1.1c0.6,0.2,1.4-0.1,1.6-0.7c-0.6,0.4-1.2,0.3-1.4-0.2
		c-0.1-0.3-0.3-0.8-0.7-0.9c0.5-0.6,0.9,0,1.6-0.6c0.5-0.4,0.6-1.2,0.2-1.7c0,0.7-0.4,1.2-0.8,1.1c-0.4,0-0.9-0.1-1.2,0.3
		c-0.3-0.8,0.5-0.8,0.3-1.7c-0.1-0.6-0.7-1.2-1.4-1c0.6,0.3,0.8,0.9,0.5,1.3c-0.2,0.3-0.6,0.6-0.4,1.1c-0.1-0.1-0.3-0.1-0.3-0.1
		v-3.5h40.4v1.4c-0.3-0.1-0.5-0.2-0.8-0.2c0.6,0.3,0.8,0.9,0.5,1.3c-0.2,0.3-0.6,0.6-0.4,1.1c-0.8-0.1-0.5-0.7-1.4-1.1
		c-0.6-0.2-1.4,0.1-1.6,0.7c0.6-0.4,1.2-0.3,1.4,0.2c0.1,0.3,0.3,0.8,0.7,0.9c-0.5,0.6-0.9,0-1.6,0.6c-0.5,0.4-0.6,1.2-0.2,1.7
		c0-0.7,0.4-1.2,0.8-1.1c0.3,0.1,0.8,0.2,1.2-0.2c0.3,0.8-0.5,0.8-0.3,1.7c0.1,0.6,0.7,1.2,1.4,1c-0.6-0.3-0.8-0.9-0.5-1.3
		c0.2-0.3,0.6-0.6,0.4-1.1c0.1,0,0.3,0.1,0.3,0.1L484.8,30.3L484.8,30.3z M475.3,25.4c0.5-0.6,0.9,0,1.6-0.6
		c0.5-0.4,0.6-1.2,0.2-1.7c0,0.7-0.4,1.2-0.8,1.1c-0.3-0.1-0.8-0.2-1.2,0.2c-0.3-0.8,0.5-0.8,0.3-1.7c-0.1-0.6-0.7-1.2-1.4-1
		c0.6,0.3,0.8,0.9,0.5,1.3c-0.2,0.3-0.6,0.6-0.4,1.1c-0.8-0.1-0.4-0.8-1.3-1.2c-0.6-0.2-1.4,0.1-1.6,0.7c0.6-0.4,1.2-0.3,1.4,0.2
		c0.1,0.3,0.3,0.8,0.7,0.9c-0.5,0.6-0.9,0-1.6,0.6c-0.5,0.4-0.6,1.2-0.2,1.7c0-0.7,0.4-1.2,0.8-1.1c0.3,0.1,0.8,0.2,1.2-0.2
		c0.3,0.8-0.5,0.8-0.3,1.7c0.1,0.6,0.7,1.2,1.4,1c-0.6-0.3-0.8-0.9-0.5-1.3c0.2-0.3,0.6-0.6,0.4-1.1c0.8,0.1,0.5,0.8,1.4,1.1
		c0.6,0.2,1.4-0.1,1.6-0.7c-0.6,0.4-1.2,0.3-1.4-0.2C476,25.9,475.8,25.4,475.3,25.4 M465.6,25.4c0.5-0.6,0.9,0,1.6-0.6
		c0.5-0.4,0.6-1.2,0.2-1.7c0,0.7-0.4,1.2-0.8,1.1c-0.3-0.1-0.8-0.2-1.2,0.2c-0.3-0.8,0.5-0.8,0.3-1.7c-0.1-0.6-0.7-1.2-1.4-1
		c0.6,0.3,0.8,0.9,0.5,1.3c-0.2,0.3-0.6,0.6-0.4,1.1c-0.8-0.1-0.4-0.8-1.3-1.2c-0.6-0.2-1.4,0.1-1.6,0.7c0.6-0.4,1.2-0.3,1.4,0.2
		c0.1,0.3,0.3,0.8,0.7,0.9c-0.5,0.6-0.9,0-1.6,0.6c-0.5,0.4-0.6,1.2-0.2,1.7c0-0.7,0.4-1.2,0.8-1.1c0.3,0.1,0.8,0.2,1.2-0.2
		c0.3,0.8-0.5,0.8-0.3,1.7c0.1,0.6,0.7,1.2,1.4,1c-0.6-0.3-0.8-0.9-0.5-1.3c0.2-0.3,0.6-0.6,0.4-1.1c0.8,0.1,0.5,0.8,1.4,1.1
		c0.6,0.2,1.4-0.1,1.6-0.7c-0.6,0.4-1.2,0.3-1.4-0.2C466.3,25.9,466.1,25.4,465.6,25.4 M456.3,25.4c0.5-0.6,0.9,0,1.6-0.6
		c0.5-0.4,0.6-1.2,0.2-1.7c0,0.7-0.4,1.2-0.8,1.1c-0.3-0.1-0.8-0.2-1.2,0.2c-0.3-0.8,0.5-0.8,0.3-1.7c-0.1-0.6-0.7-1.2-1.4-1
		c0.6,0.3,0.8,0.9,0.5,1.3c-0.2,0.3-0.6,0.6-0.4,1.1c-0.8-0.1-0.4-0.8-1.3-1.2c-0.6-0.2-1.4,0.1-1.6,0.7c0.6-0.4,1.2-0.3,1.4,0.2
		c0.1,0.3,0.3,0.8,0.8,0.9c-0.5,0.6-0.9,0-1.6,0.6c-0.5,0.4-0.6,1.2-0.2,1.7c0-0.7,0.4-1.2,0.8-1.1c0.3,0.1,0.8,0.2,1.2-0.2
		c0.3,0.8-0.5,0.8-0.3,1.7c0.1,0.6,0.7,1.2,1.4,1c-0.6-0.3-0.8-0.9-0.5-1.3c0.2-0.3,0.6-0.6,0.4-1.1c0.8,0.1,0.5,0.8,1.4,1.1
		c0.6,0.2,1.4-0.1,1.6-0.7c-0.6,0.4-1.2,0.3-1.4-0.2C456.9,25.9,456.7,25.4,456.3,25.4 M451.2,41c0,0-0.7,0.6-1.4,1.2
		c-0.1,0.1-1.2,0.9-0.7,1.7c0.3,0.5,0.6,0.5,0.6,0.5s0.2,0.7,0.9,0.8c0.3,0.1,0.6-0.1,0.6-0.1s0.2,0.5,0.9,0.5
		c0.2,0,0.3-0.1,0.5-0.1c0.3-0.1,0.5-0.5,0.5-0.5s0.2,0.2,0.6,0.1c0.7-0.1,0.9-0.8,0.9-0.8s0.4,0,0.6-0.5c0.5-0.8-0.6-1.7-0.7-1.7
		c-0.6-0.6-1.4-1.2-1.4-1.2l0.8-0.7c0.1-0.1,0.1-0.1,0.1-0.3c0-0.1-0.1-0.1-0.2-0.1h-1.1c-0.1-0.2-0.3-0.4-0.5-0.4
		c-0.3,0-0.5,0.1-0.5,0.4h-1c-0.1,0-0.1,0.1-0.2,0.1c0,0.1,0,0.2,0.1,0.3L451.2,41z M461.5,44c0.3,0.5,0.6,0.5,0.6,0.5
		s0.2,0.7,0.9,0.8c0.3,0.1,0.6-0.1,0.6-0.1s0.2,0.5,0.9,0.5c0.2,0,0.3-0.1,0.5-0.1c0.3-0.1,0.5-0.5,0.5-0.5s0.2,0.2,0.6,0.1
		c0.7-0.1,0.9-0.8,0.9-0.8s0.4,0,0.6-0.5c0.5-0.8-0.6-1.7-0.7-1.7c-0.6-0.6-1.4-1.2-1.4-1.2l0.8-0.7c0.1-0.1,0.1-0.1,0.1-0.3
		c0-0.1-0.1-0.1-0.2-0.1h-1.1c-0.1-0.2-0.3-0.4-0.5-0.4c-0.3,0-0.5,0.1-0.5,0.4h-1c-0.1,0-0.1,0.1-0.2,0.1c0,0.1,0,0.2,0.1,0.3
		l0.8,0.7c0,0-0.7,0.6-1.4,1.2C462.1,42.4,461,43.2,461.5,44 M473.9,44c0.3,0.5,0.6,0.5,0.6,0.5s0.2,0.7,0.9,0.8
		c0.3,0.1,0.6-0.1,0.6-0.1s0.2,0.5,0.9,0.5c0.2,0,0.3-0.1,0.5-0.1c0.4-0.1,0.5-0.5,0.5-0.5s0.2,0.2,0.6,0.1c0.7-0.1,0.9-0.8,0.9-0.8
		s0.4,0,0.6-0.5c0.5-0.8-0.6-1.7-0.7-1.7c-0.6-0.6-1.4-1.2-1.4-1.2l0.8-0.7c0.1-0.1,0.1-0.1,0.1-0.3c0-0.1-0.1-0.1-0.2-0.1h-1.1
		c-0.1-0.2-0.3-0.4-0.5-0.4s-0.5,0.1-0.5,0.4h-1c-0.1,0-0.1,0.1-0.2,0.1c0,0.1,0,0.2,0.1,0.3l0.8,0.7c0,0-0.7,0.6-1.4,1.2
		C474.5,42.4,473.4,43.2,473.9,44 M457.8,57.4c-0.5,0.6-0.9,0-1.6,0.6c-0.5,0.4-0.6,1.2-0.2,1.7c0-0.7,0.4-1.2,0.8-1.1
		c0.3,0.1,0.8,0.2,1.2-0.2c0.3,0.8-0.5,0.8-0.3,1.7c0.1,0.6,0.7,1.2,1.4,1c-0.6-0.3-0.8-0.9-0.5-1.3c0.2-0.3,0.6-0.6,0.4-1.1
		c0.8,0.1,0.5,0.8,1.4,1.1c0.6,0.2,1.4-0.1,1.6-0.7c-0.6,0.4-1.2,0.3-1.4-0.2c-0.1-0.3-0.3-0.8-0.7-0.9c0.5-0.6,0.9,0,1.6-0.6
		c0.5-0.4,0.6-1.2,0.2-1.7c0,0.7-0.4,1.2-0.8,1.1c-0.3-0.1-0.8-0.2-1.2,0.2c-0.3-0.8,0.5-0.8,0.3-1.7c-0.1-0.6-0.7-1.2-1.4-1
		c0.6,0.3,0.8,0.9,0.5,1.3c-0.2,0.3-0.6,0.6-0.4,1.1c-0.8-0.1-0.5-0.8-1.4-1.1c-0.6-0.2-1.4,0.1-1.6,0.7c0.6-0.4,1.2-0.3,1.4,0.2
		C457.3,56.8,457.4,57.3,457.8,57.4 M463.6,64.4c-0.5,0.6-0.9,0-1.6,0.6c-0.5,0.4-0.6,1.2-0.2,1.7c0-0.7,0.4-1.2,0.8-1.1
		c0.3,0.1,0.8,0.2,1.2-0.2c0.3,0.8-0.5,0.8-0.3,1.7c0.1,0.6,0.7,1.2,1.4,1c-0.6-0.3-0.8-0.9-0.5-1.3c0.2-0.3,0.6-0.6,0.4-1.1
		c0.8,0.1,0.5,0.8,1.4,1.1c0.6,0.2,1.4-0.1,1.6-0.7c-0.6,0.4-1.2,0.3-1.4-0.2c-0.1-0.3-0.3-0.8-0.7-0.9c0.5-0.6,0.9,0,1.6-0.6
		c0.5-0.4,0.6-1.2,0.2-1.7c0,0.7-0.4,1.2-0.8,1.1c-0.3-0.1-0.8-0.2-1.2,0.2c-0.3-0.8,0.5-0.8,0.3-1.7c-0.1-0.6-0.7-1.2-1.4-1
		c0.6,0.3,0.8,0.9,0.5,1.3c-0.2,0.3-0.6,0.6-0.4,1.1c-0.8-0.1-0.5-0.8-1.4-1.1c-0.6-0.2-1.4,0.1-1.7,0.7c0.6-0.4,1.2-0.3,1.4,0.2
		C463,63.8,463.2,64.3,463.6,64.4 M467.4,59.8c0-0.7,0.4-1.2,0.8-1.1c0.3,0.1,0.8,0.2,1.2-0.2c0.3,0.8-0.5,0.8-0.3,1.7
		c0.1,0.6,0.7,1.2,1.4,1c-0.6-0.3-0.8-0.9-0.5-1.3c0.2-0.3,0.6-0.6,0.4-1.1c0.8,0.1,0.5,0.8,1.4,1.1c0.6,0.2,1.4-0.1,1.6-0.7
		c-0.6,0.4-1.2,0.3-1.4-0.2c-0.1-0.3-0.3-0.8-0.8-0.9c0.5-0.6,0.9,0,1.6-0.6c0.5-0.4,0.6-1.2,0.2-1.7c0,0.7-0.4,1.2-0.8,1.1
		c-0.3-0.1-0.8-0.2-1.2,0.2c-0.3-0.8,0.5-0.8,0.3-1.7c-0.1-0.6-0.7-1.2-1.4-1c0.6,0.3,0.8,0.9,0.5,1.3c-0.2,0.3-0.6,0.6-0.4,1.1
		c-0.8-0.1-0.5-0.8-1.4-1.1c-0.6-0.2-1.4,0.1-1.6,0.7c0.6-0.4,1.2-0.3,1.4,0.2c0.1,0.3,0.3,0.8,0.7,0.9c-0.5,0.6-0.9,0-1.6,0.6
		C467.1,58.4,467,59.2,467.4,59.8"/>
	<path style="clip-path:url(#SVGID_00000011720981725223208750000013137908524717705103_);fill:#FFFFFF;" d="M399.1,93.9
		c-0.1,0-0.1,0.2-0.1,0.5s0,0.4,0.1,0.4c0.2,0,0.5,0.1,1,0.2c0.5,0.1,0.7,0.3,0.8,0.4c0.1,0.4,0.2,1.1,0.2,2v9.5c0,1.2,0,2-0.2,2.3
		c-0.1,0.2-0.3,0.3-0.8,0.4c-0.4,0.1-0.8,0.2-1,0.2c0,0-0.1,0.1-0.1,0.4c0,0.2,0,0.4,0.1,0.5l0.5,0c0.3,0,0.8,0,1.3-0.1
		c0.5,0,1.1,0,1.5,0c0.5,0,1.7,0,3.5,0.2c0-0.1,0-0.2,0-0.4c0-0.3,0-0.4-0.1-0.4c-0.2,0-0.6-0.1-1.1-0.2c-0.5-0.1-0.8-0.3-0.8-0.5
		c-0.1-0.4-0.2-1.1-0.2-2.1v-9c0-1.6,0.1-2.5,0.3-2.6c0.2-0.1,0.8-0.2,1.5-0.2c0.9,0,1.6,0.3,2.1,1c0.5,0.7,0.7,1.5,0.7,2.7
		c0,1-0.2,1.8-0.7,2.5c-0.5,0.7-1.1,1-1.9,1c-0.5,0-1-0.1-1.4-0.2c0,0,0,0-0.1,0.2v0.4c0,0.1,0,0.2,0.1,0.3c0.1,0.2,0.4,0.3,0.7,0.5
		c0.3,0.1,0.7,0.2,1,0.2c1,0,2-0.3,2.8-0.8c0.8-0.5,1.5-1.2,1.9-1.9c0.4-0.8,0.6-1.5,0.6-2.3c0-0.7-0.1-1.2-0.4-1.8s-0.5-1-0.9-1.3
		c-0.4-0.3-0.8-0.6-1.3-0.9c-0.5-0.2-1-0.4-1.5-0.5c-0.5-0.1-1-0.1-1.5-0.1s-1.1,0-1.7,0c-0.6,0-1.2,0-1.7,0
		C402,94,400.9,93.9,399.1,93.9 M416.9,95.3c0-0.1,0.3-0.2,0.7-0.4c0.5-0.1,0.8-0.2,0.9-0.2c0.1,0,0.1-0.1,0.1-0.4
		c0-0.1,0-0.2-0.1-0.4c-2,0.1-3.1,0.2-3.2,0.2c-0.5,0-1.1,0-2-0.1c-0.8,0-1.3-0.1-1.4-0.1c0,0,0,0.2,0,0.5c0,0.2,0,0.4,0.1,0.4
		c0.2,0,0.5,0,0.9,0.2c0.4,0.1,0.6,0.2,0.7,0.4c0.1,0.4,0.2,1.1,0.2,2.1v9.5c0,1.2,0,1.9-0.2,2.3c-0.1,0.2-0.3,0.3-0.7,0.4
		c-0.4,0.1-0.8,0.2-1,0.2c0,0-0.1,0.1-0.1,0.4c0,0.2,0,0.3,0.1,0.4l3.3-0.1c0.8,0,2.3,0,4.4,0c2.1,0,3.5,0.1,4.2,0.1
		c0-0.2,0.1-0.6,0.2-1c0.1-0.4,0.2-0.8,0.3-1c0.1-0.3,0.2-0.7,0.5-1.2c0.2-0.5,0.3-0.9,0.4-1c-0.1-0.1-0.3-0.2-0.7-0.2
		c-0.2,0-0.3,0-0.3,0.2c-0.2,0.6-0.5,1.1-0.8,1.5c-0.3,0.5-0.6,0.8-0.9,0.9c-0.7,0.3-1.7,0.5-3,0.5h-0.9c-1,0-1.6-0.1-1.7-0.3
		c-0.2-0.5-0.2-1.2-0.2-2v-9.5C416.7,96.5,416.8,95.8,416.9,95.3 M429.8,102.8c0.1,0.2,0.2,0.4,0.2,0.5v3.7c0,1-0.1,1.7-0.2,2.2
		c0,0.1-0.3,0.2-0.7,0.4c-0.4,0.2-0.7,0.2-0.9,0.2c0,0-0.1,0.1-0.1,0.4c0,0.2,0,0.3,0.1,0.4c0.2,0,0.7,0,1.5-0.1
		c0.8,0,1.4-0.1,1.8-0.1c0.3,0,0.7,0,1,0c0.3,0,0.8,0,1.2,0.1c0.4,0,0.8,0,1,0.1c0-0.1,0-0.2,0-0.4c0-0.2,0-0.4-0.1-0.4
		c-0.1,0-0.4-0.1-0.8-0.2c-0.4-0.1-0.7-0.3-0.7-0.4c-0.1-0.5-0.2-1.3-0.2-2.3v-3.9c0-0.2,0.6-1.3,1.9-3.4c1.3-2,2.1-3.4,2.6-4.1
		c0.2-0.2,0.5-0.5,1-0.6c0.5-0.2,0.8-0.2,1-0.2c0.1,0,0.1-0.1,0.1-0.4c0-0.1,0-0.2,0-0.4c-0.2,0-0.5,0-0.8,0c-0.3,0-0.6,0-1,0.1
		c-0.3,0-0.7,0-1,0c-0.3,0-1.3,0-3-0.2c0,0.1-0.1,0.2-0.1,0.5s0,0.3,0.1,0.3c0.5,0,0.9,0.1,1.2,0.2c0.3,0.1,0.5,0.3,0.5,0.5
		c0,0.3-0.3,1-1,2.2c-0.7,1.1-1.4,2.3-2.1,3.3c-0.1,0.1-0.2,0.1-0.2,0l-2.7-4.9c-0.2-0.3-0.2-0.5-0.2-0.7c0-0.2,0.2-0.4,0.5-0.5
		c0.3-0.1,0.6-0.2,0.9-0.2c0,0,0.1-0.1,0.1-0.3c0-0.2,0-0.4,0-0.5c-2,0.1-3.2,0.2-3.5,0.2c-1.8,0-2.9,0-3.3,0c0,0.1,0,0.2,0,0.3
		c0,0.2,0,0.2,0.1,0.2c0.2,0,0.4,0,0.7,0.1c0.3,0.1,0.6,0.2,0.8,0.3c0.4,0.2,0.8,0.8,1.3,1.8 M442.7,107.1c0,0.8-0.1,1.4-0.3,1.7
		c-0.1,0.2-0.4,0.5-1,0.7c-0.5,0.2-1,0.2-1.3,0.2c-0.1,0-0.1,0.1-0.1,0.4c0,0.2,0,0.3,0.1,0.4c0.2,0,0.6,0,1.4-0.1
		c0.8,0,1.3-0.1,1.8-0.1c0.1,0,1.2,0,3.2,0.2c0-0.1,0-0.2,0-0.4c0-0.3,0-0.5-0.1-0.5c-0.2,0-0.6-0.1-1.2-0.2c-0.6-0.2-0.9-0.3-1-0.5
		c0-0.2-0.1-0.4-0.1-0.8c0.2-3.3,0.3-7,0.4-11.2l5.6,13.5c0.1,0,0.2,0,0.2,0c0.3,0,0.7-0.3,1-1l4.8-11.7c0-0.1,0.1-0.2,0.1-0.2
		c0.1,0,0.2,0.5,0.3,1.5l0.2,7.6v1.4c0,0.4-0.1,0.7-0.2,0.9c-0.1,0.1-0.3,0.2-0.7,0.4c-0.3,0.1-0.6,0.2-0.8,0.2
		c-0.1,0-0.1,0.2-0.1,0.5c0,0.2,0,0.3,0.1,0.4c0.2,0,0.6,0,1.1-0.1c0.5,0,0.8,0,1.2,0s0.7,0,1,0c0,0,1.1,0,3.1,0.2
		c0-0.1,0-0.2,0-0.4c0-0.3,0-0.5-0.1-0.5c-0.2,0-0.5-0.1-0.8-0.2c-0.4-0.1-0.6-0.2-0.7-0.4c-0.2-0.6-0.4-1.4-0.4-2.3
		c-0.2-5.4-0.3-8.9-0.3-10.4c0-0.7,0.1-1.2,0.3-1.3c0.4-0.2,0.8-0.4,1.2-0.4h0c0.1,0,0.1-0.1,0.1-0.4c0-0.2,0-0.3-0.1-0.4
		c-1.3,0.1-2.3,0.1-3,0.1c-0.9,0-1.5,0-2-0.1l-0.9,2.9c-0.9,2.3-2,5.2-3.5,8.7c0,0,0,0.1-0.1,0.1c0,0-0.1,0-0.1,0
		c-0.5-1.2-1.1-2.7-1.9-4.5c-0.8-1.8-1.4-3.3-2-4.6c-0.5-1.2-0.9-2.1-1-2.6c-1.5,0.1-2.4,0.2-2.5,0.2c-0.4,0-1,0-1.6-0.1
		c-0.6,0-1-0.1-1.3-0.1c-0.1,0.1-0.1,0.2-0.1,0.4c0,0.3,0,0.4,0.1,0.4c0.2,0,0.6,0,1.1,0.2c0.5,0.1,0.8,0.2,0.8,0.4
		c0,0.2,0.1,0.4,0.1,0.7c0,0.3,0,1-0.1,2.3 M473,96.2c0.8,0.8,1.4,1.8,1.8,2.9c0.3,1.1,0.5,2.3,0.5,3.6c0,1.8-0.4,3.4-1.2,4.8
		c-0.8,1.3-1.9,2-3.3,2c-1.2,0-2.1-0.4-3-1.2c-0.8-0.8-1.4-1.8-1.8-3c-0.3-1.1-0.5-2.3-0.5-3.6c0-1.9,0.4-3.5,1.1-4.8
		c0.8-1.3,1.9-2,3.3-2C471.2,95,472.2,95.4,473,96.2 M470.4,110.7c2.2,0,4.1-0.8,5.7-2.5c1.6-1.7,2.4-3.7,2.4-6s-0.8-4.3-2.4-6
		c-1.6-1.7-3.5-2.5-5.7-2.5c-2.2,0-4.1,0.8-5.7,2.5c-1.6,1.7-2.4,3.7-2.4,6s0.8,4.3,2.4,6C466.2,109.9,468.2,110.7,470.4,110.7
		 M479.1,93.8c0,0-0.1,0.2-0.1,0.5s0,0.4,0.1,0.4c0.2,0,0.5,0,0.9,0.2c0.4,0.1,0.6,0.2,0.7,0.4c0.1,0.3,0.2,1,0.2,2.1v5.5
		c0,2.7,0.6,4.6,1.8,5.9c1.2,1.2,2.8,1.8,4.8,1.8c1,0,1.8-0.1,2.5-0.4c0.8-0.2,1.4-0.7,2-1.2c0.6-0.5,1-1.3,1.3-2.3
		c0.3-1,0.5-2.1,0.5-3.4v-5.9c0-1,0.1-1.7,0.3-2.1c0.2-0.2,0.5-0.4,1-0.5c0.5-0.1,0.8-0.2,1.1-0.2c0.1,0,0.1-0.1,0.1-0.4
		c0-0.2,0-0.3,0-0.4c-0.2,0-0.6,0-1.3,0.1c-0.7,0-1.2,0.1-1.7,0.1c-0.3,0-1.3,0-3.2-0.2c0,0.1-0.1,0.2,0,0.5c0,0.2,0,0.3,0.1,0.3
		c0.2,0,0.6,0.1,1.1,0.2s0.8,0.3,0.9,0.5c0.2,0.3,0.3,1,0.3,2v6.1c0,2-0.4,3.4-1.2,4.2c-0.8,0.8-1.8,1.3-3.1,1.3
		c-1.3,0-2.3-0.5-3.1-1.5c-0.8-1-1.1-2.4-1.1-4.1v-5.7c0-1,0.1-1.7,0.2-2.2c0-0.1,0.2-0.2,0.7-0.4c0.5-0.1,0.8-0.2,0.9-0.2
		c0.1,0,0.1-0.1,0.1-0.4c0-0.1,0-0.2,0-0.4c-1.8,0.1-2.9,0.2-3.2,0.2C482.3,94,481.2,94,479.1,93.8 M499.5,93.8
		c-0.4,0-1-0.1-1.8-0.2l-0.5,3.8c0.1,0.1,0.3,0.2,0.7,0.2c0.2,0,0.2,0,0.2-0.2c0.2-0.9,0.6-1.5,1-1.8c0.4-0.3,1-0.5,1.8-0.5
		c1.5,0,2.3,0.1,2.4,0.4c0.2,0.3,0.2,1,0.2,2.4v9.1c0,0.9-0.1,1.6-0.2,2.1c0,0.1-0.3,0.2-0.7,0.4c-0.4,0.1-0.8,0.2-1,0.2
		c-0.1,0-0.1,0.2-0.1,0.5c0,0.2,0,0.3,0.1,0.4c0.2,0,0.7,0,1.5-0.1c0.8,0,1.4-0.1,1.9-0.1c0.3,0,0.7,0,1,0c0.4,0,0.8,0,1.2,0.1
		c0.4,0,0.8,0,1,0.1c0-0.1,0-0.2,0-0.4c0-0.3,0-0.5-0.1-0.5c-0.2,0-0.5-0.1-0.9-0.2s-0.7-0.2-0.7-0.4c-0.2-0.5-0.2-1.3-0.2-2.2v-9
		c0-1.1,0.1-1.9,0.2-2.4c0.1-0.3,0.9-0.4,2.4-0.4c0.8,0,1.4,0.2,1.8,0.5c0.4,0.3,0.7,1,0.9,1.9c0,0.1,0.1,0.1,0.2,0.1
		c0.3,0,0.5,0,0.7-0.2l-0.5-3.8c-0.8,0.2-1.3,0.2-1.8,0.2c-0.7,0-1.6,0-2.8,0.1c-1.1,0-2.1,0.1-2.8,0.1c-0.7,0-1.6,0-2.8-0.1
		C501,93.9,500.1,93.9,499.5,93.8 M529.1,109.5c-0.4-0.1-0.7-0.2-0.7-0.4c-0.2-0.6-0.2-1.3-0.2-2.3v-9.4c0-1,0.1-1.7,0.2-2.2
		c0-0.1,0.3-0.2,0.7-0.4c0.5-0.1,0.8-0.2,0.9-0.2c0.1,0,0.1-0.1,0.1-0.4c0-0.1,0-0.2-0.1-0.4c-2,0.1-3.1,0.2-3.2,0.2
		c-0.5,0-1.1,0-2-0.1c-0.8,0-1.3-0.1-1.4-0.1c0,0,0,0.2,0,0.5c0,0.2,0,0.4,0.1,0.4c0.2,0,0.5,0,0.9,0.2c0.4,0.1,0.6,0.2,0.7,0.4
		c0.1,0.4,0.2,1.1,0.2,2.1v3.8c0,0,0,0.1,0,0.1c-1.5,0-2.6,0-3.3,0c-0.6,0-1.8,0-3.4,0l0-0.1v-3.7c0-1,0.1-1.7,0.2-2.2
		c0-0.1,0.3-0.2,0.7-0.4c0.5-0.1,0.8-0.2,0.9-0.2c0.1,0,0.1-0.1,0.1-0.4c0-0.1,0-0.2-0.1-0.4c-2,0.1-3.1,0.2-3.2,0.2
		c-0.5,0-1.1,0-2-0.1c-0.8,0-1.3-0.1-1.4-0.1c0,0,0,0.2,0,0.5c0,0.2,0,0.4,0.1,0.4c0.2,0,0.5,0,0.9,0.2c0.4,0.1,0.6,0.2,0.7,0.4
		c0.1,0.4,0.2,1.1,0.2,2.1v9.7c0,0.9-0.1,1.6-0.2,2.1c0,0.1-0.3,0.2-0.7,0.4c-0.4,0.1-0.8,0.2-1,0.2c-0.1,0-0.1,0.2-0.1,0.5
		c0,0.2,0,0.3,0.1,0.3c0.2,0,0.6,0,1.1-0.1c0.5,0,0.8,0,1.2,0s0.7,0,1,0c0.1,0,1.2,0,3.2,0.2c0-0.1,0-0.2,0-0.3c0-0.3,0-0.5-0.1-0.5
		c-0.2,0-0.5-0.1-0.9-0.2s-0.7-0.2-0.7-0.4c-0.2-0.6-0.2-1.3-0.2-2.3v-4.2c0,0,1.2-0.1,3.5-0.1c0.6,0,1.8,0,3.3,0l0,0.1v4.3
		c0,0.9-0.1,1.6-0.2,2.1c0,0.1-0.3,0.2-0.7,0.4c-0.4,0.1-0.8,0.2-1,0.2c-0.1,0-0.1,0.2-0.1,0.5c0,0.2,0,0.3,0.1,0.3
		c0.2,0,0.6,0,1.1-0.1c0.5,0,0.8,0,1.2,0c0.4,0,0.7,0,1,0c0.1,0,1.2,0,3.2,0.2c0-0.1,0-0.2,0-0.3c0-0.3,0-0.5-0.1-0.5
		C529.9,109.7,529.6,109.6,529.1,109.5"/>
	<path style="clip-path:url(#SVGID_00000011720981725223208750000013137908524717705103_);fill:#FFFFFF;" d="M399.2,78.3
		c0,0,0,0.2,0,0.3s0,0.3,0.1,0.3c0.1,0,0.4,0,0.7,0.1s0.5,0.2,0.5,0.3c0.1,0.2,0.1,0.8,0.1,1.5v4c0,2,0.4,3.3,1.3,4.2
		c0.8,0.9,2,1.3,3.4,1.3c0.7,0,1.3-0.1,1.8-0.3c0.5-0.2,1-0.5,1.5-0.9c0.4-0.4,0.8-0.9,1-1.6c0.2-0.7,0.3-1.5,0.3-2.4v-4.2
		c0-0.7,0.1-1.2,0.2-1.5c0.1-0.2,0.3-0.3,0.7-0.4c0.3-0.1,0.6-0.1,0.8-0.1c0,0,0.1-0.1,0.1-0.3c0-0.1,0-0.2,0-0.3
		c-0.1,0-0.4,0-0.9,0.1c-0.5,0-0.9,0.1-1.2,0.1c-0.2,0-1,0-2.3-0.1c0,0,0,0.2,0,0.3s0,0.2,0.1,0.2c0.2,0,0.4,0,0.8,0.2
		c0.4,0.1,0.6,0.2,0.6,0.3c0.1,0.2,0.2,0.7,0.2,1.5v4.3c0,1.4-0.3,2.4-0.8,3c-0.5,0.6-1.3,0.9-2.3,0.9c-1,0-1.7-0.4-2.3-1.1
		c-0.5-0.8-0.8-1.8-0.8-3v-4.2c0-0.7,0-1.3,0.1-1.6c0-0.1,0.2-0.2,0.5-0.3c0.3-0.1,0.5-0.1,0.7-0.1c0,0,0.1-0.1,0.1-0.3
		c0-0.1,0-0.2,0-0.3c-1.3,0.1-2.1,0.1-2.3,0.1C401.5,78.4,400.7,78.4,399.2,78.3 M417.5,80.2c-0.6-0.8-1-1.5-1.3-1.9
		c-0.7,0-1.2,0.1-1.6,0.1c-0.2,0-0.9,0-2.2-0.1c0,0-0.1,0.2-0.1,0.3s0,0.3,0.1,0.3c0.2,0,0.4,0,0.8,0.1c0.4,0.1,0.6,0.2,0.6,0.2
		c0.1,0.2,0.2,0.7,0.2,1.3v7.1c0,0.8,0,1.3-0.2,1.5c-0.1,0.2-0.3,0.3-0.7,0.4c-0.3,0.1-0.6,0.1-0.8,0.1c0,0-0.1,0.1-0.1,0.3
		c0,0.2,0,0.2,0.1,0.3c0.2,0,0.5,0,1-0.1c0.5,0,0.9,0,1.2,0c0,0,0.8,0,2.3,0.1c0,0,0-0.2,0-0.3c0-0.2,0-0.2-0.1-0.2
		c-0.2,0-0.4,0-0.8-0.2c-0.4-0.1-0.6-0.2-0.7-0.4c-0.1-0.2-0.1-0.8-0.1-1.5v-7.3l7.2,9.5c0.2,0.3,0.4,0.4,0.6,0.4
		c0.2,0,0.3,0,0.4-0.1c0-1.2-0.1-2.1-0.1-2.5v-6.8c0-0.7,0.1-1.2,0.2-1.5c0.1-0.2,0.3-0.3,0.7-0.4c0.3-0.1,0.6-0.1,0.8-0.1
		c0,0,0.1-0.1,0.1-0.3c0-0.1,0-0.2,0-0.3c-0.1,0-0.4,0-0.9,0.1c-0.5,0-0.9,0.1-1.2,0.1c-0.2,0-1,0-2.3-0.1c0,0,0,0.2,0,0.3
		c0,0.2,0,0.2,0.1,0.2c0.2,0,0.5,0,0.8,0.1c0.3,0.1,0.5,0.2,0.6,0.3c0.1,0.3,0.2,0.8,0.2,1.5v4.9c0,0.3,0,0.6,0,0.8 M427.4,87.8
		c0,0.6,0,1.1-0.1,1.5c0,0.1-0.2,0.2-0.5,0.3c-0.3,0.1-0.5,0.1-0.7,0.1c0,0-0.1,0.1-0.1,0.3c0,0.1,0,0.2,0.1,0.2c0.2,0,0.5,0,0.8,0
		c0.3,0,0.6,0,0.9,0h0.8c0.1,0,0.8,0,2.3,0.1c0-0.1,0-0.2,0-0.2c0-0.2,0-0.3-0.1-0.3c-0.1,0-0.3,0-0.6-0.1c-0.3-0.1-0.5-0.2-0.5-0.2
		c-0.1-0.4-0.2-1-0.2-1.6v-6.9c0-0.7,0-1.2,0.1-1.6c0-0.1,0.2-0.2,0.5-0.3c0.3-0.1,0.5-0.1,0.7-0.1c0,0,0.1-0.1,0.1-0.3
		c0-0.1,0-0.2,0-0.3c-1.5,0.1-2.2,0.1-2.3,0.1c-0.3,0-0.8,0-1.4,0c-0.6,0-1,0-1,0c0,0,0,0.1,0,0.3c0,0.2,0,0.3,0.1,0.3
		c0.1,0,0.4,0,0.7,0.1c0.3,0.1,0.5,0.2,0.5,0.3c0.1,0.3,0.1,0.8,0.1,1.5V87.8z M436.8,83.2c-0.9-2.3-1.4-3.5-1.4-3.7
		c0-0.2,0.1-0.3,0.2-0.4c0.2-0.1,0.3-0.2,0.5-0.2c0.2,0,0.3,0,0.4,0c0,0,0.1-0.1,0.1-0.2s0-0.3,0-0.3c-1.5,0.1-2.3,0.1-2.5,0.1
		c-0.3,0-0.8,0-1.4,0c-0.6,0-0.9,0-1,0c0,0,0,0.2,0,0.3c0,0.2,0,0.3,0.1,0.3c0.2,0,0.4,0,0.7,0.1c0.3,0.1,0.5,0.2,0.5,0.4
		c0.2,0.3,0.4,0.9,0.7,1.6l3.7,9.3c0.1,0.1,0.2,0.2,0.3,0.2c0.3,0,0.5-0.2,0.7-0.7l3.8-8.8c0.3-0.8,0.6-1.3,0.8-1.6
		c0.1-0.2,0.3-0.3,0.6-0.4c0.2-0.1,0.5-0.1,0.6-0.1c0,0,0-0.1,0-0.3c0-0.1,0-0.2,0-0.3c-0.2,0-0.5,0-0.9,0.1s-0.8,0-1.1,0
		s-0.7,0-1.1,0c-0.5,0-0.8,0-0.9,0c0,0,0,0.2,0,0.3s0,0.2,0.1,0.2c0.3,0,0.6,0,0.9,0.2c0.3,0.1,0.4,0.3,0.4,0.5
		c0,0.2-0.1,0.7-0.4,1.3l-2.6,6.3c0,0-0.1-0.1-0.2-0.4 M445.1,78.3c0,0-0.1,0.2-0.1,0.3s0,0.3,0.1,0.3c0.2,0,0.4,0,0.7,0.1
		c0.3,0.1,0.5,0.2,0.5,0.3c0.1,0.2,0.1,0.8,0.1,1.5v6.8c0,0.8,0,1.4-0.1,1.7c0,0.1-0.2,0.2-0.5,0.3c-0.3,0.1-0.5,0.1-0.7,0.1
		c0,0,0,0.1,0,0.3c0,0.2,0,0.2,0,0.3l2.4-0.1c0.6,0,1.7,0,3.2,0c1.5,0,2.5,0,3,0c0-0.2,0.1-0.4,0.2-0.7c0.1-0.3,0.2-0.5,0.2-0.8
		c0.1-0.2,0.2-0.5,0.3-0.9c0.1-0.4,0.2-0.6,0.2-0.8c-0.1-0.1-0.2-0.1-0.5-0.1c-0.2,0-0.2,0-0.2,0.1c-0.1,0.4-0.3,0.8-0.5,1.1
		c-0.2,0.3-0.5,0.5-0.7,0.6c-0.5,0.2-1.2,0.4-2.2,0.4h-0.7c-0.8,0-1.2-0.1-1.3-0.3c-0.1-0.3-0.2-0.8-0.2-1.5v-2.8
		c0-0.1,0.4-0.1,1.3-0.1c1,0,1.5,0,1.7,0.1c0.1,0,0.1,0.1,0.2,0.1c0,0,0,0.1,0.1,0.2c0.1,0.2,0.1,0.4,0.2,0.7c0,0.1,0.1,0.1,0.3,0.1
		c0.2,0,0.3,0,0.3-0.1v-3.4c0,0-0.2-0.1-0.3-0.1c-0.2,0-0.3,0-0.3,0.1c0,0.1-0.1,0.3-0.1,0.5c-0.1,0.4-0.2,0.6-0.3,0.6
		c-0.1,0-0.5,0.1-1.3,0.1h-0.1h-1c-0.5,0-0.8,0-0.8-0.1v-2.8c0-0.6,0-1.1,0.1-1.5c0-0.2,0.5-0.2,1.4-0.2h1c1.1,0,1.9,0.5,2.3,1.6
		c0,0.1,0.1,0.1,0.2,0.1c0.2,0,0.3,0,0.4-0.1c0,0-0.1-0.4-0.2-1c-0.1-0.6-0.2-1.2-0.3-1.5c-0.7,0-1.7,0-3,0.1s-2.3,0.1-2.8,0.1
		C446.7,78.4,445.9,78.4,445.1,78.3 M462.1,81.7c0,0.7-0.2,1.2-0.5,1.6c-0.4,0.4-0.8,0.6-1.2,0.6h-0.5c-0.4,0-0.6,0-0.8-0.1
		c-0.2-0.1-0.3-0.2-0.3-0.5v-2.1c0-1.2,0.1-1.8,0.2-1.9c0.2-0.1,0.5-0.1,1-0.1C461.4,79.2,462.1,80.1,462.1,81.7 M458.9,78.4h-1.3
		c-0.3,0-1.1,0-2.4,0c0,0-0.1,0.1-0.1,0.3c0,0.2,0,0.3,0.1,0.3c0.1,0,0.4,0,0.7,0.2c0.3,0.1,0.5,0.2,0.5,0.3
		c0.1,0.3,0.1,0.8,0.1,1.5v6.8c0,0.9,0,1.4-0.1,1.7c0,0.1-0.2,0.2-0.5,0.3c-0.3,0.1-0.5,0.1-0.7,0.1c0,0,0,0.1,0,0.3
		c0,0.2,0,0.3,0,0.3l0.4,0c0.2,0,0.6,0,1,0c0.4,0,0.8,0,1.1,0c0.4,0,1.3,0,2.6,0.1c0-0.1,0-0.2,0-0.3c0-0.2,0-0.3-0.1-0.3
		c-0.2,0-0.4,0-0.8-0.1c-0.4-0.1-0.6-0.2-0.6-0.3c-0.1-0.3-0.1-0.8-0.1-1.5v-2.5c0-0.2,0.1-0.3,0.3-0.3c0.2,0,0.4,0,0.4,0
		c0.1,0,0.2,0.1,0.3,0.2c0.1,0.1,0.2,0.2,0.4,0.4c0.1,0.2,0.3,0.4,0.4,0.5c0.1,0.2,0.3,0.4,0.5,0.8c0.2,0.3,0.4,0.6,0.6,0.8
		c0.2,0.4,0.5,0.8,0.8,1s0.5,0.5,0.9,0.8c0.4,0.3,0.8,0.5,1.3,0.6s1,0.2,1.7,0.2c0.2,0,0.4,0,0.5,0c0-0.1,0.1-0.2,0.1-0.3
		s0-0.2-0.1-0.3c-0.4,0-0.9-0.2-1.3-0.5c-0.5-0.4-1-0.8-1.4-1.3c-0.7-0.8-1.3-1.9-2-3.1c0-0.1,0-0.1,0.1-0.2
		c0.6-0.2,1.1-0.7,1.5-1.3c0.4-0.6,0.6-1.2,0.6-1.8c0-0.5-0.1-0.9-0.3-1.3c-0.2-0.4-0.4-0.7-0.7-0.9c-0.3-0.2-0.6-0.4-1-0.6
		c-0.4-0.2-0.7-0.2-1.1-0.3c-0.3-0.1-0.7-0.1-1-0.1C459.9,78.3,459.4,78.3,458.9,78.4 M467.9,82.4c0.1,0.3,0.3,0.5,0.4,0.8
		c0.1,0.2,0.4,0.4,0.6,0.7c0.3,0.2,0.5,0.4,0.7,0.5c0.2,0.1,0.5,0.3,0.8,0.5c0.1,0,0.2,0.1,0.2,0.1c0.1,0,0.3,0.2,0.5,0.3
		c0.2,0.2,0.5,0.2,0.6,0.3c0.1,0.1,0.3,0.2,0.5,0.4c0.2,0.2,0.3,0.3,0.5,0.4c0.1,0.1,0.2,0.3,0.3,0.5c0.1,0.2,0.1,0.4,0.1,0.6
		c0,0.7-0.2,1.2-0.5,1.5c-0.4,0.3-0.8,0.5-1.4,0.5c-0.5,0-0.8-0.1-1.2-0.3c-0.4-0.2-0.6-0.4-0.8-0.7c-0.2-0.3-0.4-0.6-0.5-0.8
		s-0.2-0.5-0.2-0.7c0-0.1-0.2-0.1-0.5-0.1c-0.2,0-0.3,0-0.3,0.1c0,0.2,0,0.6,0.1,1.3c0.1,0.7,0.2,1.2,0.3,1.6
		c1.5,0.3,2.6,0.5,3.3,0.5c1,0,1.9-0.3,2.7-1c0.8-0.6,1.2-1.4,1.2-2.4c0-0.3,0-0.7-0.1-1c-0.1-0.3-0.2-0.5-0.3-0.8
		c-0.1-0.2-0.3-0.4-0.5-0.6c-0.2-0.2-0.5-0.4-0.6-0.5c-0.1-0.1-0.4-0.2-0.7-0.4c-0.3-0.2-0.5-0.3-0.6-0.4c0,0-0.2-0.1-0.5-0.3
		c-0.3-0.2-0.5-0.3-0.5-0.3c-0.1,0-0.2-0.2-0.5-0.3c-0.2-0.2-0.4-0.3-0.5-0.4c-0.1-0.1-0.2-0.2-0.3-0.4c-0.1-0.2-0.2-0.3-0.2-0.5
		c0-0.2-0.1-0.3-0.1-0.5c0-0.5,0.2-1,0.5-1.2c0.3-0.3,0.7-0.5,1.3-0.5c0.6,0,1.2,0.2,1.6,0.8c0.5,0.5,0.7,1.1,0.8,1.6
		c0,0.1,0.2,0.2,0.5,0.2c0.1,0,0.2,0,0.2-0.2c0-1-0.1-2-0.2-2.8c-0.2,0-0.5-0.1-0.9-0.2c-0.5-0.1-0.8-0.2-1-0.2c-0.3,0-0.5,0-0.9,0
		c-1,0-1.8,0.3-2.6,0.9c-0.8,0.6-1.1,1.4-1.1,2.3C467.7,81.7,467.8,82.1,467.9,82.4 M477.3,87.8c0,0.6,0,1.1-0.1,1.5
		c0,0.1-0.2,0.2-0.5,0.3c-0.3,0.1-0.5,0.1-0.7,0.1c0,0-0.1,0.1-0.1,0.3c0,0.1,0,0.2,0.1,0.2c0.2,0,0.5,0,0.8,0c0.3,0,0.6,0,0.9,0
		h0.8c0.1,0,0.8,0,2.3,0.1c0-0.1,0-0.2,0-0.2c0-0.2,0-0.3-0.1-0.3c-0.1,0-0.3,0-0.6-0.1c-0.3-0.1-0.5-0.2-0.5-0.2
		c-0.1-0.4-0.2-1-0.2-1.6v-6.9c0-0.7,0-1.2,0.1-1.6c0-0.1,0.2-0.2,0.5-0.3c0.3-0.1,0.5-0.1,0.7-0.1c0,0,0.1-0.1,0.1-0.3
		c0-0.1,0-0.2,0-0.3c-1.5,0.1-2.2,0.1-2.3,0.1c-0.3,0-0.8,0-1.4,0c-0.6,0-1,0-1,0c0,0,0,0.1,0,0.3c0,0.2,0,0.3,0.1,0.3
		c0.1,0,0.4,0,0.7,0.1c0.3,0.1,0.5,0.2,0.5,0.3c0.1,0.3,0.1,0.8,0.1,1.5V87.8z M483.2,78.3c-0.3,0-0.7,0-1.3-0.2l-0.3,2.8
		c0.1,0.1,0.3,0.1,0.5,0.1c0.1,0,0.2,0,0.2-0.1c0.2-0.7,0.4-1.1,0.7-1.3c0.3-0.2,0.7-0.3,1.3-0.3c1,0,1.6,0.1,1.7,0.3
		c0.1,0.2,0.2,0.8,0.2,1.8v6.5c0,0.7,0,1.2-0.1,1.5c0,0.1-0.2,0.2-0.5,0.3c-0.3,0.1-0.5,0.1-0.7,0.1c0,0-0.1,0.1-0.1,0.3
		c0,0.1,0,0.2,0.1,0.3c0.1,0,0.5,0,1-0.1c0.6,0,1,0,1.3,0h0.8c0.2,0,0.5,0,0.8,0c0.3,0,0.5,0,0.7,0c0-0.1,0-0.2,0-0.3
		c0-0.2,0-0.3-0.1-0.3c-0.1,0-0.3,0-0.6-0.1c-0.3-0.1-0.5-0.2-0.5-0.2c-0.1-0.4-0.2-0.9-0.2-1.6v-6.5c0-0.8,0-1.3,0.2-1.7
		c0-0.2,0.6-0.3,1.8-0.3c0.6,0,1,0.1,1.3,0.3c0.3,0.2,0.5,0.7,0.7,1.3c0,0,0.1,0.1,0.2,0.1c0.2,0,0.4,0,0.5-0.1l-0.3-2.8
		c-0.5,0.1-1,0.2-1.3,0.2c-0.5,0-1.2,0-2,0.1c-0.8,0-1.5,0-2,0s-1.2,0-2,0C484.3,78.3,483.7,78.3,483.2,78.3 M497.9,84.7
		C498,84.9,498,85,498,85v2.7c0,0.7,0,1.2-0.1,1.6c0,0.1-0.2,0.2-0.5,0.3c-0.3,0.1-0.5,0.1-0.7,0.1c0,0,0,0.1,0,0.3
		c0,0.1,0,0.2,0.1,0.3c0.1,0,0.5,0,1-0.1c0.5,0,1,0,1.3,0h0.8c0.2,0,0.5,0,0.8,0c0.3,0,0.5,0,0.7,0c0-0.1,0-0.2,0-0.3
		c0-0.2,0-0.3-0.1-0.3c-0.1,0-0.3,0-0.6-0.2c-0.3-0.1-0.5-0.2-0.5-0.3c-0.1-0.4-0.1-0.9-0.1-1.6v-2.8c0-0.2,0.5-1,1.4-2.4
		c0.9-1.5,1.5-2.5,1.9-3c0.1-0.2,0.4-0.3,0.7-0.4c0.3-0.1,0.6-0.2,0.8-0.2c0,0,0.1-0.1,0.1-0.3c0-0.1,0-0.2,0-0.3
		c-0.1,0-0.3,0-0.5,0c-0.2,0-0.5,0-0.7,0h-0.8c-0.2,0-1,0-2.2-0.1c0,0,0,0.2,0,0.3s0,0.2,0.1,0.2c0.4,0,0.7,0,0.9,0.2
		c0.2,0.1,0.3,0.2,0.3,0.3c0,0.2-0.2,0.8-0.7,1.5c-0.5,0.8-1,1.6-1.5,2.4c0,0.1-0.1,0.1-0.2,0l-2.1-3.3c-0.1-0.2-0.2-0.4-0.2-0.5
		c0-0.2,0.1-0.3,0.4-0.4s0.5-0.1,0.7-0.1c0,0,0-0.1,0.1-0.2c0-0.2,0-0.3,0-0.3c-1.5,0.1-2.3,0.1-2.5,0.1c-1.3,0-2.1,0-2.4,0
		c0,0,0,0.1,0,0.2s0,0.2,0.1,0.2c0.1,0,0.3,0,0.5,0.1c0.2,0.1,0.4,0.1,0.5,0.2c0.3,0.2,0.6,0.6,1,1.2 M516.9,80
		c0.6,0.6,1,1.3,1.2,2.1c0.2,0.8,0.4,1.7,0.4,2.6c0,1.3-0.3,2.5-0.8,3.4c-0.5,1-1.3,1.5-2.4,1.5c-0.8,0-1.5-0.3-2.1-0.9
		c-0.6-0.6-1-1.3-1.2-2.1c-0.2-0.8-0.4-1.7-0.4-2.6c0-1.3,0.3-2.5,0.8-3.4c0.5-1,1.3-1.4,2.4-1.4C515.6,79.1,516.3,79.4,516.9,80
		 M515,90.5c1.6,0,3-0.6,4.1-1.8c1.1-1.2,1.7-2.6,1.7-4.3c0-1.7-0.6-3.1-1.7-4.3c-1.1-1.2-2.5-1.8-4.1-1.8s-3,0.6-4.1,1.8
		c-1.1,1.2-1.7,2.6-1.7,4.3c0,1.7,0.6,3.1,1.7,4.3C512,89.9,513.4,90.5,515,90.5 M526.5,90.3c0,0,0-0.1,0-0.3c0-0.2,0-0.3-0.1-0.3
		c-0.1,0-0.4,0-0.8-0.2c-0.4-0.1-0.6-0.2-0.7-0.3c-0.1-0.3-0.2-0.8-0.2-1.5v-2.8c0-0.1,0.4-0.1,1.3-0.1c1,0,1.5,0,1.7,0.1
		c0.1,0,0.1,0.1,0.2,0.1c0,0,0,0.1,0.1,0.2c0.1,0.2,0.1,0.4,0.2,0.7c0,0.1,0.1,0.1,0.3,0.1c0.2,0,0.3,0,0.3-0.1v-3.4
		c0,0-0.2-0.1-0.3-0.1c-0.2,0-0.3,0-0.3,0.1c0,0.1-0.1,0.3-0.1,0.5c-0.1,0.4-0.2,0.6-0.3,0.6c-0.1,0-0.5,0.1-1.3,0.1h-0.1h-0.9
		c-0.5,0-0.8,0-0.8-0.1v-2.8c0-0.7,0-1.2,0.1-1.5c0-0.2,0.5-0.2,1.4-0.2h1c1.1,0,1.9,0.5,2.3,1.6c0,0.1,0.1,0.1,0.2,0.1
		c0.2,0,0.3,0,0.4-0.1c0,0-0.1-0.4-0.2-1c-0.1-0.6-0.2-1.2-0.3-1.5c-0.6,0-1.6,0-3,0.1s-2.3,0.1-2.9,0c-0.8,0-1.6,0-2.4-0.1
		c0,0-0.1,0.2-0.1,0.3s0,0.3,0.1,0.3c0.2,0,0.4,0,0.7,0.1c0.3,0.1,0.5,0.2,0.5,0.3c0.1,0.2,0.1,0.8,0.1,1.5v6.8c0,0.8,0,1.4-0.1,1.7
		c0,0.1-0.2,0.2-0.5,0.3c-0.3,0.1-0.5,0.1-0.7,0.1c0,0,0,0.1,0,0.3c0,0.2,0,0.2,0,0.3h0.4c0.2,0,0.5,0,1-0.1c0.4,0,0.8,0,1.2,0
		C524.2,90.2,525.1,90.3,526.5,90.3"/>
</g>
</svg>
