<?xml version="1.0" encoding="utf-8"?>
<!-- Generator: Adobe Illustrator 20.1.0, SVG Export Plug-In . SVG Version: 6.00 Build 0)  -->
<svg version="1.1" id="Layer_1" xmlns="http://www.w3.org/2000/svg" xmlns:xlink="http://www.w3.org/1999/xlink" x="0px" y="0px"
	 viewBox="0 0 170.1 125" style="enable-background:new 0 0 170.1 125;" xml:space="preserve">
<style type="text/css">
	.st0{fill:#FFFFFF;}
	.st1{fill:#BAA25C;}
</style>
<g>
	<g>
		<path class="st0" d="M160.4,110.7l-3.1-7.3c-0.4-0.8-0.8-1-1.5-1h-4.5c-0.8,0-0.9,0.7-0.6,1.3l6.6,13.2v6.9c0,0.6,0.4,0.9,1,0.9
			h3.9c0.6,0,1-0.4,1-0.9v-6.9l6.7-13.2c0.3-0.6,0.3-1.3-0.6-1.3h-4c-0.9,0-1.1,0.2-1.6,1.1L160.4,110.7z M138.1,123.7
			c0,0.6,0.4,0.9,1,0.9h3.8c0.6,0,1.1-0.4,1.1-0.9v-16.2h4.6c0.6,0,1-0.3,1-0.9v-3.4c0-0.6-0.4-0.8-1-0.8h-15.2c-0.6,0-1,0.3-1,0.8
			v3.4c0,0.6,0.4,0.9,1,0.9h4.6V123.7z M124.9,123.7c0,0.6,0.4,0.9,1,0.9h3.9c0.6,0,1-0.4,1-0.9v-20.4c0-0.6-0.4-0.9-1-0.9H126
			c-0.6,0-1,0.4-1,0.9V123.7z M121.9,109.1c0.5,0,0.7-0.4,0.7-0.9c0-1.3-0.3-2.2-0.8-3.1c-1.1-2-3.6-3.1-7.4-3.1
			c-5.6,0-8.5,3.4-8.5,7.2c0,4,2.2,5.8,7.4,6.7c2.5,0.4,3.9,0.9,3.9,2.3c0,1.3-1.1,1.9-2.9,1.9c-1.4,0-2.4-0.2-2.9-1.7
			c-0.2-0.4-0.5-0.7-1.1-0.7h-3.7c-0.7,0-0.9,0.6-0.9,0.9c0,2.3,0.8,3.8,2.6,5c1.4,0.9,3.4,1.4,6.1,1.4c5.6,0,8.7-2.8,8.7-7.3
			c0-4.1-2-6.1-7.5-6.9c-2.6-0.4-3.9-0.7-3.9-2.1c0-1.2,0.9-1.9,2.6-1.9c1.5,0,2.1,0.6,2.4,1.4c0.2,0.5,0.4,0.8,1.1,0.8H121.9z
			 M94.2,111.9v-4.7h2.1c2.2,0,2.6,1.2,2.6,2.3c0,1-0.5,2.4-2.6,2.4H94.2z M98.9,123.6c0.5,0.9,0.9,1,1.5,1h4.3
			c0.6,0,0.8-0.3,0.8-0.7c0-0.3-0.1-0.5-0.2-0.7l-4.1-7.8c2.6-1.3,3.4-3.8,3.4-6.1c0-4.1-2.8-7-7.7-7h-7.7c-0.6,0-1,0.4-1,0.9v20.4
			c0,0.6,0.4,0.9,1,0.9h3.9c0.6,0,1-0.4,1-0.9v-7.2h1.3L98.9,123.6z M71.3,123.7c0,0.6,0.4,0.9,1,0.9h13c0.6,0,1-0.3,1-0.8v-3.4
			c0-0.6-0.4-0.9-1-0.9h-8.1V116h6.3c0.6,0,1-0.3,1-0.8v-3.4c0-0.6-0.4-0.9-1-0.9h-6.3v-3.4h7.6c0.6,0,1-0.3,1-0.9v-3.4
			c0-0.6-0.4-0.8-1-0.8H72.3c-0.6,0-1,0.4-1,0.9V123.7z M60.3,116.5L57,103.5c-0.3-0.9-0.6-1.1-1.4-1.1h-4.3c-0.7,0-1,0.5-0.7,1.3
			l6.1,19.9c0.2,0.7,0.8,1,1.3,1h4.2c0.4,0,0.9-0.3,1.1-0.9l6.7-20c0.3-0.8-0.1-1.3-0.7-1.3h-4.3c-0.9,0-1.1,0.5-1.2,1.1L60.3,116.5
			z M43.5,123.7c0,0.6,0.4,0.9,1,0.9h3.9c0.6,0,1-0.4,1-0.9v-20.4c0-0.6-0.4-0.9-1-0.9h-3.9c-0.6,0-1,0.4-1,0.9V123.7z M34.9,123.7
			c0.3,0.6,0.7,0.9,1.5,0.9h3.6c0.6,0,1.1-0.4,1.1-0.9v-20.4c0-0.6-0.4-0.9-1-0.9h-3.8c-0.6,0-1,0.4-1,0.9v11.2l-6.9-11.2
			c-0.4-0.7-0.9-0.9-1.6-0.9h-4c-0.6,0-1,0.4-1,0.9v20.4c0,0.6,0.4,0.9,0.9,0.9h3.8c0.6,0,1-0.4,1-0.9v-11.5L34.9,123.7z
			 M13.8,115.5c0,3-1.1,4.4-3.4,4.4c-2.4,0-3.4-1.4-3.4-4.4v-12.2c0-0.6-0.4-0.9-1-0.9H2.2c-0.6,0-1.1,0.4-1.1,0.9v12.3
			c0,7,3.6,9.4,9.1,9.4c5.1,0,9.5-2.4,9.5-9.4v-12.3c0-0.6-0.4-0.9-1-0.9h-3.9c-0.6,0-1,0.4-1,0.9V115.5z"/>
		<path class="st0" d="M149.7,98.2c0,0.6,0.4,0.9,1,0.9h3.9c0.6,0,1-0.4,1-0.9V77.8c0-0.6-0.4-0.9-1-0.9h-3.9c-0.6,0-1,0.4-1,0.9
			v7.6h-7.2v-7.6c0-0.6-0.4-0.9-1-0.9h-3.8c-0.6,0-1.1,0.4-1.1,0.9v20.4c0,0.6,0.5,0.9,1.1,0.9h3.8c0.6,0,1-0.4,1-0.9v-7.7h7.2V98.2
			z M123.3,98.2c0,0.6,0.4,0.9,1,0.9h3.8c0.6,0,1.1-0.4,1.1-0.9V82h4.6c0.6,0,1-0.3,1-0.9v-3.4c0-0.6-0.4-0.9-1-0.9h-15.2
			c-0.6,0-1,0.3-1,0.9v3.4c0,0.6,0.4,0.9,1,0.9h4.6V98.2z M110.2,90c0,3-1.1,4.4-3.4,4.4c-2.4,0-3.4-1.4-3.4-4.4V77.8
			c0-0.6-0.4-0.9-1-0.9h-3.8c-0.6,0-1.1,0.4-1.1,0.9v12.3c0,7,3.6,9.4,9.1,9.4c5.1,0,9.5-2.4,9.5-9.4V77.8c0-0.6-0.4-0.9-1-0.9h-3.9
			c-0.6,0-1,0.4-1,0.9V90z M72.8,88c0,6.8,4.3,11.4,11.6,11.4c7.4,0,11.6-5,11.6-11.4c0-6.7-4.2-11.5-11.6-11.5
			C77.1,76.5,72.8,81.5,72.8,88 M89.7,88c0,3.5-1.8,6.1-5.4,6.1c-3.5,0-5.3-2.5-5.3-6.1c0-3.6,1.8-6.2,5.3-6.2
			C87.9,81.9,89.7,84.4,89.7,88 M66.2,98.1c0.1,0.6,0.3,1,1.1,1h4c0.7,0,1-0.4,0.9-1.2l-2.1-20c-0.1-0.6-0.6-0.9-1.3-0.9h-4.2
			c-0.7,0-1.1,0.3-1.3,0.9l-3.5,11.3l-3.2-11.2c-0.2-0.6-0.5-1-1.2-1h-4.2c-0.8,0-1.2,0.4-1.3,1l-2.4,20c-0.1,0.8,0.2,1.2,0.9,1.2
			h3.8c0.9,0,1.1-0.5,1.2-1.1L54.2,87l2.9,11.2c0.2,0.6,0.5,0.9,1.4,0.9h2.4c0.9,0,1.2-0.3,1.4-1l3.1-11.3L66.2,98.1z M38.8,85.2
			l-3.1-7.3c-0.4-0.8-0.8-1-1.5-1h-4.5c-0.8,0-0.8,0.7-0.6,1.3l6.6,13.2v6.9c0,0.6,0.4,0.9,1,0.9h3.9c0.6,0,1-0.4,1-0.9v-6.9
			l6.7-13.2c0.3-0.6,0.3-1.3-0.6-1.3h-4c-0.9,0-1.1,0.2-1.6,1.1L38.8,85.2z M18.8,98.2c0,0.6,0.4,0.9,1,0.9h11.9c0.6,0,1-0.4,1-0.9
			v-3.5c0-0.6-0.4-0.9-1-0.9h-7v-16c0-0.6-0.4-0.9-1-0.9h-3.9c-0.6,0-1,0.4-1,0.9V98.2z M1.1,98.2c0,0.6,0.4,0.9,1,0.9H6
			c0.6,0,1.1-0.4,1.1-0.9v-6.7h2.5c3.7,0,7.7-2,7.7-7.3c0-5.7-4.4-7.3-8.1-7.3h-7c-0.6,0-1,0.4-1,0.9V98.2z M7.1,86.7v-4.9h1.8
			c1.7,0,2.5,1,2.5,2.5c0,1-0.5,2.4-2.5,2.4H7.1z"/>
		<path class="st0" d="M68.8,72.7c0,0.6,0.4,0.9,1,0.9h3.9c0.6,0,1-0.4,1-0.9V52.3c0-0.6-0.4-0.9-1-0.9h-3.9c-0.6,0-1,0.4-1,0.9v7.6
			h-7.2v-7.6c0-0.6-0.4-0.9-1-0.9h-3.8c-0.6,0-1.1,0.4-1.1,0.9v20.4c0,0.6,0.5,0.9,1.1,0.9h3.8c0.6,0,1-0.4,1-0.9V65h7.2V72.7z
			 M42.4,72.7c0,0.6,0.4,0.9,1,0.9h3.8c0.6,0,1.1-0.4,1.1-0.9V56.5H53c0.6,0,1-0.3,1-0.9v-3.4c0-0.6-0.4-0.8-1-0.8H37.8
			c-0.6,0-1,0.3-1,0.8v3.4c0,0.6,0.4,0.9,1,0.9h4.6V72.7z M29.2,72.7c0,0.6,0.4,0.9,1,0.9h3.9c0.6,0,1-0.4,1-0.9V52.3
			c0-0.6-0.4-0.9-1-0.9h-3.9c-0.6,0-1,0.4-1,0.9V72.7z M16.3,72.4c0.2,1,0.7,1.2,1.4,1.2h4.1c0.7,0,1-0.4,1.2-1l5-19.8
			c0.3-1-0.1-1.4-0.7-1.4h-4c-0.6,0-1.2,0.1-1.4,1.3l-2.4,11.2l-2.3-11.5c-0.2-0.7-0.5-1-1.4-1h-3.6c-0.9,0-1.2,0.4-1.4,1.1
			L8.5,63.9L6.2,52.7c-0.2-0.9-0.6-1.3-1.5-1.3h-4c-0.6,0-0.9,0.4-0.7,1.4l4.7,19.8c0.2,0.8,0.8,1,1.2,1h4.2c0.8,0,1.2-0.5,1.4-1.3
			l2.4-10.6L16.3,72.4z"/>
		<path class="st1" d="M117.7,35.4v-4.7h2.1c2.2,0,2.6,1.2,2.6,2.3c0,1-0.5,2.4-2.6,2.4H117.7z M122.5,47.1c0.5,0.9,0.9,1,1.5,1h4.3
			c0.6,0,0.8-0.3,0.8-0.7c0-0.3-0.1-0.5-0.2-0.7l-4.1-7.8c2.6-1.3,3.4-3.8,3.4-6.1c0-4.1-2.8-7-7.7-7h-7.6c-0.6,0-1,0.4-1,0.9v20.4
			c0,0.6,0.4,0.9,1,0.9h3.9c0.6,0,1-0.4,1-0.9V40h1.3L122.5,47.1z M94.9,47.2c0,0.6,0.4,0.9,1,0.9h13c0.6,0,1-0.3,1-0.8v-3.4
			c0-0.6-0.4-0.9-1-0.9h-8.1v-3.6h6.3c0.6,0,1-0.3,1-0.9v-3.4c0-0.6-0.4-0.9-1-0.9h-6.3V31h7.6c0.6,0,1-0.3,1-0.9v-3.4
			c0-0.6-0.4-0.8-1-0.8H95.9c-0.6,0-1,0.4-1,0.9V47.2z M86.7,47.2c0,0.6,0.4,0.9,1,0.9h3.9c0.6,0,1-0.4,1-0.9V26.8
			c0-0.6-0.4-0.9-1-0.9h-3.9c-0.6,0-1,0.4-1,0.9v7.6h-7.2v-7.6c0-0.6-0.4-0.9-1-0.9h-3.8c-0.6,0-1.1,0.4-1.1,0.9v20.4
			c0,0.6,0.5,0.9,1.1,0.9h3.8c0.6,0,1-0.4,1-0.9v-7.7h7.2V47.2z M60.3,47.2c0,0.6,0.4,0.9,1,0.9h3.8c0.6,0,1.1-0.4,1.1-0.9V31h4.6
			c0.6,0,1-0.3,1-0.9v-3.4c0-0.6-0.4-0.8-1-0.8H55.6c-0.6,0-1,0.3-1,0.8v3.4c0,0.6,0.4,0.9,1,0.9h4.6V47.2z M43.3,35.4v-4.7h2.1
			c2.2,0,2.6,1.2,2.6,2.3c0,1-0.5,2.4-2.6,2.4H43.3z M48.1,47.1c0.5,0.9,0.9,1,1.5,1h4.3c0.6,0,0.8-0.3,0.8-0.7
			c0-0.3-0.1-0.5-0.2-0.7L50.3,39c2.6-1.3,3.4-3.8,3.4-6.1c0-4.1-2.8-7-7.7-7h-7.7c-0.6,0-1,0.4-1,0.9v20.4c0,0.6,0.4,0.9,1,0.9h3.9
			c0.6,0,1-0.4,1-0.9V40h1.3L48.1,47.1z M29.3,39c0,3-1.1,4.4-3.4,4.4c-2.4,0-3.4-1.4-3.4-4.4V26.8c0-0.6-0.4-0.9-1-0.9h-3.8
			c-0.6,0-1.1,0.4-1.1,0.9v12.3c0,7,3.6,9.4,9.1,9.4c5.1,0,9.5-2.4,9.5-9.4V26.8c0-0.6-0.4-0.9-1-0.9h-3.9c-0.6,0-1,0.4-1,0.9V39z
			 M1.1,47.2c0,0.6,0.4,0.9,1,0.9H6c0.6,0,1-0.4,1-0.9v-7.3h5.7c0.6,0,0.9-0.3,0.9-0.8v-3.4c0-0.6-0.3-0.9-0.9-0.9H7.1V31H14
			c0.6,0,1-0.3,1-0.9v-3.4c0-0.6-0.4-0.8-1-0.8H2.2c-0.6,0-1,0.4-1,0.9V47.2z"/>
		<path class="st1" d="M24.2,11.5c0,6.8,4.3,11.4,11.6,11.4c7.4,0,11.6-5,11.6-11.4C47.4,4.8,43.2,0,35.8,0C28.5,0,24.2,5,24.2,11.5
			 M41.2,11.5c0,3.5-1.8,6.1-5.4,6.1c-3.5,0-5.3-2.5-5.3-6.1c0-3.6,1.8-6.2,5.3-6.2C39.3,5.4,41.2,7.9,41.2,11.5 M11.6,14.4
			c0,0.5,0.3,0.9,0.9,0.9h4.1c-0.4,1.6-2.3,2.6-4.7,2.6c-3.2,0-5.2-2.4-5.2-6.4c0-4.2,2.4-6.4,5.2-6.4c2.1,0,3.2,0.9,4,2.3
			c0.3,0.5,0.6,0.7,1.3,0.6l4.2-0.6c0.6-0.1,0.7-0.7,0.6-1.1C21.5,3.8,19.3,0,12,0C5,0,0.5,5,0.5,11.7C0.5,17.7,3.7,23,12,23
			c7,0,10.9-4.5,10.9-10.8v-0.7c0-0.6-0.3-0.9-0.9-0.9h-9.4c-0.6,0-0.9,0.3-0.9,0.9V14.4z"/>
	</g>
</g>
</svg>
