<svg id="Layer_1" data-name="Layer 1" xmlns="http://www.w3.org/2000/svg" viewBox="0 0 170.08 153.26"><defs><style>.cls-1{fill:#fff;}</style></defs><title>ibexwhite</title><path class="cls-1" d="M85,94.9A119.83,119.83,0,0,0,60.7,97.36c.95,5.76,2.66,14.57,5.59,25.56,5.41,20.29,9.72,27.59,11.11,28.6,1.07.78,3.58,1.74,7.64,1.74s6.57-1,7.63-1.74c1.39-1,5.7-8.31,11.12-28.6,2.93-11,4.64-19.8,5.59-25.56A119.83,119.83,0,0,0,85,94.9m85-94.9S144,6.52,124.18,30.2A260.56,260.56,0,0,0,92.77,77.79S90.6,77,85,77s-7.73.77-7.73.77A260.56,260.56,0,0,0,45.9,30.2C26.09,6.52,0,0,0,0S17.1,11.61,37.69,41.55c17,24.74,25.7,43.3,25.7,43.3l-22-5.42L60.07,95.55a121.66,121.66,0,0,1,49.94,0l18.71-16.12-22,5.42s8.69-18.56,25.7-43.3C153,11.61,170.08,0,170.08,0"/></svg>