<?xml version="1.0" encoding="utf-8"?>
<!-- Generator: Adobe Illustrator 22.1.0, SVG Export Plug-In . SVG Version: 6.00 Build 0)  -->
<svg version="1.1" id="Layer_1" xmlns="http://www.w3.org/2000/svg" xmlns:xlink="http://www.w3.org/1999/xlink" x="0px" y="0px"
	 viewBox="0 0 141.7 78" style="enable-background:new 0 0 141.7 78;" xml:space="preserve">
<style type="text/css">
	.st0{fill:#FFFFFF;}
</style>
<g>
	<path class="st0" d="M0,0v36h15v-5.1H5.7V0H0z M17.4,36h5.7V0h-5.7V36z M27.2,0v36h5.7V21.1h7.3V16h-7.3V5.1h9.3V0H27.2z M44.9,0
		v36h15.4v-5.1h-9.8V20.3h7.8v-5.1h-7.8v-10h9.8V0H44.9z"/>
	<g>
		<path class="st0" d="M132.5,46.7c2,0,2.9,1.1,2.9,3.7v3.5c0,2.9-1.3,3.8-3.4,3.8h-2.2V46.7H132.5z M141.7,77.5
			c-0.6-1.3-0.6-2.6-0.6-4.4v-5.6c0-3.8-0.9-6.5-3.8-7.7c2.5-1.2,3.7-3.6,3.7-7.3v-2.8c0-5.6-2.5-8.3-8.4-8.3h-8.5v36h5.7V62.9h2
			c2.6,0,3.7,1.2,3.7,4.6v5.7c0,2.9,0.2,3.5,0.5,4.4H141.7z M110.9,46.7h9.8v-5.1h-15.4v36h15.4v-5.1h-9.8V61.9h7.8v-5.1h-7.8V46.7z
			 M93.6,62.6h2.6v6.6c0,2.6-1.1,3.5-2.9,3.5s-2.9-0.9-2.9-3.5V49.8c0-2.6,1.1-3.5,2.9-3.5s2.9,1,2.9,3.5v3.9h5.3v-3.5
			c0-5.8-2.9-9.1-8.4-9.1c-5.6,0-8.4,3.3-8.4,9.1v18.7c0,5.8,2.9,9.1,8.4,9.1c5.6,0,8.4-3.3,8.4-9.1V57.5h-7.9V62.6z M75.3,77.5h5.8
			v-36h-5v21.5l-5.8-21.5h-7.1v36h5.1V51.5L75.3,77.5z M50.4,47.9l2.7,18.2h-5.5L50.4,47.9z M54.8,41.5h-8.3l-5.8,36H46l1-6.5h6.9
			l1,6.5h5.7L54.8,41.5z M26,62.1h6.4v15.4h5.8v-36h-5.8V57H26V41.5h-5.7v36H26V62.1z M11.5,64.1v5.1c0,2.6-1.1,3.5-2.9,3.5
			s-2.9-0.9-2.9-3.5V49.8c0-2.6,1.1-3.5,2.9-3.5s2.9,1,2.9,3.5v3.9h5.3v-3.5c0-5.8-2.9-9.1-8.4-9.1c-5.6,0-8.4,3.3-8.4,9.1v18.7
			C0,74.7,2.9,78,8.4,78c5.6,0,8.4-3.3,8.4-9.1v-4.8H11.5z"/>
	</g>
</g>
</svg>
