<?xml version="1.0" encoding="UTF-8"?>
<svg id="Layer_1" data-name="Layer 1" xmlns="http://www.w3.org/2000/svg" xmlns:xlink="http://www.w3.org/1999/xlink" version="1.1" viewBox="0 0 1842 1045.5">
  <defs>
    <style>
      .cls-1 {
        clip-path: url(#clippath);
      }

      .cls-2 {
        fill: none;
      }

      .cls-2, .cls-3 {
        stroke-width: 0px;
      }

      .cls-3 {
        fill: #000;
      }
    </style>
    <clipPath id="clippath">
      <rect class="cls-2" width="1842" height="1045.5"/>
    </clipPath>
  </defs>
  <g class="cls-1">
    <path class="cls-3" d="M531.1,745.4l30.7,100.5,50.2-15.4-3.1-10,10-3.1-24.6-80.4-10,3.1-3.1-10-50.2,15.4ZM429.8,809.4l-10,3.1,9.2,30.1,60.3-18.4-9.2-30.1-10,3.1-3.1-10-10,3.1-3.1-10-20.1,6.1,3.1,10-10,3.1,3.1,10ZM303,826.2l-10,3.1,24.6,80.4,10-3.1,3.1,10,40.2-12.3-3.1-10,10-3.1-24.6-80.4-10,3.1-3.1-10-40.2,12.3,3.1,10ZM1673.6,215.9l12.7,41.4-97.3,29.7c-9.1,2.8-22.3,1.3-39.6-4.6-15.9-5.4-28.1-11.5-36.6-18.3-16-12.9-27.1-29.7-33.5-50.5-2.4-7.9-3-24.1-1.7-48.6,3.1-17.1,9.1-32.1,18.1-45.1,10.4-15.2,23.4-25.2,38.8-29.9l92.1-28.1,12.7,41.4-89.4,27.3-4,4.1-11.8,12.6-12.4,25.6c-1,10.6-.4,19.7,2,27.3,3.4,11,11.1,21.4,23.2,31.2,13.7,11.3,26.2,15.3,37.5,11.8l89.4-27.3-88.8-52.6,66.5-20.3,22.3,73ZM1430.3,122l59.7,195.4-130.2-67,58.9-18-29.9-97.7,41.4-12.7ZM1356.6,251.1l-58.9,18,29.9,97.7-41.4,12.7-59.7-195.4,130.2,67ZM1199.7,192.9l59.6,195-42.2,12.9-59.6-195,42.2-12.9ZM1164.3,310.1l-42,12.8c-4.2-13.7-12.5-24.7-24.8-33.1-14.4-9.4-30.1-11.5-47-6.3l-80.6,24.6-12.7-41.6,79.4-24.3c26.9-8.2,52.9-5.8,77.8,7.2,24.9,13,41.6,33.2,49.9,60.6M950.1,606.4l10-3.1,3.1,10,10-3.1,6.1,20.1-20.1,6.1-3.1-10-10,3.1-3.1-10-40.2,12.3,3.1,10-10,3.1,24.6,80.4,10-3.1,3.1,10,40.2-12.3-3.1-10,10-3.1-9.2-30.1-40.2,12.3-6.1-20.1,60.3-18.4,18.4,60.3-10,3.1,3.1,10-10,3.1,3.1,10-60.3,18.4-3.1-10-10,3.1-3.1-10-10,3.1-30.7-100.5,10-3.1-3.1-10,10-3.1-3.1-10,60.3-18.4,3.1,10ZM948.8,419.5l-106.5,32.6-13,64-46.2,14.1,45.8-227.7,119.9,117ZM775.3,681.8l10-3.1,3.1,10,10-3.1,3.1,10,10-3.1,3.1,10,10-3.1,3.1,10,10-3.1,3.1,10,10-3.1-24.6-80.4,20.1-6.1,43,140.7-20.1,6.1-9.2-30.1-10,3.1-3.1-10-10,3.1-3.1-10-10,3.1-3.1-10-10,3.1-3.1-10-10,3.1-3.1-10-10,3.1,24.6,80.4-20.1,6.1-43-140.7,20.1-6.1,9.2,30.1ZM754.2,542.3l-201.1,61.2-35.8-119.4,74.2-22.7,12.5,41-31.8,9.7,11.4,37.2,158-48.3,12.6,41.2ZM707.3,388.1l-200.6,61.3-12.5-40.8,200.6-61.3,12.5,40.8ZM490.9,622.8l-158,48.3-59.7-195.4,84.4-25.8,47,153.7,73.6-22.5,12.7,41.6ZM252.2,527l-86.8,26.5c-11.5,3.5-19.7,14.5-24.4,33-3.9,15.4-4.5,27.6-1.8,36.6,5.8,19,16.6,31.4,32.2,37.2,14.2,5.2,30.9,4.8,50.2-1.1l64.9-19.8,12.7,41.6-94.7,28.9-18.7,1.5c-6.5-.8-13.9-2.7-22-5.8-15.9-6.4-29.8-15.5-41.7-27.2-13.7-12.8-22.9-26.7-27.5-41.7-5.6-18.2-5.6-38.4,0-60.6,4.6-10.5,11.2-22.3,19.9-35.5,11.4-14.5,21.5-23,30.4-25.8l94.7-28.9,12.5,41ZM143.1,842.1l20.1-6.1,36.9,120.6,80.4-24.6,6.1,20.1-100.5,30.7-43-140.7ZM300.5,925.8l-30.7-100.5,10-3.1-3.1-10,10-3.1-3.1-10,60.3-18.4,3.1,10,10-3.1,3.1,10,10-3.1,30.7,100.5-10,3.1,3.1,10-10,3.1,3.1,10-60.3,18.4-3.1-10-10,3.1-3.1-10-10,3.1ZM427.3,909.1l-30.7-100.5,10-3.1-3.1-10,10-3.1-3.1-10,10-3.1-3.1-10,10-3.1-3.1-10,20.1-6.1,3.1,10,10-3.1,3.1,10,10-3.1,3.1,10,10-3.1,3.1,10,10-3.1,30.7,100.5-20.1,6.1-12.3-40.2-60.3,18.4,12.3,40.2-20.1,6.1ZM547.8,872.2l-43-140.7,80.4-24.6,3.1,10,10-3.1,3.1,10,10-3.1,30.7,100.5-10,3.1,3.1,10-10,3.1,3.1,10-80.4,24.6ZM645.5,688.5l60.3-18.4,6.1,20.1-20.1,6.1,30.7,100.5,20.1-6.1,6.1,20.1-60.3,18.4-6.1-20.1,20.1-6.1-30.7-100.5-20.1,6.1-6.1-20.1ZM1038,455.3l-42,12.8-29.8-97.5,42-12.8,29.8,97.5ZM1064.3,692.3l20.1-6.1,6.1,20.1-20.1,6.1-6.1-20.1ZM1141.3,423.9l-130.1-66.8,52.9-16.2,130.1,66.8-52.9,16.2ZM1184.9,655.5l20.1-6.1,6.1,20.1-20.1,6.1-6.1-20.1ZM1305.5,618.6l20.1-6.1,6.1,20.1-20.1,6.1-6.1-20.1ZM1842,0H0v1045.5h1842V0Z"/>
  </g>
</svg>