<?xml version="1.0" encoding="UTF-8"?>
<svg id="Layer_1" xmlns="http://www.w3.org/2000/svg" xmlns:xlink="http://www.w3.org/1999/xlink" version="1.1" viewBox="0 0 283.46 283.46">
  <!-- Generator: Adobe Illustrator 29.6.0, SVG Export Plug-In . SVG Version: 2.1.1 Build 207)  -->
  <defs>
    <style>
      .st0 {
        fill: none;
      }

      .st1 {
        fill: #06c;
      }

      .st2 {
        fill: #fff;
      }

      .st3 {
        clip-path: url(#clippath);
      }
    </style>
    <clipPath id="clippath">
      <rect class="st0" x="0" y="0" width="283.46" height="283.46"/>
    </clipPath>
  </defs>
  <rect class="st1" x="0" y="0" width="283.46" height="283.46"/>
  <g class="st3">
    <path class="st2" d="M159.45,126.97c0,17.94-14.54,32.48-32.48,32.48s-32.48-14.54-32.48-32.48,14.54-32.48,32.48-32.48,32.48,14.54,32.48,32.48M209.14,192.43l-35.04-35.04c5.67-8.77,8.98-19.21,8.98-30.42,0-30.99-25.12-56.1-56.1-56.1s-56.1,25.12-56.1,56.1,25.12,56.1,56.1,56.1c11.22,0,21.66-3.31,30.42-8.98l35.04,35.04c4.61,4.61,12.09,4.61,16.7,0,4.61-4.61,4.61-12.09,0-16.7"/>
  </g>
</svg>