<?xml version="1.0" encoding="UTF-8"?>
<svg id="Layer_1" xmlns="http://www.w3.org/2000/svg" version="1.1" viewBox="0 0 283.46 283.46">
  <!-- Generator: Adobe Illustrator 29.6.0, SVG Export Plug-In . SVG Version: 2.1.1 Build 207)  -->
  <defs>
    <style>
      .st0 {
        fill: #fff;
      }

      .st1 {
        fill: #06c;
      }
    </style>
  </defs>
  <rect class="st1" width="283.46" height="283.46"/>
  <path class="st0" d="M162.99,124.01c0,21.53-17.45,38.98-38.98,38.98s-38.98-17.45-38.98-38.98,17.45-38.98,38.98-38.98,38.98,17.45,38.98,38.98M222.62,202.58l-42.05-42.05c6.81-10.52,10.77-23.05,10.77-36.51,0-37.18-30.14-67.32-67.32-67.32s-67.32,30.14-67.32,67.32,30.14,67.32,67.32,67.32c13.46,0,25.99-3.97,36.51-10.77l42.05,42.05c5.54,5.54,14.51,5.54,20.04,0,5.54-5.53,5.54-14.51,0-20.04"/>
</svg>