<?xml version="1.0" encoding="UTF-8"?>
<svg id="Layer_1" xmlns="http://www.w3.org/2000/svg" version="1.1" viewBox="0 0 155.9 170.08">
  <!-- Generator: Adobe Illustrator 29.4.0, SVG Export Plug-In . SVG Version: 2.1.0 Build 152)  -->
  <defs>
    <style>
      .st0 {
        fill: #fff;
      }
    </style>
  </defs>
  <path class="st0" d="M24.8,85.04c0-28.28,11.06-53.96,29.07-73l-10.85-6.22C19.26-7.82,0,3.34,0,30.74v108.61c0,27.4,19.26,38.56,43.03,24.92l10.85-6.22c-18.01-19.04-29.07-44.72-29.07-73M109.88,44.16l-36.9-21.17c-16.56,15.52-26.91,37.57-26.91,62.05s10.36,46.53,26.91,62.04l36.9-21.17c-14.75-7.68-24.84-23.1-24.84-40.88s10.08-33.2,24.84-40.88M155.9,85.04c0-13.7-11.1-24.8-24.8-24.8s-24.8,11.11-24.8,24.8,11.11,24.8,24.8,24.8,24.8-11.11,24.8-24.8"/>
</svg>