<?xml version="1.0" encoding="utf-8"?>
<!-- Generator: Adobe Illustrator 20.1.0, SVG Export Plug-In . SVG Version: 6.00 Build 0)  -->
<svg version="1.1" id="Layer_1" xmlns="http://www.w3.org/2000/svg" xmlns:xlink="http://www.w3.org/1999/xlink" x="0px" y="0px"
	 viewBox="0 0 170.1 95.5" style="enable-background:new 0 0 170.1 95.5;" xml:space="preserve">
<style type="text/css">
	.st0{fill:#2B74BA;}
</style>
<g>
	<path class="st0" d="M64.3,54c-0.4,0.4-0.6,0.8-0.7,1.4h3.7c0-0.6-0.2-1.1-0.5-1.5c-0.3-0.3-0.7-0.5-1.2-0.5
		C65.1,53.4,64.6,53.6,64.3,54 M92.2,58c0.4-0.5,0.6-1.1,0.6-1.9c0-0.8-0.2-1.5-0.6-2c-0.4-0.5-0.9-0.7-1.6-0.7
		c-0.7,0-1.3,0.2-1.7,0.7c-0.4,0.5-0.6,1.1-0.6,2c0,0.8,0.2,1.4,0.6,1.9s1,0.7,1.7,0.7C91.2,58.7,91.8,58.5,92.2,58 M97.4,71.6
		c-0.7-1-2-1.4-3.1-1.2c-1.4,0.2-2.4,1.5-2.6,2.8c-0.3,1.6-0.3,3.5,0.7,4.8c1.1,1.5,3.5,1.5,4.7,0.1c0.8-0.8,1-2,1-3.1
		C98.1,73.9,98.2,72.6,97.4,71.6 M110.4,75.7c0.1-1.5,0-3.1-1-4.3c-0.9-1-2.4-1.2-3.6-0.8c-2.6,0.8-3,4.2-2.2,6.4
		c0.6,2,3.2,2.8,4.9,1.9C109.7,78.3,110.3,76.9,110.4,75.7 M154.9,77.9c1-1.7,1-3.6,1-5.5c0-1.8-0.1-3.8-1.1-5.4
		c-0.6-1-1.9-1.3-2.9-0.9c-1.6,0.6-2,2.5-2.2,4c-0.2,2.1-0.3,4.3,0.2,6.3c0.2,1,0.8,2.1,1.8,2.5C152.7,79.5,154.2,79,154.9,77.9
		 M157.7,72.4c0,2.3-0.3,4.7-1.7,6.6c-1.3,1.8-4.1,2.2-5.9,0.9c-1.5-1-2-2.9-2.3-4.6c-0.3-2.5-0.3-5.2,0.6-7.6
		c0.6-1.6,1.9-3,3.7-3.2c1.5-0.3,3.2,0.3,4.1,1.6C157.5,68,157.6,70.3,157.7,72.4 M145.1,80.4h-1.7c0-4.4,0-8.8,0-13.2
		c-1.1,0.8-2.3,1.4-3.6,1.8c0-0.6,0-1.2,0-1.8c1.7-0.6,3.3-1.5,4.7-2.6c0.2,0,0.5-0.1,0.6-0.1C145.1,69.8,145.1,75.1,145.1,80.4
		 M130.6,73.3c1.3,0.8,2.9,1,4.1,2.1c1.3,1.2,1,3.5-0.5,4.4c-1.8,1.1-4.1,1-6,0.2c0-0.7,0-1.3,0-2c1.3,1,3.2,1.6,4.8,0.9
		c0.9-0.5,1-1.9,0.2-2.5c-1.3-0.9-3-1.1-4.2-2.3c-1.1-1.1-0.9-3.2,0.3-4.2c0.6-0.6,1.5-0.8,2.3-1c1.1-0.1,2.2,0,3.3,0.4
		c0.3,0.5,0.1,1.3,0.1,1.9c-1.2-0.8-2.9-1.3-4.3-0.5C129.8,71.3,129.7,72.7,130.6,73.3 M127.7,69.2c-1.1,3.7-2.2,7.5-3.3,11.2h-1.8
		c-0.8-3-1.8-6-2.5-9c-0.8,3.1-1.8,6-2.7,9h-1.8c-1.1-3.7-2.2-7.4-3.3-11.2h1.8c0.7,2.7,1.4,5.3,2.2,8c0.2,0.5,0.2,1,0.3,1.5
		c0.8-3.2,1.9-6.3,2.8-9.5c0.5,0,1.1,0,1.6,0c0.8,3.2,1.8,6.3,2.5,9.5c0.7-3.2,1.7-6.3,2.4-9.5C126.5,69.2,127.1,69.2,127.7,69.2
		 M112.2,75.1c0,1.6-0.6,3.2-1.8,4.3c-2.4,2.2-6.9,1.7-8.4-1.3c-1.2-2.5-1-6,1.2-7.9c0.8-0.7,1.8-1,2.8-1.2c1.6-0.1,3.3,0.1,4.5,1.2
		C111.9,71.4,112.3,73.3,112.2,75.1 M101.2,59.5h-1.1v-3.9c0-1.4-0.5-2.2-1.6-2.2c-0.5,0-1,0.2-1.4,0.6c-0.4,0.4-0.5,0.9-0.5,1.6
		v3.9h-1.1v-6.8h1.1v1.1h0c0.5-0.9,1.3-1.3,2.2-1.3c0.7,0,1.3,0.2,1.7,0.7c0.4,0.5,0.6,1.2,0.6,2.1V59.5z M98.1,70.7
		c0-2.3,0-4.5,0-6.8c0.6,0,1.2,0,1.8,0v16.4h-1.8c0-0.6,0-1.2,0-1.8c-1.3,2.3-4.7,2.8-6.6,1.1c-1.4-1.2-1.8-3.1-1.7-4.9
		c0-1.8,0.6-3.7,2-4.8C93.5,68.4,96.8,68.5,98.1,70.7 M93.8,56.1c0,1.1-0.3,2-0.9,2.6c-0.6,0.7-1.4,1-2.5,1c-1,0-1.8-0.3-2.4-1
		s-0.9-1.5-0.9-2.5c0-1.1,0.3-2,0.9-2.7c0.6-0.6,1.5-1,2.5-1c1,0,1.8,0.3,2.4,0.9C93.6,54.1,93.8,54.9,93.8,56.1 M88.1,73
		c0.1,2.4,0,4.9,0,7.3c-0.6,0-1.2,0-1.8,0c0-2.3,0.1-4.7,0-7c0-1.2-0.5-2.6-1.8-2.9c-1.8-0.6-3.7,1.1-3.7,2.9c-0.1,2.3,0,4.6,0,7H79
		c0-3.7,0-7.4,0-11.2h1.8c0,0.6,0,1.2,0,1.8c1-1.8,3.4-2.6,5.2-1.8C87.5,69.8,88,71.5,88.1,73 M83.6,59.4c-0.3,0.1-0.6,0.2-1,0.2
		c-1.2,0-1.8-0.7-1.8-2v-4h-1.2v-0.9h1.2V51l1.1-0.4v2h1.7v0.9h-1.7v3.8c0,0.5,0.1,0.8,0.2,1s0.4,0.3,0.8,0.3c0.3,0,0.5-0.1,0.7-0.2
		V59.4z M78.5,50.2c0,0.2-0.1,0.4-0.2,0.5c-0.1,0.1-0.3,0.2-0.5,0.2c-0.2,0-0.4-0.1-0.5-0.2c-0.1-0.1-0.2-0.3-0.2-0.5
		c0-0.2,0.1-0.4,0.2-0.5c0.1-0.1,0.3-0.2,0.5-0.2c0.2,0,0.4,0.1,0.5,0.2C78.4,49.9,78.5,50,78.5,50.2 M76.2,65.6
		C76,66.3,75,66.5,74.5,66c-0.7-0.5-0.6-1.7,0.2-2C75.6,63.5,76.8,64.7,76.2,65.6 M73.2,59.4c-0.3,0.1-0.6,0.2-1,0.2
		c-1.2,0-1.8-0.7-1.8-2v-4h-1.2v-0.9h1.2V51l1.1-0.4v2h1.7v0.9h-1.7v3.8c0,0.5,0.1,0.8,0.2,1s0.4,0.3,0.8,0.3c0.3,0,0.5-0.1,0.7-0.2
		V59.4z M68.4,56.4h-4.8c0,0.8,0.2,1.3,0.6,1.8c0.4,0.4,0.9,0.6,1.6,0.6c0.8,0,1.5-0.3,2.1-0.8v1c-0.6,0.4-1.4,0.7-2.4,0.7
		c-1,0-1.7-0.3-2.3-0.9c-0.5-0.6-0.8-1.5-0.8-2.6c0-1.1,0.3-1.9,0.9-2.6c0.6-0.7,1.3-1,2.2-1c0.9,0,1.6,0.3,2.1,0.9
		c0.5,0.6,0.7,1.4,0.7,2.4V56.4z M62.1,64.5c0.6,0,1.1,0,1.7,0c0.9,3.2,1.8,6.5,2.7,9.7c0.3,1.3,0.8,2.6,0.9,3.9
		c1-4.6,2.4-9,3.5-13.6c0.7,0,1.3,0,2,0c-1.4,5.2-2.9,10.4-4.3,15.6h-2.1c-1-3.7-2.1-7.5-3.1-11.2c-0.2-0.6-0.2-1.2-0.3-1.8
		c-0.1,0.5-0.2,1.1-0.3,1.6c-1.1,3.8-2.1,7.6-3.2,11.4c-0.7,0-1.4,0-2.1,0c-1.5-5.2-3-10.4-4.5-15.6c0.7,0,1.3,0,2,0
		c1,3.7,2,7.4,3.1,11.2c0.2,0.8,0.4,1.6,0.5,2.4C59.4,73.5,60.9,69,62.1,64.5 M60.9,58.8c-1,0.5-2,0.8-3.2,0.8
		c-1.4,0-2.5-0.4-3.3-1.3c-0.8-0.9-1.3-2-1.3-3.5c0-1.5,0.5-2.7,1.4-3.6c0.9-0.9,2.1-1.4,3.5-1.4c1,0,1.9,0.2,2.6,0.5v1.2
		c-0.8-0.5-1.7-0.7-2.7-0.7c-1.1,0-1.9,0.4-2.6,1.1c-0.7,0.7-1,1.7-1,2.9c0,1.2,0.3,2.2,1,2.8c0.6,0.7,1.5,1,2.6,1
		c0.7,0,1.4-0.1,1.9-0.4v-2.7h-2.1v-1h3.2V58.8z M43.5,63.7c-5.6,0-11.2,0.1-16.9,0.1c0-4.2,0-8.3,0-12.5c5.6-0.9,11.2-1.7,16.9-2.4
		C43.5,53.8,43.5,58.7,43.5,63.7 M26.6,65.3h16.9c0,4.9,0,9.8,0,14.7c-5.6-0.8-11.2-1.6-16.9-2.4C26.6,73.6,26.6,69.4,26.6,65.3
		 M25.1,63.8c-4.2,0-8.5,0.1-12.7,0V53.3c4.2-0.7,8.5-1.2,12.7-1.7C25.1,55.6,25.1,59.7,25.1,63.8 M12.4,65.2c4.2,0,8.5,0.1,12.7,0
		c0,4.1,0,8.2,0,12.3c-4.2-0.6-8.5-1.2-12.7-1.7V65.2z M74.3,69.2c0.6,0,1.2,0,1.8,0v11.2h-1.8C74.3,76.6,74.3,72.9,74.3,69.2
		 M77.2,52.7h1.1v6.8h-1.1V52.7z M170.1,34.1H0v61.4h170.1V34.1z"/>
	<path class="st0" d="M170.1,11.5c0-3.5-1.5-5.3-4.4-5.3c-1.9,0-3.3,0.8-4.3,2.5h-0.1V0.3h-2.1v19.3h2.1v-7.4c0-1.2,0.3-2.2,1-3
		S163.9,8,165,8c2,0,3,1.4,3,4.1v7.5h2.1V11.5z M150.9,19.9c0.7,0,1.3-0.1,1.9-0.2c0.6-0.2,1.2-0.4,1.6-0.7c0.5-0.3,0.9-0.7,1.1-1.2
		c0.3-0.5,0.4-1,0.4-1.7c0-0.5-0.1-1-0.3-1.4c-0.2-0.4-0.4-0.7-0.7-1c-0.3-0.3-0.7-0.6-1.2-0.8c-0.5-0.2-1-0.5-1.6-0.7
		c-0.4-0.2-0.8-0.3-1.2-0.5c-0.3-0.1-0.6-0.3-0.9-0.5c-0.2-0.2-0.4-0.4-0.5-0.6c-0.1-0.2-0.2-0.5-0.2-0.9c0-0.3,0.1-0.5,0.2-0.7
		c0.1-0.2,0.3-0.4,0.5-0.6c0.2-0.2,0.5-0.3,0.8-0.4c0.3-0.1,0.7-0.1,1.1-0.1c1.2,0,2.4,0.3,3.3,0.9V6.8c-0.9-0.4-1.9-0.6-3-0.6
		c-0.6,0-1.3,0.1-1.9,0.2c-0.6,0.2-1.1,0.4-1.6,0.7c-0.5,0.3-0.8,0.7-1.1,1.2c-0.3,0.5-0.4,1-0.4,1.6c0,0.5,0.1,0.9,0.2,1.3
		c0.1,0.4,0.4,0.7,0.7,1s0.7,0.6,1.1,0.8c0.4,0.2,0.9,0.5,1.5,0.7c0.4,0.2,0.8,0.3,1.2,0.5c0.4,0.1,0.7,0.3,0.9,0.5
		c0.3,0.2,0.5,0.4,0.6,0.6c0.2,0.2,0.2,0.5,0.2,0.9c0,1.2-0.9,1.8-2.8,1.8c-1.4,0-2.6-0.4-3.8-1.3v2.2
		C148.4,19.6,149.6,19.9,150.9,19.9 M135.9,11.8c0.2-1.1,0.6-2.1,1.3-2.8c0.7-0.7,1.5-1.1,2.5-1.1c1,0,1.8,0.3,2.4,1
		c0.6,0.7,0.9,1.6,0.9,2.8H135.9z M145,12.5c0-2-0.5-3.5-1.4-4.6c-0.9-1.1-2.3-1.7-4-1.7c-1.7,0-3.1,0.6-4.3,1.9
		c-1.1,1.3-1.7,2.9-1.7,5c0,2.1,0.5,3.8,1.6,5c1.1,1.2,2.5,1.8,4.3,1.8c1.9,0,3.4-0.4,4.5-1.2v-2c-1.2,1-2.6,1.5-4,1.5
		c-1.3,0-2.3-0.4-3.1-1.2c-0.7-0.8-1.1-1.9-1.2-3.4h9.2V12.5z M132.6,6.5c-0.3-0.1-0.7-0.2-1.2-0.2c-0.8,0-1.4,0.3-2.1,0.8
		c-0.6,0.5-1.1,1.2-1.4,2.1h-0.1V6.5h-2.1v13h2.1v-6.6c0-1.5,0.3-2.6,0.9-3.4c0.6-0.8,1.3-1.3,2.2-1.3c0.7,0,1.2,0.1,1.6,0.4V6.5z
		 M124.1,0.2c-0.4-0.2-0.9-0.2-1.5-0.2c-1.2,0-2.2,0.4-3,1.2c-0.8,0.8-1.2,1.9-1.2,3.2v2.1h-2.2v1.8h2.2v11.3h2.1V8.3h3.1V6.5h-3.1
		v-2c0-1.8,0.7-2.8,2.2-2.8c0.5,0,1,0.1,1.4,0.3V0.2z M105.3,11.8c0.2-1.1,0.6-2.1,1.3-2.8c0.7-0.7,1.5-1.1,2.5-1.1
		c1,0,1.8,0.3,2.4,1c0.6,0.7,0.9,1.6,0.9,2.8H105.3z M114.5,12.5c0-2-0.5-3.5-1.4-4.6c-0.9-1.1-2.3-1.7-4-1.7s-3.1,0.6-4.3,1.9
		c-1.2,1.3-1.7,2.9-1.7,5c0,2.1,0.5,3.8,1.6,5c1.1,1.2,2.5,1.8,4.3,1.8c1.9,0,3.4-0.4,4.5-1.2v-2c-1.2,1-2.6,1.5-4,1.5
		c-1.3,0-2.3-0.4-3.1-1.2c-0.7-0.8-1.1-1.9-1.2-3.4h9.2V12.5z M102.1,6.5c-0.3-0.1-0.7-0.2-1.2-0.2c-0.8,0-1.4,0.3-2,0.8
		c-0.6,0.5-1.1,1.2-1.4,2.1h-0.1V6.5h-2.1v13h2.1v-6.6c0-1.5,0.3-2.6,0.9-3.4c0.6-0.8,1.3-1.3,2.2-1.3c0.7,0,1.2,0.1,1.6,0.4V6.5z
		 M85.4,17.7C85,18,84.6,18.1,84,18.1c-0.7,0-1.2-0.2-1.5-0.6c-0.3-0.4-0.4-1-0.4-1.9V8.3h3.3V6.5h-3.3V2.7L80,3.4v3.2h-2.2v1.8H80
		V16c0,2.5,1.1,3.8,3.4,3.8c0.8,0,1.5-0.1,1.9-0.4V17.7z M67,11.8c0.2-1.1,0.6-2.1,1.3-2.8C69,8.3,69.8,8,70.8,8c1,0,1.8,0.3,2.4,1
		c0.6,0.7,0.9,1.6,0.9,2.8H67z M76.2,12.5c0-2-0.5-3.5-1.4-4.6c-0.9-1.1-2.3-1.7-4-1.7s-3.1,0.6-4.3,1.9c-1.2,1.3-1.7,2.9-1.7,5
		c0,2.1,0.5,3.8,1.6,5c1.1,1.2,2.5,1.8,4.3,1.8c1.9,0,3.4-0.4,4.5-1.2v-2c-1.2,1-2.6,1.5-4,1.5c-1.3,0-2.3-0.4-3.1-1.2
		C67.4,16.2,67,15,67,13.6h9.2V12.5z M53.4,11.8c0.2-1.1,0.6-2.1,1.3-2.8C55.3,8.3,56.2,8,57.2,8c1,0,1.8,0.3,2.4,1
		c0.6,0.7,0.9,1.6,0.9,2.8H53.4z M62.5,12.5c0-2-0.5-3.5-1.4-4.6c-0.9-1.1-2.3-1.7-4-1.7c-1.7,0-3.1,0.6-4.3,1.9
		c-1.2,1.3-1.7,2.9-1.7,5c0,2.1,0.5,3.8,1.6,5c1.1,1.2,2.5,1.8,4.3,1.8c1.9,0,3.4-0.4,4.5-1.2v-2c-1.2,1-2.6,1.5-4,1.5
		c-1.3,0-2.3-0.4-3.1-1.2c-0.7-0.8-1.1-1.9-1.2-3.4h9.2V12.5z M47.9,0.3h-2.1v19.3h2.1V0.3z M44.1,0.2C43.7,0.1,43.2,0,42.5,0
		c-1.2,0-2.2,0.4-3,1.2c-0.8,0.8-1.2,1.9-1.2,3.2v2.1h-2.2v1.8h2.2v11.3h2.1V8.3h3.1V6.5h-3.1v-2c0-1.8,0.7-2.8,2.2-2.8
		c0.5,0,1,0.1,1.4,0.3V0.2z M27,16.7c-1.3,0.8-2.9,1.2-4.8,1.2c-2,0-3.6-0.7-4.8-2s-1.8-3.1-1.8-5.3c0-2.3,0.7-4.2,2-5.6
		c1.3-1.4,3-2.1,5.1-2.1c1.6,0,3,0.4,4.3,1.1V1.8C25.9,1.3,24.5,1,22.7,1C20,1,17.8,1.9,16,3.7c-1.8,1.8-2.6,4.2-2.6,7.1
		c0,2.7,0.8,4.9,2.3,6.6c1.6,1.7,3.6,2.5,6.2,2.5c2,0,3.7-0.4,5-1.1V16.7z M4.6,3.3c2.9,0,4.3,1.2,4.3,3.6c0,1.2-0.4,2.2-1.2,2.9
		c-0.8,0.7-1.9,1-3.4,1H2.1V3.3H4.6z M4.5,12.7c2,0,3.6-0.6,4.8-1.7c1.2-1.1,1.8-2.5,1.8-4.3c0-1.7-0.5-3.1-1.6-4
		C8.5,1.8,7,1.3,5,1.3H0v18.3h2.1v-6.9H4.5z"/>
</g>
</svg>
