<?xml version="1.0" encoding="utf-8"?>
<!-- Generator: Adobe Illustrator 20.1.0, SVG Export Plug-In . SVG Version: 6.00 Build 0)  -->
<svg version="1.1" id="Layer_1" xmlns="http://www.w3.org/2000/svg" xmlns:xlink="http://www.w3.org/1999/xlink" x="0px" y="0px"
	 viewBox="0 0 141.7 120.5" style="enable-background:new 0 0 141.7 120.5;" xml:space="preserve">
<style type="text/css">
	.st0{fill:#2B74BA;}
</style>
<g>
	<g>
		<path class="st0" d="M141.7,113.5c0-3-1.2-4.4-3.7-4.4c-1.5,0-2.7,0.7-3.6,2.1h0v-7h-1.7v16.1h1.7v-6.2c0-1,0.3-1.9,0.9-2.5
			c0.6-0.7,1.3-1,2.1-1c1.7,0,2.5,1.1,2.5,3.4v6.3h1.7V113.5z M125.7,120.5c0.6,0,1.1-0.1,1.6-0.2c0.5-0.1,1-0.3,1.4-0.6
			c0.4-0.3,0.7-0.6,0.9-1c0.2-0.4,0.4-0.9,0.4-1.4c0-0.4-0.1-0.8-0.2-1.1c-0.1-0.3-0.4-0.6-0.6-0.8c-0.3-0.2-0.6-0.5-1-0.7
			c-0.4-0.2-0.8-0.4-1.3-0.6c-0.4-0.1-0.7-0.3-1-0.4c-0.3-0.1-0.5-0.3-0.7-0.4c-0.2-0.1-0.3-0.3-0.5-0.5c-0.1-0.2-0.2-0.4-0.2-0.7
			c0-0.2,0.1-0.4,0.2-0.6c0.1-0.2,0.2-0.3,0.4-0.5c0.2-0.1,0.4-0.2,0.7-0.3c0.3-0.1,0.6-0.1,0.9-0.1c1,0,2,0.3,2.8,0.8v-1.8
			c-0.7-0.3-1.6-0.5-2.5-0.5c-0.5,0-1,0.1-1.5,0.2c-0.5,0.1-0.9,0.3-1.3,0.6c-0.4,0.3-0.7,0.6-0.9,1c-0.2,0.4-0.4,0.8-0.4,1.4
			c0,0.4,0.1,0.8,0.2,1.1c0.1,0.3,0.3,0.6,0.6,0.8c0.2,0.2,0.5,0.5,0.9,0.7c0.4,0.2,0.8,0.4,1.3,0.6c0.3,0.1,0.7,0.3,1,0.4
			c0.3,0.1,0.6,0.3,0.8,0.4s0.4,0.3,0.5,0.5c0.1,0.2,0.2,0.4,0.2,0.7c0,1-0.8,1.5-2.3,1.5c-1.1,0-2.2-0.4-3.1-1.1v1.9
			C123.7,120.3,124.6,120.5,125.7,120.5 M113.2,113.7c0.1-0.9,0.5-1.7,1.1-2.3s1.3-0.9,2.1-0.9c0.8,0,1.5,0.3,2,0.8
			c0.5,0.6,0.7,1.3,0.7,2.3H113.2z M120.9,114.3c0-1.6-0.4-2.9-1.2-3.8c-0.8-0.9-1.9-1.4-3.3-1.4c-1.4,0-2.6,0.5-3.6,1.6
			c-1,1.1-1.4,2.4-1.4,4.1c0,1.8,0.4,3.2,1.3,4.2s2.1,1.5,3.6,1.5c1.6,0,2.8-0.3,3.8-1v-1.6c-1,0.8-2.2,1.2-3.4,1.2
			c-1.1,0-1.9-0.3-2.6-1c-0.6-0.7-0.9-1.6-1-2.8h7.7V114.3z M110.5,109.3c-0.2-0.1-0.6-0.1-1-0.1c-0.6,0-1.2,0.2-1.7,0.6
			c-0.5,0.4-0.9,1-1.1,1.8h0v-2.2h-1.7v10.9h1.7v-5.5c0-1.2,0.2-2.2,0.7-2.9c0.5-0.7,1.1-1.1,1.9-1.1c0.6,0,1,0.1,1.3,0.3V109.3z
			 M103.4,104.1c-0.3-0.1-0.7-0.2-1.3-0.2c-1,0-1.8,0.3-2.5,1c-0.7,0.7-1,1.6-1,2.7v1.8h-1.9v1.5h1.9v9.4h1.7v-9.4h2.5v-1.5h-2.5
			v-1.7c0-1.5,0.6-2.3,1.8-2.3c0.4,0,0.8,0.1,1.2,0.3V104.1z M87.8,113.7c0.1-0.9,0.5-1.7,1.1-2.3s1.3-0.9,2.1-0.9
			c0.8,0,1.5,0.3,2,0.8c0.5,0.6,0.7,1.3,0.7,2.3H87.8z M95.4,114.3c0-1.6-0.4-2.9-1.2-3.8c-0.8-0.9-1.9-1.4-3.3-1.4
			c-1.4,0-2.6,0.5-3.6,1.6c-1,1.1-1.4,2.4-1.4,4.1c0,1.8,0.4,3.2,1.3,4.2s2.1,1.5,3.6,1.5c1.6,0,2.8-0.3,3.8-1v-1.6
			c-1,0.8-2.2,1.2-3.4,1.2c-1.1,0-1.9-0.3-2.6-1c-0.6-0.7-0.9-1.6-1-2.8h7.7V114.3z M85.1,109.3c-0.2-0.1-0.6-0.1-1-0.1
			c-0.6,0-1.2,0.2-1.7,0.6c-0.5,0.4-0.9,1-1.1,1.8h0v-2.2h-1.7v10.9h1.7v-5.5c0-1.2,0.2-2.2,0.7-2.9c0.5-0.7,1.1-1.1,1.9-1.1
			c0.6,0,1,0.1,1.3,0.3V109.3z M71.2,118.6c-0.3,0.2-0.7,0.4-1.1,0.4c-0.6,0-1-0.2-1.2-0.5c-0.2-0.3-0.4-0.8-0.4-1.6v-6.1h2.7v-1.5
			h-2.7v-3.2l-1.7,0.6v2.7h-1.9v1.5h1.9v6.4c0,2.1,1,3.2,2.9,3.2c0.7,0,1.2-0.1,1.6-0.3V118.6z M55.8,113.7c0.1-0.9,0.5-1.7,1.1-2.3
			c0.6-0.6,1.3-0.9,2.1-0.9c0.8,0,1.5,0.3,2,0.8c0.5,0.6,0.7,1.3,0.7,2.3H55.8z M63.5,114.3c0-1.6-0.4-2.9-1.2-3.8
			c-0.8-0.9-1.9-1.4-3.3-1.4c-1.4,0-2.6,0.5-3.6,1.6c-1,1.1-1.4,2.4-1.4,4.1c0,1.8,0.4,3.2,1.3,4.2s2.1,1.5,3.6,1.5
			c1.6,0,2.8-0.3,3.8-1v-1.6c-1,0.8-2.1,1.2-3.4,1.2c-1.1,0-1.9-0.3-2.6-1c-0.6-0.7-0.9-1.6-1-2.8h7.7V114.3z M44.5,113.7
			c0.1-0.9,0.5-1.7,1.1-2.3c0.6-0.6,1.3-0.9,2.1-0.9c0.8,0,1.5,0.3,2,0.8c0.5,0.6,0.7,1.3,0.7,2.3H44.5z M52.1,114.3
			c0-1.6-0.4-2.9-1.2-3.8c-0.8-0.9-1.9-1.4-3.3-1.4c-1.4,0-2.6,0.5-3.6,1.6c-1,1.1-1.4,2.4-1.4,4.1c0,1.8,0.4,3.2,1.3,4.2
			c0.9,1,2.1,1.5,3.6,1.5c1.6,0,2.8-0.3,3.8-1v-1.6c-1,0.8-2.2,1.2-3.4,1.2c-1.1,0-1.9-0.3-2.6-1c-0.6-0.7-0.9-1.6-1-2.8h7.7V114.3z
			 M39.9,104.1h-1.7v16.1h1.7V104.1z M36.7,104.1c-0.3-0.1-0.7-0.2-1.3-0.2c-1,0-1.8,0.3-2.5,1c-0.7,0.7-1,1.6-1,2.7v1.8h-1.9v1.5
			H32v9.4h1.7v-9.4h2.5v-1.5h-2.5v-1.7c0-1.5,0.6-2.3,1.8-2.3c0.4,0,0.8,0.1,1.2,0.3V104.1z M22.5,117.9c-1.1,0.7-2.4,1-4,1
			c-1.6,0-3-0.6-4-1.7c-1-1.1-1.5-2.6-1.5-4.4c0-2,0.5-3.5,1.6-4.7s2.5-1.8,4.2-1.8c1.3,0,2.5,0.3,3.6,0.9v-1.9
			c-0.9-0.4-2.1-0.6-3.6-0.6c-2.2,0-4.1,0.7-5.6,2.2c-1.5,1.5-2.2,3.5-2.2,5.9c0,2.3,0.7,4.1,2,5.5c1.3,1.4,3,2.1,5.2,2.1
			c1.7,0,3.1-0.3,4.2-0.9V117.9z M3.9,106.6c2.4,0,3.6,1,3.6,3c0,1-0.3,1.8-1,2.4c-0.6,0.6-1.6,0.8-2.8,0.8H1.8v-6.2H3.9z
			 M3.8,114.5c1.7,0,3-0.5,4-1.4c1-0.9,1.5-2.1,1.5-3.5S8.9,107,8,106.2c-0.9-0.8-2.2-1.2-3.8-1.2H0v15.2h1.8v-5.8H3.8z"/>
	</g>
	<path class="st0" d="M23.6,9.4h94.5v66.1H23.6V9.4z M14.2,0v85h47.2h18.9h47.2V0H14.2z"/>
	<g>
		<path class="st0" d="M66.6,43.6c-6.4,0-12.8-0.1-19.2-0.1v16c6.4,0.9,12.8,1.7,19.3,2.6C66.6,56,66.6,49.8,66.6,43.6 M47.3,41.6
			c6.4,0,12.8-0.1,19.3-0.1c0-6.2,0-12.4,0-18.6c-6.4,0.8-12.9,1.7-19.3,2.6V41.6z M94.4,43.8H68.9c0,6.2,0,12.5,0,18.7
			c8.5,1.2,17,2.3,25.5,3.6C94.4,58.7,94.4,51.3,94.4,43.8 M94.4,41.3c0-7.5,0-14.9,0-22.4c-8.5,1.2-17,2.4-25.5,3.7
			c0,6.3,0,12.6,0,18.9C77.4,41.4,85.9,41.3,94.4,41.3"/>
	</g>
</g>
</svg>
