<?xml version="1.0" encoding="utf-8"?>
<!-- Generator: Adobe Illustrator 20.1.0, SVG Export Plug-In . SVG Version: 6.00 Build 0)  -->
<svg version="1.1" id="Layer_1" xmlns="http://www.w3.org/2000/svg" xmlns:xlink="http://www.w3.org/1999/xlink" x="0px" y="0px"
	 viewBox="0 0 170.1 37.2" style="enable-background:new 0 0 170.1 37.2;" xml:space="preserve">
<style type="text/css">
	.st0{fill:#FFFFFF;}
</style>
<g>
	<path class="st0" d="M154.1,7.1c0-2.2-0.9-3.2-2.7-3.2c-1.1,0-2,0.5-2.6,1.5h0V0.2h-1.3V12h1.3V7.5c0-0.8,0.2-1.4,0.6-1.8
		c0.4-0.5,0.9-0.7,1.6-0.7c1.2,0,1.9,0.8,1.9,2.5V12h1.3V7.1z M142.3,12.1c0.4,0,0.8,0,1.2-0.1c0.4-0.1,0.7-0.2,1-0.4
		c0.3-0.2,0.5-0.4,0.7-0.7c0.2-0.3,0.3-0.6,0.3-1c0-0.3-0.1-0.6-0.2-0.8c-0.1-0.2-0.3-0.4-0.5-0.6c-0.2-0.2-0.4-0.3-0.7-0.5
		c-0.3-0.1-0.6-0.3-0.9-0.4c-0.3-0.1-0.5-0.2-0.7-0.3c-0.2-0.1-0.4-0.2-0.5-0.3c-0.1-0.1-0.3-0.2-0.3-0.4c-0.1-0.1-0.1-0.3-0.1-0.5
		c0-0.2,0-0.3,0.1-0.5c0.1-0.1,0.2-0.3,0.3-0.4c0.1-0.1,0.3-0.2,0.5-0.2c0.2-0.1,0.4-0.1,0.6-0.1c0.8,0,1.4,0.2,2,0.6V4.2
		c-0.5-0.2-1.2-0.4-1.9-0.4c-0.4,0-0.8,0-1.1,0.1c-0.4,0.1-0.7,0.2-1,0.4c-0.3,0.2-0.5,0.4-0.7,0.7c-0.2,0.3-0.3,0.6-0.3,1
		c0,0.3,0,0.6,0.1,0.8s0.2,0.4,0.4,0.6c0.2,0.2,0.4,0.3,0.7,0.5c0.3,0.1,0.6,0.3,0.9,0.4c0.3,0.1,0.5,0.2,0.7,0.3
		c0.2,0.1,0.4,0.2,0.6,0.3c0.2,0.1,0.3,0.2,0.4,0.4c0.1,0.1,0.1,0.3,0.1,0.5c0,0.7-0.6,1.1-1.7,1.1c-0.8,0-1.6-0.3-2.3-0.8v1.4
		C140.8,12,141.5,12.1,142.3,12.1 M133.2,7.2c0.1-0.7,0.4-1.3,0.8-1.7c0.4-0.4,0.9-0.6,1.5-0.6c0.6,0,1.1,0.2,1.5,0.6
		c0.4,0.4,0.5,1,0.5,1.7H133.2z M138.8,7.6c0-1.2-0.3-2.1-0.9-2.8c-0.6-0.7-1.4-1-2.4-1c-1,0-1.9,0.4-2.6,1.2
		c-0.7,0.8-1.1,1.8-1.1,3c0,1.3,0.3,2.3,1,3.1c0.6,0.7,1.5,1.1,2.7,1.1c1.2,0,2.1-0.3,2.8-0.8v-1.2c-0.8,0.6-1.6,0.9-2.5,0.9
		c-0.8,0-1.4-0.2-1.9-0.7c-0.5-0.5-0.7-1.2-0.7-2.1h5.6V7.6z M131.2,4c-0.2-0.1-0.4-0.1-0.8-0.1c-0.5,0-0.9,0.2-1.3,0.5
		c-0.4,0.3-0.7,0.8-0.8,1.3h0V4H127v8h1.3V7.9c0-0.9,0.2-1.6,0.5-2.1c0.4-0.5,0.8-0.8,1.4-0.8c0.4,0,0.7,0.1,1,0.3V4z M126,0.1
		C125.8,0,125.5,0,125.1,0c-0.7,0-1.3,0.2-1.8,0.7c-0.5,0.5-0.7,1.1-0.7,2V4h-1.4v1.1h1.4V12h1.3V5.1h1.9V4h-1.9V2.8
		c0-1.1,0.4-1.7,1.3-1.7c0.3,0,0.6,0.1,0.8,0.2V0.1z M114.5,7.2c0.1-0.7,0.4-1.3,0.8-1.7c0.4-0.4,0.9-0.6,1.5-0.6
		c0.6,0,1.1,0.2,1.5,0.6c0.3,0.4,0.5,1,0.5,1.7H114.5z M120.1,7.6c0-1.2-0.3-2.1-0.9-2.8c-0.6-0.7-1.4-1-2.4-1s-1.9,0.4-2.6,1.2
		c-0.7,0.8-1.1,1.8-1.1,3c0,1.3,0.3,2.3,1,3.1c0.6,0.7,1.5,1.1,2.7,1.1c1.2,0,2.1-0.3,2.8-0.8v-1.2c-0.8,0.6-1.6,0.9-2.5,0.9
		c-0.8,0-1.4-0.2-1.9-0.7c-0.5-0.5-0.7-1.2-0.7-2.1h5.6V7.6z M112.5,4c-0.2-0.1-0.4-0.1-0.8-0.1c-0.5,0-0.9,0.2-1.3,0.5
		c-0.4,0.3-0.7,0.8-0.8,1.3h0V4h-1.3v8h1.3V7.9c0-0.9,0.2-1.6,0.5-2.1c0.4-0.5,0.8-0.8,1.4-0.8c0.4,0,0.7,0.1,1,0.3V4z M102.3,10.8
		c-0.2,0.2-0.5,0.3-0.8,0.3c-0.4,0-0.7-0.1-0.9-0.3c-0.2-0.2-0.3-0.6-0.3-1.1V5.1h2V4h-2V1.6L99,2.1V4h-1.4v1.1H99v4.7
		c0,1.6,0.7,2.3,2.1,2.3c0.5,0,0.9-0.1,1.2-0.2V10.8z M91.1,7.2c0.1-0.7,0.4-1.3,0.8-1.7c0.4-0.4,0.9-0.6,1.5-0.6
		c0.6,0,1.1,0.2,1.5,0.6c0.3,0.4,0.5,1,0.5,1.7H91.1z M96.7,7.6c0-1.2-0.3-2.1-0.9-2.8c-0.6-0.7-1.4-1-2.4-1S91.5,4.2,90.8,5
		c-0.7,0.8-1.1,1.8-1.1,3c0,1.3,0.3,2.3,1,3.1c0.6,0.7,1.5,1.1,2.7,1.1c1.2,0,2.1-0.3,2.8-0.8v-1.2c-0.8,0.6-1.6,0.9-2.5,0.9
		c-0.8,0-1.4-0.2-1.9-0.7c-0.5-0.5-0.7-1.2-0.7-2.1h5.6V7.6z M82.8,7.2c0.1-0.7,0.4-1.3,0.8-1.7c0.4-0.4,0.9-0.6,1.5-0.6
		c0.6,0,1.1,0.2,1.5,0.6c0.3,0.4,0.5,1,0.5,1.7H82.8z M88.4,7.6c0-1.2-0.3-2.1-0.9-2.8c-0.6-0.7-1.4-1-2.4-1c-1,0-1.9,0.4-2.6,1.2
		c-0.7,0.8-1.1,1.8-1.1,3c0,1.3,0.3,2.3,1,3.1c0.6,0.7,1.5,1.1,2.7,1.1c1.2,0,2.1-0.3,2.8-0.8v-1.2c-0.8,0.6-1.6,0.9-2.5,0.9
		c-0.8,0-1.4-0.2-1.9-0.7c-0.5-0.5-0.7-1.2-0.7-2.1h5.6V7.6z M79.4,0.2h-1.3V12h1.3V0.2z M76.2,0.8h-5.7V12h1.3V7h4V5.8h-4V2h4.4
		V0.8z M63.9,10.2C63.1,10.7,62.1,11,61,11c-1.2,0-2.2-0.4-2.9-1.2c-0.7-0.8-1.1-1.9-1.1-3.2c0-1.4,0.4-2.6,1.2-3.4
		c0.8-0.9,1.8-1.3,3.1-1.3c1,0,1.8,0.2,2.6,0.7V1.1c-0.7-0.3-1.6-0.5-2.6-0.5c-1.6,0-3,0.5-4.1,1.6c-1.1,1.1-1.6,2.5-1.6,4.3
		c0,1.7,0.5,3,1.4,4c1,1,2.2,1.5,3.8,1.5c1.2,0,2.3-0.2,3.1-0.7V10.2z M50.2,2c1.7,0,2.6,0.7,2.6,2.2c0,0.8-0.2,1.3-0.7,1.7
		c-0.5,0.4-1.2,0.6-2.1,0.6h-1.4V2H50.2z M50.1,7.7c1.2,0,2.2-0.3,3-1c0.7-0.7,1.1-1.5,1.1-2.6c0-1.1-0.3-1.9-1-2.5
		c-0.7-0.6-1.6-0.9-2.8-0.9h-3.1V12h1.3V7.7H50.1z"/>
	<path class="st0" d="M72.9,17.8c1.1-0.7,2.4,0.7,1.8,1.8c-0.3,0.8-1.4,1.1-2,0.5C71.9,19.6,72,18.1,72.9,17.8"/>
	<path class="st0" d="M95.8,25.2c-1.7,0.3-2.8,1.8-3.1,3.3c-0.4,1.9-0.3,4,0.8,5.6c1.3,1.7,4.1,1.7,5.5,0.1c0.9-1,1.2-2.4,1.2-3.7
		c0-1.4,0.1-2.9-0.8-4.1C98.7,25.5,97.2,24.9,95.8,25.2 M100.3,17.6c0.7,0,1.4,0,2.1,0v19.2h-2.1c0-0.7,0-1.4-0.1-2.1
		c-1.5,2.7-5.5,3.3-7.7,1.3c-1.6-1.4-2.1-3.7-2-5.7c0-2.1,0.7-4.3,2.4-5.7c2.2-1.8,6-1.7,7.5,0.9C100.3,22.9,100.3,20.3,100.3,17.6"
		/>
	<path class="st0" d="M154.6,18.4c0.2,0,0.5-0.1,0.7-0.1c0,6.2,0,12.4,0,18.6h-2c0-5.2,0-10.3,0-15.5c-1.3,0.9-2.7,1.7-4.2,2.1
		c0-0.7,0-1.4,0-2.1C151.1,20.7,152.9,19.6,154.6,18.4"/>
	<path class="st0" d="M163.2,20.2c-1.8,0.7-2.4,2.9-2.6,4.7c-0.3,2.5-0.3,5,0.3,7.4c0.3,1.2,0.9,2.4,2.1,3c1.3,0.7,3.1,0.1,3.8-1.2
		c1.1-1.9,1.2-4.3,1.2-6.5c0-2.1-0.1-4.4-1.3-6.3C165.9,20.2,164.4,19.7,163.2,20.2 M163.5,18.4c1.8-0.3,3.8,0.4,4.8,1.9
		c1.5,2.1,1.6,4.9,1.7,7.4c-0.1,2.7-0.3,5.5-2,7.7c-1.6,2.1-4.8,2.5-6.9,1c-1.7-1.2-2.4-3.4-2.7-5.4c-0.3-2.9-0.3-6,0.7-8.8
		C159.9,20.2,161.5,18.6,163.5,18.4"/>
	<path class="st0" d="M47.3,18.3c0.8,0,1.5,0,2.3,0c1.2,4.4,2.4,8.7,3.6,13.1c0.3,0.9,0.5,1.8,0.6,2.8c1.3-5.3,3-10.6,4.4-15.9
		c0.7,0,1.3,0,2,0c1.1,3.8,2.1,7.6,3.1,11.3c0.4,1.5,0.9,3,1,4.5c1.1-5.3,2.8-10.6,4-15.9c0.8,0,1.5,0,2.3,0
		c-1.7,6.1-3.4,12.1-5.1,18.2h-2.5c-1.2-4.4-2.4-8.7-3.7-13.1c-0.2-0.7-0.3-1.4-0.4-2.2c-0.1,0.6-0.2,1.3-0.3,1.9
		c-1.2,4.4-2.5,8.9-3.7,13.3c-0.8,0-1.6,0-2.5,0C50.8,30.5,49.1,24.4,47.3,18.3"/>
	<path class="st0" d="M80,25.9c1.2-2.1,3.9-3.1,6.1-2.1c1.8,0.7,2.4,2.7,2.5,4.5c0.1,2.9,0,5.7,0,8.6c-0.7,0-1.4,0-2.1,0
		c0-2.7,0.1-5.5,0-8.2c-0.1-1.4-0.6-3-2.1-3.3c-2.2-0.7-4.3,1.3-4.4,3.4c-0.1,2.7,0,5.4,0,8.2H78c0-4.4,0-8.7,0-13.1H80
		C80,24.5,80,25.2,80,25.9"/>
	<path class="st0" d="M109.3,25.4c-3,0.9-3.5,4.9-2.6,7.5c0.8,2.3,3.7,3.3,5.8,2.3c1.4-0.7,2.1-2.3,2.2-3.7c0.2-1.7,0-3.7-1.2-5
		C112.5,25.2,110.7,24.9,109.3,25.4 M109.6,23.5c1.8-0.2,3.9,0.1,5.3,1.5c1.6,1.4,2,3.7,1.9,5.7c0,1.8-0.7,3.7-2.1,5
		c-2.8,2.6-8,2-9.8-1.5c-1.4-2.9-1.1-7,1.4-9.3C107.3,24.1,108.5,23.7,109.6,23.5"/>
	<path class="st0" d="M139.5,23.5c1.3-0.1,2.6,0,3.8,0.5c0.3,0.6,0.1,1.5,0.2,2.2c-1.4-0.9-3.4-1.5-5-0.6c-1.1,0.6-1.1,2.3-0.1,3
		c1.5,1,3.4,1.2,4.7,2.5c1.5,1.4,1.1,4.1-0.6,5.2c-2.1,1.3-4.8,1.2-7,0.2c0-0.8,0-1.5,0-2.3c1.6,1.2,3.8,1.8,5.6,1
		c1.1-0.5,1.1-2.2,0.2-2.9c-1.5-1.1-3.6-1.3-4.9-2.7c-1.3-1.3-1.1-3.8,0.4-4.9C137.5,24,138.5,23.7,139.5,23.5"/>
	<path class="st0" d="M72.5,23.8c0.7,0,1.4,0,2.1,0v13.1h-2.1C72.5,32.5,72.5,28.2,72.5,23.8"/>
	<path class="st0" d="M117,23.8h2.2c0.9,3.1,1.7,6.2,2.5,9.3c0.2,0.6,0.2,1.2,0.3,1.8c1-3.7,2.2-7.4,3.3-11.1c0.6,0,1.3,0,1.9,0
		c0.9,3.7,2.1,7.4,2.9,11.1c0.8-3.7,2-7.4,2.9-11.1c0.7,0,1.4,0,2.1-0.1c-1.3,4.4-2.6,8.7-3.9,13.1H129c-0.9-3.5-2.1-7-2.9-10.6
		c-0.9,3.6-2.1,7-3.2,10.6h-2.1C119.6,32.5,118.3,28.2,117,23.8"/>
	<path class="st0" d="M16.7,2.9c6.6-1,13.2-2,19.7-2.9c0,5.8,0,11.5,0,17.3c-6.6,0-13.2,0.1-19.7,0.1C16.7,12.6,16.7,7.7,16.7,2.9"
		/>
	<path class="st0" d="M0,5.2c4.9-0.8,9.9-1.4,14.9-2c0,4.8,0,9.6,0,14.4c-5,0-9.9,0.1-14.9,0.1V5.2z"/>
	<path class="st0" d="M0,19.1c5,0,9.9,0.1,14.9,0.1c0,4.8,0,9.6,0,14.4c-5-0.7-9.9-1.4-14.9-2V19.1z"/>
	<path class="st0" d="M16.7,19.3h19.8c0,5.8,0,11.5,0,17.3c-6.6-1-13.2-1.9-19.7-2.8C16.7,28.9,16.7,24.1,16.7,19.3"/>
</g>
</svg>
