<?xml version="1.0" encoding="utf-8"?>
<!-- Generator: Adobe Illustrator 20.1.0, SVG Export Plug-In . SVG Version: 6.00 Build 0)  -->
<svg version="1.1" id="Layer_1" xmlns="http://www.w3.org/2000/svg" xmlns:xlink="http://www.w3.org/1999/xlink" x="0px" y="0px"
	 viewBox="0 0 170.1 90.3" style="enable-background:new 0 0 170.1 90.3;" xml:space="preserve">
<style type="text/css">
	.st0{fill:#FFFFFF;}
</style>
<g>
	<path class="st0" d="M151.2,75.1h1c0.9,0,1.5,0.2,1.8,0.5c0.3,0.3,0.5,1,0.5,2c0,1-0.2,1.7-0.5,2.1c-0.3,0.3-0.9,0.5-1.9,0.5h-1
		V75.1z M149.4,72.5h-1.8V90h1.8h1.8v-7.2h1c0.9,0,1.5,0.2,1.8,0.5c0.3,0.4,0.5,1,0.5,1.9v2.1c0,0.8,0,1.4,0,1.8
		c0,0.4,0.1,0.7,0.1,0.9h1.8h1.8c-0.1-0.2-0.1-0.5-0.1-0.9c0-0.4-0.1-1-0.1-1.7c0-0.7,0-1.4,0-2.1c0.1-1.2-0.2-2.1-0.7-2.8
		c-0.5-0.6-1.2-1-2.2-1h-0.2c0.8-0.2,1.5-0.4,1.9-0.8c0.8-0.6,1.2-1.9,1.2-3.8c0-1.6-0.4-2.8-1.2-3.5c-0.8-0.7-2.1-1-4-1H149.4z
		 M142.7,72.5h-1.8V90h1.8h1.8V72.5H142.7z M130.3,77.2c0-0.8,0.2-1.4,0.5-1.8s0.8-0.6,1.4-0.6c0.6,0,1.1,0.2,1.4,0.6s0.5,1,0.5,1.8
		v7.2c0,1.2-0.1,2-0.4,2.5c-0.3,0.5-0.8,0.7-1.5,0.7c-0.7,0-1.2-0.2-1.5-0.7c-0.3-0.5-0.4-1.3-0.4-2.5V77.2z M128.1,73.4
		c-0.9,0.8-1.4,2-1.4,3.7v7.2c0,2.2,0.4,3.7,1.2,4.6c0.8,0.9,2.2,1.3,4.2,1.3c2,0,3.4-0.4,4.2-1.3c0.8-0.9,1.2-2.4,1.2-4.6v-7.2
		c0-1.6-0.5-2.9-1.4-3.7c-0.9-0.8-2.3-1.2-4.1-1.2C130.4,72.2,129,72.6,128.1,73.4 M124.1,72.5h-11.2v1.3v1.3h3.8V90h1.8h1.8V75.1
		h3.8v-1.3V72.5z M104.7,83.6l1.5-7.9h0l1.4,7.9H104.7z M104,72.5L100,90h1.7h1.7l0.7-3.8h3.8l0.7,3.8h1.7h1.7l-4-17.5h-2.1H104z
		 M72.7,72.5h-8.8V90h8.9v-1.3v-1.3h-5.3v-5.1h5V81v-1.3h-5v-4.6h5.2v-1.3V72.5z M53.4,84.6h-3.5v0.5v0.2c0,1.8,0.4,3.1,1.2,3.8
		c0.8,0.8,2.3,1.2,4.3,1.2c1.8,0,3.2-0.4,4.1-1.3c0.9-0.9,1.4-2.2,1.4-3.9c0-1.2-0.4-2.2-1.1-3c-0.7-0.8-2-1.6-3.7-2.5
		c-0.9-0.4-1.5-0.8-1.9-1.2c-0.4-0.4-0.5-0.9-0.5-1.4c0-0.7,0.2-1.2,0.5-1.6c0.3-0.4,0.8-0.5,1.4-0.5c0.6,0,1.1,0.2,1.3,0.6
		c0.2,0.4,0.4,1,0.3,2v0.5h3.5v-0.5l0-0.4c0-1.7-0.4-2.9-1.1-3.6c-0.8-0.8-2.1-1.2-4-1.2c-1.8,0-3.2,0.4-4.1,1.3
		c-0.9,0.8-1.4,2.1-1.4,3.8c0,1.1,0.3,2.1,1,2.9c0.7,0.8,1.9,1.6,3.6,2.4c1,0.5,1.7,0.9,2.1,1.3c0.4,0.4,0.6,0.9,0.6,1.5
		c0,0.8-0.2,1.3-0.5,1.7c-0.3,0.4-0.8,0.6-1.5,0.6c-0.7,0-1.2-0.2-1.5-0.6c-0.3-0.4-0.5-1.1-0.5-1.9V84.6z M25.8,77.2
		c0-0.8,0.2-1.4,0.5-1.8s0.8-0.6,1.4-0.6c0.6,0,1.1,0.2,1.4,0.6s0.5,1,0.5,1.8v7.2c0,1.2-0.1,2-0.4,2.5c-0.3,0.5-0.8,0.7-1.5,0.7
		c-0.7,0-1.2-0.2-1.5-0.7c-0.3-0.5-0.4-1.3-0.4-2.5V77.2z M23.6,73.4c-0.9,0.8-1.4,2-1.4,3.7v7.2c0,2.2,0.4,3.7,1.2,4.6
		c0.8,0.9,2.2,1.3,4.2,1.3c2,0,3.4-0.4,4.2-1.3c0.8-0.9,1.2-2.4,1.2-4.6v-7.2c0-1.6-0.5-2.9-1.4-3.7c-0.9-0.8-2.3-1.2-4.1-1.2
		S24.5,72.6,23.6,73.4 M9.9,73.6c-0.8,0.9-1.2,2.6-1.2,4.9v5.4c0,2.3,0.4,3.9,1.2,4.9c0.8,0.9,2.2,1.4,4.3,1.4c1.9,0,3.2-0.4,4-1.3
		c0.8-0.9,1.2-2.3,1.1-4.4V84h-3.6v0.5c0,1-0.1,1.8-0.4,2.3c-0.3,0.5-0.7,0.8-1.2,0.8c-0.7,0-1.2-0.3-1.5-0.9
		c-0.3-0.6-0.4-1.7-0.4-3.2v-5.4c0-1.2,0.1-2,0.4-2.5c0.3-0.5,0.8-0.8,1.5-0.8c0.5,0,0.9,0.2,1.1,0.7c0.3,0.5,0.4,1.1,0.4,2v0.5h3.6
		v-0.5v-0.3c0-1.6-0.4-2.9-1.2-3.7c-0.8-0.9-2.1-1.3-3.9-1.3C12.1,72.2,10.7,72.7,9.9,73.6 M7,56.6c0,1.1-0.2,1.8-0.5,2.1
		c-0.3,0.4-1,0.5-1.9,0.5h-1V54h1c0.9,0,1.6,0.2,1.9,0.5C6.9,54.9,7,55.6,7,56.6 M9.4,60.8c0.8-0.7,1.2-2.2,1.2-4.3
		c0-1.9-0.4-3.2-1.2-4c-0.8-0.8-2.2-1.2-4.1-1.2H1.8H0v17.5h1.8h1.8v-7h1C7,61.9,8.6,61.6,9.4,60.8 M13.5,68.9h8.2v-1.3v-1.3h-4.6
		V51.4h-1.8h-1.8V68.9z M29.7,62.2l4.1-10.9h-1.8h-1.8l-2.3,7l0,0l-2.1-7h-1.9H22l4.1,11v6.6h1.8h1.8V62.2z M39.1,72.5h-2.6V90h1.5
		h1.5V75.1L42.4,90h2.6h2.6V72.5h-1.5h-1.5v14.8l-3-14.8H39.1z M50.6,68.9h1.5V51.4h-2.5H47l-2.8,13.4l0,0h0l0,0l-2.8-13.4h-2.5
		h-2.5v17.5h1.5h1.5V54.1h0l3.1,14.8h1.8H46l3.1-14.7v0h0l0,0v14.7H50.6z M62.6,63.4c0,1.2-0.1,2-0.4,2.5c-0.3,0.5-0.8,0.7-1.5,0.7
		c-0.7,0-1.2-0.2-1.5-0.7c-0.3-0.5-0.4-1.3-0.4-2.5v-7.2c0-0.8,0.2-1.4,0.5-1.8c0.3-0.4,0.8-0.6,1.4-0.6c0.6,0,1.1,0.2,1.4,0.6
		c0.3,0.4,0.5,1,0.5,1.8V63.4z M65,67.8c0.8-0.9,1.2-2.4,1.2-4.6V56c0-1.6-0.5-2.9-1.4-3.7c-0.9-0.8-2.3-1.2-4.1-1.2
		c-1.8,0-3.2,0.4-4.1,1.2c-0.9,0.8-1.4,2-1.4,3.7v7.2c0,2.2,0.4,3.7,1.2,4.6c0.8,0.9,2.2,1.3,4.2,1.3C62.8,69.2,64.2,68.7,65,67.8
		 M78.9,67.9c0.9-0.9,1.3-2.2,1.3-3.9V51.4h-1.8h-1.8v12.9c0,0.9-0.1,1.5-0.4,1.8c-0.3,0.3-0.7,0.5-1.4,0.5c-0.7,0-1.2-0.2-1.4-0.5
		c-0.3-0.3-0.4-1-0.4-1.8V51.4h-1.8h-1.8V64c0,1.7,0.4,3,1.3,3.9c0.9,0.9,2.2,1.3,4,1.3C76.6,69.2,78,68.8,78.9,67.9 M82.6,77.6
		c0,1-0.2,1.7-0.5,2.1c-0.3,0.3-0.9,0.5-1.9,0.5h-1v-5.1h1c0.9,0,1.5,0.2,1.8,0.5C82.5,76,82.6,76.6,82.6,77.6 M85,73.5
		c-0.8-0.7-2.1-1-4-1h-3.5h-1.8V90h1.8h1.8v-7.2h1c0.9,0,1.5,0.2,1.8,0.5c0.3,0.4,0.5,1,0.5,1.9v2.1c0,0.8,0,1.4,0,1.8
		c0,0.4,0.1,0.7,0.1,0.9h1.8h1.8c-0.1-0.2-0.1-0.5-0.1-0.9c0-0.4-0.1-1-0.1-1.7c0-0.7,0-1.4,0-2.1c0.1-1.2-0.2-2.1-0.7-2.8
		c-0.5-0.6-1.2-1-2.2-1h-0.2c0.8-0.2,1.5-0.4,1.9-0.8c0.8-0.6,1.2-1.9,1.2-3.8C86.2,75.4,85.8,74.2,85,73.5 M90.4,54h3.8v-1.3v-1.3
		H83v1.3V54h3.8v14.9h1.8h1.8V54z M98.4,72.5h-1.7L94.4,86l0,0h0l0,0l-2.4-13.6h-1.8h-1.8L92.1,90h2.1h2.1l3.8-17.5H98.4z
		 M98.8,51.4H97v17.5h1.8h1.8v-7.7h3.4v7.7h1.8h1.8V51.4h-1.8H104v7.2h-3.4v-7.2H98.8z M141.5,25.1c0,11.7-9.5,21.4-21.2,21.6v-9.2
		c9-1.6,15.6-9.4,15.6-18.6v-0.2h-3.5v0.2c0,7.2-5.1,13.5-12.1,15V3.5C132,3.7,141.5,13.4,141.5,25.1 M116.8,34.2
		c-8.4-0.1-15.2-7-15.2-15.4s6.8-15.3,15.2-15.4V34.2z M169.9,50l0.2,0v-3.5l-0.2,0c-1,0.1-2,0.2-2.9,0.2
		c-11.9,0-21.6-9.7-21.6-21.6c0-11.9,9.7-21.6,21.6-21.6c0.9,0,1.9,0.1,2.9,0.2l0.2,0V0.2l-0.2,0c-1-0.1-2-0.2-3-0.2
		c-10.5,0-19.9,6.6-23.5,16.4C139.8,6.7,130.6,0.2,120.3,0L117,0c-10.4,0-18.9,8.5-18.9,18.9c0,10.3,8.4,18.8,18.7,18.9v31.1h3.5
		V50.2c10.3-0.2,19.6-6.7,23.2-16.4c3.6,9.8,13,16.4,23.5,16.4C167.9,50.2,168.9,50.1,169.9,50 M170.1,90v-1.3v-1.3h-5.3v-5.1h5V81
		v-1.3h-5v-4.6h5.2v-1.3v-1.3h-8.8V90H170.1z"/>
</g>
</svg>
