<?xml version="1.0" encoding="utf-8"?>
<!-- Generator: Adobe Illustrator 20.1.0, SVG Export Plug-In . SVG Version: 6.00 Build 0)  -->
<svg version="1.1" id="Layer_1" xmlns="http://www.w3.org/2000/svg" xmlns:xlink="http://www.w3.org/1999/xlink" x="0px" y="0px"
	 viewBox="0 0 170.1 39.1" style="enable-background:new 0 0 170.1 39.1;" xml:space="preserve">
<style type="text/css">
	.st0{fill:#FFFFFF;}
</style>
<g>
	<g>
		<path class="st0" d="M72.7,21.3h-8.8v17.5h8.9v-1.3v-1.3h-5.3v-5.1h5v-1.3v-1.3h-5v-4.6h5.2v-1.3V21.3z M53.4,33.4h-3.5V34v0.2
			c0,1.8,0.4,3.1,1.2,3.8c0.8,0.8,2.3,1.2,4.3,1.2c1.8,0,3.2-0.4,4.1-1.3c0.9-0.9,1.4-2.2,1.4-3.9c0-1.2-0.4-2.2-1.1-3
			c-0.7-0.8-2-1.6-3.7-2.5c-0.9-0.4-1.5-0.8-1.9-1.2c-0.4-0.4-0.5-0.9-0.5-1.4c0-0.7,0.2-1.2,0.5-1.6c0.3-0.4,0.8-0.5,1.4-0.5
			c0.6,0,1.1,0.2,1.3,0.6c0.2,0.4,0.4,1,0.3,2v0.5h3.5v-0.5l0-0.4c0-1.7-0.4-2.9-1.1-3.6c-0.8-0.8-2.1-1.2-4-1.2
			c-1.8,0-3.2,0.4-4.1,1.3c-0.9,0.8-1.4,2.1-1.4,3.8c0,1.1,0.3,2.1,1,2.9c0.7,0.8,1.9,1.6,3.6,2.4c1,0.5,1.7,0.9,2.1,1.3
			c0.4,0.4,0.6,0.9,0.6,1.5c0,0.8-0.2,1.3-0.5,1.7s-0.8,0.6-1.5,0.6c-0.7,0-1.2-0.2-1.5-0.6c-0.3-0.4-0.5-1.1-0.5-1.9V33.4z
			 M25.8,26.1c0-0.8,0.2-1.4,0.5-1.8s0.8-0.6,1.4-0.6c0.6,0,1.1,0.2,1.4,0.6s0.5,1,0.5,1.8v7.2c0,1.2-0.1,2-0.4,2.5
			c-0.3,0.5-0.8,0.7-1.5,0.7c-0.7,0-1.2-0.2-1.5-0.7c-0.3-0.5-0.4-1.3-0.4-2.5V26.1z M23.6,22.3c-0.9,0.8-1.4,2-1.4,3.7v7.2
			c0,2.2,0.4,3.7,1.2,4.6c0.8,0.9,2.2,1.3,4.2,1.3c2,0,3.4-0.4,4.2-1.3c0.8-0.9,1.2-2.4,1.2-4.6V26c0-1.6-0.5-2.9-1.4-3.7
			c-0.9-0.8-2.3-1.2-4.1-1.2S24.5,21.5,23.6,22.3 M9.9,22.5c-0.8,0.9-1.2,2.6-1.2,4.9v5.4c0,2.3,0.4,3.9,1.2,4.9
			c0.8,0.9,2.2,1.4,4.3,1.4c1.9,0,3.2-0.4,4-1.3c0.8-0.9,1.2-2.3,1.1-4.4v-0.5h-3.6v0.5c0,1-0.1,1.8-0.4,2.3
			c-0.3,0.5-0.7,0.8-1.2,0.8c-0.7,0-1.2-0.3-1.5-0.9c-0.3-0.6-0.4-1.7-0.4-3.2V27c0-1.2,0.1-2,0.4-2.5c0.3-0.5,0.8-0.8,1.5-0.8
			c0.5,0,0.9,0.2,1.1,0.7c0.3,0.5,0.4,1.1,0.4,2V27h3.6v-0.5v-0.3c0-1.6-0.4-2.9-1.2-3.7c-0.8-0.9-2.1-1.3-3.9-1.3
			C12.1,21.1,10.7,21.5,9.9,22.5 M7,5.5c0,1.1-0.2,1.8-0.5,2.1C6.2,8,5.6,8.2,4.6,8.2h-1V2.9h1c0.9,0,1.6,0.2,1.9,0.5
			C6.9,3.8,7,4.5,7,5.5 M9.4,9.7c0.8-0.7,1.2-2.2,1.2-4.3c0-1.9-0.4-3.2-1.2-4C8.6,0.7,7.2,0.3,5.3,0.3H1.8H0v17.5h1.8h1.8v-7h1
			C7,10.8,8.6,10.4,9.4,9.7 M13.5,17.8h8.2v-1.3v-1.3h-4.6V0.3h-1.8h-1.8V17.8z M29.7,11.1l4.1-10.9h-1.8h-1.8l-2.3,7l0,0l-2.1-7
			h-1.9H22l4.1,11v6.6h1.8h1.8V11.1z M39.1,21.3h-2.6v17.5h1.5h1.5V23.9l3.1,14.9h2.6h2.6V21.3h-1.5h-1.5v14.8l-3-14.8H39.1z
			 M50.6,17.8h1.5V0.3h-2.5H47l-2.8,13.4l0,0h0l0,0L41.5,0.3h-2.5h-2.5v17.5h1.5h1.5V3h0l3.1,14.8h1.8H46l3.1-14.7v0h0l0,0v14.7
			H50.6z M62.6,12.3c0,1.2-0.1,2-0.4,2.5c-0.3,0.5-0.8,0.7-1.5,0.7c-0.7,0-1.2-0.2-1.5-0.7c-0.3-0.5-0.4-1.3-0.4-2.5V5
			c0-0.8,0.2-1.4,0.5-1.8c0.3-0.4,0.8-0.6,1.4-0.6c0.6,0,1.1,0.2,1.4,0.6c0.3,0.4,0.5,1,0.5,1.8V12.3z M65,16.7
			c0.8-0.9,1.2-2.4,1.2-4.6V4.9c0-1.6-0.5-2.9-1.4-3.7C64,0.4,62.6,0,60.8,0c-1.8,0-3.2,0.4-4.1,1.2c-0.9,0.8-1.4,2-1.4,3.7v7.2
			c0,2.2,0.4,3.7,1.2,4.6c0.8,0.9,2.2,1.3,4.2,1.3C62.8,18.1,64.2,17.6,65,16.7 M78.9,16.8c0.9-0.9,1.3-2.2,1.3-3.9V0.3h-1.8h-1.8
			v12.9c0,0.9-0.1,1.5-0.4,1.8c-0.3,0.3-0.7,0.5-1.4,0.5c-0.7,0-1.2-0.2-1.4-0.5c-0.3-0.3-0.4-1-0.4-1.8V0.3h-1.8h-1.8v12.6
			c0,1.7,0.4,3,1.3,3.9c0.9,0.9,2.2,1.3,4,1.3C76.6,18.1,78,17.6,78.9,16.8 M82.6,26.5c0,1-0.2,1.7-0.5,2.1
			c-0.3,0.3-0.9,0.5-1.9,0.5h-1V24h1c0.9,0,1.5,0.2,1.8,0.5C82.5,24.8,82.6,25.5,82.6,26.5 M85,22.4c-0.8-0.7-2.1-1-4-1h-3.5h-1.8
			v17.5h1.8h1.8v-7.2h1c0.9,0,1.5,0.2,1.8,0.5c0.3,0.4,0.5,1,0.5,1.9v2.1c0,0.8,0,1.4,0,1.8c0,0.4,0.1,0.7,0.1,0.9h1.8h1.8
			c-0.1-0.2-0.1-0.5-0.1-0.9c0-0.4-0.1-1-0.1-1.7c0-0.7,0-1.4,0-2.1c0.1-1.2-0.2-2.1-0.7-2.8c-0.5-0.6-1.2-1-2.2-1h-0.2
			c0.8-0.2,1.5-0.4,1.9-0.8c0.8-0.6,1.2-1.9,1.2-3.8C86.2,24.2,85.8,23.1,85,22.4 M90.4,2.9h3.8V1.6V0.3H83v1.3v1.3h3.8v14.9h1.8
			h1.8V2.9z M96.7,21.3l-2.3,13.6l0,0h0l0,0l-2.4-13.6h-1.8h-1.8l3.8,17.5h2.1h2.1l3.8-17.5h-1.7H96.7z M105.8,17.8h1.8V0.3h-1.8
			H104v7.2h-3.4V0.3h-1.8H97v17.5h1.8h1.8v-7.7h3.4v7.7H105.8z M107.6,32.5h-2.9l1.5-7.9h0L107.6,32.5z M110.5,38.9h1.7l-4-17.5
			h-2.1H104l-4,17.5h1.7h1.7l0.7-3.8h3.8l0.7,3.8H110.5z M120.3,23.9h3.8v-1.3v-1.3h-11.2v1.3v1.3h3.8v14.9h1.8h1.8V23.9z
			 M134.1,33.3c0,1.2-0.1,2-0.4,2.5c-0.3,0.5-0.8,0.7-1.5,0.7c-0.7,0-1.2-0.2-1.5-0.7c-0.3-0.5-0.4-1.3-0.4-2.5v-7.2
			c0-0.8,0.2-1.4,0.5-1.8s0.8-0.6,1.4-0.6c0.6,0,1.1,0.2,1.4,0.6s0.5,1,0.5,1.8V33.3z M136.4,37.8c0.8-0.9,1.2-2.4,1.2-4.6V26
			c0-1.6-0.5-2.9-1.4-3.7c-0.9-0.8-2.3-1.2-4.1-1.2c-1.8,0-3.2,0.4-4.1,1.2c-0.9,0.8-1.4,2-1.4,3.7v7.2c0,2.2,0.4,3.7,1.2,4.6
			c0.8,0.9,2.2,1.3,4.2,1.3C134.2,39.1,135.6,38.7,136.4,37.8 M142.7,38.9h1.8V21.3h-1.8h-1.8v17.5H142.7z M154.6,26.5
			c0,1-0.2,1.7-0.5,2.1c-0.3,0.3-0.9,0.5-1.9,0.5h-1V24h1c0.9,0,1.5,0.2,1.8,0.5C154.4,24.8,154.6,25.5,154.6,26.5 M156.5,38.9h1.8
			c-0.1-0.2-0.1-0.5-0.1-0.9c0-0.4-0.1-1-0.1-1.7c0-0.7,0-1.4,0-2.1c0.1-1.2-0.2-2.1-0.7-2.8c-0.5-0.6-1.2-1-2.2-1h-0.2
			c0.8-0.2,1.5-0.4,1.9-0.8c0.8-0.6,1.2-1.9,1.2-3.8c0-1.6-0.4-2.8-1.2-3.5c-0.8-0.7-2.1-1-4-1h-3.5h-1.8v17.5h1.8h1.8v-7.2h1
			c0.9,0,1.5,0.2,1.8,0.5c0.3,0.4,0.5,1,0.5,1.9v2.1c0,0.8,0,1.4,0,1.8c0,0.4,0.1,0.7,0.1,0.9H156.5z M170.1,38.9v-1.3v-1.3h-5.3
			v-5.1h5v-1.3v-1.3h-5v-4.6h5.2v-1.3v-1.3h-8.8v17.5H170.1z"/>
	</g>
</g>
</svg>
