<svg xmlns="http://www.w3.org/2000/svg" viewBox="0 0 748 197.4"> 
	 viewBox="0 0 748 197.4" style="enable-background:new 0 0 748 197.4;" xml:space="preserve">
<style type="text/css">
	.st0{fill:#FFFFFF;}
</style>
<g>
	<path class="st0" d="M742,95.7H6V53.8h195.2v-6H6V6h736V95.7z M748,197.3V0H0v197.4L748,197.3z M6,191.4v-89.8h736v89.8H6z"/>
	<path class="st0" d="M238.9,19.8h17.3c3.1,0,5.9,0.3,8.5,1c2.5,0.7,4.7,1.7,6.5,3c1.8,1.4,3.2,3.1,4.2,5.1c1,2,1.5,4.4,1.5,7.2
		s-0.5,5.2-1.5,7.2c-1,2-2.4,3.7-4.2,5.1c-1.8,1.4-4,2.4-6.6,3.1c-2.6,0.7-5.4,1-8.5,1h-10.9V81h-6.2V19.8z M245.1,47.3h10.5
		c4.9,0,8.6-1,11.1-2.9c2.5-1.9,3.8-4.7,3.8-8.3c0-3.8-1.3-6.6-3.9-8.3c-2.6-1.8-6.3-2.6-11-2.6h-10.5V47.3z"/>
	<path class="st0" d="M301.6,75.4h28.5V81h-34.7V19.8h6.2V75.4z"/>
	<path class="st0" d="M358.2,81h-6.2V54.6l-22.9-34.8h7.8l18.4,29.6l18.6-29.6h7.3l-22.9,34.8V81z"/>
	<path class="st0" d="M426.7,71L426.7,71l20.6-50.6h9.5v61.2h-6.2V28.4h-0.2l-22.1,53.1H425l-22.1-53.1h-0.2v53.1h-6.2V20.4h9.5
		L426.7,71z"/>
	<path class="st0" d="M539.1,50.9c0,4.7-0.8,9-2.4,12.9c-1.6,3.9-3.8,7.3-6.7,10.1s-6.2,5.1-10.1,6.7c-3.9,1.6-8.1,2.4-12.7,2.4
		c-4.6,0-8.8-0.8-12.7-2.4c-3.9-1.6-7.3-3.8-10.1-6.7c-2.9-2.9-5.1-6.2-6.7-10.1c-1.6-3.9-2.4-8.2-2.4-12.9c0-4.7,0.8-9,2.4-12.9
		c1.6-3.9,3.8-7.3,6.7-10.2c2.9-2.9,6.2-5.1,10.1-6.7c3.9-1.6,8.1-2.4,12.7-2.4c4.5,0,8.8,0.8,12.7,2.4c3.9,1.6,7.3,3.8,10.1,6.7
		s5.1,6.2,6.7,10.2C538.3,42,539.1,46.3,539.1,50.9z M532.6,51c0-3.6-0.6-7-1.7-10.2c-1.2-3.2-2.8-6.1-5-8.5c-2.2-2.4-4.9-4.4-8-5.8
		c-3.1-1.4-6.7-2.2-10.6-2.2c-3.9,0-7.4,0.7-10.6,2.2c-3.1,1.4-5.8,3.4-8,5.8c-2.2,2.4-3.9,5.3-5,8.5C482.5,44,482,47.4,482,51
		c0,3.6,0.6,7,1.7,10.2c1.2,3.2,2.8,6,5,8.5c2.2,2.4,4.9,4.3,8,5.8c3.1,1.4,6.7,2.2,10.6,2.2c3.9,0,7.4-0.7,10.6-2.2
		c3.1-1.4,5.8-3.4,8-5.8c2.2-2.4,3.9-5.2,5-8.5C532,57.9,532.6,54.5,532.6,51z"/>
	<path class="st0" d="M578.3,83.1c-4.6,0-8.4-0.8-11.3-2.4c-2.9-1.6-5.3-3.6-7-6c-1.7-2.4-2.9-5.1-3.6-7.9c-0.7-2.9-1-5.5-1-8.1
		V20.4h6.2V58c0,2.5,0.3,4.9,0.9,7.2c0.6,2.3,1.5,4.4,2.8,6.2c1.3,1.8,3,3.3,5.1,4.4c2.1,1.1,4.8,1.7,7.9,1.7s5.7-0.6,7.9-1.7
		c2.1-1.1,3.8-2.6,5.1-4.4c1.3-1.8,2.2-3.9,2.8-6.2c0.6-2.3,0.9-4.7,0.9-7.2V20.4h6.2v38.4c0,2.5-0.3,5.2-1,8.1
		c-0.7,2.9-1.9,5.5-3.6,7.9c-1.7,2.4-4.1,4.4-7,6C586.6,82.3,582.8,83.1,578.3,83.1z"/>
	<path class="st0" d="M641.3,81.5h-6.2V25.9h-20.5v-5.5h47.2v5.5h-20.5V81.5z"/>
	<path class="st0" d="M676.6,20.4h6.2v26.5h33.3V20.4h6.2v61.2h-6.2V52.6h-33.3v28.9h-6.2V20.4z"/>
	<path class="st0" d="M77.7,165.3c-1,1.5-2.1,2.8-3.5,4.1c-1.4,1.3-3,2.4-4.8,3.4s-3.8,1.8-6,2.3c-2.2,0.6-4.6,0.9-7.1,0.9
		c-4.3,0-8.3-0.8-11.9-2.3c-3.7-1.5-6.8-3.6-9.4-6.2c-2.6-2.7-4.7-5.8-6.2-9.5c-1.5-3.7-2.2-7.7-2.2-12c0-4.4,0.8-8.4,2.3-12
		c1.5-3.7,3.6-6.8,6.2-9.5c2.7-2.7,5.8-4.7,9.4-6.2c3.6-1.5,7.6-2.3,11.8-2.3c2.1,0,4.2,0.2,6.2,0.7c2,0.4,3.9,1,5.7,1.8
		c1.8,0.8,3.4,1.7,4.8,2.9c1.5,1.1,2.7,2.4,3.6,3.8l-4.8,3.5c-0.6-0.9-1.4-1.8-2.4-2.7c-1-0.9-2.2-1.7-3.5-2.4
		c-1.3-0.7-2.8-1.3-4.4-1.7c-1.6-0.4-3.3-0.6-5.1-0.6c-3.7,0-7,0.7-10,2c-2.9,1.3-5.4,3.1-7.5,5.4c-2,2.3-3.6,4.9-4.7,7.9
		c-1.1,3-1.6,6.2-1.6,9.5s0.6,6.5,1.7,9.5c1.1,3,2.7,5.6,4.7,7.9c2,2.3,4.5,4.1,7.5,5.4c2.9,1.3,6.2,2,9.9,2c3.3,0,6.4-0.7,9.3-2
		c3-1.3,5.4-3.5,7.4-6.4L77.7,165.3z"/>
	<path class="st0" d="M144.2,146.1c0,4.4-0.8,8.4-2.3,12c-1.5,3.7-3.6,6.8-6.2,9.5c-2.7,2.7-5.8,4.7-9.4,6.2
		c-3.6,1.5-7.6,2.3-11.8,2.3c-4.2,0-8.2-0.8-11.8-2.3c-3.6-1.5-6.8-3.6-9.4-6.2c-2.7-2.7-4.7-5.8-6.2-9.5c-1.5-3.7-2.3-7.7-2.3-12
		c0-4.4,0.8-8.4,2.3-12c1.5-3.7,3.6-6.8,6.2-9.5c2.7-2.7,5.8-4.7,9.4-6.2c3.6-1.5,7.6-2.3,11.8-2.3c4.2,0,8.2,0.8,11.8,2.3
		c3.6,1.5,6.8,3.6,9.4,6.2c2.7,2.7,4.7,5.8,6.2,9.5C143.4,137.7,144.2,141.7,144.2,146.1z M138.1,146.1c0-3.3-0.5-6.5-1.6-9.5
		c-1.1-3-2.6-5.6-4.7-7.9c-2-2.3-4.5-4.1-7.5-5.4c-2.9-1.3-6.2-2-9.9-2c-3.7,0-6.9,0.7-9.9,2c-2.9,1.3-5.4,3.2-7.5,5.4
		c-2,2.3-3.6,4.9-4.7,7.9c-1.1,3-1.6,6.2-1.6,9.5c0,3.3,0.5,6.5,1.6,9.5c1.1,3,2.6,5.6,4.7,7.9c2,2.3,4.5,4,7.5,5.4
		c2.9,1.3,6.2,2,9.9,2c3.7,0,6.9-0.7,9.9-2c2.9-1.3,5.4-3.1,7.5-5.4c2-2.3,3.6-4.9,4.7-7.9C137.5,152.6,138.1,149.4,138.1,146.1z"/>
	<path class="st0" d="M198.7,166.1h0.2v-48.6h5.8v57.1h-7.3l-33.2-49.1h-0.2v49.1h-5.8v-57.1h7.3L198.7,166.1z"/>
	<path class="st0" d="M253.5,126.7c-1.2-1.7-2.8-3.1-4.8-4.2c-1.9-1-4.3-1.6-7-1.6c-1.4,0-2.8,0.2-4.3,0.6c-1.5,0.4-2.8,1.1-3.9,2
		c-1.2,0.9-2.1,2-2.9,3.3c-0.7,1.3-1.1,2.9-1.1,4.8c0,1.8,0.3,3.3,1,4.5c0.7,1.2,1.6,2.2,2.8,3c1.2,0.8,2.5,1.5,3.9,2.1
		c1.5,0.5,3,1.1,4.6,1.6c2,0.6,4,1.3,6,2.1c2,0.8,3.8,1.7,5.4,2.9c1.6,1.2,2.9,2.7,3.9,4.6c1,1.9,1.5,4.2,1.5,7.1
		c0,2.8-0.5,5.3-1.6,7.4c-1.1,2.1-2.5,3.8-4.2,5.1c-1.7,1.3-3.7,2.3-5.9,3c-2.2,0.6-4.5,1-6.7,1c-1.7,0-3.4-0.2-5.2-0.5
		c-1.7-0.3-3.4-0.9-4.9-1.6c-1.6-0.7-3-1.6-4.4-2.7c-1.3-1.1-2.5-2.3-3.5-3.7l5-3.7c1.2,2,3,3.7,5.2,5.1c2.2,1.4,4.8,2.1,7.9,2.1
		c1.5,0,2.9-0.2,4.4-0.7c1.5-0.5,2.9-1.2,4.1-2.1c1.2-0.9,2.2-2.1,3-3.5c0.8-1.4,1.2-3,1.2-4.8c0-2-0.4-3.6-1.2-5
		c-0.8-1.3-1.8-2.4-3.1-3.3c-1.3-0.9-2.8-1.6-4.4-2.2c-1.7-0.6-3.4-1.2-5.2-1.8c-1.9-0.6-3.7-1.3-5.6-2c-1.8-0.8-3.5-1.7-4.9-2.9
		c-1.5-1.2-2.6-2.7-3.5-4.5c-0.9-1.8-1.3-3.9-1.3-6.5c0-2.7,0.5-5.1,1.7-7.1c1.1-2,2.5-3.6,4.3-4.9c1.8-1.3,3.7-2.2,5.9-2.8
		c2.1-0.6,4.3-0.9,6.4-0.9c3.9,0,7.2,0.7,9.9,2.1c2.7,1.4,4.8,3,6.2,4.9L253.5,126.7z"/>
	<path class="st0" d="M282.2,169.4h30.5v5.2h-36.3v-57.1h35.4v5.2h-29.6v19.6h27.6v5.2h-27.6V169.4z"/>
	<path class="st0" d="M335.9,174.6h-5.8v-57.1h16.8c2.8,0,5.4,0.3,7.8,0.8c2.4,0.5,4.5,1.4,6.2,2.6c1.7,1.2,3.1,2.8,4.1,4.7
		c1,1.9,1.5,4.3,1.5,7.1c0,2.1-0.4,4-1.1,5.7c-0.8,1.7-1.8,3.2-3.1,4.5c-1.3,1.3-2.8,2.3-4.6,3c-1.8,0.8-3.7,1.2-5.8,1.5l16.7,27.2
		h-7.1l-15.8-26.7h-9.7V174.6z M335.9,142.9H346c4.7,0,8.3-0.8,10.8-2.5c2.5-1.7,3.8-4.2,3.8-7.6c0-1.9-0.3-3.5-1-4.8
		c-0.7-1.3-1.7-2.3-2.9-3.1c-1.2-0.8-2.7-1.4-4.5-1.8c-1.8-0.4-3.7-0.6-5.9-0.6h-10.3V142.9z"/>
	<path class="st0" d="M403.8,167.1h0.2l18.5-49.6h6.2l-21.8,57.1h-6.1l-21.8-57.1h6.3L403.8,167.1z"/>
	<path class="st0" d="M437.7,174.6h-6.4l24.7-57.1h5.6l24.5,57.1h-6.4l-6.3-15h-29.5L437.7,174.6z M446.1,154.3h25.1L458.6,124
		L446.1,154.3z"/>
	<path class="st0" d="M510,174.6h-5.8v-51.9h-19.1v-5.2h44v5.2H510V174.6z"/>
	<path class="st0" d="M593.6,146.1c0,4.4-0.8,8.4-2.3,12c-1.5,3.7-3.6,6.8-6.2,9.5c-2.7,2.7-5.8,4.7-9.4,6.2
		c-3.6,1.5-7.6,2.3-11.8,2.3c-4.2,0-8.2-0.8-11.8-2.3c-3.6-1.5-6.8-3.6-9.4-6.2c-2.7-2.7-4.7-5.8-6.2-9.5c-1.5-3.7-2.3-7.7-2.3-12
		c0-4.4,0.8-8.4,2.3-12c1.5-3.7,3.6-6.8,6.2-9.5c2.7-2.7,5.8-4.7,9.4-6.2c3.6-1.5,7.6-2.3,11.8-2.3c4.2,0,8.2,0.8,11.8,2.3
		c3.6,1.5,6.8,3.6,9.4,6.2c2.7,2.7,4.7,5.8,6.2,9.5C592.9,137.7,593.6,141.7,593.6,146.1z M587.5,146.1c0-3.3-0.5-6.5-1.6-9.5
		c-1.1-3-2.6-5.6-4.7-7.9c-2-2.3-4.5-4.1-7.5-5.4c-2.9-1.3-6.2-2-9.9-2c-3.7,0-6.9,0.7-9.9,2c-2.9,1.3-5.4,3.2-7.5,5.4
		c-2,2.3-3.6,4.9-4.7,7.9c-1.1,3-1.6,6.2-1.6,9.5c0,3.3,0.5,6.5,1.6,9.5c1.1,3,2.6,5.6,4.7,7.9c2,2.3,4.5,4,7.5,5.4
		c2.9,1.3,6.2,2,9.9,2c3.7,0,6.9-0.7,9.9-2c2.9-1.3,5.4-3.1,7.5-5.4c2-2.3,3.6-4.9,4.7-7.9C587,152.6,587.5,149.4,587.5,146.1z"/>
	<path class="st0" d="M615.6,174.6h-5.8v-57.1h5.8V174.6z"/>
	<path class="st0" d="M641.5,174.6h-5.8v-57.1h16.8c2.8,0,5.4,0.3,7.8,0.8c2.4,0.5,4.5,1.4,6.2,2.6c1.7,1.2,3.1,2.8,4.1,4.7
		c1,1.9,1.5,4.3,1.5,7.1c0,2.1-0.4,4-1.1,5.7c-0.8,1.7-1.8,3.2-3.1,4.5c-1.3,1.3-2.8,2.3-4.6,3c-1.8,0.8-3.7,1.2-5.8,1.5l16.7,27.2
		H667l-15.8-26.7h-9.7V174.6z M641.5,142.9h10.1c4.7,0,8.3-0.8,10.8-2.5c2.5-1.7,3.8-4.2,3.8-7.6c0-1.9-0.3-3.5-1-4.8
		c-0.7-1.3-1.7-2.3-2.9-3.1c-1.2-0.8-2.7-1.4-4.5-1.8c-1.8-0.4-3.7-0.6-5.9-0.6h-10.3V142.9z"/>
	<path class="st0" d="M693.8,169.4h30.5v5.2H688v-57.1h35.4v5.2h-29.6v19.6h27.6v5.2h-27.6V169.4z"/>
	<g>
		<g>
			<path class="st0" d="M34.7,21.9v14.5h-2.8V21.9h-3.2v-2.4h9.2v2.4H34.7z"/>
			<path class="st0" d="M50.2,36.5v-7.5h-5.1v7.5h-2.9v-17h2.9v6.9h5.1v-6.9H53v17H50.2z"/>
			<path class="st0" d="M59.1,36.5v-17h7.6V22h-4.8v4.5h4.5v2.4h-4.5v5H67v2.6H59.1z"/>
			<path class="st0" d="M79.6,36.5l-0.8-3.6h-4.5l-0.9,3.6h-2.9l4.2-17h3.7l4.2,17H79.6z M76.6,22.2L76.6,22.2l-1.9,8.4h3.7
				L76.6,22.2z"/>
			<path class="st0" d="M90.8,21.9v14.5H88V21.9h-3.2v-2.4H94v2.4H90.8z"/>
			<path class="st0" d="M105.4,36.5l-2.6-7.2h-1.6v7.2h-2.8v-17h4.8c0.7,0,1.4,0.1,1.9,0.3c0.6,0.2,1.1,0.5,1.5,0.9s0.8,0.9,1,1.5
				c0.2,0.6,0.4,1.3,0.4,2.2c0,0.7-0.1,1.2-0.3,1.7c-0.2,0.5-0.4,0.9-0.6,1.3c-0.3,0.4-0.5,0.6-0.9,0.9c-0.3,0.2-0.6,0.4-0.9,0.4
				l3,7.8H105.4z M105.2,24.5c0-0.5-0.1-0.9-0.2-1.3s-0.3-0.6-0.6-0.8c-0.2-0.2-0.5-0.3-0.8-0.4c-0.3-0.1-0.6-0.1-0.9-0.1h-1.6v5.2
				h1.6c0.7,0,1.3-0.2,1.7-0.7C104.9,26,105.2,25.3,105.2,24.5z"/>
			<path class="st0" d="M113.3,36.5v-17h7.6V22H116v4.5h4.5v2.4H116v5h5.1v2.6H113.3z"/>
			<path class="st0" d="M140.7,36.5l-2.6-7.2h-1.6v7.2h-2.8v-17h4.8c0.7,0,1.4,0.1,1.9,0.3c0.6,0.2,1.1,0.5,1.5,0.9s0.8,0.9,1,1.5
				c0.2,0.6,0.4,1.3,0.4,2.2c0,0.7-0.1,1.2-0.3,1.7c-0.2,0.5-0.4,0.9-0.6,1.3c-0.3,0.4-0.5,0.6-0.9,0.9c-0.3,0.2-0.6,0.4-0.9,0.4
				l3,7.8H140.7z M140.5,24.5c0-0.5-0.1-0.9-0.2-1.3s-0.3-0.6-0.6-0.8c-0.2-0.2-0.5-0.3-0.8-0.4c-0.3-0.1-0.6-0.1-0.9-0.1h-1.6v5.2
				h1.6c0.7,0,1.3-0.2,1.7-0.7C140.3,26,140.5,25.3,140.5,24.5z"/>
			<path class="st0" d="M160.1,27.9c0,1.3-0.1,2.6-0.4,3.7c-0.3,1.1-0.7,2-1.2,2.8c-0.5,0.8-1.2,1.4-1.9,1.8
				c-0.8,0.4-1.6,0.6-2.6,0.6c-1,0-1.8-0.2-2.6-0.6c-0.8-0.4-1.4-1-1.9-1.8c-0.5-0.8-0.9-1.7-1.2-2.8c-0.3-1.1-0.4-2.3-0.4-3.7
				c0-1.3,0.1-2.6,0.4-3.6c0.3-1.1,0.7-2,1.2-2.8c0.5-0.8,1.2-1.4,1.9-1.8c0.8-0.4,1.6-0.6,2.6-0.6c0.9,0,1.8,0.2,2.6,0.6
				c0.8,0.4,1.4,1,1.9,1.8c0.5,0.8,0.9,1.7,1.2,2.8C160,25.4,160.1,26.6,160.1,27.9z M157.2,27.9c0-0.9-0.1-1.7-0.2-2.4
				c-0.1-0.8-0.3-1.4-0.6-2c-0.3-0.6-0.6-1-1-1.3c-0.4-0.3-0.8-0.5-1.4-0.5c-0.5,0-1,0.2-1.4,0.5c-0.4,0.3-0.7,0.8-1,1.3
				c-0.3,0.6-0.5,1.2-0.6,2c-0.1,0.8-0.2,1.6-0.2,2.4c0,0.9,0.1,1.7,0.2,2.4c0.1,0.8,0.3,1.4,0.6,2c0.3,0.6,0.6,1,1,1.3
				c0.4,0.3,0.9,0.5,1.4,0.5s1-0.2,1.4-0.5c0.4-0.3,0.7-0.8,1-1.3c0.3-0.6,0.5-1.2,0.6-2C157.1,29.6,157.2,28.8,157.2,27.9z"/>
			<path class="st0" d="M170.4,30v6.5h-2.8V30l-4.2-10.5h3.1l2.5,7.6l0.1,0l2.6-7.5h3L170.4,30z"/>
			<path class="st0" d="M185.7,36.5l-0.8-3.6h-4.5l-0.9,3.6h-2.9l4.2-17h3.7l4.2,17H185.7z M182.7,22.2L182.7,22.2l-1.9,8.4h3.7
				L182.7,22.2z"/>
			<path class="st0" d="M193.1,36.5v-17h2.9v14.3h4.7v2.7H193.1z"/>
		</g>
	</g>
	<g>
		<g>
			<path class="st0" d="M39,77c-0.2,0.8-0.5,1.5-0.9,2.1c-0.4,0.6-1,1-1.7,1.4c-0.7,0.3-1.5,0.5-2.5,0.5c-1,0-1.8-0.2-2.5-0.5
				c-0.7-0.3-1.2-0.8-1.6-1.4c-0.4-0.6-0.7-1.3-0.9-2.1c-0.2-0.8-0.3-1.6-0.3-2.5v-11h2.9v10.7c0,0.5,0,1,0.1,1.5
				c0.1,0.5,0.2,0.9,0.4,1.3c0.2,0.4,0.4,0.7,0.8,0.9c0.3,0.2,0.7,0.3,1.2,0.3c0.5,0,0.9-0.1,1.2-0.3c0.3-0.2,0.6-0.5,0.8-0.9
				c0.2-0.4,0.3-0.8,0.4-1.3c0.1-0.5,0.1-1,0.1-1.5V63.5h2.9v11C39.3,75.4,39.2,76.2,39,77z"/>
			<path class="st0" d="M53,80.5l-4.8-12h-0.1l0,12h-2.6v-17h3.3l4.8,12.1h0.1l0-12.1h2.5v17H53z"/>
			<path class="st0" d="M62.8,80.5v-17h2.9v17H62.8z"/>
			<path class="st0" d="M78.4,80.5h-3.6l-4.2-17h3.2l2.8,13.6h0.1l2.8-13.6h3.1L78.4,80.5z"/>
			<path class="st0" d="M87.5,80.5v-17h7.6V66h-4.8v4.5h4.5v2.4h-4.5v5h5.1v2.6H87.5z"/>
			<path class="st0" d="M108.2,80.5l-2.6-7.2h-1.6v7.2h-2.8v-17h4.8c0.7,0,1.4,0.1,1.9,0.3c0.6,0.2,1.1,0.5,1.5,0.9s0.8,0.9,1,1.5
				c0.2,0.6,0.4,1.3,0.4,2.2c0,0.7-0.1,1.2-0.3,1.7c-0.2,0.5-0.4,0.9-0.6,1.3c-0.3,0.4-0.5,0.6-0.9,0.9c-0.3,0.2-0.6,0.4-0.9,0.4
				l3,7.8H108.2z M108,68.5c0-0.5-0.1-0.9-0.2-1.3s-0.3-0.6-0.6-0.8c-0.2-0.2-0.5-0.3-0.8-0.4c-0.3-0.1-0.6-0.1-0.9-0.1h-1.6v5.2
				h1.6c0.7,0,1.3-0.2,1.7-0.7C107.7,70,108,69.4,108,68.5z"/>
			<path class="st0" d="M123.2,66.8c-0.6-0.8-1.4-1.1-2.4-1.1c-0.3,0-0.5,0-0.8,0.1c-0.3,0.1-0.5,0.2-0.7,0.4
				c-0.2,0.2-0.4,0.4-0.5,0.7c-0.1,0.3-0.2,0.7-0.2,1.1c0,0.7,0.2,1.3,0.6,1.7c0.4,0.4,1,0.8,1.7,1.1c0.4,0.2,0.8,0.4,1.3,0.7
				c0.4,0.3,0.8,0.6,1.2,1c0.4,0.4,0.6,0.8,0.9,1.4c0.2,0.5,0.3,1.2,0.3,1.9c0,0.8-0.1,1.6-0.4,2.2c-0.3,0.6-0.6,1.2-1.1,1.6
				c-0.4,0.4-1,0.8-1.5,1c-0.6,0.2-1.2,0.3-1.9,0.3c-0.9,0-1.8-0.2-2.6-0.6c-0.8-0.4-1.4-0.8-1.9-1.4l1.6-2.1
				c0.4,0.4,0.8,0.8,1.3,1.1c0.5,0.3,1.1,0.4,1.6,0.4c0.6,0,1.1-0.2,1.5-0.6c0.4-0.4,0.6-1,0.6-1.8c0-0.7-0.2-1.3-0.7-1.8
				s-1.1-0.8-1.8-1.2c-0.5-0.2-0.9-0.5-1.3-0.7s-0.8-0.6-1.1-1c-0.3-0.4-0.6-0.8-0.7-1.3s-0.3-1.1-0.3-1.8c0-0.9,0.1-1.6,0.4-2.3
				c0.3-0.6,0.6-1.2,1.1-1.6c0.5-0.4,1-0.7,1.5-0.9c0.6-0.2,1.2-0.3,1.8-0.3c0.9,0,1.6,0.1,2.3,0.4c0.7,0.3,1.3,0.7,1.7,1.2
				L123.2,66.8z"/>
			<path class="st0" d="M130.4,80.5v-17h2.9v17H130.4z"/>
			<path class="st0" d="M144.2,66v14.5h-2.8V66h-3.2v-2.4h9.2V66H144.2z"/>
			<path class="st0" d="M157.4,74v6.5h-2.8V74l-4.2-10.5h3.1l2.5,7.6l0.1,0l2.6-7.5h3L157.4,74z"/>
			<path class="st0" d="M185.1,72c0,1.3-0.1,2.6-0.4,3.7c-0.3,1.1-0.7,2-1.2,2.8c-0.5,0.8-1.2,1.4-1.9,1.8c-0.8,0.4-1.6,0.6-2.6,0.6
				c-1,0-1.8-0.2-2.6-0.6c-0.8-0.4-1.4-1-1.9-1.8c-0.5-0.8-0.9-1.7-1.2-2.8c-0.3-1.1-0.4-2.3-0.4-3.7c0-1.3,0.1-2.6,0.4-3.6
				c0.3-1.1,0.7-2,1.2-2.8c0.5-0.8,1.2-1.4,1.9-1.8c0.8-0.4,1.6-0.6,2.6-0.6c0.9,0,1.8,0.2,2.6,0.6c0.8,0.4,1.4,1,1.9,1.8
				c0.5,0.8,0.9,1.7,1.2,2.8C184.9,69.4,185.1,70.6,185.1,72z M182.1,72c0-0.9-0.1-1.7-0.2-2.4c-0.1-0.8-0.3-1.4-0.6-2
				c-0.3-0.6-0.6-1-1-1.3c-0.4-0.3-0.8-0.5-1.4-0.5c-0.5,0-1,0.2-1.4,0.5c-0.4,0.3-0.7,0.8-1,1.3c-0.3,0.6-0.5,1.2-0.6,2
				c-0.1,0.8-0.2,1.6-0.2,2.4c0,0.9,0.1,1.7,0.2,2.4c0.1,0.8,0.3,1.4,0.6,2c0.3,0.6,0.6,1,1,1.3c0.4,0.3,0.9,0.5,1.4,0.5
				s1-0.2,1.4-0.5c0.4-0.3,0.7-0.8,1-1.3c0.3-0.6,0.5-1.2,0.6-2C182,73.7,182.1,72.8,182.1,72z"/>
			<path class="st0" d="M193.8,66.1v4.7h4.4v2.4h-4.3v7.3h-2.9v-17h7.6v2.6H193.8z"/>
		</g>
	</g>
</g>
</svg>
