<?xml version="1.0" encoding="utf-8"?>
<!-- Generator: Adobe Illustrator 20.1.0, SVG Export Plug-In . SVG Version: 6.00 Build 0)  -->
<svg version="1.1" id="Layer_1" xmlns="http://www.w3.org/2000/svg" xmlns:xlink="http://www.w3.org/1999/xlink" x="0px" y="0px"
	 viewBox="0 0 283.5 283.5" style="enable-background:new 0 0 283.5 283.5;" xml:space="preserve">
<style type="text/css">
	.st0{clip-path:url(#SVGID_2_);}
	.st1{clip-path:url(#SVGID_4_);fill:#FFFFFF;}
	.st2{opacity:0.8;clip-path:url(#SVGID_4_);}
	.st3{clip-path:url(#SVGID_6_);fill:#FFFFFF;}
</style>
<g>
	<defs>
		<rect id="SVGID_1_" width="283.5" height="283.5"/>
	</defs>
	<clipPath id="SVGID_2_">
		<use xlink:href="#SVGID_1_"  style="overflow:visible;"/>
	</clipPath>
	<g class="st0">
		<defs>
			<rect id="SVGID_3_" width="283.5" height="283.5"/>
		</defs>
		<clipPath id="SVGID_4_">
			<use xlink:href="#SVGID_3_"  style="overflow:visible;"/>
		</clipPath>
		<path class="st1" d="M272.8,141.7c0,72.4-58.7,131.1-131.1,131.1S10.6,214.1,10.6,141.7S69.3,10.6,141.7,10.6
			S272.8,69.3,272.8,141.7 M283.5,0H0v283.5h283.5V0z"/>
		<path class="st1" d="M141.7,209.1c37.2,0,67.3-30.1,67.3-67.3c0-37.2-30.1-67.3-67.3-67.3s-67.3,30.1-67.3,67.3
			C74.4,178.9,104.6,209.1,141.7,209.1"/>
		<g class="st2">
			<g>
				<defs>
					<rect id="SVGID_5_" x="8.7" y="10.7" width="266" height="256"/>
				</defs>
				<clipPath id="SVGID_6_">
					<use xlink:href="#SVGID_5_"  style="overflow:visible;"/>
				</clipPath>
				<path class="st3" d="M63.2,80.2c1.3-1.8,0.5-3-0.4-3.7c-1.2-0.9-2.6-1-3.7,0.5l-1.2,1.6l4.1,3.2L63.2,80.2z M79.4,60.2
					c-0.7-0.9-1.8-1.7-3.7-0.2l-1.8,1.4l3.1,3.9l1.8-1.4C80.5,62.5,80,61,79.4,60.2 M100.1,54.9l3.8-1.7l-4.7-5.1L100.1,54.9z
					 M204.5,68.7l2.5-6.5l-5.8,3.8L204.5,68.7z M228.3,75l-13.7,10.3l4.5,6c0.4,0.5,0.3,1.1-0.1,1.5l-3,2.2
					c-0.5,0.4-1.1,0.2-1.4-0.3l-7.7-10.2c-0.4-0.5-0.3-1.1,0.1-1.5L224.5,70c0.5-0.4,1.1-0.2,1.4,0.3l2.5,3.3
					C228.8,74.1,228.8,74.7,228.3,75 M214,59.6l-7.6,21.8c-0.2,0.4-0.8,0.8-1.2,0.5l-3.5-2.8c-0.7-0.6-0.9-1.2-0.6-2.2l1-3.2
					l-5.4-4.4L194,71c-0.8,0.5-1.3,0.7-2.2,0l-3.4-2.7c-0.5-0.4-0.1-1.1,0.3-1.4L208.3,55c0.7-0.4,1.4-0.1,1.8,0.2l3.3,2.7
					C214.1,58.4,214.2,59.1,214,59.6 M195.1,52.6c-0.1,0.3-0.5,0.9-1.1,0.7l-4.4-1.1c-0.6-0.2-0.9-0.7-0.9-1.2
					c0-1.8-0.6-3.5-2.7-4.4c-3.2-1.5-6.2,0.3-7.7,3.8c-1.8,3.9-0.9,6.8,2,8.1c1.7,0.8,3.7,0.6,5.2-0.7c0.4-0.3,1.1-0.4,1.5-0.1
					l3.9,2.5c0.5,0.3,0.4,1,0.1,1.3c-3.5,3.9-8.7,4.2-13.3,2.1c-6.7-3-8.9-8.8-5.6-16.1c2.8-6.3,9.4-9.3,16.1-6.3
					C193.2,43.5,196.4,47.2,195.1,52.6 M170.9,36.4l-5.4,21.2c-0.1,0.6-0.7,0.8-1.3,0.7l-4-1c-0.6-0.2-1-0.6-0.8-1.2l5.4-21.2
					c0.1-0.6,0.7-0.8,1.3-0.7l4,1C170.7,35.3,171,35.8,170.9,36.4 M159.2,33.4l-0.3,3.6c0,0.6-0.5,0.9-1.2,0.9l-4.9-0.4l-1.3,17.3
					c0,0.6-0.6,0.9-1.3,0.9l-4.1-0.3c-0.6,0-1.1-0.5-1-1.1l1.3-17.3l-5-0.4c-0.6,0-1.1-0.4-1-1l0.3-3.6c0-0.6,0.5-0.9,1.2-0.8
					l16.2,1.2C158.8,32.4,159.2,32.8,159.2,33.4 M137.2,47.7c-0.8,5.2-4.9,8.3-9.9,9.2c-7.2,1.2-12.3-2.3-13.6-10.2
					c-1.1-6.8,2.6-12.9,9.8-14.1c5.4-0.9,10.1,0.3,12,5.5c0.1,0.3,0,1-0.5,1.2l-4.3,1.5c-0.6,0.2-1.1-0.1-1.4-0.5
					c-1-1.5-2.5-2.5-4.7-2.2c-3.5,0.6-4.9,3.7-4.3,7.4c0.7,4.2,3.1,6.2,6.2,5.6c1.8-0.3,3.4-1.6,4-3.5c0.2-0.5,0.7-0.9,1.2-0.9
					l4.6-0.1C137,46.7,137.3,47.3,137.2,47.7 M100.1,40.6l16.1,16.5c0.3,0.4,0.4,1-0.1,1.3l-4,1.8c-0.9,0.4-1.4,0.3-2.2-0.5
					l-2.4-2.3l-6.3,2.9l0.2,3.3c0.1,0.9,0.1,1.5-1,2l-4,1.8c-0.6,0.3-1-0.4-1.1-0.9l-1.8-22.9c-0.1-0.8,0.5-1.3,1-1.5l3.9-1.8
					C99,40,99.7,40.2,100.1,40.6 M85.3,63.6l8.6,3.8c0.2,0.1,0.4,0.2,0.6,0.4c0.2,0.3,0.3,0.7-0.2,1.1l-3.6,2.9
					c-0.5,0.4-0.9,0.6-1.9,0.1l-7.6-3.7L80,69.2l4.8,6.1c0.4,0.5,0.3,1-0.2,1.4l-3.3,2.6c-0.5,0.4-1.1,0.4-1.5-0.1L66.3,62
					c-0.4-0.5-0.3-1.1,0.2-1.4l6.4-5.1c4.1-3.3,8.4-2.8,11.1,0.7C85.7,58.2,86.6,60.8,85.3,63.6 M66.5,71.4
					c4.5,3.5,3.6,8.2,1.2,11.3l-1.6,2.1l5.7,4.4c0.5,0.4,0.4,1,0.1,1.5L69.4,94c-0.4,0.5-1,0.6-1.4,0.3L50.6,81
					c-0.5-0.4-0.5-1-0.1-1.5l4.6-6C57.5,70.4,61.7,67.8,66.5,71.4 M67.3,141.7c0-41.1,33.3-74.4,74.4-74.4s74.4,33.3,74.4,74.4
					s-33.3,74.4-74.4,74.4S67.3,182.8,67.3,141.7 M265.7,141.7c0-68.5-55.5-124-124-124s-124,55.5-124,124s55.5,124,124,124
					S265.7,210.2,265.7,141.7"/>
			</g>
		</g>
	</g>
</g>
</svg>
