<?xml version="1.0" encoding="utf-8"?>
<!-- Generator: Adobe Illustrator 20.1.0, SVG Export Plug-In . SVG Version: 6.00 Build 0)  -->
<svg version="1.1" id="Layer_1" xmlns="http://www.w3.org/2000/svg" xmlns:xlink="http://www.w3.org/1999/xlink" x="0px" y="0px"
	 viewBox="0 0 283.5 283.5" style="enable-background:new 0 0 283.5 283.5;" xml:space="preserve">
<style type="text/css">
	.st0{clip-path:url(#SVGID_2_);}
	.st1{clip-path:url(#SVGID_6_);}
	.st2{clip-path:url(#SVGID_7_);}
	.st3{clip-path:url(#SVGID_8_);fill:#FFFFFF;}
	.st4{clip-path:url(#SVGID_8_);}
	.st5{opacity:0.5;}
	.st6{clip-path:url(#SVGID_10_);fill:#FFFFFF;}
</style>
<g>
	<g>
		<defs>
			<rect id="SVGID_1_" width="283.5" height="283.5"/>
		</defs>
		<clipPath id="SVGID_2_">
			<use xlink:href="#SVGID_1_"  style="overflow:visible;"/>
		</clipPath>
		<g class="st0">
			<g>
				<defs>
					<rect id="SVGID_3_" width="283.5" height="283.5"/>
				</defs>
				<defs>
					<rect id="SVGID_4_" width="283.5" height="283.5"/>
				</defs>
				<defs>
					<rect id="SVGID_5_" width="283.5" height="283.5"/>
				</defs>
				<clipPath id="SVGID_6_">
					<use xlink:href="#SVGID_3_"  style="overflow:visible;"/>
				</clipPath>
				<clipPath id="SVGID_7_" class="st1">
					<use xlink:href="#SVGID_4_"  style="overflow:visible;"/>
				</clipPath>
				<clipPath id="SVGID_8_" class="st2">
					<use xlink:href="#SVGID_5_"  style="overflow:visible;"/>
				</clipPath>
				<path class="st3" d="M272.8,141.7c0,72.4-58.7,131.1-131.1,131.1S10.6,214.1,10.6,141.7S69.3,10.6,141.7,10.6
					S272.8,69.3,272.8,141.7 M283.5,0H0v283.5h283.5V0z"/>
				<path class="st3" d="M141.7,209.1c37.2,0,67.3-30.1,67.3-67.3s-30.1-67.3-67.3-67.3s-67.3,30.1-67.3,67.3
					C74.4,178.9,104.6,209.1,141.7,209.1"/>
				<g class="st4">
					<g class="st5">
						<g>
							<defs>
								<rect id="SVGID_9_" x="8.7" y="10.7" width="266" height="256"/>
							</defs>
							<clipPath id="SVGID_10_">
								<use xlink:href="#SVGID_9_"  style="overflow:visible;"/>
							</clipPath>
							<path class="st6" d="M36.8,144.4v2l5.2-0.1v-1.9c0-2.2-1.5-2.7-2.6-2.6C37.9,141.7,36.8,142.5,36.8,144.4 M41.6,119
								c-1.2-0.2-2.5-0.1-3,2.2l-0.5,2.2l4.9,1l0.4-2.2C44,119.9,42.7,119.2,41.6,119 M54.3,101.5l1.8-3.8l-6.9-1L54.3,101.5z
								 M139.3,45.5h4.2l-2.1-6.6L139.3,45.5z M225.2,93.7l4.6-5.2l-6.7,1.7L225.2,93.7z M250.3,126l-20.3,7.2
								c-0.9,0.3-1.4,0-1.5-0.6l-1-4.2c-0.2-0.8,0.2-1.2,0.8-1.4l11.5-3.6l-12.6-0.4c-0.7,0-1.1-0.2-1.4-1.2l-0.6-2.5
								c-0.2-1,0-1.4,0.6-1.7l10.9-5.8l-11.7,1.9c-0.7,0.1-1.2-0.1-1.5-1l-0.9-3.9c-0.2-0.7,0.1-1.1,1-1.2L245,105
								c0.6-0.1,1.2,0.3,1.4,1.1l1.1,4.4c0.2,0.7-0.1,1.2-0.7,1.5l-10.9,6.2l12.7,0.8c0.7,0,1.1,0.4,1.2,1.1l1.1,4.4
								C251.2,125.2,250.9,125.8,250.3,126 M237.2,88.4l-14.5,17.9c-0.3,0.4-1,0.5-1.3,0l-2.3-3.8c-0.5-0.8-0.4-1.4,0.2-2.3l2-2.6
								l-3.6-5.9l-3.3,0.6c-0.9,0.2-1.5,0.2-2.1-0.8l-2.3-3.7c-0.3-0.6,0.3-1.1,0.7-1.2l22.5-4.5c0.8-0.2,1.4,0.4,1.6,0.8l2.2,3.6
								C237.7,87.3,237.6,88,237.2,88.4 M224.8,69.3c-0.1,0.2-0.3,0.3-0.6,0.3L212.4,73l-2.5,12.3c0,0.2-0.1,0.5-0.3,0.7
								c-0.3,0.3-0.7,0.3-1,0l-3.7-3.5c-0.5-0.4-0.9-1.1-0.7-2l1.6-6.1l-6,1.9c-0.8,0.2-1.4,0-2-0.5l-3.6-3.3
								c-0.4-0.3-0.3-0.7-0.1-0.9c0.2-0.2,0.5-0.3,0.8-0.3L207,68l2.6-11.9c0-0.2,0.1-0.5,0.3-0.6c0.3-0.3,0.7-0.3,1,0l3.5,3.3
								c0.8,0.7,0.9,1.2,0.6,2.2l-1.6,5.9l5.9-1.9c1-0.4,1.5-0.1,2.1,0.5l3.3,3.1C225.1,68.7,225.1,69,224.8,69.3 M203.8,51.3
								l-1.8,3.1c-0.3,0.5-0.9,0.6-1.4,0.3l-7.1-4.1l-1.8,3.1l5.8,3.4c0.5,0.3,0.8,0.8,0.5,1.4l-1.8,3.1c-0.3,0.5-0.9,0.6-1.4,0.2
								l-5.8-3.4l-1.9,3.3l7.5,4.3c0.5,0.3,0.8,0.8,0.5,1.4l-1.8,3.1c-0.3,0.5-0.8,0.6-1.4,0.2l-12-7c-0.5-0.3-0.7-0.9-0.4-1.4
								l11-18.9c0.3-0.5,0.9-0.6,1.4-0.3l11.6,6.8C203.9,50.3,204.1,50.8,203.8,51.3 M169.9,54.6l-0.8,3.6c-0.1,0.6-0.7,0.9-1.3,0.7
								l-12.4-2.8c-0.6-0.1-1-0.6-0.8-1.2l4.9-21.3c0.1-0.6,0.7-0.9,1.3-0.7l4.1,0.9c0.6,0.1,1,0.6,0.8,1.2l-3.8,16.7l7.3,1.7
								C169.7,53.6,170,54.1,169.9,54.6 M152.3,55.3h-4.4c-0.9,0-1.4-0.4-1.8-1.4l-1.2-3.1h-7l-1.2,3.1c-0.3,0.8-0.6,1.4-1.8,1.4
								h-4.4c-0.7,0-0.8-0.8-0.6-1.3l8-21.5c0.3-0.8,1.1-1,1.5-1h4.3c0.8,0,1.3,0.5,1.5,1l7.7,21.7
								C153.1,54.6,152.9,55.3,152.3,55.3 M128.5,48.5c-0.3,5.2-4,8.8-9,10.1c-7.1,1.9-12.4-1.2-14.5-8.9c-1.8-6.7,1.4-13.1,8.5-15
								c5.3-1.4,10.1-0.6,12.5,4.4c0.2,0.3,0.1,1-0.4,1.2l-4.1,1.9c-0.6,0.2-1.1,0-1.4-0.3c-1.1-1.4-2.7-2.3-4.9-1.7
								c-3.4,0.9-4.6,4.2-3.6,7.8c1.1,4.1,3.7,5.8,6.7,5c1.8-0.5,3.2-1.9,3.6-3.9c0.1-0.5,0.6-1,1.1-1.1l4.6-0.5
								C128.2,47.5,128.5,48.1,128.5,48.5 M96.7,42.1l9.5,19.6c0.3,0.5,0,1.1-0.5,1.4l-3.7,1.8c-0.6,0.3-1.1,0.1-1.4-0.4L91,44.9
								c-0.3-0.5,0-1.1,0.5-1.4l3.7-1.8C95.9,41.4,96.4,41.6,96.7,42.1 M87.6,51.6l-4,2.9l10.1,14.1c0.3,0.5,0.1,1.1-0.4,1.5
								L90,72.4c-0.5,0.4-1.1,0.3-1.5-0.2l-10.1-14l-4,2.9c-0.5,0.4-1.1,0.3-1.4-0.1l-2.1-2.9c-0.3-0.5-0.2-1,0.4-1.4l13.2-9.5
								c0.5-0.4,1.1-0.4,1.4,0.1l2.1,2.9C88.3,50.7,88.1,51.2,87.6,51.6 M70.6,66c0.3,0.2,0.7,0.8,0.4,1.2l-2.3,3.9
								c-0.3,0.5-0.9,0.7-1.4,0.5c-1.7-0.5-3.5-0.3-5,1.4c-2.3,2.7-1.4,6,1.5,8.5c3.3,2.8,6.3,2.7,8.4,0.3c1.2-1.4,1.6-3.4,0.8-5.2
								c-0.2-0.5-0.1-1.1,0.3-1.5l3.5-3.1c0.5-0.4,1-0.1,1.3,0.3c2.8,4.4,1.7,9.5-1.6,13.4c-4.7,5.6-10.9,6.1-17,1
								c-5.3-4.5-6.3-11.6-1.6-17.2C61.4,65.3,65.8,63.2,70.6,66 M68,93c0.5,0.1,1,0.6,0.7,1.1l-1.9,4c-0.4,0.9-0.9,1.1-2,1
								l-3.3-0.3l-3,6.3l2.3,2.4c0.6,0.6,1,1.1,0.5,2.2l-1.9,3.9c-0.3,0.6-1.1,0.3-1.4,0L42,97.1c-0.6-0.6-0.4-1.4-0.2-1.8l1.9-3.8
								c0.3-0.7,1-1,1.5-0.9L68,93z M42.7,112.9c2.4,0.5,4.9,1.8,5.7,4.9l9-2.7c0.2-0.1,0.4-0.1,0.7,0c0.4,0.1,0.7,0.4,0.6,0.9
								l-0.9,4.6c-0.1,0.6-0.4,1-1.4,1.3l-8.2,2.1l-0.3,1.4l7.6,1.5c0.6,0.1,0.9,0.6,0.7,1.3l-0.8,4.1c-0.1,0.6-0.6,1-1.2,0.9
								l-21.4-4.3c-0.6-0.1-0.9-0.6-0.7-1.3l1.6-8C34.8,114.3,38.3,112,42.7,112.9 M31.5,144.2c-0.1-4,1.6-8.7,7.7-8.8
								c5.7-0.1,7.9,4.1,8,8.1l0.1,2.6l7.2-0.2c0.6,0,1,0.5,1,1.2l0.1,4.1c0,0.6-0.4,1.1-1,1.1l-21.8,0.5c-0.6,0-1-0.4-1-1.1
								L31.5,144.2z M67.3,141.7c0-41.1,33.3-74.4,74.4-74.4s74.4,33.3,74.4,74.4s-33.3,74.4-74.4,74.4S67.3,182.8,67.3,141.7
								 M227.8,144.1c0.1-2.9,0.6-5.1,1.6-6.5c1.3-1.9,3-2.7,5.4-2.7c0.4,0,1,0.2,1,1l-0.1,3.9c0,0.7-0.3,1-0.8,1.2
								c-1.6,0.5-1.8,1.6-1.9,3.1c-0.1,2,0.5,3.2,1.9,3.2c1.5,0,2.1-1.4,2.6-4.1c1.1-5.5,3.1-7.8,7.4-7.7c4,0.1,7.6,3.4,7.4,9.3
								c-0.1,4.1-1.4,6.6-3.5,7.8c-0.9,0.5-1.9,0.8-3.3,0.8c-0.6,0-0.9-0.2-0.9-0.8l0.1-4.3c0-0.7,0.3-0.9,0.8-1.1
								c0.9-0.3,1.6-0.9,1.6-2.5c0.1-1.8-0.7-2.8-2-2.8c-1.4,0-1.9,1.3-2.3,4.1c-1,5.9-3.2,7.9-7.6,7.8
								C230.5,153.5,227.6,150.1,227.8,144.1 M265.7,141.7c0-68.5-55.5-124-124-124s-124,55.5-124,124s55.5,124,124,124
								S265.7,210.2,265.7,141.7"/>
						</g>
					</g>
				</g>
			</g>
		</g>
	</g>
</g>
</svg>
