<?xml version="1.0" encoding="utf-8"?>
<!-- Generator: Adobe Illustrator 26.5.3, SVG Export Plug-In . SVG Version: 6.00 Build 0)  -->
<svg version="1.1" id="Layer_1" xmlns="http://www.w3.org/2000/svg" xmlns:xlink="http://www.w3.org/1999/xlink" x="0px" y="0px"
	 viewBox="0 0 170.1 54.8" style="enable-background:new 0 0 170.1 54.8;" xml:space="preserve">
<style type="text/css">
	.st0{fill:#010202;}
	.st1{fill:#EA542B;}
</style>
<g>
	<path class="st0" d="M168,21.3c-1.4-1.9-3.8-2.8-7.2-2.8c-3.1,0-5.6,1.1-7.5,3.3c-1.9,2.2-2.9,5.3-2.9,9.4c0,3.9,1,6.9,3.1,9.2
		c2,2.2,4.6,3.4,7.7,3.4c3.4,0,6.3-0.8,8.8-2.3l-0.3-3.1c-0.7,0.6-1.8,1.2-3.3,1.7c-1.4,0.5-2.9,0.7-4.2,0.7c-2.6,0-4.6-0.8-6-2.5
		c-1.4-1.7-2.2-4-2.2-7v-0.8h16.1C170.1,26.2,169.4,23.1,168,21.3 M155.2,24.9c0.5-0.9,0.9-1.6,1.2-1.9c0.4-0.4,0.7-0.6,0.9-0.8
		c0.1-0.1,0.6-0.3,1.3-0.5c0.7-0.2,1.3-0.3,1.9-0.3c2.3,0,3.9,0.4,4.9,1.3c1,0.9,1.5,2.5,1.6,5.1h-12.8
		C154.4,26.7,154.7,25.8,155.2,24.9 M143.9,18.5c-1.3,0-2.4,0.4-3.5,1.2c-1,0.8-1.8,1.8-2.4,2.9l-0.6-3.5h-3.1l0.2,1.9
		c0.1,1.1,0.2,2.6,0.2,4.7v17.4h3.4V27.2c0.5-1.3,1.3-2.6,2.3-3.9s2-1.9,3.1-1.9c0.6,0,1,0.1,1.3,0.4c0.3,0.3,0.5,0.5,0.6,0.7
		s0.1,0.4,0.1,0.6l2.7-1l-0.1-0.5c0-0.3-0.1-0.7-0.3-1.2c-0.2-0.5-0.4-0.9-0.8-1.1C146.5,18.8,145.4,18.5,143.9,18.5 M126.6,36.4
		V19.1h-3.4v16.6c-0.4,0.7-0.8,1.3-1.4,2c-0.6,0.7-1.1,1.2-1.5,1.6c-0.4,0.4-0.7,0.6-0.8,0.6c-1.3,0.6-2.6,1-4,1
		c-1,0-1.7-0.2-2.3-0.5c-0.6-0.4-1-0.9-1.3-1.6c-0.3-0.7-0.4-1.5-0.5-2.2c-0.1-0.7-0.1-1.7-0.1-2.8V19.1h-3.4v16.8
		c0,5.3,2.5,7.9,7.4,7.9c1.9,0,3.4-0.3,4.5-0.9c1.1-0.6,2.4-1.7,3.6-3.3l0.6,3.5h3.1l-0.2-1.9C126.7,40.3,126.6,38.8,126.6,36.4
		 M99.3,13.8c-2-1.8-4.4-2.7-7.4-2.7H81.9v31.9h3.5V31.5c1.7,0.1,3.5,0.2,5.3,0.2c3,0,5.7-1,8-3s3.5-4.5,3.5-7.5
		C102.3,18.1,101.3,15.6,99.3,13.8 M89.1,28.7c-1.1,0-2.3-0.1-3.7-0.2V14.1h5.1c5.2,0,7.8,2.4,7.8,7.1
		C98.4,26.2,95.3,28.7,89.1,28.7"/>
	<path class="st1" d="M54.8,54.8V8.5C54.8,3.8,51,0,46.3,0H8.5C3.8,0,0,3.8,0,8.5v37.8c0,4.7,3.8,8.5,8.5,8.5H54.8z"/>
</g>
</svg>
