<?xml version="1.0" encoding="utf-8"?>
<!-- Generator: Adobe Illustrator 20.1.0, SVG Export Plug-In . SVG Version: 6.00 Build 0)  -->
<svg version="1.1" id="Layer_1" xmlns="http://www.w3.org/2000/svg" xmlns:xlink="http://www.w3.org/1999/xlink" x="0px" y="0px"
	 viewBox="0 0 109.9 132.6" style="enable-background:new 0 0 109.9 132.6;" xml:space="preserve">
<style type="text/css">
	.st0{fill:#FFFFFF;}
</style>
<g>
	<path class="st0" d="M101.4,85.5h4.5v10.8h4V71.1h-4v10.8h-4.5V71.1h-4v25.2h4V85.5z M91.3,86.9v3.6c0,1.8-0.8,2.4-2.1,2.4
		s-2.1-0.6-2.1-2.4V76.9c0-1.8,0.8-2.5,2.1-2.5s2.1,0.7,2.1,2.5v2.7H95v-2.4c0-4-2-6.3-5.9-6.3s-5.9,2.3-5.9,6.3v13.1
		c0,4,2,6.3,5.9,6.3s5.9-2.3,5.9-6.3v-3.3H91.3z M75,74.7c1.4,0,2,0.8,2,2.6v2.5c0,2-0.9,2.7-2.4,2.7H73v-7.7H75z M81.4,96.3
		C81,95.3,81,94.4,81,93.2v-3.9c0-2.6-0.6-4.5-2.6-5.4c1.8-0.8,2.6-2.5,2.6-5.1v-2c0-3.9-1.8-5.8-5.9-5.8h-6v25.2h4V86h1.4
		c1.8,0,2.6,0.9,2.6,3.2v4c0,2.1,0.1,2.4,0.4,3.1H81.4z M60.1,75.5L62,88.3h-3.8L60.1,75.5z M63.2,71.1h-5.8l-4,25.2H57l0.7-4.6h4.9
		l0.7,4.6h4L63.2,71.1z M45.1,74.7H52v-3.6H41.2v25.2H52v-3.6h-6.8v-7.4h5.4v-3.6h-5.4V74.7z M27.2,77.1c0,7.2,7.7,8.2,7.7,13.4
		c0,1.8-0.8,2.4-2.1,2.4s-2.1-0.6-2.1-2.4v-1.8h-3.7v1.5c0,4,2,6.3,5.9,6.3s5.9-2.3,5.9-6.3c0-7.2-7.7-8.2-7.7-13.4
		c0-1.8,0.7-2.5,2-2.5c1.3,0,2,0.7,2,2.5v1h3.7v-0.8c0-4-2-6.3-5.8-6.3S27.2,73.1,27.2,77.1 M18.4,74.7h6.8v-3.6H14.5v25.2h10.8
		v-3.6h-6.8v-7.4h5.4v-3.6h-5.4V74.7z M5.9,74.7c1.4,0,2,0.8,2,2.6v2.5c0,2-0.9,2.7-2.4,2.7H4v-7.7H5.9z M12.3,96.3
		c-0.4-0.9-0.4-1.8-0.4-3.1v-3.9c0-2.6-0.6-4.5-2.6-5.4c1.8-0.8,2.6-2.5,2.6-5.1v-2c0-3.9-1.8-5.8-5.9-5.8H0v25.2h4V86h1.4
		c1.8,0,2.6,0.9,2.6,3.2v4c0,2.1,0.1,2.4,0.4,3.1H12.3z"/>
	<path class="st0" d="M93.2,132.3h10.5v-3.6h-6.5v-21.6h-4V132.3z M84.3,111.5l1.9,12.7h-3.8L84.3,111.5z M87.4,107.1h-5.8l-4,25.2
		h3.6l0.7-4.6h4.9l0.7,4.6h4L87.4,107.1z M67.9,107.1h-4l3.9,25.2h5.9l3.9-25.2H74l-3,20.6L67.9,107.1z M58.2,132.3h4v-25.2h-4
		V132.3z M44.2,110.7h4.1v21.6h4v-21.6h4.1v-3.6H44.2V110.7z M31.4,113.1c0,7.2,7.7,8.2,7.7,13.4c0,1.8-0.8,2.4-2.1,2.4
		c-1.3,0-2.1-0.6-2.1-2.4v-1.8h-3.7v1.5c0,4,2,6.3,5.9,6.3s5.9-2.3,5.9-6.3c0-7.2-7.7-8.2-7.7-13.4c0-1.8,0.7-2.5,2-2.5
		c1.3,0,2,0.7,2,2.5v1H43v-0.8c0-4-2-6.3-5.8-6.3S31.4,109.1,31.4,113.1 M22.6,110.7h6.8v-3.6H18.6v25.2h10.8v-3.6h-6.8v-7.4H28
		v-3.6h-5.4V110.7z M10.2,110.7h6.5v-3.6H6.2v25.2h4v-10.4h5.1v-3.6h-5.1V110.7z"/>
	<path class="st0" d="M75.6,24c0,0.6,0.5,1.1,1.1,1.1s1.1-0.5,1.1-1.1s-0.5-1.1-1.1-1.1S75.6,23.4,75.6,24 M75.6,21.2
		c0,0.6,0.5,1.1,1.1,1.1s1.1-0.5,1.1-1.1c0-0.2,0-0.3-0.1-0.4c0-0.1-0.1-0.1-0.1-0.2c-0.2-0.3-0.5-0.5-0.9-0.5
		C76.1,20,75.6,20.5,75.6,21.2 M75.6,18.3c0,0.6,0.5,1.1,1.1,1.1s1.1-0.5,1.1-1.1c0-0.1,0-0.2,0-0.2c-0.1-0.4-0.3-0.7-0.7-0.8
		c-0.1-0.1-0.3-0.1-0.4-0.1C76.1,17.2,75.6,17.7,75.6,18.3 M41,41c0-0.6-0.5-1.1-1.1-1.1c-0.6,0-1.1,0.5-1.1,1.1c0,0,0,0,0,0
		c0,0,0,0,0,0c0,0.5,0.4,1,0.9,1.1c0.1,0,0.2,0,0.2,0C40.5,42.1,41,41.6,41,41 M43.8,38.2c0-0.6-0.5-1.1-1.1-1.1s-1.1,0.5-1.1,1.1
		c0,0.2,0,0.3,0.1,0.4c0.1,0.2,0.2,0.4,0.4,0.5c0.2,0.1,0.4,0.2,0.6,0.2C43.3,39.3,43.8,38.8,43.8,38.2 M46.7,35.3
		c0-0.6-0.5-1.1-1.1-1.1c-0.6,0-1.1,0.5-1.1,1.1c0,0.6,0.5,1.1,1.1,1.1C46.1,36.5,46.7,36,46.7,35.3 M46.7,38.2
		c0-0.6-0.5-1.1-1.1-1.1c-0.6,0-1.1,0.5-1.1,1.1c0,0.6,0.5,1.1,1.1,1.1C46.1,39.3,46.7,38.8,46.7,38.2 M46.7,41
		c0-0.6-0.5-1.1-1.1-1.1c-0.6,0-1.1,0.5-1.1,1.1c0,0.2,0,0.3,0.1,0.5c0.1,0.3,0.3,0.5,0.6,0.6c0.1,0.1,0.3,0.1,0.4,0.1
		C46.1,42.1,46.7,41.6,46.7,41 M46.7,43.8c0-0.6-0.5-1.1-1.1-1.1c-0.6,0-1.1,0.5-1.1,1.1c0,0.2,0,0.3,0.1,0.4c0.2,0.4,0.6,0.7,1,0.7
		c0,0,0,0,0,0c0,0,0,0,0,0C46.1,45,46.7,44.5,46.7,43.8 M49.5,32.5c0-0.6-0.5-1.1-1.1-1.1c-0.6,0-1.1,0.5-1.1,1.1s0.5,1.1,1.1,1.1
		C49,33.6,49.5,33.1,49.5,32.5 M49.5,35.3c0-0.6-0.5-1.1-1.1-1.1c-0.6,0-1.1,0.5-1.1,1.1c0,0.6,0.5,1.1,1.1,1.1
		C49,36.5,49.5,36,49.5,35.3 M49.5,38.2c0-0.6-0.5-1.1-1.1-1.1c-0.6,0-1.1,0.5-1.1,1.1c0,0.6,0.5,1.1,1.1,1.1
		C49,39.3,49.5,38.8,49.5,38.2 M52.3,29.7c0-0.6-0.5-1.1-1.1-1.1s-1.1,0.5-1.1,1.1c0,0.6,0.5,1.1,1.1,1.1S52.3,30.3,52.3,29.7
		 M52.3,32.5c0-0.6-0.5-1.1-1.1-1.1s-1.1,0.5-1.1,1.1s0.5,1.1,1.1,1.1S52.3,33.1,52.3,32.5 M52.3,35.3c0-0.6-0.5-1.1-1.1-1.1
		s-1.1,0.5-1.1,1.1c0,0.6,0.5,1.1,1.1,1.1S52.3,36,52.3,35.3 M55.2,26.8c0-0.6-0.5-1.1-1.1-1.1c-0.6,0-1.1,0.5-1.1,1.1
		c0,0.6,0.5,1.1,1.1,1.1C54.7,28,55.2,27.5,55.2,26.8 M55.2,29.7c0-0.6-0.5-1.1-1.1-1.1c-0.6,0-1.1,0.5-1.1,1.1
		c0,0.6,0.5,1.1,1.1,1.1C54.7,30.8,55.2,30.3,55.2,29.7 M55.2,32.5c0-0.6-0.5-1.1-1.1-1.1c-0.6,0-1.1,0.5-1.1,1.1s0.5,1.1,1.1,1.1
		C54.7,33.6,55.2,33.1,55.2,32.5 M55.2,35.3c0-0.6-0.5-1.1-1.1-1.1c-0.6,0-1.1,0.5-1.1,1.1c0,0.6,0.5,1.1,1.1,1.1
		C54.7,36.5,55.2,36,55.2,35.3 M58,18.3c0-0.6-0.5-1.1-1.1-1.1c-0.6,0-1.1,0.5-1.1,1.1c0,0.6,0.5,1.1,1.1,1.1
		C57.5,19.5,58,19,58,18.3 M58,21.2c0-0.6-0.5-1.1-1.1-1.1c-0.6,0-1.1,0.5-1.1,1.1c0,0.6,0.5,1.1,1.1,1.1C57.5,22.3,58,21.8,58,21.2
		 M58,24c0-0.6-0.5-1.1-1.1-1.1c-0.6,0-1.1,0.5-1.1,1.1s0.5,1.1,1.1,1.1C57.5,25.1,58,24.6,58,24 M58,26.8c0-0.6-0.5-1.1-1.1-1.1
		c-0.6,0-1.1,0.5-1.1,1.1c0,0.6,0.5,1.1,1.1,1.1C57.5,28,58,27.5,58,26.8 M58,29.7c0-0.6-0.5-1.1-1.1-1.1c-0.6,0-1.1,0.5-1.1,1.1
		c0,0.6,0.5,1.1,1.1,1.1C57.5,30.8,58,30.3,58,29.7 M58,32.5c0-0.6-0.5-1.1-1.1-1.1c-0.6,0-1.1,0.5-1.1,1.1s0.5,1.1,1.1,1.1
		C57.5,33.6,58,33.1,58,32.5 M60.8,21.2c0-0.6-0.5-1.1-1.1-1.1s-1.1,0.5-1.1,1.1c0,0.6,0.5,1.1,1.1,1.1S60.8,21.8,60.8,21.2
		 M60.8,24c0-0.6-0.5-1.1-1.1-1.1s-1.1,0.5-1.1,1.1s0.5,1.1,1.1,1.1S60.8,24.6,60.8,24 M60.8,26.8c0-0.6-0.5-1.1-1.1-1.1
		s-1.1,0.5-1.1,1.1c0,0.6,0.5,1.1,1.1,1.1S60.8,27.5,60.8,26.8 M60.8,29.7c0-0.6-0.5-1.1-1.1-1.1s-1.1,0.5-1.1,1.1
		c0,0.6,0.5,1.1,1.1,1.1S60.8,30.3,60.8,29.7 M60.8,32.5c0-0.6-0.5-1.1-1.1-1.1s-1.1,0.5-1.1,1.1s0.5,1.1,1.1,1.1
		S60.8,33.1,60.8,32.5 M63.7,15.5c0-0.6-0.5-1.1-1.1-1.1c-0.6,0-1.1,0.5-1.1,1.1c0,0.6,0.5,1.1,1.1,1.1
		C63.2,16.6,63.7,16.1,63.7,15.5 M63.7,18.3c0-0.6-0.5-1.1-1.1-1.1c-0.6,0-1.1,0.5-1.1,1.1c0,0.6,0.5,1.1,1.1,1.1
		C63.2,19.5,63.7,19,63.7,18.3 M63.7,21.2c0-0.6-0.5-1.1-1.1-1.1c-0.6,0-1.1,0.5-1.1,1.1c0,0.6,0.5,1.1,1.1,1.1
		C63.2,22.3,63.7,21.8,63.7,21.2 M63.7,24c0-0.6-0.5-1.1-1.1-1.1c-0.6,0-1.1,0.5-1.1,1.1s0.5,1.1,1.1,1.1
		C63.2,25.1,63.7,24.6,63.7,24 M63.7,26.8c0-0.6-0.5-1.1-1.1-1.1c-0.6,0-1.1,0.5-1.1,1.1c0,0.6,0.5,1.1,1.1,1.1
		C63.2,28,63.7,27.5,63.7,26.8 M63.7,29.7c0-0.6-0.5-1.1-1.1-1.1c-0.6,0-1.1,0.5-1.1,1.1c0,0.6,0.5,1.1,1.1,1.1
		C63.2,30.8,63.7,30.3,63.7,29.7 M63.7,32.5c0-0.6-0.5-1.1-1.1-1.1c-0.6,0-1.1,0.5-1.1,1.1s0.5,1.1,1.1,1.1
		C63.2,33.6,63.7,33.1,63.7,32.5 M66.5,15.5c0-0.6-0.5-1.1-1.1-1.1s-1.1,0.5-1.1,1.1c0,0.6,0.5,1.1,1.1,1.1S66.5,16.1,66.5,15.5
		 M66.5,18.3c0-0.6-0.5-1.1-1.1-1.1s-1.1,0.5-1.1,1.1c0,0.6,0.5,1.1,1.1,1.1S66.5,19,66.5,18.3 M66.5,21.2c0-0.6-0.5-1.1-1.1-1.1
		s-1.1,0.5-1.1,1.1c0,0.6,0.5,1.1,1.1,1.1S66.5,21.8,66.5,21.2 M66.5,24c0-0.6-0.5-1.1-1.1-1.1s-1.1,0.5-1.1,1.1s0.5,1.1,1.1,1.1
		S66.5,24.6,66.5,24 M66.5,26.8c0-0.6-0.5-1.1-1.1-1.1s-1.1,0.5-1.1,1.1c0,0.6,0.5,1.1,1.1,1.1S66.5,27.5,66.5,26.8 M66.5,29.7
		c0-0.6-0.5-1.1-1.1-1.1s-1.1,0.5-1.1,1.1c0,0.6,0.5,1.1,1.1,1.1S66.5,30.3,66.5,29.7 M66.5,32.5c0-0.6-0.5-1.1-1.1-1.1
		s-1.1,0.5-1.1,1.1s0.5,1.1,1.1,1.1S66.5,33.1,66.5,32.5 M66.5,35.3c0-0.6-0.5-1.1-1.1-1.1s-1.1,0.5-1.1,1.1c0,0.6,0.5,1.1,1.1,1.1
		S66.5,36,66.5,35.3 M69.3,12.7c0-0.3-0.1-0.6-0.3-0.8c-0.2-0.2-0.5-0.3-0.8-0.3c0,0,0,0,0,0c0,0,0,0,0,0c-0.6,0-1.1,0.5-1.1,1.1
		c0,0.6,0.5,1.1,1.1,1.1S69.3,13.3,69.3,12.7 M69.3,15.5c0-0.6-0.5-1.1-1.1-1.1s-1.1,0.5-1.1,1.1c0,0.6,0.5,1.1,1.1,1.1
		S69.3,16.1,69.3,15.5 M69.3,18.3c0-0.6-0.5-1.1-1.1-1.1s-1.1,0.5-1.1,1.1c0,0.6,0.5,1.1,1.1,1.1S69.3,19,69.3,18.3 M69.3,21.2
		c0-0.6-0.5-1.1-1.1-1.1s-1.1,0.5-1.1,1.1c0,0.6,0.5,1.1,1.1,1.1S69.3,21.8,69.3,21.2 M69.3,24c0-0.6-0.5-1.1-1.1-1.1
		s-1.1,0.5-1.1,1.1s0.5,1.1,1.1,1.1S69.3,24.6,69.3,24 M69.3,26.8c0-0.6-0.5-1.1-1.1-1.1s-1.1,0.5-1.1,1.1c0,0.6,0.5,1.1,1.1,1.1
		S69.3,27.5,69.3,26.8 M69.3,29.7c0-0.6-0.5-1.1-1.1-1.1s-1.1,0.5-1.1,1.1c0,0.6,0.5,1.1,1.1,1.1S69.3,30.3,69.3,29.7 M69.3,32.5
		c0-0.6-0.5-1.1-1.1-1.1s-1.1,0.5-1.1,1.1s0.5,1.1,1.1,1.1S69.3,33.1,69.3,32.5 M69.3,35.3c0-0.6-0.5-1.1-1.1-1.1s-1.1,0.5-1.1,1.1
		c0,0.6,0.5,1.1,1.1,1.1S69.3,36,69.3,35.3 M69.3,38.2c0-0.6-0.5-1.1-1.1-1.1s-1.1,0.5-1.1,1.1c0,0.6,0.5,1.1,1.1,1.1
		S69.3,38.8,69.3,38.2 M72.2,15.5c0-0.2-0.1-0.5-0.2-0.6c-0.2-0.2-0.4-0.4-0.7-0.5c-0.1,0-0.2,0-0.2,0c-0.6,0-1.1,0.5-1.1,1.1
		c0,0.6,0.5,1.1,1.1,1.1C71.7,16.6,72.2,16.1,72.2,15.5 M72.2,18.3c0-0.6-0.5-1.1-1.1-1.1c-0.6,0-1.1,0.5-1.1,1.1
		c0,0.6,0.5,1.1,1.1,1.1C71.7,19.5,72.2,19,72.2,18.3 M72.2,21.2c0-0.6-0.5-1.1-1.1-1.1c-0.6,0-1.1,0.5-1.1,1.1
		c0,0.6,0.5,1.1,1.1,1.1C71.7,22.3,72.2,21.8,72.2,21.2 M72.2,24c0-0.6-0.5-1.1-1.1-1.1c-0.6,0-1.1,0.5-1.1,1.1s0.5,1.1,1.1,1.1
		C71.7,25.1,72.2,24.6,72.2,24 M72.2,26.8c0-0.6-0.5-1.1-1.1-1.1c-0.6,0-1.1,0.5-1.1,1.1c0,0.6,0.5,1.1,1.1,1.1
		C71.7,28,72.2,27.5,72.2,26.8 M72.2,29.7c0-0.6-0.5-1.1-1.1-1.1c-0.6,0-1.1,0.5-1.1,1.1c0,0.6,0.5,1.1,1.1,1.1
		C71.7,30.8,72.2,30.3,72.2,29.7 M72.2,32.5c0-0.6-0.5-1.1-1.1-1.1c-0.6,0-1.1,0.5-1.1,1.1s0.5,1.1,1.1,1.1
		C71.7,33.6,72.2,33.1,72.2,32.5 M72.2,35.3c0-0.6-0.5-1.1-1.1-1.1c-0.6,0-1.1,0.5-1.1,1.1c0,0.6,0.5,1.1,1.1,1.1
		C71.7,36.5,72.2,36,72.2,35.3 M75,15.5c0-0.2,0-0.3-0.1-0.4c-0.1-0.3-0.4-0.6-0.8-0.7c-0.1,0-0.2,0-0.2,0c-0.6,0-1.1,0.5-1.1,1.1
		c0,0.6,0.5,1.1,1.1,1.1S75,16.1,75,15.5 M75,18.3c0-0.2-0.1-0.5-0.2-0.6c-0.1-0.1-0.2-0.2-0.3-0.3c-0.2-0.1-0.4-0.2-0.6-0.2
		c-0.6,0-1.1,0.5-1.1,1.1c0,0.6,0.5,1.1,1.1,1.1S75,19,75,18.3 M75,21.2c0-0.6-0.5-1.1-1.1-1.1s-1.1,0.5-1.1,1.1
		c0,0.6,0.5,1.1,1.1,1.1S75,21.8,75,21.2 M75,24c0-0.6-0.5-1.1-1.1-1.1s-1.1,0.5-1.1,1.1s0.5,1.1,1.1,1.1S75,24.6,75,24 M75,26.8
		c0-0.6-0.5-1.1-1.1-1.1s-1.1,0.5-1.1,1.1c0,0.6,0.5,1.1,1.1,1.1S75,27.5,75,26.8 M76.9,14.4c-0.1,0-0.1,0-0.2,0c0,0,0,0,0,0
		c-0.6,0-1.1,0.5-1.1,1.1c0,0.6,0.5,1.1,1.1,1.1c0.5,0,0.9-0.3,1.1-0.8c0.3,0.6,0.6,1.2,0.9,1.8c-0.2,0.2-0.3,0.4-0.3,0.7
		c0,0.6,0.4,1.1,1,1.1c0.1,0.2,0.1,0.4,0.2,0.6c0,0-0.1,0-0.1,0c-0.6,0-1.1,0.5-1.1,1.1c0,0.6,0.5,1.1,1.1,1.1
		c0.3,0,0.5-0.1,0.7-0.2c0.1,0.4,0.2,0.9,0.3,1.3c0,0,0,0,0,0c-0.2-0.3-0.5-0.5-0.9-0.5c-0.6,0-1.1,0.5-1.1,1.1s0.5,1.1,1.1,1.1
		c0.5,0,1-0.4,1.1-0.9c0.2,1.3,0.3,2.6,0.3,4c0,14.4-11.6,26-26,26c-14.4,0-26-11.6-26-26s11.6-26,26-26
		C64.2,2.3,72.3,7.1,76.9,14.4 M83.3,28.3C83.3,12.6,70.6-0.1,55-0.1c-15.7,0-28.3,12.7-28.3,28.3S39.3,56.6,55,56.6
		C70.6,56.6,83.3,43.9,83.3,28.3"/>
</g>
</svg>
