<?xml version="1.0" encoding="UTF-8"?><svg width="24" height="24" id="Layer_1" xmlns="http://www.w3.org/2000/svg" viewBox="0 0 170.08 170.08"><defs><style>.cls-1{fill:#666;}</style></defs><path class="cls-1" d="M106.3,67.32c0,21.53-17.45,38.98-38.98,38.98s-38.98-17.45-38.98-38.98S45.8,28.35,67.32,28.35s38.98,17.45,38.98,38.98m59.63,78.56l-42.05-42.05c6.81-10.52,10.77-23.05,10.77-36.51C134.65,30.14,104.5,0,67.32,0S0,30.14,0,67.32s30.14,67.32,67.32,67.32c13.46,0,25.99-3.97,36.51-10.77l42.05,42.05c5.54,5.53,14.51,5.53,20.04,0,5.54-5.54,5.54-14.51,0-20.04"/></svg>