<?xml version="1.0" encoding="utf-8"?>
<!-- Generator: Adobe Illustrator 22.1.0, SVG Export Plug-In . SVG Version: 6.00 Build 0)  -->
<svg version="1.1" id="Layer_1" xmlns="http://www.w3.org/2000/svg" xmlns:xlink="http://www.w3.org/1999/xlink" x="0px" y="0px"
	 viewBox="0 0 53.2 56.7" style="enable-background:new 0 0 53.2 56.7;" xml:space="preserve">
<style type="text/css">
	.st0{fill:#FFFFFF;}
</style>
<g>
	<g>
		<path class="st0" d="M41.6,2.6h4.6V0.2h-7.3v16.9h7.3v-2.4h-4.6v-5h3.7V7.3h-3.7V2.6z M33.6,2.6c0.8,0,1.3,0.4,1.3,1.6v2.5
			c0,1.2-0.5,1.6-1.3,1.6h-1.3V2.6H33.6z M33.6,0.2h-3.9v16.9h2.7v-6.4h1.3c2.7,0,4-1.5,4-4.2V4.4C37.5,1.7,36.2,0.2,33.6,0.2
			 M23.6,3.2l1.3,8.6h-2.6L23.6,3.2z M25.7,0.2h-3.9l-2.7,16.9h2.4l0.5-3.1h3.3l0.5,3.1h2.7L25.7,0.2z M12.1,9.9h3v7.3h2.7V0.2h-2.7
			v7.3h-3V0.2H9.5v16.9h2.7V9.9z M0.1,4.3c0,4.8,5.2,5.5,5.2,9c0,1.2-0.5,1.6-1.4,1.6c-0.8,0-1.4-0.4-1.4-1.6V12H0v1
			c0,2.7,1.4,4.3,4,4.3c2.6,0,4-1.5,4-4.3c0-4.8-5.2-5.5-5.2-9c0-1.2,0.5-1.7,1.3-1.7s1.3,0.5,1.3,1.7v0.7h2.5V4.3
			C7.9,1.5,6.6,0,4,0C1.4,0,0.1,1.5,0.1,4.3"/>
		<path class="st0" d="M33.3,22.4c0.9,0,1.4,0.5,1.4,1.7v1.7c0,1.4-0.6,1.8-1.6,1.8h-1v-5.2H33.3z M37.6,36.9
			c-0.3-0.6-0.3-1.2-0.3-2.1v-2.6c0-1.8-0.4-3.1-1.8-3.6c1.2-0.6,1.7-1.7,1.7-3.4v-1.3c0-2.6-1.2-3.9-3.9-3.9h-4v16.9H32V30h0.9
			c1.2,0,1.7,0.6,1.7,2.2v2.7c0,1.4,0.1,1.6,0.2,2.1H37.6z M19.6,19.9v12.9c0,2.7,1.4,4.3,4,4.3s4-1.5,4-4.3V19.9H25V33
			c0,1.2-0.5,1.6-1.4,1.6c-0.8,0-1.4-0.4-1.4-1.6V19.9H19.6z M9.9,32.8c0,2.7,1.4,4.3,4,4.3s4-1.5,4-4.3V24c0-2.7-1.4-4.3-4-4.3
			s-4,1.5-4,4.3V32.8z M12.5,23.8c0-1.2,0.5-1.7,1.4-1.7s1.4,0.5,1.4,1.7V33c0,1.2-0.5,1.7-1.4,1.7s-1.4-0.5-1.4-1.7V23.8z
			 M3.4,36.9H6v-5.6l3.4-11.3H6.9l-2,7.7l-2-7.7H0l3.4,11.3V36.9z"/>
		<path class="st0" d="M48.6,42h4.6v-2.4h-7.3v16.9h7.3v-2.4h-4.6v-5h3.7v-2.4h-3.7V42z M40.2,42c0.9,0,1.4,0.5,1.4,1.7v1.7
			c0,1.4-0.6,1.8-1.6,1.8h-1V42H40.2z M44.5,56.5c-0.3-0.6-0.3-1.2-0.3-2.1v-2.6c0-1.8-0.4-3-1.8-3.6c1.2-0.6,1.7-1.7,1.7-3.4v-1.3
			c0-2.6-1.2-3.9-3.9-3.9h-4v16.9h2.7v-6.9h0.9c1.2,0,1.7,0.6,1.7,2.2v2.7c0,1.4,0.1,1.6,0.2,2.1H44.5z M26.5,39.5v12.9
			c0,2.7,1.4,4.3,4,4.3c2.6,0,4-1.5,4-4.3V39.5h-2.5v13.1c0,1.2-0.5,1.6-1.4,1.6c-0.8,0-1.4-0.4-1.4-1.6V39.5H26.5z M17.2,42H20
			v14.5h2.7V42h2.8v-2.4h-8.2V42z M8.2,39.5v12.9c0,2.7,1.4,4.3,4,4.3s4-1.5,4-4.3V39.5h-2.5v13.1c0,1.2-0.5,1.6-1.4,1.6
			c-0.8,0-1.4-0.4-1.4-1.6V39.5H8.2z M2.7,42H7v-2.4H0v16.9h2.7v-7h3.4v-2.4H2.7V42z"/>
	</g>
</g>
</svg>
