<?xml version="1.0" encoding="utf-8"?>
<!-- Generator: Adobe Illustrator 20.1.0, SVG Export Plug-In . SVG Version: 6.00 Build 0)  -->
<svg version="1.1" id="Layer_1" xmlns="http://www.w3.org/2000/svg" xmlns:xlink="http://www.w3.org/1999/xlink" x="0px" y="0px"
	 viewBox="0 0 202.2 170.1" style="enable-background:new 0 0 202.2 170.1;" xml:space="preserve">
<g>
	<g>
		<path d="M148.9,27.2l-11.7,12.4l1.8,1.7l7.7-8.2l-4.2,11.5l1.8,1.7L156,33.9l-1.8-1.7l-7.7,8.2l4.2-11.5L148.9,27.2z M138.6,25.2
			l-2.1,6.2l-2.5-1.6L138.6,25.2z M139.9,20.9l-12.7,12.2l2.2,1.4l2.5-2.6l3.7,2.3l-1.1,3.4l2.2,1.4l5.2-16.9L139.9,20.9z
			 M122.2,26.8c0-0.5,0-1.1,0.2-1.8c0.1-0.7,0.4-1.4,0.7-2.3l0.3-0.7c0.7-1.7,1.4-2.8,2.1-3.5c0.8-0.7,1.5-0.9,2.3-0.6
			c0.8,0.3,1.2,1,1.3,2c0.1,1-0.2,2.4-0.9,4l-0.3,0.7c-0.7,1.7-1.4,2.8-2.1,3.6c-0.8,0.7-1.5,0.9-2.3,0.6c-0.4-0.2-0.7-0.4-0.9-0.7
			C122.3,27.7,122.2,27.3,122.2,26.8 M119.8,25.2c-0.2,1.1-0.1,2,0,2.8c0.2,0.8,0.4,1.5,0.9,2.1c0.4,0.6,1,1,1.7,1.3
			c0.7,0.3,1.4,0.4,2.1,0.2c0.7-0.1,1.4-0.4,2.1-0.9c0.7-0.5,1.3-1.2,1.9-2.1c0.6-0.9,1.2-1.9,1.6-3.1l0.3-0.7
			c0.5-1.2,0.8-2.3,1-3.4c0.2-1.1,0.2-2,0-2.8c-0.1-0.8-0.4-1.6-0.9-2.1c-0.4-0.6-1-1-1.7-1.3c-0.7-0.3-1.4-0.4-2.1-0.2
			c-0.7,0.1-1.4,0.4-2.1,1c-0.7,0.5-1.3,1.2-2,2.1s-1.2,1.9-1.6,3.1l-0.3,0.7C120.2,23,119.9,24.2,119.8,25.2 M113.3,11.1l-3.5,16.7
			l7.5,1.6l0.6-2.8l-5.1-1.1l3-13.9L113.3,11.1z M104.2,10l-9.7,0.3l0.1,2.8l3.6-0.1l0.4,14.2l2.5-0.1L100.6,13l3.7-0.1L104.2,10z
			 M81,12.7l3.3,16.7l2.4-0.5l-2.2-11L91.5,28l2.4-0.5l-3.3-16.7l-2.4,0.5l2.2,11l-6.9-10.1L81,12.7z M69.3,17.1l6.5,15.8l7.4-3
			l-1.1-2.6L77,29.4l-1.7-4.2l4.4-1.8l-1-2.5l-4.4,1.8l-1.5-3.8l5.1-2.1l-1.1-2.6L69.3,17.1z M61.2,25l1-0.6c0.8-0.5,1.7-0.5,2.6,0
			c0.9,0.5,1.8,1.5,2.7,2.9L68,28c0.9,1.4,1.4,2.7,1.5,3.7c0.1,1-0.3,1.8-1.1,2.4l-1,0.6L61.2,25z M57.6,23.9l9.1,14.4l3.1-1.9
			c0.7-0.4,1.2-1,1.6-1.7c0.4-0.7,0.6-1.5,0.6-2.3c0-0.9-0.1-1.8-0.4-2.8c-0.3-1-0.8-2-1.4-3L69.7,26c-0.6-1-1.4-1.9-2.1-2.6
			c-0.8-0.7-1.5-1.2-2.3-1.6c-0.8-0.3-1.6-0.5-2.3-0.5c-0.8,0-1.5,0.3-2.2,0.7L57.6,23.9z M54.6,41.4c0.7,0.7,1.3,1.3,2,1.7
			c0.7,0.4,1.3,0.7,2,0.8c0.6,0.1,1.3,0.1,1.8-0.1c0.6-0.2,1.1-0.5,1.6-1c0.5-0.4,0.9-1,1.1-1.5c0.2-0.6,0.3-1.2,0.3-1.8
			c0-0.6-0.2-1.3-0.6-2c-0.3-0.7-0.8-1.4-1.5-2.2l-7.6-8.3l-1.8,1.7l7.6,8.3c0.8,0.8,1.2,1.6,1.2,2.2c0.1,0.6-0.1,1.2-0.6,1.6
			c-0.5,0.4-1,0.6-1.7,0.5c-0.6-0.1-1.3-0.6-2.1-1.4l-7.6-8.3L47,33.1L54.6,41.4z M42.9,42.6l11.3,8.6l1.5-2l-11.3-8.6l2.2-2.9
			L44.3,36l-5.9,7.7l2.3,1.7L42.9,42.6z M33.8,52.4c0,0.6,0,1.1,0.2,1.7c0.2,0.5,0.5,1,0.9,1.5c0.4,0.5,1,0.9,1.6,1.2
			c0.7,0.3,1.3,0.5,1.9,0.6c0.6,0.1,1.2,0,1.7-0.1c0.5-0.1,1.1-0.3,1.6-0.6c0.5-0.3,1-0.6,1.5-1c0.4-0.3,0.8-0.6,1.1-0.8
			c0.3-0.2,0.6-0.3,0.9-0.4c0.3-0.1,0.5-0.1,0.7,0c0.2,0.1,0.5,0.2,0.8,0.3c0.2,0.1,0.5,0.3,0.6,0.5c0.2,0.2,0.3,0.4,0.4,0.6
			c0.1,0.2,0.1,0.4,0.1,0.7c0,0.3-0.1,0.5-0.3,0.8c-0.2,0.3-0.4,0.6-0.6,0.8c-0.2,0.2-0.5,0.4-0.8,0.4c-0.3,0.1-0.6,0.1-1,0
			c-0.4-0.1-0.8-0.2-1.2-0.5l-1.1,2.2c0.6,0.3,1.1,0.5,1.6,0.6c0.5,0.1,1,0.2,1.5,0.2s0.9-0.1,1.3-0.2c0.4-0.1,0.8-0.3,1.1-0.5
			c0.3-0.2,0.7-0.5,0.9-0.8c0.3-0.3,0.5-0.6,0.7-1c0.3-0.6,0.5-1.2,0.5-1.7c0.1-0.6,0-1.1-0.2-1.6c-0.2-0.5-0.5-1-0.9-1.5
			c-0.4-0.5-1-0.9-1.6-1.2c-0.6-0.3-1.2-0.5-1.8-0.6c-0.6-0.1-1.1-0.1-1.7,0c-0.5,0.1-1.1,0.3-1.6,0.6c-0.5,0.3-1.1,0.6-1.6,1.1
			c-0.6,0.5-1.2,0.9-1.8,1.1c-0.5,0.2-1,0.1-1.5-0.1c-0.2-0.1-0.5-0.3-0.6-0.5c-0.2-0.2-0.3-0.4-0.4-0.6s-0.1-0.5-0.1-0.7
			c0-0.3,0.1-0.5,0.3-0.8c0.2-0.3,0.3-0.5,0.6-0.7c0.2-0.2,0.5-0.3,0.7-0.3c0.3,0,0.6,0,0.9,0c0.3,0.1,0.6,0.2,0.9,0.4l1.1-2.2
			c-0.7-0.4-1.4-0.6-2-0.7s-1.3-0.1-1.9,0c-0.6,0.1-1.1,0.4-1.6,0.7c-0.5,0.4-0.9,0.8-1.2,1.4C34,51.2,33.8,51.8,33.8,52.4
			 M94.2,125.1l4.2-2.5l-4.4-2.1l-1.1-4.7l-3.3,3.5l-4.8-0.4l2.3,4.3l-1.9,4.5l4.8-0.9l3.7,3.2L94.2,125.1z M111.8,124.3l2.7-4
			l-4.9,0l-3-3.8l-1.5,4.6l-4.6,1.7l3.9,2.9l0.2,4.9l3.9-2.8l4.7,1.3L111.8,124.3z M130.7,119.6l-3.3-3.6l0.7-4.8l-4.4,2l-4.3-2.2
			l0.6,4.8l-3.4,3.5l4.8,1l2.2,4.3l2.4-4.2L130.7,119.6z M104.7,44.4l2.3,4.3l-1.9,4.5l4.8-0.9l3.7,3.2l0.6-4.8l4.2-2.5L114,46
			l-1.1-4.7l-3.3,3.5L104.7,44.4z M91.7,45.1l-4.6,1.7l3.9,2.9l0.2,4.9l3.9-2.8l4.7,1.3l-1.5-4.6l2.7-4l-4.9,0l-3-3.8L91.7,45.1z
			 M75.7,52.8l-3.4,3.5l4.8,1l2.2,4.3l2.4-4.2l4.8-0.8l-3.3-3.6l0.7-4.8l-4.4,2l-4.3-2.2L75.7,52.8z M145.9,66.9
			c-0.5,0.1-1,0.3-1.3,0.7c-0.3,0.4-0.6,0.9-0.7,1.6c-0.2,0.7-0.2,1.5-0.2,2.5s0.2,2.2,0.4,3.6l0.9,4.9c0.2,1.3,0.5,2.5,0.8,3.4
			c0.3,0.9,0.6,1.7,1,2.2s0.8,0.9,1.2,1.2c0.4,0.2,0.9,0.3,1.5,0.2c0.5-0.1,0.9-0.3,1.3-0.7c0.3-0.4,0.6-0.9,0.7-1.5
			c0.2-0.7,0.2-1.5,0.2-2.4c0-1-0.2-2.1-0.4-3.5l-0.9-4.9c-0.2-1.4-0.5-2.6-0.8-3.5c-0.3-1-0.7-1.7-1-2.3c-0.4-0.6-0.8-1-1.2-1.2
			C146.9,66.9,146.4,66.8,145.9,66.9 M61.9,82.1l3.4,19.5l1.2-0.2c0.7-0.1,1.3-0.4,1.7-0.7c0.4-0.4,0.7-0.9,0.9-1.5
			c0.2-0.7,0.2-1.5,0.2-2.4c0-1-0.2-2.1-0.4-3.4l-0.8-4.6c-0.2-1.3-0.5-2.5-0.8-3.4c-0.3-0.9-0.6-1.7-1-2.2
			c-0.4-0.5-0.8-0.9-1.4-1.1c-0.5-0.2-1.1-0.2-1.8-0.1L61.9,82.1z M162.7,78.3l3.7-0.7l-3.7-10.2L162.7,78.3z M65.1,134.3
			c0.3-0.6,0.4-1.2,0.4-1.9c0-0.6-0.1-1.2-0.4-1.7c-0.2-0.5-0.6-1-1.1-1.5c-0.5-0.4-1-0.7-1.6-0.9c-0.6-0.2-1.1-0.2-1.7-0.1
			c-0.6,0.1-1.1,0.3-1.7,0.6c-0.5,0.3-1,0.7-1.5,1.3c-0.5,0.6-0.8,1.1-1,1.7c-0.2,0.6-0.3,1.1-0.3,1.7c0,0.6,0.1,1.1,0.3,1.7
			c0.2,0.6,0.4,1.1,0.7,1.6c0.2,0.5,0.4,0.9,0.5,1.2c0.1,0.3,0.2,0.6,0.2,0.9c0,0.3,0,0.5-0.2,0.7c-0.1,0.2-0.3,0.4-0.4,0.7
			c-0.2,0.2-0.4,0.4-0.6,0.5c-0.2,0.1-0.4,0.2-0.7,0.3c-0.2,0-0.5,0-0.7-0.1c-0.2-0.1-0.5-0.2-0.7-0.4c-0.3-0.2-0.5-0.5-0.6-0.7
			c-0.2-0.3-0.2-0.5-0.3-0.8c0-0.3,0-0.6,0.2-1c0.1-0.3,0.4-0.7,0.7-1.1l-1.9-1.6c-0.4,0.5-0.7,1-1,1.5c-0.2,0.5-0.4,1-0.5,1.4
			s-0.1,0.9-0.1,1.3c0,0.4,0.1,0.8,0.3,1.2c0.1,0.4,0.3,0.7,0.6,1.1c0.2,0.3,0.5,0.6,0.8,0.9c0.5,0.4,1,0.7,1.6,0.9
			c0.5,0.2,1.1,0.2,1.6,0.2c0.5-0.1,1.1-0.3,1.6-0.6c0.5-0.3,1-0.8,1.5-1.3c0.4-0.5,0.8-1.1,1-1.6c0.2-0.5,0.4-1.1,0.4-1.6
			c0-0.6,0-1.1-0.2-1.7c-0.2-0.6-0.4-1.2-0.7-1.8c-0.4-0.7-0.6-1.4-0.7-1.9c-0.1-0.5,0.1-1,0.4-1.5c0.2-0.2,0.4-0.4,0.6-0.5
			c0.2-0.1,0.4-0.2,0.7-0.3c0.2,0,0.5,0,0.7,0.1c0.2,0.1,0.5,0.2,0.7,0.4c0.3,0.2,0.4,0.4,0.6,0.7c0.1,0.2,0.2,0.5,0.1,0.8
			c0,0.3-0.1,0.6-0.2,0.8c-0.1,0.3-0.3,0.6-0.5,0.8l1.9,1.6C64.5,135.6,64.9,135,65.1,134.3 M74.5,139.9l1.4-2.5l-8.4-4.8l-1.4,2.5
			l3.1,1.8l-7.1,12.3l2.1,1.2l7.1-12.3L74.5,139.9z M81.3,151.5l3.8-10.6l-2.3-0.8L79,150.7c-0.4,1.1-0.8,1.8-1.3,2.1
			c-0.5,0.4-1.1,0.4-1.7,0.2c-0.6-0.2-1-0.6-1.2-1.2c-0.2-0.6-0.1-1.4,0.3-2.5l3.8-10.6l-2.3-0.8l-3.8,10.6
			c-0.3,0.9-0.5,1.8-0.6,2.6c0,0.8,0,1.5,0.3,2.1c0.2,0.6,0.5,1.1,1,1.6c0.4,0.4,1,0.8,1.6,1c0.6,0.2,1.2,0.3,1.9,0.3
			c0.6-0.1,1.2-0.3,1.8-0.6c0.6-0.3,1.1-0.8,1.5-1.5S81,152.4,81.3,151.5 M91.8,150.5l-0.1,0.8c-0.3,1.7-0.7,2.9-1.4,3.8
			c-0.7,0.8-1.5,1.2-2.4,1l-1.2-0.2l1.9-11.2l1.2,0.2c1,0.2,1.6,0.7,2,1.7C92,147.5,92,148.8,91.8,150.5 M94.2,150.9
			c0.2-1.2,0.2-2.3,0.2-3.3c-0.1-1-0.3-1.9-0.7-2.7c-0.4-0.8-0.8-1.4-1.4-1.9c-0.6-0.5-1.3-0.8-2.1-0.9l-3.6-0.6l-2.8,16.8l3.6,0.6
			c0.8,0.1,1.6,0.1,2.3-0.2c0.7-0.3,1.4-0.7,2-1.3c0.6-0.6,1.1-1.4,1.5-2.3c0.4-0.9,0.7-2,0.9-3.2L94.2,150.9z M104.8,145.9l0-2.8
			l-8-0.1L96.6,160l8,0.1l0-2.8l-5.5-0.1l0.1-4.6l4.7,0.1l0-2.8l-4.7-0.1l0.1-4.1L104.8,145.9z M118.1,158.3l-2.7-16.8l-2.4,0.4
			l1.8,11.1l-6.5-10.4l-2.4,0.4l2.7,16.8l2.4-0.4l-1.8-11.1l6.5,10.3L118.1,158.3z M127.7,155.2l-4.9-13.3l3.4-1.3l-1-2.7l-9.1,3.3
			l1,2.7l3.4-1.2l4.9,13.3L127.7,155.2z M139.2,146.4l-7.6-12l-2.1,1.3l9.1,14.4l6.5-4.1l-1.5-2.4L139.2,146.4z M147.3,132.4
			l0.5,0.6c1.2,1.3,1.9,2.5,2.2,3.5s0.1,1.8-0.5,2.3c-0.3,0.3-0.7,0.4-1.1,0.5c-0.4,0-0.8,0-1.3-0.2c-0.5-0.2-1-0.5-1.5-0.9
			s-1.1-1-1.7-1.6l-0.5-0.6c-1.2-1.3-1.9-2.5-2.2-3.5c-0.3-1-0.1-1.8,0.5-2.3s1.4-0.6,2.4-0.2C145,130.3,146.1,131.1,147.3,132.4
			 M146.5,128.4c-0.9-0.6-1.7-1-2.5-1.3c-0.8-0.2-1.6-0.3-2.3-0.2c-0.7,0.1-1.4,0.4-1.9,0.9c-0.6,0.5-0.9,1.1-1.1,1.8
			c-0.2,0.7-0.2,1.5-0.1,2.3s0.5,1.7,1,2.7c0.5,0.9,1.2,1.9,2.1,2.9l0.5,0.6c0.9,1,1.7,1.8,2.6,2.4c0.9,0.6,1.7,1,2.5,1.2
			c0.8,0.2,1.6,0.3,2.3,0.2c0.7-0.1,1.4-0.4,1.9-0.9c0.6-0.5,0.9-1.1,1.1-1.8c0.2-0.7,0.2-1.5,0.1-2.3c-0.1-0.8-0.5-1.7-1-2.6
			c-0.5-0.9-1.2-1.9-2.1-2.9l-0.5-0.6C148.3,129.8,147.4,129,146.5,128.4 M156.3,126l-1.8,2.3l-4.1-5.1L156.3,126z M163.8,126.7
			l-16.2-7.1l-1.4,1.8l10.6,14.1l1.6-2.1l-2.3-2.8l2.7-3.4l3.3,1.5L163.8,126.7z M170.2,114.7L155,107l-1.1,2.2l10,5.1l-12.2-0.8
			l-1.1,2.2l15.2,7.7l1.1-2.2l-10-5.1l12.2,0.8L170.2,114.7z M190.5,84.6l-4,0.7l-9.3-18.2l3.4,19.3l-4,0.7l-5.2-29.4l4-0.7
			l9.3,18.3L181.3,56l4-0.7L190.5,84.6z M173.1,47.9l-1.7,0.3c-13.3-25.2-39.8-42.5-70.3-42.5c-40.2,0-73.4,30-78.6,68.8l-1.7,0.3
			C25.8,34.9,59.9,4,101.1,4C132.4,4,159.6,21.8,173.1,47.9 M19.5,84.8c0.9,0.3,1.6,0.8,2.3,1.5c0.7,0.7,1.3,1.6,1.8,2.6
			s0.9,2.3,1.1,3.6l-4,0.7c-0.1-0.6-0.3-1.2-0.4-1.7c-0.2-0.5-0.4-0.9-0.6-1.3c-0.3-0.3-0.5-0.6-0.9-0.7c-0.3-0.2-0.7-0.2-1.1-0.1
			c-0.4,0.1-0.7,0.2-1,0.4c-0.2,0.2-0.4,0.5-0.6,0.8c-0.1,0.3-0.2,0.7-0.2,1.2c0,0.4,0,0.9,0.1,1.4c0.1,0.5,0.2,0.9,0.4,1.3
			c0.2,0.4,0.5,0.7,0.8,1c0.3,0.3,0.7,0.6,1.1,0.8c0.4,0.2,0.9,0.4,1.4,0.7c1,0.3,1.9,0.7,2.7,1.2c0.8,0.5,1.5,1.1,2.1,1.8
			c0.6,0.7,1.1,1.5,1.5,2.4c0.4,0.9,0.7,2,0.9,3.2c0.2,1.3,0.3,2.5,0.2,3.5c-0.1,1.1-0.4,2-0.8,2.8c-0.4,0.8-1,1.4-1.7,1.9
			c-0.7,0.5-1.5,0.8-2.5,1c-0.9,0.2-1.7,0.1-2.6-0.1c-0.9-0.2-1.7-0.7-2.5-1.4c-0.8-0.7-1.5-1.6-2.1-2.7c-0.6-1.1-1.1-2.5-1.4-4.2
			l4.1-0.7c0.2,0.9,0.3,1.6,0.6,2.2c0.2,0.6,0.5,1.1,0.8,1.4c0.3,0.3,0.7,0.6,1,0.7c0.4,0.1,0.8,0.1,1.3,0c0.4-0.1,0.7-0.2,0.9-0.4
			c0.2-0.2,0.4-0.5,0.5-0.8c0.1-0.3,0.2-0.7,0.2-1.1c0-0.4,0-0.9-0.1-1.3c-0.1-0.5-0.2-1-0.3-1.4c-0.1-0.4-0.3-0.7-0.6-1.1
			s-0.6-0.6-1.1-0.9c-0.4-0.3-1-0.5-1.7-0.8c-0.8-0.3-1.6-0.6-2.4-1.1c-0.8-0.4-1.5-0.9-2.1-1.6c-0.6-0.6-1.2-1.4-1.7-2.3
			c-0.5-0.9-0.8-2-1.1-3.3c-0.2-1.2-0.3-2.4-0.1-3.4c0.1-1.1,0.4-2,0.9-2.8c0.4-0.8,1-1.5,1.7-2c0.7-0.5,1.5-0.9,2.5-1
			C17.7,84.4,18.6,84.5,19.5,84.8 M177.7,96c-5.3,37.5-37.6,66.4-76.6,66.4c-29.5,0-55.1-16.6-68.2-40.9l23.4-4.1
			c10.1,13.9,26.4,22.9,44.8,22.9c25.2,0,46.6-17,53.2-40.2L177.7,96z M174.6,87.5l-4.3,0.8l-2.1-5.8l-5.5,1l0,6.2l-4.3,0.8
			l1.1-30.5l3.7-0.7L174.6,87.5z M57.8,103.1c-0.1,1.3-0.4,2.3-0.8,3.2c-0.4,0.9-1,1.6-1.8,2.1c-0.7,0.5-1.6,0.8-2.5,1
			c-1,0.2-1.9,0.1-2.8-0.1c-0.9-0.2-1.7-0.7-2.4-1.3c-0.7-0.7-1.3-1.6-1.9-2.7c-0.5-1.2-1-2.6-1.3-4.3l-3.6-20.2l4.1-0.7l3.6,20.2
			c0.2,1,0.4,1.7,0.6,2.3c0.2,0.6,0.5,1,0.7,1.3s0.6,0.5,0.9,0.6c0.3,0.1,0.7,0.1,1.1,0c0.4-0.1,0.8-0.2,1.1-0.4
			c0.3-0.2,0.5-0.5,0.7-0.8c0.1-0.4,0.2-0.9,0.2-1.5c0-0.6-0.1-1.4-0.3-2.4l-3.6-20.2l4-0.7l3.6,20.2
			C57.8,100.3,57.9,101.8,57.8,103.1 M57,77.9l5.3-0.9c1.2-0.2,2.3-0.1,3.3,0.3c1,0.4,2,1.1,2.9,2c0.9,0.9,1.6,2.1,2.3,3.6
			c0.6,1.5,1.1,3.2,1.5,5.2l0.8,4.6c0.3,2,0.5,3.8,0.4,5.4c-0.1,1.6-0.4,3-0.9,4.2c-0.5,1.2-1.2,2.1-2,2.8c-0.9,0.7-1.9,1.2-3,1.4
			l-5.2,0.9L57,77.9z M152.1,100.5c-6.6,21.9-27,37.8-51,37.8c-17.4,0-32.9-8.4-42.6-21.3l2.5-0.4c9.4,11.9,23.8,19.5,40.1,19.5
			c22.6,0,41.8-14.7,48.5-35.1L152.1,100.5z M145,61.9c1.1-0.2,2.1-0.1,3.1,0.3c1,0.4,1.9,1.1,2.7,2c0.8,1,1.6,2.2,2.2,3.8
			c0.6,1.5,1.1,3.4,1.5,5.5l0.9,4.9c0.4,2.1,0.5,3.9,0.4,5.5c-0.1,1.6-0.3,3-0.8,4.2c-0.4,1.1-1.1,2.1-1.9,2.7s-1.7,1.1-2.8,1.3
			c-1.1,0.2-2.1,0.1-3.1-0.3c-1-0.4-1.9-1-2.7-1.9c-0.8-0.9-1.5-2.1-2.2-3.6c-0.6-1.5-1.1-3.3-1.5-5.3l-0.9-4.9
			c-0.4-2.1-0.5-4-0.5-5.7c0.1-1.7,0.3-3.1,0.8-4.3c0.4-1.2,1.1-2.1,1.9-2.8C143,62.6,144,62.1,145,61.9 M52.6,69.1l-2.5,0.4
			c6.6-21.9,27-37.8,51-37.8c17.4,0,32.9,8.4,42.6,21.3l-2.5,0.4C131.8,41.7,117.4,34,101.1,34C78.5,34,59.4,48.8,52.6,69.1
			 M54.9,68.7c6.7-19,24.9-32.7,46.2-32.7c15.2,0,28.8,7,37.8,17.9L54.9,68.7z M77.8,104.5l-5.2-29.4l11.5-2l0.9,4.9l-7.4,1.3
			l1.2,6.9l6.3-1.1l0.8,4.8l-6.3,1.1l1.4,7.8l7.4-1.3l0.9,4.9L77.8,104.5z M102.6,69.8l13.9-2.4l0.9,4.9l-4.9,0.9l4.3,24.5l-4.1,0.7
			l-4.3-24.5l-4.9,0.9L102.6,69.8z M99.8,90.2l-3.4-19.3l4-0.7l5.2,29.4l-4,0.7l-9.3-18.2l3.4,19.3l-4,0.7l-5.2-29.4l4-0.7
			L99.8,90.2z M130.4,95.3l-5.2-29.4l4-0.7l4.3,24.5l7.1-1.2l0.9,4.9L130.4,95.3z M147.3,101.4c-6.7,19-24.9,32.7-46.2,32.7
			c-15.2,0-28.8-7-37.8-17.9L147.3,101.4z M24.5,74.1c5.3-37.5,37.6-66.4,76.6-66.4c29.5,0,55.1,16.6,68.2,40.9l-23.4,4.1
			c-10.1-13.9-26.4-22.9-44.8-22.9c-25.2,0-46.6,17-53.2,40.2L24.5,74.1z M34.6,86.9l4.3,24.5l-4.1,0.7l-4.3-24.5l-4.9,0.9l-0.9-4.9
			l13.9-2.4l0.9,4.9L34.6,86.9z M29.1,122.2l1.7-0.3c13.3,25.3,39.8,42.5,70.3,42.5c40.2,0,73.4-30,78.6-68.8l1.7-0.3
			c-5.1,39.8-39.2,70.7-80.4,70.7C69.8,166.1,42.6,148.2,29.1,122.2 M201.9,77.3l-3.4-19.5c0,0-2.5-14-16.4-11.5l-4.9,0.9
			C163.3,19.2,134.4,0,101.1,0C57.5,0,21.4,33.1,16.6,75.5l-4.8,0.9c0,0-14,2.5-11.5,16.4l3.4,19.5c0,0,2.5,14,16.4,11.5l4.9-0.9
			c14,27.9,42.8,47.2,76.1,47.2c43.7,0,79.7-33.1,84.5-75.5l4.8-0.9C190.4,93.8,204.4,91.3,201.9,77.3"/>
	</g>
</g>
</svg>
