<?xml version="1.0" encoding="UTF-8"?>
<svg id="Layer_1" xmlns="http://www.w3.org/2000/svg" version="1.1" viewBox="0 0 170.08 170.08">
  <!-- Generator: Adobe Illustrator 30.0.0, SVG Export Plug-In . SVG Version: 2.1.1 Build 123)  -->
  <defs>
    <style>
      .st0 {
        fill: #ababab;
      }

      .st1 {
        fill: #666766;
      }

      .st2 {
        fill: #121212;
      }

      .st3 {
        fill: #cccccb;
      }

      .st4 {
        fill: #747477;
      }

      .st5 {
        fill: #333;
      }

      .st6 {
        fill: #eee;
      }

      .st7 {
        fill: #999;
      }
    </style>
  </defs>
  <path class="st2" d="M95.67,31.89V10.63c0-5.87-4.76-10.63-10.63-10.63s-10.63,4.76-10.63,10.63v21.26c0,5.87,4.76,10.63,10.63,10.63s10.63-4.76,10.63-10.63"/>
  <path class="st0" d="M95.67,159.45v-21.26c0-5.87-4.76-10.63-10.63-10.63s-10.63,4.76-10.63,10.63v21.26c0,5.87,4.76,10.63,10.63,10.63s10.63-4.76,10.63-10.63"/>
  <path class="st5" d="M54.97,39.94l-15.03-15.03c-4.15-4.15-10.88-4.15-15.03,0-4.15,4.15-4.15,10.88,0,15.03l15.03,15.03c4.15,4.15,10.88,4.15,15.03,0,4.15-4.15,4.15-10.88,0-15.03"/>
  <path class="st3" d="M145.17,130.14l-15.03-15.03c-4.15-4.15-10.88-4.15-15.03,0-4.15,4.15-4.15,10.88,0,15.03l15.03,15.03c4.15,4.15,10.88,4.15,15.03,0,4.15-4.15,4.15-10.88,0-15.03"/>
  <path class="st1" d="M31.89,74.41H10.63c-5.87,0-10.63,4.76-10.63,10.63s4.76,10.63,10.63,10.63h21.26c5.87,0,10.63-4.76,10.63-10.63s-4.76-10.63-10.63-10.63"/>
  <path class="st6" d="M159.45,74.41h-21.26c-5.87,0-10.63,4.76-10.63,10.63s4.76,10.63,10.63,10.63h21.26c5.87,0,10.63-4.76,10.63-10.63s-4.76-10.63-10.63-10.63"/>
  <path class="st4" d="M130.14,54.97l15.03-15.03c4.15-4.15,4.15-10.88,0-15.03-4.15-4.15-10.88-4.15-15.03,0l-15.03,15.03c-4.15,4.15-4.15,10.88,0,15.03,4.15,4.15,10.88,4.15,15.03,0"/>
  <path class="st7" d="M39.94,145.17l15.03-15.03c4.15-4.15,4.15-10.88,0-15.03-4.15-4.15-10.88-4.15-15.03,0l-15.03,15.03c-4.15,4.15-4.15,10.88,0,15.03,4.15,4.15,10.88,4.15,15.03,0"/>
</svg>