<?xml version="1.0" encoding="UTF-8"?>
<svg xmlns="http://www.w3.org/2000/svg" xmlns:xlink="http://www.w3.org/1999/xlink" version="1.1" viewBox="0 0 850.4 56.7">
  <defs>
    <style>
      .cls-1 {
        fill: none;
      }

      .cls-2 {
        fill: #111;
      }

      .cls-3 {
        clip-path: url(#clippath-1);
      }

      .cls-4 {
        clip-path: url(#clippath-2);
      }

      .cls-5 {
        fill: #06c;
      }

      .cls-6 {
        fill: #fff;
      }

      .cls-7 {
        fill: #666;
      }

      .cls-8 {
        fill: #eee;
      }

      .cls-9 {
        clip-path: url(#clippath);
      }
    </style>
    <clipPath id="clippath">
      <rect class="cls-1" x="0" width="850.4" height="56.7"/>
    </clipPath>
    <clipPath id="clippath-1">
      <rect class="cls-1" x="0" width="850.4" height="56.7"/>
    </clipPath>
    <clipPath id="clippath-2">
      <rect class="cls-1" x="0" width="850.4" height="56.7"/>
    </clipPath>
  </defs>
  <!-- Generator: Adobe Illustrator 28.7.1, SVG Export Plug-In . SVG Version: 1.2.0 Build 142)  -->
  <g>
    <g id="Layer_1">
      <g>
        <path class="cls-2" d="M0,11.3h34v7.1H0v-7.1ZM0,24.8h34v7.1H0v-7.1ZM0,38.3h34v7.1H0v-7.1Z"/>
        <polygon class="cls-2" points="127.9 21.4 144.8 38.3 161.8 21.4 158.8 18.3 144.8 32.3 130.9 18.3 127.9 21.4"/>
        <g class="cls-9">
          <path class="cls-2" d="M116.5,38.6v-15.7h-2.7v8.4c0,1.3-.1,2.4-.4,3.1-.3.7-.8,1.3-1.5,1.7-.7.4-1.4.6-2.2.6s-1.5-.2-2-.6c-.5-.4-.9-.9-1.1-1.6-.1-.5-.2-1.4-.2-2.8v-8.7h-2.7v9.7c0,1.1,0,2,.2,2.5.2.8.4,1.4.8,2,.4.5,1,1,1.8,1.3.8.4,1.7.5,2.6.5,2.1,0,3.8-.9,5-2.7v2.3h2.4ZM89.7,38.6v-8.6c0-2,.4-3.4,1.2-4.1.8-.7,1.8-1.1,2.9-1.1s1.3.2,1.9.5c.5.3.9.7,1.1,1.3.2.5.3,1.3.3,2.4v9.5h2.7v-9.6c0-1.2,0-2.1-.1-2.6-.2-.8-.4-1.4-.8-2-.4-.6-1-1-1.8-1.3-.8-.3-1.7-.5-2.6-.5-2.2,0-3.8.9-5,2.6v-2.2h-2.4v15.7h2.7ZM73.6,26c.8-.8,1.9-1.2,3.1-1.2s2.4.5,3.3,1.5c.5.7.9,1.6,1,3h-8.7c0-1.4.5-2.5,1.4-3.3M79.3,36c-.7.5-1.5.8-2.5.8s-2.4-.5-3.3-1.4c-.9-.9-1.4-2.2-1.5-4h11.7c0-.3,0-.6,0-.7,0-2.6-.7-4.6-2-6-1.3-1.4-3-2.1-5.1-2.1s-3.9.7-5.3,2.2c-1.4,1.5-2,3.5-2,6.1s.7,4.5,2,5.9c1.3,1.4,3.2,2.1,5.4,2.1s3.3-.4,4.5-1.3c1.2-.9,2-2.1,2.4-3.7l-2.7-.3c-.4,1.1-.9,1.9-1.6,2.4M48.1,38.6v-18.4l6.3,18.4h2.6l6.3-18.1v18.1h2.8v-21.6h-3.8l-5.2,15c-.5,1.5-.9,2.7-1.1,3.5-.2-.7-.6-1.8-1-3.2l-5.1-15.3h-4.3v21.6h2.8Z"/>
        </g>
        <rect class="cls-8" x="228.3" width="340.2" height="56.7"/>
        <rect class="cls-5" x="568.4" width="56.7" height="56.7"/>
        <g class="cls-3">
          <path class="cls-6" d="M601,24.8c0,4.3-3.5,7.8-7.8,7.8s-7.8-3.5-7.8-7.8,3.5-7.8,7.8-7.8,7.8,3.5,7.8,7.8M612.9,40.5l-8.4-8.4c1.4-2.1,2.2-4.6,2.2-7.3,0-7.4-6-13.5-13.5-13.5s-13.5,6-13.5,13.5,6,13.5,13.5,13.5,5.2-.8,7.3-2.2l8.4,8.4c1.1,1.1,2.9,1.1,4,0,1.1-1.1,1.1-2.9,0-4"/>
          <path class="cls-7" d="M356.5,36h-3v3h3v-3ZM348.1,36h-3v3h3v-3ZM339.7,36h-3v3h3v-3ZM321.8,39v-8.6c0-1.2.1-2.2.4-2.9.3-.7.8-1.3,1.5-1.7.7-.4,1.4-.6,2.2-.6s1.9.3,2.4.9c.6.6.9,1.6.9,2.9v9.9h2.7v-9.9c0-1.5-.2-2.7-.6-3.5-.4-.8-1-1.4-1.8-1.9-.9-.5-1.9-.7-3-.7-1.9,0-3.5.7-4.7,2.2v-7.8h-2.7v21.6h2.7ZM312.9,36.2c-.7.6-1.6,1-2.6,1s-2.3-.5-3.2-1.4c-.8-1-1.2-2.5-1.2-4.6s.4-3.6,1.3-4.6c.8-1,1.9-1.4,3.3-1.4s1.6.3,2.3.8c.6.5,1.1,1.3,1.3,2.4l2.6-.4c-.3-1.6-1-2.8-2.1-3.7-1.1-.9-2.5-1.3-4.2-1.3s-2.6.3-3.7,1c-1.1.6-2,1.6-2.6,2.9-.6,1.3-.8,2.7-.8,4.4,0,2.6.7,4.6,2,6,1.3,1.4,3,2.1,5.2,2.1s3.2-.5,4.3-1.5c1.2-1,1.9-2.4,2.2-4.2l-2.6-.3c-.2,1.3-.6,2.3-1.3,3M296.6,39v-8.2c0-1.1.1-2.2.4-3.1.2-.6.5-1.1,1-1.5.5-.3,1-.5,1.6-.5s1.3.2,1.9.6l.9-2.5c-.9-.6-1.8-.9-2.7-.9s-1.2.2-1.7.5c-.5.4-1.1,1.1-1.7,2.2v-2.4h-2.4v15.7h2.7ZM287.2,32.1c0,1.2-.1,2.1-.4,2.7-.4.8-1,1.4-1.8,1.8-.8.4-1.7.7-2.7.7s-1.8-.2-2.4-.7-.8-1.1-.8-1.8.1-.9.4-1.3c.2-.4.6-.7,1-.9.5-.2,1.2-.4,2.3-.5,1.9-.3,3.4-.6,4.3-1v1ZM287.9,39h2.8c-.3-.6-.6-1.2-.7-1.9-.1-.7-.2-2.2-.2-4.7v-3.5c0-1.2,0-2-.1-2.4-.2-.7-.4-1.3-.8-1.8-.4-.5-1-.9-1.8-1.2-.8-.3-1.9-.5-3.3-.5s-2.5.2-3.6.6c-1,.4-1.8.9-2.3,1.6-.5.7-.9,1.6-1.2,2.7l2.6.4c.3-1.1.7-1.9,1.3-2.3.6-.4,1.5-.7,2.8-.7s2.3.3,3,.9c.5.4.8,1.2.8,2.3s0,.3,0,.7c-1,.4-2.6.7-4.7.9-1.1.1-1.8.3-2.4.4-.7.2-1.3.5-1.9.9-.6.4-1,.9-1.4,1.5-.3.6-.5,1.3-.5,2.1,0,1.3.5,2.4,1.4,3.2.9.8,2.2,1.3,4,1.3s2-.2,2.9-.5c.9-.3,1.9-.9,2.8-1.8,0,.7.3,1.4.5,1.9M263.8,26.4c.8-.8,1.9-1.2,3.1-1.2s2.4.5,3.3,1.5c.6.7.9,1.6,1,3h-8.7c0-1.4.5-2.5,1.4-3.3M269.5,36.4c-.7.5-1.5.8-2.5.8s-2.4-.5-3.3-1.4c-.9-.9-1.4-2.2-1.5-4h11.7c0-.3,0-.5,0-.7,0-2.6-.7-4.6-2-6-1.3-1.4-3-2.1-5.1-2.1s-3.9.7-5.3,2.2c-1.4,1.5-2,3.5-2,6.1s.7,4.5,2,5.9c1.3,1.4,3.2,2.1,5.5,2.1s3.3-.4,4.5-1.3c1.2-.9,2-2.1,2.4-3.7l-2.7-.3c-.4,1.1-.9,1.9-1.6,2.4M240.8,35.9c.8,1.1,1.8,2,3.1,2.6,1.3.6,3,.9,4.9.9s2.9-.3,4.2-.8c1.2-.6,2.2-1.4,2.8-2.4.7-1,1-2.1,1-3.3s-.3-2.2-.9-3.1c-.6-.9-1.5-1.6-2.8-2.2-.9-.4-2.5-.9-4.8-1.4-2.3-.5-3.8-1-4.3-1.5-.6-.5-.8-1.1-.8-1.9s.4-1.7,1.2-2.3c.8-.6,2.1-1,3.8-1s2.9.3,3.8,1c.9.7,1.3,1.7,1.5,3.1l2.7-.2c0-1.3-.4-2.4-1.1-3.4-.7-1-1.6-1.8-2.8-2.3s-2.6-.8-4.2-.8-2.8.2-4,.7c-1.2.5-2.1,1.2-2.7,2.2-.6.9-.9,2-.9,3.1s.3,1.9.8,2.7c.5.8,1.3,1.5,2.3,2,.8.4,2.2.9,4.2,1.3,2,.5,3.3.8,3.8,1.1.9.3,1.6.8,1.9,1.3.4.5.6,1.1.6,1.8s-.2,1.3-.6,1.9c-.4.6-1,1-1.9,1.3-.8.3-1.8.5-2.9.5s-2.3-.2-3.3-.6c-1-.4-1.7-1-2.2-1.7-.5-.7-.8-1.6-.9-2.7l-2.7.2c0,1.4.4,2.7,1.2,3.9"/>
        </g>
        <polygon class="cls-2" points="833.5 32.3 819.6 18.3 816.6 21.4 833.5 38.3 850.4 21.4 847.4 18.3 833.5 32.3"/>
        <g class="cls-4">
          <path class="cls-2" d="M707.9,26.9c4.3,0,7.8-3.5,7.8-7.8s-3.5-7.8-7.8-7.8-7.8,3.5-7.8,7.8,3.5,7.8,7.8,7.8M721.3,40.4h0c0-7.4-6-13.5-13.4-13.5s-13.4,6-13.4,13.5v5h26.8v-5Z"/>
          <path class="cls-2" d="M795.3,39v-8.6c0-2,.4-3.4,1.2-4.1.8-.7,1.8-1.1,2.9-1.1s1.3.2,1.8.5c.5.3.9.7,1.1,1.3.2.5.3,1.3.3,2.4v9.5h2.6v-9.6c0-1.2,0-2.1-.1-2.6-.2-.8-.4-1.4-.8-2s-1-1-1.8-1.3c-.8-.3-1.7-.5-2.6-.5-2.2,0-3.8.9-5,2.6v-2.2h-2.4v15.7h2.6ZM788.6,23.3h-2.6v15.7h2.6v-15.7ZM788.6,17.4h-2.6v3.1h2.6v-3.1ZM772.2,26.6c.8-1,1.8-1.4,3-1.4s2.2.5,3.1,1.5c.8,1,1.3,2.4,1.3,4.3s-.4,3.5-1.2,4.4c-.8.9-1.8,1.4-3.1,1.4s-2.2-.5-3.1-1.4-1.2-2.4-1.2-4.5.4-3.3,1.2-4.3M770.4,44.1c1.1.8,2.6,1.3,4.5,1.3s2.9-.3,4-.9,1.9-1.4,2.3-2.4c.5-1,.7-2.7.7-5.2v-13.5h-2.4v1.9c-1.2-1.5-2.7-2.2-4.5-2.2s-2.6.3-3.6,1c-1,.7-1.8,1.7-2.3,2.9-.5,1.3-.8,2.6-.8,4.1,0,2.2.6,4,1.8,5.6,1.2,1.6,2.8,2.3,5,2.3s3.2-.7,4.3-2c0,1.7,0,2.9-.2,3.4-.2.9-.7,1.6-1.4,2.1-.7.5-1.6.7-2.8.7s-2-.2-2.7-.7c-.5-.4-.8-.9-.9-1.7l-2.6-.4c0,1.7.5,3,1.7,3.8M755.6,26.7c.9-1,2-1.5,3.3-1.5s2.4.5,3.3,1.5c.9,1,1.3,2.5,1.3,4.4s-.4,3.6-1.3,4.6-2,1.5-3.3,1.5-2.4-.5-3.3-1.5c-.9-1-1.3-2.5-1.3-4.5s.4-3.5,1.3-4.5M753.6,37.2c1.3,1.4,3.1,2.1,5.3,2.1s2.6-.3,3.8-1,2-1.5,2.6-2.7c.6-1.2.9-2.7.9-4.8s-.7-4.4-2-5.8c-1.4-1.4-3.1-2.1-5.3-2.1s-3.6.6-4.9,1.7c-1.6,1.4-2.4,3.5-2.4,6.4s.7,4.7,2,6.1M749.5,39v-2.6h-10.6v-19.1h-2.8v21.6h13.4Z"/>
        </g>
      </g>
    </g>
  </g>
</svg>