<?xml version="1.0" encoding="utf-8"?>
<!-- Generator: Adobe Illustrator 28.1.0, SVG Export Plug-In . SVG Version: 6.00 Build 0)  -->
<svg version="1.1" id="Layer_1" xmlns="http://www.w3.org/2000/svg" xmlns:xlink="http://www.w3.org/1999/xlink" x="0px" y="0px"
	 viewBox="0 0 382.5 28.3" style="enable-background:new 0 0 382.5 28.3;" xml:space="preserve">
<style type="text/css">
	.st0{fill:#FFFFFF;}
	.st1{fill:#2764AE;}
	.st2{fill:#777777;}
</style>
<g>
	<path class="st0" d="M0,7.1h14.2v3H0V7.1z M0,12.7h14.2v3H0V12.7z M0,18.3h14.2v3H0V18.3z"/>
	<g>
		<path class="st0" d="M311.8,13.6c1.8,0,3.2-1.5,3.2-3.2c0-1.8-1.5-3.2-3.2-3.2c-1.8,0-3.2,1.5-3.2,3.2
			C308.6,12.1,310,13.6,311.8,13.6 M317.4,19.2L317.4,19.2c0-3.1-2.5-5.6-5.6-5.6c-3.1,0-5.6,2.5-5.6,5.6v2.1h11.2V19.2z"/>
	</g>
	<polygon class="st0" points="64.4,11.3 71.5,18.3 78.5,11.3 77.3,10 71.5,15.8 65.6,10 	"/>
	<polygon class="st0" points="368.4,11.3 375.5,18.3 382.5,11.3 381.3,10 375.5,15.8 369.6,10 	"/>
	<g>
		<path class="st0" d="M55.9,19.6h1.4v-7.9h-1.4v5.7c-0.7,0.8-1.4,1.3-2.2,1.3c-0.5,0-0.9-0.1-1.1-0.4c-0.2-0.3-0.3-0.8-0.3-1.4
			v-5.1h-1.4v5.2c0,2,0.9,2.9,2.7,2.9c0.9,0,1.7-0.4,2.4-1.2V19.6z M43.8,11.6h-1.4v7.9h1.4v-5.7c0.7-0.8,1.4-1.3,2.2-1.3
			c0.5,0,0.9,0.1,1.1,0.4c0.2,0.3,0.3,0.8,0.3,1.4v5.1h1.4v-5.2c0-1.9-0.9-2.9-2.7-2.9c-0.9,0-1.7,0.4-2.4,1.2V11.6z M34.8,14.8
			c0.1-0.8,0.4-1.3,0.8-1.7c0.4-0.4,0.9-0.6,1.5-0.6c0.6,0,1.1,0.2,1.5,0.6c0.4,0.4,0.7,0.9,0.8,1.7H34.8z M39.5,19.1
			c0.6-0.4,1-1.1,1.1-1.9h-1.5c0,0.5-0.2,0.8-0.6,1.1c-0.4,0.3-0.8,0.4-1.3,0.4c-0.7,0-1.2-0.2-1.6-0.7c-0.4-0.4-0.7-1.1-0.8-2h6
			v-0.3c0-1.3-0.3-2.3-1-3.1c-0.7-0.7-1.6-1.1-2.7-1.1c-1.1,0-2,0.4-2.7,1.1s-1,1.8-1,3c0,1.3,0.4,2.3,1.1,3.1
			c0.7,0.7,1.6,1.1,2.8,1.1C38.1,19.7,38.9,19.5,39.5,19.1 M31.6,8.6h-2.2l-3,9.1l-3-9.1h-2.2v11h1.4v-9.3l3.1,9.3h1.3l3.1-9.3v9.3
			h1.4V8.6z"/>
		<path class="st0" d="M356.2,11.6h-1.4v7.9h1.4v-5.7c0.7-0.8,1.4-1.3,2.2-1.3c0.5,0,0.9,0.1,1.1,0.4c0.2,0.3,0.3,0.8,0.3,1.4v5.1
			h1.4v-5.2c0-1.9-0.9-2.9-2.7-2.9c-0.9,0-1.7,0.4-2.4,1.2V11.6z M352.8,8.6h-1.4v1.5h1.4V8.6z M352.8,11.6h-1.4v7.9h1.4V11.6z
			 M345.7,18.6c-0.6,0-1.1-0.3-1.4-0.8c-0.3-0.5-0.5-1.2-0.5-2.2c0-1,0.2-1.8,0.5-2.3s0.8-0.8,1.4-0.8c0.8,0,1.5,0.3,2.1,1v3.8
			C347.2,18.2,346.5,18.6,345.7,18.6 M349.3,11.6h-1.4v0.6c-0.6-0.5-1.3-0.8-2.2-0.8c-1,0-1.8,0.4-2.4,1.1c-0.6,0.8-1,1.8-1,3.1
			c0,1.3,0.3,2.2,0.9,3c0.6,0.7,1.4,1.1,2.4,1.1c0.9,0,1.6-0.4,2.3-1.1V19c0,1.1-0.2,1.8-0.5,2.1c-0.4,0.4-0.9,0.5-1.5,0.5
			c-1.2,0-1.7-0.4-1.7-1.3h-1.5c0,0.7,0.3,1.3,0.9,1.7c0.6,0.4,1.4,0.6,2.4,0.6c2.3,0,3.5-1.3,3.5-3.8V11.6z M335.9,17.9
			c-0.4-0.5-0.6-1.3-0.6-2.3c0-1,0.2-1.8,0.6-2.3c0.4-0.5,1-0.8,1.6-0.8c0.7,0,1.2,0.3,1.6,0.8s0.6,1.3,0.6,2.3c0,1-0.2,1.8-0.6,2.3
			s-1,0.8-1.6,0.8C336.9,18.6,336.3,18.4,335.9,17.9 M334.8,12.5c-0.7,0.7-1,1.7-1,3.1c0,1.3,0.3,2.3,1,3.1c0.7,0.7,1.6,1.1,2.7,1.1
			c1.1,0,2-0.4,2.7-1.1c0.7-0.7,1-1.7,1-3.1c0-1.3-0.3-2.3-1-3.1c-0.7-0.7-1.6-1.1-2.7-1.1C336.4,11.4,335.5,11.8,334.8,12.5
			 M332.8,18.3h-5.3V8.6H326v11h6.8V18.3z"/>
	</g>
	<rect x="92.1" class="st0" width="170.1" height="28.3"/>
	<rect x="262.2" class="st1" width="28.3" height="28.3"/>
	<g>
		<path class="st0" d="M278.1,12.7c0,1.8-1.5,3.2-3.2,3.2c-1.8,0-3.2-1.5-3.2-3.2c0-1.8,1.5-3.2,3.2-3.2
			C276.7,9.4,278.1,10.9,278.1,12.7 M283.1,19.2l-3.5-3.5c0.6-0.9,0.9-1.9,0.9-3c0-3.1-2.5-5.6-5.6-5.6c-3.1,0-5.6,2.5-5.6,5.6
			c0,3.1,2.5,5.6,5.6,5.6c1.1,0,2.2-0.3,3-0.9l3.5,3.5c0.5,0.5,1.2,0.5,1.7,0C283.6,20.5,283.6,19.7,283.1,19.2"/>
		<path class="st2" d="M157.5,18.1h-1.5v1.5h1.5V18.1z M153.3,18.1h-1.5v1.5h1.5V18.1z M149.1,18.1h-1.5v1.5h1.5V18.1z M140.3,8.8
			h-1.4v10.8h1.4V14c0.7-0.8,1.4-1.2,2.1-1.2c0.5,0,0.9,0.1,1.1,0.4c0.2,0.3,0.3,0.7,0.3,1.4v5h1.4v-5.1c0-1.9-0.9-2.9-2.6-2.9
			c-0.9,0-1.6,0.4-2.3,1.2V8.8z M136.7,19.1c0.6-0.4,0.9-1.1,1-1.9h-1.4c0,0.5-0.2,0.8-0.5,1.1c-0.3,0.2-0.7,0.4-1.2,0.4
			c-0.7,0-1.2-0.3-1.6-0.8c-0.4-0.5-0.6-1.2-0.6-2.2c0-1,0.2-1.7,0.6-2.2c0.4-0.5,0.9-0.8,1.6-0.8c0.5,0,0.9,0.1,1.2,0.4
			c0.3,0.2,0.5,0.6,0.5,1.1h1.4c-0.1-0.8-0.4-1.4-1-1.9c-0.6-0.4-1.3-0.6-2.1-0.6c-1.1,0-2,0.4-2.7,1.1c-0.7,0.7-1,1.7-1,3
			c0,1.3,0.3,2.3,1,3c0.7,0.7,1.6,1.1,2.7,1.1C135.4,19.7,136.1,19.5,136.7,19.1 M130.4,11.6c-0.2,0-0.4-0.1-0.6-0.1
			c-0.8,0-1.4,0.4-2,1.3v-1.1h-1.4v7.8h1.4V14c0.5-0.7,1.1-1.1,1.8-1.1c0.4,0,0.6,0,0.8,0.1V11.6z M122.9,19.6h1.4v-5
			c0-1.2-0.3-1.9-0.8-2.3c-0.6-0.4-1.3-0.6-2.3-0.6c-2.1,0-3.3,0.8-3.4,2.4h1.4c0-0.9,0.7-1.3,1.9-1.3c0.6,0,1,0.1,1.3,0.2
			c0.3,0.2,0.4,0.4,0.5,0.6c0.1,0.3,0.1,0.7,0.1,1.2h-0.7c-3.1,0-4.7,0.9-4.7,2.7c0,0.7,0.2,1.2,0.8,1.6c0.5,0.4,1.1,0.6,1.9,0.6
			c1.1,0,2-0.3,2.7-1V19.6z M121.9,18.3c-0.4,0.2-0.9,0.3-1.3,0.3c-0.5,0-0.9-0.1-1.2-0.3c-0.3-0.2-0.4-0.5-0.4-0.9
			c0-1.1,1-1.6,3-1.6h0.9v1.7C122.7,17.9,122.3,18.1,121.9,18.3 M110.6,14.9c0.1-0.8,0.4-1.3,0.8-1.7c0.4-0.4,0.9-0.6,1.4-0.6
			c0.6,0,1,0.2,1.4,0.6c0.4,0.4,0.6,0.9,0.8,1.7H110.6z M115.2,19.1c0.6-0.4,1-1.1,1.1-1.9h-1.4c0,0.5-0.2,0.8-0.6,1.1
			c-0.4,0.2-0.8,0.4-1.3,0.4c-0.6,0-1.2-0.2-1.6-0.7c-0.4-0.4-0.7-1.1-0.7-2h5.9v-0.3c0-1.3-0.3-2.3-1-3c-0.7-0.7-1.6-1.1-2.7-1.1
			c-1.1,0-2,0.4-2.6,1.1c-0.7,0.7-1,1.7-1,3c0,1.3,0.3,2.3,1,3c0.7,0.7,1.6,1.1,2.8,1.1C113.8,19.7,114.6,19.5,115.2,19.1
			 M106.7,18.8c0.7-0.6,1.1-1.4,1.1-2.3c0-0.7-0.2-1.3-0.6-1.7c-0.4-0.4-0.9-0.8-1.4-1c-0.6-0.2-1.3-0.4-2.3-0.6
			c-1-0.2-1.6-0.4-2-0.7c-0.3-0.2-0.5-0.6-0.5-1c0-0.5,0.2-0.9,0.7-1.2c0.4-0.3,1.1-0.4,1.8-0.4c1.6,0,2.5,0.7,2.7,2h1.4
			c0-1-0.4-1.8-1.2-2.4c-0.7-0.6-1.7-0.8-2.9-0.8c-1.2,0-2.1,0.3-2.8,0.8c-0.7,0.6-1,1.3-1,2.1c0,0.8,0.3,1.4,0.8,1.9
			c0.5,0.5,1.4,0.8,2.7,1.1c1.2,0.3,2.1,0.5,2.6,0.8c0.5,0.3,0.8,0.7,0.8,1.3c0,0.6-0.2,1-0.7,1.3c-0.5,0.3-1.1,0.5-1.9,0.5
			c-0.8,0-1.6-0.2-2.2-0.6c-0.6-0.4-0.9-1-1-1.8h-1.4c0,1.1,0.4,1.9,1.2,2.6c0.8,0.7,1.9,1,3.4,1C105,19.7,106,19.4,106.7,18.8"/>
	</g>
</g>
</svg>
