<?xml version="1.0" encoding="UTF-8"?>
<svg id="Layer_1" xmlns="http://www.w3.org/2000/svg" version="1.1" viewBox="0 0 170.08 170.08">
  <!-- Generator: Adobe Illustrator 29.4.0, SVG Export Plug-In . SVG Version: 2.1.0 Build 152)  -->
  <defs>
    <style>
      .st0 {
        fill: #fff;
      }
    </style>
  </defs>
  <path class="st0" d="M162.01,85.04c0-8.48-6.17-16.55-17.38-22.74L49.77,9.92c-11.23-6.2-21.68-7.1-29.42-2.53-7.74,4.57-12,14.15-12,26.98v101.35c0,12.83,4.26,22.41,12,26.98,7.74,4.57,18.19,3.67,29.42-2.53l94.86-52.38c11.21-6.19,17.38-14.26,17.38-22.74M3.84,135.71V34.37c0-14.49,5.05-25.45,14.22-30.86C27.23-1.91,39.27-1.03,51.95,5.97l94.86,52.38c12.71,7.02,19.71,16.49,19.71,26.69s-7,19.67-19.71,26.69l-94.86,52.38c-12.68,7-24.72,7.88-33.89,2.47-9.17-5.41-14.22-16.37-14.22-30.86"/>
</svg>