<?xml version="1.0" encoding="utf-8"?>
<!-- Generator: Adobe Illustrator 22.1.0, SVG Export Plug-In . SVG Version: 6.00 Build 0)  -->
<svg version="1.1" id="Layer_1" xmlns="http://www.w3.org/2000/svg" xmlns:xlink="http://www.w3.org/1999/xlink" x="0px" y="0px"
	 viewBox="0 0 41.6 38.4" style="enable-background:new 0 0 41.6 38.4;" xml:space="preserve">
<style type="text/css">
	.st0{fill:#4CBCC0;}
	.st1{fill:#FFFFFF;}
</style>
<g>
	<path class="st0" d="M0,38.4h41.6V0H0V38.4z"/>
	<path class="st1" d="M27.2,16c-0.9,0-1.6-0.7-1.6-1.6c0-0.9,0.7-1.6,1.6-1.6c0.9,0,1.6,0.7,1.6,1.6C28.8,15.3,28.1,16,27.2,16z
		 M22.4,6.4V19l6.1-0.5c0.3,4-2.3,7.6-6.1,8.5v5c7.1,0,12.8-5.7,12.8-12.8V6.4H22.4z"/>
	<path class="st1" d="M14.4,12.8c0.9,0,1.6,0.7,1.6,1.6c0,0.9-0.7,1.6-1.6,1.6c-0.9,0-1.6-0.7-1.6-1.6
		C12.8,13.5,13.5,12.8,14.4,12.8z M12.5,19.9l6.8-0.6V6.4H6.4v12.8c0,7.1,5.7,12.8,12.8,12.8v-4.9C15.6,26.6,12.8,23.6,12.5,19.9z"
		/>
</g>
</svg>
