<svg width="176" height="39" viewBox="0 0 176 39" fill="none" xmlns="http://www.w3.org/2000/svg">
<path fill-rule="evenodd" clip-rule="evenodd" d="M0 38.6642H41.615V0.250488H0V38.6642Z" fill="#01D4CF"/>
<path fill-rule="evenodd" clip-rule="evenodd" d="M27.2105 16.2416C26.3255 16.2416 25.6092 15.5253 25.6092 14.6403C25.6092 13.7566 26.3255 13.0403 27.2105 13.0403C28.0942 13.0403 28.8117 13.7566 28.8117 14.6403C28.8117 15.5253 28.0942 16.2416 27.2105 16.2416ZM22.408 6.65283V19.2641L28.4655 18.7353C28.8142 22.7291 26.1805 26.2953 22.408 27.2328V32.2616C29.4805 32.2616 35.2142 26.5291 35.2142 19.4578V6.65283H22.408Z" fill="white"/>
<path fill-rule="evenodd" clip-rule="evenodd" d="M14.4219 13.0403C15.3069 13.0403 16.0231 13.7578 16.0231 14.6416C16.0231 15.5253 15.3069 16.2416 14.4219 16.2416C13.5381 16.2416 12.8219 15.5253 12.8219 14.6416C12.8219 13.7578 13.5381 13.0403 14.4219 13.0403ZM12.4506 20.1366L19.2081 19.5453V6.65283H6.40186V19.4566C6.40186 26.5291 12.1356 32.2616 19.2081 32.2616V27.3766C15.6419 26.8178 12.7794 23.8928 12.4506 20.1366Z" fill="white"/>
<mask id="mask0" mask-type="alpha" maskUnits="userSpaceOnUse" x="0" y="0" width="176" height="39">
<path fill-rule="evenodd" clip-rule="evenodd" d="M0 38.6642H175.03V0.250488H0V38.6642Z" fill="white"/>
</mask>
<g mask="url(#mask0)">
<path fill-rule="evenodd" clip-rule="evenodd" d="M59.8335 20.6287V14.1475H62.0847V20.525C62.0847 21.8225 62.931 22.645 64.1285 22.645C65.3222 22.645 66.1685 21.8225 66.1685 20.525V14.1475H68.4197V20.6287C68.4197 23.065 66.5835 24.7675 64.1285 24.7675C61.6697 24.7675 59.8335 23.065 59.8335 20.6287Z" fill="#3E3E48"/>
<path fill-rule="evenodd" clip-rule="evenodd" d="M82.4527 14.1475V24.54H80.5727L75.8664 18.045V24.54H73.6602V14.1475H75.6902L80.2452 20.4862V14.1475H82.4527Z" fill="#3E3E48"/>
<path fill-rule="evenodd" clip-rule="evenodd" d="M87.7937 24.5404H90.0425V14.1479H87.7937V24.5404Z" fill="#3E3E48"/>
<path fill-rule="evenodd" clip-rule="evenodd" d="M99.772 23.2507C100.811 23.2507 101.591 22.5257 101.591 21.5307C101.591 20.5507 100.813 19.812 99.7782 19.812H96.9157V23.2507H99.772ZM101.332 16.977C101.332 16.0932 100.618 15.4232 99.7045 15.4232H96.9157V18.5357H99.7132C100.636 18.5357 101.332 17.842 101.332 16.977ZM101.383 19.1495C102.344 19.5607 102.934 20.5432 102.934 21.6795C102.934 23.292 101.572 24.5395 99.7857 24.5395H95.627V14.147H99.732C101.431 14.147 102.662 15.287 102.662 16.802C102.662 17.7332 102.163 18.6895 101.383 19.1495Z" fill="#3E3E48"/>
<path fill-rule="evenodd" clip-rule="evenodd" d="M108.052 20.67V14.1475H109.368V20.575C109.368 22.2837 110.517 23.4375 112.138 23.4375C113.745 23.4375 114.894 22.2837 114.894 20.575V14.1475H116.21V20.67C116.21 23.0375 114.472 24.7125 112.138 24.7125C109.79 24.7125 108.052 23.0375 108.052 20.67Z" fill="#3E3E48"/>
<path fill-rule="evenodd" clip-rule="evenodd" d="M129.299 19.3425C129.299 17.0437 127.649 15.3687 125.318 15.3687H123.195V23.3187H125.318C127.648 23.3187 129.299 21.6425 129.299 19.3425ZM125.358 14.1475C128.416 14.1475 130.628 16.33 130.628 19.3425C130.628 22.3562 128.415 24.54 125.358 24.54H121.893V14.1475H125.358Z" fill="#3E3E48"/>
<path fill-rule="evenodd" clip-rule="evenodd" d="M143.152 19.3425C143.152 17.0437 141.502 15.3687 139.17 15.3687H137.048V23.3187H139.17C141.5 23.3187 143.152 21.6425 143.152 19.3425ZM139.21 14.1475C142.269 14.1475 144.48 16.33 144.48 19.3425C144.48 22.3562 142.268 24.54 139.21 24.54H135.745V14.1475H139.21Z" fill="#3E3E48"/>
<path fill-rule="evenodd" clip-rule="evenodd" d="M152.975 20.3954V24.5392H151.631V20.3954L147.825 14.1479H149.252L152.311 19.1667L155.385 14.1479H156.812L152.975 20.3954Z" fill="#3E3E48"/>
</g>
</svg>
