<?xml version="1.0" encoding="utf-8"?>
<!-- Generator: Adobe Illustrator 20.1.0, SVG Export Plug-In . SVG Version: 6.00 Build 0)  -->
<svg version="1.1" id="Layer_1" xmlns="http://www.w3.org/2000/svg" xmlns:xlink="http://www.w3.org/1999/xlink" x="0px" y="0px"
	 viewBox="0 0 65.7 80.8" style="enable-background:new 0 0 65.7 80.8;" xml:space="preserve">
<g>
	<g>
		<path d="M22.7,58.1c-0.7-0.1-0.9-0.9-1.1-1.4c-0.3-0.7-1.2-0.8-2.1-0.3c0.4-1,1.6-1.4,2.4-1c1.4,0.5,0.8,1.5,2,1.7
			c-0.3-0.7,0.3-1.2,0.6-1.6c0.5-0.6,0.1-1.4-0.8-1.9c1-0.1,2,0.7,2.1,1.6c0.2,1.5-0.9,1.4-0.5,2.6c0.4-0.6,1.2-0.4,1.7-0.3
			c0.7,0.1,1.3-0.6,1.3-1.7c0.6,0.8,0.4,2.1-0.3,2.6c-1.1,0.9-1.7-0.1-2.5,0.9c0.7,0.1,0.9,0.9,1.1,1.4c0.3,0.7,1.2,0.8,2.1,0.3
			c-0.4,1-1.6,1.4-2.4,1c-1.4-0.5-0.8-1.5-2-1.7c0.3,0.7-0.3,1.2-0.6,1.6c-0.5,0.6-0.1,1.4,0.8,1.9c-1,0.1-2-0.7-2.1-1.6
			c-0.2-1.5,0.9-1.4,0.5-2.6c-0.4,0.6-1.2,0.4-1.7,0.3c-0.7-0.1-1.3,0.6-1.3,1.7c-0.6-0.8-0.4-2.1,0.3-2.6
			C21.4,58.1,22,59.1,22.7,58.1 M31.3,68.5c-0.7-0.1-0.9-0.9-1.1-1.4c-0.3-0.7-1.2-0.8-2.1-0.3c0.4-1,1.6-1.4,2.4-1
			c1.4,0.5,0.8,1.5,2,1.7c-0.3-0.7,0.3-1.2,0.6-1.6c0.5-0.6,0.1-1.4-0.8-1.9c1-0.1,2,0.7,2.1,1.6c0.2,1.5-0.9,1.4-0.5,2.6
			c0.4-0.6,1.2-0.4,1.7-0.3c0.7,0.1,1.3-0.6,1.3-1.7c0.6,0.8,0.4,2.1-0.3,2.6c-1.1,0.9-1.7-0.1-2.5,0.9c0.7,0.1,0.9,0.9,1.1,1.4
			c0.3,0.7,1.2,0.8,2.1,0.3c-0.4,1-1.6,1.4-2.4,1c-1.4-0.5-0.8-1.5-2-1.7c0.3,0.7-0.3,1.2-0.6,1.6c-0.4,0.6-0.1,1.4,0.8,1.9
			c-1,0.1-2-0.7-2.1-1.6c-0.2-1.4,0.9-1.4,0.5-2.6c-0.4,0.6-1.2,0.4-1.7,0.3c-0.7-0.1-1.3,0.6-1.3,1.7c-0.6-0.8-0.4-2.1,0.3-2.6
			C30,68.5,30.6,69.5,31.3,68.5 M37,61.6c-0.6-0.8-0.4-2.1,0.3-2.6c1.1-0.9,1.7,0.1,2.5-0.9c-0.7-0.1-0.9-0.9-1.1-1.4
			c-0.3-0.7-1.2-0.8-2.1-0.3c0.4-1,1.6-1.4,2.4-1c1.4,0.5,0.8,1.5,2,1.7c-0.3-0.7,0.3-1.2,0.6-1.6c0.5-0.6,0.1-1.4-0.8-1.9
			c1-0.1,2,0.7,2.1,1.6c0.2,1.5-0.9,1.4-0.5,2.6c0.4-0.6,1.2-0.4,1.7-0.3c0.7,0.1,1.3-0.6,1.3-1.7c0.6,0.8,0.4,2.1-0.3,2.6
			c-1.1,0.9-1.7-0.1-2.5,0.9c0.7,0.1,0.9,0.9,1.1,1.4c0.3,0.7,1.2,0.8,2.1,0.3c-0.4,1-1.6,1.4-2.4,1c-1.4-0.5-0.8-1.5-2-1.7
			c0.3,0.7-0.3,1.2-0.6,1.6c-0.5,0.6-0.1,1.4,0.8,1.9c-1,0.1-2-0.7-2.1-1.6c-0.2-1.5,0.9-1.4,0.5-2.6c-0.4,0.6-1.2,0.4-1.7,0.3
			C37.5,59.9,36.9,60.6,37,61.6 M9,54.3c6.6,12.3,16.7,19.5,23.8,23.3c2.9-1.6,6.2-3.6,9.6-6.3c5.1-4.1,10.3-9.6,14.2-17
			c-3.1,0.4-7.1-0.1-10.2-1.4c-6.2-2.6-10.2-2.5-13.7,0.2c-3.5-2.7-7.5-2.8-13.7-0.2C16,54.1,12.1,54.6,9,54.3 M10.7,35.4
			c1-0.9,2.1-1.9,2.1-1.9l-1.3-1.1c-0.1-0.1-0.1-0.2-0.1-0.4c0-0.1,0.1-0.2,0.3-0.2l1.6,0c0.1-0.3,0.5-0.6,0.8-0.6
			c0.4,0,0.7,0.2,0.8,0.6l1.7,0c0.1,0,0.2,0.1,0.3,0.2c0,0.1,0,0.3-0.1,0.4l-1.2,1.1c0.1,0.1,1.1,1,2.1,1.9c0.2,0.1,1.8,1.3,1,2.7
			c-0.4,0.7-1,0.6-1,0.6s-0.2,1.1-1.3,1.3c-0.5,0.1-0.8-0.2-0.8-0.2s-0.2,0.4-0.7,0.6c-0.2,0.1-0.4,0.1-0.7,0.1
			c-1,0-1.4-0.8-1.4-0.8S12.5,40,12,39.9c-1.1-0.2-1.3-1.3-1.3-1.3s-0.6,0-1-0.6C8.9,36.7,10.6,35.5,10.7,35.4 M29.3,35.4
			c1-0.9,2.1-1.9,2.1-1.9h0l-1.3-1.1C30,32.3,30,32.2,30,32c0-0.1,0.1-0.2,0.3-0.2l1.6,0c0.1-0.3,0.5-0.6,0.8-0.6
			c0.4,0,0.7,0.2,0.8,0.6l1.7,0c0.1,0,0.2,0.1,0.3,0.2c0,0.1,0,0.3-0.1,0.4l-1.2,1.1c0.1,0.1,1.1,1,2.1,1.9c0.2,0.1,1.8,1.3,1,2.7
			c-0.4,0.7-1,0.6-1,0.6S36,39.7,35,39.9c-0.5,0.1-0.8-0.2-0.8-0.2s-0.2,0.4-0.7,0.6c-0.2,0.1-0.4,0.1-0.7,0.1c-1,0-1.4-0.8-1.4-0.8
			S31,40,30.5,39.9c-1.1-0.2-1.3-1.3-1.3-1.3s-0.6,0-1-0.6C27.5,36.7,29.1,35.5,29.3,35.4 M47.9,35.4c1-0.9,2.1-1.9,2.1-1.9
			l-1.3-1.1c-0.1-0.1-0.1-0.2-0.1-0.4c0-0.1,0.1-0.2,0.3-0.2l1.6,0c0.1-0.3,0.5-0.6,0.8-0.6c0.4,0,0.7,0.2,0.8,0.6l1.7,0
			c0.1,0,0.2,0.1,0.3,0.2c0,0.1,0,0.3-0.1,0.4l-1.2,1.1c0.1,0.1,1.1,1,2.1,1.9c0.2,0.1,1.8,1.3,1,2.7c-0.4,0.7-1,0.6-1,0.6
			s-0.2,1.1-1.3,1.3c-0.5,0.1-0.8-0.2-0.8-0.2s-0.2,0.4-0.7,0.6c-0.2,0.1-0.4,0.1-0.7,0.1c-1,0-1.4-0.8-1.4-0.8s-0.3,0.3-0.8,0.2
			c-1.1-0.2-1.3-1.3-1.3-1.3s-0.6,0-1-0.6C46.1,36.7,47.7,35.5,47.9,35.4 M2.5,26.7c0,1.6,0.1,3.3,0.1,5.5c0.4,4.4,1.2,8.5,2.3,12.2
			c1.9,0.8,4.2,1.3,6.2,1.3c2.7,0,5.4-0.7,7.9-2c5.1-2.8,8.8-2.8,13.5,0l0.2,0.1h0l0.2-0.1c4.7-2.8,8.4-2.7,13.5,0
			c2.5,1.3,5.2,2,7.9,2c2.2,0,4.3-0.5,6.3-1.3c1.1-3.7,1.9-7.7,2.3-12.1c0.1-2.2,0.1-4,0.1-5.6c-5.3,2.7-10.4,2.9-16,0.8
			c-5.3-1.9-9.8-2.4-14.4,1.5h0c-4.6-3.9-9.1-3.4-14.4-1.5C12.8,29.5,7.7,29.3,2.5,26.7 M48.9,10c0.7,0.1,0.9,0.9,1.1,1.4
			c0.3,0.7,1.2,0.8,2.1,0.3c-0.4,1-1.6,1.4-2.4,1c-1.4-0.5-0.8-1.5-2-1.7c0.3,0.7-0.3,1.2-0.6,1.6c-0.4,0.6-0.1,1.4,0.8,1.9
			c-1,0.1-2-0.7-2.1-1.6c-0.2-1.4,0.9-1.4,0.5-2.6c-0.4,0.6-1.2,0.4-1.7,0.3c-0.7-0.1-1.3,0.6-1.3,1.7c-0.6-0.8-0.4-2.1,0.3-2.6
			c1.1-0.9,1.7,0.1,2.5-0.9c-0.7-0.1-0.9-0.9-1.1-1.4c-0.3-0.7-1.2-0.8-2.1-0.3c0.4-1,1.6-1.4,2.4-1c1.4,0.5,0.8,1.5,2,1.7
			c-0.3-0.7,0.3-1.2,0.6-1.6C48.3,5.6,48,4.8,47,4.3c1-0.1,2,0.7,2.1,1.6c0.2,1.4-0.9,1.4-0.5,2.6c0.4-0.6,1.2-0.4,1.7-0.3
			c0.7,0.1,1.3-0.6,1.3-1.7c0.6,0.8,0.4,2.1-0.3,2.6C50.3,10,49.7,9,48.9,10 M34.4,10c0.7,0.1,0.9,0.9,1.1,1.4
			c0.3,0.7,1.2,0.8,2.1,0.3c-0.4,1-1.6,1.4-2.4,1c-1.4-0.5-0.8-1.5-2-1.7c0.3,0.7-0.3,1.2-0.6,1.6c-0.5,0.6-0.1,1.4,0.8,1.9
			c-1,0.1-2-0.7-2.1-1.6c-0.2-1.4,0.9-1.4,0.5-2.6c-0.4,0.6-1.2,0.4-1.7,0.3c-0.7-0.1-1.3,0.6-1.3,1.7c-0.6-0.8-0.4-2.1,0.3-2.6
			c1.1-0.9,1.7,0.1,2.5-0.9c-0.7-0.1-0.9-0.9-1.1-1.4c-0.3-0.7-1.2-0.8-2.1-0.3c0.4-1,1.6-1.4,2.4-1c1.4,0.5,0.8,1.5,2,1.7
			c-0.3-0.7,0.3-1.2,0.6-1.6c0.4-0.6,0.1-1.4-0.8-1.9c1-0.1,2,0.7,2.1,1.6c0.2,1.4-0.9,1.4-0.5,2.6c0.4-0.6,1.2-0.4,1.7-0.3
			c0.7,0.1,1.3-0.6,1.3-1.7c0.6,0.8,0.4,2.1-0.3,2.6C35.7,10,35.1,9,34.4,10 M20.4,10c0.7,0.1,0.9,0.9,1.1,1.4
			c0.3,0.7,1.2,0.8,2.1,0.3c-0.4,1-1.6,1.4-2.4,1c-1.4-0.5-0.8-1.5-2-1.7c0.3,0.7-0.3,1.2-0.6,1.6c-0.5,0.6-0.1,1.4,0.8,1.9
			c-1,0.1-2-0.7-2.1-1.6c-0.2-1.4,0.9-1.4,0.5-2.6c-0.4,0.6-1.2,0.4-1.7,0.3c-0.7-0.1-1.3,0.6-1.3,1.7c-0.6-0.8-0.4-2.1,0.3-2.6
			c1.1-0.9,1.7,0.1,2.5-0.9c-0.7-0.1-0.9-0.9-1.1-1.4c-0.3-0.7-1.2-0.8-2.1-0.3c0.4-1,1.6-1.4,2.4-1c1.4,0.5,0.8,1.5,2,1.7
			c-0.3-0.7,0.3-1.2,0.6-1.6c0.4-0.6,0.1-1.4-0.8-1.9c1-0.1,2,0.7,2.1,1.6c0.2,1.4-0.9,1.4-0.5,2.6c0.4-0.6,1.2-0.4,1.7-0.3
			c0.7,0.1,1.3-0.6,1.3-1.7c0.6,0.8,0.4,2.1-0.3,2.6C21.7,10,21.1,9,20.4,10 M54.9,20.1c4.4,0,8.3-2.8,8.3-2.8v-6.2
			C63,11.1,62.9,11,62.6,11c0.3,0.7-0.3,1.2-0.6,1.6c-0.5,0.6-0.1,1.4,0.8,1.9c-1,0.1-2-0.7-2.1-1.6c-0.2-1.4,0.9-1.4,0.5-2.6
			c-0.4,0.6-1.2,0.4-1.7,0.3c-0.7-0.1-1.3,0.6-1.3,1.7c-0.6-0.8-0.4-2.1,0.3-2.6c1.1-0.9,1.7,0.1,2.5-0.9C60.2,8.7,60,8,59.8,7.5
			c-0.3-0.7-1.2-0.8-2.1-0.3c0.4-1,1.6-1.4,2.4-1c1.4,0.5,0.8,1.5,2,1.7c-0.3-0.7,0.3-1.2,0.6-1.6C63.3,5.6,63,4.8,62,4.3
			c0.4-0.1,0.8,0.1,1.2,0.3V2.5H2.5v5.2C2.6,7.8,2.8,7.8,3,7.9C2.7,7.2,3.3,6.6,3.6,6.2C4,5.6,3.7,4.8,2.8,4.3c1-0.1,2,0.7,2.1,1.6
			C5.1,7.3,4,7.3,4.4,8.5c0.4-0.6,1.2-0.4,1.7-0.3c0.7,0.1,1.3-0.6,1.3-1.7c0.6,0.8,0.4,2.1-0.3,2.6C6,10,5.4,9,4.7,10
			c0.7,0.1,0.9,0.9,1.1,1.4c0.3,0.7,1.2,0.8,2.1,0.3c-0.4,1-1.6,1.4-2.4,1c-1.4-0.5-0.8-1.5-2-1.7c0.3,0.7-0.3,1.2-0.6,1.6
			c-0.5,0.6-0.1,1.4,0.8,1.9c-0.4,0.1-0.8,0-1.1-0.2v3c0,0,3.9,2.8,8.3,2.8c8.4,0,9.5-4,16.5-4c3,0,5.5,2.3,5.5,2.3s2.6-2.3,5.5-2.3
			C45.3,16.1,46.5,20.1,54.9,20.1 M64.6,32.2c-2.4,27.8-20.7,41.7-31.7,47.5c-11-5.9-29.4-19.7-31.7-47.5C0.9,25.7,0.9,22.8,1,17.3
			V0.9h63.8v16.4C64.8,22.8,64.8,25.7,64.6,32.2 M65.7,17.3V0H0v17.3c0,5.6,0,8.4,0.2,15c2.4,28.4,20.9,42.4,32.7,48.5
			c11.7-6.1,30.3-20.2,32.7-48.5C65.7,25.8,65.7,23,65.7,17.3"/>
	</g>
</g>
</svg>
