<svg enable-background="new 0 0 65.7 80.8" viewBox="0 0 65.7 80.8" xmlns="http://www.w3.org/2000/svg"><path d="m37.1 62.5c0-1.1.6-1.8 1.3-1.7.5.1 1.3.3 1.8-.3.5 1.2-.7 1.2-.5 2.7.1.9 1.1 1.8 2.2 1.6-1-.5-1.3-1.4-.8-2 .3-.4.9-1 .6-1.7 1.3.2.7 1.2 2.1 1.7.9.3 2.1-.1 2.5-1.1-.9.6-1.9.4-2.1-.3-.2-.4-.5-1.2-1.2-1.3.8-1 1.4 0 2.5-.9.7-.6 1-1.9.3-2.7 0 1.1-.6 1.8-1.3 1.7-.5-.1-1.3-.3-1.8.3-.5-1.2.7-1.2.5-2.7-.2-.9-1.1-1.8-2.2-1.6 1 .5 1.3 1.4.8 2-.3.4-.9 1-.6 1.7-1.3-.1-.7-1.2-2.1-1.7-.9-.3-2.1.1-2.5 1.1.9-.6 1.9-.4 2.1.3.2.5.4 1.3 1.1 1.4-.8 1-1.4 0-2.5.9-.6.5-.8 1.8-.2 2.6m-5.8 7.1c-.8 1-1.4 0-2.5.9-.7.6-1 1.9-.3 2.7 0-1.1.6-1.8 1.3-1.7.5.1 1.3.3 1.8-.3.5 1.2-.7 1.2-.5 2.7.1.9 1.1 1.8 2.2 1.6-1-.5-1.3-1.4-.8-2 .3-.4.9-1 .6-1.7 1.3.1.7 1.2 2.1 1.7.9.3 2.1-.1 2.5-1.1-.9.6-1.9.4-2.1-.3-.2-.5-.4-1.3-1.1-1.4.8-1 1.4 0 2.5-.9.7-.6 1-1.9.3-2.7 0 1.1-.6 1.8-1.3 1.7-.5-.1-1.3-.3-1.8.3-.5-1.2.7-1.2.5-2.7-.1-.9-1.1-1.8-2.2-1.6 1 .5 1.3 1.4.8 2-.3.4-.9 1-.6 1.7-1.3-.1-.7-1.2-2.1-1.7-.9-.3-2.1.1-2.5 1.1.9-.6 1.9-.4 2.1.3.1.5.4 1.3 1.1 1.4m-8.9-10.7c-.8 1-1.4 0-2.5.9-.7.6-1 1.9-.3 2.7 0-1.1.6-1.8 1.3-1.7.5.1 1.3.3 1.8-.3.5 1.2-.7 1.2-.5 2.7.1.9 1.1 1.8 2.2 1.6-1-.5-1.3-1.4-.8-2 .3-.4.9-1 .6-1.7 1.3.1.7 1.2 2.1 1.7.9.3 2.1-.1 2.5-1.1-.9.6-1.9.4-2.1-.3-.2-.5-.4-1.3-1.1-1.4.8-1 1.4 0 2.5-.9.7-.6 1-1.9.3-2.7 0 1.1-.6 1.8-1.3 1.7-.5-.1-1.3-.3-1.8.3-.5-1.2.7-1.2.5-2.7-.1-.9-1.1-1.8-2.2-1.6 1 .5 1.3 1.4.8 2-.3.4-.9 1-.6 1.7-1.3-.1-.7-1.2-2.1-1.7-.9-.3-2.1.1-2.5 1.1.9-.6 1.9-.4 2.1.3.2.5.4 1.3 1.1 1.4m24.8-20.7c.4.7 1 .7 1 .7s.3 1.1 1.4 1.3c.5.1.9-.2.9-.2s.3.8 1.4.8c.3 0 .5-.1.7-.1.6-.2.7-.7.7-.7s.3.3.9.2c1.1-.2 1.4-1.3 1.4-1.3s.6 0 1-.7c.8-1.3-.9-2.6-1.1-2.7-1-.9-2.1-1.9-2.1-1.9l1.3-1.1c.1-.1.1-.2.1-.4 0-.1-.1-.2-.3-.2h-1.7c-.1-.3-.5-.6-.8-.6s-.7.2-.8.6h-1.6c-.1 0-.2.1-.3.2 0 .1 0 .3.1.4l1.3 1.1s-1.1 1-2.2 1.9c-.3.1-2 1.3-1.3 2.7m-19.1 0c.4.7 1 .7 1 .7s.3 1.1 1.4 1.3c.5.1.9-.2.9-.2s.3.8 1.4.8c.3 0 .5-.1.7-.1.5-.2.7-.7.7-.7s.3.3.9.2c1.1-.2 1.4-1.3 1.4-1.3s.6 0 1-.7c.8-1.3-.9-2.6-1.1-2.7-1-.9-2.1-1.9-2.1-1.9l1.3-1.1c.1-.1.1-.2.1-.4 0-.1-.1-.2-.3-.2h-1.7c-.1-.3-.5-.6-.8-.6-.4 0-.7.2-.8.6h-1.6c-.1 0-.2.1-.3.2 0 .1 0 .3.1.4l1.3 1.1s-1.1 1-2.2 1.9c-.4.1-2.1 1.3-1.3 2.7m-15.9-4.7s-1.1 1-2.2 1.9c-.2.2-1.9 1.4-1.1 2.7.4.7 1 .7 1 .7s.3 1.1 1.4 1.3c.5.1.9-.2.9-.2s.3.8 1.4.8c.3 0 .5-.1.7-.1.5-.2.7-.7.7-.7s.3.3.9.2c1.1-.2 1.4-1.3 1.4-1.3s.6 0 1-.7c.8-1.3-.9-2.6-1.1-2.7-1-.9-2.1-1.9-2.1-1.9l1.3-1.1c.1-.1.1-.2.1-.4 0-.1-.1-.2-.3-.2h-1.7c-.1-.3-.5-.6-.8-.6-.4 0-.7.2-.8.6h-1.6c-.1 0-.2.1-.3.2 0 .1 0 .3.1.4zm7.8-24.2c.8-1 1.4 0 2.5-.9.7-.6 1-1.9.3-2.7 0 1.1-.6 1.8-1.3 1.7-.5-.1-1.3-.3-1.8.3-.5-1.2.7-1.2.5-2.7-.1-.9-1.1-1.8-2.2-1.6 1 .5 1.3 1.4.8 2-.3.4-.9 1-.6 1.7-1.2-.1-.6-1.2-2-1.7-.9-.3-2.1.1-2.5 1.1.9-.6 1.9-.4 2.1.3.2.4.4 1.2 1.2 1.3-.8 1-1.4 0-2.5.9-.7.6-1 1.9-.3 2.7 0-1.1.6-1.8 1.3-1.7.5.1 1.3.3 1.8-.3.5 1.2-.7 1.2-.5 2.7.2.9 1.1 1.8 2.2 1.6-1-.5-1.3-1.4-.8-2 .3-.4.9-1 .6-1.7 1.3.2.7 1.2 2.1 1.7.9.3 2.1-.1 2.5-1.1-.9.6-1.9.4-2.1-.3-.4-.4-.6-1.2-1.3-1.3m14.4 0c.8-1 1.4 0 2.5-.9.7-.6 1-1.9.3-2.7 0 1.1-.6 1.8-1.3 1.7-.5-.1-1.3-.3-1.8.3-.5-1.2.7-1.2.5-2.7-.2-.9-1.1-1.8-2.2-1.6 1 .5 1.3 1.4.8 2-.3.4-.9 1-.6 1.7-1.2-.1-.6-1.2-2-1.7-.9-.3-2.1.1-2.5 1.1.9-.6 1.9-.5 2.1.2.2.5.4 1.3 1.1 1.4-.8 1-1.4 0-2.5.9-.7.6-1 1.9-.3 2.7 0-1.1.6-1.8 1.3-1.7.5.1 1.3.3 1.8-.3.5 1.2-.7 1.2-.5 2.7.2.9 1.1 1.8 2.2 1.6-1-.5-1.3-1.4-.8-2 .3-.4.9-1 .6-1.7 1.3.2.7 1.2 2.1 1.7.9.3 2.1-.1 2.5-1.1-.9.6-1.9.4-2.1-.3-.2-.4-.4-1.2-1.2-1.3m15 0c.8-1 1.4 0 2.5-.9.7-.6 1-1.9.3-2.7 0 1.1-.6 1.8-1.3 1.7-.5-.1-1.3-.3-1.8.3-.5-1.2.7-1.2.5-2.7-.1-.9-1.1-1.8-2.2-1.6 1 .5 1.3 1.4.8 2-.3.4-.9 1-.6 1.7-1.2-.1-.6-1.2-2-1.7-.9-.3-2.1.1-2.5 1.1 1-.6 1.9-.5 2.2.2.2.5.4 1.3 1.1 1.4-.8 1-1.4 0-2.5.9-.7.6-1 1.9-.3 2.7 0-1.1.6-1.8 1.3-1.7.5.1 1.3.3 1.8-.3.5 1.2-.7 1.2-.5 2.7.1.9 1.1 1.8 2.2 1.6-1-.5-1.3-1.4-.8-2 .3-.4.9-1 .6-1.7 1.3.2.7 1.2 2.1 1.7.9.3 2.1-.1 2.5-1.1-.9.6-1.9.4-2.1-.3-.3-.4-.5-1.2-1.3-1.3m14.7 7.6s-4 2.8-8.5 2.8c-8.7 0-9.8-4.1-17-4.1-3.1 0-5.7 2.3-5.7 2.3s-2.6-2.3-5.7-2.3c-7.2 0-8.3 4.1-17 4.1-4.5 0-8.5-2.8-8.5-2.8v-3.1c.2.2.6.3 1 .2-1-.5-1.3-1.4-.8-2 .3-.4.9-1 .6-1.7 1.3.2.7 1.2 2.1 1.7.9.4 2.1 0 2.5-1-.9.6-1.9.4-2.1-.3-.2-.5-.4-1.3-1.1-1.4.8-1 1.4 0 2.5-.9.7-.6 1-1.9.3-2.7 0 1.1-.6 1.8-1.3 1.7-.5 0-1.3-.3-1.8.3-.5-1.1.7-1.1.5-2.6-.2-.9-1.1-1.8-2.2-1.7 1 .5 1.3 1.4.8 2-.3.4-.9 1-.6 1.7-.2 0-.4-.1-.5-.1v-5.4h62.5v2.1c-.4-.2-.8-.3-1.2-.3 1 .5 1.3 1.4.8 2-.3.4-.9 1-.6 1.7-1.3-.1-.7-1.2-2.1-1.7-.9-.3-2.1.1-2.5 1.1.9-.6 1.9-.4 2.1.3.2.5.4 1.3 1.1 1.4-.8 1-1.4 0-2.5.9-.7.6-1 1.9-.3 2.7 0-1.1.6-1.8 1.3-1.7.5.1 1.3.3 1.8-.3.5 1.2-.7 1.2-.5 2.7.1.9 1.1 1.8 2.2 1.6-1-.5-1.3-1.4-.8-2 .3-.4.9-1 .6-1.7.2 0 .4.1.5.2v6.3zm-31.6 27.1c-4.9-2.8-8.7-2.8-13.9 0-2.6 1.4-5.4 2.1-8.1 2.1-2.1 0-4.4-.5-6.4-1.3-1.2-3.8-2-8-2.4-12.6-.1-2.2-.1-4-.1-5.7 5.4 2.7 10.6 2.9 16.3.7 5.5-2 10.1-2.5 14.8 1.5 4.8-4 9.4-3.5 14.8-1.5 5.8 2.1 11 1.9 16.5-.8 0 1.6-.1 3.5-.1 5.7-.4 4.5-1.2 8.7-2.3 12.5-2.1.9-4.3 1.4-6.5 1.4-2.7 0-5.5-.7-8.1-2.1-5.3-2.8-9.1-2.8-13.9 0l-.2.1m-24.6 11c3.2.3 7.2-.2 10.3-1.5 6.4-2.7 10.6-2.6 14.1.2 3.6-2.8 7.7-2.9 14.1-.2 3.2 1.3 7.3 1.9 10.5 1.5-4.1 7.6-9.4 13.3-14.7 17.5-3.5 2.8-6.9 4.9-9.9 6.5-7.2-3.9-17.6-11.4-24.4-24m57.4-37.7v-17.3h-65.7v17.3c0 5.6 0 8.4.2 15 2.4 28.4 20.9 42.4 32.7 48.5 11.7-6.1 30.3-20.2 32.7-48.5.1-6.5.1-9.3.1-15" fill="#fff"/></svg>