<?xml version="1.0" encoding="utf-8"?>
<!-- Generator: Adobe Illustrator 20.1.0, SVG Export Plug-In . SVG Version: 6.00 Build 0)  -->
<svg version="1.1" id="Layer_1" xmlns="http://www.w3.org/2000/svg" xmlns:xlink="http://www.w3.org/1999/xlink" x="0px" y="0px"
	 viewBox="0 0 65.7 81.1" style="enable-background:new 0 0 65.7 81.1;" xml:space="preserve">
<style type="text/css">
	.st0{fill:#FFFFFF;}
	.st1{fill:#F3E192;}
	.st2{fill:#0753A2;}
	.st3{fill:#D62916;}
</style>
<g>
	<g>
		<path class="st0" d="M0,0v16.9c0,5.6,0,8.6,0.2,15.3c2.4,28.7,21.3,42.9,32.7,48.9c11.4-6,30.2-20.3,32.7-48.9
			c0.2-6.8,0.2-9.8,0.2-15.3V0H0z"/>
		<path class="st1" d="M63.9,32.2c0.2-6.5,0.2-9.4,0.2-14.8V1.6H32.8H1.6v15.7c0,5.4,0,8.3,0.2,14.8C4.1,59.4,21.9,73.1,32.8,79
			C43.8,73.1,61.6,59.4,63.9,32.2"/>
		<path class="st2" d="M22.4,58.9c-0.7-0.1-0.9-0.9-1.1-1.4c-0.3-0.7-1.2-0.9-2.1-0.3c0.4-1,1.6-1.4,2.5-1.1
			c1.4,0.5,0.8,1.6,2.1,1.7c-0.3-0.7,0.3-1.3,0.6-1.7c0.5-0.6,0.1-1.5-0.8-2c1.1-0.1,2,0.7,2.2,1.6c0.2,1.5-1,1.5-0.5,2.7
			c0.5-0.6,1.3-0.4,1.8-0.3c0.7,0.1,1.3-0.6,1.3-1.7c0.7,0.9,0.4,2.1-0.3,2.7c-1.2,1-1.8-0.1-2.5,0.9c0.7,0.1,0.9,0.9,1.1,1.4
			c0.3,0.7,1.2,0.9,2.1,0.3c-0.4,1-1.6,1.4-2.5,1.1c-1.4-0.5-0.8-1.6-2.1-1.7c0.3,0.7-0.3,1.3-0.6,1.7c-0.5,0.6-0.1,1.5,0.8,2
			c-1.1,0.1-2-0.7-2.2-1.6c-0.2-1.5,1-1.5,0.5-2.7c-0.4,0.6-1.3,0.4-1.8,0.3c-0.7-0.1-1.3,0.6-1.3,1.7c-0.7-0.9-0.4-2.1,0.3-2.7
			C21.1,58.8,21.7,59.9,22.4,58.9 M31.3,69.6c-0.7-0.1-0.9-0.9-1.1-1.4c-0.3-0.7-1.2-0.9-2.1-0.3c0.4-1,1.6-1.4,2.5-1.1
			c1.4,0.5,0.8,1.6,2.1,1.7c-0.3-0.7,0.3-1.3,0.6-1.7c0.5-0.6,0.1-1.5-0.8-2c1.1-0.1,2,0.7,2.2,1.6c0.2,1.5-1,1.5-0.5,2.7
			c0.5-0.6,1.3-0.4,1.8-0.3c0.7,0.1,1.3-0.6,1.3-1.7c0.7,0.9,0.4,2.1-0.3,2.7c-1.2,1-1.8-0.1-2.5,0.9c0.7,0.1,0.9,0.9,1.1,1.4
			c0.3,0.7,1.2,0.9,2.1,0.3c-0.4,1-1.6,1.4-2.5,1.1C33.7,73,34.3,72,33,71.8c0.3,0.7-0.3,1.3-0.6,1.7c-0.5,0.6-0.1,1.5,0.8,2
			c-1.1,0.1-2-0.7-2.2-1.6c-0.2-1.5,1-1.5,0.5-2.7c-0.5,0.6-1.3,0.4-1.8,0.3c-0.7-0.1-1.3,0.6-1.3,1.7c-0.7-0.9-0.4-2.1,0.3-2.7
			C29.9,69.6,30.5,70.6,31.3,69.6 M37.1,62.5c-0.7-0.9-0.4-2.1,0.3-2.7c1.2-1,1.8,0.1,2.5-0.9c-0.7-0.1-0.9-0.9-1.1-1.4
			c-0.3-0.7-1.2-0.9-2.1-0.3c0.4-1,1.6-1.4,2.5-1.1c1.4,0.5,0.8,1.6,2.1,1.7c-0.3-0.7,0.3-1.3,0.6-1.7c0.5-0.6,0.1-1.5-0.8-2
			c1.1-0.1,2,0.7,2.2,1.6c0.2,1.5-1,1.5-0.5,2.7c0.4-0.6,1.3-0.4,1.8-0.3c0.7,0.1,1.3-0.6,1.3-1.7c0.7,0.9,0.4,2.1-0.3,2.7
			c-1.2,1-1.8-0.1-2.5,0.9c0.7,0.1,0.9,0.9,1.1,1.4c0.3,0.7,1.2,0.9,2.1,0.3c-0.4,1-1.6,1.4-2.5,1.1c-1.4-0.5-0.8-1.6-2.1-1.7
			c0.3,0.7-0.3,1.3-0.6,1.7c-0.5,0.6-0.1,1.5,0.8,2c-1.1,0.1-2-0.7-2.2-1.6c-0.2-1.5,1-1.5,0.5-2.7c-0.4,0.6-1.3,0.4-1.8,0.3
			C37.7,60.7,37.1,61.4,37.1,62.5 M8.3,55C15.1,67.6,25.5,75,32.8,79c3-1.6,6.4-3.7,9.9-6.5c5.2-4.2,10.6-9.9,14.7-17.5
			c-3.2,0.4-7.3-0.1-10.5-1.5c-6.4-2.7-10.5-2.6-14.1,0.2c-3.6-2.8-7.7-2.9-14.1-0.2C15.5,54.8,11.5,55.3,8.3,55"/>
		<path class="st2" d="M49.5,9.3c0.7,0.1,0.9,0.9,1.1,1.4c0.3,0.7,1.2,0.9,2.1,0.3c-0.4,1-1.6,1.4-2.5,1.1c-1.4-0.5-0.8-1.6-2.1-1.7
			c0.3,0.7-0.3,1.3-0.6,1.7c-0.5,0.6-0.1,1.5,0.8,2c-1.1,0.1-2-0.7-2.2-1.6c-0.2-1.5,1-1.5,0.5-2.7c-0.5,0.6-1.3,0.4-1.8,0.3
			c-0.7-0.1-1.3,0.6-1.3,1.7c-0.7-0.9-0.4-2.1,0.3-2.7c1.2-1,1.8,0.1,2.5-0.9c-0.7-0.1-0.9-0.9-1.1-1.4C45,6,44.1,5.9,43.1,6.5
			c0.4-1,1.6-1.4,2.5-1.1c1.4,0.5,0.8,1.6,2.1,1.7c-0.3-0.7,0.3-1.3,0.6-1.7c0.5-0.6,0.1-1.5-0.8-2c1.1-0.1,2,0.7,2.2,1.6
			c0.2,1.5-1,1.5-0.5,2.7c0.5-0.6,1.3-0.4,1.8-0.3c0.7,0.1,1.3-0.6,1.3-1.7C53,6.6,52.7,7.8,52,8.4C50.8,9.4,50.2,8.3,49.5,9.3
			 M34.5,9.3c0.7,0.1,0.9,0.9,1.1,1.4c0.3,0.7,1.2,0.9,2.1,0.3c-0.4,1-1.6,1.4-2.5,1.1c-1.4-0.5-0.8-1.6-2.1-1.7
			c0.3,0.7-0.3,1.3-0.6,1.7c-0.5,0.6-0.1,1.5,0.8,2c-1.1,0.1-2-0.7-2.2-1.6c-0.2-1.5,1-1.5,0.5-2.7c-0.4,0.6-1.3,0.4-1.8,0.3
			c-0.7-0.1-1.3,0.6-1.3,1.7c-0.7-0.9-0.4-2.1,0.3-2.7c1.2-1,1.8,0.1,2.5-0.9c-0.7-0.1-0.9-0.9-1.1-1.4C30,6,29.1,5.9,28.1,6.5
			c0.4-1,1.6-1.4,2.5-1.1c1.4,0.5,0.8,1.6,2.1,1.7c-0.3-0.7,0.3-1.3,0.6-1.7c0.5-0.6,0.1-1.5-0.8-2c1.1-0.1,2,0.7,2.2,1.6
			c0.2,1.5-1,1.5-0.5,2.7c0.4-0.6,1.3-0.4,1.8-0.3c0.7,0.1,1.3-0.6,1.3-1.7C38,6.6,37.7,7.8,37,8.4C35.8,9.4,35.2,8.3,34.5,9.3
			 M20,9.3c0.7,0.1,0.9,0.9,1.1,1.4c0.3,0.7,1.2,0.9,2.1,0.3c-0.4,1-1.6,1.4-2.5,1.1c-1.4-0.5-0.8-1.6-2.1-1.7
			c0.3,0.7-0.3,1.3-0.6,1.7c-0.5,0.6-0.1,1.5,0.8,2c-1.1,0.1-2-0.7-2.2-1.6c-0.2-1.5,1-1.5,0.5-2.7c-0.4,0.6-1.3,0.4-1.8,0.3
			c-0.7-0.1-1.3,0.6-1.3,1.7c-0.7-0.9-0.4-2.1,0.3-2.7c1.2-1,1.8,0.1,2.5-0.9c-0.7-0.1-0.9-0.9-1.1-1.4c-0.3-0.7-1.2-0.9-2.1-0.3
			c0.4-1,1.6-1.4,2.5-1.1C17.6,5.9,17,7,18.3,7.1c-0.3-0.7,0.3-1.3,0.6-1.7c0.5-0.6,0.1-1.5-0.8-2c1.1-0.1,2,0.7,2.2,1.6
			c0.2,1.5-1,1.5-0.5,2.7c0.4-0.6,1.3-0.4,1.8-0.3c0.7,0.1,1.3-0.6,1.3-1.7c0.7,0.9,0.4,2.1-0.3,2.7C21.4,9.4,20.8,8.3,20,9.3
			 M55.6,19.8c4.5,0,8.5-2.8,8.5-2.8v-6.4c-0.1-0.1-0.3-0.1-0.5-0.2c0.3,0.7-0.3,1.3-0.6,1.7c-0.5,0.6-0.1,1.5,0.8,2
			c-1.1,0.1-2-0.7-2.2-1.6c-0.2-1.5,1-1.5,0.5-2.7c-0.5,0.6-1.3,0.4-1.8,0.3c-0.7-0.1-1.3,0.6-1.3,1.7c-0.7-0.9-0.4-2.1,0.3-2.7
			c1.2-1,1.8,0.1,2.5-0.9c-0.7-0.1-0.9-0.9-1.1-1.4c-0.3-0.7-1.2-0.9-2.1-0.3c0.4-1,1.6-1.4,2.5-1.1c1.4,0.5,0.8,1.6,2.1,1.7
			c-0.3-0.7,0.3-1.3,0.6-1.7c0.5-0.6,0.1-1.5-0.8-2c0.4-0.1,0.8,0.1,1.2,0.3V1.6H1.7V7C1.8,7,1.9,7.1,2.1,7.1
			C1.9,6.4,2.5,5.8,2.8,5.4c0.5-0.6,0.1-1.5-0.8-2C3,3.3,4,4.1,4.1,5.1c0.2,1.5-1,1.5-0.5,2.7c0.4-0.6,1.3-0.4,1.8-0.3
			c0.7,0.1,1.3-0.6,1.3-1.7c0.7,0.9,0.4,2.1-0.3,2.7c-1.2,1-1.8-0.1-2.5,0.9c0.7,0.1,0.9,0.9,1.1,1.4c0.3,0.7,1.2,0.9,2.1,0.3
			c-0.4,1-1.6,1.4-2.5,1.1c-1.4-0.5-0.8-1.6-2.1-1.7C2.9,11,2.3,11.6,2,12c-0.5,0.6-0.1,1.5,0.8,2c-0.4,0.1-0.8,0-1.1-0.2v3.1
			c0,0,4,2.8,8.5,2.8c8.7,0,9.8-4.1,17-4.1c3.1,0,5.7,2.3,5.7,2.3c0,0,2.6-2.3,5.7-2.3C45.8,15.6,46.9,19.8,55.6,19.8"/>
		<path class="st3" d="M10.1,35.4c1-1,2.2-1.9,2.2-1.9L11,32.4c-0.1-0.1-0.1-0.2-0.1-0.4c0-0.1,0.1-0.2,0.3-0.2l1.6,0
			c0.1-0.3,0.5-0.6,0.8-0.6c0.4,0,0.7,0.2,0.8,0.6l1.7,0c0.1,0,0.2,0.1,0.3,0.2s0,0.3-0.1,0.4l-1.3,1.1c0.1,0.1,1.1,1,2.1,1.9
			c0.2,0.2,1.8,1.4,1.1,2.7c-0.4,0.7-1,0.7-1,0.7s-0.3,1.1-1.4,1.3c-0.5,0.1-0.9-0.2-0.9-0.2s-0.2,0.4-0.7,0.7
			c-0.2,0.1-0.4,0.1-0.7,0.1c-1.1,0-1.4-0.8-1.4-0.8s-0.3,0.3-0.9,0.2c-1.1-0.2-1.4-1.3-1.4-1.3s-0.6,0-1-0.7
			C8.3,36.8,9.9,35.6,10.1,35.4 M29.2,35.4c1-1,2.2-1.9,2.2-1.9l-1.3-1.1C30,32.3,30,32.2,30,32c0-0.1,0.1-0.2,0.3-0.2l1.6,0
			c0.1-0.3,0.5-0.6,0.8-0.6s0.7,0.2,0.8,0.6l1.7,0c0.1,0,0.2,0.1,0.3,0.2c0,0.1,0,0.3-0.1,0.4l-1.3,1.1c0.1,0.1,1.1,1,2.1,1.9
			c0.2,0.2,1.9,1.4,1.1,2.7c-0.4,0.7-1,0.7-1,0.7s-0.3,1.1-1.4,1.3c-0.5,0.1-0.9-0.2-0.9-0.2s-0.2,0.4-0.7,0.7
			c-0.2,0.1-0.4,0.1-0.7,0.1c-1.1,0-1.4-0.8-1.4-0.8s-0.3,0.3-0.9,0.2c-1.1-0.2-1.4-1.3-1.4-1.3s-0.6,0-1-0.7
			C27.4,36.8,29.1,35.6,29.2,35.4 M48.4,35.4c1-1,2.2-1.9,2.2-1.9l-1.3-1.1c-0.1-0.1-0.1-0.2-0.1-0.4c0-0.1,0.1-0.2,0.3-0.2l1.6,0
			c0.1-0.3,0.5-0.6,0.8-0.6c0.4,0,0.7,0.2,0.8,0.6l1.7,0c0.1,0,0.2,0.1,0.3,0.2c0,0.1,0,0.3-0.1,0.4l-1.3,1.1c0.1,0.1,1.1,1,2.1,1.9
			c0.2,0.2,1.9,1.4,1.1,2.7c-0.4,0.7-1,0.7-1,0.7s-0.3,1.1-1.4,1.3c-0.5,0.1-0.9-0.2-0.9-0.2s-0.2,0.4-0.7,0.7
			c-0.2,0.1-0.4,0.1-0.7,0.1c-1.1,0-1.4-0.8-1.4-0.8s-0.3,0.3-0.9,0.2c-1.1-0.2-1.4-1.3-1.4-1.3s-0.6,0-1-0.7
			C46.5,36.8,48.2,35.6,48.4,35.4 M1.7,26.5c0,1.6,0.1,3.4,0.1,5.7c0.4,4.6,1.2,8.7,2.4,12.6c2,0.8,4.3,1.3,6.4,1.3
			c2.7,0,5.5-0.7,8.1-2.1c5.3-2.8,9.1-2.8,13.9,0l0.2,0.1h0L33,44c4.9-2.8,8.6-2.8,13.9,0c2.6,1.4,5.3,2.1,8.1,2.1
			c2.2,0,4.5-0.5,6.5-1.4c1.1-3.8,2-8,2.3-12.5c0.1-2.3,0.1-4.1,0.1-5.7c-5.4,2.7-10.7,2.9-16.5,0.8c-5.5-2-10.1-2.5-14.8,1.5h0
			c-4.7-4-9.4-3.5-14.8-1.5C12.2,29.4,7,29.2,1.7,26.5"/>
	</g>
</g>
</svg>
