<svg enable-background="new 0 0 65.7 81.1" viewBox="0 0 65.7 81.1" xmlns="http://www.w3.org/2000/svg"><path d="m0 0v16.9c0 5.6 0 8.6.2 15.3 2.4 28.7 21.3 42.9 32.7 48.9 11.4-6 30.2-20.3 32.7-48.9.2-6.8.2-9.8.2-15.3v-16.9z" fill="#fff"/><path d="m63.9 32.2c.2-6.5.2-9.4.2-14.8v-15.8h-31.3-31.2v15.7c0 5.4 0 8.3.2 14.8 2.3 27.3 20.1 41 31 46.9 11-5.9 28.8-19.6 31.1-46.8" fill="#f3e192"/><path d="m22.4 58.9c-.7-.1-.9-.9-1.1-1.4-.3-.7-1.2-.9-2.1-.3.4-1 1.6-1.4 2.5-1.1 1.4.5.8 1.6 2.1 1.7-.3-.7.3-1.3.6-1.7.5-.6.1-1.5-.8-2 1.1-.1 2 .7 2.2 1.6.2 1.5-1 1.5-.5 2.7.5-.6 1.3-.4 1.8-.3.7.1 1.3-.6 1.3-1.7.7.9.4 2.1-.3 2.7-1.2 1-1.8-.1-2.5.9.7.1.9.9 1.1 1.4.3.7 1.2.9 2.1.3-.4 1-1.6 1.4-2.5 1.1-1.4-.5-.8-1.6-2.1-1.7.3.7-.3 1.3-.6 1.7-.5.6-.1 1.5.8 2-1.1.1-2-.7-2.2-1.6-.2-1.5 1-1.5.5-2.7-.4.6-1.3.4-1.8.3-.7-.1-1.3.6-1.3 1.7-.7-.9-.4-2.1.3-2.7 1.2-1 1.8.1 2.5-.9m8.9 10.7c-.7-.1-.9-.9-1.1-1.4-.3-.7-1.2-.9-2.1-.3.4-1 1.6-1.4 2.5-1.1 1.4.5.8 1.6 2.1 1.7-.3-.7.3-1.3.6-1.7.5-.6.1-1.5-.8-2 1.1-.1 2 .7 2.2 1.6.2 1.5-1 1.5-.5 2.7.5-.6 1.3-.4 1.8-.3.7.1 1.3-.6 1.3-1.7.7.9.4 2.1-.3 2.7-1.2 1-1.8-.1-2.5.9.7.1.9.9 1.1 1.4.3.7 1.2.9 2.1.3-.4 1-1.6 1.4-2.5 1.1-1.5-.5-.9-1.5-2.2-1.7.3.7-.3 1.3-.6 1.7-.5.6-.1 1.5.8 2-1.1.1-2-.7-2.2-1.6-.2-1.5 1-1.5.5-2.7-.5.6-1.3.4-1.8.3-.7-.1-1.3.6-1.3 1.7-.7-.9-.4-2.1.3-2.7 1.2-.9 1.8.1 2.6-.9m5.8-7.1c-.7-.9-.4-2.1.3-2.7 1.2-1 1.8.1 2.5-.9-.7-.1-.9-.9-1.1-1.4-.3-.7-1.2-.9-2.1-.3.4-1 1.6-1.4 2.5-1.1 1.4.5.8 1.6 2.1 1.7-.3-.7.3-1.3.6-1.7.5-.6.1-1.5-.8-2 1.1-.1 2 .7 2.2 1.6.2 1.5-1 1.5-.5 2.7.4-.6 1.3-.4 1.8-.3.7.1 1.3-.6 1.3-1.7.7.9.4 2.1-.3 2.7-1.2 1-1.8-.1-2.5.9.7.1.9.9 1.1 1.4.3.7 1.2.9 2.1.3-.4 1-1.6 1.4-2.5 1.1-1.4-.5-.8-1.6-2.1-1.7.3.7-.3 1.3-.6 1.7-.5.6-.1 1.5.8 2-1.1.1-2-.7-2.2-1.6-.2-1.5 1-1.5.5-2.7-.4.6-1.3.4-1.8.3-.7-.1-1.3.6-1.3 1.7m-28.8-7.5c6.8 12.6 17.2 20 24.5 24 3-1.6 6.4-3.7 9.9-6.5 5.2-4.2 10.6-9.9 14.7-17.5-3.2.4-7.3-.1-10.5-1.5-6.4-2.7-10.5-2.6-14.1.2-3.6-2.8-7.7-2.9-14.1-.2-3.2 1.3-7.2 1.8-10.4 1.5" fill="#0753a2"/><path d="m49.5 9.3c.7.1.9.9 1.1 1.4.3.7 1.2.9 2.1.3-.4 1-1.6 1.4-2.5 1.1-1.4-.5-.8-1.6-2.1-1.7.3.7-.3 1.3-.6 1.7-.5.6-.1 1.5.8 2-1.1.1-2-.7-2.2-1.6-.2-1.5 1-1.5.5-2.7-.5.6-1.3.4-1.8.3-.7-.1-1.3.6-1.3 1.7-.7-.9-.4-2.1.3-2.7 1.2-1 1.8.1 2.5-.9-.7-.1-.9-.9-1.1-1.4-.2-.8-1.1-.9-2.1-.3.4-1 1.6-1.4 2.5-1.1 1.4.5.8 1.6 2.1 1.7-.3-.7.3-1.3.6-1.7.5-.6.1-1.5-.8-2 1.1-.1 2 .7 2.2 1.6.2 1.5-1 1.5-.5 2.7.5-.6 1.3-.4 1.8-.3.7.1 1.3-.6 1.3-1.7.7.9.4 2.1-.3 2.7-1.2 1-1.8-.1-2.5.9m-15 0c.7.1.9.9 1.1 1.4.3.7 1.2.9 2.1.3-.4 1-1.6 1.4-2.5 1.1-1.4-.5-.8-1.6-2.1-1.7.3.7-.3 1.3-.6 1.7-.5.6-.1 1.5.8 2-1.1.1-2-.7-2.2-1.6-.2-1.5 1-1.5.5-2.7-.4.6-1.3.4-1.8.3-.7-.1-1.3.6-1.3 1.7-.7-.9-.4-2.1.3-2.7 1.2-1 1.8.1 2.5-.9-.7-.1-.9-.9-1.1-1.4-.2-.8-1.1-.9-2.1-.3.4-1 1.6-1.4 2.5-1.1 1.4.5.8 1.6 2.1 1.7-.3-.7.3-1.3.6-1.7.5-.6.1-1.5-.8-2 1.1-.1 2 .7 2.2 1.6.2 1.5-1 1.5-.5 2.7.4-.6 1.3-.4 1.8-.3.7.1 1.3-.6 1.3-1.7.7.9.4 2.1-.3 2.7-1.2 1-1.8-.1-2.5.9m-14.5 0c.7.1.9.9 1.1 1.4.3.7 1.2.9 2.1.3-.4 1-1.6 1.4-2.5 1.1-1.4-.5-.8-1.6-2.1-1.7.3.7-.3 1.3-.6 1.7-.5.6-.1 1.5.8 2-1.1.1-2-.7-2.2-1.6-.2-1.5 1-1.5.5-2.7-.4.6-1.3.4-1.8.3-.7-.1-1.3.6-1.3 1.7-.7-.9-.4-2.1.3-2.7 1.2-1 1.8.1 2.5-.9-.7-.1-.9-.9-1.1-1.4-.3-.7-1.2-.9-2.1-.3.4-1 1.6-1.4 2.5-1.1 1.5.5.9 1.6 2.2 1.7-.3-.7.3-1.3.6-1.7.5-.6.1-1.5-.8-2 1.1-.1 2 .7 2.2 1.6.2 1.5-1 1.5-.5 2.7.4-.6 1.3-.4 1.8-.3.7.1 1.3-.6 1.3-1.7.7.9.4 2.1-.3 2.7-1.2 1-1.8-.1-2.6.9m35.6 10.5c4.5 0 8.5-2.8 8.5-2.8v-6.4c-.1-.1-.3-.1-.5-.2.3.7-.3 1.3-.6 1.7-.5.6-.1 1.5.8 2-1.1.1-2-.7-2.2-1.6-.2-1.5 1-1.5.5-2.7-.5.6-1.3.4-1.8.3-.7-.1-1.3.6-1.3 1.7-.7-.9-.4-2.1.3-2.7 1.2-1 1.8.1 2.5-.9-.7-.1-.9-.9-1.1-1.4-.3-.7-1.2-.9-2.1-.3.4-1 1.6-1.4 2.5-1.1 1.4.5.8 1.6 2.1 1.7-.3-.7.3-1.3.6-1.7.5-.6.1-1.5-.8-2 .4-.1.8.1 1.2.3v-2.1h-62.5v5.4c.1 0 .2.1.4.1-.2-.7.4-1.3.7-1.7.5-.6.1-1.5-.8-2 1-.1 2 .7 2.1 1.7.2 1.5-1 1.5-.5 2.7.4-.6 1.3-.4 1.8-.3.7.1 1.3-.6 1.3-1.7.7.9.4 2.1-.3 2.7-1.2 1-1.8-.1-2.5.9.7.1.9.9 1.1 1.4.3.7 1.2.9 2.1.3-.4 1-1.6 1.4-2.5 1.1-1.4-.5-.8-1.6-2.1-1.7.4.5-.2 1.1-.5 1.5-.5.6-.1 1.5.8 2-.4.1-.8 0-1.1-.2v3.1s4 2.8 8.5 2.8c8.7 0 9.8-4.1 17-4.1 3.1 0 5.7 2.3 5.7 2.3s2.6-2.3 5.7-2.3c7.2 0 8.3 4.2 17 4.2" fill="#0753a2"/><path d="m10.1 35.4c1-1 2.2-1.9 2.2-1.9l-1.3-1.1c-.1-.1-.1-.2-.1-.4 0-.1.1-.2.3-.2h1.6c.1-.3.5-.6.8-.6.4 0 .7.2.8.6h1.7c.1 0 .2.1.3.2s0 .3-.1.4l-1.3 1.1c.1.1 1.1 1 2.1 1.9.2.2 1.8 1.4 1.1 2.7-.4.7-1 .7-1 .7s-.3 1.1-1.4 1.3c-.5.1-.9-.2-.9-.2s-.2.4-.7.7c-.2.1-.4.1-.7.1-1.1 0-1.4-.8-1.4-.8s-.3.3-.9.2c-1.1-.2-1.4-1.3-1.4-1.3s-.6 0-1-.7c-.5-1.3 1.1-2.5 1.3-2.7m19.1 0c1-1 2.2-1.9 2.2-1.9l-1.3-1.1c-.1-.1-.1-.2-.1-.4 0-.1.1-.2.3-.2h1.6c.1-.3.5-.6.8-.6s.7.2.8.6h1.7c.1 0 .2.1.3.2 0 .1 0 .3-.1.4l-1.3 1.1c.1.1 1.1 1 2.1 1.9.2.2 1.9 1.4 1.1 2.7-.4.7-1 .7-1 .7s-.3 1.1-1.4 1.3c-.5.1-.9-.2-.9-.2s-.2.4-.7.7c-.2.1-.4.1-.7.1-1.1 0-1.4-.8-1.4-.8s-.3.3-.9.2c-1.1-.2-1.4-1.3-1.4-1.3s-.6 0-1-.7c-.5-1.3 1.2-2.5 1.3-2.7m19.2 0c1-1 2.2-1.9 2.2-1.9l-1.3-1.1c-.1-.1-.1-.2-.1-.4 0-.1.1-.2.3-.2h1.6c.1-.3.5-.6.8-.6.4 0 .7.2.8.6h1.7c.1 0 .2.1.3.2 0 .1 0 .3-.1.4l-1.3 1.1c.1.1 1.1 1 2.1 1.9.2.2 1.9 1.4 1.1 2.7-.4.7-1 .7-1 .7s-.3 1.1-1.4 1.3c-.5.1-.9-.2-.9-.2s-.2.4-.7.7c-.2.1-.4.1-.7.1-1.1 0-1.4-.8-1.4-.8s-.3.3-.9.2c-1.1-.2-1.4-1.3-1.4-1.3s-.6 0-1-.7c-.6-1.3 1.1-2.5 1.3-2.7m-46.7-8.9c0 1.6.1 3.4.1 5.7.4 4.6 1.2 8.7 2.4 12.6 2 .8 4.3 1.3 6.4 1.3 2.7 0 5.5-.7 8.1-2.1 5.3-2.8 9.1-2.8 13.9 0l.2.1.2-.1c4.9-2.8 8.6-2.8 13.9 0 2.6 1.4 5.3 2.1 8.1 2.1 2.2 0 4.5-.5 6.5-1.4 1.1-3.8 2-8 2.3-12.5.1-2.3.1-4.1.1-5.7-5.4 2.7-10.7 2.9-16.5.8-5.5-2-10.1-2.5-14.8 1.5-4.7-4-9.4-3.5-14.8-1.5-5.6 2.1-10.8 1.9-16.1-.8" fill="#d62916"/></svg>