<?xml version="1.0" encoding="utf-8"?>
<!-- Generator: Adobe Illustrator 20.1.0, SVG Export Plug-In . SVG Version: 6.00 Build 0)  -->
<svg version="1.1" id="Layer_1" xmlns="http://www.w3.org/2000/svg" xmlns:xlink="http://www.w3.org/1999/xlink" x="0px" y="0px"
	 viewBox="0 0 65.7 80.8" style="enable-background:new 0 0 65.7 80.8;" xml:space="preserve">
<style type="text/css">
	.st0{fill:#FFFFFF;}
</style>
<g>
	<g>
		<path class="st0" d="M37.1,62.5c0-1.1,0.6-1.8,1.3-1.7c0.5,0.1,1.3,0.3,1.8-0.3c0.5,1.2-0.7,1.2-0.5,2.7c0.1,0.9,1.1,1.8,2.2,1.6
			c-1-0.5-1.3-1.4-0.8-2c0.3-0.4,0.9-1,0.6-1.7c1.3,0.2,0.7,1.2,2.1,1.7c0.9,0.3,2.1-0.1,2.5-1.1c-0.9,0.6-1.9,0.4-2.1-0.3
			C44,61,43.7,60.2,43,60.1c0.8-1,1.4,0,2.5-0.9c0.7-0.6,1-1.9,0.3-2.7c0,1.1-0.6,1.8-1.3,1.7c-0.5-0.1-1.3-0.3-1.8,0.3
			c-0.5-1.2,0.7-1.2,0.5-2.7c-0.2-0.9-1.1-1.8-2.2-1.6c1,0.5,1.3,1.4,0.8,2c-0.3,0.4-0.9,1-0.6,1.7c-1.3-0.1-0.7-1.2-2.1-1.7
			c-0.9-0.3-2.1,0.1-2.5,1.1c0.9-0.6,1.9-0.4,2.1,0.3c0.2,0.5,0.4,1.3,1.1,1.4c-0.8,1-1.4,0-2.5,0.9C36.7,60.4,36.5,61.7,37.1,62.5
			 M31.3,69.6c-0.8,1-1.4,0-2.5,0.9c-0.7,0.6-1,1.9-0.3,2.7c0-1.1,0.6-1.8,1.3-1.7c0.5,0.1,1.3,0.3,1.8-0.3c0.5,1.2-0.7,1.2-0.5,2.7
			c0.1,0.9,1.1,1.8,2.2,1.6c-1-0.5-1.3-1.4-0.8-2c0.3-0.4,0.9-1,0.6-1.7c1.3,0.1,0.7,1.2,2.1,1.7c0.9,0.3,2.1-0.1,2.5-1.1
			c-0.9,0.6-1.9,0.4-2.1-0.3c-0.2-0.5-0.4-1.3-1.1-1.4c0.8-1,1.4,0,2.5-0.9c0.7-0.6,1-1.9,0.3-2.7c0,1.1-0.6,1.8-1.3,1.7
			c-0.5-0.1-1.3-0.3-1.8,0.3c-0.5-1.2,0.7-1.2,0.5-2.7c-0.1-0.9-1.1-1.8-2.2-1.6c1,0.5,1.3,1.4,0.8,2c-0.3,0.4-0.9,1-0.6,1.7
			c-1.3-0.1-0.7-1.2-2.1-1.7c-0.9-0.3-2.1,0.1-2.5,1.1c0.9-0.6,1.9-0.4,2.1,0.3C30.3,68.7,30.6,69.5,31.3,69.6 M22.4,58.9
			c-0.8,1-1.4,0-2.5,0.9c-0.7,0.6-1,1.9-0.3,2.7c0-1.1,0.6-1.8,1.3-1.7c0.5,0.1,1.3,0.3,1.8-0.3c0.5,1.2-0.7,1.2-0.5,2.7
			c0.1,0.9,1.1,1.8,2.2,1.6c-1-0.5-1.3-1.4-0.8-2c0.3-0.4,0.9-1,0.6-1.7c1.3,0.1,0.7,1.2,2.1,1.7c0.9,0.3,2.1-0.1,2.5-1.1
			c-0.9,0.6-1.9,0.4-2.1-0.3c-0.2-0.5-0.4-1.3-1.1-1.4c0.8-1,1.4,0,2.5-0.9c0.7-0.6,1-1.9,0.3-2.7c0,1.1-0.6,1.8-1.3,1.7
			c-0.5-0.1-1.3-0.3-1.8,0.3c-0.5-1.2,0.7-1.2,0.5-2.7c-0.1-0.9-1.1-1.8-2.2-1.6c1,0.5,1.3,1.4,0.8,2c-0.3,0.4-0.9,1-0.6,1.7
			c-1.3-0.1-0.7-1.2-2.1-1.7c-0.9-0.3-2.1,0.1-2.5,1.1c0.9-0.6,1.9-0.4,2.1,0.3C21.5,58,21.7,58.8,22.4,58.9 M47.2,38.2
			c0.4,0.7,1,0.7,1,0.7s0.3,1.1,1.4,1.3c0.5,0.1,0.9-0.2,0.9-0.2s0.3,0.8,1.4,0.8c0.3,0,0.5-0.1,0.7-0.1c0.6-0.2,0.7-0.7,0.7-0.7
			s0.3,0.3,0.9,0.2c1.1-0.2,1.4-1.3,1.4-1.3s0.6,0,1-0.7c0.8-1.3-0.9-2.6-1.1-2.7c-1-0.9-2.1-1.9-2.1-1.9l1.3-1.1
			c0.1-0.1,0.1-0.2,0.1-0.4c0-0.1-0.1-0.2-0.3-0.2l-1.7,0c-0.1-0.3-0.5-0.6-0.8-0.6s-0.7,0.2-0.8,0.6l-1.6,0c-0.1,0-0.2,0.1-0.3,0.2
			c0,0.1,0,0.3,0.1,0.4l1.3,1.1c0,0-1.1,1-2.2,1.9C48.2,35.6,46.5,36.8,47.2,38.2 M28.1,38.2c0.4,0.7,1,0.7,1,0.7s0.3,1.1,1.4,1.3
			c0.5,0.1,0.9-0.2,0.9-0.2s0.3,0.8,1.4,0.8c0.3,0,0.5-0.1,0.7-0.1c0.5-0.2,0.7-0.7,0.7-0.7s0.3,0.3,0.9,0.2
			c1.1-0.2,1.4-1.3,1.4-1.3s0.6,0,1-0.7c0.8-1.3-0.9-2.6-1.1-2.7c-1-0.9-2.1-1.9-2.1-1.9l1.3-1.1c0.1-0.1,0.1-0.2,0.1-0.4
			c0-0.1-0.1-0.2-0.3-0.2l-1.7,0c-0.1-0.3-0.5-0.6-0.8-0.6c-0.4,0-0.7,0.2-0.8,0.6l-1.6,0c-0.1,0-0.2,0.1-0.3,0.2
			c0,0.1,0,0.3,0.1,0.4l1.3,1.1c0,0-1.1,1-2.2,1.9C29,35.6,27.3,36.8,28.1,38.2 M12.2,33.5c0,0-1.1,1-2.2,1.9
			c-0.2,0.2-1.9,1.4-1.1,2.7c0.4,0.7,1,0.7,1,0.7s0.3,1.1,1.4,1.3c0.5,0.1,0.9-0.2,0.9-0.2s0.3,0.8,1.4,0.8c0.3,0,0.5-0.1,0.7-0.1
			c0.5-0.2,0.7-0.7,0.7-0.7s0.3,0.3,0.9,0.2c1.1-0.2,1.4-1.3,1.4-1.3s0.6,0,1-0.7c0.8-1.3-0.9-2.6-1.1-2.7c-1-0.9-2.1-1.9-2.1-1.9
			l1.3-1.1c0.1-0.1,0.1-0.2,0.1-0.4c0-0.1-0.1-0.2-0.3-0.2l-1.7,0c-0.1-0.3-0.5-0.6-0.8-0.6c-0.4,0-0.7,0.2-0.8,0.6l-1.6,0
			c-0.1,0-0.2,0.1-0.3,0.2c0,0.1,0,0.3,0.1,0.4L12.2,33.5z M20,9.3c0.8-1,1.4,0,2.5-0.9c0.7-0.6,1-1.9,0.3-2.7
			c0,1.1-0.6,1.8-1.3,1.7c-0.5-0.1-1.3-0.3-1.8,0.3c-0.5-1.2,0.7-1.2,0.5-2.7c-0.1-0.9-1.1-1.8-2.2-1.6c1,0.5,1.3,1.4,0.8,2
			c-0.3,0.4-0.9,1-0.6,1.7C17,7,17.6,5.9,16.2,5.4c-0.9-0.3-2.1,0.1-2.5,1.1c0.9-0.6,1.9-0.4,2.1,0.3C16,7.2,16.2,8,17,8.1
			c-0.8,1-1.4,0-2.5,0.9c-0.7,0.6-1,1.9-0.3,2.7c0-1.1,0.6-1.8,1.3-1.7c0.5,0.1,1.3,0.3,1.8-0.3c0.5,1.2-0.7,1.2-0.5,2.7
			c0.2,0.9,1.1,1.8,2.2,1.6c-1-0.5-1.3-1.4-0.8-2c0.3-0.4,0.9-1,0.6-1.7c1.3,0.2,0.7,1.2,2.1,1.7c0.9,0.3,2.1-0.1,2.5-1.1
			c-0.9,0.6-1.9,0.4-2.1-0.3C20.9,10.2,20.7,9.4,20,9.3 M34.4,9.3c0.8-1,1.4,0,2.5-0.9c0.7-0.6,1-1.9,0.3-2.7c0,1.1-0.6,1.8-1.3,1.7
			c-0.5-0.1-1.3-0.3-1.8,0.3c-0.5-1.2,0.7-1.2,0.5-2.7c-0.2-0.9-1.1-1.8-2.2-1.6c1,0.5,1.3,1.4,0.8,2c-0.3,0.4-0.9,1-0.6,1.7
			C31.4,7,32,5.9,30.6,5.4c-0.9-0.3-2.1,0.1-2.5,1.1C29,5.9,30,6,30.2,6.7c0.2,0.5,0.4,1.3,1.1,1.4c-0.8,1-1.4,0-2.5,0.9
			c-0.7,0.6-1,1.9-0.3,2.7c0-1.1,0.6-1.8,1.3-1.7c0.5,0.1,1.3,0.3,1.8-0.3c0.5,1.2-0.7,1.2-0.5,2.7c0.2,0.9,1.1,1.8,2.2,1.6
			c-1-0.5-1.3-1.4-0.8-2c0.3-0.4,0.9-1,0.6-1.7c1.3,0.2,0.7,1.2,2.1,1.7c0.9,0.3,2.1-0.1,2.5-1.1c-0.9,0.6-1.9,0.4-2.1-0.3
			C35.4,10.2,35.2,9.4,34.4,9.3 M49.4,9.3c0.8-1,1.4,0,2.5-0.9c0.7-0.6,1-1.9,0.3-2.7c0,1.1-0.6,1.8-1.3,1.7
			c-0.5-0.1-1.3-0.3-1.8,0.3c-0.5-1.2,0.7-1.2,0.5-2.7c-0.1-0.9-1.1-1.8-2.2-1.6c1,0.5,1.3,1.4,0.8,2c-0.3,0.4-0.9,1-0.6,1.7
			C46.4,7,47,5.9,45.6,5.4c-0.9-0.3-2.1,0.1-2.5,1.1C44.1,5.9,45,6,45.3,6.7c0.2,0.5,0.4,1.3,1.1,1.4c-0.8,1-1.4,0-2.5,0.9
			c-0.7,0.6-1,1.9-0.3,2.7c0-1.1,0.6-1.8,1.3-1.7c0.5,0.1,1.3,0.3,1.8-0.3c0.5,1.2-0.7,1.2-0.5,2.7c0.1,0.9,1.1,1.8,2.2,1.6
			c-1-0.5-1.3-1.4-0.8-2c0.3-0.4,0.9-1,0.6-1.7c1.3,0.2,0.7,1.2,2.1,1.7c0.9,0.3,2.1-0.1,2.5-1.1c-0.9,0.6-1.9,0.4-2.1-0.3
			C50.4,10.2,50.2,9.4,49.4,9.3 M64.1,16.9c0,0-4,2.8-8.5,2.8c-8.7,0-9.8-4.1-17-4.1c-3.1,0-5.7,2.3-5.7,2.3c0,0-2.6-2.3-5.7-2.3
			c-7.2,0-8.3,4.1-17,4.1c-4.5,0-8.5-2.8-8.5-2.8v-3.1C1.9,14,2.3,14.1,2.7,14c-1-0.5-1.3-1.4-0.8-2c0.3-0.4,0.9-1,0.6-1.7
			c1.3,0.2,0.7,1.2,2.1,1.7C5.5,12.4,6.7,12,7.1,11c-0.9,0.6-1.9,0.4-2.1-0.3c-0.2-0.5-0.4-1.3-1.1-1.4c0.8-1,1.4,0,2.5-0.9
			c0.7-0.6,1-1.9,0.3-2.7c0,1.1-0.6,1.8-1.3,1.7C4.9,7.4,4.1,7.1,3.6,7.7C3.1,6.6,4.3,6.6,4.1,5.1C3.9,4.2,3,3.3,1.9,3.4
			c1,0.5,1.3,1.4,0.8,2c-0.3,0.4-0.9,1-0.6,1.7C1.9,7.1,1.7,7,1.6,7V1.6h62.5v2.1c-0.4-0.2-0.8-0.3-1.2-0.3c1,0.5,1.3,1.4,0.8,2
			c-0.3,0.4-0.9,1-0.6,1.7C61.8,7,62.4,5.9,61,5.4c-0.9-0.3-2.1,0.1-2.5,1.1c0.9-0.6,1.9-0.4,2.1,0.3c0.2,0.5,0.4,1.3,1.1,1.4
			c-0.8,1-1.4,0-2.5,0.9c-0.7,0.6-1,1.9-0.3,2.7c0-1.1,0.6-1.8,1.3-1.7c0.5,0.1,1.3,0.3,1.8-0.3c0.5,1.2-0.7,1.2-0.5,2.7
			c0.1,0.9,1.1,1.8,2.2,1.6c-1-0.5-1.3-1.4-0.8-2c0.3-0.4,0.9-1,0.6-1.7c0.2,0,0.4,0.1,0.5,0.2V16.9z M32.5,44
			c-4.9-2.8-8.7-2.8-13.9,0c-2.6,1.4-5.4,2.1-8.1,2.1c-2.1,0-4.4-0.5-6.4-1.3c-1.2-3.8-2-8-2.4-12.6c-0.1-2.2-0.1-4-0.1-5.7
			c5.4,2.7,10.6,2.9,16.3,0.7c5.5-2,10.1-2.5,14.8,1.5h0c4.8-4,9.4-3.5,14.8-1.5c5.8,2.1,11,1.9,16.5-0.8c0,1.6-0.1,3.5-0.1,5.7
			c-0.4,4.5-1.2,8.7-2.3,12.5c-2.1,0.9-4.3,1.4-6.5,1.4c-2.7,0-5.5-0.7-8.1-2.1c-5.3-2.8-9.1-2.8-13.9,0l-0.2,0.1 M8.3,55
			c3.2,0.3,7.2-0.2,10.3-1.5c6.4-2.7,10.6-2.6,14.1,0.2c3.6-2.8,7.7-2.9,14.1-0.2c3.2,1.3,7.3,1.9,10.5,1.5
			c-4.1,7.6-9.4,13.3-14.7,17.5c-3.5,2.8-6.9,4.9-9.9,6.5C25.5,75.1,15.1,67.6,8.3,55 M65.7,17.3V0H0v17.3c0,5.6,0,8.4,0.2,15
			c2.4,28.4,20.9,42.4,32.7,48.5c11.7-6.1,30.3-20.2,32.7-48.5C65.7,25.8,65.7,23,65.7,17.3"/>
	</g>
</g>
</svg>
