<?xml version="1.0" encoding="utf-8"?>
<!-- Generator: Adobe Illustrator 20.1.0, SVG Export Plug-In . SVG Version: 6.00 Build 0)  -->
<svg version="1.1" id="Layer_1" xmlns="http://www.w3.org/2000/svg" xmlns:xlink="http://www.w3.org/1999/xlink" x="0px" y="0px"
	 viewBox="0 0 453.5 89.7" style="enable-background:new 0 0 453.5 89.7;" xml:space="preserve">
<style type="text/css">
	.st0{fill:#FFFFFF;}
	.st1{fill:#F3E192;}
	.st2{fill:#0753A2;}
	.st3{fill:#D62916;}
</style>
<g>
	<g>
		<path d="M450.6,85.3c-1.2-0.3-1.8-0.7-1.9-1c-0.4-1.6-0.6-3.6-0.6-6.1V52.6c0-2.6,0.2-4.6,0.5-6c0.1-0.3,0.7-0.7,2-1
			c1.2-0.4,2-0.5,2.5-0.5c0.2,0,0.3-0.4,0.3-1.2c0-0.3-0.1-0.7-0.2-1.1c-5.4,0.3-8.4,0.4-8.7,0.4c-1.2,0-3-0.1-5.3-0.2
			c-2.3-0.1-3.6-0.2-3.8-0.2c-0.1,0.1-0.1,0.5-0.1,1.2c0,0.7,0.1,1,0.3,1c0.5,0,1.4,0.2,2.5,0.5c1.1,0.3,1.7,0.7,1.9,1.1
			c0.4,1.1,0.5,3,0.5,5.7v10.1c0,0.1,0,0.2-0.1,0.3c-4.1,0.1-7.1,0.1-9,0.1c-1.7,0-4.8,0-9.3-0.1l-0.1-0.2v-9.9c0-2.6,0.2-4.6,0.5-6
			c0.1-0.3,0.7-0.7,2-1c1.2-0.4,2-0.5,2.5-0.5c0.2,0,0.3-0.4,0.3-1.2c0-0.3-0.1-0.7-0.2-1.1c-5.4,0.3-8.4,0.4-8.7,0.4
			c-1.2,0-3-0.1-5.3-0.2c-2.3-0.1-3.6-0.2-3.8-0.2c-0.1,0.1-0.1,0.5-0.1,1.2c0,0.7,0.1,1,0.3,1c0.5,0,1.4,0.2,2.5,0.5
			c1.1,0.3,1.7,0.7,1.9,1.1c0.4,1.1,0.5,3,0.5,5.7v26.3c0,2.4-0.2,4.3-0.5,5.7c-0.1,0.4-0.8,0.7-1.9,1c-1.2,0.3-2,0.5-2.6,0.5
			c-0.2,0-0.3,0.4-0.3,1.3c0,0.5,0.1,0.8,0.3,1c0.7,0,1.7-0.1,2.9-0.2c1.2-0.1,2.3-0.1,3.3-0.2c1,0,2-0.1,2.9-0.1
			c0.3,0,3.2,0.1,8.6,0.4c0.1-0.3,0.1-0.6,0.1-1c0-0.9-0.1-1.3-0.3-1.3c-0.4,0-1.2-0.2-2.3-0.5c-1.2-0.3-1.8-0.7-1.9-1
			c-0.4-1.6-0.6-3.6-0.6-6.1V66.8c0-0.1,3.1-0.2,9.4-0.3c1.7,0,4.7,0,9,0.1l0.1,0.3v11.7c0,2.4-0.2,4.3-0.5,5.7
			c-0.1,0.4-0.8,0.7-1.9,1c-1.2,0.3-2,0.5-2.6,0.5c-0.2,0-0.3,0.4-0.3,1.3c0,0.5,0.1,0.8,0.3,1c0.7,0,1.7-0.1,2.9-0.2
			c1.2-0.1,2.3-0.1,3.3-0.2c1,0,2-0.1,2.9-0.1c0.3,0,3.2,0.1,8.6,0.4c0.1-0.3,0.1-0.6,0.1-1c0-0.9-0.1-1.3-0.3-1.3
			C452.5,85.8,451.7,85.6,450.6,85.3 M370,42.8c-1.1,0-2.7-0.2-4.7-0.7L364,52.4c0.3,0.4,0.9,0.5,1.8,0.5c0.4,0,0.6-0.1,0.7-0.4
			c0.7-2.5,1.5-4.1,2.6-5c1-0.9,2.7-1.3,4.9-1.3c3.9,0,6.1,0.4,6.5,1.2c0.4,0.6,0.6,2.8,0.6,6.6v24.7c0,2.5-0.2,4.4-0.5,5.7
			c-0.1,0.4-0.8,0.7-1.9,1c-1.2,0.3-2,0.5-2.6,0.5c-0.2,0-0.3,0.4-0.3,1.2c0,0.5,0.1,0.9,0.3,1.1c0.5,0,1.8-0.1,4-0.3
			c2.2-0.1,3.8-0.2,5.1-0.2c0.9,0,1.8,0,2.8,0.1c1,0,2,0.1,3.2,0.2c1.2,0.1,2,0.2,2.6,0.2c0.1-0.3,0.1-0.6,0.1-1.1
			c0-0.8-0.1-1.2-0.3-1.2c-0.4,0-1.2-0.2-2.4-0.5c-1.2-0.3-1.8-0.7-1.8-1c-0.4-1.5-0.6-3.5-0.6-5.9V53.8c0-3,0.2-5.1,0.6-6.4
			c0.2-0.8,2.4-1.2,6.6-1.2c2.2,0,3.9,0.4,4.9,1.3c1,0.9,1.9,2.6,2.5,5.1c0.1,0.2,0.3,0.3,0.7,0.3c0.9,0,1.5-0.2,1.8-0.5l-1.3-10.4
			c-2,0.5-3.6,0.7-4.7,0.7c-1.9,0-4.3,0.1-7.4,0.2c-3.1,0.1-5.6,0.2-7.6,0.2s-4.5-0.1-7.5-0.2C374.3,42.9,371.9,42.8,370,42.8
			 M314.7,42.8c-0.1,0.1-0.2,0.5-0.2,1.2s0.1,1,0.3,1c0.5,0,1.4,0.2,2.5,0.5c1.1,0.3,1.7,0.7,1.9,1.1c0.4,0.9,0.5,2.8,0.5,5.7v14.8
			c0,7.3,1.6,12.6,4.7,15.9c3.1,3.3,7.4,4.9,12.9,4.9c2.6,0,4.9-0.3,6.9-1c2-0.7,3.8-1.8,5.4-3.2c1.6-1.5,2.8-3.5,3.7-6.1
			c0.9-2.6,1.3-5.6,1.3-9.2v-16c0-2.6,0.2-4.5,0.7-5.7c0.4-0.6,1.3-1.1,2.6-1.4c1.3-0.3,2.3-0.5,2.9-0.5c0.2,0,0.3-0.4,0.3-1.1
			c0-0.4,0-0.8-0.1-1.1c-0.5,0-1.6,0.1-3.5,0.2c-1.9,0.2-3.4,0.2-4.5,0.2c-0.8,0-3.7-0.2-8.6-0.5c-0.1,0.2-0.2,0.6-0.2,1.2
			c0,0.6,0.1,1,0.3,1c0.6,0,1.6,0.2,2.9,0.6c1.3,0.4,2.1,0.8,2.4,1.2c0.5,0.9,0.7,2.7,0.7,5.4v16.6c0,5.3-1.1,9.1-3.2,11.4
			c-2.1,2.3-4.9,3.4-8.4,3.4c-3.6,0-6.4-1.4-8.4-4.2c-2-2.8-3-6.5-3-11.2V52.6c0-2.6,0.2-4.6,0.5-6c0-0.4,0.7-0.7,1.9-1.1
			c1.2-0.3,2-0.5,2.5-0.5c0.2,0,0.3-0.4,0.3-1.2c0-0.4,0-0.7-0.1-1.1c-5,0.3-7.9,0.4-8.7,0.4C323.5,43.2,320.5,43,314.7,42.8
			 M291,88.5c6,0,11.1-2.2,15.4-6.7c4.3-4.5,6.4-9.9,6.4-16.3c0-6.4-2.1-11.8-6.4-16.3c-4.3-4.5-9.4-6.8-15.4-6.8
			s-11.1,2.3-15.4,6.8c-4.3,4.5-6.4,10-6.4,16.3c0,6.4,2.1,11.8,6.4,16.3C279.9,86.3,285,88.5,291,88.5 M298.2,49.1
			c2.2,2.2,3.8,4.8,4.7,7.9c0.9,3.1,1.4,6.3,1.4,9.8c0,5-1.1,9.3-3.2,12.9c-2.1,3.6-5.1,5.4-9,5.4c-3.1,0-5.8-1.1-8-3.4
			c-2.2-2.2-3.8-4.9-4.7-8c-0.9-3.1-1.4-6.3-1.4-9.7c0-5,1-9.3,3.1-12.9c2.1-3.6,5.1-5.3,9-5.3C293.2,45.8,295.9,46.9,298.2,49.1
			 M215.9,78.8c-0.1,2.2-0.3,3.7-0.7,4.6c-0.2,0.7-1.1,1.3-2.7,1.8c-1.5,0.5-2.7,0.7-3.4,0.7c-0.2,0-0.3,0.4-0.3,1.2
			c0,0.5,0.1,0.9,0.3,1.1c0.5,0,1.7-0.1,3.7-0.2c2-0.1,3.6-0.2,4.9-0.2c0.3,0,3.1,0.1,8.6,0.4c0.1-0.3,0.1-0.6,0.1-1
			c0-0.8-0.1-1.2-0.3-1.2c-0.5,0-1.6-0.2-3.2-0.7c-1.6-0.5-2.5-0.9-2.7-1.4c-0.1-0.4-0.2-1.1-0.2-2.1c0.4-8.9,0.8-19.1,1.1-30.4
			l15.3,36.6c0.3,0.1,0.5,0.1,0.7,0.1c1,0,1.8-0.9,2.6-2.6l13-31.7c0.1-0.3,0.2-0.4,0.3-0.4c0.4,0,0.6,1.4,0.8,4.2l0.7,20.7V82
			c0,1-0.2,1.8-0.7,2.4c-0.3,0.4-1,0.7-1.9,1c-1,0.3-1.7,0.4-2.2,0.4c-0.2,0-0.3,0.4-0.3,1.2c0,0.5,0.1,0.8,0.3,1
			c0.7,0,1.7-0.1,2.9-0.2c1.2-0.1,2.3-0.1,3.3-0.2c1,0,2-0.1,2.9-0.1c0.1,0,2.9,0.1,8.4,0.4c0.1-0.3,0.1-0.6,0.1-1
			c0-0.8-0.1-1.2-0.3-1.2c-0.5,0-1.2-0.2-2.3-0.5c-1.1-0.3-1.7-0.7-1.9-1.1c-0.7-1.7-1-3.8-1.1-6.3c-0.5-14.7-0.8-24.1-1-28.1
			c-0.1-2,0.2-3.2,0.9-3.7c1-0.7,2.1-1.1,3.3-1.1h0.1c0.2,0,0.3-0.4,0.3-1.2c0-0.5-0.1-0.9-0.2-1.1c-3.6,0.2-6.3,0.3-8.1,0.3
			c-2.4,0-4.2-0.1-5.6-0.2l-2.5,7.9c-2.4,6.2-5.5,14.1-9.5,23.6c0,0.1-0.1,0.2-0.2,0.2s-0.2,0-0.2-0.1c-1.3-3.2-3-7.2-5.1-12.2
			c-2.1-4.9-3.9-9.1-5.3-12.5c-1.5-3.4-2.4-5.8-2.8-7c-4.2,0.3-6.4,0.4-6.7,0.4c-1.2,0-2.6-0.1-4.3-0.2c-1.7-0.1-2.8-0.2-3.5-0.2
			c-0.2,0.2-0.3,0.5-0.3,1c0,0.8,0.1,1.2,0.3,1.2c0.6,0,1.6,0.2,3,0.5c1.4,0.3,2.1,0.7,2.3,1c0.1,0.4,0.2,1,0.2,1.9
			c0,0.8-0.1,2.9-0.2,6.2 M181,66.9c0.3,0.7,0.4,1.1,0.4,1.3v10.1c0,2.7-0.2,4.7-0.5,6c-0.1,0.4-0.8,0.7-1.9,1.1
			c-1.1,0.4-2,0.5-2.5,0.5c-0.1,0-0.2,0.4-0.2,1.1c0,0.5,0.1,0.9,0.3,1.1c0.5,0,1.8-0.1,3.9-0.3c2.1-0.1,3.8-0.2,5-0.2
			c0.9,0,1.8,0,2.8,0.1c1,0,2,0.1,3.1,0.2c1.1,0.1,2,0.2,2.6,0.2c0.1-0.3,0.1-0.6,0.1-1.1c0-0.7-0.1-1.1-0.3-1.1
			c-0.4,0-1.1-0.2-2.3-0.6c-1.2-0.4-1.8-0.7-1.9-1.1c-0.4-1.4-0.5-3.4-0.5-6.1V67.6c0-0.6,1.7-3.6,5.1-9.2c3.4-5.5,5.8-9.3,7.1-11.2
			c0.5-0.7,1.4-1.2,2.6-1.6c1.2-0.4,2.1-0.6,2.8-0.6c0.2,0,0.3-0.4,0.3-1.1c0-0.4,0-0.7-0.1-1.1c-0.5,0-1.2,0.1-2.1,0.2
			c-0.9,0.1-1.7,0.1-2.6,0.2c-0.8,0-1.8,0.1-2.8,0.1c-0.9,0-3.6-0.1-8.2-0.4c-0.1,0.2-0.2,0.6-0.2,1.2c0,0.6,0.1,1,0.3,1
			c1.4,0,2.5,0.2,3.3,0.6c0.8,0.4,1.3,0.8,1.3,1.3c0,0.8-0.9,2.8-2.7,5.9c-1.8,3.1-3.7,6.1-5.7,9c-0.2,0.3-0.5,0.4-0.7,0.1
			l-7.2-13.2c-0.4-0.8-0.6-1.4-0.6-1.8c0-0.6,0.5-1.1,1.4-1.4c0.9-0.3,1.7-0.5,2.5-0.5c0.1,0,0.2-0.3,0.2-1c0-0.6,0-1-0.1-1.2
			c-5.4,0.3-8.6,0.4-9.4,0.4c-4.9,0-7.9,0-9,0.1c-0.1,0.2-0.1,0.5-0.1,1c0,0.5,0.1,0.7,0.2,0.7c0.4,0,1.1,0.1,1.9,0.4
			c0.9,0.2,1.6,0.5,2,0.9c1,0.7,2.2,2.2,3.5,4.7 M145.9,46.6c0.1-0.3,0.7-0.7,2-1c1.2-0.4,2-0.5,2.5-0.5c0.2,0,0.3-0.4,0.3-1.2
			c0-0.3-0.1-0.7-0.2-1.1c-5.4,0.3-8.4,0.4-8.7,0.4c-1.2,0-3-0.1-5.3-0.2c-2.3-0.1-3.6-0.2-3.8-0.2c-0.1,0.1-0.1,0.5-0.1,1.2
			c0,0.7,0.1,1,0.3,1c0.5,0,1.4,0.2,2.5,0.5c1.1,0.3,1.7,0.7,1.9,1.1c0.4,1.1,0.5,3,0.5,5.8v25.7c0,3.2-0.2,5.2-0.5,6.2
			c-0.2,0.4-0.8,0.8-2,1.1c-1.1,0.3-2,0.4-2.6,0.4c-0.1,0-0.2,0.4-0.2,1.2c0,0.6,0.1,1,0.2,1.1l9.1-0.3c2.3-0.1,6.3-0.1,12,0.1
			c5.7,0.1,9.5,0.2,11.3,0.2c0.1-0.7,0.3-1.6,0.6-2.7c0.3-1.1,0.6-2,0.9-2.8c0.3-0.7,0.7-1.8,1.2-3.3c0.5-1.5,0.9-2.4,1-2.8
			c-0.3-0.3-0.9-0.4-1.9-0.4c-0.6,0-0.9,0.1-1,0.4c-0.5,1.5-1.2,2.9-2.1,4.2c-0.9,1.2-1.7,2-2.5,2.4c-1.9,1-4.6,1.4-8.1,1.4h-2.5
			c-2.9,0-4.4-0.3-4.6-0.9c-0.4-1.4-0.6-3.2-0.6-5.4V52.6C145.3,50,145.5,48,145.9,46.6 M97.7,42.8c-0.2,0.1-0.3,0.5-0.3,1.2
			s0.1,1,0.3,1c0.5,0,1.4,0.2,2.6,0.6c1.2,0.4,1.9,0.8,2,1.1c0.3,1.1,0.4,3,0.4,5.6v25.7c0,3.3-0.1,5.4-0.4,6.2
			c-0.2,0.4-0.9,0.8-2,1.1c-1.2,0.3-2,0.4-2.6,0.4c-0.1,0-0.2,0.4-0.2,1.1c0,0.6,0.1,1,0.2,1.2L99,88c0.9,0,2.1-0.1,3.6-0.2
			c1.5-0.1,2.9-0.1,4.1-0.1c1.5,0,4.7,0.1,9.7,0.4c0.1-0.3,0.1-0.7,0.1-1.2c0-0.8-0.1-1.2-0.3-1.2c-0.6,0-1.6-0.2-3-0.5
			c-1.4-0.3-2.1-0.8-2.3-1.3c-0.4-1.1-0.5-3.1-0.5-5.8V53.9c0-4.4,0.3-6.8,0.8-7.1c0.7-0.3,2-0.5,4-0.5c2.5,0,4.4,0.9,5.7,2.7
			s1.8,4.2,1.8,7.2c0,2.7-0.6,5-1.9,6.8c-1.3,1.8-3,2.7-5.2,2.7c-1.5,0-2.8-0.2-3.8-0.7c-0.1,0-0.2,0.2-0.2,0.5c0,0.3,0,0.7,0,1
			c0.1,0.4,0.1,0.6,0.2,0.7c0.4,0.5,1,0.9,2,1.3c1,0.3,1.9,0.5,2.9,0.5c2.8,0,5.3-0.7,7.6-2.1c2.2-1.4,3.9-3.2,5-5.2
			c1.1-2,1.7-4.1,1.7-6.3c0-1.8-0.3-3.4-1-4.8c-0.7-1.5-1.5-2.6-2.5-3.6c-1-0.9-2.2-1.7-3.5-2.3c-1.3-0.6-2.7-1.1-4-1.3
			c-1.3-0.2-2.7-0.4-4.1-0.4s-2.9,0-4.6,0.1c-1.7,0.1-3.2,0.1-4.6,0.1C105.4,43,102.4,43,97.7,42.8"/>
		<path d="M443.5,33.2c0.1-0.1,0.1-0.4,0.1-0.8c0-0.6-0.1-0.8-0.2-0.8c-0.4,0-1.1-0.1-2.1-0.4c-1-0.3-1.6-0.6-1.8-0.9
			c-0.4-0.9-0.5-2.3-0.5-4.1v-7.7c0-0.3,1.2-0.4,3.5-0.4c2.6,0,4.1,0.1,4.5,0.4c0.2,0.2,0.4,0.3,0.4,0.3c0,0,0.2,0.3,0.3,0.7
			c0.2,0.4,0.4,1.1,0.6,2c0.1,0.3,0.4,0.4,0.8,0.4c0.5,0,0.8-0.1,0.9-0.2v-9.3c-0.2-0.2-0.5-0.2-0.9-0.2c-0.5,0-0.8,0.1-0.8,0.3
			c-0.1,0.3-0.2,0.7-0.3,1.2c-0.2,1-0.5,1.6-0.8,1.7c-0.4,0.2-1.5,0.2-3.4,0.2h-0.2h-2.5c-1.4,0-2.2-0.1-2.2-0.3V7.6
			c0-1.9,0.1-3.2,0.2-4c0.1-0.4,1.3-0.6,3.7-0.6h2.6c3.1,0,5.2,1.5,6.3,4.4c0.1,0.2,0.3,0.3,0.7,0.3c0.5,0,0.9-0.1,1-0.2
			c0-0.2-0.2-1.1-0.6-2.9s-0.7-3.1-0.8-4.1c-1.7,0-4.4,0.1-8.1,0.2c-3.7,0.1-6.2,0.2-7.8,0.1c-2.2,0-4.4-0.1-6.5-0.2
			c-0.1,0.1-0.2,0.4-0.2,0.9c0,0.5,0.1,0.7,0.2,0.7c0.5,0,1.1,0.1,2,0.3c0.8,0.2,1.3,0.5,1.4,0.9c0.2,0.7,0.3,2.1,0.3,4V26
			c0,2.3-0.1,3.8-0.3,4.5c-0.1,0.3-0.6,0.5-1.4,0.8c-0.8,0.2-1.4,0.3-1.9,0.3c-0.1,0-0.1,0.3-0.1,0.8c0,0.4,0,0.7,0.1,0.8l1,0
			c0.6-0.1,1.5-0.1,2.6-0.2c1.1,0,2.2-0.1,3.1-0.1C437.3,32.9,439.6,33,443.5,33.2 M412.2,33.6c4.3,0,8-1.6,11.1-4.9
			S428,21.5,428,17c0-4.6-1.5-8.5-4.6-11.8c-3.1-3.3-6.8-4.9-11.1-4.9c-4.3,0-8,1.6-11.1,4.9c-3.1,3.3-4.6,7.2-4.6,11.8
			c0,4.6,1.5,8.5,4.6,11.7C404.2,31.9,407.9,33.6,412.2,33.6 M417.3,5.1c1.6,1.6,2.7,3.5,3.4,5.7c0.7,2.2,1,4.6,1,7.1
			c0,3.6-0.8,6.7-2.3,9.3c-1.5,2.6-3.7,3.9-6.5,3.9c-2.3,0-4.2-0.8-5.8-2.4c-1.6-1.6-2.7-3.5-3.4-5.8c-0.7-2.2-1-4.6-1-7
			c0-3.6,0.7-6.7,2.2-9.3c1.5-2.6,3.6-3.9,6.5-3.9C413.8,2.7,415.7,3.5,417.3,5.1 M365.7,18c0.2,0.5,0.3,0.8,0.3,1v7.3
			c0,1.9-0.1,3.4-0.4,4.3c-0.1,0.3-0.6,0.5-1.4,0.8c-0.8,0.3-1.4,0.4-1.8,0.4c-0.1,0-0.1,0.3-0.1,0.8c0,0.4,0.1,0.7,0.2,0.8
			c0.4,0,1.3-0.1,2.8-0.2c1.5-0.1,2.7-0.1,3.6-0.1c0.7,0,1.3,0,2,0c0.7,0,1.4,0.1,2.3,0.1c0.8,0.1,1.4,0.1,1.9,0.1
			c0.1-0.2,0.1-0.5,0.1-0.8c0-0.5-0.1-0.8-0.2-0.8c-0.3,0-0.8-0.1-1.6-0.4c-0.8-0.3-1.3-0.5-1.4-0.8c-0.3-1-0.4-2.5-0.4-4.4v-7.7
			c0-0.4,1.2-2.6,3.7-6.6c2.5-4,4.2-6.7,5.1-8.1c0.4-0.5,1-0.9,1.9-1.2c0.9-0.3,1.5-0.4,2-0.4c0.1,0,0.2-0.3,0.2-0.8
			c0-0.3,0-0.5-0.1-0.8c-0.4,0-0.9,0.1-1.5,0.1c-0.6,0-1.3,0.1-1.9,0.1c-0.6,0-1.3,0-2,0c-0.6,0-2.6-0.1-5.9-0.3
			C373,0.7,373,1,373,1.4c0,0.5,0.1,0.7,0.2,0.7c1,0,1.8,0.1,2.4,0.4s0.9,0.6,0.9,1c0,0.6-0.7,2-2,4.2c-1.3,2.2-2.7,4.4-4.1,6.5
			c-0.2,0.2-0.3,0.3-0.5,0.1l-5.2-9.5c-0.3-0.6-0.4-1-0.4-1.3c0-0.5,0.3-0.8,1-1c0.7-0.2,1.2-0.3,1.8-0.3c0.1,0,0.2-0.2,0.2-0.7
			c0-0.5,0-0.8-0.1-0.9c-3.9,0.2-6.2,0.3-6.8,0.3c-3.5,0-5.7,0-6.5,0.1c-0.1,0.1-0.1,0.4-0.1,0.7c0,0.3,0.1,0.5,0.2,0.5
			c0.3,0,0.8,0.1,1.4,0.3c0.6,0.2,1.1,0.4,1.5,0.6c0.8,0.5,1.6,1.6,2.6,3.4 M325.8,0.5c-0.8,0-1.9-0.2-3.4-0.5l-0.9,7.5
			c0.2,0.3,0.7,0.4,1.3,0.4c0.3,0,0.5-0.1,0.5-0.3c0.5-1.8,1.1-3,1.9-3.6c0.8-0.6,1.9-1,3.5-1c2.8,0,4.4,0.3,4.7,0.8
			c0.3,0.5,0.4,2,0.4,4.8v17.8c0,1.8-0.1,3.2-0.4,4.1c-0.1,0.3-0.6,0.5-1.4,0.7c-0.8,0.2-1.4,0.3-1.8,0.3c-0.1,0-0.2,0.3-0.2,0.9
			c0,0.4,0.1,0.7,0.2,0.8c0.4,0,1.3-0.1,2.9-0.2c1.6-0.1,2.8-0.1,3.7-0.1c0.7,0,1.3,0,2,0c0.7,0,1.5,0.1,2.3,0.1
			c0.8,0.1,1.5,0.1,1.9,0.1c0.1-0.2,0.1-0.5,0.1-0.8c0-0.6-0.1-0.9-0.2-0.9c-0.3,0-0.9-0.1-1.7-0.4c-0.9-0.2-1.3-0.5-1.3-0.7
			c-0.3-1.1-0.4-2.5-0.4-4.3V8.5c0-2.1,0.1-3.7,0.4-4.6c0.1-0.6,1.7-0.8,4.8-0.8c1.6,0,2.8,0.3,3.5,1c0.8,0.6,1.4,1.9,1.8,3.7
			c0.1,0.2,0.2,0.2,0.5,0.2c0.7,0,1.1-0.1,1.3-0.3l-0.9-7.5c-1.4,0.3-2.6,0.5-3.4,0.5c-1.3,0-3.1,0.1-5.4,0.2
			c-2.2,0.1-4,0.1-5.5,0.1c-1.4,0-3.2,0-5.4-0.1C328.9,0.6,327.1,0.6,325.8,0.5 M309.8,26.4c0,1.7-0.1,3.1-0.4,4.1
			c-0.1,0.3-0.6,0.5-1.4,0.7c-0.8,0.2-1.5,0.3-1.8,0.3c-0.1,0-0.2,0.3-0.2,0.9c0,0.3,0.1,0.6,0.2,0.7c0.5,0,1.2-0.1,2.1-0.1
			c0.9,0,1.7-0.1,2.4-0.1c0.7,0,1.4,0,2.1,0c0.2,0,2.3,0.1,6.2,0.3c0.1-0.2,0.1-0.4,0.1-0.7c0-0.6-0.1-0.9-0.2-0.9
			c-0.3,0-0.9-0.1-1.7-0.4c-0.8-0.2-1.3-0.5-1.4-0.7c-0.3-1.1-0.4-2.6-0.4-4.4V7.6c0-1.9,0.1-3.3,0.4-4.3c0.1-0.2,0.5-0.5,1.4-0.7
			c0.9-0.3,1.5-0.4,1.8-0.4c0.1,0,0.2-0.3,0.2-0.8c0-0.2,0-0.5-0.1-0.8c-3.9,0.2-6,0.3-6.3,0.3c-0.9,0-2.2,0-3.8-0.1
			c-1.7-0.1-2.6-0.1-2.7-0.1c-0.1,0.1-0.1,0.4-0.1,0.9c0,0.5,0.1,0.7,0.2,0.7c0.4,0,1,0.1,1.8,0.4c0.8,0.2,1.2,0.5,1.4,0.8
			c0.3,0.8,0.4,2.2,0.4,4.1V26.4z M284.4,11.6c0.3,0.8,0.7,1.5,1.1,2.1c0.4,0.6,1,1.2,1.7,1.8c0.8,0.6,1.4,1.1,1.9,1.4
			c0.5,0.3,1.2,0.8,2.2,1.4c0.3,0.2,0.4,0.3,0.5,0.4c0.3,0.2,0.8,0.5,1.5,0.9c0.7,0.4,1.2,0.7,1.6,1c0.4,0.2,0.8,0.6,1.4,1
			c0.5,0.4,0.9,0.8,1.2,1.2c0.3,0.4,0.5,0.8,0.7,1.3c0.2,0.5,0.3,1.1,0.3,1.6c0,1.8-0.5,3.2-1.5,4.1c-1,0.9-2.3,1.4-3.8,1.4
			c-1.2,0-2.3-0.3-3.3-0.8c-1-0.5-1.7-1.2-2.3-2c-0.6-0.8-1-1.6-1.4-2.3c-0.3-0.7-0.6-1.4-0.7-1.9c-0.1-0.3-0.6-0.4-1.4-0.4
			c-0.5,0-0.8,0.1-0.8,0.4c0,0.6,0.1,1.7,0.4,3.5c0.2,1.8,0.5,3.3,0.8,4.4c4.1,0.9,7.1,1.4,9,1.4c2.8,0,5.2-0.9,7.3-2.6
			c2.1-1.7,3.2-3.9,3.2-6.5c0-0.9-0.1-1.8-0.4-2.6c-0.3-0.8-0.5-1.5-0.9-2c-0.3-0.5-0.8-1.1-1.5-1.7c-0.7-0.6-1.2-1-1.6-1.3
			c-0.4-0.2-1-0.6-1.9-1.2c-0.9-0.5-1.4-0.9-1.6-1.1c-0.2-0.1-0.6-0.3-1.4-0.8c-0.8-0.5-1.3-0.8-1.5-1c-0.2-0.2-0.6-0.5-1.2-0.9
			c-0.6-0.4-1-0.8-1.2-1.1c-0.2-0.3-0.5-0.6-0.8-1.1c-0.3-0.4-0.6-0.9-0.7-1.3c-0.1-0.4-0.2-0.9-0.2-1.4c0-1.4,0.4-2.6,1.2-3.4
			c0.8-0.9,2-1.3,3.5-1.3c1.7,0,3.2,0.7,4.4,2.2c1.2,1.4,1.9,2.9,2.1,4.4c0.1,0.3,0.5,0.4,1.4,0.4c0.3,0,0.5-0.1,0.6-0.4
			c0-2.8-0.2-5.3-0.6-7.6c-0.5-0.1-1.3-0.3-2.5-0.6c-1.2-0.3-2.2-0.5-2.9-0.6c-0.7-0.1-1.5-0.1-2.4-0.1c-2.6,0-4.9,0.8-7,2.5
			c-2.1,1.7-3.1,3.8-3.1,6.2C283.9,9.9,284.1,10.8,284.4,11.6 M260.1,0.7c-1.4,0-2.5,0.1-3.4,0.1c-0.9,0-3.1-0.1-6.5-0.1
			c-0.1,0.1-0.2,0.4-0.2,0.9c0,0.5,0.1,0.7,0.2,0.7c0.4,0,1,0.1,1.9,0.4c0.9,0.3,1.4,0.5,1.4,0.8c0.2,0.8,0.3,2.2,0.3,4V26
			c0,2.4-0.1,3.9-0.3,4.5c-0.1,0.3-0.6,0.5-1.4,0.8c-0.8,0.2-1.5,0.3-1.9,0.3c-0.1,0-0.1,0.3-0.1,0.8c0,0.5,0,0.8,0.1,0.9l1-0.1
			c0.7,0,1.5-0.1,2.6-0.1s2.1-0.1,3-0.1c1,0,3.4,0.1,7,0.3c0.1-0.2,0.1-0.5,0.1-0.8c0-0.6-0.1-0.8-0.2-0.8c-0.5,0-1.2-0.1-2.2-0.4
			c-1-0.2-1.5-0.6-1.6-1c-0.3-0.8-0.4-2.2-0.4-4.2v-6.9c0-0.6,0.3-0.8,0.8-0.8c0.6,0,1,0,1.2,0.1c0.3,0.1,0.5,0.3,0.8,0.5
			c0.3,0.3,0.6,0.7,1,1.2c0.4,0.5,0.7,1,1.1,1.5c0.3,0.5,0.8,1.2,1.4,2c0.6,0.9,1.1,1.7,1.6,2.3c0.7,1.1,1.4,2,2.1,2.8
			c0.7,0.7,1.5,1.5,2.5,2.2c1,0.8,2.2,1.3,3.5,1.7c1.4,0.4,2.9,0.6,4.5,0.6c0.6,0,1.1,0,1.5-0.1c0.1-0.3,0.2-0.6,0.2-0.9
			c0-0.3-0.1-0.6-0.2-0.8c-1.1,0-2.3-0.5-3.7-1.5c-1.3-1-2.6-2.2-3.7-3.6c-1.8-2.3-3.7-5-5.5-8.4c-0.1-0.2-0.1-0.4,0.2-0.5
			c1.6-0.7,3-1.8,4.2-3.3c1.1-1.6,1.7-3.2,1.7-5c0-1.3-0.2-2.4-0.7-3.4c-0.5-1-1.1-1.8-1.9-2.5c-0.8-0.6-1.7-1.1-2.7-1.6
			c-1-0.4-2-0.7-2.9-0.9c-0.9-0.2-1.8-0.3-2.7-0.3C262.6,0.6,261.4,0.7,260.1,0.7 M268.5,9.8c0,1.8-0.5,3.3-1.4,4.5
			c-1,1.1-2.1,1.7-3.3,1.7h-1.3c-1,0-1.8-0.1-2.3-0.3c-0.6-0.2-0.8-0.7-0.8-1.4V8.6c0-3.2,0.2-4.9,0.6-5.1c0.5-0.2,1.5-0.3,2.9-0.3
			C266.6,3.1,268.5,5.3,268.5,9.8 M222.4,0.6c-0.1,0.1-0.2,0.4-0.2,0.9c0,0.5,0.1,0.7,0.2,0.7c0.5,0,1.1,0.1,2,0.3
			c0.8,0.2,1.3,0.5,1.4,0.9c0.2,0.7,0.3,2.1,0.3,4V26c0,2.3-0.1,3.8-0.3,4.5c-0.1,0.3-0.6,0.5-1.4,0.8c-0.8,0.2-1.4,0.3-1.9,0.3
			c-0.1,0-0.1,0.3-0.1,0.8c0,0.4,0,0.7,0.1,0.8L229,33c1.7-0.1,4.6,0,8.7,0s6.8,0.1,8.1,0.1c0.1-0.5,0.2-1.1,0.4-1.9
			c0.2-0.8,0.4-1.4,0.6-2c0.2-0.5,0.5-1.3,0.9-2.4c0.4-1,0.6-1.7,0.7-2c-0.2-0.2-0.7-0.3-1.4-0.3c-0.4,0-0.7,0.1-0.7,0.3
			c-0.4,1.1-0.9,2.1-1.5,3c-0.7,0.9-1.2,1.5-1.8,1.7c-1.3,0.7-3.3,1-5.8,1h-1.8c-2.1,0-3.2-0.2-3.3-0.6c-0.3-0.9-0.4-2.2-0.4-4v-7.6
			c0-0.3,1.2-0.4,3.5-0.4c2.6,0,4.1,0.1,4.5,0.4c0.2,0.2,0.4,0.3,0.4,0.3c0,0,0.2,0.3,0.3,0.7c0.2,0.4,0.4,1.1,0.6,2
			c0.1,0.3,0.4,0.4,0.8,0.4c0.5,0,0.8-0.1,0.9-0.2v-9.3c-0.2-0.2-0.5-0.2-0.9-0.2c-0.5,0-0.8,0.1-0.8,0.3c-0.1,0.3-0.2,0.7-0.3,1.2
			c-0.2,1-0.5,1.6-0.8,1.7c-0.4,0.2-1.5,0.2-3.4,0.2h-0.2h-2.6c-1.4,0-2.2-0.1-2.2-0.3V7.6c0-1.7,0.1-3.1,0.3-4
			c0.1-0.4,1.3-0.6,3.7-0.6h2.6c3.1,0,5.2,1.5,6.3,4.4c0.1,0.2,0.3,0.3,0.7,0.3c0.5,0,0.9-0.1,1-0.2c0-0.2-0.2-1.1-0.6-2.9
			c-0.4-1.8-0.7-3.1-0.8-4.1c-1.9,0-4.6,0.1-8.3,0.2c-3.6,0.1-6.2,0.2-7.6,0.2C226.8,0.8,224.6,0.7,222.4,0.6 M200,14
			c-2.5-6.1-3.7-9.4-3.7-10.1c0-0.4,0.2-0.8,0.7-1.1c0.5-0.3,0.9-0.5,1.3-0.5c0.4-0.1,0.8-0.1,1-0.1c0.1,0,0.2-0.2,0.2-0.7
			s0-0.8-0.1-0.9c-4,0.2-6.3,0.3-6.7,0.3c-0.9,0-2.1,0-3.7-0.1c-1.6-0.1-2.5-0.1-2.7-0.1c-0.1,0.1-0.1,0.4-0.1,0.9
			c0,0.5,0.1,0.7,0.2,0.7c0.5,0,1.1,0.1,1.9,0.4c0.8,0.2,1.3,0.6,1.5,1c0.5,1,1.1,2.4,1.9,4.4l10.1,25.2c0.2,0.3,0.5,0.5,0.8,0.5
			c0.8,0,1.4-0.6,1.9-1.8l10.2-23.9c0.9-2.1,1.6-3.5,2.1-4.3c0.4-0.5,0.9-0.8,1.6-1.1c0.7-0.2,1.3-0.4,1.7-0.4
			c0.1,0,0.1-0.3,0.1-0.8c0-0.3,0-0.6-0.1-0.7c-0.5,0-1.3,0.1-2.4,0.2c-1.1,0.1-2.1,0.1-2.9,0.1c-0.8,0-1.8,0-3.1-0.1
			c-1.3-0.1-2.1-0.1-2.4-0.1c-0.1,0.1-0.1,0.4-0.1,0.9c0,0.5,0,0.7,0.2,0.7c0.8,0,1.6,0.2,2.3,0.5c0.8,0.3,1.2,0.8,1.2,1.4
			c0,0.7-0.3,1.8-1,3.4l-7.2,16.9c0,0.1-0.2-0.3-0.6-1.2 M174.4,26.4c0,1.7-0.1,3.1-0.4,4.1c-0.1,0.3-0.6,0.5-1.4,0.7
			c-0.8,0.2-1.4,0.3-1.8,0.3c-0.1,0-0.2,0.3-0.2,0.9c0,0.3,0.1,0.6,0.2,0.7c0.5,0,1.2-0.1,2.1-0.1c0.9,0,1.7-0.1,2.4-0.1
			c0.7,0,1.4,0,2.1,0c0.2,0,2.3,0.1,6.2,0.3c0.1-0.2,0.1-0.4,0.1-0.7c0-0.6-0.1-0.9-0.2-0.9c-0.3,0-0.9-0.1-1.7-0.4
			c-0.8-0.2-1.3-0.5-1.4-0.7c-0.3-1.1-0.4-2.6-0.4-4.4V7.6c0-1.9,0.1-3.3,0.4-4.3c0.1-0.2,0.5-0.5,1.4-0.7c0.9-0.3,1.5-0.4,1.8-0.4
			c0.1,0,0.2-0.3,0.2-0.8c0-0.2,0-0.5-0.1-0.8c-3.9,0.2-6,0.3-6.3,0.3c-0.9,0-2.2,0-3.8-0.1c-1.7-0.1-2.6-0.1-2.7-0.1
			c-0.1,0.1-0.1,0.4-0.1,0.9c0,0.5,0.1,0.7,0.2,0.7c0.4,0,1,0.1,1.8,0.4c0.8,0.2,1.2,0.5,1.4,0.8c0.3,0.8,0.4,2.2,0.4,4.1V26.4z
			 M147.6,5.8c-1.7-2.3-2.8-4.1-3.4-5.2c-1.9,0.2-3.3,0.2-4.4,0.2c-0.5,0-2.4-0.1-5.8-0.2c-0.1,0.1-0.2,0.4-0.2,0.9
			c0,0.5,0.1,0.7,0.2,0.7c0.5,0,1.2,0.1,2.2,0.3c1,0.2,1.6,0.4,1.7,0.6c0.4,0.6,0.5,1.8,0.5,3.6V26c0,2.1-0.2,3.4-0.5,4.1
			c-0.3,0.5-0.9,0.9-1.8,1.1c-0.9,0.2-1.7,0.4-2.2,0.4c-0.1,0-0.2,0.3-0.2,0.8c0,0.4,0.1,0.7,0.2,0.8c0.4,0,1.3-0.1,2.6-0.2
			c1.3-0.1,2.4-0.1,3.3-0.1c0.2,0,2.2,0.1,6.1,0.3c0.1-0.2,0.1-0.5,0.1-0.9c0-0.5-0.1-0.7-0.2-0.7c-0.4,0-1.2-0.1-2.2-0.4
			c-1-0.3-1.7-0.6-1.8-1c-0.3-0.7-0.4-2.1-0.4-4V6.2l19.6,25.9c0.5,0.8,1,1.1,1.6,1.1c0.6,0,0.9-0.1,1.1-0.2
			c-0.1-3.4-0.2-5.7-0.2-6.9V7.6c0-1.8,0.2-3.2,0.5-4.1c0.3-0.4,0.9-0.8,1.9-1c0.9-0.2,1.7-0.4,2.1-0.4c0.1,0,0.2-0.3,0.2-0.8
			c0-0.4,0-0.7-0.1-0.8c-0.3,0-1.2,0.1-2.5,0.2c-1.3,0.1-2.4,0.2-3.3,0.2c-0.6,0-2.7-0.1-6.2-0.3c-0.1,0.1-0.1,0.4-0.1,0.9
			c0,0.5,0.1,0.7,0.2,0.7c0.5,0,1.3,0.1,2.2,0.3c0.9,0.2,1.5,0.5,1.6,0.9c0.3,0.9,0.5,2.2,0.5,3.9v13.4c0,0.9,0,1.6-0.1,2 M97.7,0.5
			c-0.1,0.1-0.1,0.4-0.1,0.9s0.1,0.7,0.2,0.7c0.4,0,1,0.1,1.8,0.4c0.8,0.2,1.2,0.5,1.4,0.8c0.3,0.7,0.4,2,0.4,4.1v10.7
			c0,5.3,1.1,9.1,3.4,11.5c2.3,2.4,5.4,3.6,9.3,3.6c1.9,0,3.5-0.2,5-0.7c1.5-0.5,2.8-1.3,3.9-2.3c1.1-1.1,2-2.5,2.7-4.4
			c0.6-1.8,0.9-4.1,0.9-6.6V7.6c0-1.9,0.2-3.3,0.5-4.1c0.3-0.4,0.9-0.8,1.9-1c0.9-0.2,1.7-0.4,2.1-0.4c0.1,0,0.2-0.3,0.2-0.8
			c0-0.3,0-0.6-0.1-0.8c-0.3,0-1.2,0.1-2.5,0.2c-1.4,0.1-2.4,0.2-3.3,0.2c-0.6,0-2.7-0.1-6.2-0.3C119,0.7,119,1,119,1.4
			c0,0.5,0.1,0.7,0.2,0.7c0.4,0,1.1,0.1,2.1,0.4c1,0.3,1.5,0.6,1.7,0.9c0.3,0.6,0.5,1.9,0.5,3.9v12c0,3.8-0.8,6.6-2.3,8.2
			c-1.5,1.7-3.5,2.5-6.1,2.5c-2.6,0-4.6-1-6.1-3c-1.5-2-2.2-4.7-2.2-8.1V7.6c0-1.9,0.1-3.3,0.4-4.3c0-0.3,0.5-0.5,1.4-0.8
			c0.9-0.2,1.5-0.4,1.8-0.4c0.1,0,0.2-0.3,0.2-0.8c0-0.3,0-0.5-0.1-0.8c-3.6,0.2-5.7,0.3-6.3,0.3C104.1,0.8,101.9,0.7,97.7,0.5"/>
		<path class="st0" d="M72.9,19.2V0H0.1v19.2c0,6.2,0,9.4,0.2,16.6c2.6,31.5,23.2,47.1,36.3,53.9c13-6.8,33.6-22.4,36.3-53.9
			C73,28.6,73,25.5,72.9,19.2"/>
		<path class="st1" d="M69.9,35.7c0.2-7.1,0.2-10.2,0.2-16v-17H36.5H2.8v17c0,5.8,0,9,0.2,16c2.5,29.4,21.7,44.1,33.5,50.4
			C48.3,79.8,67.5,65.1,69.9,35.7"/>
		<path d="M71.7,35.8c-2.6,30.9-23,46.2-35.2,52.7C24.2,82,3.9,66.7,1.2,35.8C1,28.5,1,25.3,1.1,19.2V1.1h70.8v18.2
			C71.9,25.3,71.9,28.5,71.7,35.8 M72.9,19.2V0H0v19.2c0,6.2,0,9.4,0.2,16.6c2.6,31.5,23.2,47.1,36.3,53.9
			c13-6.8,33.6-22.4,36.3-53.9C72.9,28.6,72.9,25.5,72.9,19.2"/>
		<path class="st2" d="M25.2,64.5c-0.8-0.1-1-1-1.2-1.5c-0.3-0.8-1.3-0.9-2.3-0.3c0.4-1.1,1.8-1.5,2.7-1.2c1.5,0.6,0.9,1.7,2.2,1.9
			c-0.3-0.7,0.3-1.4,0.7-1.8c0.5-0.6,0.2-1.6-0.9-2.2c1.2-0.2,2.2,0.8,2.4,1.8c0.3,1.6-1.1,1.6-0.5,2.9c0.5-0.6,1.4-0.4,1.9-0.3
			c0.8,0.1,1.5-0.7,1.4-1.9c0.7,0.9,0.4,2.3-0.3,2.9c-1.3,1-1.9-0.1-2.7,1c0.8,0.1,1,1,1.2,1.5c0.3,0.8,1.3,0.9,2.3,0.3
			c-0.4,1.1-1.8,1.5-2.7,1.2c-1.5-0.6-0.9-1.7-2.2-1.9c0.3,0.7-0.3,1.4-0.7,1.8c-0.5,0.6-0.2,1.6,0.9,2.2c-1.2,0.2-2.2-0.8-2.4-1.8
			c-0.3-1.6,1.1-1.6,0.5-2.9c-0.5,0.6-1.4,0.4-1.9,0.3c-0.8-0.1-1.5,0.7-1.4,1.9c-0.7-0.9-0.4-2.3,0.3-2.9
			C23.8,64.5,24.4,65.6,25.2,64.5 M34.8,76.1c-0.8-0.1-1-1-1.2-1.5c-0.3-0.8-1.3-0.9-2.3-0.3c0.4-1.1,1.8-1.5,2.7-1.2
			c1.5,0.6,0.9,1.7,2.2,1.9c-0.3-0.7,0.3-1.4,0.7-1.8c0.5-0.6,0.2-1.6-0.9-2.2c1.2-0.2,2.2,0.8,2.4,1.8c0.3,1.6-1.1,1.6-0.5,2.9
			c0.5-0.6,1.4-0.4,1.9-0.3c0.8,0.1,1.5-0.7,1.4-1.9c0.7,0.9,0.4,2.3-0.3,2.9c-1.3,1-1.9-0.1-2.7,1c0.8,0.1,1,1,1.2,1.5
			c0.3,0.8,1.3,0.9,2.3,0.3c-0.4,1.1-1.8,1.5-2.7,1.2c-1.5-0.6-0.9-1.7-2.2-1.9c0.3,0.7-0.3,1.4-0.7,1.8c-0.5,0.6-0.2,1.6,0.9,2.2
			c-1.2,0.2-2.2-0.8-2.4-1.8c-0.3-1.6,1.1-1.6,0.5-2.9c-0.5,0.6-1.4,0.4-1.9,0.3c-0.8-0.1-1.5,0.7-1.4,1.9c-0.7-0.9-0.4-2.3,0.3-2.9
			C33.3,76,34,77.2,34.8,76.1 M41.1,68.4c-0.7-0.9-0.4-2.3,0.3-2.9c1.3-1,1.9,0.1,2.7-1c-0.8-0.1-1-1-1.2-1.5
			c-0.3-0.8-1.3-0.9-2.3-0.3c0.4-1.1,1.8-1.5,2.7-1.2c1.5,0.6,0.9,1.7,2.2,1.9c-0.3-0.7,0.3-1.4,0.7-1.8c0.5-0.6,0.2-1.6-0.9-2.2
			c1.2-0.2,2.2,0.8,2.4,1.8c0.3,1.6-1.1,1.6-0.5,2.9c0.5-0.6,1.4-0.4,1.9-0.3c0.8,0.1,1.5-0.7,1.4-1.9c0.7,0.9,0.4,2.3-0.4,2.9
			c-1.3,1-1.9-0.1-2.7,1c0.8,0.1,1,1,1.2,1.5c0.3,0.8,1.3,0.9,2.3,0.3c-0.4,1.1-1.8,1.5-2.7,1.2c-1.5-0.6-0.9-1.7-2.2-1.9
			c0.3,0.7-0.3,1.4-0.7,1.8c-0.5,0.6-0.2,1.6,0.9,2.2c-1.2,0.2-2.2-0.8-2.4-1.8c-0.3-1.6,1.1-1.6,0.5-2.9c-0.5,0.6-1.4,0.4-1.9,0.3
			C41.7,66.4,41,67.2,41.1,68.4 M10,60.3c7.3,13.6,18.5,21.6,26.4,25.9c3.2-1.7,6.9-4,10.7-7c5.6-4.5,11.4-10.7,15.8-18.9
			c-3.5,0.4-7.9-0.2-11.4-1.6c-6.9-2.9-11.4-2.8-15.2,0.2c-3.8-3-8.3-3.1-15.2-0.2C17.8,60.1,13.5,60.7,10,60.3"/>
		<path class="st2" d="M54.4,11.1c0.8,0.1,1,1,1.2,1.5c0.3,0.8,1.3,0.9,2.3,0.3c-0.4,1.1-1.8,1.5-2.7,1.2c-1.5-0.6-0.9-1.7-2.2-1.9
			c0.3,0.7-0.3,1.4-0.7,1.8c-0.5,0.6-0.1,1.6,0.9,2.2c-1.2,0.2-2.2-0.8-2.3-1.8c-0.3-1.6,1.1-1.6,0.5-2.9c-0.5,0.6-1.4,0.4-1.9,0.3
			c-0.8-0.1-1.5,0.7-1.4,1.9c-0.7-0.9-0.4-2.3,0.4-2.9c1.3-1,1.9,0.1,2.7-1c-0.8-0.1-1-1-1.2-1.5c-0.3-0.8-1.3-0.9-2.3-0.3
			c0.4-1.1,1.8-1.5,2.7-1.2c1.5,0.6,0.9,1.7,2.2,1.9c-0.3-0.7,0.3-1.4,0.7-1.8c0.5-0.6,0.2-1.6-0.9-2.2c1.2-0.2,2.2,0.8,2.4,1.8
			c0.3,1.6-1.1,1.6-0.5,2.9C54.6,8.7,55.5,9,56,9.1c0.8,0.1,1.5-0.7,1.4-1.8c0.7,0.9,0.4,2.3-0.3,2.9C55.8,11.2,55.2,10,54.4,11.1
			 M38.2,11.1c0.8,0.1,1,1,1.2,1.5c0.3,0.8,1.3,0.9,2.3,0.3C41.3,14,40,14.4,39,14.1c-1.5-0.6-0.9-1.7-2.2-1.9
			c0.3,0.7-0.3,1.4-0.7,1.8c-0.5,0.6-0.2,1.6,0.9,2.2c-1.2,0.2-2.2-0.8-2.3-1.8c-0.3-1.6,1.1-1.6,0.5-2.9c-0.5,0.6-1.4,0.4-1.9,0.3
			c-0.8-0.1-1.5,0.7-1.4,1.9c-0.7-0.9-0.4-2.3,0.3-2.9c1.3-1,1.9,0.1,2.7-1c-0.8-0.1-1-1-1.2-1.5c-0.3-0.8-1.3-0.9-2.3-0.3
			c0.4-1.1,1.8-1.5,2.7-1.2c1.5,0.6,0.9,1.7,2.2,1.9C36,8,36.6,7.4,37,6.9c0.5-0.6,0.2-1.6-0.9-2.2c1.2-0.2,2.2,0.8,2.4,1.8
			c0.3,1.6-1.1,1.6-0.5,2.9c0.5-0.6,1.4-0.4,1.9-0.3c0.8,0.1,1.4-0.7,1.4-1.8c0.7,0.9,0.4,2.3-0.3,2.9C39.7,11.2,39,10,38.2,11.1
			 M22.6,11.1c0.8,0.1,1,1,1.2,1.5c0.3,0.8,1.3,0.9,2.3,0.3c-0.4,1.1-1.8,1.5-2.7,1.2c-1.5-0.6-0.9-1.7-2.2-1.9
			c0.3,0.7-0.3,1.4-0.7,1.8c-0.5,0.6-0.2,1.6,0.9,2.2c-1.2,0.2-2.2-0.8-2.3-1.8c-0.3-1.6,1.1-1.6,0.5-2.9c-0.5,0.6-1.4,0.4-1.9,0.3
			c-0.8-0.1-1.5,0.7-1.4,1.9c-0.7-0.9-0.4-2.3,0.3-2.9c1.3-1,1.9,0.1,2.7-1c-0.8-0.1-1-1-1.2-1.5c-0.3-0.8-1.3-0.9-2.3-0.3
			c0.4-1.1,1.8-1.5,2.7-1.2c1.5,0.6,0.9,1.7,2.2,1.9c-0.3-0.7,0.3-1.4,0.7-1.8c0.5-0.6,0.2-1.6-0.9-2.2c1.2-0.2,2.2,0.8,2.3,1.8
			c0.3,1.6-1.1,1.6-0.5,2.9c0.5-0.6,1.4-0.4,1.9-0.3c0.8,0.1,1.5-0.7,1.4-1.8c0.7,0.9,0.4,2.3-0.3,2.9C24.1,11.2,23.5,10,22.6,11.1
			 M61,22.3c4.9,0,9.2-3.1,9.2-3.1v-6.9c-0.1-0.1-0.3-0.2-0.6-0.2c0.3,0.7-0.3,1.4-0.7,1.8c-0.5,0.6-0.2,1.6,0.9,2.2
			c-1.2,0.2-2.2-0.8-2.3-1.8c-0.3-1.6,1.1-1.6,0.5-2.9c-0.5,0.6-1.4,0.4-1.9,0.3c-0.8-0.1-1.5,0.7-1.4,1.9c-0.7-0.9-0.4-2.3,0.3-2.9
			c1.3-1,1.9,0.1,2.7-1c-0.8-0.1-1-1-1.2-1.5c-0.3-0.8-1.3-0.9-2.3-0.3c0.4-1.1,1.8-1.5,2.7-1.2c1.5,0.6,0.9,1.7,2.2,1.9
			c-0.3-0.7,0.3-1.4,0.7-1.8c0.5-0.6,0.2-1.6-0.9-2.2c0.5-0.1,0.9,0.1,1.3,0.3V2.8H2.8v5.8C3,8.6,3.1,8.7,3.4,8.7
			C3.1,8,3.7,7.4,4,6.9c0.5-0.6,0.2-1.6-0.9-2.2c1.2-0.2,2.2,0.8,2.4,1.8C5.8,8.1,4.4,8.1,5,9.4C5.5,8.7,6.3,9,6.9,9.1
			c0.8,0.1,1.5-0.7,1.4-1.8C9,8.1,8.8,9.5,8,10.1c-1.3,1-1.9-0.1-2.7,1c0.8,0.1,1,1,1.2,1.5c0.3,0.8,1.3,0.9,2.3,0.3
			C8.3,14,7,14.4,6.1,14.1c-1.5-0.6-0.9-1.7-2.2-1.9c0.3,0.7-0.3,1.4-0.7,1.8c-0.5,0.6-0.2,1.6,0.9,2.2c-0.4,0.1-0.9,0-1.2-0.2v3.3
			c0,0,4.3,3.1,9.2,3.1c9.3,0,10.6-4.4,18.3-4.4c3.3,0,6.1,2.5,6.1,2.5s2.8-2.5,6.1-2.5C50.4,17.9,51.6,22.3,61,22.3"/>
		<path class="st3" d="M12,39.3c1.1-1,2.3-2.1,2.3-2.1L12.9,36c-0.1-0.1-0.1-0.3-0.1-0.4c0-0.1,0.2-0.2,0.3-0.2l1.8,0
			c0.2-0.4,0.5-0.6,0.9-0.6c0.4,0,0.8,0.3,0.9,0.6l1.9,0c0.1,0,0.2,0.1,0.3,0.2c0,0.1,0,0.3-0.1,0.4l-1.4,1.2
			c0.1,0.1,1.2,1.1,2.3,2.1c0.2,0.2,2,1.5,1.2,2.9c-0.4,0.7-1.1,0.7-1.1,0.7s-0.3,1.2-1.5,1.4c-0.6,0.1-0.9-0.2-0.9-0.2
			s-0.2,0.5-0.8,0.7c-0.2,0.1-0.4,0.2-0.7,0.2c-1.1,0-1.5-0.8-1.5-0.8s-0.4,0.3-0.9,0.2c-1.2-0.2-1.5-1.4-1.5-1.4s-0.7,0-1.1-0.7
			C10,40.7,11.8,39.4,12,39.3 M32.6,39.3c1.1-1,2.3-2.1,2.3-2.1L33.5,36c-0.1-0.1-0.1-0.3-0.1-0.4c0-0.1,0.2-0.2,0.3-0.2l1.8,0
			c0.2-0.4,0.5-0.6,0.9-0.6c0.4,0,0.8,0.3,0.9,0.6l1.9,0c0.1,0,0.2,0.1,0.3,0.2c0,0.1,0,0.3-0.1,0.4l-1.4,1.2
			c0.1,0.1,1.2,1.1,2.3,2.1c0.2,0.2,2,1.5,1.2,2.9c-0.4,0.7-1.1,0.7-1.1,0.7s-0.3,1.2-1.5,1.4c-0.6,0.1-0.9-0.2-0.9-0.2
			s-0.2,0.5-0.8,0.7c-0.2,0.1-0.4,0.2-0.7,0.2c-1.1,0-1.5-0.8-1.5-0.8s-0.4,0.3-0.9,0.2c-1.2-0.2-1.5-1.4-1.5-1.4s-0.7,0-1.1-0.7
			C30.6,40.7,32.4,39.4,32.6,39.3 M53.2,39.3c1.1-1,2.3-2.1,2.3-2.1L54.1,36c-0.1-0.1-0.1-0.3-0.1-0.4c0-0.1,0.2-0.2,0.3-0.2l1.8,0
			c0.2-0.4,0.5-0.6,0.9-0.6c0.4,0,0.8,0.3,0.9,0.6l1.9,0c0.1,0,0.2,0.1,0.3,0.2c0,0.1,0,0.3-0.1,0.4l-1.4,1.2
			c0.1,0.1,1.2,1.1,2.3,2.1c0.2,0.2,2,1.5,1.2,2.9c-0.4,0.7-1.1,0.7-1.1,0.7s-0.3,1.2-1.5,1.4c-0.6,0.1-0.9-0.2-0.9-0.2
			s-0.2,0.5-0.8,0.7c-0.2,0.1-0.4,0.2-0.7,0.2c-1.1,0-1.5-0.8-1.5-0.8s-0.4,0.3-0.9,0.2c-1.2-0.2-1.5-1.4-1.5-1.4s-0.7,0-1.1-0.7
			C51.2,40.7,53,39.4,53.2,39.3 M2.8,29.6c0,1.8,0.1,3.7,0.1,6.1c0.4,4.9,1.3,9.4,2.5,13.6c2.2,0.9,4.6,1.4,6.9,1.4
			c3,0,6-0.7,8.7-2.2c5.7-3.1,9.8-3.1,15,0l0.3,0.2h0l0.3-0.2c5.2-3.1,9.3-3,15,0c2.8,1.5,5.8,2.2,8.7,2.2c2.4,0,4.8-0.5,7-1.5
			c1.2-4.1,2.1-8.6,2.5-13.5c0.1-2.4,0.1-4.4,0.1-6.2c-5.8,2.9-11.5,3.2-17.7,0.9c-5.9-2.2-10.9-2.7-16,1.6h0
			c-5.1-4.3-10.1-3.8-16-1.6C14.2,32.7,8.6,32.5,2.8,29.6"/>
	</g>
</g>
</svg>
