<?xml version="1.0" encoding="utf-8"?>
<!-- Generator: Adobe Illustrator 20.1.0, SVG Export Plug-In . SVG Version: 6.00 Build 0)  -->
<svg version="1.1" id="Layer_1" xmlns="http://www.w3.org/2000/svg" xmlns:xlink="http://www.w3.org/1999/xlink" x="0px" y="0px"
	 viewBox="0 0 373.6 81.4" style="enable-background:new 0 0 373.6 81.4;" xml:space="preserve">
<style type="text/css">
	.st0{fill:#FFFFFF;}
</style>
<g>
	<path class="st0" d="M303.9,39.2c-0.1,2.6-0.4,6.4-0.6,10.1h1.8c0.7-2.6,1.3-4.3,2.2-5.2c0.8-0.8,1.7-1.4,5.9-1.4h1.7v24.3
		c0,4.4-0.5,4.7-4.8,5v1.8h16.7v-1.8c-4.5-0.4-5-0.7-5-5V42.8h2.4c3,0,4.3,0.3,5.2,1.2c0.9,0.9,1.6,2.6,2.3,5.3l1.8-0.1
		c-0.3-3.3-0.5-7.8-0.6-10h-1.2c-0.9,1-1.6,1.3-3,1.3h-20.7c-1.4,0-2.1-0.1-2.9-1.3H303.9z M280.1,40.5h-15.5v1.8
		c3.8,0.4,4.3,0.7,4.3,5.5v12.1c0,6,1.3,9.8,4.3,12.1c2.5,2,5.7,2.7,9.1,2.7c3.6,0,7.1-1.3,9.5-3.8c2.9-3.1,3.7-7.4,3.7-12.8v-5.6
		c0-3.6,0.2-5.5,0.5-7.1c0.3-1.8,1.5-2.9,4.4-3v-1.8h-12.9v1.8c3.5,0.2,4.7,1.2,5,3c0.3,1.5,0.5,3.5,0.5,7.1V58
		c0,8.6-2.7,13.2-8.8,13.2c-5.5,0-8.3-4.5-8.3-12.2V47.9c0-4.8,0.5-5.2,4.3-5.5V40.5z M233.8,56.3c0-8.9,4.1-14.4,9.2-14.4
		c5.9,0,10.1,6.2,10.1,16.4c0,9.5-4,14.2-8.8,14.2C237.7,72.5,233.8,65.1,233.8,56.3 M226,57.3c0,9.9,7.1,17.4,17.4,17.4
		c9.7,0,17.6-6.7,17.6-17.8c0-10.2-7.7-17.1-17-17.1C232.2,39.8,226,48.4,226,57.3 M120.5,72.1v1.8h25c0.4-1.4,1.5-6.5,1.9-8.7
		l-1.8-0.6c-1,2.6-1.9,4.2-2.9,5.3c-1.2,1.4-3.1,1.7-5.2,1.7c-1.6,0-3-0.1-3.9-0.5c-1.1-0.5-1.3-1.4-1.3-3.8v-20
		c0-4.4,0.5-4.7,4.4-5.1v-1.8h-15.7v1.8c3.9,0.4,4.4,0.7,4.4,5.1v19.7C125.5,71.4,125,71.8,120.5,72.1 M60.8,72.1
		c0.5,0,0.7,0,0.9-0.1c0.2-0.1,0.5,0,0.4,0.3c0,0.2-0.3,0.3-0.4,0.2c-0.1-0.1-0.1-0.2-0.3-0.1c-0.2,0-0.5,0-0.7,0
		C60.6,72.2,60.6,72.1,60.8,72.1 M62.5,71.3c0.1-0.2,0.2-0.4,0.3-0.9c0-0.2,0.2-0.2,0.2,0c0,0.2,0,0.5-0.1,0.7
		c-0.1,0.2,0,0.2,0.1,0.3c0.1,0.2,0,0.4-0.2,0.4C62.4,71.8,62.3,71.5,62.5,71.3 M63.1,72.3c0-0.3,0.3-0.3,0.5-0.2
		c0.2,0.1,0.4,0.2,0.9,0.2c0.2,0,0.2,0.1,0,0.2c-0.2,0-0.5,0-0.7,0c-0.2,0-0.2,0-0.3,0.1C63.3,72.6,63.1,72.5,63.1,72.3 M65.3,73.1
		c0.3-0.1,0.4-0.3,0.5-0.5c0.2-0.8,0.7-2.4,0.7-2.4c0.4,0,0.7-0.1,0.8-0.1c0.2,0,0.2,0,0.1,0.3c-0.3,0.7-0.5,1.6-0.7,2.3
		c-0.1,0.2-0.2,0.4-0.4,0.5c-0.2,0.1-0.9,0.2-1.1,0.2C65,73.3,65,73.1,65.3,73.1 M56.7,67.7c-0.2,0.1-0.1,0.3-0.1,0.5
		c0,0.4,0.1,2.1,0,3.3c0,0.4,0.1,0.9,0.6,1.2c1.6,0.8,5.8,1.4,9,0.9c0.8-0.1,1.1-0.5,1.3-1.3c0.3-1.2,0.7-1.9,1-2.3
		c0.9-1.3,0.6-2-0.7-2.6c-0.4-0.2-0.8-0.4-1.1-0.5c-0.1,0-0.1,0.1-0.1,0.4c0,0.2-0.2,0.4-0.3,0.5c-0.1,0.1-0.1,0.1-0.1,0.3
		c0,0.7-0.4,1.3-0.9,1.7c0.4,0,0.8-0.1,1.2-0.1c0,0,0.8-1,0.7-1.8c0-0.2,0.1-0.4,0.4-0.3c0.2,0.1,0.7,0.4,0.9,0.6
		c0.5,0.5,0.3,1.5-2.4,1.8c-0.4,0-0.8,0.1-1.3,0.1c-0.2,0.1-0.4,0.2-0.6,0.2c-0.3,0.1-0.3-0.1-0.2-0.2c-2.2,0-4.6-0.4-6.2-1
		c-0.8-0.3-1-0.8-0.9-1c0.1-0.2,0.4-0.3,0.7-0.2c0,0,0,0,0,0c0,0,0,0,0.1,0c0,0,0,0,0,0c0.2,0,0.7,0.1,0.8,0.2
		c0.2,0.1,0.1,0.3,0,0.2c-0.1,0-0.3,0-0.3,0.1c-0.1,0.1-0.1,0.3-0.1,0.6c0.5,0.2,1,0.3,1.6,0.4c0.2-0.6,0.4-1.1,0.4-1.5
		c-0.4,0.1-1,0.2-1.9,0C57.3,67.4,56.9,67.5,56.7,67.7 M65.1,69.2c-0.1,0.1-0.2,0.1-0.1-0.1c0.1-0.2,0.4-0.7,0.5-1
		c-0.2,0.1-0.5,0.1-0.7,0.1c0,0.5-0.2,0.9-0.3,1.2c-0.2,0.4-0.2,0.4,0,0.3c0.5-0.2,1.4-0.9,1.5-1.9c0,0-0.1,0.1-0.2,0.1
		C65.6,68.6,65.3,69,65.1,69.2 M62,65c0.4,1.1,1.3,2,2.4,2.7c0-0.1,0-0.1,0.1-0.2c0.1-0.2,0.3-0.6,0.5-1C63.9,66.1,62.9,65.7,62,65
		 M64.1,68.7c-0.7-0.1-1.4-0.3-2-0.5c0.3,0.4,1,0.9,1.5,1.2C63.7,69.3,63.9,69,64.1,68.7 M64.2,69.5c0.1-0.2,0.3-0.7,0.4-1.1
		c-0.1,0.2-0.3,0.6-0.6,1c-0.2,0.2-0.1,0.2,0,0.2C64,69.6,64.1,69.6,64.2,69.5 M59.1,56c-0.1,1.3,0.6,1.7,0.8,2.1
		c0.2,0.3,0.1,0.7-0.5,0.8c-1.8,0.2-3.4,1.2-4.5,1.5c-0.1,0-0.2,0,0-0.1c1.2-0.5,2.6-1.3,4.1-1.6c0.5-0.1,0.5-0.4,0.3-0.7
		c-0.1-0.2-0.7-0.8-0.5-2.1C59,55.8,59.1,55.7,59.1,56 M54,60.7c-0.2,0.3-0.7,0.4-0.9,0.4C53,61.1,53,61,53.1,61
		c0.1,0,0.5-0.2,0.7-0.5C53.9,60.3,54.2,60.5,54,60.7 M59.7,51.5c0.1,0,0.6-0.2,0.9-0.4c-0.2-0.2-0.3-0.3-0.5-0.5
		c-1.7,0.9-2.9,1.8-3.4,2.4c-0.4,0.5-0.3,1.4,0,1.9c0.1,0.3,0.8,1.2,1.3,1.7c0.2,0.3,0.6,1.2-0.1,1.5c-0.6,0.3-3.5,1.2-3.9,1.4
		c-0.6,0.2-1.1,0.6-1.2,0.8c-0.1,0.2-0.5,0.6-0.2,0.9c0.2,0.1,0.9,0.1,1.1,0c0.7-0.2,0.2-0.4,0.6-0.7c0.2-0.2,0.3,0,0.4,0.1
		c0.1,0.1,0.1,0.2,0.3,0.1c0.2-0.1,0.4-0.3,0.6-0.5c0.2-0.2,2.2-0.9,2.9-1.1c0.5-0.1,1.1-0.1,1.3-0.2c0.3-0.1,0.5-0.4,0.5-0.8
		c0-0.2-0.3-0.6-0.4-0.7c-0.3-0.3-0.8-0.9-0.5-2.1c0-0.2,0.1-0.2,0.2-0.2c0.2,0,0.6-0.1,0.8-0.1c0-0.1,0-0.2,0-0.3
		c0-0.2,0.1-0.4,0.2-0.7C60.4,54.1,59.5,53.3,59.7,51.5 M61.5,51.7C61.5,51.7,61.5,51.7,61.5,51.7c0-0.1,0-0.2,0-0.2
		c0-1.2-2.3-2-2.9-3.8c0,0,0,0-0.1,0c-0.1,0-0.3-0.1-0.6-0.2C58.5,49.4,61.2,50.8,61.5,51.7 M53.8,52.3c0.3,0.2,0.4,0.5,0.5,1.2
		c0,0.2-0.1,0.2-0.2,0.1c-0.1-0.3-0.2-0.6-0.5-0.9c0,0,0,0,0,0c-0.1,0.2-0.2,0.4-0.3,0.5c0.3,0.2,0.7,1.2,0.8,1.2
		c0.1,0.1,0.1,0.1,0.2,0c0.1-0.2,0.5-1.6-0.4-2.2c0,0,0,0-0.1,0C53.9,52.1,53.9,52.2,53.8,52.3 M53.7,54.3c0-0.4-0.3-0.8-0.4-1
		c-0.1,0.1-0.2,0.1-0.3,0.1c0.3,0.5,0.5,0.9,0.5,1C53.6,54.4,53.7,54.4,53.7,54.3 M35.2,64.9c0.3-0.4,0.6,0,1.1-0.4
		c0.3-0.3,0.4-0.8,0.1-1.2c0,0.5-0.2,0.8-0.6,0.7c-0.2,0-0.6-0.1-0.8,0.1c-0.2-0.5,0.3-0.5,0.2-1.1c-0.1-0.4-0.5-0.8-0.9-0.7
		c0.4,0.2,0.6,0.6,0.4,0.9c-0.1,0.2-0.4,0.4-0.3,0.7c-0.5-0.1-0.3-0.5-0.9-0.7c-0.4-0.1-0.9,0-1.1,0.5c0.4-0.2,0.8-0.2,0.9,0.1
		c0.1,0.2,0.2,0.6,0.5,0.6c-0.3,0.4-0.6,0-1.1,0.4c-0.3,0.3-0.4,0.8-0.1,1.2c0-0.5,0.2-0.8,0.6-0.7c0.2,0,0.6,0.1,0.8-0.1
		c0.2,0.5-0.3,0.5-0.2,1.1c0.1,0.4,0.5,0.8,0.9,0.7c-0.4-0.2-0.6-0.6-0.4-0.9c0.1-0.2,0.4-0.4,0.3-0.7c0.5,0.1,0.3,0.5,0.9,0.7
		c0.4,0.1,0.9,0,1.1-0.5c-0.4,0.2-0.8,0.2-0.9-0.1C35.6,65.2,35.5,64.9,35.2,64.9 M39.7,68.6c-0.2,0-0.6-0.1-0.8,0.1
		c-0.2-0.5,0.3-0.5,0.2-1.1c-0.1-0.4-0.5-0.8-0.9-0.7c0.4,0.2,0.6,0.6,0.4,0.9c-0.1,0.2-0.4,0.4-0.3,0.7c-0.5-0.1-0.3-0.5-0.9-0.7
		c-0.4-0.1-0.9,0-1.1,0.5c0.4-0.2,0.8-0.2,0.9,0.1c0.1,0.2,0.2,0.6,0.5,0.6c-0.3,0.4-0.6,0-1.1,0.4c-0.3,0.3-0.4,0.8-0.1,1.2
		c0-0.5,0.2-0.8,0.6-0.7c0.2,0,0.6,0.1,0.8-0.1c0.2,0.5-0.3,0.5-0.2,1.1c0.1,0.4,0.5,0.8,0.9,0.7c-0.4-0.2-0.6-0.6-0.4-0.9
		c0.1-0.2,0.4-0.4,0.3-0.7c0.5,0.1,0.3,0.5,0.9,0.7c0.4,0.1,0.9,0,1.1-0.5c-0.4,0.2-0.8,0.2-0.9-0.1c-0.1-0.2-0.2-0.6-0.5-0.6
		c0.3-0.4,0.6,0,1.1-0.4c0.3-0.3,0.4-0.8,0.1-1.2C40.3,68.4,40,68.7,39.7,68.6 M42.7,64.9c0.3-0.4,0.6,0,1.1-0.4
		c0.3-0.3,0.4-0.8,0.1-1.2c0,0.5-0.2,0.8-0.6,0.7c-0.2,0-0.6-0.1-0.8,0.1c-0.2-0.5,0.3-0.5,0.2-1.1c-0.1-0.4-0.5-0.8-0.9-0.7
		c0.4,0.2,0.6,0.6,0.4,0.9c-0.1,0.2-0.4,0.4-0.3,0.7c-0.5-0.1-0.3-0.5-0.9-0.7c-0.4-0.1-0.9,0-1.1,0.5c0.4-0.2,0.8-0.2,0.9,0.1
		c0.1,0.2,0.2,0.6,0.5,0.6c-0.3,0.4-0.6,0-1.1,0.4c-0.3,0.3-0.4,0.8-0.1,1.2c0-0.5,0.2-0.8,0.6-0.7c0.2,0,0.6,0.1,0.8-0.1
		c0.2,0.5-0.3,0.5-0.2,1.1c0.1,0.4,0.5,0.8,0.9,0.7c-0.4-0.2-0.6-0.6-0.4-0.9c0.1-0.2,0.4-0.4,0.3-0.7c0.5,0.1,0.3,0.5,0.9,0.7
		c0.4,0.1,0.9,0,1.1-0.5c-0.4,0.2-0.8,0.2-0.9-0.1C43.1,65.2,43,64.9,42.7,64.9 M48.9,62.7C46,68.1,41.6,71.2,38.4,73
		c-3.2-1.7-7.6-4.9-10.5-10.2c1.4,0.2,3.1-0.1,4.5-0.6c2.7-1.1,4.5-1.1,6,0.1c1.5-1.2,3.3-1.2,6-0.1C45.7,62.7,47.5,62.9,48.9,62.7
		 M52.3,52.9c-0.2-0.3-0.3-0.8-0.3-1.1c0.1-0.6,0.3-2.7,0.1-4.3c0-0.2,0.1-0.7,0.2-0.9c0,0,0-0.1,0.1-0.1v-7.4H38.5
		c-0.3,0.2-0.7,0.5-1,0.7h14.3v0.9c-0.1-0.1-0.3-0.1-0.5-0.1c0.4,0.2,0.6,0.6,0.4,0.9c-0.1,0.2-0.4,0.4-0.3,0.7
		c-0.5-0.1-0.3-0.5-0.9-0.7c-0.4-0.1-0.9,0-1.1,0.5c0.4-0.2,0.8-0.2,0.9,0.1c0.1,0.2,0.2,0.6,0.5,0.6c-0.3,0.4-0.6,0-1.1,0.4
		c-0.3,0.3-0.4,0.8-0.1,1.2c0-0.5,0.2-0.8,0.6-0.7c0.2,0,0.6,0.1,0.8-0.1c0.2,0.5-0.3,0.5-0.2,1.1c0.1,0.4,0.5,0.8,0.9,0.7
		c-0.4-0.2-0.6-0.6-0.4-0.9c0.1-0.2,0.4-0.4,0.3-0.7c0.1,0,0.2,0,0.2,0.1v2.7c-1.4,0.9-2.8,1.3-4,1.3c-1.5,0-2.7-0.5-3.6-0.9
		c-2.4-1.2-4.2-1.2-5.7,0l-0.1,0.1l-0.1-0.1c-1.4-1.2-3.3-1.2-5.7,0c-1.6,0.8-4.5,1.7-7.6-0.4v-0.7V45c0.1,0.1,0.3,0.1,0.5,0.1
		c-0.4-0.2-0.6-0.6-0.4-0.9c0.1-0.2,0.4-0.4,0.3-0.7c0.5,0.1,0.3,0.5,0.9,0.7c0.4,0.1,0.9,0,1.1-0.5c-0.4,0.2-0.8,0.2-0.9-0.1
		c-0.1-0.2-0.2-0.6-0.5-0.6c0.3-0.4,0.6,0,1.1-0.4c0.3-0.3,0.4-0.8,0.1-1.2c0,0.5-0.2,0.8-0.6,0.7c-0.2,0-0.6-0.1-0.8,0.1
		c-0.2-0.5,0.3-0.5,0.2-1.1c-0.1-0.4-0.5-0.8-0.9-0.7c0.4,0.2,0.6,0.6,0.4,0.9c-0.1,0.2-0.4,0.4-0.3,0.7c-0.1,0-0.2,0-0.2-0.1v-1.8
		v-0.5h8.4c-0.1-0.2-0.1-0.4-0.2-0.7h-8.9V51c0,1.1,0,2.3,0.1,3.2c0.2,0.1,0.5,0.2,0.6,0.2c0.1,0,0.1-0.1,0.2-0.1
		c-0.1-1.1-0.2-2.3-0.2-3.6v-0.2c2.3,1.2,4.5,1.3,7.1,0.4c2.3-0.9,4.3-1.1,6.3,0.6c2-1.7,4-1.5,6.3-0.6c2.5,0.9,4.8,0.8,7.1-0.4v0.2
		c0,2.8-0.4,5.3-1,7.5c-0.9,0.4-1.9,0.6-2.9,0.6c-1.2,0-2.3-0.3-3.4-0.9c-2.2-1.2-3.9-1.2-5.9,0L38.4,58L38.3,58
		c-2.1-1.2-3.7-1.2-5.9,0c-1.9,1-4.2,1.2-6.3,0.3c-0.3-0.9-0.5-1.9-0.7-2.9c-0.2,1.2,0.1,2.3,0.2,2.6c0.1,0.2,0.2,0.6,0.6,0.8
		c0.2,0.1,0.2,0.2,0,0.3c-0.1,0.1-0.4,0.1-0.6,0.1c2.8,7.9,8.8,12.5,12.8,14.6C43.4,71.1,51.3,65.1,52.3,52.9 M50,38.2
		c-0.3,0.3-0.5,0.2-0.2-0.1c0.3-0.4,0.7-0.7,1-1.2c0.2-0.3,0.4-0.3,0.6-0.2c0.3,0.1,0.6,0.2,1,0c0.6-0.3,0.4,0.1,0.5,0.2
		c0.4,0.5,0.9,1.4,1.3,2.3c0.1,0.2,0.5,1,1.4,0.9c0.2-0.4,0.6-0.8,1.1-1.2c-0.2,0-0.2-0.1-0.2-0.2c0-0.1,0.1-0.2,0.2-0.3
		c-0.5-0.4-1-0.6-1.3-0.8c-0.3-0.1-1.1-0.5-1.4-0.7c-0.3-0.2-0.8-0.6-0.9-0.8c-0.2-0.4-0.4-0.4-0.8-0.4c-0.2,0-0.6,0.1-0.8,0.1
		c-0.3,0-0.5,0.2-0.6,0.3c-0.2,0.2-1.2,1.3-2.5,2c-0.3,0.1-0.5,0.3-0.6,0.6h1.8c0.5-0.4,1.2-1.2,1.4-1.3c0.1-0.1,0.3-0.2,0.5-0.2
		c0.2,0,0.4,0,0.5,0c0.1,0,0.3,0,0.5,0.4c0.5,0.8,1.1,2.7,1.2,3c0.1,0.3,0.2,0.5,0.5,0.7c0.2,0.1,0.4,0.1,0.7,0.1
		c0-0.1,0-0.3,0.1-0.5c-0.7,0-0.8-0.1-1.1-0.8c-0.1-0.3-0.8-1.9-1.5-2.9c-0.1-0.2-0.2-0.2-0.3-0.1c-0.3,0.2-0.6,0.2-0.9,0
		c-0.1-0.1-0.2,0-0.4,0.1C50.9,37.2,50.5,37.8,50,38.2 M55.5,41.4C55.5,41.4,55.5,41.4,55.5,41.4L55.5,41.4L55.5,41.4z M46.5,36.6
		c0,0.3,0,1-0.2,1.6c-0.1,0.2-0.2,0.2-0.1,0c0.2-0.5,0.1-1.2,0.1-1.5c-0.2,0-0.3,0-0.5,0c0.1,0.4,0.1,1.3-0.5,2.1h1.1
		c0.5-0.6,0.5-1.7,0.4-2.1C46.6,36.6,46.6,36.6,46.5,36.6 M40.5,36.4c-0.2,0.2-1,1-1.2,1.2c-0.1,0.1-0.3,0.1-0.5,0
		c-0.5-0.3-2.1-1.1-2.7-1.3c-0.2-0.1-0.2-0.2-0.1-0.3c0.2-0.2,0.5-0.4,0.6-0.6c0.1-0.1,0.2-0.1,0.3-0.1c0.4,0.1,2,0.8,2.6,1.1
		c0.2,0.1,0.3,0.1,0.4,0c0.1,0,0.3-0.2,0.5-0.3C40.6,36.3,40.6,36.4,40.5,36.4 M42,35.1c-0.1,0.1-0.2,0-0.1-0.1
		c0.1-0.1,0.3-0.3,0.4-0.4c0.1-0.2-0.2-0.3-0.4-0.3c-0.5,0.5-1.2,1.1-2,1.5c-0.3,0.1-0.5,0.1-0.6-0.3c-0.1-0.5-0.2-1-0.2-1.6
		c-1.5,0.5-2.6,1.3-3.4,2c-0.1,0.1-0.3,0.2-0.4,0c-0.3-0.4-0.7-0.8-1.1-1.3c-1.7,2.1-0.3,5.6-0.3,5.7c0.1,0.1,0.2,0.2,0.3,0.2
		c3.5-0.2,6.2-3.8,7.1-4.5c1.7-1.6,3.1-1.3,3.6-0.9c0.1-0.1,0.1-0.1,0.2-0.2C43.8,33.8,42.1,35,42,35.1 M38.9,25.2
		c0.2-0.1-0.4-0.1-0.5-0.1c-0.1,0-2.2,0.8-4.2,1.5c-0.2,0.1-0.3,0-0.2-0.1c0.1-0.1,1.9-1,2.2-2.6c0-0.1,0.1-0.2,0.3-0.2
		c0.5-0.2,2.8-0.9,3.5-1.2c-0.1-0.1-0.1-0.2-0.2-0.3c-0.5,0.2-2.2,0.7-3.7,1.2c-0.2,0.1-0.3,0.2-0.3,0.3c-0.3,1.3-1.1,1.9-2.7,2.5
		c-0.4,0.2-2.7,0.9-4,0.9c-0.3,0-0.3-0.1-0.2-0.3c0.3-0.6,1.3-1.7,1.5-2.1c0.1-0.1,0.4-0.9,0.7-1.2c0.2-0.2,0.1-0.2-0.1-0.1
		c-1.6,1.3-3.8,4.2-4,4.7C27,28.3,30,28.7,38.9,25.2 M38.5,23.8c0,0.3,0.3,0.6,0.6,0.6s0.6-0.3,0.6-0.6s-0.3-0.6-0.6-0.6
		S38.5,23.4,38.5,23.8 M37.3,25c0.3,0,0.6-0.3,0.6-0.6c0-0.3-0.3-0.6-0.6-0.6c-0.3,0-0.6,0.3-0.6,0.6C36.7,24.8,36.9,25,37.3,25
		 M42.2,21.7c-0.4-0.4-0.6-1.1-0.7-1.2c0-0.4,0.2-0.4,0.5-0.1c0.1,0.1,0,0.2-0.1,0.1c-0.1-0.1-0.2-0.1-0.2,0
		c0.2,0.6,0.7,1.1,0.9,1.3c0.5,0.1,0.9,0.1,1.2,0.1c-0.4-0.6-0.4-1.3-0.8-1.8c-0.1-0.1-0.2-0.2-0.4-0.3c0.2,0.4,0.3,0.9,0.3,1.1
		c0,0.4-0.3,0.4-0.5,0c-0.1-0.1,0-0.2,0.1-0.1c0.1,0.1,0.2,0.1,0.2,0c-0.1-0.4-0.3-0.8-0.5-1.1c-0.4,0.1-0.9,0.2-1.4,0.2
		c0.2,0.4,0.3,1.3,1.1,1.7C42.1,21.6,42.2,21.7,42.2,21.7 M44.5,21.1c0.2,0,0.1,0.1,0,0.1c-0.2,0-0.2,0.1-0.1,0.1
		c0.6,0.2,1.2,0.2,1.4,0.1c0-0.1,0-0.3,0-0.5c-0.3-1.2-2.7-1.2-2.6-1.1c0.1,0.1,0.2,0.2,0.2,0.4c0.6,0,1.4,0.1,1.7,0.2
		c0.3,0.2,0.1,0.4-0.2,0.4c-0.2,0-0.1-0.1,0-0.1c0.2,0,0.2-0.1,0.1-0.1c-0.3-0.2-1-0.2-1.4-0.2c0.1,0.3,0.2,0.6,0.3,0.8
		c0.1,0.3,0.3,0.5,0.6,0.6c0.7,0.2,1.1,0,1.3-0.2c-0.6,0-1.3-0.1-1.4-0.2C44,21.4,44.1,21.1,44.5,21.1 M43.8,13.5L43.8,13.5l-0.2,1
		c0.1,0,0.3,0,0.4-0.1l0.1-0.6l0.3,0l-0.1,0.6c0.1,0,0.2,0,0.3-0.1l0.1-0.6l0.3,0L45,14.3c0.1,0,0.2,0,0.3-0.1l0.1-0.6l0.3,0
		l-0.1,0.6c0.1,0,0.2,0,0.3-0.1l0.1-0.6l0.3,0l-0.1,0.6c0.1,0,0.2,0,0.3-0.1l0.1-0.6l0.3,0L47,14c0.1,0,0.3,0,0.4-0.1c0,0,0,0,0,0
		l0.2-1C46.4,13.1,44.8,13.4,43.8,13.5 M47.4,14.1c-1.4,0.2-2.8,0.5-3.9,0.6c-0.2,0-0.2,0.3,0.1,0.3c0.9-0.1,2.8-0.5,3.9-0.7
		C47.6,14.4,47.6,14.1,47.4,14.1 M39.2,10C39.2,10,39.2,10,39.2,10c0,0.1,0,0.2,0,0.2c0,0,0,0,0,0c0,0.1,0.1,0.1,0.1,0.1
		c0,0,0.1,0,0.1,0c0,0.1,0.1,0.1,0.1,0.1c0,0,0.1,0,0.1-0.1c0,0,0,0,0.1,0c0,0,0.1-0.1,0.1-0.1c0,0,0,0,0,0c0,0,0.1-0.1,0.1-0.2
		c0,0,0-0.1,0-0.1c0,0,0,0,0-0.1c0,0,0-0.1,0-0.1c-0.1,0-0.1-0.1-0.2-0.2c0,0,0,0,0,0V9.5l0.2-0.3h-0.2c0-0.1-0.1-0.1-0.1-0.1
		c0,0-0.1,0-0.1,0.1h-0.2l0.2,0.3v0.1c0,0,0,0,0,0c-0.1,0.1-0.1,0.2-0.2,0.2C39.2,9.8,39.2,9.9,39.2,10C39.2,9.9,39.2,10,39.2,10
		 M36.9,10.2C36.8,10.2,36.8,10.2,36.9,10.2c0,0.1,0,0.2,0,0.2c0,0,0,0,0,0c0,0.1,0.1,0.1,0.1,0.1c0,0,0.1,0,0.1,0
		c0,0,0.1,0.1,0.1,0.1s0.1,0,0.1-0.1c0,0,0,0,0.1,0c0,0,0.1-0.1,0.1-0.1c0,0,0,0,0,0c0,0,0.1-0.1,0.1-0.1c0,0,0-0.1,0-0.1
		c0,0,0,0,0-0.1c0,0,0-0.1,0-0.1c0,0-0.1-0.1-0.2-0.2c0,0,0,0,0,0V9.7l0.2-0.3h-0.2c0-0.1-0.1-0.1-0.1-0.1s-0.1,0-0.1,0.1h-0.2
		l0.2,0.3v0.1c0,0,0,0,0,0C37,10,36.9,10,36.9,10C36.9,10.1,36.8,10.1,36.9,10.2C36.8,10.2,36.8,10.2,36.9,10.2 M35.3,10h-0.2
		c0-0.1-0.1-0.1-0.1-0.1c0,0-0.1,0-0.1,0.1h-0.2l0.2,0.3v0.1c0,0,0,0,0,0c-0.1,0.1-0.1,0.2-0.2,0.2c0,0,0,0.1,0,0.1c0,0,0,0,0,0.1
		c0,0,0,0,0,0.1c0,0.1,0,0.1,0.1,0.1c0,0,0,0,0,0c0,0.1,0.1,0.1,0.1,0.1c0,0,0.1,0,0.1,0c0,0,0.1,0.1,0.1,0.1c0,0,0.1,0,0.1-0.1
		c0,0,0,0,0.1,0c0,0,0.1-0.1,0.1-0.1c0,0,0,0,0,0c0,0,0.1-0.1,0.1-0.1c0,0,0-0.1,0-0.1c0,0,0,0,0-0.1c0,0,0-0.1,0-0.1
		c0,0-0.1-0.1-0.2-0.2c0,0,0,0,0,0v-0.1L35.3,10z M35.1,7.9c0.1-0.2,0.2,0,0.3-0.2c0.1-0.1,0.1-0.3,0-0.4c0,0.2-0.1,0.3-0.2,0.3
		c-0.1,0-0.2,0-0.2,0.1c-0.1-0.2,0.1-0.2,0.1-0.4c0-0.1-0.1-0.2-0.3-0.2C35,7.1,35,7.2,35,7.3c0,0.1-0.1,0.2-0.1,0.2
		c-0.1,0-0.1-0.2-0.2-0.2c-0.1,0-0.2,0.1-0.3,0.2c0.1-0.1,0.2-0.1,0.3,0c0,0.1,0,0.2,0.1,0.2c-0.1,0.2-0.2,0-0.3,0.2
		c-0.1,0.1-0.1,0.3,0,0.4c0-0.2,0.1-0.3,0.2-0.3c0.1,0,0.2,0,0.2-0.1c0.1,0.2-0.1,0.2-0.1,0.4c0,0.1,0.1,0.2,0.3,0.2
		c-0.1-0.1-0.2-0.2-0.1-0.3c0-0.1,0.1-0.2,0.1-0.2c0.1,0,0.1,0.2,0.2,0.2c0.1,0,0.2-0.1,0.3-0.2c-0.1,0.1-0.2,0.1-0.3,0
		C35.2,8,35.2,7.9,35.1,7.9 M37.4,7.5c0.1-0.2,0.2,0,0.3-0.2c0.1-0.1,0.1-0.3,0-0.4c0,0.2-0.1,0.3-0.2,0.3c-0.1,0-0.2,0-0.2,0.1
		c-0.1-0.2,0.1-0.2,0.1-0.4c0-0.1-0.1-0.2-0.3-0.2c0.1,0.1,0.2,0.2,0.1,0.3c0,0.1-0.1,0.2-0.1,0.3C37,7.2,37.1,7,36.9,7
		c-0.1,0-0.3,0.1-0.3,0.2c0.1-0.1,0.2-0.1,0.3,0c0,0.1,0.1,0.2,0.1,0.2c-0.1,0.2-0.2,0-0.3,0.2c-0.1,0.1-0.1,0.3,0,0.4
		c0-0.2,0.1-0.3,0.2-0.3c0.1,0,0.2,0,0.2-0.1C37.1,7.7,36.9,7.8,37,8c0,0.1,0.1,0.2,0.3,0.2c-0.1-0.1-0.2-0.2-0.1-0.3
		c0-0.1,0.1-0.2,0.1-0.3c0.2,0,0.1,0.2,0.3,0.2c0.1,0,0.3-0.1,0.3-0.2c-0.1,0.1-0.2,0.1-0.3,0C37.5,7.6,37.5,7.5,37.4,7.5 M40,7.5
		c0.1,0,0.3-0.1,0.3-0.2c-0.1,0.1-0.2,0.1-0.3,0c0-0.1-0.1-0.2-0.1-0.2c0.1-0.2,0.2,0,0.3-0.2c0.1-0.1,0.1-0.3,0-0.4
		c0,0.2-0.1,0.3-0.2,0.3c-0.1,0-0.2,0-0.2,0.1C39.9,6.7,40,6.7,40,6.4c0-0.1-0.1-0.2-0.3-0.2c0.1,0.1,0.2,0.2,0.1,0.3
		c0,0.1-0.1,0.2-0.1,0.3c-0.2,0-0.1-0.2-0.3-0.2c-0.1,0-0.3,0.1-0.3,0.2c0.1-0.1,0.2-0.1,0.3,0c0,0.1,0.1,0.2,0.1,0.2
		c-0.1,0.2-0.2,0-0.3,0.2c-0.1,0.1-0.1,0.3,0,0.4c0-0.2,0.1-0.3,0.2-0.3c0.1,0,0.2,0,0.2-0.1c0.1,0.2-0.1,0.2-0.1,0.4
		c0,0.1,0.1,0.2,0.3,0.2c-0.1-0.1-0.2-0.2-0.1-0.3c0-0.1,0.1-0.2,0.1-0.3C39.9,7.3,39.9,7.5,40,7.5 M36.4,12.6
		c0.1-0.2,0.2-0.1,0.2-0.2c0.1-0.1,0.1-0.3,0-0.4c0,0.1,0,0.3-0.1,0.3c-0.1,0-0.2,0-0.2,0.1c-0.1-0.1,0-0.2,0-0.4
		c0-0.1-0.2-0.2-0.3-0.1c0.1,0,0.2,0.1,0.2,0.2c0,0.1-0.1,0.2,0,0.3c-0.1,0-0.1-0.1-0.3-0.1c-0.1,0-0.2,0.1-0.2,0.3
		c0.1-0.1,0.2-0.1,0.2-0.1c0,0.1,0.1,0.2,0.2,0.1c-0.1,0.2-0.2,0.1-0.2,0.2c-0.1,0.1,0,0.3,0,0.4c0-0.1,0-0.3,0.1-0.3
		c0.1,0,0.2,0,0.2-0.1c0.1,0.1,0,0.2,0,0.4c0,0.1,0.2,0.2,0.3,0.1c-0.1,0-0.2-0.1-0.2-0.2c0-0.1,0.1-0.2,0-0.3
		c0.1,0,0.1,0.1,0.3,0.1c0.1,0,0.2-0.1,0.2-0.3c-0.1,0.1-0.2,0.1-0.2,0.1C36.6,12.7,36.5,12.6,36.4,12.6 M39.3,12.2
		c-0.1,0.1-0.2,0.2-0.2,0.1c0-0.1-0.1-0.2-0.2-0.1c0-0.2,0.1-0.1,0.2-0.3c0.1-0.1,0-0.3-0.1-0.4c0,0.1,0,0.3-0.1,0.3
		c-0.1,0-0.2,0-0.2,0.1c-0.1-0.1,0-0.2,0-0.4c0-0.1-0.2-0.2-0.3-0.1c0.1,0,0.2,0.1,0.2,0.2c0,0.1-0.1,0.2,0,0.3
		c-0.1,0-0.1-0.1-0.3-0.1c-0.1,0-0.2,0.1-0.2,0.3c0.1-0.1,0.2-0.2,0.2-0.1c0,0.1,0.1,0.2,0.2,0.1c0,0.2-0.1,0.1-0.2,0.3
		c-0.1,0.1,0,0.3,0.1,0.4c0-0.1,0-0.3,0.1-0.3c0.1,0,0.2,0,0.2-0.1c0.1,0.1,0,0.2,0,0.4c0,0.1,0.2,0.2,0.3,0.1
		c-0.1,0-0.2-0.1-0.2-0.2c0-0.1,0.1-0.2,0-0.3c0.1,0,0.1,0.1,0.3,0.1C39.2,12.5,39.3,12.3,39.3,12.2 M41.6,13.9
		c-1.2-0.5-2.3-0.8-3.2-0.8c-1.5,0-2.7,0.7-3.1,2c-0.4-0.7-0.9-1.6-1.2-2.5c0.4,0,1-0.2,1.4-0.5c0.9-0.8,1.3-0.7,1.9-0.2
		c0.5-0.6,1-0.8,2-0.4c0.5,0.2,1.1,0.2,1.5,0.1c0,0.1,0,0.3,0.1,0.4C41,12.7,41.3,13.4,41.6,13.9 M39.1,8.1
		c-0.6-0.3-1.4-0.2-1.9,0.4c-0.8-0.5-1.4-0.2-1.8,0.1c-0.6,0.4-1.2,0.8-1.8,0.7c0.1-0.9,0.3-1.8,0.8-2.6c0.2,0.1,0.4,0.2,0.6,0.2
		c0.4,0,0.8-0.2,1.1-0.5c0,0,0,0,0,0c0.2,0.1,0.4,0.2,0.7,0.2c0.2,0,0.6-0.1,1-0.5c0,0,0.1,0,0.1,0c0.2,0.1,0.4,0.2,0.6,0.2
		c0.4,0,0.8-0.2,1.1-0.5c0,0,0.1,0,0.1,0C39.7,5.9,40,6,40.2,6c0.4,0,0.8-0.2,1.1-0.5c0,0,0,0,0.1,0c0.2,0.1,0.4,0.2,0.7,0.2
		c0.1,0,0.2,0,0.3,0c-0.4,0.7-0.8,1.4-1,2.1C40.6,8.3,39.7,8.4,39.1,8.1 M33.5,10c0.5,0,1.1-0.2,1.6-0.6c1-0.7,1.5-0.8,2-0.3
		c0.5-0.7,1.1-0.8,2-0.4c0.5,0.2,1.4,0.2,1.8,0c-0.2,0.7-0.3,1.3-0.2,2c-0.5,0.2-1,0.1-1.5-0.1c-0.6-0.2-1.3-0.3-2,0.4
		c-0.8-0.3-1.3-0.3-2,0.4c-0.4,0.4-0.9,0.6-1.4,0.6C33.7,11.3,33.5,10.6,33.5,10 M41.2,11.7c-0.4-2.1,0.3-4.4,2-6.8
		c-0.1,0-0.1,0-0.2,0c-0.2,0.4-0.7,0.5-1,0.5c-0.2,0-0.5-0.1-0.6-0.2c0,0,0,0,0,0c-0.1,0-0.2,0-0.3,0c-0.2,0.3-0.6,0.5-0.9,0.5
		c-0.2,0-0.4-0.1-0.6-0.3c-0.1,0-0.2,0-0.4,0C39.1,5.8,38.7,6,38.4,6C38.2,6,38,6,37.8,5.8c-0.1,0-0.2,0-0.4,0.1
		c-0.3,0.4-0.6,0.4-0.8,0.4c-0.2,0-0.4-0.1-0.6-0.2c-0.1,0-0.1,0-0.2,0l-0.1,0c-0.2,0.3-0.5,0.5-0.9,0.5c-0.2,0-0.4-0.1-0.5-0.2
		c-0.1,0-0.2,0-0.2,0c-2.1,3.4,0,7.4,1.2,9.2c0.3-1.5,1.4-2.4,3-2.4c1.2,0,2.6,0.5,4.1,1.4C42,14.1,41.4,13.1,41.2,11.7 M41.6,5.1
		c0.2,0.2,0.8,0.2,1.1-0.2C42.4,4.9,42,5,41.6,5.1 M39.8,5.2C40.4,5,41,4.9,41.6,4.8c-0.1-0.1-0.1-0.2,0-0.3
		c-0.6,0.1-1.2,0.2-1.8,0.3C39.7,5,39.7,5.1,39.8,5.2 M40.8,5.2c-0.3,0.1-0.7,0.1-1,0.2C40.1,5.6,40.6,5.5,40.8,5.2 M39.5,4.9
		c-0.6,0.1-1.2,0.2-1.7,0.3c0,0.1,0,0.2,0,0.3c0.6-0.1,1.1-0.2,1.7-0.3C39.5,5.1,39.5,5,39.5,4.9 M38.2,4l0,0.9c0.1,0,0.2,0,0.2,0
		l0-0.9C38.3,4,38.2,4,38.2,4 M34.3,6.1c0.4-0.1,0.9-0.2,1.5-0.3c-0.1-0.1-0.1-0.2,0-0.3c-0.6,0.1-1.1,0.2-1.5,0.3
		C34.2,5.9,34.2,6,34.3,6.1 M35.5,6.1c-0.3,0.1-0.6,0.1-0.9,0.2C34.8,6.5,35.3,6.4,35.5,6.1 M37.9,4.1l-3.2,1.4
		c0.2,0,0.5-0.1,0.8-0.1l2.5-1c0,0,0.1,0,0.1,0l0-0.2C38,4.1,37.9,4.1,37.9,4.1 M36,5.8c0.5-0.1,1.1-0.2,1.6-0.3
		c-0.1-0.1-0.1-0.2,0-0.3c-0.6,0.1-1.1,0.2-1.6,0.3C35.9,5.6,35.9,5.7,36,5.8 M37.2,5.8c-0.3,0.1-0.6,0.1-0.9,0.1
		C36.5,6.1,36.9,6.2,37.2,5.8 M39,5.5c-0.3,0.1-0.6,0.1-0.9,0.2C38.3,5.9,38.8,5.7,39,5.5 M44.3,16.9c-0.2,0.2-0.2,0.1-0.1-0.1
		c0.1-0.1,0.8-0.8,1.4-2c-0.1,0-0.2,0-0.2,0c-0.5,1-1.5,2.4-3.8,3.1c0,0.2-0.2,0.4-0.4,0.4c-0.2,0-0.3-0.1-0.4-0.2
		c-0.2,0-0.3,0.1-0.5,0.1c0,0.2-0.2,0.4-0.4,0.4c-0.2,0-0.4-0.1-0.4-0.3c-0.2,0-0.3,0-0.5,0c-0.1,0.2-0.2,0.3-0.4,0.3
		c-0.2,0-0.4-0.1-0.4-0.3c-0.2,0-0.3,0-0.5,0c-0.1,0.2-0.2,0.3-0.4,0.3c-0.2,0-0.4-0.2-0.4-0.4c-0.2,0-0.4-0.1-0.5-0.1
		c-0.1,0.1-0.2,0.2-0.4,0.2c-0.2,0-0.4-0.2-0.4-0.4c-2.3-0.7-3.4-2.1-3.8-3.1c-0.1,0-0.2,0-0.2,0c0.6,1.2,1.3,1.9,1.4,2
		c0.1,0.2,0.1,0.2-0.1,0.1c-0.2-0.2-1-1-1.5-2.1c-0.1,0-0.1,0-0.2,0c0.6,1.4,2.2,4.3,7.7,4.3c5.5,0,7-2.9,7.7-4.3
		c-0.1,0-0.1,0-0.2,0C45.3,15.9,44.6,16.7,44.3,16.9 M43.6,16.5C43.4,16.6,43.4,16.6,43.6,16.5c0-0.1,0.6-0.6,1.1-1.5
		c-0.1,0-0.2,0-0.3,0c-0.6,1-2.1,2.4-6,2.4c-3.9,0-5.5-1.4-6-2.4c-0.1,0-0.2,0-0.3,0c0.5,0.9,1.1,1.3,1.2,1.4
		c0.1,0.1,0.1,0.2-0.1,0.1c-0.2-0.2-0.8-0.7-1.3-1.5c-0.1,0-0.2,0-0.2,0c0.4,0.8,1.4,2.1,3.6,2.8c0.1-0.1,0.2-0.2,0.4-0.2
		c0.2,0,0.4,0.2,0.4,0.4c0.2,0,0.3,0.1,0.5,0.1c0.1-0.2,0.2-0.3,0.4-0.3c0.2,0,0.4,0.2,0.4,0.4c0.2,0,0.3,0,0.5,0
		c0.1-0.2,0.2-0.3,0.4-0.3c0.2,0,0.4,0.1,0.4,0.3c0.2,0,0.3,0,0.5,0c0-0.2,0.2-0.4,0.4-0.4c0.2,0,0.4,0.1,0.4,0.3
		c0.2,0,0.3-0.1,0.5-0.1c0-0.2,0.2-0.4,0.4-0.4c0.2,0,0.3,0.1,0.4,0.2c2.3-0.7,3.3-2,3.6-2.8c-0.1,0-0.2,0-0.2,0
		C44.4,15.8,43.8,16.3,43.6,16.5 M29.3,14.4c1.1,0.2,3,0.5,3.9,0.7c0.2,0,0.3-0.3,0.1-0.3c-1.2-0.2-2.5-0.4-3.9-0.6
		C29.2,14.1,29.1,14.4,29.3,14.4 M29.1,12.9l0.2,1c0,0,0,0,0,0c0.1,0,0.3,0,0.4,0.1l-0.1-0.6l0.3,0l0.1,0.6c0.1,0,0.2,0,0.3,0.1
		l-0.1-0.6l0.3,0l0.1,0.6c0.1,0,0.2,0,0.3,0.1L31,13.6l0.3,0l0.1,0.6c0.1,0,0.2,0,0.3,0.1l-0.1-0.6l0.3,0l0.1,0.6
		c0.1,0,0.2,0,0.3,0.1l-0.1-0.6l0.3,0l0.1,0.6c0.1,0,0.3,0,0.4,0.1l-0.2-1h0C31.9,13.4,30.4,13.1,29.1,12.9 M28.8,12.6
		c1.3,0.2,3.3,0.5,4.3,0.7c0.3,0,0.3-0.3,0.1-0.3c-1.3-0.2-2.7-0.4-4.3-0.7C28.6,12.3,28.6,12.6,28.8,12.6 M33.4,6.2
		c0.2,0,0.4-0.1,0.6-0.1C34,6,34,5.9,34,5.8c-0.3,0-0.5,0.1-0.6,0.1C33.1,6,33.1,6.3,33.4,6.2 M37.3,14.5l0.1-0.4l-0.3,0L37,14.5
		L37.3,14.5z M37.1,13.8l0,0.1c0.1,0,0.2,0,0.3,0l0-0.3C37.3,13.7,37.2,13.8,37.1,13.8 M37.2,15.1l0.1-0.4l-0.3,0l-0.1,0.4
		L37.2,15.1z M37.2,15.7l0.1-0.4l-0.3,0l-0.1,0.4L37.2,15.7z M36.5,14.4l0.3,0l0.1-0.4l-0.2,0c0,0,0,0-0.1,0L36.5,14.4z M37.1,16.3
		l0.1-0.4l-0.3,0l-0.1,0.4C36.8,16.3,37,16.3,37.1,16.3 M36.4,15l0.3,0l0.1-0.4l-0.3,0L36.4,15z M36.6,15.6l0.1-0.4l-0.3,0l-0.1,0.4
		L36.6,15.6z M36.5,16.2l0.1-0.4l-0.3,0l-0.1,0.4C36.3,16.2,36.4,16.2,36.5,16.2 M38.4,13.6c-0.1,0-0.2,0-0.2,0l-0.1,2.7
		c0.1,0,0.2,0,0.3,0c0,0,0,0,0.1,0L38.4,13.6z M40.5,15.6l0.3,0l-0.1-0.4l-0.3,0L40.5,15.6z M40.8,15.8l-0.3,0l0.1,0.4
		c0.1,0,0.2,0,0.3-0.1L40.8,15.8z M40.4,15l0.3,0l-0.1-0.4l-0.3,0L40.4,15z M40.3,14.4l0.3,0L40.5,14l-0.3,0L40.3,14.4z M40,16.3
		c0.1,0,0.2,0,0.4,0l-0.1-0.4l-0.3,0L40,16.3z M40,15.7l0.3,0l-0.1-0.4l-0.3,0L40,15.7z M39.9,15.1l0.3,0l-0.1-0.4l-0.3,0L39.9,15.1
		z M39.8,14.5l0.3,0L40,14.1l-0.3,0L39.8,14.5z M39.7,13.9l0.3,0l0-0.1c-0.1,0-0.2-0.1-0.3-0.1L39.7,13.9z M43.4,15.2
		c-0.4,0.4-1.5,1.3-5,1.3c-3.5,0-4.5-0.9-5-1.3c0,0,0,0-0.1,0c-0.1,0-0.2,0-0.2,0c0.4,0.4,0.7,0.7,0.8,0.7c0.1,0.1,0,0.2-0.1,0.1
		c-0.1-0.1-0.5-0.4-0.9-0.8c-0.1,0-0.2,0-0.3,0c0.5,0.8,2,2.1,5.8,2.1c3.8,0,5.3-1.4,5.8-2.1c-0.1,0-0.2,0-0.3,0
		c-0.4,0.4-0.8,0.7-0.9,0.8c-0.1,0.1-0.2,0-0.1-0.1c0,0,0.4-0.3,0.8-0.7C43.6,15.2,43.5,15.2,43.4,15.2
		C43.4,15.2,43.4,15.2,43.4,15.2 M47.2,14.6c-0.1,0-0.2,0-0.3,0.1c-0.5,1.4-1.6,2.6-1.9,2.9c-0.2,0.2-0.2,0.1-0.1-0.1
		c0.1-0.1,1.1-1.2,1.8-2.8c-0.1,0-0.2,0-0.3,0.1c-0.7,1.8-2.4,4.6-7.9,4.6c-5.5,0-7.2-2.8-7.9-4.6c-0.1,0-0.2,0-0.3-0.1
		c0.7,1.6,1.7,2.7,1.8,2.8c0.1,0.2,0.1,0.2-0.1,0.1c-0.3-0.3-1.3-1.5-1.9-2.9c-0.1,0-0.2,0-0.4-0.1c0.5,1.1,2,4,4.8,4.8
		c1,0.3,2.1,0.2,3.9,0.2s2.9,0.1,3.9-0.2C45.1,18.6,46.7,15.7,47.2,14.6 M36.4,20.6c-0.1-0.3,0.2-0.4,0.5-0.2c0.1,0.1,0,0.2-0.1,0.1
		c-0.1-0.1-0.2-0.1-0.2,0c0.2,0.5,0.7,0.8,1,1c0.5,0,1-0.1,1.2-0.1c-0.5-0.4-0.6-1.2-1.1-1.5c-0.1,0-0.2,0-0.3,0
		c0.3,0.4,0.5,0.8,0.5,0.9c0.1,0.4-0.2,0.4-0.5,0.1c-0.1-0.1,0-0.2,0.1-0.1c0.1,0.1,0.2,0.1,0.2,0c-0.1-0.3-0.4-0.7-0.6-0.9
		c-0.7,0-1.3,0-1.8-0.1c0,0,0,0,0,0c0.6,0.3,0.7,1.4,1.7,1.6c0.1,0,0.1,0,0.2,0C36.8,21.2,36.5,20.7,36.4,20.6 M34.6,21.9
		c0.5,0.1,1.5-0.2,1.8-0.3c-0.2-0.1-0.3-0.2-0.4-0.4c-0.6,0.3-1.4,0.4-1.6,0.3c-0.4-0.1-0.3-0.3,0.1-0.5c0.2-0.1,0.2,0.1,0.1,0.1
		c-0.1,0.1-0.2,0.2-0.1,0.2c0.6,0,1.1-0.2,1.4-0.3c-0.2-0.3-0.4-0.7-0.7-1c-0.1-0.1-0.3-0.2-0.6-0.1c-0.3,0-1.1,0.2-1.7,0.5
		c0.1,0.1,0.1,0.1,0.2,0.2c0.5-0.2,1.4-0.5,1.8-0.4c0.3,0,0.3,0.3-0.1,0.5c-0.1,0-0.2-0.1-0.1-0.1c0.1-0.1,0.2-0.2,0.1-0.2
		c-0.4,0-1.1,0.3-1.5,0.4C33.6,21.3,33.9,21.8,34.6,21.9 M32.2,19.8c-0.1,0-0.2,0-0.3-0.1c0-0.1-0.1-0.6-0.1-0.8
		c0-0.2,0.1-0.2,0.1,0c0,0.1,0.1,0.6,0.2,0.7c0.1,0.1,0.6,0,0.7,0c0.2,0,0.2,0.1,0,0.1C32.9,19.7,32.4,19.8,32.2,19.8 M32.1,20.1
		c0.2,0,1.4-0.3,2.1-0.4c-1.1-0.3-2-1-2.7-1.8c0.1,0.6,0.2,1.5,0.3,2C31.8,20.1,31.9,20.1,32.1,20.1 M35,24.7
		c0.2-0.7,0.4-1.8,0.7-2.6c-0.4,0.1-0.8,0.1-1.1,0.1c-0.1,0-0.1,0-0.2,0c-0.5,0.5-1.1,1.8-1.4,2.9c0,0.2-0.1,0.2-0.2,0.3
		c-0.2,0.1-0.8,0.1-0.9,0.2c-0.2,0-0.2-0.1,0-0.2c0.2-0.1,0.3-0.2,0.4-0.5c0.3-0.8,0.7-1.5,1-2c-0.1,0.1-0.2,0.1-0.2,0.1
		c-0.4,0.1-0.8,0.2-1.1,0.1c-0.9,0.9-1.3,2.3-1.3,2.5c0,0.2,0,0.3,0.2,0.3c0.7,0,2.8-0.4,3.7-0.7C34.8,25.1,34.9,24.9,35,24.7
		 M31.4,22.4c0.2,0.3,0.6,0.4,0.9,0.4c-0.5-0.4-0.7-0.9-0.8-1c-0.1-0.3,0.2-0.4,0.5-0.2c0.1,0.1,0,0.2-0.1,0.1
		c-0.1-0.1-0.2-0.1-0.2,0c0.2,0.5,0.6,0.8,0.9,1c0.7-0.2,1.3-0.6,1.2-0.7c-0.4-0.1-0.8-0.8-1-1.1c-0.2-0.2-0.4-0.3-0.6-0.2
		c0,0,0,0,0,0c0.4,0.4,0.6,0.9,0.6,1c0.1,0.3-0.2,0.4-0.5,0.1c-0.1-0.1,0-0.2,0.1-0.1c0.1,0.1,0.2,0.1,0.2,0c-0.1-0.4-0.4-0.7-0.7-1
		C31.3,21.1,31.1,21.9,31.4,22.4 M45.7,19.4c0.1-0.2,0.5-1.9,0.8-3c-0.1,0.2-0.3,0.4-0.4,0.6c-0.1,0.5-0.4,1.9-0.5,2.1
		c-0.1,0.3-0.1,0.2-0.1,0c0-0.1,0.2-1.2,0.3-1.7c-0.7,0.9-1.6,1.7-2.7,2.1c0.3,0,0.5,0,0.7,0c0.2,0,0.4-0.1,0.5-0.2
		c0.3-0.3,0.5-0.5,0.9-0.5c0.1,0,0.2,0.1,0,0.2c-0.7,0.4-0.4,0.9,0,1C45.4,19.9,45.6,19.8,45.7,19.4 M44.5,19.3
		c0-0.1-0.1,0.2-0.4,0.3c0,0-0.1,0-0.1,0c0.1,0,0.3,0,0.5,0.1C44.5,19.6,44.5,19.5,44.5,19.3 M41.4,21.5c-0.1-0.1-0.2-0.2-0.3-0.4
		c-0.6,0.2-1.4,0.1-1.6,0c-0.3-0.1-0.2-0.4,0.2-0.5c0.2,0,0.2,0.1,0,0.1c-0.2,0-0.2,0.1-0.1,0.2c0.5,0.1,1.1,0,1.4,0
		c-0.2-0.4-0.3-0.8-0.4-1c-0.6,0-1.3,0-2.2,0c-0.1,0-0.1,0-0.2,0c0,0.1,0.1,0.1,0.1,0.2c0.6-0.1,1.6-0.1,2,0.1
		c0.3,0.1,0.2,0.4-0.2,0.4c-0.2,0-0.1-0.1,0-0.1c0.2,0,0.2-0.1,0.1-0.1c-0.4-0.1-1.2-0.1-1.7,0c0.2,0.4,0.5,0.9,1,1.1
		C40,21.7,41,21.6,41.4,21.5 M39.3,32.3c-0.5-0.6-2.5-2.8-3.4-4c-0.1-0.1-0.2-0.2-0.5-0.2c-0.2,0-1.1,0.3-1.4,0.5
		c-0.3,0.1-0.2,0.2-0.1,0.4c0.1,0.1,1.9,2.2,2.8,3.6c0.1,0.1-0.1,0.2-0.2,0c-0.7-0.9-3-3.3-3.3-3.5C33.2,29,33,28.9,32.7,29
		c-0.3,0.1-0.8,0.2-1,0.3c-0.2,0.1-0.3,0.2,0,0.4c0.9,0.6,3.8,3.6,4.8,4.9c0.1,0.1,0.2,0.2,0.5,0c0.6-0.4,1.5-0.8,2.2-1.1
		C39.2,33.2,39.2,32.7,39.3,32.3 M32.7,42.4c-0.2-0.5,0.3-0.5,0.2-1.1c-0.1-0.4-0.5-0.8-0.9-0.7c0.4,0.2,0.6,0.6,0.4,0.9
		c-0.1,0.2-0.4,0.4-0.3,0.7c-0.5-0.1-0.3-0.5-0.9-0.7c-0.4-0.1-0.9,0-1.1,0.5c0.4-0.2,0.8-0.2,0.9,0.1c0.1,0.2,0.2,0.6,0.5,0.6
		c-0.3,0.4-0.6,0-1.1,0.4c-0.3,0.3-0.4,0.8-0.1,1.2c0-0.5,0.2-0.8,0.6-0.7c0.2,0,0.6,0.1,0.8-0.1c0.2,0.5-0.3,0.5-0.2,1.1
		c0.1,0.4,0.5,0.8,0.9,0.7c-0.4-0.2-0.6-0.6-0.4-0.9c0.1-0.2,0.4-0.4,0.3-0.7c0.5,0.1,0.3,0.5,0.9,0.7c0.4,0.1,0.9,0,1.1-0.5
		c-0.4,0.2-0.8,0.2-0.9-0.1c-0.1-0.2-0.2-0.6-0.5-0.6c0.3-0.4,0.6,0,1.1-0.4c0.3-0.3,0.4-0.8,0.1-1.2c0,0.5-0.2,0.8-0.6,0.7
		C33.3,42.3,32.9,42.2,32.7,42.4 M37.7,42.6c-0.3,0.4-0.6,0-1.1,0.4c-0.3,0.3-0.4,0.8-0.1,1.2c0-0.5,0.2-0.8,0.6-0.7
		c0.2,0,0.6,0.1,0.8-0.1c0.2,0.5-0.3,0.5-0.2,1.1c0.1,0.4,0.5,0.8,0.9,0.7c-0.4-0.2-0.6-0.6-0.4-0.9c0.1-0.2,0.4-0.4,0.3-0.7
		c0.5,0.1,0.3,0.5,0.9,0.7c0.4,0.1,0.9,0,1.1-0.5c-0.4,0.2-0.8,0.2-0.9-0.1c-0.1-0.2-0.2-0.6-0.5-0.6c0.3-0.4,0.6,0,1.1-0.4
		c0.3-0.3,0.4-0.8,0.1-1.2c0,0.5-0.2,0.8-0.6,0.7c-0.2,0-0.6-0.1-0.8,0.1c-0.2-0.5,0.3-0.5,0.2-1.1c-0.1-0.4-0.5-0.8-0.9-0.7
		c0.4,0.2,0.6,0.6,0.4,0.9c-0.1,0.2-0.4,0.4-0.3,0.7c-0.5-0.1-0.3-0.5-0.9-0.7c-0.4-0.1-0.9,0-1.1,0.5c0.4-0.2,0.8-0.2,0.9,0.1
		C37.3,42.2,37.4,42.5,37.7,42.6 M40.5,37.3c0.1,0.2,0.1,0.5,0.2,0.7c0,0.1,0,0.1-0.1,0c-0.1-0.1-0.2-0.4-0.2-0.6
		c-0.1,0.1-0.1,0.1-0.2,0.2c0.2,0.5,0.4,0.8,0.5,1h0.9c-0.4-0.5-0.6-1.3-0.7-1.9C40.8,37,40.6,37.1,40.5,37.3 M44.1,42.6
		c-0.3,0.4-0.6,0-1.1,0.4c-0.3,0.3-0.4,0.8-0.1,1.2c0-0.5,0.2-0.8,0.6-0.7c0.2,0,0.6,0.1,0.8-0.1c0.2,0.5-0.3,0.5-0.2,1.1
		c0.1,0.4,0.5,0.8,0.9,0.7c-0.4-0.2-0.6-0.6-0.4-0.9c0.1-0.2,0.4-0.4,0.3-0.7c0.5,0.1,0.3,0.5,0.9,0.7c0.4,0.1,0.9,0,1.1-0.5
		c-0.4,0.2-0.8,0.2-0.9-0.1c-0.1-0.2-0.2-0.6-0.5-0.6c0.3-0.4,0.6,0,1.1-0.4c0.3-0.3,0.4-0.8,0.1-1.2c0,0.5-0.2,0.8-0.6,0.7
		c-0.2,0-0.6-0.1-0.8,0.1c-0.2-0.5,0.3-0.5,0.2-1.1c-0.1-0.4-0.5-0.8-0.9-0.7c0.4,0.2,0.6,0.6,0.4,0.9c-0.1,0.2-0.4,0.4-0.3,0.7
		c-0.5-0.1-0.3-0.5-0.9-0.7c-0.4-0.1-0.9,0-1.1,0.5c0.4-0.2,0.8-0.2,0.9,0.1C43.7,42.2,43.8,42.5,44.1,42.6 M24.3,55
		C24.4,55.2,24.3,55.3,24.3,55c-0.3-0.3-0.5-0.9-0.5-1.3c0-0.2,0-0.2-0.1-0.1c-0.1,0.1-0.1,0.3-0.1,0.6c0,0.4,0.9,2,0.9,2.2
		c0.2,0.5,0.3,0.9,0,1.3c-0.4,0.4-2.8,2.4-3.7,2.8c-0.1,0.5-0.2,0.9-0.3,1.1c0.1,0,0.2,0,0.3-0.1c0.2-0.2,0.3-0.5,0.4-0.6
		c0.3-0.2,2.9-2.1,3.3-2.4c0.2-0.1,0.3-0.1,0.4,0c0.1,0.1,0.3,0.3,0.5,0.3c0.2,0,0.5,0,0.3-0.1c-0.1-0.1-0.3-0.2-0.5-0.6
		c-0.1-0.2-0.6-1.7-0.2-3.4c0.1-0.2,0-0.3-0.1-0.1c-0.1,0.2-0.3,0.7-0.3,0.9c-0.1,0.2-0.1,0.2-0.1,0c0-0.2,0.1-0.7,0.1-0.9
		c0-0.1,0-0.1,0-0.2c-0.1,0-0.2-0.1-0.4-0.2c-0.1-0.1-0.2-0.1-0.2,0.1C24.2,54.6,24.3,54.9,24.3,55 M20,57c0.1,0.3,0,0.8-0.6,1.6
		c-0.6,0.7,0,1.9,0.1,2.2c0.1,0.3,0,0.4-0.1,0.2c-0.5-0.6-1.3-1.8-1.5-2.3c-0.1,0.1-0.2,0.2-0.3,0.2c1,1.8,2.2,3,2.4,3.1
		c1.1-1.4,0.6-4.7,0.4-5.4C20.3,56.7,20.1,56.8,20,57 M31,54.8c-0.3-0.1-0.6-0.4-0.9-0.7c0,0,0-0.1,0-0.1v-0.3l0.7-0.7
		c0,0,0-0.1,0-0.1c0,0,0-0.1-0.1-0.1H30c-0.1-0.2-0.2-0.3-0.4-0.3c-0.2,0-0.4,0.1-0.4,0.3h-0.7c0,0-0.1,0-0.1,0.1c0,0,0,0.1,0,0.1
		l0.7,0.7v0.3c0,0,0,0.1,0,0.1c-0.3,0.4-0.7,0.6-0.9,0.7c-0.2,0.1-0.3,0.3-0.3,0.5c0,0.2,0.1,0.4,0.3,0.5c0.1,0,0.1,0,0.2,0
		c0.1,0.3,0.3,0.4,0.5,0.5c0.1,0,0.2,0,0.3-0.1c0.1,0.2,0.3,0.3,0.5,0.3s0.4-0.1,0.5-0.3c0.1,0.1,0.2,0.1,0.3,0.1
		c0.2,0,0.4-0.2,0.5-0.5c0.1,0,0.1,0,0.2,0c0.2-0.1,0.3-0.3,0.3-0.5C31.3,55.1,31.2,54.9,31,54.8 M39.8,54.8
		c-0.3-0.1-0.6-0.4-0.9-0.7c0,0,0-0.1,0-0.1v-0.3l0.7-0.7c0,0,0-0.1,0-0.1c0,0-0.1-0.1-0.1-0.1h-0.7c-0.1-0.2-0.2-0.3-0.4-0.3
		c-0.2,0-0.4,0.1-0.4,0.3h-0.7c0,0-0.1,0-0.1,0.1c0,0,0,0.1,0,0.1l0.7,0.7v0.3c0,0,0,0.1,0,0.1c-0.3,0.4-0.7,0.6-0.9,0.7
		c-0.2,0.1-0.3,0.3-0.3,0.5c0,0.2,0.1,0.4,0.3,0.5c0.1,0,0.1,0,0.2,0c0.1,0.3,0.3,0.4,0.5,0.5c0.1,0,0.2,0,0.3-0.1
		c0.1,0.2,0.3,0.3,0.5,0.3s0.4-0.1,0.5-0.3c0.1,0.1,0.2,0.1,0.3,0.1c0.2,0,0.4-0.2,0.5-0.5c0.1,0,0.1,0,0.2,0
		c0.2-0.1,0.3-0.3,0.3-0.5C40.1,55.1,40,54.9,39.8,54.8 M48.6,54.8c-0.3-0.1-0.6-0.4-0.9-0.7c0,0,0-0.1,0-0.1v-0.3l0.7-0.7
		c0,0,0-0.1,0-0.1c0,0-0.1-0.1-0.1-0.1h-0.7c-0.1-0.2-0.2-0.3-0.4-0.3c-0.2,0-0.4,0.1-0.4,0.3H46c0,0-0.1,0-0.1,0.1c0,0,0,0.1,0,0.1
		l0.7,0.7v0.3c0,0,0,0.1,0,0.1c-0.3,0.4-0.7,0.6-0.9,0.7c-0.2,0.1-0.3,0.3-0.3,0.5c0,0.2,0.1,0.4,0.3,0.5c0,0,0.1,0,0.2,0
		c0.1,0.3,0.3,0.4,0.5,0.5c0.1,0,0.2,0,0.3-0.1c0.1,0.2,0.3,0.3,0.5,0.3s0.4-0.1,0.5-0.3c0.1,0.1,0.2,0.1,0.3,0.1
		c0.2,0,0.4-0.2,0.5-0.5c0.1,0,0.1,0,0.2,0c0.2-0.1,0.3-0.3,0.3-0.5C48.9,55,48.8,54.9,48.6,54.8 M52.3,61.5
		c-0.1,0.4-0.4,1.1-0.6,1.4c-0.1,0.2,0.2,0.1,0.3,0c0.3-0.5,0.5-1,0.5-1.2C52.4,61.5,52.3,61.5,52.3,61.5 M52.7,61.6
		c-0.1,0.6-0.4,1.2-0.7,1.6c-0.1,0.1,0,0.2,0.2,0.1c1.1-0.5,1.3-0.8,1.6-1.7c-0.1,0-0.2,0-0.2,0c-0.2,0.7-0.5,1-0.6,1.1
		c-0.1,0.1-0.2,0.1-0.1-0.1c0.1-0.2,0.4-0.6,0.4-1C53,61.7,52.8,61.6,52.7,61.6 M29.7,77.4c-0.1,0-0.1,0-0.1,0.1c0,0,0,0.1,0.1,0.1
		C29.8,77.5,29.8,77.4,29.7,77.4 M26.4,75.9C26.5,75.9,26.5,75.9,26.4,75.9C26.5,75.8,26.4,75.8,26.4,75.9 M24.9,74.6
		c-0.2,0.4-0.5,0.6-0.6,1c0.2,0.1,0.4,0.3,0.7,0.3c0.1,0,0.4-0.5,0.5-0.7c0-0.3-0.1-0.5-0.2-0.6C25.1,74.6,25,74.6,24.9,74.6
		 M22.3,73.3c0,0,0-0.1,0-0.1c0.1-0.1,0.2-0.2,0.3-0.4c0-0.1-0.1,0-0.1-0.1c0-0.2,0.4-0.2,0.5-0.1c-0.1,0.5-0.5,0.9-0.7,1.3
		c0,0.1,0.1,0,0.1,0.1c0,0.2-0.3,0.1-0.5,0.1c-0.2,0-0.3,0.1-0.6,0.1c0.1-0.2,0.4-0.1,0.6-0.3C22.1,73.8,22.1,73.5,22.3,73.3
		 M22.3,74.6c0-0.1,0.1-0.1,0.2-0.1c0.3-0.4,0.6-0.8,0.8-1.4c0.1,0,0.3-0.1,0.4,0c-0.1,0.6,0.1,1,0.3,1.4c0.2-0.1,0.3-0.3,0.3-0.5
		c0.1-0.1,0.3-0.2,0.5-0.1c0,0.2-0.2,0.3-0.3,0.4c-0.1,0.2-0.2,0.4-0.4,0.5c-0.1,0.3-0.2,0.6-0.6,0.6c0-0.1,0.1-0.2,0.1-0.3
		c-0.1-0.1,0-0.2,0-0.4c0-0.3-0.2-0.6-0.3-0.9C22.9,74,22.9,74.7,22.3,74.6 M23.9,75.7c0.3-0.5,0.6-0.9,0.9-1.3
		c0-0.1-0.1-0.1-0.1-0.2c0.1-0.1,0.3-0.1,0.4,0c0,0.1,0,0.1,0,0.2c0.1,0.1,0.2,0.1,0.4,0.1c0.2,0.1,0.3,0.4,0.2,0.7
		c-0.2,0.3-0.4,0.7-0.8,0.9c-0.1-0.1-0.3,0-0.4,0c-0.1,0-0.2-0.1-0.3-0.2C24.1,75.9,24,75.9,23.9,75.7 M25.2,76.5
		c0.1-0.3,0.6-0.2,0.8-0.5c0-0.1-0.2-0.1-0.3-0.1c0-0.1,0.1-0.2,0.2-0.2c0.1,0,0.3,0.1,0.4,0.1c0.3,0,0.4-0.6,0.8-0.4
		c-0.1,0.2-0.2,0.4-0.2,0.7c0.1,0.1,0.3,0.1,0.4,0.2c0,0,0,0.1,0,0.1c-0.1,0.1-0.3,0-0.4,0c-0.1,0.1,0,0.4,0,0.5
		c0.1,0,0.1-0.1,0.2-0.1c-0.1,0.2-0.2,0.3-0.5,0.4c-0.2-0.3,0-1.1-0.4-1.1c-0.2,0-0.3,0.2-0.5,0.3c0,0.1,0.1,0.1,0.1,0.2
		C25.7,76.8,25.4,76.5,25.2,76.5 M27.3,77.5c-0.1-0.9,0.6-1.6,1.5-1.3c0.1,0.2,0.2,0.3,0.2,0.4c-0.3,0.4-0.5-0.2-0.6-0.3
		c-0.2,0-0.2,0-0.4,0c-0.2,0.1-0.4,0.4-0.4,0.7c0,0.3,0.2,0.7,0.4,0.7c0.4,0.1,0.6-0.4,0.3-0.6c-0.1,0-0.2,0-0.2,0
		c0.1-0.3,0.6-0.3,0.7,0c0,0.2,0,0.6-0.3,0.7c0,0-0.1,0-0.2,0c-0.1,0-0.2,0.1-0.2,0.2C27.7,78,27.4,77.7,27.3,77.5 M28.6,78.1
		c0-0.3,0.5-0.3,0.6-0.5c0,0-0.1,0-0.1-0.1c0.1-0.2,0.3-0.1,0.4-0.1c0.3-0.1,0.3-0.6,0.7-0.6c0.1,0.3-0.1,0.6,0,0.9
		c0.1,0.1,0.4,0.1,0.4,0.2c0,0.1-0.2,0.1-0.3,0.1c0,0.2,0.1,0.2,0.1,0.3c0,0,0.1,0,0.1,0c0,0.2-0.2,0.2-0.3,0.3
		c-0.3-0.1-0.2-0.5-0.3-0.8c-0.1-0.2-0.3-0.2-0.5-0.3c-0.1,0-0.1,0.2-0.2,0.2c0,0.1,0.1,0,0.1,0.1C29.1,78.3,28.8,78.1,28.6,78.1
		 M30.6,78.9c0-0.1,0.1-0.1,0.1-0.2c0-0.1,0-0.3,0.1-0.4c0-0.1,0.1-0.2,0.1-0.4c0-0.2,0.2-0.3,0.1-0.4c0-0.3-0.4-0.2-0.6-0.2
		c0-0.2,0.2-0.3,0.4-0.3c0.1,0,0.2,0.1,0.3,0.1c0.2,0,0.5,0,0.6,0.1c0.1,0,0.2,0,0.2,0.1c0.1,0,0.2-0.1,0.4-0.1
		c-0.1,0.2-0.2,0.3-0.4,0.4c-0.2,0-0.4-0.2-0.7-0.1c0,0.4-0.3,0.8-0.2,1.2C31,78.8,30.8,78.9,30.6,78.9 M31.6,79.1
		c0-0.1,0.1-0.1,0.1-0.2c0.1-0.2,0.3-0.9,0.3-1.3c0.1-0.1,0.3-0.2,0.4-0.1c0.3,0,0.6,0.1,0.8,0.2c0,0.1-0.2,0.3-0.4,0.4
		c0,0,0-0.1,0-0.1c-0.1-0.1-0.4-0.1-0.5-0.2c-0.1,0.1-0.1,0.2-0.2,0.3c0.1,0.2,0.5,0.1,0.7,0.2c0,0.1-0.1,0.2-0.3,0.3
		c-0.1-0.1-0.2-0.1-0.4-0.1c-0.1,0.1-0.2,0.2-0.2,0.4c0.1,0.2,0.4,0.1,0.6,0.2C32.7,79.6,31.7,79.3,31.6,79.1 M33.9,79.8
		c0-0.1,0.1-0.2,0.2-0.3c0-0.5,0.2-0.9,0.2-1.4c-0.1-0.1-0.1,0.1-0.2,0c0-0.2,0.4-0.4,0.5-0.2c0.3-0.1,0.6,0,0.8,0.1
		c-0.1,0.2-0.2,0.3-0.4,0.4c-0.1-0.1,0-0.2,0-0.2c-0.1-0.1-0.3,0-0.5-0.1c-0.1,0.1-0.1,0.2-0.1,0.4c0.1,0.2,0.5,0,0.7,0.2
		c-0.1,0.2-0.2,0.4-0.4,0.4c0-0.1,0.1-0.1,0.1-0.2c-0.1,0-0.2,0-0.3,0c-0.2,0.1-0.1,0.3-0.1,0.4c0,0.1-0.1,0.1-0.1,0.2
		C34.1,79.6,34.1,79.8,33.9,79.8 M35.3,79.9c-0.1-0.2,0.2-0.2,0.2-0.3c0-0.4,0.1-0.7,0.1-1.1c0-0.1-0.1,0-0.1-0.1
		c0-0.2,0.2-0.3,0.4-0.3c0,0.2,0,0.5-0.1,0.8c0,0.1-0.1,0.1-0.1,0.2c0,0.2,0.1,0.4,0,0.5C35.7,79.7,35.5,79.9,35.3,79.9 M36,79.9
		c0-0.1,0.1-0.1,0.1-0.3c0.1-0.5-0.2-1.5,0.4-1.5c0,0.1-0.1,0.1-0.1,0.2c0.1,0.5,0.5,0.7,0.9,1c0.1-0.2,0.1-0.5,0.1-0.7
		c0-0.1-0.1,0-0.1-0.1c0-0.2,0.1-0.3,0.3-0.3c0.1,0.4-0.1,0.7,0,1.1c-0.1,0.2,0.1,0.7-0.2,0.7c-0.2-0.5-0.7-0.5-1-0.9
		c-0.1,0.1,0,0.4,0,0.7C36.2,79.7,36.1,79.9,36,79.9 M38.4,78.3c0.1,0,0.2-0.1,0.4-0.1c0.3,0,0.7,0.1,0.7,0.3c0,0.1,0,0.2-0.2,0.2
		c-0.2,0-0.3-0.2-0.5-0.2c-0.1,0-0.4,0.1-0.5,0.2c-0.1,0.2-0.2,0.5-0.1,0.7c0.1,0.2,0.5,0.5,0.8,0.4c0.3-0.1,0.3-0.7,0-0.7
		c-0.1,0-0.1,0.1-0.3,0.1c0-0.4,0.7-0.5,0.8-0.1c0,0.3-0.1,0.6-0.2,0.7C39,79.9,38.8,80,38.4,80C37.7,79.8,37.9,78.6,38.4,78.3
		 M39.9,79.7c0-0.4-0.1-0.8-0.1-1.2c0-0.1-0.1,0-0.1-0.1c0.1-0.2,0.2-0.3,0.3-0.3c0.1,0.1,0,0.3,0,0.4c0.2,0.3,0.1,0.8,0.2,1.1
		C40.2,79.8,40,80,39.8,80C39.7,79.9,39.9,79.8,39.9,79.7 M40.8,79.9c0-0.2,0.2-0.2,0.3-0.4c0-0.1-0.1-0.2-0.1-0.4
		c0-0.1,0-0.3,0-0.4c0-0.1-0.1-0.2-0.1-0.3c-0.2,0-0.4,0.1-0.6,0.2c0-0.1,0.1-0.2,0.1-0.3c0.1,0,0.2-0.1,0.2-0.1
		c0.4,0,0.8,0,1.1-0.1c0.2-0.2,0.3-0.3,0.4-0.5c0,0,0,0,0.1,0c0,0.4-0.3,0.5-0.4,0.8c-0.2,0-0.4,0-0.5,0c-0.1,0.4,0.2,0.8,0,1.2
		c0,0.1,0.1,0,0.2,0c0.1,0.1,0,0.2,0,0.2C41.1,79.9,40.9,80.1,40.8,79.9 M42.1,78c0.3,0,0.7-0.2,1-0.1c0,0.2-0.1,0.2-0.2,0.3
		c-0.2-0.1-0.4,0-0.6,0.1c0,0.1,0.1,0.3,0.1,0.4c0.3,0,0.5-0.1,0.7-0.2c0,0.1-0.1,0.3-0.1,0.4c-0.1,0.1-0.1-0.1-0.2-0.1
		c-0.1,0-0.2,0.1-0.3,0.1c0,0.1,0,0.3,0,0.4c0.3,0,0.4-0.2,0.7-0.1c0.1,0.1,0,0.1,0,0.2c-0.2,0.1-0.4,0.1-0.7,0.2
		c-0.1,0-0.2,0.1-0.3,0.1c0-0.2,0-0.3,0-0.5c0-0.1-0.1-0.2-0.1-0.3c0-0.1,0-0.2,0-0.2C42,78.4,41.8,78.2,42.1,78 M44,78
		c0-0.2,0.1-0.4,0.3-0.5c0,0.4,0.3,1,0.3,1.5c0,0.2-0.1,0.4-0.3,0.4c-0.1-0.1,0-0.2,0.1-0.3c0.1-0.3-0.2-0.8-0.2-1.1
		C44.1,77.9,44,78,44,78 M44.7,77.6c0-0.2,0.1-0.3,0.2-0.3c0.2,0.1,0.1,0.6,0.4,0.7c0.2,0,0.4,0.1,0.6,0.2c0.1-0.2-0.1-0.4-0.1-0.6
		c0-0.1-0.1,0-0.1-0.1c0-0.2,0.1-0.4,0.3-0.4c0,0.6,0.3,1.1,0.3,1.8c-0.1,0-0.1,0.1-0.1,0.1c-0.2-0.2-0.4-0.5-0.9-0.5
		c-0.1,0-0.1-0.1-0.2-0.1c0,0.2,0.4,0.7,0,0.8c0-0.4-0.2-0.7-0.3-1C44.8,77.9,44.8,77.7,44.7,77.6 M46.3,77.2c0-0.1,0-0.2,0-0.3
		c0.4,0.1,0.6,0.7,1,0.9c0,0.1,0.1,0.2,0.2,0.3c0.2-0.2,0.2-0.5,0.2-0.9c0-0.3-0.3-0.4-0.3-0.6c0-0.2,0.2-0.2,0.3-0.1
		c0,0.2,0.1,0.3,0.1,0.5c0,0.3-0.1,0.5-0.1,0.8c-0.2,0.1-0.1,0.6-0.3,0.6C47.1,78.1,46.7,77.7,46.3,77.2 M48.1,76.8
		c0-0.3,0.1-0.4,0.2-0.6c0.3-0.1,0.6-0.3,0.9-0.4c0.1,0.2,0,0.4-0.1,0.5c0,0-0.1-0.1-0.1-0.1c-0.1,0-0.4,0.2-0.5,0.2
		c0,0.1,0.1,0.3,0.2,0.3c0.2,0,0.4-0.1,0.6-0.2c0,0.1,0,0.3,0,0.3c-0.2,0-0.3,0.1-0.4,0.2c0,0.1,0.1,0.2,0.1,0.4
		c0.1,0,0.3-0.1,0.3-0.2c0.2,0,0.3-0.1,0.4-0.1c0.1,0.2-0.1,0.3-0.2,0.4c-0.3,0-0.4,0.3-0.8,0.3c0,0,0,0-0.1-0.1
		c0.2-0.5-0.2-0.8-0.3-1.2C48.2,76.7,48.2,76.8,48.1,76.8 M49.8,76.5C49.8,76.5,49.8,76.4,49.8,76.5c-0.1-0.4-0.5-0.6-0.2-0.9
		c0.2,0,0.2,0.2,0.3,0.4c0.2,0.3,0.9,0.2,1.3,0.2c0-0.3-0.1-0.5-0.3-0.6c0-0.1,0-0.1,0-0.1c-0.1,0-0.1,0-0.2,0
		c0.1-0.1,0-0.4,0.1-0.5c0,0,0,0,0.1,0c0.2,0.6,0.5,1.1,0.8,1.5c0,0.1,0,0.2,0,0.3c-0.1,0-0.2-0.1-0.3-0.2c-0.3-0.2-0.8,0-1.2-0.1
		c0,0.2,0.2,0.2,0.2,0.4c0,0.1,0.1,0.1,0.1,0.2c-0.1,0.1,0,0.4-0.2,0.5c-0.1-0.1,0-0.3,0-0.4C50.1,76.9,49.9,76.7,49.8,76.5
		 M52.1,76.4c0-0.6-0.4-0.9-0.6-1.4c-0.1,0-0.1,0.1-0.1,0c0-0.2,0-0.5,0.1-0.6c0.1,0,0,0.1,0.1,0.1c0.1-0.1,0.1-0.2,0.2-0.3
		c0.3-0.1,0.5-0.3,0.7-0.5c0.3-0.1,0.4-0.3,0.6-0.5c0-0.1-0.1-0.1-0.1-0.3c0.1,0,0.1,0,0.2,0.1c0,0.4-0.2,0.7-0.4,1
		c-0.1,0-0.2,0.1-0.3,0.2c0.2,0.4,0.5,0.6,0.5,1.1c0.1,0,0.1-0.1,0.3-0.1c0.2,0.3-0.2,0.4-0.3,0.6c-0.1,0-0.1-0.1-0.1-0.1
		c0.1-0.6-0.2-0.9-0.5-1.3c-0.1,0,0,0.1-0.2,0.1c0,0,0-0.1-0.1-0.2c-0.1,0-0.2,0.1-0.4,0.2c-0.2,0.6,0.3,0.8,0.4,1.2
		c0.1,0,0.1-0.1,0.1,0C52.4,76.1,52.3,76.3,52.1,76.4 M53.4,73.8c-0.1,0-0.1-0.1-0.2-0.1c0-0.2,0-0.4,0.1-0.4c0.1,0,0,0.1,0.1,0.1
		c0.1-0.3,0.5-0.3,0.6-0.7c0.1,0,0.1,0,0.1,0c0,0.2,0.1,0.5,0,0.5c-0.1,0.1-0.1-0.1-0.1-0.1c-0.2,0.1-0.3,0.3-0.4,0.4
		c0,0.1,0.1,0.2,0.2,0.3c0.2-0.1,0.3-0.3,0.6-0.3c0.1,0.1,0,0.3,0,0.3c-0.1,0.1-0.3,0.1-0.4,0.3c0,0.2,0.1,0.3,0.2,0.4
		c0.3-0.1,0.4-0.3,0.6-0.5c0.1,0,0.1,0.1,0.1,0.1c-0.1,0.5-0.5,0.6-0.8,0.9c-0.1-0.1,0-0.1-0.1-0.2C53.8,74.4,53.5,74.2,53.4,73.8
		 M20.3,67.5c0.3,0.3,0.3,0.6,0.3,0.7c0,0.2-0.1,0.9-0.1,1.7c0.2,0,0.6,0,0.9,0c0-0.3,0.1-0.7,0.4-1c0.5-0.4,1.4-0.4,2.8-0.1
		c2.6,0.5,3.7,0,3.8-0.4c0.1-0.2,0-0.5-0.2-0.7c-0.2-0.2-0.2-0.3,0.1-0.2c0.4,0.2,0.6,0.7,0.4,1c-0.1,0.4-0.9,1.2-4.2,0.6
		C23.2,69,22.4,69,22,69.3c-0.3,0.2-0.3,0.6-0.3,0.9l0,0.1c0,0.7-0.3,2.2-0.9,3.5c-0.3,0.6-0.1,1.1,0.5,1.7
		c2.3,2.3,8.6,5.9,17.1,5.9c8.6,0,14.8-3.6,17.1-5.9c0.6-0.6,0.7-1.1,0.5-1.7c-0.6-1.3-0.9-2.8-0.9-3.5l0-0.1c0-0.3,0-0.7-0.3-0.9
		c-0.4-0.3-1.2-0.3-2.4-0.1c-3.2,0.6-4-0.2-4.2-0.6c-0.1-0.2,0-0.4,0.1-0.6c0,0,0,0,0,0c0,0,0,0,0,0c0,0,0.1-0.1,0.1-0.1
		c0,0,0,0,0,0c0,0,0.1-0.1,0.1-0.1c0,0,0,0,0,0c0.3-0.2,0.7-0.4,1.2-0.5c0.3-0.1,0.3,0.1,0.1,0.2c-0.2,0.2-0.3,0.3-0.3,0.4
		c-0.1,0.4,0.4,1,0.5,1.3c0.6,0,1.3,0,2.2-0.2c1.4-0.2,2.3-0.3,2.8,0.1c0.3,0.3,0.4,0.6,0.4,1c0.3,0,0.6,0,0.9,0
		c0-0.8-0.1-1.5-0.1-1.7c0-0.2-0.1-0.5,0.3-0.7c0.3-0.3,1-0.3,1.9-0.1c1.2,0.3,1.8,0,1.8-0.2c0-0.3-0.2-0.5-0.9-0.8
		c-2.5-0.9-6.9-0.6-10,0.6c-0.8,0.3-1.3,0.7-1.4,1.1c-0.1,0.4,0.1,0.8,0.3,1c0.7,0.7,2.2,2.5,2.7,3.8c0.2-0.1,0.3-0.2,0.5-0.3
		c-0.4-0.9-1.2-2-1.7-2.7c-0.2-0.2-0.2-0.3,0-0.3c0.2,0,0.9,0,1.2,0c0,0,0.9,1.5,1.3,2.4c0.5-0.4,1-0.8,1.4-1.2
		c-0.1-0.3-0.3-0.9-0.4-1c-0.1-0.2-0.3-0.2-0.5-0.2c-0.2,0-0.3-0.2,0-0.2c0.6-0.1,1-0.2,1.4-0.1c0.2,0,0.4,0.1,0.5,0.3
		c0.1,0.3,0,0.6-0.3,1c-3,3.5-10,6.1-15.8,6.1c-5.8,0-12.8-2.6-15.8-6.1c-0.3-0.4-0.5-0.8-0.3-1c0.2-0.3,0.6-0.4,1-0.3
		c0.7,0,1.5,0.3,2.1,0.3c0.3,0,0.2,0.2,0,0.3c-0.2,0-0.4,0.1-0.5,0.1c-0.4,0.1-0.8,1.3-1,1.5c0.6,0.5,1.3,1,2,1.4
		c0.5-1.3,2-3,2.7-3.8c0.2-0.2,0.4-0.6,0.3-1c-0.1-0.4-0.6-0.8-1.4-1.1c-3.2-1.2-7.6-1.5-10-0.6c-0.7,0.3-0.9,0.5-0.9,0.8
		c0,0.1,0.1,0.2,0.3,0.3c-0.3-0.4,0.6-0.8,1.2-0.9c0.2-0.1,0.2,0.1,0.1,0.2c-0.2,0.1-0.2,0.2-0.2,0.3c0,0.1,0,0.3,0.1,0.6
		c0.2,0,0.3,0,0.5-0.1C19.3,67.2,20,67.2,20.3,67.5 M13.6,69.3c0.9,0.2,1.3,0.1,1.7,0.1c0.2,0,0.2,0.1,0,0.1c-0.6,0.2-1.6,0-1.8,0
		C13.4,69.4,13.4,69.3,13.6,69.3 M13.1,69.7c0,0.1-0.1,0.1-0.2,0c-0.1-0.1-0.4-0.6-1-0.8c-0.1,0-0.1-0.1,0-0.1
		C12.8,68.9,13.1,69.6,13.1,69.7 M13.7,69.1c-0.2,0-0.2-0.1,0-0.1c0.1,0,1.1,0.1,1.8,0c0,0-0.1-0.2-0.4-0.3c-0.2,0-1.6,0-1.9,0
		c-0.2,0-0.8,0-0.9-0.7c-0.1-0.3,0.1-2.9,0.2-3.7c-0.2,0.2-0.5,0.3-0.6,0.4c0.2,1.5,0.2,3,0.1,3.7c0,0.2-0.1,0.2-0.2,0.3
		c-0.1,0.1-0.9-0.1-1.2,0.3c-0.1,0.1-0.1,0.1,0.1,0.1s0.9-0.6,2,0.9c0.1,0.1,0.1,0.2,0.2,0.1c0.3,0,1.2,0,2.3,0.8
		c0.1,0.1,0.3,0.2,0.1-0.1c-0.1-0.2-0.5-0.5-0.6-0.6c-0.1-0.1-0.1-0.1,0.1-0.1c0.1,0,0.3,0.1,0.4,0.2c0.1-0.2,0.7-1.1,1.6-0.8
		c0.1,0,0.1,0,0.1-0.1C16.3,68.8,15,69.4,13.7,69.1 M14.8,65c-0.6,0.5-1.3,0.9-2.2,1.2c0,0.5-0.1,1.1-0.1,1.4
		C13.5,66.9,14.4,66,14.8,65 M12.3,72.2c0.5,0,0.7,0,0.9-0.2c0.2-0.1,0.5,0,0.5,0.2c0,0.2-0.3,0.3-0.4,0.2c-0.1-0.1-0.1-0.2-0.3-0.1
		c-0.2,0-0.5,0.1-0.7,0C12.1,72.4,12.1,72.2,12.3,72.2 M14.6,72.3c0-0.3,0.2-0.4,0.4-0.3c0.2,0.1,0.5,0.1,0.9,0.1
		c0.2,0,0.2,0.1,0,0.2c-0.2,0.1-0.5,0.1-0.7,0c-0.2,0-0.1,0-0.3,0.1C14.8,72.5,14.6,72.5,14.6,72.3 M18.3,72.5
		c0.5-0.2,0.5-0.4,0.5-0.6c0-0.9-0.1-2.5-0.1-2.5c0.3-0.1,0.4-0.1,0.6-0.2c0.2-0.1,0.3,0,0.3,0.2c0,0.7,0.1,2.1,0.1,2.5
		c0,0.2,0,0.4-0.2,0.5c-0.2,0.1-0.7,0.4-0.9,0.4C18.3,72.8,18.1,72.6,18.3,72.5 M8.3,69.9c0.3,0.4,0.7,1.2,1,2.3
		c0.2,0.8,0.4,1.2,1.3,1.3c3.3,0.5,7.4-0.1,9-0.9c0.5-0.3,0.6-0.8,0.6-1.2c-0.1-1.3,0-3,0-3.3c0-0.2,0-0.4-0.1-0.5
		c-0.2-0.1-0.6-0.3-1.6,0c-0.9,0.2-1.4,0.2-1.8,0c0.1,0.4,0.3,0.9,0.5,1.5c0.6-0.1,1.1-0.3,1.6-0.4c0-0.2-0.1-0.5-0.2-0.6
		c-0.1-0.1-0.2-0.1-0.3-0.1c-0.2,0-0.2-0.1,0-0.2c0.2-0.1,0.6-0.1,0.9-0.2c0,0,0,0,0,0c0,0,0,0,0,0c0,0,0,0,0,0
		c0.4,0,0.7,0.1,0.7,0.3c0.1,0.3-0.1,0.7-0.8,1c-0.6,0.2-1.2,0.4-1.9,0.6c0,0.1,0.1,0.1,0.1,0.2c0.1,0.2,0,0.2-0.2,0.1
		c-1-0.5-1.8,0.5-1.8,0.7c0.3,0.3,0.3,0.7,0.3,0.8c0,0.2-0.1,0.2-0.3,0.1c-0.2-0.2-0.6-0.5-1.2-0.8c0,0.4,0.1,0.5,0.2,0.7
		c0.1,0.2,0.1,0.5-0.2,0.5c-0.2,0-0.3-0.2-0.2-0.4c0.1-0.2,0.1-0.1,0.1-0.3c-0.1-0.2-0.1-0.4-0.1-0.6c-0.3-0.1-0.7-0.2-1.2-0.1
		c-0.1,0-0.2-0.1-0.3-0.2c-0.1-0.1-0.1-0.2-0.2-0.3c-0.5,0-1.4-0.1-1.8-0.1C8.5,69.6,8,69,8.2,68.4l0,0c0,0,0,0,0,0
		c0-0.1,0.1-0.2,0.2-0.3c0,0,0,0,0,0c0.3-0.3,0.8-0.6,1.2-0.7c0.3-0.1,0.3,0.1,0.1,0.2c-0.2,0.2-0.3,0.3-0.3,0.4
		c0,0.3,0.2,1.1,0.3,1.4c0.1,0,0.2,0.1,0.4,0.1c0.4,0.1,1.3,0.2,1.9,0.2c-0.9-0.9-1.6-0.3-1.7-0.2c-0.1,0.1-0.2,0.1-0.2-0.1
		c0-0.2,0.2-0.6,0.5-0.8c0.2-0.2,0.6-0.1,0.9-0.1c0.2,0,0.2-0.1,0.2-0.2c0-0.1,0-0.9-0.1-1.8c-0.9,0.3-2.2,0.7-2.8,0.9
		C7.8,67.9,7.5,68.7,8.3,69.9 M13.9,32c0-0.1-0.1-0.3-0.2-0.3c0,0,0,0,0,0c0.1,0.1,0.1,0.2,0.1,0.2c0,0.1-0.1,0.1-0.2,0.1
		c-0.1,0-0.1,0.1,0,0.2c0.1,0.1,0,0.1-0.1,0.1c-0.3,0-0.4-0.2-0.4-0.4c0,0,0,0,0,0c0,0,0,0.1,0,0.1c0,0.2,0.2,0.4,0.4,0.4
		C13.7,32.4,13.9,32.2,13.9,32 M3,60.2c-0.2,0.2-0.3,0.1-0.1-0.1c0.7-0.8,2.4-2.6,2.7-2.9C5.8,57,5.9,57,5.7,57.2
		C5.4,57.6,3.8,59.5,3,60.2 M6.2,58.1C6.4,58,6.4,58,6.2,58.1c-0.2,0.4-1.9,2.3-2.6,3.1c-0.2,0.2-0.3,0.1-0.1-0.1
		C4.1,60.2,5.8,58.5,6.2,58.1 M6.9,58.9C7,58.8,7.1,58.9,7,59c-0.3,0.4-2,2.3-2.7,3c-0.2,0.2-0.3,0.1-0.1-0.1
		C4.8,61.1,6.5,59.3,6.9,58.9 M7.4,60c0.2-0.1,0.2-0.1,0.1,0.1c-0.3,0.4-2,2.3-2.7,3c-0.2,0.2-0.3,0.1-0.1-0.1
		C5.4,62.1,7.1,60.3,7.4,60 M16.1,58.5c0.2-0.3,1-0.7,0.9-0.3c-0.7,1.9-2.9,4.2-4.1,5c-0.2,0.2-0.2,0.1-0.1-0.1
		C14.1,61.7,15.1,60.4,16.1,58.5 M12.5,32.2c0-0.1,0.1-0.1,0.1,0c0.1,0.8,1.1,1,1.5,0.3c0-0.1,0.1-0.1,0.1,0
		C14.2,33.4,12.6,33.5,12.5,32.2 M14.3,31.8c-0.1,0-0.2,0-0.2,0c0,0.1,0,0.1,0,0.2c0,0.3-0.3,0.6-0.6,0.6c-0.3,0-0.6-0.3-0.6-0.6
		c0-0.2,0.1-0.3,0.2-0.5c-0.1,0-0.2,0-0.2,0c-0.1,0-0.2-0.1,0-0.1c0.3-0.1,0.6-0.1,0.8,0c0.3,0.1,0.4,0.3,0.6,0.3
		C14.5,31.6,14.5,31.8,14.3,31.8 M15.7,48.7c-0.2,0.6-1.1,0.5-1.1-0.1c0-0.2,0.1-0.2,0.2-0.1c0.2,0.4,0.6,0.5,0.8,0.1
		C15.7,48.4,15.8,48.5,15.7,48.7 M13.9,48.3c-0.4,0.6-1.2,0.3-1.1-0.4c0-0.2,0.2-0.2,0.2,0c0,0.5,0.5,0.6,0.8,0.3
		C13.9,48.1,14,48.2,13.9,48.3 M12.2,47.6c-0.6,0.4-1.3-0.1-1-0.8c0.1-0.2,0.2-0.1,0.2,0c-0.1,0.5,0.3,0.8,0.7,0.6
		C12.2,47.4,12.3,47.5,12.2,47.6 M10.8,46.2c-0.8,0.3-1.2-0.5-0.8-1.1c0.1-0.2,0.3,0,0.2,0.1c-0.3,0.5,0,0.9,0.5,0.8
		C10.9,46,10.9,46.1,10.8,46.2 M9.7,44.4c-0.8,0.2-1.3-0.6-0.7-1.2c0.2-0.2,0.3,0,0.2,0.1c-0.3,0.5,0,0.9,0.5,0.8
		C9.9,44.1,9.9,44.3,9.7,44.4 M8.8,42.3c-0.8,0.1-1.1-0.8-0.5-1.2c0.2-0.1,0.3,0,0.2,0.1c-0.4,0.4-0.2,0.8,0.3,0.9
		C9,42.1,9,42.3,8.8,42.3 M8.8,33.9c-0.4,0-0.6,0.3-0.3,0.6c0.1,0.1,0,0.2-0.1,0.1c-0.4-0.4-0.1-1.1,0.5-0.9
		C9,33.8,8.9,33.9,8.8,33.9 M8.4,35.3c0.2,0,0.2,0.2,0,0.2c-0.4,0-0.6,0.5-0.3,0.7c0.1,0.1,0,0.2-0.1,0.1C7.6,36,7.8,35.2,8.4,35.3
		 M8.2,37c0.2,0,0.2,0.1,0.1,0.2c-0.5,0.1-0.5,0.5-0.2,0.8c0.1,0.1,0,0.2-0.1,0.2C7.4,37.9,7.6,37.1,8.2,37 M8.1,39
		c0.2-0.1,0.3,0.1,0.1,0.1c-0.4,0.3-0.3,0.7,0.2,0.9c0.2,0,0.1,0.2,0,0.2C7.5,40.2,7.4,39.3,8.1,39 M5.2,58.3
		c0.3-0.3,0.4-0.2,0.1,0.1c-0.4,0.4-1.5,1.6-2,2.3c-0.3,0.4-0.3,0.7-0.3,1c0.2,0,0.5-0.1,0.7-0.2c0,0,0.1-0.1,0.1-0.1
		c0.6-0.8,1.7-1.9,2.1-2.3c0.3-0.3,0.4-0.2,0.1,0.1c-0.4,0.4-1.5,1.6-2,2.3c-0.3,0.4-0.3,0.7-0.3,1c0.2,0,0.5-0.1,0.7-0.2
		c0.6-0.8,1.7-1.9,2.1-2.3c0.3-0.3,0.4-0.2,0.1,0.1c-0.4,0.4-1.5,1.6-2,2.3c-0.3,0.4-0.3,0.7-0.3,1c0.4-0.1,0.9-0.2,1.2-0.5
		c1.7-1.7,4.2-4.1,5.6-5.3c0.5-0.4,0.6-0.3,0.2,0.1c-0.1,0.1-0.1,0.1-0.2,0.2c0.5,0.1,1.2,0.6,1.4,1.1c0.1,0.3,0,0.5-0.2,0.5
		c-0.6-0.1-1.7-0.2-3.1,0.3c-0.2,0.2-0.3,0.3-0.5,0.5c1.4-0.6,3-0.6,3.7-0.4c0.3-0.7,0.7-1.4,1.3-2c0.1-0.2,0.3-0.1,0.1,0.2
		c-1.9,2.8-2.3,6-2.3,6.2s5.6-2.8,6.7-8.5c0.1-0.4,0.2-0.4,0.2-0.1c0.6-0.5,4.8-3.8,3-7.5c0.1-0.1,0.7-2-1.2-5.9
		c-0.2-0.3-0.1-0.4,0.1-0.1c0.6,0.9,2.2,3.6,1.7,6.1c0.1,0.1,2.8,3.9-4,9.2c-0.1,0.2-0.2,0.5-0.2,0.7c1.6-1.1,7.1-5.2,4.7-9.8
		c0.5-3.6-1.7-6.5-5.7-11.5c-0.9-1.1-1.1-1.5-1-2.1c0-0.1,0-0.2,0-0.3c-0.1-0.3-0.3-0.6-0.5-0.9c-0.2,1-2.2,1.5-2.8,0
		c-0.1-0.1,0.1-0.2,0.1-0.1c0.5,0.7,1.6,0.8,2.2,0.2c0.1-0.1,0.3-0.5,0-0.8c-0.3-0.5-0.6-1-0.1-1.5c0.2-0.2,0.6-0.7,0.7-1
		c-0.5-0.2-2.5-0.9-3.7,0.5c-1.1,1.2-0.4,3.8,2.2,6.2c0.8,0.7,1.4,1.3,2.2,2.2c2.6,2.7,3.3,5.5,0.6,8.2c0.4,0,1,0.1,1.7-0.1
		c0.2,0,0.3,0.1,0,0.2c-4.2,1.1-6.6-2.9-8.1-8.5c-0.1-0.5-0.2-0.8-0.2-1.2c0,0,0.1-0.9-0.2-2c-0.3-1.3-0.5-2.5-0.7-3.6
		c-0.6-0.5-1.6,0.1-1.3,0.9c0,0.1,0,0.2-0.2,0.2c-0.7-0.1-1.2,0.8-0.4,1.4c0.1,0.1,0.2,0.3-0.1,0.3c-0.8,0.2-0.9,1.1-0.3,1.5
		c0.2,0.1,0.2,0.2,0,0.3c-0.6,0.3-0.6,1.1-0.1,1.3c0.2,0.1,0.2,0.2,0,0.3c-0.7,0.5-0.4,1.3,0.2,1.4c0.1,0,0.2,0.1,0.1,0.3
		c-0.7,0.6-0.4,1.3,0.2,1.4c0.2,0,0.2,0.1,0.1,0.2c-0.4,0.5-0.3,1.2,0.5,1.1c0.2,0,0.2,0.2,0.1,0.2C7.7,44,8,44.6,8.5,44.6
		c0.1,0,0.2,0.1,0.1,0.2c-0.2,0.6,0,1.1,0.7,1.1c0.2,0,0.2,0.1,0.1,0.3c-0.4,0.7,0,1.1,0.6,1.1c0.2,0,0.2,0,0.2,0.2
		c-0.1,0.6,0.4,1.2,1.1,0.9c0.2-0.1,0.3,0,0.3,0.2c-0.1,0.5,0.6,1,1.2,0.6c0.2-0.1,0.3-0.1,0.3,0.1c0.1,0.4,0.9,0.5,1.2,0.1
		c0.1-0.1,0.2-0.1,0.3,0c0.3,0.7,1.1,0.5,1.3,0.1c0.1-0.2,0.2-0.2,0.3-0.1c0.3,0.2,0.7,0,0.8-0.1c0.1-0.1,0.3,0,0.2,0.1
		c-0.1,0.1-0.2,0.3-0.4,0.3c-0.2,0.1-0.5,0-0.7-0.1c0,0,0,0,0,0c-0.1,0.1-0.1,0.2-0.2,0.3c-0.1,0.7-0.3,1.4-0.5,1.9
		c-0.3,0.7-0.7,0.9-1,1c-1.5,1.9-4.2,1.4-5.6,1c0.3-0.3,1.2-1.2,1.6-1.7c-0.1-0.1-0.1-0.1-0.1-0.1c0,0-0.1,0-0.1,0
		c-1.1,1.1-6.8,7-7.3,7.7c-0.2,0.4-0.3,0.7-0.3,1c0.2,0,0.5-0.1,0.8-0.2C3.8,59.7,4.8,58.7,5.2,58.3 M15.5,31.3
		c0.4-0.3,1.3-0.5,1.8-0.5c0.3,0,0.3,0.1,0,0.1c-0.4,0.1-1.3,0.3-1.7,0.6C15.5,31.6,15.3,31.5,15.5,31.3 M15.7,33.1
		c-0.2-0.5-0.3-0.7-0.3-0.9c0-0.4,0.8-0.8,1.5-1c1.5-0.5,6.7-0.8,7.2-0.8c0.6,0,1,0,1.6,0.1c0.4,0.1,0.4,0,0-0.2
		c-0.3-0.1-0.5-0.2-1.2-0.3c-0.6-0.1-3.5,0-8.8,0.5c-0.1,0.5-0.7,1-0.8,1.2c-0.2,0.3-0.1,0.7,0.2,1.1c0.3,0.4,0.6,0.9,0.8,1.2
		C15.8,33.7,15.8,33.4,15.7,33.1 M21.4,33.1c-0.2,0.1-1.7,0.5-2.8,1c-0.5,0.2-0.7,0.6-0.9,0.9c-0.3,0.2-0.5,0.4-0.9,0.5
		c-0.4,0.1-0.6-0.4-0.3-1.6c0.1-0.2,0.1-0.2,0.1,0.1c0,0.3,0,0.6,0,0.8c0,0.2,0.1,0.2,0.3,0.1c0.5-0.1,0.9-0.9,1.2-1
		c0.3-0.1,0.5-0.1,0.8-0.2c0.8-0.3,1.8-0.6,2.4-0.7C21.6,32.9,21.7,33,21.4,33.1 M24.9,32.4c-3.1,0.1-8.2,0.2-9.1,0.2
		c0,0.1,0.1,0.2,0.1,0.3c0.2,0.4,0.3,0.9,0.1,1.5c-0.1,0.5-0.1,1,0.6,1.9c0.1-0.2,0.1-0.4,0.3-0.6c0.2-0.2,0.6-0.4,0.9-0.6
		c0.3-0.2,0.5-0.6,0.9-0.9C18.9,34.2,21.3,33.1,24.9,32.4C25.1,32.5,25,32.4,24.9,32.4 M4.3,42.9c0.6-0.2,1.7-0.7,2.5-1.2
		c-0.1-0.1-0.1-0.1-0.1-0.2c-1,0.5-2.3,1.1-3.2,1.3c-0.4,0.1-0.7,0.1-1-0.1c0.1,0.5,0.5,1.1,1.6,0.8c0.9-0.3,2.2-1,3.1-1.5
		c0,0,0,0,0-0.1c-0.1,0-0.2-0.1-0.3-0.2C6,42.3,4.9,42.8,4.3,42.9C4.1,43.1,4,43,4.3,42.9 M13.2,52.3C13.2,52.3,13.2,52.3,13.2,52.3
		C13.2,52.3,13.2,52.3,13.2,52.3c0.2-0.1,0.3-0.3,0.4-0.5c0.3-0.5,0.6-1.3,0.9-2c0,0,0-0.1-0.1-0.1c-0.1,0.1-0.2,0.2-0.4,0.2
		c-0.2,0.5-0.4,1-0.6,1.3c-0.1,0.3-0.2,0.2-0.1,0c0.2-0.3,0.3-0.8,0.5-1.2c-0.1,0-0.3,0-0.4,0c0,0,0,0,0,0c-0.3,0.7-0.7,1.5-1.1,2
		c-0.1,0.1-0.2,0.2-0.3,0.3C12.3,52.4,12.7,52.6,13.2,52.3 M14.7,51.1c0.1-0.2,0.2-0.6,0.3-0.9c-0.1,0-0.2-0.1-0.4-0.2
		c-0.2,0.7-0.5,1.5-0.8,2c-0.1,0.1-0.1,0.2-0.2,0.3c0.4,0.3,1.1,0.5,1.6-0.6c0.2-0.4,0.3-1,0.4-1.6c-0.1,0-0.2,0.1-0.3,0.1
		c0,0-0.1,0-0.1,0c-0.1,0.4-0.2,0.7-0.3,0.9C14.7,51.3,14.7,51.3,14.7,51.1 M12.1,51.6c0.4-0.5,0.7-1.2,1.1-1.9
		c-0.1-0.1-0.2-0.2-0.3-0.3c-0.3,0.6-0.7,1.2-0.9,1.5c-0.2,0.3-0.2,0.2-0.1,0c0.2-0.4,0.6-0.9,0.9-1.5c-0.1,0.1-0.3,0.1-0.5,0.1
		c-0.4,0.7-0.8,1.3-1.2,1.8c-0.2,0.2-0.4,0.4-0.6,0.5C10.8,52.2,11.4,52.6,12.1,51.6 M10.9,51.1c0.4-0.4,0.8-1,1.1-1.6
		c-0.1,0-0.2-0.1-0.3-0.1c0,0-0.1,0-0.1-0.1c-0.3,0.5-0.6,0.9-0.8,1.1c-0.2,0.2-0.3,0.2-0.1,0c0.2-0.3,0.5-0.7,0.8-1.2
		c-0.1-0.1-0.1-0.2-0.2-0.2c-0.5,0.7-1,1.4-1.5,1.9c-0.2,0.2-0.4,0.3-0.6,0.4C9.6,51.7,10.2,52,10.9,51.1 M9.8,50.6
		c0.5-0.5,1.1-1.2,1.5-1.9c0,0,0,0,0-0.1c0,0,0,0,0,0c-0.2,0.1-0.3,0.1-0.5,0.1c-0.4,0.5-0.8,1-1.1,1.2c-0.2,0.2-0.3,0.1-0.1,0
		c0.3-0.3,0.6-0.7,1-1.2c-0.1,0-0.2-0.1-0.3-0.1c-0.5,0.6-1,1.2-1.5,1.6c-0.3,0.2-0.5,0.4-0.7,0.4C8.4,51,9,51.4,9.8,50.6 M8.8,50
		c0.4-0.4,1-1,1.4-1.5c-0.1-0.1-0.2-0.2-0.2-0.3c-0.5,0.5-0.9,1-1.2,1.2c-0.2,0.2-0.3,0.1-0.1-0.1C9,49,9.5,48.5,9.9,48
		c0-0.1,0-0.1,0-0.2c0-0.1,0-0.1,0-0.2h0c-0.6,0.7-1.3,1.5-2,2c-0.3,0.2-0.6,0.3-0.8,0.4C7.4,50.3,7.9,50.7,8.8,50 M7.8,49.3
		c0.6-0.4,1.2-1.1,1.8-1.8c-0.1,0-0.2-0.1-0.3-0.2c-0.5,0.5-1.1,1-1.4,1.3c-0.2,0.2-0.3,0.1-0.1-0.1c0.4-0.3,0.9-0.8,1.4-1.3
		c0,0,0-0.1-0.1-0.1c0,0,0-0.1-0.1-0.1c-0.6,0.6-1.3,1.3-2,1.7C6.8,48.9,6.5,49,6.2,49C6.4,49.5,6.9,50,7.8,49.3 M7.1,48.4
		c0.6-0.4,1.3-1.1,2-1.7c0,0,0-0.1,0-0.1c0-0.2,0-0.3,0.1-0.5c0,0,0,0,0,0c-0.7,0.7-1.5,1.3-1.9,1.6c-0.3,0.2-0.3,0.1-0.1-0.1
		c0.5-0.3,1.2-1,1.9-1.6c-0.1,0-0.2-0.1-0.3-0.1c-0.7,0.7-1.5,1.4-2.2,1.8C6,48,5.7,48.1,5.4,48C5.6,48.5,6.1,49.1,7.1,48.4
		 M6.4,47.5c0.6-0.4,1.4-1,2.1-1.6c0,0-0.1-0.1-0.1-0.1c0-0.1-0.1-0.1-0.1-0.2c-0.7,0.5-1.4,1.1-1.8,1.3c-0.3,0.2-0.3,0.1-0.1-0.1
		c0.5-0.3,1.2-0.9,1.8-1.4c0-0.1,0-0.1,0-0.2c0-0.1,0-0.1,0-0.2c-0.8,0.7-1.7,1.4-2.5,1.8c-0.4,0.2-0.7,0.3-1,0.2
		C4.9,47.5,5.4,48.1,6.4,47.5 M5.8,46.6c0.7-0.4,1.8-1.2,2.5-1.8c-0.1,0-0.2-0.1-0.3-0.2c-0.8,0.6-1.6,1.1-2,1.3
		c-0.3,0.1-0.3,0.1-0.1-0.1c0.5-0.3,1.3-0.9,2-1.4c0-0.1-0.1-0.1-0.1-0.2c0,0,0,0,0-0.1c-0.8,0.6-1.8,1.3-2.5,1.6
		c-0.4,0.2-0.7,0.2-1,0.2C4.3,46.5,4.7,47.1,5.8,46.6 M5.1,45.6c0.8-0.3,1.7-1,2.5-1.6c0,0,0,0,0,0c0-0.1,0-0.3,0.1-0.5
		c-0.9,0.6-1.9,1.2-2.4,1.5c-0.3,0.1-0.3,0-0.1-0.1c0.6-0.3,1.6-1,2.4-1.5c-0.1,0-0.2-0.1-0.3-0.1c-0.9,0.6-1.9,1.3-2.8,1.6
		c-0.4,0.2-0.8,0.2-1.1,0.1c0,0,0,0,0,0C3.6,45.5,4.1,46.1,5.1,45.6 M4.6,44.6c0.8-0.3,1.8-0.9,2.6-1.5C7.2,43.1,7.1,43,7.1,43
		c0,0,0-0.1,0-0.1c-0.8,0.5-1.7,1-2.2,1.1c-0.3,0.1-0.3,0-0.1-0.1c0.6-0.3,1.5-0.8,2.3-1.2c0,0,0,0,0-0.1c0-0.1,0-0.2,0-0.2
		c-0.9,0.5-2.1,1.2-3,1.4c-0.4,0.1-0.8,0.1-1,0C3.1,44.3,3.5,45,4.6,44.6 M2,41.7c0.1,0.5,0.5,1.1,1.5,0.9c0.9-0.2,2.2-0.8,3.2-1.2
		c0-0.1,0-0.1,0-0.2c0-0.1,0-0.1,0-0.2c-1,0.4-2.3,0.9-2.8,1c-0.3,0.1-0.3,0-0.1-0.1c0.7-0.2,2-0.7,3-1.1c0.1-0.1,0.2-0.3,0.3-0.4
		c0,0,0,0,0,0c-1,0.5-2.8,1.2-4,1.4C2.5,41.8,2.2,41.8,2,41.7 M2.4,40.7c-0.4,0-0.7,0-0.9-0.1c0.1,0.5,0.4,1.2,1.4,1
		c1.1-0.2,2.9-0.9,3.8-1.3c-0.1-0.1-0.1-0.1-0.2-0.2c-1.1,0.4-2.6,0.8-3.2,1C3,41,3,40.9,3.2,40.9c0.8-0.2,2.3-0.7,3.2-1
		c0,0,0-0.1,0-0.1c0,0,0-0.1,0-0.1C5.3,40,3.6,40.6,2.4,40.7 M2,39.5c-0.4,0-0.7-0.1-0.9-0.3c0,0.5,0.3,1.3,1.4,1.2
		c1.2-0.1,3-0.7,4-1c0-0.1,0-0.2,0.1-0.3c-1.1,0.3-2.9,0.7-3.6,0.8c-0.3,0-0.3-0.1-0.1-0.1c1-0.1,3-0.6,3.8-0.9
		c0.1-0.1,0.1-0.1,0.2-0.2c0,0-0.1,0-0.1-0.1C5.9,38.8,3.5,39.5,2,39.5 M0.8,37.8c0,0.4,0,1.4,1.2,1.4c1.4,0,3.8-0.6,4.5-0.8l0,0
		c-0.1-0.1-0.1-0.2-0.1-0.2c-1.1,0.3-3.1,0.5-3.8,0.6c-0.3,0-0.3-0.1,0-0.1c1-0.1,3-0.4,3.8-0.6c0-0.1,0-0.1,0-0.2c0,0,0,0,0,0
		c-0.9,0.2-3.2,0.5-4.6,0.3C1.3,38.1,1,38,0.8,37.8 M0.7,36.3c-0.1,0.4-0.2,1.5,1.1,1.6c1.4,0.2,3.9-0.1,4.5-0.3l0,0c0,0,0,0,0,0
		c-0.5,0-1-0.1-1.6-0.1c-1,0-2,0-2.5,0c-0.3,0-0.3-0.1,0-0.1c0.4,0,1,0,1.7,0C2.7,37.2,1.6,36.8,0.7,36.3 M0.3,35.4
		c-0.2-0.1-0.2,0-0.1,0.1c1.1,1.3,4,1.9,6.3,2c0.1-0.1,0.2-0.2,0.3-0.3c0,0-0.1,0-0.1,0c-1.7-0.1-3.5-0.4-5.1-1
		c-0.2-0.1-0.2-0.1,0-0.1c1.1,0.4,2.4,0.6,3.6,0.8c-0.9-0.2-1.7-0.5-2.5-0.8C1,35.6,0.3,35.4,0.3,35.4 M2.9,34.9
		c-1.9-0.7-2.7-1.2-2.8-1.2c-0.1-0.1-0.1,0-0.1,0c0.2,0.3,1.5,2.2,6.7,3.1c-0.1-0.1-0.2-0.2-0.2-0.3c-1.7-0.4-3.7-1.1-5.3-2
		c-0.2-0.1-0.1-0.2,0-0.1c1.2,0.6,2.6,1.2,4,1.6C4.5,35.7,3.7,35.3,2.9,34.9 M0.3,31.8c-0.1-0.1-0.1-0.1-0.1,0
		c0.1,0.4,1,2.6,6.2,4.4c0,0,0,0,0-0.1c0-0.1,0-0.1,0-0.2c0,0,0,0,0,0c-1.7-0.7-3.7-1.8-5.2-3.1c-0.1-0.1-0.1-0.2,0.1-0.1
		c1.5,1.2,3.5,2.3,5.2,3c0,0,0,0,0,0c-1-0.5-2.3-1.3-3.4-2.1C1.3,32.5,0.4,31.8,0.3,31.8 M0.4,29.4c-0.1-0.1-0.1-0.1-0.1,0
		c0.4,2.5,4,4.9,6.4,6.2c0.1-0.1,0.1-0.2,0.2-0.2c-1.7-1-4.2-2.7-5.8-4.7c-0.1-0.1-0.1-0.2,0.1-0.1c1.7,1.9,4.2,3.6,5.9,4.7
		c0,0,0.1,0,0.1-0.1C7.1,35.1,7,35,6.9,34.9c0,0,0,0-0.1,0c-0.4-0.2-0.8-0.5-1.3-0.9C2.2,31.5,0.5,29.5,0.4,29.4 M1.1,27.1
		C1,27,1,27,1.1,27.1c-0.1,2.6,3.4,5.7,5.6,7.3c0.1,0,0.1,0.1,0.2,0.1c0-0.1,0-0.1,0-0.2c0,0,0-0.1,0-0.1c-1.5-1.2-4-3.4-5.2-5.8
		c-0.1-0.2,0-0.2,0.1,0c1.3,2.2,3.6,4.3,5.2,5.6c0,0,0,0,0-0.1c0-0.1,0.1-0.1,0.1-0.2C2.9,30.2,1.1,27.3,1.1,27.1 M7.7,33.4
		c-3.7-4.6-5.1-8.2-5.1-8.3c-0.1-0.1-0.1-0.1-0.1-0.1c-0.6,2.9,2.9,6.9,4.6,8.6c0.1,0,0.1-0.1,0.2-0.1c-1.2-1.4-3.6-4.2-4.5-7.1
		c-0.1-0.2,0-0.2,0.1,0c1,2.7,3.4,5.7,4.6,7C7.5,33.4,7.6,33.4,7.7,33.4 M7.9,32.5c-3-5.3-3.7-9.2-3.7-9.4c0-0.1-0.1-0.2-0.1-0.1
		c-1.2,3.2,2.5,8.6,3.6,10c0-0.1,0-0.2,0-0.2c-0.8-1.2-3.1-4.9-3.6-8.3c0-0.2,0.1-0.2,0.1,0c0.6,3.1,2.8,6.9,3.6,8.2
		C7.8,32.6,7.9,32.5,7.9,32.5 M8.6,32.1C6.4,26,6.4,21.8,6.4,21.7c0-0.1,0-0.2-0.1-0.1c-2,3.2,1.2,9.5,1.8,10.8c0,0,0.1,0,0.1-0.1
		C8,31.7,5.9,26.9,6.1,23c0-0.2,0.1-0.2,0.1,0c-0.1,3.7,2,8.6,2.2,9.2C8.5,32.2,8.5,32.2,8.6,32.1 M8.3,23.1c0-0.1-0.1-0.1-0.1,0
		c-0.8,0.9-0.8,3.6-0.5,5.6c0.5,1.8,1,3.2,1.2,3.5c0.1,0,0.2,0.1,0.3,0.1C8.4,27.7,8.3,24.6,8.3,23.1 M10.5,30.5l0-0.1
		c0.1,1.6,0.3,2.9,0.4,3.3c0.1,0.5-0.1,0.7-0.2,0c-0.5-2.4-0.9-9.6-0.3-12.1c0-0.1,0-0.1-0.1-0.1c-1.6,1.6-1.3,6.4-1.1,8.3
		c0.5,3.1,1.1,5.6,1.2,6.3c0.2,1.2,0.2,1.6,0.1,2c0,0.4,0,0.7,0.1,1.1c1.2,4.4,2.6,6.8,4.3,7.8c-0.3-0.5-0.4-1.2,0-2.5
		c0.9,1.2,1.9,1.9,2.3,2c0.1-0.1,0.1-0.2,0.2-0.2c-2.6-1.4-4-5.4-4.6-9.7c0-0.1-0.1-0.1-0.1-0.2l-0.4-0.6c-1.2-1.6-1.5-3.3-1.2-4.3
		c0,0,0.2-0.4,0.4-0.7c0,0,0.1-0.1,0.1-0.1c-0.2-3-0.1-5,0.1-6c0-0.1,0-0.1-0.1,0C10.6,25.7,10.4,28.1,10.5,30.5 M22.6,26.3
		c0.2,0.1,0.2,0.1,0,0.2c-0.3,0-0.7,0.5,0,1.1c-0.3-0.5,0.1-1,1-0.9c0.3,0,0.3,0.2,0.1,0.2c-0.9,0.1-0.7,0.8-0.5,1
		c0.4,0.3,0.8,0.4,1.2,0.5c0.2,0.1,0.2,0.2,0,0.2C22,28.3,21.3,26.4,21,25c0-0.1,0.1-0.2,0.1-0.1C21.5,25.5,22,26.1,22.6,26.3
		 M21,21.4c-0.1,0.1-0.2,0-0.1-0.1c0.6-0.7,1.4-1.2,2.3-1.4c0.1,0-0.2,0.2-0.2,0.3c0,0.1,0.2,0.2,0.1,0.2
		C21.9,20.5,21.6,20.9,21,21.4 M22.1,21.3c0.4-0.1,0.7,0,1,0c0.4,0,0.6-0.3,0.7-0.6c0,0,0.1-0.1,0.1,0c0.1,0.2,0,0.6-0.3,0.8
		c-0.2,0.1-0.1,0.2,0.1,0.2c0.3,0,0.6-0.3,0.6-0.7c0,0,0-0.1,0.1,0c0.1,0.1,0.3,1-0.6,1.5c-0.1,0.1-0.1,0-0.2-0.1
		c-0.1-0.4-0.5-1-1.5-0.9C21.9,21.4,21.9,21.3,22.1,21.3 M23.3,17.5c-0.3,0.1-1.3,0.8-1.6,1.1c-0.1,0.1-0.3,0.1-0.1-0.1
		c1.9-2.2,3.5-1.5,4.6-1.8c0.1,0,0.1,0,0.1,0.1c-0.2,0.4-0.5,1.1-1,1.4c-0.1,0.1-0.2,0.1-0.2-0.1c0.1-0.4-0.3-0.9-0.8-0.9
		c-0.1,0-0.5,0.1-0.4,0.1c0.5,0.1,1.1,0.9,0.6,1.6c-0.2,0.2-0.3,0.2-0.2,0C24.6,18,23.6,17.4,23.3,17.5 M20.2,19.5
		c-0.3,0.5-0.5,1.6-0.7,2.7c0,0.1-0.1,0.1-0.1,0c0-0.9,0-2,0.1-2.9c0-0.1,0.2,0.1,0.3,0.2C19.9,19.5,20.3,19.5,20.2,19.5 M20.3,12
		c0.1-0.2,0.3-0.2,0.5,0c0.3,0.2,0.8,0.7,1,1c0.1,0.2,0.2,0.3,0.1,0.5c-0.1,0.3-0.5,1.1-0.7,1.3c-0.1,0.2-0.2,0.1-0.1-0.1
		c0.1-0.2,0.2-0.5,0.2-0.7c0-0.2-0.7-0.8-1.1-1.2C20,12.7,20.2,12.2,20.3,12 M17.2,9.1c0.2,0,0.1,0.1,0,0.1
		c-0.6,0.2-1.3,0.3-2.3,1.4c-0.1,0.1,0-0.2-0.1-0.3c-0.1-0.1-0.4-0.1-0.3-0.2C15.1,9.8,16.3,9.2,17.2,9.1 M15.1,11.3
		c0.5,0.4,1.4,0.1,1.5-0.2c0.1-0.3,0.3-0.6,0.5-0.8c0.2-0.2,0.3-0.1,0.2,0.1c-0.6,0.8-0.6,1.7-0.3,2.4c0.1,0.2,0,0.2-0.2,0.2
		c-0.4-0.1-1.1-0.3-1.4-0.7c-0.1-0.1,0-0.1,0.1-0.1c0.4,0.1,0.8,0,1-0.1c0.2-0.2,0.1-0.4,0-0.4c-0.3,0.2-0.9,0.3-1.3,0
		C14.9,11.6,14.9,11.2,15.1,11.3 M13.5,10.1c-1.6-0.4-2.9-1.6-2.5-3.4c0.1-0.3,0.2-0.3,0.3-0.1c0.2,0.5,0.5,0.9,0.7,1
		c0.1,0.1,0.1,0.1,0,0.2c-0.4,0.1-0.6,0.7-0.2,1.1c0.1,0.1,0.1,0,0.1-0.1c-0.2-0.5,0.3-0.9,0.9-0.8c0.1,0,0.1,0.1,0,0.1
		c-0.4,0.1-0.8,0.6-0.3,1.1c0.3,0.3,0.9,0.5,1.1,0.5C13.7,10,13.6,10.1,13.5,10.1 M11.9,5.6c0.4-0.4,1-0.4,1.2-0.4
		c0.2,0,0.2,0,0.2,0.2c-0.1,0.6-0.5,1.1-1,1.6c-0.1,0.1-0.2,0,0-0.2c1-1.1,0.9-1.7-0.2-1.1C11.8,5.8,11.8,5.6,11.9,5.6 M18,22.2
		c-0.6-0.8-1.4-2.4-1.9-3.5c0-0.1,0.2,0,0.3,0c0.1,0,0.3-0.3,0.4-0.2c0.3,1.5,0.7,2.5,1.3,3.6C18.2,22.3,18.1,22.3,18,22.2 M16.2,21
		c0.1,0.2,0,0.2-0.1,0c-0.4-0.6-0.8-1.1-1.7-1.5c-0.1,0,0-0.1,0.1-0.2c0.1-0.1-0.2-0.5-0.1-0.4C15.1,19.4,15.9,20.1,16.2,21
		 M15.6,17.9c0.1,0.2,0,0.2-0.1,0.1c-0.2-0.3-0.5-0.7-0.7-0.9c-0.2-0.2-1.2-0.1-1.2,0.8c0,0.2-0.1,0.2-0.2,0
		c-0.4-0.8,0.3-1.2,0.8-1.2c0.1,0-0.2-0.2-0.3-0.2C13.5,16.4,13,16.7,13,17c0,0.1-0.1,0.2-0.2,0c-0.3-0.5-0.4-1.3-0.5-1.6
		c-0.1-0.1,0-0.1,0.1,0C13.5,16,15.1,16.6,15.6,17.9 M14.5,20.9c0.3,0,0.6,0,0.8,0.1c0.2,0.1,0.1,0.2,0,0.1c-1-0.1-1.3,0.4-1.4,0.7
		c0,0.1,0,0.2-0.2,0.1c-0.2-0.1-1-0.7-0.6-1.6c0-0.1,0.1-0.1,0.2,0c0,0.4,0.2,0.7,0.6,0.8c0.2,0,0.3,0,0.1-0.2
		c-0.3-0.2-0.5-0.6-0.3-1c0.1-0.1,0.1-0.1,0.1,0C13.7,20.4,14.1,20.9,14.5,20.9 M28.4,30.1c0.1-0.1,0.2-0.1,0.1,0
		c-0.2,0.9-0.6,1.9-0.9,2.8c0,0.1-0.2-0.1-0.3-0.2c-0.1-0.1-0.5,0.1-0.4,0C27.5,32,27.9,31.1,28.4,30.1 M27.7,35.3
		c0.1-0.1,0.2-0.1,0.1,0.1c-0.4,1.7-2.5,2-3.3,2.3c-0.1,0-0.2,0-0.1-0.1c0-0.3,0.3-1.1,0.5-1.6c0.1-0.1,0.2-0.2,0.2,0
		c0.1,0.3,0.3,0.9,1,0.8c0.2,0,0.5-0.2,0.3-0.2c-0.6,0-1.2-0.6-0.9-1.2c0.1-0.2,0.2-0.2,0.2,0c0.1,0.8,1.1,1,1.3,0.9
		C27.2,36,27.4,35.8,27.7,35.3 M28.3,32.8c0.3-0.4,0.5-1.4,0.6-2.4c0-0.1,0.1-0.1,0.1,0c0,0.9,0,1.6-0.1,2.4c0,0.1-0.1-0.1-0.2-0.2
		C28.6,32.6,28.3,32.8,28.3,32.8 M29.2,34.9c0.4,0.3,0.9,0.1,1.1-0.1c0.2-0.3,0-0.8,0.1-1.7c0-0.2,0.1-0.1,0.1,0
		c0.1,1-0.1,2,0.8,2.6c0.1,0.1,0.1,0.1,0,0.2c-0.2,0.2-1.2,0.6-2-0.1c-0.1-0.1-0.1-0.2,0.1-0.1c0.5,0.2,1,0,1.1-0.3
		c0.1-0.2,0-0.3-0.3-0.1C30,35.4,29.4,35.4,29.2,34.9C29,34.9,29,34.8,29.2,34.9 M21,22.9c0.2-1.8,2.3-1.7,2.3,0
		c1.7-0.6,2-2.4,0.3-2.7c-0.2-0.1-0.3-0.3,0-0.4c2.3-0.9,3.1-2.8,3.1-3.7c-2.4,0.5-3.7-0.2-6,2.6c-0.6,0.8-1.3,0.2-0.9-0.8
		c0.6-1.4,2-3.4,2.4-4.3c0.2-0.7,0.2-1.2-0.1-1.6c-0.2-0.4-2.7-3.1-3-3.5C18.5,8,17.8,7.9,16.9,8c-4.5,0.6-5.7-0.7-5.3-2.4
		c0.1-0.4,0.2-0.1,0.2,0c-0.1,0.6,0,1.2,0.6,1.6c0.3-0.3,1.2-1,1.4-2.3c0-0.1,0-0.1-0.1-0.2c-1.1-0.1-1.9,0.2-2.1,0.5
		c-0.3,0.3-0.7,1-0.8,2.1c0,1.8,1.9,3.1,3.7,3.1c0.2,0,0.2,0.1,0.2,0.3c0,0.2-0.2,2.4,2.7,2.5c0.1,0,0.2,0,0.1-0.2
		c-0.8-1.5,0.1-3.5,2.1-3.1c0-0.1-0.1-0.2-0.1-0.2c-0.3-0.1-0.6-0.1-1,0c-0.1-0.6-0.3-0.9-0.6-1.2c-0.1,0-0.2-0.1-0.3-0.1
		c-0.5-0.1-0.5-0.2-0.1-0.2c1.3,0,2.4,1.2,2.7,2.3c0.1,0.5,0,1.1-0.7,2.2c-1.3,2-2.2,3.9-2.8,5.2c-0.1,0.3-0.3,0.3-0.5-0.1
		c-0.8-2-2.5-2.2-4.1-3.2c-0.1-0.1-0.1,0-0.1,0.1c0.4,1.5,0.1,2.6,2.2,4.2c0.2,0.2,0.1,0.3,0,0.4c-1.8,0.3-1.6,2.6,0,3.1
		c0.1,0,0.1,0,0.1-0.1c-0.3-1.1,1.1-1.6,1.9-0.4c1.2,1.9,2.1,2.1,2.7,2.2c0.5,1.1,1.4,1.7,1.8,1.9c0-0.1-0.1-0.2-0.1-0.4
		c-0.8-0.4-1.4-1.3-1.6-1.7c-0.3,0-0.5-0.1-0.8-0.3c0.2-0.3,1.1-1.1,2.4-0.2c0-0.1,0-0.2,0-0.3c0.1-0.3,0.2-0.3,0.2,0.1
		c-0.5,4.2,2.7,6.3,6.1,5.4c0.2-0.1,0.4,0.1,0.3,0.4c-0.1,0.3-0.4,0.8-0.7,1.3c0,0,0.1,0.1,0.1,0.1c0.2,0.1,0.1,0.3-0.2,0.2
		c0,0-0.1,0-0.1,0c-1.3,1.6-2.7,1-2.9,0.9c-0.1-0.1-0.2-0.2-0.2,0c0,0.1,0,0.4,0,0.6c0.1,0,0.2,0,0.3,0c0-0.1,0-0.3,0.1-0.3
		c0.4,0.1,1.5,0.4,2.6-0.8c0.1-0.1,0.2,0,0.1,0.1c-0.4,0.5-0.6,0.7-0.8,0.9c0.1,0,0.2,0,0.3,0c0.2,0,0.3,0.2,0,0.3
		c-0.1,0-0.3,0.1-0.4,0.1c0.1,0.3,0.3,0.4,0.7,0.5c0.2,0,0.2,0.1,0,0.2c-0.6,0.1-1.1-0.1-1.2-0.5c-0.1,0-0.2,0-0.3,0.1
		c0.1,0.4,0.3,0.6,0.8,0.7c0.2,0,0.2,0.1,0,0.2c-0.6,0.2-1.3,0.1-1.6-0.7c-0.1,0-0.2,0-0.3,0.1c0.2,0.6,0.7,0.9,1.3,0.9
		c0.8,0,1.8-0.6,2.2-0.9c0.4-0.3,0.8,0,0.6,0.4c-0.6,1.3-2.9,0.9-3.2,4.4c0,0.2-0.1,0.3,0.1,0.2c1.6-0.9,4.2-0.2,4.1-4.6
		c0-0.7,0.7-0.6,0.6,0c-0.6,3.4,2.3,3.1,3,2.2c0.1-0.2,0.1-0.2-0.1-0.3c-1.8-0.9-0.4-2.5-1.6-4.8c-0.8-0.7-1.6-1.4-2.2-1.8
		c-0.3-0.2-0.6-0.3-0.9-0.3c-0.4,0-0.6-0.2-0.4-0.6c0.4-0.7,2.4-3.3,4.4-4.8c-1.5,0.7-2.5,1.4-3.6,2.3C24.5,27.9,20.7,26,21,22.9
		 M27.9,10.1c0.8,0,0.9,1.3,1.5,1.4c0.2,0,0.5-0.4,0.5-0.3C29,11.6,29,9.6,27.9,10.1 M29.6,10.5c-0.1-0.1-0.1-0.1-0.1-0.2
		c-0.1,0.2-0.2,0.4-0.3,0.5c0.2,0.3,0.4,0.4,0.5,0.3C29.9,11,29.9,10.8,29.6,10.5 M29.8,10.4c0.3-0.1,0.6,0.1,0.8,0.3v-0.6
		C29.8,9.5,29.5,9.9,29.8,10.4 M30.2,12.4c0.1,0,0.3,0,0.4,0.1c0-0.2,0-0.6,0-1L30.2,12.4z M30.9,12.5c0.4,0.1,0.7,0.1,1.1,0.2
		l-1.1-2.1C30.9,11.3,30.9,12.2,30.9,12.5 M36.5,1.5c0,0.1-0.1,0.5-0.2,0.5c0,0.1-0.1,0.1-0.2,0.1c-0.1,0-0.5,0-0.6-0.1
		c0,0,0-0.1,0-0.1c0.1,0,0.2,0,0.3-0.1S36,1.4,36,1.4C36.1,1.4,36.4,1.4,36.5,1.5C36.5,1.4,36.5,1.4,36.5,1.5 M36.1,0.7l0,0.4
		c0.1,0,0.2,0,0.3,0c0.1,0,0.1,0,0-0.1c0,0,0-0.1,0.1,0c0.2,0.1,0.1,0.2,0,0.3C36,1.3,35,1.2,34.8,1c-0.1-0.1,0-0.2,0.1-0.2
		c0.1,0,0.1,0,0.1,0c-0.1,0-0.1,0.1,0,0.1C35,1,35.2,1,35.5,1.1c0-0.3,0.1-0.7,0.1-0.7c0-0.4-0.6-0.4-1.1-0.2
		c-0.4,0.1-0.9,0.3-1.9,0.2c-0.1,0-0.1,0,0,0.1C33.1,0.8,34.1,1,34.4,1c0,0,0,0,0,0c0-0.2,0.2-0.3,0.4-0.3c0.1,0,0.1,0,0.2,0
		c0-0.1,0-0.3-0.3-0.3c-0.1,0-0.1-0.1,0-0.1c0.1-0.1,0.3-0.1,0.5-0.1c0,0,0,0,0,0c0.4,0,0.4,0.5-0.4,0.6c-0.2,0-0.2,0.2-0.2,0.3
		c0,0.1,0,0.5,0,0.6c0,0.1,0,0.2,0.1,0.2c0.3,0.2,1.1,0.3,1.5,0.3c0.1,0,0.3-0.1,0.3-0.2c0-0.1,0.2-0.4,0.2-0.6
		c0-0.1,0.1-0.2,0.1-0.3C36.7,1,36.3,0.9,36.1,0.7 M38.1,1.9l0-1c-0.2-0.1-1.4-0.4-1.8-0.4c-0.1,0-0.2,0.1-0.1,0.1c0,0,0,0,0,0
		c0,0,0.1-0.1,0.2,0c0.3,0,0.9,0.2,1,0.2c0.1,0,0.1,0.1,0,0.1c-0.1,0-0.2,0-0.2,0.1c0,0.1,0,0.2,0,0.4c0,0-0.2,0-0.3-0.1
		c0,0,0,0.1,0,0.1C37.2,1.5,37.7,1.7,38.1,1.9 M38.4,2.5C38.4,2.5,38.4,2.5,38.4,2.5l0-2.4c-0.1,0-0.1,0-0.1,0l0,2.4
		C38.3,2.5,38.3,2.5,38.4,2.5 M39.3,3.9c0.1-0.2,0.3-0.9,0.3-0.9c0-0.1-0.5-0.2-1.1-0.2c-0.6,0-1.2,0.1-1.1,0.2
		c0,0.1,0.2,0.6,0.3,0.9c0.2-0.1,0.5-0.1,0.9-0.1c0.1,0,0.2,0,0.3,0c0-0.2,0.1-0.7,0.1-0.7c0,0,0-0.1-0.2-0.1c-0.1,0-0.1,0,0-0.1
		c0.1,0,0.5,0,0.6,0c0.1,0,0.1,0.1,0.1,0.2c0,0.2-0.1,0.6-0.2,0.7C39.1,3.9,39.2,3.9,39.3,3.9 M41.4,4.4c0.3-0.1,0.6-0.1,1-0.2
		l-3.3-0.1c-0.1,0-0.2,0-0.4,0l0,0.2c0.2,0,0.3,0,0.4,0L41.4,4.4z M41.8,4.8c0.7-0.1,1.3-0.2,1.7-0.3c-0.1-0.1-0.1-0.2,0-0.3
		c-0.5,0.1-1.1,0.2-1.8,0.3C41.7,4.6,41.7,4.7,41.8,4.8 M42.7,10.1c0.8,0,0.9,1.3,1.5,1.4c0.2,0,0.5-0.4,0.5-0.3
		C43.9,11.6,43.9,9.6,42.7,10.1 M44.3,4.1c-0.2,0-0.4,0.1-0.6,0.1c0,0.1,0,0.2,0.1,0.3c0.2,0,0.5-0.1,0.6-0.1
		C44.6,4.3,44.5,4,44.3,4.1 M44.5,10.4c-0.1-0.1-0.1-0.1-0.1-0.2c-0.1,0.2-0.2,0.4-0.3,0.5c0.2,0.3,0.4,0.4,0.5,0.3
		C44.7,11,44.8,10.8,44.5,10.4 M44.7,10.4c0.3-0.1,0.6,0.1,0.8,0.3v-0.6C44.7,9.5,44.4,9.9,44.7,10.4 M44.9,12.6
		c0.2,0,0.3-0.1,0.5-0.1v-1.1L44.9,12.6z M45.8,12.5c0.4-0.1,0.8-0.1,1.3-0.2l-1.3-2C45.8,11,45.8,12.2,45.8,12.5 M47.9,12.3
		c-1.6,0.3-3,0.5-4.3,0.7c-0.3,0-0.2,0.4,0.1,0.3c1-0.2,3-0.5,4.3-0.7C48.2,12.6,48.1,12.3,47.9,12.3 M63,10.1c-0.1,0-0.3-0.1,0-0.2
		c0.2-0.1,0.8-0.3,1.1-0.5c0.5-0.5,0.1-1.1-0.3-1.1c-0.1,0-0.1-0.1,0-0.1c0.6-0.1,1.1,0.2,0.9,0.8c0,0.1,0,0.1,0.1,0.1
		c0.4-0.4,0.2-1-0.2-1.1c-0.1,0-0.1-0.1,0-0.2c0.2-0.2,0.5-0.5,0.7-1c0.1-0.2,0.2-0.2,0.3,0.1C65.8,8.5,64.6,9.7,63,10.1 M64.4,5.6
		c-1.1-0.6-1.3,0-0.2,1.1c0.2,0.2,0.1,0.3,0,0.2c-0.6-0.5-0.9-1-1-1.6c0-0.2,0-0.2,0.2-0.2c0.3,0,0.9,0.1,1.2,0.4
		C64.7,5.6,64.7,5.8,64.4,5.6 M61.7,10.3c-0.1,0.1-0.1,0.3-0.1,0.3c-1-1.1-1.8-1.2-2.3-1.4c-0.1,0-0.2-0.1,0-0.1
		c1,0.1,2.2,0.7,2.7,1C62.1,10.2,61.8,10.3,61.7,10.3 M59.3,10.3c0.2,0.2,0.4,0.5,0.5,0.8c0.2,0.4,1,0.6,1.5,0.2
		c0.1-0.1,0.1,0.3-0.1,0.4c-0.4,0.3-1,0.2-1.3,0c-0.1-0.1-0.2,0.2,0,0.4c0.2,0.2,0.6,0.3,1,0.1c0.1,0,0.2,0,0.1,0.1
		c-0.4,0.5-1.1,0.7-1.4,0.7c-0.2,0-0.3,0-0.2-0.2c0.2-0.7,0.2-1.6-0.4-2.4C59.1,10.2,59.1,10.1,59.3,10.3 M56.2,12.1
		c0.2,0.2,0.4,0.7,0.2,0.8c-0.5,0.4-1.1,1-1.1,1.2c0,0.2,0.1,0.5,0.2,0.7c0.1,0.2,0,0.2-0.1,0.1c-0.2-0.2-0.6-1-0.7-1.3
		c-0.1-0.3,0-0.4,0.1-0.5c0.2-0.3,0.7-0.8,1-1C55.9,12,56,11.9,56.2,12.1 M56.9,19.3c0.1,0.9,0.2,2,0.1,2.9c0,0.2-0.1,0.2-0.1,0
		c-0.2-1.1-0.4-2.1-0.7-2.7c0-0.1,0.3,0,0.4-0.1C56.7,19.5,56.9,19.2,56.9,19.3 M55.5,21.4c-0.6-0.5-0.9-0.8-2.2-1
		c-0.1,0,0.1-0.1,0.1-0.2c0-0.1-0.3-0.3-0.2-0.3c0.9,0.2,1.7,0.8,2.3,1.4C55.6,21.4,55.6,21.4,55.5,21.4 M54.7,18.6
		c-0.2-0.2-1.3-1-1.6-1.1c-0.2-0.1-1.3,0.5-1,1.3c0.1,0.2,0,0.3-0.2,0c-0.5-0.7,0.1-1.4,0.6-1.6c0.1,0-0.2-0.1-0.4-0.1
		c-0.6,0.1-0.9,0.6-0.8,0.9c0,0.1,0,0.2-0.2,0.1c-0.4-0.4-0.8-1.1-1-1.4c-0.1-0.1,0-0.1,0.1-0.1c1.1,0.4,2.7-0.3,4.6,1.8
		C55,18.6,54.8,18.7,54.7,18.6 M53.4,21.3c0.3,0,0.6-0.1,1,0c0.2,0,0.1,0.1,0,0.1c-1-0.1-1.4,0.5-1.5,0.9c0,0.1,0,0.2-0.2,0.1
		c-0.9-0.6-0.7-1.4-0.6-1.5c0.1-0.1,0.1,0,0.1,0c0,0.5,0.3,0.7,0.6,0.7c0.2,0,0.3-0.1,0.1-0.2c-0.3-0.2-0.4-0.5-0.3-0.8
		c0-0.1,0.1-0.1,0.1,0C52.8,21,53,21.3,53.4,21.3 M52.3,28.3c-0.1,0.2-0.2,0.4-0.5,0.4c-0.2,0-1,0-1.3-0.1c-0.2-0.1-0.2-0.2,0-0.2
		c0.2,0,0.8,0,1-0.1c0.2-0.2,0.4-0.8,0.2-1.3c-0.1-0.2,0.2-0.2,0.5-0.2c0.2,0,0.2,0.2,0.3,0.4C52.4,27.5,52.4,28,52.3,28.3
		 M49.4,28.4c0.1,0.1-0.3,0.1-0.4,0.1c-0.1,0.1-0.1,0.4-0.2,0.3c-0.8-1.1-1.4-2.4-1.7-3.3c0-0.2,0-0.2,0.1-0.1
		C47.9,26.7,48.4,27.4,49.4,28.4 M47.3,34.9C47.4,34.8,47.5,34.9,47.3,34.9c-0.3,0.5-0.8,0.5-1.1,0.3c-0.2-0.1-0.3,0-0.2,0.1
		c0.1,0.3,0.5,0.4,1,0.2c0.1-0.1,0.2,0,0.1,0.1c-0.8,0.7-1.8,0.3-2,0.1c-0.1-0.1-0.1-0.1,0-0.2c0.3-0.2,1.2-0.8,1.4-2
		c0-0.1,0.1-0.1,0.1,0.1c0,0.5-0.2,0.9-0.1,1.2C46.6,35,46.9,35.1,47.3,34.9 M47.4,29.9c0-0.1,0.1-0.2,0.1,0
		c0.3,0.9,0.5,1.9,0.7,2.8c0,0.1-0.2-0.1-0.3-0.1c-0.1,0-0.4,0.1-0.4,0.1C47.7,32.1,47.6,31,47.4,29.9 M48.4,29.9c0-0.1,0-0.2,0.1,0
		c0.4,0.8,0.8,1.8,1.1,2.7c0,0.1-0.2,0-0.4,0c-0.1,0-0.3,0.4-0.3,0.3C48.9,31.9,48.7,31,48.4,29.9 M46.3,27.7c0,0.1-0.3-0.1-0.4-0.1
		c-0.1,0-0.4,0.2-0.4,0.1c-0.2-1.7-0.5-2.9-1-4.3c-0.1-0.2,0-0.2,0.1,0C45.2,24.5,45.9,26.3,46.3,27.7 M45,30.6
		c0.1-0.3,0.1-0.9,0.1-1.1c0-0.2,0.1-0.2,0.1-0.1c0.3,1.9-0.9,2.5-0.9,3.6c0,0.3-0.1,0.2-0.2,0.1c-0.3-0.4-0.4-1.3-0.3-1.6
		c0-0.1,0.1-0.1,0.1,0c0.2,0.3,0.7,0.3,0.8-0.2c0-0.1,0-0.2-0.1-0.1c-0.4,0.3-0.8,0.1-0.8-0.6c0-0.1,0.1-0.2,0.1,0
		C44.2,31,44.8,31.2,45,30.6 M44,29.2c0,0.1-0.2-0.1-0.3-0.1c-0.1,0-0.4,0.2-0.4,0.1c0.3-1.5,0.4-2.6,0.3-4c0-0.1,0.1-0.2,0.1,0
		C44,26.2,44,27.9,44,29.2 M42.3,32.5c-0.8,0.6-1.6,0.1-1.8-0.5c0-0.1-0.2,0.2-0.1,0.4c0.1,0.7,0.8,0.9,1.2,0.8c0.2,0,0.2,0,0.1,0.2
		c-0.4,0.6-1.2,1.2-1.6,1.4c-0.1,0.1-0.2,0-0.2-0.1c0-1.2-0.4-3.3,2-5.5c0.2-0.2,0.3-0.1,0.1,0.1c-0.3,0.3-1,1.4-1.3,2.1
		c-0.1,0.3,0.5,1.3,1.5,1C42.5,32.2,42.6,32.3,42.3,32.5 M40.9,22.5c0.2,0.4,0.4,0.8,0.4,1.2c0,0.1-0.1,0-0.1,0
		c-0.1,0-0.1,0.1-0.1,0C41,23.2,40.9,22.9,40.9,22.5C40.7,22.3,40.7,22.3,40.9,22.5 M41.7,23.9c0.1,0.2,0.2,0.2,0.4,0.4
		c0.1,0.1,0.1,0,0.1-0.1c0-0.1-0.1-0.3-0.2-0.5c-0.1-0.2,0-0.2,0.1-0.1c0.2,0.3,0.4,0.8,0.4,1.1c0,0.2-0.1,0.2-0.2,0.1
		c-0.4-0.3-0.5-0.5-0.7-0.8C41.5,23.9,41.6,23.8,41.7,23.9 M50.4,31.2c1.1,1.1,2.2,1.1,2.6,1c0.1,0,0.2,0,0.2,0.2
		c-0.2,1.2-0.9,1.5-1.8,1.2c-0.2,0-0.2-0.2,0-0.2c0.7-0.1,0.9-0.7,0.7-1c-0.1-0.2-0.2-0.1-0.2,0c0,0.5-0.5,0.9-1.3,0.7
		c-0.2,0-0.2-0.2,0-0.2c0.6-0.1,0.7-0.5,0.7-0.7c-0.1-0.4-0.5-0.4-1-1.1C50.2,31.2,50.3,31.1,50.4,31.2 M58.3,22.2
		c0.6-1.1,1-2.1,1.3-3.6c0-0.1,0.2,0.1,0.4,0.2c0.1,0,0.4-0.1,0.3,0c-0.5,1.1-1.3,2.7-1.9,3.5C58.3,22.3,58.2,22.3,58.3,22.2
		 M60.2,21c0.4-0.9,1.1-1.6,1.9-2.1c0.1-0.1-0.2,0.3-0.1,0.4c0.1,0.1,0.1,0.2,0.1,0.2c-0.9,0.4-1.3,0.9-1.7,1.5
		C60.2,21.2,60.2,21.2,60.2,21 M61.2,21c0.1-0.1,0.4-0.1,0.8-0.1c0.4,0,0.8-0.5,0.8-0.8c0-0.1,0.1-0.1,0.1,0c0.2,0.4,0,0.8-0.3,1
		c-0.2,0.2-0.1,0.2,0.1,0.2c0.3,0,0.6-0.4,0.6-0.8c0-0.1,0.1-0.2,0.2,0c0.3,0.9-0.4,1.5-0.6,1.6c-0.1,0.1-0.2,0-0.2-0.1
		c-0.1-0.4-0.4-0.9-1.4-0.7C61,21.1,61,21.1,61.2,21 M61.7,17.1c-0.3,0.2-0.6,0.6-0.7,0.9c-0.1,0.1-0.2,0.1-0.1-0.1
		c0.5-1.3,2-2,3.2-2.6c0.1,0,0.2-0.1,0.1,0C64,15.7,64,16.5,63.7,17c-0.1,0.1-0.2,0.1-0.2,0c0-0.4-0.5-0.6-0.9-0.5
		c-0.1,0-0.4,0.2-0.3,0.2c0.5,0,1.2,0.5,0.8,1.2c-0.1,0.2-0.2,0.2-0.2,0C62.9,17.1,61.9,17,61.7,17.1 M65.8,7.4
		c0-1.1-0.5-1.8-0.8-2.1c-0.3-0.3-1-0.6-2.1-0.5c-0.1,0-0.1,0-0.1,0.2c0.2,1.3,1.1,2,1.4,2.3c0.6-0.4,0.7-1,0.6-1.6
		c0-0.2,0.1-0.4,0.2,0c0.4,1.7-0.8,3-5.3,2.4c-1-0.1-1.6,0-2.2,0.7c-0.3,0.4-2.8,3.1-3,3.5c-0.2,0.4-0.3,0.9-0.1,1.6
		c0.3,0.9,1.8,2.9,2.4,4.3c0.4,1-0.3,1.6-0.9,0.8c-2.3-2.9-3.6-2.1-6-2.6c0.1,0.9,0.8,2.8,3.1,3.7c0.3,0.1,0.2,0.3,0,0.4
		c-1.7,0.4-1.4,2.1,0.3,2.7c0-1.7,2.1-1.9,2.3,0c0.3,3.1-3.5,5-6.4,2.6c-1.2-1-1.6-2.4-3.4-3.2c-0.1,0-0.2,0.1-0.3,0.1
		c0.4,0.2,0.9,0.5,1.1,0.6c0.1,0.1,0.1,0.1-0.1,0.1c-1.4-0.3-3.9-0.5-4.4-0.5c1.1,1.1,1.2,2.5,1.2,2.9c0,0.2-0.1,0.2-0.4,0.1
		c-0.1,0-0.1-0.1-0.2-0.1c0,0.5,0.1,1,0.1,1.5c0,0.1-0.2-0.1-0.3-0.2c-0.1,0-0.4,0.1-0.4,0c0.2-0.4,0.2-0.9,0.3-1.6
		c-0.4-0.3-0.6-0.5-0.8-0.8c-0.3,0.7-0.9,1-1.6,1.6c-0.4,0.4-0.5,0.5-0.6,0.8C39,27,39.5,28,40.5,27.9c0.2,0,0.3,0.1,0,0.2
		c-0.7,0.5-1.5-0.1-1.7-0.7c0-0.1-0.1,0.2-0.1,0.4c0,0.4,0.7,0.8,1.1,0.8c0.1,0,0.2,0.1,0.1,0.2c-0.4,0.4-1.1,0.7-1.4,0.8
		c-0.1,0-0.2,0-0.2-0.1c-0.1-1.1,0-2.2,0.6-3c0,0,0.1-0.1,0.1-0.1c0.2-0.2,0.4-0.4,0.6-0.6c0.6-0.5,1.2-0.9,1.4-1.5
		c0.1-0.2,0.2-0.3,0.4,0c0.5,0.8,1.2,1,1.4,1.1c-0.2-1.9-1.4-3-2-3.4c-0.3,0-0.6,0-0.9,0c1.4,1.3,0.2,2.8-0.6,3.6
		c-1.5,1.4-1.3,3-1.3,4.2c0,0.3,0.1,0.3,0.4,0.2c1.2-0.2,1.8-0.8,2.3-1.3c0.5-0.6,0.5-1.2,1.1-1.4c0.3-0.1,0.7,0.1,0.6,0.7
		c-0.2,0.8-1.9,2-2.4,3.3c-0.6,1.5-0.5,2.8-0.4,4c0,0.3,0.1,0.3,0.3,0.2c1.9-1.1,2.6-2.5,2.8-2.8c0.3-0.6,0.2-1.7,0.4-2.6
		c0.1-0.6,1-0.6,0.7,0.4c-0.4,1.7-0.1,2.8,0.7,3.6c0.1,0.1,0.3,0.2,0.2-0.1c-0.3-1.4,0.7-2.1,0.9-3.4c0.1-0.8-0.1-1.2,0-1.9
		c0-0.7,0.7-0.7,0.8,0c0.3,2.2,0.4,6.2-1.6,7c-0.2,0.1-0.2,0.1-0.1,0.3c0.7,0.9,3.6,1.2,3-2.2c-0.1-0.6,0.6-0.7,0.6,0
		c0,2.7,0.9,3.1,1.4,3.5c0.1-0.1,0.2-0.2,0.3-0.2c-0.8-0.5-1.3-1-1.4-2.5c0-0.2,0.1-0.3,0.2,0c0.1,0.4,0.2,0.6,0.3,0.8
		c0.3,0.4,1.2,0.2,1-0.4c0-0.2,0.1-0.2,0.2,0c0.3,0.8-0.5,1.1-1,1c-0.1,0,0,0.2,0.2,0.3c0.4,0.2,1.1-0.1,1.1-0.7
		c0-0.1,0.1-0.1,0.2,0c0.1,0.1,0.1,0.3,0.2,0.5c0,0,0,0,0,0c0.1-0.1,0.2-0.1,0.3-0.1c-0.4-1.2-1.5-1.6-2-2.2
		c-0.3-0.4,0.1-0.6,0.5-0.4c0.4,0.3,1.4,1,2.2,0.9c0.6,0,1-0.3,1.2-0.8c0.2-0.6,0.4-1.2,0.4-1.5c0.1-0.9-1.3-1.5-1.4-1.5
		c-0.1,0-0.2,0-0.2,0.2c0,0.3,0,0.9,0.2,1.2c0.8,0.2,1-0.5,0.4-0.9c-0.4-0.2-0.2,0.5-0.2,0.6c0,0.2,0,0.2-0.1,0
		c-0.1-0.3-0.2-0.8-0.2-0.9c0-0.1,0-0.2,0.1-0.1c0.2,0.1,0.3,0.2,0.4,0.2c0,0,0,0,0,0c1.1,0.6,0.4,1.8-1,1.2c-1.1-0.4-2-1.7-2.3-2.6
		c-0.1-0.3,0.1-0.4,0.3-0.4c3.4,1,6.6-1.2,6.1-5.4c-0.1-0.5,0.1-0.4,0.2-0.1c0,0.1,0,0.2,0,0.3c1.3-1,2.2-0.2,2.4,0.2
		c-0.3,0.2-0.5,0.3-0.8,0.3c-0.2,0.4-0.8,1.3-1.6,1.7c0,0.1-0.1,0.2-0.1,0.4c0.4-0.2,1.3-0.8,1.8-1.9c0.6-0.1,1.5-0.3,2.7-2.2
		c0.8-1.2,2.1-0.7,1.9,0.4c0,0.1,0,0.1,0.1,0.1c1.6-0.5,1.9-2.7,0-3.1c-0.2,0-0.2-0.2,0-0.4c2.1-1.6,1.8-2.7,2.2-4.2
		c0-0.1,0-0.1-0.1-0.1c-1.7,1-3.4,1.3-4.1,3.2c-0.1,0.4-0.4,0.4-0.5,0.1c-0.5-1.3-1.4-3.3-2.8-5.2c-0.7-1.1-0.8-1.6-0.7-2.2
		c0.3-1.2,1.5-2.3,2.7-2.3c0.4,0,0.5,0.1-0.1,0.2c-0.1,0-0.2,0-0.3,0.1c-0.3,0.3-0.5,0.6-0.6,1.2c-0.4-0.1-0.7-0.1-1,0
		C57.1,9.9,57,10,57,10c2-0.5,2.9,1.5,2.1,3.1c-0.1,0.1,0,0.2,0.1,0.2c2.9-0.1,2.8-2.3,2.7-2.5c0-0.2,0-0.3,0.2-0.3
		C63.9,10.5,65.8,9.2,65.8,7.4 M45.7,28.7c-0.1,0.7,0.2,1,0.1,1.9c0,0.4-0.1,0.7-0.2,1c0.2,0.4,0.3,0.7,0.5,1c0.2-1.2,0.2-2.6,0-3.8
		C46.1,28.2,45.8,28.2,45.7,28.7 M46,33.2c0-0.1,0-0.2,0.1-0.3c-0.1-0.1-0.4-0.6-0.6-1c0,0.1-0.1,0.2-0.1,0.3
		C45.5,32.5,45.8,32.9,46,33.2 M65.6,28.3c-0.2,0.3-0.5,0.7-0.7,1c0.1,0,0.2,0,0.4,0c0.1-0.3,0.3-0.5,0.5-0.6
		C65.7,28.5,65.7,28.4,65.6,28.3C65.7,28.2,65.6,28.2,65.6,28.3 M64.1,30.8c0,0-0.1,0-0.1,0c0.1,0.3-0.2,0.5-0.3,0.6
		c-0.2,0-0.2-0.1-0.2-0.1c0-0.1,0-0.2,0-0.2c-0.1,0-0.2,0.1-0.3,0.1c0.1,0.3,0.4,0.5,0.6,0.4C64.2,31.4,64.2,31,64.1,30.8 M66,55.3
		c0,1.4-0.9,2.4-2.1,2.3c-1.1-0.1-2.3-1.3-1.5-3.4c0.1-0.3,0.2-0.1,0.1,0.1c-0.5,1.7,0.6,2.5,1.5,2.5c1,0,1.5-0.9,1.6-1.6
		c0.1-1-0.4-2.1-0.3-2.9c0-0.4,0.1-0.3,0.1,0C65.5,53.5,66,54.1,66,55.3 M63.4,44c-0.2,0.3-0.3,0.2-0.2,0c0.2-0.8,0.3-1,0.4-2.6
		c0-0.4,0.1-0.7,0.6-1.1c1.8-1.5,3.9-5.7,2.3-9.2c-0.1-0.2,0.1-0.2,0.2,0c2.2,4.3-0.8,8.5-2.3,9.8c-0.3,0.2-0.3,0.5-0.4,0.8
		C64,42.7,63.6,43.7,63.4,44 M64.8,34.9c-0.3,2.1-5,3.3-4.4,5.7c0.1,0.3-0.1,0.3-0.2,0.1C59,38,63.9,37,64.7,34.9
		C64.7,34.8,64.8,34.8,64.8,34.9 M63.7,34.6c-0.6,0.5-1.3,0.2-1.4,0.2c-0.1,0-0.1-0.1,0.1-0.1c0.3,0.1,0.8,0.1,1.2-0.2
		C63.8,34.4,63.9,34.5,63.7,34.6 M62.2,35.9c-0.2-0.1-0.7-0.3-1.3-0.3c-0.2,0-0.2-0.1,0-0.2c0.3-0.1,0.8-0.2,1.2-0.1
		c0.1,0,0.2,0.1,0,0.1c-0.2,0-0.4,0-0.5,0c-0.1,0-0.1,0.1,0,0.1c0.2,0.1,0.5,0.1,0.7,0.3C62.4,35.9,62.3,36,62.2,35.9 M60.7,36.9
		c-0.3-0.1-0.8-0.2-1.4-0.1c-0.2,0-0.3-0.1-0.1-0.2c0.3-0.2,0.9-0.3,1.3-0.3c0.2,0,0.2,0.1,0,0.1c-0.2,0-0.5,0.1-0.6,0.1
		c-0.1,0-0.1,0.1,0,0.1c0.2,0,0.6,0.1,0.9,0.3C60.9,36.9,60.9,36.9,60.7,36.9 M59.9,43.1c-0.1,0.2-0.2,0.1-0.1-0.1
		c0.2-0.7-0.1-1.4-0.8-1.3c-1.3,0-1.9,1.6-1.7,3c0,0.3-0.1,0.3-0.2,0c-0.4-1.3,0.2-3.7,1.9-3.7C60.2,41,60.4,42.3,59.9,43.1
		 M59.3,38.2c-0.3-0.1-0.9-0.1-1.6,0c-0.2,0-0.3-0.1-0.1-0.2c0.3-0.2,0.9-0.5,1.4-0.5c0.2,0,0.2,0.1,0,0.1c-0.2,0.1-0.5,0.1-0.6,0.2
		c-0.1,0-0.1,0.1,0,0.1c0.2,0,0.7,0,1,0.2C59.5,38.1,59.5,38.2,59.3,38.2 M57.1,39.4c0.2-0.1,0.6-0.2,1.1-0.1c0.2,0,0.2,0.1,0,0.1
		c-0.6,0.1-0.9,0.2-1.7,0.5c-0.2,0.1-0.3,0-0.1-0.2c0.3-0.3,0.8-0.7,1.3-0.8c0.2-0.1,0.3,0,0.1,0.1C57.5,39.1,57.2,39.3,57.1,39.4
		C57,39.4,57.1,39.5,57.1,39.4 M58,46.5c0.3,0.1,1.4,0.1,1.7-1.3c0.1-0.3,0.2-0.2,0.2,0c-0.2,2.4-1.4,1.8-1.7,1.7
		c-1.2-0.3-1.4-0.4-2.5-0.1c-0.4,0.1-1.2,0.2-1.8,0.2c0.1,0.7-0.4,0.9-0.6,1c-0.2,0.1-0.3,0.2-0.3,0.4c0,1,0.3,2,0.4,2.2
		c0.1,0.1,0.2,0.3,0,0.4c-0.4,0.3,0,0.6,0,0.8c0,0.1,0,0.1,0,0.4c-0.1,0.2-0.1,0.4-0.3,0.5c-0.1,0.1-0.3,0.1-0.2-0.1
		c0.1-0.1,0.2-0.3,0.2-0.5c0-0.1,0-0.1,0-0.3c-0.1-0.1-0.5-0.5-0.1-0.9c0.1-0.1,0.1-0.2,0.1-0.3c-0.3-1-0.4-2.1-0.4-2.3
		c0-0.2,0.1-0.3,0.2-0.4c0.6-0.3,0.6-0.6,0.6-1.1c0-0.1,0.1-0.2,0.1,0c0,0.1,0,0.1,0.1,0.2C55.6,46.8,55.9,46.1,58,46.5 M65.1,59.6
		c0-0.1,0.1-0.2,0.1,0c0.3,0.8,0.8,0.8,1.2,0.9c0.5,0.1,0.4,0.5,0.3,0.9c-0.4,1.6-0.3,3.7-0.2,4.7c0,0.4-0.3,0.3-0.4,0.4
		c-0.1,0.1,0,0.4,0,0.6c0,0.2-0.2,0.3-0.5,0.5c-0.2,0.1-0.3,0,0-0.2c0.2-0.1,0.4-0.3,0.3-0.4c0-0.2-0.1-0.6,0-0.7
		c0.1-0.1,0.4,0,0.3-0.4c-0.2-1.5,0-4.3,0-4.5c0-0.4-0.1-0.5-0.3-0.6C65.4,60.5,65.1,60.2,65.1,59.6 M65.9,29.9
		c-0.2,0-0.2,0-0.2-0.2c0.1-0.9,1.6-1.6,2.1-1.7c0.2,0,0.2,0.1,0,0.1c-1.4,0.6-1.6,1.1-1.6,1.3c0,0.1,0,0.1,0.1,0.1
		c0.1,0,0.4-0.2,0.7-0.4c0.1-0.1,0.2,0,0.1,0.1C66.8,29.6,66.1,29.9,65.9,29.9 M64.8,30.6c-0.1,0-0.3,0-0.4,0.1
		c0.1,0.4-0.1,0.8-0.5,0.9c-0.3,0.1-0.7,0-0.8-0.5c-0.1,0-0.2,0-0.3,0c-0.1,0-0.1-0.2,0-0.1c0.8,0.1,1.4-0.5,2.1-0.4
		C64.9,30.5,64.9,30.6,64.8,30.6 M62.8,31.5c-0.1-0.1,0.1-0.2,0.1-0.1c0.4,0.7,1.6,0.5,1.7-0.5c0-0.1,0.2-0.1,0.2,0
		C64.8,32.2,63.2,32.5,62.8,31.5 M56.7,40.9c-0.3,0.4-0.5,0.8-0.7,1.5c-0.1,0.2-0.2,0.3-0.2,0C55.9,41.8,56.2,41.2,56.7,40.9
		C56.8,40.7,56.9,40.7,56.7,40.9 M69,53.9c0-0.1,0-0.1-0.1-0.1c-1.1,0-1.8-1-2.2-2.2c-1.1-3.4-2.6-5-3.1-6.6c-0.1-0.3-0.1-0.5,0-0.7
		c0.4-0.7,0.8-1.8,0.8-2.7c0-0.3,0.1-0.5,0.2-0.6c3.1-2.4,4.1-7.5,2.3-10.6c-0.2,0.1-0.5,0.1-0.6,0c-0.1-0.1-0.2-0.2,0.1-0.2
		c0.2,0,0.6,0,0.8-0.2c0.1-0.1,0.1-0.2,0-0.2c-0.1,0-0.2,0-0.3-0.1c0-0.1,0-0.1,0.1-0.1c0.2,0,0.6,0,0.9-0.4c0.1-0.2,0-0.2-0.1-0.1
		c-0.1,0-0.2,0-0.3,0c-0.1,0-0.1-0.1,0.1-0.2c0.2-0.1,0.6-0.3,0.7-0.5c0-0.1,0-0.1-0.1-0.1c-0.4,0.2-0.4,0-0.3-0.1
		c0.3-0.2,0.6-0.4,0.7-0.7c0-0.1,0-0.2-0.1-0.1c-0.8,0.5-2.6,0.7-3.3,2.2c-0.1,0.1-0.2,0.1-0.1-0.1c0,0,0,0,0,0
		c-1.1-0.1-1.7,0.7-3.2,0.5c-0.1,0-0.2,0-0.1,0.1c0.1,0.1,0.3,0.3,0.4,0.4c0.1,0,0.1,0.1-0.1,0.1c-1.2,0.2-1.8,0.8-2.8,1.1
		c-0.1,0-0.2,0.1-0.2,0.2c0,0.2,0.2,0.4,0.3,0.4c0.6,0,0.1,0.2,0.1,0.2c0.2,0.3,0.5,0.5,0.8,0.5c0.3,0,0.6-0.2,1.1-0.2
		c0.1,0,0.2,0.1,0,0.1c-0.3,0.1-0.7,0.2-0.9,0.3c0.3,0.3,0.7,0.3,1.2,0.2c1-0.2,1.4,0,1.7,0.2c0.9,0.6,1.4,0.7,1.7,0.6
		c0,0-0.2-0.1-0.3-0.3c-0.1-0.1,0-0.2,0.1-0.1c0.5,0.4,0.9,0.1,1-0.1c0,0-0.2,0-0.3-0.1c-0.1-0.1,0-0.1,0-0.1c0,0,0.7,0,0.6-0.4
		c0,0-0.1,0-0.2,0c-0.1,0-0.1-0.1,0-0.1c0.2,0,0.4-0.1,0.4-0.3c0-0.1,0.1-0.1,0.1,0c0,0.1,0,0.3-0.2,0.4c0.1,0.3,0,0.5-0.3,0.6
		c0,0.2-0.2,0.5-0.7,0.5c-0.2,0.3-0.9,0.5-1.9-0.2c-0.5,0.6-1.4,0.4-1.7,0.3c-0.1,0-0.1,0,0,0.1c0,0.1,0.4,0.6,1.1,0.5
		c0.2,0,0.2,0.1,0,0.1c-0.2,0-0.6,0.1-1.1-0.3c-0.8,0.1-1.4,0.4-1.7,0.7c0.5,0,0.9,0.1,0.9,0.1c0.1,0.1,0,0.1-0.1,0.1
		c-1.7-0.3-2.4,0.9-2.6,1.1c0.4-0.1,0.8-0.1,1-0.1c0.1,0,0.1,0.1-0.1,0.1c-1.2,0-2,0.6-2.5,1.4c0,0,0.6-0.2,1-0.2
		c0.1,0,0.1,0.1,0,0.1c-1.6,0.5-2.3,2-2.3,2.5c0,0.1,0.1,0,0.2-0.1c0.1-0.2,0.6-0.7,1.2-0.9c0.1,0,0.2,0.1,0.1,0.1
		c-1.6,0.7-1.5,2.7-1.3,3.3c0,0.1,0.1,0.1,0.1,0c0.1-0.1,0.3-0.2,0.5-0.8c0.3-0.8,0.7-2.1,2.2-2.4c0.3-0.1,0.4,0.1,0.1,0.1
		c-1.8,0.4-2.2,2.8-2.2,4.1c0,0.2-0.2,0.3-0.3,0.3c-1,0.2-1.8,0.9-2.7,1.2c-0.2,0.1-0.3,0.1-0.4,0.2c-0.1,0.1-0.4,0.5-0.5,0.7
		c-0.1,0.1-0.2,0.6-0.2,0.8c0.2,1.9,0,3.8-0.1,4.3c0,0.3,0,0.7,0.3,0.9c0.1,0.1,0.1,0.1,0.2,0.2c0,0,0,0,0,0c0.3,0.4,0.9-0.5,1-1.3
		c0-0.2-0.2-0.4-0.2-0.5c0-0.1,0.1-0.2,0.4-0.2c0.1,0,0.1-0.1,0-0.2c0-0.1-0.1-0.2-0.2-0.2c-0.1-0.1-0.2-0.4-0.2-0.5
		c-0.1-0.5-0.2-0.9-0.2-1.6c0-0.1,0.1-0.2,0.2-0.3c0.6-0.4,0.7-0.6,0.7-0.9c0.7,0.1,2.1-0.4,2.7-0.3c0.4,0,1.5,0.5,1.8,0.5
		c0.3,0,0.8,0,1-0.2c0.6-0.7,0.7-2.3,0.7-2.5c0-0.3,0.2-0.3,0.2,0c0,0.3,0,1.5-0.4,2.4c0,1.1,1.3,2.3,1.7,3.4c0,0,0,0.1,0,0.1
		c0.2,0.8-0.6,3.3-0.9,4.3c-0.2,0.8-0.2,1.7,0,2.1c0.9,1.6,2.8,3,3.2,3.3c0.5,0.4,0.8,0.8,0.9,1.3c0.1,0.6,0.3,3,0.3,3.5
		c0,0.4,0,0.9-0.1,1.3c-0.1,0.4-0.4,1-0.5,1.2c-0.1,0.2,0,0.4,0,0.5c0.2,0,0.8,0,1.4-0.4l0,0c0,0,0,0,0,0c0.1-0.1,0.2-0.2,0.2-0.5
		c0-0.3,0-0.4,0.1-0.4c0.3,0,0.5-0.1,0.4-0.3c-0.2-1.2-0.4-3.4,0.3-4.9c0.3-0.6,0.1-0.9,0-1.1c-0.1-0.2-0.4-0.1-0.8-0.1
		c-0.3,0-1.2-0.3-0.8-2.1c0.2-0.8,1.6-1.5,0.8-3.7c-0.1-0.2,0-0.2,0.1-0.1c0.4,0.6,0.9,0.8,1.2,0.8c0,0-0.3-0.1-0.5-0.6
		c-0.1-0.1,0-0.2,0.1-0.1c0.3,0.4,0.6,0.5,0.7,0.6c0.3,0,0.5,0,0.7-0.3c0,0-0.6,0-1-0.6c-0.1-0.1,0-0.1,0.1-0.1
		c0.2,0.2,0.7,0.5,0.9,0.5C68.9,54.4,69,54.1,69,53.9 M116.6,5.9V4.8h-9.2v1.1c2.7,0.2,3.5,0.7,3.8,2.2c0.2,1.2,0.3,2.8,0.3,6.4v2.9
		c0,6.4-1.7,11-7.3,11c-4.8,0-7.3-3.6-7.3-9.8V9.8c0-3.5,0.3-3.7,3.4-3.9V4.8h-10v1.1c3.1,0.3,3.4,0.4,3.4,3.9v9.7
		c0,4.5,1.1,7.4,3.4,9.2c1.7,1.3,3.9,1.9,6.2,1.9c2.6,0,5.1-0.8,6.9-2.7c2.2-2.4,2.9-5.6,2.9-10.2v-3.2c0-3.6,0.1-5.2,0.2-6.3
		C113.3,6.6,114.2,6,116.6,5.9 M110,50.2c0,6.9-4.1,8.3-6,8.3c-1.1,0-2.2-0.3-2.8-0.5V44.6c0-0.8,0.2-1.3,0.5-1.6
		c0.3-0.3,0.9-0.5,1.9-0.5C106.7,42.5,110,44.4,110,50.2 M117.4,50.1c0-3.3-1.4-5.9-3.8-7.6c-2-1.4-4.9-2-9-2H90.5v1.8
		c3.5,0.4,4,0.7,4,5.1v19.7c0,4.4-0.5,4.7-4.3,5.1v1.7h16v-1.7c-4.4-0.4-4.9-0.7-4.9-5.1v-7l3.5,0.8c0.6,0,1.4,0,2.2-0.1
		C112.3,60.1,117.4,57,117.4,50.1 M145.5,5.9V4.8h-9.1v1.1c2.7,0.2,3.6,0.7,3.8,2.4c0.1,1.1,0.3,2.9,0.3,6.4v9.5h-0.1L124.2,4.8
		h-5.7v1.1c1.8,0.2,2.7,0.5,3.4,1.4c0.7,0.9,0.8,1.1,0.8,3.9v8.5c0,3.6-0.1,5.4-0.2,6.6c-0.2,1.9-1.2,2.4-3.4,2.5v1.1h9.2v-1.1
		c-2.6-0.2-3.5-0.6-3.7-2.6c-0.1-1.1-0.2-3-0.2-6.5V10h0.1l16.5,20.3h1.2V14.7c0-3.6,0.1-5.3,0.2-6.5C142.4,6.5,143.3,6,145.5,5.9
		 M148.3,29.9h10.2v-1.1c-3.2-0.2-3.5-0.4-3.5-3.8V9.6c0-3.3,0.3-3.5,3.5-3.8V4.8h-10.2v1.1c3.2,0.2,3.5,0.5,3.5,3.8v15.5
		c0,3.3-0.3,3.5-3.5,3.8V29.9z M160.1,42.3v-1.8h-14.7v1.8c2.8,0.4,3.7,1,5.6,4.4c3.1,5.4,5,8.8,6.4,11.7c0.5,1,0.7,1.5,0.7,2.8v5.7
		c0,4.6-0.5,5-4.8,5.3v1.7h16.7v-1.7c-4.6-0.4-5-0.7-5-5.3v-6.6c0-1.6,0.2-2.2,0.9-3.5c2.5-4.8,3.9-7,5.8-10.1c1.8-3,2.9-4,6.2-4.3
		v-1.8h-11.9v1.8c3.8,0.5,3.9,1.2,3,3.2c-1.2,3.1-3.9,8-5.3,10.9c-2-3.8-4.1-7.6-5.9-11.1C156.7,43.5,156.7,42.8,160.1,42.3
		 M187,5.9V4.8h-8.7v1.1c3.1,0.4,3.4,0.7,2.6,2.9c-1.2,3.9-4.2,11.4-6.1,16.2h-0.1c-2.6-6.7-5.4-14.1-6.4-16.9
		c-0.6-1.7-0.5-2,2.3-2.3V4.8h-9.5v1.1c2.3,0.2,2.9,0.5,4,3.4c2.2,5.6,5.4,13.9,8,21h1.2c2.9-8,7-17.8,8-20.3
		C183.8,6.5,184.3,6.2,187,5.9 M207.7,29.9c0.3-1.2,1.1-4.8,1.4-6.1l-1.2-0.2c-0.5,1.5-1.2,2.9-1.9,3.6c-0.8,1-1.9,1.3-4.9,1.3
		c-1.9,0-3.3,0-4-0.5c-0.7-0.5-0.9-1.3-0.9-3.1v-7.3h3.7c3.4,0,3.6,0.2,4.1,3h1.1v-7.4H204c-0.5,2.6-0.7,2.9-4.2,2.9h-3.6V7.4
		c0-1.2,0.1-1.2,1.3-1.2h2.9c2.8,0,3.8,0.3,4.4,1.1c0.5,0.9,0.9,1.7,1.2,3.3l1.1-0.2c-0.1-2-0.3-4.6-0.3-5.6h-17.2v1.1
		c3,0.3,3.3,0.4,3.3,3.9v15.4c0,3.1-0.3,3.4-3.8,3.7v1.1H207.7z M221.5,40.5h-10.3L201.1,63l-9.9-22.5h-10.6v1.8
		c4.4,0.4,4.8,1.1,4.4,7l-0.8,10.1c-0.4,5.4-0.8,8.1-1.1,9.7c-0.3,1.8-1.3,2.7-4.2,3v1.8h12.3v-1.8c-3.4-0.3-4.4-0.8-4.6-3.1
		c-0.2-1.6-0.2-4,0-8.3l0.6-13.4h0.2l10.5,26.2h1.4l11.4-26.7h0.3l0.1,19.8c0.1,4.7-0.3,5.1-4.1,5.5v1.8h15.2v-1.8
		c-4-0.4-4.3-0.8-4.4-5.5l-0.5-19.2c-0.1-4.3,0.1-4.7,4.2-5.1V40.5z M224.5,16.6c-1,0.8-2.2,1.1-4.2,1.1h-1.9V8.2
		c0-1,0.2-1.5,0.4-1.7c0.3-0.2,1-0.4,2.1-0.4c2.9,0,5.7,1.5,5.7,5.7C226.7,13.9,226.1,15.4,224.5,16.6 M234.6,30.2l0.2-1
		c-0.9-0.2-1.7-0.7-2.8-1.8c-0.9-1-1.7-2-3.1-4c-1.2-1.7-2.8-4.3-3.4-5.6c2.9-1.2,4.9-3.3,4.9-6.6c0-2.3-1-4.1-2.6-5.1
		c-1.5-1-3.4-1.3-6.2-1.3h-9.6v1.1c3,0.3,3.3,0.4,3.3,3.7v15.5c0,3.3-0.3,3.5-3.5,3.8v1.1h10.2v-1.1c-3.1-0.2-3.4-0.5-3.4-3.8v-6.1
		h1.2c2,0,2.7,0.5,3.3,1.5c1.2,1.9,2.6,4.3,3.9,6.2c1.7,2.5,3.4,3.4,6.3,3.5C233.7,30.2,234.1,30.2,234.6,30.2 M240.1,9.8
		c0-2.1,1.3-4.3,4.3-4.3c3.4,0,4.4,2.7,5.1,5.1l1.1-0.2c-0.3-2.4-0.5-3.9-0.7-5.3c-1.5-0.5-3.1-0.9-4.9-0.9c-5,0-8,3.2-8,6.9
		c0,4.4,3.9,6.3,6.4,7.6c2.9,1.5,5,2.9,5,5.8c0,2.8-1.7,4.6-4.6,4.6c-4,0-5.7-3.9-6.3-6.3l-1.1,0.3c0.2,1.9,0.7,5.2,1,6
		c0.3,0.2,0.9,0.5,1.9,0.8c1,0.3,2.2,0.6,3.8,0.6c5.1,0,8.6-3.2,8.6-7.3c0-4.3-3.7-6.1-6.7-7.7C241.9,13.9,240.1,12.6,240.1,9.8
		 M254.4,29.9h10.2v-1.1c-3.2-0.2-3.5-0.4-3.5-3.8V9.6c0-3.3,0.3-3.5,3.5-3.8V4.8h-10.2v1.1c3.2,0.2,3.5,0.5,3.5,3.8v15.5
		c0,3.3-0.3,3.5-3.5,3.8V29.9z M288.3,10.8l1.1-0.1c-0.2-2.2-0.4-5.1-0.4-6.8h-0.8c-0.6,0.7-0.9,1-2,1H271c-1.1,0-1.6-0.1-2.1-1
		h-0.8c-0.1,2.1-0.3,4.6-0.5,7h1.1c0.5-1.7,0.8-2.8,1.2-3.4c0.5-0.9,1.3-1.2,4.5-1.2h2.4v19c0,3.1-0.3,3.4-3.8,3.7v1.1h11.1v-1.1
		c-3.7-0.2-4-0.6-4-3.7v-19h2.7c2.9,0,3.6,0.3,4.2,1.2C287.5,8,287.9,8.9,288.3,10.8 M315.9,5.9V4.8h-8.5v1.1c3,0.3,3.1,0.6,2.2,2.6
		c-1.1,2.4-3.2,6.1-4.6,8.7c-1.7-2.9-3.6-6.1-5.2-9.2c-0.7-1.3-0.8-1.7,1.9-2.1V4.8h-9.2v1.1c2.3,0.2,2.7,0.7,4.3,3.3
		c2.1,3.6,3.5,6.1,4.9,8.5c0.7,1.2,0.8,1.5,0.8,2.3v5.1c0,3.3-0.3,3.5-3.8,3.8v1.1h10.9v-1.1c-3.6-0.2-3.9-0.5-3.9-3.8v-5.3
		c0-1,0.1-1.4,0.6-2.4c1.9-3.4,3.2-5.6,4.9-8.5C312.8,6.6,313.2,6.2,315.9,5.9 M348.9,18.1c0,7.4-3.9,11-8.2,11
		c-5.5,0-9.4-5.3-9.4-12.6c0-7.2,3.9-10.9,8.3-10.9C344.6,5.6,348.9,9.9,348.9,18.1 M352.8,17.1c0-7.7-5.9-12.8-12.5-12.8
		c-8.1,0-13,6.5-13,13.4c0,7.4,5.6,12.9,12.6,12.9C347,30.5,352.8,25.4,352.8,17.1 M372.4,10.6l1.2-0.2c-0.2-1.8-0.4-4.3-0.4-5.7
		h-17v1.1c3,0.2,3.3,0.4,3.3,3.8v15.4c0,3.3-0.3,3.6-3.4,3.8v1.1h10.5v-1.1c-3.5-0.2-3.8-0.5-3.8-3.8v-7h4c3.5,0,3.7,0.5,4.2,3.1
		h1.1v-7.4h-1.1c-0.5,2.5-0.7,2.8-4.2,2.8h-4V7.3c0-1.1,0.1-1.2,1.2-1.2h2.9c2.9,0,3.8,0.3,4.4,1.4C371.9,8.4,372.1,9.1,372.4,10.6
		 M369.3,67.1V47.4c0-4.4,0.3-4.7,4.3-5v-1.8h-15.4v1.8c3.8,0.4,4.2,0.7,4.2,5v7.6h-14v-7.6c0-4.4,0.4-4.7,4.1-5v-1.8h-15.4v1.8
		c4,0.4,4.4,0.7,4.4,5v19.7c0,4.4-0.5,4.7-4.2,5v1.8h15.3v-1.8c-3.8-0.4-4.2-0.7-4.2-5v-9.6h14v9.6c0,4.3-0.4,4.7-4.5,5v1.8h15.7
		v-1.8C369.7,71.8,369.3,71.5,369.3,67.1"/>
</g>
</svg>
