<svg enable-background="new 0 0 340.2 56.7" viewBox="0 0 340.2 56.7" xmlns="http://www.w3.org/2000/svg"><path d="m62.5 26.5c-.1.1-.1.4-.1.8s.1.6.1.6c.5.1 1.1.2 1.6.4.8.2 1.2.5 1.3.7.2 1.1.3 2.3.3 3.4v16c.1 1.3 0 2.6-.3 3.9-.1.3-.6.5-1.3.6-.5.2-1.1.3-1.6.3-.1 0-.1.2-.1.7 0 .3 0 .5.1.8l.8-.1c.6 0 1.3-.1 2.2-.1s1.8-.1 2.5-.1c.9 0 2.9.1 6 .3.1-.2.1-.5.1-.7 0-.5-.1-.7-.1-.7-.6 0-1.3-.2-1.9-.4-.8-.2-1.3-.5-1.4-.8-.3-1.2-.4-2.4-.4-3.6v-15.2c0-2.7.2-4.2.5-4.4.8-.2 1.6-.3 2.4-.3 1.4-.1 2.7.5 3.5 1.6.8 1.3 1.2 2.9 1.1 4.5 0 1.5-.4 3-1.2 4.2-.7 1.1-1.9 1.7-3.2 1.7-.8 0-1.6-.1-2.4-.4-.1 0-.1.1-.1.3v.6c.1.2.1.3.1.4.3.4.7.6 1.2.8.6.2 1.2.3 1.8.3 1.7 0 3.3-.4 4.7-1.3 1.3-.8 2.4-1.9 3.2-3.2.7-1.2 1-2.5 1.1-3.9 0-1-.2-2.1-.6-3-.4-.8-.9-1.6-1.6-2.2s-1.4-1.1-2.2-1.5-1.6-.7-2.5-.9c-.8-.1-1.7-.2-2.5-.2s-1.8 0-2.9.1-2 .1-2.8.1c-.6.1-2.5 0-5.4-.1m29.8 2.4c.1-.2.5-.4 1.2-.6.5-.2 1-.3 1.5-.4.1 0 .1-.2.1-.7 0-.2-.1-.5-.1-.7-3.4.1-5.2.3-5.4.3-.8 0-1.8-.1-3.3-.1s-2.2-.1-2.3-.1 0 .2 0 .6.1.6.1.6c.5 0 1.1.1 1.5.4.5.1.9.3 1.2.6.3 1.2.4 2.4.3 3.6v16c.1 1.3 0 2.6-.3 3.9-.1.3-.5.5-1.2.6-.5.2-1.1.3-1.6.3-.1 0-.1.2-.1.7 0 .2 0 .5.1.7l5.6-.1c1.4-.1 3.9-.1 7.4.1s5.9.1 7 .1c.1-.4.2-1 .4-1.6.1-.6.3-1.1.6-1.7.1-.5.4-1.1.8-2s.6-1.5.6-1.8c-.4-.2-.8-.3-1.2-.3-.3 0-.6.1-.6.3-.3.9-.7 1.8-1.3 2.6-.4.6-.9 1.1-1.5 1.5-1.6.7-3.3 1-5 .9h-1.6c-1.8 0-2.7-.2-2.9-.6-.3-1.1-.4-2.2-.3-3.4v-16c0-1.3.1-2.5.3-3.7m21.9 12.6c.1.3.2.5.3.8v6.2c0 1.2-.1 2.5-.3 3.7-.1.2-.5.4-1.2.7-.5.2-1 .3-1.5.4-.1 0-.1.2-.1.7 0 .2 0 .5.1.7.3 0 1.1-.1 2.5-.1s2.3-.1 3.1-.1c.6 0 1.2 0 1.8.1.6 0 1.3.1 2 .1s1.3.1 1.6.1c.1-.2.1-.5.1-.7 0-.4-.1-.7-.1-.7-.5-.1-1-.2-1.4-.3s-.9-.3-1.2-.6c-.3-1.2-.4-2.5-.3-3.8v-6.7c0-.3 1.1-2.2 3.2-5.7s3.6-5.8 4.4-7c.4-.5 1-.8 1.6-1s1.2-.3 1.8-.4c.1 0 .1-.2.1-.7 0-.2 0-.5-.1-.7-.3 0-.8.1-1.3.1s-1.1.1-1.6.1-1.1.1-1.8.1-2.2-.1-5-.3c-.1.2-.2.5-.1.8 0 .4.1.6.1.6.7 0 1.4.1 2 .4.5.2.8.5.8.8s-.6 1.7-1.7 3.6c-1.1 2-2.3 3.8-3.5 5.5-.1.2-.3.2-.4.1l-4.5-8.2c-.2-.3-.3-.7-.4-1.1 0-.4.3-.7.8-.9s1-.3 1.5-.3c.1 0 .1-.2.1-.6 0-.3 0-.5-.1-.8-3.4.1-5.3.3-5.8.3-3 0-4.9 0-5.6.1-.1.2-.1.4-.1.6 0 .3.1.4.1.4.4 0 .8.1 1.2.2.5.1.9.3 1.3.6.9.8 1.7 1.8 2.2 2.9m27 17.2c0 1-.1 1.9-.5 2.8-.1.4-.7.8-1.6 1.1-.7.2-1.4.4-2.1.4-.1 0-.1.2-.1.7 0 .2 0 .5.1.7.3 0 1.1-.1 2.3-.1s2.2-.1 3-.1c.1 0 2 .1 5.3.3.1-.2.1-.4.1-.6 0-.5-.1-.8-.1-.8-.7-.1-1.4-.2-2-.4-1-.3-1.6-.6-1.7-.9-.1-.4-.1-.9-.1-1.3.3-5.5.5-11.9.7-18.8l9.5 22.7c.1.1.3.1.4.1.6 0 1.1-.6 1.6-1.6l8.1-19.6c.1-.1.1-.3.2-.3s.4.8.5 2.6l.4 12.8v2.5c0 .5-.1 1-.4 1.5-.3.3-.8.5-1.2.6-.4.2-.9.3-1.3.3-.1 0-.1.3-.1.8 0 .2 0 .4.1.6.4 0 1.1-.1 1.8-.1s1.4-.1 2-.1 1.2-.1 1.8-.1c.1 0 1.8.1 5.2.3.1-.2.1-.4.1-.6 0-.5-.1-.8-.1-.8-.5-.1-1-.2-1.4-.4-.7-.2-1.1-.4-1.2-.7-.4-1.2-.7-2.5-.7-3.9-.3-9.1-.5-14.9-.6-17.5-.1-1.2.1-2 .6-2.2.6-.4 1.3-.7 2-.7h.1c.1 0 .1-.2.1-.7 0-.2 0-.5-.1-.7-2.2.1-3.9.2-5.1.2-1.5 0-2.6-.1-3.4-.1l-1.5 4.9c-1.5 3.9-3.4 8.7-5.9 14.7 0 .1-.1.1-.1.1-.1 0-.1 0-.1-.1-.8-2-1.8-4.5-3.2-7.5s-2.4-5.6-3.3-7.8-1.5-3.6-1.8-4.4c-2.6.1-4 .3-4.1.3-.9 0-1.8 0-2.7-.1-1.1-.1-1.8-.1-2.2-.1-.1.1-.1.4-.1.6 0 .5.1.7.1.7.6 0 1.2.1 1.8.3.8.2 1.3.4 1.4.6.1.4.1.8.1 1.2 0 .5-.1 1.8-.1 3.9m50.4-3.5c1.4 1.4 2.4 3.1 2.9 4.9.6 2 .9 4 .9 6.1.1 2.8-.6 5.6-2 8-1.1 2.1-3.2 3.4-5.5 3.4-1.9 0-3.7-.7-5-2.1-1.4-1.4-2.5-3.1-3-5-.6-1.9-.8-4-.8-6-.1-2.8.6-5.5 1.9-8 1.1-2.1 3.2-3.3 5.6-3.3 1.7-.1 3.5.7 5 2m-4.5 24.5c3.6 0 7.1-1.5 9.5-4.2 2.6-2.7 4.1-6.3 4-10.1.1-3.8-1.4-7.4-4-10.1-4.8-5.3-13-5.6-18.2-.8-.3.3-.6.5-.8.8-2.6 2.7-4.1 6.3-4 10.1-.1 3.8 1.4 7.4 4 10.1 2.4 2.7 5.8 4.2 9.5 4.2m14.8-28.4c-.1.2-.2.5-.1.8 0 .4.1.6.1.6.5 0 1.1.1 1.6.4.5.1.9.3 1.2.6.3 1.2.4 2.4.4 3.6v9.2c0 4.6 1 7.8 2.9 9.9 2.1 2.1 5 3.2 8 3.1 1.5 0 2.9-.2 4.3-.6 1.3-.4 2.4-1.1 3.4-2 1.1-1 1.9-2.4 2.3-3.8.6-1.8.8-3.8.8-5.7v-10c-.1-1.2.1-2.4.5-3.5.4-.4 1-.7 1.6-.8.6-.2 1.2-.3 1.8-.4.1 0 .1-.2.1-.7 0-.2 0-.5-.1-.7-.3 0-1 .1-2.2.1s-2.1.1-2.8.1c-.5 0-2.2-.1-5.3-.3-.1.2-.1.5-.1.8 0 .4.1.6.2.6.6.1 1.2.2 1.8.4.8.2 1.3.5 1.5.8.4 1.1.5 2.2.4 3.4v10.4c0 3.3-.6 5.7-2 7.1-1.3 1.4-3.2 2.2-5.2 2.1-2.1.1-4-.9-5.2-2.6-1.4-2.1-2-4.5-1.9-7v-9.6c0-1.2.1-2.5.4-3.7 0-.2.4-.4 1.2-.6.5-.2 1-.3 1.6-.4.1 0 .1-.2.1-.7 0-.2 0-.5-.1-.7-3.1.1-4.9.3-5.4.3-.3-.3-2.2-.3-5.8-.5m34.3 0c-1 0-2-.2-2.9-.4l-.8 6.4c.3.3.7.4 1.1.3.3 0 .4-.1.4-.3.2-1.2.8-2.2 1.6-3.1.9-.6 1.9-.9 3-.8 2.4 0 3.8.2 4 .7s.4 1.8.4 4.1v15.3c0 1.2-.1 2.4-.4 3.5-.1.2-.5.4-1.2.6-.5.2-1.1.3-1.6.3-.1 0-.1.3-.1.8 0 .2 0 .5.1.7.3 0 1.1-.1 2.5-.1s2.4-.1 3.1-.1c.6 0 1.2 0 1.8.1.6 0 1.3.1 2 .1s1.3.1 1.6.1c.1-.2.1-.5.1-.7 0-.5-.1-.8-.1-.8-.5-.1-1-.2-1.5-.4-.7-.2-1.1-.4-1.1-.6-.3-1.2-.4-2.4-.4-3.7v-15.2c0-1.3.1-2.7.4-4 .1-.5 1.5-.7 4.1-.7 1.1-.1 2.1.2 3 .8.8.9 1.4 2 1.5 3.2.1.1.3.2.4.2.4.1.8 0 1.1-.3l-.8-6.5c-1 .2-1.9.4-2.9.4-1.1 0-2.7.1-4.6.1s-3.5.1-4.7.1-2.7 0-4.6-.1c-1.8.1-3.3 0-4.5 0m50 26.3c-.7-.2-1.1-.4-1.2-.6-.3-1.2-.4-2.5-.4-3.8v-15.8c0-1.2.1-2.5.4-3.7.1-.2.5-.4 1.2-.6.5-.2 1-.3 1.5-.4.1 0 .1-.2.1-.7 0-.2-.1-.5-.1-.7-3.4.1-5.2.3-5.4.3-.8 0-1.8-.1-3.3-.1s-2.2-.1-2.3-.1-.1.3-.1.8.1.6.1.6c.5 0 1.1.1 1.5.4.5.1.9.3 1.2.6.3 1.2.4 2.4.4 3.6v6.3c0 .1 0 .1-.1.1-2.5.1-4.4.1-5.5.1s-3 0-5.8-.1l-.1-.1v-6.2c0-1.2.1-2.5.4-3.7.1-.2.5-.4 1.2-.6.5-.2 1-.3 1.5-.4.1 0 .1-.2.1-.7 0-.2-.1-.5-.1-.7-3.4.1-5.2.3-5.4.3-.8 0-1.8-.1-3.3-.1s-2.2-.1-2.3-.1-.1.3-.1.8.1.6.1.6c.5 0 1.1.1 1.5.4.5.1.9.3 1.2.6.3 1.2.4 2.4.4 3.6v16.3c0 1.2-.1 2.4-.4 3.6-.1.2-.5.4-1.2.6-.5.2-1.1.3-1.6.3-.1 0-.1.3-.1.8 0 .2 0 .4.1.6.4 0 1.1-.1 1.8-.1s1.4-.1 2-.1 1.2-.1 1.8-.1c.2 0 2 .1 5.3.3.1-.2.1-.4.1-.6 0-.6-.1-.8-.1-.8-.5-.1-1-.2-1.5-.4-.7-.2-1.1-.4-1.2-.6-.3-1.2-.4-2.5-.4-3.8v-7c0-.1 2-.1 5.8-.2 1 0 3 0 5.5.1l.1.1v7.3c0 1.2-.1 2.4-.4 3.6-.1.2-.5.4-1.2.6-.5.2-1.1.3-1.6.3-.1 0-.1.3-.1.8 0 .2 0 .4.1.6.4 0 1-.1 1.8-.1s1.4-.1 2-.1 1.2-.1 1.8-.1c.2 0 2 .1 5.3.3.1-.2.1-.4.1-.6 0-.6-.1-.8-.1-.8-.2-.4-.6-.5-1-.7"/><path d="m62.5.3c-.1.1-.1.3-.1.6s.1.5.1.5c.4 0 .8.1 1.1.2.5.1.8.3.8.5.2.8.3 1.7.2 2.5v6.7c0 3.3.7 5.6 2.1 7.1 1.5 1.5 3.6 2.3 5.8 2.2 1.1 0 2.1-.1 3.1-.5.9-.3 1.8-.8 2.4-1.5.8-.7 1.3-1.7 1.6-2.7.4-1.3.6-2.7.6-4.1v-7.2c0-.9.1-1.7.3-2.5.3-.3.7-.6 1.1-.6.4-.1.9-.2 1.3-.2.1 0 .1-.1.1-.5 0-.2 0-.3-.1-.5-.2 0-.7.1-1.5.1s-1.5.1-2 .1-1.4 0-3.6-.1c-.1.1-.1.3-.1.6s.1.4.1.4c.4 0 .9.1 1.3.3.6.1 1 .4 1 .6.3.8.4 1.6.3 2.5v7.3c0 2.4-.5 4.1-1.4 5.1-1 1.1-2.4 1.6-3.8 1.5-1.5.1-2.9-.7-3.8-1.9-1-1.5-1.4-3.2-1.3-5v-7c0-.9.1-1.8.3-2.7 0-.1.3-.4.8-.5.4-.1.7-.2 1.1-.2.1 0 .1-.1.1-.5 0-.2 0-.3-.1-.5-2.2.1-3.5.2-3.9.2-1.3-.2-2.6-.3-3.9-.3m31 3.3c-.8-1-1.5-2.1-2.1-3.2-1.1.1-2.1.1-2.7.1-.3 0-1.5-.1-3.6-.1-.1.2-.2.4-.1.6 0 .3.1.5.1.5.4 0 .9.1 1.3.2.6.1 1 .3 1 .4.3.7.4 1.5.3 2.2v11.9c.1.9 0 1.7-.3 2.5-.3.4-.7.6-1.1.7-.5.1-.9.2-1.4.2-.1 0-.1.1-.1.5 0 .2 0 .4.1.5.3 0 .8-.1 1.6-.1s1.5-.1 2-.1l3.8.2c.1-.1.1-.3.1-.6s-.1-.4-.1-.4c-.5 0-1-.1-1.4-.3-.6-.1-1-.4-1.1-.6-.2-.8-.3-1.7-.2-2.5v-12.3l12.1 16.1c.3.5.6.7 1 .7.2 0 .5 0 .7-.1-.1-2.1-.1-3.5-.1-4.3v-11.6c0-.9.1-1.7.3-2.5.3-.3.7-.6 1.1-.6.4-.1.9-.2 1.4-.2.1 0 .1-.1.1-.5s0-.4-.1-.5-.7.1-1.6.1-1.5.1-2 .1-1.7-.1-3.9-.2c-.1.1-.1.3-.1.6s.1.4.1.4c.5 0 .9.1 1.3.2s.8.3 1.1.6c.2.8.3 1.6.3 2.5v8.3c0 .4 0 .8-.1 1.3m8.9 2.1c0 .8-.1 1.7-.2 2.5-.1.1-.3.3-.8.5-.4.1-.7.2-1.1.2-.1 0-.1.2-.1.6 0 .2 0 .3.1.4.3 0 .8-.1 1.3-.1s1-.1 1.5-.1h1.3l3.9.2c.1-.1.1-.3.1-.4 0-.4-.1-.6-.1-.6-.3 0-.7-.1-1-.2-.5-.1-.8-.3-.8-.4-.2-.9-.3-1.8-.3-2.7v-11.6c0-.9 0-1.8.2-2.7.1-.1.3-.3.9-.5.4-.1.7-.2 1.1-.2.1 0 .1-.1.1-.5 0-.2 0-.3-.1-.5-2.4.1-3.7.2-3.9.2-.6 0-1.3 0-2.4-.1s-1.6-.1-1.7-.1-.1.2-.1.6.1.5.1.5c.4 0 .8.1 1.1.2.5.1.8.3.8.5.2.8.2 1.7.2 2.5v11.8zm15.8-7.8c-.9-2-1.7-4.1-2.3-6.2 0-.3.2-.5.4-.6.3-.1.5-.3.8-.4.2-.1.4-.1.6-.1.1 0 .1-.1.1-.4s0-.5-.1-.6c-2.5.1-3.9.2-4.1.2-.6 0-1.3 0-2.3-.1s-1.5-.1-1.7-.1-.1.3-.1.6.1.5.1.5c.4 0 .8.1 1.2.2s.7.3.9.6c.4.9.8 1.8 1.1 2.7l6.2 15.6c.1.2.3.3.5.3.5 0 .9-.4 1.2-1.1l6.6-14.7c.4-.9.8-1.8 1.3-2.7.3-.3.6-.5 1-.6.3-.1.7-.2 1.1-.2.1 0 .1-.1.1-.5 0-.2 0-.3-.1-.5-.3 0-.8.1-1.5.1-.6.1-1.2.1-1.8.1-.5 0-1.1 0-1.9-.1s-1.2-.1-1.4-.1-.1.3-.1.6 0 .4.1.4c.5 0 1 .1 1.5.3s.7.5.7.9c-.1.7-.3 1.4-.6 2.1l-4.4 10.5c0 .1-.1-.2-.4-.7m11.2-14.2c-.1.2-.2.4-.1.6 0 .3.1.5.1.5.4 0 .8.1 1.2.2.5.1.8.4.8.6.2.8.3 1.7.2 2.5v11.4c0 .9 0 1.9-.2 2.8-.1.2-.4.4-.9.5-.4.1-.7.2-1.1.2-.1 0-.1.1-.1.5s0 .4.1.5l4.1-.1c1.1-.1 2.8 0 5.4 0s4.2.1 5.1.1c.1-.3.1-.7.3-1.2.1-.4.3-.9.4-1.3s.3-.8.6-1.5.4-1 .4-1.3c-.2-.2-.6-.2-.9-.2s-.4.1-.4.2c-.2.7-.5 1.3-.9 1.8-.3.4-.7.8-1.1 1-1.2.5-2.4.7-3.6.6h-1.2c-1.3 0-2-.1-2.1-.4-.2-.8-.3-1.6-.3-2.5v-4.6c0-.1.7-.2 2.2-.2.9-.1 1.9 0 2.8.2.1.1.2.1.3.2s.1.1.2.4c.1.4.3.8.4 1.2.1.1.2.2.5.2.2 0 .4 0 .6-.1v-5.8c-.2-.1-.4-.2-.6-.1-.3 0-.5.1-.5.2s-.1.5-.2.8c-.1.6-.3 1-.5 1.1-.7.1-1.4.2-2.1.1h-1.8c-.9 0-1.3-.1-1.3-.2v-4.7c0-.8 0-1.6.2-2.5.1-.3.8-.4 2.3-.4h1.6c1.8-.1 3.4 1 3.9 2.7.1.1.3.2.4.2.2 0 .4 0 .6-.1 0-.1-.1-.7-.4-1.8s-.4-2-.5-2.5c-1.1 0-2.9.1-5.1.1s-3.9.1-4.7.1zm28.6 5.6c.1 1-.3 2-.9 2.7-.5.6-1.2 1-2 1.1h-.8c-.5 0-1 0-1.4-.2-.4-.1-.5-.4-.5-.9v-3.5c0-2 .1-3.1.4-3.2.6-.2 1.2-.3 1.8-.2 2.2.1 3.4 1.5 3.4 4.2m-5.3-5.6h-2.1c-.6 0-1.9 0-4.1-.1-.1.1-.1.2-.1.6s.1.5.1.5c.4 0 .8.1 1.2.3.4 0 .7.2.9.5.2.8.2 1.7.2 2.5v11.4c0 .9 0 1.9-.2 2.8-.1.2-.4.4-.9.5-.4.1-.8.2-1.2.2-.1 0-.1.1-.1.5s0 .5.1.6l.6-.1c.4 0 1-.1 1.6-.1s1.3-.1 1.8-.1 2.1.1 4.4.2c.1-.2.1-.3.1-.5 0-.4-.1-.5-.1-.5-.5 0-.9-.1-1.3-.2-.6-.1-1-.4-1.1-.6-.2-.9-.2-1.7-.2-2.6v-4.3c0-.4.1-.5.5-.5.2 0 .5 0 .7.1s.4.2.5.4c.1.1.4.4.6.7s.5.6.6.9.5.7.8 1.3c.3.5.6 1 1 1.4.4.6.8 1.2 1.3 1.7s1 1 1.5 1.4c.6.5 1.4.9 2.2 1 .9.2 1.9.3 2.8.4.3 0 .6 0 .9-.1.1-.2.1-.4.1-.6s-.1-.3-.1-.5c-.8 0-1.6-.4-2.2-.9-.9-.7-1.6-1.4-2.3-2.2-1.3-1.6-2.4-3.4-3.4-5.2-.1-.1-.1-.2.1-.3 1-.4 1.9-1.2 2.6-2.1s1.1-2 1.1-3.1c0-.7-.1-1.5-.5-2.1-.3-.6-.7-1.1-1.2-1.5s-1.1-.7-1.7-1-1.2-.4-1.8-.6c-.6-.1-1.1-.2-1.7-.1-.7-.1-1.3-.1-2 0m15.1 6.8c.2.4.4.9.6 1.3.3.4.7.8 1.1 1.1s.8.6 1.2.9c.3.2.8.5 1.3.9.1.1.3.2.4.2.3.2.6.3.9.6.4.3.8.4 1 .6s.5.4.8.6.5.4.8.7c.2.3.4.5.5.9.1.3.2.7.2 1 .1.9-.3 1.9-.9 2.5-.7.6-1.5.9-2.4.9-.7 0-1.4-.2-2-.5s-1.1-.7-1.4-1.2c-.3-.4-.6-.9-.8-1.4-.2-.4-.3-.8-.4-1.2-.1-.1-.4-.2-.9-.2-.3 0-.5.1-.5.2 0 .4.1 1 .2 2.2s.4 2 .5 2.7c1.8.5 3.7.7 5.6.8 1.7 0 3.3-.6 4.5-1.7 1.3-.9 2-2.4 2-4 0-.5-.1-1.1-.2-1.6-.1-.4-.3-.9-.6-1.3-.2-.4-.5-.8-.9-1.1-.4-.4-.8-.6-1-.8-.4-.3-.8-.5-1.2-.7-.6-.4-.9-.6-1.1-.6s-.4-.2-.8-.5-.8-.5-.9-.6-.4-.3-.8-.6-.6-.5-.8-.6-.3-.4-.5-.6-.3-.5-.4-.8-.1-.6-.1-.8c0-.8.2-1.5.8-2.1s1.4-.9 2.2-.8c1.1 0 2.1.5 2.7 1.3.7.8 1.2 1.7 1.3 2.7.1.2.4.3.9.3.2 0 .4-.1.4-.3 0-1.6-.1-3.1-.4-4.7-.3-.1-.8-.2-1.5-.4-.6-.2-1.2-.3-1.8-.4-.5-.1-1-.1-1.5-.1-1.6 0-3.1.5-4.3 1.6-1.2.9-1.9 2.3-1.9 3.9-.1.6-.1 1.1.1 1.7m15.8 9.2c0 .8-.1 1.7-.2 2.5-.1.1-.4.3-.8.5-.4.1-.7.2-1.1.2-.1 0-.1.2-.1.6 0 .2 0 .3.1.4.4 0 .8-.1 1.3-.1s1-.1 1.5-.1h1.3l3.9.2c.1-.1.1-.3.1-.4 0-.4-.1-.6-.1-.6-.4 0-.7-.1-1.1-.2-.5-.1-.8-.3-.8-.4-.2-.9-.3-1.8-.3-2.7v-11.6c0-.9 0-1.8.2-2.7.1-.1.4-.3.9-.5.4-.1.7-.2 1.1-.2.1 0 .1-.1.1-.5 0-.2 0-.3-.1-.5-2.5.1-3.7.2-3.9.2-.6 0-1.3 0-2.4-.1s-1.6-.1-1.7-.1-.1.2-.1.6.1.5.1.5c.4 0 .8.1 1.1.2.5.1.8.3.8.5.2.9.2 1.7.2 2.6zm9.9-16.1c-.7 0-1.4-.1-2.1-.3l-.6 4.6c.2.2.5.2.8.2.2 0 .3-.1.3-.2.2-.8.6-1.6 1.1-2.2.6-.4 1.4-.7 2.2-.6 1.8 0 2.7.1 2.9.5.3 1 .4 2 .3 2.9v11c0 .8 0 1.7-.2 2.5-.1.1-.4.3-.8.5-.4.1-.7.2-1.1.2-.1 0-.1.2-.1.6 0 .2 0 .3.1.5.2 0 .9-.1 1.8-.1s1.8-.1 2.2-.1h1.3c.4 0 .9.1 1.4.1s.9.1 1.2.1c.1-.2.1-.3.1-.5 0-.4-.1-.6-.1-.6-.3 0-.7-.1-1-.2-.6-.1-.8-.3-.8-.4-.2-.9-.3-1.8-.3-2.7v-10.8c0-1 0-1.9.3-2.9.1-.3 1-.5 2.9-.5.8-.1 1.5.1 2.2.6.6.6.9 1.4 1.1 2.2.1.1.2.1.3.1.3 0 .6 0 .8-.2l-.8-4.6c-.7.2-1.4.3-2.1.3-.8 0-2 .1-3.3.1s-2.5.1-3.4.1-2 0-3.4-.1-2.4 0-3.2-.1m24.8 10.8c.1.2.2.4.2.6v4.5c0 .9 0 1.8-.2 2.7-.2.3-.5.4-.9.5s-.7.2-1.1.2c-.1 0-.1.1-.1.5 0 .2 0 .3.1.5.2 0 .8-.1 1.8-.1s1.7-.1 2.2-.1h1.2c.4 0 .9.1 1.4.1s.9.1 1.1.1c.1-.2.1-.3.1-.5 0-.4-.1-.5-.1-.5-.4 0-.7-.1-1.1-.3-.3-.1-.6-.2-.9-.5-.2-.9-.2-1.8-.2-2.7v-4.8c.6-1.4 1.4-2.8 2.3-4.1 1.5-2.5 2.6-4.1 3.2-5 .3-.4.7-.6 1.2-.7.4-.2.8-.3 1.3-.3.1 0 .1-.1.1-.5 0-.2 0-.3-.1-.5-.2 0-.6.1-.9.1s-.8.1-1.1.1h-1.3c-.4 0-1.6-.1-3.6-.2-.1.1-.1.3-.1.6s.1.4.1.4c.5 0 1 .1 1.5.3.4.1.6.4.6.6-.2.9-.6 1.8-1.2 2.6-.8 1.4-1.7 2.7-2.5 4 0 .1-.1.1-.2.1 0 0 0 0-.1 0l-3.4-5.8c-.2-.2-.3-.5-.3-.8s.2-.5.6-.6.7-.2 1.1-.2c.1 0 .1-.1.1-.4s0-.5-.1-.6c-2.5.1-3.9.2-4.2.2-2.2 0-3.5 0-4 .1-.1.1-.1.2-.1.4s.1.3.1.3c.3 0 .6.1.8.1.3.1.6.2.9.4.7.6 1.2 1.3 1.6 2.1m36.1-.9c1 1 1.7 2.2 2.1 3.5.4 1.4.7 2.9.7 4.3.1 2-.4 4-1.4 5.8-.7 1.5-2.3 2.5-4 2.5-1.3 0-2.6-.5-3.6-1.5s-1.7-2.2-2.1-3.6-.6-2.9-.6-4.4c-.1-2 .4-4 1.4-5.7.8-1.5 2.3-2.4 4-2.4 1.3 0 2.6.5 3.5 1.5m-3.2 17.7c2.6 0 5.1-1 6.9-3 1.9-2 2.9-4.6 2.9-7.3s-1-5.3-2.9-7.3c-3.5-3.8-9.4-4-13.2-.6-.2.2-.4.4-.6.6-1.9 2-2.9 4.6-2.9 7.3s1 5.3 2.9 7.3c1.8 1.9 4.3 3 6.9 3m19.5-.2c.1-.1.1-.2.1-.5s-.1-.5-.1-.5c-.5 0-.9-.1-1.3-.3-.6-.2-1-.4-1.1-.6-.3-.8-.4-1.7-.4-2.5v-4.8c0-.1.7-.2 2.2-.2.9-.1 1.9 0 2.8.2.1.1.2.1.3.2l.2.4c.1.4.3.8.4 1.2.1.1.2.2.5.2.2 0 .4 0 .6-.1v-5.7c-.2-.1-.4-.2-.6-.1-.3 0-.5.1-.5.2s-.1.5-.2.8c-.1.6-.3 1-.5 1.1-.7.1-1.4.2-2.1.1h-1.7c-.9 0-1.3-.1-1.3-.2v-4.9c0-.8 0-1.6.1-2.5.1-.3.8-.4 2.3-.4h1.6c1.8-.1 3.4 1 3.9 2.7.1.1.3.2.4.2.2 0 .4 0 .6-.1 0-.1-.1-.7-.4-1.8s-.4-2-.5-2.5c-1 0-2.7.1-5 .1s-3.9.1-4.8.1c-1.3 0-2.7-.1-4-.1-.1.2-.2.4-.1.6 0 .3.1.5.1.5.4 0 .8.1 1.2.2.5.1.8.4.8.6.2.8.3 1.7.2 2.5v11.4c0 .9 0 1.9-.2 2.8-.1.2-.4.4-.9.5-.4.1-.8.2-1.2.2-.1 0-.1.1-.1.5s0 .4.1.5h.6c.4-.1.9-.1 1.6-.1s1.3-.1 2-.1c1.4 0 2.9 0 4.4.2"/><path d="m46.1 12.2v-12.2h-46v12.1c0 3.9 0 5.9.1 10.5 1.7 19.9 14.7 29.7 22.9 34 8.2-4.3 21.3-14.2 23-34z" fill="#fff"/><path d="m44.2 22.6c.1-4.5.1-6.5.1-10.1v-10.7h-42.5v10.7c0 3.7 0 5.7.1 10.1 1.5 18.6 13.7 27.9 21.1 31.9 7.5-4 19.7-13.3 21.2-31.9" fill="#f0de8f"/><path d="m46.1 12.2v-12.2h-46.1v12.1c0 3.9 0 5.9.1 10.5 1.7 19.9 14.7 29.7 22.9 34 8.2-4.3 21.3-14.2 23-34 .2-4.5.2-6.5.1-10.4m-.7 10.5c-1.8 19.5-14.6 29.2-22.3 33.3-7.7-4.1-20.6-13.8-22.3-33.3-.2-4.7-.2-6.7-.1-10.5v-11.5h44.8v11.5c0 3.8 0 5.8-.1 10.5"/><path d="m6.3 38.2c3.8 7 9.6 12.6 16.7 16.4 2.4-1.3 4.6-2.8 6.7-4.4 4.1-3.2 7.5-7.3 10-11.9-2.4.3-4.9-.1-7.2-1-4.4-1.8-7.2-1.8-9.6.1-2.5-1.9-5.3-2-9.6-.1-2.2.7-4.6 1.1-7 .9m19.7 5.1c-.4-.6-.3-1.4.2-1.8.8-.6 1.2.1 1.8-.6-.5-.1-.6-.6-.8-1s-.8-.6-1.5-.2c.3-.7 1-1 1.7-.7 1 .3.6 1 1.4 1.2-.2-.5.2-.8.4-1.1s.1-1-.6-1.3c.7 0 1.3.4 1.4 1.1.1 1-.6 1-.4 1.8.3-.4.8-.3 1.2-.2s.9-.4.9-1.2c.4.6.3 1.4-.2 1.8-.8.6-1.2-.1-1.8.6.5.1.6.6.8 1s.8.6 1.5.2c-.3.7-1 1-1.7.7-1-.3-.6-1-1.4-1.2.2.5-.2.8-.4 1.1s-.1 1 .6 1.3c-.7 0-1.3-.4-1.5-1.1-.1-1 .6-1 .4-1.8-.3.4-.9.3-1.2.2s-.8.4-.8 1.2m-4 4.9c-.5-.1-.6-.6-.8-1s-.8-.6-1.5-.2c.3-.7 1-1 1.7-.7 1 .3.6 1 1.4 1.2-.2-.5.2-.8.4-1.1.4-.4.1-1-.6-1.3.7-.1 1.3.4 1.5 1.1.1 1-.6 1-.4 1.8.3-.4.8-.3 1.2-.2s.9-.4.9-1.2c.4.6.3 1.4-.2 1.8-.8.6-1.2-.1-1.8.6.5.1.6.6.8 1s.8.6 1.5.2c-.3.7-1 1-1.7.7-1-.3-.6-1-1.4-1.2.2.5-.2.8-.4 1.1s-.1 1 .6 1.3c-.7.1-1.3-.4-1.5-1.2-.1-1 .6-1 .4-1.8-.3.4-.8.3-1.2.2s-.9.5-.9 1.3c-.4-.6-.3-1.4.2-1.8.8-.7 1.3 0 1.8-.6m-6-7.4c-.5-.1-.6-.6-.8-1s-.9-.6-1.5-.2c.3-.7 1-1 1.7-.7 1 .3.6 1 1.4 1.2-.2-.5.2-.8.4-1.1s.1-1-.6-1.3c.7 0 1.3.5 1.4 1.1.1 1-.6 1-.4 1.8.3-.4.8-.3 1.2-.2s.9-.4.9-1.2c.4.6.3 1.4-.2 1.8-.8.6-1.2-.1-1.8.6.5.1.6.6.8 1s.9.6 1.5.2c-.3.7-1 1-1.7.7-1-.3-.6-1-1.4-1.2.2.5-.2.8-.4 1.1s-.1 1 .6 1.3c-.7 0-1.3-.4-1.5-1.1-.1-1 .6-1 .3-1.8-.3.4-.8.3-1.2.2-.5-.1-.9.4-.9 1.2-.4-.6-.3-1.4.2-1.8 1-.6 1.4.1 2-.6" fill="#0e5da9"/><path d="m38.5 14.2c2.1-.1 4.1-.8 5.8-2v-4.3c-.1-.1-.2-.1-.3-.1.2.5-.2.8-.4 1.1s-.1 1 .6 1.3c-.7.1-1.3-.4-1.5-1.1-.1-1 .6-1 .3-1.8-.3.4-.8.3-1.2.2s-.9.4-.9 1.2c-.4-.6-.3-1.4.2-1.8.8-.6 1.2.1 1.8-.6-.5-.1-.6-.6-.8-1s-.8-.7-1.5-.3c.3-.7 1-1 1.7-.7 1 .3.6 1 1.4 1.2-.2-.5.2-.8.4-1.1s.1-1-.6-1.3c.3 0 .6 0 .8.2v-1.5h-42.5v3.6c.1.1.2.1.3.1-.2-.4.2-.8.4-1.1s.1-1-.6-1.3c.8-.1 1.4.4 1.5 1.1.2 1-.6 1-.3 1.8.3-.5.9-.3 1.3-.2s.9-.4.9-1.2c.4.6.3 1.4-.2 1.8-.8.7-1.2 0-1.8.7.5.1.6.6.8 1 .1.4.8.6 1.5.2-.3.7-1.1 1-1.7.7-1-.4-.6-1-1.4-1.2.2.5-.3.9-.5 1.1s-.1 1 .6 1.3c-.3.1-.6 0-.8-.1v2.1c1.7 1.2 3.7 1.9 5.8 2 5.9 0 6.7-2.8 11.6-2.8 1.4.1 2.8.6 3.9 1.6 1.1-.9 2.4-1.5 3.9-1.6 4.9 0 5.6 2.8 11.5 2.8m-24.2-7.1c.5.1.6.6.8 1 .1.4.8.6 1.5.2-.3.7-1 1-1.7.7-1-.4-.6-1-1.4-1.2.2.5-.2.8-.4 1.1s-.1 1 .6 1.3c-.7.1-1.3-.4-1.5-1.1-.1-1 .6-1 .4-1.8-.3.4-.8.3-1.2.2s-1 .5-1 1.2c-.4-.6-.3-1.4.2-1.8.8-.6 1.2.1 1.8-.6-.5-.1-.6-.6-.8-1s-.8-.6-1.5-.2c.3-.7 1-1 1.7-.7 1 .3.6 1.1 1.4 1.2-.2-.5.2-.8.4-1.1s.1-1-.6-1.3c.7-.1 1.3.4 1.5 1.1.1 1-.6 1-.4 1.8.3-.4.9-.3 1.2-.2s.9-.4.9-1.2c.4.6.3 1.4-.2 1.8-.8.6-1.2-.1-1.7.6m9.8 0c.5.1.6.6.8 1s.8.6 1.5.2c-.3.7-1 1-1.7.7-1-.4-.6-1-1.4-1.2.2.5-.2.8-.4 1.1s-.1 1 .6 1.3c-.7 0-1.3-.5-1.4-1.1-.1-1 .6-1 .4-1.8-.3.4-.8.3-1.2.2s-.9.4-.9 1.2c-.4-.6-.3-1.4.2-1.8.8-.6 1.2.1 1.8-.6-.5-.1-.6-.6-.8-1s-1-.6-1.6-.3c.3-.7 1-1 1.7-.7 1 .3.6 1.1 1.4 1.2-.2-.5.2-.8.4-1.1s.1-1-.6-1.3c.7-.1 1.3.4 1.5 1.1.1 1-.6 1-.4 1.8.3-.4.8-.3 1.2-.2s.9-.4.9-1.2c.4.6.3 1.4-.2 1.8-.8.7-1.2 0-1.8.7m10.3 0c.5.1.6.6.8 1s.8.6 1.5.2c-.3.7-1 1-1.7.7-1-.4-.6-1-1.4-1.2.2.5-.2.8-.4 1.1s-.1 1 .6 1.3c-.7.1-1.3-.4-1.5-1.1-.1-1 .6-1 .3-1.8-.3.4-.9.3-1.2.2s-.9.4-.9 1.2c-.4-.6-.3-1.4.2-1.8.8-.6 1.2.1 1.8-.6-.5-.1-.6-.6-.8-1s-.9-.6-1.5-.3c.3-.7 1-1 1.7-.7 1 .3.6 1.1 1.4 1.2-.2-.5.2-.8.4-1.1s.1-1-.6-1.3c.7-.1 1.3.4 1.5 1.1.1 1-.6 1-.3 1.8.3-.4.8-.3 1.2-.2s.9-.4.9-1.2c.4.6.3 1.4-.2 1.8-.9.7-1.3 0-1.8.7" fill="#0e5da9"/><path d="m1.8 18.8c0 1.1.1 2.3.1 3.9.3 2.9.8 5.8 1.6 8.6 1.4.6 2.9.9 4.3.9 1.9 0 3.8-.5 5.5-1.4 3.6-2 6.2-2 9.5 0l.1.1.1-.1c3.3-1.9 5.9-1.9 9.5 0 1.7.9 3.6 1.4 5.5 1.4 1.5 0 3-.3 4.4-.9.8-2.8 1.4-5.6 1.6-8.5.1-1.5.1-2.8.1-3.9-3.5 1.9-7.6 2.1-11.2.6-3.7-1.4-6.9-1.7-10.1 1-3.2-2.7-6.4-2.4-10.1-1-3.5 1.2-7.5 1-10.9-.7m31.8 6 1.5-1.3-.9-.8c-.1-.1-.1-.1-.1-.3s.1-.1.2-.1h1.1c.1-.2.3-.4.6-.4s.5.2.6.4h1.2c.1 0 .1.1.2.1s0 .2-.1.3l-.8.8 1.5 1.3c.1.1 1.3.9.7 1.9-.1.3-.4.4-.7.4-.1.5-.5.8-.9.9-.2 0-.4 0-.6-.1-.1.2-.3.3-.5.4s-.3.1-.5.1c-.4 0-.8-.2-1-.6-.2.2-.4.2-.6.2-.5-.1-.8-.5-.9-.9-.3 0-.5-.2-.7-.4-.6-.9.6-1.8.7-1.9m-13 0 1.4-1.3-.9-.8c-.1 0-.1-.1-.1-.2s.1-.1.2-.1h1.1c.1-.2.3-.4.6-.4s.5.2.6.4h1.2c.1 0 .1.1.2.1 0 .1 0 .2-.1.3l-.8.7 1.5 1.3c.1.1 1.3.9.7 1.9-.1.3-.4.4-.7.4-.1.4-.5.8-.9.9-.2 0-.4 0-.6-.1-.1.2-.3.3-.5.4s-.3.1-.5.1c-.4 0-.8-.2-1-.6-.2.2-.4.2-.6.2-.5-.1-.8-.5-.9-.9-.3 0-.5-.2-.7-.4-.6-.9.6-1.7.8-1.9m-13.1 0 1.5-1.3-.9-.8c-.1 0-.1-.1-.1-.2s.1-.1.2-.1h1.2c.1-.2.3-.4.6-.4s.5.2.6.4h1.2c.1 0 .1.1.2.1 0 .1 0 .2-.1.3l-.9.7 1.5 1.3c.1.1 1.3.9.7 1.9-.1.3-.4.4-.7.4-.1.5-.5.8-.9.9-.2 0-.4 0-.6-.1-.1.2-.3.3-.5.4s-.3.1-.5.1c-.4 0-.8-.2-1-.6-.2.2-.4.2-.6.2-.5-.1-.8-.5-.9-.9-.3 0-.5-.2-.7-.4-.5-.9.6-1.7.7-1.9" fill="#d93426"/><path d="m320.3 35.4c-.6-1.2-1.3-2.3-2.3-3.2l-.6-.5c-2.6-1.8-5.7-2.8-8.9-2.9-1.6-.1-3.2 0-4.8.3v-7.5c1.3 0 2.5.1 3.8.4 9.6 2.4 12.5 9.6 12.8 10.2.3-.6 3.2-7.8 12.8-10.3 1.2-.3 2.5-.4 3.8-.4v7.4c-1.6-.3-3.2-.4-4.8-.3-3.2 0-6.3 1-8.9 2.9l-.6.5c-.9 1.1-1.7 2.2-2.3 3.4z"/><path d="m320.4 36.5c.6 1.2 1.3 2.3 2.3 3.3l.6.5c2.6 1.8 5.7 2.8 8.9 2.9 1.6.1 3.2 0 4.8-.3v7.5c-1.3 0-2.5-.1-3.8-.4-9.6-2.4-12.5-9.6-12.8-10.2-.3.6-3.2 7.8-12.8 10.3-1.2.3-2.5.4-3.8.4v-7.4c1.6.3 3.2.4 4.8.3 3.2 0 6.3-1 8.9-2.9l.6-.5c.9-1.1 1.7-2.2 2.3-3.5z"/><path d="m320.1 3.4c.3.1.7 0 .9-.2.3-.3.4-.6.3-1-.1-.5-.7-.7-.7-.7v-.6h.5v-.3h-.5v-.6h-.5v.6h-.5v.4h.5v.4c-.2.1-.4.2-.5.3-.2.3-.3.7-.2 1 .1.4.4.6.7.7"/><path d="m319.6 4.7c.1.4.2.9.3 1.3.2 0 .4-.3.6-.3l.5.4c.1-.4.2-.9.3-1.4.6 0 1.1.1 1.7.3.9.3 1.8.9 2.3 1.8l.7-.4c-.1-.3-.3-.5-.5-.7-1.4-1.2-3.2-1.8-5-1.9-1.9-.1-3.8.6-5.2 2-.2.2-.3.4-.4.6.2.2.5.3.7.4.9-1.3 2.4-2 4-2.1"/><path d="m314.3 6.9 1.5 5h9.2l1.5-5c-.3.2-.7.4-1 .6-.1.2-.1.4-.2.6l-.3-.3c-.2-.1-.4-.2-.6-.1-.3.1-.5.4-.6.7-.1.4 0 .8.3 1.1h.2c0-.2.1-.4.2-.6.1-.1.3-.1.4-.1 0 0 .1.1.1.2.1.5-.3.9-.7 1 0 0-.1 0-.2 0-.3-.1-.6-.3-.8-.5-.1-.3-.1-.7 0-1.1.1 0 .5-.2.4-.5-.1-.1-.2-.2-.3-.3l.1-1h-.5l-.2.9c-.1.1-.3.1-.4.2s-.1.2-.1.3c.1.1.2.2.3.3 0 .6-.3 1.3-.9 1.6-.2.1-.5.1-.7-.1s-.2-.5-.2-.7c.1-.2.2-.2.4-.2.1 0 .2.1.2.2.1.1.1.3 0 .4 0 .1.1.1.2.1.3-.1.5-.4.6-.7s0-.7-.2-.9-.4-.3-.7-.2c-.2 0-.4.3-.5.3 0-.2.1-.4.2-.6.2-.4-.2-.7-.4-1h-.1c-.2.2-.5.5-.5.8s.2.5.2.8c-.2-.2-.3-.3-.5-.3-.3 0-.5.1-.7.3-.2.4-.2 1 .1 1.4.1.1.3.2.4.1s0-.3 0-.5c0-.1.1-.2.2-.2.2-.1.3 0 .4.2.1.3.1.5-.1.8-.2.2-.4.3-.7.2-.6-.2-1-.8-1-1.4-.1-.4.4-.3.3-.7 0-.2-.4-.3-.4-.3l-.3-1h-.5c.1.3.1.7.1 1 0 .1-.1.1-.2.2s-.1.2 0 .4c0 .1.3.2.4.3.1.5 0 1-.4 1.4-.2.2-.5.3-.7.2-.3 0-.5-.2-.6-.5-.1-.2-.1-.4.1-.6.1-.1.2-.1.3-.1.2.1.3.4.3.6 0 .1.1.1.2.1.2-.2.4-.5.4-.8 0-.4-.2-.8-.5-1.1-.2-.1-.4 0-.6.1-.1.1-.2.3-.3.3 0-.2-.1-.4-.2-.6z"/><path d="m339.4 36.9c-.5 1.2-1.8 1.5-2.9 1.7-2.3.1-4.6-.5-6.7-1.6-.2-.1-.3-.2-.5-.3 2.6-1.5 5.7-1.9 8.6-1.3.5.1.9.3 1.3.7.2.2.3.5.2.8m-19 6.4c-1.6-2.8-3.8-5.2-6.5-7 2.4-1.9 4.6-4.1 6.3-6.7l.2-.2c1.6 2.8 3.8 5.2 6.5 7.1-2.6 1.8-4.8 4.1-6.5 6.8m1 3.7c1 2.4 1.9 6 .2 8.4-.3.4-.7.6-1.2.5-.8-.3-1-1.3-1.2-2-.3-2.8.2-5.7 1.5-8.2.3.4.5.9.7 1.3m-3.1-27.1c0-1.2.5-2.2 1.3-3.1.2-.1.5-.2.8-.1s.6.3.8.6c1.1 2 .6 4.9 0 7-.3.9-.6 1.7-1 2.5-1.3-2-1.9-4.4-1.9-6.9m-6.7 16.1c-2.6 1.3-6 2.2-9 1.1-.5-.2-1.1-.5-1.1-1.1.2-1.2 1.6-1.7 2.6-1.8 2.6-.2 5.2.4 7.5 1.8zm28.5-.3c-.5-1-1.4-1.7-2.5-2-3.6-.8-6.9.5-9.8 2.1-2.8-1.9-5.2-4.4-6.9-7.4.4-.8.7-1.5 1-2.3 1-2.5 1.9-5.9.6-8.5-.4-1-1.4-1.7-2.5-1.6-1.6.3-2.3 2-2.5 3.5-.1 2.9.6 5.8 1.9 8.3-1.8 3-4.2 5.6-7.1 7.6-1.1-.5-2.1-.9-3.3-1.3-2.4-.6-5.6-1.3-7.7.5-.7.5-1 1.4-.7 2.2.6 1.6 2.3 2.1 3.8 2.3 3 .1 5.9-.7 8.4-2.3 2.8 1.9 5.2 4.4 6.8 7.3-.6 1.1-1.1 2.2-1.5 3.3-.8 2.4-1.5 5.7-.1 8 .5.8 1.3 1.3 2.2 1.3 1.3-.2 2-1.5 2.4-2.6.7-3.3-.4-6.4-1.6-9.2-.1-.2.1-.4.2-.5 1.8-2.8 4.2-5.2 6.9-7.2.9.5 1.8.9 2.8 1.2 2.5.7 6.1 1.6 8.3-.4.6-.6.9-1.5.6-2.3"/><path d="m318.7 3.5c.3 0 .5-.2.5-.5s-.2-.5-.5-.5-.5.2-.5.5.2.5.5.5"/><path d="m317.5 3.8c.3 0 .5-.2.5-.5s-.2-.5-.5-.5-.5.2-.5.5c0 .2.3.5.5.5z"/><path d="m316.5 4.2c.3 0 .5-.2.5-.5s-.2-.5-.5-.5-.5.3-.5.5c0 .3.2.5.5.5"/><path d="m315.5 4.8c.3 0 .5-.2.5-.5s-.2-.5-.5-.5-.5.2-.5.5c0 .3.2.5.5.5"/><path d="m314.6 5.6c.3 0 .5-.2.5-.5s-.2-.5-.5-.5-.5.2-.5.5c0 .3.3.5.5.5"/><path d="m322.1 3.5c.3 0 .5-.2.5-.5s-.2-.5-.5-.5-.5.2-.5.5c0 .3.2.5.5.5"/><path d="m323.3 3.8c.3 0 .5-.2.5-.5s-.2-.5-.5-.5c-.2 0-.5.2-.5.4 0 .4.2.6.5.6"/><path d="m324.3 4.3c.3 0 .5-.2.5-.4 0-.3-.3-.4-.5-.4s-.4.2-.4.4c0 .1.2.4.4.4"/><path d="m325.3 4.9c.3 0 .5-.2.5-.5s-.2-.5-.5-.5-.5.2-.5.5c.1.2.3.5.5.5"/><path d="m326.2 5.7c.3 0 .5-.2.5-.5s-.2-.5-.5-.5-.5.2-.5.5c0 .2.2.5.5.5z"/></svg>