<svg id="Layer_1" data-name="Layer 1" xmlns="http://www.w3.org/2000/svg" viewBox="0 0 340.16 56.69"><defs><style>.cls-1{fill:#fff;}.cls-2{fill:#f0de8f;}.cls-3{fill:#0e5da9;}.cls-4{fill:#d93426;}</style></defs><title>uoplogoqueenwhite</title><path class="cls-1" d="M320.33,35.41A10.28,10.28,0,0,0,318,32.15l-.58-.5a15.76,15.76,0,0,0-8.87-2.87,21.84,21.84,0,0,0-4.78.3l0-7.45a15.65,15.65,0,0,1,3.77.39c9.63,2.42,12.53,9.63,12.82,10.25h0c.28-.62,3.18-7.84,12.81-10.26a15.74,15.74,0,0,1,3.78-.39l0,7.45a21.81,21.81,0,0,0-4.78-.3,15.78,15.78,0,0,0-8.87,2.87l-.58.5a10.28,10.28,0,0,0-2.33,3.26Z"/><path class="cls-1" d="M320.38,36.52a10.28,10.28,0,0,0,2.33,3.26l.59.5a15.75,15.75,0,0,0,8.86,2.87,21.81,21.81,0,0,0,4.78-.3l0,7.45a15.65,15.65,0,0,1-3.77-.39c-9.64-2.42-12.54-9.63-12.82-10.25h0c-.28.62-3.18,7.84-12.82,10.26a15.65,15.65,0,0,1-3.77.39l0-7.44a22.22,22.22,0,0,0,4.77.29,15.75,15.75,0,0,0,8.87-2.86l.58-.51a10.2,10.2,0,0,0,2.34-3.26Z"/><path class="cls-1" d="M320.12,3.38a1,1,0,0,0,.94-.22,1.07,1.07,0,0,0,.3-1c-.09-.55-.73-.72-.73-.72V.94h.5V.56h-.49V0h-.45V.56h-.52V.94h.5v.45a1.42,1.42,0,0,0-.54.33,1,1,0,0,0-.2,1,1,1,0,0,0,.69.68"/><path class="cls-1" d="M319.59,4.67c.12.43.18.9.26,1.34.21,0,.35-.27.57-.29l.5.36c.12-.44.18-.93.29-1.38l0,0a6.18,6.18,0,0,1,1.68.32,4.56,4.56,0,0,1,2.33,1.75l.7-.45a3.91,3.91,0,0,0-.52-.73,7.69,7.69,0,0,0-5-1.85,7.17,7.17,0,0,0-5.25,2,2.85,2.85,0,0,0-.38.59,6.72,6.72,0,0,0,.71.43,5.24,5.24,0,0,1,4.06-2"/><path class="cls-1" d="M314.33,6.86l1.49,5H325l1.52-5,0,0c-.33.25-.71.39-1,.63a6.36,6.36,0,0,1-.22.66L325,7.78a.7.7,0,0,0-.63-.1,1,1,0,0,0-.59.73,1.2,1.2,0,0,0,.28,1.09.23.23,0,0,0,.23,0,1,1,0,0,1,.19-.59.44.44,0,0,1,.43-.09.67.67,0,0,1,.12.16.87.87,0,0,1-.88,1,1.17,1.17,0,0,1-.8-.54,1.32,1.32,0,0,1,0-1.05c.07,0,.48-.18.39-.52a.94.94,0,0,0-.27-.27l.08-1H323l-.18.9a1.48,1.48,0,0,0-.41.24.41.41,0,0,0-.1.34.62.62,0,0,0,.32.3,1.66,1.66,0,0,1-.9,1.55.65.65,0,0,1-.71-.14.74.74,0,0,1-.16-.71.4.4,0,0,1,.39-.24.41.41,0,0,1,.22.19.66.66,0,0,1,0,.44.17.17,0,0,0,.16.08.87.87,0,0,0,.57-.72,1,1,0,0,0-.21-.94.64.64,0,0,0-.68-.18c-.25,0-.39.34-.51.35-.05-.23.12-.4.17-.6.18-.4-.18-.71-.44-1h-.12c-.21.26-.54.5-.5.84s.21.52.17.75a1.42,1.42,0,0,0-.55-.34.79.79,0,0,0-.69.34,1.25,1.25,0,0,0,.11,1.35.39.39,0,0,0,.41.15c.06-.13,0-.31,0-.47a.41.41,0,0,1,.22-.25c.16-.07.29,0,.4.16a.71.71,0,0,1-.12.75.86.86,0,0,1-.67.25,1.64,1.64,0,0,1-1-1.43c-.14-.35.41-.32.26-.69,0-.18-.39-.28-.39-.28l-.26-1h-.52a4.69,4.69,0,0,1,.1,1c-.05.08-.11.08-.21.16s-.07.23-.05.37.31.16.43.32a1.49,1.49,0,0,1-.35,1.35.84.84,0,0,1-.72.22.88.88,0,0,1-.65-.5.53.53,0,0,1,.08-.6.24.24,0,0,1,.3-.06c.24.11.27.39.29.63a.17.17,0,0,0,.18.1,1.06,1.06,0,0,0,.4-.75,1.23,1.23,0,0,0-.52-1.08.7.7,0,0,0-.63.08c-.14.11-.19.29-.33.35a6,6,0,0,0-.16-.64l-1.06-.65Z"/><path class="cls-1" d="M339.39,36.92c-.48,1.18-1.79,1.5-2.94,1.66A13.62,13.62,0,0,1,329.74,37c-.17-.08-.32-.19-.48-.28a12.56,12.56,0,0,1,8.62-1.33,3.05,3.05,0,0,1,1.31.68.93.93,0,0,1,.2.81m-19,6.37a21.56,21.56,0,0,0-6.45-7,28.57,28.57,0,0,0,6.27-6.71l.16-.23a22.21,22.21,0,0,0,6.49,7.06,27.11,27.11,0,0,0-6.47,6.88m1,3.73c1,2.42,1.94,6,.21,8.4a1.24,1.24,0,0,1-1.18.49c-.82-.35-1-1.28-1.19-2a14.16,14.16,0,0,1,1.51-8.16,10,10,0,0,1,.65,1.31m-3.13-27.09a4.54,4.54,0,0,1,1.32-3.06,1.11,1.11,0,0,1,.77-.15,1.56,1.56,0,0,1,.76.63c1.12,2,.56,4.87,0,7a24.68,24.68,0,0,1-1,2.51,14,14,0,0,1-1.83-6.91m-6.72,16c-2.61,1.3-6,2.24-9,1.14-.46-.23-1.06-.53-1.09-1.12.21-1.23,1.57-1.65,2.62-1.85a13,13,0,0,1,7.42,1.78Zm28.58-.22a3.69,3.69,0,0,0-2.49-2c-3.57-.75-6.94.51-9.84,2.1a21.4,21.4,0,0,1-6.85-7.41A21.26,21.26,0,0,0,322,26.09c1-2.51,1.88-5.85.61-8.52a2.64,2.64,0,0,0-2.5-1.63c-1.61.32-2.3,2-2.51,3.48a17,17,0,0,0,1.91,8.33,25.41,25.41,0,0,1-7.08,7.64,29.86,29.86,0,0,0-3.26-1.29c-2.43-.63-5.57-1.33-7.67.47a2.15,2.15,0,0,0-.74,2.24c.56,1.58,2.29,2.11,3.8,2.28A15.73,15.73,0,0,0,313,36.82a21.75,21.75,0,0,1,6.83,7.32,21.29,21.29,0,0,0-1.5,3.3c-.82,2.37-1.53,5.66-.08,8a2.53,2.53,0,0,0,2.22,1.28c1.31-.15,2.05-1.47,2.37-2.58.71-3.28-.38-6.39-1.62-9.15-.15-.22.13-.37.2-.55a26.31,26.31,0,0,1,6.9-7.17,19.61,19.61,0,0,0,2.81,1.17c2.51.7,6.1,1.57,8.28-.44a2.21,2.21,0,0,0,.62-2.26"/><path class="cls-1" d="M318.69,3.45a.46.46,0,1,0,0-.92.46.46,0,0,0,0,.92"/><path class="cls-1" d="M317.52,3.75a.47.47,0,1,0-.47-.47.47.47,0,0,0,.47.47"/><path class="cls-1" d="M316.46,4.2a.47.47,0,1,0-.46-.46.46.46,0,0,0,.46.46"/><path class="cls-1" d="M315.45,4.8a.46.46,0,1,0-.46-.46.46.46,0,0,0,.46.46"/><path class="cls-1" d="M314.61,5.61a.47.47,0,1,0-.46-.47.47.47,0,0,0,.46.47"/><path class="cls-1" d="M322.1,3.51a.47.47,0,1,0-.46-.47.47.47,0,0,0,.46.47"/><path class="cls-1" d="M323.28,3.8a.47.47,0,0,0,.46-.46.46.46,0,0,0-.46-.46.45.45,0,0,0-.46.46.46.46,0,0,0,.46.46"/><path class="cls-1" d="M324.34,4.25a.46.46,0,0,0,.46-.46.47.47,0,1,0-.46.46"/><path class="cls-1" d="M325.34,4.86a.47.47,0,1,0-.46-.47.47.47,0,0,0,.46.47"/><path class="cls-1" d="M326.18,5.66a.46.46,0,1,0-.46-.46.45.45,0,0,0,.46.46"/><path class="cls-1" d="M62.22,26.42c-.14.07-.14.35-.14.77s.07.63.14.63a6.77,6.77,0,0,1,1.6.35c.77.21,1.19.49,1.26.7a17.82,17.82,0,0,1,.28,3.43V48.23a14.19,14.19,0,0,1-.28,3.85q-.21.42-1.26.63a5.9,5.9,0,0,1-1.6.28c-.07,0-.14.21-.14.7a1.63,1.63,0,0,0,.14.77l.83-.07c.56,0,1.33-.07,2.24-.14s1.82-.07,2.52-.07c.91,0,2.86.07,5.94.28a2,2,0,0,0,.07-.7c0-.49-.07-.7-.14-.7a9.2,9.2,0,0,1-1.89-.35c-.84-.21-1.33-.49-1.4-.84A13.58,13.58,0,0,1,70,48.3V33.2c0-2.72.14-4.19.49-4.4A6.56,6.56,0,0,1,73,28.52a4.11,4.11,0,0,1,3.5,1.61,7.79,7.79,0,0,1,1.11,4.47,7.33,7.33,0,0,1-1.18,4.2,3.66,3.66,0,0,1-3.22,1.68,6.28,6.28,0,0,1-2.38-.42c-.07,0-.07.07-.14.28V41c.07.21.07.35.14.42a2.69,2.69,0,0,0,1.19.77,5.19,5.19,0,0,0,1.75.35,8.31,8.31,0,0,0,4.68-1.33A9.1,9.1,0,0,0,81.58,38a8,8,0,0,0,1-3.85,7,7,0,0,0-.63-3,7.48,7.48,0,0,0-1.54-2.24,9.84,9.84,0,0,0-2.17-1.47,8.84,8.84,0,0,0-2.51-.84,15.3,15.3,0,0,0-2.52-.21c-.84,0-1.82,0-2.87.07s-2,.07-2.79.07c-.56.07-2.45,0-5.38-.07M92,28.73c.07-.21.49-.42,1.19-.63a8.13,8.13,0,0,1,1.54-.35c.14,0,.14-.21.14-.7a3.08,3.08,0,0,0-.14-.7c-3.35.14-5.17.28-5.38.28-.77,0-1.82-.07-3.29-.14s-2.16-.14-2.3-.14-.07.28-.07.77.07.63.14.63a4.1,4.1,0,0,1,1.53.35,2.19,2.19,0,0,1,1.19.63,13.58,13.58,0,0,1,.35,3.57V48.23a15.25,15.25,0,0,1-.28,3.85c-.14.28-.49.49-1.19.63a5.85,5.85,0,0,1-1.6.28c-.07,0-.14.21-.14.7a1.51,1.51,0,0,0,.14.7l5.59-.14c1.4-.07,3.91-.07,7.41.07s5.87.14,7,.14c.07-.42.21-1,.35-1.61a11.67,11.67,0,0,1,.56-1.68c.14-.49.42-1.12.77-2s.56-1.46.63-1.74a1.91,1.91,0,0,0-1.19-.28c-.35,0-.56.07-.56.28A8.31,8.31,0,0,1,103,50a4.2,4.2,0,0,1-1.54,1.47,11.5,11.5,0,0,1-5,.91H94.93c-1.75,0-2.73-.21-2.87-.56a11.21,11.21,0,0,1-.35-3.36v-16A13.71,13.71,0,0,1,92,28.73m21.74,12.58a2.2,2.2,0,0,1,.28.84v6.22a16.37,16.37,0,0,1-.34,3.71c-.07.21-.49.42-1.19.7a4.14,4.14,0,0,1-1.54.35c-.07,0-.14.21-.14.7a1.51,1.51,0,0,0,.14.7c.28,0,1.12-.07,2.45-.14s2.3-.14,3.07-.14a15.23,15.23,0,0,1,1.75.07c.56,0,1.26.07,2,.14s1.25.07,1.6.14a2,2,0,0,0,.07-.7c0-.42-.07-.7-.14-.7a7.55,7.55,0,0,1-1.39-.35,2.37,2.37,0,0,1-1.19-.63,16.38,16.38,0,0,1-.35-3.78V41.87c0-.35,1-2.23,3.14-5.66s3.57-5.73,4.41-6.92a3.33,3.33,0,0,1,1.61-1,5,5,0,0,1,1.74-.35c.14,0,.14-.21.14-.7a2.63,2.63,0,0,0-.07-.7c-.28,0-.77.07-1.26.07s-1,.07-1.6.14-1.12.07-1.75.07-2.24-.07-5-.28a1.63,1.63,0,0,0-.14.77c0,.42.07.56.14.56a5.24,5.24,0,0,1,2,.35c.49.21.77.49.77.84a11.94,11.94,0,0,1-1.68,3.64c-1.11,1.88-2.3,3.77-3.49,5.52-.14.21-.28.21-.42.07l-4.47-8.18a2.21,2.21,0,0,1-.35-1.12c0-.42.28-.7.84-.91a4.15,4.15,0,0,1,1.53-.28c.07,0,.14-.21.14-.56a2,2,0,0,0-.07-.77c-3.35.14-5.31.28-5.8.28-3,0-4.89,0-5.52.07a1.2,1.2,0,0,0-.07.56c0,.28.07.42.14.42a5.28,5.28,0,0,1,1.19.21,3.55,3.55,0,0,1,1.26.56,8,8,0,0,1,2.16,2.94m27,17.12a7.1,7.1,0,0,1-.49,2.8c-.14.42-.7.84-1.61,1.12a8.3,8.3,0,0,1-2.1.42c-.14,0-.14.21-.14.7a1.51,1.51,0,0,0,.14.7c.28,0,1.05-.07,2.31-.14s2.24-.14,3-.14c.14,0,2,.07,5.32.28a1.55,1.55,0,0,0,.07-.63c0-.49-.07-.77-.14-.77a8.87,8.87,0,0,1-2-.42c-1-.28-1.54-.56-1.68-.91a5.43,5.43,0,0,1-.14-1.33c.28-5.52.49-11.81.7-18.73L148,54.25a.89.89,0,0,0,.42.07c.56,0,1.12-.56,1.61-1.61l8-19.57c.07-.14.14-.28.21-.28s.42.83.49,2.58l.42,12.79v2.38a2.3,2.3,0,0,1-.42,1.47,3,3,0,0,1-1.18.63,4.07,4.07,0,0,1-1.33.28c-.14,0-.14.28-.14.77a1.4,1.4,0,0,0,.14.63c.42,0,1-.07,1.81-.14s1.4-.07,2-.07,1.19-.07,1.75-.07c.07,0,1.82.07,5.17.28a1.55,1.55,0,0,0,.07-.63c0-.49-.07-.77-.14-.77a5.62,5.62,0,0,1-1.4-.35c-.69-.21-1-.42-1.18-.7a12.19,12.19,0,0,1-.7-3.85c-.28-9.08-.49-14.89-.56-17.4-.07-1.19.14-2,.56-2.24a3.73,3.73,0,0,1,2-.7h.07c.14,0,.14-.21.14-.7a1.51,1.51,0,0,0-.14-.7c-2.23.14-3.91.21-5,.21-1.47,0-2.59-.07-3.42-.14l-1.54,4.9c-1.47,3.84-3.43,8.67-5.87,14.61a.15.15,0,0,1-.14.14c-.07,0-.14,0-.14-.07-.77-2-1.82-4.48-3.15-7.48s-2.38-5.59-3.29-7.76-1.46-3.57-1.74-4.34c-2.59.14-4,.28-4.13.28a19.17,19.17,0,0,1-2.65-.14c-1-.07-1.75-.14-2.17-.14-.14.14-.14.35-.14.63,0,.49.07.7.14.7a8.15,8.15,0,0,1,1.82.28c.84.21,1.33.42,1.4.63a4.66,4.66,0,0,1,.13,1.19c0,.49-.06,1.75-.13,3.84m50.4-3.42A11.7,11.7,0,0,1,189,35.16a21.32,21.32,0,0,1,.84,6.08,15.27,15.27,0,0,1-2,8,6.11,6.11,0,0,1-5.52,3.36,6.7,6.7,0,0,1-5-2.1,11.18,11.18,0,0,1-2.94-5,21.19,21.19,0,0,1-.84-6,15.59,15.59,0,0,1,1.89-8,6.11,6.11,0,0,1,5.52-3.29,7.09,7.09,0,0,1,5,2m-4.41,24.4a12.63,12.63,0,0,0,9.51-4.2,14.06,14.06,0,0,0,4-10.06,14.09,14.09,0,0,0-4-10.07,12.86,12.86,0,0,0-19,0,14.09,14.09,0,0,0-4,10.07,14.07,14.07,0,0,0,4,10.06,12.5,12.5,0,0,0,9.5,4.2m14.61-28.32a1.43,1.43,0,0,0-.14.77c0,.42.07.63.14.63a4.14,4.14,0,0,1,1.54.35,2.19,2.19,0,0,1,1.19.63,12.13,12.13,0,0,1,.35,3.57v9.15c0,4.55,1,7.76,2.93,9.86a10.59,10.59,0,0,0,8,3.08,13.36,13.36,0,0,0,4.27-.63,9.17,9.17,0,0,0,3.35-2A8.38,8.38,0,0,0,220.13,48a17.26,17.26,0,0,0,.77-5.66V32.37a8.61,8.61,0,0,1,.49-3.5A2.85,2.85,0,0,1,223,28a8.68,8.68,0,0,1,1.81-.35c.14,0,.14-.21.14-.7a2.16,2.16,0,0,0-.07-.7c-.28,0-1,.07-2.16.14s-2.1.14-2.8.14c-.49,0-2.24-.07-5.31-.28a1.16,1.16,0,0,0-.07.77c0,.42.07.56.21.56a9.65,9.65,0,0,1,1.82.35c.83.21,1.32.49,1.46.77a8.74,8.74,0,0,1,.42,3.36V42.36c0,3.29-.63,5.66-1.95,7.06a6.75,6.75,0,0,1-5.18,2.1,6,6,0,0,1-5.17-2.59A11.55,11.55,0,0,1,204.26,42V32.44a16.13,16.13,0,0,1,.35-3.71c0-.21.42-.42,1.19-.63a8.13,8.13,0,0,1,1.54-.35c.14,0,.14-.21.14-.7a2.63,2.63,0,0,0-.07-.7c-3.08.14-4.9.28-5.39.28-.27,0-2.16-.07-5.73-.28m34.19,0a14.55,14.55,0,0,1-2.94-.42l-.77,6.37a1.52,1.52,0,0,0,1.12.35c.28,0,.42-.07.42-.28a6.24,6.24,0,0,1,1.61-3.08,4.51,4.51,0,0,1,3-.84c2.45,0,3.78.21,4,.7s.35,1.75.35,4.05V48.44a14.13,14.13,0,0,1-.35,3.5c-.07.21-.49.42-1.19.63a5.9,5.9,0,0,1-1.61.28c-.14,0-.14.28-.14.77a1.51,1.51,0,0,0,.14.7c.28,0,1.12-.07,2.45-.14s2.37-.14,3.14-.14a15.23,15.23,0,0,1,1.75.07c.63,0,1.26.07,2,.14s1.26.07,1.61.14a2,2,0,0,0,.07-.7c0-.49-.07-.77-.14-.77a6.77,6.77,0,0,1-1.47-.35c-.7-.21-1.12-.42-1.12-.63A13.32,13.32,0,0,1,242,48.3V33.2a17.57,17.57,0,0,1,.35-4c.14-.49,1.47-.7,4-.7a4.42,4.42,0,0,1,3,.84A6,6,0,0,1,251,32.51a.42.42,0,0,0,.42.21,1.54,1.54,0,0,0,1.12-.28L251.73,26a13.93,13.93,0,0,1-2.94.42c-1.12,0-2.66.07-4.61.14s-3.5.14-4.69.14-2.72,0-4.61-.14-3.29-.14-4.4-.21m49.77,26.29c-.7-.21-1.12-.42-1.19-.63a14.44,14.44,0,0,1-.35-3.78V32.44a16.13,16.13,0,0,1,.35-3.71c.07-.21.49-.42,1.19-.63a8.13,8.13,0,0,1,1.54-.35c.14,0,.14-.21.14-.7a3.08,3.08,0,0,0-.14-.7c-3.36.14-5.18.28-5.39.28-.77,0-1.81-.07-3.28-.14s-2.17-.14-2.31-.14-.07.28-.07.77.07.63.14.63a4.14,4.14,0,0,1,1.54.35,2.19,2.19,0,0,1,1.19.63A13.2,13.2,0,0,1,274,32.3v6.29c0,.07,0,.14-.07.14-2.52.07-4.41.07-5.53.07s-3,0-5.73-.07l-.07-.14V32.44a16.13,16.13,0,0,1,.35-3.71c.07-.21.49-.42,1.19-.63a8.13,8.13,0,0,1,1.54-.35c.14,0,.14-.21.14-.7a3.08,3.08,0,0,0-.14-.7c-3.36.14-5.17.28-5.38.28-.77,0-1.82-.07-3.29-.14s-2.17-.14-2.31-.14-.07.28-.07.77.07.63.14.63a4.14,4.14,0,0,1,1.54.35,2.19,2.19,0,0,1,1.19.63,13.2,13.2,0,0,1,.35,3.57V48.51a16.11,16.11,0,0,1-.35,3.57c-.07.21-.49.42-1.19.63a5.9,5.9,0,0,1-1.61.28c-.14,0-.14.28-.14.77a.9.9,0,0,0,.14.56c.42,0,1.05-.07,1.82-.14s1.4-.07,2-.07,1.19-.07,1.75-.07c.21,0,1.95.07,5.31.28a1.36,1.36,0,0,0,.07-.56c0-.56-.07-.77-.14-.77a6.77,6.77,0,0,1-1.47-.35c-.7-.21-1.12-.42-1.19-.63a14.44,14.44,0,0,1-.35-3.78v-7c0-.07,2-.14,5.8-.21,1,0,2.94,0,5.53.07l.07.14v7.27a16.11,16.11,0,0,1-.35,3.57c-.07.21-.49.42-1.19.63a5.9,5.9,0,0,1-1.61.28c-.14,0-.14.28-.14.77a.9.9,0,0,0,.14.56c.42,0,1.05-.07,1.82-.14s1.4-.07,2-.07,1.18-.07,1.74-.07c.21,0,2,.07,5.32.28a1.36,1.36,0,0,0,.07-.56c0-.56-.07-.77-.14-.77a9.33,9.33,0,0,1-1.33-.35"/><path class="cls-1" d="M62.28.28c-.07.07-.07.28-.07.56s.07.49.14.49a4.85,4.85,0,0,1,1.12.21c.49.14.77.28.84.49a9.58,9.58,0,0,1,.21,2.51v6.65c0,3.28.7,5.59,2.1,7.06a7.5,7.5,0,0,0,5.73,2.16,8.62,8.62,0,0,0,3.08-.49,6.44,6.44,0,0,0,2.44-1.46,5.8,5.8,0,0,0,1.61-2.73A13.87,13.87,0,0,0,80,11.67V4.61a6.86,6.86,0,0,1,.35-2.51,1.9,1.9,0,0,1,1.12-.63,6.23,6.23,0,0,1,1.33-.21c.07,0,.14-.14.14-.49a1,1,0,0,0-.07-.49c-.21,0-.7.07-1.54.14s-1.54.14-2,.14S77.73.49,75.5.35c-.07.07-.07.28-.07.56s.07.42.14.42a3.75,3.75,0,0,1,1.26.28c.62.14,1,.35,1,.56a6.07,6.07,0,0,1,.28,2.44v7.27c0,2.38-.49,4.06-1.39,5.11A4.71,4.71,0,0,1,73,18.53a4.37,4.37,0,0,1-3.77-1.89,8.34,8.34,0,0,1-1.33-5v-7A12.16,12.16,0,0,1,68.09,2c0-.14.28-.35.84-.49A5.53,5.53,0,0,1,70,1.33c.07,0,.14-.14.14-.49a1.19,1.19,0,0,0-.07-.49c-2.23.14-3.49.21-3.91.21A34,34,0,0,0,62.28.28M93.11,3.57A23,23,0,0,1,91,.35c-1.12.07-2.1.14-2.73.14C88,.49,86.82.42,84.65.35a.9.9,0,0,0-.14.56c0,.28.07.49.14.49A6.93,6.93,0,0,1,86,1.61q.94.21,1,.42a5.21,5.21,0,0,1,.35,2.23V16.15a6.66,6.66,0,0,1-.28,2.51,1.73,1.73,0,0,1-1.12.7,6.16,6.16,0,0,1-1.4.21c-.07,0-.14.14-.14.49a.67.67,0,0,0,.14.49c.28,0,.77-.07,1.61-.14s1.47-.07,2-.07l3.77.21c.07-.07.07-.28.07-.56s-.07-.42-.14-.42a5.16,5.16,0,0,1-1.39-.28c-.63-.14-1-.35-1.12-.63a9.47,9.47,0,0,1-.21-2.51V3.85l12.09,16c.35.49.63.7,1,.7a1.51,1.51,0,0,0,.7-.14c-.07-2.09-.14-3.49-.14-4.26V4.68a7.42,7.42,0,0,1,.35-2.51,1.9,1.9,0,0,1,1.12-.63,6.23,6.23,0,0,1,1.33-.21c.07,0,.14-.14.14-.49s0-.42-.07-.49-.7.07-1.54.14-1.54.14-2,.14S100.45.56,98.29.42c-.07.07-.07.28-.07.56s.07.42.14.42a5.58,5.58,0,0,1,1.32.21,1.79,1.79,0,0,1,1,.56A7.28,7.28,0,0,1,101,4.61v8.25a6.06,6.06,0,0,1-.07,1.26m8.74,2.17a11.91,11.91,0,0,1-.21,2.51c-.07.14-.35.28-.84.49a4.85,4.85,0,0,1-1.12.21c-.07,0-.14.21-.14.56a.59.59,0,0,0,.14.42c.35,0,.77-.07,1.26-.07s1-.07,1.47-.07h1.26l3.84.21a.89.89,0,0,0,.07-.42c0-.35-.07-.56-.14-.56a4.45,4.45,0,0,1-1-.21c-.49-.14-.76-.28-.83-.42a9.78,9.78,0,0,1-.28-2.72V4.68A13.08,13.08,0,0,1,113.32,2c.07-.14.35-.28.9-.49a5.59,5.59,0,0,1,1.12-.21c.07,0,.14-.14.14-.49a1.37,1.37,0,0,0-.07-.49c-2.44.14-3.7.21-3.91.21-.56,0-1.33,0-2.38-.07s-1.61-.07-1.68-.07-.07.21-.07.56.07.49.14.49a4.85,4.85,0,0,1,1.12.21c.49.14.77.28.84.49a10.34,10.34,0,0,1,.21,2.51Zm15.8-7.69a44.35,44.35,0,0,1-2.31-6.22.67.67,0,0,1,.42-.63,4.28,4.28,0,0,1,.84-.35,2.41,2.41,0,0,1,.63-.07c.07,0,.14-.14.14-.42s0-.49-.07-.56c-2.52.14-3.85.21-4.12.21-.56,0-1.33,0-2.31-.07S117.16.42,117,.42,117,.7,117,1s.07.49.14.49a4.72,4.72,0,0,1,1.19.21,1.33,1.33,0,0,1,.91.63A21,21,0,0,1,120.31,5l6.22,15.52a.53.53,0,0,0,.49.28c.49,0,.91-.35,1.19-1.12L134.5,5a16.14,16.14,0,0,1,1.32-2.65,1.92,1.92,0,0,1,1.05-.63,3.45,3.45,0,0,1,1-.21c.07,0,.07-.14.07-.49a1,1,0,0,0-.07-.49c-.28,0-.77.07-1.47.14a17.56,17.56,0,0,1-1.81.07c-.49,0-1.12,0-1.89-.07s-1.26-.07-1.47-.07-.07.28-.07.56,0,.42.14.42a3.66,3.66,0,0,1,1.47.28c.49.21.7.49.7.84a6.25,6.25,0,0,1-.63,2.09l-4.41,10.49c0,.07-.13-.21-.41-.7M139.32.35a.9.9,0,0,0-.14.56c0,.28.07.49.14.49a4.72,4.72,0,0,1,1.19.21c.49.14.77.35.84.56a9.58,9.58,0,0,1,.21,2.51v11.4a11.81,11.81,0,0,1-.21,2.79c-.07.21-.35.35-.91.49a4.85,4.85,0,0,1-1.12.21c-.07,0-.07.14-.07.49s0,.42.07.49l4.05-.14c1-.07,2.8,0,5.39,0s4.19.07,5,.07c.07-.28.14-.7.28-1.19a12.93,12.93,0,0,1,.42-1.25c.14-.35.28-.84.56-1.47l.42-1.26a1.22,1.22,0,0,0-.84-.21q-.42,0-.42.21a6.33,6.33,0,0,1-.91,1.82,3,3,0,0,1-1.12,1.05,8.26,8.26,0,0,1-3.63.62h-1.12c-1.26,0-2-.14-2.1-.41a7.3,7.3,0,0,1-.28-2.45V11.26c0-.14.7-.21,2.17-.21a9.69,9.69,0,0,1,2.8.21.81.81,0,0,1,.28.2c.07.07.07.14.2.42a8.54,8.54,0,0,1,.35,1.19c.07.14.21.21.49.21a.9.9,0,0,0,.56-.14V7.41a.9.9,0,0,0-.56-.14c-.28,0-.49.07-.49.21s-.14.49-.21.77c-.14.63-.27,1-.48,1.05a9.65,9.65,0,0,1-2.1.14h-1.75c-.91,0-1.33-.07-1.33-.21V4.61a10.88,10.88,0,0,1,.21-2.44q.1-.42,2.31-.42h1.61A3.91,3.91,0,0,1,153,4.47a.42.42,0,0,0,.42.21,1,1,0,0,0,.63-.14c0-.07-.14-.69-.42-1.74s-.42-2-.49-2.52c-1.12,0-2.86.07-5.1.14s-3.85.14-4.69.14L139.32.35M167.77,6a3.91,3.91,0,0,1-.91,2.73,2.65,2.65,0,0,1-2,1h-.77a3.68,3.68,0,0,1-1.4-.21c-.35-.14-.49-.42-.49-.91V5.17c0-2,.14-3.07.35-3.14a5.08,5.08,0,0,1,1.75-.21c2.3.07,3.49,1.47,3.49,4.19M162.53.42h-2.1c-.56,0-1.89,0-4.05-.07-.07.07-.14.21-.14.56s.07.49.14.49a3.81,3.81,0,0,1,1.19.28,1.43,1.43,0,0,1,.9.49,10.34,10.34,0,0,1,.21,2.51v11.4a11,11,0,0,1-.21,2.79c-.07.21-.35.35-.9.49a4.72,4.72,0,0,1-1.19.21c-.07,0-.07.14-.07.49s0,.49.07.56l.63-.07c.42,0,1-.07,1.6-.07s1.26-.07,1.82-.07,2.1.07,4.34.21a1,1,0,0,0,.07-.49c0-.35-.07-.49-.14-.49a6.93,6.93,0,0,1-1.33-.21c-.63-.14-1-.35-1.05-.56a10.91,10.91,0,0,1-.21-2.58V12c0-.35.14-.49.49-.49a1.57,1.57,0,0,1,.7.07,1.07,1.07,0,0,1,.49.35c.14.14.35.42.63.7s.49.63.63.91.48.7.83,1.26a15.31,15.31,0,0,0,1,1.4,8.73,8.73,0,0,0,1.26,1.68,16.1,16.1,0,0,0,1.54,1.39,5.7,5.7,0,0,0,2.17,1.05,11.19,11.19,0,0,0,2.79.35,3.42,3.42,0,0,0,.91-.07,1.32,1.32,0,0,0,.14-.56,1,1,0,0,0-.14-.49,3.57,3.57,0,0,1-2.24-.91,13.35,13.35,0,0,1-2.3-2.23,45,45,0,0,1-3.43-5.17c-.07-.14-.07-.21.14-.28a6.17,6.17,0,0,0,2.59-2.1,5.27,5.27,0,0,0,1.05-3.08,4.16,4.16,0,0,0-.49-2.09,4.34,4.34,0,0,0-1.19-1.54,9.64,9.64,0,0,0-1.68-1,9.06,9.06,0,0,0-1.82-.56,6.74,6.74,0,0,0-1.67-.14,5.49,5.49,0,0,0-2-.07m15,6.71a10.53,10.53,0,0,0,.63,1.26,7.41,7.41,0,0,0,1.05,1.12,9,9,0,0,0,1.18.91c.28.21.77.49,1.33.84.14.06.28.2.35.2A5.32,5.32,0,0,1,183,12c.42.28.77.42,1,.56s.49.35.84.63a8.43,8.43,0,0,1,.77.7,4.44,4.44,0,0,1,.49.84,2.47,2.47,0,0,1,.21,1,3.18,3.18,0,0,1-.91,2.52,3.45,3.45,0,0,1-2.38.83,4.06,4.06,0,0,1-2-.48,3.27,3.27,0,0,1-1.39-1.19,10.55,10.55,0,0,1-.84-1.4,4.88,4.88,0,0,1-.42-1.19c-.07-.14-.35-.21-.91-.21-.28,0-.49.07-.49.21,0,.35.07,1,.21,2.17s.35,2,.49,2.72a28.13,28.13,0,0,0,5.59.84,7,7,0,0,0,4.54-1.61,4.81,4.81,0,0,0,2-4,6,6,0,0,0-.21-1.61,5.25,5.25,0,0,0-.56-1.26,3.88,3.88,0,0,0-.91-1c-.42-.35-.77-.63-1-.77a10.74,10.74,0,0,0-1.19-.7q-.84-.53-1-.63c-.07-.07-.42-.21-.84-.49s-.77-.49-.91-.56-.35-.28-.77-.56-.63-.49-.77-.63-.28-.42-.49-.63a2.37,2.37,0,0,1-.42-.84,3.51,3.51,0,0,1-.14-.84,2.85,2.85,0,0,1,.77-2.09,2.67,2.67,0,0,1,2.17-.77,3.44,3.44,0,0,1,2.73,1.33,5.46,5.46,0,0,1,1.32,2.72c.07.21.35.28.91.28.21,0,.35-.07.35-.28a31.23,31.23,0,0,0-.35-4.68c-.28-.07-.77-.21-1.53-.35a7.56,7.56,0,0,0-1.75-.35,9.4,9.4,0,0,0-1.47-.07,6.68,6.68,0,0,0-4.33,1.54,4.78,4.78,0,0,0-1.89,3.84,2.52,2.52,0,0,0,.14,1.61m15.73,9.16a11.91,11.91,0,0,1-.21,2.51c-.07.14-.35.28-.84.49a4.85,4.85,0,0,1-1.12.21c-.07,0-.14.21-.14.56a.59.59,0,0,0,.14.42c.35,0,.77-.07,1.26-.07s1.05-.07,1.47-.07h1.25l3.85.21a.89.89,0,0,0,.07-.42c0-.35-.07-.56-.14-.56a4.45,4.45,0,0,1-1-.21q-.74-.21-.84-.42a9.78,9.78,0,0,1-.28-2.72V4.68A13.08,13.08,0,0,1,196.92,2c.07-.14.35-.28.91-.49A5.59,5.59,0,0,1,199,1.33c.07,0,.14-.14.14-.49A1.37,1.37,0,0,0,199,.35c-2.45.14-3.71.21-3.92.21-.55,0-1.32,0-2.37-.07s-1.61-.07-1.68-.07S191,.63,191,1s.07.49.14.49a4.85,4.85,0,0,1,1.12.21c.49.14.77.28.84.49a10.34,10.34,0,0,1,.21,2.51Zm9.85-16A9.44,9.44,0,0,1,201.05,0l-.56,4.61a1.13,1.13,0,0,0,.77.21c.21,0,.28-.07.28-.21a4.73,4.73,0,0,1,1.11-2.23,3.22,3.22,0,0,1,2.17-.56c1.75,0,2.73.14,2.87.49A7.52,7.52,0,0,1,208,5.24v11a11,11,0,0,1-.21,2.51c-.07.14-.35.28-.84.49a4.85,4.85,0,0,1-1.12.21c-.07,0-.14.21-.14.56a.82.82,0,0,0,.14.49c.21,0,.84-.07,1.75-.14s1.74-.07,2.23-.07H211c.42,0,.91.07,1.4.07s.91.07,1.19.07a1,1,0,0,0,.07-.49c0-.35-.07-.56-.14-.56a4.45,4.45,0,0,1-1.05-.21c-.56-.14-.77-.28-.84-.42a9.25,9.25,0,0,1-.28-2.65V5.24a9.72,9.72,0,0,1,.28-2.86c.07-.35,1.05-.49,2.94-.49a3.46,3.46,0,0,1,2.16.56,4.17,4.17,0,0,1,1.12,2.23.36.36,0,0,0,.28.14,1.22,1.22,0,0,0,.84-.21L218.52,0a9.59,9.59,0,0,1-2.09.28c-.84,0-2,.07-3.29.14s-2.52.07-3.36.07-1.95,0-3.35-.07S204,.35,203.14.28m24.68,10.77a1.78,1.78,0,0,1,.21.55v4.48a12,12,0,0,1-.21,2.65,1.42,1.42,0,0,1-.84.49,4.85,4.85,0,0,1-1.12.21c-.07,0-.07.14-.07.49a.82.82,0,0,0,.14.49c.21,0,.84-.07,1.75-.14s1.68-.07,2.24-.07h1.26c.41,0,.9.07,1.39.07s.91.07,1.12.07a1,1,0,0,0,.07-.49c0-.35-.07-.49-.14-.49a3.76,3.76,0,0,1-1.05-.28,1.48,1.48,0,0,1-.84-.48,13.42,13.42,0,0,1-.21-2.73V11.12a22.52,22.52,0,0,1,2.31-4.06c1.54-2.45,2.59-4.12,3.15-5a2.16,2.16,0,0,1,1.19-.7,3.66,3.66,0,0,1,1.25-.28c.07,0,.14-.14.14-.49a1.19,1.19,0,0,0-.07-.49c-.21,0-.56.07-.9.07s-.77.07-1.12.07h-1.26c-.42,0-1.61-.07-3.64-.21-.07.07-.07.28-.07.56s.07.42.14.42a2.9,2.9,0,0,1,1.47.28c.35.14.56.35.56.56a8.33,8.33,0,0,1-1.19,2.58q-1.26,2.1-2.51,4a.17.17,0,0,1-.28.07l-3.5-5.59a1.7,1.7,0,0,1-.28-.77q0-.42.63-.63a3.48,3.48,0,0,1,1.12-.21c.07,0,.07-.14.14-.42s0-.49-.07-.56q-3.67.21-4.2.21c-2.16,0-3.49,0-4,.07-.07.07-.07.21-.07.42s.07.28.14.28a5.17,5.17,0,0,1,.84.14,4.12,4.12,0,0,1,.91.35A5.65,5.65,0,0,1,224,3.92m35.72-.84a8.41,8.41,0,0,1,2.09,3.49,14.59,14.59,0,0,1,.63,4.41,11.41,11.41,0,0,1-1.4,5.73,4.34,4.34,0,0,1-4,2.44,4.89,4.89,0,0,1-3.57-1.46,8.43,8.43,0,0,1-2.09-3.57,14.77,14.77,0,0,1-.63-4.33,11.24,11.24,0,0,1,1.4-5.74,4.3,4.3,0,0,1,4-2.37,4.64,4.64,0,0,1,3.57,1.4m-3.22,17.61a9,9,0,0,0,6.85-3,10.26,10.26,0,0,0,2.87-7.27,10.22,10.22,0,0,0-2.87-7.27,9.3,9.3,0,0,0-13.7,0,10.22,10.22,0,0,0-2.87,7.27,10.26,10.26,0,0,0,2.87,7.27,9,9,0,0,0,6.85,3m19.36-.21c.07-.07.07-.21.07-.49s-.07-.49-.14-.49a5.38,5.38,0,0,1-1.32-.28c-.63-.21-1-.35-1.12-.56a7.34,7.34,0,0,1-.35-2.51V11.39c0-.13.7-.2,2.17-.2a10.26,10.26,0,0,1,2.79.2,1,1,0,0,1,.28.21l.21.42a8.54,8.54,0,0,1,.35,1.19c.07.14.21.21.49.21a.9.9,0,0,0,.56-.14V7.55a.9.9,0,0,0-.56-.14c-.28,0-.49.07-.49.21s-.14.49-.21.77c-.14.63-.28,1-.49,1a9.65,9.65,0,0,1-2.1.14h-1.67c-.91,0-1.33-.07-1.33-.21V4.61a18.24,18.24,0,0,1,.14-2.44q.11-.42,2.31-.42H277A3.91,3.91,0,0,1,281,4.47a.42.42,0,0,0,.42.21,1,1,0,0,0,.63-.14c0-.07-.14-.69-.42-1.74s-.42-2-.49-2.52c-1,0-2.73.07-5,.14s-3.84.14-4.82.07c-1.33,0-2.66-.07-4-.14a.9.9,0,0,0-.14.56c0,.28.07.49.14.49a4.59,4.59,0,0,1,1.18.21c.49.14.77.35.84.56a9.58,9.58,0,0,1,.21,2.51v11.4a11.81,11.81,0,0,1-.21,2.79c-.07.21-.35.35-.91.49a4.7,4.7,0,0,1-1.11.21c-.07,0-.07.14-.07.49s0,.42.07.49H268c.34-.07.9-.07,1.6-.14s1.33-.07,2-.07a37.75,37.75,0,0,1,4.33.14"/><path class="cls-1" d="M0,0V11.81c0,3.92,0,6,.14,10.7C1.82,42.57,15,52.5,23,56.69,31,52.5,44.11,42.5,45.86,22.51c.14-4.75.14-6.85.14-10.7V0Z"/><path class="cls-2" d="M44.67,22.51c.14-4.54.14-6.57.14-10.35v-11H1.12v11c0,3.78,0,5.81.14,10.35C2.87,41.59,15.31,51.1,22.93,55.22c7.69-4.12,20.13-13.63,21.74-32.71"/><path class="cls-3" d="M5.8,38.45A42.06,42.06,0,0,0,22.93,55.23a44.75,44.75,0,0,0,6.92-4.55A40.51,40.51,0,0,0,40.13,38.45a14.91,14.91,0,0,1-7.34-1.05c-4.48-1.89-7.34-1.82-9.86.14-2.52-2-5.38-2-9.86-.14A16.41,16.41,0,0,1,5.8,38.45m20.13,5.24a1.4,1.4,0,0,1,.21-1.89c.84-.7,1.26.07,1.75-.63-.49-.07-.63-.62-.77-1s-.84-.63-1.47-.21a1.43,1.43,0,0,1,1.75-.77c1,.35.56,1.12,1.47,1.19-.21-.49.21-.91.42-1.19s.07-1-.56-1.4a1.46,1.46,0,0,1,1.54,1.12c.14,1.05-.7,1.05-.35,1.88.28-.41.91-.27,1.26-.2s.91-.42.91-1.19a1.38,1.38,0,0,1-.21,1.88c-.84.7-1.26-.07-1.75.63.49.07.63.63.77,1s.84.63,1.47.21a1.43,1.43,0,0,1-1.75.77c-1-.35-.56-1.12-1.47-1.19.21.49-.21.91-.42,1.19s-.07,1.05.56,1.4a1.46,1.46,0,0,1-1.54-1.12c-.14-1,.7-1,.35-1.89-.28.42-.91.28-1.26.21s-.91.42-.91,1.19m-4.05,5c-.49-.07-.63-.62-.77-1s-.84-.63-1.47-.21a1.43,1.43,0,0,1,1.75-.77c1,.35.56,1.12,1.47,1.19-.21-.49.21-.91.42-1.19s.07-1.05-.56-1.4a1.46,1.46,0,0,1,1.54,1.12c.14,1-.7,1-.35,1.88.35-.41.91-.27,1.26-.2s.9-.42.9-1.19a1.38,1.38,0,0,1-.21,1.88c-.83.7-1.25-.07-1.74.63.49.07.63.63.77,1s.83.63,1.46.21a1.42,1.42,0,0,1-1.74.77c-1-.35-.56-1.12-1.47-1.19.21.49-.21.91-.42,1.19s-.07,1,.56,1.4a1.46,1.46,0,0,1-1.54-1.12c-.14-1,.7-1,.35-1.89-.35.42-.91.28-1.26.21s-.91.42-.91,1.19a1.39,1.39,0,0,1,.21-1.89c.77-.63,1.19.14,1.75-.63m-6.22-7.48c-.49-.07-.63-.62-.77-1s-.84-.63-1.47-.21a1.43,1.43,0,0,1,1.75-.77c1,.35.56,1.12,1.47,1.19-.21-.49.21-.91.42-1.19s.07-1-.56-1.4A1.46,1.46,0,0,1,18,38.94c.14,1.05-.7,1.05-.35,1.88.35-.41.9-.27,1.25-.2s.91-.42.91-1.19a1.38,1.38,0,0,1-.21,1.88c-.84.7-1.26-.07-1.74.63.48.07.62.63.76,1s.84.63,1.47.21a1.43,1.43,0,0,1-1.75.77c-1-.35-.55-1.12-1.46-1.19.21.49-.21.91-.42,1.19s-.07,1.05.56,1.4a1.46,1.46,0,0,1-1.54-1.12c-.14-1,.7-1,.35-1.89-.28.42-.91.28-1.26.21s-.91.42-.91,1.19a1.39,1.39,0,0,1,.21-1.89c.84-.63,1.26.07,1.75-.63"/><path class="cls-3" d="M38.87,13.84a11.8,11.8,0,0,0,5.94-2V7.41c-.07-.07-.21-.07-.35-.14.21.49-.21.91-.42,1.19s-.07,1,.56,1.4a1.46,1.46,0,0,1-1.54-1.12c-.14-1,.7-1,.35-1.89-.35.42-.91.28-1.26.21s-.91.42-.91,1.19a1.39,1.39,0,0,1,.21-1.89c.84-.7,1.26.07,1.75-.63-.49-.07-.63-.63-.77-1s-.84-.63-1.47-.21a1.44,1.44,0,0,1,1.75-.76c1,.41.49,1.11,1.4,1.25-.21-.49.21-.91.42-1.18S44.6,2.8,44,2.45a1.26,1.26,0,0,1,.84.21V1.12H1.19V4.89A.52.52,0,0,0,1.54,5c-.21-.42.21-.84.42-1.11S2,2.8,1.4,2.45A1.33,1.33,0,0,1,2.87,3.57c.14,1-.7,1-.35,1.88.28-.42.9-.28,1.25-.21s.91-.42.91-1.19a1.39,1.39,0,0,1-.21,1.89c-.84.7-1.25-.07-1.74.63.49.07.62.63.76,1s.84.63,1.47.21a1.43,1.43,0,0,1-1.74.77c-1-.35-.56-1.12-1.47-1.19.21.49-.21.91-.42,1.19s-.07,1.05.56,1.4a1,1,0,0,1-.77-.14v2.09a11.75,11.75,0,0,0,5.94,2c6.08,0,6.85-2.86,11.88-2.86a6.88,6.88,0,0,1,4,1.6,6.87,6.87,0,0,1,4-1.6c5.11,0,5.87,2.86,12,2.86M14,6.57c.49.07.63.63.77,1s.84.63,1.47.21a1.43,1.43,0,0,1-1.75.77c-1-.35-.56-1.12-1.47-1.19.21.49-.21.91-.42,1.19s-.07,1.05.56,1.4A1.46,1.46,0,0,1,11.6,8.81c-.14-1.05.7-1.05.35-1.89-.28.42-.91.28-1.26.21s-.9.42-.9,1.19A1.39,1.39,0,0,1,10,6.43c.83-.7,1.25.07,1.74-.63-.49-.07-.63-.63-.77-1s-.83-.63-1.46-.21a1.43,1.43,0,0,1,1.74-.76c1.05.34.63,1,1.54,1.18-.21-.49.21-.91.42-1.18s.07-1.05-.56-1.4a1.46,1.46,0,0,1,1.54,1.12c.14,1-.7,1-.35,1.88.28-.42.91-.28,1.26-.21S16,4.82,16,4.05a1.39,1.39,0,0,1-.21,1.89c-.84.63-1.26-.07-1.82.63m10.14,0c.49.07.63.63.77,1s.83.63,1.46.21a1.42,1.42,0,0,1-1.74.77c-1-.35-.56-1.12-1.47-1.19.21.49-.21.91-.42,1.19s-.07,1.05.56,1.4a1.46,1.46,0,0,1-1.54-1.12c-.14-1.05.7-1.05.35-1.89-.28.42-.91.28-1.26.21s-.91.42-.91,1.19a1.39,1.39,0,0,1,.21-1.89c.84-.7,1.26.07,1.75-.63-.49-.07-.63-.63-.77-1s-.84-.63-1.47-.21a1.44,1.44,0,0,1,1.75-.76c1.05.34.56,1,1.47,1.18-.21-.49.21-.91.42-1.18s.07-1.05-.56-1.4a1.46,1.46,0,0,1,1.54,1.12c.14,1-.7,1-.35,1.88.28-.42.91-.28,1.26-.21s.9-.42.9-1.19a1.4,1.4,0,0,1-.21,1.89c-.83.63-1.25-.07-1.74.63m10.48,0c.49.07.63.63.77,1s.84.63,1.47.21a1.43,1.43,0,0,1-1.75.77c-1-.35-.56-1.12-1.47-1.19.21.49-.21.91-.42,1.19s-.07,1.05.56,1.4a1.45,1.45,0,0,1-1.53-1.12c-.14-1.05.69-1.05.35-1.89-.35.42-.91.28-1.26.21s-.91.42-.91,1.19a1.39,1.39,0,0,1,.21-1.89c.84-.7,1.26.07,1.75-.63-.49-.07-.63-.63-.77-1s-.84-.63-1.47-.21a1.44,1.44,0,0,1,1.75-.76c1,.34.56,1,1.46,1.18-.21-.49.21-.91.42-1.18s.07-1.05-.56-1.4a1.46,1.46,0,0,1,1.54,1.12c.14,1-.7,1-.35,1.88.35-.42.91-.28,1.26-.21s.91-.42.91-1.19a1.4,1.4,0,0,1-.21,1.89c-.84.63-1.26-.07-1.75.63"/><path class="cls-4" d="M1.19,18.59c0,1.12.07,2.38.07,4a46.19,46.19,0,0,0,1.61,8.74,12.39,12.39,0,0,0,4.47.91A12,12,0,0,0,13,30.76c3.71-2,6.36-2,9.72,0l.14.07.21-.07c3.42-2,6-2,9.72,0a11.74,11.74,0,0,0,5.66,1.47,11.26,11.26,0,0,0,4.54-1,41.24,41.24,0,0,0,1.61-8.74c.07-1.61.07-2.87.07-4a13.85,13.85,0,0,1-11.53.55c-3.85-1.39-7.07-1.74-10.35,1.05-3.29-2.79-6.57-2.44-10.35-1.05a13.44,13.44,0,0,1-11.25-.49m32.64,6.23a16.59,16.59,0,0,1,1.54-1.33l-.91-.77c-.07-.07-.07-.14-.07-.28s.07-.14.21-.14h1.12a.7.7,0,0,1,.56-.42.53.53,0,0,1,.56.42H38c.07,0,.14.07.21.14a.42.42,0,0,1-.07.28l-.91.77,1.47,1.33c.14.14,1.33,1,.77,1.88a.87.87,0,0,1-.7.49,1.32,1.32,0,0,1-1,.91.86.86,0,0,1-.63-.14,1.35,1.35,0,0,1-.49.49,1,1,0,0,1-.49.07,1,1,0,0,1-1-.56.73.73,0,0,1-.63.14,1.32,1.32,0,0,1-1-.91.85.85,0,0,1-.69-.49c-.42-.9.76-1.81.9-1.88m-13.42,0A16.59,16.59,0,0,1,22,23.49L21,22.72a.42.42,0,0,1-.07-.28c0-.07.07-.14.21-.14H22.3a.7.7,0,0,1,.56-.42.59.59,0,0,1,.56.42h1.19c.07,0,.14.07.21.14a.42.42,0,0,1-.07.28l-.91.77,1.47,1.33c.14.14,1.32,1,.76,1.88a.85.85,0,0,1-.69.49,1.32,1.32,0,0,1-1,.91.86.86,0,0,1-.63-.14,1.35,1.35,0,0,1-.49.49,1,1,0,0,1-.49.07,1,1,0,0,1-1-.56.73.73,0,0,1-.63.14,1.32,1.32,0,0,1-1-.91.87.87,0,0,1-.7-.49c-.35-.9.84-1.81.91-1.88m-13.35,0A16.59,16.59,0,0,1,8.6,23.49l-.91-.84c-.07-.07-.07-.14-.07-.28s.07-.14.21-.14H9a.7.7,0,0,1,.56-.42.53.53,0,0,1,.56.42h1.18c.07,0,.14.07.21.14s0,.21-.07.28l-.9.77L12,24.75c.14.14,1.26,1,.77,1.88a.87.87,0,0,1-.7.49,1.32,1.32,0,0,1-1,.91.86.86,0,0,1-.63-.14,1.35,1.35,0,0,1-.49.49,1,1,0,0,1-.49.07,1,1,0,0,1-1-.56.73.73,0,0,1-.63.14C7.2,28,7,27.19,7,27.19a.87.87,0,0,1-.7-.49c-.49-.9.63-1.81.77-1.88"/></svg>