<?xml version="1.0" encoding="utf-8"?>
<!-- Generator: Adobe Illustrator 20.1.0, SVG Export Plug-In . SVG Version: 6.00 Build 0)  -->
<svg version="1.1" id="Layer_1" xmlns="http://www.w3.org/2000/svg" xmlns:xlink="http://www.w3.org/1999/xlink" x="0px" y="0px"
	 viewBox="0 0 403.5 80.9" style="enable-background:new 0 0 403.5 80.9;" xml:space="preserve">
<g>
	<g>
		<path d="M400.9,75.3c-1-0.3-1.6-0.6-1.7-0.9c-0.4-1.4-0.5-3.2-0.5-5.4V46.4c0-2.3,0.2-4.1,0.5-5.3c0.1-0.3,0.7-0.6,1.7-0.9
			c1.1-0.3,1.8-0.5,2.2-0.5c0.2,0,0.2-0.3,0.2-1c0-0.3-0.1-0.6-0.2-1c-4.8,0.2-7.4,0.4-7.7,0.4c-1.1,0-2.6-0.1-4.7-0.2
			c-2-0.1-3.1-0.2-3.3-0.2c-0.1,0.1-0.1,0.4-0.1,1.1c0,0.6,0.1,0.9,0.2,0.9c0.5,0,1.2,0.1,2.2,0.5c1,0.3,1.5,0.6,1.7,0.9
			c0.3,1,0.5,2.6,0.5,5.1v9c0,0.1,0,0.2-0.1,0.2c-3.6,0.1-6.3,0.1-7.9,0.1c-1.5,0-4.3,0-8.2-0.1l-0.1-0.2v-8.8
			c0-2.3,0.2-4.1,0.5-5.3c0.1-0.3,0.7-0.6,1.7-0.9c1.1-0.3,1.8-0.5,2.2-0.5c0.2,0,0.2-0.3,0.2-1c0-0.3-0.1-0.6-0.2-1
			c-4.8,0.2-7.4,0.4-7.7,0.4c-1.1,0-2.6-0.1-4.7-0.2c-2-0.1-3.1-0.2-3.3-0.2c-0.1,0.1-0.1,0.4-0.1,1.1c0,0.6,0.1,0.9,0.2,0.9
			c0.5,0,1.2,0.1,2.2,0.5c1,0.3,1.5,0.6,1.7,0.9c0.3,1,0.5,2.6,0.5,5.1v23.2c0,2.1-0.2,3.8-0.5,5.1c-0.1,0.3-0.7,0.6-1.7,0.9
			s-1.8,0.4-2.3,0.4c-0.2,0-0.2,0.4-0.2,1.1c0,0.4,0.1,0.7,0.2,0.8c0.6,0,1.5-0.1,2.6-0.2s2-0.1,2.9-0.1s1.7-0.1,2.5-0.1
			c0.3,0,2.8,0.1,7.6,0.4c0.1-0.2,0.1-0.5,0.1-0.8c0-0.8-0.1-1.1-0.2-1.1c-0.4,0-1.1-0.2-2.1-0.5s-1.6-0.6-1.7-0.9
			c-0.4-1.4-0.5-3.2-0.5-5.4V59c0-0.1,2.8-0.2,8.3-0.3c1.5,0,4.2,0,7.9,0.1l0.1,0.2v10.4c0,2.1-0.2,3.8-0.5,5.1
			c-0.1,0.3-0.7,0.6-1.7,0.9s-1.8,0.4-2.3,0.4c-0.2,0-0.2,0.4-0.2,1.1c0,0.4,0.1,0.7,0.2,0.8c0.6,0,1.5-0.1,2.6-0.2s2-0.1,2.9-0.1
			s1.7-0.1,2.5-0.1c0.3,0,2.8,0.1,7.6,0.4c0.1-0.2,0.1-0.5,0.1-0.8c0-0.8-0.1-1.1-0.2-1.1C402.6,75.8,401.9,75.6,400.9,75.3
			 M329.7,37.7c-1,0-2.4-0.2-4.2-0.6l-1.1,9.1c0.3,0.3,0.8,0.5,1.6,0.5c0.4,0,0.6-0.1,0.6-0.4c0.6-2.2,1.4-3.6,2.3-4.4
			c0.9-0.8,2.4-1.2,4.3-1.2c3.5,0,5.4,0.3,5.7,1c0.4,0.6,0.5,2.5,0.5,5.8v21.8c0,2.2-0.2,3.9-0.5,5c-0.1,0.3-0.7,0.6-1.7,0.9
			s-1.8,0.4-2.3,0.4c-0.2,0-0.2,0.4-0.2,1.1c0,0.5,0.1,0.8,0.2,1c0.4,0,1.6-0.1,3.5-0.2s3.4-0.2,4.5-0.2c0.8,0,1.6,0,2.5,0.1
			c0.9,0,1.8,0.1,2.8,0.2s1.8,0.1,2.3,0.2c0.1-0.2,0.1-0.6,0.1-1c0-0.7-0.1-1.1-0.2-1.1c-0.4,0-1.1-0.2-2.1-0.5s-1.6-0.6-1.6-0.9
			c-0.4-1.3-0.5-3.1-0.5-5.2V47.5c0-2.6,0.2-4.5,0.5-5.7c0.2-0.7,2.1-1,5.8-1c2,0,3.4,0.4,4.3,1.2s1.7,2.3,2.2,4.5
			c0.1,0.2,0.3,0.3,0.6,0.3c0.8,0,1.3-0.1,1.6-0.4l-1.1-9.2c-1.8,0.4-3.1,0.6-4.2,0.6c-1.6,0-3.8,0.1-6.6,0.2
			c-2.7,0.1-5,0.2-6.7,0.2s-3.9,0-6.6-0.2C333.5,37.9,331.3,37.8,329.7,37.7 M280.8,37.7c-0.1,0.1-0.2,0.5-0.2,1.1s0.1,0.9,0.2,0.9
			c0.5,0,1.2,0.1,2.2,0.5c1,0.3,1.5,0.6,1.7,0.9c0.3,0.8,0.5,2.5,0.5,5.1v13.1c0,6.5,1.4,11.1,4.2,14.1c2.8,2.9,6.6,4.4,11.4,4.4
			c2.3,0,4.3-0.3,6.1-0.9c1.8-0.6,3.4-1.6,4.8-2.9s2.5-3.1,3.2-5.4c0.8-2.3,1.1-5,1.1-8.1V46.3c0-2.3,0.2-4,0.7-5
			c0.4-0.5,1.1-0.9,2.3-1.2c1.2-0.3,2-0.5,2.6-0.5c0.2,0,0.2-0.3,0.2-1c0-0.4,0-0.7-0.1-1c-0.4,0-1.4,0.1-3.1,0.2
			c-1.7,0.1-3,0.2-4,0.2c-0.7,0-3.2-0.1-7.6-0.4c-0.1,0.2-0.2,0.5-0.1,1.1c0,0.6,0.1,0.8,0.3,0.8c0.5,0,1.4,0.2,2.6,0.5
			s1.9,0.7,2.1,1.1c0.4,0.8,0.6,2.4,0.6,4.8v14.7c0,4.7-0.9,8.1-2.8,10.1s-4.3,3-7.4,3c-3.2,0-5.6-1.2-7.4-3.7s-2.7-5.8-2.7-9.9
			V46.4c0-2.3,0.2-4.1,0.5-5.3c0-0.3,0.6-0.6,1.7-0.9c1.1-0.3,1.8-0.5,2.2-0.5c0.2,0,0.2-0.3,0.2-1c0-0.3,0-0.6-0.1-1
			c-4.4,0.2-7,0.4-7.7,0.4C288.6,38.1,285.9,38,280.8,37.7 M259.9,78.2c5.3,0,9.8-2,13.6-6c3.8-4,5.7-8.8,5.7-14.4
			s-1.9-10.4-5.7-14.4c-3.8-4-8.3-6-13.6-6c-5.3,0-9.8,2-13.6,6s-5.7,8.8-5.7,14.4s1.9,10.4,5.7,14.4
			C250,76.2,254.6,78.2,259.9,78.2 M266.2,43.3c2,1.9,3.3,4.3,4.2,7c0.8,2.7,1.2,5.6,1.2,8.7c0,4.4-0.9,8.2-2.8,11.4
			c-1.9,3.2-4.5,4.8-7.9,4.8c-2.8,0-5.1-1-7.1-3s-3.4-4.3-4.2-7.1c-0.8-2.7-1.2-5.6-1.2-8.6c0-4.5,0.9-8.3,2.7-11.4
			c1.8-3.1,4.5-4.7,7.9-4.7C261.8,40.4,264.2,41.4,266.2,43.3 M193.5,69.6c-0.1,2-0.3,3.3-0.7,4c-0.2,0.6-1,1.2-2.3,1.6
			s-2.4,0.6-3,0.6c-0.2,0-0.2,0.3-0.2,1c0,0.5,0.1,0.8,0.2,1c0.4,0,1.5-0.1,3.3-0.2s3.2-0.2,4.3-0.2c0.2,0,2.8,0.1,7.6,0.4
			c0.1-0.2,0.1-0.5,0.1-0.9c0-0.7-0.1-1.1-0.2-1.1c-0.5,0-1.4-0.2-2.8-0.6c-1.4-0.4-2.2-0.8-2.4-1.3c-0.1-0.4-0.2-1-0.2-1.9
			c0.4-7.9,0.7-16.9,1-26.8l13.5,32.4c0.2,0.1,0.4,0.1,0.6,0.1c0.8,0,1.6-0.8,2.3-2.3l11.5-28c0.1-0.2,0.2-0.4,0.3-0.4
			c0.3,0,0.6,1.2,0.7,3.7l0.6,18.3v3.4c0,0.9-0.2,1.6-0.6,2.1c-0.3,0.3-0.8,0.6-1.7,0.9c-0.8,0.3-1.5,0.4-1.9,0.4
			c-0.2,0-0.2,0.4-0.2,1.1c0,0.4,0.1,0.7,0.2,0.9c0.6,0,1.5-0.1,2.6-0.2s2-0.1,2.9-0.1s1.7-0.1,2.5-0.1c0.1,0,2.6,0.1,7.4,0.4
			c0.1-0.2,0.1-0.5,0.1-0.9c0-0.7-0.1-1.1-0.2-1.1c-0.4,0-1.1-0.2-2-0.5c-1-0.3-1.5-0.6-1.7-1c-0.6-1.5-0.9-3.4-1-5.5
			c-0.4-13-0.7-21.3-0.8-24.9c-0.1-1.7,0.2-2.8,0.8-3.2c0.9-0.6,1.9-1,2.9-1h0.1c0.2,0,0.2-0.3,0.2-1c0-0.5-0.1-0.8-0.2-1
			c-3.2,0.2-5.6,0.3-7.2,0.3c-2.1,0-3.7-0.1-4.9-0.2l-2.2,7c-2.1,5.5-4.9,12.4-8.4,20.9c0,0.1-0.1,0.2-0.2,0.2c-0.1,0-0.2,0-0.2-0.1
			c-1.1-2.8-2.6-6.4-4.5-10.7c-1.9-4.4-3.4-8-4.7-11.1c-1.3-3-2.1-5.1-2.5-6.2c-3.7,0.2-5.7,0.4-5.9,0.4c-1,0-2.3,0-3.8-0.2
			c-1.5-0.1-2.5-0.2-3.1-0.2c-0.2,0.2-0.2,0.5-0.2,0.9c0,0.7,0.1,1,0.2,1c0.5,0,1.4,0.1,2.6,0.4c1.2,0.3,1.9,0.6,2,0.9
			c0.1,0.4,0.2,0.9,0.2,1.7c0,0.7-0.1,2.5-0.2,5.5 M162.7,59.1c0.3,0.6,0.4,1,0.4,1.2v8.9c0,2.4-0.2,4.1-0.5,5.3
			c-0.1,0.3-0.7,0.6-1.7,1s-1.7,0.5-2.2,0.5c-0.1,0-0.2,0.3-0.2,1c0,0.5,0.1,0.8,0.2,1c0.4,0,1.6-0.1,3.5-0.2s3.3-0.2,4.4-0.2
			c0.8,0,1.6,0,2.5,0.1c0.8,0,1.8,0.1,2.8,0.2s1.8,0.1,2.3,0.2c0.1-0.2,0.1-0.6,0.1-1c0-0.6-0.1-1-0.2-1c-0.3,0-1-0.2-2-0.5
			s-1.6-0.7-1.7-0.9c-0.3-1.2-0.5-3-0.5-5.4v-9.4c0-0.5,1.5-3.2,4.5-8.1s5.1-8.2,6.3-9.9c0.5-0.6,1.3-1.1,2.3-1.4
			c1.1-0.4,1.9-0.5,2.5-0.5c0.2,0,0.2-0.3,0.2-1c0-0.3,0-0.6-0.1-1c-0.4,0-1.1,0.1-1.8,0.1c-0.8,0.1-1.5,0.1-2.3,0.2
			c-0.7,0-1.6,0.1-2.5,0.1c-0.8,0-3.2-0.1-7.2-0.4c-0.1,0.2-0.2,0.5-0.2,1.1s0.1,0.8,0.2,0.8c1.2,0,2.2,0.2,2.9,0.5s1.1,0.7,1.1,1.2
			c0,0.7-0.8,2.4-2.4,5.2c-1.6,2.7-3.3,5.4-5,7.9c-0.2,0.3-0.4,0.3-0.6,0.1l-6.4-11.7c-0.4-0.7-0.5-1.2-0.5-1.6c0-0.6,0.4-1,1.2-1.3
			s1.5-0.4,2.2-0.4c0.1,0,0.2-0.3,0.2-0.8c0-0.6,0-0.9-0.1-1.1c-4.8,0.2-7.6,0.4-8.3,0.4c-4.3,0-7,0-7.9,0.1
			c-0.1,0.2-0.1,0.4-0.1,0.8c0,0.4,0.1,0.6,0.2,0.6c0.4,0,0.9,0.1,1.7,0.3s1.4,0.5,1.8,0.8c0.9,0.6,2,2,3.1,4.2 M131.6,41.1
			c0.1-0.3,0.7-0.6,1.7-0.9c1.1-0.3,1.8-0.5,2.2-0.5c0.2,0,0.2-0.3,0.2-1c0-0.3-0.1-0.6-0.2-1c-4.8,0.2-7.4,0.4-7.7,0.4
			c-1.1,0-2.6-0.1-4.7-0.2c-2-0.1-3.1-0.2-3.3-0.2c-0.1,0.1-0.1,0.4-0.1,1.1c0,0.6,0.1,0.9,0.2,0.9c0.5,0,1.2,0.1,2.2,0.5
			c1,0.3,1.5,0.6,1.7,0.9c0.3,1,0.5,2.7,0.5,5.1V69c0,2.8-0.1,4.6-0.4,5.5c-0.2,0.4-0.7,0.7-1.7,0.9c-1,0.3-1.8,0.4-2.3,0.4
			c-0.1,0-0.2,0.3-0.2,1c0,0.5,0.1,0.8,0.2,1l8-0.2c2-0.1,5.6-0.1,10.6,0.1c5,0.1,8.4,0.2,10,0.2c0.1-0.6,0.3-1.4,0.5-2.3
			c0.3-1,0.5-1.8,0.8-2.4c0.2-0.7,0.6-1.6,1.1-2.9s0.8-2.1,0.9-2.5c-0.2-0.2-0.8-0.4-1.7-0.4c-0.5,0-0.8,0.1-0.8,0.4
			c-0.4,1.4-1.1,2.6-1.9,3.7c-0.8,1.1-1.5,1.8-2.2,2.1c-1.6,0.8-4,1.3-7.2,1.3h-2.2c-2.5,0-3.9-0.3-4.1-0.8
			c-0.4-1.2-0.5-2.8-0.5-4.8V46.4C131.1,44.1,131.3,42.4,131.6,41.1 M89,37.8c-0.2,0.1-0.2,0.5-0.2,1.1s0.1,0.9,0.2,0.9
			c0.5,0,1.3,0.2,2.3,0.5c1.1,0.3,1.7,0.7,1.8,1c0.2,1,0.4,2.6,0.4,4.9V69c0,2.9-0.1,4.8-0.4,5.5c-0.2,0.4-0.8,0.7-1.8,0.9
			c-1,0.3-1.8,0.4-2.3,0.4c-0.1,0-0.2,0.3-0.2,1c0,0.6,0.1,0.9,0.2,1.1l1.2-0.1c0.8,0,1.9-0.1,3.2-0.2s2.6-0.1,3.6-0.1
			c1.3,0,4.1,0.1,8.5,0.4c0.1-0.2,0.1-0.6,0.1-1c0-0.7-0.1-1-0.2-1c-0.6,0-1.5-0.2-2.7-0.5s-1.9-0.7-2-1.2c-0.3-1-0.5-2.7-0.5-5.1
			V47.5c0-3.9,0.2-6,0.7-6.3c0.6-0.3,1.8-0.4,3.5-0.4c2.2,0,3.9,0.8,5,2.3c1.1,1.6,1.6,3.7,1.6,6.4c0,2.4-0.6,4.4-1.7,6
			s-2.6,2.4-4.6,2.4c-1.3,0-2.4-0.2-3.4-0.6c-0.1,0-0.1,0.1-0.2,0.4c0,0.3,0,0.6,0,0.9c0.1,0.3,0.1,0.5,0.2,0.6
			c0.3,0.4,0.9,0.8,1.7,1.1c0.8,0.3,1.7,0.5,2.5,0.5c2.5,0,4.7-0.6,6.7-1.9s3.5-2.8,4.5-4.6s1.5-3.7,1.5-5.5c0-1.6-0.3-3-0.9-4.3
			s-1.3-2.3-2.2-3.2c-0.9-0.8-1.9-1.5-3.1-2.1s-2.4-1-3.6-1.2s-2.4-0.3-3.6-0.3s-2.6,0-4.1,0.1s-2.9,0.1-4,0.1
			C95.9,38,93.2,37.9,89,37.8"/>
		<path d="M394.6,29.3c0.1-0.1,0.1-0.3,0.1-0.7c0-0.5-0.1-0.7-0.2-0.7c-0.3,0-0.9-0.1-1.9-0.4c-0.9-0.3-1.4-0.5-1.6-0.8
			c-0.3-0.8-0.5-2-0.5-3.6v-6.8c0-0.2,1-0.3,3.1-0.3c2.3,0,3.6,0.1,4,0.3c0.2,0.1,0.3,0.2,0.4,0.3c0,0,0.1,0.2,0.3,0.6
			c0.2,0.4,0.3,1,0.5,1.7c0.1,0.2,0.3,0.3,0.7,0.3c0.4,0,0.7-0.1,0.8-0.2v-8.2c-0.1-0.1-0.4-0.2-0.8-0.2s-0.7,0.1-0.7,0.3
			c-0.1,0.3-0.2,0.7-0.3,1.1c-0.2,0.9-0.4,1.4-0.7,1.5c-0.3,0.1-1.3,0.2-3,0.2h-0.2h-2.2c-1.3,0-1.9-0.1-1.9-0.3V6.6
			c0-1.6,0.1-2.8,0.2-3.5c0.1-0.4,1.2-0.6,3.3-0.6h2.3c2.7,0,4.6,1.3,5.6,3.9c0.1,0.2,0.3,0.3,0.6,0.3c0.5,0,0.8-0.1,0.9-0.2
			c0-0.1-0.2-1-0.6-2.5c-0.3-1.5-0.6-2.8-0.7-3.6c-1.5,0-3.9,0.1-7.1,0.2s-5.5,0.2-6.9,0.1c-1.9,0-3.8-0.1-5.7-0.2
			c-0.1,0.1-0.2,0.4-0.2,0.8s0.1,0.7,0.2,0.7c0.4,0,1,0.1,1.7,0.3s1.1,0.5,1.2,0.8c0.2,0.6,0.3,1.8,0.3,3.6V23c0,2-0.1,3.3-0.3,4
			c-0.1,0.3-0.5,0.5-1.3,0.7c-0.7,0.2-1.3,0.3-1.7,0.3c-0.1,0-0.1,0.2-0.1,0.7c0,0.4,0,0.6,0.1,0.7h0.9c0.5-0.1,1.3-0.1,2.3-0.2
			c1,0,1.9-0.1,2.8-0.1C389.1,29,391.1,29.1,394.6,29.3 M366.9,29.6c3.8,0,7.1-1.4,9.8-4.3c2.7-2.9,4.1-6.3,4.1-10.4
			s-1.4-7.5-4.1-10.4s-6-4.3-9.8-4.3s-7.1,1.4-9.8,4.3c-2.7,2.9-4.1,6.3-4.1,10.4s1.4,7.5,4.1,10.4
			C359.8,28.2,363.1,29.6,366.9,29.6 M371.5,4.4c1.4,1.4,2.4,3.1,3,5s0.9,4,0.9,6.3c0,3.2-0.7,5.9-2,8.2s-3.2,3.5-5.7,3.5
			c-2,0-3.7-0.7-5.1-2.1s-2.4-3.1-3-5.1s-0.9-4-0.9-6.2c0-3.2,0.7-6,2-8.2c1.3-2.3,3.2-3.4,5.7-3.4C368.3,2.3,370.1,3,371.5,4.4
			 M325.9,15.8c0.2,0.4,0.3,0.7,0.3,0.8V23c0,1.7-0.1,3-0.3,3.8c-0.1,0.2-0.5,0.5-1.2,0.7s-1.3,0.3-1.6,0.3c-0.1,0-0.1,0.2-0.1,0.7
			c0,0.3,0.1,0.6,0.2,0.7c0.3,0,1.2-0.1,2.5-0.2s2.4-0.1,3.2-0.1c0.6,0,1.2,0,1.8,0c0.6,0,1.3,0.1,2,0.1s1.3,0.1,1.6,0.1
			c0.1-0.2,0.1-0.4,0.1-0.7c0-0.5-0.1-0.7-0.2-0.7c-0.2,0-0.7-0.1-1.5-0.4c-0.7-0.2-1.1-0.5-1.2-0.7c-0.2-0.9-0.3-2.2-0.3-3.9v-6.8
			c0-0.4,1.1-2.3,3.3-5.8c2.2-3.5,3.7-5.9,4.5-7.1c0.3-0.4,0.9-0.8,1.7-1c0.8-0.3,1.4-0.4,1.8-0.4c0.1,0,0.2-0.2,0.2-0.7
			c0-0.2,0-0.5-0.1-0.7c-0.3,0-0.8,0.1-1.3,0.1c-0.6,0-1.1,0.1-1.6,0.1s-1.1,0-1.8,0c-0.6,0-2.3-0.1-5.2-0.3
			c-0.1,0.1-0.1,0.4-0.1,0.8s0.1,0.6,0.2,0.6c0.9,0,1.6,0.1,2.1,0.4c0.5,0.2,0.8,0.5,0.8,0.8c0,0.5-0.6,1.8-1.7,3.7
			c-1.2,2-2.4,3.9-3.6,5.7c-0.1,0.2-0.3,0.2-0.4,0.1l-5-8c-0.3-0.5-0.4-0.9-0.4-1.1c0-0.4,0.3-0.7,0.9-0.9s1.1-0.3,1.6-0.3
			c0.1,0,0.1-0.2,0.2-0.6c0-0.4,0-0.7-0.1-0.8c-3.5,0.2-5.5,0.3-6,0.3c-3.1,0-5,0-5.7,0.1c-0.1,0.1-0.1,0.3-0.1,0.6s0.1,0.4,0.2,0.4
			c0.3,0,0.7,0.1,1.2,0.2c0.6,0.2,1,0.3,1.3,0.5c0.7,0.4,1.4,1.4,2.3,3 M290.6,0.4c-0.7,0-1.7-0.1-3-0.4l-0.8,6.6
			c0.2,0.2,0.6,0.3,1.1,0.3c0.3,0,0.4-0.1,0.4-0.3c0.4-1.6,1-2.6,1.6-3.2c0.7-0.6,1.7-0.8,3.1-0.8c2.5,0,3.9,0.2,4.1,0.7
			c0.3,0.4,0.4,1.8,0.4,4.2v15.7c0,1.6-0.1,2.8-0.3,3.6c-0.1,0.2-0.5,0.4-1.2,0.7c-0.7,0.2-1.3,0.3-1.6,0.3c-0.1,0-0.2,0.3-0.2,0.8
			c0,0.3,0.1,0.6,0.2,0.7c0.3,0,1.2-0.1,2.5-0.2c1.4-0.1,2.5-0.1,3.2-0.1c0.6,0,1.2,0,1.8,0c0.6,0,1.3,0.1,2,0.1s1.3,0.1,1.7,0.1
			c0.1-0.2,0.1-0.4,0.1-0.7c0-0.5-0.1-0.8-0.2-0.8c-0.3,0-0.8-0.1-1.5-0.3c-0.8-0.2-1.1-0.4-1.2-0.6c-0.3-1-0.4-2.2-0.4-3.8V7.5
			c0-1.9,0.1-3.2,0.4-4.1c0.1-0.5,1.5-0.7,4.2-0.7c1.4,0,2.5,0.3,3.1,0.8c0.7,0.6,1.2,1.6,1.6,3.2c0.1,0.1,0.2,0.2,0.4,0.2
			c0.6,0,1-0.1,1.2-0.3L312.6,0c-1.3,0.3-2.3,0.4-3,0.4c-1.2,0-2.8,0.1-4.7,0.2c-2,0.1-3.6,0.1-4.8,0.1c-1.2,0-2.8,0-4.8-0.1
			C293.3,0.5,291.8,0.5,290.6,0.4 M276.5,23.3c0,1.5-0.1,2.7-0.3,3.6c-0.1,0.2-0.5,0.4-1.2,0.7c-0.7,0.2-1.3,0.3-1.6,0.3
			c-0.1,0-0.2,0.3-0.2,0.8c0,0.3,0.1,0.5,0.2,0.6c0.5,0,1.1-0.1,1.8-0.1c0.8,0,1.5-0.1,2.1-0.1s1.2,0,1.8,0c0.2,0,2,0.1,5.5,0.3
			c0.1-0.2,0.1-0.4,0.1-0.6c0-0.5-0.1-0.8-0.2-0.8c-0.3,0-0.8-0.1-1.5-0.3c-0.7-0.2-1.1-0.4-1.2-0.6c-0.3-1-0.4-2.3-0.4-3.9V6.7
			c0-1.6,0.1-2.9,0.3-3.8c0.1-0.2,0.5-0.4,1.3-0.7c0.8-0.2,1.3-0.3,1.6-0.3c0.1,0,0.2-0.2,0.2-0.7c0-0.2,0-0.4-0.1-0.7
			c-3.5,0.2-5.3,0.3-5.6,0.3c-0.8,0-1.9,0-3.4-0.1s-2.3-0.1-2.4-0.1c-0.1,0.1-0.1,0.3-0.1,0.8c0,0.4,0.1,0.7,0.2,0.7
			c0.3,0,0.9,0.1,1.6,0.3s1.1,0.4,1.2,0.7c0.2,0.7,0.3,1.9,0.3,3.6L276.5,23.3L276.5,23.3z M254,10.2c0.3,0.7,0.6,1.3,0.9,1.8
			c0.3,0.5,0.9,1,1.5,1.6c0.7,0.6,1.2,1,1.7,1.3c0.4,0.3,1.1,0.7,1.9,1.2c0.2,0.1,0.4,0.3,0.5,0.3c0.3,0.1,0.7,0.4,1.3,0.8
			c0.6,0.4,1.1,0.6,1.4,0.8c0.3,0.2,0.7,0.5,1.2,0.9s0.8,0.7,1.1,1c0.2,0.3,0.5,0.7,0.7,1.2s0.3,0.9,0.3,1.4c0,1.6-0.4,2.8-1.3,3.6
			c-0.9,0.8-2,1.2-3.4,1.2c-1.1,0-2-0.2-2.9-0.7c-0.9-0.4-1.5-1-2-1.7s-0.9-1.4-1.2-2s-0.5-1.2-0.6-1.7c-0.1-0.2-0.5-0.3-1.3-0.3
			c-0.4,0-0.7,0.1-0.7,0.3c0,0.5,0.1,1.5,0.3,3.1s0.5,2.9,0.7,3.9c3.6,0.8,6.3,1.2,8,1.2c2.5,0,4.6-0.8,6.5-2.3s2.8-3.4,2.8-5.7
			c0-0.8-0.1-1.6-0.3-2.3c-0.2-0.7-0.5-1.3-0.8-1.8s-0.7-1-1.3-1.5c-0.6-0.5-1.1-0.9-1.4-1.1c-0.3-0.2-0.9-0.6-1.7-1
			c-0.8-0.5-1.3-0.8-1.5-0.9c-0.1-0.1-0.6-0.3-1.2-0.7c-0.7-0.4-1.1-0.7-1.3-0.8c-0.2-0.1-0.5-0.4-1.1-0.8c-0.5-0.4-0.9-0.7-1.1-0.9
			S259.3,9,259,8.7c-0.3-0.4-0.5-0.8-0.6-1.2c-0.1-0.4-0.2-0.8-0.2-1.2c0-1.3,0.4-2.3,1.1-3c0.7-0.8,1.7-1.1,3.1-1.1
			c1.5,0,2.8,0.6,3.9,1.9s1.7,2.6,1.9,3.9c0.1,0.3,0.5,0.4,1.3,0.4c0.3,0,0.5-0.1,0.5-0.4c0-2.5-0.2-4.7-0.5-6.7
			c-0.4-0.1-1.1-0.3-2.2-0.5c-1.1-0.3-1.9-0.5-2.5-0.5c-0.6-0.1-1.3-0.1-2.1-0.1c-2.3,0-4.3,0.7-6.2,2.2c-1.8,1.5-2.7,3.3-2.7,5.5
			C253.6,8.7,253.7,9.5,254,10.2 M232.5,0.6c-1.2,0-2.2,0-3,0s-2.7,0-5.8-0.1c-0.1,0.1-0.2,0.3-0.2,0.8s0.1,0.7,0.2,0.7
			c0.3,0,0.9,0.1,1.7,0.4c0.8,0.2,1.2,0.5,1.3,0.7c0.2,0.7,0.3,1.9,0.3,3.6V23c0,2.1-0.1,3.4-0.3,4c-0.1,0.3-0.5,0.5-1.3,0.7
			c-0.7,0.2-1.3,0.3-1.7,0.3c-0.1,0-0.1,0.2-0.1,0.7c0,0.4,0,0.7,0.1,0.8l0.9-0.1c0.6,0,1.4-0.1,2.3-0.1c1,0,1.8-0.1,2.6-0.1
			c0.9,0,3,0.1,6.2,0.3c0.1-0.2,0.1-0.4,0.1-0.7c0-0.5-0.1-0.7-0.2-0.7c-0.4,0-1-0.1-1.9-0.3c-0.9-0.2-1.4-0.5-1.5-0.8
			c-0.2-0.7-0.3-2-0.3-3.7v-6.1c0-0.5,0.2-0.7,0.7-0.7s0.9,0,1,0.1c0.2,0.1,0.5,0.2,0.7,0.5c0.2,0.2,0.5,0.6,0.9,1
			c0.3,0.5,0.7,0.9,0.9,1.3c0.3,0.4,0.7,1,1.2,1.8s1,1.5,1.4,2c0.6,1,1.2,1.8,1.8,2.4s1.3,1.3,2.2,2s1.9,1.2,3.1,1.5
			c1.2,0.3,2.5,0.5,4,0.5c0.5,0,1,0,1.3-0.1c0.1-0.2,0.2-0.5,0.2-0.8s-0.1-0.5-0.2-0.7c-1,0-2.1-0.4-3.2-1.3s-2.3-1.9-3.3-3.2
			c-1.6-2-3.2-4.5-4.9-7.4c-0.1-0.2-0.1-0.3,0.2-0.4c1.4-0.6,2.7-1.6,3.7-3s1.5-2.9,1.5-4.4c0-1.1-0.2-2.1-0.7-3
			c-0.4-0.9-1-1.6-1.7-2.2c-0.7-0.5-1.5-1-2.4-1.4s-1.7-0.6-2.6-0.8c-0.8-0.2-1.6-0.2-2.4-0.2C234.8,0.5,233.7,0.5,232.5,0.6
			 M240,8.6c0,1.6-0.4,2.9-1.3,3.9c-0.9,1-1.8,1.5-2.9,1.5h-1.1c-0.9,0-1.5-0.1-2-0.3s-0.7-0.6-0.7-1.3v-5c0-2.9,0.2-4.4,0.5-4.5
			c0.5-0.2,1.3-0.3,2.5-0.3C238.3,2.7,240,4.7,240,8.6 M199.3,0.5c-0.1,0.1-0.2,0.4-0.2,0.8s0.1,0.7,0.2,0.7c0.4,0,1,0.1,1.7,0.3
			s1.1,0.5,1.2,0.8c0.2,0.6,0.3,1.8,0.3,3.6V23c0,2-0.1,3.3-0.3,4c-0.1,0.3-0.5,0.5-1.3,0.7c-0.7,0.2-1.3,0.3-1.6,0.3
			c-0.1,0-0.1,0.2-0.1,0.7c0,0.4,0,0.6,0.1,0.7l5.8-0.2c1.5-0.1,4,0,7.7,0c3.6,0.1,6,0.1,7.2,0.1c0.1-0.4,0.2-1,0.4-1.7
			s0.4-1.3,0.6-1.8c0.2-0.5,0.4-1.2,0.8-2.1c0.3-0.9,0.5-1.5,0.6-1.8c-0.2-0.2-0.6-0.3-1.2-0.3c-0.4,0-0.6,0.1-0.6,0.3
			c-0.3,1-0.8,1.9-1.3,2.6c-0.6,0.8-1.1,1.3-1.6,1.5c-1.2,0.6-2.9,0.9-5.2,0.9h-1.6c-1.8,0-2.8-0.2-3-0.6c-0.3-0.8-0.4-1.9-0.4-3.5
			v-6.7c0-0.2,1-0.3,3.1-0.3c2.3,0,3.6,0.1,4,0.3c0.2,0.1,0.3,0.2,0.4,0.3s0.1,0.2,0.3,0.6s0.3,1,0.5,1.7c0.1,0.2,0.3,0.3,0.7,0.3
			s0.7-0.1,0.8-0.2v-8.2c-0.1-0.1-0.4-0.2-0.8-0.2c-0.4,0-0.7,0.1-0.7,0.3c-0.1,0.3-0.2,0.7-0.3,1.1c-0.2,0.9-0.4,1.4-0.7,1.5
			s-1.3,0.2-3,0.2h-0.2h-2.3c-1.3,0-1.9-0.1-1.9-0.3V6.6c0-1.5,0.1-2.7,0.3-3.5c0.1-0.4,1.2-0.6,3.3-0.6h2.3c2.7,0,4.6,1.3,5.6,3.9
			c0.1,0.2,0.3,0.3,0.6,0.3c0.5,0,0.8-0.1,0.9-0.2c0-0.1-0.2-1-0.6-2.5c-0.3-1.5-0.6-2.8-0.7-3.6c-1.6,0-4.1,0.1-7.3,0.2
			s-5.5,0.2-6.7,0.2C203.1,0.7,201.2,0.6,199.3,0.5 M179.5,12.3c-2.2-5.4-3.3-8.3-3.3-8.9c0-0.4,0.2-0.7,0.6-0.9
			c0.4-0.2,0.8-0.4,1.2-0.5c0.4-0.1,0.7-0.1,0.9-0.1c0.1,0,0.2-0.2,0.2-0.6s0-0.7-0.1-0.8c-3.6,0.2-5.5,0.3-5.9,0.3
			c-0.8,0-1.9,0-3.3-0.1c-1.4-0.1-2.2-0.1-2.4-0.1c-0.1,0.1-0.1,0.4-0.1,0.8s0.1,0.7,0.2,0.7c0.4,0,1,0.1,1.7,0.3s1.1,0.5,1.3,0.9
			c0.4,0.8,1,2.1,1.6,3.9l8.9,22.2c0.2,0.3,0.4,0.4,0.7,0.4c0.7,0,1.3-0.5,1.7-1.6l9-21.1c0.8-1.9,1.4-3.1,1.9-3.8
			c0.3-0.4,0.8-0.7,1.5-0.9c0.6-0.2,1.1-0.3,1.5-0.3c0.1,0,0.1-0.2,0.1-0.7c0-0.3,0-0.5-0.1-0.7c-0.4,0-1.1,0.1-2.1,0.2
			S193.3,1,192.6,1s-1.6,0-2.7-0.1c-1.1-0.1-1.8-0.1-2.1-0.1c-0.1,0.1-0.1,0.4-0.1,0.8s0,0.6,0.2,0.6c0.7,0,1.4,0.1,2.1,0.4
			c0.7,0.3,1,0.7,1,1.2c0,0.6-0.3,1.6-0.9,3l-6.3,15c0,0.1-0.2-0.3-0.6-1 M156.9,23.3c0,1.5-0.1,2.7-0.3,3.6
			c-0.1,0.2-0.5,0.4-1.2,0.7c-0.7,0.2-1.3,0.3-1.6,0.3c-0.1,0-0.2,0.3-0.2,0.8c0,0.3,0.1,0.5,0.2,0.6c0.5,0,1.1-0.1,1.8-0.1
			c0.8,0,1.5-0.1,2.1-0.1s1.2,0,1.8,0c0.2,0,2,0.1,5.5,0.3c0.1-0.2,0.1-0.4,0.1-0.6c0-0.5-0.1-0.8-0.2-0.8c-0.3,0-0.8-0.1-1.5-0.3
			c-0.7-0.2-1.1-0.4-1.2-0.6c-0.3-1-0.4-2.3-0.4-3.9V6.7c0-1.6,0.1-2.9,0.3-3.8c0.1-0.2,0.5-0.4,1.3-0.7c0.8-0.2,1.3-0.3,1.6-0.3
			c0.1,0,0.2-0.2,0.2-0.7c0-0.2,0-0.4-0.1-0.7c-3.5,0.2-5.3,0.3-5.6,0.3c-0.8,0-1.9,0-3.4-0.1s-2.3-0.1-2.4-0.1
			c-0.1,0.1-0.1,0.3-0.1,0.8c0,0.4,0.1,0.7,0.2,0.7c0.3,0,0.9,0.1,1.6,0.3c0.7,0.2,1.1,0.4,1.2,0.7c0.2,0.7,0.3,1.9,0.3,3.6
			L156.9,23.3L156.9,23.3z M133.2,5.1c-1.5-2-2.5-3.6-3-4.6c-1.6,0.1-3,0.2-3.9,0.2c-0.4,0-2.1-0.1-5.2-0.2
			c-0.1,0.1-0.2,0.4-0.2,0.8S121,2,121.1,2c0.4,0,1,0.1,1.9,0.3s1.4,0.4,1.5,0.6c0.3,0.6,0.5,1.6,0.5,3.2v17c0,1.8-0.1,3-0.4,3.6
			c-0.2,0.4-0.8,0.8-1.6,1c-0.8,0.2-1.5,0.3-2,0.3c-0.1,0-0.2,0.2-0.2,0.7c0,0.4,0.1,0.6,0.2,0.7c0.4,0,1.1-0.1,2.3-0.2
			c1.1-0.1,2.1-0.1,2.9-0.1c0.1,0,2,0.1,5.4,0.3c0.1-0.1,0.1-0.4,0.1-0.8s-0.1-0.6-0.2-0.6c-0.4,0-1-0.1-2-0.4
			c-0.9-0.2-1.5-0.5-1.6-0.9c-0.2-0.6-0.3-1.8-0.3-3.6V5.5l17.3,22.9c0.5,0.7,0.9,1,1.4,1s0.8-0.1,1-0.2c-0.1-3-0.2-5-0.2-6.1V6.7
			c0-1.6,0.2-2.8,0.5-3.6c0.3-0.4,0.8-0.7,1.6-0.9s1.5-0.3,1.9-0.3c0.1,0,0.2-0.2,0.2-0.7c0-0.3,0-0.6-0.1-0.7c-0.3,0-1,0.1-2.2,0.2
			s-2.2,0.2-2.9,0.2c-0.6,0-2.4-0.1-5.5-0.3c-0.1,0.1-0.1,0.4-0.1,0.8s0.1,0.6,0.2,0.6c0.5,0,1.1,0.1,1.9,0.3
			c0.8,0.2,1.3,0.5,1.5,0.8c0.3,0.8,0.4,1.9,0.4,3.5v11.8c0,0.8,0,1.4-0.1,1.8 M89.1,0.4C89,0.5,89,0.8,89,1.2s0.1,0.7,0.2,0.7
			c0.3,0,0.9,0.1,1.6,0.3s1.1,0.4,1.2,0.7c0.2,0.6,0.3,1.8,0.3,3.6V16c0,4.7,1,8,3,10.1s4.7,3.1,8.2,3.1c1.6,0,3.1-0.2,4.4-0.7
			c1.3-0.4,2.4-1.1,3.5-2.1c1-0.9,1.8-2.2,2.3-3.9c0.5-1.6,0.8-3.6,0.8-5.8V6.6c0-1.7,0.2-2.9,0.5-3.6c0.3-0.4,0.8-0.7,1.6-0.9
			s1.5-0.3,1.9-0.3c0.1,0,0.2-0.2,0.2-0.7c0-0.3,0-0.5-0.1-0.7c-0.3,0-1,0.1-2.2,0.2s-2.2,0.2-2.9,0.2c-0.5,0-2.3-0.1-5.5-0.3
			c-0.1,0.1-0.1,0.4-0.1,0.8s0.1,0.6,0.2,0.6c0.4,0,1,0.1,1.8,0.4c0.9,0.2,1.4,0.5,1.5,0.8c0.3,0.5,0.4,1.7,0.4,3.5V17
			c0,3.4-0.7,5.8-2,7.3s-3.1,2.2-5.4,2.2s-4.1-0.9-5.4-2.7c-1.3-1.8-1.9-4.2-1.9-7.1v-10c0-1.7,0.1-3,0.3-3.8c0-0.2,0.4-0.5,1.2-0.7
			c0.8-0.2,1.3-0.3,1.6-0.3c0.1,0,0.2-0.2,0.2-0.7c0-0.2,0-0.5-0.1-0.7c-3.2,0.2-5,0.3-5.6,0.3C94.7,0.7,92.8,0.6,89.1,0.4"/>
	</g>
</g>
</svg>
