<svg enable-background="new 0 0 403.5 80.9" viewBox="0 0 403.5 80.9" xmlns="http://www.w3.org/2000/svg"><path d="m22.7 58.2c-.7-.1-.9-.9-1.1-1.4-.3-.7-1.2-.8-2.1-.3.4-1 1.6-1.4 2.4-1 1.4.5.8 1.5 2 1.7-.3-.7.3-1.2.6-1.6.5-.6.1-1.4-.8-1.9 1-.1 2 .7 2.1 1.6.2 1.5-.9 1.4-.5 2.6.4-.6 1.2-.4 1.7-.3.7.1 1.3-.6 1.3-1.7.6.8.4 2.1-.3 2.6-1.1.9-1.7-.1-2.5.9.7.1.9.9 1.1 1.4.3.7 1.2.8 2.1.3-.4 1-1.6 1.4-2.4 1-1.4-.5-.8-1.5-2-1.7.3.7-.3 1.2-.6 1.6-.5.6-.1 1.4.8 1.9-1 .1-2-.7-2.1-1.6-.2-1.5.9-1.4.5-2.6-.4.6-1.2.4-1.7.3-.7-.1-1.3.6-1.3 1.7-.6-.8-.4-2.1.3-2.6 1.2-1 1.8.1 2.5-.9m8.6 10.4c-.7-.1-.9-.9-1.1-1.4-.3-.7-1.2-.8-2.1-.3.4-1 1.6-1.4 2.4-1 1.4.5.8 1.5 2 1.7-.3-.7.3-1.2.6-1.6.5-.6.1-1.4-.8-1.9 1-.1 2 .7 2.1 1.6.2 1.5-.9 1.4-.5 2.6.4-.6 1.2-.4 1.7-.3.7.1 1.3-.6 1.3-1.7.6.8.4 2.1-.3 2.6-1.1.9-1.7-.1-2.5.9.7.1.9.9 1.1 1.4.3.7 1.2.8 2.1.3-.4 1-1.6 1.4-2.4 1-1.4-.5-.8-1.5-2-1.7.3.7-.3 1.2-.6 1.6-.4.6-.1 1.4.8 1.9-1 .1-2-.7-2.1-1.6-.2-1.4.9-1.4.5-2.6-.4.6-1.2.4-1.7.3-.7-.1-1.3.6-1.3 1.7-.6-.8-.4-2.1.3-2.6 1.2-.9 1.8.1 2.5-.9m5.7-6.9c-.6-.8-.4-2.1.3-2.6 1.1-.9 1.7.1 2.5-.9-.7-.1-.9-.9-1.1-1.4-.3-.7-1.2-.8-2.1-.3.4-1 1.6-1.4 2.4-1 1.4.5.8 1.5 2 1.7-.3-.7.3-1.2.6-1.6.5-.6.1-1.4-.8-1.9 1-.1 2 .7 2.1 1.6.2 1.5-.9 1.4-.5 2.6.4-.6 1.2-.4 1.7-.3.7.1 1.3-.6 1.3-1.7.6.8.4 2.1-.3 2.6-1.1.9-1.7-.1-2.5.9.7.1.9.9 1.1 1.4.3.7 1.2.8 2.1.3-.4 1-1.6 1.4-2.4 1-1.4-.5-.8-1.5-2-1.7.3.7-.3 1.2-.6 1.6-.5.6-.1 1.4.8 1.9-1 .1-2-.7-2.1-1.6-.2-1.5.9-1.4.5-2.6-.4.6-1.2.4-1.7.3-.8-.1-1.4.6-1.3 1.7m-28-7.3c6.6 12.3 16.7 19.5 23.8 23.3 2.9-1.6 6.2-3.6 9.6-6.3 5.1-4.1 10.3-9.6 14.2-17-3.1.4-7.1-.1-10.2-1.4-6.2-2.6-10.2-2.5-13.7.2-3.5-2.7-7.5-2.8-13.7-.2-3 1.2-6.9 1.7-10 1.4m1.7-19c1-.9 2.1-1.9 2.1-1.9l-1.3-1.1c-.1-.1-.1-.2-.1-.4 0-.1.1-.2.3-.2h1.6c.1-.3.5-.6.8-.6.4 0 .7.2.8.6h1.7c.1 0 .2.1.3.2 0 .1 0 .3-.1.4l-1.2 1.1c.1.1 1.1 1 2.1 1.9.2.1 1.8 1.3 1 2.7-.4.7-1 .6-1 .6s-.2 1.1-1.3 1.3c-.5.1-.8-.2-.8-.2s-.2.4-.7.6c-.2.1-.4.1-.7.1-1 0-1.4-.8-1.4-.8s-.3.4-.8.3c-1.1-.2-1.3-1.3-1.3-1.3s-.6 0-1-.6c-.8-1.3.9-2.5 1-2.7m18.6 0c1-.9 2.1-1.9 2.1-1.9l-1.3-1.1c-.1 0-.1-.2-.1-.3s.1-.2.3-.2h1.6c.1-.3.5-.6.8-.6.4 0 .7.2.8.6h1.7c.1 0 .2.1.3.2 0 .1 0 .3-.1.4l-1.2 1.1c.1.1 1.1 1 2.1 1.9.2.1 1.8 1.3 1 2.7-.4.7-1 .6-1 .6s-.3.9-1.3 1.2c-.5.1-.8-.2-.8-.2s-.2.4-.7.6c-.2.1-.4.1-.7.1-1 0-1.4-.8-1.4-.8s-.4.4-.9.3c-1.1-.2-1.3-1.3-1.3-1.3s-.6 0-1-.6c-.7-1.3.9-2.5 1.1-2.7m18.6 0c1-.9 2.1-1.9 2.1-1.9l-1.3-1.1c-.1-.1-.1-.2-.1-.4 0-.1.1-.2.3-.2h1.6c.1-.3.5-.6.8-.6.4 0 .7.2.8.6h1.7c.1 0 .2.1.3.2 0 .1 0 .3-.1.4l-1.2 1.1c.1.1 1.1 1 2.1 1.9.2.1 1.8 1.3 1 2.7-.4.7-1 .6-1 .6s-.2 1.1-1.3 1.3c-.5.1-.8-.2-.8-.2s-.2.4-.7.6c-.2.1-.4.1-.7.1-1 0-1.4-.8-1.4-.8s-.3.3-.8.2c-1.1-.2-1.3-1.3-1.3-1.3s-.6 0-1-.6c-.8-1.2.8-2.4 1-2.6m-45.4-8.6c0 1.6.1 3.3.1 5.5.4 4.4 1.2 8.5 2.3 12.2 1.9.8 4.2 1.3 6.2 1.3 2.7 0 5.4-.7 7.9-2 5.1-2.8 8.8-2.8 13.5 0l.2.1.2-.1c4.7-2.8 8.4-2.7 13.5 0 2.5 1.3 5.2 2 7.9 2 2.2 0 4.3-.5 6.3-1.3 1.1-3.7 1.9-7.7 2.3-12.1.1-2.2.1-4 .1-5.6-5.3 2.7-10.4 2.9-16 .8-5.3-1.9-9.8-2.4-14.4 1.5-4.6-3.9-9.1-3.4-14.4-1.5-5.4 1.9-10.5 1.7-15.7-.8m46.4-16.7c.7.1.9.9 1.1 1.4.3.7 1.2.8 2.1.3-.4 1-1.6 1.4-2.4 1-1.4-.5-.8-1.5-2-1.7.3.7-.3 1.2-.6 1.6-.4.6-.1 1.4.8 1.9-1 .1-2-.7-2.1-1.6-.2-1.4.9-1.4.5-2.6-.4.6-1.2.4-1.7.3-.7-.1-1.3.6-1.3 1.7-.6-.8-.4-2.1.3-2.6 1.1-.9 1.7.1 2.5-.9-.7-.1-.9-.9-1.1-1.4-.3-.7-1.2-.8-2.1-.3.4-1 1.6-1.4 2.4-1 1.4.5.8 1.5 2 1.7-.3-.7.3-1.2.6-1.6.4-.6.1-1.5-.9-2 1-.1 2 .7 2.1 1.6.2 1.4-.9 1.4-.5 2.6.4-.6 1.2-.4 1.7-.3.7.1 1.3-.6 1.3-1.7.6.8.4 2.1-.3 2.6-1 1-1.6 0-2.4 1m-14.5 0c.7.1.9.9 1.1 1.4.3.7 1.2.8 2.1.3-.4 1-1.6 1.4-2.4 1-1.4-.5-.8-1.5-2-1.7.3.7-.3 1.2-.6 1.6-.5.6-.1 1.4.8 1.9-1 .1-2-.7-2.1-1.6-.2-1.4.9-1.4.5-2.6-.4.6-1.2.4-1.7.3-.7-.1-1.3.6-1.3 1.7-.6-.8-.4-2.1.3-2.6 1.1-.9 1.7.1 2.5-.9-.7-.1-.9-.9-1.1-1.4-.3-.7-1.2-.8-2.1-.3.4-1 1.6-1.4 2.4-1 1.4.5.8 1.5 2 1.7-.3-.7.3-1.2.6-1.6.4-.6.1-1.4-.8-1.9 1-.1 2 .7 2.1 1.6.2 1.4-.9 1.4-.5 2.6.4-.6 1.2-.4 1.7-.3.7.1 1.3-.6 1.3-1.7.6.8.4 2.1-.3 2.6-1.2.9-1.8-.1-2.5.9m-14 0c.7.1.9.9 1.1 1.4.3.7 1.2.8 2.1.3-.4 1-1.6 1.4-2.4 1-1.4-.5-.8-1.5-2-1.7.3.7-.3 1.2-.6 1.6-.5.6-.1 1.4.8 1.9-1 .1-2-.7-2.1-1.6-.2-1.4.9-1.4.5-2.6-.4.6-1.2.4-1.7.3-.7-.1-1.3.6-1.3 1.7-.6-.8-.4-2.1.3-2.6 1.1-.9 1.7.1 2.5-.9-.7-.1-.9-.9-1.1-1.4-.3-.7-1.2-.8-2.1-.3.4-1 1.6-1.4 2.4-1 1.4.5.8 1.5 2 1.7-.3-.7.3-1.2.6-1.6.4-.6.1-1.4-.8-1.9 1-.1 2 .7 2.1 1.6.2 1.4-.9 1.4-.5 2.6.4-.6 1.2-.4 1.7-.3.7.1 1.3-.6 1.3-1.7.6.8.4 2.1-.3 2.6-1.2.9-1.8-.1-2.5.9m34.5 10.1c4.4 0 8.3-2.8 8.3-2.8v-6.2c-.1-.1-.3-.1-.5-.2.3.7-.3 1.2-.6 1.6-.5.6-.1 1.4.8 1.9-1 .1-2-.7-2.1-1.6-.2-1.4.9-1.4.5-2.6-.4.6-1.2.4-1.7.3-.7-.1-1.3.6-1.3 1.7-.6-.8-.4-2.1.3-2.6 1.1-.9 1.7.1 2.5-.9-.9 0-1.1-.8-1.3-1.3-.3-.7-1.2-.8-2.1-.3.4-1 1.6-1.4 2.4-1 1.4.5.8 1.5 2 1.7-.3-.7.3-1.2.6-1.6.6-.6.3-1.5-.7-2 .4-.1.8.1 1.2.3v-2.1h-60.7v5.2c.1.1.3.2.5.2-.3-.7.3-1.2.6-1.6.4-.6.1-1.5-.8-2 1-.1 2 .7 2.1 1.6.2 1.5-.9 1.5-.5 2.6.4-.6 1.2-.4 1.7-.3.7.1 1.3-.6 1.3-1.7.6.8.4 2.1-.3 2.6-1.1 1-1.7 0-2.4 1 .7.1.9.9 1.1 1.4.3.7 1.2.8 2.1.3-.4 1-1.6 1.4-2.4 1-1.4-.5-.8-1.5-2-1.7.3.7-.3 1.2-.6 1.6-.5.6-.1 1.4.8 1.9-.4.1-.8 0-1.1-.2v3s3.9 2.8 8.3 2.8c8.4 0 9.5-4 16.5-4 3 0 5.5 2.3 5.5 2.3s2.6-2.3 5.5-2.3c6.9 0 8.1 4 16.5 4m9.7 12.1c-2.4 27.8-20.7 41.7-31.7 47.5-11-5.9-29.4-19.7-31.7-47.5-.3-6.6-.3-9.5-.2-14.9v-16.4h63.8v16.4c0 5.4 0 8.3-.2 14.9m1.1-14.9v-17.4h-65.7v17.3c0 5.6 0 8.4.2 15 2.4 28.4 20.9 42.4 32.7 48.5 11.7-6.1 30.3-20.2 32.7-48.5.1-6.5.1-9.3.1-14.9"/><path d="m400.9 75.3c-1-.3-1.6-.6-1.7-.9-.4-1.4-.5-3.2-.5-5.4v-22.6c0-2.3.2-4.1.5-5.3.1-.3.7-.6 1.7-.9 1.1-.3 1.8-.5 2.2-.5.2 0 .2-.3.2-1 0-.3-.1-.6-.2-1-4.8.2-7.4.4-7.7.4-1.1 0-2.6-.1-4.7-.2-2-.1-3.1-.2-3.3-.2-.1.1-.1.4-.1 1.1 0 .6.1.9.2.9.5 0 1.2.1 2.2.5 1 .3 1.5.6 1.7.9.3 1 .5 2.6.5 5.1v9c0 .1 0 .2-.1.2-3.6.1-6.3.1-7.9.1-1.5 0-4.3 0-8.2-.1l-.1-.2v-8.8c0-2.3.2-4.1.5-5.3.1-.3.7-.6 1.7-.9 1.1-.3 1.8-.5 2.2-.5.2 0 .2-.3.2-1 0-.3-.1-.6-.2-1-4.8.2-7.4.4-7.7.4-1.1 0-2.6-.1-4.7-.2-2-.1-3.1-.2-3.3-.2-.1.1-.1.4-.1 1.1 0 .6.1.9.2.9.5 0 1.2.1 2.2.5 1 .3 1.5.6 1.7.9.3 1 .5 2.6.5 5.1v23.2c0 2.1-.2 3.8-.5 5.1-.1.3-.7.6-1.7.9s-1.8.4-2.3.4c-.2 0-.2.4-.2 1.1 0 .4.1.7.2.8.6 0 1.5-.1 2.6-.2s2-.1 2.9-.1 1.7-.1 2.5-.1c.3 0 2.8.1 7.6.4.1-.2.1-.5.1-.8 0-.8-.1-1.1-.2-1.1-.4 0-1.1-.2-2.1-.5s-1.6-.6-1.7-.9c-.4-1.4-.5-3.2-.5-5.4v-10c0-.1 2.8-.2 8.3-.3 1.5 0 4.2 0 7.9.1l.1.2v10.4c0 2.1-.2 3.8-.5 5.1-.1.3-.7.6-1.7.9s-1.8.4-2.3.4c-.2 0-.2.4-.2 1.1 0 .4.1.7.2.8.6 0 1.5-.1 2.6-.2s2-.1 2.9-.1 1.7-.1 2.5-.1c.3 0 2.8.1 7.6.4.1-.2.1-.5.1-.8 0-.8-.1-1.1-.2-1.1-.2 0-.9-.2-1.9-.5m-71.2-37.6c-1 0-2.4-.2-4.2-.6l-1.1 9.1c.3.3.8.5 1.6.5.4 0 .6-.1.6-.4.6-2.2 1.4-3.6 2.3-4.4s2.4-1.2 4.3-1.2c3.5 0 5.4.3 5.7 1 .4.6.5 2.5.5 5.8v21.8c0 2.2-.2 3.9-.5 5-.1.3-.7.6-1.7.9s-1.8.4-2.3.4c-.2 0-.2.4-.2 1.1 0 .5.1.8.2 1 .4 0 1.6-.1 3.5-.2s3.4-.2 4.5-.2c.8 0 1.6 0 2.5.1.9 0 1.8.1 2.8.2s1.8.1 2.3.2c.1-.2.1-.6.1-1 0-.7-.1-1.1-.2-1.1-.4 0-1.1-.2-2.1-.5s-1.6-.6-1.6-.9c-.4-1.3-.5-3.1-.5-5.2v-21.6c0-2.6.2-4.5.5-5.7.2-.7 2.1-1 5.8-1 2 0 3.4.4 4.3 1.2s1.7 2.3 2.2 4.5c.1.2.3.3.6.3.8 0 1.3-.1 1.6-.4l-1.1-9.2c-1.8.4-3.1.6-4.2.6-1.6 0-3.8.1-6.6.2-2.7.1-5 .2-6.7.2s-3.9 0-6.6-.2c-2.5-.1-4.7-.2-6.3-.3m-48.9 0c-.1.1-.2.5-.2 1.1s.1.9.2.9c.5 0 1.2.1 2.2.5 1 .3 1.5.6 1.7.9.3.8.5 2.5.5 5.1v13.1c0 6.5 1.4 11.1 4.2 14.1 2.8 2.9 6.6 4.4 11.4 4.4 2.3 0 4.3-.3 6.1-.9s3.4-1.6 4.8-2.9 2.5-3.1 3.2-5.4c.8-2.3 1.1-5 1.1-8.1v-14.2c0-2.3.2-4 .7-5 .4-.5 1.1-.9 2.3-1.2s2-.5 2.6-.5c.2 0 .2-.3.2-1 0-.4 0-.7-.1-1-.4 0-1.4.1-3.1.2s-3 .2-4 .2c-.7 0-3.2-.1-7.6-.4-.1.2-.2.5-.1 1.1 0 .6.1.8.3.8.5 0 1.4.2 2.6.5s1.9.7 2.1 1.1c.4.8.6 2.4.6 4.8v14.7c0 4.7-.9 8.1-2.8 10.1s-4.3 3-7.4 3c-3.2 0-5.6-1.2-7.4-3.7s-2.7-5.8-2.7-9.9v-13.7c0-2.3.2-4.1.5-5.3 0-.3.6-.6 1.7-.9s1.8-.5 2.2-.5c.2 0 .2-.3.2-1 0-.3 0-.6-.1-1-4.4.2-7 .4-7.7.4-.4 0-3.1-.1-8.2-.4m-20.9 40.5c5.3 0 9.8-2 13.6-6s5.7-8.8 5.7-14.4-1.9-10.4-5.7-14.4-8.3-6-13.6-6-9.8 2-13.6 6-5.7 8.8-5.7 14.4 1.9 10.4 5.7 14.4c3.7 4 8.3 6 13.6 6m6.3-34.9c2 1.9 3.3 4.3 4.2 7 .8 2.7 1.2 5.6 1.2 8.7 0 4.4-.9 8.2-2.8 11.4s-4.5 4.8-7.9 4.8c-2.8 0-5.1-1-7.1-3s-3.4-4.3-4.2-7.1c-.8-2.7-1.2-5.6-1.2-8.6 0-4.5.9-8.3 2.7-11.4s4.5-4.7 7.9-4.7c2.8 0 5.2 1 7.2 2.9m-72.7 26.3c-.1 2-.3 3.3-.7 4-.2.6-1 1.2-2.3 1.6s-2.4.6-3 .6c-.2 0-.2.3-.2 1 0 .5.1.8.2 1 .4 0 1.5-.1 3.3-.2s3.2-.2 4.3-.2c.2 0 2.8.1 7.6.4.1-.2.1-.5.1-.9 0-.7-.1-1.1-.2-1.1-.5 0-1.4-.2-2.8-.6s-2.2-.8-2.4-1.3c-.1-.4-.2-1-.2-1.9.4-7.9.7-16.9 1-26.8l13.5 32.4c.2.1.4.1.6.1.8 0 1.6-.8 2.3-2.3l11.5-28c.1-.2.2-.4.3-.4.3 0 .6 1.2.7 3.7l.6 18.3v3.4c0 .9-.2 1.6-.6 2.1-.3.3-.8.6-1.7.9-.8.3-1.5.4-1.9.4-.2 0-.2.4-.2 1.1 0 .4.1.7.2.9.6 0 1.5-.1 2.6-.2s2-.1 2.9-.1 1.7-.1 2.5-.1c.1 0 2.6.1 7.4.4.1-.2.1-.5.1-.9 0-.7-.1-1.1-.2-1.1-.4 0-1.1-.2-2-.5-1-.3-1.5-.6-1.7-1-.6-1.5-.9-3.4-1-5.5-.4-13-.7-21.3-.8-24.9-.1-1.7.2-2.8.8-3.2.9-.6 1.9-1 2.9-1h.1c.2 0 .2-.3.2-1 0-.5-.1-.8-.2-1-3.2.2-5.6.3-7.2.3-2.1 0-3.7-.1-4.9-.2l-2.2 7c-2.1 5.5-4.9 12.4-8.4 20.9 0 .1-.1.2-.2.2s-.2 0-.2-.1c-1.1-2.8-2.6-6.4-4.5-10.7-1.9-4.4-3.4-8-4.7-11.1-1.3-3-2.1-5.1-2.5-6.2-3.7.2-5.7.4-5.9.4-1 0-2.3 0-3.8-.2-1.5-.1-2.5-.2-3.1-.2-.2.2-.2.5-.2.9 0 .7.1 1 .2 1 .5 0 1.4.1 2.6.4s1.9.6 2 .9c.1.4.2.9.2 1.7 0 .7-.1 2.5-.2 5.5m-31.4 10.9c.3.6.4 1 .4 1.2v8.9c0 2.4-.2 4.1-.5 5.3-.1.3-.7.6-1.7 1s-1.7.5-2.2.5c-.1 0-.2.3-.2 1 0 .5.1.8.2 1 .4 0 1.6-.1 3.5-.2s3.3-.2 4.4-.2c.8 0 1.6 0 2.5.1.8 0 1.8.1 2.8.2s1.8.1 2.3.2c.1-.2.1-.6.1-1 0-.6-.1-1-.2-1-.3 0-1-.2-2-.5s-1.6-.7-1.7-.9c-.3-1.2-.5-3-.5-5.4v-9.4c0-.5 1.5-3.2 4.5-8.1s5.1-8.2 6.3-9.9c.5-.6 1.3-1.1 2.3-1.4 1.1-.4 1.9-.5 2.5-.5.2 0 .2-.3.2-1 0-.3 0-.6-.1-1-.4 0-1.1.1-1.8.1-.8.1-1.5.1-2.3.2-.7 0-1.6.1-2.5.1-.8 0-3.2-.1-7.2-.4-.1.2-.2.5-.2 1.1s.1.8.2.8c1.2 0 2.2.2 2.9.5s1.1.7 1.1 1.2c0 .7-.8 2.4-2.4 5.2-1.6 2.7-3.3 5.4-5 7.9-.2.3-.4.3-.6.1l-6.4-11.7c-.4-.7-.5-1.2-.5-1.6 0-.6.4-1 1.2-1.3s1.5-.4 2.2-.4c.1 0 .2-.3.2-.8 0-.6 0-.9-.1-1.1-4.8.2-7.6.4-8.3.4-4.3 0-7 0-7.9.1-.1.2-.1.4-.1.8s.1.6.2.6c.4 0 .9.1 1.7.3s1.4.5 1.8.8c.9.6 2 2 3.1 4.2m-23.3-4c.1-.3.7-.6 1.7-.9 1.1-.3 1.8-.5 2.2-.5.2 0 .2-.3.2-1 0-.3-.1-.6-.2-1-4.8.2-7.4.4-7.7.4-1.1 0-2.6-.1-4.7-.2-2-.1-3.1-.2-3.3-.2-.1.1-.1.4-.1 1.1 0 .6.1.9.2.9.5 0 1.2.1 2.2.5 1 .3 1.5.6 1.7.9.3 1 .5 2.7.5 5.1v22.8c0 2.8-.1 4.6-.4 5.5-.2.4-.7.7-1.7.9-1 .3-1.8.4-2.3.4-.1 0-.2.3-.2 1 0 .5.1.8.2 1l8-.2c2-.1 5.6-.1 10.6.1 5 .1 8.4.2 10 .2.1-.6.3-1.4.5-2.3.3-1 .5-1.8.8-2.4.2-.7.6-1.6 1.1-2.9s.8-2.1.9-2.5c-.2-.2-.8-.4-1.7-.4-.5 0-.8.1-.8.4-.4 1.4-1.1 2.6-1.9 3.7s-1.5 1.8-2.2 2.1c-1.6.8-4 1.3-7.2 1.3h-2.2c-2.5 0-3.9-.3-4.1-.8-.4-1.2-.5-2.8-.5-4.8v-22.9c-.1-2.3.1-4 .4-5.3m-42.6-3.3c-.2.1-.2.5-.2 1.1s.1.9.2.9c.5 0 1.3.2 2.3.5 1.1.3 1.7.7 1.8 1 .2 1 .4 2.6.4 4.9v22.8c0 2.9-.1 4.8-.4 5.5-.2.4-.8.7-1.8.9-1 .3-1.8.4-2.3.4-.1 0-.2.3-.2 1 0 .6.1.9.2 1.1l1.2-.1c.8 0 1.9-.1 3.2-.2s2.6-.1 3.6-.1c1.3 0 4.1.1 8.5.4.1-.2.1-.6.1-1 0-.7-.1-1-.2-1-.6 0-1.5-.2-2.7-.5s-1.9-.7-2-1.2c-.3-1-.5-2.7-.5-5.1v-21.6c0-3.9.2-6 .7-6.3.6-.3 1.8-.4 3.5-.4 2.2 0 3.9.8 5 2.3 1.1 1.6 1.6 3.7 1.6 6.4 0 2.4-.6 4.4-1.7 6s-2.6 2.4-4.6 2.4c-1.3 0-2.4-.2-3.4-.6-.1 0-.1.1-.2.4v.9c.1.3.1.5.2.6.3.4.9.8 1.7 1.1s1.7.5 2.5.5c2.5 0 4.7-.6 6.7-1.9s3.5-2.8 4.5-4.6 1.5-3.7 1.5-5.5c0-1.6-.3-3-.9-4.3s-1.3-2.3-2.2-3.2c-.9-.8-1.9-1.5-3.1-2.1s-2.4-1-3.6-1.2-2.4-.3-3.6-.3-2.6 0-4.1.1c-1.2.2-2.5.2-3.7.2-1.1 0-3.8-.1-8-.2"/><path d="m394.6 29.3c.1-.1.1-.3.1-.7 0-.5-.1-.7-.2-.7-.3 0-.9-.1-1.9-.4-.9-.3-1.4-.5-1.6-.8-.3-.8-.5-2-.5-3.6v-6.8c0-.2 1-.3 3.1-.3 2.3 0 3.6.1 4 .3.2.1.3.2.4.3 0 0 .1.2.3.6s.3 1 .5 1.7c.1.2.3.3.7.3s.7-.1.8-.2v-8.2c-.1-.1-.4-.2-.8-.2s-.7.1-.7.3c-.1.3-.2.7-.3 1.1-.2.9-.4 1.4-.7 1.5s-1.3.2-3 .2h-.2-2.2c-1.3 0-1.9-.1-1.9-.3v-6.8c0-1.6.1-2.8.2-3.5.1-.4 1.2-.6 3.3-.6h2.3c2.7 0 4.6 1.3 5.6 3.9.1.2.3.3.6.3.5 0 .8-.1.9-.2 0-.1-.2-1-.6-2.5-.3-1.5-.6-2.8-.7-3.6-1.5 0-3.9.1-7.1.2s-5.5.2-6.9.1c-1.9 0-3.8-.1-5.7-.2-.1.1-.2.4-.2.8s.1.7.2.7c.4 0 1 .1 1.7.3s1.1.5 1.2.8c.2.6.3 1.8.3 3.6v16.3c0 2-.1 3.3-.3 4-.1.3-.5.5-1.3.7-.7.2-1.3.3-1.6.3-.1 0-.1.2-.1.7 0 .4 0 .6.1.7h.9c.5-.1 1.3-.1 2.3-.2 1 0 1.9-.1 2.8-.1.7-.1 2.7 0 6.2.2m-27.7.3c3.8 0 7.1-1.4 9.8-4.3s4.1-6.3 4.1-10.4-1.4-7.5-4.1-10.4-6-4.3-9.8-4.3-7.1 1.4-9.8 4.3-4.1 6.3-4.1 10.4 1.4 7.5 4.1 10.4 6 4.3 9.8 4.3m4.6-25.2c1.4 1.4 2.4 3.1 3 5s.9 4 .9 6.3c0 3.2-.7 5.9-2 8.2s-3.2 3.5-5.7 3.5c-2 0-3.7-.7-5.1-2.1s-2.4-3.1-3-5.1-.9-4-.9-6.2c0-3.2.7-6 2-8.2 1.3-2.3 3.2-3.4 5.7-3.4 1.9-.1 3.7.6 5.1 2m-45.6 11.4c.2.4.3.7.3.8v6.4c0 1.7-.1 3-.3 3.8-.1.2-.5.5-1.2.7s-1.3.3-1.6.3c-.1 0-.1.2-.1.7 0 .3.1.6.2.7.3 0 1.2-.1 2.5-.2s2.4-.1 3.2-.1h1.8c.6 0 1.3.1 2 .1s1.3.1 1.6.1c.1-.2.1-.4.1-.7 0-.5-.1-.7-.2-.7-.2 0-.7-.1-1.5-.4-.7-.2-1.1-.5-1.2-.7-.2-.9-.3-2.2-.3-3.9v-6.8c0-.4 1.1-2.3 3.3-5.8s3.7-5.9 4.5-7.1c.3-.4.9-.8 1.7-1 .8-.3 1.4-.4 1.8-.4.1 0 .2-.2.2-.7 0-.2 0-.5-.1-.7-.3 0-.8.1-1.3.1-.6 0-1.1.1-1.6.1s-1.1 0-1.8 0c-.6 0-2.3-.1-5.2-.3-.1.1-.1.4-.1.8s.1.6.2.6c.9 0 1.6.1 2.1.4.5.2.8.5.8.8 0 .5-.6 1.8-1.7 3.7-1.2 2-2.4 3.9-3.6 5.7-.1.2-.3.2-.4.1l-5-8c-.3-.5-.4-.9-.4-1.1 0-.4.3-.7.9-.9s1.1-.3 1.6-.3c.1 0 .1-.2.2-.6 0-.4 0-.7-.1-.8-3.5.2-5.5.3-6 .3-3.1 0-5 0-5.7.1-.1.1-.1.3-.1.6s.1.4.2.4c.3 0 .7.1 1.2.2.6.2 1 .3 1.3.5.7.4 1.4 1.4 2.3 3m-29.8-5.2c-.7 0-1.7-.1-3-.4l-.8 6.6c.2.2.6.3 1.1.3.3 0 .4-.1.4-.3.4-1.6 1-2.6 1.6-3.2.7-.6 1.7-.8 3.1-.8 2.5 0 3.9.2 4.1.7.3.4.4 1.8.4 4.2v15.7c0 1.6-.1 2.8-.3 3.6-.1.2-.5.4-1.2.7-.7.2-1.3.3-1.6.3-.1 0-.2.3-.2.8 0 .3.1.6.2.7.3 0 1.2-.1 2.5-.2 1.4-.1 2.5-.1 3.2-.1h1.8c.6 0 1.3.1 2 .1s1.3.1 1.7.1c.1-.2.1-.4.1-.7 0-.5-.1-.8-.2-.8-.3 0-.8-.1-1.5-.3-.8-.2-1.1-.4-1.2-.6-.3-1-.4-2.2-.4-3.8v-15.5c0-1.9.1-3.2.4-4.1.1-.5 1.5-.7 4.2-.7 1.4 0 2.5.3 3.1.8.7.6 1.2 1.6 1.6 3.2.1.1.2.2.4.2.6 0 1-.1 1.2-.3l-.7-6.6c-1.3.3-2.3.4-3 .4-1.2 0-2.8.1-4.7.2-2 .1-3.6.1-4.8.1s-2.8 0-4.8-.1-3.5-.1-4.7-.2m-14.1 22.9c0 1.5-.1 2.7-.3 3.6-.1.2-.5.4-1.2.7-.7.2-1.3.3-1.6.3-.1 0-.2.3-.2.8 0 .3.1.5.2.6.5 0 1.1-.1 1.8-.1.8 0 1.5-.1 2.1-.1h1.8c.2 0 2 .1 5.5.3.1-.2.1-.4.1-.6 0-.5-.1-.8-.2-.8-.3 0-.8-.1-1.5-.3s-1.1-.4-1.2-.6c-.3-1-.4-2.3-.4-3.9v-16.5c0-1.6.1-2.9.3-3.8.1-.2.5-.4 1.3-.7.8-.2 1.3-.3 1.6-.3.1 0 .2-.2.2-.7 0-.2 0-.4-.1-.7-3.5.2-5.3.3-5.6.3-.8 0-1.9 0-3.4-.1s-2.3-.1-2.4-.1c-.1.1-.1.3-.1.8 0 .4.1.7.2.7.3 0 .9.1 1.6.3s1.1.4 1.2.7c.2.7.3 1.9.3 3.6zm-22.5-13.1c.3.7.6 1.3.9 1.8s.9 1 1.5 1.6c.7.6 1.2 1 1.7 1.3.4.3 1.1.7 1.9 1.2.2.1.4.3.5.3.3.1.7.4 1.3.8s1.1.6 1.4.8.7.5 1.2.9.8.7 1.1 1c.2.3.5.7.7 1.2s.3.9.3 1.4c0 1.6-.4 2.8-1.3 3.6s-2 1.2-3.4 1.2c-1.1 0-2-.2-2.9-.7-.9-.4-1.5-1-2-1.7s-.9-1.4-1.2-2-.5-1.2-.6-1.7c-.1-.2-.5-.3-1.3-.3-.4 0-.7.1-.7.3 0 .5.1 1.5.3 3.1s.5 2.9.7 3.9c3.6.8 6.3 1.2 8 1.2 2.5 0 4.6-.8 6.5-2.3s2.8-3.4 2.8-5.7c0-.8-.1-1.6-.3-2.3s-.5-1.3-.8-1.8-.7-1-1.3-1.5-1.1-.9-1.4-1.1-.9-.6-1.7-1c-.8-.5-1.3-.8-1.5-.9-.1-.1-.6-.3-1.2-.7-.7-.4-1.1-.7-1.3-.8s-.5-.4-1.1-.8c-.5-.4-.9-.7-1.1-.9s-.4-.6-.7-.9c-.3-.4-.5-.8-.6-1.2s-.2-.8-.2-1.2c0-1.3.4-2.3 1.1-3 .7-.8 1.7-1.1 3.1-1.1 1.5 0 2.8.6 3.9 1.9s1.7 2.6 1.9 3.9c.1.3.5.4 1.3.4.3 0 .5-.1.5-.4 0-2.5-.2-4.7-.5-6.7-.4-.1-1.1-.3-2.2-.5-1.1-.3-1.9-.5-2.5-.5-.6-.1-1.3-.1-2.1-.1-2.3 0-4.3.7-6.2 2.2-1.8 1.5-2.7 3.3-2.7 5.5-.2.8-.1 1.6.2 2.3m-21.5-9.6c-1.2 0-2.2 0-3 0s-2.7 0-5.8-.1c-.1.1-.2.3-.2.8s.1.7.2.7c.3 0 .9.1 1.7.4.8.2 1.2.5 1.3.7.2.7.3 1.9.3 3.6v16.3c0 2.1-.1 3.4-.3 4-.1.3-.5.5-1.3.7-.7.2-1.3.3-1.7.3-.1 0-.1.2-.1.7 0 .4 0 .7.1.8l.9-.1c.6 0 1.4-.1 2.3-.1 1 0 1.8-.1 2.6-.1.9 0 3 .1 6.2.3.1-.2.1-.4.1-.7 0-.5-.1-.7-.2-.7-.4 0-1-.1-1.9-.3s-1.4-.5-1.5-.8c-.2-.7-.3-2-.3-3.7v-6.1c0-.5.2-.7.7-.7s.9 0 1 .1c.2.1.5.2.7.5.2.2.5.6.9 1 .3.5.7.9.9 1.3.3.4.7 1 1.2 1.8s1 1.5 1.4 2c.6 1 1.2 1.8 1.8 2.4s1.3 1.3 2.2 2 1.9 1.2 3.1 1.5 2.5.5 4 .5c.5 0 1 0 1.3-.1.1-.2.2-.5.2-.8s-.1-.5-.2-.7c-1 0-2.1-.4-3.2-1.3s-2.3-1.9-3.3-3.2c-1.6-2-3.2-4.5-4.9-7.4-.1-.2-.1-.3.2-.4 1.4-.6 2.7-1.6 3.7-3s1.5-2.9 1.5-4.4c0-1.1-.2-2.1-.7-3-.4-.9-1-1.6-1.7-2.2-.7-.5-1.5-1-2.4-1.4s-1.7-.6-2.6-.8c-.8-.2-1.6-.2-2.4-.2-.5-.2-1.6-.2-2.8-.1m7.5 8c0 1.6-.4 2.9-1.3 3.9s-1.8 1.5-2.9 1.5h-1.1c-.9 0-1.5-.1-2-.3s-.7-.6-.7-1.3v-5c0-2.9.2-4.4.5-4.5.5-.2 1.3-.3 2.5-.3 3.3.1 5 2.1 5 6m-40.7-8.1c-.1.1-.2.4-.2.8s.1.7.2.7c.4 0 1 .1 1.7.3s1.1.5 1.2.8c.2.6.3 1.8.3 3.6v16.3c0 2-.1 3.3-.3 4-.1.3-.5.5-1.3.7-.7.2-1.3.3-1.6.3-.1 0-.1.2-.1.7 0 .4 0 .6.1.7l5.8-.2c1.5-.1 4 0 7.7 0 3.6.1 6 .1 7.2.1.1-.4.2-1 .4-1.7s.4-1.3.6-1.8.4-1.2.8-2.1c.3-.9.5-1.5.6-1.8-.2-.2-.6-.3-1.2-.3-.4 0-.6.1-.6.3-.3 1-.8 1.9-1.3 2.6-.6.8-1.1 1.3-1.6 1.5-1.2.6-2.9.9-5.2.9h-1.6c-1.8 0-2.8-.2-3-.6-.3-.8-.4-1.9-.4-3.5v-6.7c0-.2 1-.3 3.1-.3 2.3 0 3.6.1 4 .3.2.1.3.2.4.3s.1.2.3.6.3 1 .5 1.7c.1.2.3.3.7.3s.7-.1.8-.2v-8.2c-.1-.1-.4-.2-.8-.2s-.7.1-.7.3c-.1.3-.2.7-.3 1.1-.2.9-.4 1.4-.7 1.5s-1.3.2-3 .2h-.2-2.3c-1.3 0-1.9-.1-1.9-.3v-6.6c0-1.5.1-2.7.3-3.5.1-.4 1.2-.6 3.3-.6h2.3c2.7 0 4.6 1.3 5.6 3.9.1.2.3.3.6.3.5 0 .8-.1.9-.2 0-.1-.2-1-.6-2.5-.3-1.5-.6-2.8-.7-3.6-1.6 0-4.1.1-7.3.2s-5.5.2-6.7.2c-2-.1-3.9-.2-5.8-.3m-19.8 11.8c-2.2-5.4-3.3-8.3-3.3-8.9 0-.4.2-.7.6-.9s.8-.4 1.2-.5.7-.1.9-.1c.1 0 .2-.2.2-.6s0-.7-.1-.8c-3.6.2-5.5.3-5.9.3-.8 0-1.9 0-3.3-.1s-2.2-.1-2.4-.1c-.1.1-.1.4-.1.8s.1.7.2.7c.4 0 1 .1 1.7.3s1.1.5 1.3.9c.4.8 1 2.1 1.6 3.9l8.9 22.2c.2.3.4.4.7.4.7 0 1.3-.5 1.7-1.6l9-21.1c.8-1.9 1.4-3.1 1.9-3.8.3-.4.8-.7 1.5-.9.6-.2 1.1-.3 1.5-.3.1 0 .1-.2.1-.7 0-.3 0-.5-.1-.7-.4 0-1.1.1-2.1.2s-1.9.1-2.6.1-1.6 0-2.7-.1-1.8-.1-2.1-.1c-.1.1-.1.4-.1.8s0 .6.2.6c.7 0 1.4.1 2.1.4s1 .7 1 1.2c0 .6-.3 1.6-.9 3l-6.3 15c0 .1-.2-.3-.6-1m-26.3 2.5c0 1.5-.1 2.7-.3 3.6-.1.2-.5.4-1.2.7-.7.2-1.3.3-1.6.3-.1 0-.2.3-.2.8 0 .3.1.5.2.6.5 0 1.1-.1 1.8-.1.8 0 1.5-.1 2.1-.1h1.8c.2 0 2 .1 5.5.3.1-.2.1-.4.1-.6 0-.5-.1-.8-.2-.8-.3 0-.8-.1-1.5-.3s-1.1-.4-1.2-.6c-.3-1-.4-2.3-.4-3.9v-16.5c0-1.6.1-2.9.3-3.8.1-.2.5-.4 1.3-.7.8-.2 1.3-.3 1.6-.3.1 0 .2-.2.2-.7 0-.2 0-.4-.1-.7-3.5.2-5.3.3-5.6.3-.8 0-1.9 0-3.4-.1s-2.3-.1-2.4-.1c-.1.1-.1.3-.1.8 0 .4.1.7.2.7.3 0 .9.1 1.6.3s1.1.4 1.2.7c.2.7.3 1.9.3 3.6zm-23.7-18.2c-1.5-2-2.5-3.6-3-4.6-1.6.1-3 .2-3.9.2-.4 0-2.1-.1-5.2-.2-.1.1-.2.4-.2.8s.1.7.2.7c.4 0 1 .1 1.9.3s1.4.4 1.5.6c.3.6.5 1.6.5 3.2v17c0 1.8-.1 3-.4 3.6-.2.4-.8.8-1.6 1s-1.5.3-2 .3c-.1 0-.2.2-.2.7 0 .4.1.6.2.7.4 0 1.1-.1 2.3-.2 1.1-.1 2.1-.1 2.9-.1.1 0 2 .1 5.4.3.1-.1.1-.4.1-.8s-.1-.6-.2-.6c-.4 0-1-.1-2-.4-.9-.2-1.5-.5-1.6-.9-.2-.6-.3-1.8-.3-3.6v-17.6l17.3 22.9c.5.7.9 1 1.4 1s.8-.1 1-.2c-.1-3-.2-5-.2-6.1v-16.4c0-1.6.2-2.8.5-3.6.3-.4.8-.7 1.6-.9s1.5-.3 1.9-.3c.1 0 .2-.2.2-.7 0-.3 0-.6-.1-.7-.3 0-1 .1-2.2.2s-2.2.2-2.9.2c-.6 0-2.4-.1-5.5-.3-.1.1-.1.4-.1.8s.1.6.2.6c.5 0 1.1.1 1.9.3s1.3.5 1.5.8c.3.8.4 1.9.4 3.5v11.8c0 .8 0 1.4-.1 1.8m-55.3-19.8c-.1.1-.1.4-.1.8s.1.7.2.7c.3 0 .9.1 1.6.3s1.1.4 1.2.7c.2.6.3 1.8.3 3.6v9.5c0 4.7 1 8 3 10.1s4.7 3.1 8.2 3.1c1.6 0 3.1-.2 4.4-.7 1.3-.4 2.4-1.1 3.5-2.1 1-.9 1.8-2.2 2.3-3.9.5-1.6.8-3.6.8-5.8v-10.1c0-1.7.2-2.9.5-3.6.3-.4.8-.7 1.6-.9s1.5-.3 1.9-.3c.1 0 .2-.2.2-.7 0-.3 0-.5-.1-.7-.3 0-1 .1-2.2.2s-2.2.2-2.9.2c-.5 0-2.3-.1-5.5-.3-.1.1-.1.4-.1.8s.1.6.2.6c.4 0 1 .1 1.8.4.9.2 1.4.5 1.5.8.3.5.4 1.7.4 3.5v10.4c0 3.4-.7 5.8-2 7.3s-3.1 2.2-5.4 2.2-4.1-.9-5.4-2.7-1.9-4.2-1.9-7.1v-10c0-1.7.1-3 .3-3.8 0-.2.4-.5 1.2-.7s1.3-.3 1.6-.3c.1 0 .2-.2.2-.7 0-.2 0-.5-.1-.7-3.2.2-5 .3-5.6.3 0-.1-1.9-.2-5.6-.4"/></svg>