<?xml version="1.0" encoding="utf-8"?>
<!-- Generator: Adobe Illustrator 20.1.0, SVG Export Plug-In . SVG Version: 6.00 Build 0)  -->
<svg version="1.1" id="Layer_1" xmlns="http://www.w3.org/2000/svg" xmlns:xlink="http://www.w3.org/1999/xlink" x="0px" y="0px"
	 viewBox="0 0 403.5 80.9" style="enable-background:new 0 0 403.5 80.9;" xml:space="preserve">
<style type="text/css">
	.st0{fill:#FFFFFF;}
</style>
<g>
	<g>
		<path class="st0" d="M400.9,75.3c-1-0.3-1.6-0.6-1.7-0.9c-0.4-1.4-0.5-3.2-0.5-5.4V46.4c0-2.3,0.2-4.1,0.5-5.3
			c0.1-0.3,0.7-0.6,1.7-0.9c1.1-0.3,1.8-0.5,2.2-0.5c0.2,0,0.2-0.3,0.2-1c0-0.3-0.1-0.6-0.2-1c-4.8,0.2-7.4,0.4-7.7,0.4
			c-1.1,0-2.6-0.1-4.7-0.2c-2-0.1-3.1-0.2-3.3-0.2c-0.1,0.1-0.1,0.4-0.1,1.1c0,0.6,0.1,0.9,0.2,0.9c0.5,0,1.2,0.1,2.2,0.5
			c1,0.3,1.5,0.6,1.7,0.9c0.3,1,0.5,2.6,0.5,5.1v9c0,0.1,0,0.2-0.1,0.2c-3.6,0.1-6.3,0.1-7.9,0.1c-1.5,0-4.3,0-8.2-0.1l-0.1-0.2
			v-8.8c0-2.3,0.2-4.1,0.5-5.3c0.1-0.3,0.7-0.6,1.7-0.9c1.1-0.3,1.8-0.5,2.2-0.5c0.2,0,0.2-0.3,0.2-1c0-0.3-0.1-0.6-0.2-1
			c-4.8,0.2-7.4,0.4-7.7,0.4c-1.1,0-2.6-0.1-4.7-0.2c-2-0.1-3.1-0.2-3.3-0.2c-0.1,0.1-0.1,0.4-0.1,1.1c0,0.6,0.1,0.9,0.2,0.9
			c0.5,0,1.2,0.1,2.2,0.5c1,0.3,1.5,0.6,1.7,0.9c0.3,1,0.5,2.6,0.5,5.1v23.2c0,2.1-0.2,3.8-0.5,5.1c-0.1,0.3-0.7,0.6-1.7,0.9
			c-1,0.3-1.8,0.4-2.3,0.4c-0.2,0-0.2,0.4-0.2,1.1c0,0.4,0.1,0.7,0.2,0.8c0.6,0,1.5-0.1,2.6-0.2c1.1-0.1,2-0.1,2.9-0.1
			c0.9,0,1.7-0.1,2.5-0.1c0.3,0,2.8,0.1,7.6,0.4c0.1-0.2,0.1-0.5,0.1-0.8c0-0.8-0.1-1.1-0.2-1.1c-0.4,0-1.1-0.2-2.1-0.5
			c-1-0.3-1.6-0.6-1.7-0.9c-0.4-1.4-0.5-3.2-0.5-5.4V59c0-0.1,2.8-0.2,8.3-0.3c1.5,0,4.2,0,7.9,0.1l0.1,0.2v10.4
			c0,2.1-0.2,3.8-0.5,5.1c-0.1,0.3-0.7,0.6-1.7,0.9c-1,0.3-1.8,0.4-2.3,0.4c-0.2,0-0.2,0.4-0.2,1.1c0,0.4,0.1,0.7,0.2,0.8
			c0.6,0,1.5-0.1,2.6-0.2c1.1-0.1,2-0.1,2.9-0.1c0.9,0,1.7-0.1,2.5-0.1c0.3,0,2.8,0.1,7.6,0.4c0.1-0.2,0.1-0.5,0.1-0.8
			c0-0.8-0.1-1.1-0.2-1.1C402.6,75.8,401.9,75.6,400.9,75.3 M329.7,37.7c-1,0-2.4-0.2-4.2-0.6l-1.1,9.1c0.3,0.3,0.8,0.5,1.6,0.5
			c0.4,0,0.6-0.1,0.6-0.4c0.6-2.2,1.4-3.6,2.3-4.4c0.9-0.8,2.4-1.2,4.3-1.2c3.5,0,5.4,0.3,5.7,1c0.4,0.6,0.5,2.5,0.5,5.8v21.8
			c0,2.2-0.2,3.9-0.5,5c-0.1,0.3-0.7,0.6-1.7,0.9c-1,0.3-1.8,0.4-2.3,0.4c-0.2,0-0.2,0.4-0.2,1.1c0,0.5,0.1,0.8,0.2,1
			c0.4,0,1.6-0.1,3.5-0.2c1.9-0.1,3.4-0.2,4.5-0.2c0.8,0,1.6,0,2.5,0.1c0.9,0,1.8,0.1,2.8,0.2c1,0.1,1.8,0.1,2.3,0.2
			c0.1-0.2,0.1-0.6,0.1-1c0-0.7-0.1-1.1-0.2-1.1c-0.4,0-1.1-0.2-2.1-0.5c-1-0.3-1.6-0.6-1.6-0.9c-0.4-1.3-0.5-3.1-0.5-5.2V47.5
			c0-2.6,0.2-4.5,0.5-5.7c0.2-0.7,2.1-1,5.8-1c2,0,3.4,0.4,4.3,1.2c0.9,0.8,1.7,2.3,2.2,4.5c0.1,0.2,0.3,0.3,0.6,0.3
			c0.8,0,1.3-0.1,1.6-0.4l-1.1-9.2c-1.8,0.4-3.1,0.6-4.2,0.6c-1.6,0-3.8,0.1-6.6,0.2c-2.7,0.1-5,0.2-6.7,0.2s-3.9,0-6.6-0.2
			C333.5,37.9,331.3,37.8,329.7,37.7 M280.8,37.7c-0.1,0.1-0.2,0.5-0.2,1.1c0,0.6,0.1,0.9,0.2,0.9c0.5,0,1.2,0.1,2.2,0.5
			c1,0.3,1.5,0.6,1.7,0.9c0.3,0.8,0.5,2.5,0.5,5.1v13.1c0,6.5,1.4,11.1,4.2,14.1c2.8,2.9,6.6,4.4,11.4,4.4c2.3,0,4.3-0.3,6.1-0.9
			c1.8-0.6,3.4-1.6,4.8-2.9c1.4-1.3,2.5-3.1,3.2-5.4c0.8-2.3,1.1-5,1.1-8.1V46.3c0-2.3,0.2-4,0.7-5c0.4-0.5,1.1-0.9,2.3-1.2
			c1.2-0.3,2-0.5,2.6-0.5c0.2,0,0.2-0.3,0.2-1c0-0.4,0-0.7-0.1-1c-0.4,0-1.4,0.1-3.1,0.2c-1.7,0.1-3,0.2-4,0.2
			c-0.7,0-3.2-0.1-7.6-0.4c-0.1,0.2-0.2,0.5-0.1,1.1c0,0.6,0.1,0.8,0.3,0.8c0.5,0,1.4,0.2,2.6,0.5c1.2,0.3,1.9,0.7,2.1,1.1
			c0.4,0.8,0.6,2.4,0.6,4.8v14.7c0,4.7-0.9,8.1-2.8,10.1c-1.9,2-4.3,3-7.4,3c-3.2,0-5.6-1.2-7.4-3.7c-1.8-2.5-2.7-5.8-2.7-9.9V46.4
			c0-2.3,0.2-4.1,0.5-5.3c0-0.3,0.6-0.6,1.7-0.9c1.1-0.3,1.8-0.5,2.2-0.5c0.2,0,0.2-0.3,0.2-1c0-0.3,0-0.6-0.1-1
			c-4.4,0.2-7,0.4-7.7,0.4C288.6,38.1,285.9,38,280.8,37.7 M259.9,78.2c5.3,0,9.8-2,13.6-6c3.8-4,5.7-8.8,5.7-14.4
			c0-5.6-1.9-10.4-5.7-14.4c-3.8-4-8.3-6-13.6-6c-5.3,0-9.8,2-13.6,6c-3.8,4-5.7,8.8-5.7,14.4c0,5.6,1.9,10.4,5.7,14.4
			C250,76.2,254.6,78.2,259.9,78.2 M266.2,43.3c2,1.9,3.3,4.3,4.2,7c0.8,2.7,1.2,5.6,1.2,8.7c0,4.4-0.9,8.2-2.8,11.4
			c-1.9,3.2-4.5,4.8-7.9,4.8c-2.8,0-5.1-1-7.1-3c-2-2-3.4-4.3-4.2-7.1c-0.8-2.7-1.2-5.6-1.2-8.6c0-4.5,0.9-8.3,2.7-11.4
			c1.8-3.1,4.5-4.7,7.9-4.7C261.8,40.4,264.2,41.4,266.2,43.3 M193.5,69.6c-0.1,2-0.3,3.3-0.7,4c-0.2,0.6-1,1.2-2.3,1.6
			s-2.4,0.6-3,0.6c-0.2,0-0.2,0.3-0.2,1c0,0.5,0.1,0.8,0.2,1c0.4,0,1.5-0.1,3.3-0.2c1.8-0.1,3.2-0.2,4.3-0.2c0.2,0,2.8,0.1,7.6,0.4
			c0.1-0.2,0.1-0.5,0.1-0.9c0-0.7-0.1-1.1-0.2-1.1c-0.5,0-1.4-0.2-2.8-0.6c-1.4-0.4-2.2-0.8-2.4-1.3c-0.1-0.4-0.2-1-0.2-1.9
			c0.4-7.9,0.7-16.9,1-26.8l13.5,32.4c0.2,0.1,0.4,0.1,0.6,0.1c0.8,0,1.6-0.8,2.3-2.3l11.5-28c0.1-0.2,0.2-0.4,0.3-0.4
			c0.3,0,0.6,1.2,0.7,3.7l0.6,18.3v3.4c0,0.9-0.2,1.6-0.6,2.1c-0.3,0.3-0.8,0.6-1.7,0.9c-0.8,0.3-1.5,0.4-1.9,0.4
			c-0.2,0-0.2,0.4-0.2,1.1c0,0.4,0.1,0.7,0.2,0.9c0.6,0,1.5-0.1,2.6-0.2c1.1-0.1,2-0.1,2.9-0.1c0.9,0,1.7-0.1,2.5-0.1
			c0.1,0,2.6,0.1,7.4,0.4c0.1-0.2,0.1-0.5,0.1-0.9c0-0.7-0.1-1.1-0.2-1.1c-0.4,0-1.1-0.2-2-0.5c-1-0.3-1.5-0.6-1.7-1
			c-0.6-1.5-0.9-3.4-1-5.5c-0.4-13-0.7-21.3-0.8-24.9c-0.1-1.7,0.2-2.8,0.8-3.2c0.9-0.6,1.9-1,2.9-1h0.1c0.2,0,0.2-0.3,0.2-1
			c0-0.5-0.1-0.8-0.2-1c-3.2,0.2-5.6,0.3-7.2,0.3c-2.1,0-3.7-0.1-4.9-0.2l-2.2,7c-2.1,5.5-4.9,12.4-8.4,20.9c0,0.1-0.1,0.2-0.2,0.2
			c-0.1,0-0.2,0-0.2-0.1c-1.1-2.8-2.6-6.4-4.5-10.7c-1.9-4.4-3.4-8-4.7-11.1c-1.3-3-2.1-5.1-2.5-6.2c-3.7,0.2-5.7,0.4-5.9,0.4
			c-1,0-2.3,0-3.8-0.2c-1.5-0.1-2.5-0.2-3.1-0.2c-0.2,0.2-0.2,0.5-0.2,0.9c0,0.7,0.1,1,0.2,1c0.5,0,1.4,0.1,2.6,0.4
			c1.2,0.3,1.9,0.6,2,0.9c0.1,0.4,0.2,0.9,0.2,1.7c0,0.7-0.1,2.5-0.2,5.5 M162.7,59.1c0.3,0.6,0.4,1,0.4,1.2v8.9
			c0,2.4-0.2,4.1-0.5,5.3c-0.1,0.3-0.7,0.6-1.7,1s-1.7,0.5-2.2,0.5c-0.1,0-0.2,0.3-0.2,1c0,0.5,0.1,0.8,0.2,1c0.4,0,1.6-0.1,3.5-0.2
			c1.9-0.1,3.3-0.2,4.4-0.2c0.8,0,1.6,0,2.5,0.1c0.8,0,1.8,0.1,2.8,0.2c1,0.1,1.8,0.1,2.3,0.2c0.1-0.2,0.1-0.6,0.1-1
			c0-0.6-0.1-1-0.2-1c-0.3,0-1-0.2-2-0.5c-1-0.3-1.6-0.7-1.7-0.9c-0.3-1.2-0.5-3-0.5-5.4v-9.4c0-0.5,1.5-3.2,4.5-8.1
			c3-4.9,5.1-8.2,6.3-9.9c0.5-0.6,1.3-1.1,2.3-1.4c1.1-0.4,1.9-0.5,2.5-0.5c0.2,0,0.2-0.3,0.2-1c0-0.3,0-0.6-0.1-1
			c-0.4,0-1.1,0.1-1.8,0.1c-0.8,0.1-1.5,0.1-2.3,0.2c-0.7,0-1.6,0.1-2.5,0.1c-0.8,0-3.2-0.1-7.2-0.4c-0.1,0.2-0.2,0.5-0.2,1.1
			c0,0.6,0.1,0.8,0.2,0.8c1.2,0,2.2,0.2,2.9,0.5c0.7,0.3,1.1,0.7,1.1,1.2c0,0.7-0.8,2.4-2.4,5.2c-1.6,2.7-3.3,5.4-5,7.9
			c-0.2,0.3-0.4,0.3-0.6,0.1l-6.4-11.7c-0.4-0.7-0.5-1.2-0.5-1.6c0-0.6,0.4-1,1.2-1.3c0.8-0.3,1.5-0.4,2.2-0.4
			c0.1,0,0.2-0.3,0.2-0.8c0-0.6,0-0.9-0.1-1.1c-4.8,0.2-7.6,0.4-8.3,0.4c-4.3,0-7,0-7.9,0.1c-0.1,0.2-0.1,0.4-0.1,0.8
			c0,0.4,0.1,0.6,0.2,0.6c0.4,0,0.9,0.1,1.7,0.3s1.4,0.5,1.8,0.8c0.9,0.6,2,2,3.1,4.2 M131.6,41.1c0.1-0.3,0.7-0.6,1.7-0.9
			c1.1-0.3,1.8-0.5,2.2-0.5c0.2,0,0.2-0.3,0.2-1c0-0.3-0.1-0.6-0.2-1c-4.8,0.2-7.4,0.4-7.7,0.4c-1.1,0-2.6-0.1-4.7-0.2
			c-2-0.1-3.1-0.2-3.3-0.2c-0.1,0.1-0.1,0.4-0.1,1.1c0,0.6,0.1,0.9,0.2,0.9c0.5,0,1.2,0.1,2.2,0.5c1,0.3,1.5,0.6,1.7,0.9
			c0.3,1,0.5,2.7,0.5,5.1V69c0,2.8-0.1,4.6-0.4,5.5c-0.2,0.4-0.7,0.7-1.7,0.9c-1,0.3-1.8,0.4-2.3,0.4c-0.1,0-0.2,0.3-0.2,1
			c0,0.5,0.1,0.8,0.2,1l8-0.2c2-0.1,5.6-0.1,10.6,0.1c5,0.1,8.4,0.2,10,0.2c0.1-0.6,0.3-1.4,0.5-2.3c0.3-1,0.5-1.8,0.8-2.4
			c0.2-0.7,0.6-1.6,1.1-2.9c0.5-1.3,0.8-2.1,0.9-2.5c-0.2-0.2-0.8-0.4-1.7-0.4c-0.5,0-0.8,0.1-0.8,0.4c-0.4,1.4-1.1,2.6-1.9,3.7
			c-0.8,1.1-1.5,1.8-2.2,2.1c-1.6,0.8-4,1.3-7.2,1.3h-2.2c-2.5,0-3.9-0.3-4.1-0.8c-0.4-1.2-0.5-2.8-0.5-4.8V46.4
			C131.1,44.1,131.3,42.4,131.6,41.1 M89,37.8c-0.2,0.1-0.2,0.5-0.2,1.1c0,0.6,0.1,0.9,0.2,0.9c0.5,0,1.3,0.2,2.3,0.5
			c1.1,0.3,1.7,0.7,1.8,1c0.2,1,0.4,2.6,0.4,4.9V69c0,2.9-0.1,4.8-0.4,5.5c-0.2,0.4-0.8,0.7-1.8,0.9c-1,0.3-1.8,0.4-2.3,0.4
			c-0.1,0-0.2,0.3-0.2,1c0,0.6,0.1,0.9,0.2,1.1l1.2-0.1c0.8,0,1.9-0.1,3.2-0.2s2.6-0.1,3.6-0.1c1.3,0,4.1,0.1,8.5,0.4
			c0.1-0.2,0.1-0.6,0.1-1c0-0.7-0.1-1-0.2-1c-0.6,0-1.5-0.2-2.7-0.5c-1.2-0.3-1.9-0.7-2-1.2c-0.3-1-0.5-2.7-0.5-5.1V47.5
			c0-3.9,0.2-6,0.7-6.3c0.6-0.3,1.8-0.4,3.5-0.4c2.2,0,3.9,0.8,5,2.3c1.1,1.6,1.6,3.7,1.6,6.4c0,2.4-0.6,4.4-1.7,6
			c-1.1,1.6-2.6,2.4-4.6,2.4c-1.3,0-2.4-0.2-3.4-0.6c-0.1,0-0.1,0.1-0.2,0.4c0,0.3,0,0.6,0,0.9c0.1,0.3,0.1,0.5,0.2,0.6
			c0.3,0.4,0.9,0.8,1.7,1.1c0.8,0.3,1.7,0.5,2.5,0.5c2.5,0,4.7-0.6,6.7-1.9s3.5-2.8,4.5-4.6c1-1.8,1.5-3.7,1.5-5.5
			c0-1.6-0.3-3-0.9-4.3c-0.6-1.3-1.3-2.3-2.2-3.2c-0.9-0.8-1.9-1.5-3.1-2.1c-1.2-0.6-2.4-1-3.6-1.2c-1.2-0.2-2.4-0.3-3.6-0.3
			c-1.2,0-2.6,0-4.1,0.1c-1.5,0.1-2.9,0.1-4,0.1C95.9,38,93.2,37.9,89,37.8"/>
		<path class="st0" d="M394.6,29.3c0.1-0.1,0.1-0.3,0.1-0.7c0-0.5-0.1-0.7-0.2-0.7c-0.3,0-0.9-0.1-1.9-0.4c-0.9-0.3-1.4-0.5-1.6-0.8
			c-0.3-0.8-0.5-2-0.5-3.6v-6.8c0-0.2,1-0.3,3.1-0.3c2.3,0,3.6,0.1,4,0.3c0.2,0.1,0.3,0.2,0.4,0.3c0,0,0.1,0.2,0.3,0.6
			c0.2,0.4,0.3,1,0.5,1.7c0.1,0.2,0.3,0.3,0.7,0.3c0.4,0,0.7-0.1,0.8-0.2v-8.2c-0.1-0.1-0.4-0.2-0.8-0.2c-0.4,0-0.7,0.1-0.7,0.3
			c-0.1,0.3-0.2,0.7-0.3,1.1c-0.2,0.9-0.4,1.4-0.7,1.5c-0.3,0.1-1.3,0.2-3,0.2h-0.2h-2.2c-1.3,0-1.9-0.1-1.9-0.3V6.6
			c0-1.6,0.1-2.8,0.2-3.5c0.1-0.4,1.2-0.6,3.3-0.6h2.3c2.7,0,4.6,1.3,5.6,3.9c0.1,0.2,0.3,0.3,0.6,0.3c0.5,0,0.8-0.1,0.9-0.2
			c0-0.1-0.2-1-0.6-2.5c-0.3-1.5-0.6-2.8-0.7-3.6c-1.5,0-3.9,0.1-7.1,0.2c-3.2,0.1-5.5,0.2-6.9,0.1c-1.9,0-3.8-0.1-5.7-0.2
			c-0.1,0.1-0.2,0.4-0.2,0.8c0,0.4,0.1,0.7,0.2,0.7c0.4,0,1,0.1,1.7,0.3c0.7,0.2,1.1,0.5,1.2,0.8c0.2,0.6,0.3,1.8,0.3,3.6V23
			c0,2-0.1,3.3-0.3,4c-0.1,0.3-0.5,0.5-1.3,0.7c-0.7,0.2-1.3,0.3-1.7,0.3c-0.1,0-0.1,0.2-0.1,0.7c0,0.4,0,0.6,0.1,0.7l0.9,0
			c0.5-0.1,1.3-0.1,2.3-0.2c1,0,1.9-0.1,2.8-0.1C389.1,29,391.1,29.1,394.6,29.3 M366.9,29.6c3.8,0,7.1-1.4,9.8-4.3
			c2.7-2.9,4.1-6.3,4.1-10.4c0-4.1-1.4-7.5-4.1-10.4c-2.7-2.9-6-4.3-9.8-4.3s-7.1,1.4-9.8,4.3c-2.7,2.9-4.1,6.3-4.1,10.4
			c0,4.1,1.4,7.5,4.1,10.4C359.8,28.2,363.1,29.6,366.9,29.6 M371.5,4.4c1.4,1.4,2.4,3.1,3,5s0.9,4,0.9,6.3c0,3.2-0.7,5.9-2,8.2
			c-1.3,2.3-3.2,3.5-5.7,3.5c-2,0-3.7-0.7-5.1-2.1c-1.4-1.4-2.4-3.1-3-5.1s-0.9-4-0.9-6.2c0-3.2,0.7-6,2-8.2
			c1.3-2.3,3.2-3.4,5.7-3.4C368.3,2.3,370.1,3,371.5,4.4 M325.9,15.8c0.2,0.4,0.3,0.7,0.3,0.8v6.4c0,1.7-0.1,3-0.3,3.8
			c-0.1,0.2-0.5,0.5-1.2,0.7c-0.7,0.2-1.3,0.3-1.6,0.3c-0.1,0-0.1,0.2-0.1,0.7c0,0.3,0.1,0.6,0.2,0.7c0.3,0,1.2-0.1,2.5-0.2
			c1.3-0.1,2.4-0.1,3.2-0.1c0.6,0,1.2,0,1.8,0c0.6,0,1.3,0.1,2,0.1s1.3,0.1,1.6,0.1c0.1-0.2,0.1-0.4,0.1-0.7c0-0.5-0.1-0.7-0.2-0.7
			c-0.2,0-0.7-0.1-1.5-0.4c-0.7-0.2-1.1-0.5-1.2-0.7c-0.2-0.9-0.3-2.2-0.3-3.9v-6.8c0-0.4,1.1-2.3,3.3-5.8c2.2-3.5,3.7-5.9,4.5-7.1
			c0.3-0.4,0.9-0.8,1.7-1c0.8-0.3,1.4-0.4,1.8-0.4c0.1,0,0.2-0.2,0.2-0.7c0-0.2,0-0.5-0.1-0.7c-0.3,0-0.8,0.1-1.3,0.1
			c-0.6,0-1.1,0.1-1.6,0.1c-0.5,0-1.1,0-1.8,0c-0.6,0-2.3-0.1-5.2-0.3c-0.1,0.1-0.1,0.4-0.1,0.8c0,0.4,0.1,0.6,0.2,0.6
			c0.9,0,1.6,0.1,2.1,0.4c0.5,0.2,0.8,0.5,0.8,0.8c0,0.5-0.6,1.8-1.7,3.7c-1.2,2-2.4,3.9-3.6,5.7c-0.1,0.2-0.3,0.2-0.4,0.1L325,4.2
			c-0.3-0.5-0.4-0.9-0.4-1.1c0-0.4,0.3-0.7,0.9-0.9c0.6-0.2,1.1-0.3,1.6-0.3c0.1,0,0.1-0.2,0.2-0.6c0-0.4,0-0.7-0.1-0.8
			c-3.5,0.2-5.5,0.3-6,0.3c-3.1,0-5,0-5.7,0.1c-0.1,0.1-0.1,0.3-0.1,0.6c0,0.3,0.1,0.4,0.2,0.4c0.3,0,0.7,0.1,1.2,0.2
			c0.6,0.2,1,0.3,1.3,0.5c0.7,0.4,1.4,1.4,2.3,3 M290.6,0.4c-0.7,0-1.7-0.1-3-0.4l-0.8,6.6c0.2,0.2,0.6,0.3,1.1,0.3
			c0.3,0,0.4-0.1,0.4-0.3c0.4-1.6,1-2.6,1.6-3.2c0.7-0.6,1.7-0.8,3.1-0.8c2.5,0,3.9,0.2,4.1,0.7c0.3,0.4,0.4,1.8,0.4,4.2v15.7
			c0,1.6-0.1,2.8-0.3,3.6c-0.1,0.2-0.5,0.4-1.2,0.7c-0.7,0.2-1.3,0.3-1.6,0.3c-0.1,0-0.2,0.3-0.2,0.8c0,0.3,0.1,0.6,0.2,0.7
			c0.3,0,1.2-0.1,2.5-0.2c1.4-0.1,2.5-0.1,3.2-0.1c0.6,0,1.2,0,1.8,0c0.6,0,1.3,0.1,2,0.1s1.3,0.1,1.7,0.1c0.1-0.2,0.1-0.4,0.1-0.7
			c0-0.5-0.1-0.8-0.2-0.8c-0.3,0-0.8-0.1-1.5-0.3c-0.8-0.2-1.1-0.4-1.2-0.6c-0.3-1-0.4-2.2-0.4-3.8V7.5c0-1.9,0.1-3.2,0.4-4.1
			c0.1-0.5,1.5-0.7,4.2-0.7c1.4,0,2.5,0.3,3.1,0.8c0.7,0.6,1.2,1.6,1.6,3.2c0.1,0.1,0.2,0.2,0.4,0.2c0.6,0,1-0.1,1.2-0.3L312.6,0
			c-1.3,0.3-2.3,0.4-3,0.4c-1.2,0-2.8,0.1-4.7,0.2c-2,0.1-3.6,0.1-4.8,0.1c-1.2,0-2.8,0-4.8-0.1C293.3,0.5,291.8,0.5,290.6,0.4
			 M276.5,23.3c0,1.5-0.1,2.7-0.3,3.6c-0.1,0.2-0.5,0.4-1.2,0.7c-0.7,0.2-1.3,0.3-1.6,0.3c-0.1,0-0.2,0.3-0.2,0.8
			c0,0.3,0.1,0.5,0.2,0.6c0.5,0,1.1-0.1,1.8-0.1c0.8,0,1.5-0.1,2.1-0.1c0.6,0,1.2,0,1.8,0c0.2,0,2,0.1,5.5,0.3
			c0.1-0.2,0.1-0.4,0.1-0.6c0-0.5-0.1-0.8-0.2-0.8c-0.3,0-0.8-0.1-1.5-0.3c-0.7-0.2-1.1-0.4-1.2-0.6c-0.3-1-0.4-2.3-0.4-3.9V6.7
			c0-1.6,0.1-2.9,0.3-3.8c0.1-0.2,0.5-0.4,1.3-0.7c0.8-0.2,1.3-0.3,1.6-0.3c0.1,0,0.2-0.2,0.2-0.7c0-0.2,0-0.4-0.1-0.7
			c-3.5,0.2-5.3,0.3-5.6,0.3c-0.8,0-1.9,0-3.4-0.1s-2.3-0.1-2.4-0.1c-0.1,0.1-0.1,0.3-0.1,0.8c0,0.4,0.1,0.7,0.2,0.7
			c0.3,0,0.9,0.1,1.6,0.3c0.7,0.2,1.1,0.4,1.2,0.7c0.2,0.7,0.3,1.9,0.3,3.6V23.3z M254,10.2c0.3,0.7,0.6,1.3,0.9,1.8
			c0.3,0.5,0.9,1,1.5,1.6c0.7,0.6,1.2,1,1.7,1.3c0.4,0.3,1.1,0.7,1.9,1.2c0.2,0.1,0.4,0.3,0.5,0.3c0.3,0.1,0.7,0.4,1.3,0.8
			c0.6,0.4,1.1,0.6,1.4,0.8c0.3,0.2,0.7,0.5,1.2,0.9c0.5,0.4,0.8,0.7,1.1,1c0.2,0.3,0.5,0.7,0.7,1.2c0.2,0.5,0.3,0.9,0.3,1.4
			c0,1.6-0.4,2.8-1.3,3.6c-0.9,0.8-2,1.2-3.4,1.2c-1.1,0-2-0.2-2.9-0.7c-0.9-0.4-1.5-1-2-1.7c-0.5-0.7-0.9-1.4-1.2-2
			c-0.3-0.6-0.5-1.2-0.6-1.7c-0.1-0.2-0.5-0.3-1.3-0.3c-0.4,0-0.7,0.1-0.7,0.3c0,0.5,0.1,1.5,0.3,3.1c0.2,1.6,0.5,2.9,0.7,3.9
			c3.6,0.8,6.2,1.2,8,1.2c2.5,0,4.6-0.8,6.5-2.3c1.9-1.5,2.8-3.4,2.8-5.7c0-0.8-0.1-1.6-0.3-2.3c-0.2-0.7-0.5-1.3-0.8-1.8
			s-0.7-1-1.3-1.5c-0.6-0.5-1.1-0.9-1.4-1.1c-0.3-0.2-0.9-0.6-1.7-1c-0.8-0.5-1.3-0.8-1.5-0.9c-0.1-0.1-0.6-0.3-1.2-0.7
			c-0.7-0.4-1.1-0.7-1.3-0.8c-0.2-0.1-0.5-0.4-1.1-0.8c-0.5-0.4-0.9-0.7-1.1-0.9c-0.2-0.2-0.4-0.6-0.7-0.9c-0.3-0.4-0.5-0.8-0.6-1.2
			c-0.1-0.4-0.2-0.8-0.2-1.2c0-1.3,0.4-2.3,1.1-3c0.7-0.8,1.7-1.1,3.1-1.1c1.5,0,2.8,0.6,3.9,1.9c1.1,1.3,1.7,2.6,1.9,3.9
			c0.1,0.3,0.5,0.4,1.3,0.4c0.3,0,0.5-0.1,0.5-0.4c0-2.5-0.2-4.7-0.5-6.7c-0.4-0.1-1.1-0.3-2.2-0.5c-1.1-0.3-1.9-0.5-2.5-0.5
			c-0.6-0.1-1.3-0.1-2.1-0.1c-2.3,0-4.3,0.7-6.2,2.2c-1.8,1.5-2.7,3.3-2.7,5.5C253.6,8.7,253.7,9.5,254,10.2 M232.5,0.6
			c-1.2,0-2.2,0-3,0c-0.8,0-2.7,0-5.8-0.1c-0.1,0.1-0.2,0.3-0.2,0.8s0.1,0.7,0.2,0.7c0.3,0,0.9,0.1,1.7,0.4c0.8,0.2,1.2,0.5,1.3,0.7
			c0.2,0.7,0.3,1.9,0.3,3.6V23c0,2.1-0.1,3.4-0.3,4c-0.1,0.3-0.5,0.5-1.3,0.7c-0.7,0.2-1.3,0.3-1.7,0.3c-0.1,0-0.1,0.2-0.1,0.7
			c0,0.4,0,0.7,0.1,0.8l0.9-0.1c0.6,0,1.4-0.1,2.3-0.1c1,0,1.8-0.1,2.6-0.1c0.9,0,3,0.1,6.2,0.3c0.1-0.2,0.1-0.4,0.1-0.7
			c0-0.5-0.1-0.7-0.2-0.7c-0.4,0-1-0.1-1.9-0.3c-0.9-0.2-1.4-0.5-1.5-0.8c-0.2-0.7-0.3-2-0.3-3.7v-6.1c0-0.5,0.2-0.7,0.7-0.7
			c0.5,0,0.9,0,1,0.1c0.2,0.1,0.5,0.2,0.7,0.5c0.2,0.2,0.5,0.6,0.9,1c0.3,0.5,0.7,0.9,0.9,1.3c0.3,0.4,0.7,1,1.2,1.8
			c0.5,0.8,1,1.5,1.4,2c0.6,1,1.2,1.8,1.8,2.4c0.6,0.6,1.3,1.3,2.2,2c0.9,0.7,1.9,1.2,3.1,1.5c1.2,0.3,2.5,0.5,4,0.5
			c0.5,0,1,0,1.3-0.1c0.1-0.2,0.2-0.5,0.2-0.8c0-0.3-0.1-0.5-0.2-0.7c-1,0-2.1-0.4-3.2-1.3s-2.3-1.9-3.3-3.2c-1.6-2-3.2-4.5-4.9-7.4
			c-0.1-0.2-0.1-0.3,0.2-0.4c1.4-0.6,2.7-1.6,3.7-3s1.5-2.9,1.5-4.4c0-1.1-0.2-2.1-0.7-3c-0.4-0.9-1-1.6-1.7-2.2
			c-0.7-0.5-1.5-1-2.4-1.4c-0.9-0.4-1.7-0.6-2.6-0.8c-0.8-0.2-1.6-0.2-2.4-0.2C234.8,0.5,233.7,0.5,232.5,0.6 M240,8.6
			c0,1.6-0.4,2.9-1.3,3.9c-0.9,1-1.8,1.5-2.9,1.5h-1.1c-0.9,0-1.5-0.1-2-0.3c-0.5-0.2-0.7-0.6-0.7-1.3v-5c0-2.9,0.2-4.4,0.5-4.5
			c0.5-0.2,1.3-0.3,2.5-0.3C238.3,2.7,240,4.7,240,8.6 M199.3,0.5c-0.1,0.1-0.2,0.4-0.2,0.8c0,0.4,0.1,0.7,0.2,0.7
			c0.4,0,1,0.1,1.7,0.3c0.7,0.2,1.1,0.5,1.2,0.8c0.2,0.6,0.3,1.8,0.3,3.6V23c0,2-0.1,3.3-0.3,4c-0.1,0.3-0.5,0.5-1.3,0.7
			c-0.7,0.2-1.3,0.3-1.6,0.3c-0.1,0-0.1,0.2-0.1,0.7c0,0.4,0,0.6,0.1,0.7l5.8-0.2c1.5-0.1,4,0,7.7,0c3.6,0.1,6,0.1,7.2,0.1
			c0.1-0.4,0.2-1,0.4-1.7c0.2-0.7,0.4-1.3,0.6-1.8c0.2-0.5,0.4-1.2,0.8-2.1c0.3-0.9,0.5-1.5,0.6-1.8c-0.2-0.2-0.6-0.3-1.2-0.3
			c-0.4,0-0.6,0.1-0.6,0.3c-0.3,1-0.8,1.9-1.3,2.6c-0.6,0.8-1.1,1.3-1.6,1.5c-1.2,0.6-2.9,0.9-5.2,0.9h-1.6c-1.8,0-2.8-0.2-3-0.6
			c-0.3-0.8-0.4-1.9-0.4-3.5v-6.7c0-0.2,1-0.3,3.1-0.3c2.3,0,3.6,0.1,4,0.3c0.2,0.1,0.3,0.2,0.4,0.3s0.1,0.2,0.3,0.6
			c0.2,0.4,0.3,1,0.5,1.7c0.1,0.2,0.3,0.3,0.7,0.3c0.4,0,0.7-0.1,0.8-0.2v-8.2c-0.1-0.1-0.4-0.2-0.8-0.2c-0.4,0-0.7,0.1-0.7,0.3
			c-0.1,0.3-0.2,0.7-0.3,1.1c-0.2,0.9-0.4,1.4-0.7,1.5c-0.3,0.1-1.3,0.2-3,0.2h-0.2h-2.3c-1.3,0-1.9-0.1-1.9-0.3V6.6
			c0-1.5,0.1-2.7,0.3-3.5c0.1-0.4,1.2-0.6,3.3-0.6h2.3c2.7,0,4.6,1.3,5.6,3.9c0.1,0.2,0.3,0.3,0.6,0.3c0.5,0,0.8-0.1,0.9-0.2
			c0-0.1-0.2-1-0.6-2.5c-0.3-1.5-0.6-2.8-0.7-3.6c-1.6,0-4.1,0.1-7.3,0.2c-3.2,0.1-5.5,0.2-6.7,0.2C203.1,0.7,201.2,0.6,199.3,0.5
			 M179.5,12.3c-2.2-5.4-3.3-8.3-3.3-8.9c0-0.4,0.2-0.7,0.6-0.9c0.4-0.2,0.8-0.4,1.2-0.5c0.4-0.1,0.7-0.1,0.9-0.1
			c0.1,0,0.2-0.2,0.2-0.6c0-0.4,0-0.7-0.1-0.8c-3.6,0.2-5.5,0.3-5.9,0.3c-0.8,0-1.9,0-3.3-0.1c-1.4-0.1-2.2-0.1-2.4-0.1
			c-0.1,0.1-0.1,0.4-0.1,0.8c0,0.4,0.1,0.7,0.2,0.7c0.4,0,1,0.1,1.7,0.3c0.7,0.2,1.1,0.5,1.3,0.9c0.4,0.8,1,2.1,1.6,3.9l8.9,22.2
			c0.2,0.3,0.4,0.4,0.7,0.4c0.7,0,1.3-0.5,1.7-1.6l9-21.1c0.8-1.9,1.4-3.1,1.9-3.8c0.3-0.4,0.8-0.7,1.5-0.9c0.6-0.2,1.1-0.3,1.5-0.3
			c0.1,0,0.1-0.2,0.1-0.7c0-0.3,0-0.5-0.1-0.7c-0.4,0-1.1,0.1-2.1,0.2c-1,0.1-1.9,0.1-2.6,0.1c-0.7,0-1.6,0-2.7-0.1
			c-1.1-0.1-1.8-0.1-2.1-0.1c-0.1,0.1-0.1,0.4-0.1,0.8c0,0.4,0,0.6,0.2,0.6c0.7,0,1.4,0.1,2.1,0.4c0.7,0.3,1,0.7,1,1.2
			c0,0.6-0.3,1.6-0.9,3l-6.3,15c0,0.1-0.2-0.3-0.6-1 M156.9,23.3c0,1.5-0.1,2.7-0.3,3.6c-0.1,0.2-0.5,0.4-1.2,0.7
			c-0.7,0.2-1.3,0.3-1.6,0.3c-0.1,0-0.2,0.3-0.2,0.8c0,0.3,0.1,0.5,0.2,0.6c0.5,0,1.1-0.1,1.8-0.1c0.8,0,1.5-0.1,2.1-0.1
			c0.6,0,1.2,0,1.8,0c0.2,0,2,0.1,5.5,0.3c0.1-0.2,0.1-0.4,0.1-0.6c0-0.5-0.1-0.8-0.2-0.8c-0.3,0-0.8-0.1-1.5-0.3
			c-0.7-0.2-1.1-0.4-1.2-0.6c-0.3-1-0.4-2.3-0.4-3.9V6.7c0-1.6,0.1-2.9,0.3-3.8c0.1-0.2,0.5-0.4,1.3-0.7c0.8-0.2,1.3-0.3,1.6-0.3
			c0.1,0,0.2-0.2,0.2-0.7c0-0.2,0-0.4-0.1-0.7c-3.5,0.2-5.3,0.3-5.6,0.3c-0.8,0-1.9,0-3.4-0.1s-2.3-0.1-2.4-0.1
			c-0.1,0.1-0.1,0.3-0.1,0.8c0,0.4,0.1,0.7,0.2,0.7c0.3,0,0.9,0.1,1.6,0.3c0.7,0.2,1.1,0.4,1.2,0.7c0.2,0.7,0.3,1.9,0.3,3.6V23.3z
			 M133.2,5.1c-1.5-2-2.5-3.6-3-4.6c-1.6,0.1-3,0.2-3.9,0.2c-0.4,0-2.1-0.1-5.2-0.2c-0.1,0.1-0.2,0.4-0.2,0.8c0,0.4,0.1,0.7,0.2,0.7
			c0.4,0,1,0.1,1.9,0.3c0.9,0.2,1.4,0.4,1.5,0.6c0.3,0.6,0.5,1.6,0.5,3.2v17c0,1.8-0.1,3-0.4,3.6c-0.2,0.4-0.8,0.8-1.6,1
			c-0.8,0.2-1.5,0.3-2,0.3c-0.1,0-0.2,0.2-0.2,0.7c0,0.4,0.1,0.6,0.2,0.7c0.4,0,1.1-0.1,2.3-0.2c1.1-0.1,2.1-0.1,2.9-0.1
			c0.1,0,2,0.1,5.4,0.3c0.1-0.1,0.1-0.4,0.1-0.8c0-0.4-0.1-0.6-0.2-0.6c-0.4,0-1-0.1-2-0.4c-0.9-0.2-1.5-0.5-1.6-0.9
			c-0.2-0.6-0.3-1.8-0.3-3.6V5.5l17.3,22.9c0.5,0.7,0.9,1,1.4,1c0.5,0,0.8-0.1,1-0.2c-0.1-3-0.2-5-0.2-6.1V6.7
			c0-1.6,0.2-2.8,0.5-3.6c0.3-0.4,0.8-0.7,1.6-0.9c0.8-0.2,1.5-0.3,1.9-0.3c0.1,0,0.2-0.2,0.2-0.7c0-0.3,0-0.6-0.1-0.7
			c-0.3,0-1,0.1-2.2,0.2c-1.2,0.1-2.2,0.2-2.9,0.2c-0.6,0-2.4-0.1-5.5-0.3c-0.1,0.1-0.1,0.4-0.1,0.8c0,0.4,0.1,0.6,0.2,0.6
			c0.5,0,1.1,0.1,1.9,0.3c0.8,0.2,1.3,0.5,1.5,0.8c0.3,0.8,0.4,1.9,0.4,3.5v11.8c0,0.8,0,1.4-0.1,1.8 M89.1,0.4
			C89,0.5,89,0.8,89,1.2c0,0.4,0.1,0.7,0.2,0.7c0.3,0,0.9,0.1,1.6,0.3c0.7,0.2,1.1,0.4,1.2,0.7c0.2,0.6,0.3,1.8,0.3,3.6V16
			c0,4.7,1,8,3,10.1c2,2.1,4.7,3.1,8.2,3.1c1.6,0,3.1-0.2,4.4-0.7c1.3-0.4,2.4-1.1,3.5-2.1c1-0.9,1.8-2.2,2.3-3.9
			c0.5-1.6,0.8-3.6,0.8-5.8V6.6c0-1.7,0.2-2.9,0.5-3.6c0.3-0.4,0.8-0.7,1.6-0.9s1.5-0.3,1.9-0.3c0.1,0,0.2-0.2,0.2-0.7
			c0-0.3,0-0.5-0.1-0.7c-0.3,0-1,0.1-2.2,0.2c-1.2,0.1-2.2,0.2-2.9,0.2c-0.5,0-2.3-0.1-5.5-0.3c-0.1,0.1-0.1,0.4-0.1,0.8
			c0,0.4,0.1,0.6,0.2,0.6c0.4,0,1,0.1,1.8,0.4c0.9,0.2,1.4,0.5,1.5,0.8c0.3,0.5,0.4,1.7,0.4,3.5V17c0,3.4-0.7,5.8-2,7.3
			c-1.3,1.5-3.1,2.2-5.4,2.2c-2.3,0-4.1-0.9-5.4-2.7c-1.3-1.8-1.9-4.2-1.9-7.1v-10c0-1.7,0.1-3,0.3-3.8c0-0.2,0.4-0.5,1.2-0.7
			c0.8-0.2,1.3-0.3,1.6-0.3c0.1,0,0.2-0.2,0.2-0.7c0-0.2,0-0.5-0.1-0.7c-3.2,0.2-5,0.3-5.6,0.3C94.7,0.7,92.8,0.6,89.1,0.4"/>
		<path class="st0" d="M37.1,62.6c0-1.1,0.6-1.8,1.3-1.7c0.5,0.1,1.3,0.3,1.8-0.3c0.5,1.2-0.7,1.2-0.5,2.7c0.1,0.9,1.1,1.8,2.2,1.6
			c-1-0.5-1.3-1.4-0.8-2c0.3-0.4,0.9-1,0.6-1.7c1.3,0.2,0.7,1.2,2.1,1.7c0.9,0.3,2.1-0.1,2.5-1.1c-0.9,0.6-1.9,0.4-2.1-0.3
			C44,61,43.7,60.2,43,60.1c0.8-1,1.4,0,2.5-0.9c0.7-0.6,1-1.9,0.3-2.7c0,1.1-0.6,1.8-1.3,1.7c-0.5-0.1-1.3-0.3-1.8,0.3
			c-0.5-1.2,0.7-1.2,0.5-2.7c-0.2-0.9-1.1-1.8-2.2-1.6c1,0.5,1.3,1.4,0.8,2c-0.3,0.4-0.9,1-0.6,1.7c-1.3-0.1-0.7-1.2-2.1-1.7
			c-0.9-0.3-2.1,0.1-2.5,1.1c0.9-0.6,1.9-0.4,2.1,0.3c0.2,0.5,0.4,1.3,1.1,1.4c-0.8,1-1.4,0-2.5,0.9C36.7,60.4,36.5,61.7,37.1,62.6
			 M31.3,69.7c-0.8,1-1.4,0-2.5,0.9c-0.7,0.6-1,1.9-0.3,2.7c0-1.1,0.6-1.8,1.3-1.7c0.5,0.1,1.3,0.3,1.8-0.3c0.5,1.2-0.7,1.2-0.5,2.7
			c0.1,0.9,1.1,1.8,2.2,1.6c-1-0.5-1.3-1.4-0.8-2c0.3-0.4,0.9-1,0.6-1.7c1.3,0.1,0.7,1.2,2.1,1.7c0.9,0.3,2.1-0.1,2.5-1.1
			c-0.9,0.6-1.9,0.4-2.1-0.3c-0.2-0.5-0.4-1.3-1.1-1.4c0.8-1,1.4,0,2.5-0.9c0.7-0.6,1-1.9,0.3-2.7c0,1.1-0.6,1.8-1.3,1.7
			c-0.5-0.1-1.3-0.3-1.8,0.3c-0.5-1.2,0.7-1.2,0.5-2.7c-0.1-0.9-1.1-1.8-2.2-1.6c1,0.5,1.3,1.4,0.8,2c-0.3,0.4-0.9,1-0.6,1.7
			c-1.3-0.1-0.7-1.2-2.1-1.7C29.6,66.6,28.4,67,28,68c0.9-0.6,1.9-0.4,2.1,0.3C30.3,68.8,30.6,69.6,31.3,69.7 M22.4,58.9
			c-0.8,1-1.4,0-2.5,0.9c-0.7,0.6-1,1.9-0.3,2.7c0-1.1,0.6-1.8,1.3-1.7c0.5,0.1,1.3,0.3,1.8-0.3c0.5,1.2-0.7,1.2-0.5,2.7
			c0.1,0.9,1.1,1.8,2.2,1.6c-1-0.5-1.3-1.4-0.8-2c0.3-0.4,0.9-1,0.6-1.7c1.3,0.1,0.7,1.2,2.1,1.7c0.9,0.3,2.1-0.1,2.5-1.1
			c-0.9,0.6-1.9,0.4-2.1-0.3c-0.2-0.5-0.4-1.3-1.1-1.4c0.8-1,1.4,0,2.5-0.9c0.7-0.6,1-1.9,0.3-2.7c0,1.1-0.6,1.8-1.3,1.7
			c-0.5-0.1-1.3-0.3-1.8,0.3c-0.5-1.2,0.7-1.2,0.5-2.7c-0.1-0.9-1.1-1.8-2.2-1.6c1,0.5,1.3,1.4,0.8,2c-0.3,0.4-0.9,1-0.6,1.7
			c-1.3-0.1-0.7-1.2-2.1-1.7c-0.9-0.3-2.1,0.1-2.5,1.1c0.9-0.6,1.9-0.4,2.1,0.3C21.5,58,21.7,58.8,22.4,58.9 M47.2,38.2
			c0.4,0.7,1,0.7,1,0.7s0.3,1.1,1.4,1.3c0.5,0.1,0.9-0.2,0.9-0.2s0.3,0.8,1.4,0.8c0.3,0,0.5-0.1,0.7-0.1c0.6-0.2,0.7-0.7,0.7-0.7
			s0.3,0.3,0.9,0.2c1.1-0.2,1.4-1.3,1.4-1.3s0.6,0,1-0.7c0.8-1.3-0.9-2.6-1.1-2.7c-1-0.9-2.1-1.9-2.1-1.9l1.3-1.1
			c0.1-0.1,0.1-0.2,0.1-0.4c0-0.1-0.1-0.2-0.3-0.2l-1.7,0c-0.1-0.3-0.5-0.6-0.8-0.6s-0.7,0.2-0.8,0.6l-1.6,0c-0.1,0-0.2,0.1-0.3,0.2
			c0,0.1,0,0.3,0.1,0.4l1.3,1.1c0,0-1.1,1-2.2,1.9C48.2,35.7,46.5,36.9,47.2,38.2 M28.1,38.2c0.4,0.7,1,0.7,1,0.7s0.3,1.1,1.4,1.3
			c0.5,0.1,0.9-0.2,0.9-0.2s0.3,0.8,1.4,0.8c0.3,0,0.5-0.1,0.7-0.1c0.5-0.2,0.7-0.7,0.7-0.7s0.3,0.3,0.9,0.2
			c1.1-0.2,1.4-1.3,1.4-1.3s0.6,0,1-0.7c0.8-1.3-0.9-2.6-1.1-2.7c-1-0.9-2.1-1.9-2.1-1.9l1.3-1.1c0.1-0.1,0.1-0.2,0.1-0.4
			c0-0.1-0.1-0.2-0.3-0.2l-1.7,0c-0.1-0.3-0.5-0.6-0.8-0.6c-0.4,0-0.7,0.2-0.8,0.6l-1.6,0c-0.1,0-0.2,0.1-0.3,0.2
			c0,0.1,0,0.3,0.1,0.4l1.3,1.1c0,0-1.1,1-2.2,1.9C29,35.7,27.3,36.9,28.1,38.2 M12.2,33.6c0,0-1.1,1-2.2,1.9
			c-0.2,0.2-1.9,1.4-1.1,2.7c0.4,0.7,1,0.7,1,0.7s0.3,1.1,1.4,1.3c0.5,0.1,0.9-0.2,0.9-0.2s0.3,0.8,1.4,0.8c0.3,0,0.5-0.1,0.7-0.1
			c0.5-0.2,0.7-0.7,0.7-0.7s0.3,0.3,0.9,0.2c1.1-0.2,1.4-1.3,1.4-1.3s0.6,0,1-0.7c0.8-1.3-0.9-2.6-1.1-2.7c-1-0.9-2.1-1.9-2.1-1.9
			l1.3-1.1c0.1-0.1,0.1-0.2,0.1-0.4c0-0.1-0.1-0.2-0.3-0.2l-1.7,0c-0.1-0.3-0.5-0.6-0.8-0.6c-0.4,0-0.7,0.2-0.8,0.6l-1.6,0
			c-0.1,0-0.2,0.1-0.3,0.2c0,0.1,0,0.3,0.1,0.4L12.2,33.6z M20,9.4c0.8-1,1.4,0,2.5-0.9c0.7-0.6,1-1.9,0.3-2.7
			c0,1.1-0.6,1.8-1.3,1.7c-0.5-0.1-1.3-0.3-1.8,0.3c-0.5-1.2,0.7-1.2,0.5-2.7c-0.1-0.9-1.1-1.8-2.2-1.6c1,0.5,1.3,1.4,0.8,2
			c-0.3,0.4-0.9,1-0.6,1.7C17,7,17.6,6,16.2,5.4c-0.9-0.3-2.1,0.1-2.5,1.1c0.9-0.6,1.9-0.4,2.1,0.3C16,7.3,16.2,8.1,17,8.2
			c-0.8,1-1.4,0-2.5,0.9c-0.7,0.6-1,1.9-0.3,2.7c0-1.1,0.6-1.8,1.3-1.7c0.5,0.1,1.3,0.3,1.8-0.3c0.5,1.2-0.7,1.2-0.5,2.7
			c0.2,0.9,1.1,1.8,2.2,1.6c-1-0.5-1.3-1.4-0.8-2c0.3-0.4,0.9-1,0.6-1.7c1.3,0.2,0.7,1.2,2.1,1.7c0.9,0.3,2.1-0.1,2.5-1.1
			c-0.9,0.6-1.9,0.4-2.1-0.3C20.9,10.3,20.7,9.5,20,9.4 M34.4,9.4c0.8-1,1.4,0,2.5-0.9c0.7-0.6,1-1.9,0.3-2.7c0,1.1-0.6,1.8-1.3,1.7
			c-0.5-0.1-1.3-0.3-1.8,0.3c-0.5-1.2,0.7-1.2,0.5-2.7c-0.2-0.9-1.1-1.8-2.2-1.6c1,0.5,1.3,1.4,0.8,2c-0.3,0.4-0.9,1-0.6,1.7
			C31.4,7,32,6,30.6,5.4c-0.9-0.3-2.1,0.1-2.5,1.1C29,5.9,30,6.1,30.2,6.8c0.2,0.5,0.4,1.3,1.1,1.4c-0.8,1-1.4,0-2.5,0.9
			c-0.7,0.6-1,1.9-0.3,2.7c0-1.1,0.6-1.8,1.3-1.7c0.5,0.1,1.3,0.3,1.8-0.3c0.5,1.2-0.7,1.2-0.5,2.7c0.2,0.9,1.1,1.8,2.2,1.6
			c-1-0.5-1.3-1.4-0.8-2c0.3-0.4,0.9-1,0.6-1.7c1.3,0.2,0.7,1.2,2.1,1.7c0.9,0.3,2.1-0.1,2.5-1.1c-0.9,0.6-1.9,0.4-2.1-0.3
			C35.4,10.3,35.2,9.5,34.4,9.4 M49.4,9.4c0.8-1,1.4,0,2.5-0.9c0.7-0.6,1-1.9,0.3-2.7c0,1.1-0.6,1.8-1.3,1.7
			c-0.5-0.1-1.3-0.3-1.8,0.3c-0.5-1.2,0.7-1.2,0.5-2.7c-0.1-0.9-1.1-1.8-2.2-1.6c1,0.5,1.3,1.4,0.8,2c-0.3,0.4-0.9,1-0.6,1.7
			C46.4,7,47,6,45.6,5.4c-0.9-0.3-2.1,0.1-2.5,1.1c0.9-0.6,1.9-0.4,2.1,0.3c0.2,0.5,0.4,1.3,1.1,1.4c-0.8,1-1.4,0-2.5,0.9
			c-0.7,0.6-1,1.9-0.3,2.7c0-1.1,0.6-1.8,1.3-1.7c0.5,0.1,1.3,0.3,1.8-0.3c0.5,1.2-0.7,1.2-0.5,2.7c0.1,0.9,1.1,1.8,2.2,1.6
			c-1-0.5-1.3-1.4-0.8-2c0.3-0.4,0.9-1,0.6-1.7c1.3,0.2,0.7,1.2,2.1,1.7c0.9,0.3,2.1-0.1,2.5-1.1c-0.9,0.6-1.9,0.4-2.1-0.3
			C50.4,10.3,50.2,9.5,49.4,9.4 M64.1,17c0,0-4,2.8-8.5,2.8c-8.7,0-9.8-4.1-17-4.1c-3.1,0-5.7,2.3-5.7,2.3c0,0-2.6-2.3-5.7-2.3
			c-7.2,0-8.3,4.1-17,4.1c-4.5,0-8.5-2.8-8.5-2.8v-3.1c0.3,0.2,0.7,0.3,1.1,0.2c-1-0.5-1.3-1.4-0.8-2c0.3-0.4,0.9-1,0.6-1.7
			c1.3,0.2,0.7,1.2,2.1,1.7c0.9,0.3,2.1-0.1,2.5-1.1c-0.9,0.6-1.9,0.4-2.1-0.3c-0.2-0.5-0.4-1.3-1.1-1.4c0.8-1,1.4,0,2.5-0.9
			c0.7-0.6,1-1.9,0.3-2.7c0,1.1-0.6,1.8-1.3,1.7C4.9,7.4,4.1,7.2,3.6,7.8C3.1,6.6,4.3,6.6,4.1,5.1C3.9,4.2,3,3.3,1.9,3.5
			c1,0.5,1.3,1.4,0.8,2c-0.3,0.4-0.9,1-0.6,1.7C1.9,7.1,1.7,7.1,1.6,7V1.6h62.5v2.1c-0.4-0.2-0.8-0.3-1.2-0.3c1,0.5,1.3,1.4,0.8,2
			c-0.3,0.4-0.9,1-0.6,1.7C61.8,7,62.4,6,61,5.4c-0.9-0.3-2.1,0.1-2.5,1.1c0.9-0.6,1.9-0.4,2.1,0.3c0.2,0.5,0.4,1.3,1.1,1.4
			c-0.8,1-1.4,0-2.5,0.9c-0.7,0.6-1,1.9-0.3,2.7c0-1.1,0.6-1.8,1.3-1.7c0.5,0.1,1.3,0.3,1.8-0.3c0.5,1.2-0.7,1.2-0.5,2.7
			c0.1,0.9,1.1,1.8,2.2,1.6c-1-0.5-1.3-1.4-0.8-2c0.3-0.4,0.9-1,0.6-1.7c0.2,0,0.4,0.1,0.5,0.2V17z M32.5,44
			c-4.9-2.8-8.7-2.8-13.9,0c-2.6,1.4-5.4,2.1-8.1,2.1c-2.1,0-4.4-0.5-6.4-1.3c-1.2-3.8-2-8-2.4-12.6c-0.1-2.2-0.1-4-0.1-5.7
			c5.4,2.7,10.6,2.9,16.3,0.7c5.5-2,10.1-2.5,14.8,1.5h0c4.8-4,9.4-3.5,14.8-1.5c5.8,2.1,11,1.9,16.5-0.8c0,1.6-0.1,3.5-0.1,5.7
			c-0.4,4.5-1.2,8.7-2.3,12.5c-2.1,0.9-4.3,1.4-6.5,1.4c-2.7,0-5.5-0.7-8.1-2.1c-5.3-2.8-9.1-2.8-13.9,0l-0.2,0.1 M8.3,55
			c3.2,0.3,7.2-0.2,10.3-1.5c6.4-2.7,10.6-2.6,14.1,0.2c3.6-2.8,7.7-2.9,14.1-0.2c3.2,1.3,7.3,1.9,10.5,1.5
			c-4.1,7.6-9.4,13.3-14.7,17.5c-3.5,2.8-6.9,4.9-9.9,6.5C25.5,75.1,15.1,67.7,8.3,55 M65.7,17.4V0H0v17.3c0,5.6,0,8.4,0.2,15
			c2.4,28.4,20.9,42.4,32.7,48.5c11.7-6.1,30.3-20.2,32.7-48.5C65.7,25.8,65.7,23,65.7,17.4"/>
	</g>
</g>
</svg>
