<?xml version="1.0" encoding="utf-8"?>
<!-- Generator: Adobe Illustrator 20.1.0, SVG Export Plug-In . SVG Version: 6.00 Build 0)  -->
<svg version="1.1" id="Layer_1" xmlns="http://www.w3.org/2000/svg" xmlns:xlink="http://www.w3.org/1999/xlink" x="0px" y="0px"
	 viewBox="0 0 170.1 34.5" style="enable-background:new 0 0 170.1 34.5;" xml:space="preserve">
<style type="text/css">
	.st0{clip-path:url(#SVGID_2_);fill:#FFFFFF;}
	.st1{clip-path:url(#SVGID_4_);fill:#FFFFFF;}
	.st2{clip-path:url(#SVGID_6_);fill:#FFFFFF;}
	.st3{clip-path:url(#SVGID_8_);fill:#FFFFFF;}
	.st4{clip-path:url(#SVGID_10_);fill:#FFFFFF;}
	.st5{clip-path:url(#SVGID_12_);fill:#FFFFFF;}
	.st6{clip-path:url(#SVGID_14_);fill:#FFFFFF;}
	.st7{clip-path:url(#SVGID_16_);fill:#FFFFFF;}
	.st8{clip-path:url(#SVGID_18_);fill:#FFFFFF;}
	.st9{clip-path:url(#SVGID_20_);fill:#FFFFFF;}
	.st10{clip-path:url(#SVGID_22_);fill:#FFFFFF;}
	.st11{clip-path:url(#SVGID_24_);fill:#FFFFFF;}
	.st12{clip-path:url(#SVGID_26_);fill:#FFFFFF;}
	.st13{clip-path:url(#SVGID_28_);fill:#FFFFFF;}
	.st14{clip-path:url(#SVGID_30_);fill:#FFFFFF;}
	.st15{clip-path:url(#SVGID_32_);fill:#FFFFFF;}
	.st16{clip-path:url(#SVGID_34_);fill:#FFFFFF;}
	.st17{clip-path:url(#SVGID_36_);fill:#FFFFFF;}
	.st18{clip-path:url(#SVGID_38_);fill:#FFFFFF;}
	.st19{clip-path:url(#SVGID_40_);fill:#FFFFFF;}
	.st20{clip-path:url(#SVGID_42_);fill:#FFFFFF;}
	.st21{clip-path:url(#SVGID_44_);fill:#FFFFFF;}
	.st22{clip-path:url(#SVGID_46_);fill:#FFFFFF;}
	.st23{clip-path:url(#SVGID_48_);fill:#FFFFFF;}
	.st24{clip-path:url(#SVGID_50_);fill:#FFFFFF;}
</style>
<g>
	<g>
		<defs>
			<rect id="SVGID_1_" y="0" width="170.1" height="34.5"/>
		</defs>
		<clipPath id="SVGID_2_">
			<use xlink:href="#SVGID_1_"  style="overflow:visible;"/>
		</clipPath>
		<path class="st0" d="M39.3,1.1c0.2,0,1,0,2.3-0.1c0,0.1,0,0.2,0,0.3c0,0.2,0,0.3-0.1,0.3s-0.3,0-0.7,0.1c-0.3,0.1-0.5,0.2-0.5,0.3
			c-0.1,0.4-0.1,0.9-0.1,1.6v4.2c0,1.2,0.3,2.2,0.8,3c0.5,0.7,1.3,1.1,2.2,1.1s1.7-0.3,2.2-0.9c0.6-0.6,0.8-1.6,0.8-3V3.5
			c0-0.7-0.1-1.2-0.2-1.5c-0.1-0.1-0.3-0.2-0.6-0.3c-0.4-0.1-0.6-0.2-0.8-0.2c0,0-0.1-0.1-0.1-0.3s0-0.3,0-0.3C45.8,1,46.6,1,46.8,1
			c0.3,0,0.7,0,1.2-0.1C48.8,1,49.1,1,49.2,1c0,0.1,0,0.2,0,0.3c0,0.2,0,0.3-0.1,0.3c-0.2,0-0.4,0-0.8,0.1C48,1.8,47.8,2,47.7,2.1
			c-0.1,0.3-0.2,0.8-0.2,1.5v4.3c0,0.9-0.1,1.8-0.3,2.4c-0.2,0.7-0.6,1.2-1,1.6c-0.4,0.4-0.9,0.7-1.4,0.9s-1.2,0.3-1.8,0.3
			c-1.5,0-2.6-0.4-3.4-1.3c-0.8-0.9-1.3-2.3-1.3-4.2v-4c0-0.8,0-1.3-0.1-1.5c0-0.1-0.2-0.2-0.5-0.3c-0.3-0.1-0.5-0.1-0.7-0.1
			c0,0-0.1-0.1-0.1-0.3s0-0.3,0.1-0.3C38.4,1.1,39.2,1.1,39.3,1.1"/>
	</g>
	<g>
		<defs>
			<rect id="SVGID_3_" y="0" width="170.1" height="34.5"/>
		</defs>
		<clipPath id="SVGID_4_">
			<use xlink:href="#SVGID_3_"  style="overflow:visible;"/>
		</clipPath>
		<path class="st1" d="M60.1,3.5c0-0.6-0.1-1.1-0.2-1.5c-0.1-0.1-0.3-0.3-0.6-0.3c-0.3-0.1-0.6-0.1-0.8-0.1c0,0-0.1-0.1-0.1-0.3
			s0-0.3,0-0.3c1.3,0.1,2.1,0.1,2.3,0.1c0.3,0,0.7,0,1.2-0.1c0.6,0,0.9,0,1,0c0,0,0,0.1,0,0.3s0,0.3-0.1,0.3c-0.2,0-0.4,0-0.8,0.1
			c-0.4,0.1-0.6,0.2-0.7,0.4c-0.1,0.3-0.2,0.8-0.2,1.5v6.9c0,0.4,0,1.3,0.1,2.5c0,0-0.2,0.1-0.4,0.1s-0.4-0.1-0.6-0.4L53,3.1v7.4
			c0,0.7,0,1.2,0.1,1.5c0.1,0.1,0.3,0.3,0.7,0.4c0.4,0.1,0.7,0.2,0.8,0.2c0,0,0.1,0.1,0.1,0.3s0,0.3,0,0.3C53.2,13,52.5,13,52.4,13
			c-0.3,0-0.7,0-1.2,0s-0.8,0.1-1,0.1c0,0-0.1-0.2-0.1-0.3c0-0.2,0-0.3,0.1-0.3c0.2,0,0.5,0,0.8-0.1s0.6-0.2,0.7-0.4
			c0.1-0.3,0.2-0.8,0.2-1.5V3.3c0-0.7-0.1-1.1-0.2-1.3c0-0.1-0.3-0.2-0.6-0.2c-0.4-0.1-0.6-0.1-0.8-0.1c0,0-0.1-0.1-0.1-0.3
			s0-0.3,0.1-0.3c1.3,0.1,2,0.1,2.2,0.1c0.4,0,0.9,0,1.6-0.1c0.2,0.4,0.7,1.1,1.3,1.9c0.6,0.9,1.5,2,2.5,3.4
			c1.1,1.4,1.8,2.4,2.2,2.9c0-0.1,0-0.4,0-0.7C60.1,8.6,60.1,3.5,60.1,3.5z"/>
	</g>
	<g>
		<defs>
			<rect id="SVGID_5_" y="0" width="170.1" height="34.5"/>
		</defs>
		<clipPath id="SVGID_6_">
			<use xlink:href="#SVGID_5_"  style="overflow:visible;"/>
		</clipPath>
		<path class="st2" d="M65.3,3.6c0-0.7,0-1.2-0.1-1.5c0-0.1-0.2-0.2-0.5-0.3S64.1,1.6,64,1.6c0,0-0.1-0.1-0.1-0.3s0-0.3,0-0.3
			c0.1,0,0.4,0,1,0.1c0.6,0,1.1,0.1,1.4,0.1c0.1,0,0.9,0,2.3-0.1c0,0.1,0.1,0.2,0.1,0.3c0,0.2,0,0.3-0.1,0.3s-0.3,0-0.7,0.1
			C67.7,1.9,67.5,2,67.5,2c-0.1,0.4-0.1,0.9-0.1,1.6v6.8c0,0.7,0.1,1.2,0.2,1.6c0,0.1,0.2,0.2,0.5,0.3s0.5,0.1,0.6,0.1
			c0,0,0.1,0.1,0.1,0.3c0,0.1,0,0.2,0,0.3c-1.6,0-2.4,0-2.4,0c-0.2,0-0.5,0-0.8,0s-0.6,0-0.9,0s-0.6,0-0.8,0c0,0-0.1-0.1-0.1-0.3
			s0-0.3,0.1-0.3s0.4,0,0.7-0.1s0.5-0.2,0.5-0.3c0.1-0.4,0.1-0.9,0.1-1.5V3.6H65.3z"/>
	</g>
	<g>
		<defs>
			<rect id="SVGID_7_" y="0" width="170.1" height="34.5"/>
		</defs>
		<clipPath id="SVGID_8_">
			<use xlink:href="#SVGID_7_"  style="overflow:visible;"/>
		</clipPath>
		<path class="st3" d="M72,1.1c0.2,0,1,0,2.5-0.1c0,0,0.1,0.2,0.1,0.3c0,0.2,0,0.3-0.1,0.3s-0.2,0-0.4,0c-0.2,0-0.3,0.1-0.5,0.2
			S73.3,2,73.3,2.2s0.5,1.5,1.4,3.7c0.1,0.4,0.3,0.7,0.4,0.9c0.1,0.4,0.3,0.8,0.5,1.3S76,9,76.2,9.3s0.2,0.5,0.2,0.4l2.7-6.3
			c0.2-0.6,0.4-1,0.4-1.3c0-0.2-0.1-0.4-0.4-0.5s-0.6-0.2-0.9-0.2c0,0-0.1-0.1-0.1-0.3s0-0.3,0-0.3c0.1,0,0.4,0,0.9,0.1
			c0.5,0,0.9,0.1,1.1,0.1c0.3,0,0.7,0,1.1,0s0.7-0.1,0.9-0.1c0,0.1,0,0.2,0,0.3c0,0.2,0,0.3,0,0.3c-0.2,0-0.4,0-0.6,0.1
			C81.2,1.8,81,2,80.9,2.1c-0.2,0.3-0.4,0.8-0.8,1.6l-3.8,8.9c-0.2,0.4-0.4,0.7-0.7,0.7c-0.1,0-0.2-0.1-0.3-0.2l-3.7-9.3
			c-0.3-0.7-0.5-1.3-0.7-1.6c-0.1-0.2-0.3-0.3-0.6-0.4c-0.3-0.1-0.5-0.1-0.7-0.1c0,0-0.1-0.1-0.1-0.3s0-0.3,0.1-0.3s0.4,0,1,0.1
			C71.2,1.1,71.6,1.1,72,1.1"/>
	</g>
	<g>
		<defs>
			<rect id="SVGID_9_" y="0" width="170.1" height="34.5"/>
		</defs>
		<clipPath id="SVGID_10_">
			<use xlink:href="#SVGID_9_"  style="overflow:visible;"/>
		</clipPath>
		<path class="st4" d="M85.2,1.1c0.5,0,1.5,0,2.8-0.1c1.4,0,2.4,0,3.1,0c0,0.4,0.1,0.9,0.3,1.5c0.1,0.6,0.2,1,0.2,1.1
			c-0.1,0.1-0.2,0.1-0.4,0.1c-0.1,0-0.2,0-0.3-0.1C90.5,2.5,89.7,2,88.6,2h-0.9c-0.9,0-1.4,0.1-1.4,0.2c-0.1,0.3-0.1,0.8-0.1,1.5
			v2.9c0,0.1,0.3,0.1,0.8,0.1h1l0,0c0.7,0,1.1,0,1.3-0.1c0.1-0.1,0.2-0.3,0.3-0.6c0-0.2,0.1-0.3,0.1-0.5c0-0.1,0.1-0.1,0.3-0.1
			c0.2,0,0.3,0,0.3,0.1v3.4c0,0-0.2,0.1-0.3,0.1c-0.2,0-0.3,0-0.3-0.1c-0.1-0.3-0.2-0.6-0.2-0.7C89.4,8,89.4,8,89.4,7.9
			c0,0-0.1,0-0.2-0.1c-0.2-0.1-0.7-0.1-1.7-0.1c-0.9,0-1.3,0-1.3,0.1v2.8c0,0.7,0.1,1.2,0.2,1.5c0.1,0.2,0.5,0.2,1.2,0.2h0.7
			c0.9,0,1.7-0.1,2.2-0.4c0.2-0.1,0.4-0.3,0.7-0.6c0.2-0.3,0.4-0.7,0.6-1.1c0-0.1,0.1-0.1,0.3-0.1c0.3,0,0.4,0,0.5,0.1
			c0,0.1-0.1,0.4-0.3,0.7c-0.1,0.4-0.2,0.7-0.3,0.9c-0.1,0.2-0.2,0.4-0.2,0.7c-0.1,0.3-0.1,0.5-0.2,0.7c-0.5,0-1.5,0-3-0.1
			c-1.5,0-2.6,0-3.2,0L83,13.2c0,0-0.1-0.1-0.1-0.3s0-0.3,0.1-0.3c0.2,0,0.4,0,0.7-0.1c0.3-0.1,0.5-0.2,0.5-0.3
			c0.1-0.3,0.1-0.8,0.1-1.7V3.6c0-0.7,0-1.2-0.1-1.5c0-0.1-0.2-0.2-0.5-0.3c-0.3-0.1-0.5-0.1-0.7-0.1c0,0-0.1-0.1-0.1-0.3
			s0-0.3,0.1-0.3C83.6,1.1,84.4,1.1,85.2,1.1"/>
	</g>
	<g>
		<defs>
			<rect id="SVGID_11_" y="0" width="170.1" height="34.5"/>
		</defs>
		<clipPath id="SVGID_12_">
			<use xlink:href="#SVGID_11_"  style="overflow:visible;"/>
		</clipPath>
		<path class="st5" d="M98.1,2c-0.5,0-0.9,0-1.1,0.1c0,0.1-0.1,0.7-0.1,1.9v2.1c0,0.3,0.1,0.4,0.3,0.5c0.2,0.1,0.5,0.1,0.9,0.1h0.5
			c0.4,0,0.9-0.2,1.2-0.6c0.4-0.4,0.5-1,0.5-1.7C100.3,2.8,99.5,2,98.1,2 M98.4,1.1c0.3,0,0.6,0,1,0.1c0.3,0.1,0.7,0.2,1.1,0.3
			c0.4,0.2,0.7,0.4,1,0.6s0.5,0.5,0.7,0.9s0.3,0.8,0.3,1.3c0,0.7-0.2,1.3-0.6,1.9s-0.9,1-1.5,1.2c-0.1,0-0.1,0.1-0.1,0.2
			c0.7,1.2,1.4,2.3,2,3.1c0.4,0.5,0.9,1,1.4,1.3c0.5,0.4,0.9,0.6,1.4,0.6c0,0.1,0.1,0.2,0.1,0.3s0,0.2-0.1,0.3c-0.1,0-0.3,0-0.6,0
			c-0.6,0-1.2-0.1-1.7-0.2c-0.5-0.1-0.9-0.4-1.3-0.6c-0.4-0.3-0.7-0.6-0.9-0.8c-0.2-0.3-0.5-0.6-0.8-1c-0.2-0.2-0.4-0.5-0.6-0.9
			c-0.2-0.3-0.4-0.6-0.5-0.8s-0.2-0.4-0.4-0.6S98,8,97.9,7.9s-0.2-0.2-0.3-0.2c-0.1,0-0.2-0.1-0.4-0.1c-0.2,0-0.3,0.1-0.3,0.3v2.6
			c0,0.7,0,1.2,0.1,1.5c0,0.1,0.2,0.3,0.6,0.4c0.4,0.1,0.6,0.1,0.8,0.1c0,0,0.1,0.1,0.1,0.3c0,0.1,0,0.2,0,0.3
			C97.2,13,96.3,13,95.9,13c-0.3,0-0.7,0-1.1,0s-0.7,0-1,0h-0.4c0,0-0.1-0.2-0.1-0.3c0-0.2,0-0.3,0.1-0.3c0.2,0,0.4,0,0.7-0.1
			c0.3-0.1,0.5-0.2,0.5-0.3c0.1-0.2,0.1-0.8,0.1-1.7V3.6c0-0.7,0-1.2-0.1-1.5c0-0.1-0.2-0.2-0.5-0.3c-0.3-0.1-0.6-0.2-0.7-0.2
			c0,0-0.1-0.1-0.1-0.3s0-0.3,0.1-0.3c1.3,0,2.1,0.1,2.4,0.1s0.8,0,1.3,0C97.6,1.1,98.1,1.1,98.4,1.1"/>
	</g>
	<g>
		<defs>
			<rect id="SVGID_13_" y="0" width="170.1" height="34.5"/>
		</defs>
		<clipPath id="SVGID_14_">
			<use xlink:href="#SVGID_13_"  style="overflow:visible;"/>
		</clipPath>
		<path class="st6" d="M105.6,4.1c0-0.9,0.4-1.7,1.1-2.3c0.8-0.6,1.6-0.9,2.6-0.9c0.3,0,0.6,0,0.9,0.1c0.3,0,0.6,0.1,1.1,0.2
			s0.8,0.2,0.9,0.2c0.1,0.8,0.2,1.8,0.2,2.8c0,0.1-0.1,0.2-0.2,0.2c-0.3,0-0.5-0.1-0.5-0.2c-0.1-0.6-0.3-1.1-0.8-1.6
			c-0.4-0.5-1-0.8-1.6-0.8s-1,0.2-1.3,0.5s-0.4,0.7-0.4,1.3c0,0.2,0,0.4,0.1,0.5c0,0.2,0.1,0.3,0.3,0.5c0.1,0.2,0.2,0.3,0.3,0.4
			c0.1,0.1,0.2,0.2,0.5,0.4c0.2,0.2,0.4,0.3,0.5,0.3c0.1,0.1,0.3,0.2,0.5,0.4c0.3,0.2,0.5,0.3,0.5,0.3c0.1,0.1,0.3,0.2,0.6,0.4
			c0.3,0.2,0.6,0.3,0.7,0.4s0.3,0.2,0.6,0.5c0.3,0.2,0.4,0.4,0.6,0.6s0.2,0.4,0.3,0.7c0.1,0.3,0.1,0.6,0.1,1c0,1-0.4,1.8-1.2,2.4
			c-0.8,0.6-1.7,0.9-2.7,0.9c-0.7,0-1.8-0.2-3.3-0.5c-0.1-0.4-0.2-1-0.3-1.6c-0.1-0.7-0.1-1.1-0.1-1.3c0-0.1,0.1-0.1,0.3-0.1
			c0.3,0,0.5,0,0.5,0.1c0,0.2,0.1,0.5,0.3,0.7c0.1,0.3,0.3,0.5,0.5,0.8s0.5,0.5,0.9,0.7s0.8,0.3,1.2,0.3c0.6,0,1-0.2,1.4-0.5
			s0.6-0.8,0.6-1.5c0-0.2,0-0.4-0.1-0.6c-0.1-0.2-0.2-0.4-0.3-0.5c-0.1-0.1-0.3-0.3-0.5-0.4c-0.2-0.2-0.4-0.3-0.5-0.4
			c-0.1-0.1-0.3-0.2-0.6-0.4c-0.3-0.2-0.4-0.3-0.6-0.3c0,0-0.1-0.1-0.2-0.1c-0.4-0.2-0.6-0.4-0.8-0.5c-0.2-0.1-0.4-0.3-0.7-0.5
			c-0.3-0.2-0.5-0.5-0.6-0.7s-0.3-0.5-0.4-0.8C105.6,4.8,105.6,4.5,105.6,4.1"/>
	</g>
	<g>
		<defs>
			<rect id="SVGID_15_" y="0" width="170.1" height="34.5"/>
		</defs>
		<clipPath id="SVGID_16_">
			<use xlink:href="#SVGID_15_"  style="overflow:visible;"/>
		</clipPath>
		<path class="st7" d="M115.9,3.6c0-0.7,0-1.2-0.1-1.5c0-0.1-0.2-0.2-0.5-0.3s-0.5-0.1-0.7-0.1c0,0-0.1-0.1-0.1-0.3s0-0.3,0-0.3
			c0.1,0,0.4,0,1,0.1c0.6,0,1.1,0.1,1.4,0.1c0.1,0,0.9,0,2.3-0.1c0,0.1,0.1,0.2,0.1,0.3c0,0.2,0,0.3-0.1,0.3s-0.3,0-0.7,0.1
			C118.2,2,118,2.1,118,2.2c-0.1,0.4-0.1,0.9-0.1,1.6v6.8c0,0.7,0.1,1.2,0.2,1.6c0,0.1,0.2,0.2,0.5,0.3s0.5,0.1,0.6,0.1
			c0,0,0.1,0.1,0.1,0.3c0,0.1,0,0.2,0,0.3C117.8,13,117,13,117,13c-0.2,0-0.5,0-0.8,0s-0.6,0-0.9,0s-0.6,0-0.8,0
			c0,0-0.1-0.1-0.1-0.3s0-0.3,0.1-0.3s0.4,0,0.7-0.1c0.3-0.1,0.5-0.2,0.5-0.3c0.1-0.4,0.1-0.9,0.1-1.5V3.6H115.9z"/>
	</g>
	<g>
		<defs>
			<rect id="SVGID_17_" y="0" width="170.1" height="34.5"/>
		</defs>
		<clipPath id="SVGID_18_">
			<use xlink:href="#SVGID_17_"  style="overflow:visible;"/>
		</clipPath>
		<path class="st8" d="M123.9,1.1c0.8,0,1.5,0,2,0s1.2,0,2,0c0.8,0,1.5-0.1,2-0.1c0.3,0,0.7-0.1,1.3-0.2l0.3,2.8
			c-0.1,0.1-0.2,0.1-0.5,0.1c-0.1,0-0.2,0-0.2-0.1c-0.2-0.7-0.4-1.1-0.7-1.4c-0.3-0.2-0.7-0.4-1.3-0.4c-1.1,0-1.7,0.1-1.8,0.3
			c-0.1,0.4-0.2,0.9-0.2,1.7v6.6c0,0.7,0.1,1.2,0.2,1.6c0,0.1,0.2,0.2,0.5,0.3s0.5,0.1,0.6,0.1c0,0,0.1,0.1,0.1,0.3
			c0,0.1,0,0.2,0,0.3c-0.2,0-0.4,0-0.7-0.1c-0.3,0-0.6,0-0.9-0.1c-0.3,0-0.5,0-0.8,0s-0.8,0-1.4,0.1c-0.6,0-0.9,0.1-1.1,0.1
			c0,0-0.1-0.1-0.1-0.3s0-0.3,0.1-0.3s0.4,0,0.7-0.1c0.3-0.1,0.5-0.2,0.5-0.3c0.1-0.3,0.1-0.8,0.1-1.5V4c0-1-0.1-1.6-0.2-1.8
			s-0.7-0.3-1.7-0.3c-0.6,0-1,0.1-1.3,0.4c-0.3,0.2-0.5,0.7-0.7,1.3c0,0.1-0.1,0.1-0.2,0.1c-0.2,0-0.4,0-0.5-0.1l0.3-2.8
			c0.5,0.1,1,0.2,1.3,0.2C122.4,1,123.1,1.1,123.9,1.1"/>
	</g>
	<g>
		<defs>
			<rect id="SVGID_19_" y="0" width="170.1" height="34.5"/>
		</defs>
		<clipPath id="SVGID_20_">
			<use xlink:href="#SVGID_19_"  style="overflow:visible;"/>
		</clipPath>
		<path class="st9" d="M134.8,1.1c0.2,0,1.1,0,2.5-0.1c0,0,0,0.2,0,0.3c0,0.2,0,0.3-0.1,0.3c-0.2,0-0.4,0-0.7,0.1
			c-0.2,0.1-0.4,0.2-0.4,0.4c0,0.1,0.1,0.3,0.2,0.5l1.9,3.5c0.1,0.1,0.1,0,0.2,0c0.5-0.8,1-1.6,1.5-2.4s0.7-1.3,0.7-1.6
			c0-0.1-0.1-0.3-0.3-0.4s-0.5-0.2-0.9-0.2c0,0-0.1-0.1-0.1-0.3s0-0.3,0.1-0.3c1.2,0.1,2,0.1,2.2,0.1c0.3,0,0.5,0,0.8,0
			c0.2,0,0.5,0,0.7,0s0.4,0,0.6,0c0,0.1,0,0.2,0,0.3c0,0.2,0,0.3-0.1,0.3c-0.2,0-0.4,0.1-0.8,0.2c-0.3,0.1-0.6,0.3-0.7,0.4
			c-0.4,0.5-1,1.5-1.9,3s-1.4,2.3-1.4,2.4v2.8c0,0.7,0,1.3,0.1,1.6c0,0.1,0.2,0.2,0.5,0.3s0.5,0.2,0.6,0.2c0,0,0.1,0.1,0.1,0.3
			c0,0.1,0,0.2,0,0.3c-0.2,0-0.4,0-0.7-0.1c-0.3,0-0.6,0-0.8-0.1c-0.3,0-0.5,0-0.7,0c-0.3,0-0.8,0-1.3,0.1c-0.6,0-0.9,0.1-1,0.1
			c0,0-0.1-0.1-0.1-0.3s0-0.3,0.1-0.3s0.4,0,0.7-0.1s0.5-0.2,0.5-0.3c0.1-0.4,0.1-0.9,0.1-1.6V7.8c0-0.1,0-0.2-0.1-0.4
			c-0.1-0.2-0.2-0.4-0.4-0.8s-0.4-0.7-0.5-0.9c-0.1-0.3-0.4-0.7-0.7-1.3s-0.6-1-0.7-1.3c-0.4-0.7-0.7-1.1-0.9-1.3
			c-0.1-0.1-0.3-0.2-0.5-0.2c-0.2-0.1-0.4-0.1-0.5-0.1c0,0-0.1-0.1-0.1-0.2s0-0.2,0-0.3C132.7,1.1,133.5,1.1,134.8,1.1"/>
	</g>
	<g>
		<defs>
			<rect id="SVGID_21_" y="0" width="170.1" height="34.5"/>
		</defs>
		<clipPath id="SVGID_22_">
			<use xlink:href="#SVGID_21_"  style="overflow:visible;"/>
		</clipPath>
		<path class="st10" d="M153.7,1.8c-1,0-1.8,0.5-2.4,1.4c-0.6,1-0.8,2.1-0.8,3.4c0,0.9,0.1,1.8,0.4,2.6c0.2,0.8,0.7,1.5,1.3,2.1
			c0.6,0.6,1.3,0.9,2.1,0.9c1,0,1.8-0.5,2.4-1.4c0.6-1,0.8-2.1,0.8-3.4c0-0.9-0.1-1.8-0.4-2.6c-0.2-0.8-0.7-1.5-1.3-2.1
			C155.3,2.1,154.6,1.8,153.7,1.8 M149.9,11.4c-1.1-1.2-1.7-2.6-1.7-4.3s0.6-3.1,1.7-4.4c1.1-1.2,2.5-1.8,4.1-1.8s3,0.6,4.1,1.8
			s1.7,2.7,1.7,4.4s-0.6,3.1-1.7,4.3c-1.1,1.2-2.5,1.8-4.1,1.8S151,12.6,149.9,11.4"/>
	</g>
	<g>
		<defs>
			<rect id="SVGID_23_" y="0" width="170.1" height="34.5"/>
		</defs>
		<clipPath id="SVGID_24_">
			<use xlink:href="#SVGID_23_"  style="overflow:visible;"/>
		</clipPath>
		<path class="st11" d="M163.3,13c-0.4,0-0.8,0-1.2,0s-0.7,0-1,0.1h-0.4c0,0-0.1-0.1-0.1-0.3s0-0.3,0.1-0.3c0.2,0,0.4,0,0.7-0.1
			s0.5-0.2,0.5-0.3c0.1-0.3,0.1-0.8,0.1-1.7V3.6c0-0.7,0-1.2-0.1-1.5c0-0.1-0.2-0.2-0.5-0.3c-0.3-0.1-0.5-0.1-0.7-0.1
			c0,0-0.1-0.1-0.1-0.3s0-0.3,0.1-0.3c0.8,0,1.6,0.1,2.4,0.1c0.6,0,1.5,0,2.9-0.1c1.4,0,2.4-0.1,3-0.1c0,0.4,0.1,0.9,0.3,1.5
			c0.1,0.6,0.2,1,0.2,1.1c-0.1,0.1-0.2,0.1-0.4,0.1c-0.1,0-0.2,0-0.3-0.1c-0.4-1.1-1.2-1.6-2.3-1.6h-0.9c-0.9,0-1.4,0.1-1.4,0.2
			c-0.1,0.3-0.1,0.8-0.1,1.5v2.9c0,0.1,0.3,0.1,0.8,0.1h0.9h0.1c0.7,0,1.1,0,1.3-0.1c0.1-0.1,0.2-0.3,0.3-0.6c0-0.2,0.1-0.3,0.1-0.5
			c0-0.1,0.1-0.1,0.3-0.1s0.3,0,0.3,0.1v3.4c0,0-0.2,0.1-0.3,0.1c-0.2,0-0.3,0-0.3-0.1c-0.1-0.3-0.2-0.6-0.2-0.7
			c-0.1-0.2-0.1-0.2-0.1-0.3c0,0-0.1,0-0.2-0.1c-0.2-0.1-0.7-0.1-1.7-0.1c-0.9,0-1.3,0-1.3,0.1v2.9c0,0.7,0.1,1.2,0.2,1.5
			c0,0.1,0.3,0.2,0.7,0.3s0.6,0.2,0.8,0.2c0.1,0,0.1,0.1,0.1,0.3c0,0.1,0,0.2-0.1,0.3C164.5,13,163.6,13,163.3,13"/>
	</g>
	<g>
		<defs>
			<rect id="SVGID_25_" y="0" width="170.1" height="34.5"/>
		</defs>
		<clipPath id="SVGID_26_">
			<use xlink:href="#SVGID_25_"  style="overflow:visible;"/>
		</clipPath>
		<path class="st12" d="M40.5,17c0.5,0,1.1,0,1.7,0c0.6,0,1.2,0,1.7,0s1,0,1.5,0.1s1,0.3,1.5,0.5s0.9,0.5,1.3,0.9
			c0.4,0.3,0.7,0.8,0.9,1.3s0.4,1.1,0.4,1.8c0,0.8-0.2,1.6-0.6,2.3c-0.4,0.8-1,1.4-1.9,1.9c-0.8,0.5-1.8,0.8-2.8,0.8
			c-0.4,0-0.7-0.1-1.1-0.2c-0.4-0.1-0.6-0.3-0.7-0.5c0,0-0.1-0.1-0.1-0.3c0-0.1,0-0.3,0-0.4s0-0.2,0.1-0.2c0.4,0.2,0.9,0.3,1.4,0.3
			c0.8,0,1.4-0.3,1.9-1s0.7-1.5,0.7-2.5c0-1.1-0.2-2-0.7-2.7s-1.2-1-2.1-1c-0.7,0-1.2,0.1-1.5,0.2c-0.2,0.1-0.3,1-0.3,2.6v9
			c0,1,0.1,1.7,0.2,2.1c0.1,0.2,0.3,0.4,0.8,0.5s0.9,0.2,1.1,0.2c0.1,0,0.1,0.1,0.1,0.4c0,0.2,0,0.3,0,0.4c-1.9-0.1-3-0.2-3.6-0.2
			c-0.5,0-1,0-1.5,0c-0.6,0-1,0-1.4,0.1H37c0,0.2,0,0.1,0-0.2s0-0.4,0.1-0.4c0.2,0,0.5-0.1,1-0.2c0.4-0.1,0.7-0.2,0.7-0.4
			c0.1-0.2,0.2-1,0.2-2.2v-9.6c0-1-0.1-1.7-0.2-2.1c0-0.1-0.3-0.3-0.7-0.4s-0.8-0.2-1-0.2c-0.1,0-0.1-0.1-0.1-0.4s0-0.4,0.1-0.5
			C38.9,16.9,40,17,40.5,17"/>
	</g>
	<g>
		<defs>
			<rect id="SVGID_27_" y="0" width="170.1" height="34.5"/>
		</defs>
		<clipPath id="SVGID_28_">
			<use xlink:href="#SVGID_27_"  style="overflow:visible;"/>
		</clipPath>
		<path class="st13" d="M55.6,20.5V30c0,0.8,0.1,1.5,0.2,2c0.1,0.2,0.7,0.3,1.7,0.3h0.9c1.3,0,2.3-0.2,3-0.5
			c0.3-0.1,0.6-0.4,0.9-0.9c0.3-0.5,0.6-1,0.8-1.5c0-0.1,0.1-0.2,0.4-0.2c0.4,0,0.6,0,0.7,0.2c-0.1,0.2-0.2,0.5-0.4,1
			c-0.2,0.5-0.3,0.9-0.4,1.2c-0.1,0.3-0.2,0.6-0.3,1c-0.1,0.4-0.2,0.7-0.2,1c-0.7,0-2.1,0-4.2-0.1c-2.1-0.1-3.6-0.1-4.5,0l-3.4,0.1
			c0-0.1-0.1-0.2-0.1-0.4c0-0.3,0-0.4,0.1-0.4c0.2,0,0.5-0.1,1-0.2c0.4-0.1,0.7-0.2,0.7-0.4c0.1-0.4,0.2-1.1,0.2-2.3v-9.6
			c0-1-0.1-1.7-0.2-2.1c-0.1-0.1-0.3-0.3-0.7-0.4s-0.7-0.2-0.9-0.2c-0.1,0-0.1-0.1-0.1-0.4s0-0.4,0-0.5c0.1,0,0.6,0,1.4,0.1
			c0.8,0,1.5,0.1,2,0.1c0.1,0,1.2,0,3.2-0.2c0.1,0.2,0.1,0.3,0.1,0.4c0,0.3,0,0.4-0.1,0.4c-0.2,0-0.5,0.1-0.9,0.2
			c-0.5,0.1-0.7,0.3-0.7,0.4C55.7,18.8,55.6,19.5,55.6,20.5"/>
	</g>
	<g>
		<defs>
			<rect id="SVGID_29_" y="0" width="170.1" height="34.5"/>
		</defs>
		<clipPath id="SVGID_30_">
			<use xlink:href="#SVGID_29_"  style="overflow:visible;"/>
		</clipPath>
		<path class="st14" d="M65.4,17c0.3,0,1.5,0,3.5-0.2c0,0.1,0,0.2,0,0.5c0,0.2,0,0.4-0.1,0.4c-0.3,0-0.6,0.1-0.9,0.2
			s-0.5,0.3-0.5,0.5s0.1,0.4,0.2,0.7l2.7,4.9c0.1,0.1,0.2,0.1,0.3,0c0.7-1.1,1.4-2.2,2.1-3.3c0.7-1.1,1-1.9,1-2.2
			c0-0.2-0.2-0.4-0.5-0.5s-0.7-0.2-1.2-0.2c-0.1,0-0.1-0.1-0.1-0.4c0-0.2,0-0.4,0.1-0.5c1.7,0.1,2.7,0.2,3,0.2c0.4,0,0.7,0,1,0
			s0.6,0,1-0.1c0.3,0,0.6,0,0.8-0.1c0,0.1,0.1,0.3,0.1,0.4c0,0.3,0,0.4-0.1,0.4c-0.3,0-0.6,0.1-1,0.2c-0.4,0.2-0.8,0.4-1,0.6
			c-0.5,0.7-1.4,2.1-2.6,4.2c-1.3,2-1.9,3.2-1.9,3.4V30c0,1,0.1,1.8,0.2,2.3c0,0.1,0.3,0.2,0.7,0.4c0.4,0.1,0.7,0.2,0.8,0.2
			c0.1,0,0.1,0.1,0.1,0.4c0,0.2,0,0.3-0.1,0.4c-0.2,0-0.5,0-1-0.1c-0.4,0-0.8-0.1-1.2-0.1c-0.4,0-0.7,0-1,0c-0.5,0-1.1,0-1.9,0.1
			s-1.3,0.1-1.5,0.1c-0.1-0.1-0.1-0.2-0.1-0.4c0-0.3,0-0.4,0.1-0.4c0.2,0,0.5-0.1,0.9-0.2c0.4-0.1,0.7-0.3,0.7-0.4
			c0.1-0.5,0.2-1.2,0.2-2.2v-3.7c0-0.1-0.1-0.2-0.2-0.5c-0.1-0.2-0.3-0.6-0.6-1.1c-0.3-0.5-0.5-0.9-0.7-1.3s-0.5-0.9-1-1.8
			c-0.5-0.8-0.8-1.4-1-1.8c-0.5-0.9-0.9-1.5-1.3-1.7c-0.2-0.1-0.4-0.2-0.7-0.3c-0.3-0.1-0.6-0.1-0.7-0.1c-0.1,0-0.1-0.1-0.1-0.3
			c0-0.2,0-0.3,0-0.4C62.4,17,63.5,17,65.4,17"/>
	</g>
	<g>
		<defs>
			<rect id="SVGID_31_" y="0" width="170.1" height="34.5"/>
		</defs>
		<clipPath id="SVGID_32_">
			<use xlink:href="#SVGID_31_"  style="overflow:visible;"/>
		</clipPath>
		<path class="st15" d="M82.3,17c0.1,0,0.9,0,2.5-0.2c0.2,0.5,0.5,1.3,1,2.6c0.5,1.3,1.2,2.8,2,4.6c0.8,1.8,1.4,3.3,1.9,4.5
			c0,0,0,0.1,0.1,0.1s0.1,0,0.1-0.1c1.5-3.6,2.7-6.5,3.5-8.8l0.9-2.9c0.5,0.1,1.2,0.1,2.1,0.1c0.7,0,1.7,0,3-0.1
			c0,0.1,0.1,0.2,0.1,0.4c0,0.3,0,0.4-0.1,0.4h-0.1c-0.5,0-0.9,0.1-1.2,0.4c-0.3,0.2-0.4,0.6-0.3,1.4c0.1,1.5,0.2,5,0.4,10.4
			c0,0.9,0.2,1.7,0.4,2.3c0.1,0.2,0.3,0.3,0.7,0.4c0.4,0.1,0.7,0.2,0.9,0.2c0.1,0,0.1,0.2,0.1,0.5c0,0.2,0,0.3,0,0.4
			c-2-0.1-3.1-0.2-3.1-0.2c-0.3,0-0.7,0-1.1,0s-0.8,0-1.2,0.1c-0.4,0-0.8,0-1.1,0.1c-0.1-0.1-0.1-0.2-0.1-0.4c0-0.3,0-0.5,0.1-0.5
			c0.2,0,0.5-0.1,0.8-0.2c0.4-0.1,0.6-0.2,0.7-0.4c0.2-0.2,0.3-0.5,0.3-0.9V30l-0.3-7.7c-0.1-1-0.2-1.6-0.3-1.6
			c-0.1,0-0.1,0.1-0.1,0.2l-4.8,11.8c-0.3,0.6-0.6,1-1,1c-0.1,0-0.2,0-0.3-0.1L83,20c-0.1,4.2-0.3,8-0.4,11.3c0,0.4,0,0.6,0.1,0.8
			c0.1,0.2,0.4,0.4,1,0.5c0.6,0.2,1,0.3,1.2,0.3c0.1,0,0.1,0.2,0.1,0.5c0,0.2,0,0.3-0.1,0.4c-2-0.1-3.1-0.2-3.2-0.2
			c-0.5,0-1.1,0-1.8,0.1c-0.8,0.1-1.2,0.1-1.4,0.1c-0.1-0.1-0.1-0.2-0.1-0.4c0-0.3,0-0.4,0.1-0.4c0.3,0,0.7-0.1,1.3-0.3
			c0.6-0.2,0.9-0.4,1-0.7c0.2-0.3,0.2-0.9,0.3-1.7c0-1.3,0.1-2.8,0.1-4.5c0.1-1.7,0.1-3.2,0.2-4.5c0-1.2,0.1-2,0.1-2.3
			s0-0.6-0.1-0.7s-0.3-0.3-0.8-0.4s-0.9-0.2-1.1-0.2c-0.1,0-0.1-0.1-0.1-0.4c0-0.2,0-0.3,0.1-0.4c0.3,0,0.7,0,1.3,0.1
			C81.3,17,81.9,17,82.3,17"/>
	</g>
	<g>
		<defs>
			<rect id="SVGID_33_" y="0" width="170.1" height="34.5"/>
		</defs>
		<clipPath id="SVGID_34_">
			<use xlink:href="#SVGID_33_"  style="overflow:visible;"/>
		</clipPath>
		<path class="st16" d="M109.2,18c-1.4,0-2.6,0.7-3.3,2c-0.8,1.3-1.2,2.9-1.2,4.8c0,1.3,0.2,2.5,0.5,3.6s0.9,2.1,1.8,3
			c0.8,0.8,1.8,1.2,3,1.2c1.4,0,2.5-0.7,3.3-2s1.2-2.9,1.2-4.8c0-1.3-0.2-2.5-0.5-3.7c-0.3-1.1-0.9-2.1-1.7-2.9
			C111.4,18.4,110.4,18,109.2,18 M103.9,31.3c-1.6-1.7-2.4-3.7-2.4-6c0-2.4,0.8-4.4,2.4-6.1s3.5-2.5,5.7-2.5s4.1,0.8,5.7,2.5
			s2.4,3.7,2.4,6.1s-0.8,4.4-2.4,6c-1.6,1.7-3.5,2.5-5.7,2.5S105.5,33,103.9,31.3"/>
	</g>
	<g>
		<defs>
			<rect id="SVGID_35_" y="0" width="170.1" height="34.5"/>
		</defs>
		<clipPath id="SVGID_36_">
			<use xlink:href="#SVGID_35_"  style="overflow:visible;"/>
		</clipPath>
		<path class="st17" d="M122.4,17c0.3,0,1.4,0,3.2-0.2c0,0.1,0.1,0.3,0.1,0.4c0,0.3,0,0.4-0.1,0.4c-0.2,0-0.5,0.1-0.9,0.2
			c-0.5,0.1-0.7,0.3-0.7,0.4c-0.1,0.5-0.2,1.2-0.2,2.2v5.8c0,1.7,0.4,3.1,1.1,4.2c0.7,1,1.8,1.6,3.1,1.6c1.3,0,2.3-0.4,3.1-1.3
			c0.8-0.8,1.2-2.3,1.2-4.2v-6.2c0-1-0.1-1.7-0.3-2c-0.1-0.2-0.4-0.3-0.9-0.4s-0.9-0.2-1.1-0.2c-0.1,0-0.1-0.1-0.1-0.4
			c0-0.2,0-0.4,0.1-0.5c1.8,0.1,2.9,0.2,3.2,0.2c0.4,0,1,0,1.7-0.1s1.1-0.1,1.3-0.1c0,0.1,0.1,0.3,0.1,0.4c0,0.3,0,0.4-0.1,0.4
			c-0.2,0-0.6,0.1-1.1,0.2s-0.8,0.3-1,0.5c-0.2,0.4-0.3,1.1-0.3,2.1v5.9c0,1.3-0.2,2.4-0.5,3.4s-0.8,1.7-1.4,2.2
			c-0.6,0.5-1.3,0.9-2,1.2s-1.6,0.4-2.6,0.4c-2,0-3.6-0.6-4.8-1.8c-1.2-1.2-1.7-3.2-1.7-5.9v-5.5c0-1.1-0.1-1.8-0.2-2.1
			c-0.1-0.1-0.3-0.3-0.7-0.4c-0.4-0.1-0.7-0.2-0.9-0.2c-0.1,0-0.1-0.1-0.1-0.4s0-0.4,0.1-0.5C121.2,17,122.3,17,122.4,17"/>
	</g>
	<g>
		<defs>
			<rect id="SVGID_37_" y="0" width="170.1" height="34.5"/>
		</defs>
		<clipPath id="SVGID_38_">
			<use xlink:href="#SVGID_37_"  style="overflow:visible;"/>
		</clipPath>
		<path class="st18" d="M142,17c1.1,0,2.1,0.1,2.8,0.1s1.7,0,2.8-0.1c1.1,0,2.1-0.1,2.8-0.1c0.4,0,1-0.1,1.7-0.3l0.5,3.9
			c-0.1,0.1-0.3,0.2-0.7,0.2c-0.1,0-0.2,0-0.3-0.1c-0.2-0.9-0.5-1.6-0.9-1.9s-1-0.5-1.8-0.5c-1.6,0-2.4,0.1-2.5,0.4
			c-0.2,0.5-0.2,1.3-0.2,2.4v9.1c0,0.9,0.1,1.6,0.2,2.2c0,0.1,0.2,0.2,0.7,0.4c0.4,0.1,0.7,0.2,0.9,0.2c0.1,0,0.1,0.2,0.1,0.5
			c0,0.2,0,0.3-0.1,0.4c-0.2,0-0.5,0-1-0.1c-0.4,0-0.8-0.1-1.2-0.1s-0.7,0-1,0c-0.5,0-1.1,0-1.9,0.1c-0.8,0-1.3,0.1-1.5,0.1
			c-0.1-0.1-0.1-0.2-0.1-0.4c0-0.3,0-0.5,0.1-0.5c0.2,0,0.5-0.1,0.9-0.2c0.4-0.1,0.7-0.2,0.7-0.4c0.1-0.5,0.2-1.2,0.2-2.1V21
			c0-1.4-0.1-2.2-0.2-2.5c-0.1-0.3-0.9-0.4-2.4-0.4c-0.8,0-1.4,0.2-1.8,0.5c-0.4,0.3-0.7,0.9-1,1.9c0,0.1-0.1,0.2-0.3,0.2
			c-0.3,0-0.5-0.1-0.7-0.2l0.5-3.8c0.7,0.2,1.3,0.3,1.7,0.3C139.9,16.9,140.8,16.9,142,17"/>
	</g>
	<g>
		<defs>
			<rect id="SVGID_39_" y="0" width="170.1" height="34.5"/>
		</defs>
		<clipPath id="SVGID_40_">
			<use xlink:href="#SVGID_39_"  style="overflow:visible;"/>
		</clipPath>
		<path class="st19" d="M169.9,32.8c0.1,0,0.1,0.2,0.1,0.5c0,0.1,0,0.3-0.1,0.4c-2-0.1-3.1-0.2-3.2-0.2c-0.3,0-0.7,0-1.1,0
			c-0.4,0-0.8,0-1.2,0.1c-0.4,0-0.8,0-1.1,0.1c-0.1-0.1-0.1-0.2-0.1-0.4c0-0.3,0-0.5,0.1-0.5c0.2,0,0.5-0.1,0.9-0.2
			c0.4-0.1,0.7-0.2,0.7-0.4c0.1-0.5,0.2-1.2,0.2-2.1v-4.3l-0.1-0.1c-1.6,0-2.7-0.1-3.3-0.1c-2.3,0-3.5,0.1-3.5,0.1V30
			c0,0.9,0.1,1.7,0.2,2.3c0,0.1,0.3,0.2,0.7,0.4c0.4,0.1,0.7,0.2,0.9,0.2c0.1,0,0.1,0.2,0.1,0.5c0,0.1,0,0.3-0.1,0.4
			c-2-0.1-3.1-0.2-3.2-0.2c-0.3,0-0.7,0-1.1,0c-0.4,0-0.8,0-1.2,0.1c-0.4,0-0.8,0-1.1,0.1c-0.1-0.1-0.1-0.2-0.1-0.4
			c0-0.3,0-0.5,0.1-0.5c0.2,0,0.5-0.1,0.9-0.2c0.4-0.1,0.7-0.2,0.7-0.4c0.1-0.5,0.2-1.2,0.2-2.1v-9.8c0-1-0.1-1.7-0.2-2.1
			c-0.1-0.1-0.3-0.3-0.7-0.4s-0.7-0.2-0.9-0.2c-0.1,0-0.1-0.1-0.1-0.4s0-0.4,0.1-0.5c0.1,0,0.6,0,1.4,0.1c0.9,0,1.5,0.1,2,0.1
			c0.1,0,1.2-0.1,3.2-0.2c0,0.2,0.1,0.3,0.1,0.4c0,0.3,0,0.4-0.1,0.4c-0.2,0-0.5,0.1-0.9,0.2c-0.5,0.1-0.7,0.3-0.7,0.4
			c-0.1,0.5-0.2,1.3-0.2,2.2v3.7l0.1,0.1c1.7,0,2.8,0.1,3.4,0.1c0.7,0,1.8,0,3.3-0.1l0.1-0.1v-3.8c0-1-0.1-1.7-0.2-2.1
			c-0.1-0.1-0.3-0.3-0.7-0.4s-0.7-0.2-0.9-0.2c-0.1,0-0.1-0.1-0.1-0.4s0-0.4,0.1-0.5c0.1,0,0.6,0,1.4,0.1c0.8,0,1.5,0.1,2,0.1
			c0.1,0,1.2-0.1,3.2-0.2c0.1,0.2,0.1,0.3,0.1,0.4c0,0.3,0,0.4-0.1,0.4c-0.2,0-0.5,0.1-0.9,0.2c-0.5,0.1-0.7,0.3-0.7,0.4
			c-0.1,0.5-0.2,1.3-0.2,2.2V30c0,0.9,0.1,1.7,0.2,2.3c0,0.1,0.3,0.2,0.7,0.4C169.5,32.8,169.8,32.8,169.9,32.8"/>
	</g>
	<g>
		<defs>
			<rect id="SVGID_41_" y="0" width="170.1" height="34.5"/>
		</defs>
		<clipPath id="SVGID_42_">
			<use xlink:href="#SVGID_41_"  style="overflow:visible;"/>
		</clipPath>
		<path class="st20" d="M24.1,16.7c-0.1,0-0.1,0-0.2,0c-0.1,0.3-0.3,0.5-0.6,0.5c-0.1,0-0.3,0-0.4-0.1c-0.1,0.2-0.3,0.3-0.6,0.3
			s-0.5-0.1-0.6-0.3c-0.1,0.1-0.2,0.1-0.4,0.1c-0.2,0-0.5-0.2-0.6-0.5c-0.1,0-0.1,0-0.2,0c-0.2-0.1-0.3-0.4-0.3-0.6
			c0-0.3,0.1-0.5,0.3-0.6c0.3-0.1,1.1-1,1.1-1L21,13.8c0,0-0.1-0.1,0-0.2c0-0.1,0.1-0.1,0.1-0.1h0.8c0.1-0.2,0.3-0.4,0.5-0.4
			s0.4,0.2,0.5,0.4h0.8c0,0,0.1,0,0.1,0.1s0,0.1,0,0.2L23,14.5c0,0,0.8,0.8,1.1,1c0.2,0.1,0.3,0.3,0.3,0.6
			C24.5,16.3,24.3,16.6,24.1,16.7 M15.6,16.7c-0.1,0-0.1,0-0.2,0c-0.1,0.3-0.3,0.5-0.6,0.5c-0.1,0-0.3,0-0.4-0.1
			c-0.1,0.2-0.3,0.3-0.6,0.3s-0.5-0.1-0.6-0.3c-0.1,0.1-0.2,0.1-0.4,0.1s-0.5-0.2-0.6-0.5c-0.1,0-0.1,0-0.2,0
			c-0.2-0.1-0.3-0.4-0.3-0.6c0-0.3,0.1-0.5,0.3-0.6c0.3-0.1,1.1-1,1.1-1l-0.8-0.8c0,0-0.1-0.1,0-0.2c0-0.1,0.1-0.1,0.1-0.1h0.8
			c0.1-0.2,0.3-0.4,0.5-0.4s0.4,0.2,0.5,0.4H15c0,0,0.1,0,0.1,0.1s0,0.1,0,0.2l-0.8,0.8c0,0,0.8,0.8,1.1,1c0.2,0.1,0.3,0.3,0.3,0.6
			C16,16.3,15.8,16.6,15.6,16.7 M7.1,16.7c-0.1,0-0.1,0-0.2,0c-0.1,0.3-0.3,0.5-0.6,0.5c-0.1,0-0.3,0-0.4-0.1
			c-0.1,0.2-0.3,0.3-0.6,0.3c-0.3,0-0.5-0.1-0.6-0.3c-0.1,0.1-0.2,0.1-0.4,0.1c-0.2,0-0.5-0.2-0.6-0.5c-0.1,0-0.1,0-0.2,0
			c-0.2-0.1-0.3-0.4-0.3-0.6c0-0.3,0.1-0.5,0.3-0.6c0.3-0.1,1.1-1,1.1-1L4,13.8c0,0-0.1-0.1,0-0.2c0-0.1,0.1-0.1,0.1-0.1h0.8
			c0.1-0.2,0.3-0.4,0.5-0.4s0.4,0.2,0.5,0.4h0.8c0,0,0.1,0,0.1,0.1s0,0.1,0,0.2L6,14.5c0,0,0.8,0.8,1.1,1c0.2,0.1,0.3,0.3,0.3,0.6
			C7.5,16.3,7.3,16.6,7.1,16.7 M20.1,11.8c-2.3-0.8-4.2-1-6.1,0.6c-2-1.7-3.9-1.5-6.1-0.6c-2.4,0.9-4.6,0.8-6.9-0.4v0.2
			c0,2.7,0.4,5.2,1,7.3c0.9,0.4,1.8,0.6,2.8,0.6c1.1,0,2.3-0.3,3.3-0.9c2.2-1.2,3.7-1.2,5.8,0l0.1,0.1l0.1-0.1c2-1.2,3.6-1.2,5.8,0
			c1.1,0.6,2.2,0.9,3.3,0.9c1,0,1.9-0.2,2.8-0.6c0.6-2.2,1-4.6,1-7.3v-0.2C24.8,12.6,22.6,12.7,20.1,11.8"/>
	</g>
	<g>
		<defs>
			<rect id="SVGID_43_" y="0" width="170.1" height="34.5"/>
		</defs>
		<clipPath id="SVGID_44_">
			<use xlink:href="#SVGID_43_"  style="overflow:visible;"/>
		</clipPath>
		<path class="st21" d="M21.2,5.4c-0.6-0.2-0.3-0.7-0.9-0.7C20.4,5,20.2,5.2,20,5.4c-0.1,0.3,0,0.6,0.4,0.8
			c-0.4,0.1-0.8-0.3-0.9-0.7c-0.1-0.6,0.4-0.6,0.2-1.1c-0.2,0.2-0.5,0.2-0.7,0.1c-0.3,0-0.6,0.3-0.5,0.7c-0.3-0.4-0.2-0.9,0.1-1.1
			c0.5-0.4,0.7,0,1.1-0.4c-0.3,0-0.4-0.4-0.5-0.6c-0.1-0.3-0.5-0.4-0.9-0.1c0.2-0.4,0.7-0.6,1-0.4c0.6,0.2,0.3,0.7,0.9,0.7
			c-0.1-0.3,0.1-0.5,0.3-0.7c0.2-0.2,0.1-0.6-0.3-0.8c0.4-0.1,0.8,0.3,0.9,0.7c0.1,0.6-0.4,0.6-0.2,1.1c0.2-0.2,0.5-0.2,0.7-0.1
			c0.3,0,0.6-0.3,0.5-0.7c0.3,0.4,0.2,0.9-0.1,1.1c-0.5,0.4-0.7,0-1.1,0.4c0.3,0,0.4,0.4,0.5,0.6c0.1,0.3,0.5,0.4,0.9,0.1
			C22.1,5.4,21.6,5.6,21.2,5.4 M15,5.4c-0.6-0.2-0.3-0.7-0.9-0.7C14.2,5,14,5.2,13.8,5.4c-0.2,0.2-0.1,0.6,0.3,0.8
			c-0.4,0.1-0.8-0.3-0.9-0.7c-0.1-0.6,0.4-0.6,0.2-1.1c-0.2,0.2-0.5,0.2-0.7,0.1c-0.3,0-0.6,0.3-0.5,0.7c-0.3-0.4-0.2-0.9,0.1-1.1
			c0.5-0.4,0.7,0,1.1-0.4c-0.3,0-0.4-0.4-0.5-0.6C12.8,2.8,12.4,2.7,12,3c0.2-0.4,0.7-0.6,1-0.4c0.6,0.2,0.3,0.7,0.9,0.7
			C13.8,3,14,2.8,14.2,2.6s0.1-0.6-0.3-0.8c0.4-0.1,0.8,0.3,0.9,0.7c0.1,0.6-0.4,0.6-0.2,1.1c0.2-0.2,0.5-0.2,0.7-0.1
			c0.3,0,0.6-0.3,0.5-0.7c0.3,0.4,0.2,0.9-0.1,1.1c-0.5,0.4-0.7,0-1.1,0.4c0.3,0,0.4,0.4,0.5,0.6C15.2,5.2,15.6,5.2,16,5
			C15.8,5.4,15.3,5.6,15,5.4 M9,5.4C8.4,5.2,8.6,4.8,8.1,4.7C8.2,5,8,5.2,7.8,5.4C7.6,5.7,7.8,6,8.2,6.2C7.7,6.3,7.3,5.9,7.3,5.6
			C7.2,4.9,7.7,4.9,7.5,4.5C7.3,4.7,7,4.6,6.7,4.6S6.1,4.9,6.2,5.3C5.9,4.9,6,4.4,6.3,4.2c0.5-0.4,0.7,0,1.1-0.4
			C7.1,3.7,7,3.4,6.9,3.2C6.8,2.9,6.4,2.8,6,3.1c0.2-0.4,0.7-0.6,1-0.4c0.6,0.2,0.3,0.7,0.9,0.7C7.8,3.1,8,2.8,8.2,2.7
			c0.2-0.3,0-0.7-0.4-0.9c0.4-0.1,0.8,0.3,0.9,0.7c0.1,0.6-0.4,0.6-0.2,1.1C8.7,3.4,9,3.4,9.2,3.5c0.3,0,0.6-0.3,0.5-0.7
			C10,3.2,9.9,3.7,9.6,3.9c-0.4,0.4-0.6,0-1,0.4c0.3,0,0.4,0.4,0.5,0.6C9.2,5.2,9.6,5.2,10,5C9.8,5.4,9.3,5.6,9,5.4 M27,1.9V1.1H1
			v0.5v1.8c0.1,0,0.1,0,0.2,0.1C1.1,3.1,1.4,2.8,1.5,2.7c0.2-0.3,0-0.7-0.4-0.9c0.5,0,0.9,0.3,1,0.7c0.1,0.6-0.4,0.6-0.2,1.1
			C2,3.4,2.4,3.5,2.6,3.5c0.3,0,0.6-0.3,0.5-0.7C3.4,3.1,3.3,3.7,3,3.9c-0.5,0.4-0.7,0-1,0.4c0.3,0,0.4,0.4,0.5,0.6
			c0,0.3,0.4,0.3,0.8,0.1c-0.2,0.4-0.7,0.6-1,0.4C1.7,5.2,1.9,4.8,1.4,4.7C1.5,5,1.3,5.2,1.2,5.4C1,5.7,1.1,6,1.5,6.2
			c-0.2,0-0.3,0-0.5-0.1v0.6v0.6c3,2,5.8,1.1,7.3,0.4c2.3-1.2,4.1-1.1,5.5,0L14,7.9l0.1-0.1c1.4-1.2,3.2-1.2,5.5,0
			c0.8,0.4,2,0.9,3.5,0.9c1.2,0,2.6-0.3,3.9-1.2V4.8c-0.1,0-0.1-0.1-0.2-0.1c0.1,0.3-0.1,0.5-0.3,0.7c-0.2,0.2-0.1,0.6,0.3,0.8
			C26.4,6.3,26,5.9,26,5.6C25.9,5,26.4,5,26.2,4.5c-0.2,0.2-0.5,0.2-0.7,0.1c-0.3,0-0.6,0.3-0.5,0.7c-0.3-0.4-0.2-0.9,0.1-1.1
			c0.5-0.4,0.7,0,1.1-0.4c-0.3,0-0.4-0.4-0.5-0.6c-0.1-0.3-0.5-0.4-0.9-0.1c0.2-0.4,0.7-0.6,1-0.4c0.6,0.2,0.3,0.7,0.9,0.7
			c-0.1-0.3,0.1-0.5,0.3-0.7c0.2-0.2,0.1-0.6-0.3-0.8C26.7,1.8,26.9,1.9,27,1.9"/>
	</g>
	<g>
		<defs>
			<rect id="SVGID_45_" y="0" width="170.1" height="34.5"/>
		</defs>
		<clipPath id="SVGID_46_">
			<use xlink:href="#SVGID_45_"  style="overflow:visible;"/>
		</clipPath>
		<path class="st22" d="M0,14L0,14L0,14L0,14"/>
	</g>
	<g>
		<defs>
			<rect id="SVGID_47_" y="0" width="170.1" height="34.5"/>
		</defs>
		<clipPath id="SVGID_48_">
			<use xlink:href="#SVGID_47_"  style="overflow:visible;"/>
		</clipPath>
		<path class="st23" d="M27.7,0.4v12.9c0,0.5-0.1,1.4-0.1,1.8C26.4,26.3,18.7,31.6,14,34l0,0C9.3,31.6,1.6,26.3,0.5,15.1
			c0-0.4-0.1-1.4-0.1-1.8V0.4C0.4,0.4,27.7,0.4,27.7,0.4z M14,34.5L14,34.5c5-2.6,13.1-8,13.9-19.8l0.1-1.5V0H0v13.1l0.1,1.5
			C1,26.4,9,31.9,14,34.5L14,34.5z"/>
	</g>
	<g>
		<defs>
			<rect id="SVGID_49_" y="0" width="170.1" height="34.5"/>
		</defs>
		<clipPath id="SVGID_50_">
			<use xlink:href="#SVGID_49_"  style="overflow:visible;"/>
		</clipPath>
		<path class="st24" d="M18.6,26.6c-0.6-0.2-0.3-0.7-0.9-0.7c0.1,0.3-0.1,0.5-0.3,0.7c-0.2,0.2-0.1,0.6,0.3,0.8
			c-0.4,0.1-0.8-0.3-0.9-0.7c-0.1-0.6,0.4-0.6,0.2-1.1c-0.2,0.2-0.5,0.2-0.7,0.1c-0.3,0-0.6,0.3-0.5,0.7c-0.3-0.4-0.2-0.9,0.1-1.1
			c0.5-0.4,0.7,0,1.1-0.4c-0.3,0-0.4-0.4-0.5-0.6c-0.1-0.3-0.5-0.4-0.9-0.1c0.2-0.4,0.7-0.6,1-0.4c0.6,0.2,0.3,0.7,0.9,0.7
			c-0.1-0.3,0.1-0.5,0.3-0.7c0.2-0.2,0.1-0.6-0.3-0.8c0.4-0.1,0.8,0.3,0.9,0.7c0.1,0.6-0.4,0.6-0.2,1.1c0.2-0.2,0.5-0.2,0.7-0.1
			c0.3,0,0.6-0.3,0.5-0.7c0.3,0.4,0.2,0.9-0.1,1.1c-0.5,0.4-0.7,0-1.1,0.4c0.3,0,0.4,0.4,0.5,0.6c0.1,0.3,0.5,0.4,0.9,0.1
			C19.4,26.6,18.9,26.7,18.6,26.6 M15,31.1c-0.6-0.2-0.3-0.7-0.9-0.7c0.1,0.3-0.1,0.5-0.3,0.7s-0.1,0.6,0.3,0.8
			c-0.4,0.1-0.8-0.3-0.9-0.7c-0.1-0.6,0.4-0.6,0.2-1.1c-0.2,0.2-0.5,0.2-0.7,0.1c-0.3,0-0.6,0.3-0.5,0.7c-0.3-0.4-0.2-0.9,0.1-1.1
			c0.5-0.4,0.7,0,1.1-0.4c-0.3,0-0.4-0.4-0.5-0.6c-0.1-0.3-0.5-0.4-0.9-0.1c0.2-0.4,0.7-0.6,1-0.4c0.6,0.2,0.3,0.7,0.9,0.7
			c-0.1-0.3,0.1-0.5,0.3-0.7s0.1-0.6-0.3-0.8c0.4-0.1,0.8,0.3,0.9,0.7c0.1,0.6-0.4,0.6-0.2,1.1c0.2-0.2,0.5-0.2,0.7-0.1
			c0.3,0,0.6-0.3,0.5-0.7c0.3,0.4,0.2,0.9-0.1,1.1c-0.5,0.4-0.7,0-1.1,0.4c0.3,0,0.4,0.4,0.5,0.6c0.1,0.3,0.5,0.4,0.9,0.1
			C15.8,31,15.3,31.2,15,31.1 M11.3,26.6c-0.6-0.2-0.3-0.7-0.9-0.7c0.1,0.3-0.1,0.5-0.3,0.7s-0.1,0.6,0.3,0.8
			c-0.4,0.1-0.8-0.3-0.9-0.7c-0.1-0.6,0.4-0.6,0.2-1.1c-0.2,0.2-0.5,0.2-0.7,0.1c-0.3,0-0.6,0.3-0.5,0.7c-0.3-0.4-0.2-0.9,0.1-1.1
			c0.5-0.4,0.7,0,1.1-0.4c-0.3,0-0.4-0.4-0.5-0.6c-0.1-0.3-0.5-0.4-0.9-0.1c0.2-0.4,0.7-0.6,1-0.4c0.6,0.2,0.3,0.7,0.9,0.7
			c-0.1-0.3,0.1-0.5,0.3-0.7s0.1-0.6-0.3-0.8c0.4-0.1,0.8,0.3,0.9,0.7c0.1,0.6-0.4,0.6-0.2,1.1c0.2-0.2,0.5-0.2,0.7-0.1
			c0.3,0,0.6-0.3,0.5-0.7c0.3,0.4,0.2,0.9-0.1,1.1c-0.5,0.4-0.7,0-1.1,0.4c0.3,0,0.4,0.4,0.5,0.6c0.1,0.3,0.5,0.4,0.9,0.1
			C12.2,26.6,11.6,26.7,11.3,26.6 M19.8,22.8c-2.7-1.1-4.4-1.1-5.8,0.1c-1.5-1.2-3.2-1.2-5.8-0.1c-1.3,0.6-3,0.8-4.4,0.6
			c2.8,5.2,7.1,8.3,10.2,9.9c3.1-1.7,7.4-4.8,10.2-9.9C22.9,23.6,21.2,23.3,19.8,22.8"/>
	</g>
</g>
</svg>
