<?xml version="1.0" encoding="utf-8"?>
<!-- Generator: Adobe Illustrator 20.1.0, SVG Export Plug-In . SVG Version: 6.00 Build 0)  -->
<svg version="1.1" id="Layer_1" xmlns="http://www.w3.org/2000/svg" xmlns:xlink="http://www.w3.org/1999/xlink" x="0px" y="0px"
	 viewBox="0 0 283 283" style="enable-background:new 0 0 283 283;" xml:space="preserve">
<style type="text/css">
	.st0{clip-path:url(#SVGID_2_);}
	.st1{clip-path:url(#SVGID_6_);}
	.st2{clip-path:url(#SVGID_7_);}
	.st3{clip-path:url(#SVGID_8_);fill:#FFFFFF;}
	.st4{clip-path:url(#SVGID_8_);}
	.st5{opacity:0.8;}
	.st6{clip-path:url(#SVGID_10_);fill:#FFFFFF;}
</style>
<g>
	<g>
		<defs>
			<rect id="SVGID_1_" width="283" height="283"/>
		</defs>
		<clipPath id="SVGID_2_">
			<use xlink:href="#SVGID_1_"  style="overflow:visible;"/>
		</clipPath>
		<g class="st0">
			<g>
				<defs>
					<rect id="SVGID_3_" width="283" height="283"/>
				</defs>
				<defs>
					<rect id="SVGID_4_" width="283" height="283"/>
				</defs>
				<defs>
					<rect id="SVGID_5_" width="283" height="283"/>
				</defs>
				<clipPath id="SVGID_6_">
					<use xlink:href="#SVGID_3_"  style="overflow:visible;"/>
				</clipPath>
				<clipPath id="SVGID_7_" class="st1">
					<use xlink:href="#SVGID_4_"  style="overflow:visible;"/>
				</clipPath>
				<clipPath id="SVGID_8_" class="st2">
					<use xlink:href="#SVGID_5_"  style="overflow:visible;"/>
				</clipPath>
				<path class="st3" d="M272.8,141.7c0,72.4-58.7,131.1-131.1,131.1S10.6,214.1,10.6,141.7S69.3,10.6,141.7,10.6
					S272.8,69.3,272.8,141.7 M283,0H0v283h283V0z"/>
				<path class="st3" d="M141.7,209.1c37.2,0,67.3-30.1,67.3-67.3s-30.1-67.3-67.3-67.3s-67.3,30.1-67.3,67.3
					C74.4,178.9,104.6,209.1,141.7,209.1"/>
				<g class="st4">
					<g class="st5">
						<g>
							<defs>
								<rect id="SVGID_9_" x="8.7" y="10.7" width="266" height="256"/>
							</defs>
							<clipPath id="SVGID_10_">
								<use xlink:href="#SVGID_9_"  style="overflow:visible;"/>
							</clipPath>
							<path class="st6" d="M54.7,92.2c1.1-2,0.1-3.1-0.8-3.7c-1-0.6-2.4-0.9-3.5,1.2l-1.1,2l4.4,2.4L54.7,92.2z M212.2,76.2
								l3.3-6.1l-6.2,3L212.2,76.2z M250.1,119.4c0.8,4,0.2,6.8-1.6,8.4c-0.8,0.7-1.7,1.2-3,1.5c-0.5,0.1-1,0-1.1-0.6l-0.9-4.2
								c-0.1-0.7,0.1-1,0.6-1.3c0.8-0.5,1.3-1.2,1-2.9c-0.4-1.8-1.3-2.5-2.6-2.3c-1.4,0.3-1.5,1.7-1.3,4.5c0.4,5.9-1.3,8.4-5.6,9.3
								c-4.7,1-8.3-1.6-9.5-7.5c-0.6-2.8-0.6-5.1,0.1-6.7c0.9-2.2,2.3-3.3,4.6-3.8c0.4-0.1,1,0,1.2,0.7l0.8,3.8
								c0.1,0.7-0.1,1.1-0.5,1.3c-1.4,0.8-1.4,1.9-1.1,3.4c0.4,2,1.2,3,2.6,2.7c1.4-0.3,1.7-1.9,1.6-4.6c-0.2-5.6,1.2-8.3,5.4-9.2
								C244.7,111.3,248.9,113.6,250.1,119.4 M243.9,101.6l-18.1,11.7c-0.8,0.5-1.3,0.4-1.6-0.3l-1.9-3.8c-0.4-0.8-0.1-1.2,0.5-1.6
								l10.4-6.2l-12.3,2.5c-0.7,0.2-1.2,0-1.6-0.9l-1.2-2.3c-0.5-0.9-0.3-1.3,0.2-1.8l9.3-8.2l-10.9,4.6c-0.7,0.3-1.2,0.2-1.6-0.6
								l-1.8-3.6c-0.3-0.6-0.1-1.1,0.7-1.4l20.3-7.5c0.6-0.2,1.2,0,1.6,0.8l2.1,4.1c0.3,0.7,0.1,1.2-0.3,1.7l-9.2,8.5l12.5-2.1
								c0.6-0.1,1.1,0.1,1.5,0.8l2,4C244.5,100.7,244.4,101.3,243.9,101.6 M222.8,68.4L212.4,89c-0.2,0.4-0.9,0.7-1.3,0.3l-3.1-3.2
								c-0.7-0.7-0.7-1.3-0.3-2.3l1.4-3l-4.8-5l-3.1,1.3c-0.8,0.4-1.4,0.5-2.2-0.3l-3-3.2c-0.5-0.5,0.1-1.1,0.5-1.3l21.1-9.1
								c0.8-0.3,1.4,0.1,1.8,0.4l2.9,3.1C223,67.2,223.1,67.9,222.8,68.4 M206.3,52.5c-0.1,0.2-0.3,0.3-0.5,0.5L195,58.8l0.2,12.6
								c0,0.3,0,0.5-0.1,0.7c-0.2,0.3-0.6,0.4-0.9,0.2l-4.4-2.6c-0.5-0.3-1.1-0.9-1.1-1.8l0.2-6.3l-5.4,3.1
								c-0.7,0.4-1.4,0.4-2.1-0.1l-4.2-2.5c-0.4-0.2-0.5-0.6-0.3-0.9c0.1-0.2,0.4-0.4,0.7-0.5l11.1-5.8V42.7c0-0.2,0-0.5,0.1-0.6
								c0.2-0.3,0.6-0.5,1-0.2l4.1,2.4c0.9,0.6,1.1,0.9,1.1,2l-0.3,6.1l5.3-3.2c0.9-0.6,1.4-0.4,2.2,0l3.9,2.3
								C206.5,51.9,206.5,52.2,206.3,52.5 M181.8,39.7l-1.1,3.4c-0.2,0.6-0.7,0.8-1.3,0.6l-7.8-2.5l-1.1,3.4l6.4,2
								c0.6,0.2,0.9,0.7,0.7,1.2l-1.1,3.4c-0.2,0.6-0.7,0.7-1.3,0.5l-6.4-2l-1.2,3.6l8.2,2.6c0.6,0.2,0.9,0.7,0.7,1.2l-1.1,3.4
								c-0.2,0.6-0.7,0.7-1.3,0.5L161,57.1c-0.6-0.2-0.9-0.7-0.7-1.3l6.6-20.8c0.2-0.6,0.7-0.8,1.3-0.6l12.8,4.1
								C181.6,38.7,182,39.1,181.8,39.7 M148.6,54c0,0.6-0.5,1-1.2,1l-3.9,0.1c-0.9,0-1.3-0.4-1.7-1l-8.3-11.9l0.5,12.3
								c0,0.6-0.4,1-1,1l-4.1,0.2c-0.6,0-1-0.3-1-0.9L127.1,33c0-0.6,0.4-1,1-1l4.3-0.2c0.8,0,1.3,0.2,1.8,0.9l7.8,11.7l-0.5-12
								c0-0.6,0.4-1,1-1l4-0.2c0.6,0,1.1,0.3,1.1,0.9L148.6,54z M124.9,56.6l-13.4,3.8c-0.6,0.2-1.1-0.1-1.3-0.6l-6-21
								c-0.2-0.6,0.2-1.1,0.8-1.2l12.9-3.7c0.6-0.2,1.1,0,1.3,0.6l1,3.5c0.2,0.6-0.2,1-0.8,1.2l-7.8,2.2l1,3.5l6.5-1.9
								c0.6-0.2,1.1,0,1.3,0.6l1,3.5c0.2,0.6-0.2,1-0.8,1.2l-6.5,1.9l1,3.7l8.3-2.4c0.6-0.2,1.1,0,1.3,0.6l1,3.5
								C125.9,56,125.5,56.4,124.9,56.6 M102.4,64.7l-3.6,1.9c-0.6,0.3-1.1,0.2-1.4-0.3L89.2,51l-4.4,2.4c-0.6,0.3-1.1,0.2-1.4-0.3
								l-1.7-3.2c-0.3-0.5,0-1,0.5-1.3l14.3-7.7c0.6-0.3,1.1-0.2,1.4,0.3l1.7,3.2c0.3,0.5,0,1-0.5,1.3L94.8,48l8.2,15.3
								C103.3,63.8,102.9,64.4,102.4,64.7 M78.8,57.6l-3.7,3.2l11.3,13.1c0.4,0.5,0.2,1.1-0.3,1.5L83,78.2c-0.5,0.4-1.1,0.4-1.5,0
								L70.2,65l-3.8,3.2c-0.5,0.4-1.1,0.4-1.4,0l-2.4-2.7c-0.4-0.4-0.2-1,0.2-1.4l12.3-10.6c0.5-0.4,1-0.5,1.4,0l2.4,2.7
								C79.4,56.6,79.3,57.2,78.8,57.6 M59.2,70.1l16.9,13.8c0.5,0.4,0.5,1,0.1,1.5l-2.7,3.2c-0.4,0.5-1,0.6-1.4,0.2L55.2,74.9
								c-0.5-0.4-0.5-1-0.1-1.5l2.6-3.2C58.1,69.8,58.7,69.7,59.2,70.1 M56.8,83c2.2,1.2,4.1,3.2,4,6.4l9.4,0.2c0.2,0,0.4,0,0.7,0.2
								c0.3,0.2,0.5,0.5,0.2,1.1L68.8,95c-0.3,0.6-0.7,0.9-1.7,0.8l-8.4-0.5L58,96.6l6.8,3.8c0.5,0.3,0.6,0.9,0.3,1.4l-2,3.6
								c-0.3,0.6-0.9,0.8-1.4,0.5L42.5,95.2c-0.5-0.3-0.6-0.9-0.3-1.4l4-7.2C48.8,82,52.9,80.9,56.8,83 M39.3,102.2l19.4,10.1
								c0.6,0.3,0.9,0.8,0.8,1.5l-1,4.3c-0.2,0.7-0.6,1.2-1.6,1.2l-11.7-0.2l10.5,5.1c0.8,0.4,1.2,1,1,1.7l-1,4.3
								c-0.1,0.4-0.5,1-1.4,1l-21.8,0.1c-1.1,0-1.5-0.4-1.3-1l1-4.1c0.2-0.9,0.7-1.3,1.7-1.3l12.3,0.4L34.9,120
								c-0.7-0.3-1-0.8-0.8-1.7l0.9-3.7c0.2-0.9,0.6-1.2,1.4-1.2l12.5,0.4l-11.2-5.2c-1.2-0.6-1.2-1.2-1-1.8l1-4.2
								C37.8,101.9,38.3,101.7,39.3,102.2 M67.3,141.7c0-41.1,33.3-74.4,74.4-74.4s74.4,33.3,74.4,74.4s-33.3,74.4-74.4,74.4
								S67.3,182.8,67.3,141.7 M265.7,141.7c0-68.5-55.5-124-124-124s-124,55.5-124,124s55.5,124,124,124S265.7,210.2,265.7,141.7"
								/>
						</g>
					</g>
				</g>
			</g>
		</g>
	</g>
</g>
</svg>
