<?xml version="1.0" encoding="utf-8"?>
<!-- Generator: Adobe Illustrator 22.1.0, SVG Export Plug-In . SVG Version: 6.00 Build 0)  -->
<svg version="1.1" id="Layer_1" xmlns="http://www.w3.org/2000/svg" xmlns:xlink="http://www.w3.org/1999/xlink" x="0px" y="0px"
	 viewBox="0 0 170.1 119.6" style="enable-background:new 0 0 170.1 119.6;" xml:space="preserve">
<style type="text/css">
	.st0{fill:#FFFFFF;}
</style>
<rect x="49.6" y="24.4" class="st0" width="70.9" height="70.9"/>
<g>
	<path d="M67.5,81.9l0-47.8l46,24L67.5,81.9z M168.4,25.8c0,0-1.7-11.7-6.8-16.9c-6.5-6.8-13.7-6.8-17-7.2C120.8,0,85.1,0,85.1,0H85
		c0,0-35.7,0-59.5,1.7c-3.3,0.4-10.6,0.4-17,7.2c-5.1,5.2-6.8,16.9-6.8,16.9S0,39.6,0,53.3v12.9C0,80,1.7,93.8,1.7,93.8
		s1.7,11.7,6.8,16.9c6.5,6.8,15,6.6,18.8,7.3c13.6,1.3,57.8,1.7,57.8,1.7s35.7-0.1,59.5-1.8c3.3-0.4,10.6-0.4,17-7.2
		c5.1-5.2,6.8-16.9,6.8-16.9s1.7-13.8,1.7-27.5V53.3C170.1,39.6,168.4,25.8,168.4,25.8"/>
</g>
</svg>
