<svg viewBox="0 0 877.6 504.6" xmlns="http://www.w3.org/2000/svg" xmlns:xlink="http://www.w3.org/1999/xlink"><clipPath id="a"><path d="m-12.3 11h903.9v745.1h-903.9z"/></clipPath><clipPath id="b"><path d="m498.2 342.7c-.2 1.3 0 2.6.4 4.1 0 .4.4.7.6 1.2.8.8 1.8.4 2.6 0s2-.6 3.1-.6v-5s-6.2-1.9-6.8.5v-.2z"/></clipPath><clipPath id="c"><path d="m503 343.8c-1.2 0-2.3-.4-3.5-.8-.5-.2-1.1-.5-1.7-.6h-.2v.2c-.5 1.2-.2 2.3 0 3.6 0 .4 0 .8.5.8h.5c.8-.4 1.7-.8 2.5-1.2 1.5-.4 3.1 0 4.5 0h.2c0-.6 0-1.8-.7-1.8s-.6.1-1.1.2h-1.2v-.5z"/></clipPath><clipPath id="d"><path d="m524.9 346.5c-.2 1.3-1.2 2.4-2 3.6-.2.4-.6.6-1.1.7-1.2.4-1.8-.4-2.4-1.2s-1.7-1.4-2.5-1.8l1.9-4.5s6.5.7 6 3.2z"/></clipPath><clipPath id="e"><path d="m520.3 345.7c1.2.4 2.3.5 3.5.5h2v.2c0 1.2-.6 2.3-1.3 3.3-.2.4-.5.6-.8.6s-.2-.1-.4-.2c-.6-.6-1.2-1.5-1.8-2.1-1.2-1.1-2.9-1.4-4.2-1.9.2-.6.7-1.8 1.4-1.4.2.1.5.4.8.6.4.1.6.2 1.1.4h-.2z"/></clipPath><clipPath id="f"><path d="m105.8 452.6c.5 1.3.4 2.6.1 4.1 0 .4-.2.8-.5 1.2-.7 1.1-1.8.6-2.6.4-1.1-.2-2.1-.4-3.2-.2l-.7-5s6-2.9 6.9-.4h.1z"/></clipPath><clipPath id="g"><path d="m101.2 454.6c1.2-.2 2.3-.7 3.3-1.4.5-.2 1.1-.6 1.5-.8h.2s.1 0 .2.2c.6 1.1.6 2.3.6 3.5s0 .8-.4 1.1h-.5c-.8-.2-1.8-.6-2.6-.7-1.5-.2-3.1.4-4.5.5h-.2c0-.6-.1-1.8.5-1.9h1.1c.4 0 .7 0 1.2-.1h-.2v-.3z"/></clipPath><clipPath id="h"><path d="m94.2 478.6c1.3.5 2.6.5 4.1.4.4 0 .8-.1 1.2-.4 1.1-.7.6-1.7.5-2.6-.2-1.1-.2-2.1 0-3.2l-4.9-1.1s-3.2 5.7-.8 6.8h-.1z"/></clipPath><clipPath id="i"><path d="m96.3 474.3c-.4 1.2-.8 2.1-1.5 3.2-.4.5-.7.8-1.1 1.4v.2s0 .1.1.2c1.1.6 2.3.7 3.5.8.4 0 .8 0 1.1-.4v-.5c-.2-.8-.5-1.8-.6-2.9 0-1.5.5-3.1.8-4.5v-.2h-.1c-.5 0-1.7-.2-1.8.4v1.1c0 .4-.1.7-.2 1.1h-.1v.2h-.1z"/></clipPath><g clip-path="url(#a)"><path d="m-8.6 755.1v-745.1c26 23.4 62.4 25.8 98.3 25.6 38.3 0 75.9-9.6 113.8-15.2 37.9-5.8 77.9-7.5 113.4 6.8 53.5 21.6 90.3 76.9 146.6 89.5 35.5 7.9 72.6-3 105.9-17.7 33.2-14.7 65.1-33.5 100.3-42.9 35.2-9.3 76-7.4 103.9 15.9 10.8 9.1 19.3 21 31.5 28.2 17.9 10.7 40.4 9.2 60.5 14.6 10.3 2.8 21.9 9.7 29.6 18.4v621.7h-903.8z" fill="#cfe859"/></g><path d="m48.9 526.9c-21.1-5.5-41.6-13.5-62-23.1-9.1-4.2-18.8-9.8-21.8-19.1-3.5-11.2 4.9-22.5 14.1-30.1 34-27.9 83.6-29.9 127.6-22.1 22.3 3.9 45.4 10 67.1 4.2s40.3-29.9 29.8-49.4c-7.6-14.2-25.8-18.8-40.9-25.3s-30.9-20.9-25.2-35.8c2.1-5.6 7-9.8 12.3-13.1 19.4-12.4 43.8-14.1 66.9-14.9 124.4-5 248.9 1.7 372.8 13.1 17.9 1.7 36.6 3.7 50.9 14.2 14.2 10.5 20.8 32.4 8.8 45-7.5 7.9-21.7 13.1-20.4 23.8.8 6.9 8.2 11 15 13.2 65.6 22.2 140.7-29 205.7-4.8 36.2 13.5 57.8 46.9 70 80.7 12.3 34.5-29.6 49.1-57.5 58.4-40.5 13.5-83.7 17.3-126.6 17.2-38.9 0-77.9-3.5-116.3 2.3-32.7 4.9-63.9 16.2-96 24-64.2 15.4-130.8 16.1-196.6 14.2-10.2-.2-22.1 2.3-31.8-1.1-9.2-3.1-17.9-11.7-26.5-16.6-19.5-10.8-40.5-18.8-62.1-25.3-37.7-11-79.1-19.7-118.3-23.2-13.5-1.3-26.5-3.6-39.2-6.9h.2s0 .3 0 .3z" fill="#edf8ff"/><path d="m422 466.5c10.5.7 20.3 4.9 28.4 11.3.7.6 1.5 1.1 2.4 1.4 4.8 2 10.2 1.4 15.3.7 9.9-1.3 19.8-2.4 29.7-3.7 1.1-.1 2.1 0 3.2.1 4.4 1.3 3 5.2 4.4 7.8 1.4 2.4 4.9 2.9 7.6 2.9 78.7 0 157.2.1 235.9.2 13.9 0 27.8 0 41.7-.7 21.5-1.2 42.7-3.9 63.7-8.6 1.7-.4 2.1-2.5.7-3.6-6.9-4.9-15.9-6.7-24.2-8-132.2-22.5-266.9-25.3-400.4-36.8-49.2-4.2-101.7-9.1-145.2 14.3-14.1 7.5-1.2 15.6 8.1 19 8 2.9 16.9 1.2 25.4 1.2 27.5-.4 55.1 0 82.6.8 2 0 11.2 1.1 20.8 1.7h-.2z" fill="#edf8ff"/><path d="m177.8 489.5 36.1-1.9c13.1-.7 26.2-1.4 39.2-.4 9.3.7 18.6 2.3 27.9 2.9 9.7.5 19.5-.1 29.2-.7 1.8 0 3.6-.2 5.2-1.1 2.9-1.3 4.5-4.4 5.1-7.8.7-5.1-3.1-9.7-8-9.9-26.9-.7-53.9-.1-80.8 2.1-13.7 1.2-27.5 2.9-41 5.8-3.9.8-7.8 2.3-11.3 4.3-1.7.8-3.5 2-3.8 4.1-.4 1.5.7 2.9 2.3 2.9v-.2z" fill="#edf8ff"/><path d="m76.9 511.1c14.3.8 28.6 1.7 42.8 2.5l21.6 1.3c16.9 1.1 34.6 1.9 50.8-3.5 2.5-.8 5.4-2 6.2-4.5.8-2.3-.2-5.1-2-6.8-3.1-3-7.6-3.6-11.8-3.9-38.8-3.7-77.6.5-116.3 5.1-3.1.4-23.2 2.5-18 7.2 2.3 1.9 10.6 1.5 13.5 1.8 4.3.4 8.8.6 13.1.8z" fill="#edf8ff"/><path d="m354.9 526.5c1.5.8 3.6 1.1 5.4 1.1 7.8.1 15.5.4 23.4-.5.5 0 1.1-.1 1.4-.5.5-.6 0-1.5 0-2.4s1.2-2.3 2.3-2.9 2.4-.8 3.3-1.8c.8-.8 1.3-2.5.2-3.3-.6-.4-1.4-.4-2-.4-4.1.1-8.1.4-12.3.5-3 0-32.1 4.1-21.7 10.2z" fill="#edf8ff"/><path d="m290.5 430.1h166v28h-166c-1.5 0-2.6-1.3-2.6-2.6v-22.5c0-1.5 1.3-2.6 2.6-2.6v-.2z" fill="#ffd359"/><path d="m465.3 454.7h-173v-21.3h173c-4.9 6.2-4.9 15 0 21.3z" fill="#f0f0f0"/><path d="m292.4 433.4h55.6v21.3h-55.6z" fill="#fff"/><path d="m348 430.1h119.1c.6 0 1.2.5 1.2 1.2v1.2c0 .6-.5 1.2-1.2 1.2h-119.1v-3.5z" fill="#ffbd32"/><path d="m348 454.7h119.1c.6 0 1.2.5 1.2 1.2v1.2c0 .6-.5 1.2-1.2 1.2h-119.1v-3.5z" fill="#ffbd32"/><path d="m340.8 452.3-3.8-5.6c-.1-.2-.4-.2-.6 0l-3.8 5.6c-.2.2-.6.1-.6-.2v-12.9h9.5v12.9c0 .4-.4.5-.6.2z" fill="#5493b0"/><path d="m469.2 394h-151.3v-27.4h151.3c1.4 0 2.5 1.2 2.5 2.5v22.3c0 1.4-1.2 2.5-2.5 2.5z" fill="#03c7c0"/><path d="m313.1 371h152.8v18.8h-152.8c3.7-5.7 3.7-13.1 0-18.8z" fill="#fff"/><path d="m357.6 371h109.4v18.8h-109.4z" fill="#f0f0f0"/><path d="m357.6 394.2h-48.3c-.5 0-1.1-.4-1.1-1.1v-2.3c0-.5.4-1.1 1.1-1.1h48.3v4.3z" fill="#3bd9cc"/><path d="m357.6 371h-48.3c-.5 0-1.1-.4-1.1-1.1v-2.3c0-.5.4-1.1 1.1-1.1h48.3v4.3z" fill="#3bd9cc"/><path d="m285 332.1h171v34.7h-171c-1.7 0-3-1.4-3-3v-28.7c0-1.7 1.4-3 3-3z" fill="#ffd359"/><path d="m459.6 361.3h-170.2v-23.8h170.2c-2.9 7.6-2.9 16.2 0 23.8z" fill="#f0f0f0"/><path d="m288.1 337.4h115.3v23.8h-115.3z" fill="#fff"/><path d="m403.4 332.1h61.2c.6 0 1.3.5 1.3 1.3v3c0 .6-.5 1.3-1.3 1.3h-61.2v-5.5z" fill="#ffbd32"/><path d="m403.4 361.3h61.2c.6 0 1.3.5 1.3 1.3v3c0 .6-.5 1.3-1.3 1.3h-61.2v-5.5z" fill="#ffbd32"/><path d="m448.1 355.9-3.8-5.6c0-.2-.4-.2-.6 0l-3.8 5.6c-.2.2-.6.1-.6-.2v-12.9h9.5v12.9c0 .4-.4.5-.6.2z" fill="#5493b0"/><path d="m282.2 394.2h190.2v36h-190.2c-1.5 0-2.6-1.2-2.6-2.6v-30.6c0-1.5 1.2-2.6 2.6-2.6z" fill="#7ebcd9"/><path d="m387.2 394.2h84.7v36h-84.7z" fill="#7ebcd9"/><path d="m475.8 424.5h-82.9v-24.7h82.9c-2.6 8-2.6 16.7 0 24.7z" fill="#f0f0f0"/><path d="m392.9 394.2h85.5c.5 0 1.1.5 1.1 1.1v3.6c0 .5-.5 1.1-1.1 1.1h-85.5v-5.6z" fill="#5493b0"/><path d="m279.4 424.5h186v5.6h-183.4c-1.5 0-2.6-1.2-2.6-2.6z" fill="#7ebcd9"/><path d="m392.9 424.5h85.5c.5 0 1.1.5 1.1 1.1v3.6c0 .5-.5 1.1-1.1 1.1h-85.5v-5.6z" fill="#5493b0"/><path d="m306.2 404.8h4.4v14.5h-4.4z" fill="#5493b0"/><path d="m317.5 404.8h4.4v14.5h-4.4z" fill="#5493b0"/><path d="m328.9 404.8h4.4v14.5h-4.4z" fill="#5493b0"/><path d="m387.1 394.2h5.7v36h-5.7z" fill="#5493b0"/><path d="m414 429.9-9 7.6v-24.6h9z" fill="#03c7c0"/><path d="m448.1 332h-151.3v-27.4h151.3c1.4 0 2.5 1.2 2.5 2.5v22.3c0 1.4-1.2 2.5-2.5 2.5z" fill="#5493b0"/><path d="m291.8 308.8h152.8v18.8h-152.8c3.7-5.7 3.7-13.1 0-18.8z" fill="#fff"/><path d="m336.3 308.8h109.4v18.8h-109.4z" fill="#f0f0f0"/><path d="m336.1 332.1h-48.3c-.5 0-1.1-.4-1.1-1.1v-2.3c0-.5.4-1.1 1.1-1.1h48.3v4.3z" fill="#7ebcd9"/><path d="m336.1 308.8h-48.3c-.5 0-1.1-.4-1.1-1.1v-2.3c0-.5.4-1.1 1.1-1.1h48.3v4.3z" fill="#7ebcd9"/><path d="m610.1 464.4h-127.4l-9.7-14.7v-105.5h137.1c2.4 0 4.3 1.9 4.3 4.3v111.6c0 2.4-1.9 4.3-4.3 4.3z" fill="#ffbd32"/><path d="m485.9 459.3h-26.1v-102.1c0-7.3 5.8-13 13-13s13 5.8 13 13v102.1z" fill="#ffd359"/><path d="m472.8 344.1h137.1c2.4 0 4.3 1.9 4.3 4.3v4.5h-141.5v-8.9z" fill="#ffd359"/><path d="m482.6 464.4c-5.5-5.1-14.1-5.1-19.5 0v-106.1c0-5.4 4.3-9.7 9.7-9.7s9.7 4.3 9.7 9.7v106.1h.1-.1z" fill="#f0f0f0"/><path d="m482.6 458.4h3.3v6.2c0 .1 0 .4-.4.4h-2.6s-.4-.1-.4-.4v-6.2h.2z" fill="#ffd359"/><path d="m459.8 458.4h3.3v6.2c0 .1 0 .4-.4.4h-2.6s-.4-.1-.4-.4v-6.2h.2z" fill="#ffd359"/><path d="m518.4 375.6h109.4c1.8 0 3.2 1.4 3.2 3.2v83.6c0 1.2-.8 2.1-2.1 2.1h-99.2l-11.1-16.9v-71.9h-.2z" fill="#5493b0"/><path d="m530.2 444.5v19.9c0 .4-.4.7-.7.7h-1.5c-.4 0-.7-.4-.7-.7v-19.9h3.1-.1z" fill="#7ebcd9"/><path d="m509.4 444.7v20c0 .4-.2.6-.6.6h-1.5c-.4 0-.6-.2-.6-.6v-20h3-.2z" fill="#7ebcd9"/><path d="m517.2 375.6h110.4c1.8 0 3.2 1.4 3.2 3.2v2.5h-113.6z" fill="#7ebcd9"/><path d="m506.4 458.3v-70.7c0-6.5 5.4-11.8 11.8-11.8s11.8 5.4 11.8 11.8v70.7h-23.7z" fill="#7ebcd9"/><path d="m509.4 464.6v-77c0-5 3.9-9.1 8.9-9.1s8.9 4.1 8.9 9.1v77c-4.8-5.5-13.1-5.5-17.9 0z" fill="#f0f0f0"/><path d="m602.9 396.6h8.5v51.5h-8.5z" fill="#7ebcd9"/><path d="m585.7 396.6h8.5v51.5h-8.5z" fill="#7ebcd9"/><path d="m821.4 375.8h-208.9v-39.5h208.9c1.7 0 3 1.3 3 3v33.5c0 1.7-1.3 3-3 3z" fill="#5493b0"/><path d="m613.1 336.3h93.1v39.5h-93.1z" fill="#5493b0"/><path d="m608.8 342.6h91.1v27.2h-91.1c3-8.8 3-18.4 0-27.2z" fill="#fff"/><path d="m699.7 376h-94c-.6 0-1.2-.5-1.2-1.2v-3.8c0-.6.5-1.2 1.2-1.2h94v6.1z" fill="#7ebcd9"/><path d="m824.4 342.6h-204.5v-6.1h201.5c1.7 0 3 1.3 3 3v3.2z" fill="#5493b0"/><path d="m699.7 342.6h-94c-.6 0-1.2-.5-1.2-1.2v-3.8c0-.6.5-1.2 1.2-1.2h94v6.1z" fill="#7ebcd9"/><path d="m790 350.9h5v16h-5z" fill="#7ebcd9"/><path d="m777.6 350.8h5v16h-5z" fill="#7ebcd9"/><path d="m765.1 350.8h5v16h-5z" fill="#7ebcd9"/><path d="m699.7 336.4h6.2v39.5h-6.2z" fill="#7ebcd9"/><path d="m849.7 474.7h-237.1v-63.3h237.1c1.4 0 2.5 1.2 2.5 2.5v58.2c0 1.4-1.2 2.5-2.5 2.5z" fill="#ffbd32"/><path d="m614.5 411.4h103.3v63.3h-103.3z" fill="#ffd359"/><path d="m607.1 418.4h103.5v49.4h-103.5c6.2-15.9 6.2-33.5 0-49.4z" fill="#fff"/><path d="m627.8 474.8h-24.1c-.6 0-1.3-.5-1.3-1.3v-4.5c0-.6.5-1.3 1.3-1.3h24.1v7z" fill="#ffd359"/><path d="m852.4 418.4h-140.5v-7h138c1.4 0 2.5 1.2 2.5 2.5v4.4z" fill="#ffd359"/><path d="m627.8 418.4h-24.1c-.6 0-1.3-.5-1.3-1.3v-4.5c0-.6.5-1.3 1.3-1.3h24.1v7z" fill="#ffd359"/><path d="m799.5 449.4c.7 0 1.7 0 2.4.4v-13.2c-.7.2-1.5.4-2.4.4-5 0-9.1-4.1-9.1-9.1h-13.2c0 5-4.1 9.1-9.1 9.1s-1.5 0-2.1-.2v13.1c.7-.1 1.4-.2 2.1-.2 5 0 9.1 4.1 9.1 9.1h13.2c0-5 4.1-9.1 9.1-9.1z" fill="#ffd359"/><path d="m796.8 411.4h-198.8v-35.5h198.8c1.8 0 3.3 1.4 3.3 3.3v29.1c0 1.8-1.4 3.3-3.3 3.3z" fill="#03c7c0"/><path d="m594.3 381.4h198.2v24.5h-198.2c3.5-7.8 3.5-16.7 0-24.5z" fill="#fff"/><path d="m651.7 381.4h141.9v24.5h-141.9z" fill="#f0f0f0"/><path d="m651.7 411.4h-62.7c-.7 0-1.3-.6-1.3-1.3v-3c0-.7.6-1.3 1.3-1.3h62.7z" fill="#3bd9cc"/><path d="m651.7 381.4h-62.7c-.7 0-1.3-.6-1.3-1.3v-3c0-.7.6-1.3 1.3-1.3h62.7z" fill="#3bd9cc"/><path d="m625.2 413.8-7.5-11.1c-.2-.4-.8-.4-1.2 0l-7.5 11.1c-.4.5-1.3.2-1.3-.4v-25.4h18.7v25.4c0 .6-.8.8-1.3.4z" fill="#5493b0"/><path d="m653.1 115.4h-.4s.4.2.5.2h.2v-.2h-.4z" fill="#ffbc52"/><path d="m656.9 114.4h-.4s.4-.2.6-.2h.2v.2h-.5z" fill="#ffbc52"/><path d="m652 116.7h-.4s.4.2.5.2h.2v-.2h-.4z" fill="#ffbc52"/><path d="m652.3 118h-.4s.4.2.5.2h.2v-.2h-.4z" fill="#ffbc52"/><path d="m653.6 119h-.4s.4.2.5.2h.2v-.2h-.4z" fill="#ffbc52"/><path d="m659 114.1h-1.7s-.4.4-.2.5c-.5.2-1.2 0-1.7 0s-.7 0-1.2.2c-.2 0-.5 0-.6.2s-.2.4 0 .6c-.2 0-.5.2-.6.4 0 0-.2.2-.2.4s.2.5.4.6c0 0-.4.2-.4.5s0 .5.2.6h1.1c0 .2 0 .4.2.5h.6c.8 0 1.9-.2 2.6-.7.2 0 .5-.4.6-.5.4-.2.7-.2 1.3-.4 1.1 0 2-.4 3.1-.5-.2-1.2-.4-2.3-.6-3.5l-.5.2h-2.1v.4h-.2v.3z" fill="#ffbd32"/><path d="m660.7 114v.6c0 .7.8 2.9 1.1 2.9s6.1-.7 8.8-1.4c.7 0 1.5-.2 2.1-.5.2 0 .6 0 .8-.2 3-.7 5.5-2.3 8.2-3.3 1.3-.5 2.6-.6 3.9-1.2s2.4-1.2 3.5-2c1.7-1.5 2.6-3.9 2.3-6.2 0-.4 0-.7-.4-1.2 0 0-.2-.2-.4-.4-.7-.6-1.7-.6-2.5-.4-2 .8-6.8 2.9-7.8 3.5-2.4 1.4-4.8 3-7.2 4.3-3.6 2.1-7.4 4.1-11.3 5-.4 0-.6 0-1.1.2v.4h-.2.2z" fill="#47a7e3"/><path d="m710.2 165.3c.2.4.6.7.8 1.2s.5.8.5 1.3c0 0 .4 0 .4-.2.2.6.4 1.3.2 1.9.7-.8 1.5-1.9 1.8-3.1.4-1.7-.2-3.5-1.7-4.4-.4-.2-.8-.5-1.5-.6s-1.2.2-1.4.6c-.4.6 0 .8.2 1.5s0 1.2.2 1.8h.3z" fill="#d49d29"/><path d="m704.1 138.5c3.3 3.6 4.5 6.3 5.2 11.2s1.1 11.5 2.9 15.9c-1.7-2.4-2.6-5.2-3-8.1-.2-3-.7-6.8-1.4-9.5-1.1-4.1-2.4-6.9-5.6-9.4-1.7-1.3-3.6-1.9-5.4-3.1-.6-.5-1.3-1.2-.7-1.9.6-.8 1.3-.4 1.9 0 2.1 1.4 4.2 3.1 6 5h.1z" fill="#ffbd32"/><path d="m682.6 131.1h19.4v10.8h-19.4z" fill="#ffbd32"/><path d="m693.5 137.4-10 21.5-6 .6h-.2v-.2l6.9-25.2 9.4 3.3z" fill="#ffbd32"/><path d="m702.1 174.1h-5.2l-3-32.3h8.1v32.3z" fill="#ffbd32"/><path d="m685.3 172.2-5.1 1-3-13.3v-.3h.2l6-.6 1.8 13.3z" fill="#ffbd32"/><path d="m677.2 181 8-1.8c.7-.1 1.4-1.1 1.2-1.8l-1.2-5.2-5.1 1.2.7 3.6-4.2 3.3c-.4.2 0 .8.4.8h.1z" fill="#3b94d9"/><path d="m677.2 181 5.8-4.5-.7-3.6-2 .5.7 3.6-4.2 3.3c-.4.2 0 .8.4.8z" fill="#49acea"/><path d="m680.3 174.4 2-.4v.5c.1 0-1.8.4-1.8.4v-.5z" fill="#3b94d9"/><path d="m680.6 175.7 2-.4v.5c.1 0-1.8.4-1.8.4v-.5z" fill="#3b94d9"/><path d="m680.9 176.9 2-.4v.5c.1 0-1.8.4-1.8.4v-.5z" fill="#3b94d9"/><path d="m692.2 181h8.2c.8 0 1.5-.6 1.5-1.5v-5.4h-5.2v3.7l-4.9 2.3c-.5.2-.4.8 0 .8h.3z" fill="#3b94d9"/><path d="m692.2 181 6.8-3.2v-3.7h-2v3.7l-4.9 2.3c-.5.2-.4.8 0 .8h.1z" fill="#49acea"/><path d="m696.9 174.7h2v.5h-2z" fill="#3b94d9"/><path d="m696.9 175.9h2v.5h-2z" fill="#3b94d9"/><path d="m696.9 177.2h2v.5h-2z" fill="#3b94d9"/><path d="m678.4 158.9-.8.6-.2.2v-.4l.8-.6h.2z" fill="#d49d29"/><path d="m698.9 160.1 1.1-1.1v-.2h-.2l-1.1 1.1v.2z" fill="#d49d29"/><path d="m698.9 160.1v-.2l-1.1-1.1h-.2v.2l1.1 1.1z" fill="#d49d29"/><path d="m702.1 126.3c-.2 1.2-.5 2.3-1.3 3.1-.6.7-1.5 1.3-2.5 1.5-1.5.5-3.3.5-5 .7s-3.5.4-5.1.4-4.4 0-6.7-.4c-.2 0 1.3-26.4 5-31.7.5-.7 1.2-1.7 1.9-2.3 1.3-1.1 2.6-1.7 4.3-1.9 1.5-.4 3.2-.5 4.8 0 2.3.5 4.8 9.5 4.4 12.3 0 .5.4 16.8 0 18.2v.2h.1z" fill="#b3e0ff"/><path d="m702.6 104.4c0-1.4 0-3-.6-4.3-.2-.5-.6-1.9-1.3-2.1-.8-.4-1.5 1.4-1.9 2-1.4 2.1-2.9 4.4-4.2 6.8-2.6 4.5-5 9.2-7.2 14.1 0 .2-.2.6-.2.8 0 .5 0 .8.4 1.3 1.7 3.3 3.6 8.6 5.6 11.8.4.6 1.1 1.1 1.8 1.1h8.1c.6-.1 1.1-.7 1.1-1.4-.2-5.7-1.3-27.4-1.5-30.2v.2h-.1z" fill="#2976b3"/><path d="m686.6 120.2.5 1.9s-1.7 13.5-2.4 14.4c-.4.4-3.3.5-3.3.1 0-6 .5-28.9 5-37.1 0-.4-.2 4.5-.7 8.9-.4 3.9 0 7.9 1.1 11.6v.2h-.1z" fill="#2976b3"/><path d="m686.5 122.2c0 .2.2.5.5.5s.5-.2.5-.5-.2-.5-.5-.5-.5.2-.5.5z" fill="#47a7e3"/><path d="m692.7 123.2c-.2 0-.4.2-.2.4.8 1.4 2.5 2.3 4.2 2.1.7 0 1.7-.2 2.3-.7.2-.2.7-.6.8-1.2 0-.2 0-.6-.4-.6h-6.8z" fill="#47a7e3"/><path d="m686.5 123.6s.2 0 0 .2c-.5.8-1.5 1.5-2.5 1.5s-1.1 0-1.4-.5c0 0-.4-.4-.6-.7 0-.2 0-.5.2-.5z" fill="#47a7e3"/><path d="m712.3 141.2v.4c0-.1.2-.4.2-.5v-.2h-.2v.4z" fill="#ffbc52"/><path d="m711.3 137.2v.4c0-.1-.2-.4-.2-.6v-.2s.2 0 .2.1v.4z" fill="#ffbc52"/><path d="m713.6 142.4v.4c0-.1.2-.4.2-.5v-.2h-.2v.4z" fill="#ffbc52"/><path d="m714.9 142.2v.4c0-.1.2-.4.2-.5v-.2h-.2v.4z" fill="#ffbc52"/><path d="m716 140.8v.4c0-.1.2-.4.2-.5v-.2h-.2v.4z" fill="#ffbc52"/><path d="m711.2 135.2c0 .2 0 .6-.2.8v.8c0 .2.4.4.5.2.2.5 0 1.2 0 1.7s0 .8.2 1.3c0 .2 0 .5.2.6 0 .1.4.2.6 0 0 .2 0 .5.4.6 0 .1.2.2.4.2s.5-.2.6-.4c0 .1.2.4.5.4s.5 0 .6-.2v-1.1c.2 0 .4 0 .5-.2v-.6c0-.8-.2-1.9-.6-2.6 0-.2-.4-.5-.5-.7-.2-.4-.2-.8-.4-1.3 0-1.1-.2-2.1-.4-3.2-1.2 0-2.4.4-3.6.5 0 0 .2.5.2.6v2.1l.4.2h.4z" fill="#ffbd32"/><path d="m711.1 133.3h.6c.7 0 2.9-.7 3-.8 0 0-.6-6.2-1.2-9.1 0-.7-.2-1.5-.5-2.3 0-.2 0-.6-.2-.8-.7-3-2.1-5.6-3.2-8.6-.5-1.3-.6-2.6-1.1-4.1-.5-1.3-1.2-2.5-2-3.6-1.5-1.8-3.9-2.9-6.3-2.4-.4 0-.7 0-1.2.4 0 0-.2.2-.4.4-.6.7-.7 1.7-.4 2.5.7 2 2.9 7 3.3 7.9 1.4 2.5 3 4.9 4.3 7.4 2 3.7 4.1 7.5 4.9 11.7 0 .4 0 .6.2 1.1v.2h.2z" fill="#47a7e3"/><path d="m689.6 104.9h-.6c-1.3 0-2.5.5-3.2 1.5.5-1.1-.5-2.6-.5-3.7s.2-2.9-.4-4.1c-.4-.6-.8-1.3-1.3-1.9-1.5-2.6.8-5.7 2.5-7.6.4-.5.8-1.1 1.2-1.5.5-.7.7-1.7 1.1-2.4.5-1.4 1.3-3 2.5-3.8 1.2-1.1 3-1.5 4.3-.8.4 0 .7.4 1.3.5h1.3c1.3 0 2.5 0 3.7.2s2.1 1.2 2.9 2.3c.2.6.4 1.4.7 2 .4.5.8 1.1 1.2 1.7.5 1.2-.4 2.4-.2 3.7 0 1.4 1.3 3 .6 4.2-.2.6-.7 1.1-1.1 1.5-.2.6-.2 1.3-.4 1.9-.5 1.4-1.9 1.5-3.1 2.1-1.4.7-3.1 1.3-4.5 1.4-.5 0-1.2 0-1.7.2-1.2.4-2 1.5-3.2 2-.8.4-1.9.5-3 .5h-.1z" fill="#ffbd32"/><path d="m699.6 91.9c-.2 1.1-.8 1.8-1.5 2.5s-1.4 1.4-1.9 2.3c-.4.5-.6 1.1-1.1 1.5-.8.8-2.1 1.1-3.5 1.2h-1.7c-.5 0-1.1-.5-1.2-1.1-.2-.7 0-1.5 0-2.3s-.8-1.2-.8-1.9 0-1.2.4-1.7c.4-1.2 1.3-2 1.4-3.3v-1.4c0-.4 0-.7.4-1.1.5-.5 1.2-.5 1.8 0h.4s.2 0 .2-.2c.4-.5.8-1.1 1.4-1.3.5-.4 1.2-.5 1.8-.4h.2c.5.2.8.6 1.2 1.1.2.5.5 1.2.6 1.8 0 .2 0 .5.2.7s.5.5.7.6c.7.6.8 1.8.6 2.9v.2h.2v-.2z" fill="#ffe6a1"/><path d="m687.3 85.8h-.6c-.2 0-.4 0-.6.2 0 0-.2.4 0 .6 0 .2 0 .5.2.6.4.5 1.1.8 1.7 1.2.2-.2.5-.5.6-.7.5-1.1-.5-1.5-1.4-1.8h.1z" fill="#ffe6a1"/><path d="m688.1 88 .4-.6-1.6-.7s1.2 1.4 1.2 1.4z" fill="#03405c"/><path d="m689.7 87.1-1.2-.2.2.2-.5.2-.5.2v.4h-.4l.2 1.4 2.1-2.2z" fill="#ffbd32"/><path d="m696.2 84.9-3.5 5v2.6l-.2.6-2.5.6v-.4l1.3-3.6-1.2-3c.5-.5 1.2-.5 1.8 0h.4s.2 0 .2-.2c.4-.5.8-1.1 1.4-1.3.5-.4 1.2-.5 1.8-.4h.5z" fill="#f8f6ff"/><path d="m691.4 93.1c.4 0 .7-.4 1.1-.6 0 0 .4-.2.5 0 .2 0 0 .4 0 .6-.4.8-1.2 1.5-1.9 2.1h-.2c-.5 0-1.7-.8-1.4-1.5.2-.5 1.5-.4 2-.6z" fill="#03405c"/><path d="m694.1 89.8-.2 1.2-.2-1.2s0-.4.2-.4l1.2-.2-.8.6h-.1z" fill="#03405c"/><path d="m690.3 89.9v1.1l.4-.8v-.4l-.8-.4.6.6s-.2 0-.2 0z" fill="#03405c"/><path d="m694.7 88.3s0 .2-.5.5c-.2.2-.5.4-.6.2s0-.2.5-.5c.2-.2.5-.4.6-.2z" fill="#03405c"/><path d="m690 88.2s0 .2.4.5.5.5.5.4 0-.2-.4-.5c-.2-.2-.5-.5-.5-.4z" fill="#03405c"/><path d="m684 76.8h.4v3.8h-.4z" fill="#5493b0"/><path d="m709.5 76.9-12.9 4.4-12.9-4.4v-.2l12.9-4.9 12.9 4.9z" fill="#7ebcd9"/><path d="m683.8 76.9h.5l12.4-4.4 12.4 4.5h.5v-.4l-12.9-4.9-12.9 4.9v.2z" fill="#5493b0"/><path d="m704.3 83.6h-15.3v-5.1c4.9-2.5 10.5-2.5 15.3 0z" fill="#5493b0"/><path d="m703 78.3c-2.5-1.4-5.5-2-8.5-1.9 2.4 0 4.8.7 6.9 1.9v5.1h1.4v-5.1z" fill="#7ebcd9"/><path d="m684.8 80.7c0 .4-.4.7-.7.7s-.7-.4-.7-.7.4-.7.7-.7.7.4.7.7z" fill="#5493b0"/><path d="m683.9 80.8c-.4 0-.7.4-.7.7v2.6c0 .2-.2.5-.5.6.4 0 .7-.4 1.1-.7v1.4c.5-.6.6-1.3.7-2 .2.2.4.5.4.8 0-.4 0-1.1.2-1.5v-1.4c0-.5-.5-.7-.8-.7h-.3z" fill="#5493b0"/><path d="m700.8 82.5h.8c.3 0 .6 0 .7.2.2.2.2.5.2.8s0 .6-.4.8c-.5.7-1.2 1.3-2 1.7h-.4c-.4-.2-.6-.5-.8-.8-.7-1.3.6-2.1 1.7-2.5h.2z" fill="#ffe6a1"/><path d="m700.2 85.4-.6-.6 1.9-1.4z" fill="#03405c"/><path d="m698 84.8 1.4-.5v.5h.5l-.2.2h.6v.5h.5l.2 1.3-3.1-2z" fill="#ffbd32"/><path d="m387.5 290c3.2.6 6.8-.6 8.9-3.2.2.5-.4 1.1-.6 1.3 3.3-1.5 6.2-4.2 8-7.4.2-.4.5-.8.6-1.4.2.1 0 1.1 0 1.1 1.2-1.4 2.1-3.1 2.9-4.8.6-1.4 1.2-3 1.4-4.4s.2-1.5.4-2.3c0-.8 0-1.8.2-2.9 0-.8.2-1.9.4-2.9.4-1.8 1.4-3.6 3-4.5.2 0 .4-.2.5-.5.4-.8-3.6 0-4.1.2-1.5.5-2.9 1.4-3.9 2.5-1.1 1.1-1.8 2.1-2.4 3.5s-1.2 2.6-1.5 4.1c-.2 1.4-.6 3-1.4 3.9-.2.4-.6.6-1.1.8.2.2.7.2 1.1 0-.7.7-1.3 1.8-1.8 2.6-.6 1.2-1.2 2.4-1.9 3.6-1.3 2.1-3.3 4.1-5.7 3.9 1.1.5 2.1.5 3.2.1-.8 2.9-3.2 5.2-6 6.2v.3h-.1z" fill="#eceaed"/><path d="m401.5 282.1c0 .8-.4 1.7-.6 2.5-1.4 1.4-3.3 2.9-5.1 3.6.2-.2.8-.8.6-1.3-2.1 2.5-5.6 3.8-8.9 3.2 2.9-1.1 5.1-3.5 6-6.2-1.1.4-2.1.2-3.2-.1 2.4.1 4.4-1.8 5.7-3.9 0 0 0-.1.1-.2.5-.4 1.1-.7 1.5-1.3-.4 2.6-1.4 5.2-3.1 7.4 1.3-.7 2.3-1.7 3.3-2.6-.1.7-.2 1.5-.5 2.3 1.5-.6 2.9-1.7 3.9-3v-.2h.1v-.2h.1z" fill="#a5a5a5"/><path d="m401.3 268.6c.5 0 1.1-.2 1.7-.4h.5c.4 0 .5.6.5 1.2.4 0 .5-.5.8-.5s.4.1.5.2c.4.4.6.7.7 1.3.4-.1.7-.5 1.1-.8.6.5.8 1.4.8 2.3.2-.1.5-.4.7-.6 0-.7.2-1.5.4-2.3 0-.8 0-1.8.2-2.9-.6 0-1.3.2-1.9.4 0-.2-.2-.6-.2-.8-.2.2-.6.4-1.1.2-.4-.1-.5-.5-.5-.8-.4 0-.6.2-.8.5-.2-.2-.5-.6-.5-.8 0 .5-1.1.4-1.3 0-.6 1.3-1.2 2.6-1.5 4.1 0 .1-.2 0-.2 0h-.1z" fill="#a5a5a5"/><path d="m397.9 275.9h.8v1.3c.4-.1.7-.4 1.2-.5v.6c.2 0 .5 0 .6-.1v2.3c.6-.5 1.3-1.1 1.8-1.7v.8c.4-.2.6-.4 1.1-.6 0 .8.2 1.8.2 2.6.2-.4.5-.8.6-1.4.2.1 0 1.1 0 1.1 1.2-1.4 2.1-3.1 2.9-4.8-.4-.8-.6-1.8-1.1-2.6 0 .7-.2 1.4-.2 2.1-.2-.4-.5-.7-.6-1.2-.5.5-.8 1.1-1.2 1.7-.2-.5-.2-1.1-.2-1.5-.2 0-.5.2-.6.5 0-.5-.2-1.2-.4-1.7l-.7.7v-1.1c-.4 0-.6.2-.8.5 0-.4 0-.8-.2-1.3-.4.4-.7.7-1.1 1.2v-.2c-.2.4-.6.6-1.1.8.2.2.7.2 1.1 0-.7.7-1.3 1.8-1.8 2.6v-.5h-.2z" fill="#a5a5a5"/><path d="m402.6 293.7 1.5 4.5.8-.4c4.2-1.9 8.1-4.4 11.7-7.5l.4-.2c1.7-1.5 3.3-3.2 4.8-4.9l-3.9-8.7s-1.2 2.6-2.1 3.8c0 .1-9.7 10.8-13.1 13.5v-.2h-.1z" fill="#ffd359"/><path d="m415 281s1.4 7.3 1.8 9.2l.4-.2c-.4-1.8-1.2-6.7-1.8-9.3l-.4.4z" fill="#ffbd32"/><path d="m403.9 304.9-5.2-5.8c-.5-.6-.5-1.5 0-2l3.8-3.5 3.3 3.7-2.5 2.3 1.4 4.9c0 .5-.4.7-.7.5z" fill="#03405c"/><path d="m403.9 304.9-2-6.8 2.5-2.3 1.3 1.5-2.5 2.3 1.4 4.9c0 .5-.4.7-.7.5h.1z" fill="#045378"/><path d="m403.4 296 .4-.3 1.4 1.5-.4.3z" fill="#03405c"/><path d="m402.6 296.9.4-.3 1.4 1.5-.4.3z" fill="#03405c"/><path d="m402 297.4.4-.3 1.4 1.5-.4.3z" fill="#03405c"/><path d="m422.8 226s3.5 8.2 3.6 9.3c.2 1.4.4 2.9.5 4.2v1.2c.2 3.8.5 7.5.8 11.3 0 1.1.2 2 .5 3 .2-.2.5-.6.7-1.1v-.2c.2-.2.4-.6.6-1.1v-.4c0-.4.4-.7.5-1.1 1.4-3.2 1.8-6.8.8-10-.6-2.4-1.8-4.5-3-6.8-.6-1.3-1.3-2.5-2-3.8-.2-.6-3.1-5-3.8-4.5h.5z" fill="#045378"/><path d="m410.8 253.1s4.2 27.2 5.7 34.6l.2 1.1 2.5 10.4 4.8-1.3-2.1-15.1c0-.2.2-.5.4-.7 2-4.1 3.2-8.6 3.6-13l2.9-16.7-18 .8h.1-.1z" fill="#ffd359"/><path d="m422 282.7c0-.2.2-.5.4-.7-.5-3.7 0-13.7 0-18.8v-3.9c0-.5 0-.2-.2-.2 0 0-.2 0-.2.2v3.9c-.4 8-.6 16.7 0 19.7h.1-.1z" fill="#ffbd32"/><path d="m430.1 303.1-7.6 1.9c-.7.2-1.5-.2-1.8-1.1l-1.3-5 4.8-1.3.8 3.5 5 1.1c.5 0 .5.7 0 .8h.1z" fill="#03405c"/><path d="m430.1 303.1-6.9-1.4-.8-3.5 1.9-.5.8 3.5 5 1.1c.5 0 .5.7 0 .8z" fill="#045378"/><path d="m422.7 298.8 1.9-.5v.5c.1 0-1.8.5-1.8.5v-.5z" fill="#03405c"/><path d="m422.9 299.9 1.9-.5v.5c.1 0-1.8.5-1.8.5v-.5z" fill="#03405c"/><path d="m423.1 300.8 1.9-.5v.5c.1 0-1.8.5-1.8.5v-.5z" fill="#03405c"/><path d="m421.8 279.3v-.2l-1.4-1.4h-.2v.2l1.4 1.4z" fill="#ffbd32"/><path d="m410.2 254c.5.7 1.4 1.2 2.3 1.4 2.1.6 4.3 1.4 6.7 1.7 2.1.2 4.3 0 6.3-.6 1.5-.6 3.3-1.3 3.7-3.2v-4.1c0-1.3-.2-2.5-.4-3.9-.5-4.2-1.3-8.2-2.4-12.4 0-.4 0-.6-.2-1.1-.2-.8-.5-1.7-.7-2.4s-.6-1.7-1.2-2.4c-.4-.5-.7-.8-1.2-1.2-.7-.5-1.5-.8-2.3-1.1-1.2-.2-2.3-.2-3.5-.2s-1.9-1.5-2.6-1.1-1.8 2.5-2 3c-3.9 6.1-2.9 26.4-2.1 27.5h-.3z" fill="#03405c"/><path d="m426.4 232.7s.2 2.6.4 4.3c.2 2 .7 3.8 1.2 5.8.4 2.3 1.1 5.7 1.2 6.8v-2.3c-.4-2.6-2.1-13.5-2.6-14.7h-.1z" fill="#03405c"/><path d="m423.1 226.4v-.5c0-.1 0 .8 0 .8h.2v-.5h-.2z" fill="#045378"/><path d="m413.7 244.6h13.2v2.3h-13.2s-.2 0-.2-.2v-1.8s0-.2.2-.2z" fill="#ffd359"/><path d="m427.7 246.5h-13.7v-1.7h13.7c-.4.5-.4 1.2 0 1.7z" fill="#f0f0f0"/><path d="m413.8 244.8h4.4v1.7h-4.4z" fill="#fff"/><path d="m418.3 244.6h9.4c0 .1-9.4.1-9.4.1v-.2z" fill="#ffbd32"/><path d="m418.3 246.5h9.4c0 .1-9.4.1-9.4.1v-.2z" fill="#ffbd32"/><path d="m417.7 246.2-.2-.5-.2.5v-1.1h.7v1.1z" fill="#5493b0"/><path d="m411.8 246.7h19.2v3.8h-19.2z" fill="#3bd9cc"/><path d="m422.7 246.7h8.2v3.8h-8.2z" fill="#03c7c0"/><path d="m431.8 250h-8.6v-2.6h8.6c-.6.7-.6 1.9 0 2.6z" fill="#f0f0f0"/><path d="m430.1 246.7h2v.4h-2v-.6z" fill="#03c7c0"/><path d="m411.9 246.7h11.3v.6h-11.6v-.4s0-.2.2-.2z" fill="#03c7c0"/><path d="m430.1 250h2v.4h-2v-.6z" fill="#03c7c0"/><path d="m416.8 249.3v-.8c-.4 0-.6-.2-.6-.6h-.8c0 .4-.2.6-.6.6s0 0 0 0v.8c.4 0 .6.2.6.6h.8c0-.4.2-.6.6-.6z" fill="#03c7c0"/><path d="m417 249c.2 0 .5 0 .8-.1.2 0 .6 0 .8.1 0 0 .2.2.2.5.5.2 1.1 0 1.5 0s.7.1 1.2.2c.2 0 .4.1.5.2 0 .1.2.4 0 .6.2 0 .4.1.6.4 0 0 .2.2.2.4s-.2.4-.4.6c0 .1.2.2.2.5s0 .4-.2.5c0 0-.2 0-.4.1h-.6c0 .1 0 .4-.2.5h-.6c-.8 0-1.8-.2-2.4-.7-.2-.1-.4-.2-.6-.4-.4-.2-.7-.2-1.2-.4-.8-.1-1.9-.4-2.9-.5.2-1.1.4-2.1.6-3.2l.5.2h2v.2h.3z" fill="#a5a5a5"/><path d="m416.2 232.7c.4-.7.6-1.5.6-2.4 0-1.7-1.2-3.1-2.3-4.2s-.7-.7-1.3-.7-.6.2-.8.4c-2.1 1.5-3.1 4.1-4.3 6.3-1.5 2.5-2 5.7-3.3 8.5-1.1 2.1-2.3 4.4-1.7 6.8.4 1.4 1.5 2.5 2.9 3.3s2.9 1.2 4.3 1.3c.7 0 1.7.2 2.4.5.7.1 1.7.2 2.4.5s.2-.5.4-.7c.2-.8.5-3.1.4-3.2-.2 0-2-.6-2.5-.8-.7-.5-1.7-1.1-2.4-1.5-.7-.6-1.2-1.2-1.3-1.7v-1.1c.6-1.2 1.9-3.5 2.3-4.2 1.4-2.1 3-4.4 4.1-6.9h.2-.2z" fill="#045378"/><path d="m416.5 211.3c.4-.6.8-1.3 1.4-1.8s1.3-1.1 1.9-1.2h.4s.2.1.2.2c.6 1.2 1.4 2.4 1.3 3.7 0 .1-1.5.4-1.7.4h-1.8c-.6 0-1.2-.1-1.8-.2-.7-.2-.5-.6 0-1.3h.1z" fill="#eceaed"/><path d="m428.6 216v.5c0 .4-.2.6-.5.8-.7 1.1-2 1.7-3.5 1.9-.7.1-1.5.2-2 .8s0 6.1.2 6.8c-1.2.5-9.1-1.1-9.3-2 0-.2.5-1.7.5-1.9v-1.3c-.2-1.5-.6-3-.8-4.4s0-3.1.5-4.4c.2-.5.6-1.2 1.2-1.4.8-.6 2.1-.7 3.3-.7s2.1 0 3.1.6c.6.4 1.1 1.1 1.4 1.7 0 .2.4.5.6.6.6.5 1.3.8 2 1.1h2c.5.1.7.6.8 1.2l.4.2h.1z" fill="#a5a5a5"/><path d="m426.4 214.9c0 .6-.7 1.5-1.1 2-.4.8-1.2 1.5-1.9 2.1-.4.2-.7.5-1.2.8-.5.5-.8 1.3-1.3 1.9s-1.1 1.3-1.8 1.4v-.6c-.2 0-.4.2-.6.2v-.5c0 .2-.4.4-.5.6.5-1.7.5-3.5.8-5.1.4-1.9 1.3-3.7 3-4.8 0 0 .4-.1.5-.2h.5c0 .2.4.5.6.6.6.5 1.3.8 2 1.1h.7v.4h.1z" fill="#a5a5a5"/><path d="m428.6 216v.5c0 .4-.2.6-.5.8-.7 1.1-2 1.7-3.5 1.9-.7.1-1.5.2-2 .8v.6c0 1.3 0 2.5.2 3.8v2.1c0 .2-.5 0-.7 0s-.6 0-.8-.1v-.8c0-.2 0-.6-.4-.7s-.5-.2-.7 0c0-.4 0-.6-.2-.8s-.5-.4-.8-.2c0 0 .2-.6 0-.6h-.4c.4-.4.7-.8.8-1.4h-.5c.2-.4.4-.6.6-1.1h-.7c.8-.4 1.8-.7 2.4-1.4s.4-.5.5-.7c.5-.7 1.2-1.7 1.9-2.3.6-.6 1.4-1.1 2.1-1.3h1.7c.5.1.7.6.8 1.2v-.2h.3z" fill="#eceaed"/><path d="m420.9 212.7c-.2 0-.5.1-.6.2 0 0-.2.2-.4.4-.6.6-1.2 1.4-1.5 2.1s-.6 1.7-1.1 2.4-.8 1.5-1.7 2c.2 0 .5-.1.7-.4v.7s.4 0 .5-.1v.7c.2 0 .5-.2.7-.4v.5l.4-.2v.8l.5-.2v.5c.2-.4 0-.7 0-1.3 0-1.2.4-2.1 1.2-3.1.2-.2.4-.5.6-.7s.5-.6.6-1.1c.2-.4.4-.7.5-1.3 0-.4.2-.7.5-1.1s.6-.5 1.1-.5c.2-1.1-1.7-.6-2-.5h-.2.1v.3h-.1z" fill="#eceaed"/><path d="m413.2 214.7c-.2-.7-.6-1.4-.7-2.1v-2.3c0-.1 0-.2.2-.4h.4c1.3 0 2.9.1 3.8 1.1 0 0-.5 1.5-.6 1.7-.2.5-.6 1.1-.8 1.5-.4.5-.7.8-1.3 1.3s-.7 0-1.2-.6h.2z" fill="#eceaed"/><path d="m413.7 213.4c0-.4-.2-.7-.4-1.2v-1.8h.2c.2 0 .4.2.6.4s.2 0 .4.1c.2 0 .4.1.6.2v.2s.4.2.5.4h-.2v.5c-.4.6-.5 1.4-.8 2 0 .2-.2.4-.5 0-.2-.2-.4-.6-.5-1.1h.2-.1z" fill="#a5a5a5"/><path d="m428.6 216s-.2 0-.4.1h-.7s-.2 0-.4-.2l-.4-.2c-.2 0-.4-.5-.4-.7h1.4c.4 0 .6.5.7.8v.2h.3z" fill="#241f3d"/><path d="m422.5 214.4c-.2 0-.6.1-.8.2s-.6.2-.8.2c.2.1.6.2 1.1.4.5 0 1.1 0 1.4-.2.5-.4-.2-.6-.6-.5h-.1z" fill="#241f3d"/><path d="m413.8 223.8c.6 0 2.1.7 2.9.8 2 .5 4.4 1.4 6.3 2.3-1.4.5-2.9.2-3.9.2-1.7 0-3.3-.5-4.8-1.5l-1.1-.7.6-1.2h-.1z" fill="#045378"/><path d="m775.3 208.2h-151.3v-27.4h151.3c1.4 0 2.5 1.2 2.5 2.5v22.3c0 1.4-1.2 2.5-2.5 2.5z" fill="#03c7c0"/><path d="m619.4 185h152.8v18.8h-152.8c3.7-5.7 3.7-13.1 0-18.8z" fill="#fff"/><path d="m663.7 184.9h109.4v18.8h-109.4z" fill="#f0f0f0"/><path d="m663.7 208.2h-48.3c-.5 0-1.1-.4-1.1-1.1v-2.3c0-.5.4-1.1 1.1-1.1h48.3v4.3z" fill="#3bd9cc"/><path d="m663.7 184.9h-48.3c-.5 0-1.1-.4-1.1-1.1v-2.3c0-.5.4-1.1 1.1-1.1h48.3v4.3z" fill="#3bd9cc"/><path d="m643.4 201.9-3.8-5.6c0-.2-.4-.2-.6 0l-3.8 5.6c-.2.2-.6.1-.6-.2v-12.9h9.5v12.9c0 .4-.4.5-.6.2z" fill="#5493b0"/><path d="m596.6 297.1h195.3v39.2h-195.3c-1.1 0-1.9-.8-1.9-1.9v-35.4c0-1.1.8-1.9 1.9-1.9z" fill="#3bd9cc"/><path d="m707 297.1h84.5v39.2h-84.5z" fill="#03c7c0"/><path d="m799.5 330.5h-86.5v-27.5h86.5c-6.2 8.1-6.2 19.4 0 27.5z" fill="#f0f0f0"/><path d="m782 297.1h20.2c.5 0 1.1.5 1.1 1.1v3.8c0 .5-.5 1.1-1.1 1.1h-20.2v-5.8z" fill="#03c7c0"/><path d="m597.1 297.1h115.2v5.8h-117.3v-3.7c0-1.2 1.1-2.1 2.1-2.1z" fill="#03c7c0"/><path d="m782 330.5h20.2c.5 0 1.1.5 1.1 1.1v3.8c0 .5-.5 1.1-1.1 1.1h-20.2v-5.8z" fill="#03c7c0"/><path d="m646 323.4c.5 0 1.2 0 1.7.2v-9.2c-.5.1-1.1.2-1.7.2-3.5 0-6.2-2.9-6.2-6.2h-9.2c0 3.5-2.9 6.2-6.2 6.2s-1.1 0-1.5-.2v9.1c.5 0 1.1-.2 1.5-.2 3.5 0 6.2 2.9 6.2 6.2h9.2c0-3.5 2.9-6.2 6.2-6.2z" fill="#03c7c0"/><path d="m279.4 291.3c.5-.8.8-1.8 1.4-2.6.4-.7 1.1-1.4 1.7-1.9.5-.4 1.2-.6 1.7-.2.4.4.2 1.1 0 1.5-.4 1.1-1.2 2-2 2.6-.5.4-1.1.6-1.4 1.1-1.2 1.4-2 2.4-2.6 3.8-.7-.5-1.4-1.5-1.4-1.5.6-.8 2.1-1.9 2.6-2.9h.1-.1z" fill="#ffbd32"/><path d="m284.3 288c-.4.8-1.1 1.8-1.7 2.4.4-.5.7-1.1 1.1-1.7.2-.5.4-1.2 0-1.5-.5-.4-1.2 0-1.7.2-.1.1-.4.2-.5.4.4-.5.7-.8 1.2-1.2s1.2-.6 1.7-.2c.4.4.2 1.1 0 1.5z" fill="#605f61"/><path d="m633.4 208.2h109.4c1.8 0 3.2 1.4 3.2 3.2v83.6c0 1.2-.8 2.1-2.1 2.1h-94.1l-16.3-16.9v-71.9h-.1z" fill="#5493b0"/><path d="m652.8 277.1v20.2c0 .2-.2.5-.5.5h-4.8c-.2 0-.5-.2-.5-.5v-20.2z" fill="#7ebcd9"/><path d="m620 277.1v20.2c0 .2-.2.5-.5.5h-4.8c-.2 0-.5-.2-.5-.5v-20.2z" fill="#7ebcd9"/><path d="m632.4 208.2h110.4c1.8 0 3.2 1.4 3.2 3.2v2.5h-113.6z" fill="#7ebcd9"/><path d="m614.4 290.8v-63.4c0-10.6 8.6-19.1 19.1-19.1s19.1 8.6 19.1 19.1v63.4h-38.4.1z" fill="#7ebcd9"/><path d="m620.1 297.1v-71.2c0-7.4 6-13.5 13.5-13.5s13.5 6 13.5 13.5v71.2c-7.9-6.1-19-6.1-26.9 0h-.2z" fill="#f0f0f0"/><path d="m718.1 229h8.5v51.5h-8.5z" fill="#7ebcd9"/><path d="m700.9 229h8.5v51.5h-8.5z" fill="#7ebcd9"/><path d="m680.8 208.2h109.4c1.8 0 3.2 1.4 3.2 3.2v83.6c0 1.2-.8 2.1-2.1 2.1h-99.2l-11.1-16.9v-71.9h-.2z" fill="#ffbd32"/><path d="m692.7 277.1v19.9c0 .4-.4.7-.7.7h-1.5c-.4 0-.7-.4-.7-.7v-19.9h3.1-.1z" fill="#ffd359"/><path d="m672 277.1v20c0 .4-.2.6-.6.6h-1.5c-.4 0-.6-.2-.6-.6v-20h3-.2z" fill="#ffd359"/><path d="m679.6 208.2h110.4c1.8 0 3.2 1.4 3.2 3.2v2.5h-113.6z" fill="#ffd359"/><path d="m692.8 220v70.7h-23.7v-70.7c0-6.5 5.4-11.8 11.8-11.8s11.8 5.4 11.8 11.8z" fill="#ffd359"/><path d="m671.8 297v-77c0-5 3.9-9.1 8.9-9.1s8.9 4.1 8.9 9.1v77c-4.8-5.5-13.1-5.5-17.9 0z" fill="#f0f0f0"/><path d="m765.4 229h8.5v51.5h-8.5z" fill="#ffd359"/><path d="m748.3 229h8.5v51.5h-8.5z" fill="#ffd359"/><path d="m148 401.7h166v28h-166c-1.5 0-2.6-1.3-2.6-2.6v-22.5c0-1.5 1.3-2.6 2.6-2.6v-.2z" fill="#ffd359"/><path d="m322.9 426.3h-173v-21.3h173c-4.9 6.2-4.9 15 0 21.3z" fill="#f0f0f0"/><path d="m149.9 404.9h55.6v21.3h-55.6z" fill="#fff"/><path d="m205.6 401.7h119.1c.6 0 1.2.5 1.2 1.2v1.2c0 .6-.5 1.2-1.2 1.2h-119.1v-3.5z" fill="#ffbd32"/><path d="m205.6 426.3h119.1c.6 0 1.2.5 1.2 1.2v1.2c0 .6-.5 1.2-1.2 1.2h-119.1v-3.5z" fill="#ffbd32"/><path d="m129.5 429.7h177.6v48.2h-177.6c-1.2 0-1.9-.8-1.9-1.9v-44.2c0-1.2.8-1.9 1.9-1.9z" fill="#3bd9cc"/><path d="m229.7 429.7h76.9v48.2h-76.9z" fill="#03c7c0"/><path d="m313.8 472.6h-78.7v-37.5h78.7c-5.4 11.9-5.4 25.6 0 37.5z" fill="#f0f0f0"/><path d="m298 429.7h18.4c.5 0 .8.4.8.8v3.5c0 .5-.4.8-.8.8h-18.4v-5.4.2z" fill="#03c7c0"/><path d="m129.5 429.7h104.8v5.4h-106.8v-3.3c0-1.2.8-1.9 1.9-1.9h.1z" fill="#03c7c0"/><path d="m298 472.6h18.4c.5 0 .8.4.8.8v3.5c0 .5-.4.8-.8.8h-18.4v-5.4.2z" fill="#03c7c0"/><path d="m152.9 443h4.2v22.4h-4.2z" fill="#03c7c0"/><path d="m163.6 443h4.2v22.4h-4.2z" fill="#03c7c0"/><path d="m174.5 443h4.2v22.4h-4.2z" fill="#03c7c0"/><path d="m269.4 473.7-11.5 9.7v-31.1h11.5z" fill="#ffbd32"/><path d="m144.8 371.8h148.5v30.1h-148.5c-1.4 0-2.5-1.2-2.5-2.5v-24.8c0-1.4 1.2-2.5 2.5-2.5v-.2z" fill="#3bd9cc"/><path d="m296.2 397.2h-147.8v-20.6h147.8c-2.4 6.7-2.4 14.1 0 20.6z" fill="#f0f0f0"/><path d="m147.4 376.4h100.1v20.6h-100.1z" fill="#fff"/><path d="m247.5 371.8h53.2c.6 0 1.2.5 1.2 1.2v2.5c0 .6-.5 1.2-1.2 1.2h-53.2v-4.8z" fill="#03c7c0"/><path d="m247.5 397.2h53.2c.6 0 1.2.5 1.2 1.2v2.5c0 .6-.5 1.2-1.2 1.2h-53.2v-4.8z" fill="#03c7c0"/><path d="m274.7 406.5-11.1 9.3v-29.9h11.1z" fill="#7ebcd9"/><path d="m44.9 484.4h134.9v24.5h-134.9c-1.3 0-2.3-1.1-2.3-2.3v-19.9c0-1.3 1.1-2.3 2.3-2.3z" fill="#ffbd32"/><path d="m184.1 505h-136.2v-16.8h136.2c-3.3 5.1-3.3 11.6 0 16.8z" fill="#fff"/><path d="m47.1 488.2h97.5v16.8h-97.5s0-16.8 0-16.8z" fill="#f0f0f0"/><path d="m144.6 484.4h43.1c.5 0 .8.4.8.8v2c0 .5-.4.8-.8.8h-43.1v-3.8z" fill="#ffd359"/><path d="m144.6 505h43.1c.5 0 .8.4.8.8v2c0 .5-.4.8-.8.8h-43.1v-3.8z" fill="#ffd359"/><path d="m55.3 457.6h141.1v26.6h-141.1c-1.2 0-2-.8-2-2v-22.7c0-1.2.8-2 2-2z" fill="#7ebcd9"/><path d="m133.3 457.6h62.8v26.6h-62.8z" fill="#7ebcd9"/><path d="m198.9 480.1h-61.4v-18.4h61.4c-1.9 6-1.9 12.4 0 18.4z" fill="#f0f0f0"/><path d="m137.5 457.6h63.3c.4 0 .7.4.7.7v2.6c0 .4-.4.7-.7.7h-63.3v-4.2z" fill="#5493b0"/><path d="m53.4 480.1h138v4.2h-136.1c-1.2 0-2-.8-2-2v-2.1h.1z" fill="#7ebcd9"/><path d="m137.5 480.1h63.3c.4 0 .7.4.7.7v2.6c0 .4-.4.7-.7.7h-63.3v-4.2z" fill="#5493b0"/><path d="m73.2 465.4h3.3v10.8h-3.3z" fill="#5493b0"/><path d="m81.7 465.4h3.3v10.8h-3.3s0-10.8 0-10.8z" fill="#5493b0"/><path d="m90 465.4h3.3v10.8h-3.3z" fill="#5493b0"/><path d="m133.3 457.6h4.2v26.6h-4.2z" fill="#5493b0"/><path d="m153.3 484.1-6.8 5.6v-18.2h6.8z" fill="#03c7c0"/><path d="m637.3 219.5-.5 2-2.3 7.7-.8 3.3-4.3 15.2-1 3.3-1.2 4-1.8 6-24 84.7h-3.5l5.8-20.8 1.1-3.3 4.3-15.2 1-3.3 4.3-15.1.8-3.4 4.3-15.1 1.1-3.4 3.2-11.1 1.2-4 .4-2 .4-1.3 4.3-15.2 1-3.3 2.7-9.7z" fill="#316882"/><path d="m611.1 238.5h19.5v3.3h-19.5z" fill="#316882"/><path d="m608.3 248.4h19.2v3.3h-19.2z" fill="#316882"/><path d="m614.1 228.7h19v3.3h-19z" fill="#316882"/><path d="m606 258.4h18.2v3.3h-18.2z" fill="#316882"/><path d="m603 268.2h18.5v3.3h-18.5z" fill="#316882"/><path d="m600.2 278.2h18.4v3.3h-18.4z" fill="#316882"/><path d="m597.3 288.1h18.7v3.3h-18.7z" fill="#316882"/><path d="m594.6 298h18.5v3.3h-18.5z" fill="#316882"/><path d="m592.1 307.9h18v3.3h-18z" fill="#316882"/><path d="m588.6 317.8h18.8v3.3h-18.8z" fill="#316882"/><path d="m586.2 327.7h19v3.3h-19z" fill="#316882"/><path d="m584.1 337.6h18.5v3.3h-18.5z" fill="#316882"/><path d="m619.5 219.5-.6 2-2.2 7.7-.8 3.3-4.3 15.2-1.1 3.3-4.2 15.1-1 3.4-4.3 15.1-1 3.4-4.3 15.1-.8 3.3-4.3 15.2-1.1 3.3-5.8 20.8h-3.5l36-126.3h3.5z" fill="#316882"/><path d="m609.4 284 4.9-11.5-6.8-8.1c-3.5-4.2-6.5-8.8-8.8-13.7l7.4-3.6 4.1 7.6 8.6 16.7v1.1l-6.5 13.1-2.9-1.4h-.1z" fill="#47a7e3"/><path d="m612.8 290.3-4.4-2.1c-.5-.2-.6-.7-.4-1.3l1.4-3 2.9 1.4-1.1 2 1.9 2.5c0 .2 0 .5-.4.5h.2z" fill="#b3f5f3"/><path d="m612.8 290.3-2.9-3.6 1.1-2 1.2.5-1.1 2 1.9 2.5c0 .2 0 .5-.4.5h.2z" fill="#605f61"/><path d="m611 286v-.2l1.3.5v.2z" fill="#b3f5f3"/><path d="m610.8 286.4v-.2l1.3.5v.2z" fill="#b3f5f3"/><path d="m610.4 287.2v-.2l1.3.5v.2z" fill="#b3f5f3"/><path d="m618.8 271.7v.2h-.5c0-.1-.5-.2-.5-.2 0-.1 1.1.1 1.1.1z" fill="#2976b3"/><path d="m602.2 298h-4.8c-.5 0-.8-.5-.8-1.1v-3.1h3.1v2.1l2.6 1.4c.2.1 0 .5 0 .5h-.1z" fill="#b3f5f3"/><path d="m602.2 298-3.8-1.9v-2.1h1.3v2.1l2.6 1.4c.2.1 0 .5 0 .5z" fill="#605f61"/><path d="m598.2 294.6v-.2h1.2v.2z" fill="#b3f5f3"/><path d="m598.1 295.3v-.2h1.2v.2z" fill="#b3f5f3"/><path d="m598.3 296v-.2h1.2v.2z" fill="#b3f5f3"/><path d="m596 269.4c.2 2.3.7 4.8.7 7v17.4h3.1s1.7-13 2.1-17.3v-1.3c0-8 .4-16.6.2-24.5l-.7.2h-.2c-1.7-.6-8.2-2-8.2-.5 0 5.1 2.6 13.7 3.5 18.8h-.4v.2z" fill="#47a7e3"/><path d="m600.8 276 1.2.6v-.2l-1.1-.5h-.2v.2h.1z" fill="#2976b3"/><path d="m633.9 237.5c.6-.6 1.2-1.4 1.1-2.3 0-.6-.6-1.2-1.2-1.4s-1.2-.4-1.8-.5c-.4 0-5.2-1.2-5.2-1.2-.5 0-2-.1-2.5-.1l.4 2.6c1.3.1 3.5.4 4.4.1.6 0 1.3 0 1.8.4 0 .6 0 1.3.6 1.7 0 0 .4.1.5.4 0 0 0 .2.2.4 0 .2.5.2.7.2s.5-.2.7-.4h.1z" fill="#a5a5a5"/><path d="m634.3 235c0 .8-.4 1.7-1.1 2.3s-.5.4-.7.4h-.2c0 .2.5.2.7.2s.5-.2.7-.4c.6-.6 1.2-1.4 1.1-2.3 0-.6-.6-1.1-1.2-1.4h-.2c.4.2.6.6.7 1.2h.1z" fill="#605f61"/><path d="m602.9 229.3c.2.5 0 1.1-.2 1.5-1.1 1.9-3.1 3.2-5 4.2-2 1.1-4.1 1.7-6 3 1.3 1.9 2.5 3.8 3.6 5.8v.5c-.6.6-1.3 1.2-1.9 1.8-3.2-3-5.8-6.2-7.9-10-.2-.4 0-.7.6-1.2 2.3-1.5 3.9-3.9 6.1-5.7.4-.4 2.5-2.4 3.1-2.5.4 0-.8 1.7-.5 1.7h6.3c.6 0 1.5.5 1.8 1.2v-.2z" fill="#3bd9cc"/><path d="m607.6 209.7c.2.1.5.2.6.5 1.2 2.6 3.6 3.3 5.1 5.2.7.8 1.4 2 1.2 3.2-.2.8-1.2 1.5-2 1.5s-1.5-.5-2-1.1c-.7.5-1.8.5-2.6-.8l-.5 8s1.3 1.3.6 1.3c-2.4.4-5.4-1.1-7.5-2.1v-.4c0-3.2 1.1-6.2 1.9-9.2 0-.6.4-1.3.6-1.8.5-1.1 1.3-1.9 2.3-2.4 0 0 .4-.1.5-.2 0-.1.2-.4.4-.6.4-.6 1.2-1.5 1.9-1.2h-.4v.2h-.1z" fill="#efecf0"/><path d="m613.6 215.9c.6.8 1.2 1.9.8 3-.2.8-1.2 1.5-2 1.5s-1.5-.5-2-1.1l3.3-3.5h-.1z" fill="#a5a5a5"/><path d="m606.8 209.1c-.2 0-.5.2-.5.5v1.2c0 .5.2.8.6 1.3.2.4.6.6 1.1.8.6.4 1.5.7 2.3.2.4-.1.6-.5.6-.8v-.2c0-.2-.4-.2-.6-.2-.5 0-1.1-.4-1.3-.7-.4-.4-.6-.7-.8-1.3-.2-.2-.5-.6-.7-.6h-.6z" fill="#d49d29"/><path d="m607.4 213.4c0 .2 0 .5.2.7 0 .2.2.5.5.6.2 0 .6 0 .5-.2 0-.5-.7-1.2-1.3-1.2z" fill="#605f61"/><path d="m577.3 273.4c.6.5 1.4.7 2.1.8h4.1c.4 0 .7 0 1.3-.2.5 0 1.1-.2 1.5-.5q0 0 0 0c.5-.1.8-.4 1.4-.6l.4-.2c.2-.1.5-.2.7-.5s0-.1.2-.2c0 0 .2-.1.2-.2h.2c0-.1.2-.2.2-.4s0-.1.2-.2c0-.1.2-.2.4-.4s.4-.5.6-.6c0 0 .2-.2.2-.4s.2-.2.2-.4c0 0 0-.2.2-.4 0-.1 0-.2.2-.4 0-.2.4-.5.5-.8 0-.4.4-.6.5-1.1v-.5c.4-1.1.5-2 .8-3.1.5-1.7 1.3-3.2 2.4-4.4 0-.1.2-.2.4-.4 0-.1.2-.2.4-.4.4-.4.8-.7 1.4-1.2.5-.4 1.1-.6 1.5-.8s.4 0 .5-.1h.2v-.2c-.2-.2-.6-.2-.8-.4-.5-.1-1.2-.2-1.7-.4h-4.2c-1.5.5-3 1.4-4.2 2.5-.8.7-1.8 1.7-2.5 2.6-1.2 1.8-1.7 3.8-2.3 5.8s-1.3 4.1-2.5 5.7-3.6 2.6-5.6 2.1h.2l.5.2z" fill="#ffbd32"/><path d="m605.7 208.7c-.2-.4-.4-.8-.5-1.4-.4.1-.5.4-.6.8v1.2c0 .6.5 1.4 1.2 1.7.4.2 1.7.4 1.5-.4 0-.4-.4-.6-.6-1.1s-.5-.6-.6-1.1h-.2v.2z" fill="#a5a5a5"/><path d="m591.9 251c0 .2.4.4.6.6 1.9 1.1 3.9 1.5 6.1 1.8 3.6.5 7.3 1.1 10.8.2 0 0 .2 0 .2-.1v-.2c-.2-3.2-1.1-6.2-1.4-9.3-.2-3.1 0-6.2.6-9.3.5-2.9.8-5.8-1.5-8-.6-.5-1.3-1.1-2-1.3-1.1-.4-2-.6-3.2-.7-.7 0-1.8-.5-2.5-.2-.4.1-.6.5-1.1.7-1.4 1.7-2.3 3.8-3.1 5.8-.8 2.6-1.7 5.4-2.3 8-.5 2.5-1.1 5.1-1.4 7.6 0 1.1-.4 1.9-.5 3v1.5h.5z" fill="#3bd9cc"/><path d="m627.8 232.4v.5c0 .6 0 2.4-.2 2.5 0 0-5.1.4-7.5.4h-2.6c-2.5-.1-4.9-.8-7.4-1.3-1.2-.1-2.3 0-3.5-.2-1.2-.1-2.1-.5-3.2-1.2-1.7-1.1-3-2.9-3-4.8s0-.6 0-1.1 0-.2.2-.4c.5-.6 1.3-.8 2-.6 1.8.4 11.3 3.1 13.5 3.8 3.3 1.2 6.8 2 10.2 2.1h1.5z" fill="#3bd9cc"/><path d="m589.7 232.5c.6.2 1.4.4 2 .2h.8c.8-.1 1.8-.4 2.5-.7.4-.1.6-.2 1.1-.5.4-.2.7-.5 1.2-.7q0 0 0 0c.4-.2.6-.5 1.1-.8l.2-.2c0-.1.4-.4.5-.5v-.2s0-.1.2-.2v-.6c0-.1 0-.2.2-.5 0-.2.2-.5.4-.7v-1.6c0-.2 0-.5.2-.7v-4.3c0-1.5.4-3.1.8-4.4 0-.1 0-.2.2-.4 0-.1 0-.2.2-.4.2-.5.5-.8.8-1.3.4-.4.7-.7 1.2-1.2s.2-.1.4-.2c0-.1-.8-.1-.8-.1-.5 0-1.1 0-1.5.1-.4 0-.6.1-1.1.2h-1.2s-.2 0-.4.1h-.2c0 .1-.2.2-.4.4h-.2c-1.2.8-2.1 2-3 3.3-.6.8-1.2 1.9-1.4 3-.5 1.8-.5 3.7-.5 5.5s0 3.7-.7 5.5c-.7 1.7-2.3 3.2-4.2 3.2l.2-.7h1.3z" fill="#ffbd32"/><path d="m502.6 328.6h19.2v9.7h-19.2z" fill="#2b3e78"/><path d="m503.1 329.9c0 .7 0 1.4.2 2.1 0 .2 0 .5.2.7.4.4 1.1.6 1.7.7 2.6.5 5.6.5 8.5.4 2.3 0 4.5-.2 6.7-1.1.4 0 .6-.2.8-.5 0-.2.2-.5.2-.7 0-1.4.4-4.5.4-7.8v-7.2c0-1.9-.6-3.8-1.3-5.6-.2-1.1-.6-2-1.2-3 0-.2-.4-.4-.5-.5-.2-.2-.5-.4-.8-.6-.2 0-.5-.2-.7-.2 0 0-.4.2-.8.5-1.5 1.1-3.3 1.5-5.1 1.5s-2.5-.2-3.7-.7c-.4-.1-.6-.2-.7-.4-.2 0-.6.7-.7 1.1-.4.6-.7 1.3-1.1 1.9-.6 1.4-1.4 2.9-1.7 4.3v3.5c0 1.3-.2 2.4-.4 3.6-.2 2.5 0 5.1 0 7.5l.2.4h-.1z" fill="#b3f5f3"/><path d="m516 325.9c.5 1.1.7 2.3 0 3.2-.4.6-1.3 1.1-2 1.2-.7 0-1.7 0-2.4-.2-.4 0-7.2-1.1-7.2-1.1-.6 0-2.5-.7-3.2-1.1l1.8-3.1c1.7.4 4.3 1.2 5.6 1.9.7.4 1.5.5 2.3.4h.2c0-.7.7-1.5 1.5-1.7.2 0 .5 0 .7-.1l.4-.4c.4-.2.7-.1 1.2 0 .4.2.5.5.7.8h.3z" fill="#b3f5f3"/><path d="m502.5 310.4c-1.8 1.3-3.2 2.9-4.1 4.8-.2.6-.6 1.3-.7 2-.6 2.4-1.1 5.1-.5 7.5 0 .6.2 1.2.6 1.7.5 1.1 1.5 1.8 2.5 2.5 1.5 1.1 3.1 1.8 4.9 2 1.2.1 2.3 0 3.1-.6.5-.5.7-1.4.8-2v-1.2c0-.2-.2-.4-.4-.5-.5-.6-1.3-1.1-2-1.4-.4-.1-.7-.4-1.2-.5-.6-.4-1.1-.8-1.3-1.5-.5-1.1-.5-2.1-.2-3.2.6-2.3 1.9-7.4 2.3-7.9.5-.7.6-1.7.2-2.4 0 0 .7-1.4.5-1.5-.5-.4-3 1.2-4.5 2.4z" fill="#b3f5f3"/><path d="m508.8 330.2h-.2v-3.5h1.8v2.5c0 .2 0 .6-.4.7-.2.1-.8 0-1.3 0v.2h.1z" fill="#b3f5f3"/><path d="m504.1 322.5c-.2-1.1-.2-2 0-3.1l1.3-4.3-1.3 7.5z" fill="#92d4d2"/><path d="m508.7 325.6c-.5 1.1-.7 2.3 0 3.3.4.6 1.3 1.1 2 1.2.7 0 1.7 0 2.4-.2.4 0 7.2-1.2 7.2-1.2.6-.1 2.5-.7 3.2-1.1l-1.8-3.2c-1.7.4-4.3 1.2-5.6 1.9-.7.4-1.5.6-2.3.4h-.2c0-.8-.7-1.5-1.5-1.7-.2 0-.5 0-.7-.1l-.4-.4c-.4-.2-.7-.1-1.2 0-.4.2-.5.5-.7.8h-.2v.2h-.1z" fill="#b3f5f3"/><path d="m522.2 309.5c1.8 1.3 3.2 3 4.1 5 .2.6.6 1.4.7 2 .6 2.5 1.1 5.4.5 7.9 0 .6-.2 1.3-.6 1.8-.5 1.2-1.5 1.9-2.5 2.5-1.5 1.1-3.1 1.9-4.9 2.1-1.2.2-2.3.1-3.1-.6s-.7-1.4-.8-2.1v-1.3c0-.2.2-.4.4-.5.5-.6 1.3-1.2 2-1.5.4-.1.7-.4 1.2-.6.6-.4 1.1-1.1 1.3-1.7.5-1.1.5-2.1.2-3.3-.6-2.4-1.9-7.8-2.3-8.1-.5-.7-.6-1.7-.2-2.5 0 0-.7-1.4-.5-1.7.5-.4 3 1.2 4.5 2.5z" fill="#b3f5f3"/><path d="m515.7 330h.2v-3.6h-1.8v2.9c0 .2 0 .6.4.7.2.1.8 0 1.3 0z" fill="#b3f5f3"/><path d="m520.5 322.5c.4-1.1.4-2.1 0-3.2l-1.3-5.1 1.3 8.2z" fill="#92d4d2"/><path d="m498.2 342.7c-.2 1.3 0 2.6.4 4.1 0 .4.4.7.6 1.2.8.8 1.8.4 2.6 0s2-.6 3.1-.6v-5s-6.2-1.9-6.8.5v-.2z" fill="#03405c"/><g clip-path="url(#b)"><path d="m503 343.8c-1.2 0-2.3-.4-3.5-.8-.5-.2-1.1-.5-1.7-.6h-.2v.2c-.5 1.2-.2 2.3 0 3.6 0 .4 0 .8.5.8h.5c.8-.4 1.7-.8 2.5-1.2 1.5-.4 3.1 0 4.5 0h.2c0-.6 0-1.8-.7-1.8s-.6.1-1.1.2h-1.2v-.5z" fill="#efecf0"/><g clip-path="url(#c)" fill="#5899b8"><path d="m500.2 342.9h.6v4.3h-.6z"/><path d="m501.7 342.7h.6v4.3h-.6z"/><path d="m503.1 342.7h.6v4.3h-.6z"/></g></g><path d="m524.9 346.5c-.2 1.3-1.2 2.4-2 3.6-.2.4-.6.6-1.1.7-1.2.4-1.8-.4-2.4-1.2s-1.7-1.4-2.5-1.8l1.9-4.5s6.5.7 6 3.2z" fill="#241f3d"/><path d="m524.9 346.5c-.2 1.3-1.2 2.4-2 3.6-.2.4-.6.6-1.1.7-1.2.4-1.8-.4-2.4-1.2s-1.7-1.4-2.5-1.8l1.9-4.5s6.5.7 6 3.2z" fill="#03405c"/><g clip-path="url(#d)"><path d="m520.3 345.7c1.2.4 2.3.5 3.5.5h2v.2c0 1.2-.6 2.3-1.3 3.3-.2.4-.5.6-.8.6s-.2-.1-.4-.2c-.6-.6-1.2-1.5-1.8-2.1-1.2-1.1-2.9-1.4-4.2-1.9.2-.6.7-1.8 1.4-1.4.2.1.5.4.8.6.4.1.6.2 1.1.4h-.2z" fill="#efecf0"/><g clip-path="url(#e)" fill="#5899b8"><path d="m520.2 349.7 1.8-3.9.5.2-1.8 3.9z"/><path d="m518.8 349 1.8-3.9.5.2-1.8 3.9z"/><path d="m517.5 348.3 1.8-3.9.5.2-1.8 3.9z"/></g></g><path d="m503.7 341.5 15.1-5.7c1.3-.5 2.6-1.2 3.8-1.8l4.4-2.4c1.4-.7 3.2-.4 4.2.8 1.2 1.4.8 3.5-.4 4.8-3.1 2.6-6.8 4.8-10.7 6l-15.5 5-1.1-6.5v-.2h.1z" fill="#2976b3"/><path d="m496.2 329.2c2 8 10.2 15 17.6 17.1l2.4-.6-20-16.6z" fill="#21628e"/><path d="m519.8 342.8-12.6-10.2c-1.2-.8-2.1-1.9-3.1-3l-3.5-3.7c-1.2-1.2-3-1.4-4.3-.5-1.5 1.1-2 3.1-1.1 4.5 2.1 3.6 5 6.5 8.2 8.9l13.2 9.5 3.1-5.8v.2z" fill="#2976b3"/><path d="m514.7 308c0 .5.4 1.2.2 1.8 0 .6-.6 1.3-1.1 1.8-.2.4-.5.6-.7 1.1 0 0 0-.5-.2-.6 0-.2 0-.4-.2-.6 0-.4-.4-.7-.6-1.3-.2-.4.4-.4.6-.5.4-.1.7-.4 1.1-.6s.6-.6.8-1.1z" fill="#92d4d2"/><path d="m511 309.8c-.2.5-.6 1.1-.8 1.5 0 .4-.2.8-.5 1.2-.4-.6-.7-1.2-1.1-1.8-.2-.5-.5-1.2-.5-1.7v-.5c0-.2.4-.5.6-.4s.4.5.6.6c.5.4 1.1.7 1.5 1.2h.2z" fill="#92d4d2"/><path d="m511.8 311.8v.7c0 .2 0 .4.2.6v.6c0 .8-.4 1.9-.5 2.9-.2 1.1-.4 2-.6 3.1-.2 1.3-.5 2.6-1.2 3.8 0-1.8-.2-3.6-.2-5.5v-2.6c0-.8 0-1.4.4-2.3 0-.2 0-.5.2-.8 0-.2.2-.5.5-.7.2-.1.5 0 .7 0v.4h.4z" fill="#2976b3"/><path d="m510.6 310.5v-.6s.2-.1.4-.1h1.7s.2.2.2.4v.5c0 .1-.2.4-.4.5-.2.2-.6 1.2-1.1.7-.2-.1-.2-.4-.4-.6 0-.2-.2-.5-.4-.7h.1-.1z" fill="#03405c"/><path d="m523.6 335.5h.5v.5h-.6v-.5z" fill="#d3f2f1"/><path d="m522.8 335.5h.5v.5h-.6v-.5z" fill="#d3f2f1"/><path d="m522.1 335.5h.5v.5h-.6v-.5z" fill="#d3f2f1"/><path d="m521.5 335.5h.5v.5h-.6v-.5z" fill="#d3f2f1"/><path d="m520.6 335.5h.5v.5h-.6v-.5z" fill="#d3f2f1"/><path d="m519.9 335.5h.5v.5h-.6v-.5z" fill="#d3f2f1"/><path d="m519.1 335.5h.5v.5h-.6v-.5z" fill="#d3f2f1"/><path d="m518.5 335.5h.5v.5h-.6v-.5z" fill="#d3f2f1"/><path d="m517.8 335.5h.5v.5h-.6v-.5z" fill="#d3f2f1"/><path d="m516.9 335.5h.5v.5h-.6v-.5z" fill="#d3f2f1"/><path d="m516.2 335.5h.5v.5h-.6v-.5z" fill="#d3f2f1"/><path d="m515.5 335.5h.5v.5h-.6v-.5z" fill="#d3f2f1"/><path d="m514.8 335.5h.5v.5h-.6v-.5z" fill="#d3f2f1"/><path d="m514.1 335.5h.5v.5h-.6v-.5z" fill="#d3f2f1"/><path d="m513.2 335.5h.5v.5h-.6v-.5z" fill="#d3f2f1"/><path d="m512.6 335.5h.5v.5h-.6v-.5z" fill="#d3f2f1"/><path d="m511.8 335.5h.5v.5h-.6v-.5z" fill="#d3f2f1"/><path d="m511.1 335.5h.5v.5h-.6v-.5z" fill="#d3f2f1"/><path d="m510.4 335.5h.5v.5h-.6v-.5z" fill="#d3f2f1"/><path d="m509.7 335.5h.5v.5h-.6v-.5z" fill="#d3f2f1"/><path d="m508.9 335.5h.5v.5h-.6v-.5z" fill="#d3f2f1"/><path d="m508.1 335.5h.5v.5h-.6v-.5z" fill="#d3f2f1"/><path d="m507.5 335.5h.5v.5h-.6v-.5z" fill="#d3f2f1"/><path d="m506.8 335.5h.5v.5h-.6v-.5z" fill="#d3f2f1"/><path d="m506 335.5h.5v.5h-.6v-.5z" fill="#d3f2f1"/><path d="m505.2 335.5h.5v.5h-.6v-.5z" fill="#d3f2f1"/><path d="m504.5 335.5h.5v.5h-.6v-.5z" fill="#d3f2f1"/><path d="m503.8 335.5h.5v.5h-.6v-.5z" fill="#d3f2f1"/><path d="m503.1 335.5h.5v.5h-.6v-.5z" fill="#d3f2f1"/><path d="m502.3 335.5h.5v.5h-.6v-.5z" fill="#d3f2f1"/><path d="m501.7 335.5h.5v.5h-.6v-.5z" fill="#d3f2f1"/><path d="m500.8 335.5h.5v.5h-.6v-.5z" fill="#d3f2f1"/><path d="m501.4 334.1h1.5v2.5h-1.5z" fill="#03c7c0"/><path d="m521.9 334.1h1.5v2.5h-1.5z" fill="#03c7c0"/><rect fill="#03c7c0" height="1.5" rx=".3" width="24.1" x="500.4" y="336"/><rect fill="#3bd9cc" height="13.5" rx=".4" width="24.1" x="500.4" y="321.3"/><path d="m514.4 328.1c0 1.2-.8 1.9-1.9 1.9s-1.9-.8-1.9-1.9.8-1.9 1.9-1.9 1.9.8 1.9 1.9z" fill="#03c7c0"/><path d="m514.5 295.1c.5-.1 1.1-.1 1.5 0h.4c.4.2.7.6.7 1.1v.2c0 1.1-.2 1.9-.7 2.9 0 .2-.2.4-.4.6-.4 0-.7-.2-1.2-.5-.7-.5-2.1-1.2-2.5-2-.2-.6.2-1.3.6-1.7s.7-.5 1.3-.6z" fill="#efecf0"/><path d="m514.4 296.3c.4-.2.8-.2 1.3-.2h.2s.2.2.2.4v1.2c0 .4-.4.6-.5 1.1-.2 0-.4 0-.6-.2-.4-.2-1.2-.6-1.3-1.1 0-.5.4-.8.7-1.2z" fill="#cbc9cc"/><path d="m505.8 296.3c-.5 0-1.1.2-1.4.5 0 0-.2.1-.2.2-.2.4-.4.8-.2 1.3v.2c.4.8 1.1 1.7 1.8 2.3.2.1.4.2.5.5.4-.1.6-.5.8-.8.5-.7 1.5-1.9 1.5-2.9s-.6-1.1-1.2-1.3c-.5-.1-.8-.2-1.4-.1h-.3z" fill="#efecf0"/><path d="m506.4 297.5c-.4 0-.8 0-1.3.2l-.2.2v.4c0 .4.2.7.5 1.1s.6.5.8.7c.2 0 .4-.2.5-.4.2-.4.7-1.1.7-1.4s-.7-.7-1.2-.7z" fill="#cbc9cc"/><path d="m518.1 304.3v2c0 .4-.2.7-.5 1.1s-.5.5-.8.7c-1.8 1.2-4.1 1.4-6.2 1.7-1.5.1-3.6-.6-4.4-1.8-.7-1.1-.8-2.3-1.1-3.6 0-1.7 0-3.3.6-4.9.6-1.4 1.8-2.4 3.2-3.1h.2c.6-.2 1.4-.4 2-.4s1.4 0 2 .2c1.4.4 2.6 1.4 3.5 2.6 1.1 1.5 1.3 3.6 1.4 5.4h.2z" fill="#efecf0"/><path d="m513.6 303.6v1.3c0 .5-.5 1.1-.8 1.3-.5.2-1.1.2-1.5.2s-.4 0-.6-.1c-.4-.1-.6-.4-.8-.6s-.4-.6-.5-1.2c-.2-1.2 0-2.1 0-3.3v-3.6c0-.4 0-.8-.2-1.3.6-.2 1.4-.4 2-.4.2 1.4.6 3.3 1.3 4.5s1.2 2.3 1.4 3.1h-.1z" fill="#cbc9cc"/><path d="m511.9 303.2h.7c.2 0 .4.2.5.5 0 .4 0 .7-.2 1.1-.2.2-.5.4-.8.4h-1.1c-.2 0-.5 0-.7-.2-.2-.1-.4-.4-.5-.6-.2-1.1 1.5-1.3 2.1-1.3v.2z" fill="#03405c"/><path d="m508 300.5h-.4s-.2 0-.2.2v.4c0 .5.7.7 1.3.7.2-.5-.2-1.1-.7-1.2v-.2h.1z" fill="#fff"/><path d="m508.1 300.6h-.5v.4c0 .4.5.5.8.5 0-.4-.2-.6-.5-.7v-.2z" fill="#03405c"/><path d="m513.1 299.4.4-.2h.4v.4c0 .5-.4 1.1-.7 1.2-.4-.4 0-1.1.2-1.4z" fill="#fff"/><path d="m513.1 299.5h.2c0-.1.2-.1.2-.1v.2c0 .4-.2.7-.5.7-.2-.2 0-.7 0-.8z" fill="#03405c"/><path d="m132.1 455.1c-1.7 2.1-4.4 3.3-7.2 2.9.1.4.7.4 1.2.4-1.4.4-2.9.6-4.3.5-1.5 0-3.1-.2-4.4-.7-.5-.1-.8-.4-1.4-.5 0 .2.6.5.6.5-3.5-.6-6.5-2.3-9.1-4.5-1.2-1.1-2.1-2.1-3.5-3.1-1.3-.8-2.9-1.5-4.3-1.2h-.5c-.7-.4 2.3-1.9 2.5-2 1.2-.5 2.5-.6 3.8-.5 1.4 0 2.9.5 4.2 1.2.7.4 1.5.8 2.3 1.4.7.5 1.7 1.3 2.5 1.5.5.1 1.1.2 1.5 0 0 .2-.4.5-.6.5 2 .2 3.8 1.3 5.7 1.9s4.2.7 5.6-.6c-.4.7-1.1 1.5-1.9 1.8 2 1.3 4.8 1.5 7 .6h.3z" fill="#d0ced1"/><path d="m114.7 450.9c-.4.5-1.1.8-1.7 1.3h-.4s-.1-.1-.1-.2v-.8c0-.2-.1-.6-.4-.6-.5-.2-1.2.6-1.7.4-.1 0-.2-.2-.4-.4-.5-.5-.5-1.3-.2-2 0-.1 0-.4.2-.5.7.4 1.5.8 2.3 1.4.7.5 1.7 1.3 2.5 1.5h-.2.1z" fill="#efecf0"/><path d="m121.9 458.7v.4c-1.5 0-3.1-.2-4.4-.7.4-.8.8-1.7 1.5-1.8 1.5-.4 2.6.8 2.9 2.3h.1v-.2z" fill="#efecf0"/><path d="m86.1 408.5c.8-.4 1.8-1.1 2.5-1.8s.6-.7.8-1.3c.4-.6 1.3-.4 1.4.2.4 1.9.1 3.9-.8 5.6-.1 0-.2-.2-.4-.4-.5-.7-3.5-2.4-3.6-2.4h.1z" fill="#efecf0"/><path d="m84.3 408.6c-1.3-.1-2.4-.5-3.5-1.3-.5-.4-1.2-.7-1.7-1.3-.5-.4-1.3 0-1.3.6v.4c.2 2.3 1.2 4.4 3 6 0-.1.2-.4.2-.6.2-1.1 3-3.8 3.2-3.8z" fill="#d0ced1"/><path d="m78.7 407.2c.2 1.4 1.1 2.6 2.1 3.6 0-.2 0-.6.4-.8 0-.1.2-.2.4-.5v-.2c-.4 0-.7-.2-1.2-.5-.4-.1-.6-.4-1.1-.6-.2-.1-.7-.5-.8-.7h.2-.1z" fill="#efecf0"/><path d="m90.3 405.9c0 1.2-.2 2.4-.8 3.5-.1-.2-.2-.4-.5-.6-.1 0-.2-.1-.4-.2-.2 0-.1-.1 0-.2.2-.2.5-.4.7-.6s.5-.5.6-.7c0-.1.5-.6.5-.8h-.1v-.2z" fill="#d0ced1"/><path d="m78.8 416.4v.4s.2 0 .4-.2c.2.2.6.4.8.5.4.2.7.4 1.3.5.6.2 1.4.5 1.8 1.1 0 0 0 .1.1.2.2.6-.4 4.2-.4 4.2 7 1.7 8.5-.8 8.5-.8-.8-1.1-1.9-2.6-1.5-3.9 0-.2 2.5-2.9 2.6-2.9h.2c0-.1.4-.1.5-.1l-.2-.4h.1s-.2-.2-.2-.4h.4c-.1-.1-.4-.4-.5-.6h.2s-.2-.2-.2-.4h.4c-.2-.2-.5-.4-.7-.6-.6-.6-1.3-1.4-1.8-2.1 0-.2-.2-.4-.4-.6l-.4-.7c-.2-.5-.7-1.1-1.4-1.2l-1.3-.4h-.1c-1.5-.4-3.2-.2-4.5.5h-.2c0 .1-.6.5-.6.5-1.2.5-1.2 2.1-1.2 2.1 0 .5-.2 1.1-.4 1.4-.4.8-.8 1.8-1.5 2.6v.2h.2v.5h.2c0 .2-.2.4-.4.6h.2c0 .1 0 .2-.2.4h.2l.2-.4z" fill="#efecf0"/><path d="m80 412.2c0-.5.4-.8.4-1.4s0-1.8 1.2-2.3l.6-.2h.2c0-.2.2-.2.4-.4.2.2.6.6.2 1.1 0 0-.2.1-.4.1h-.2s0 .1-.2.2h-.5s-.2 0-.4.2v1.1c0 .1-.4.2-.4.4v1c0 .1-.4.2-.5.2h-.6.4-.1z" fill="#d0ced1"/><path d="m85.2 415.8c.4.7 1.3 1.1 1.9.6.7-.4 1.1-1.3.6-1.9s-1.3-1.1-1.9-.6c-.7.4-1.1 1.3-.6 1.9z" fill="#d0ced1"/><circle cx="84.1" cy="415.6" fill="#d0ced1" r="1.4"/><path d="m84.4 414.1v.2c0 .2.2.4.5.6 0 0 .2.1.4 0h.1c.1-.4.7-1.2.2-1.3-.1 0-1.3.1-1.3.2v.2z" fill="#727173"/><path d="m88.5 410.9c-.2.4-.2.8-.4 1.3-.1.4-.5.7-.8.8-.5.1-1.1 0-.8-.5.2-.8 1.3-1.7 2.1-1.7z" fill="#727173"/><path d="m81.7 411.6c.2.2.2.6.5 1.1 0 .4.5.6.8.7.4 0 .8 0 .6-.5-.2-.7-1.3-1.3-2-1.2z" fill="#727173"/><path d="m83.3 410.4s-.2-.1-.7-.2h-.7s.2.1.7.2z" fill="#d0ced1"/><path d="m87.9 409.5s-.2.1-.7.2h-.7s.2-.1.7-.2z" fill="#d0ced1"/><path d="m75.5 443.2h19.4v9.7h-19.4z" fill="#03405c"/><path d="m75.9 444.5c0 .7 0 1.4.2 2.1 0 .2 0 .5.2.7.4.4 1.1.6 1.7.7 2.9.5 5.6.5 8.5.4 2.3 0 4.5-.2 6.7-1.1.4 0 .6-.2.8-.5.1-.2.2-.5.2-.7.1-1.4.4-4.5.4-7.8v-7.2c0-1.8-1.8-8.6-3.2-9.8-.2-.2-3.1-.1-3.3-.2-.2 0-1.8 1.3-2 1.3-1.8-.2-2.4-1.8-4.2-1.9h-.8c-.4 0-.5.4-.7.5-4.2 1.2-3.7 2-3.9 3.7-.2 1.8 0 3.8 0 4.9v3.5c0 1.3-.2 2.4-.4 3.7-.2 2.5 0 5.1 0 7.6h-.1z" fill="#b3f5f3"/><path d="m88.8 440.4c.5 1.1.7 2.3.1 3.3-.4.6-1.3 1.1-2 1.2-.7 0-1.7 0-2.4-.2-.4 0-7.2-1.2-7.2-1.2-.6-.1-2.5-.7-3.2-1.1l1.8-3.2c1.7.4 4.3 1.3 5.6 1.9.7.4 1.5.6 2.3.4h.2c0-.8.7-1.7 1.7-1.8.2 0 .5 0 .7-.1.1 0 .2-.2.4-.4.4-.2.7-.1 1.2 0 .4.2.5.5.7.8v.2z" fill="#efecf0"/><path d="m75.4 424c-1.8 1.3-3.2 3-4.2 5-.4.6-.6 1.4-.7 2.1-.6 2.5-1.1 5.4-.5 7.9 0 .6.2 1.3.6 1.8.5 1.2 1.5 1.9 2.5 2.6 1.5 1.1 3.2 1.9 5 2.1 1.2.2 2.3.1 3.2-.6.5-.5.7-1.4.8-2.1v-1.3c0-.2-.2-.4-.4-.5-.5-.6-1.3-1.2-2-1.5-.4-.1-.7-.4-1.2-.6-.6-.4-1.1-1.1-1.3-1.7-.5-1.1-.5-2.1-.2-3.3.6-2.4 2-7.8 2.3-8.2.5-.7.6-1.7.2-2.5 0 0 .7-1.4.5-1.7-.5-.4-3 1.3-4.8 2.5h.1z" fill="#b3f5f3"/><path d="m81.7 444.8h-.2v-3.5h1.8s.1 1.3.1 1.4v1.4c0 .2 0 .6-.4.7s-.8 0-1.3 0z" fill="#023045"/><path d="m76.9 436.7c-.2-1.1-.2-2.1 0-3.2l1.3-4.5-1.3 7.8z" fill="#92d4d2"/><path d="m81.5 440.4c-.5 1.1-.7 2.3 0 3.3.4.6 1.3 1.1 2 1.2.7 0 1.7 0 2.4-.2.4 0 7.2-1.2 7.2-1.2.6-.1 2.5-.7 3.2-1.1l-1.8-3.2c-1.7.4-4.3 1.3-5.6 1.9-.7.4-1.5.6-2.3.4h-.2c0-.8-.7-1.7-1.7-1.8-.2 0-.5 0-.7-.1-.1 0-.2-.2-.4-.4-.4-.2-.7-.1-1.2 0-.4.2-.5.5-.7.8v.2h-.1z" fill="#efecf0"/><path d="m95 424c1.8 1.3 3.2 3 4.2 5 .4.6.6 1.4.7 2.1.6 2.5 1.1 5.4.5 7.9 0 .6-.2 1.3-.6 1.8-.5 1.2-1.5 1.9-2.5 2.6-1.5 1.1-3.2 1.9-5 2.1-1.2.2-2.3.1-3.2-.6-.5-.5-.7-1.4-.8-2.1v-1.3c0-.2.2-.4.4-.5.5-.6 1.3-1.2 2-1.5.4-.1.7-.4 1.2-.6.6-.4 1.1-1.1 1.3-1.7.5-1.1.5-2.1.2-3.3-.6-2.4-2-7.8-2.3-8.2-.5-.7-.6-1.7-.2-2.5 0 0-.7-1.4-.5-1.7.5-.4 3 1.3 4.8 2.5h-.1z" fill="#b3f5f3"/><path d="m88.7 444.8h.2v-.2c0-1.2.1-2.3 0-3.3h-1.8s-.1 1.3-.1 1.4v1.4c0 .2 0 .6.4.7s.8 0 1.3 0z" fill="#023045"/><path d="m93.4 437.1c.4-1.1.4-2.1 0-3.2l-1.3-5.1 1.3 8.2z" fill="#92d4d2"/><path d="m105.8 452.6c.5 1.3.4 2.6.1 4.1 0 .4-.2.8-.5 1.2-.7 1.1-1.8.6-2.6.4-1.1-.2-2.1-.4-3.2-.2l-.7-5s6-2.9 6.9-.4h.1z" fill="#605f61"/><g clip-path="url(#f)"><path d="m101.2 454.6c1.2-.2 2.3-.7 3.3-1.4.5-.2 1.1-.6 1.5-.8h.2s.1 0 .2.2c.6 1.1.6 2.3.6 3.5s0 .8-.4 1.1h-.5c-.8-.2-1.8-.6-2.6-.7-1.5-.2-3.1.4-4.5.5h-.2c0-.6-.1-1.8.5-1.9h1.1c.4 0 .7 0 1.2-.1h-.2v-.3z" fill="#cbc9cc"/><g clip-path="url(#g)"><path d="m103 453.2h.6l.5 4.2h-.6z" fill="#605f61"/><g fill="#efecf0"><path d="m101.6 453.3h.6l.5 4.2h-.6z"/><path d="m99.9 453.5h.6l.5 4.2h-.6z"/></g></g></g><path d="m97.3 451.3-16.3-1.2c-1.4 0-2.9-.2-4.2-.6l-5-1.1c-1.7-.4-3.2.5-3.8 2-.6 1.7 0 3.6 1.8 4.3 3.8 1.7 7.8 2.5 11.9 2.6l16.5.2-.7-6.5h-.2z" fill="#045378"/><path d="m98 444.8-.2-.8c-4.1 5-4.5 11.1-4.2 13.9h1.1l2 14.7 1.3-27.7h.1z" fill="#03405c"/><path d="m94.2 478.6c1.3.5 2.6.5 4.1.4.4 0 .8-.1 1.2-.4 1.1-.7.6-1.7.5-2.6-.2-1.1-.2-2.1 0-3.2l-4.9-1.1s-3.2 5.7-.8 6.8h-.1z" fill="#605f61"/><g clip-path="url(#h)"><path d="m96.3 474.3c-.4 1.2-.8 2.1-1.5 3.2-.4.5-.7.8-1.1 1.4v.2s0 .1.1.2c1.1.6 2.3.7 3.5.8.4 0 .8 0 1.1-.4v-.5c-.2-.8-.5-1.8-.6-2.9 0-1.5.5-3.1.8-4.5v-.2h-.1c-.5 0-1.7-.2-1.8.4v1.1c0 .4-.1.7-.2 1.1h-.1v.2h-.1z" fill="#cbc9cc"/><g clip-path="url(#i)" fill="#605f61"><path d="m94.5 476.7v-.6c.1 0 4.3.8 4.3.8v.6c-.1 0-4.3-.8-4.3-.8z"/><path d="m94.8 475.4v-.6c.1 0 4.3.8 4.3.8v.6c-.1 0-4.3-.8-4.3-.8z"/><path d="m95 473.9v-.6c.1 0 4.3.8 4.3.8v.6c-.1 0-4.3-.8-4.3-.8z"/></g></g><path d="m93.8 472.1 1.4-25.6c0-1.7 1.1-3.1 2.6-3.5 1.8-.4 4.2.6 4.5 2.4 0 0 .6 1.7.2 8.8 0 2-.2 3.9-.6 6l-2 13.7-6.2-1.9h.1z" fill="#045378"/><path d="m95.6 449.7h.5v.5h-.6v-.5z" fill="#efecf0"/><path d="m95 449.7h.5v.5h-.6v-.5z" fill="#efecf0"/><path d="m94.3 449.7h.5v.5h-.6v-.5z" fill="#efecf0"/><path d="m93.6 449.7h.5v.5h-.6v-.5z" fill="#efecf0"/><path d="m93 449.7h.5v.5h-.6v-.5z" fill="#efecf0"/><path d="m92.2 449.7h.5v.5h-.6v-.5z" fill="#efecf0"/><path d="m91.6 449.7h.5v.5h-.6v-.5z" fill="#efecf0"/><path d="m91 449.7h.5v.5h-.6v-.5z" fill="#efecf0"/><path d="m90.1 449.7h.5v.5h-.6v-.5z" fill="#efecf0"/><path d="m89.5 449.7h.5v.5h-.6v-.5z" fill="#efecf0"/><path d="m88.9 449.7h.5v.5h-.6v-.5z" fill="#efecf0"/><path d="m88.1 449.7h.5v.5h-.6v-.5z" fill="#efecf0"/><path d="m87.5 449.7h.5v.5h-.6v-.5z" fill="#efecf0"/><path d="m86.9 449.7h.5v.5h-.6v-.5z" fill="#efecf0"/><path d="m86.1 449.7h.5v.5h-.6v-.5z" fill="#efecf0"/><path d="m85.5 449.7h.5v.5h-.6v-.5z" fill="#efecf0"/><path d="m84.8 449.7h.5v.5h-.6v-.5z" fill="#efecf0"/><path d="m84.1 449.7h.5v.5h-.6v-.5z" fill="#efecf0"/><path d="m83.5 449.7h.5v.5h-.6v-.5z" fill="#efecf0"/><path d="m82.8 449.7h.5v.5h-.6v-.5z" fill="#efecf0"/><path d="m82 449.7h.5v.5h-.6v-.5z" fill="#efecf0"/><path d="m81.4 449.7h.5v.5h-.6v-.5z" fill="#efecf0"/><path d="m80.7 449.7h.5v.5h-.6v-.5z" fill="#efecf0"/><path d="m80 449.7h.5v.5h-.6v-.5z" fill="#efecf0"/><path d="m79.3 449.7h.5v.5h-.6v-.5z" fill="#efecf0"/><path d="m78.7 449.7h.5v.5h-.6v-.5z" fill="#efecf0"/><path d="m78 449.7h.5v.5h-.6v-.5z" fill="#efecf0"/><path d="m77.3 449.7h.5v.5h-.6v-.5z" fill="#efecf0"/><path d="m76.7 449.7h.5v.5h-.6v-.5z" fill="#efecf0"/><path d="m75.9 449.7h.5v.5h-.6v-.5z" fill="#efecf0"/><path d="m75.2 449.7h.5v.5h-.6v-.5z" fill="#efecf0"/><path d="m74.6 449.7h.5v.5h-.6v-.5z" fill="#efecf0"/><path d="m75.1 448.2h1.5v2.3h-1.5z" fill="#e37664"/><path d="m94.2 448.2h1.5v2.3h-1.5z" fill="#e37664"/><rect fill="#da4d36" height="1.4" rx=".3" width="22.4" x="74.2" y="450"/><rect fill="#da4d36" height="12.6" rx=".4" width="22.4" x="74.2" y="436.3"/><circle cx="85.4" cy="442.7" fill="#e37664" r="1.8"/><path d="m83.9 420.6c-.6-.2-1.2-.5-1.8-.6h-.6c-.2 0-.5.2-.7.4 0 .1-.4.2-.5.5 0 .2 0 .6.2.7s.5.2.7.2h.2l.2.2c.2.4.6.5 1.2.6h1.5c.1 0 .2 0 .4.1s.5.2.8.2h.2s.2-.1.2-.2c.2-.2.2-.6.2-.8s-.4-.4-.6-.6c-.6-.4-1.4-.7-2-1.1v.2h.4z" fill="#92d4d2"/><path d="m89.1 420.7c.6-.2 1.2-.5 1.8-.5h.6c.2 0 .5.2.7.5.1.1.4.4.4.5 0 .2 0 .6-.4.7s-.5.2-.7.2h-.2s-.1 0-.2.2c-.2.4-.7.5-1.2.6h-1.5c-.1 0-.2 0-.4.1s-.5.2-.8.2h-.2s-.2-.1-.2-.2c-.1-.2-.2-.6-.1-.8 0-.2.4-.4.6-.5.6-.4 1.4-.6 2-.8v-.2z" fill="#92d4d2"/><path d="m82.8 415c-1.2.1-2.3-.6-2.5-1.8 0-1.2.6-2.3 1.8-2.5 1.2-.1 2.3.6 2.5 1.8.1 1.2-.6 2.3-1.8 2.5zm-.6-3.9c-.8.1-1.5 1.1-1.4 1.9s1.1 1.5 1.9 1.4 1.5-1.1 1.4-1.9-1.1-1.5-1.9-1.4z" fill="#03405c"/><path d="m87.9 414.1c-1.2.1-2.3-.6-2.5-1.8-.1-1.2.6-2.3 1.8-2.5 1.2-.1 2.3.6 2.5 1.8.1 1.2-.6 2.3-1.8 2.5zm-.5-3.8c-.8.1-1.5 1.1-1.4 1.9s1.1 1.5 1.9 1.4 1.5-1.1 1.4-1.9-1.1-1.5-1.9-1.4z" fill="#03405c"/><path d="m84 411.6 1.4-.2v.5l-1.3.2v-.5z" fill="#03405c"/><path d="m648.3 40.7h9.2l.4 128.8h-9.2s-.4-128.8-.4-128.8z" fill="#5493b0"/><path d="m648.3 165.5h9.2v7.6h-9.2z" fill="#03405c"/><path d="m648.5 167.3h9.2v.8h-9.2z" fill="#47a7e3"/><path d="m648.7 170.2h9.2v.8h-9.2z" fill="#47a7e3"/><path d="m657.1 180.9h-7.6c-.4 0-.7-.4-.7-.7v-7h9.2v7c0 .4-.4.7-.7.7h-.1z" fill="#da4d36"/><path d="m648.2 40.9 3.7-8.6 1-1.9.8 1.9 3.7 8.6s-9.2 0-9.2 0z" fill="#ffbd32"/><path d="m651.9 32.3 1-1.9.8 1.9z" fill="#fff"/><path d="m332.7 299.5c1.9 4.9 2.1 10 1.3 15.1 1.3-1.9 1.7-4.2 1.7-6.5 0-5.1-1.7-10-4.4-14.3-1.1-1.4-3.5-5.2-5.2-5.4-1.2-.1-1.2.7-.5 1.4.7.8 2 1.7 3 2.5 1.9 2 3.5 4.4 4.4 7.2h-.2z" fill="#ffbd32"/><path d="m335.9 314.4c0 .4-.4.6-.5 1.1s-.2.7-.2 1.2c-.1 0-.2 0-.4-.1v1.5c-.6-.6-1.4-1.3-1.8-2.1-.5-1.2-.2-2.6.5-3.7.2-.2.6-.5 1.1-.6.4 0 .8 0 1.2.2.4.4 0 .7 0 1.2s.2.8 0 1.4h.2z" fill="#d49d29"/><path d="m310.1 289 14.5-3.6 2.1 8.4-14.5 3.6z" fill="#045378"/><path d="m327.7 285.7-.7 24.2-5.2 3h-.2c0 .1-.1-.2-.1-.2l-3.4-25.1z" fill="#045378"/><path d="m317.8 293-14.8 33.5-4.9-2.2 5.5-15.5v-.4c.1 0 6.3-18.7 6.3-18.7l7.8 3.4z" fill="#045378"/><path d="m333.6 321.1-4.1 3-7.7-11h-.1c0-.1.2-.2.2-.2l5.2-3 6.6 11.2z" fill="#045378"/><path d="m329.6 332.1 6.5-4.5c.6-.5.7-1.4.4-2l-3.1-4.2-4.1 3 2 3-2.5 4.4c-.2.4.2.8.6.6h.1v-.2h.1z" fill="#605f61"/><path d="m329.6 332.1 3.6-6.3-2-3-1.7 1.2 2 3-2.5 4.4c-.2.4.2.8.6.6z" fill="#cbc9cc"/><path d="m329.7 325.1 1.7-1.2.3.4-1.7 1.2z" fill="#045378"/><path d="m330.5 326.1 1.7-1.2.3.4-1.7 1.2z" fill="#045378"/><path d="m331 327 1.7-1.2.3.4-1.7 1.2z" fill="#045378"/><path d="m291 328.9 7.8 3.3c.7.4 1.7 0 2-.7l2.1-5.1-4.9-2.1-1.5 3.5-5.5.2c-.5 0-.6.6-.2.8h.1z" fill="#605f61"/><path d="m291 328.9 7.6-.2 1.5-3.5-1.9-.8-1.5 3.5-5.5.2c-.5 0-.6.6-.2.8z" fill="#cbc9cc"/><path d="m297.8 325.6.2-.5 1.9.8-.2.5z" fill="#045378"/><path d="m297.5 327 .2-.5 1.9.8-.2.5z" fill="#045378"/><path d="m296.6 328 .2-.5 1.9.8-.2.5z" fill="#045378"/><path d="m322.2 311.9-.5.8v.2c-.1 0-.2-.1-.2-.1v-.2l.5-.8h.2v.2z" fill="#03405c"/><path d="m305 308.2-1.4.5v-.4c.1 0 1.3-.5 1.3-.5h.2v.2h-.1z" fill="#03405c"/><path d="m283.3 291.3c-1.1-.2-2-1.1-2.3-2-.1-.7 0-1.5.5-2.1s1.1-1.1 1.7-1.4c.4-.2 5.4-3.9 5.4-3.9.5-.4 2.1-1.3 2.9-1.5l1.1 3.2c-1.4.7-3.6 2.1-5 2.5-.7.2-1.4.6-1.8 1.3 0 .1-.1.2-.1.2.5.6.6 1.5 0 2.1-.1.2-.4.4-.4.6v.5c0 .4-.4.6-.7.6h-1.1v-.2h-.1z" fill="#ffbd32"/><path d="m285 291.1h-1.1c-1.1-.2-2-1.1-2.3-2-.1-.7 0-1.5.5-2.1.1-.2.4-.4.5-.6-.4.2-.7.6-1.2 1.1-.5.6-.7 1.4-.5 2.1.2 1.1 1.3 1.8 2.3 2 .4 0 .7.1 1.1 0 .2 0 .5-.2.6-.5h-.1.1z" fill="#023045"/><path d="m338.8 293.3c1.1.1 2.3 0 3-.8.5-.6.5-1.4.4-2.1s-.5-1.4-1.1-2c-.2-.4-3.2-5.8-3.2-5.8-.2-.5-1.5-2-1.9-2.5l-2.3 2.5c.8 1.3 2.4 3.5 3.5 4.3.6.5 1.1 1.2 1.2 1.9v.2c-.7.2-1.2 1.2-1.1 1.9 0 .2.1.5 0 .7 0 .1 0 .2-.1.5 0 .4 0 .7.4.8.2.2.6.2 1.1.4h.2z" fill="#ffbd32"/><path d="m337.6 292.3c.2.2.6.2 1.1.4 1.1.1 2.3 0 3-.8.5-.6.5-1.4.4-2.1 0-.2-.1-.5-.2-.7.2.4.5.8.6 1.4.1.7 0 1.5-.4 2.1-.6.8-1.9 1.1-3 .8-.4 0-.7-.1-1.1-.4-.2-.1-.4-.4-.4-.7z" fill="#023045"/><path d="m284.9 284c3.2-2.4 12.9-13.9 17.1-19 .5-.6 1.2-1.3 1.8-1.9l.7-.7c.6-.5 1.2-1.2 1.8-1.5 1.2-1.1 2.4-1.8 2.5-1.4.5.8-3.5 11.1-4.1 12.4 0 .2-.5.7-.8 1.4-1.2 1.5-2.4 3.1-3.8 4.3-.4.4-.7.7-1.3 1.2-1.7 1.5-3.3 2.9-5.1 4.1-.1 0-.2.2-.4.2-2 1.4-4.1 2.9-6.2 3.9-.1 0-.4.2-.5.1-.1 0-.2 0-.4-.2-.6-.5-1.2-1.1-1.7-1.8 0-.1-.2-.4-.1-.5 0-.2.2-.5.5-.6z" fill="#cbc9cc"/><path d="m321.2 289.6-1.1.5c-3.1 1.7-6.3 2.4-9.8 2.4l-.4-11.9 11.2 9.1h.1z" fill="#efecf0"/><path d="m303 273.9.7.7c-.6-2.4-1.3-4.2-1.3-4.4.1 1.3.4 2.4.6 3.7h-.1z" fill="#969496"/><path d="m327.8 285.7c0 1.1-1.1 1.8-1.8 2.4-1.1.7-2.4 1.3-3.7 1.7-3.3 1.3-7.2 0-9.1-3-1.5-2.4-3.1-5-3.5-6 1.1 3.3 2.5 7.3 1.7 10.5-.2 1.2-1.7 1.8-2.9 1.3-.2 0-.4-.2-.5-.4 0 0-.1-.2-.1-.4-.4-1.5-.7-3.1-1.2-4.4-1.4-5.7-3.2-11.6-3.9-17.3v-1.4c0-.6-.1-1.4-.1-2 0-1.2-.1-2.4 0-3.6.1-.6.4-1.2.7-1.8.5-.7 1.2-1.5 1.9-2 1.1-.7 2.1-1.3 3.3-1.7.1 0 .4 0 .6-.1 2.3-.2 4.8.7 6.1 2.5 6 7.5 12.5 24.3 12.4 25.6h-.1v.2h.1z" fill="#cbc9cc"/><path d="m311.1 260c-1.9.8-3.8 1.8-5.8 2.4-.5-1.5-1.8-5.4-2.3-6.9v-.5c0-.2 0-.4.2-.6.5-.8 1.1-1.7 1.8-2.4.5-.6 1.4-1.8 2.1-1.9.7 0 .8.8 1.1 1.5.2 1.1.4 2 .7 3.1.4 1.2 1.7 4.4 2.3 5.4h-.1z" fill="#ffbd32"/><path d="m308.5 251.6c0 1.1-.4 1.9-.8 2.9s-1.1 1.7-1.4 2.5c-.2.5-.4 1.2-.6 1.7-.6 1.1-1.8 1.5-3 1.8-.5.1-1.1.2-1.7.2s-1.2-.2-1.4-.7c-.4-.6-.1-1.5-.5-2.1-.2-.6-1.1-.8-1.3-1.7-.1-.5 0-1.2 0-1.7.1-1.2.7-2.3.6-3.5 0-.5-.2-.8-.2-1.3v-1.4c.4-.5 1.1-.5 1.7-.5h.4l.2-.2c.2-.5.6-1.2 1.1-1.5.4-.4 1.1-.7 1.7-.7h.4c.5 0 .8.4 1.3.7.4.5.6 1.1 1.1 1.5 0 .2.2.5.4.6.2.2.6.4.8.5.8.5 1.3 1.5 1.3 2.5v.4h.1z" fill="#ffbd32"/><path d="m300.7 254.6c.4-.2.6-.5.8-.7s.4-.2.5-.2c.2 0 .2.4.1.6-.2.8-.7 1.8-1.4 2.5h-.1c-.5 0-1.8-.5-1.7-1.2 0-.6 1.4-.7 1.8-1.1h-.1z" fill="#023045"/><path d="m303.6 250.6v1.2l-.5-1.2c0-.1 0-.4.1-.4l1.2-.5-.7.8z" fill="#023045"/><path d="m299.9 251.7.2 1.1v-1.1c.1-.1 0-.2 0-.2h-1.1l.8.4h-.1v-.2h.1z" fill="#023045"/><path d="m309.3 245.9c-.6 0-1.2 0-1.7-.2v2.6c.5.1 1.1.2 1.7.2 3.2 0 5.8-2.5 6-5.7 0-.5 0-.8-.1-1.4-.6 2.5-3.1 4.4-5.7 4.3h-.2z" fill="#efecf0"/><path d="m296.2 248.3c.5 0 1.2-.2 1.5-.5l.5 2.6c-.5.2-1.1.4-1.5.5-3.2.6-6.2-1.5-6.9-4.8v-1.4c1.2 2.4 3.7 3.8 6.3 3.3v.2z" fill="#efecf0"/><path d="m304.2 242.9h.8c.5 0 1.1.2 1.4.5 1.2.7 2.1 1.9 2.3 3.3s-.7 3-2.1 3.1h-1.5c-.8-.1-1.9-.4-2.9-.7-.7-.4-1.5-.8-1.9-1.5s0-1.3.2-1.9c.6-1.3 1.9-2.3 3.5-2.5h.1v-.2z" fill="#d49d29"/><path d="m300.8 244.4c-.5 0-.8.2-1.4.4-.8.4-1.7.8-2.3 1.7-.6.7-.8 1.8-.5 2.6.2.8 1.3 1.7 2.3 1.4.2 0 .5-.1.7-.4.8-.5 1.8-1.3 2.3-2.1.5-.7.6-1.7.5-2.5 0-.8-.8-1.3-1.7-1.3v.2z" fill="#d49d29"/><path d="m307.9 253.9c-.4.7-.6 1.5-.8 2.3-.1.5-.4.8-.7 1.5-.5.7-1.3 1.4-1.8 2 .2-.1.6-.5.8-.6.4-.2.7-.6 1.2-1.1.7-.7 1.1-1.5 1.2-2.4 0-.2.1-.5.2-.7.2-.5.4-1.1.5-1.7v-.5c-.1.2-.2.8-.4 1.2h-.1z" fill="#d49d29"/><path d="m310.9 258.3-.6.7c-1.5 1.9-3.9 2.9-6.3 2.3l5.8 19.4 1.4-22.5h-.2z" fill="#efecf0"/><path d="m311 258.6c.4.7.8 1.4.8 2.3s-.4 1.9-.7 2.9c-.2.5-.4 1.2-.6 1.7 0 0-.4-.6-.5-.7-.1-.2-.4-.5-.6-.7-.4-.5-.8-.8-1.3-1.4s.4-.7.7-1.1c.5-.4.8-.7 1.3-1.2.4-.5.7-1.1.8-1.7h.1z" fill="#fff"/><path d="m306.6 262.4c0 .7-.2 1.5-.4 2.3v1.8c-.5-.7-1.1-1.4-1.5-2.3-.4-.6-.7-1.4-.8-2.1v-.7c0-.2.1-.8.4-.6.2.1.5.5.7.7.5.5 1.2.7 1.7 1.2v-.2h-.1z" fill="#fff"/><path d="m308.5 264.8s.2.2.2.4.2.4.4.6c.1.2.4.5.5.7s.4.6.5.8c.4 1.2.1 2.9.2 4.1 0 1.5 0 3 .1 4.4 0 1.9-.2 4.1-.6 5.8-.7-2.4-1.2-5.1-1.8-7.5-.2-1.3-.6-2.4-.8-3.7-.2-1.2-.2-2-.1-3.2v-1.3c0-.4 0-.8.4-1.2.2-.2.7-.4 1.1-.1h-.1z" fill="#cbc9cc"/><path d="m306.2 263.7c-.1-.2-.2-.5 0-.7 0-.1.2-.2.4-.4.2 0 .4-.1.6-.2.4 0 1.9-.8 2 .1v.6c0 .2-.1.5-.2.7-.1.5-.5 1.8-1.2 1.4-.4-.1-.5-.5-.6-.7-.2-.4-.5-.6-.7-.8z" fill="#969496"/><path d="m322.8 278.8c.6.7.4 1.9-.1 2.6-.6.7-1.4 1.2-2.3 1.7-.4.2-.7.4-1.3.6s-.8.5-1.4.5-1.7-.1-1.1-.7c.5-.6 1.5-1.1 2.1-1.4 1.4-1.1 2.9-2 4.1-3.2h-.1v-.2z" fill="#eceaed"/><path d="m307.2 285.9c.1.6.6 1.3 1.1 1.5s.7.1 1.2 0h.5c.1 0 .4 0 .5-.2.1-.1.4-.6 0-.7h-1.1c-.7 0-1.4-.1-2.1-.4h-.1z" fill="#eceaed"/><path d="m309.8 280.7-4.9-19.2-.5-1.7-2.9 3 2 1-.5 2.2 6.8 14.8z" fill="#eceaed"/><path d="m309.8 280.7v-23.5l5.2 1.3-1.8 3.1 1 2.1-4.3 17z" fill="#eceaed"/><path d="m320.1 270.1c.5.5 1.2.7 1.7 1.2.8.6 1.7 1.4 2.4 2.1 1.7 1.4 3.3 3 4.9 4.3 1.1.8 1.9 1.7 2.9 2.6 2.3 2.4 3.9 5.2 4.9 8.2 1.4-.5 2.9-1.1 4.2-1.7-1.1-2.3-2-4.8-3.5-6.9 0 0 0-.1-.1-.2-1.2-1.9-2.5-3.7-4.1-5.5-2.4-3.1-5-6-7.5-9.1-2.3-2.5-4.3-5.8-8.1-6.7-.6 0-2.1-.1-3.1.2l-.7 1.2c.6 2 5.4 8.8 6.2 9.8h.1v.3h-.1z" fill="#cbc9cc"/><path d="m319.2 266.4c0 .7.7 1.9 1.1 2.5.2.6.6 1.2.8 1.7.2.4.5.6.8 1.1.4.4.6.7 1.1 1.1-.4-.7-.6-1.5-1.2-2.1-.5-.7-1.1-1.5-1.5-2.3s-.7-1.4-1.2-1.9z" fill="#969496"/><path d="m250.9 332.1c-.5 0-.8.2-1.4.4-.5.1-1.1.2-1.4 0v.5c-.6 0-1.3-.1-1.9-.4.6 1.1 1.3 2 2.3 2.6 1.4.8 3.3.8 4.8 0 .4-.2.8-.6 1.1-1.2s.1-1.1-.1-1.5c-.5-.5-.8-.2-1.4-.2s-1.2-.4-1.8-.4h-.2z" fill="#ffbd32"/><path d="m248.4 335.3c.5.4 1.2.6 1.8.6h.2c-.7 0-1.5-.6-2-1.3h1.1c0-.1-.2-.4-.4-.5 1.1 0 1.9-.2 2.9-.6-.7 0-1.5 0-2.1-.5.5-.1 1.2-.4 1.7-.6-.4 0-.6-.2-.8-.5-.5 0-.8.2-1.3.4-.5.1-1.1.2-1.4 0v.5c-.6 0-1.3-.1-1.9-.4.6 1.1 1.3 2 2.3 2.6l.2.2h-.2z" fill="#605f61"/><path d="m268.9 330.5-8 4.1-5.8 1.3-3.7-6 15.1-5.6z" fill="#49acea"/><path d="m275.6 340.4 5.2-4.3-13.3-9.4-4.8 6.2z" fill="#49acea"/><path d="m278.4 363.7-5.7-1.2c-.6 0-1.1-.6-.8-1.3l.7-3.7 3.6.7-.5 2.5 3.1 2.3c.2.2 0 .6-.2.6h-.1z" fill="#5493b0"/><path d="m278.4 363.7-4.2-3.2.5-2.5 1.4.2-.5 2.5 3.1 2.3c.2.2 0 .6-.2.6z" fill="#045378"/><path d="m274.5 358.7v-.4l1.6.3v.4z" fill="#efecf0"/><path d="m274.2 359.8v-.4l1.6.3v.4z" fill="#efecf0"/><path d="m274.2 360.5v-.4l1.6.3v.4z" fill="#efecf0"/><path d="m276.3 336.4c-.6 3.2-1.2 6.2-1.7 9.4-.4 2.3-2.3 11.7-2.3 11.7l3.6.7s4.9-15.4 6.2-20.5v-.4c.1-.6-5.6-3.5-6.1-.8h.3z" fill="#49acea"/><path d="m281.2 336.7 1.2.8v-.4l-1.1-.8h-.2v.2h.1z" fill="#3b94d9"/><path d="m252 372.1-5.6-1.5c-.5-.1-.8-.7-.7-1.3l1.1-3.7 3.6 1.1-.7 2.5 2.9 2.4c.2.2 0 .6-.2.6l-.2-.2z" fill="#5493b0"/><path d="m252 372.1-3.9-3.5.7-2.5 1.4.4-.7 2.5 2.9 2.4c.2.2 0 .6-.2.6h-.1z" fill="#045378"/><path d="m248.2 366.3v-.4c.1 0 1.6.4 1.6.4v.4c-.1 0-1.6-.4-1.6-.4z" fill="#efecf0"/><path d="m247.9 367.2v-.4c.1 0 1.6.4 1.6.4v.4c-.1 0-1.6-.4-1.6-.4z" fill="#efecf0"/><path d="m248.4 369.1v-.4c.1 0 1.6.4 1.6.4v.4c-.1 0-1.6-.4-1.6-.4z" fill="#efecf0"/><path d="m262.2 333.2c0 .1-3.8 12.4-4.1 13v.4c-.5 1.3-1.3 3.2-2.1 5.4 0 0 0 .2-.1.4-2.4 6.2-5.6 14.2-5.6 14.2l-3.6-1.1s2.6-9.2 3.2-11.5c.7-3.1 3.6-20.6 3.6-21h8.8v.2z" fill="#49acea"/><path d="m255.9 352.1s0 .2-.1.4l-1.1-1.1v-.2c0-.1.1 0 .2 0l1.1.8h-.1z" fill="#3b94d9"/><path d="m252.1 289.6v-1.7c.1-1.1 1.2-1.7 1.4-2.5.5 0 .8.4 1.1.8s0 1.1-.1 1.4c-.1.5-.4 1.1-.6 1.4-.1.2-.2.4-.4.6 0 .1 0 .4-.1.6 0 .5-.1 1.2-.2 1.7 0 0-.6-.2-.6-.4-.2-.1-.4-.4-.5-.5-.2-.4 0-.8 0-1.4h.2z" fill="#d49d29"/><path d="m253.8 286.5c.2.5.2 1.2 0 1.8s-.5 1.2-.7 1.7c0 0-.4 1.3-.6.8 0 0 .1-.6.2-.7 0-.2.1-.5.2-.7.2-1.1.6-1.9.8-3h.1z" fill="#605f61"/><path d="m249.3 287c-.4-1.1-1.1-2-1.1-3.2s.4-1.9 0-2.9-1.5-1.3-1.8-2.3c1.9.5 3.5 2.5 3.2 4.5v1.1c0 .7.5 1.4.8 2 .5.7 2.1 3.2 1.1 4.1-.2.1-.5.2-.7.2-.6 0-.5-.4-.6-.8-.2-1.1-.5-1.9-.8-2.9z" fill="#605f61"/><path d="m253.3 308.8c2.3-1.4 3.5-2.9 5.6-4.3-.4 0-1.7-1.7-2.3-2.5s-1.3-2.3-1.1-3.5c0-.1 0-.4.1-.4h.5c.8.1 1.8.4 2.6.5h.5c.1 0 .2-.1.4-.2.5-.4 1.2-.8 1.7-1.3 0 0 .2-.1.2-.2v-.4c0-.2 0-.6-.1-.8 0-.2-.1-.5-.2-.6-.6-.7-1.7-1.2-2.5-1.7-.7-.4-1.4-1.1-1.9-1.7-.4-.5-.6-1.1-1.2-1.3-.2-.1-.6-.1-.8-.2-1.2 0-2.9-.6-3.7 0s-1.9 1.5-2.3 2.5c-.2.6-.2 1.3-.4 2v3.2c0 .6.4 1.4.5 2 1.2 3.2 2.6 6.2 4.8 9.1h-.4z" fill="#ffbd32"/><path d="m259.2 295.4c.1.4.7 0 1.2.4l.2.2h.2v-.2c0-.1-.2-.2-.5-.4h-1.2c-.1 0-.4.2-.2.4l.2-.4z" fill="#023045"/><path d="m260.7 295.8h.1s.1 0 .2-.1c0-.2-.1-.5-.2-.6v.8h-.1z" fill="#023045"/><path d="m244.8 287.8c-3-.8-6.2 1.1-9.2 0-.8-.4-1.4-1.4-2.3-1.7-.2 0-.4.1-.2.4.8 1.2 2.4 2.5 4.2 3 1.9.4 4.2-.4 6.1 0 2 .4 3.5 1.9 5 3.3 0 0 .1.1.2.1h.2c1.5-.8 0-1.9-.7-2.6-.8-1.1-2-1.8-3.3-2.1v-.2z" fill="#605f61"/><path d="m253.3 293.1c.2.1.4.4.6.6s.5.4.8.2c.4 0 .6-.2.4-.6-.4-.5-1.3-.6-1.9-.2z" fill="#023045"/><path d="m247.5 292.5c-.2 0-.5 0-.8-.2-.2 0-.6-.2-.8-.4-1.1-.2-2 .5-3.1.2-.2 0-.2.4-.1.6.4 1.1 1.3 1.2 2 1.3h1.7c.2 0 .5-.1.7 0h.6l1.1.2c.4 0 .6-.2.6-.5s-.1-.5-.4-.7c-.2-.5-.7-.4-1.3-.5z" fill="#d49d29"/><path d="m243.8 293c.4.5 1.1.7 1.7.7h1.9c.1 0 1.4 0 1.2-.2h-1.5c-1.1 0-2.1-.2-3.2-.4h-.1z" fill="#605f61"/><path d="m254.7 305.4c-.7.2-1.5.5-2.3.4-1.1-.1-2-.8-3-.5-.8.4-1.2 1.4-1.3 2.3-.5 3.6 0 7.2.4 10.7.2 2.4.5 4.9 1.1 7.3.1 1.2.2 2.1.6 3.2.4 1.2.8 2.3 1.4 3.3.2.5.5 1.1 1.1 1.3.2.1.6.1.8.1 2 0 4.1-.2 5.6-1.5.5-.4.8-1.1 1.5-1.4.6-.4 1.4-.5 2.1-.7s1.5-.6 2.3-1.1c.6-.4 1.4-.5 2.1-.8.4-.2.7-.5 1.1-.7.5-.6.5-1.4.4-2.1s-.5-1.4-.8-2c-.4-.6-.8-1.4-1.1-2.1-.2-.8-.4-1.8-.6-2.5-.5-1.7-1.1-3.3-1.5-5-.4-1.2-.7-2.3-1.2-3.6-.7-2-1.7-4.3-3.3-5.7-.7-.6-1.3 0-2 .2-1.1.5-2 .8-3.1 1.3h-.4v-.2z" fill="#045378"/><path d="m252.2 321.5c1.1.2 2 .2 3.1.5.7.1 1.7.5 2.3 1.1.5.4 1.1.8.7 1.4-.2.5-.8.6-1.4.6-1.2 0-2.3-.4-3.2-1.1-.5-.2-.8-.7-1.4-1.1-1.7-.6-3-1.2-4.4-1.3.2-.8 1.1-1.9 1.1-1.9 1.1.4 2.4 1.4 3.6 1.7h-.4z" fill="#ffbd32"/><path d="m257 325c-1.1 0-2-.4-2.9-.7.6.2 1.3.4 1.9.4s1.3 0 1.4-.6c.2-.5-.2-1.2-.7-1.4-.1 0-.4-.2-.5-.4.5.1 1.1.4 1.5.7.5.4 1.1.8.7 1.4-.2.5-.8.6-1.4.6h-.1z" fill="#605f61"/><path d="m251.8 306.7c0 .6-.2 1.2-.5 1.7-1.7 3.3-4.1 6-6.5 8.8 2.3 1.3 4.8 2.5 7 3.8-.4.6-.7 1.3-1.2 1.9-3.5-.7-6.8-1.7-10.2-2.4-.4 0-.7-.1-1.1-.4-.6-.5-.6-1.5-.2-2.1.4-.7 5.8-8.8 7.6-10.7.5-.6 1.1-1.3 1.8-1.7 1.2-.6 3.1-.5 3.2 1.2z" fill="#045378"/><path d="m268.8 298.2c3.5-2 7.6-6.1 9.5-7.5l2.6 2s-5.6 7.3-9.1 9.7c-.6.5-3.9 2.9-6 4.2-1.3.8-2.6 1.7-4.2 2.1-.5.1-.8.2-1.2.2-.5 0 .7-1.4.4-1.7-.5-.2-1.8-.7-1.9-1.7-.8-.2-1.3-.6-1.3-1.1 0-1.4 5.4-3 11-6.3h.1z" fill="#045378"/><path d="m251.8 321-3.2-2v.2z" fill="#023045"/><path d="m582.4 463.3c2.5 0 5 1.2 7.2 2.5 1.4.8 3.1 2.1 4.5 1.7 0 .4-.4.6-.6.6 2.1.1 4.2 1.3 6.2 1.9s4.8.6 6.1-.8c-.4.8-1.2 1.7-2 2 2.3 1.3 5.2 1.5 7.8.5-1.8 2.4-4.9 3.7-7.8 3.3 0 .5.8.5 1.3.5-3.6 1.2-7.6 1.1-11.1-.5 0 .2.6.5.6.5-3.7-.5-7.3-2.3-10-4.8-1.3-1.1-2.4-2.3-3.8-3.2s-3.1-1.5-4.8-1.2h-.6c-.7-.4 2.4-2.1 2.9-2.3 1.3-.5 2.6-.7 4.1-.6v-.2h-.1.1z" fill="#da4d36"/><path d="m597.7 474.8c.6.5 1.3.8 1.9 1.3 1.8 0 3.8-.1 5.6-.7-.4 0-1.2 0-1.3-.4 3 .4 6-1.1 7.8-3.3-2.4 1.1-5.4.8-7.8-.5.8-.4 1.7-1.2 2-2-1.5 1.5-4.1 1.5-6.1.8h-2c1.9 1.5 4.1 2.5 6.5 3-1.3.2-2.5.4-3.8.2.5.4 1.2.7 1.7 1.2-1.4.5-3 .6-4.3.5h-.1z" fill="#efecf0"/><path d="m543.3 477.4-4.1-2.9 11.5-15.5 9.3 1.3z" fill="#045378"/><path d="m531.7 477.3 6.3 4.8c.6.5 1.5.4 2-.4l3.1-4.2-4.1-3-2 3-5-.8c-.5 0-.7.5-.4.7h.1z" fill="#03405c"/><path d="m531.7 477.3 7 1.3 2-3-1.7-1.2-2 3-5-.8c-.5 0-.7.5-.4.7z" fill="#2a5366"/><path d="m538.6 475.4.3-.4 1.6 1.2-.3.4z" fill="#03405c"/><path d="m537.7 476.3.3-.4 1.6 1.2-.3.4z" fill="#03405c"/><path d="m537.3 477.3.3-.4 1.6 1.2-.3.4z" fill="#03405c"/><path d="m577.6 470.3-19.1.7-.4-12.5 19-.7z" fill="#2b3e78"/><path d="m573 473.7-23.6-2-2.9-7 31-2.5.6 5.7c.6 3.2-1.9 6.1-5.1 6v-.2h-.1z" fill="#316882"/><path d="m531.4 477.7-2.3-4.4 17.4-8.7 2.6 7.1-17.8 6z" fill="#316882"/><path d="m521.1 472.2 3.6 7.2c.4.7 1.3 1.1 1.9.6l4.5-2.3-2.3-4.4-3.2 1.7-4.1-3.1c-.4-.2-.8 0-.7.5h.2v-.2z" fill="#03405c"/><path d="m521.1 472.2 5.6 4.3 3.2-1.7-.8-1.8-3.2 1.7-4.1-3.1c-.4-.2-.8 0-.7.5h.1z" fill="#2a5366"/><path d="m527.9 474.1.4-.2 1 1.8-.4.2z" fill="#03405c"/><path d="m526.8 474.6.4-.2 1 1.8-.4.2z" fill="#03405c"/><path d="m525.9 475.2.4-.2 1 1.8-.4.2z" fill="#03405c"/><path d="m539.7 474.8 9.1-3.1-8.5 3.5z" fill="#03405c"/><path d="m559.6 435.6s-1.5 8.5-1.5 9.4 0 2.6.4 4.1v1.1c.5 3.6.8 7.2 1.3 10.8 0 1.1.2 1.9 0 3-.2-.2-.6-.5-.8-.7 0 0 0-.1-.2-.2l-.7-.7s0-.1-.2-.2c-.2-.2-.5-.6-.6-.8-1.9-2.6-3-6-2.9-9.3 0-2.3.7-4.5 1.4-6.9.4-1.3.7-2.6 1.2-3.9 0-.6 1.9-5.4 2.6-5.1h.2v-.4h-.1z" fill="#ffbd32"/><path d="m578.8 463.1c-.2.8-17.4 3.1-19.5 2.6-1.5-.2-1.2-9.7-1.3-10.8-.2-4.1-.4-8 0-12.2v-.8c0-.8 0-1.7.2-2.4 0-.8.2-1.7.6-2.4.2-.5.5-.8.8-1.4.5-.6 1.3-1.2 2-1.4 1.1-.5 2-.7 3.2-.8.7-.1 1.5-1.8 2.4-1.5.4.1 2.1 2 2.4 2.3 5 5 9.4 27.8 9.1 29v-.2h-.1z" fill="#ffbd32"/><path d="m558.4 442.6c0 1.4 0 5.8-.2 7.3 0 1.3 0 7.2.2 8.7v3.5s0-.1-.2-.2c-.2-.2-.5-.6-.6-.8v-3.9c0-2.5 0-5.1.2-7.6 0-1.2.5-5.5.7-6.5v-.4h-.1z" fill="#d49d29"/><path d="m556.2 426.2c-1.4-.2-2.9-.4-3.8-1.4v.2c0 .8.6 1.7 1.3 2.3s1.4 1.2 2 1.7c.2-.2.5-.6.7-.8.4-.4 1.1-.5 1.5-.5h.2v-.2c0-.4 0-.8-.2-1.1-.4-.1-.8-.1-1.3-.2h-.5z" fill="#da4d36"/><path d="m553.9 426.9c.2.4.5.6.7.8.4.2.7.4 1.3.6 0-.2.5-.6.5-.7 0-.2-.5-.1-.7-.1-.6 0-1.2-.2-1.7-.4v-.2z" fill="#efecf0"/><path d="m568.9 433-3.7 4.8-1.7 2.1-3-3.3c-.5-.7-1.4-1.4-2.3-1.7-.6-.1-1.3-.2-1.8-.1-.2 0-.6 0-.8.2h-.4c-.6.4-1.3.5-1.9.4h-1.5c-.2-.1-.4-.1-.5-.4 0 0 0-.2-.2-.4 0-.2 0-.5.2-.6l.4-.4 1.1-.8c.7-.6 1.4-1.5 1.8-2.5 0-.5.2-.8.5-1.3 0-.2.2-.4.4-.6s.4-.4.5-.5l.4-.2c.2-.2.5-.4.8-.5.2 0 .4-.2.6-.2s.5-.1.7-.2h.6c.6 0 1.4 0 2 .1s1.2.4 1.7.7l1.3.8c.2.2.5.4.7.6l4.1 4.1h-.2z" fill="#da4d36"/><path d="m564.6 436.8c.2.1.4.2.6.5 0 .1 0 .2.2.4l-1.7 2.1-3-3.3c-.5-.7-1.4-1.4-2.3-1.7-.6-.1-1.3-.2-1.8-.1-.2 0-.6 0-.8.2h-.4c-.6.4-1.3.5-1.9.4h-.7c.4-.5.7-.8 1.3-1.2.8-.4 2-.4 2.9-1.2v.2c1.2-.6 2.6 0 3.9-.2 0 .1-.2.4-.5.4.7-.2 1.5.7 2.4.6 0 .2-.4.4-.6.2.5.2 1.2.5 1.7.7 0 0 0 .1-.2.2.2 0 .4.1.6.2l.4.4c.4.2.7.2 1.2.4-.2.1-.6.2-.8.4h-.3z" fill="#efecf0"/><path d="m550.9 434.3s.4-.1.5-.2c.4-.1.7-.4 1.2-.5h-.6v-.2l-.4.4c-.2.1-.2.4-.2.6h-.4z" fill="#023045"/><path d="m557.2 427.7c1.3-.5 2.6-.7 3.9-.7v-.2c-1.1-1.2-2-2.1-3.2-3.2-.2-.2-1.1-1.2-1.4-.5-.2.5 0 1.7 0 2.1 0 .8.4 1.8.6 2.5z" fill="#da4d36"/><path d="m559.6 426.9-1.7-1.9c0-.1-.4 0-.4 0 0 .7 0 1.7.5 2.4v.2l1.5-.8h.1z" fill="#efecf0"/><path d="m556.2 430.1c.2-.1.4-.2.6-.4.2-.1.5-.2.6-.5 0 .2 0 .5-.2.7-.2.4-.6.7-1.1.7s-.2-.5 0-.7v.2z" fill="#023045"/><path d="m570.7 455.5c2.6-2.1 3.5-6 1.7-8.9l-1.8-3.1 8.1 8.2z" fill="#d49d29"/><path d="m569.9 455.9h-.8c-.2 0-.5 0-.7.2s-.2.4 0 .5c-.4.2-.8.2-1.4.4-.4 0-.6.2-1.1.5 0 0-.4.2-.5.4v.5s-.4.2-.5.4v.4c0 .2.2.4.5.5 0 .1-.2.2-.2.5s0 .4.4.5h1.1c0 .1 0 .4.2.4h.5c.7-.2 1.5-.5 2.1-1.2 0-.1.4-.4.5-.5.2-.2.6-.4 1.1-.5.8-.4 1.8-.6 2.5-1.1-.4-1.1-.7-1.9-1.2-3l-.4.4s-.4.1-.5.2c-.4.1-.8.2-1.4.2h-.2z" fill="#da4d36"/><path d="m567.6 440.4c-.5-.6-.8-1.4-1.1-2.1-.2-1.5.5-3.1 1.4-4.3.2-.4.6-.8 1.1-.8s.6 0 .8.2c2.3 1.2 3.6 3.3 5.2 5.1 1.9 2.1 3.1 5 4.8 7.3 1.4 1.8 3 3.7 2.9 6 0 1.4-.8 2.6-2 3.7-1.2.8-2.4 1.5-3.8 2-.7.2-1.5.6-2.1.8-.7.2-1.5.6-2.1.8s-.4-.5-.5-.6c-.4-.8-1.1-2.9-1.1-2.9s1.9-1.1 2.1-1.3c.6-.6 1.3-1.3 1.7-2 .6-1.3.8-3.1 0-4.2-.5-.6-1.3-1.3-1.9-1.9-1.8-1.8-3.7-3.7-5.1-5.7h-.2z" fill="#ffbd32"/><path d="m573.9 463.4h-.7v-.6h.6v.6z" fill="#dbe7ff"/><path d="m572.4 462.4h.6v.6h-.7v-.6z" fill="#dbe7ff"/><path d="m571.5 462.4h.6v.6h-.7v-.6z" fill="#dbe7ff"/><path d="m570.7 462.3h.6v.6h-.7v-.6z" fill="#dbe7ff"/><path d="m569.9 462.3h.6v.6h-.7v-.6z" fill="#dbe7ff"/><path d="m569.6 463.3h-.7v-.6h.6v.6z" fill="#dbe7ff"/><path d="m568.1 462.3h.6v.6h-.7v-.6z" fill="#dbe7ff"/><path d="m567.1 462.3h.6v.6h-.7v-.6z" fill="#dbe7ff"/><path d="m566.4 462.4h.6v.6h-.7v-.6z" fill="#dbe7ff"/><path d="m565.6 462.4h.6v.6h-.7v-.6z" fill="#dbe7ff"/><path d="m564.6 462.4h.6v.6h-.7v-.6z" fill="#dbe7ff"/><path d="m564.4 463.3h-.7v-.6h.6v.6z" fill="#dbe7ff"/><path d="m562.8 462.4h.6v.6h-.7v-.6z" fill="#dbe7ff"/><path d="m562.1 462.3h.6v.6h-.7v-.6z" fill="#dbe7ff"/><path d="m561.8 463.3h-.7v-.6h.6v.6z" fill="#dbe7ff"/><path d="m560.3 462.3h.6v.6h-.7v-.6z" fill="#dbe7ff"/><path d="m560.1 463.1h-.7v-.6h.6v.6z" fill="#dbe7ff"/><path d="m558.5 462.1h.6v.6h-.7v-.6z" fill="#dbe7ff"/><path d="m557.7 462.1h.6v.6h-.7v-.6z" fill="#dbe7ff"/><path d="m556.9 462.1h.6v.6h-.7v-.6z" fill="#dbe7ff"/><path d="m555.9 462.1h.6v.6h-.7v-.6z" fill="#dbe7ff"/><path d="m555.1 462.3h.6v.6h-.7v-.6z" fill="#dbe7ff"/><path d="m554.1 462.3h.6v.6h-.7v-.6z" fill="#dbe7ff"/><path d="m553.4 462.3h.6v.6h-.7v-.6z" fill="#dbe7ff"/><path d="m552.5 462.3h.6v.6h-.7v-.6z" fill="#dbe7ff"/><path d="m551.6 462.3h.6v.6h-.7v-.6z" fill="#dbe7ff"/><path d="m550.9 462.1h.6v.6h-.7v-.6z" fill="#dbe7ff"/><path d="m550 462.1h.6v.6h-.7v-.6z" fill="#dbe7ff"/><path d="m549.6 463.1h-.7v-.6h.6v.6z" fill="#dbe7ff"/><path d="m548.8 463h-.7v-.6h.6v.6z" fill="#dbe7ff"/><path d="m547.5 462.1h.6v.6h-.7v-.6z" fill="#dbe7ff"/><path d="m547 463h-.7v-.6h.6v.6z" fill="#dbe7ff"/><path d="m544.4 462 1.2-.3.6 2.2-1.2.3z" fill="#03ada7"/><path d="m564.6 462.4 1.2-.3.6 2.2-1.2.3z" fill="#03ada7"/><path d="m542.7 450.4 3 11.7 21.6.2s.4-.1.2-.4l-2.9-11.7c0-.2-.4-.5-.6-.5l-20.8-.2c-.4 0-.7.4-.6.7v.2h.2z" fill="#dcfaf9"/><path d="m541.5 450.4 3 11.5s0 .2.2.2l21.5.2s.4-.1.2-.4l-2.9-11.7c0-.2-.4-.5-.6-.5l-20.8-.2c-.4 0-.7.4-.6.7v.2h.1z" fill="#b3f5f3"/><path d="m544.8 462.5 31.2.4c.2 0 .5.2.5.5v.5c0 .2-.2.5-.5.5l-31.2-.4s-.2 0-.2-.2v-1.2s0-.2.2-.2z" fill="#dcfaf9"/><path d="m544.8 462.5 21.7.2v1.5l-21.7-.2s-.2 0-.2-.2v-1.2s0-.2.2-.2z" fill="#b3f5f3"/><path d="m568.8 432.4c-.2-.1-.7 0-.8.1-.5.5-1.2 1.4-1.4 1.8-1.4 1.5-1.8 3.8-2.9 5.6 1.1-.5 4.8-4.4 5.4-5.8l.2-.5c0-.4 0-.7-.2-.8l-.2-.2h-.1z" fill="#d49d29"/><path d="m563 439.2c-.2-.2-2.5-3.1-3.2-3.6-.5 0-1.1.4-1.2.8v.2c.5.2 1.2.6 1.8.8.2 0 2.6 1.8 3.1 2 0 0-.5-.5-.6-.6v.3h.1z" fill="#d49d29"/><path d="m355.1 471.5c0 .2 0 .6.1.8 0 .2 0 .6-.1.8 0 .1-.4.4-.5.2-.2.5 0 1.1 0 1.5s-.1.7-.2 1.2c0 .2-.1.4-.2.5s-.4.2-.6 0c0 .2-.2.4-.4.6 0 0-.2.2-.4.2s-.4-.2-.6-.4c-.1.1-.2.2-.5.2s-.4 0-.5-.2c0 0 0-.2-.1-.4v-.6c-.1 0-.4 0-.5-.2v-.6c0-.8.2-1.8.7-2.4.1-.2.4-.4.5-.6.2-.4.2-.7.4-1.2.2-1.1.4-1.9.5-3 1.2.2 2.1.4 3.3.6l-.2.5v2h-.5v.4z" fill="#d0ced1"/><path d="m359.9 441.7c-1.3.7-8.6 18.6-8.8 20.6-.1 1.3 0 2.6 1.1 3.6.7.6 1.7.7 2.6.8.5 0 1.1 0 1.4-.2.2 0 .4-.2.6-.5.6-.7 1.3-1.5 1.7-2.4.2-.5.4-.8.6-1.4.7-1.4 1.5-21 1.1-20.6h-.3z" fill="#da4d36"/><path d="m351.1 468.4c0 .4 0 .6.1 1.1.2.6.8 1.2 1.5 1.4s1.4.2 2 .2.8 0 1.2-.2c.2-.1.4-.4.4-.6.4-.7.2-1.8.2-2.6s-.1-1.9-.7-2.5-.6-.6-.8-.7c-.6-.4-2.1-1.4-2.6-.6-.6.7-.8 2-1.2 3.1 0 .6-.1 1.3-.1 1.9h.1v-.2z" fill="#da4d36"/><path d="m362.8 427.8v-.6c0-.8.8-1.5 1.8-1.7s1.8.2 2.5.7c-.2-.1-2.3 1.9-2.5 2-.2.2-.6.8-1.1.7-.4 0-.6-.8-.6-1.3h-.1z" fill="#03405c"/><path d="m369.9 441.9c.6-.2 1.3-.4 1.8-.6 1.9-.7 3.7-2 5-3.8.2-.2 1.3-2.5 1.3-2.5-.4 0-.4-.7 0-.8-.4 0-.6-.4-.6-.7h.4l-.6-.7c.1 0 .2-.1.4-.2-.2 0-.4-.2-.5-.5 0-.2.1-.5.4-.6-.2-.1-.4-.2-.6-.4h.2c-.5-.5-.7-1.3-1.2-1.9-.6-1.3-1.8-2.1-3.2-2.6-.7-.2-1.7-.4-2.4-.4-1.2 0-2.3 0-3.5.4-2.4.7-3.1 2.5-3.9 4.5.2 0 .5 0 .6-.1 0 .5-.4.8-.8 1.3 0 0 .2.2.4.1 0 .2-.2.6-.5.6.2 0 .2.4.1.5 0 .1-.2.2-.5.4.2.2 0 .5 0 .7v.7c.2.6.5 1.2.7 1.7.6 1.2 1.5 2 2.5 2.9.6.5 1.3.8 1.8 1.4s.8 1.2 1.1 1.8c.6-.4 1.3-.6 2-.8h-.3z" fill="#d0ced1"/><path d="m377.3 428.7c0-.2.1-.6.2-.8 0-1.2-1.1-2.1-2.1-2.3s-2 0-3.1.5c0 0-.1.2 0 .2.6.6 2.4 2.5 2.6 3s.7 1.2 1.3 1.1c.5 0 .8-1.2 1.1-1.5z" fill="#03405c"/><path d="m396.8 449.1.6-.6c.2-.1.5-.4.7-.4s.5 0 .5.2c.5 0 .8-.5 1.3-.7s.7-.2 1.2-.4h.6c.2 0 .4.2.4.4h.6s.4 0 .4.1c.2.2 0 .5 0 .7.2 0 .4 0 .5.2v.6s0 .2-.2.4c0 0-.2.1-.2.2 0 0-.2.1 0 .2 0 .1.2.2 0 .5 0 .1-.2.2-.5.4-.7.4-1.5.7-2.4.7h-.7c-.4 0-.7.2-1.2.4-.8.4-1.8.7-2.6 1.3l-1.4-3.1h.6c.1 0 .4-.1.5-.2.4-.2.8-.5 1.2-.8l.4-.2h-.4z" fill="#d0ced1"/><path d="m360.5 472.9h18.6v8.7h-18.6z" fill="#316882"/><path d="m360.5 517.9h5l2.4-36.3h-7.4z" fill="#316882"/><path d="m369.9 524.4h-7.9c-.7 0-1.4-.6-1.4-1.4v-5.1h5v3.6l4.5 2.1c.4.2.2.8-.1.8z" fill="#03405c"/><path d="m369.9 524.4-6.3-3.1v-3.6h2v3.6l4.5 2.1c.4.2.2.8-.1.8h-.1z" fill="#045378"/><path d="m363.6 518.5h2v.5h-2z" fill="#49acea"/><path d="m363.6 519.7h2v.5h-2z" fill="#49acea"/><path d="m363.6 520.7h2v.5h-2z" fill="#49acea"/><path d="m371.7 517.9h5l2.4-36.3h-7.4z" fill="#316882"/><path d="m381.1 524.4h-7.9c-.7 0-1.4-.6-1.4-1.4v-5.1h5v3.6l4.5 2.1c.4.2.2.8-.1.8z" fill="#03405c"/><path d="m381.1 524.4-6.3-3.1v-3.6h2v3.6l4.5 2.1c.4.2.2.8-.1.8h-.1z" fill="#045378"/><path d="m374.8 518.5h2v.5h-2z" fill="#49acea"/><path d="m374.8 519.7h2v.5h-2z" fill="#49acea"/><path d="m374.8 520.7h2v.5h-2z" fill="#49acea"/><path d="m372.8 446.6c1.7 4.1 3.6 8.1 6.9 11 .5.5 1.2.8 1.8 1.2 1.3.6 2.9.6 4.2.5 2-.1 4.2-.5 6.1-1.5 1.2-.6 2.1-1.5 2.4-2.9 0-.8-.4-1.8-.7-2.6-.2-.4-.5-.8-1.1-1.1-.2 0-.5-.1-.7-.2-1.1-.1-1.9 0-3 0s-1.1.2-1.4.2c-1.7.1-3.2-.8-4.3-2s-2-2.3-2.9-3.6c-.8-1.5-1.5-3.2-2.6-4.3-.7-.8-1.8-1.5-3-1.9-.8-.2-2.4-.7-3.2 0-.6.8 0 2.4.1 3.3.4 1.3.8 2.5 1.4 3.8h-.1z" fill="#da4d36"/><path d="m376 503.1h-2s-.1 0-.1-.1 0-.1.1-.1h2s.1 0 .1.1 0 .1-.1.1z" fill="#03405c"/><path d="m364.4 503.1h-2s-.1 0-.1-.1 0-.1.1-.1h2s.1 0 .1.1 0 .1-.1.1z" fill="#03405c"/><path d="m371.7 444.7c-.4 1.1-.8 2-1.3 3.1-.5 1.2-1.1 2.1-1.4 3.3-1.4 3.2-3 6.5-5.6 9.1s-.5.4-.7.4-.4 0-.6-.1c-.1 0-.2-.1-.4-.2 0 0-.2 0-.2-.1-.1 0-.4-.1-.5-.2s-.1 0-.2-.1c0 0-.2 0-.2-.1-.2 0-.4-.2-.6-.4-.1 0-.4-.2-.5-.4-.4-.2-.6-.5-.8-.7-.6-.5-1.3-1.1-1.5-1.8-.2-.5-.2-1.2-.2-1.8 0-1.8.5-3.6.8-5.2.7-2.9 1.5-5.6 3.6-7.9 1.5-1.7 3.6-2.9 5.8-3.3 1.3-.2 2.4-.2 3.7 0 .2 0 .7 0 1.2.1.7.1 5.4 3 5.6 3.3 1.2 1.2-4.8 2.3-5.4 3.6l-.2-.2-.2-.2z" fill="#da4d36"/><path d="m380.1 454.2c.4 3.5.6 7 .6 10.5s0 4.3-.2 6.5c0 .6 0 2-.2 2.5-.4.6-1.2.6-1.9.6-4.9.4-9.7.4-14.5.2-1.4 0-3.8 0-4.5-1.1-.4-.6-.2-13.1-.2-15.3s.5-5.5 1.2-8.2c.2-1.3.6-2.5 1.1-3.9.5-1.5 1.1-3.2 1.9-4.4 1.1-1.4 2.6-1.9 4.3-2.3 1.4-.2 3-.2 4.3-.2s2.6 0 3.7.8c.7.5 3.1 3.5 3.3 4.3.6 2.3.7 4.8 1.1 7.2 0 .8.1 1.7.2 2.5v.2h.1-.2z" fill="#da4d36"/><path d="m362.5 447.2c0 .1-.2.8-.4 1.1-.4 1.2-.7 2.3-1.2 3.5-.6 2.3-1.7 8.2-2 10.7v-.4c0-1.1 0-1.9.2-3 .6-3.2 2.1-9.5 3.3-11.8h.1z" fill="#ad3d2b"/><path d="m378.6 452c-.4-1.2-.5-2.6-.6-2.9 1.3 2.5 1.9 6.3 2.5 9.2 0 0-1.1-3.2-1.9-6.2z" fill="#ad3d2b"/><path d="m396.6 454.3c.2-.1.5-.4.7-.6.4-.5.4-1.4.2-2-.1-.6-.5-1.3-1.1-1.9-.2-.4-.5-.6-.8-.7h-.7c-.8.2-1.5.7-2.3 1.3-.7.5-1.4 1.2-1.7 2 0 .4-.1.7-.1 1.3s0 2.5 1.1 2.6c1.1 0 2.1-.4 3.2-.7.6-.2 1.2-.6 1.7-1.1h-.1z" fill="#da4d36"/><path d="m364.2 479.6s0 .2-.1.4c0 .4-.2.6-.2 1.1 0 .6.2 1.3.7 1.7s1.3.5 1.8.1c.2 0 .4-.2.6-.5.4-.4.7-.6 1.3-.8.2 0 .5-.1.7-.2s.4-.4.6-.5c.7-.8 1.2-2.1.5-3.3-.5-.8-1.7-1.5-2.6-1.3-.6 0-1.2.5-1.7.8-.2.2-1.2 1.3-1.3 1.5-.1.4-.2.7-.5 1.2h.1z" fill="#03405c"/><path d="m721.4 180.7h6.1l24.4 112.4h-6.1c0-.1-24.4-112.4-24.4-112.4z" fill="#5493b0"/><path d="m755.9 295.6h-3c0-2.6-2.1-4.9-4.9-4.9s-4.9 2.1-4.9 4.9h-3c0-4.3 3.6-7.9 7.9-7.9s7.9 3.6 7.9 7.9h-.2z" fill="#ffbd32"/><circle cx="745.5" cy="324.3" fill="#ffbd32" r="29.9"/><circle cx="749.2" cy="324.3" fill="#ffd359" r="29.9"/><path d="m757.2 295.6h-3c0-2.6-2.1-4.9-4.9-4.9s-4.9 2.1-4.9 4.9h-3c0-4.3 3.6-7.9 7.9-7.9s7.9 3.6 7.9 7.9h-.2z" fill="#ffd359"/><g fill="#ffbd32"><path d="m745.5 309.8c0 2-1.7 3.6-3.6 3.6h-1.8v4.5h5.5v20.9h7.4v-29.1h-7.5z"/><path d="m733.5 311.6c-7.4 9.2-6.9 22.5 1.4 31.2v.4h-.4c-8.5-8.8-8.8-22.4-1.4-31.7 0 0 .2-.1.4 0v.4-.2z"/><path d="m731 340.3c1.7.6 3.1 1.5 3.1 2.1s-1.3.8-3.1.4c-1.8-.6-3.2-1.9-3.2-2.6s1.4-.5 3.1 0h.1z"/><path d="m728.7 336.3c1.5.8 2.6 1.9 2.6 2.5s-1.4.7-3.1-.1-2.9-2.4-2.5-3.1c0-.6 1.5-.2 3.1.6h-.1z"/><path d="m727.3 332c1.3 1.2 2.3 2.4 2 3 0 .6-1.5.4-3-.7s-2.3-2.9-1.9-3.5c.2-.6 1.5 0 2.9 1.2z"/><path d="m726.8 327.3c1.1 1.4 1.8 2.6 1.5 3.3-.2.5-1.5.1-2.9-1.2-1.2-1.4-1.8-3.2-1.3-3.7.4-.6 1.5.2 2.5 1.7h.1z"/><path d="m727 322.8c.7 1.5 1.3 3.1.8 3.6s-1.5 0-2.5-1.7c-.8-1.5-1.2-3.5-.6-3.9s1.4.5 2.3 2z"/><path d="m728.1 318.3c.5 1.7.7 3.2.2 3.6s-1.5-.4-2.1-2.1-.5-3.6 0-3.9c.6-.4 1.3.7 1.8 2.4z"/><path d="m730 314.1c0 1.8 0 3.3-.4 3.7-.5.4-1.4-.6-1.8-2.5-.4-1.8 0-3.7.8-3.9.6-.2 1.2 1.1 1.3 2.9h.1z"/><path d="m732.7 310.1c0 1.8-.5 3.3-1.2 3.6-.6.2-1.3-.8-1.3-2.9s.8-3.7 1.7-3.8.8 1.3.7 3.1z"/><path d="m734.7 314.1c1.5-.4 2.9-1.1 2.9-1.7s-1.2-1.1-3-.6c-1.7.4-3 1.4-3 2s1.4.6 3 .1v.2z"/><path d="m732.7 317.5c1.4-.6 2.5-1.4 2.4-2 0-.5-1.4-.7-3-.1s-2.6 1.9-2.4 2.5c0 .6 1.5.4 3-.4z"/><path d="m731.4 321.2c1.3-.8 2.1-1.9 2-2.4 0-.5-1.5-.5-3 .4-1.4.8-2.3 2.3-1.9 2.9.2.5 1.5 0 2.9-.8z"/><path d="m730.7 325c1.2-1.2 1.8-2.1 1.5-2.6s-1.5-.2-2.9.8c-1.3 1.2-1.8 2.6-1.4 3.2s1.5-.2 2.6-1.3h.1z"/><path d="m730.9 328.9c.8-1.3 1.4-2.5 1.1-3s-1.5 0-2.5 1.4c-1.1 1.3-1.3 3-.7 3.3.5.4 1.4-.5 2.3-1.8h-.1z"/><path d="m731.7 332.6c.6-1.4.8-2.6.5-3.1s-1.5.4-2.3 1.8-.7 3.1 0 3.5c.5.4 1.4-.7 2-2.1h-.2z"/><path d="m733.2 336.3c.4-1.5.4-2.9 0-3.2-.5-.2-1.4.6-1.9 2.1s0 3.2.5 3.5 1.2-1.1 1.5-2.5h-.1z"/><path d="m735.4 339.6c0-1.7 0-3-.7-3.2-.5-.1-1.3.8-1.4 2.5s.5 3.3 1.2 3.5 1.1-1.2 1.1-2.9h-.1z"/><path d="m762.1 311.6c7.4 9.2 6.9 22.5-1.4 31.2v.4h.4c8.5-8.8 8.8-22.4 1.4-31.7 0 0-.2-.1-.4 0v.4-.2z"/><path d="m764.7 340.3c-1.7.6-3.1 1.5-3.1 2.1s1.3.8 3.1.4c1.8-.6 3.2-1.9 3.2-2.6s-1.4-.5-3.1 0h-.1z"/><path d="m766.9 336.3c-1.5.8-2.6 1.9-2.6 2.5s1.4.7 3.1-.1 2.9-2.4 2.5-3.1c0-.6-1.5-.2-3.1.6h.1z"/><path d="m768.3 332c-1.3 1.2-2.3 2.4-2 3 0 .6 1.5.4 3-.7s2.3-2.9 1.9-3.5c-.2-.6-1.5 0-2.9 1.2z"/><path d="m768.9 327.3c-1.1 1.4-1.8 2.6-1.5 3.3.2.5 1.5.1 2.9-1.2 1.2-1.4 1.8-3.2 1.3-3.7-.4-.6-1.5.2-2.5 1.7h-.1z"/><path d="m768.7 322.8c-.7 1.5-1.3 3.1-.8 3.6s1.5 0 2.5-1.7c.8-1.5 1.2-3.5.6-3.9s-1.4.5-2.3 2z"/><path d="m767.5 318.3c-.5 1.7-.7 3.2-.2 3.6s1.5-.4 2.1-2.1.5-3.6 0-3.9c-.6-.4-1.3.7-1.8 2.4z"/><path d="m765.7 314.1c0 1.8 0 3.3.4 3.7.5.4 1.4-.6 1.8-2.5.4-1.8 0-3.7-.8-3.9-.6-.2-1.2 1.1-1.3 2.9h-.1z"/><path d="m762.9 310.1c0 1.8.5 3.3 1.2 3.6.6.2 1.3-.8 1.3-2.9s-.8-3.7-1.7-3.8-.8 1.3-.7 3.1z"/><path d="m761 314.1c-1.5-.4-2.9-1.1-2.9-1.7s1.2-1.1 3-.6c1.7.4 3 1.4 3 2s-1.4.6-3 .1v.2z"/><path d="m762.9 317.5c-1.4-.6-2.5-1.4-2.4-2 0-.5 1.4-.7 3-.1s2.6 1.9 2.4 2.5c0 .6-1.5.4-3-.4z"/><path d="m764.1 321.2c-1.3-.8-2.1-1.9-2-2.4 0-.5 1.5-.5 3 .4 1.4.8 2.3 2.3 1.9 2.9-.2.5-1.5 0-2.9-.8z"/><path d="m764.8 325c-1.2-1.2-1.8-2.1-1.5-2.6s1.5-.2 2.9.8c1.3 1.2 1.8 2.6 1.4 3.2s-1.5-.2-2.6-1.3h-.1z"/><path d="m764.7 328.9c-.8-1.3-1.4-2.5-1.1-3s1.5 0 2.5 1.4c1.1 1.3 1.3 3 .7 3.3-.5.4-1.4-.5-2.3-1.8h.1z"/><path d="m763.9 332.6c-.6-1.4-.8-2.6-.5-3.1s1.5.4 2.3 1.8.7 3.1 0 3.5c-.5.4-1.4-.7-2-2.1h.2z"/><path d="m762.5 336.3c-.4-1.5-.4-2.9 0-3.2.5-.2 1.4.6 1.9 2.1s0 3.2-.5 3.5-1.2-1.1-1.5-2.5h.1z"/><path d="m760.3 339.6c0-1.7 0-3 .7-3.2.5-.1 1.3.8 1.4 2.5s-.5 3.3-1.2 3.5-1.1-1.2-1.1-2.9h.1z"/><path d="m751.1 347c0 1.1-.8 1.9-1.9 1.9s-1.9-.8-1.9-1.9.8-1.9 1.9-1.9 1.9.8 1.9 1.9z"/><circle cx="740.6" cy="345.2" r="1.9"/><circle cx="756.9" cy="345.2" r="1.9"/></g><path d="m776.2 180.7h-6.1l-24.5 112.4h6.2c0-.1 24.4-112.4 24.4-112.4z" fill="#7ebcd9"/></svg>