<svg viewBox="0 0 877.6 504.6" xmlns="http://www.w3.org/2000/svg" xmlns:xlink="http://www.w3.org/1999/xlink"><clipPath id="a"><path d="m-15.7 9.4h903.9v745.1h-903.9z"/></clipPath><clipPath id="b"><path d="m393.5 297.1c-.8-15.3 1.7-30.8 7.1-45.2.3-.9.7-1.8 1.4-2.5 1.5-1.5 4.1-1.2 5.7 0 1.7 1.2 2.7 3.1 3.7 5 6.1-4.8 5.8-14.3 9.9-20.9.4-.6.8-1.2 1.4-1.4 1.1-.4 2.4.5 2.8 1.6s.2 2.4 0 3.6c.9-4.7 3.5-9.1 6.8-13 2.8-3.3 7.8-3.6 10.9-.7 7.7-11 21.2-17.6 34.6-17.1 1.3 0 2.8.3 3.5 1.3 1.1 1.5 0 3.6-1.2 5-6.9 8.7-14.8 16.5-23.6 23.2 4.2 2.1 4.4 8.5 1.7 12.3-2.8 3.8-7.3 5.8-11.6 7.8-1.9.9-3.9 2.1-4.3 4.2-.2 1.1 0 2.1.1 3.2.5 7.6-8.3 12-15.5 14.6-1.6.6-3.2 1.2-4.4 2.4-1.9 1.8-2.4 4.5-3.6 6.8-4.8 9.5-25.4 10.5-25.4 9.7z"/></clipPath><clipPath id="c"><path d="m423 284.3c4.5-3 9.5-6.8 10-12.2.1-1.4-.2-3-1.4-3.7-.4-.3-.9-.4-1.3-.8-.7-.8-.2-2 .3-2.9 2-3.9 3.2-8.1 3.5-12.5 0-1 0-2.1-.4-3.1-.4-.7-1-1.2-1.4-1.9-1.9-2.9.5-6.7 2.6-9.5 5.5-7.5 8.9-16.4 9.9-25.6.2-1.5.2-3.3-.9-4.4s-3.5-.7-3.5.8c-1.3-4.9.8-10.2-.7-15-1.1-3.5-4.2-6.4-7.8-7.2-.8-.2-1.7-.3-2.4 0-.9.3-1.6 1.1-2.2 1.9-3.7 4.8-6.3 10.4-7.7 16.3-.2.9-.8 2-1.6 1.8-.3 0-.6-.4-.8-.6-2-2-5.6-1.2-7.5.9-1.8 2.1-2.4 5.1-2.8 7.9-3-3-6.8-5-10.9-5.8-1.9-.4-4-.4-5.7.6-3.6 2.1-3.1 7.4-1.7 11.3s3.4 8.3 1.5 11.9c-1.9-.3-3.8-.7-5.7-.4s-3.8 1.4-4.4 3.2c-1.3 3.3 1.9 6.5 3.9 9.5 2.1 3.2 2.9 7.2 2.2 10.9-2-1.4-5.3-.4-6.1 1.9-.9 2.6.8 5.3 2.7 7.3s4.1 4 4.3 6.7c.2 2.4-1.3 4.8-1 7.2.4 3.9 5 6.1 6.1 9.8 1.1 3.6-1.6 7.7 0 11.1l1.9 2.1c7.6-5 21.4-12.5 29-17.5z"/></clipPath><clipPath id="d"><path d="m407.2 299.8c8.7-17.6 13.7-36.9 14.7-56.5 0-1.2 0-2.5-.4-3.6-1-2.5-4.2-3.4-6.8-2.9s-4.8 2.3-6.8 4c-4.7-8.8.5-19.7-1-29.5-.1-.9-.3-1.8-1-2.4-1.1-1.1-3.1-.6-4.1.5-1.1 1.1-1.5 2.7-1.8 4.2 1.4-5.9.5-12.5-1.3-18.7-1.5-5.3-7.3-8.1-12.5-6.4-3.5-16.8-15.9-31.4-31.8-37.7-1.5-.6-3.4-1.1-4.8-.2-2 1.2-1.7 4.2-1.1 6.5 3.6 13.6 9 26.8 15.8 39.1-6 .3-9.5 7.7-8.2 13.5 1.3 5.9 5.6 10.5 9.5 15.1 1.7 2 3.5 4.5 3 7.1-.3 1.3-1.1 2.5-1.8 3.7-4.4 8.7 3.6 18.2 10.7 24.9 1.6 1.5 3.2 3.1 4 5 1.3 3.1.5 6.5.7 9.8.7 13.6 24.4 25.2 24.8 24.3z"/></clipPath><clipPath id="e"><path d="m394.5 328.9c.4 1.1.3 2.3.1 3.5 0 .4-.2.7-.4 1-.7.8-1.5.5-2.3.3s-1.8-.3-2.7-.2l-.6-4.2s5.1-2.4 5.8-.3h.1z"/></clipPath><clipPath id="f"><path d="m390.7 330.5c1-.2 1.9-.6 2.8-1.2.4-.3.8-.6 1.3-.7h.2s.1 0 .2.2c.5.9.5 2 .6 3 0 .3 0 .7-.3.8h-.5c-.8-.2-1.5-.6-2.3-.7-1.3-.2-2.6.3-3.9.5h-.2v-.2c0-.4-.1-1.4.4-1.5h.9c.3 0 .6 0 .9-.2z"/></clipPath><clipPath id="g"><path d="m384.6 351.1c1.1.5 2.3.4 3.4.4s.7-.1 1-.3c.9-.6.6-1.5.4-2.2-.2-.9-.2-1.8 0-2.7l-4.2-.9s-2.7 4.9-.7 5.8h.1z"/></clipPath><clipPath id="h"><path d="m386.4 347.4c-.3 1-.8 1.9-1.3 2.7-.3.4-.6.8-.8 1.2v.2s0 .1.2.2c.8.6 1.9.7 2.9.8.3 0 .7 0 .9-.3v-.5c-.2-.8-.5-1.5-.5-2.3-.1-1.3.5-2.6.7-3.9v-.2h-.1c-.4 0-1.4-.2-1.5.3v.9c0 .3-.1.6-.2.9z"/></clipPath><g clip-path="url(#a)"><path d="m884.5 754.3h-903.8v-621.7c7.7-8.7 19.3-15.6 29.6-18.4 20.1-5.4 42.6-3.9 60.5-14.6 12.2-7.2 20.7-19.1 31.5-28.2 27.9-23.3 68.7-25.2 103.9-15.9 35.2 9.4 67.1 28.2 100.3 42.9 33.3 14.7 70.4 25.6 105.9 17.7 56.3-12.6 93.1-67.9 146.6-89.5 35.5-14.3 75.5-12.6 113.4-6.8 37.9 5.6 75.5 15.1 113.8 15.2 35.9.2 72.3-2.2 98.3-25.6v745.1s0-.2 0-.2z" fill="#cfe859"/></g><path d="m812.7 315.3c-55.7-8.4-113.3-6.1-169.9-3.6-31.9 1.4-63.8 2.7-95.3 7.7-48.9 7.8-96.5 24.2-146 25.6-16.3.5-35.3.5-45.2 13.5-3.9 5.1-5.2 13.3-.3 17.4 3 2.6 7.3 2.7 11.3 3 11.9.8 23.6 3.7 34.6 8.4 2.6 1.1 5.4 2.6 6.4 5.3 2 5.5-4.7 9.8-10.1 11.9-21.3 8.4-41.4 19.9-59.4 34-18.8 14.7-39.5 21.1-60.5 32.4-9.8 5.3-20.2 15.8-20.4 27.6-.3 14.3 12.3 11.3 19.8 20.6 3.8 4.7 4.9 10.9 7.4 16.4 11.3 24.8 45 27.2 72.2 25.9 77-3.6 154-7.3 231-10.9 78-3.7 156.2-7.4 233.3-19.9 49.3-8 121.3-18.1 150.9-64 6.3-9.8 13.9-29.4 9.2-41-4-9.8-9.8-7-18.5-8.2-12.3-1.7-22-10.3-27.6-21.2-6.8-13.2-9.5-28.5-18.3-40.4-10-13.6-26.5-20.8-42.5-26.1-20.2-6.7-40.9-11.4-61.8-14.5h-.3z" fill="#edf8ff"/><path d="m742.2 364.4c1.2 0 2.5.2 3.7 0 3.7-.5 6.6-3.5 10.3-4.2 1.3-.3 2.7-.2 4-.1 4.2.2 8.3.5 12.5.8 1 0 2 .1 2.9.2 5.1.4 10.2.7 15.4 1.1 2.7.2 5.3.4 8 0 1.3-.2 2.8-.7 3.1-2 .2-.9-.3-1.9-1.1-2.4s-1.7-.7-2.7-.9c-3.3-.7-6.6-1.4-9.8-2-3.1-.6-6.1-1.3-9.2-1.5-3.5-.3-7 0-10.4 0-9.8.5-19.7 1.1-29.5 1.9-2.6.2-9 .7-7.2 4.9 1.7 3.9 6.7 3.9 10.2 4.2z" fill="#edf8ff"/><path d="m806.4 482.1c-6.2.2-12.5.4-18.5-1.1-.6-.2-1.3-.4-1.7-.9-.4-.6-.3-1.4 0-2.1 1-2 3.4-2.9 5.7-3 2.2-.1 4.5.3 6.7.2 3.3-.2 6.5-1.7 9.8-2.2 2.9-.5 5.8-.4 8.7-.1 3.4.3 6.8.8 10.2 1.4 2 .4 6.4 1.9 5.1 4.9-.8 1.8-4.1 1.9-5.7 2.1-6.7.8-13.7.6-20.5.9h.2z" fill="#edf8ff"/><path d="m654.3 446.5c.5.7 1.3 1 2 1.3.9.3 1.8.5 2.7.6 10.4 1.7 21 2.3 31.5 1.8.8 0 1.4-.7 1.4-1.4 0-.8.6-1.4 1.4-1.4 5.2-.1 10.4-.8 15.4-1.9.8-.2 1.6-.7 1.9-1.4 1-1.9-1.1-3.4-2.9-3.9-4.7-1.3-9.8-.2-14.7.2-8 .6-16-1-24-.2-3.1.3-5.5 1.3-8.3 2.5-1.6.6-8.5 1.1-6.4 3.9z" fill="#edf8ff"/><path d="m520.9 482.3c3-.7 5.9-2.2 9-2.4 3-.1 6 1.1 9 1.1s5.9-1.1 8.8-1.4c2-.3 4-.2 6-.2 3.8 0 7.6.2 11.4.3.7 0 1.4 0 2.1.3.6.2 1.1.5 1.6.7.7.3 1.6.3 2.3.3 10.1.3 20.3.6 30-2 .5-.1 1.1-.3 1.5-.7 1.1-1.3-.4-3.1-1.9-3.9-6-3.1-13.1-3.3-19.8-2.5s-13.3 2.4-20.1 2.5c-4.1 0-8.2-.4-12.2-.8-10.8-1.1-21.3-1.1-31.9.9-2.1.4-8.1 2-8.6 4.4-.9 4.2 10.3 4 12.7 3.5h.1z" fill="#edf8ff"/><path d="m336 490.8c-.3 1.2.9 2.4 2.4 3.1 2.5 1.1 5.5 1.4 8.4 1.5 6.8.3 13.7.3 20.5-.1 1 0 2.1-.1 3 .1 1.1.3 1.8.9 2.8 1.4 1.8.8 4.2.8 6.4.7 7.6-.2 15.2-.4 22.8-.6 5.5-.2 11.1-.3 16.6-1 2.8-.3 6.2-1.3 6.5-3.3.2-1.4-1.4-2.8-3.3-3.3s-4-.5-6-.5c-18 .3-36.1-.3-54-1.8-5.4-.5-10.1-.4-15.3.6-3 .5-10.1.4-10.8 3.2z" fill="#edf8ff"/><path d="m393.5 297.1c-.8-15.3 1.7-30.8 7.1-45.2.3-.9.7-1.8 1.4-2.5 1.5-1.5 4.1-1.2 5.7 0 1.7 1.2 2.7 3.1 3.7 5 6.1-4.8 5.8-14.3 9.9-20.9.4-.6.8-1.2 1.4-1.4 1.1-.4 2.4.5 2.8 1.6s.2 2.4 0 3.6c.9-4.7 3.5-9.1 6.8-13 2.8-3.3 7.8-3.6 10.9-.7 7.7-11 21.2-17.6 34.6-17.1 1.3 0 2.8.3 3.5 1.3 1.1 1.5 0 3.6-1.2 5-6.9 8.7-14.8 16.5-23.6 23.2 4.2 2.1 4.4 8.5 1.7 12.3-2.8 3.8-7.3 5.8-11.6 7.8-1.9.9-3.9 2.1-4.3 4.2-.2 1.1 0 2.1.1 3.2.5 7.6-8.3 12-15.5 14.6-1.6.6-3.2 1.2-4.4 2.4-1.9 1.8-2.4 4.5-3.6 6.8-4.8 9.5-25.4 10.5-25.4 9.7z" fill="#4a8a8c"/><g clip-path="url(#b)" fill="#fff"><path d="m394.2 297.9c8.3-12.6 16.9-25.1 25.6-37.4 2.5-3.6 14.3-15.4 17.4-17.9 4.9-3.9 9.6-8.2 14.2-12.4 10.5-9.6 21.4-19.6 34.8-25.1l.2.4c-13.3 5.5-24.1 15.4-34.7 25-4.6 4.2-9.3 8.5-14.2 12.5-3 2.4-14.8 14.3-17.3 17.8-8.7 12.2-17.3 24.8-25.6 37.3l-.4-.3z"/><path d="m425.9 254.1-.2-.4c6.4-3.1 13.3-5 20-6.8l20.7-5.6v.4c.1 0-20.6 5.6-20.6 5.6-6.7 1.8-13.6 3.7-19.9 6.7z"/><path d="m441 239.7c.1-4.3-.9-8.6-1.9-12.8-.8-3.5-1.7-7.1-1.9-10.7h.5c.2 3.6 1.1 7.1 1.9 10.6 1 4.2 2.1 8.5 1.9 12.9z"/><path d="m410.4 274.4v-.5c12.8-1.6 25.2-5.4 36.9-11.2l.2.4c-11.7 5.8-24.1 9.6-37.1 11.2z"/><path d="m403.8 283.2c2.3-3.4 2-7.8 1.5-12.5l-3.3-29.1h.5l3.3 29c.5 4.7.8 9.2-1.6 12.8l-.4-.3z"/></g><path d="m423 284.3c4.5-3 9.5-6.8 10-12.2.1-1.4-.2-3-1.4-3.7-.4-.3-.9-.4-1.3-.8-.7-.8-.2-2 .3-2.9 2-3.9 3.2-8.1 3.5-12.5 0-1 0-2.1-.4-3.1-.4-.7-1-1.2-1.4-1.9-1.9-2.9.5-6.7 2.6-9.5 5.5-7.5 8.9-16.4 9.9-25.6.2-1.5.2-3.3-.9-4.4s-3.5-.7-3.5.8c-1.3-4.9.8-10.2-.7-15-1.1-3.5-4.2-6.4-7.8-7.2-.8-.2-1.7-.3-2.4 0-.9.3-1.6 1.1-2.2 1.9-3.7 4.8-6.3 10.4-7.7 16.3-.2.9-.8 2-1.6 1.8-.3-.1-.6-.4-.8-.6-2-2-5.6-1.2-7.5.9-1.8 2.1-2.4 5.1-2.8 7.9-3-3-6.8-5-10.9-5.8-1.9-.4-4-.4-5.7.6-3.6 2.1-3.1 7.4-1.7 11.3s3.4 8.3 1.5 11.9c-1.9-.3-3.8-.7-5.7-.4s-3.8 1.4-4.4 3.2c-1.3 3.3 1.9 6.5 3.9 9.5 2.1 3.2 2.9 7.2 2.2 10.9-2-1.4-5.3-.4-6.1 1.9-.9 2.6.8 5.3 2.7 7.3s4.1 4 4.3 6.7c.2 2.4-1.3 4.8-1 7.2.4 3.9 5 6.1 6.1 9.8 1.1 3.6-1.6 7.7 0 11.1l1.9 2.1c7.6-5 21.4-12.5 29-17.5z" fill="#ffbd32"/><g clip-path="url(#c)"><path d="m383.9 310.3c12.3-25.8 25.1-52.5 37.2-78.9 2.9-6.2 6.1-13.3 8.1-20.7 3.1-11.4 3.2-23.5 3.3-35.1h-.5c-.1 11.6-.2 23.6-3.3 35-2 7.3-5.2 14.4-8.1 20.6-12.1 26.4-24.9 53.1-37.2 78.9l.4.2z" fill="#fff"/></g><path d="m407.2 299.8c8.7-17.6 13.7-36.9 14.7-56.5 0-1.2 0-2.5-.4-3.6-1-2.5-4.2-3.4-6.8-2.9s-4.8 2.3-6.8 4c-4.7-8.8.5-19.7-1-29.5-.1-.9-.3-1.8-1-2.4-1.1-1.1-3.1-.6-4.1.5-1.1 1.1-1.5 2.7-1.8 4.2 1.4-5.9.5-12.5-1.3-18.7-1.5-5.3-7.3-8.1-12.5-6.4-3.5-16.8-15.9-31.4-31.8-37.7-1.5-.6-3.4-1.1-4.8-.2-2 1.2-1.7 4.2-1.1 6.5 3.6 13.6 9 26.8 15.8 39.1-6 .3-9.5 7.7-8.2 13.5 1.3 5.9 5.6 10.5 9.5 15.1 1.7 2 3.5 4.5 3 7.1-.3 1.3-1.1 2.5-1.8 3.7-4.4 8.7 3.6 18.2 10.7 24.9 1.6 1.5 3.2 3.1 4 5 1.3 3.1.5 6.5.7 9.8.7 13.6 24.4 25.2 24.8 24.3z" fill="#4a8a8c"/><g clip-path="url(#d)" fill="#fff"><path d="m406 300.5c-3.3-18.9-7-38-11-56.8-1.2-5.5-8.9-25.4-11.3-29.8-3.7-7.1-7.1-14.5-10.3-21.8-7.4-16.6-15.1-33.9-27.9-47.1l-.4.4c12.7 13.2 20.4 30.3 27.8 46.9 3.2 7.2 6.6 14.7 10.3 21.8 2.3 4.4 10 24.2 11.2 29.6 4 18.8 7.7 37.8 10.9 56.8z"/><path d="m391.1 233.1.4-.4c-5.9-6.9-13-12.6-20-18.1l-21.4-17.1-.4.5 21.4 17.1c6.9 5.5 14 11.2 19.9 18z"/><path d="m380.8 208.5c2-5.1 5.4-9.6 8.7-14 2.8-3.6 5.6-7.4 7.7-11.6l-.5-.3c-2 4.1-4.9 7.8-7.6 11.5-3.3 4.4-6.7 8.9-8.8 14.1l.5.2z"/><path d="m399 264.6.3-.5c-14.3-8.5-26.9-19.2-37.5-31.9l-.5.4c10.7 12.8 23.4 23.5 37.7 32z"/><path d="m402.2 278.3c-1-5.2 1.6-10.2 4.6-15.4l18.7-32.4-.5-.3-18.7 32.4c-3 5.2-5.6 10.4-4.7 15.8h.6z"/></g><path d="m445.2 272.3-.2 2.4-.4 4.8-4.3 47.3c-.3 3.6-4.8 6.3-10.1 6.3h-40.8c-5.4 0-9.8-2.8-10.1-6.3l-4.3-47.3-.4-4.8-.2-2.4h71.1z" fill="#1f6f94"/><path d="m444.9 274.7h-70.5c-2.1 0-3.8-1.7-3.8-3.8 0-2.1 1.7-3.8 3.8-3.8h70.5c2.1 0 3.8 1.7 3.8 3.8 0 2.1-1.7 3.8-3.8 3.8z" fill="#1f6f94"/><path d="m445 274.7-.5 4.8h-69.7l-.5-4.8z" fill="#03405c"/><path d="m694.6 201h145v1.4h-145z" fill="#e8f6ff"/><path d="m694.6 199.6h145v1.4h-145z" fill="#d8d6d9"/><path d="m694.6 198.2h145v1.4h-145z" fill="#e8f6ff"/><path d="m694.6 196.9h145v1.4h-145z" fill="#d8d6d9"/><path d="m694.6 195.5h145v1.4h-145z" fill="#e8f6ff"/><path d="m694.6 194.1h145v1.4h-145z" fill="#d8d6d9"/><path d="m694.6 192.8h145v1.4h-145z" fill="#e8f6ff"/><path d="m694.6 191.4h145v1.4h-145z" fill="#d8d6d9"/><path d="m693 191.4h1.6v10.9h-1.6z" fill="#03c7c0"/><path d="m693 190.4 28.4-1.2c4.7-.2 9.4-.6 13.8-1.3 6.4-.9 12.3-2.3 17.2-4.1l7-2.5h80.2c-5.6 3.5-13.3 6.6-22.5 8.9l-4.6 1.1h-119.5v-1z" fill="#03c7c0"/><path d="m828.9 405.3v2.9 4.7 6.9c0 1.7-.3 3.4-.7 5.1 0 1.2-.7 2.3-1.2 3.3-.6 1.2-.8 2.7-1.2 4 0 .2 0 .4-.2.5 0 .1-.3.1-.5.1-3.4 0-6.8-.2-10.1-.6-3.2-.4-6.5 0-9.6-.7-.2 0-.5-.1-.7-.3s-.2-.5-.2-.7c-.2-4.9 0-9.8.3-14.6.6-7.4 2.1-15.1 6.2-21.2.6-.9 1.3-1.7 2.1-2.5.7-.8 1.4-.9 2.4-.8.6 0 1.1 0 1.7.2s1.1.5 1.7.7c.9.3 1.8.3 2.7.3h1.1c.4 0 .8-.3 1.2-.4.6-.3 1.3-.6 1.9-.8s.8.1 1.3.6c.8.8 1.4 1.8 1.7 3 .7 3.1.5 6.2.2 9.4v1.5-.6z" fill="#ffbd32"/><path d="m824.4 391.1c.3 1 .6 2 .5 3.1-.2 1.2-1.1 2.2-1.8 3.2-.4.6-.9 1.2-1.3 1.8 0-.1-.3-1-.4-1.1 0-.4-.3-.8-.5-1.1-.3-.7-.8-1.4-1.1-2.1-.4-.8.6-.7 1.2-.9.7-.3 1.3-.6 1.8-1 .6-.5 1.2-1 1.6-1.7z" fill="#ffd359"/><path d="m817.8 394.3c-.4.9-1.2 1.7-1.6 2.7-.3.7-.4 1.5-.9 2.1-.7-1-1.3-2.1-1.8-3.2-.4-.9-.8-1.9-.8-2.9s0-.7.2-1c.2-.4.6-1 1-.6.4.3.8.8 1.2 1.2.8.7 1.7 1.4 2.7 1.9z" fill="#ffd359"/><path d="m819.4 397.9c0 .1.2.3.3.5 0 .3.2.5.3.8 0 .4.3.8.4 1.1 0 .4.3.8.3 1.2.2 1.5-.6 3.4-1 4.9-.4 1.8-.8 3.6-1.2 5.4-.5 2.3-.9 4.7-2.1 6.8-.2-3.2-.4-6.4-.4-9.5v-4.7c0-1.5.3-2.5.8-3.9.2-.5.2-1 .3-1.5s.4-1 .8-1.3c.3-.2 1-.2 1.3.1h.2z" fill="#316882"/><path d="m817 395.7c0-.3 0-.8.2-1s.4-.3.6-.3h3c.3.1.4.4.4.7s-.2.6-.3.8c-.2.3-.4.6-.6.9-.4.5-1.1 2-1.9 1.4-.3-.3-.5-.8-.6-1.1-.2-.5-.5-.9-.6-1.4z" fill="#03405c"/><path d="m826.4 428.9c1.9 1.2 3.4 2.9 4.4 4.9.3.5.5 1 .5 1.6s0 1.1-.5 1.5c-.5.6-1.4.6-2.2.4-.3-.1-.7-.3-1-.2-.3 0-.5.1-.7.2-.5 0-1-.3-1.3-.7-.4-.4-.8-.8-1.1-1.3-.8-1.3-.7-3.1.2-4.4.9-1.1 2.4-1.7 3.4-2.7l-1.7.6z" fill="#efecf0"/><path d="m805.4 428.6h21.3v10.6h-21.3z" fill="#2976b3"/><path d="m826.6 471.9h-5.7l-2.7-33.3h8.4z" fill="#2976b3"/><path d="m806.7 453.1 1.8 16.6-5.6 1.2-3.1-17.3v-1.1c0-.2 0-.3 0-.5l7.4-23.9 10.3 3.5-10.5 19.5c-.3.6-.4 1.2-.4 1.9z" fill="#2976b3"/><path d="m799.6 479.4 8.9-1.9c.9-.2 1.5-1.1 1.3-2l-1.3-5.7-5.6 1.2.9 3.9-4.6 3.6c-.4.3 0 1 .4.9z" fill="#ffbd32"/><path d="m799.2 478.4c-.4.3 0 1 .4.9l6.4-5-.9-3.9-2.2.5.9 3.9z" fill="#d49d29"/><path d="m803.2 472.2 2.2-.5-.1-.5-2.2.5z" fill="#03405c"/><path d="m803.5 473.5 2.2-.5-.1-.6-2.3.5z" fill="#03405c"/><path d="m803.7 474.7 2.3-.5-.1-.5-2.3.5z" fill="#03405c"/><path d="m815.9 479.4h9.1c.9 0 1.7-.7 1.7-1.7v-5.9h-5.7v4l-5.3 2.5c-.5.2-.4 1 .2 1z" fill="#ffbd32"/><path d="m815.9 479.4 7.4-3.5v-4h-2.3v4l-5.3 2.5c-.5.2-.4 1 .2 1z" fill="#d49d29"/><path d="m820.9 472.6h2.3v.6h-2.3z" fill="#03405c"/><path d="m820.9 473.9h2.3v.6h-2.3z" fill="#03405c"/><path d="m820.9 475.2h2.3v.6h-2.3z" fill="#03405c"/><path d="m800.8 452.3-.9.7v-.4l.8-.6h.2v.2z" fill="#03405c"/><path d="m823.1 456.7 1.1-1.1v-.2h-.2l-1.1 1.1v.2h.1z" fill="#03405c"/><path d="m823.1 456.7v-.2l-1.1-1.1h-.2v.2l1.1 1.1h.1z" fill="#03405c"/><path d="m831.4 409.5c0-3.5-.2-7-.4-10.6 0-1.7-.3-3.3-1-4.9-.5-1.1-2.7-2.6-2.7-2.6 0 .1-2.9 14.2-5.4 20.8-1.2 3.2-2.2 5.9-2.1 6.3 0 .8.5 1.5.8 2.2.7 1.8 1.4 5.1 1.9 8.2 0 .6.2 1.3.3 1.9.3 2.5.5 4.6.5 5.1 0 .8.7 1.4 1.6 1.3 1.6-.3 3.2-.7 4.8-1.1-.2-2-.3-4-.2-6v-1.5c0-.7 0-1.4.2-2.2.2-1.6.4-3.1.7-4.7 0-.5.2-1 .2-1.4.3-1.6.5-3.2.7-4.8.2-2 .2-4.1.2-6.1z" fill="#ffbd32"/><path d="m829.4 429.1v1l-6.6.7c0-.6 0-.9-.2-1.6h1.1l5.8-.2z" fill="#d49d29"/><path d="m804.2 417.5v-2.7c0-.7 0-1.5 0-2.2 0-1.3 0-2.6 0-3.9-.2-5.4 1.5-10.5 4.7-14.3.7-.9 1.5-1.7 2.4-2.5.4-.3 1.2-.9 1.7-.8 0 1.3-.9 6.6-.8 8 0 1.3.2 2.5.5 3.7.8 3.6-4.1 33.9-4.3 34.2-.2.2-.4.3-.7.3-1.2.2-2.4.2-3.6 0 0-6.6 0-13.2 0-19.9z" fill="#ffbd32"/><path d="m805.1 412.7c-1-.2-1.7-1.1-1.8-2 0-.9.3-1.8.7-2.6.5-.9 1.1-1.8 1.8-2.7 1.4-2 2.7-3.9 4.1-5.9.4.2.3.8 0 1.2-.9 2.1-1.9 4.2-3 6.2-.4.8-.9 1.6-1 2.5 0 .9.3 1.8 1.1 2.3.7.4 4.7 2.6 5.2 3.2.4.4-2.6.2-2.9.6s-1-.7-1.6-.6c-1.9.3-3.9-1-4.1-2.7l1.4.7v-.2z" fill="#d49d29"/><path d="m813.6 391s-.6.1-1.2.4c-4.2 1.8-7.7 5-9.9 9-1.4 2.6-2.7 5.4-3.9 8.1-.7 1.5-1.4 3.1-1.6 4.8s0 3.5 1.3 4.8c.7.7 1.5 1.2 2.4 1.6 1.8.8 3.7 1.4 5.6 1.7 1.8.3 3.9.3 5-1.1.4-.6.6-1.3.8-2 .2-.8.4-1.7.6-2.5v-.5c0-.2-.2-.4-.4-.5-1.2-1-2.8-1.7-4.4-1.9-.9 0-1.8 0-2.6-.3-1-.4-1.6-1.5-1.2-2.6 1.2-3.4 3.4-6.3 5.3-9.2 1-1.6 2.1-3.9 2.8-5.6.5-1.1 1.2-4 1.2-4.1h.2z" fill="#ffbd32"/><path d="m813 379.6v-.7c.2-.9 1.2-1.5 2.1-1.5s1.8.6 2.5 1.2c-.3-.2-2.6 1.6-2.9 1.8s-.8.9-1.2.7-.5-1.1-.5-1.4z" fill="#03405c"/><path d="m813.7 379.4v-.4c0-.5.7-.8 1.2-.8s1 .3 1.4.6c0-.1-1.5.9-1.6 1-.2.1-.4.5-.7.4-.2-.1-.3-.6-.3-.8z" fill="#e37664"/><path d="m818.5 395.2c.7-.1 1.3-.2 2-.4 2.1-.5 4.1-1.6 5.6-3.2.2-.3 1.6-2.5 1.6-2.5-.4-.1-.3-.8 0-.9-.3-.1-.6-.5-.5-.8h.3c-.2-.3-.4-.6-.6-.9 0 0 .3-.1.4-.2-.3-.1-.4-.4-.4-.6s.2-.5.5-.6c-.2-.2-.4-.3-.6-.5h.3c-.5-.6-.6-1.4-.9-2.1-.5-1.4-1.6-2.5-2.9-3.2-.8-.4-1.6-.6-2.5-.7-1.2-.2-2.4-.3-3.6-.1-2.6.4-3.5 2.3-4.8 4.2h.7c-.2.5-.6.9-1.1 1.1 0 .1.2.2.3.2 0 .3-.3.6-.6.6.2 0 .2.4 0 .6 0 .2-.3.3-.5.4.3.3 0 .5-.2.7v.8c0 .6.3 1.3.6 1.9.5 1.2 1.3 2.3 2.2 3.3.6.6 1.2 1.1 1.7 1.7.4.6.7 1.3.8 2 .7-.3 1.4-.5 2.2-.7z" fill="#efecf0"/><path d="m827.9 382.5c0-.3.3-.6.3-.9.2-1.2-.7-2.3-1.9-2.7-1-.4-2.2-.2-3.3.1 0 0-.2.2 0 .3.5.7 2.2 3 2.4 3.3.3.4.6 1.3 1.2 1.3s1.1-1 1.3-1.5z" fill="#03405c"/><path d="m826.7 382c0-.2.2-.3.2-.5 0-.7-.4-1.3-1-1.5-.4-.1-.9-.1-1.3 0-.3 0-.4.3-.2.6.4.5.9 1.4 1 1.5 0 .2.3.8.6.7.3 0 .6-.6.7-.8z" fill="#e37664"/><path d="m816.3 387.5c.4 0 .8 0 1.2-.1.2 0 .4 0 .5.1 0 .2 0 .4-.2.6-.7.6-1.7.9-2.6 1.2h-.3c-.4-.3-1.1-1.4-.7-1.9.4-.4 1.5.2 2 .2z" fill="#03405c"/><path d="m817.1 385.3c-.3.3-.6.6-1 .7-.4.2-.9.3-1.3.3s-.9-.3-1.2-.7c0-.2-.2-.4-.2-.7 0-.6 0-1.2.4-1.6s.9-.5 1.4-.6c.5 0 1-.1 1.5 0 .9.4 1 1.8.4 2.5z" fill="#03405c"/><path d="m815.8 384h-.4v.2c0 .3.3.6.7.7.2-.3 0-.7-.3-.9z" fill="#efecf0"/><path d="m815.8 384.1h-.4v.2c0 .2.2.4.5.5.2-.2 0-.5-.2-.6h.1z" fill="#03405c"/><path d="m818.8 385.9c.2.5.5 1 .9 1.3.4.4.9.8 1.5.9s1.2 0 1.7-.3c.2-.2.4-.4.6-.7.3-.6.5-1.4.2-2.1-.3-.6-.9-1-1.5-1.4-.6-.3-1.2-.6-1.9-.6-1.3 0-1.9 1.7-1.6 2.8z" fill="#03405c"/><path d="m821 384.9h.3s.2.1.2.2v.3c-.2.4-.7.6-1.1.5 0-.5.4-.8.8-.9h-.1z" fill="#efecf0"/><path d="m820.9 385.1h.2s0 0 .2.1v.2c0 .3-.5.4-.8.3 0-.3.3-.6.5-.6z" fill="#03405c"/><path d="m823.5 400.8c-.3-1-.5-2-.4-3.1.3-2 2-3.4 3.6-4.7.5-.4 1.1-.8 1.7-.7.4 0 .7.4 1 .6 2.2 2.2 3.3 6.1 4.3 9.1 1.6 4.7 4.2 15.9 4.3 16.3 0 0 .7 3.1.2 5.1-1.6 6.9-14.5 5.8-14.5 5.8l.6-4 6.3-4.7c-.2-3.3-1.4-6.6-1.8-7.5 0 0-4.1-8.2-5.3-12.3z" fill="#ffbd32"/><path d="m830.8 419.2c0 .5-.2 1-.3 1.5-.2-1.1-.4-2.1-.5-3.2-.3-1.6-.5-3.3-.6-4.9v-2.3c0-2.7.2-5.4.3-8.1 0 1.4.2 2.9.3 4.3.2 2.5.3 5.1.4 7.6 0 1.7.3 3.4.3 5.1z" fill="#d49d29"/><path d="m831.7 449.1-5.3 2.1-32.5-82.1c-.6-1.5 0-3.1 1.6-3.7 1.5-.6 3.1.1 3.7 1.6z" fill="#316882"/><path d="m795.2 372.3h5v16.1h-5z" fill="#316882" transform="matrix(.92977649 -.36812455 .36812455 .92977649 -84 320.4)"/><path d="m787.9 393.2h10.1v2.8h-10.1z" fill="#316882" transform="matrix(.92977649 -.36812455 .36812455 .92977649 -89.6 319.6)"/><path d="m779.4 371.9h10.1v2.8h-10.1z" fill="#316882" transform="matrix(.92977649 -.36812455 .36812455 .92977649 -82.3 315)"/><path d="m781.8 376.5h10.1v5.8h-10.1z" fill="#316882" transform="matrix(.92977649 -.36812455 .36812455 .92977649 -84.4 316.3)"/><path d="m785.4 385.6h10.1v5.8h-10.1z" fill="#316882" transform="matrix(.92977649 -.36812455 .36812455 .92977649 -87.5 318.3)"/><path d="m784.9 372.3h2.8v5.7h-2.8z" fill="#316882" transform="matrix(.92977649 -.36812455 .36812455 .92977649 -82.9 315.8)"/><path d="m791.7 389.4h2.8v5.7h-2.8z" fill="#316882" transform="matrix(.92977649 -.36812455 .36812455 .92977649 -88.7 319.5)"/><path d="m790.6 369.3h5v25.8h-5z" fill="#316882" transform="matrix(.92977649 -.36812455 .36812455 .92977649 -85 318.8)"/><path d="m818.1 466c3.3 8.2 12.6 12.2 20.8 9 8.2-3.3 12.2-12.6 9-20.8-3.3-8.2-12.6-12.2-20.8-9-8.2 3.3-12.2 12.6-9 20.8zm5.6-2c-2.1-5.2.5-11 5.7-13.1s11 .5 13.1 5.7-.5 11-5.7 13.1-11-.5-13.1-5.7z" fill="#316882"/><path d="m820 418.8v.9c0 .3 0 .6-.4.8v.3.5c0 .2 0 .4-.3.5v.2c0 .2-.3.3-.5.4h-.7c-.2 0-.5 0-.7-.1-.6-.2-1.1-.6-1.6-.9s-1.1-.4-1.8-.5c-.9-.1-1.8-.3-2.6-.4 0 0 0-.1.2-.2.4-.6.6-1.3.8-2s.4-1.5.5-2.2c.5 0 1 0 1.5-.1.4 0 .9-.2 1.3-.2s.9 0 1.3.2c.3.1.5.5.4.7 0 0 .7.1.8.1h1.7c.2 0 .5.2.6.4v.4 1c0 .1-.4.2-.4.2z" fill="#efecf0"/><path d="m816.3 429.8c-.2-.2-.2-.4 0-.6 0-.2 0-.2-.3-.2s-.3-.1-.5-.2c-.2 0-.3-.1-.4-.3-.2-.2-.3-.5-.2-.7 0-.3.3-.4.5-.5-.2-.3-.5-.5-.3-.9 0-.2.3-.3.4-.4.3-.1.6-.2.8-.2 0-.3 0-.6.3-.7.2-.2.5-.2.8-.2h1.5c.6.1 1.3.5 1.9.4 0-.3.2-.5.4-.6.4-.1.7 0 1.1 0 .4.1.7.3 1 .4s.5.2.8.3l-.6 3.9h-.9c-.5 0-1.1 0-1.6.1-.3 0-.6.2-.9.4-1 .4-2.2.3-3.2.2-.3 0-.5 0-.7-.2h.2z" fill="#efecf0"/><path d="m815.2 429.9c-.2 0-.4-.1-.5-.3 0-.1-.2-.3-.2-.4 0-.2 0-.5 0-.8s0-.5.3-.7v-.2c-.2-.5 0-1 .3-1.4 0 0 0-.1 0-.2v-.2c0-.2 0-.4.3-.6.5-.4.4-.5 1-.5s1.4 0 1.6.1.2.3.2.6 0 .6-.2.9c0 .3 0 .6-.2.9 0 .2-.2.4-.3.6-.3.6-.3 1.3-.7 1.7s.8.8.6.7c-.3 0-1.9-.1-2.2-.2z" fill="#efecf0"/><path d="m695 261h157.1v37.3h-157.1c-1.7 0-3-1.4-3-3v-31.2c0-1.7 1.4-3 3-3z" fill="#ffd359"/><path d="m857.6 293.9h-159.5v-28.4h159.5c-4.7 8.9-4.7 19.5 0 28.4z" fill="#f0f0f0"/><path d="m697 265.5h75.2v28.4h-75.2z" fill="#fff"/><path d="m772.2 261h89.1c.8 0 1.5.7 1.5 1.5v1.5c0 .8-.7 1.5-1.5 1.5h-89.1z" fill="#ffbd32"/><path d="m772.2 293.9h89.1c.8 0 1.5.7 1.5 1.5v1.5c0 .8-.7 1.5-1.5 1.5h-89.1z" fill="#ffbd32"/><path d="m845.4 261h-133.3v-24.1h133.3c1.2 0 2.2 1 2.2 2.2v19.7c0 1.2-1 2.2-2.2 2.2z" fill="#03c7c0"/><path d="m707.9 240.6h134.5v16.6h-134.5c3.2-5.1 3.2-11.5 0-16.6z" fill="#fff"/><path d="m746.9 240.7h96.4v16.6h-96.4z" fill="#f0f0f0"/><path d="m747 261.1h-42.6c-.5 0-.9-.4-.9-.9v-2c0-.5.4-.9.9-.9h42.6z" fill="#3bd9cc"/><path d="m747 240.6h-42.6c-.5 0-.9-.4-.9-.9v-2c0-.5.4-.9.9-.9h42.6z" fill="#3bd9cc"/><path d="m728.9 262.6-5.1-7.5c-.2-.3-.6-.3-.8 0l-5.1 7.5c-.3.4-.9.2-.9-.3v-17.2h12.7v17.2c0 .5-.6.6-.9.3z" fill="#5493b0"/><path d="m709 202.3h127.2v34.6h-127.2c-.8 0-1.4-.6-1.4-1.4v-31.7c0-.8.6-1.4 1.4-1.4z" fill="#ffd359"/><path d="m780.9 202.3h55.3v34.6h-55.3z" fill="#ffbd32"/><path d="m841.3 233.1h-56.5v-26.9h56.5c-4.7 8.4-4.7 18.6 0 26.9z" fill="#f0f0f0"/><path d="m830 202.3h13.1c.4 0 .7.3.7.7v2.5c0 .4-.3.7-.7.7h-13.1v-3.8z" fill="#ffbd32"/><path d="m709 202.3h75.2v3.8h-76.6v-2.4c0-.8.6-1.4 1.4-1.4z" fill="#ffbd32"/><path d="m830 233.1h13.1c.4 0 .7.3.7.7v2.5c0 .4-.3.7-.7.7h-13.1v-3.8z" fill="#ffbd32"/><path d="m725.8 211.8h3.1v16.1h-3.1z" fill="#ffbd32"/><path d="m733.6 211.8h3.1v16.1h-3.1z" fill="#ffbd32"/><path d="m741.3 211.9h3.1v16.1h-3.1z" fill="#ffbd32"/><path d="m672.8 298.3h186.7v50.7h-186.7c-1.1 0-2.1-.9-2.1-2.1v-46.5c0-1.1.9-2.1 2.1-2.1z" fill="#7ebcd9"/><path d="m778.2 298.3h80.9v50.7h-80.9z" fill="#5493b0"/><path d="m866.7 343.4h-82.8v-39.5h82.8c-5.6 12.5-5.6 26.9 0 39.5z" fill="#f0f0f0"/><path d="m850.1 298.3h19.3c.5 0 1 .4 1 1v3.6c0 .5-.4 1-1 1h-19.3z" fill="#5493b0"/><path d="m672.8 298.3h110.2v5.6h-112.3v-3.5c0-1.1.9-2.1 2.1-2.1z" fill="#5493b0"/><path d="m850.1 343.4h19.3c.5 0 1 .4 1 1v3.6c0 .5-.4 1-1 1h-19.3z" fill="#5493b0"/><path d="m737.8 312.3h4.5v23.6h-4.5z" fill="#5493b0"/><path d="m749.1 312.3h4.5v23.6h-4.5z" fill="#5493b0"/><path d="m819.9 344.6-12.1 10.2v-32.8h12.1z" fill="#ffbd32"/><path d="m363.8 333.1h102.2v24.3h-102.2c-1.1 0-2-.9-2-2v-20.3c0-1.1.9-2 2-2z" fill="#ffd359"/><path d="m469.6 354.5h-103.7v-18.5h103.7c-3.1 5.8-3.1 12.7 0 18.5z" fill="#f0f0f0"/><path d="m365.1 336h48.9v18.5h-48.9z" fill="#fff"/><path d="m414 333.1h58c.5 0 1 .4 1 1v1c0 .5-.4 1-1 1h-58v-2.9z" fill="#ffbd32"/><path d="m414 354.5h58c.5 0 1 .4 1 1v1c0 .5-.4 1-1 1h-58v-2.9z" fill="#ffbd32"/><path d="m588.1 215c18.6-9.7 39.1-15.1 60.1-15.9 13-.5 25.9-.2 38.9.7l20.7 1.5 12.5 178.5-26.1-1.5c-24.3-1.4-48.7-.5-72.8 2.9l-32.9 4.6c-34.5-9.7-70.2-14.2-106-13.2l-19.1.4v-191.7l79.3 13.9 45.3 19.9z" fill="#5493b0"/><path d="m588.5 379.8 12.9-2.6c27.5-5.5 55.7-7 83.6-4.4l26.6 2.5-10.2-167.9-19.9-1.4c-31.5-2.1-63.1.9-93.5 9z" fill="#fff"/><path d="m512.5 363.6-41 2.7-3.2-179.5 49.8 7.6z" fill="#d6d6d6"/><path d="m527 198.4-50.6-12.5v184.2l2.6-.3c36.8-4.7 74.1-1.2 109.5 10.1l-8.1-164.7-53.4-16.7z" fill="#e6e6e6"/><path d="m588.5 379.8c-23.4-15.5-51.1-23.3-79.1-22.2l-18.1.7v-177.1l28 3.7c23.6 3.1 45.9 12.4 64.7 27l4.1 3.2.5 164.8z" fill="#f0f0f0"/><path d="m615.9 349.1 8.6-69c.2-1.6-.2-3.3-1.2-4.6-3.4-4.3-5.2-9.9-4.5-16 1.1-10.1 9.3-18.3 19.4-19.4 13.3-1.5 24.5 8.9 24.5 21.9s-1.7 9.8-4.7 13.6c-1 1.3-1.4 3-1.2 4.6l8.6 69c.5 3.8-2.5 7.1-6.3 7.1h-37.1c-3.8 0-6.7-3.3-6.3-7.1h.2z" fill="#ffd359"/><path d="m615.9 349.1 8.6-69c.2-1.6-.2-3.3-1.2-4.6-3.4-4.3-5.2-9.9-4.5-16 1.1-10.1 9.3-18.3 19.4-19.4 2.1-.2 4.2-.2 6.2.2-9.6 1.6-17.2 9.5-18.3 19.3-.7 6 1.1 11.7 4.5 16 1 1.3 1.4 3 1.2 4.6l-8.6 69c-.5 3.8 2.5 7.1 6.3 7.1h-7.3c-3.8 0-6.7-3.3-6.3-7.1z" fill="#ffbd32"/><path d="m464.3 393.3 5.5-13-7.7-9.2c-4-4.8-7.3-10-10-15.6l8.3-4.1 4.7 8.6 9.7 18.9c0 .2.1.3.1.5v.6l-7.4 14.8-3.2-1.6z" fill="#47a7e3"/><path d="m468.2 400.5-5.1-2.5c-.5-.3-.7-.9-.5-1.4l1.6-3.3 3.2 1.6-1.1 2.3 2.2 2.9c.2.3 0 .6-.4.5z" fill="#b3f5f3"/><path d="m468.2 400.5-3.1-4 1.1-2.3 1.3.6-1.1 2.3 2.2 2.9c.2.3 0 .6-.4.5z" fill="#605f61"/><path d="m466.5 394.8h.3v1.4h-.3z" fill="#b3f5f3" transform="matrix(.44775909 -.89415424 .89415424 .44775909 -96 635.7)"/><path d="m466.2 395.4h.3v1.4h-.3z" fill="#b3f5f3" transform="matrix(.44775909 -.89415424 .89415424 .44775909 -96.6 635.8)"/><path d="m465.8 396.2h.3v1.4h-.3z" fill="#b3f5f3" transform="matrix(.44775909 -.89415424 .89415424 .44775909 -97.6 635.8)"/><path d="m475.1 379.4v.4l-.6-.2-.6-.2s-.1-.1-.1-.2c0 0 0-.1.1-.1z" fill="#2976b3"/><path d="m456.3 409.2h-5.4c-.5-.1-1-.6-1-1.1v-3.5h3.5v2.4l3.1 1.6c.3.1.2.6-.1.6z" fill="#b3f5f3"/><path d="m456.3 409.2-4.4-2.2v-2.4h1.4v2.4l3.1 1.6c.3.1.2.6-.1.6z" fill="#605f61"/><path d="m452.4 404.4h.3v1.4h-.3z" fill="#b3f5f3" transform="matrix(.01919744 -.99981571 .99981571 .01919744 38.8 849.8)"/><path d="m452.4 405.1h.3v1.4h-.3z" fill="#b3f5f3" transform="matrix(.01919744 -.99981571 .99981571 .01919744 38.1 850.5)"/><path d="m452.5 406h.3v1.4h-.3z" fill="#b3f5f3" transform="matrix(.01919744 -.99981571 .99981571 .01919744 37.3 851.5)"/><path d="m449.3 376.7c.4 2.7.9 5.3.8 8v8.9c0 2.1-.2 11-.2 11h3.4s1.9-14.7 2.4-19.7v-1.5c0-9 .5-18.7.2-27.7 0-.1-.8.4-.9.2 0 0-.2-.1-.3-.2-1.9-.5-9.4-2.1-9.5-.5 0 5.8 3.1 15.6 3.9 21.4h.2z" fill="#47a7e3"/><path d="m454.5 384.2 1.2.7v-.4l-1.1-.6h-.2v.2h.1z" fill="#2976b3"/><path d="m492.2 340.7c.7-.7 1.3-1.6 1.1-2.6-.1-.7-.7-1.2-1.3-1.6-.6-.3-1.3-.5-2-.5s-6-1.3-6-1.3c-.6 0-2.3-.2-2.9-.2l.4 3.1c1.5.2 3.8.4 5.1.2.7-.1 1.4 0 2 .4.1 0 .2.1.2.1-.2.7.1 1.5.7 1.8.2.1.4.2.6.4 0 .1.1.3.2.4.2.3.6.3.9.3s.6-.3.8-.5z" fill="#efecf0"/><path d="m492.6 337.7c.2 1-.4 1.9-1.1 2.6s-.5.4-.8.5h-.3c.2.3.6.3.9.3s.6-.3.8-.5c.7-.7 1.3-1.6 1.1-2.6-.1-.7-.7-1.2-1.3-1.6 0 0-.2 0-.3-.1.4.3.8.8.9 1.3z" fill="#a5a5a5"/><path d="m457.1 331.3c.2.5 0 1.2-.3 1.7-1.2 2.2-3.4 3.7-5.7 4.8s-4.7 1.9-6.8 3.3c1.5 2.1 2.9 4.3 4.1 6.6v.2c0 .1 0 .2-.2.3-.7.7-1.5 1.3-2.2 2-3.6-3.3-6.6-7.1-8.9-11.4-.3-.5.2-.9.7-1.2 2.6-1.8 4.4-4.5 6.9-6.5.4-.4 2.9-2.7 3.5-2.9.5-.1-1 1.9-.5 1.9h7.2c.7 0 1.8.6 2.1 1.3z" fill="#3bd9cc"/><path d="m462.4 309.2c.3.2.6.3.7.6 1.3 3 4.1 3.8 5.8 6 .8 1 1.6 2.3 1.3 3.6-.3 1-1.3 1.8-2.3 1.7-.9 0-1.7-.6-2.4-1.2-.8.6-2 .5-3.1-1.1l-.6 9.1s1.4 1.4.8 1.5c-2.8.4-6-1.1-8.6-2.5 0 0-.2 0-.2-.2v-.2c.2-3.5 1.1-7 2.1-10.4.2-.7.4-1.4.7-2 .6-1.1 1.5-2.1 2.6-2.7.2-.1.4-.2.6-.4s.3-.4.5-.7c.5-.7 1.3-1.7 2.1-1.3z" fill="#efecf0"/><path d="m469.1 316.1c.7 1 1.3 2.1 1 3.3-.3 1-1.3 1.8-2.3 1.7-.9 0-1.7-.6-2.4-1.2z" fill="#a5a5a5"/><path d="m461.6 308.4c-.3 0-.5.3-.6.6-.2.4-.2.8 0 1.2v.2c.2.5.4.9.7 1.2.3.4.7.7 1.2 1 .8.5 1.7.8 2.7.3.4-.2.7-.6.8-1v-.3c-.1-.3-.5-.2-.7-.3-.6 0-1.1-.4-1.5-.8s-.7-.9-1-1.4c-.2-.3-.5-.7-.9-.8h-.7z" fill="#b03e2c"/><path d="m462.2 313.4c.1.3.2.6.2.9s.3.6.6.7.7 0 .6-.3c-.1-.6-.8-1.2-1.5-1.2z" fill="#605f61"/><path d="m428 381.2c.7.6 1.6.9 2.4 1.1h1.2c1.1.1 2.3.1 3.5 0 .5 0 .9-.1 1.4-.3.6-.1 1.2-.3 1.7-.5q.3-.1 0 0c.5-.2 1-.4 1.5-.7.2 0 .3-.2.5-.3.3-.2.6-.3.8-.5 0 0 .1 0 .2-.1.1 0 .2-.1.3-.2.1 0 .2-.2.4-.3s.2-.1.2-.2c.1 0 .2-.2.3-.3.1 0 .2-.2.3-.3l.5-.5c.2-.3.5-.5.7-.8.1-.1.2-.3.3-.4.1-.1.2-.3.3-.4s.2-.3.3-.4c0-.1.2-.3.3-.4.2-.3.4-.6.5-.9.2-.4.4-.8.5-1.2 0-.1 0-.2.1-.4 0-.1 0-.2.1-.4.4-1.2.6-2.4 1-3.5.6-1.9 1.5-3.6 2.7-5.1.1-.2.3-.3.4-.5.1-.2.3-.3.4-.4.5-.5 1-.9 1.6-1.3.6-.4 1.1-.7 1.8-1 .2 0 .4 0 .6-.2h.5s0-.1.1-.2 0-.1-.1-.2c-.2-.2-.7-.3-1-.4h-.2c-.6-.2-1.3-.3-1.9-.4h-3.9c-.2 0-.4 0-.6.1-.1 0-.3 0-.4.1-1.8.6-3.4 1.7-4.8 2.9-1.1.9-2.1 1.9-2.9 3.1-1.3 2-1.9 4.3-2.6 6.6s-1.4 4.6-2.9 6.5c-1.5 1.8-4 3.1-6.3 2.5l.2-.2z" fill="#da4d36"/><path d="m460.2 307.9c-.3-.5-.5-1-.6-1.5 0 0 0-.2-.1-.2h-.2c-.4.2-.6.6-.7 1.1v1.3c.2.8.6 1.6 1.3 1.9.5.3 1.9.5 1.7-.4 0-.4-.5-.8-.7-1.1-.3-.4-.6-.8-.8-1.2h.1z" fill="#a5a5a5"/><path d="m444.6 355.8c.2.2.4.4.8.7 2.2 1.2 4.5 1.7 7 2 4.1.6 8.2 1.1 12.3.3.1 0 .3 0 .3-.2v-.3c-.2-3.6-1.2-7-1.6-10.6-.3-3.5 0-7.1.7-10.6.6-3.2 1-6.6-1.7-9.2-.7-.6-1.5-1.1-2.3-1.5-1.1-.5-2.4-.7-3.6-.8-.9-.1-2-.6-2.9-.2-.4.2-.8.5-1.1.9-1.6 1.8-2.6 4.3-3.4 6.6-1.1 3-1.9 6.1-2.5 9.2-.6 2.8-1.2 5.7-1.6 8.6-.2 1.1-.4 2.2-.5 3.4 0 .8 0 1.3.2 1.7z" fill="#3bd9cc"/><path d="m485.4 334.7s.2 0 .2.2v.4c0 .7-.2 2.7-.3 2.8s-5.8.4-8.5.5h-3.1c-2.8-.2-5.6-1.1-8.3-1.5-1.3-.2-2.6 0-3.9-.3-1.3-.2-2.5-.6-3.6-1.3-1.9-1.1-3.3-3.2-3.3-5.4s0-.7.2-1.1c0-.2.2-.3.3-.5.5-.7 1.4-1 2.3-.8 2.1.4 12.8 3.5 15.3 4.3 3.7 1.3 7.6 2.4 11.6 2.5h1.1z" fill="#3bd9cc"/><path d="m442 334.8c.7.4 1.5.4 2.3.3h1.1c1-.2 2-.5 2.9-.9.4-.2.8-.3 1.1-.6.5-.3.9-.5 1.3-.9q.3-.3 0 0c.4-.3.8-.6 1.1-1l.4-.4.6-.6h.1c0-.1.1-.3.2-.4 0-.1.2-.2.2-.3s.1-.1.1-.2c0 0 .1-.2.2-.3 0-.1.1-.2.2-.3.1-.2.2-.4.3-.5.1-.3.3-.5.4-.8 0-.1.1-.3.2-.4 0-.2.1-.3.2-.4 0-.1 0-.3.1-.4 0-.1 0-.3.1-.4 0-.3.2-.6.2-.9s.1-.8.2-1.1v-3.8c0-1.7.4-3.4 1.1-5 0-.2.1-.3.2-.5 0-.2.2-.3.3-.5.3-.5.6-1 1-1.4.4-.5.8-.9 1.3-1.2.1 0 .3-.2.4-.3s.1 0 .2-.1v-.3s0-.1-.2-.1c-.3-.1-.7 0-.9 0h-.2c-.6 0-1.1 0-1.7.1h-.1c-.4 0-.8.1-1.1.2-.1 0-.3 0-.4.1-.1 0-.2 0-.3.1-.1 0-.2 0-.4.1s-.2 0-.3.1c-.1 0-.2.1-.4.2-.1 0-.2.1-.3.2-.2 0-.3.2-.5.3 0 0-.2.1-.3.2-1.4.9-2.4 2.2-3.3 3.6-.7 1-1.3 2.1-1.7 3.3-.6 2-.6 4.1-.6 6.2s0 4.3-.9 6.2c-.8 1.9-2.6 3.6-4.7 3.7z" fill="#da4d36"/><path d="m555.2 405.9c-.2 0-.4-.1-.6-.2-.7-.3-1.1-.9-1.1-1.6v-.6c0-.5.3-1 .7-1.3h.2c.5-.3 1.1-.2 1.7 0s.9.7 1.3 1.1.7.9 1.1 1.3c.5.4 1.1.3 1.8.5 0 0-.9 1.2-1.1 1.3-.3.2-.7 0-1-.1-.9-.2-1.9-.2-2.8-.4z" fill="#ffbd32"/><path d="m554.4 404.9c0 .2-.4.3-.6.2l-.6-.3c-.2-.1-.3-.4-.2-.6 0-.2.4-.3.6-.2l.6.3c.2.1.3.4.2.6z" fill="#ffbd32"/><path d="m554.6 403.9c0 .2-.4.3-.6.2l-.6-.3c-.2-.1-.3-.4-.2-.6 0-.2.4-.3.6-.2l.6.3c.2.1.3.4.2.6z" fill="#ffbd32"/><path d="m554.9 403.1c0 .2-.4.3-.6.2l-.6-.3c-.2-.1-.3-.4-.2-.6 0-.2.4-.3.6-.2l.6.3c.2.1.3.4.2.6z" fill="#ffbd32"/><path d="m555.5 402.4c0 .2-.4.3-.6.2l-.6-.3c-.2-.1-.3-.4-.2-.6 0-.2.4-.3.6-.2l.6.3c.2.1.3.4.2.6z" fill="#ffbd32"/><path d="m558.6 403.9c1.5.5 11.1 2.8 12.6 2.8s1.1-1.1 1.5-1.7c.6-1.1 4.4-9.2 4.6-10 0-.3.2-.7.3-1 0-.2.2-.4.3-.6.9-1.3 2.4-1.9 3.9-1.6.2 0 .3 0 .5.2s.2.1.3.2c.7.6 1 1.6.8 2.5 0 .4-.2.8-.3 1-.7 1.4-5.3 9.5-6.3 11.1-.8 1.3-1.8 2.5-2.8 3.7-.4.4-.8.9-1.4.9s-10.4-2.9-15.1-4.6l1.1-2.8z" fill="#5493b0"/><path d="m622 408.3c-2.2 2.6-6.2 3.7-9.2 2 0 0-.2-.1-.3-.2-.4-.2-.7-.4-1.1-.5-.9-.2-1.8.4-2.5 1-4.3 3.9-6.3 9.7-9 14.8-.8 1.4-1.6 2.9-2.9 3.9-1.1.9-2.4 1.4-3.8 1.8-1.3.4-2.9.8-4.3.6-2.8-.4-.9-2.2.3-3.5 2.2-2.5 2.8-6 3.3-9.2.4-2.2.7-4.3 1-6.5.2-1.9.3-3.9.7-5.8.6-3.3 1.8-6.5 3.5-9.4 1.4-2.4 3.2-4.6 5.5-6.1 3.5-2.4 8.3-3.1 12.3-1.6 6.5 2.5 11.5 12.8 6.6 18.8z" fill="#ffbd32"/><path d="m613.8 410c-.3.1-.6 0-1 .1h-.2c-.4-.2-.7-.4-1.1-.5-.9-.2-1.8.4-2.5 1 .3-.6.8-1.1 1.3-1.5 1-.8 2.3-1.1 3.5-.6.3.1.6.3.6.7s-.2.6-.5.7z" fill="#d49d29"/><path d="m575.9 423.2h13.8v9.5h-13.8z" fill="#47a7e3"/><path d="m588.2 382.4c.2-.4.3-.9.3-1.4v-.9c0-.7-.6-1.2-.9-1.8-.4-.7-.5-1.4-.5-2.2 0 .2-.2.4-.2.6-.3-.8-.4-1.5-.4-2.3 0 .5-.2 1.1-.2 1.6-.3-.5-.5-1.1-.6-1.7v2c0-.1-.2-.3-.3-.4v1s-.2-.2-.2-.3c-.2 1.2 0 2.3 0 3.5s0 .8-.3 1.1v.3c.3.5.7.9 1.1 1.3.3.3.9.8 1.4.7.4-.1.9-.7 1.1-1.1z" fill="#d49d29"/><path d="m581.8 395.5.8 2.3 10.3-.2-.2-4.9s-2-2.1-1.9-3.7c0-.3 0-.6.4-.8.7-.6 1.2-1.4 1.6-2.2.4-.9.5-1.9.5-2.9v-1c0-1.2-.9-2.3-2.1-2.7-1-.4-2.1-.5-3.2-.4-1.6.1-3.1.7-4.4 1.6l-2.5 1.9c-.8.6-1.1 1.7-.8 2.6.2.7.8 1.3 1.5 1.5l3.3 1.2c.5.2.8.7.7 1.2 0 .9-3.5 2.4-3.5 2.4l-2.2 3.1 1.7 1.1z" fill="#ffbd32"/><path d="m588.1 381.2c-.2.2-.3.5-.5.8s-.4.5-.8.5-.7-.1-.5-.5c.3-.6 1.2-1 1.8-.8z" fill="#03405c"/><path d="m581.3 383.4c.5 0 3 0 4.3.1.6 0 1.2.2 1.7.5.3.2.7.5.7.9s0 .5-.3.7c-.6.7-1.5 1-2.4.9-.9 0-1.7-.5-2.5-1.1-.7-.6-1.3-1.2-2-1.9.2-.1.4-.3.4-.3v.2z" fill="#efecf0"/><path d="m583.2 395c0-.7.2-1.4.6-1.9.6-.8 1.7-1.2 2.7-1.3.9 0 1.8.1 2.4.8.7.8.6 2 .4 3-.3 1.6-.5 3.2-.8 4.8 0 .2-2.7.3-3 .3-.6 0-1.3 0-1.7-.4-1.2-1-.8-4-.6-5.3z" fill="#efecf0"/><path d="m581.8 383.4c-.2.2-.4.3-.6.4-.5.3-1.2-.2-.7-.7s1.5-.2 1.3.2z" fill="#03405c"/><path d="m593.9 382.4c.4-.4.7-.9.9-1.5 0-.3.3-.6.3-1 0-.8-.2-1.5-.4-2.3-.2-.9 0-1.8.3-2.6-.2.2-.3.4-.5.6 0-.9 0-1.9.4-2.8-.3.6-.6 1.1-.9 1.7 0-.7 0-1.4 0-2.1-.3.7-.5 1.5-.8 2.2 0-.2 0-.4 0-.6-.2.3-.3.7-.5 1 0-.1 0-.3 0-.4-.6 1.2-.9 2.6-1.4 3.8-.2.4-.4.9-.7 1.1v.3c.2.6.4 1.3.7 1.9.2.4.7 1.2 1.3 1.2s1.2-.5 1.6-.8v.3z" fill="#d49d29"/><path d="m593.9 381.8c.4-.6.5-1.4.4-2.1 0-.7-.4-1.4-.7-2.1 0-.2-.2-.5-.4-.7-1 .7-1.2 2.1-1.9 3.1-.2.2-.3.4-.4.6 0 .2 0 .5.2.7.2.5.6 1.3 1.2 1.3s1.3-.4 1.6-.9z" fill="#fff"/><path d="m592.8 382.1c0-.2.2-.5.2-.7v-.7l-.2-1.8c0 .4-.3.8-.4 1.2-.2.4-.4.8-.7 1.1-.2.1-.4.2-.5.4-.5.4-.3.7 0 1.1.2.3.6.7 1 .4.3-.2.6-.6.8-1z" fill="#ffbd32"/><path d="m574.5 477.4h5.5c.6-.1 1-.6 1-1.1v-3.6h-3.5v2.4l-3.1 1.6c-.3.2-.2.6 0 .6z" fill="#316882"/><path d="m574.5 477.4 4.4-2.2v-2.4h-1.4v2.4l-3.1 1.6c-.3.2-.2.6 0 .6z" fill="#03405c"/><path d="m577.4 473.3h1.4v.3h-1.4z" fill="#316882" transform="matrix(.99978068 -.02094242 .02094242 .99978068 -9.8 12.2)"/><path d="m577.4 474h1.4v.3h-1.4z" fill="#316882" transform="matrix(.99978068 -.02094242 .02094242 .99978068 -9.8 12.2)"/><path d="m577.4 474.8h1.4v.3h-1.4z" fill="#316882" transform="matrix(.99978068 -.02094242 .02094242 .99978068 -9.8 12.2)"/><path d="m581.5 444.4c-.4 2.7-.9 5.4-.8 8.1v9c0 2.2.2 11.2.2 11.2h-3.4s-2-14.9-2.5-19.9v-1.5c0-9.2.3-18.3.5-27.5 0-.1 0-.3 0-.4 0 0 .2-.1.3-.2 1.9-.5 4.4-.8 6.2-1.3.9 1.5 1 3.2 1 4.9 0 5.9-.8 11.7-1.5 17.6z" fill="#47a7e3"/><path d="m576.2 452.1-1.3.7v-.4l1.1-.6h.2v.2z" fill="#2976b3"/><path d="m583.4 477.4h5.5c.6-.1 1-.6 1-1.1v-3.6h-3.5v2.4l-3.1 1.6c-.3.2-.2.6 0 .6z" fill="#316882"/><path d="m583.4 477.4 4.4-2.2v-2.4h-1.4v2.4l-3.1 1.6c-.3.2-.2.6 0 .6z" fill="#03405c"/><path d="m586.3 473.3h1.4v.3h-1.4z" fill="#316882" transform="matrix(.99978068 -.02094242 .02094242 .99978068 -9.8 12.4)"/><path d="m586.3 474h1.4v.3h-1.4z" fill="#316882" transform="matrix(.99978068 -.02094242 .02094242 .99978068 -9.8 12.4)"/><path d="m586.3 474.8h1.4v.3h-1.4z" fill="#316882" transform="matrix(.99978068 -.02094242 .02094242 .99978068 -9.8 12.4)"/><path d="m590.4 444.4c-.4 2.7-.9 5.4-.8 8.1v9c0 2.2.2 11.2.2 11.2h-3.4s-2-14.9-2.5-19.9v-1.5c0-9.2.3-18.3.5-27.5 0-.1 0-.3 0-.4 0 0 .2-.1.3-.2 1.9-.5 4.4-.8 6.2-1.3.9 1.5 1 3.2 1 4.9 0 5.9-.8 11.7-1.5 17.6z" fill="#47a7e3"/><path d="m585.1 452.1-1.3.7v-.4l1.1-.6h.2v.2z" fill="#2976b3"/><path d="m579.7 407.8h8.9v13.2h-8.9z" fill="#90cdd1" transform="matrix(.13052619 -.99144486 .99144486 .13052619 97.1 939.4)"/><path d="m579.7 408.2 11.2 1.5v15.9h-13.8z" fill="#03405c"/><path d="m580.6 411.9 9.1 1.1 3.9-18.4-9.6 3-3.2-5.5-.7 3z" fill="#03405c"/><path d="m582.5 391.3c.4 11.3-1.3 21.4-3.5 32.5l-.9 4.4-4.8-.6 6.5-35.7 2.6-.6z" fill="#5493b0"/><path d="m592.7 392.7c-3.2 10.8-4.1 22-4.8 33.2l-.3 4.5 4.8.6 2.8-37z" fill="#5493b0"/><path d="m585.9 422.6c-.2.1-.4.2-.6.4-.7.3-1.5.2-2.1-.4l-.5-.5c-.4-.4-.6-.9-.5-1.4v-.2c.2-.6.7-1 1.3-1.2s1.2-.2 1.8-.1 1.2.1 1.8.1 1.1-.6 1.7-.9c0 0 .2 1.6.2 1.8 0 .4-.6.5-.8.7-.8.6-1.6 1.3-2.4 1.8z" fill="#ffbd32"/><path d="m584.6 422.4c0 .3 0 .6-.3.6l-.7.2c-.3 0-.6 0-.6-.3 0-.3 0-.6.3-.6l.7-.2c.3 0 .6 0 .6.3z" fill="#ffbd32"/><path d="m584 421.6c0 .3 0 .6-.3.6l-.7.2c-.3 0-.6 0-.6-.3 0-.3 0-.6.3-.6l.7-.2c.3 0 .6 0 .6.3z" fill="#ffbd32"/><path d="m583.6 420.8c0 .3 0 .6-.3.6l-.7.2c-.3 0-.6 0-.6-.3 0-.3 0-.6.3-.6l.7-.2c.3 0 .6 0 .6.3z" fill="#ffbd32"/><path d="m583.5 419.8c0 .3 0 .6-.3.6l-.7.2c-.3 0-.6 0-.6-.3 0-.3 0-.6.3-.6l.7-.2c.3 0 .6 0 .6.3z" fill="#ffbd32"/><path d="m586.5 419c1.3-.7 9.7-6.1 10.7-7.1.6-.6 0-1.5-.2-2.3-.4-1.2-3.6-9.6-4-10.3-.2-.3-.4-.6-.5-.9 0-.2-.2-.4-.2-.7-.3-1.5.3-3.1 1.5-3.9 0 0 .3-.2.5-.2h.4c.9 0 1.9.4 2.4 1.2.2.3.4.7.5.9.5 1.5 3.2 10.4 3.6 12.2.4 1.5.6 3 .7 4.5 0 .6 0 1.2-.3 1.7-.3.3-9.3 5.4-13.8 7.7z" fill="#5493b0"/><path d="m549.6 256.2c2.9 0 5.3 2.4 5.3 5.3v163.1h-10.6v-163.1c0-2.9 2.4-5.3 5.3-5.3z" fill="#316882"/><path d="m551.4 268.9h9.3v29.7h-9.3z" fill="#316882"/><path d="m568.7 302.5h10.5v5.1h-10.5z" fill="#316882"/><path d="m568.7 281.2h10.5v5.1h-10.5z" fill="#316882"/><path d="m564 285.2h10.5v5.1h-10.5z" fill="#316882"/><path d="m563 298.7h10.5v5.1h-10.5z" fill="#316882"/><path d="m561.2 276.7h10.5v5.1h-10.5z" fill="#316882"/><path d="m560.7 260h9.3v47.6h-9.3z" fill="#316882"/><path d="m549.6 414.8c-16.3 0-29.6 13.2-29.6 29.6s13.2 29.6 29.6 29.6 29.6-13.2 29.6-29.6-13.2-29.6-29.6-29.6zm-.1 48.5c-10.3 0-18.6-8.3-18.6-18.6s8.3-18.6 18.6-18.6 18.6 8.3 18.6 18.6-8.3 18.6-18.6 18.6z" fill="#316882"/><path d="m519.8 386.8c-1.1 2.4-1.6 5.1-2 7.8-.2 1-.3 2.1-.4 3.1-.2 1.7-.4 3.4 0 5.1.2.7.5 1.4 1.2 1.5.4 0 .8-.1 1.1-.3.7-.5 1.1-1.3 1.5-2.1.5-1.3.7-2.8.6-4.2 0-1.2-.4-2.3-.6-3.5-.2-1.6 0-3.2.2-4.9 0-.8.3-1.5.5-2.3.5-1.2 1.3-2.2 2.2-3.2.5-.6 1.1-1.2 1.5-1.9.5-1.1-.5-.6-1.1-.3-1.3.7-2.4 1.8-3.3 3-.5.7-.9 1.4-1.3 2.1h-.1z" fill="#efecf0"/><path d="m520.7 392.4c0 .3.2.7.3 1 0-1.4 0-2.8.3-4.1 0-.6.2-1.2.4-1.8 0-.2 0-.3.2-.5.5-1.2 1.3-2.2 2.2-3.1.5-.6 1.1-1.2 1.5-1.9-.2.1-.4.2-.5.3-1 .6-1.8 1.3-2.5 2.1-.4.5-.7 1-1 1.6-1 2-1.3 4.3-.7 6.5h-.2z" fill="#d0ced1"/><path d="m517.1 427.2c-.2.3-.6.5-.8.9 0 .2 0 .4-.2.6-.2.3-.5.5-.9.5s-.7-.3-.7-.6h-.9c-.3 0-.6-.3-.6-.6v-.4c0-.2-.3-.3-.4-.4-.5-.5-.3-1.4.3-1.8 0 0 .3-.2.4-.3.2-.2.2-.5.3-.7.3-.7 1.1-1 1.8-.8 0-.3.3-.5.6-.4.3 0 .5.2.7.4.9 1 1.3 2.5.5 3.6z" fill="#e4e2e6"/><path d="m541.1 478.2-5.3 1c-.5.1-1.1-.3-1.2-.8l-.6-3.5 3.3-.6.4 2.4 3.4.9c.3 0 .3.5 0 .6z" fill="#ffbd32"/><path d="m541.1 478.2-4.7-1.3-.4-2.4 1.3-.3.4 2.4 3.4.9c.3 0 .3.5 0 .6z" fill="#d49d29"/><path d="m536.1 474.7h1.4v.3h-1.4z" fill="#ffbd32" transform="matrix(.98293535 -.18395135 .18395135 .98293535 -78.2 106.9)"/><path d="m536.4 475.4h1.4v.3h-1.4z" fill="#ffbd32" transform="matrix(.98293535 -.18395135 .18395135 .98293535 -78.3 106.9)"/><path d="m536.5 476.1h1.4v.3h-1.4z" fill="#ffbd32" transform="matrix(.98293535 -.18395135 .18395135 .98293535 -78.4 106.9)"/><path d="m527.7 447.8c.9 2.5 1.9 5 2.4 7.6v.8c.3 1.6.6 3.2 1 4.7.2 1.1.5 2.1.7 3.2.3 1.4 2 9.5 2 10.8l3.3-.6s-1.4-19.7-1.7-21.3c-1.9-8.8-4-17.6-6-26.4 0-.1 0-.3-.2-.4 0 0-.2 0-.4-.1-1.9-.1-4.4.1-6.3 0-.6 1.6-.3 3.3 0 5 1.1 5.7 3.1 11.2 5 16.7h.1z" fill="#e4e2e6"/><path d="m535.7 454.3-1.4-.4s0-.1 0-.2c0 0 0-.1.2-.1l1.2.4v.4z" fill="#d0ced1"/><path d="m525.1 479.6h-5.4c-.5-.1-1-.6-1-1.1v-3.5h3.5v2.4l3.1 1.6c.3.1.2.6 0 .6z" fill="#ffbd32"/><path d="m525.1 479.6-4.3-2.2v-2.4h1.4v2.4l3.1 1.6c.3.1.2.6 0 .6h-.1z" fill="#d49d29"/><path d="m521.3 474.9h.3v1.4h-.3z" fill="#ffbd32" transform="matrix(.02094242 -.99978068 .99978068 .02094242 35 987)"/><path d="m521.3 475.6h.3v1.4h-.3z" fill="#ffbd32" transform="matrix(.02094242 -.99978068 .99978068 .02094242 34.3 987.7)"/><path d="m521.3 476.4h.3v1.4h-.3z" fill="#ffbd32" transform="matrix(.02094242 -.99978068 .99978068 .02094242 33.5 988.4)"/><path d="m518.1 447.1c.4 2.7.9 5.3.8 8v8.9c0 2.1-.2 11-.2 11h3.4s2-14.7 2.5-19.6v-1.5c0-9-.3-18.1-.5-27.1 0-.1 0-.3 0-.4 0 0-.2-.1-.3-.2-1.9-.5-4.3-.8-6.1-1.3-.9 1.5-1 3.2-1 4.9 0 5.8.7 11.6 1.5 17.3z" fill="#e4e2e6"/><path d="m523.4 454.7 1.2.7v-.4l-1.1-.6h-.2v.2z" fill="#d0ced1"/><path d="m515.1 439.5 1.9 11 18.4-.2-4.6-29.9h-12.7l-1.1 2.5c-2.2 5.2-2.9 11-1.9 16.6z" fill="#47a7e3"/><path d="m523.7 389.8c-.2.8-.4 1.6-.9 2.2 1.2 1.3 2.9 2.1 4.6 2.6 1.3.4 2.8.6 4.1.2 0 0 .3-.1.4-.2 0-.2 0-.3 0-.5 0-.5-.3-1.1-.5-1.6-.6-1.2-.7-2.7-.5-4v-.6c0-.2-.2-.3-.3-.4-1.3-1.4-3-2.3-4.9-2.5-.4 0-.8-.2-1 .2-.2.3-.2 1.1-.3 1.4-.2 1.1-.5 2.2-.8 3.3h.1z" fill="#d0ced1"/><path d="m524.3 386c0 .2 0 .5.2.7v.2c0 .1.2.3.4.4.4.4.8.6 1.3.7.9.2 3.1.6 4.4.8.7.1 1.4.1 2.1.1h1.7c.7 0 1.3-.3 1.7-.8.2-.2.3-.5.4-.7 0-.3.2-.7 0-1 0-.4-.2-.9-.5-1.3l-1.8-2.5c-.9-1.3-2.2-2.2-3.7-2.8-1-.4-2.1-.5-3.2-.5s-2.3.9-2.7 2l-.3 1c-.4 1.3-.5 2.6-.2 3.9v-.2z" fill="#efecf0"/><path d="m529.9 382.4c.2.3.3.6.5.8.2.3.4.5.8.6.4 0 .7 0 .6-.5-.3-.6-1.1-1.1-1.8-.9z" fill="#03405c"/><path d="m533.9 386.2c-.3 0-.6 0-.9.3-.2.2-.3.6-.2.9s.4.5.7.6h.9c.5 0 1-.3 1.2-.7.3-.4.3-1.2-.2-1.4-.4-.1-1.2.3-1.6.3z" fill="#d0ced1"/><path d="m535.8 387.3c0 .2 0 .4.3.6.2-.2.3-.5.4-.7 0-.3.2-.7 0-1-.6 0-.9.8-.8 1.2z" fill="#d0ced1"/><path d="m535.3 385.9c0 .2.3.3.4.5.3.3 1 0 .7-.4 0-.2-1.2-.4-1.1-.1z" fill="#03405c"/><path d="m521.3 388c-1.1 2.4-1.6 5.1-2 7.8-.2 1-.3 2.1-.4 3.1-.2 1.7-.4 3.4 0 5.1.2.7.5 1.4 1.2 1.5.4 0 .8-.1 1.1-.3.7-.5 1.1-1.3 1.5-2.1.5-1.3.7-2.8.6-4.2 0-1.2-.4-2.3-.6-3.5-.2-1.6 0-3.2.2-4.9 0-.8.3-1.5.5-2.3.5-1.2 1.3-2.2 2.2-3.2.5-.6 1.1-1.2 1.5-1.9.5-1.1-.5-.6-1.1-.3-1.3.7-2.4 1.8-3.3 3-.5.7-.9 1.4-1.3 2.1h-.1z" fill="#efecf0"/><path d="m522.2 393.6c0 .3.2.7.3 1 0-1.4 0-2.8.3-4.1 0-.6.2-1.2.4-1.8 0-.2 0-.3.2-.5.5-1.2 1.3-2.2 2.2-3.1.5-.6 1.1-1.2 1.5-1.9-.2.1-.4.2-.5.3-1 .6-1.8 1.3-2.5 2.1-.4.5-.7 1-1 1.6-1 2-1.3 4.3-.7 6.5h-.2z" fill="#d0ced1"/><path d="m529.4 382.1c1.1-.4 2.2-.7 3.2-1.3.4-.2.7-.5.9-.9.4-.8 0-1.7-.5-2.2 0 0-.2-.1-.3-.2-1.6-1.3-3.7-1.9-5.8-1.4h-.2c-.5 0-1.3.4-1.8.7-1.9 1-3.3 2.8-3.7 4.9 0 .6-.2 1.2 0 1.7.2.6.6 1 1.2 1.2h.8c1.4-.2 5.1-2 6-2.4h.2z" fill="#22759c"/><path d="m525.5 376.4c0-.4-.2-.9-.3-1.3 0-.1 0-.3 0-.4s.3 0 .4.1c.2.3.3.7.3 1.1s-.2.8-.3 1.1c0 .2-.2.4-.3.5 0-.4.3-.7.3-1.2h-.1z" fill="#22759c"/><path d="m546.1 399c0-.2.3-.4.4-.6.4-.7.4-1.5 0-2.1l-.4-.5c-.3-.4-.8-.7-1.4-.7h-.2c-.6 0-1.1.6-1.4 1.1s-.3 1.2-.4 1.8v1.9c0 .7-.8 1-1.2 1.6 0 0 1.6.4 1.8.4.4 0 .6-.5.8-.8.7-.7 1.5-1.4 2.2-2.2z" fill="#efecf0"/><path d="m546.1 397.7c.3.1.6 0 .7-.3l.3-.6c0-.3 0-.6-.3-.7-.3-.1-.6 0-.7.3l-.3.6c0 .3 0 .6.3.7z" fill="#efecf0"/><path d="m545.4 397c.3.1.6 0 .7-.3l.3-.6c0-.3 0-.6-.3-.7-.3-.1-.6 0-.7.3l-.3.6c0 .3 0 .6.3.7z" fill="#efecf0"/><path d="m544.6 396.4c.3.1.6 0 .7-.3l.3-.6c0-.3 0-.6-.3-.7-.3-.1-.6 0-.7.3l-.3.6c0 .3 0 .6.3.7z" fill="#efecf0"/><path d="m543.5 396.2c.3.1.6 0 .7-.3l.3-.6c0-.3 0-.6-.3-.7-.3-.1-.6 0-.7.3l-.3.6c0 .3 0 .6.3.7z" fill="#efecf0"/><path d="m531.8 393.3c1.4 3.8 1.8 7.8 1.3 11.8v.6c-.4 5.1-.5 15.8-1.3 19.2 0 0-4.6-2.2-6.6-2.4-2-.1-8.5.2-8.5.2.3.1 5.6-16.7 6.1-22.5.2-2.7-.5-5.4 0-8.1 0-.3.2-.6.5-.9.6-.4 1.3-.5 2-.2 2.2 1 4.2 2.3 6.5 2.7v-1.2s0 .3.2.7h-.2z" fill="#ffbd32"/><path d="m527.9 426.9c-.2-2.8-.7-4.4-.6-6.7 0-3.9 0-7.9 1.2-11.7 0-.5.5-2.3 1-2.4.3 0 1.3.7 1.6.8 1.4.8 2.9 1.6 4.3 2.4 2.8-1.4 9-7 9-7.7 0 0-1.9-1.4-2.8-2.1-1.6.7-3.2 1.4-4.8 2.1-.2 0-.4.2-.6.1-.2 0-.4-.1-.6-.3-2.2-1.5-4.1-3.5-5.6-5.6-.8-1.1-1.5-2.6-2.7-3.3-1.3-.7-3.5-.7-4.9-.9h-.5s-.2.2-.3.3c-.8 1.6-1.5 3.2-2.2 4.8-1.2 3-2.2 6.2-3.1 9.3-.4 1.6-.8 3.2-1.2 4.8-.3 1.3-2 6.9-2.9 9.8-.2.6.2 1.3.8 1.5l14.8 4.6v.2z" fill="#03c7c0"/><path d="m525.8 403.2v.4l3.7 2.5-3.7-2.8z" fill="#22759c"/><path d="m568.7 260h10.5v5.1h-10.5z" fill="#316882"/><path d="m562.5 263.8h10.5v5.1h-10.5z" fill="#316882"/><path d="m401.6 433.8c.3 0 .6 0 .9.2s.5.2.7.5c.1.2.2.4 0 .6.3.4.9.4 1.4.6.3.2.6.4.9.7.2.1.3.3.4.5 0 .2 0 .5-.2.6.2.2.3.3.4.5 0 .1.1.3 0 .5 0 .3-.4.3-.6.4 0 .2.2.4 0 .6 0 .2-.2.4-.5.4h-.8c-.1 0-.2-.1-.3 0 0 .2-.1.3-.4.3s-.4 0-.6-.2c-.7-.4-1.5-.9-2-1.6-.1-.2-.3-.4-.4-.6-.2-.3-.6-.6-.9-.8-.8-.5-1.6-1-2.5-1.5.6-.9 1.2-1.8 1.8-2.8 0 0 .3.4.4.5s.3.2.5.3c.4.2.9.4 1.3.5z" fill="#cbc9cc"/><path d="m374.7 416.5c1.6 2.4 3.4 4.7 5.3 6.9 1.1 1.2 2.2 2.4 2.9 3 .5.4.9.8 1.4 1.2 1.9 1.5 3.9 2.9 6 4.2.2.1.3.2.4.2 2.3 1.5 4.8 2.8 7.3 4 .2 0 .4.2.6.2s.3-.1.5-.2c.7-.6 1.3-1.3 1.7-2.1.1-.2.2-.4.2-.6 0-.3-.3-.5-.6-.7-4.3-2.9-7.6-6.8-10.7-10.9s-6-8.4-9.5-12.1c-1.1-1.2-2.3-2.3-3.8-2.9-.9-.4-3.7-1-4.4.2-1.3 2.2.8 6.8 2.8 9.8v-.2z" fill="#045378"/><path d="m339.9 474.4c3.5.7 7.3-.6 9.6-3.3.2.6-.4 1.1-.7 1.4 3.6-1.7 6.7-4.5 8.7-8 .3-.5.5-1 .8-1.4.2.2-.1 1.1-.1 1.1 1.3-1.5 2.3-3.3 3.1-5.1.7-1.5 1.2-3.1 1.5-4.8.2-.8.3-1.7.4-2.5.1-1 .2-2 .3-3 0-1 .2-2 .5-3 .5-1.9 1.5-3.9 3.2-4.9.2-.1.5-.3.5-.5.4-1-3.9 0-4.4.2-1.6.6-3 1.6-4.2 2.7-1.1 1.1-1.9 2.3-2.6 3.7s-1.2 2.9-1.6 4.4v.2c-.3 1.4-.7 3-1.6 4.1-.3.4-.7.7-1.2.9.3.3.8.3 1.1 0-.8.9-1.4 1.9-2 2.9-.7 1.3-1.3 2.6-2 3.9-1.3 2.3-3.6 4.4-6.2 4.2 1.1.5 2.3.6 3.4.2-1 3-3.4 5.6-6.4 6.7z" fill="#cbc9cc"/><path d="m355 465.9c-.1.9-.4 1.8-.7 2.7-1.5 1.5-3.6 3-5.5 3.9.3-.3.9-1 .7-1.4-2.3 2.7-6.1 4-9.6 3.3 3-1.1 5.4-3.6 6.4-6.7-1.1.4-2.4.3-3.4-.2 2.6.2 4.9-2 6.2-4.2 0 0 .1-.2.2-.3.6-.4 1.1-.9 1.6-1.3-.4 2.8-1.6 5.6-3.3 7.9 1.4-.7 2.5-1.8 3.6-2.9-.2.8-.3 1.6-.5 2.4 1.6-.7 3.1-1.8 4.2-3.2z" fill="#a5a5a5"/><path d="m354.7 451.6c.6-.1 1.1-.3 1.7-.4h.5c.4.1.5.7.5 1.2.4.1.6-.6 1-.6s.4.1.5.3c.4.4.6.9.8 1.4.5-.2.9-.5 1.1-1 .7.6 1 1.5.9 2.4.3-.2.6-.4.8-.7.2-.8.3-1.7.4-2.5.1-1 .2-2 .3-3-.7.1-1.4.3-2.1.5-.1-.3-.2-.6-.3-.9-.3.3-.7.4-1.1.2s-.6-.6-.5-1c-.4 0-.7.3-1 .6-.3-.3-.5-.6-.6-1-.2.5-1.1.4-1.4 0-.7 1.4-1.2 2.9-1.6 4.4v.2h.1z" fill="#a5a5a5"/><path d="m351.1 459.5h.9v1.4c.4-.2.8-.3 1.2-.5 0 .2 0 .4.1.6.2 0 .5 0 .7-.2 0 .8-.1 1.6-.2 2.4.7-.5 1.4-1.1 1.9-1.8 0 .3 0 .6.1.9.4-.2.7-.4 1.1-.6.1.9.2 1.9.3 2.9.3-.5.5-1 .8-1.4.2.2-.1 1.1-.1 1.1 1.3-1.5 2.3-3.3 3.1-5.1-.4-1-.7-1.9-1-2.9-.1.8-.2 1.5-.3 2.3-.3-.4-.5-.8-.6-1.3-.5.5-.9 1.1-1.2 1.8-.2-.5-.3-1.1-.2-1.7-.3.1-.5.3-.7.5-.1-.6-.2-1.2-.3-1.8-.3.3-.6.5-.8.8 0-.4 0-.7-.1-1.1-.4 0-.7.3-1 .5 0-.5-.2-.9-.2-1.4l-1.2 1.2s-.1-.2-.2-.3c-.3.4-.7.7-1.2.9.3.3.8.3 1.1 0-.8.9-1.4 1.9-2 2.9z" fill="#a5a5a5"/><path d="m380.1 435.4h3.3v-11.9z" fill="#e6f5ff"/><path d="m364.5 435.6s4.6 30.4 6.4 38.7l.3 1.2 2.8 11.5 5.3-1.4-2.4-17c.1-.3.3-.5.4-.8 1.3-2.6 3.1-9.2 4.4-15.2 1.3-5.7 1.9-11.6 1.9-17.5z" fill="#316882"/><path d="m354.6 478.5 1.7 5.1 1-.5c4.8-2.2 9.2-5 13.1-8.4l.4-.4c1.9-1.7 3.7-3.5 5.3-5.4l-5.3-6.1c0 .1-.8 1-2 2.2s-.3.3-.4.5c-3.5 3.7-10 10.1-13.9 13.1z" fill="#316882"/><path d="m376.9 468.7c.1-.3.3-.5.4-.8-.5-4.2 0-15.3.3-21.2 0-2.2.2-3.8.2-4.4s-.1-.3-.3-.3-.3.1-.3.3c0 .6 0 2.2-.2 4.4-.4 9-.7 18.6-.1 22z" fill="#03405c"/><path d="m370.9 474.3c-.2-1-.5-2.7-.8-4.5-.3-1.7-.6-3.6-.9-5.1l-.4.4c.2 1.1 1.3 7.5 1.7 9.6z" fill="#03405c"/><path d="m385.9 491.5-8.5 2.2c-.9.2-1.7-.3-2-1.2l-1.4-5.5 5.3-1.4 1 3.8 5.5 1.1c.5.1.6.8 0 1z" fill="#47a7e3"/><path d="m385.9 491.5-7.7-1.5-1-3.8 2.2-.5 1 3.8 5.5 1.1c.5.1.6.8 0 1z" fill="#2976b3"/><path d="m377.1 487h2.2v.5h-2.2z" fill="#47a7e3" transform="matrix(.96944535 -.24530739 .24530739 .96944535 -108 107.7)"/><path d="m377.3 488.2h2.2v.5h-2.2z" fill="#47a7e3" transform="matrix(.96944535 -.24530739 .24530739 .96944535 -108.2 107.8)"/><path d="m377.6 489.5h2.2v.5h-2.2z" fill="#47a7e3" transform="matrix(.96944535 -.24530739 .24530739 .96944535 -108.6 107.9)"/><path d="m356.1 491.1-5.8-6.5c-.6-.7-.5-1.7.1-2.3l4.3-3.8 3.7 4.1-2.9 2.6 1.6 5.4c.1.5-.5.9-.8.5z" fill="#47a7e3"/><path d="m356.1 491.1-2.2-7.6 2.9-2.6 1.5 1.7-2.9 2.6 1.6 5.4c.1.5-.5.9-.8.5z" fill="#2976b3"/><path d="m356.5 481.6h.5v2.2h-.5z" fill="#47a7e3" transform="matrix(.74663818 -.66523035 .66523035 .74663818 -230.7 359.6)"/><path d="m355.6 482.5h.5v2.2h-.5z" fill="#47a7e3" transform="matrix(.74663818 -.66523035 .66523035 .74663818 -231.5 359.2)"/><path d="m354.7 483.3h.5v2.2h-.5z" fill="#47a7e3" transform="matrix(.74663818 -.66523035 .66523035 .74663818 -232.3 358.9)"/><path d="m376.8 464.9h.2v-.3l-1.5-1.5h-.3v.3l1.5 1.5h.2z" fill="#03405c"/><path d="m364.5 437.7c5.5 2.9 12.1 3.6 18 1.8.1 0 .2 0 .3-.2v-.3c.2-4.2.4-11.6.6-15.9 0 0-.3-1.2-.4-2-.3-1.6-.7-3.2-1-4.7-.5-2.4-1.4-4.6-2.4-6.9-.7-1.7-.9-2.5-2.2-3.7-1.4-1.3-4-2.1-5.7-2.1s-2.1-1.1-2.9-.6c-.4.3-1.5 2.4-1.7 2.8-1.5 2.5-2.4 5.6-2.7 8.4-.5 3.6 0 22.9.1 23.3z" fill="#2976b3"/><path d="m370.9 394c.4-.7.9-1.4 1.5-2s1.3-1.1 2.1-1.2h.4c.1 0 .2.2.3.3.7 1.2 1.5 2.6 1.4 4 0 .2-1.6.4-1.8.4-.6 0-1.3.1-1.9 0-.6 0-1.3-.1-1.9-.3-.8-.3-.5-.7 0-1.3h-.1z" fill="#cbc9cc"/><path d="m383.9 399v.5c0 .4-.3.7-.5 1-.9 1.1-2.3 1.7-3.6 2-.8.2-1.7.3-2.1.9-.5.7-.4 1.7 0 2.5-1.3.5-2.5 1-3.8 1.4-.3 0-.6.2-1 .2-.8.2-4.5 2.1-4.8 1 0-.3.5-1.8.5-2.1v-1.3c-.3-1.6-.7-3.2-.9-4.8s-.2-3.3.5-4.8c.3-.6.7-1.2 1.3-1.6 1-.7 2.3-.8 3.5-.8s2.4 0 3.3.7c.6.4 1.1 1.1 1.6 1.7.2.3.4.5.6.7h.1c.6.7 1.4 1.1 2.3 1.2h1.1c.4 0 .7-.1 1.1 0 .5.2.9.7.9 1.3v.3z" fill="#a5a5a5"/><path d="m381.6 397.8c0 .7-.8 1.6-1.1 2.2-.5.9-1.3 1.7-2.1 2.3-.4.3-.9.5-1.2.9-.6.6-1 1.3-1.4 2-.5.7-1.1 1.4-1.9 1.5 0-.2 0-.4-.2-.7-.2.1-.5.2-.7.3 0-.2.1-.4 0-.5-.2.2-.4.4-.6.7.5-1.8.5-3.7.9-5.5.4-2 1.4-4 3.2-5 .2-.1.4-.2.6-.2h.6c.2.3.4.5.6.7h.1c.6.7 1.4 1.1 2.3 1.2h.9z" fill="#a5a5a5"/><path d="m383.9 399v.5c0 .4-.3.7-.5 1-.9 1.1-2.3 1.7-3.6 2-.8.2-1.7.3-2.1.9-.5.7-.4 1.7 0 2.5-1.3.5-2.5 1-3.8 1.4.1-.2.2-.4.2-.7-.1 0-.2 0-.3-.1.5-.4.8-.9.9-1.5h-.5c.3-.3.5-.7.7-1.1-.3 0-.5 0-.8-.1.9-.4 1.9-.8 2.6-1.6.2-.2.4-.5.6-.8.6-.9 1.2-1.7 2-2.5.7-.6 1.5-1.1 2.3-1.3h.6c.4 0 .7-.1 1.1 0 .5.2.9.7.9 1.3h-.3z" fill="#cbc9cc"/><path d="m375.6 395.5c-.2 0-.5.1-.7.3-.2 0-.3.2-.4.4-.7.7-1.3 1.5-1.7 2.3-.4.9-.7 1.8-1 2.6-.4.9-.9 1.7-1.7 2.2.3 0 .6-.2.8-.4 0 .3 0 .5-.1.8.2 0 .4-.1.6-.2 0 .3 0 .6-.1.8.3 0 .6-.2.8-.4v.5c.2 0 .3-.2.4-.3.1.3.1.6 0 1 .2 0 .3-.2.5-.2v.6c.2-.4.2-.9.2-1.3 0-1.2.4-2.3 1.2-3.2.2-.3.5-.5.7-.8.3-.3.5-.7.7-1.1s.4-.9.6-1.3.3-.8.6-1.1.6-.6 1.1-.6c.3-1.1-1.8-.7-2.3-.6z" fill="#cbc9cc"/><path d="m367.3 397.6c-.3-.8-.7-1.5-.8-2.3-.2-.8-.2-1.7.2-2.4 0-.1.1-.3.3-.4h.4c1.4 0 2.9.2 4.1 1 .1.1-.6 1.6-.7 1.8-.3.6-.6 1.1-1 1.6s-.8 1-1.3 1.4c-.7.5-.9 0-1.2-.7z" fill="#cbc9cc"/><path d="m367.9 396.3c-.2-.4-.3-.8-.4-1.2 0-.5 0-1.1.2-1.5 0-.1 0-.2.1-.3q0-.2.2-.1c.2 0 .5.3.6.4.1 0 .3.1.4.2h-.1c.2 0 .4.2.6.3 0 0-.2.1-.1.2.2.1.4.2.6.4 0 0-.2.1-.3.2v.3c-.3.7-.6 1.4-.9 2.1-.2.3-.2.4-.5 0s-.4-.8-.5-1.1z" fill="#a5a5a5"/><path d="m383.9 399s-.3.1-.4.2h-.8c-.2 0-.3-.1-.5-.2-.1-.1-.3-.2-.4-.3-.2-.2-.4-.6-.3-.9h.4c.4 0 .7-.1 1.1 0s.7.5.8 1v.3z" fill="#241f3d"/><path d="m377.3 397.2c-.3 0-.6.2-.9.3s-.6.2-1 .2c.3.2.7.3 1 .4.5 0 1.2 0 1.5-.3.5-.4-.3-.6-.7-.6z" fill="#241f3d"/><path d="m383.5 423.2s-.4 14.1.4 16.1c0 .2.4-.2.4-.4z" fill="#2976b3"/><path d="m380.2 429.9h.1c-.2.9-1 1.6-1.9 1.8-.9.3-1.8.2-2.7 0-.9-.1-1.8-.4-2.6-.8-.4-.2-1.7-1.1-1.6-1.7 0-.7 2 0 2.5.2 2 .4 4.1.5 6.2.3z" fill="#47a7e3"/><path d="m382.5 420.5c0-.2-5.6-10.7-5.6-10.7l-5.4-4.3 6 .5 4.3 7.7.8 6.9z" fill="#e6f5ff"/><path d="m383.5 423.2c-.6-.6-1.2-3.1-1.5-4.3-.1-.5-.3-1.1-.4-1.6-.9-5-2-7.8-4.1-11.4 0-.3 2.3.7 2.3 1 .1.5.4 1.6.5 2.2 0 .3.3.6.6.8.6.4 1.7 1.1 1.9 1.4.1.1.2.3.2.5 0 .8-.1 3.7-.2 5.1-.1 1.1.7 6.3.7 6.3z" fill="#47a7e3"/><path d="m383.7 423.2c0 .1-.1.3-.3.3s-.3-.1-.3-.3.1-.3.3-.3.3.1.3.3z" fill="#316882"/><path d="m371.5 431c.3 0 .6-.1.9-.2.3 0 .6 0 .9.2.2.1.3.3.2.5.5.2 1 0 1.6 0s.8.1 1.2.3c.2 0 .4.1.6.3s.2.4 0 .6c.2 0 .4.2.6.3.1.1.3.2.3.4 0 .3-.2.4-.4.6.2.2.3.3.3.5s0 .4-.3.5c-.1 0-.3.1-.4.1h-.4c-.1 0-.3 0-.2.1 0 .2 0 .4-.2.5h-.6c-.9 0-1.8-.3-2.5-.8-.2-.1-.4-.3-.7-.5-.4-.2-.8-.3-1.2-.4-1-.2-2-.4-3-.5.2-1.1.4-2.2.6-3.3l.5.3c.2 0 .4 0 .6.1h1.5v.4z" fill="#cbc9cc"/><path d="m370.7 414.3c.3-.8.7-1.6.7-2.5 0-1.7-1.2-3.1-2.4-4.3s-.8-.8-1.3-.7c-.3 0-.6.2-.9.4-2.2 1.6-3.1 4.3-4.4 6.5-1.5 2.7-2.2 5.9-3.5 8.7-1.1 2.2-2.4 4.6-1.8 7 .4 1.5 1.5 2.7 2.9 3.4 1.4.8 2.9 1.1 4.5 1.3.8 0 1.7.3 2.5.5s1.7.3 2.5.5h.1s.3-.6.4-.8c.3-1 .5-3.2.4-3.2-.2 0-2.2-.7-2.6-.9-.8-.5-1.8-1-2.5-1.6-.8-.6-1.1-1.2-1.3-1.7-.2-.3-.1-.7 0-1 .6-1.2 2-3.6 2.4-4.3 1.5-2.3 3.1-4.6 4.2-7.2z" fill="#045378"/><path d="m374 405.9c2.5 1.3 4.4 3.5 5.3 6.1.8 2.3 1.7 4.6 2.5 6.9.5 1.4.8 3 1.6 4.3-1.3-1.2-4.6-6.3-6.1-7.4-.2-.2-.4-.5-.3-.7 0-.2.2-.6.3-1 .2-.4 0-.9-.4-1.1-2.7-1.6-7.3-4-10.3-4.4-.3 0-.6-.4-.4-.7.5-1.3 1.7-4.3 2.5-4.7l5.1 2.7z" fill="#47a7e3"/><path d="m401.4 467.6h5.9v-91.2c0-1.6-1.3-3-3-3-1.6 0-3 1.3-3 3v91.2z" fill="#316882"/><path d="m405.4 380.5h5.2v16.6h-5.2z" fill="#316882"/><path d="m412.8 399.3h10.4v2.9h-10.4z" fill="#316882"/><path d="m412.8 375.5h10.4v2.9h-10.4z" fill="#316882"/><path d="m415.1 376.5h2.9v5.9h-2.9z" fill="#316882"/><path d="m420.9 395.3v-2.8h2.4v-1.6-.6h-2.4v-2.9h2.4v-2.2h-2.4v-2.9h2.4v-1.4h-10.5v10 2.2 3.7h10.5v-1.5z" fill="#316882"/><path d="m415.2 395.4h2.9v5.9h-2.9z" fill="#316882"/><path d="m410.6 375.5h5.2v26.6h-5.2z" fill="#316882"/><path d="m404.4 462.1c-9.1 0-16.5 7.4-16.5 16.5s7.4 16.5 16.5 16.5 16.5-7.4 16.5-16.5-7.4-16.5-16.5-16.5zm-.1 27.1c-5.8 0-10.4-4.7-10.4-10.4s4.7-10.4 10.4-10.4 10.4 4.7 10.4 10.4-4.7 10.4-10.4 10.4z" fill="#316882"/><path d="m778 349.6c1.9.2 3.7 1 5.2 2.1 1 .7 2.2 1.7 3.4 1.3 0 .2-.3.4-.5.4 1.6.2 3.1 1.1 4.6 1.6s3.4.7 4.6-.5c-.3.7-.9 1.2-1.6 1.4 1.7 1 3.9 1.3 5.7.6-1.4 1.7-3.7 2.6-5.9 2.2 0 .4.6.4.9.4-2.7.7-5.7.5-8.2-.7 0 .2.5.4.5.4-2.8-.5-5.3-2-7.3-3.8-.9-.8-1.7-1.8-2.7-2.5s-2.2-1.2-3.5-1h-.4c-.6-.3 1.8-1.5 2.1-1.7 1-.3 2-.5 3.1-.4z" fill="#da4d36"/><path d="m788.9 358.6c.4.4.9.7 1.4 1 1.3.1 2.9 0 4.2-.4-.3 0-.8 0-.9-.4 2.2.4 4.5-.5 5.9-2.2-1.9.7-4 .4-5.7-.6.7-.3 1.3-.8 1.6-1.4-1.2 1.1-3.1 1-4.6.5h-1.5c1.3 1.2 3 2 4.7 2.4-.9.2-1.9.2-2.9 0 .4.3.8.6 1.2 1-1.1.3-2.2.4-3.3.2h-.1z" fill="#efecf0"/><path d="m748.6 358.8-2.9-2.3 9-11.2 6.8 1.3z" fill="#045378"/><path d="m740 358.3 4.6 3.7c.5.4 1.2.3 1.5-.2l2.4-3-2.9-2.3-1.6 2.1-3.7-.8c-.3 0-.6.4-.3.6z" fill="#03405c"/><path d="m740 358.3 5.2 1.2 1.6-2.1-1.2-.9-1.6 2.1-3.7-.8c-.3 0-.6.4-.3.6z" fill="#2a5366"/><path d="m745.8 357h.4v1.5h-.4z" fill="#03405c" transform="matrix(.62114778 -.78369346 .78369346 .62114778 2.3 720.2)"/><path d="m745.4 357.7h.4v1.5h-.4z" fill="#03405c" transform="matrix(.62114778 -.78369346 .78369346 .62114778 1.5 720.1)"/><path d="m744.9 358.5h.4v1.5h-.4z" fill="#03405c" transform="matrix(.62114778 -.78369346 .78369346 .62114778 .8 720)"/><path d="m774.3 354.6h-14.2v-9.3h14.2z" fill="#2b3e78"/><path d="m770.6 357-17.5-2.3-1.9-5.3 23-.9.3 4.3c.4 2.4-1.6 4.4-4 4.2z" fill="#316882"/><path d="m739.7 358.6-1.5-3.4 13.1-5.8 1.9 5.3z" fill="#316882"/><path d="m732.3 354.2 2.4 5.4c.2.5.9.8 1.4.5l3.5-1.6-1.5-3.4-2.4 1.1-2.9-2.4c-.3-.2-.7 0-.5.4z" fill="#03405c"/><path d="m732.3 354.2 4.1 3.4 2.4-1.1-.6-1.4-2.4 1.1-2.9-2.4c-.3-.2-.7 0-.5.4z" fill="#2a5366"/><path d="m737.7 354.9h.4v1.5h-.4z" fill="#03405c" transform="matrix(.91068366 -.41310443 .41310443 .91068366 -81 336.6)"/><path d="m737 355.3h.4v1.5h-.4z" fill="#03405c" transform="matrix(.91068366 -.41310443 .41310443 .91068366 -81.2 336.3)"/><path d="m736.2 355.4h.4v1.5h-.4z" fill="#03405c" transform="matrix(.91068366 -.41310443 .41310443 .91068366 -81.4 336)"/><path d="m746 356.8 6.8-2-6.3 2.4z" fill="#03405c"/><path d="m762.1 328.4s-1.4 6.2-1.5 7c0 1 0 2 .2 3v.6c.3 2.8.5 5.5.6 8.2v2.1c-.2-.2-.4-.4-.6-.6 0 0 0-.1-.2-.2-.2-.2-.4-.4-.5-.6 0 0 0-.1-.2-.2-.2-.2-.3-.5-.5-.7-1.3-2.1-2-4.6-1.8-7 .2-1.7.7-3.4 1.3-5.1.3-1 .6-1.9 1-2.9.2-.4 1.6-3.9 2.2-3.7z" fill="#ffbd32"/><path d="m775.3 349.3c-.2.6-13 1.7-14.6 1.4-1.2-.2-.6-7.2-.6-8.1 0-3 0-5.9.3-8.8v-.7c0-.7.2-1.2.3-1.8s.2-1.2.5-1.8c.2-.4.4-.7.7-1 .4-.4 1-.8 1.5-1 .8-.3 1.6-.5 2.4-.6.6 0 1.2-1.2 1.8-1s1.5 1.6 1.7 1.8c3.5 3.9 6.1 20.9 5.8 21.8z" fill="#ffbd32"/><path d="m760.8 333.5c0 1-.3 4.3-.4 5.4v6.5s0 1.7-.2 2.6c0 0 0-.1-.2-.2-.2-.2-.3-.5-.5-.7 0-.2 0-.4 0-.6v-2.4c0-1.9 0-3.8.4-5.7 0-.8.6-4 .8-4.8h.1z" fill="#d49d29"/><path d="m759.8 321.3c-1-.2-2.1-.4-2.8-1.1s0 .1 0 .2c0 .7.4 1.3.8 1.8s1 .9 1.5 1.3c.2-.1.3-.4.5-.6.3-.3.7-.3 1.1-.4h.2v-.2c0-.3 0-.6-.2-.7s-.7-.1-1-.2z" fill="#da4d36"/><path d="m758.1 321.8s0 0 0 .1c0 .2.3.4.5.5.3.2.6.3.9.5 0-.1.4-.4.4-.6s-.4-.1-.5-.2c-.4 0-.9-.2-1.3-.4z" fill="#efecf0"/><path d="m769 326.7-2.8 3.4-1.3 1.6-2.1-2.6c-.4-.6-1-1.1-1.7-1.3-.4-.2-.9-.2-1.3-.2s-.5 0-.7.1h-.3c-.5.2-.9.3-1.4.2h-.5l-.7-.2c-.2 0-.3-.1-.4-.2 0 0 0-.2 0-.3 0-.2 0-.4.2-.5l.3-.2.8-.6c.6-.5 1.1-1.1 1.4-1.8 0-.4.3-.6.4-.9 0-.2.2-.3.3-.4s.3-.3.4-.4c0 0 .2-.1.3-.2.2-.1.4-.3.7-.4.2 0 .3-.1.5-.2.2 0 .3 0 .5-.1h.5c.5 0 1 0 1.5.2.4.1.9.4 1.2.6l.9.7c.2.2.4.3.6.5l2.9 3.2h-.1z" fill="#da4d36"/><path d="m765.7 329.4c0 .1.3.2.5.4s0 .2 0 .3l-1.3 1.6-2.1-2.6c-.4-.6-1-1.1-1.7-1.3-.4-.2-.9-.2-1.3-.2s-.5 0-.7.1h-.3c-.4.2-.9.3-1.4.2h-.5c.3-.4.6-.7 1-.9.7-.3 1.5-.3 2.2-.7v.2c.9-.4 1.9 0 2.9 0 0 .1-.2.2-.4.3.6-.2 1.1.6 1.8.5 0 .2-.3.2-.5.2l1.2.6s0 .1-.2.2c.2 0 .3.2.5.2s.2.2.3.3c.2.2.6.2.8.3-.2.1-.4.2-.7.3z" fill="#efecf0"/><path d="m755.6 327.2s.3-.1.4-.1c.3-.1.5-.2.8-.4h-.5v-.2l-.3.2c-.2.1-.2.3-.2.5z" fill="#441e45"/><path d="m760.5 322.4c1-.3 2-.5 3-.5v-.2c-.7-.9-1.4-1.7-2.2-2.5s-.8-.9-1-.4c-.2.4 0 1.2 0 1.6 0 .6.2 1.3.4 1.9h-.2z" fill="#da4d36"/><path d="m762.3 322-1.2-1.5c0-.1-.3 0-.3 0 0 .6 0 1.2.3 1.8v.2s1.2-.6 1.2-.6z" fill="#efecf0"/><path d="m759.6 324.2c.2-.1.3-.2.5-.3.2 0 .3-.2.5-.3 0 .2 0 .4-.2.6s-.5.5-.7.6c-.4 0 0-.4 0-.5z" fill="#441e45"/><path d="m769.6 343.5c2.1-1.5 2.7-4.3 1.5-6.6l-1.2-2.3 5.8 6.4-6.1 2.6z" fill="#d49d29"/><path d="m769 343.7h-.6c-.2 0-.4 0-.6.2 0 0-.2.3 0 .4-.3.2-.7.1-1.1.2-.3 0-.5.2-.8.3 0 0-.3.1-.4.3v.4s-.3.2-.4.3v.3c0 .2.2.3.3.4 0 .1-.2.2-.2.4s0 .3.2.3h.8c0 .1 0 .2.2.3h.4c.6-.2 1.2-.4 1.6-.8 0-.1.3-.3.4-.4.2-.2.5-.3.8-.4.6-.2 1.3-.5 2-.7-.3-.7-.5-1.5-.8-2.2 0 0-.3.2-.3.3 0 0-.3.1-.4.1-.3 0-.7.1-1 .1v.2z" fill="#da4d36"/><path d="m767.8 332.2c-.3-.5-.6-1-.7-1.6-.2-1.2.5-2.2 1.2-3.2.2-.3.5-.6.8-.6s.4 0 .6.2c1.7.9 2.6 2.6 3.7 4 1.3 1.7 2.1 3.8 3.3 5.6.9 1.4 2.1 2.9 1.9 4.6 0 1-.8 2-1.6 2.6-.8.7-1.9 1.1-2.9 1.4-.6.2-1.1.4-1.7.6s-1.1.4-1.7.6-.3-.4-.3-.5c-.3-.6-.7-2.1-.6-2.2 0 0 1.4-.7 1.7-.9.5-.4 1-.9 1.3-1.5.5-.9.8-2.2 0-3.1-.4-.5-.9-1-1.3-1.4-1.3-1.4-2.6-2.8-3.6-4.4v-.2z" fill="#ffbd32"/><path d="m771.4 348.3h.5v.4h-.6v-.4z" fill="#dbe7ff"/><path d="m770.8 348.3h.5v.4h-.6v-.4z" fill="#dbe7ff"/><path d="m770.1 348.3h.5v.4h-.6v-.4z" fill="#dbe7ff"/><path d="m769.5 348.3h.5v.4h-.6v-.4z" fill="#dbe7ff"/><path d="m768.8 348.3h.5v.4h-.6v-.4z" fill="#dbe7ff"/><path d="m768.2 348.3h.5v.4h-.6v-.4z" fill="#dbe7ff"/><path d="m767.6 348.3h.5v.4h-.6v-.4z" fill="#dbe7ff"/><path d="m766.9 348.3h.5v.4h-.6v-.4z" fill="#dbe7ff"/><path d="m766.3 348.3h.5v.4h-.6v-.4z" fill="#dbe7ff"/><path d="m765.6 348.3h.5v.4h-.6v-.4z" fill="#dbe7ff"/><path d="m765 348.3h.5v.4h-.6v-.4z" fill="#dbe7ff"/><path d="m764.3 348.3h.5v.4h-.6v-.4z" fill="#dbe7ff"/><path d="m763.7 348.3h.5v.4h-.6v-.4z" fill="#dbe7ff"/><path d="m763.1 348.3h.5v.4h-.6v-.4z" fill="#dbe7ff"/><path d="m762.4 348.3h.5v.4h-.6v-.4z" fill="#dbe7ff"/><path d="m761.8 348.3h.5v.4h-.6v-.4z" fill="#dbe7ff"/><path d="m761.1 348.3h.5v.4h-.6v-.4z" fill="#dbe7ff"/><path d="m760.5 348.3h.5v.4h-.6v-.4z" fill="#dbe7ff"/><path d="m759.8 348.3h.5v.4h-.6v-.4z" fill="#dbe7ff"/><path d="m759.2 348.3h.5v.4h-.6v-.4z" fill="#dbe7ff"/><path d="m758.6 348.3h.5v.4h-.6v-.4z" fill="#dbe7ff"/><path d="m757.9 348.3h.5v.4h-.6v-.4z" fill="#dbe7ff"/><path d="m757.3 348.3h.5v.4h-.6v-.4z" fill="#dbe7ff"/><path d="m756.6 348.3h.5v.4h-.6v-.4z" fill="#dbe7ff"/><path d="m756 348.3h.5v.4h-.6v-.4z" fill="#dbe7ff"/><path d="m755.3 348.3h.5v.4h-.6v-.4z" fill="#dbe7ff"/><path d="m754.7 348.3h.5v.4h-.6v-.4z" fill="#dbe7ff"/><path d="m754.1 348.3h.5v.4h-.6v-.4z" fill="#dbe7ff"/><path d="m753.4 348.3h.5v.4h-.6v-.4z" fill="#dbe7ff"/><path d="m752.8 348.3h.5v.4h-.6v-.4z" fill="#dbe7ff"/><path d="m752.1 348.3h.5v.4h-.6v-.4z" fill="#dbe7ff"/><path d="m751.5 348.3h.5v.4h-.6v-.4z" fill="#dbe7ff"/><path d="m750.6 346.8h.8v1.7h-.8z" fill="#03ada7" transform="matrix(.96174131 -.27395922 .27395922 .96174131 -66.5 219)"/><path d="m765.5 346.8h.8v1.7h-.8z" fill="#03ada7" transform="matrix(.96174131 -.27395922 .27395922 .96174131 -65.9 223.1)"/><path d="m748.7 339.4 2.3 8.7h16s.2-.1.2-.3l-2.2-8.6c0-.2-.3-.4-.5-.4h-15.4c-.3 0-.6.3-.5.6z" fill="#dcfaf9"/><path d="m747.9 339.4 2.3 8.5s0 .2.2.2h15.9s.2-.1.2-.3l-2.2-8.6c0-.2-.3-.4-.5-.4h-15.4c-.3 0-.6.3-.5.6z" fill="#b3f5f3"/><path d="m750.4 348.7h23.2c.2 0 .4.2.4.4v.4c0 .2-.2.4-.4.4h-23.2s0 0 0-.1v-.8s0-.1 0-.1z" fill="#dcfaf9"/><path d="m750.4 348.7h16.1v1.1h-16.1s0 0 0-.1v-.8s0-.1 0-.1z" fill="#b3f5f3"/><path d="m769 326.3c-.2-.1-.5-.1-.7 0-.4.4-.9 1-1.1 1.2-1.1 1.1-1.4 2.8-2.3 4 .8-.3 3.6-3.1 4.1-4.2l.2-.4c0-.3 0-.6-.2-.7z" fill="#f2c06d"/><path d="m764.4 331.1c0-.2-1.8-2.3-2.3-2.8-.4 0-.7.2-.8.6v.2c.4.3.8.5 1.3.7.2 0 2 1.4 2.2 1.6 0 0-.3-.4-.4-.5z" fill="#f2c06d"/><path d="m649.2 370c0 .2.2.3.3.4.5.4 1.2.8 1.8 1 .2 0 .4 0 .6.1.3 0 .6.3.9.4 0 0 .8.4 1.5.8 0 0 .3.1.4.2l1.2-1.9c-.3-.1-.5-.3-.5-.4-.2-.3-.6-.5-.8-.8 0-.2-.3-.4-.4-.6-.2-.2-.4-.3-.6-.4-.2 0-.4 0-.4.2-.4-.1-.6-.6-.9-.8-.2-.2-.5-.3-.8-.5-.2 0-.3-.2-.5-.1-.2 0-.4.1-.4.3-.2 0-.4-.1-.5-.2h-.4c-.2.1 0 .4 0 .6-.2 0-.3 0-.5.1 0 .1-.2.3 0 .5v.3s0 .2.2.3c0 0 .2.1 0 .2 0 .1-.2.2 0 .4z" fill="#efecf0"/><path d="m713.5 421.4c-2.9.9-6.3 0-8.5-2.1 0 .5.4.9.8 1.2-1.5-.6-3-1.3-4.3-2.3-1.4-1-2.6-2.3-3.6-3.6-.3-.4-.6-.9-.9-1.4-.2.1.2.9.2.9-2.7-2.8-4.5-6.5-5.3-10.3-.4-1.7-.6-3.4-1.1-5.1-.6-1.6-1.6-3.2-3.2-4-.2 0-.4-.2-.5-.4-.4-.8 3.4-.3 3.8-.2 1.4.4 2.7 1.1 3.8 2 1.3 1.1 2.3 2.4 3.1 3.8.5.9.9 1.8 1.2 2.8.4 1.1.7 2.3 1.4 3.1.4.5.8.9 1.4 1.1-.2.3-.7.3-1 0 1.7 1.5 2.7 3.7 4 5.5s3.4 3.5 5.7 3.1c-.9.5-2 .7-2.9.4 1.1 2.5 3.4 4.5 6.1 5.3z" fill="#efecf0"/><path d="m700.3 406c-.8.2-1.5.2-2.3 0 0 0-.3 0-.4-.2v-.4c0-.3.3-.6.5-.8.2-.3.2-.7 0-.9-.4-.6-1.4-.2-1.8-.7 0-.2-.2-.4-.2-.6 0-.8.4-1.6 1-2 .2-.1.3-.2.5-.3.5.9.9 1.8 1.2 2.8.4 1.1.7 2.3 1.4 3.1z" fill="#ffbd32"/><path d="m701.6 417.8c0 .1 0 .2-.2.3-1.4-1-2.6-2.3-3.6-3.6.9-.5 1.9-.9 2.6-.6 1.7.6 1.9 2.6 1.2 4z" fill="#ffbd32"/><path d="m655.6 370.5c1.3.7 9.9 4.4 11.3 4.7.8.2 1.2-.8 1.7-1.4.8-1 5.7-7.9 5.9-8.6 0-.3.3-.6.5-.9 0-.2.3-.4.4-.5 1-1.1 2.6-1.4 3.9-.9 0 0 .3.1.4.2s.2.2.3.2c.6.7.7 1.7.3 2.5-.2.3-.3.7-.5.9-.9 1.2-6.5 8-7.7 9.3-1 1.1-2.1 2.1-3.2 3-.4.3-.9.7-1.5.6-.4 0-9-5.3-13.3-6.7l1.5-2.5z" fill="#03c7c0"/><path d="m681.7 349c.9-.5 1.8-1.2 2.4-2 .3-.4.6-.9.8-1.3.3-.6 1.3-.5 1.4.2.5 1.9.4 4-.5 5.8-.2 0-.3-.3-.4-.4-.6-.8-3.6-2.3-3.8-2.2z" fill="#efecf0"/><path d="m679.8 349.2c-1.3 0-2.5-.4-3.6-1-.6-.3-1.2-.7-1.7-1.1s-1.3 0-1.2.7v.3c.4 2.3 1.5 4.5 3.4 5.8 0-.2.2-.4.2-.6.2-1.1 2.7-4.1 2.9-4.1z" fill="#ffbd32"/><path d="m674 348c.4 1.4 1.3 2.6 2.4 3.4 0-.4 0-.7.3-1 0-.2.2-.3.4-.5s0-.2-.2-.3c-.4 0-.8-.2-1.1-.4-.4-.2-.7-.4-1.1-.6-.2-.1-.8-.5-.9-.7h.2z" fill="#03405c"/><path d="m685.7 345.9c.2 1.2 0 2.5-.7 3.6-.2-.2-.3-.4-.5-.6 0-.1-.3-.2-.5-.2-.2-.1 0-.1 0-.3.3-.2.5-.5.8-.7.2-.3.4-.5.6-.8 0-.2.5-.7.5-.9z" fill="#03405c"/><path d="m674.7 357.4v.4s.3-.1.4-.2c.3.2.6.4 1 .5.4.2.8.3 1.3.5.7.2 1.4.4 1.9.9 0 0 0 .2.2.2.3.6-1.2 5.2-1.2 5.2 7.3 1.3 9.6-2.4 9.6-2.4-1-1-2.2-2.6-1.8-4 0-.2 2.4-3 2.5-3.1 0 0 .2-.2.3-.2 0 0 .4-.1.5 0 0-.1-.2-.2-.2-.3h.2c0-.1-.2-.2-.3-.4h.4c-.2-.2-.4-.4-.5-.6h.3c0-.1-.2-.2-.3-.4h.4c-.3-.2-.6-.4-.9-.6-.7-.6-1.4-1.3-1.9-2.1 0-.2-.3-.4-.4-.6l-.5-.8c-.3-.6-.8-1-1.4-1.1l-1.3-.3h-.2c-1.6-.3-3.2 0-4.6.8l-.3.2-.6.4c-1.2.5-1 2.3-1 2.3 0 .5-.2 1-.4 1.5-.3 1-.8 1.9-1.3 2.8v.2h.2v.5s.2 0 .3-.1c0 .2-.2.4-.3.7h.3c0 .1-.2.3-.2.5 0 0 .2 0 .3-.1l-.3-.3z" fill="#efecf0"/><path d="m675.7 353.1c.2-.5.3-1 .3-1.5s0-1.8 1-2.4l.6-.4.3-.2s.3-.2.4-.2c.3.2.6.7.3 1 0 .1-.2.2-.4.2s0 0 0 .1 0 .2-.2.2h-.5c-.2 0-.3 0-.4.2v.5c0 .1.2.3 0 .5 0 .2-.3.2-.4.4v.4.5c0 .2-.3.3-.5.3s-.4.1-.6.1v.3z" fill="#ffbd32"/><path d="m681.3 356.4c.4.7 1.3 1 2 .6s1-1.3.6-2-1.3-1-2-.6-1 1.3-.6 2z" fill="#ffbd32"/><path d="m678.8 356.9c.4.7 1.2.9 1.9.5s.9-1.2.5-1.9-1.2-.9-1.9-.5-.9 1.2-.5 1.9z" fill="#ffbd32"/><path d="m680.3 354.8v.2c0 .2.3.4.6.6 0 0 .2.2.3 0 0-.3.7-1.1.2-1.2-.2 0-1.2.2-1.3.4h.1z" fill="#03405c"/><path d="m684.3 351.1c-.2.4-.2.9-.4 1.3 0 .4-.4.9-.9 1-.5.2-1 0-.9-.5.2-1 1.2-1.8 2.1-1.8z" fill="#03405c"/><path d="m677.3 352.4c.2.3.4.7.6 1s.5.6.9.7c.4 0 .8-.1.6-.6-.3-.7-1.3-1.2-2.1-1z" fill="#03405c"/><path d="m678.9 351s-.3-.1-.8-.1-.8 0-.8.1c0 0 .3.1.8.1s.8 0 .8-.1z" fill="#ffbd32"/><path d="m684 350.2s-.3.2-.7.2h-.8s.3-.2.7-.2z" fill="#ffbd32"/><path d="m664.5 445.2 5.1.9c.5 0 1-.2 1.1-.8l.6-3.3-3.2-.6-.4 2.3-3.2.9c-.3 0-.3.5 0 .6z" fill="#ffbd32"/><path d="m664.5 445.2 4.5-1.2.4-2.3-1.3-.2-.4 2.3-3.2.9c-.3 0-.3.5 0 .6z" fill="#d49d29"/><path d="m668.8 441.7h.3v1.3h-.3z" fill="#ffbd32" transform="matrix(.18395135 -.98293535 .98293535 .18395135 111 1018.5)"/><path d="m668.6 442.5h.3v1.3h-.3z" fill="#ffbd32" transform="matrix(.18395135 -.98293535 .98293535 .18395135 110.2 1019)"/><path d="m668.5 443.2h.3v1.3h-.3z" fill="#ffbd32" transform="matrix(.18395135 -.98293535 .98293535 .18395135 109.4 1019.4)"/><path d="m677.2 416.1c-.8 2.4-1.8 4.8-2.3 7.3v.7c-.3 1.5-.6 3-.9 4.5-.2 1-.4 2-.7 3-.3 1.3-1.9 9.1-1.9 10.4l-3.2-.6s1.3-18.8 1.6-20.3c1.8-8.4 3.8-16.8 5.8-25.2 0-.1 0-.3.2-.4h.4c1.8-.1 4.2.1 6 0 .5 1.5.3 3.2 0 4.7-1.1 5.4-3 10.7-4.8 15.9z" fill="#efecf0"/><path d="m669.6 422.3 1.3-.4s0-.1 0-.2c0 0 0-.1-.2-.1l-1.2.4v.3z" fill="#d0ced1"/><path d="m679.7 446.5h5.2c.5-.1.9-.6.9-1.1v-3.4h-3.3v2.3l-2.9 1.5c-.3.1-.2.6 0 .6z" fill="#ffbd32"/><path d="m679.7 446.5 4.2-2.1v-2.3h-1.4v2.3l-2.9 1.5c-.3.1-.2.6 0 .6z" fill="#d49d29"/><path d="m682.4 442.6h1.3v.3h-1.3z" fill="#ffbd32" transform="matrix(.99978068 -.02094242 .02094242 .99978068 -9.1 14.4)"/><path d="m682.5 443.3h1.3v.3h-1.3z" fill="#ffbd32" transform="matrix(.99978068 -.02094242 .02094242 .99978068 -9.1 14.4)"/><path d="m682.6 444.1h1.3v.3h-1.3z" fill="#ffbd32" transform="matrix(.99978068 -.02094242 .02094242 .99978068 -9.2 14.4)"/><path d="m686.4 415.5c-.3 2.5-.8 5.1-.8 7.6v8.5c0 2 .2 10.5.2 10.5h-3.2s-1.9-14-2.4-18.8v-1.4c0-8.6.3-17.3.5-25.9v-.4s.2-.1.3-.2c1.8-.5 4.1-.7 5.9-1.2.8 1.4.9 3.1.9 4.7 0 5.5-.7 11.1-1.4 16.6z" fill="#efecf0"/><path d="m681.4 422.7-1.2.6v-.3l1.1-.6h.2v.2z" fill="#d0ced1"/><path d="m687.5 392.3-1-2.4h-12.1l-4.4 28.6h17.5c0 .1 1.8-10.3 1.8-10.3.9-5.3.3-10.8-1.8-15.8z" fill="#03405c"/><path d="m686.8 361.4s1.4.5 1.5.6c0 0 1.5 1.5 1.5 3.1 0 2.8-1 6.3-1 8.8s-.2 17.5-.9 18-2 .5-2.8.6c-2.5.2-5 .3-7.6.3s-2.8 0-4.1-.5c-.4-.2 1-22.3 1.4-23.5.3-1.2.4-2.5 1.2-3.5.2-.3 2.7-3 2.7-3 .8.4 0 3.4 1.8 2.3.4-.2 4.2-2 5.5-2.8.3-.2.5-.3.6-.3h.2z" fill="#03c7c0"/><path d="m689.2 392.8c.2 0 .3-.1.4-.2.5-.5 1-1 1.3-1.6 0-.2 0-.4.2-.6 0-.3.4-.6.6-.8 0 0 .5-.7 1-1.3 0-.1.2-.3.3-.4l-1.7-1.5c-.2.2-.4.4-.5.5-.3.2-.6.5-1 .6l-.6.3c-.2.1-.4.3-.5.5v.5c-.2.4-.7.5-1 .8s-.4.5-.6.7-.2.3-.2.5 0 .4.2.4c0 .2-.2.3-.2.5v.4c0 .2.4.2.6.2v.5c0 .1.3.2.4.2h.3s.2 0 .3-.1c0 0 .2-.1.2 0s.2.2.3.2z" fill="#efecf0"/><path d="m690.3 387.2c.9-1.2 5.8-9.2 6.2-10.5.3-.8-.6-1.3-1.1-1.8-.8-.9-6.9-6.7-7.6-7.1-.3-.2-.5-.4-.8-.6-.2-.2-.3-.3-.4-.5-.9-1.1-1-2.7-.3-4 0-.1.2-.3.3-.4s.2-.2.3-.2c.8-.5 1.7-.4 2.5 0 .3.2.6.4.8.6 1.1 1 7 7.6 8.1 9 .9 1.1 1.7 2.3 2.5 3.6.3.5.5 1 .4 1.6 0 .4-6.5 8.1-8.6 12.2l-2.2-1.8h-.1z" fill="#03c7c0"/><path d="m368.7 320.9h16.5v8.2h-16.5z" fill="#03405c"/><path d="m369.1 321.9c0 .6 0 1.2.2 1.8 0 .2.1.5.3.7.3.4.9.5 1.4.6 2.3.5 4.8.4 7.2.3 1.9 0 3.9-.2 5.7-.8.3-.1.6-.2.8-.4s.2-.4.2-.6c.2-1.2.3-3.9.4-6.6v-6.1c0-1.6-1.6-7.3-2.7-8.3-.2-.2-2.6-.2-2.9-.3-.2 0-.5-.1-.7-.1-1.5-.2-3.1-.3-4.6-.4h-.7c-.3 0-.5.3-.6.5-3.6.9-3.1 1.8-3.4 3.2-.2 1.5 0 3.3 0 4.2-.1 1 0 1.9-.1 2.9 0 1-.2 2.1-.3 3.1-.2 2.2 0 4.3 0 6.5z" fill="#b3f5f3"/><path d="m380.1 318.4c.5.9.7 2 .1 2.8-.4.6-1.1.9-1.8 1-.7 0-1.4 0-2.1-.2-.4 0-6.1-.9-6.1-.9-.6-.1-2.2-.7-2.7-.9l1.5-2.7c1.4.4 3.7 1 4.8 1.7.6.4 1.3.5 2 .4h.3c0-.7.6-1.4 1.4-1.5.2 0 .5 0 .7-.1.1 0 .2-.2.4-.3.3-.2.7-.1.9 0 .3.2.5.5.6.8z" fill="#efecf0"/><path d="m368.6 304.5c-1.5 1.1-2.7 2.5-3.5 4.2-.3.6-.5 1.2-.6 1.8-.5 2.2-.8 4.5-.4 6.8.1.5.2 1 .5 1.5.5.9 1.3 1.6 2.2 2.2 1.3.9 2.7 1.6 4.2 1.9.9.2 2 .1 2.7-.6s.6-1.2.7-1.9v-1.1c0-.2-.2-.3-.3-.5-.5-.5-1.1-1-1.7-1.3-.3-.2-.7-.3-1-.5-.5-.3-.9-.8-1.1-1.4-.4-.9-.4-1.9-.2-2.8.5-2.1 1.7-6.6 2-7 .4-.6.6-1.4.2-2.2 0 0 .7-1.2.5-1.4-.4-.3-2.5 1-4 2.1z" fill="#b3f5f3"/><path d="m374 322.1h-.2v-.2c0-1-.1-1.9 0-2.8h1.5s.1 1.1.1 1.2v1.2c0 .2 0 .5-.3.6s-.8 0-1.1 0z" fill="#023045"/><path d="m370 315.2c-.3-.9-.3-1.9 0-2.8l1.1-3.9z" fill="#92d4d2"/><path d="m373.9 318.4c-.5.9-.7 2-.1 2.8.4.6 1.1.9 1.8 1 .7 0 1.4 0 2.1-.2.4 0 6.1-.9 6.1-.9.6-.1 2.2-.7 2.7-.9l-1.5-2.7c-1.4.4-3.7 1-4.8 1.7-.6.4-1.3.5-2 .4h-.3c0-.7-.6-1.4-1.4-1.5-.2 0-.5 0-.7-.1-.1 0-.2-.2-.4-.3-.3-.2-.7-.1-.9 0-.3.2-.5.5-.6.8z" fill="#efecf0"/><path d="m385.4 304.5c1.5 1.1 2.7 2.5 3.5 4.2.3.6.5 1.2.6 1.8.5 2.2.8 4.5.4 6.8-.1.5-.2 1-.5 1.5-.5.9-1.3 1.6-2.2 2.2-1.3.9-2.7 1.6-4.2 1.9-.9.2-2 .1-2.7-.6s-.6-1.2-.7-1.9v-1.1c0-.2.2-.3.3-.5.5-.5 1.1-1 1.7-1.3.3-.2.7-.3 1-.5.5-.3.9-.8 1.1-1.4.4-.9.4-1.9.2-2.8-.5-2.1-1.7-6.6-2-7-.4-.6-.6-1.4-.2-2.2 0 0-.7-1.2-.5-1.4.4-.3 2.5 1 4 2.1z" fill="#b3f5f3"/><path d="m380 322.1h.2v-.2c0-1 .1-1.9 0-2.8h-1.5s-.1 1.1-.1 1.2v1.2c0 .2 0 .5.3.6s.8 0 1.1 0z" fill="#023045"/><path d="m384 315.7c.3-.9.3-1.8 0-2.7l-1.1-4.4z" fill="#92d4d2"/><path d="m374.5 305c-.9-.3-1.9-.8-2.6-1.5-.3-.2-.5-.5-.7-.9-.2-.3-.2-.7-.1-1.1s.4-.7.7-.9.7-.3 1.1-.4.8-.2 1.2-.2h1.1c.9 0 1.7-.2 2.6-.3.8-.1 1.7-.2 2.5 0 .3.1.6.3.8.5s.3.4.4.6c.2.7.1 1.5-.3 2.2-.3.4-.8.8-1.2 1.1-.7.5-1.7 1.2-2.6 1.3-.4 0-1-.1-1.4-.2-.5 0-1-.2-1.5-.4z" fill="#92d4d2"/><path d="m374.5 304.6c-.9-.3-1.9-.8-2.6-1.5-.3-.2-.5-.5-.7-.9-.2-.3-.2-.7-.1-1.1s.4-.7.7-.9.7-.3 1.1-.4.8-.2 1.2-.2h1.1c.9 0 1.7-.2 2.6-.3.8-.1 1.7-.2 2.5 0 .3.1.6.3.8.5s.3.4.4.6c.2.7.1 1.5-.3 2.2-.3.4-.8.8-1.2 1.1-.7.5-1.7 1.2-2.6 1.3-.4 0-1-.1-1.4-.2-.5 0-1-.2-1.5-.4z" fill="#b3f5f3"/><path d="m377.1 307.1c0 .6.3 1.3.6 1.8.1.2.2.5 0 .6-.2.2-.5 0-.6-.2-.4-.5-.5-1.1-.4-1.7 0-.6.2-1.1.4-1.7.1-.3.2-.6.5-.7-.2.6-.5 1.1-.4 1.8h-.1z" fill="#92d4d2"/><path d="m379.1 306.4c.3.5.5 1.2.6 1.8 0 .2.1.5.4.5s.4-.3.4-.5c0-.6-.2-1.1-.6-1.6-.4-.4-.9-.8-1.4-1.1-.2-.2-.5-.3-.8-.3.5.4 1 .6 1.4 1.2z" fill="#92d4d2"/><path d="m378.8 291.7c.4-.1.8-.1 1.2 0h.3c.3.2.6.5.6.8v.2c0 .8-.2 1.5-.6 2.2 0 .2-.2.3-.3.5-.3 0-.6-.2-.9-.4-.6-.4-1.7-.9-2-1.6-.2-.5.2-1 .5-1.3.3-.3.6-.4 1-.5h.2z" fill="#efecf0"/><path d="m378.7 292.7c.3-.2.7-.2 1-.2h.2s.2.2.2.3c0 .3 0 .6-.1.9s-.3.5-.4.8c-.2 0-.3 0-.5-.2-.3-.2-.9-.5-1-.8-.1-.4.3-.7.6-.9z" fill="#cbc9cc"/><path d="m371.8 292.8c-.4 0-.8.2-1.1.4 0 0-.2.1-.2.2-.2.3-.3.7-.2 1v.2c.3.7.8 1.3 1.4 1.8.2.1.3.2.5.4.3-.1.5-.4.7-.7.4-.6 1.2-1.5 1.2-2.2s-.5-.8-1-1c-.4-.1-.8-.2-1.1-.1z" fill="#efecf0"/><path d="m372.4 293.6c-.3 0-.7 0-1 .2 0 0-.1 0-.2.2v.3c0 .3.2.6.5.8.2.2.5.4.7.6.2 0 .3-.2.4-.4.2-.3.6-.8.6-1.2s-.6-.6-.9-.6h-.1z" fill="#cbc9cc"/><path d="m381.6 299.1v1.6c0 .3-.2.6-.4.8s-.4.4-.7.6c-1.5.9-3.2 1.1-5 1.3-1.2.1-2.8-.5-3.6-1.5-.6-.8-.7-1.8-.8-2.8 0-1.3 0-2.7.5-3.9.5-1.1 1.5-2 2.6-2.4h.2c.5-.2 1.1-.3 1.6-.3s1.1 0 1.7.2c1.1.3 2.2 1.1 2.8 2.1.8 1.3 1 2.8 1.1 4.3z" fill="#efecf0"/><path d="m378.1 298.5c0 .3.1.7 0 1 0 .4-.4.8-.7 1-.4.2-.8.3-1.2.2-.2 0-.3 0-.5-.1-.3-.1-.6-.3-.8-.5s-.3-.6-.4-.9c-.3-.9 0-1.7.1-2.6v-2.8c0-.3-.1-.7-.2-1 .5-.2 1.1-.3 1.6-.3.2 1.2.5 2.6 1 3.7.2.3 1 1.8 1.1 2.4z" fill="#cbc9cc"/><path d="m376.7 298.2h.6c.2 0 .3.2.4.4.1.3 0 .6-.3.8-.2.2-.4.3-.7.4h-.8c-.2 0-.4 0-.6-.2-.2-.1-.3-.3-.4-.5-.2-.9 1.2-1 1.8-1z" fill="#605f61"/><path d="m373.6 296h-.3c-.1 0-.2 0-.2.2v.3c.1.4.6.7 1 .6.2-.4-.2-.8-.6-.9v-.2z" fill="#fff"/><path d="m373.7 296.1h-.2s-.1 0-.2.1v.2c0 .3.4.4.7.4.1-.3-.2-.6-.4-.6h.1z" fill="#605f61"/><path d="m377.6 295.2s.2-.1.3-.2h.3v.3c0 .4-.3.8-.7 1h-.1c-.3-.3 0-.8.2-1.1z" fill="#fff"/><path d="m377.7 295.3s.1 0 .2-.1h.2v.2c0 .3-.2.6-.5.7-.2-.2 0-.6.1-.8z" fill="#605f61"/><path d="m394.5 328.9c.4 1.1.3 2.3.1 3.5 0 .4-.2.7-.4 1-.7.8-1.5.5-2.3.3s-1.8-.3-2.7-.2l-.6-4.2s5.1-2.4 5.8-.3h.1z" fill="#605f61"/><g clip-path="url(#e)"><path d="m390.7 330.5c1-.2 1.9-.6 2.8-1.2.4-.3.8-.6 1.3-.7h.2s.1 0 .2.2c.5.9.5 2 .6 3 0 .3 0 .7-.3.8h-.5c-.8-.2-1.5-.6-2.3-.7-1.3-.2-2.6.3-3.9.5h-.2v-.2c0-.4-.1-1.4.4-1.5h.9c.3 0 .6 0 .9-.2z" fill="#cbc9cc"/><g clip-path="url(#f)"><path d="m392.4 329.2h.5v3.7h-.5z" fill="#605f61" transform="matrix(.99167116 -.1287956 .1287956 .99167116 -39.4 53.3)"/><g fill="#efecf0"><path d="m391.2 329.4h.5v3.7h-.5z" transform="matrix(.99167116 -.1287956 .1287956 .99167116 -39.4 53.2)"/><path d="m389.8 329.4h.5v3.7h-.5z" transform="matrix(.99167116 -.1287956 .1287956 .99167116 -39.4 53)"/></g></g></g><path d="m387.4 327.7-13.9-1c-1.2 0-2.4-.3-3.6-.5l-4.2-.9c-1.4-.3-2.8.4-3.3 1.7-.6 1.4 0 3.1 1.5 3.7 3.2 1.4 6.7 2.2 10.2 2.3l14 .3z" fill="#045378"/><path d="m387.9 322.2-.2-.8c-3.4 4.3-3.9 9.5-3.6 11.8h.9l1.7 12.5 1.1-23.6h.1z" fill="#03405c"/><path d="m384.6 351.1c1.1.5 2.3.4 3.4.4s.7-.1 1-.3c.9-.6.6-1.5.4-2.2-.2-.9-.2-1.8 0-2.7l-4.2-.9s-2.7 4.9-.7 5.8h.1z" fill="#605f61"/><g clip-path="url(#g)"><path d="m386.4 347.4c-.3 1-.8 1.9-1.3 2.7-.3.4-.6.8-.8 1.2v.2s0 .1.2.2c.8.6 1.9.7 2.9.8.3 0 .7 0 .9-.3v-.5c-.2-.8-.5-1.5-.5-2.3-.1-1.3.5-2.6.7-3.9v-.2h-.1c-.4 0-1.4-.2-1.5.3v.9c0 .3-.1.6-.2.9z" fill="#cbc9cc"/><g clip-path="url(#h)" fill="#605f61"><path d="m386.6 347.8h.5v3.7h-.5z" transform="matrix(.19594614 -.98061466 .98061466 .19594614 -31.8 660.5)"/><path d="m386.9 346.4h.5v3.7h-.5z" transform="matrix(.19594614 -.98061466 .98061466 .19594614 -30.3 659.6)"/><path d="m387 345.3h.5v3.7h-.5z" transform="matrix(.19594614 -.98061466 .98061466 .19594614 -29 658.9)"/></g></g><path d="m384.4 345.5 1.2-21.8c0-1.4.9-2.6 2.3-3 1.5-.3 3.6.6 4 2.1 0 0 .5 1.4.2 7.5 0 1.7-.3 3.4-.5 5.1l-1.7 11.7-5.4-1.6z" fill="#045378"/><g fill="#fff"><path d="m385.9 326.3h.4v.4h-.6v-.4z"/><path d="m385.3 326.3h.4v.4h-.6v-.4z"/><path d="m384.8 326.3h.4v.4h-.6v-.4z"/><path d="m384.2 326.3h.4v.4h-.6v-.4z"/><path d="m383.6 326.3h.4v.4h-.6v-.4z"/><path d="m383 326.3h.4v.4h-.6v-.4z"/><path d="m382.4 326.3h.4v.4h-.6v-.4z"/><path d="m381.9 326.3h.4v.4h-.6v-.4z"/><path d="m381.3 326.3h.4v.4h-.6v-.4z"/><path d="m380.7 326.3h.4v.4h-.6v-.4z"/><path d="m380.1 326.3h.4v.4h-.6v-.4z"/><path d="m379.5 326.3h.4v.4h-.6v-.4z"/><path d="m379 326.3h.4v.4h-.6v-.4z"/><path d="m378.4 326.3h.4v.4h-.6v-.4z"/><path d="m377.8 326.3h.4v.4h-.6v-.4z"/><path d="m377.2 326.3h.4v.4h-.6v-.4z"/><path d="m376.6 326.3h.4v.4h-.6v-.4z"/><path d="m376.1 326.3h.4v.4h-.6v-.4z"/><path d="m375.5 326.3h.4v.4h-.6v-.4z"/><path d="m374.9 326.3h.4v.4h-.6v-.4z"/><path d="m374.3 326.3h.4v.4h-.6v-.4z"/><path d="m373.7 326.3h.4v.4h-.6v-.4z"/><path d="m373.2 326.3h.4v.4h-.6v-.4z"/><path d="m372.6 326.3h.4v.4h-.6v-.4z"/><path d="m372 326.3h.4v.4h-.6v-.4z"/><path d="m371.4 326.3h.4v.4h-.6v-.4z"/><path d="m370.8 326.3h.4v.4h-.6v-.4z"/><path d="m370.3 326.3h.4v.4h-.6v-.4z"/><path d="m369.7 326.3h.4v.4h-.6v-.4z"/><path d="m369.1 326.3h.4v.4h-.6v-.4z"/><path d="m368.5 326.3h.4v.4h-.6v-.4z"/><path d="m367.9 326.3h.4v.4h-.6v-.4z"/></g><path d="m368.4 325.1h1.3v2h-1.3z" fill="#e37664"/><path d="m384.6 325.1h1.3v2h-1.3z" fill="#e37664"/><rect fill="#da4d36" height="1.2" rx=".3" width="19.1" x="367.6" y="326.7"/><rect fill="#da4d36" height="10.7" rx=".4" width="19.1" x="367.6" y="315"/><path d="m378.7 320.4c0 .9-.7 1.6-1.6 1.6s-1.6-.7-1.6-1.6.7-1.6 1.6-1.6 1.6.7 1.6 1.6z" fill="#e37664"/><path d="m442.5 407.6c3.1 2.1 6.7 3.3 10.4 3.4h3.7c1.1 0 2.2 0 3.2-.5 1.7-.8 2.5-2.9 4.2-3.8 1.3-.7 2.9-.6 4.3-.5 1.7.2 3.5.3 5-.8.8-.6 1.3-1.7 1-2.7-.3-1.2-1.5-1.6-2.6-1.8-2.9-.6-6-.5-8.9.1-1.6.4-3.1.9-4.7 1.2-2 .4-4.1.4-6.1.4h-9.8c-1.8 0-7.5-.9-8.8.2-3.6 3.1 8.5 3.8 9.1 4.5z" fill="#edf8ff"/></svg>