<svg viewBox="0 0 877.6 504.6" xmlns="http://www.w3.org/2000/svg" xmlns:xlink="http://www.w3.org/1999/xlink"><clipPath id="a"><path d="m-8.4-1.4h903.9v745.1h-903.9z"/></clipPath><clipPath id="b"><path d="m566.8 339.9c-.3 1.7 0 3.3.5 4.9.1.5.4 1 .8 1.3 1.2 1 2.2.4 3.2 0 1.2-.5 2.4-.8 3.7-.8v-6.1s-7.7-2.3-8.2.6z"/></clipPath><clipPath id="c"><path d="m572.5 341.3c-1.4-.1-2.8-.5-4.1-1-.6-.3-1.3-.6-2-.8h-.3s-.1.1-.3.3c-.5 1.4-.4 2.8-.3 4.3 0 .5.3 1 .6 1.2.3 0 .4 0 .6-.1 1-.5 2-1.2 3.1-1.4 1.8-.5 3.7-.1 5.6 0h.3v-.3c0-.6 0-2-.9-2s-.9.3-1.3.3h-1.3v-.4z"/></clipPath><clipPath id="d"><path d="m599.6 344.5c-.4 1.7-1.4 3.1-2.4 4.3-.4.4-.8.8-1.3.9-1.4.5-2.2-.5-2.9-1.4-.9-.9-1.9-1.7-3.1-2.2l2.4-5.6s7.9.9 7.3 4z"/></clipPath><clipPath id="e"><path d="m593.8 343.6c1.4.4 2.8.6 4.2.6h2.4v.4c0 1.4-.8 2.8-1.5 4.1-.3.4-.6.9-1 .8-.3 0-.4-.3-.5-.4-.8-.9-1.4-1.8-2.3-2.6-1.4-1.3-3.5-1.7-5.1-2.4 0 0-.1 0-.3-.1v-.3c.3-.5.9-1.8 1.7-1.5.4.1.6.5 1 .8s.8.4 1.3.5h.1z"/></clipPath><clipPath id="f"><path d="m266.7 315.7.6 2c1.5 4.5 1.7 9.3.4 13.8h84.1l3.1-4.2-3.1-14.2-57.8-4.1-27.5 6.6h.1z"/></clipPath><clipPath id="g"><path d="m443.4 315.7-.6 2c-1.5 4.5-1.7 9.3-.4 13.8h-83.5l-3.1-4.2 3.1-14.2 57.4-4.1 27.2 6.6h-.1z"/></clipPath><g clip-path="url(#a)"><path d="m891.8 743.5h-903.8v-621.7c7.7-8.7 19.3-15.6 29.6-18.4 20.1-5.4 42.6-3.9 60.5-14.6 12.2-7.2 20.7-19.1 31.5-28.2 27.9-23.3 68.7-25.2 103.9-15.9 35.2 9.4 67.1 28.2 100.3 42.9 33.3 14.7 70.4 25.6 105.9 17.7 56.3-12.6 93.1-67.9 146.6-89.5 35.5-14.3 75.5-12.6 113.4-6.8 37.9 5.6 75.5 15.1 113.8 15.2 35.9.2 72.3-2.2 98.3-25.6v745.1s0-.2 0-.2z" fill="#cfe859"/></g><path d="m264.4 253.5 4.7 4.8-2.5-48.8-.2-2.7-48.8-1.7h-1.6l14.4 14.5-51.9 51.8-24.3-24.3-82.1 82 24.3 24.4 57.9-57.9 24.3 24.3 39.5-39.5 36.6-36.5z" fill="#fff" opacity=".4"/><path d="m791.8 207.3c-85-3.5-170.4-11.1-254.9-4.7-21.5 1.7-47.4 7-50.1 19.8-1 5.2 2.3 10.2 3.5 15.5 5.2 22.6-27.4 36.8-43.1 44.1-22.8 10.5-58.4 5.2-83.2 5.2-60.6 0-121.3-2-181.6 5-15.1 1.8-30.7 4.3-43.5 12.7 0 0-53.3 30.7-64.2 38.2-9.3 6.5-16.1 18.2-13.5 29.3 3.3 14.2 19.3 21 33.1 25.8 6.3 2.2 12.5 4.6 17.5 8.9s8.4 11 7 17.5c-2 9.6-12.8 14.2-22.2 16.5-46.5 11-94.5 1.7-141.6 1.3-19.9-.1-38.7.8-57.1 8.2-6.4 2.6-28.8 11.8-13.7 18.8 10.9 5.1 24.4 4.1 35.8 8.1 11.2 4 24.8 4.3 37.7 4.6 131.9 2.4 263.6-6.8 395.5-7 148-.4 296.9 10.6 443.6-1.5 28.9-2.4 58.3-5.9 83.2-15 20.1-7.4 36.2-18 51.9-28.5 11.6-7.8 23.6-15.9 29.8-25.7 5.2-8.4 5.8-17.5 5.6-26.5-.5-41.9-15.1-83.6-42.2-122.2-9.5-13.3-22.1-37.7-43.5-46.1-22-8.7-64.4-1-89.9-2.2h.1z" fill="#edf8ff"/><path d="m580.4 345.7c4.1.8 7.8 3.1 11.8 4.3s8.8 1.8 12-.9c.8-2 .4-4.5-.9-6.3 5 .9 10.2 0 14.7-2.3 1-.5 2.2-1.4 2.2-2.6s-1-2.3-2-2.9c-6.8-4.6-15.2-6.1-23.4-6.3-5.2 0-10.7.4-15.6 2.4-3.3 1.4-10.2 5.4-10.7 9.5-.6 4.7 8.6 4.2 11.9 4.9h.1z" fill="#edf8ff"/><path d="m735.4 430.2c1.5-.4 3.1-.8 4.7-.5 1.5.4 2.9 1.4 4.3 2.3 6 4 12.8 5 19.4 5.9 19.2 2.6 38.9 4 57.4-3.3 1.3-.5 2.6-1 3.5-2.4.9-1.3 1.3-3.6.4-5-.6-1-1.8-1.3-2.8-1.4-25.6-3.1-51.1-4.1-76.7-3.2-1.8 0-3.6.1-5.2-.4-2.2-.6-4.1-2.2-6.1-3.3-6.8-3.8-14.2-4-21.5-4s-14.2-.1-21.2 0c-2 0-4.3.1-5.9 2-4.5 5.1 1.7 7.7 4.2 8.8 4.9 2.2 10 3.8 15 4.9 10.2 2 20.6 1.9 30.7-.5h-.1z" fill="#edf8ff"/><path d="m486.3 448.3c-.9 0-1.9 0-2.7-.6s-1.2-1.8-1.9-2.4c-1.3-1.2-3.3-.6-4.9-1.4s-1.4-1.2-1.8-1.9c-2.4-4.2.6-10.5 5.4-11.2 1.8-.3 3.6 0 4.9 1.4 1.3 1.3 1.7 3.3.8 4.9 4.2 0 8.4.3 12.7.3s2 0 2.9.6c.5.4.9.8 1.4 1.2 1.7 1.2 3.8.5 5.9 0 5.5-1.3 11.1-1.3 16.6 0 .8.1 1.5.4 2.2.9 1.7 1.3 1.2 4.1-.4 5.5-1.5 1.4-3.7 1.8-5.9 2-5.8.8-11.1.6-17 .3-6-.4-12.1.9-18.2.6z" fill="#edf8ff"/><path d="m388.6 412.5c-1.4-.4-2.8-.9-4.2-.9s-2.2.1-3.2.3c-6.3.9-12.7 0-18.5-2.3-1.5-.6-3.3-1.8-3.2-3.5 0-2 2.7-2.8 4.7-2.9 14.7-1.3 29.4-1.8 44.1-1.4 8.3.1 11.9 7.3 3.5 11.9-6.3 3.3-16.9 1-23.3-1h.1z" fill="#edf8ff"/><path d="m167.5 340c-1.2 0-1.4 1.8-.3 2.2 10.1 3.5 21.7 1.7 32.6 1.9 4.5 0 9.2.6 13.5-.5.5-.1 1.2-.4 1.3-.9.3-.9-.9-1.4-1.8-1.5-15.1-2.7-30.2-2.2-45.4-1z" fill="#edf8ff"/><path d="m329.8 280.4c-33.2-3.3-64.3-15.6-89.6-34.5-.4-.3-.8-.6-1.2-.9-11.8-8.4-18.5-21.7-17.9-35 .6-13.2 8.8-25.9 21.2-33.5 9.8-5.9 23.5-10.4 23.1-21.9-.1-3.7-1.8-7.3-4.3-10.2-11.4-13.4-31.6-25.7-27.9-44.2 1.2-5.4 4.2-10.4 8.4-14.4 9.3-9.1 22.4-13.4 35.3-17.3 71.7-21.9 145.7-19 221-16.2 79.5 2.9 160.3 18 231.8 49 4.1 1.8 8.3 3.7 10.7 7.2 3.6 5.1 1.5 12-3.1 16.5s-11.2 6.8-17.8 8.4c-4.3 1.2-8.9 1.9-12.8 4.1s-7 5.8-6.8 9.7c.3 3.8 3.7 7 7.7 8.6 6.5 2.7 13.9 2.4 20.6 5.1 7.2 2.8 14.1 5.9 20.8 9.3 13.5 6.9 26.1 15.1 37.6 24.3 5.9 4.7 11.5 9.8 15.1 16.1 9.3 16.2 2.6 36.9-12 49.7-14.7 12.9-35.5 19-56.1 21.6s-41.4 3.8-62.3 3.8h-244.9c-29 0-58-1.4-86.9-4.5-3.2-.4-6.5-.6-9.8-1v.3z" fill="#03405c"/><path d="m714.4 176.6c0 .4.3.6.4.9l-.9 1.5 1.2 1.2 1.5-.9c.3.1.6.3 1 .4l.4 1.7h1.7l.4-1.7c.4 0 .6-.3 1-.4l1.5.9 1.2-1.2-.9-1.5c.1-.3.3-.6.4-.9l1.8-.4v-1.7l-1.8-.4c0-.3-.3-.6-.4-.9l1-1.5-1.2-1.2-1.7 1c-.3-.1-.5-.3-.9-.4l-.4-1.8h-1.7l-.4 1.8c-.3 0-.6.3-.9.4l-1.7-1-1.2 1.2 1 1.5c-.1.3-.3.5-.4.9l-1.8.4v1.7l1.8.4h-.3zm2.6-1.2c0-.9.8-1.7 1.7-1.7s1.7.8 1.7 1.7-.8 1.7-1.7 1.7-1.7-.8-1.7-1.7z" fill="#fff"/><path d="m784.1 234.2h-2.3c-.3 0-.5-.3-.6-.5l-.5-2c-.3 0-.5-.3-.8-.4l-1.8 1.2c-.3.1-.6 0-.8 0l-1.7-1.7c-.3-.3-.3-.5 0-.8l1.2-1.8c0-.3-.3-.5-.3-.8l-2-.5c-.3 0-.5-.4-.5-.6v-2.3c0-.3.3-.5.5-.6l2.2-.5c0-.3.1-.4.3-.6l-1.2-1.9c-.1-.3 0-.6 0-.8l1.7-1.7c.3-.3.5-.3.8 0l1.9 1.2c.1 0 .4-.1.6-.3l.5-2.2c0-.3.4-.5.6-.5h2.3c.3 0 .5.3.6.5l.5 2.2c.3 0 .4.1.6.3l1.9-1.2c.3-.1.6 0 .8 0l1.7 1.7c.3.3.3.5 0 .8l-1.2 1.9c0 .3.3.4.3.6l2.2.5c.3 0 .5.4.5.6v2.3c0 .3-.3.5-.5.6l-2 .5c0 .3-.1.5-.3.8l1.2 1.8c.1.3 0 .6 0 .8l-1.7 1.7c-.3.3-.5.3-.8 0l-1.8-1.2c-.3 0-.5.3-.8.4l-.5 2c0 .3-.4.5-.6.5h-.3zm-1.7-1.3h1.3l.4-1.9c0-.3.3-.4.4-.5.4 0 .9-.3 1.2-.5h.6l1.7 1 .9-.9-1-1.7c0-.3-.1-.4 0-.6.3-.4.4-.8.5-1.2 0-.3.3-.4.5-.5l1.9-.5v-1.3l-2-.5c-.3 0-.4-.3-.5-.4 0-.4-.3-.8-.5-1.2v-.6l1.2-1.8-.9-.9-1.8 1.2h-.6c-.4-.1-.6-.4-1-.4s-.5-.4-.5-.6l-.5-1.9h-1.3l-.5 1.9c0 .3-.1.5-.5.5s-.8.3-1 .4h-.6l-1.8-1.2-.9.9 1.2 1.8c0 .3.1.4 0 .6-.3.4-.4.8-.5 1.2 0 .3-.3.4-.5.4l-2 .5v1.3l1.9.5c.3 0 .4.3.5.5 0 .4.3.8.5 1.2v.6l-1 1.7.9.9 1.7-1c.3 0 .5-.1.6 0 .4.3.8.4 1.3.5.3 0 .4.3.4.5l.5 1.9h.3zm.6-4.9c-1.7 0-2.9-1.3-2.9-2.9s1.3-2.9 2.9-2.9 2.9 1.3 2.9 2.9-1.3 2.9-2.9 2.9zm0-4.6c-.9 0-1.7.8-1.7 1.7s.8 1.7 1.7 1.7 1.7-.8 1.7-1.7-.8-1.7-1.7-1.7z" fill="#fff"/><path d="m527.2 73.6c-.1.5-.6.8-1.2.8s-1.2-.5-1.2-1.2v-1.5c0-.6.5-1.2 1.2-1.2s.9.4 1.2.8h.9c0-1.4.4-2.8.8-4.1 0-.8-.5-1.3-1.3-1.3-1.4.4-2.7.6-4.1.8v-.4c.5-.1.8-.6.8-1.2s-.5-1.2-1.2-1.2h-1.5c-.6 0-1.2.5-1.2 1.2s.4.9.8 1.2v.4c-1.4 0-2.8-.4-4.1-.8-.6 0-1.3.5-1.3 1.3.4 1.3.6 2.7.8 4.1h.9c.1-.5.6-.8 1.2-.8s1.2.5 1.2 1.2v1.5c0 .6-.5 1.2-1.2 1.2s-.9-.4-1.2-.8h-.9c0 1.4-.4 2.8-.8 4.2 0 .6.5 1.3 1.3 1.3 1.4-.4 2.7-.6 4.1-.8v.5c-.5.1-.8.6-.8 1.2s.5 1.2 1.2 1.2h1.5c.6 0 1.2-.5 1.2-1.2s-.4-.9-.8-1.2v-.5c1.4 0 2.8.4 4.1.8.8 0 1.3-.5 1.3-1.3-.4-1.4-.6-2.8-.8-4.2z" fill="#ffbd32"/><path d="m431.2 246.4h176.4v41.9h-176.4c-1.9 0-3.5-1.5-3.5-3.5v-35c0-1.9 1.5-3.5 3.5-3.5z" fill="#ffd359"/><path d="m613.8 283.2h-179.1v-31.8h179.1c-5.2 10-5.2 21.9 0 31.8z" fill="#f0f0f0"/><path d="m433.5 251.4h84.4v31.8h-84.4z" fill="#fff"/><path d="m518 246.4h100.1c.9 0 1.7.8 1.7 1.7v1.7c0 .9-.8 1.7-1.7 1.7h-100.1v-5z" fill="#ffbd32"/><path d="m518 283.2h100.1c.9 0 1.7.8 1.7 1.7v1.7c0 .9-.8 1.7-1.7 1.7h-100.1v-5z" fill="#ffbd32"/><path d="m611.6 246.4h-149.7v-27.1h149.7c1.4 0 2.4 1.2 2.4 2.4v22.1c0 1.4-1.2 2.4-2.4 2.4z" fill="#5493b0"/><path d="m457.2 223.5h151.1v18.7h-151.1c3.6-5.6 3.6-12.9 0-18.7z" fill="#fff"/><path d="m501.1 223.5h108.1v18.7h-108.1z" fill="#f0f0f0"/><path d="m501 246.4h-47.8c-.5 0-1-.4-1-1v-2.3c0-.5.4-1 1-1h47.8v4.2z" fill="#7ebcd9"/><path d="m501 223.5h-47.8c-.5 0-1-.4-1-1v-2.3c0-.5.4-1 1-1h47.8v4.2z" fill="#7ebcd9"/><path d="m480.8 248.2-5.8-8.4c-.3-.3-.6-.3-.9 0l-5.8 8.4c-.3.4-.9.3-.9-.3v-19.3h14.3v19.3c0 .5-.6.8-.9.3h-.1z" fill="#3bd9cc"/><path d="m447.1 180.6h142.8v38.7h-142.8c-.9 0-1.5-.8-1.5-1.5v-35.7c0-.9.8-1.5 1.5-1.5z" fill="#ffd359"/><path d="m527.7 180.6h62.1v38.7h-62.1z" fill="#ffbd32"/><path d="m595.5 215h-63.4v-30.2h63.4c-5.4 9.3-5.4 20.8 0 30.2z" fill="#f0f0f0"/><path d="m582.8 180.6h14.7c.4 0 .8.4.8.8v2.8c0 .4-.4.8-.8.8h-14.7v-4.3z" fill="#ffbd32"/><path d="m447.1 180.6h84.4v4.3h-86v-2.7c0-.9.8-1.5 1.5-1.5h.1z" fill="#ffbd32"/><path d="m582.8 215h14.7c.4 0 .8.4.8.8v2.8c0 .4-.4.8-.8.8h-14.7v-4.3z" fill="#ffbd32"/><path d="m465.9 191.2h3.5v18h-3.5z" fill="#ffbd32"/><path d="m474.5 191.2h3.5v18h-3.5z" fill="#ffbd32"/><path d="m483.1 191.2h3.5v18h-3.5z" fill="#ffbd32"/><path d="m506.4 314.3c-.4 0-.9 0-1.2.4-2.8 3.1-6.4 2.8-9.3 4.7-1.4.9-2.9 2.2-2.9 3.8s.8 2.7 2 3.1c1 .4 2.3 0 3.3-.4.8 1 2.2 1.5 4.1 0l-2.9 9.5s-2.3 2.7-1.7 3.1c3.2 1.7 7.7 1.2 11.2.6h.3s0-.1.1-.3c1.3-4.3 1.5-8.8 1.8-13.3v-2.7c-.3-1.5-.9-3.1-1.9-4.3-.1-.3-.4-.4-.5-.6-.1-.3-.3-.6-.3-1-.3-1-.9-2.6-1.9-2.4h-.3z" fill="#efecf0"/><path d="m495.4 319.8c-1.3.9-2.4 2-2.6 3.5 0 1.3.8 2.7 2 3.1 1 .4 2.3 0 3.3-.4l-2.8-6.1z" fill="#a5a5a5"/><path d="m507.7 313.8c.4.3.5.6.5.9 0 .5 0 1-.4 1.5-.4.6-.8 1.2-1.3 1.4-.5.3-1.2.5-1.8.6-1.2.3-2.4.3-3.3-.6-.4-.4-.5-.9-.5-1.5s0-.3.1-.4c.3-.3.6 0 1 0 .6.3 1.4 0 2-.4s1.2-.8 1.8-1.3c.4-.3.9-.6 1.4-.5.1 0 .4 0 .5.1h-.1z" fill="#d49d29"/><path d="m504.8 319.4c-.3.3-.4.6-.6.9s-.6.6-1 .6-.9-.3-.6-.6c.4-.8 1.5-1.2 2.3-.9z" fill="#241f3d"/><path d="m489.5 443.5 6.4 1c.6 0 1.3-.4 1.4-1l.6-4.1-4-.6-.5 2.8-4 1.2c-.4 0-.4.6 0 .8z" fill="#316882"/><path d="m489.5 443.5 5.6-1.7.5-2.8-1.7-.3-.5 2.8-4 1.2c-.4 0-.4.6 0 .8z" fill="#03405c"/><path d="m494.3 438.5h.4v1.7h-.4z" fill="#316882" transform="matrix(.15643447 -.98768834 .98768834 .15643447 -16.8 859)"/><path d="m494.1 439.5h.4v1.7h-.4z" fill="#316882" transform="matrix(.15643447 -.98768834 .98768834 .15643447 -17.9 859.7)"/><path d="m494 440.4h.4v1.7h-.4z" fill="#316882" transform="matrix(.15643447 -.98768834 .98768834 .15643447 -19 860.3)"/><path d="m504.5 406.7c-1 3.1-2.2 6-2.7 9.2 0 .3 0 .6-.1.9-.3 1.9-.6 3.8-1 5.8-.3 1.3-.5 2.6-.8 3.8-.4 1.7-2 11.4-2 13l-4-.6s1-23.6 1.4-25.4c1.9-10.6 4.2-21.2 6.4-31.8 0-.1 0-.4.3-.4 0 0 .3 0 .4-.1 2.3-.3 5.2 0 7.5-.3.8 1.9.5 4 .1 5.9-1.2 6.9-3.3 13.4-5.5 20.1z" fill="#efecf0"/><path d="m495.1 414.6 1.7-.5s.1-.1 0-.3c0 0-.1-.1-.3 0l-1.5.5v.4h.1z" fill="#a5a5a5"/><path d="m509.7 444.7 6.4-.3c.6 0 1.2-.6 1.2-1.3l-.3-4.2-4.1.3v2.9c.1 0-3.6 1.9-3.6 1.9-.4.1-.3.6.1.8h.3z" fill="#316882"/><path d="m509.7 444.7 5.1-2.8v-2.9h-1.8v2.9c.1 0-3.6 1.9-3.6 1.9-.4.1-.3.6.1.8h.1z" fill="#03405c"/><path d="m513.6 439h1.7v.4h-1.7z" fill="#316882" transform="matrix(.99880614 -.04884977 .04884977 .99880614 -20.8 25.7)"/><path d="m513.5 439.9h1.7v.4h-1.7z" fill="#316882" transform="matrix(.99880614 -.04884977 .04884977 .99880614 -20.9 25.7)"/><path d="m513.6 440.8h1.7v.4h-1.7z" fill="#316882" transform="matrix(.99880614 -.04884977 .04884977 .99880614 -20.9 25.7)"/><path d="m517 405.6c-.4 3.2-.9 6.4-.8 9.6.1 3.6.3 7 .3 10.6s.6 13.2.6 13.2l-4.1.3s-2.8-17.6-3.6-23.5v-.4c0-.6-.1-1.2-.1-1.3-.3-10.7-.3-21.6-.3-32.5v-.5s.3-.1.4-.3c2.2-.6 5.1-1 7.3-1.8 1.2 1.7 1.3 3.8 1.3 5.8.3 6.9-.5 13.9-1.3 20.8z" fill="#efecf0"/><path d="m511 414.8-1.4.9v-.4l1.3-.8h.3v.3h-.1z" fill="#a5a5a5"/><path d="m505.4 335.4c-.6.4-.8 1.3-.8 2 0 3.2 1.4 6.1 3.2 8.8s3.8 5 5.2 7.9c-2.9 1.4-5.9 2.9-8.6 4.6 0 0-.1 0-.3.3v.4c.4 1.2.8 2.3 1.2 3.6 6-1.3 11.6-3.6 16.9-6.8.6-.4.4-1.2 0-1.8-1.7-3.6-2-7.7-3.5-11.5-.3-.6-1.4-4.9-1.9-5.4s0 2.7-.6 2.4c-2.7-1.5-5.2-3.1-7.9-4.6-.8-.5-2.3-.4-3.1 0h.1z" fill="#316882"/><path d="m498.1 405.6h3.5c.1 0 .3 0 .3-.3s0-.3-.3-.3h-3.5c-.1 0-.3 0-.3.3s0 .3.3.3z" fill="#adbde1"/><path d="m513.9 405.6h3.5c.1 0 .3 0 .3-.3s0-.3-.3-.3h-3.5c-.1 0-.3 0-.3.3s0 .3.3.3z" fill="#adbde1"/><path d="m527.1 408.1c0 .3.1.5 0 .8 0 .3-.3.4-.5.4-2.2 1-4.5 1.5-6.9 1.5s-3.7-.4-5.6 0c-2.2.3-4.2 1.2-6.4 1.5-5.8.9-11.5-2.4-17.3-1.7 1.2-9.2 2.4-18.4 3.6-27.6.6-4.9 1.3-9.7 2.8-14.3 5.6-1.9 11.6-2.6 17.5-1.9 3.8.4 4.3 2.4 4.7 5.6.5 4.1 1 8.2 1.8 12.1 1.4 8.1 3.2 16 6.3 23.5z" fill="#49acea"/><path d="m511.6 376.4c-3.1.6-6.3.8-9.5.3-2.3-.3-4.9-1.2-5.9-3.2-.5-1.2-.6-2.4-.6-3.6 0-7 0-13.9.4-21 0-2.8-.3-5.6-.1-8.4 0-1.4 0-2.8.5-4.1.1-.6 1-1.9 1.7-1.8 4.5.6 8.8-.1 11.2-1.2.1 0 .4-.1.5-.1h.5c1.2 0 2.2.3 3.3.3s.6 0 .9.3c.4.3.8.6 1 1 .9 1.5 1.8 3.3 2 5.1.3 2 .3 4.1.3 6.1 0 7.8 1 15.7 1.7 23.5 0 1.3.3 2.8-.6 3.8-.6.9-1.5 1.3-2.6 1.7-1.5.6-3.1 1-4.7 1.4z" fill="#316882"/><path d="m518.4 358.1-2.4-12 2.5 13.3z" fill="#03405c"/><path d="m544.3 411.7c-.9.6-2 .8-3.2.9h-1.5c-1.4 0-2.9-.3-4.3-.8-.5-.1-1.2-.4-1.7-.6-.6-.3-1.4-.6-2-1q-.4-.3 0 0c-.6-.4-1.3-.8-1.8-1.2-.3-.1-.4-.3-.6-.4-.3-.3-.6-.5-.9-.8h-.1c0-.1-.3-.4-.4-.5s-.3-.3-.4-.4-.1-.1-.3-.3l-.4-.4c0-.1-.3-.3-.4-.4-.1-.3-.4-.5-.5-.6-.3-.4-.5-.8-.8-1.2 0-.3-.3-.4-.4-.6 0-.3-.3-.4-.4-.6 0-.1-.3-.4-.3-.6 0-.3-.1-.4-.3-.6-.1-.4-.4-.9-.5-1.3-.1-.5-.4-1-.5-1.5v-1c-.3-1.5-.4-3.1-.6-4.6-.4-2.4-1.2-4.9-2.4-6.9-.1-.3-.3-.4-.4-.6-.1-.3-.3-.4-.4-.6-.5-.6-1-1.3-1.7-1.9-.6-.5-1.3-1-2-1.5-.3 0-.4-.1-.6-.3h-.1s-.1 0-.3-.1h-.3v-.4s0-.1.3-.3c.4-.3.9-.3 1.3-.3h2.8c.5 0 1.2 0 1.7.1h2.2c.1 0 .4 0 .5.1.1 0 .3 0 .5.1.3 0 .5.1.6.3.1 0 .3.1.5.3 2.2 1 3.8 2.7 5.5 4.5 1.2 1.3 2.2 2.8 2.9 4.3 1.3 2.7 1.7 5.8 2 8.7s.9 6 2.4 8.6 4.3 4.6 7.4 4.3h-.3z" fill="#ffbd32"/><path d="m520.1 353.3c-1 .1-1.9-.1-2.9-.6-.1 0-.4-.1-.5-.3s-.3 0-.4-.1c0 0-.1 0-.3-.1-1.2-.6-2.2-1.4-3.1-2.3-.4-.4-.8-.8-1.2-1.2-.4-.5-.9-1-1.2-1.5q-.2-.3 0 0c-.4-.5-.6-1-1-1.7 0-.1-.1-.4-.3-.5-.1-.4-.3-.6-.4-1v-.3c0-.1 0-.3-.1-.4 0-.1 0-.3-.1-.5v-.9-.5c0-.3 0-.5-.1-.8 0-.4 0-.8-.1-1.2v-.6-1.2-1.7c0-.5.1-.9.3-1.4v-.8c.4-1.3.9-2.6 1.4-3.8.6-2 1-4.2.8-6.4v-.6-.6c-.1-.8-.4-1.4-.6-2.2-.3-.6-.6-1.4-1-2 0-.1-.3-.4-.4-.5s0-.1-.1-.3v-.5h.3c.4 0 .9.1 1.2.3h.3c.6.3 1.3.5 1.9.9h.1c.4.3.9.5 1.3.8.1 0 .3.3.4.3s.3.1.4.3.3.3.4.3.3.1.3.3l.4.4s.3.3.3.4c.1.1.3.4.4.5 0 0 .1.3.3.4 1.3 1.7 2 3.7 2.6 5.6.4 1.5.6 3.1.6 4.6 0 2.7-1 5.1-1.9 7.7s-1.7 5.1-1.5 7.8 1.7 5.4 4.1 6.3h-.1z" fill="#ffbd32"/><path d="m509.4 313.7c.5-.5 1-1 1.4-1.5 0 0 .1-.3.3-.1h.3c.4.4.5 1 .4 1.7 0 .5-.4 1.2-.6 1.5-.5.9-1.4 1.5-2.4 1.8-.6 0-2.4-.3-1.9-1.3.3-.4.9-.8 1.3-1 .5-.4 1-.6 1.4-1z" fill="#a5a5a5"/><path d="m479.8 308.2c-1.2-.1-2.4 0-3.2 1-.5.6-.6 1.5-.4 2.3.1.8.6 1.5 1 2.2.3.4 3.6 6.3 3.6 6.3.4.5 1.7 2.2 2 2.7l2.4-2.8c-1-1.4-2.7-3.7-3.8-4.6-.6-.5-1.2-1.3-1.3-2v-.3c.8-.4 1.3-1.3 1-2 0-.3-.1-.5 0-.8 0-.1.1-.4.1-.5 0-.4-.1-.8-.5-1-.3-.3-.8-.3-1.2-.4h.1z" fill="#efecf0"/><path d="m476.8 310c.6-.9 2-1.2 3.2-1 .4 0 .8 0 1.2.4 0 0 .1.1.3.3 0-.4-.1-.8-.5-1-.3-.3-.8-.3-1.2-.4-1.2-.1-2.4 0-3.2 1-.5.6-.5 1.5-.4 2.3v.4c0-.6 0-1.3.5-1.8h.1z" fill="#a5a5a5"/><path d="m490.9 341.9c-1.5-3.2-3.1-6.5-4.6-9.7-1.2-2.4-2.4-4.9-3.7-7.3-.6-1.2-3.5-7.2-3.7-7 0 0 2.3-1.2 3.6-2.3 1.7 2 3.6 4.1 4.7 6.4 2.3 2.8 4.5 6 6.8 8.9 1.3 1.7 2.9 3.1 4.7 4.1 2.2 3.1-.9 3.7-.1 7.4.3 1.4.5 8.4-2.8 7.2-1.9-.8-2.3-2.9-3.3-4.7-.5-1-1.2-2-1.7-3.1h.1z" fill="#316882"/><path d="m495.8 355.3 1-9.8-.8 4.2z" fill="#03405c"/><path d="m678.3 122.3-3.8 13.2h-29.3c-7.4-20.5-13.2-41.4-17.4-62.8l-4.3-22h70.4l-7 36c-2.3 11.9-5.2 23.8-8.6 35.5z" fill="#ffbd32"/><path d="m674 138.5h-27.9c-1.2 0-2-.9-2-2 0-1.2.9-2 2-2h27.9c1.2 0 2 .9 2 2 0 1.2-.9 2-2 2z" fill="#ffbd32"/><path d="m646.2 138.5h27.7c1.1 0 2 .9 2 2 0 1.1-.9 2-2 2h-27.7c-1.1 0-2-.9-2-2 0-1.1.9-2 2-2z" fill="#ffbd32"/><path d="m652.6 141.3h16.2v35.2h-16.2z" fill="#ffbd32"/><path d="m691.2 191.7h-62.3v-8.7l11.2-5.9c7.7-4 12.5-12 12.4-20.6h16.2v.8c0 8.4 4.7 16.1 12.1 20.2l10.2 5.5v8.7z" fill="#ffbd32"/><path d="m621.5 127.8h-2.2c-1 0-1.8-.8-1.8-1.8s.8-1.8 1.8-1.8h2.2c6.8 0 12.3-5.5 12.3-12.3s-5.5-12.3-12.3-12.3h-2.9c-13.4 0-24.4-11-24.4-24.4s11-24.4 24.4-24.4h20.6c1 0 1.8.8 1.8 1.8s-.8 1.8-1.8 1.8h-20.6c-11.5 0-20.8 9.3-20.8 20.8s9.3 20.8 20.8 20.8h2.9c8.7 0 15.9 7.2 15.9 15.9s-7.2 15.9-15.9 15.9z" fill="#ffbd32"/><path d="m699.5 127.8h-2.2c-8.7 0-15.9-7.2-15.9-15.9s7.2-15.9 15.9-15.9h2.9c11.5 0 20.8-9.3 20.8-20.8s-9.3-20.8-20.8-20.8h-20.6c-1 0-1.8-.8-1.8-1.8s.8-1.8 1.8-1.8h20.6c13.4 0 24.4 11 24.4 24.4s-11 24.4-24.4 24.4h-2.9c-6.8 0-12.3 5.5-12.3 12.3s5.5 12.3 12.3 12.3h2.2c1 0 1.8.8 1.8 1.8s-.8 1.8-1.8 1.8z" fill="#ffbd32"/><path d="m670.1 120.9h-.4c-1-.3-1.7-1.2-1.4-2.2l12.4-62.8c.3-1 1.2-1.7 2.2-1.4s1.7 1.2 1.4 2.2l-12.4 62.8c-.1.9-.9 1.4-1.8 1.4z" fill="#ffd359"/><path d="m667.3 175.4c-.5 0-.9-.1-1.3-.5l-2.6-2.6c-.4-.4-.5-.8-.5-1.3v-23.8c0-1 .8-1.8 1.8-1.8s1.8.8 1.8 1.8v23l2 2c.8.8.8 1.9 0 2.6-.4.4-.8.5-1.3.5z" fill="#ffd359"/><path d="m675.5 187.8c-1 0-1.8-.8-1.8-1.8v-4.7l-2.6-2.3c-.8-.6-.8-1.8 0-2.6.6-.8 1.8-.8 2.6 0l3.1 2.8c.4.4.6.8.6 1.3v5.5c0 1-.8 1.8-1.8 1.8z" fill="#ffd359"/><path d="m695.7 50.8h-73.2c-1.2 0-2-.9-2-2 0-1.2.9-2 2-2h73.2c1.2 0 2 .9 2 2 0 1.2-.9 2-2 2z" fill="#ffd359"/><path d="m603.8 299.2h196.9v35.7h-196.9c-1.8 0-3.3-1.4-3.3-3.3v-29.1c0-1.8 1.4-3.3 3.3-3.3z" fill="#7ebcd9"/><path d="m806.8 329.3h-198.6v-24.5h198.6c-4.7 7.4-4.7 17 0 24.5z" fill="#f0f0f0"/><path d="m606.8 304.7h142.3v24.5h-142.3z" fill="#fff"/><path d="m749.1 299.2h62.9c.8 0 1.3.6 1.3 1.3v2.9c0 .8-.6 1.3-1.3 1.3h-62.9v-5.6z" fill="#5493b0"/><path d="m749.1 329.3h62.9c.8 0 1.3.6 1.3 1.3v2.9c0 .8-.6 1.3-1.3 1.3h-62.9v-5.6z" fill="#5493b0"/><path d="m580.9 259.6h209.5v39.6h-209.5c-1.7 0-2.9-1.3-2.9-2.9v-33.6c0-1.7 1.3-2.9 2.9-2.9z" fill="#3bd9cc"/><path d="m696.6 259.6h93.3v39.6h-93.3z" fill="#03c7c0"/><path d="m794.2 293h-91.4v-27.2h91.4c-2.9 8.8-2.9 18.4 0 27.2z" fill="#f0f0f0"/><path d="m702.8 259.6h94.2c.6 0 1.2.5 1.2 1.2v3.8c0 .6-.5 1.2-1.2 1.2h-94.2v-6.1z" fill="#03c7c0"/><path d="m580.8 259.6h202.2v6.1h-205v-3.5c0-1.5 1.3-2.8 2.8-2.8z" fill="#03c7c0"/><path d="m702.8 293h94.2c.6 0 1.2.5 1.2 1.2v4c0 .6-.5 1.2-1.2 1.2h-94.2v-6.3z" fill="#03c7c0"/><path d="m607.4 268.7h5v16h-5z" fill="#03c7c0"/><path d="m619.9 268.5h5v16h-5z" fill="#03c7c0"/><path d="m632.4 268.7h5v16h-5z" fill="#03c7c0"/><path d="m696.6 259.6h6.3v39.6h-6.3z" fill="#03c7c0"/><path d="m608.4 218.2h152.6v41.4h-152.6c-.9 0-1.7-.8-1.7-1.7v-38c0-.9.8-1.7 1.7-1.7z" fill="#7ebcd9"/><path d="m694.5 218.2h66.1v41.4h-66.1z" fill="#5493b0"/><path d="m766.9 255h-67.6v-32.2h67.6c-4.6 10.2-4.6 22 0 32.2z" fill="#f0f0f0"/><path d="m753.2 218.2h15.7c.4 0 .8.4.8.8v2.9c0 .4-.4.8-.8.8h-15.7v-4.6z" fill="#5493b0"/><path d="m608.4 218.2h90.1v4.6h-91.8v-2.9c0-.9.8-1.7 1.7-1.7z" fill="#5493b0"/><path d="m753.2 255h15.7c.4 0 .8.4.8.8v2.9c0 .4-.4.8-.8.8h-15.7v-4.6z" fill="#5493b0"/><path d="m628.5 229.6h3.7v19.3h-3.7z" fill="#5493b0"/><path d="m637.7 229.6h3.7v19.3h-3.7z" fill="#5493b0"/><path d="m647 229.6h3.7v19.3h-3.7z" fill="#5493b0"/><path d="m728.7 255.9-10 8.4v-26.8h10z" fill="#ffbd32"/><path d="m604.9 191.7h130.8v26.5h-130.8c-1.3 0-2.3-1-2.3-2.3v-22c0-1.3 1-2.3 2.3-2.3z" fill="#3bd9cc"/><path d="m738.4 214.1h-130.1v-18.2h130.1c-2.2 5.9-2.2 12.4 0 18.2z" fill="#f0f0f0"/><path d="m607.4 195.8h88.1v18.2h-88.1z" fill="#fff"/><path d="m695.4 191.7h46.8c.5 0 1 .4 1 1v2.2c0 .5-.4 1-1 1h-46.8v-4.1z" fill="#03c7c0"/><path d="m695.4 214.1h46.8c.5 0 1 .4 1 1v2.2c0 .5-.4 1-1 1h-46.8v-4.1z" fill="#03c7c0"/><path d="m719.3 222.3-9.8 8.1v-26.4h9.8z" fill="#7ebcd9"/><path d="m461.6 138.4h155.2v42.1h-155.2c-.9 0-1.8-.8-1.8-1.8v-38.6c0-.9.8-1.7 1.7-1.7z" fill="#7ebcd9"/><path d="m549.2 138.4h67.2v42.1h-67.2z" fill="#5493b0"/><path d="m622.7 175.9h-68.8v-32.9h68.8c-4.7 10.5-4.7 22.4 0 32.9z" fill="#f0f0f0"/><path d="m608.9 138.4h16c.5 0 .8.4.8.8v3.1c0 .5-.4.8-.8.8h-16v-4.6z" fill="#5493b0"/><path d="m461.6 138.4h91.7v4.6h-93.3v-2.9c0-.9.8-1.7 1.7-1.7z" fill="#5493b0"/><path d="m608.9 175.9h16c.5 0 .8.4.8.8v3.1c0 .5-.4.8-.8.8h-16v-4.6z" fill="#5493b0"/><path d="m482 150.2h3.7v19.6h-3.7z" fill="#5493b0"/><path d="m491.4 150.2h3.7v19.6h-3.7z" fill="#5493b0"/><path d="m500.9 150h3.7v19.6h-3.7z" fill="#5493b0"/><path d="m584 176.9-10.1 8.4v-27.2h10.1z" fill="#03c7c0"/><path d="m440.5 166.3c1 .3 2.2.5 3.2.6.9 0 1.8.1 2.6-.3.5-.4.9-1 1.2-1.7.3-.5.6-.9 1-1.2.4 0 1 0 .6-1.3 0-.4 0-.5-.3-.9-.5-.8-.9-2-.8-2.9v-.3c.1-.6.4-1.3.6-1.9l-2.4-.4v.8c-.3.5-.4 1-.5 1.4-.3.6-.5 1.2-.8 1.7-.6 1.2-.6 2.8-1.7 3.8 0 0-.1 0-.3.1-.5.4-1 .5-1.5.8-.6.3-1.3.8-1.3 1.5h.3z" fill="#d0ced1"/><path d="m441.8 164.9 1.5-.8c.4-.1.9 0 1.4 0 1 0 1.9-.5 2.6-1.3.4-.5.9-.8 1.4-.9h.5c.3.1.3.6.3.9 0 1.4-.5 3.1-.9 4.5h-.4l.5-2.8c0-.3-.1-.4-.4-.3-.4.3-.8.8-1 1.2-.4.6-.6 1.3-1.2 1.7-.8.5-1.7.4-2.6.3-1-.1-2.2-.4-3.2-.6 0-.6.8-1.2 1.3-1.5v-.3z" fill="#da4d36"/><path d="m446 158.4h2.3l5.4-13c.8-1.9 1.2-4 1.2-6s-.1-2.6-.5-3.8l7.2-2.9-1.3-3.5-5.2 1.9c-1.9.8-3.5 2.4-4 4.3v.4l-4.5 20.3v.8c-.1 0-.5 1.4-.5 1.4z" fill="#d0ced1"/><path d="m466.9 164.1c.4-.6.8-1.2.9-1.8.4-1.4-.6-2.8-.8-4.1-.1-1.4-.6-2.7-1.5-3.7l2.4-1.2c.3.8.4 1.4.6 2.2.4.9 1.5 1.5 2.3 1.9.4.1.4.4.6.6 1.2.9.1 1.3 0 1.5-.3.5-.3 1-.1 1.5 0 .6.1 1.4 0 2-.3.8-1.2 1.3-1.9 1.7s-2 .9-3.1 1.3c-.3-.6 0-1.4.3-1.9z" fill="#d8d6d9"/><path d="m466.9 164.1c.3-.5.5-1 .8-1.5.3-.4.8-.5 1.2-.8.8-.6 1.3-1.5 1.3-2.6 0-.6.3-1.2.6-1.5.1-.1.3-.3.4-.3.3 0 .6.3.8.5.6 1.2 1.4 2.8 1.9 4.2 0 0-.3.1-.4.1l-1.3-2.7c0-.1-.4-.1-.4 0-.3.5-.3 1-.1 1.5 0 .6.1 1.4 0 2-.3.8-1.2 1.3-1.9 1.7s-2 .9-3.1 1.3c-.3-.6 0-1.4.3-1.9z" fill="#da4d36"/><path d="m461 131 1.3 6h-2c2.6 2.6 4.5 5.6 5.5 8.9l2.8 8.9-2 1-12-19.2c-.9-1.4-.3-3.2 1.3-3.8l5.2-2z" fill="#d8d6d9"/><path d="m470.8 98.7c-.5 2.3-.3 4.6 0 6.9 0 .9.1 1.8.3 2.7.1 1.4.4 2.9 1 4.2.3.5.8 1 1.3 1s.6-.3.9-.5c.5-.5.6-1.3.8-2 .1-1.2 0-2.4-.4-3.6-.4-.9-.8-1.8-1.2-2.8-.5-1.3-.6-2.7-.8-4.1v-2c.1-1.2.6-2 1.2-3.1.4-.6.8-1.3.9-1.9.1-1-.5-.4-.9 0-.9.9-1.7 1.9-2.2 3.2s-.5 1.4-.6 2z" fill="#efecf0"/><path d="m472.6 103.1c.1.3.3.5.4.8-.4-1.2-.5-2.3-.6-3.5v-2c.1-1.2.6-2 1.2-3.1.4-.6.8-1.3.9-1.9-.1.1-.3.3-.4.4-.6.6-1.3 1.4-1.7 2.3-.3.5-.4 1-.5 1.5-.4 1.9-.1 3.8.6 5.6h.1z" fill="#d0ced1"/><path d="m448.1 107.2c-.1 0-.3-.1-.5-.4-.5-.4-.6-1-.5-1.7v-.5c.4-.4.6-.8 1-.9h.1c.5 0 1 .1 1.3.5.4.4.5.8.8 1.3.1.5.4.9.5 1.4.3.5.9.6 1.3.9 0 0-1 .8-1.2.8-.3 0-.5-.3-.8-.4-.8-.4-1.4-.6-2.2-1h.1z" fill="#d8d6d9"/><path d="m447.7 106.2c-.1.1-.4.1-.6 0l-.4-.4c-.1-.1-.1-.4 0-.6.1-.1.4-.1.6 0l.4.4c.1.1.1.4 0 .6z" fill="#d8d6d9"/><path d="m448.1 105.4c-.1.1-.4.1-.6 0l-.4-.4c-.1-.1-.1-.4 0-.6.1-.1.4-.1.6 0l.4.4c.1.1.1.4 0 .6z" fill="#d8d6d9"/><path d="m448.6 104.8c-.1.1-.4.1-.6 0l-.4-.4c-.1-.1-.1-.4 0-.6.1-.1.4-.1.6 0l.4.4c.1.1.1.4 0 .6z" fill="#d8d6d9"/><path d="m449.2 104.4c-.1.1-.4.1-.6 0l-.4-.4c-.1-.1-.1-.4 0-.6.1-.1.4-.1.6 0l.4.4c.1.1.1.4 0 .6z" fill="#d8d6d9"/><path d="m451.4 106.5c1 .8 8.3 5.1 9.5 5.5.8.3 1.2-.5 1.7-1 .8-.8 6-6.3 6.4-6.9.1-.3.4-.5.5-.8.1-.1.3-.3.4-.4 1-.8 2.4-.9 3.6-.3 0 0 .3.1.4.3s.1.1.3.3c.4.6.4 1.5 0 2.3-.1.3-.4.5-.5.8-.9 1-6.8 6.4-8.1 7.3-1 .9-2 1.5-3.2 2.3-.4.3-.9.5-1.4.4-.4 0-7.7-5.1-11.1-7.7l1.7-2z" fill="#d49d29"/><path d="m480 130.1c.3.3.5.5.6.8 0 .1 0 .4.3.5.1.3.5.5.8.4.3 0 .6-.3.6-.5h.8c.3 0 .5-.3.5-.5v-.4c0-.1.3-.3.4-.4.5-.4.3-1.3-.3-1.7 0 0-.3-.1-.4-.3-.1-.1-.1-.4-.3-.6-.3-.6-1-.9-1.7-.6 0-.3-.3-.4-.5-.4s-.5.3-.6.4c-.8.9-1.2 2.2-.4 3.2h.1z" fill="#e4e2e6"/><path d="m479.8 99.9c0 .6.3 1.4.6 1.9-1.2 1-2.6 1.7-4.1 2-1.2.3-2.4.4-3.6 0 0 0-.3 0-.4-.3v-.4c0-.5.3-.9.5-1.4.5-1 .8-2.3.5-3.5v-.5c0-.1.1-.3.3-.4 1.2-1.2 2.7-1.8 4.3-1.9.4 0 .6 0 .9.1.1.3.1.9.3 1.3.1.9.4 1.9.5 2.8h.1z" fill="#d0ced1"/><path d="m479.4 96.6c0 .3-.1.4-.3.6 0 .3-.1.4-.3.5-.4.3-.8.5-1.2.5-.8 0-2.7.4-3.8.5h-1.8c-.5 0-1 0-1.5-.1-.5 0-1-.4-1.4-.8-.1-.3-.3-.4-.4-.6v-.9c0-.4.3-.8.5-1l1.7-2c.9-1 2-1.8 3.3-2.2.9-.3 1.8-.4 2.8-.3 1 0 1.9.9 2.2 1.8l.3.9c.4 1.2.4 2.3 0 3.3v-.3z" fill="#efecf0"/><path d="m474.8 93.3c-.1.3-.3.5-.4.6-.1.3-.4.4-.6.5-.3 0-.6 0-.5-.4.3-.5 1-.9 1.5-.8z" fill="#03405c"/><path d="m471.1 96.4c.3 0 .5 0 .8.3s.3.5 0 .8c0 .3-.4.4-.6.5s-.5 0-.8 0c-.4 0-.8-.3-1-.6s-.3-1 .3-1.2c.4 0 1 .3 1.4.4z" fill="#d0ced1"/><path d="m469.4 97.2c0 .1-.1.4-.3.5-.1-.3-.3-.4-.4-.6v-.9c.5 0 .8.6.6 1z" fill="#d0ced1"/><path d="m469.9 96c0 .1-.3.3-.4.4-.3.3-.8 0-.5-.4.1-.1 1-.3.9 0z" fill="#03405c"/><path d="m470.7 121.8c0-1.5-1.7-9.1-1.5-12.3v-1.8c.5-1.8 1.4-3.3 2.6-4.7l1-1.2c-.1.8-.3 1.7.5 2 .3.1.6 0 1 0 1.2-.4 2.4-.8 3.6-1.3.3-.1.8-.4 1-.5.1 0 .9-.4 1-.4 0 0 .3.4.5.6 1.7 2.4 1.3 7.3 1.3 10.2s-.9 8.1-1.4 11.2c-.1 1.2.4 2.4.8 3.5.5 1.4 1.2 2.7 1.4 4.1.3 1.4 0 3.1-.6 4.2-.8 1.3-2.3 2-3.7 2.4-1.5.4-3.1.4-4.6.4h-11.5c-.4-3.2-1.8-9.8-1.7-10 .1-.3 7.7-1.5 8.7-2.3.8-.6 1.7-2.8 1.7-4.2z" fill="#ffbd32"/><path d="m473.3 125.9c-.1 0-.4.3-.5.3-.6.3-1.3.1-1.8-.4l-.4-.4c-.3-.4-.5-.8-.4-1.2.1-.6.6-1 1.2-1.2s1-.1 1.5 0h1.5c.6 0 .9-.5 1.4-.8 0 0 .3 1.4.1 1.5 0 .3-.5.4-.8.6-.6.5-1.3 1-2 1.5h.1z" fill="#d8d6d9"/><path d="m472.1 125.8c0 .3 0 .5-.3.5h-.5c-.3.3-.5 0-.5 0 0-.3 0-.5.3-.5h.5c.3-.3.5 0 .5 0z" fill="#d8d6d9"/><path d="m471.6 125.1c0 .3 0 .5-.3.5h-.5c-.3.3-.5 0-.5 0 0-.3 0-.5.3-.5h.5c.3-.3.5 0 .5 0z" fill="#d8d6d9"/><path d="m471.2 124.3c0 .3 0 .5-.3.5h-.5c-.3.3-.5 0-.5 0 0-.3 0-.5.3-.5h.5c.3-.3.5 0 .5 0z" fill="#d8d6d9"/><path d="m471.2 123.6c0 .3 0 .5-.3.5h-.5c-.3.3-.5 0-.5 0 0-.3 0-.5.3-.5h.5c.3-.3.5 0 .5 0z" fill="#d8d6d9"/><path d="m473.8 122.9c1.2-.6 8.3-5.2 9.2-6.1.5-.5 0-1.3-.1-1.9-.4-1-3.1-8.2-3.5-8.8-.1-.3-.3-.5-.4-.8 0-.1-.1-.4-.1-.5-.3-1.3.3-2.6 1.3-3.3 0 0 .3-.1.4-.1h.4c.8 0 1.5.4 2 1 .1.3.4.5.4.8.5 1.3 2.7 8.9 3.1 10.4.3 1.3.5 2.6.6 3.8 0 .5 0 1-.3 1.4-.3.3-7.9 4.6-11.8 6.5l-1.2-2.3h-.1z" fill="#d49d29"/><path d="m482.6 98.5c.9 2.2 1.2 4.5 1.4 6.8 0 .9.1 1.8.3 2.7 0 1.4.3 2.9-.3 4.3-.1.5-.5 1.2-1 1.3-.4 0-.6 0-.9-.4-.6-.5-.9-1.2-1.2-1.9-.4-1.2-.5-2.4-.3-3.6.1-1 .5-1.9.6-2.9.3-1.4.1-2.8 0-4.2 0-.6-.1-1.3-.4-1.9-.4-1-1-1.9-1.7-2.8-.4-.5-.9-1-1.2-1.8-.4-.9.5-.5.9-.1 1.2.6 2 1.7 2.7 2.7.4.6.8 1.3 1 1.9h-.1z" fill="#efecf0"/><path d="m481.6 103.3c0 .3-.1.5-.3.9.1-1.2 0-2.4 0-3.6s0-1-.3-1.5v-.4c-.4-1-1-1.9-1.7-2.8-.4-.5-.9-1-1.2-1.8.1 0 .4.3.4.3.8.5 1.5 1.2 2 1.9.3.4.6.9.8 1.4.8 1.8.9 3.8.4 5.6h-.3z" fill="#d0ced1"/><path d="m475.1 92.6c-.9-.4-1.9-.6-2.7-1.2-.3-.3-.5-.5-.8-.8-.3-.6 0-1.4.5-1.9 0 0 .1 0 .3-.1 1.4-1.2 3.2-1.5 5-1h.1c.5 0 1.2.4 1.5.6 1.5.9 2.7 2.6 3.1 4.3v1.4c-.1.5-.5.9-1 .9h-.8c-1.2-.3-4.3-1.9-5.1-2.2z" fill="#da4d36"/><path d="m478.6 87.9c0-.4.1-.8.4-1.2v-.4h-.4c-.3.3-.3.6-.3 1s.1.6.3 1c0 .1 0 .4.3.4 0-.4-.3-.6-.3-1z" fill="#da4d36"/><path d="m477.9 129.1h.5v.5h-.6v-.5z" fill="#dbe7ff"/><path d="m477.1 129.1h.5v.5h-.6v-.5z" fill="#dbe7ff"/><path d="m476.5 129.1h.5v.5h-.6v-.5z" fill="#dbe7ff"/><path d="m475.8 129.1h.5v.5h-.6v-.5z" fill="#dbe7ff"/><path d="m475.1 129.1h.5v.5h-.6v-.5z" fill="#dbe7ff"/><path d="m474.4 129.1h.5v.5h-.6v-.5z" fill="#dbe7ff"/><path d="m473.7 129.1h.5v.5h-.6v-.5z" fill="#dbe7ff"/><path d="m473 129.1h.5v.5h-.6v-.5z" fill="#dbe7ff"/><path d="m472.4 129.1h.5v.5h-.6v-.5z" fill="#dbe7ff"/><path d="m471.6 129.1h.5v.5h-.6v-.5z" fill="#dbe7ff"/><path d="m471 129.1h.5v.5h-.6v-.5z" fill="#dbe7ff"/><path d="m470.2 129.1h.5v.5h-.6v-.5z" fill="#dbe7ff"/><path d="m469.6 129.1h.5v.5h-.6v-.5z" fill="#dbe7ff"/><path d="m468.9 129.1h.5v.5h-.6v-.5z" fill="#dbe7ff"/><path d="m468.2 129.1h.5v.5h-.6v-.5z" fill="#dbe7ff"/><path d="m467.5 129.1h.5v.5h-.6v-.5z" fill="#dbe7ff"/><path d="m466.9 129.1h.5v.5h-.6v-.5z" fill="#dbe7ff"/><path d="m466.1 129.1h.5v.5h-.6v-.5z" fill="#dbe7ff"/><path d="m465.5 129.1h.5v.5h-.6v-.5z" fill="#dbe7ff"/><path d="m464.7 129.1h.5v.5h-.6v-.5z" fill="#dbe7ff"/><path d="m464.1 129.1h.5v.5h-.6v-.5z" fill="#dbe7ff"/><path d="m463.4 129.1h.5v.5h-.6v-.5z" fill="#dbe7ff"/><path d="m462.7 129.1h.5v.5h-.6v-.5z" fill="#dbe7ff"/><path d="m462 129.1h.5v.5h-.6v-.5z" fill="#dbe7ff"/><path d="m461.3 129.1h.5v.5h-.6v-.5z" fill="#dbe7ff"/><path d="m460.6 129.1h.5v.5h-.6v-.5z" fill="#dbe7ff"/><path d="m460 129.1h.5v.5h-.6v-.5z" fill="#dbe7ff"/><path d="m459.2 129.1h.5v.5h-.6v-.5z" fill="#dbe7ff"/><path d="m458.6 129.1h.5v.5h-.6v-.5z" fill="#dbe7ff"/><path d="m457.9 129.1h.5v.5h-.6v-.5z" fill="#dbe7ff"/><path d="m457.2 129.1h.5v.5h-.6v-.5z" fill="#dbe7ff"/><path d="m456.5 129.1h.5v.5h-.6v-.5z" fill="#dbe7ff"/><path d="m455.6 127.5h.9v1.8h-.9z" fill="#316882" transform="matrix(.96174131 -.27395922 .27395922 .96174131 -17.7 129.9)"/><path d="m471.4 127.5h.9v1.8h-.9z" fill="#316882" transform="matrix(.96174131 -.27395922 .27395922 .96174131 -17.1 134.2)"/><path d="m453.5 119.6 2.4 9.2h17.1c.1 0 .3-.1.3-.3l-2.4-9.2c0-.3-.3-.4-.5-.4h-16.5c-.4 0-.6.4-.5.6h.1z" fill="#316882"/><path d="m452.7 119.6 2.4 9.1s0 .1.3.1h17c.1 0 .3-.1.3-.3l-2.4-9.2c0-.3-.3-.4-.5-.4h-16.5c-.4 0-.6.4-.5.6z" fill="#03c7c0"/><path d="m455.4 129.5h24.8c.3 0 .4.3.4.4v.4c0 .3-.3.4-.4.4h-24.8s-.1 0-.1-.1v-.9s0-.1.1-.1z" fill="#316882"/><path d="m455.4 129.5h17.3v1.3h-17.3s-.1 0-.1-.1v-.9s0-.1.1-.1z" fill="#03c7c0"/><circle cx="462.3" cy="124.6" fill="#efecf0" r="1.7"/><path d="m572.3 322.7h23.5v11.8h-23.5z" fill="#2b3e78"/><path d="m572.8 324.3c0 .9 0 1.8.3 2.6 0 .4.1.6.4 1 .4.5 1.3.8 2 .9 3.3.6 6.8.6 10.2.5 2.8 0 5.6-.3 8.1-1.2.4-.1.9-.4 1-.6.3-.3.3-.6.4-.9.3-1.7.4-5.6.5-9.5v-8.8c0-1.3 0 0 0 0 0-2.3-.8-4.6-1.5-6.8-.4-1.2-.8-2.4-1.4-3.6 0-.3-.4-.4-.6-.6-.4-.3-.6-.5-1-.8-.3-.1-.6-.4-1-.3-.1 0-.5.3-1 .6-1.8 1.3-4 1.9-6.3 1.9-1.5 0-3.1-.3-4.5-.9-.4-.1-.8-.4-.9-.4-.3 0-.8.9-.9 1.2-.5.8-.9 1.5-1.3 2.4-.8 1.7-1.7 3.5-2 5.2-.3 1.4-.1 2.8-.3 4.1 0 1.5-.4 2.9-.5 4.5-.3 3.1-.1 6.1 0 9.2h.4z" fill="#cbc9cc"/><path d="m588.4 319.4c.6 1.2.9 2.7.1 3.8-.5.8-1.5 1.3-2.6 1.4-1 0-1.9 0-2.9-.3-.5 0-8.7-1.3-8.7-1.3-.8-.1-3.2-.9-4-1.2l2.2-3.7c2 .5 5.4 1.4 6.9 2.3.9.5 1.9.6 2.8.5h.4c0-1 .9-1.9 1.9-2 .4 0 .6 0 .9-.1.3 0 .4-.3.5-.4.4-.3.9-.1 1.3 0 .4.3.6.6.9 1z" fill="#efecf0"/><path d="m572.1 300.5c-2.2 1.5-4 3.5-5 5.8-.4.8-.6 1.5-.9 2.4-.8 3.1-1.2 6.1-.5 9.2.1.8.4 1.4.8 2 .6 1.3 1.9 2.2 3.2 3.1 1.8 1.2 3.8 2.2 6 2.6 1.3.3 2.8.1 3.8-.8.6-.6.9-1.7 1-2.6v-1.4c0-.3-.3-.5-.5-.6-.6-.8-1.5-1.3-2.4-1.8-.5-.3-.9-.4-1.4-.6-.8-.5-1.3-1.2-1.5-1.9-.5-1.2-.6-2.6-.3-3.8.8-2.8 2.4-9.1 2.8-9.6.6-.9.9-1.9.4-2.9 0 0 .9-1.7.6-1.9-.6-.5-3.5 1.4-5.6 2.9h-.5z" fill="#cbc9cc"/><path d="m579.8 324.5h-.3v-.3c0-1.3-.1-2.6 0-3.8h2.2s.3 1.4.3 1.5v1.7c0 .3 0 .8-.4.9-.4.3-1.2 0-1.5 0z" fill="#241f3d"/><path d="m574 315.2c-.4-1.3-.4-2.6 0-3.7l1.5-5.4z" fill="#605f61"/><path d="m579.6 319.2c-.6 1.3-.9 2.8-.1 4.1.5.9 1.5 1.3 2.6 1.4 1 0 1.9 0 2.9-.3.5-.1 8.7-1.4 8.7-1.4.8-.1 3.2-.9 4-1.3l-2.2-3.8c-2 .5-5.4 1.5-6.9 2.4-.9.5-1.9.8-2.8.5h-.4c0-1-.9-1.9-1.9-2-.4 0-.6 0-.9-.1-.3 0-.4-.3-.5-.4-.4-.3-.9-.1-1.3 0-.4.3-.6.6-.9 1.2z" fill="#efecf0"/><path d="m596 299.3c2.2 1.5 4 3.6 5 6 .4.8.6 1.7.9 2.6.8 3.2 1.2 6.4.5 9.7-.1.8-.4 1.5-.8 2.2-.6 1.3-1.9 2.3-3.2 3.2-1.8 1.3-3.8 2.3-6 2.7-1.3.3-2.8.1-3.8-.8-.6-.6-.9-1.7-1-2.7v-1.5c0-.3.3-.5.5-.6.6-.8 1.5-1.4 2.4-1.8.5-.3.9-.4 1.4-.8.8-.5 1.3-1.2 1.5-1.9.5-1.3.6-2.7.3-4.1-.8-2.9-2.4-9.5-2.8-10-.6-.9-.9-2-.4-3.1 0 0-.9-1.8-.6-1.9.6-.5 3.5 1.5 5.6 3.1z" fill="#cbc9cc"/><path d="m588.3 324.5h.3v-.3c0-1.4.1-2.7 0-4.1h-2.2s-.3 1.5-.3 1.7v1.7c0 .3 0 .8.4.9.4.3 1.2 0 1.5 0h.3z" fill="#241f3d"/><path d="m594.1 315.3c.4-1.3.5-2.6 0-3.8l-1.7-6.3 1.5 10.1h.1z" fill="#605f61"/><path d="m566.8 339.9c-.3 1.7 0 3.3.5 4.9.1.5.4 1 .8 1.3 1.2 1 2.2.4 3.2 0 1.2-.5 2.4-.8 3.7-.8v-6.1s-7.7-2.3-8.2.6z" fill="#03405c"/><g clip-path="url(#b)"><path d="m572.5 341.3c-1.4-.1-2.8-.5-4.1-1-.6-.3-1.3-.6-2-.8h-.3s-.1.1-.3.3c-.5 1.4-.4 2.8-.3 4.3 0 .5.3 1 .6 1.2.3 0 .4 0 .6-.1 1-.5 2-1.2 3.1-1.4 1.8-.5 3.7-.1 5.6 0h.3v-.3c0-.6 0-2-.9-2s-.9.3-1.3.3h-1.3v-.4z" fill="#22759c"/><g clip-path="url(#c)" fill="#5899b8"><path d="m569.3 340.1h.8v5.2h-.8z" transform="matrix(.99992537 -.012217 .012217 .99992537 -4.1 7)"/><path d="m571.1 340.2h.8v5.2h-.8z" transform="matrix(.99992537 -.012217 .012217 .99992537 -4.1 7)"/><path d="m573 339.9h.8v5.2h-.8z" transform="matrix(.99992537 -.012217 .012217 .99992537 -4.1 7)"/></g></g><path d="m599.6 344.5c-.4 1.7-1.4 3.1-2.4 4.3-.4.4-.8.8-1.3.9-1.4.5-2.2-.5-2.9-1.4-.9-.9-1.9-1.7-3.1-2.2l2.4-5.6s7.9.9 7.3 4z" fill="#241f3d"/><path d="m599.6 344.5c-.4 1.7-1.4 3.1-2.4 4.3-.4.4-.8.8-1.3.9-1.4.5-2.2-.5-2.9-1.4-.9-.9-1.9-1.7-3.1-2.2l2.4-5.6s7.9.9 7.3 4z" fill="#03405c"/><g clip-path="url(#d)"><path d="m593.8 343.6c1.4.4 2.8.6 4.2.6h2.4v.4c0 1.4-.8 2.8-1.5 4.1-.3.4-.6.9-1 .8-.3 0-.4-.3-.5-.4-.8-.9-1.4-1.8-2.3-2.6-1.4-1.3-3.5-1.7-5.1-2.4 0 0-.1 0-.3-.1v-.3c.3-.5.9-1.8 1.7-1.5.4.1.6.5 1 .8s.8.4 1.3.5h.1z" fill="#22759c"/><g clip-path="url(#e)" fill="#5899b8"><path d="m593.9 344.9h5.2v.8h-5.2z" transform="matrix(.41469324 -.90996127 .90996127 .41469324 34.9 744.9)"/><path d="m592.3 344h5.2v.8h-5.2z" transform="matrix(.41469324 -.90996127 .90996127 .41469324 34.8 742.9)"/><path d="m590.6 343.2h5.2v.8h-5.2z" transform="matrix(.41469324 -.90996127 .90996127 .41469324 34.6 740.9)"/></g></g><path d="m573.6 338.6 18.5-7c1.7-.6 3.2-1.3 4.7-2.2l5.4-2.9c1.8-1 4-.5 5.2 1 1.4 1.8 1.2 4.2-.5 5.8-3.8 3.3-8.2 5.8-13 7.3l-19 6-1.3-7.9z" fill="#2976b3"/><path d="m564.3 323.5c2.6 9.8 12.4 18.3 21.5 21l2.9-.8z" fill="#21628e"/><path d="m593.2 340-15.5-12.4c-1.4-1-2.7-2.3-3.8-3.6l-4.2-4.5c-1.4-1.4-3.6-1.7-5.2-.6-1.9 1.3-2.4 3.7-1.3 5.6 2.6 4.3 6 8.1 10.1 10.9l16.2 11.6z" fill="#2976b3"/><path d="m586.9 300.5c.3.6.4 1.4.3 2.2-.1.9-.8 1.5-1.3 2.2-.3.4-.6.8-.9 1.3 0 0-.3-.6-.3-.8 0-.3-.3-.5-.4-.8-.3-.5-.5-1-.8-1.5s.4-.5.8-.6c.5-.1.9-.4 1.3-.8s.8-.8 1.2-1.2z" fill="#605f61"/><path d="m582.4 302.8c-.3.6-.8 1.2-1.2 1.8-.3.5-.3 1-.6 1.4-.5-.8-.9-1.4-1.3-2.3-.3-.6-.5-1.3-.5-2s0-.5.1-.6c0-.3.4-.6.8-.5.3.3.5.5.8.8.5.5 1.2 1 1.8 1.4z" fill="#605f61"/><path d="m583.5 305.2s.1.3.1.4.1.4.3.5c0 .3.1.5.3.8 0 .3.1.5.3.9 0 1-.4 2.4-.6 3.5-.3 1.3-.5 2.6-.8 3.7-.4 1.7-.6 3.3-1.4 4.7-.1-2.2-.3-4.5-.3-6.6v-3.2c0-1 .3-1.8.5-2.7 0-.4.1-.6.3-1 0-.3.3-.6.5-.9.3-.1.6-.1.9 0z" fill="#316882"/><path d="m581.8 303.7v-.8s.3-.1.4-.3h2c.1 0 .3.3.3.5s0 .4-.3.5c-.1.3-.3.4-.4.6-.3.4-.8 1.4-1.3 1-.3-.1-.3-.5-.4-.8 0-.4-.4-.6-.4-1z" fill="#03405c"/><path d="m577.7 285.9v-.8c.3-.9 1.4-1.4 2.3-1.3s1.8.8 2.4 1.5c-.3-.3-2.8 1.3-3.2 1.5s-.9.8-1.3.5-.4-1.2-.4-1.5h.1z" fill="#300d30"/><path d="m578.5 285.9v-.4c.1-.5.8-.8 1.3-.6.5 0 1 .4 1.3.8-.1-.1-1.5.8-1.8.9-.1 0-.5.4-.8.3s-.3-.6-.3-.9h.3z" fill="#da4d36"/><path d="m581.4 302.5c.6 0 1.4 0 2-.1 2.2-.3 4.3-1.2 6.1-2.6.3-.3 1.9-2.3 1.9-2.3-.4-.1-.3-.9.3-.9-.4-.1-.5-.5-.4-.9h.4c-.1-.4-.4-.6-.5-1 .1 0 .4 0 .5-.1-.3-.1-.4-.4-.4-.8s.3-.5.5-.5c-.1-.3-.4-.4-.5-.6h.3c-.4-.6-.5-1.4-.6-2.2-.4-1.4-1.3-2.8-2.6-3.6-.8-.5-1.5-.8-2.4-1-1.2-.4-2.4-.6-3.7-.5-2.7.1-3.8 1.9-5.4 3.7h.8c-.3.5-.6.9-1.2 1 0 .1.1.3.3.3 0 .3-.4.5-.6.5.3 0 .1.4 0 .6-.1.1-.4.3-.6.3.3.4-.1.5-.3.8-.1.3-.3.4-.1.8 0 .6.1 1.4.4 2 .4 1.3 1 2.6 1.8 3.6.5.6 1.2 1.3 1.5 1.9s.5 1.4.5 2.2c.8-.3 1.5-.4 2.3-.4h-.3z" fill="#efecf0"/><path d="m592.5 290.8c.1-.3.4-.5.4-.9.4-1.2-.5-2.4-1.5-2.9s-2.2-.5-3.3-.3c-.1 0-.3.1-.1.3.5.8 1.8 3.3 2 3.7.3.5.5 1.4 1 1.4s1.3-.9 1.5-1.3z" fill="#300d30"/><path d="m591.4 290c0-.1.1-.3.3-.5.3-.6-.3-1.4-.9-1.7-.4-.3-.9-.3-1.4-.3s-.4.3-.3.5c.4.6.8 1.5.9 1.7 0 .3.3.8.5.9.4 0 .6-.5.9-.8z" fill="#da4d36"/><path d="m580.1 294.4h1.3c.3 0 .4 0 .5.3 0 .3 0 .4-.3.5-.8.5-1.8.8-2.8.9h-.1c-.4-.4-1-1.5-.4-2 .5-.4 1.5.4 2 .5h-.3z" fill="#300d30"/><path d="m581.3 292.3c-.3.3-.8.5-1.2.6-.5.1-.9.3-1.4 0-.5 0-.9-.4-1.2-.8 0-.3-.1-.5-.1-.8 0-.6.1-1.2.6-1.5.4-.4 1-.4 1.5-.5.5 0 1 0 1.5.3.9.5.8 1.9.1 2.6z" fill="#300d30"/><path d="m580 290.8h-.5v.3c0 .4.3.6.6.8.3-.3 0-.8-.3-.9h.1z" fill="#efecf0"/><path d="m580 290.9h-.3c0 .4.1.6.4.6.1-.3 0-.5-.1-.6z" fill="#300d30"/><path d="m582.8 293.1c0 .5.4 1 .8 1.4.4.5.9.9 1.4 1.2s1.3.3 1.8 0 .5-.4.6-.6c.4-.6.6-1.4.5-2-.3-.6-.8-1.2-1.3-1.5-.5-.4-1.2-.8-1.8-.9-1.3 0-2.2 1.5-1.9 2.7h-.1z" fill="#300d30"/><path d="m585.2 292.3h.4c.1 0 .1.1.3.3v.3c-.3.4-.8.5-1.2.4 0-.5.5-.8.9-.9h-.4z" fill="#efecf0"/><path d="m585.1 292.4h.3q.1 0 .1.1v.3c-.1.3-.5.4-.8.3 0-.4.4-.5.6-.5h-.3z" fill="#300d30"/><path d="m597.8 331.2h.6v.6h-.9v-.6z" fill="#d3f2f1"/><path d="m596.9 331.2h.6v.6h-.9v-.6z" fill="#d3f2f1"/><path d="m596 331.2h.6v.6h-.9v-.6z" fill="#d3f2f1"/><path d="m595.1 331.2h.6v.6h-.9v-.6z" fill="#d3f2f1"/><path d="m594.2 331.2h.6v.6h-.9v-.6z" fill="#d3f2f1"/><path d="m593.3 331.2h.6v.6h-.9v-.6z" fill="#d3f2f1"/><path d="m592.4 331.2h.6v.6h-.9v-.6z" fill="#d3f2f1"/><path d="m591.5 331.2h.6v.6h-.9v-.6z" fill="#d3f2f1"/><path d="m590.6 331.2h.6v.6h-.9v-.6z" fill="#d3f2f1"/><path d="m589.7 331.2h.6v.6h-.9v-.6z" fill="#d3f2f1"/><path d="m588.8 331.2h.6v.6h-.9v-.6z" fill="#d3f2f1"/><path d="m587.9 331.2h.6v.6h-.9v-.6z" fill="#d3f2f1"/><path d="m587 331.2h.6v.6h-.9v-.6z" fill="#d3f2f1"/><path d="m586.1 331.2h.6v.6h-.9v-.6z" fill="#d3f2f1"/><path d="m585.2 331.2h.6v.6h-.9v-.6z" fill="#d3f2f1"/><path d="m584.4 331.2h.6v.6h-.9v-.6z" fill="#d3f2f1"/><path d="m583.5 331.2h.6v.6h-.9v-.6z" fill="#d3f2f1"/><path d="m582.6 331.2h.6v.6h-.9v-.6z" fill="#d3f2f1"/><path d="m581.7 331.2h.6v.6h-.9v-.6z" fill="#d3f2f1"/><path d="m580.8 331.2h.6v.6h-.9v-.6z" fill="#d3f2f1"/><path d="m579.9 331.2h.6v.6h-.9v-.6z" fill="#d3f2f1"/><path d="m579 331.2h.6v.6h-.9v-.6z" fill="#d3f2f1"/><path d="m578.1 331.2h.6v.6h-.9v-.6z" fill="#d3f2f1"/><path d="m577.2 331.2h.6v.6h-.9v-.6z" fill="#d3f2f1"/><path d="m576.3 331.2h.6v.6h-.9v-.6z" fill="#d3f2f1"/><path d="m575.4 331.2h.6v.6h-.9v-.6z" fill="#d3f2f1"/><path d="m574.5 331.2h.6v.6h-.9v-.6z" fill="#d3f2f1"/><path d="m573.6 331.2h.6v.6h-.9v-.6z" fill="#d3f2f1"/><path d="m572.7 331.2h.6v.6h-.9v-.6z" fill="#d3f2f1"/><path d="m571.8 331.2h.6v.6h-.9v-.6z" fill="#d3f2f1"/><path d="m570.9 331.2h.6v.6h-.9v-.6z" fill="#d3f2f1"/><path d="m570 331.2h.6v.6h-.9v-.6z" fill="#d3f2f1"/><path d="m570.7 329.4h1.9v3.1h-1.9z" fill="#03c7c0"/><path d="m595.7 329.4h1.9v3.1h-1.9z" fill="#03c7c0"/><rect fill="#03c7c0" height="1.9" rx=".4" width="29.5" x="569.5" y="331.8"/><rect fill="#3bd9cc" height="16.5" rx=".5" width="29.5" x="569.5" y="313.8"/><path d="m586.7 322.1c0 1.3-1 2.4-2.4 2.4s-2.4-1-2.4-2.4 1-2.4 2.4-2.4 2.4 1 2.4 2.4z" fill="#03c7c0"/><path d="m264.1 336.2.8-.8c.3-.3.6-.4 1-.4s.5 0 .6.4c.6 0 1-.6 1.7-1 .4-.3.9-.4 1.4-.5.3 0 .5-.1.8 0 .3 0 .5.3.5.5h.9c.3 0 .4 0 .5.3.3.3 0 .6 0 .9.3 0 .5 0 .6.3s.3.5 0 .8c0 .1-.1.3-.3.4l-.4.4s-.3.1-.1.3.3.4 0 .6c0 .3-.4.4-.6.5-.9.5-1.9 1-3.1 1h-1c-.5 0-1 .3-1.4.5-1.2.5-2.2 1-3.3 1.5-.5-1.3-1.2-2.6-1.7-3.7h.8c.3 0 .5-.3.6-.3.5-.3 1-.6 1.4-1l.3-.6z" fill="#da4d36"/><path d="m229.9 309.4c-1.2-.4-2.3-1.2-3.1-2-.9-.9-1.5-2-2.2-3.1-.4.5-.6 1.3-.6 1.9-.4 2.3 0 4.9 1.4 6.8.1-.1.3-.4.4-.5.5-1 4-3.2 4.2-3.1z" fill="#da4d36"/><path d="m232.1 309.6c1.4-.1 2.8-.8 4.1-1.5s2.3-1.9 3.3-2.9c.4.8.4 1.5.3 2.3-.3 2.7-1.3 5.5-3.3 7.4-.1-.3-.3-.5-.4-.8-.4-1.3-3.7-4.6-4-4.5z" fill="#da4d36"/><path d="m239.1 318.6v.4c-.1 0-.4 0-.5-.3-.4.3-.6.5-1 .8-.5.3-1 .5-1.4.8-.8.4-1.7.6-2.2 1.3-.4.5-.5 1-.4 1.7v1.2s0 .3.1.4v.4c0 .3-.3.5-.4.8l-4.1.9c-.3 0-.5 0-.8-.1-.5 0-1-.1-1.5-.3h-.4l-2-2.4c0-.3.1-.5.3-.9 0-.3 0-.4.1-.6 0-.6.1-1.2.1-1.5v-.3c0-.5-.3-1-.5-1.4-.3-.4-1-.6-1.4-.9-.3-.1-.5-.4-.8-.5h-.3c0-.1-.5-.1-.5-.1 0-.1.1-.3.3-.4h-.3c0-.1.3-.3.4-.5-.1 0-.4 0-.5.1.3-.3.4-.5.5-.8h-.4c0-.1.3-.3.4-.5h-.5c.3-.3.6-.5 1-.8.8-.8 1.5-1.8 2-2.8v-.3c0-.1.1-.4.3-.5l.4-1c0-.1.1-.3.3-.5.3-.5.8-.9 1.4-1l1.2-.4h.3c0-.1.1-.1.3-.1 1.8-.5 3.8-.4 5.5.4h.4c0 .1.8.5.8.5.3 0 .4.3.6.4.5.5.8 1.3.9 1.8v.5c.1.6.4 1.2.6 1.8.5 1.2 1.2 2.2 1.9 3.2 0 0 0 .1.1.3h-.3c0 .3 0 .4.1.5 0 0-.3 0-.4-.1.1.3.3.5.4.8h-.4c.1.1.3.4.3.5h-.4.4z" fill="#da4d36"/><path d="m219.3 365.7h23v10.7h-23z" fill="#49acea"/><path d="m219.3 421.2h6.1l3.1-44.8h-9.2z" fill="#49acea"/><path d="m230.9 429.3h-9.8c-1 0-1.8-.8-1.8-1.8v-6.4h6.1v4.3l5.6 2.7c.5.3.4 1-.3 1.2h.1z" fill="#03405c"/><path d="m230.9 429.3-7.9-3.8v-4.3h2.4v4.3l5.6 2.7c.5.3.4 1-.3 1.2h.1z" fill="#045378"/><path d="m223 421.9h2.4v.6h-2.4z" fill="#49acea"/><path d="m223 423.3h2.4v.6h-2.4z" fill="#49acea"/><path d="m223 424.7h2.4v.6h-2.4z" fill="#49acea"/><path d="m233.2 421.2h6.1l3-44.8h-9.1z" fill="#49acea"/><path d="m244.8 429.3h-9.8c-1 0-1.8-.8-1.8-1.8v-6.4h6.1v4.3l5.6 2.7c.5.3.4 1-.3 1.2h.1z" fill="#03405c"/><path d="m244.8 429.3-7.9-3.8v-4.3h2.4v4.3l5.6 2.7c.5.3.4 1-.3 1.2h.1z" fill="#045378"/><path d="m236.8 421.9h2.4v.6h-2.4z" fill="#49acea"/><path d="m236.8 423.3h2.4v.6h-2.4z" fill="#49acea"/><path d="m236.8 424.7h2.4v.6h-2.4z" fill="#49acea"/><path d="m234.4 333c2 5 4.3 10.1 8.4 13.7.6.6 1.4 1.2 2.3 1.5 1.7.8 3.5.8 5.2.6 2.6-.1 5.2-.6 7.5-1.9 1.4-.8 2.8-1.9 2.9-3.6 0-1.2-.4-2.3-1-3.2-.3-.5-.6-1-1.3-1.3-.3-.1-.6-.3-.9-.3-1.2-.1-2.4-.1-3.6 0-.6.1-1.2.3-1.8.4-2 .1-4-1.2-5.4-2.6s-2.4-2.8-3.5-4.3c-1-1.8-1.9-3.8-3.3-5.5-1-1-2.3-1.9-3.7-2.3-1-.4-3.1-1-3.8 0-.9 1 0 2.9.3 4.1.5 1.5 1.2 3.2 1.7 4.7h-.1z" fill="#03405c"/><path d="m238.3 402.9h-2.6s-.1 0-.1-.1 0-.1.1-.1h2.6s.1 0 .1.1 0 .1-.1.1z" fill="#2976b3"/><path d="m224.1 402.9h-2.6s-.1 0-.1-.1 0-.1.1-.1h2.6s.1 0 .1.1 0 .1-.1.1z" fill="#2976b3"/><path d="m233.1 330.5c-.5 1.3-1.2 2.4-1.7 3.7-.6 1.4-1.2 2.7-1.8 4.1-1.8 4-3.6 8.1-6.9 11.1-.3.3-.6.5-.9.5s-.5 0-.8-.3c-.1 0-.4-.1-.5-.3 0 0-.3 0-.4-.1-.3 0-.4-.3-.6-.4s-.1 0-.3-.1c0 0-.3-.1-.4-.3-.3-.1-.5-.3-.8-.5-.3-.1-.4-.3-.6-.5-.4-.3-.8-.6-1.2-.9-.8-.6-1.5-1.3-1.9-2.2-.3-.6-.4-1.4-.4-2.2 0-2.2.5-4.3 1.2-6.5.9-3.5 1.9-7 4.3-9.7 1.8-2 4.5-3.5 7.3-4.1 1.5-.3 3.1-.4 4.6 0 .4 0 .9 0 1.4.3.9.1 6.5 3.6 7 4.1 1.4 1.4-5.9 2.9-6.6 4.5v-.3z" fill="#03405c"/><path d="m243.6 342.4c.4 4.3.8 8.6.8 12.9s0 5.4-.4 8.1c0 .9 0 2.4-.4 3.2-.5.8-1.5.8-2.3.9-6 .4-11.9.5-17.9.3-1.7 0-4.7.1-5.6-1.3-.5-.9-.4-16.2-.4-18.9s.5-6.9 1.4-10.2c.4-1.7.8-3.2 1.3-4.9.6-1.9 1.3-3.8 2.4-5.5s3.3-2.4 5.4-2.8c1.8-.4 3.6-.4 5.4-.3 1.5 0 3.3 0 4.6 1 .9.8 3.8 4.3 4.1 5.5.8 2.9 1 5.9 1.3 8.8 0 1 .3 2.2.3 3.2h.1z" fill="#03405c"/><path d="m221.7 333.7c0 .3-.4 1-.5 1.3-.5 1.4-.9 2.8-1.4 4.2-.9 2.8-2 5.5-2.6 8.4-.3-.1-.4-.3-.6-.5 0-.8 3.1-9.8 5-13.5h.1z" fill="#045378"/><path d="m241.5 339.7c-.4-1.4-.6-3.3-.8-3.6 1.7 3.2 2.3 7.8 3.2 11.2 0 0-1.3-4-2.4-7.8z" fill="#045378"/><path d="m263.8 342.6c.4-.3.6-.5.9-.9.5-.8.5-1.7.3-2.6-.3-.9-.8-1.7-1.2-2.3-.3-.4-.6-.9-1.2-1h-.9c-1 .3-1.9.9-2.8 1.7-.9.6-1.8 1.4-2 2.6-.1.5-.1 1-.1 1.5 0 .9 0 3.2 1.3 3.2s2.8-.5 3.8-1c.8-.4 1.4-.8 2-1.2z" fill="#03405c"/><path d="m221.4 375.1c-2.2 2.6-3.5 5.8-4.1 8.9-.4 2.2-.8 4.7-2.7 5.8.4.3.9.3 1.2 0-1.8 2.2-2.6 5-4 7.5-1.3 2.6-3.6 5-6.4 5 1.2.5 2.6.5 3.7 0-.9 3.3-3.5 6.3-6.5 7.7 3.8.5 7.8-1.2 10.1-4.2.3.6-.4 1.2-.8 1.5 4.3-2.3 7.8-6.3 9.6-10.7.3.1 0 1.2 0 1.2 2.9-4 4.3-8.8 4.7-13.7.1-2.2 0-4.3.5-6.5s1.4-4.3 3.2-5.5c.3-.1.5-.3.5-.5.4-1.2-4.2.3-4.7.5-1.7.8-3.2 1.9-4.3 3.2z" fill="#da4d36"/><path d="m218.4 399.8c0 1-.3 2-.6 2.9-1.5 1.7-3.7 3.5-5.8 4.5.4-.4.9-1.2.8-1.5-2.3 3.1-6.4 4.7-10.1 4.2 3.2-1.4 5.6-4.3 6.5-7.7-1.2.5-2.6.5-3.7 0 2.8 0 5.1-2.4 6.5-5 0 0 0-.3.1-.4.6-.5 1.2-1 1.7-1.5-.3 3.1-1.4 6.1-3.1 8.7 1.4-.9 2.7-2 3.7-3.3-.1.9-.3 1.8-.4 2.7 1.7-.9 3.2-2.2 4.3-3.7z" fill="#efecf0"/><path d="m224.9 321.3s.1 0 .3-.1h.5c2.8 0 5.5.1 8.3.3h.6c.3.6 2 2.6 2.3 2.9-1 0-14.8-.8-14.8-.8.3-.1 2.3-1.9 2.7-2.3z" fill="#045378"/><path d="m282.7 87 1.3-2.3 1.2 2.3 2.3 1.3-2.3 1.3-1.2 2.4-1.3-2.4-2.5-1.3z" fill="#fff"/><path d="m416.9 220.2 1.3-2.4 1.3 2.4 2.3 1.3-2.3 1.3-1.3 2.3-1.3-2.3-2.4-1.3z" fill="#fff"/><path d="m247.8 220.2 1.3-2.4 1.2 2.4 2.3 1.3-2.3 1.3-1.2 2.3-1.3-2.3-2.4-1.3z" fill="#fff"/><path d="m588.6 115.5 1.2-2.3 1.3 2.3 2.5 1.3-2.5 1.3-1.3 2.4-1.2-2.4-2.3-1.3z" fill="#fff"/><path d="m280.2 133.6c-.3 0-.5 0-.5-.4l-1.2-2.2-2.2-1.2c-.3 0-.4-.4-.4-.5s0-.5.4-.5l2.2-1.2 1.2-2.2c.3-.4.9-.4 1.2 0l1.2 2.2 2.2 1.2c.3 0 .4.4.4.5s0 .5-.4.5l-2.2 1.2-1.2 2.2c0 .3-.4.4-.5.4h-.1zm-2.3-4.3 1.3.8s.3.1.3.3l.8 1.3.8-1.3s.1-.3.3-.3l1.3-.8-1.3-.8s-.3-.1-.3-.3l-.8-1.3-.8 1.3s-.1.3-.3.3z" fill="#fff"/><path d="m314.1 257.2c-.3 0-.5 0-.5-.4l-1.2-2.2-2.2-1.2c-.3 0-.4-.4-.4-.5s0-.5.4-.5l2.2-1.2 1.2-2.2c.3-.4.9-.4 1.2 0l1.2 2.2 2.2 1.2c.3 0 .4.4.4.5s0 .5-.4.5l-2.2 1.2-1.2 2.2c0 .3-.4.4-.5.4h-.1zm-2.3-4.3 1.3.8s.3.1.3.3l.8 1.3.8-1.3s.1-.3.3-.3l1.3-.8-1.3-.8s-.3-.1-.3-.3l-.8-1.3-.8 1.3s-.1.3-.3.3z" fill="#fff"/><path d="m716.7 115.3c-.3 0-.5 0-.5-.4l-1.2-2.2-2.2-1.2c-.3 0-.4-.4-.4-.5s0-.5.4-.5l2.2-1.2 1.2-2.2c.3-.4.9-.4 1.2 0l1.2 2.2 2.2 1.2c.3 0 .4.4.4.5s0 .5-.4.5l-2.2 1.2-1.2 2.2c0 .3-.4.4-.5.4h-.1zm-2.3-4.4 1.3.8s.3.1.3.3l.8 1.3.8-1.3s.1-.3.3-.3l1.3-.8-1.3-.8s-.3-.1-.3-.3l-.8-1.3-.8 1.3s-.1.3-.3.3z" fill="#fff"/><path d="m489 65.4c-.3 0-.5 0-.5-.4l-1.2-2.2-2.2-1.2c-.3 0-.4-.4-.4-.5s0-.5.4-.5l2.2-1.2 1.2-2.2c0-.3.4-.4.5-.4.3 0 .5 0 .5.4l1.2 2.2 2.2 1.2c.3 0 .4.4.4.5s0 .5-.4.5l-2.2 1.2-1.2 2.2c0 .3-.4.4-.5.4zm-2.3-4.2 1.3.8s.3.1.3.3l.8 1.3.8-1.3s.1-.3.3-.3l1.3-.8-1.3-.8s-.3-.1-.3-.3l-.8-1.3-.8 1.3s-.1.3-.3.3z" fill="#fff"/><path d="m763.1 192.5 1.2-2.3 1.3 2.3 2.3 1.3-2.3 1.2-1.3 2.3-1.2-2.3-2.5-1.2z" fill="#fff"/><path d="m439.3 72.8 1.2-2.4 1.3 2.4 2.3 1.3-2.3 1.3-1.3 2.3-1.2-2.3-2.3-1.3z" fill="#fff"/><path d="m242.5 274.5c-.1 0-.4 0-.5-.3-.5-.6-1.2-1.3-1.7-1.9-.3-.3-.3-.6 0-.9s.6-.3.9 0l1.7 1.9c.3.3.3.6 0 .9 0 0-.3.1-.4.1z" fill="#fff"/><path d="m237.6 268.7c-.1 0-.4 0-.5-.3-1.2-1.4-2.2-2.8-3.2-4.1-.3-.3-.1-.6.1-.9s.6-.1.9.1c.8 1.2 1.7 2.3 2.6 3.5l2.9-4.1c.3-.3.6-.4.9-.1s.4.6.1.9l-3.1 4.2-.3.3c0 .1 0 .4-.3.4 0 0-.3.1-.4.1h.1zm-6.2-8.5c-.3 0-.4 0-.5-.3-.9-1.5-1.9-2.9-2.7-4.5s0-.6.3-.9c.3-.1.6 0 .9.3.8 1.4 1.8 2.9 2.7 4.3.1.3 0 .6-.1.9h-.5zm12.5-.5h-.4c-.3-.3-.4-.6-.1-.9l3.1-4.2c.3-.3.6-.4.9-.1s.4.6.1.9l-3.1 4.2c0 .1-.4.3-.5.3zm6.1-8.4h-.4c-.3-.3-.4-.6-.1-.9l3.1-4.2c.3-.3.6-.4.9-.1s.4.6.1.9l-3.1 4.2c0 .1-.4.3-.5.3zm-23.7-.1c-.3 0-.5-.1-.6-.4-.8-1.5-1.4-3.2-2-4.9-.1-.4 0-.6.4-.8s.6 0 .8.4c.6 1.5 1.3 3.2 2 4.7s0 .6-.3.9h-.3zm29.7-8.4h-.4c-.3-.3-.4-.6-.1-.9l3.1-4.2c.3-.3.6-.4.9-.1s.4.6.1.9l-3.1 4.2c0 .1-.4.3-.5.3zm-33.4-1.2c-.3 0-.5-.1-.6-.5-.5-1.7-.9-3.3-1.3-5.1 0-.4.1-.6.5-.8.4 0 .6.1.8.5.4 1.7.8 3.3 1.3 5 0 .4 0 .6-.4.8h-.3zm39.5-7.2h-.4c-.3-.3-.4-.6-.1-.9l3.1-4.2c.3-.3.6-.4.9-.1s.4.6.1.9l-3.1 4.2c0 .1-.4.3-.5.3zm-41.5-3.1c-.4 0-.6-.3-.6-.5-.1-1.8-.3-3.5-.3-5.2s.3-.6.6-.6c.4 0 .6.3.6.6 0 1.7 0 3.5.3 5.1 0 .4-.3.6-.5.6zm47.5-5.3h-.4c-.3-.3-.4-.6-.1-.9l3.1-4.2c.3-.3.6-.4.9-.1s.4.6.1.9l-3.1 4.2c0 .1-.4.3-.5.3zm-47.5-5c-.4 0-.6-.4-.5-.8.1-1.8.5-3.5.9-5.2 0-.4.4-.5.8-.5s.5.4.5.8c-.4 1.7-.6 3.3-.9 5 0 .4-.3.5-.6.5v.3zm53.5-3.5h-.4c-.3-.3-.4-.6-.1-.9l3.1-4.2c.3-.3.6-.4.9-.1s.4.6.1.9l-3.1 4.2c0 .1-.4.3-.5.3zm6.7-3.9h-.8c-.4 0-.6-.4-.6-.6 0-.4.4-.6.6-.6 1.7 0 3.3-.3 4.6-1.2.3-.3.6 0 .9.1.3.3 0 .6-.1.9-1.3.9-2.9 1.3-4.6 1.3zm-5.5-1.8h-.4c-.5-.4-.9-.6-1.4-1-.9-.8-1.7-1.8-2.3-2.9-.1-.3 0-.6.3-.9.3-.1.6 0 .9.3.6 1 1.3 1.9 2 2.7s.8.6 1.2.9c.3.3.4.6.1.9 0 .1-.4.3-.5.3h.1zm-52.4-.9h-.3c-.4 0-.5-.5-.4-.8.6-1.7 1.3-3.3 2.2-4.9.1-.3.5-.4.9-.3.3.1.4.5.3.9-.8 1.5-1.5 3.1-2 4.6 0 .3-.4.4-.6.4zm57.3-1.8h-.4c-.3-.3-.4-.6-.1-.9l3.1-4.2c.3-.3.6-.4.9-.1s.4.6.1.9l-3.1 4.2c0 .1-.4.3-.5.3zm7.8-.9h-.3c-.4 0-.5-.5-.4-.8.3-.9.4-1.9.4-2.9s0-1.3-.1-1.9c0-.4.1-.6.5-.8.4 0 .6.1.8.5.1.8.3 1.4.3 2.2 0 1.2-.1 2.3-.5 3.3 0 .3-.4.4-.6.4zm-18.1-5c-.3 0-.5-.3-.6-.5-.3-1.2-.4-2.6-.5-3.8v-1.4c0-.5.3-.6.6-.6s.6.3.6.6v1.4c0 1.3.3 2.4.5 3.6 0 .4-.1.6-.5.8h-.1zm-42.2-1.4h-.4c-.3-.3-.4-.6-.1-.9 1-1.4 2.2-2.8 3.3-4.1.3-.3.6-.3.9 0s.3.6 0 .9c-1.2 1.3-2.3 2.6-3.2 4 0 .1-.4.3-.5.3zm58.6-1.1h-.4c-.3-.3-.4-.6-.1-.9l3.1-4.2c.3-.3.6-.4.9-.1s.4.6.1.9l-3.1 4.2c0 .1-.4.3-.5.3zm0-2.3c-.3 0-.4 0-.5-.3-.9-1.3-2-2.4-3.5-3.7-.3-.3-.3-.6 0-.9s.6-.3.9 0c1.5 1.3 2.7 2.6 3.6 4 .3.3.1.6-.1.9zm-51.4-4.1c-.1 0-.4 0-.5-.3-.3-.3-.1-.6 0-.9 1.4-1.2 2.8-2.2 4.3-3.1.3-.1.6 0 .9.3.1.3 0 .6-.3.9-1.4.9-2.8 1.9-4.2 2.9 0 0-.3.1-.4.1h.1zm35-1.4c-.4 0-.5-.4-.5-.8.4-1.7.9-3.5 1.5-5.1.1-.4.5-.5.8-.4.4.1.5.5.4.8-.6 1.5-1.2 3.2-1.4 4.9 0 .3-.4.5-.6.5h-.1zm22.4-.7h-.4c-.3-.3-.4-.6-.1-.9l3.1-4.2c.3-.3.6-.4.9-.1s.4.6.1.9l-3.1 4.2c0 .1-.4.3-.5.3zm-13.7-.7h-.4c-1.4-.9-2.9-1.7-4.5-2.3-.4-.1-.5-.5-.4-.9s.5-.5.9-.4c1.7.6 3.2 1.5 4.7 2.4.3.1.4.6.3.9 0 .3-.4.3-.5.3zm-34.9-2.6c-.3 0-.5-.1-.6-.4-.1-.4 0-.6.4-.9 1.7-.6 3.3-1.3 5-1.8.4 0 .6 0 .8.4 0 .4 0 .6-.4.8-1.7.5-3.2 1-4.9 1.7h-.3v.3zm25.3-1.5h-.1c-1.7-.5-3.3-.8-5-1-.4 0-.6-.4-.5-.8 0-.4.4-.6.8-.5 1.8.3 3.5.6 5.1 1.2.4 0 .5.5.4.8 0 .3-.4.5-.6.5zm-15.3-1.2c-.3 0-.6-.3-.6-.5 0-.4.3-.6.5-.8 1.5-.3 3.2-.3 4.9-.3h.4c.4 0 .6.3.6.6s-.3.6-.6.6h-.4c-1.5 0-3.2 0-4.7.3zm60.9-.9c-.4 0-.6-.3-.6-.6s.3-.6.6-.6c1.7 0 3.1-.9 3.8-2.2.1-.3.5-.4.9-.3.3.1.4.5.3.9-.9 1.7-2.8 2.7-4.9 2.8zm-16.3-1.5h-.4c-.3-.3-.4-.6-.1-.9l3.1-4.2c.3-.3.6-.4.9-.1s.4.6.1.9l-3.1 4.2c0 .1-.4.3-.5.3zm11.6-.4c-.1 0-.3 0-.4-.1-.9-.8-1.5-1.7-2-2.8-.3-.6-.5-1.3-.8-1.9 0-.4 0-.6.4-.8.4 0 .6 0 .8.4.1.6.4 1.2.6 1.7.5.9 1 1.8 1.8 2.4.3.3.3.6 0 .9 0 .1-.3.3-.5.3h.1zm-36.3-.1h-.4c-.3-.1-.4-.5-.3-.9.9-1.5 1.9-2.9 3.1-4.3.3-.3.6-.3.9 0s.3.6 0 .9c-1 1.3-2 2.7-2.9 4.2 0 .3-.4.3-.5.3h.1zm45.6-5.5c-.3 0-.5-.3-.6-.5-.4-1.4-1.2-2.8-2.3-4.3-.3-.3-.1-.6 0-.9.3-.3.6-.1.9 0 1.3 1.7 2 3.2 2.4 4.9 0 .4 0 .6-.5.8h-.1.3zm-14.8-2.4h-.4c-.3-.3-.4-.6-.1-.9l2-2.8c0-1.2 0-2.4.3-3.6 0-.4.4-.6.8-.5.4 0 .6.4.5.8 0 .5-.1 1.2-.1 1.7h.5c.3.3.4.6.1.9l-.8 1.2v1.3h-1.3.4l-1.3 1.8c0 .1-.4.3-.5.3h-.1zm-24.3-.2c-.1 0-.4 0-.5-.3-.3-.3-.3-.6 0-.9 1.3-1.2 2.7-2.3 4.1-3.3.3-.3.6-.1.9.1s.1.6-.1.9c-1.4 1-2.7 2-4 3.2 0 0-.3.1-.4.1zm33.3-5.7c-.1 0-.3 0-.4-.1-1.3-1-2.7-1.8-4.3-2.3-.4 0-.5-.5-.4-.8 0-.4.5-.5.8-.4.3 0 .5.3.8.3 0-.1 3.1-4.3 3.1-4.3.3-.3.6-.4.9-.1s.4.6.1.9l-2.9 4.1c1 .5 1.9 1 2.8 1.7.3.3.4.6 0 .9 0 .1-.3.3-.5.3h.1zm-24.7-.2c-.3 0-.5-.1-.5-.4-.1-.3 0-.6.3-.9 1.4-.6 2.8-1.3 4.2-1.8.3 0 .5-.1.8-.3.4 0 .6 0 .8.4 0 .4 0 .6-.4.8-.3 0-.5.1-.6.3-1.4.5-2.7 1-4 1.7h-.3l-.3.3zm9.8-3c-.3 0-.6-.3-.6-.5 0-.4.3-.6.5-.8 1.8-.3 3.6-.4 5.2-.3.4 0 .6.4.6.6 0 .4-.3.6-.6.6-1.7 0-3.3 0-5 .3h-.1zm9.4-2.6h-.1c-.4 0-.5-.5-.4-.8.5-1.7 1.2-3.3 1.9-5 .1-.3.5-.5.9-.3.3.1.5.5.3.9-.8 1.5-1.3 3.1-1.8 4.7 0 .3-.4.5-.6.5h-.1zm8.5-5.2h-.4c-.3-.3-.4-.6-.1-.9l3.1-4.2c.3-.3.6-.4.9-.1s.4.6.1.9l-3.1 4.2c0 .1-.4.3-.5.3zm-4.1-4.1h-.4c-.3-.3-.4-.6-.1-.9.3-.4.5-.8.9-1.2.8-1 1.7-1.9 2.7-2.8.3-.3.6-.3.9 0s.3.6 0 .9c-.9.9-1.8 1.8-2.6 2.7-.3.4-.5.8-.8 1 0 .1-.4.3-.5.3zm10.3-4.4h-.4c-.3-.3-.4-.6-.1-.9l3.1-4.2c.3-.3.6-.4.9-.1s.4.6.1.9l-3.1 4.2c0 .1-.4.3-.5.3zm-2.9-2.8c-.3 0-.4 0-.5-.3-.3-.3 0-.6.1-.9 1.5-1 3.1-1.8 4.7-2.4.4-.1.6 0 .9.4.1.4 0 .6-.4.9-1.5.6-3.1 1.4-4.5 2.4h-.4z" fill="#fff"/><path d="m329.5 143.3c-.3 0-.6-.3-.6-.5 0-.4.1-.6.5-.8.9-.1 1.8-.3 2.6-.4.4 0 .6.3.6.5 0 .4-.3.6-.5.8z" fill="#fff"/><path d="m396.7 170.5v-.9h.6c.4 0 .8-.4.8-.8s-.4-.8-.8-.8h-2.8c-.4 0-.8.4-.8.8s.4.8.8.8h.6v.9c-2 .1-3.7 1.2-5 2.6l-.5-.5.5-.5v-.3l-.8-.8h-.3l-2 2v.3l.8.8h.3l.5-.5.8.8c-.5.9-.8 2-.8 3.2 0 4 3.2 7.2 7.2 7.2s7.2-3.2 7.2-7.2-2.7-6.6-6.1-7h-.1z" fill="#7ebcd9"/><path d="m400 177.5c0 2.4-1.9 4.3-4.3 4.3s-4.3-1.9-4.3-4.3 1.9-4.3 4.3-4.3 4.3 1.9 4.3 4.3z" fill="#fff"/><path d="m395.7 173.2c-2.4 0-4.3 1.9-4.3 4.3h4.3z" fill="#ffbd32"/><path d="m257 108.8 8.3-8.9h-16.6z" fill="#da4d36"/><path d="m248.7 113h16.6l-5.5-5.9-2.8 3.1-2.8-3.1z" fill="#da4d36"/><path d="m265.5 101v11.2l-5.2-5.6z" fill="#da4d36"/><path d="m248.5 101v11.2l5.3-5.6z" fill="#da4d36"/><path d="m369.6 254.5h-4.5c-.3 0-.5-.3-.6-.5l-1-4.2c-.8-.3-1.4-.5-2-.9l-3.7 2.3c-.3.1-.6 0-.8 0l-3.2-3.2c-.3-.3-.3-.5 0-.8l2.3-3.8c-.3-.6-.5-1.3-.8-1.9l-4.3-1c-.3 0-.5-.4-.5-.6v-4.5c0-.3.3-.5.5-.6l4.5-1c.3-.6.5-1.2.8-1.8l-2.4-4c-.1-.3 0-.6 0-.8l3.2-3.2c.3-.3.5-.3.8 0l4 2.4c.5-.3 1.2-.5 1.7-.6l1-4.6c0-.3.4-.5.6-.5h4.5c.3 0 .5.3.6.5l1.2 4.6c.6.1 1.2.4 1.7.6l4-2.4c.3-.1.6 0 .8 0l3.2 3.2c.3.3.3.5 0 .8l-2.4 4c.3.6.5 1.2.8 1.8l4.5 1c.3 0 .5.4.5.6v4.5c0 .3-.3.5-.5.6l-4.3 1c-.3.6-.5 1.4-.8 1.9l2.3 3.8c.1.3 0 .6 0 .8l-3.2 3.2c-.3.3-.5.3-.8 0l-3.7-2.3c-.6.4-1.4.6-2 .9l-1 4.2c0 .3-.4.5-.6.5h.1zm-4.1-1.3h3.5l1-4.1c0-.3.3-.4.4-.5.9-.3 1.7-.6 2.4-1h.6l3.6 2.3 2.4-2.4-2.3-3.7c0-.3-.1-.4 0-.6.4-.8.8-1.5.9-2.4 0-.3.3-.4.5-.5l4.2-1v-3.5l-4.3-1c-.3 0-.4-.3-.5-.4-.3-.8-.5-1.5-.9-2.2v-.6l2.4-3.8-2.4-2.4-3.8 2.4h-.6c-.6-.4-1.4-.6-2.2-.9-.3 0-.5-.4-.5-.6l-1-4.2h-3.5l-1 4.3c0 .3-.1.5-.4.6-.8.3-1.5.5-2.2.9h-.6l-3.8-2.4-2.4 2.4 2.4 3.8c0 .3.1.4 0 .6-.4.8-.8 1.4-.9 2.2 0 .3-.3.4-.5.4l-4.3 1v3.5l4.2 1c.3 0 .4.3.5.5.3.9.5 1.7.9 2.4v.6l-2.3 3.7 2.4 2.4 3.6-2.3c.3 0 .4-.1.6 0 .8.4 1.7.8 2.4 1 .3 0 .4.3.4.5l1 4.1h.1zm1.8-10.6c-2.8 0-5.1-2.3-5.1-5.1s2.3-5.1 5.1-5.1 5.1 2.3 5.1 5.1-2.3 5.1-5.1 5.1zm0-9c-2 0-3.8 1.7-3.8 3.8s1.7 3.8 3.8 3.8 3.8-1.7 3.8-3.8-1.7-3.8-3.8-3.8z" fill="#fff"/><path d="m336.2 232.9c0 .4.3.9.5 1.3l-1.3 2 1.5 1.5 2-1.3c.4.3.9.4 1.3.5l.5 2.3h2.3l.5-2.3c.5-.1.9-.3 1.3-.5l2 1.3 1.5-1.5-1.3-2c.3-.4.4-.8.5-1.3l2.3-.5v-2.3l-2.4-.5c0-.4-.3-.8-.5-1.2l1.3-2.2-1.5-1.5-2.2 1.3c-.4-.1-.8-.4-1.2-.5l-.6-2.4h-2.3l-.6 2.4c-.4 0-.8.3-1.2.5l-2.2-1.3-1.5 1.5 1.3 2.2c-.3.4-.4.8-.5 1.2l-2.4.5v2.3l2.3.5h.5zm3.6-1.7c0-1.3 1-2.2 2.2-2.2s2.2 1 2.2 2.2-1 2.2-2.2 2.2-2.2-1-2.2-2.2z" fill="#ffbd32"/><path d="m386.6 245.9c.1.5.4 1 .6 1.5l-1.5 2.6 1.9 1.9 2.4-1.5c.5.3 1 .5 1.5.6l.6 2.8h2.7l.6-2.8c.5-.1 1.2-.4 1.5-.6l2.4 1.5 1.9-1.9-1.5-2.6c.3-.5.5-1 .6-1.5l2.9-.6v-2.7l-2.9-.6c-.1-.5-.4-1-.6-1.4l1.7-2.6-1.9-1.9-2.7 1.7c-.4-.3-.9-.4-1.4-.5l-.8-3.1h-2.7l-.8 3.1c-.5.1-.9.4-1.4.5l-2.7-1.7-1.9 1.9 1.7 2.6c-.3.5-.5.9-.6 1.4l-2.9.6v2.7l2.9.6h.3zm4.3-2c0-1.5 1.2-2.7 2.7-2.7s2.7 1.2 2.7 2.7-1.2 2.7-2.7 2.7-2.7-1.2-2.7-2.7z" fill="#5493b0"/><rect fill="#7ebcd9" height="9.6" rx=".8" width="13.8" x="276.9" y="241.8"/><path d="m290.1 244.6h-12.8v-5.4c0-3.6 2.8-6.4 6.4-6.4s6.4 2.8 6.4 6.4zm-10.9-1.9h9.1v-3.5c0-2.4-2-4.5-4.5-4.5s-4.5 2-4.5 4.5v3.5z" fill="#7ebcd9"/><path d="m285.2 246.8c0-.8-.6-1.3-1.3-1.3s-1.3.6-1.3 1.3.1.6.4.9v1.7h1.9v-1.7c.3-.3.4-.5.4-.9z" fill="#045378"/><path d="m389.8 66.1h24.3v1.8h-24.3z" fill="#ffbd32"/><path d="m407.7 67.8h5.5v1.2h-5.5z" fill="#ffbd32"/><path d="m410.3 71.7h.6z" fill="#ffbd32"/><path d="m412.9 70.7h-.6v1h-1.4v-1.7h-.6v1.7h-1.6v-1h-.6v1h-1v-2.7h7v2.7h-1.2z" fill="#ffbd32"/><path d="m391.1 67.8v-2c0-.1.1-.4.4-.4.1 0 .4.1.4.4v2c0 .1-.1.4-.4.4-.1 0-.4-.1-.4-.4z" fill="#ffbd32"/><path d="m390.4 67.8v-2c0-.1.1-.4.4-.4.1 0 .4.1.4.4v2c0 .1-.1.4-.4.4-.1 0-.4-.1-.4-.4z" fill="#ffbd32"/><path d="m390.7 66.8c0-3.1-2.6-5.6-5.6-5.6s-5.6 2.6-5.6 5.6 2.6 5.6 5.6 5.6 5.6-2.6 5.6-5.6zm-8.2 0c0-1.4 1.2-2.6 2.6-2.6s2.6 1.2 2.6 2.6-1.2 2.6-2.6 2.6-2.6-1.2-2.6-2.6z" fill="#ffbd32"/><path d="m336.5 136c-1.3-1.5-2.7-2.8-3.5-4.7-.3-.8-.4-1.5-.4-2.4 0-1.8.3-3.7 1.2-5.2.9-1.7 2.3-2.9 4-3.6.8-.3 1.4-.4 2.2-.5 3.6-.4 7.4 1 9.3 4 1.5 2.3 1.8 5.5.6 8.1-.8 1.7-1.9 3.2-2.9 4.7-.8 1.3-1.4 2.7-1.4 4.2s-.4 1-.9 1c-1.8.1-5.2.9-5.9 0-.4-.6-.4-1.7-.5-2.4-.4-1.2-1-2.3-1.9-3.2z" fill="#ffbd32"/><path d="m344.7 142.5c.3 0 .5 0 .8.3.4.1.3.6 0 .8h-.3c-.9.1-1.8 0-2.7 0h-2.2c-.4 0-1.2 0-1-.5 0-.5.6-.6 1-.6h2.2c.8 0 1.5 0 2.3.3h-.1z" fill="#a5a5a5"/><path d="m344.7 144c.3 0 .5 0 .8.3.4.1.3.6 0 .8h-.3c-.9.1-1.8 0-2.7 0h-2.2c-.4 0-1.2 0-1-.5 0-.5.6-.6 1-.6h2.2c.8 0 1.5 0 2.3.3h-.1z" fill="#cbc9cc"/><path d="m344.7 145.4c.3 0 .5 0 .8.3.4.1.3.6 0 .8h-.3c-.9.1-1.8 0-2.7 0h-2.2c-.4 0-1.2 0-1-.5 0-.5.6-.6 1-.6h2.2c.8 0 1.5 0 2.3.3h-.1z" fill="#a5a5a5"/><path d="m344.7 147c.3 0 .5 0 .8.3.4.1.3.6 0 .8h-.3c-.9.1-1.8 0-2.7 0h-2.2c-.4 0-1.2 0-1-.5 0-.5.6-.6 1-.6h2.2c.8 0 1.5 0 2.3.3h-.1z" fill="#cbc9cc"/><path d="m340.5 148.6c.4.6 1.2 1.2 2 1.2s1.5-.4 2-1.2h-4.1z" fill="#a5a5a5"/><path d="m341.5 141.6c-.3 0-.4-.1-.4-.4l-.3-5.9v-3.3c.1-.8.6-1.7 1.4-1.7s.9.4 1.2 1c.1.4 0 .9 0 1.3l-.3 8.2c0 .3-.3.4-.4.4-.3 0-.4-.3-.4-.4l.3-8.2v-1c0-.3-.3-.4-.4-.4-.3 0-.5.4-.5 1-.1 1-.1 2 0 3.1l.3 5.9c0 .3-.1.4-.4.4z" fill="#605f61"/><path d="m338.4 130.5c-.5 0-.9-.5-.9-1.3v-.5c-.3.1-.4.5-.3.9 0 .3 0 .5-.3.5s-.5 0-.5-.3c-.3-.6 0-1.4.5-1.8.3-.1.5-.3.8-.3 0 0 .1-.3.3-.3.4-.3.8-.3 1.2-.3s.8 0 1.2.1c.5-.4 1.3-.5 1.9-.3.1 0 .3.1.4.3.4-.4 1-.5 1.5-.5s.6.3.9.4c.6-.5 1.4-.6 2-.4.8.3 1.4 1.2 1.4 1.9s-.3.4-.4.4c-.3 0-.4-.3-.4-.4 0-.5-.4-.9-.8-1.2-.4-.1-.9 0-1.3.3 0 0 0 .3.1.3.4.8.3 1.5-.1 2 0 .1-.3.1-.5 0-.5-.3-.9-.8-.9-1.4s0-.6.3-1c-.1 0-.4-.1-.5-.3-.4 0-.6 0-.9.3.3.4.6.9.5 1.4 0 0 0 .3-.1.4-.3.3-.5.3-.9 0-.6-.4-.9-1.3-.6-1.9 0 0-.1-.1-.3-.3h-.9c.3.4.4.9.5 1.3 0 .6 0 1.2-.5 1.2s-.8 0-1-.5c-.4-.5-.4-1.3 0-1.9h-1.2c.5.4.8 1.2.4 1.8-.1.4-.5.6-.9.6l.3.6zm-.1-1.8v.5c0 .3 0 .5.1.5.1-.4 0-.8-.3-1h.1zm2.2-.1c0 .3 0 .6.1.9v-.3c0-.3 0-.5-.1-.8zm4.7 0v.6z" fill="#605f61"/><path d="m573.2 83.7v-.8c0-1.4-1.2-2.7-2.7-2.7s-.9 0-1.2.3c0-1.9-1.7-3.5-3.6-3.5s-3.6 1.5-3.6 3.6 0 .4 0 .5c-1 0-1.9.9-1.9 1.9s0 .6.3.9c-.5.4-.8 1-.8 1.7 0 1.2.9 2.2 2.2 2.2h10.6c1.2 0 2.2-.9 2.2-2.2s-.6-1.8-1.7-2h.1z" fill="#7ebcd9"/><path d="m526.1 112.8 4.9 5h-9.9z" fill="#da4d36"/><path d="m524.8 116.6h2.4v7.7h-2.4z" fill="#da4d36"/><path d="m536.9 124.2-5-5h9.9z" fill="#03c7c0"/><path d="m535.6 112.8h2.4v7.7h-2.4z" fill="#03c7c0"/><rect fill="#da4d36" height="11" rx=".8" transform="matrix(.99994517 -.01047178 .01047178 .99994517 -1.6 7.2)" width="15.9" x="683.1" y="153.8"/><path d="m688.4 162.1v-4.2c0-.1.1-.3.3-.3l4.2 2c.1 0 .1.4 0 .4l-4.2 2.2c-.1 0-.4 0-.4-.3h.1z" fill="#fff"/><circle cx="343.3" cy="193.8" fill="#da4d36" r="8.8"/><path d="m349.1 197.8h-11.6c0-2.9 2.4-5.4 5.4-5.4h.9c2.9 0 5.4 2.4 5.4 5.4z" fill="#fff"/><path d="m346.1 191.6c0 1.5-1.2 2.7-2.7 2.7s-2.7-1.2-2.7-2.7 1.2-2.7 2.7-2.7 2.7 1.2 2.7 2.7z" fill="#bf3569"/><path d="m346.1 191.3c0 1.5-1.2 2.7-2.7 2.7s-2.7-1.2-2.7-2.7 1.2-2.7 2.7-2.7 2.7 1.2 2.7 2.7z" fill="#fff"/><path d="m378.4 97.9c4.6 0 8.3 2.7 8.3 5.9s-1.8 4.2-4.3 5.2v3.2l-2.6-2.6h-1.3c-4.6 0-8.3-2.7-8.3-5.9s3.7-5.9 8.3-5.9h-.1z" fill="#ffd359"/><path d="m365.5 102.9c0 2.4 1.9 4.6 4.7 5.6v3.5l2.8-2.8h1c-2.7-1-4.6-3.2-4.6-5.5 0-3.5 4-6.4 8.9-6.4s.3 0 .5 0c-1.3-.5-2.8-.8-4.3-.8-4.9 0-8.9 2.8-8.9 6.4z" fill="#3bd9cc"/><path d="m372.7 101.2h11v.8h-11z" fill="#fff"/><path d="m372.7 103.1h11v.8h-11z" fill="#fff"/><path d="m372.7 105h11v.8h-11z" fill="#fff"/><path d="m366.9 101.2h1.9v.8h-1.9z" fill="#fff"/><path d="m366.9 103.1h1.9v.8h-1.9z" fill="#fff"/><path d="m366.9 105h1.9v.8h-1.9z" fill="#fff"/><path d="m341.4 78.8c0 4.7-3.8 8.6-8.6 8.6s-8.6-3.8-8.6-8.6 3.8-8.6 8.6-8.6 8.6 3.8 8.6 8.6z" fill="#ffbd32"/><path d="m335.6 74.9h-.1c-1.2 0-2 .6-2.4 1.5 0 .3-.4.3-.5 0-.4-.9-1.4-1.5-2.4-1.5h-.1c-1.9 0-2.8 2.3-1.5 3.8l4.2 5h.4l4.2-5c1.2-1.4.3-3.7-1.5-3.8h-.1z" fill="#da4d36"/><path d="m411.1 121.9 3.5 9.3 3.5-9.3c.9-2.4-.9-4.9-3.5-4.9s-4.2 2.6-3.5 4.9zm1.8-.6c0-.9.8-1.5 1.5-1.5s1.5.8 1.5 1.5-.8 1.5-1.5 1.5-1.5-.8-1.5-1.5z" fill="#3bd9cc"/><path d="m217.4 270.6c.1 0 .4 0 .6-.1.6-.3 1.2-.9 1.2-1.7v-.6c0-.5-.3-1-.6-1.3h-.1c-.5-.3-1.2-.1-1.7 0s-.9.6-1.3 1.2-.6.9-1.2 1.3-1.2.4-1.8.5c0 0 .9 1.2 1 1.3.3.1.8 0 1 0 .9-.1 1.9-.3 2.8-.4z" fill="#d8d6d9"/><path d="m218.1 269.6c0 .3.4.3.6.1l.5-.3c.3 0 .3-.4.3-.6 0-.3-.4-.3-.6-.1l-.5.3c-.3 0-.3.4-.3.6z" fill="#d8d6d9"/><path d="m217.9 268.7c0 .3.4.3.6.1l.5-.3c.3 0 .3-.4.3-.6 0-.3-.4-.3-.6-.1l-.5.3c-.3 0-.3.4-.3.6z" fill="#d8d6d9"/><path d="m217.6 267.8c0 .3.4.3.6.1l.5-.3c.3 0 .3-.4.3-.6 0-.3-.4-.3-.6-.1l-.5.3c-.3 0-.3.4-.3.6z" fill="#d8d6d9"/><path d="m217 267.1c0 .3.4.3.6.1l.5-.3c.3 0 .3-.4.3-.6 0-.3-.4-.3-.6-.1l-.5.3c-.3 0-.3.4-.3.6z" fill="#d8d6d9"/><path d="m213.9 268.5c-1.4.5-11.2 2.8-12.7 2.8s-1.2-1-1.5-1.8c-.6-1.2-4.5-9.2-4.6-10 0-.4-.1-.6-.4-1 0-.3-.3-.4-.4-.6-.9-1.3-2.4-1.9-4-1.7-.1 0-.4 0-.5.1s-.3 0-.4.3c-.8.6-1 1.7-.8 2.6 0 .4.3.8.4 1 .6 1.4 5.4 9.6 6.4 11.1.9 1.3 1.8 2.6 2.8 3.7.4.4.9.9 1.4.9s10.5-2.9 15.2-4.6l-1.2-2.8h.1z" fill="#5493b0"/><path d="m150 273c2.2 2.7 6.3 3.7 9.2 1.9 0 0 .1 0 .3-.1.4-.3.8-.4 1.2-.5.9-.1 1.8.4 2.4 1 4.3 3.8 6.3 9.7 9.1 14.8.8 1.4 1.7 2.8 2.9 3.8 1.2.9 2.4 1.4 3.8 1.8 1.3.4 2.9.8 4.3.6 2.8-.4.9-2.2-.3-3.6-2.2-2.6-2.8-6-3.3-9.2-.4-2.2-.8-4.3-.9-6.5-.3-1.9-.4-3.8-.6-5.8-.6-3.3-1.8-6.5-3.6-9.5-1.4-2.4-3.2-4.6-5.5-6.1-3.6-2.4-8.3-3.2-12.4-1.7-6.5 2.4-11.5 12.9-6.6 18.8z" fill="#efecf0"/><path d="m158.3 274.7h1.3c.4-.3.8-.4 1.2-.5.9-.1 1.8.4 2.4 1-.4-.6-.9-1.2-1.3-1.5-1-.8-2.3-1.2-3.5-.6-.3 0-.6.4-.6.6 0 .4.3.6.5.8v.3z" fill="#a5a5a5"/><path d="m182.6 288h13.9v9.5h-13.9z" fill="#47a7e3"/><path d="m184.1 247.1c-.3-.4-.3-.9-.4-1.4v-.9c.1-.6.6-1.2.9-1.8.4-.6.5-1.4.5-2.2 0 .3.1.4.3.6.3-.8.4-1.5.4-2.3 0 .5.1 1 .3 1.7.3-.5.5-1.2.5-1.7v2c.1 0 .3-.3.3-.4v.9c.3 0 .3-.1.3-.3.1 1.2 0 2.3 0 3.5s0 .8.3 1.2c-.3.6-.6 1-1.2 1.4-.3.3-.9.8-1.4.6-.4 0-.9-.8-1-1h.4z" fill="#a5a5a5"/><path d="m190.5 260.1-.8 2.3-10.4-.3v-4.9c.1 0 2.2-2 2-3.7 0-.4-.1-.6-.4-.8-.6-.6-1.3-1.4-1.5-2.3-.4-.9-.5-1.9-.5-2.9v-1c0-1.3.9-2.3 2.2-2.7 1-.4 2.2-.5 3.2-.4 1.5 0 3.1.6 4.3 1.7l2.6 1.9c.8.6 1.2 1.7.9 2.7-.3.6-.8 1.3-1.5 1.5l-3.3 1.2c-.5.1-.8.6-.8 1.2 0 .9 3.5 2.4 3.5 2.4l2.3 3.1-1.7 1.2h-.1z" fill="#d8d6d9"/><path d="m184.1 245.8c.3.3.4.5.5.8s.5.5.8.5c.4 0 .8-.1.5-.5-.3-.6-1.2-1-1.8-.9z" fill="#03405c"/><path d="m191 248h-4.3c-.6 0-1.2.1-1.7.5-.4.3-.6.5-.8.9 0 .3 0 .5.3.8.5.8 1.5 1 2.4.9.9 0 1.8-.5 2.4-1 .8-.5 1.3-1.3 2-1.9-.3 0-.4-.3-.4-.3z" fill="#efecf0"/><path d="m189.1 259.6c0-.6-.3-1.4-.6-1.9-.6-.9-1.7-1.2-2.8-1.3-.9 0-1.8 0-2.4.8s-.5 1.9-.4 3.1c.3 1.7.5 3.2.8 4.9 0 .1 2.8.3 3.1.3.6 0 1.3 0 1.8-.4 1.2-1 .8-4 .6-5.2z" fill="#efecf0"/><path d="m190.5 248.1c.3.1.4.3.6.4.5.3 1.2-.3.6-.6-.3-.3-1.5-.1-1.4.1h.1z" fill="#03405c"/><path d="m178.2 247.1c-.4-.4-.6-.9-.9-1.4-.1-.3-.3-.6-.3-1 0-.8.3-1.5.4-2.3.1-.9 0-1.8-.3-2.7.1.1.4.4.5.6 0-.9-.1-1.9-.4-2.8.4.5.6 1.2.9 1.7v-2c.3.8.5 1.5.8 2.2 0-.1.1-.4.1-.6.1.4.3.6.5 1v-.4c.6 1.3.9 2.6 1.4 3.8.1.4.4.9.8 1.2v.3c-.1.6-.4 1.3-.8 1.9-.3.4-.6 1.3-1.3 1.3s-1.3-.5-1.5-.8z" fill="#a5a5a5"/><path d="m178.2 246.4c-.4-.6-.5-1.4-.4-2.2 0-.8.4-1.4.8-2 0-.3.3-.5.4-.6 1 .8 1.2 2.2 1.9 3.1.1.3.4.4.4.6s0 .5-.1.6c-.3.5-.6 1.3-1.2 1.4-.6 0-1.3-.4-1.7-.9z" fill="#fff"/><path d="m179.4 246.7c0-.3-.1-.5-.1-.8v-2.4c.3.4.5.8.6 1.3.1.4.4.8.8 1.2.1.1.4.3.5.4.5.4.3.6 0 1.2-.3.4-.6.6-1 .4s-.6-.6-.8-.9v-.3z" fill="#d8d6d9"/><path d="m197.9 342.2h-5.5c-.5 0-1-.6-1-1.2v-3.6h3.6v2.4l3.1 1.5c.3.1.3.6 0 .6h-.1z" fill="#316882"/><path d="m197.9 342.2-4.5-2.2v-2.4h1.4v2.4l3.1 1.5c.3.1.3.6 0 .6z" fill="#03405c"/><path d="m194 337.5h.4v1.4h-.4z" fill="#316882" transform="matrix(.02094242 -.99978068 .99978068 .02094242 -148 525.2)"/><path d="m194 338.2h.4v1.4h-.4z" fill="#316882" transform="matrix(.02094242 -.99978068 .99978068 .02094242 -148.7 525.9)"/><path d="m194 338.9h.4v1.4h-.4z" fill="#316882" transform="matrix(.02094242 -.99978068 .99978068 .02094242 -149.5 526.7)"/><path d="m190.8 309.2c.4 2.7.9 5.4.9 8.1v8.9c0 2.2-.3 11.2-.3 11.2h3.5s2-15 2.6-19.9v-1.5c0-9.2-.3-18.3-.5-27.5v-.4s-.3-.1-.4-.1c-1.9-.5-4.3-.8-6.3-1.3-.9 1.5-1 3.2-1 5 0 5.9.8 11.8 1.5 17.6z" fill="#47a7e3"/><path d="m196.1 316.9 1.3.6v-.4l-1.2-.6h-.3v.3h.1z" fill="#2976b3"/><path d="m188.9 342.2h-5.5c-.5 0-1-.6-1-1.2v-3.6h3.6v2.4l3.1 1.5c.3.1.3.6 0 .6h-.1z" fill="#316882"/><path d="m188.9 342.2-4.5-2.2v-2.4h1.4v2.4l3.1 1.5c.3.1.3.6 0 .6z" fill="#03405c"/><path d="m185 337.4h.4v1.4h-.4z" fill="#316882" transform="matrix(.02094242 -.99978068 .99978068 .02094242 -156.7 516.1)"/><path d="m185 338.2h.4v1.4h-.4z" fill="#316882" transform="matrix(.02094242 -.99978068 .99978068 .02094242 -157.5 516.9)"/><path d="m185 338.9h.4v1.4h-.4z" fill="#316882" transform="matrix(.02094242 -.99978068 .99978068 .02094242 -158.3 517.6)"/><path d="m181.8 309.2c.4 2.7.9 5.4.9 8.1v8.9c0 2.2-.3 11.2-.3 11.2h3.5s2-15 2.6-19.9v-1.5c0-9.2-.3-18.3-.5-27.5v-.4s-.3-.1-.4-.1c-1.9-.5-4.3-.8-6.3-1.3-.9 1.5-1 3.2-1 5 0 5.9.8 11.8 1.5 17.6z" fill="#47a7e3"/><path d="m187.2 316.9 1.3.6v-.4l-1.2-.6h-.3v.3h.1z" fill="#2976b3"/><path d="m182.1 284.4 13.1-1.7-1.1-8.9-13.2 1.8z" fill="#90cdd1"/><path d="m192.6 272.9-11.2 1.5-.1 15.9h13.9z" fill="#03405c"/><path d="m191.7 276.6-9.1 1.1-4-18.5 9.7 3.1 3.2-5.5.7 2.9z" fill="#03405c"/><path d="m189.9 255.9c-.4 11.4 1.3 21.5 3.6 32.6l.9 4.3 4.9-.6-6.5-35.8-2.7-.5h-.1z" fill="#5493b0"/><path d="m179.5 257.4c3.2 10.7 4.1 22.1 4.9 33.2l.3 4.5-4.9.6-2.8-37.1s2.4-1.4 2.6-1.3z" fill="#5493b0"/><path d="m186.3 287.3c.1 0 .4.3.6.4.6.4 1.5.1 2-.4l.5-.5c.4-.4.5-.9.5-1.4-.1-.8-.8-1.2-1.3-1.3-.6-.3-1.2-.1-1.8-.1s-1.3.1-1.8 0c-.6 0-1.2-.6-1.7-.9 0 0-.3 1.5-.1 1.8 0 .4.5.5.9.8.8.6 1.5 1.3 2.4 1.8h-.4z" fill="#d8d6d9"/><path d="m187.7 287.2c0 .3 0 .5.4.6l.6.3c.3 0 .5 0 .6-.4 0-.3 0-.5-.4-.6l-.6-.3c-.3 0-.5 0-.6.4z" fill="#d8d6d9"/><path d="m188.3 286.3c0 .3 0 .5.4.6l.6.3c.3 0 .5 0 .6-.4 0-.3 0-.5-.4-.6l-.6-.3c-.3 0-.5 0-.6.4z" fill="#d8d6d9"/><path d="m188.7 285.5c0 .3 0 .5.4.6l.6.3c.3 0 .5 0 .6-.4 0-.3 0-.5-.4-.6l-.6-.3c-.3 0-.5 0-.6.4z" fill="#d8d6d9"/><path d="m188.7 284.5c0 .3 0 .5.4.6l.6.3c.3 0 .5 0 .6-.4 0-.3 0-.5-.4-.6l-.6-.3c-.3 0-.5 0-.6.4z" fill="#d8d6d9"/><path d="m185.8 283.8c-1.4-.8-9.8-6.1-10.7-7.2-.6-.6 0-1.5.3-2.3.4-1.3 3.6-9.6 4-10.2.3-.3.4-.6.5-.9 0-.3.1-.4.3-.6.4-1.5-.3-3.1-1.5-4-.1 0-.3-.1-.5-.3h-.4c-.9 0-1.9.4-2.4 1.2-.3.4-.4.6-.5.9-.5 1.4-3.2 10.5-3.6 12.3-.4 1.5-.6 3.1-.6 4.6s0 1.3.3 1.7 9.3 5.5 13.8 7.7l1.3-2.8z" fill="#5493b0"/><path d="m266.7 315.7.6 2c1.5 4.5 1.7 9.3.4 13.8h84.1l3.1-4.2-3.1-14.2-57.8-4.1-27.5 6.6h.1z" fill="#c9c9c9"/><g clip-path="url(#f)" fill="#f0f0f0"><path d="m354.8 329c-29.3-2.2-58.8-2.2-88.1 0v.9c29.3-2.2 58.7-2.2 87.9 0v-.9h.1z"/><path d="m352.6 328.6c-27.5-8.9-58-9.6-85.9-1.8 0 .3.3.5.4.9 27.6-7.8 57.9-7.2 85.1 1.7.1-.3.3-.5.4-.8z"/><path d="m354.5 327.3c-28.9-11-61.6-13.7-91.9-7.8 0 .3.3.5.4.9 30-5.9 62.4-3.1 91 7.8.1-.3.5-.8.5-.8z"/></g><path d="m443.4 315.7-.6 2c-1.5 4.5-1.7 9.3-.4 13.8h-83.5l-3.1-4.2 3.1-14.2 57.4-4.1 27.2 6.6h-.1z" fill="#c9c9c9"/><g clip-path="url(#g)" fill="#f0f0f0"><path d="m355.9 329c29.1-2.2 58.4-2.2 87.4 0v.9c-29-2.2-58.3-2.2-87.3 0v-.9z"/><path d="m358.1 328.6c27.4-8.9 57.7-9.6 85.3-1.8 0 .3-.3.5-.4.9-27.4-7.8-57.4-7.2-84.5 1.7-.1-.3-.3-.5-.4-.8z"/><path d="m356.2 327.3c28.8-11 61.2-13.7 91.3-7.8 0 .3-.3.5-.4.9-29.8-5.9-61.9-3.1-90.4 7.8-.1-.3-.5-.8-.5-.8z"/></g><path d="m297.9 266.7-31.2 49 22.6-3.1c10.1-1 20.2-.5 30 1.3 10.9 2 21.2 5.8 30.9 10.9l4.6 2.4v-44.5l-57.1-16h.1z" fill="#f0f0f0"/><path d="m412.2 266.7 31.2 49-22.6-3.1c-10.1-1-20.2-.5-30 1.3-10.9 2-21.2 5.8-30.9 10.9l-4.6 2.4v-44.5l57.1-16h-.1z" fill="#f0f0f0"/><path d="m355 327.3v-48.2l-5.9-3.6c-15.7-9.5-34-13.8-52.3-12.3l-30 42.4 20.3-2.3c5.5-.6 11-.6 16.5 0l3.7.4c6 .6 12 1.9 17.8 4 11.2 4 21.3 10.5 29.7 19l.5.5h-.3z" fill="#ebebeb"/><path d="m355 327.3v-48.2l5.9-3.6c15.7-9.5 34-13.8 52.3-12.3l30 42.4-20.3-2.3c-5.5-.6-11-.6-16.5 0l-3.7.4c-6 .6-12 1.9-17.8 4-11.2 4-21.3 10.5-29.7 19l-.5.5h.3z" fill="#fff"/><rect fill="#3bd9cc" height="1.5" rx=".3" width="176.5" x="266.6" y="331.3"/><path d="m359.6 331.7h-1.5c0-1.5-1.2-2.8-2.6-2.8s-2.6 1.3-2.6 2.8h-1.5c0-2.6 1.8-4.6 4.1-4.6s4.1 2 4.1 4.6z" fill="#3bd9cc"/><path d="m315.9 331.3-6.3 5.2v-16.8h6.3z" fill="#ffd359"/><path d="m790.9 375.8h-28.9c-1.9 0-3.5-1.7-3.5-3.7 0-1.5.9-2.8 2.2-3.5l8.7-3.7h14.8l8.1 3.7c1.3.6 2 1.9 2 3.5 0 2-1.5 3.7-3.5 3.7z" fill="#045378"/><path d="m791.4 396.8-.5-1c-3.2-6.1-4.9-12.9-4.9-19.8h-18.4v.4c0 6.9-1.7 13.7-4.9 19.8l-.4.6h29z" fill="#045378"/><path d="m794.5 400.2-17.6 4.6-17.5-4.6c-.8-.1-1.3-.9-1.3-1.5 0-.8.5-1.4 1.3-1.5l17.5-4.3 17.5 4.3c.8.1 1.3.9 1.3 1.5 0 .8-.5 1.4-1.3 1.5z" fill="#045378"/><path d="m760.6 399.6h33.4v7.2h-33.4z" fill="#045378"/><path d="m803.2 421.5h-52.4c-1.5-7 2.4-14.1 9.3-16.1l16.6-5.1 16.7 5.2c6.9 2.2 11 9.1 9.7 16.1z" fill="#045378"/><path d="m749.3 429.7c-.8-.3-1.3-1-1.3-1.8v-4.6c0-1 .9-1.9 1.9-1.9h54.2c1 0 1.9.9 1.9 1.9v4.6c0 .8-.5 1.5-1.3 1.8-17.9 6-37.3 6-55.3 0z" fill="#045378"/><path d="m785.4 358.1h-17.1l-.3-.4c-2.6-4.5-2.9-9.7-1-14.4l5.9-15.2h7.4l6.3 14.8c2 5 1.7 10.6-1.2 15.2z" fill="#045378"/><path d="m772.9 326.3h7.7v2.3h-7.7z" fill="#045378"/><path d="m777 319.7h-.5c-3.1 0-5.6 2.6-5.6 5.6 0 .9.8 1.7 1.7 1.7h8.4c.9 0 1.7-.8 1.7-1.7 0-3.1-2.6-5.6-5.6-5.6z" fill="#045378"/><path d="m785.6 360.3h-17.3c-.6 0-1.3-.5-1.3-1.3 0-.6.5-1.3 1.3-1.3h17.3c.6 0 1.3.5 1.3 1.3 0 .6-.5 1.3-1.3 1.3z" fill="#045378"/><path d="m769.4 359.3h14.8v7.4h-14.8z" fill="#045378"/><path d="m782.4 337.3c0 1.5-1.3 2.8-2.8 2.8s-2.8-1.3-2.8-2.8 1.3-2.8 2.8-2.8 2.8 1.3 2.8 2.8z" fill="#f0f0f0"/><path d="m781.3 343.6c0-.8.6-1.3 1.3-1.3s1.3.6 1.3 1.3-.6 1.3-1.3 1.3-1.3-.6-1.3-1.3z" fill="#f0f0f0"/><path d="m223.6 434.8c-2.2-.3-4.6-.8-5.8-2.7-.5-.8-.6-1.7-1.4-2.3-.8-.8-1.9-.8-2.9-.9-4.7-.1-9.7.9-13.8-1.4-1.4-.8-2.6-2.9-1.2-3.7.4-.3.9-.3 1.3-.3 17.4-.5 34.8-.3 52.2.8 1.3 0 2.4 1 2.6 2.3.1 1.8-1.9 2.6-2.9 3.7 0 .1-.3.3-.4.4-1.8 2.8-4.6 4.7-7.9 4.6h-4c-5.2.3-10.5 0-15.7-.5z" fill="#edf8ff"/><path d="m652.9 344.6c1.8.9 3.8.9 5.8.9 7.8 0 15.6-.1 23.4-.3 6.8 0 13.7-.1 20.3-1.8.5 0 .9-.3 1.3-.6.6-.9-.3-2-1.3-2.7-2.8-1.7-6.1-1.9-9.5-2.2-8.6-.5-17.3-.6-25.8-.3-5.1.1-10.4.5-15 2.9 1 2.6 3.3 4.6 5.9 5.5l-5.2-1.4z" fill="#edf8ff"/><circle cx="662" cy="315.3" fill="#ffbd32" r="29.5" transform="matrix(.0975829 -.9952274 .9952274 .0975829 283.4 943.2)"/><circle cx="664.1" cy="317.1" fill="#ffd359" r="29.5"/><g fill="#ffbd32"><path d="m670.4 303.8c-1.3 1.5-3.5 1.7-5 .5l-1.4-1.2-2.8 3.5 4.1 3.5-13.2 15.9 5.6 4.6 13.2-15.9 2.8-3.5 2.3-2.7-5.6-4.6z"/><path d="m660.2 297.7c-11.4 2.3-19.3 12.8-18.5 24.4 0 .1 0 .3-.1.3s-.3 0-.3-.3c-.8-11.9 7.4-22.5 18.9-24.9.1 0 .3 0 .3.1s0 .3-.3.3z"/><path d="m640.1 317.9c.9 1.5 1.4 3.1 1 3.6s-1.5 0-2.6-1.7c-1-1.5-1.3-3.5-.8-4s1.4.5 2.3 2z"/><path d="m641.1 313.4c.5 1.7.8 3.2.4 3.6-.4.5-1.5-.4-2.2-2-.6-1.7-.6-3.6 0-4s1.3.8 1.9 2.4z"/><path d="m642.8 309.2c.3 1.7.3 3.2-.3 3.6s-1.4-.6-1.8-2.4 0-3.6.6-3.8 1.2 1 1.4 2.7z"/><path d="m645.2 305.4c0 1.7-.4 3.2-.9 3.5s-1.3-.9-1.3-2.7.6-3.5 1.4-3.7c.6-.1.9 1.2.9 2.8h-.1z"/><path d="m648.3 302.2c-.4 1.7-.9 3.1-1.5 3.2s-1.2-1-.9-2.8 1.3-3.3 1.9-3.3.8 1.3.4 2.9z"/><path d="m651.8 299.3c-.6 1.5-1.4 2.8-2 2.9-.6 0-.9-1.3-.3-2.9s1.9-3.1 2.6-2.9c.8 0 .5 1.4-.1 3.1h-.1z"/><path d="m655.9 297.3c-1 1.4-2 2.6-2.7 2.4-.6 0-.6-1.4.3-2.9s2.4-2.7 3.2-2.4c.6.3.3 1.5-.8 2.9z"/><path d="m660.4 296.1c-1.3 1.3-2.6 2.2-3.1 2-.6-.1-.4-1.5.8-2.9s2.9-2.2 3.7-1.8c.6.4 0 1.5-1.4 2.8z"/><path d="m659.5 300.4c1.4.6 2.7 1 3.2.5.4-.4-.3-1.5-1.8-2.3s-3.2-.8-3.5-.3c-.4.5.6 1.3 2.2 2h-.1z"/><path d="m655.8 301.6c1.5.4 2.8.5 3.1 0s-.5-1.4-2.2-1.9c-1.5-.5-3.2-.3-3.5.4s.9 1.2 2.4 1.5h.1z"/><path d="m652.5 303.6c1.5 0 2.8 0 3.1-.5s-.8-1.3-2.4-1.5c-1.7-.3-3.1.4-3.2.9-.1.6 1.2 1 2.7 1.2h-.1z"/><path d="m649.7 306.1c1.5-.1 2.8-.5 2.8-1s-1-1.2-2.7-1c-1.7 0-3.1.9-3.1 1.5s1.3.8 2.8.6h.1z"/><path d="m647.4 309.1c1.5-.4 2.7-1 2.6-1.5 0-.5-1.3-.9-2.8-.6-1.5.4-2.8 1.4-2.7 2 0 .6 1.4.5 2.9.1z"/><path d="m645.6 312.4c1.4-.6 2.4-1.4 2.3-2 0-.5-1.4-.8-2.8 0-1.5.6-2.6 1.9-2.3 2.4.3.6 1.5.3 2.8-.4z"/><path d="m644.4 316.1c1.3-.9 2-1.9 1.9-2.4-.3-.5-1.5-.5-2.8.5-1.4.9-2.2 2.3-1.8 2.9.3.5 1.5 0 2.7-.9z"/><path d="m643.9 319.9c1-1.2 1.7-2.3 1.4-2.8s-1.5-.1-2.7 1c-1.2 1.2-1.7 2.8-1.3 3.3s1.5-.3 2.6-1.5z"/><path d="m681.8 315.7c-.3 11.5-8.9 21.3-20.6 22.8-.1 0-.3 0-.3.3s.1.1.3.1c11.9-1.4 20.7-11.4 21-23.1 0-.1 0-.3-.3-.3q-.2 0 0 0s-.3 0-.3.3h.1z"/><path d="m665.7 339c-1.7-.5-3.2-.8-3.7-.4s.4 1.5 2 2.2 3.6.5 4.1 0c.4-.6-.8-1.3-2.4-1.8z"/><path d="m669.9 337.2c-1.7-.3-3.2-.3-3.6.4-.4.5.6 1.4 2.4 1.8s3.6 0 3.8-.8c.3-.6-1-1.2-2.7-1.4z"/><path d="m673.7 334.8c-1.7 0-3.2.4-3.5.9s.9 1.3 2.7 1.3 3.5-.6 3.7-1.4c.1-.6-1.2-.9-2.8-.9h-.1z"/><path d="m676.9 331.7c-1.7.4-3.1.9-3.2 1.5s1.2 1.2 2.8.8c1.8-.3 3.3-1.3 3.3-2s-1.3-.8-2.9-.4z"/><path d="m679.6 328.1c-1.5.6-2.8 1.4-2.9 2 0 .6 1.3.9 2.9.3s3.1-1.9 2.9-2.6c0-.6-1.4-.5-3.1.1h.1z"/><path d="m681.6 324.1c-1.4.9-2.6 1.9-2.4 2.6 0 .6 1.4.6 2.9-.3s2.7-2.4 2.4-3.1c-.3-.6-1.5-.3-2.9.8z"/><path d="m682.8 319.7c-1.3 1.3-2.2 2.4-1.9 3.1.1.6 1.5.4 2.8-.8 1.4-1.2 2.2-2.9 1.8-3.6s-1.5 0-2.8 1.3z"/><path d="m683.3 315.1c-1 1.5-1.7 2.8-1.4 3.5.3.5 1.5 0 2.7-1.3 1.2-1.4 1.5-3.3 1.2-4s-1.4.4-2.4 1.8z"/><path d="m679.3 316.7c-.9-1.3-1.5-2.6-1.2-2.9.4-.5 1.5 0 2.6 1.3s1.4 2.9.9 3.5c-.5.5-1.4-.4-2.3-1.7z"/><path d="m678.6 320.6c-.6-1.4-1-2.7-.5-3.1.4-.4 1.5.3 2.3 1.8.8 1.4.8 3.1.3 3.5s-1.3-.6-2-2z"/><path d="m677.3 324.1c-.4-1.5-.5-2.8 0-3.1s1.4.5 1.9 2 .3 3.2-.4 3.3c-.6.3-1.2-.9-1.7-2.4h.1z"/><path d="m675.4 327.5c-.1-1.5 0-2.8.5-2.9.5-.3 1.3.8 1.5 2.4.3 1.5-.3 3.1-.9 3.2s-1-1.2-1.2-2.7z"/><path d="m672.9 330.3c.1-1.5.5-2.8 1-2.8s1.2 1 1 2.7c0 1.7-.9 3.1-1.5 3.1s-.8-1.3-.6-2.8h.1z"/><path d="m670 332.7c.4-1.5 1-2.7 1.5-2.7s.9 1.2.6 2.8c-.4 1.5-1.4 2.8-2 2.7-.6 0-.5-1.4-.1-2.9z"/><path d="m666.5 334.5c.8-1.4 1.5-2.4 2-2.3.5 0 .8 1.4 0 2.8-.6 1.5-1.9 2.6-2.6 2.3s-.3-1.5.4-2.8h.1z"/><path d="m662.8 335.6c1-1.3 1.9-2.2 2.6-1.9.5.3.5 1.5-.5 2.8-.9 1.4-2.4 2.2-3.1 1.8-.6-.3 0-1.5 1-2.7z"/><path d="m651.2 335.5c-.6.8-1.8.9-2.6.3s-.9-1.8-.3-2.6 1.8-.9 2.6-.3.9 1.8.3 2.6z"/><path d="m645.8 328.6c-.6.8-1.8.9-2.6.3s-.9-1.8-.3-2.6 1.8-.9 2.6-.3.9 1.8.3 2.6z"/><path d="m658.1 338.8c-.6.8-1.8.9-2.6.3s-.9-1.8-.3-2.6 1.8-.9 2.6-.3.9 1.8.3 2.6z"/></g><path d="m719.3 394.8-.5-.9c-2.7-5.2-4.1-11-4.1-16.9h-15.6v.3c0 5.9-1.4 11.6-4.1 16.9l-.3.6h24.7z" fill="#ffd359"/><path d="m722 397.8-15 3.8-14.8-3.8c-.6-.1-1-.8-1-1.4 0-.6.4-1.2 1-1.4l14.8-3.7 14.8 3.7c.6.1 1 .8 1 1.4 0 .6-.4 1.2-1 1.4h.1z" fill="#ffd359"/><path d="m693.3 397.3h28.2v6.1h-28.2z" fill="#ffd359"/><path d="m729.3 415.9h-44.5c-1.3-5.9 2.2-11.9 7.9-13.7l14.2-4.3 14.2 4.3c5.8 1.8 9.3 7.7 8.2 13.7z" fill="#ffd359"/><path d="m683.5 422.8c-.6-.3-1-.8-1-1.5v-4c0-.9.8-1.5 1.5-1.5h45.9c.9 0 1.5.8 1.5 1.5v4c0 .6-.4 1.3-1 1.5-15.2 5.1-31.7 5.1-46.9 0z" fill="#ffd359"/><path d="m721.9 354.6c0-8.2-6.8-14.7-15-14.4-7.4.3-13.7 6.3-14.1 13.7-.3 3.8 1 7.3 3.2 10 1.9 2.3 2.9 5.1 2.9 8.1v.3h15.9c0-2.8 1-5.5 2.9-7.4 2.4-2.6 4-6.1 4-10h.1z" fill="#ffd359"/><path d="m717.2 347.9c0 1.7-1.4 3.1-3.1 3.1s-3.1-1.4-3.1-3.1 1.4-3.1 3.1-3.1 3.1 1.4 3.1 3.1z" fill="#f0f0f0"/><circle cx="716.5" cy="353.2" fill="#f0f0f0" r="1"/><path d="m721.4 373.9-7.3-3.1h-13.8l-7.3 3.1c-1.2.5-1.9 1.7-1.9 2.9 0 1.8 1.4 3.2 3.1 3.2h26.1c1.8 0 3.1-1.4 3.1-3.1 0-1.3-.8-2.4-1.9-2.9z" fill="#ffd359"/><path d="m391.6 340c.1 1.4 0 3.1-1.3 4-.8.6-1.9.8-2.9.5s-1.9-.8-2.7-1.4c-.5-.4-7.9-4.5-7.9-4.5-.8-.4-2.7-2-3.3-2.7l3.5-3.1c1.8 1.3 4.6 3.3 5.9 4.7.6.8 1.5 1.4 2.6 1.5h.4c.4-1 1.7-1.5 2.7-1.3.4 0 .6.3 1 .1.3 0 .4-.1.6-.3.5 0 1 .1 1.3.6.3.4.4.9.4 1.4v.3z" fill="#efecf0"/><path d="m369.3 329.1c-.3.8-.3 1.7-.1 2.4.1 1.7 1 3.1 1.9 4.5 1.3 2 2.9 3.8 5 5.1 1.3.8 2.8 1.4 4.2.9 1-.4 1.7-1.3 2.2-2.2.3-.5.5-1 .5-1.5s0-.6-.3-.9c-.4-1-1-2-1.8-2.8s-.9-.8-1.2-1.3c-1.4-3.6 3.3-5.8 4.2-6.9 2-2.6 2.7-7.9 3.3-8.3 1-.6 1.7-1.7 1.7-2.9 0 0 1.7-1.3 1.5-1.7-.4-.8-18.7 7-21.1 15.6h-.1z" fill="#ffbd32"/><path d="m381 341.9s-.3 0-.3-.1v-.4c.5-1.4.9-2.7 1.7-4 .8.4 1.4.6 2.2 1 0 0-.4 1.5-.5 1.7-.1.5-.4 1.2-.8 1.7-.1.3-.4.6-.8.8-.5 0-1.2-.4-1.7-.6h.1z" fill="#045378"/><path d="m399 340.4c-.3 1.4 0 3.1 1.2 4.1.8.6 1.9.8 2.9.6 1-.3 1.9-.6 2.8-1.3.5-.3 8.1-4.1 8.1-4.1.8-.4 2.8-1.9 3.5-2.6l-3.3-3.2c-1.8 1.2-4.7 3.2-6 4.6-.6.8-1.7 1.3-2.7 1.4h-.4c-.4-1-1.5-1.7-2.6-1.4-.4 0-.6.1-1 0-.3 0-.4-.1-.6-.3-.5 0-1 .1-1.3.5s-.4.9-.5 1.4z" fill="#efecf0"/><path d="m421.8 330.4c.3.8.1 1.7 0 2.4-.3 1.5-1.2 3.1-2 4.3-1.4 1.9-3.1 3.7-5.2 5-1.3.8-2.9 1.3-4.2.6-1-.4-1.5-1.3-2-2.3-.3-.5-.5-1-.4-1.5 0-.3.1-.6.3-.9.4-1 1-1.9 1.8-2.7.4-.4.9-.8 1.2-1.3 1.5-3.5-3.1-5.9-4-7-1.9-2.7-2.4-8.1-2.9-8.4-1-.6-1.7-1.7-1.5-2.9 0 0-1.7-1.4-1.4-1.7.4-.8 18.4 7.8 20.5 16.4h.1z" fill="#ffbd32"/><path d="m409.6 342.7s.3 0 .3-.1v-.4c-.4-1.4-.9-2.8-1.5-4-.8.3-1.5.6-2.2 1 0 0 .4 1.5.4 1.7.1.6.4 1.2.6 1.7.1.3.4.6.8.8.5 0 1.2-.4 1.7-.5z" fill="#045378"/><path d="m383.2 343.4h22.1v13.8h-22.1z" fill="#03405c"/><path d="m405.3 398.5h-6.7l-3.8-41.2h10.5z" fill="#03405c"/><path d="m392.6 407.4h10.6c1 0 1.9-.9 1.9-1.9v-6.9h-6.6v4.7l-6.1 2.9c-.6.3-.4 1.2.3 1.2z" fill="#49acea"/><path d="m392.6 407.4 8.6-4.1v-4.7h-2.7v4.7l-6.1 2.9c-.6.3-.4 1.2.3 1.2z" fill="#5493b0"/><path d="m398.6 399.3h2.7v.6h-2.7z" fill="#ffbd32"/><path d="m398.6 400.8h2.7v.6h-2.7z" fill="#ffbd32"/><path d="m398.6 402.4h2.7v.6h-2.7z" fill="#ffbd32"/><path d="m383.5 399.6-6.5-1.6 6.2-41h11.1z" fill="#03405c"/><path d="m369.2 405.2 10.2 2.6c1 .3 2-.4 2.3-1.4l1.7-6.6-6.5-1.5-1.2 4.6-6.6 1.4c-.6.1-.6 1 0 1.2h.1z" fill="#49acea"/><path d="m369.2 405.2 9.3-1.9 1.2-4.6-2.6-.6-1.2 4.6-6.6 1.4c-.6.1-.6 1 0 1.2h-.1z" fill="#5493b0"/><path d="m377.4 397.5h.6v2.7h-.6z" fill="#ffbd32" transform="matrix(.23683815 -.97154912 .97154912 .23683815 -99.2 671.3)"/><path d="m376.9 399h.6v2.7h-.6z" fill="#ffbd32" transform="matrix(.23683815 -.97154912 .97154912 .23683815 -101 672)"/><path d="m376.6 400.6h.6v2.7h-.6z" fill="#ffbd32" transform="matrix(.23683815 -.97154912 .97154912 .23683815 -102.8 673)"/><path d="m382.3 345.4c0 1 0 2.2.3 3.2 0 .4.1.9.4 1.2.5.6 1.4.9 2.3 1.2 3.7.8 7.5.8 11.4.5 3.1-.1 6.1-.4 8.9-1.5.5-.1.9-.4 1.2-.8s.3-.8.4-1.2c.3-2 .5-6.9.6-11.6v-2.2c0-3.7.1-7.2.1-8.7 0-1.9-.4-3.8-.9-5.6-.4-1.5-.8-3.7-1.8-4.9-1-1-7-4-6.9-4.3h-5.9c-.5 0-1.8-.1-2 .3-.3.5.1 1.3-.4 1.8-.4.3-.8.4-1.3.5-1 .4-1.8 1.2-2.6 1.9-.9 1-1.2 2.3-1.7 3.5-.6 1.4-1.2 2.9-1.3 4.5-.3 1.7-.1 3.5-.3 5.1 0 1.8-.4 3.7-.5 5.5-.4 3.8-.1 7.7 0 11.5v.3z" fill="#ffbd32"/><path d="m398.2 297.7c.6-.1 1.3-.3 1.8 0 .1 0 .4 0 .5.1.5.3.9.8.9 1.3v.3c0 1.2-.4 2.3-.9 3.5-.1.3-.3.5-.4.8-.5 0-1-.3-1.4-.5-.9-.6-2.7-1.4-3.1-2.4-.3-.8.3-1.5.8-1.9.4-.4 1-.6 1.5-.8h.3v-.3z" fill="#d0ced1"/><path d="m387.5 299.3c-.6 0-1.2.3-1.7.6-.1 0-.3.3-.4.3-.4.4-.5 1-.4 1.5v.3c.5 1.2 1.3 2 2.2 2.8.3.1.5.4.6.5.5-.1.8-.6 1-1 .6-.9 1.9-2.3 1.9-3.5s-.8-1.3-1.4-1.5c-.5-.3-1.2-.3-1.8-.1h-.3.1z" fill="#d0ced1"/><path d="m402.5 308.9v2.4c0 .5-.3.9-.6 1.3s-.5.5-.9.8c-2.7 2.3-10.6 3.2-13.3 0-.9-1.2-1.2-2.8-1.2-4.3s0-4.1.8-5.9c.8-1.7 2.2-2.9 4-3.7h.3c.8-.3 1.7-.5 2.6-.5s1.8 0 2.6.4c1.8.5 3.3 1.7 4.2 3.2 1.3 1.9 1.5 4.3 1.7 6.5z" fill="#d0ced1"/><path d="m394.1 357.8c1.3 0 2.4-1.3 2.4-2.6s-2-4.9-3.7-2.7c-1.2 1.5-1.3 5.1 1.3 5.2z" fill="#d0ced1"/></svg>