<svg viewBox="0 0 877.6 504.6" xmlns="http://www.w3.org/2000/svg" xmlns:xlink="http://www.w3.org/1999/xlink"><clipPath id="a"><path d="m-10.6-66.7h903.9v745.1h-903.9z"/></clipPath><clipPath id="b"><circle cx="518.3" cy="269.6" r="111"/></clipPath><clipPath id="c"><path d="m332.1 175.3c.1 1.6 1 3 2 4.5.3.4.7.8 1 1 1.3.7 2.2-.3 3-1 .9-.8 2.1-1.4 3.1-1.8l-1.7-5.6s-7.7 0-7.5 3z"/></clipPath><clipPath id="d"><path d="m337.7 175.1c-1.3.3-2.7.4-4.2.3h-2.4v.3c0 1.4.5 2.7 1 4.1.1.4.5.9.9.8.3 0 .4 0 .5-.3.8-.8 1.6-1.6 2.5-2.2 1.6-1 3.4-1.2 5.2-1.7 0 0 .1 0 .3-.1v-.3c-.3-.5-.7-1.8-1.4-1.6-.4 0-.7.4-1 .5-.4.1-.8.3-1.3.4h-.1z"/></clipPath><clipPath id="e"><path d="m360.7 174.9c-.4 1.6-1.3 2.9-2.4 4.2-.3.4-.8.7-1.2.9-1.4.5-2.1-.5-2.9-1.3-.8-.9-2-1.7-3-2.2l2.4-5.4s7.7.9 7.1 3.8z"/></clipPath><clipPath id="f"><path d="m355 174c1.3.4 2.7.7 4.1.7h2.4v.3c0 1.4-.8 2.7-1.4 3.9-.3.4-.5.8-1 .8s-.4-.3-.5-.4c-.8-.8-1.3-1.8-2.2-2.5-1.4-1.2-3.3-1.6-5-2.4h-.3v-.3c.3-.5.9-1.7 1.6-1.4.4 0 .7.5 1 .7.4.3.8.4 1.2.5l.3.3z"/></clipPath><g clip-path="url(#a)"><path d="m-6.9 758.4v-745.1c26 23.4 62.4 25.8 98.3 25.6 38.3 0 75.9-9.6 113.8-15.2 37.9-5.8 77.9-7.5 113.4 6.8 53.5 21.6 90.3 76.9 146.6 89.5 35.5 7.9 72.6-3 105.9-17.7 33.2-14.7 65.1-33.5 100.3-42.9 35.2-9.3 76-7.4 103.9 15.9 10.8 9.1 19.3 21 31.5 28.2 17.9 10.7 40.4 9.2 60.5 14.6 10.3 2.8 21.9 9.7 29.6 18.4v621.7h-903.8z" fill="#cfe859"/></g><path d="m1096 494.1v-172.9c-20-40.6-75.9-45.3-121.1-44.5-97.8 1.7-193.1 31.7-290.6 39.8-141.5 11.8-285 1-426.8-2.6h-4.3c-24.1-.7-50.3-.5-69.1 14.4-2.7 2.2-5.4 5-5.9 8.4-.5 4.3 2.6 8.4 6.3 10.9s7.9 4.1 11.3 6.8c2 1.6 3.7 4.1 3 6.4-.7 2.7-3.8 4.1-6.7 4.8-17.8 4.8-67.5 6.5-62.4 33.8 1.3 6.5 4.6 12.6 6.8 18.9 3.3 9.3 4.1 20-.5 28.8-6.2 11.8-20 16.9-32.9 19.9-63.4 15.2-131.2 3.7-193.9 21.2-4.8 1.3-9.8 3-13.6 6.3-19.8 17.5 20.4 16.5 29.6 17.1 18.3 1.3 36.7 2 55 2.6 226.7 8.2 453.5 13.6 680.3 16.2 142.8 1.6 294.2-17 435.7-36.3h-.1z" fill="#edf8ff"/><path d="m293.2 359c40.6 1.2 81 2.2 121.6 3.4 15.3.4 30.9.8 45.6-3.9.3-3.7-4.3-5.1-7.7-5.2-59.2-2.2-118.5-2.7-177.8-1.4-14 .3-28 .4-42 .8 18.7 6.7 40.7 5.9 60.3 6.5z" fill="#edf8ff"/><path d="m672.7 359.4c43.5 1.2 86.8 2.2 130.3 3.4 16.4.4 33.1.8 48.7-3.9.3-3.7-4.6-5.1-8.2-5.2-63.4-2.2-126.9-2.7-190.2-1.4-14.9.3-30 .4-45 .8 20 6.7 43.6 5.9 64.5 6.5z" fill="#edf8ff"/><path d="m478.5 385c7.7.3 15.3.9 23 1.6 43.2 3.4 86.8 3.3 130-.5 1.3 0 2.9-.7 2.7-2 0-1-1.4-1.4-2.5-1.6-6.4-.8-12.8-.5-19.2-1.7-5.5-.9-10.7-2.9-16.2-4.1-17.3-3.9-35.2-.9-52.9-.5-17.5.4-35-1.7-52.5-2.4-7.7-.3-15.4-.3-23.2.3-5.6.4-16.1.1-20.6 4.2-6.7 6 3.9 6 7.9 6.2 7.7.4 15.4 0 23.2.4h.3z" fill="#edf8ff"/><path d="m689.9 441.3c64 5.9 128.2 10.1 192.4 8.4 10.1-.3 24 4.3 29.8-3.9 0-.3.3-.5.4-.8.5-2-1.2-3.9-3.3-3.9-20.3.5-144.9 3.3-209.8-1.7l-9.6 1.8z" fill="#edf8ff"/><path d="m607 478.4c2.4-.7 4.7-1.2 7.2-1.8 2.1-.5 4.3-1 6.5-1.4 3.7-.5 7.3-.5 11-.4 5 0 9.9.1 14.9.3.7 0 1.3 0 2 .4.5.3.8.8 1.2 1.2 1.6 1.6 4.1 1.2 6.3.8 7.5-1 15.3 0 22.1 3 .9.4 1.8.9 2.1 1.8.3 1-.5 2.1-1.4 2.7-2.5 1.8-5.6 2.4-8.8 2.9-15.6 2.5-31.7 5.8-47.4 2.9-6.3-1.2-13.2.3-19.4-.9-9.9-2.1-2.2-9.8 3.7-11.3z" fill="#edf8ff"/><path d="m264.6 474.2c.8 0 1.6 0 2.1.5s.7 1.3 1 2c1 2.1 3.9 2.2 6.2 2.1 20.9-1.3 41.9-2.5 62.8-3.8 2.9-.1 6-.4 8.4-2.1s3.4-5.5 1.3-7.6l15.6-5.1c1.7-.5 3.5-1.2 4.8-2.5s1.8-3.5.8-5c-5.1-3.3-11.5-3.7-17.7-3.8-53.4-1.3-107.1-1.2-160.2 5.4-5.1.7-10.2 1.3-15.1 2.9-6.8 2.1-16.9 9.3-4.7 12 10.2 2.2 20.9 2.9 31.3 3.5 21.1 1.3 42.2.8 63.2 1.6h.1z" fill="#edf8ff"/><circle cx="518.3" cy="269.6" fill="#74b1e8" r="111"/><g clip-path="url(#b)" fill="#3b94d9"><path d="m435.9 265.4c1.2-2.7 3.5-5 6.3-6.2.4-.1.9-.4 1.4-.3 1.3.1 1.8 1.8 3.1 2.2.8.3 1.7-.3 2.5 0 .5.1.8.7 1.2 1 1.7 2.1 3.5 4.3 5.2 6.4.4.5.8 1 1.4 1.3s1.4.3 2.1.7c1.6 1 .7 4.2 2.4 5.1.7.4 1.7.3 2.4.7.8.5 1 1.7 2 2.2.7.3 1.4 0 2.1.1.5 0 .9.4 1.4.7 1.2.8 2.4 1.4 3.3 2.5s1.4 2.5 1.2 3.8c0 .8-.5 1.4-.9 2.1-1.3 2.5-2 5.4-2 8.2v3.3c0 .9-.7 1.7-1 2.5-.8 1.7-1.7 3.4-3 4.6-.7.5-1.4 1-1.7 1.8-.5 1.4.8 2.9.7 4.5 0 .9-.8 1.7-1.6 2.5-1.6 1.6-3 3.1-4.6 4.6 1.2.7 2 1.8 2.2 3.1s-.7 2.7-2 3c-1.6.4-2.1 3.5-.9 4.7-1 .3-1.2 1.8-.7 2.7s1.3 1.8 1.3 3v1c.3.8 1.3 1 1.8 1.6 1.3 1.3 0 3.8 1 5.4.3.4.7.8 1 1.2.7.9.8 2.2.3 3.1-3.5-2.2-7.2-4.7-9-8.5-.5-1.2-.9-2.4-1.8-3.3-.4-.5-1-.9-1.4-1.4-1-1.6 0-3.8-.4-5.6-.3-.9-.8-1.8-1.4-2.6-1.6-2.5-2.4-5.5-2.6-8.4 0-1.2-.1-2.4-.4-3.5-.1-.9-.4-2-.5-2.9-.3-1.2-.3-2.4-.4-3.7-.4-4.2-1.6-8.6-5-11.3-1.2-.9-2.7-1.6-3.4-3-.4-1-.3-2.1-.7-3.1-.5-1.3-1.7-2.1-2.2-3.3-.5-.9-.5-2.1-.9-3.1-.3-.8-.5-1.6-.8-2.4-.9-2.7-1.6-6.5 0-8.9.7-1 1.4-2 1.8-3.1.4-1 1.4-4.1 1-5.1-.7-1.7-3-.7-4.3-1.6-.7-.5-.9-1.6-1.6-2.1-.8-.7-2-.7-2.6-1.4-.4-.5-.5-1.3-.7-2-.9-4.2-6.5-5.5-8.8-9.2-.4-.8-.8-1.6-1.3-2.2-.3-.3-.7-.5-.9-.9-.7-.8-.7-1.7-.7-2.7 0-4.3-.3-8.8-.7-13.1-.5 0-1 .3-1.3.8s-.1 1-.1 1.6c0 2.9-.7 5.9-2 8.5-.7-6.3-.5-12.6-.4-18.9 0-.9 0-1.8.4-2.7.4-1 1.3-1.8 1.8-2.9 1-1.7 1.2-3.9 2.4-5.4.7-.9 1.7-1.4 2.6-2.1s1.7-1.7 1.7-2.9c0-1.7 2-2.7 2.6-4.2.3-.5.3-1 .4-1.7.3-2.6 1.3-5.1 2.2-7.5.8-1.8 1.4-3.8.9-5.8-.4-1.6-1.6-2.7-2.7-3.8-.3-.3-.4-.4-.8-.4s-.7.1-.9.3c-1.6.8-3.5.4-5.2.8-.9.3-1.7.7-2.5 1-3.1 1.4-6.7 2.2-10.1 2.2 1.3-1 3-2 4.7-2.4 1.3-.4 2.9-.7 3.4-1.8.5-1 0-2.4.4-3.4.3-.5.7-.8.9-1.2 1.3-1.2 3.1-2.5 4.6-1.6 1 0 2.4-.3 3.4-.3-.3-1-.8-2-1.6-2.7 1.2-.8 2.2-1.4 3.4-2.2.1 0 .4-.3.7-.3.7 0 .9 1 1.6 1.3s1.3-.5 1.6-1.3c.1-.8.3-1.6.9-2 .8-.4 1.8.4 2.6 0 .5-.1 1-.8 1.6-.8s.9.4 1.4.5c.8.3 1.7 0 2.5 0 1.7-.1 3.3.9 4.6 2 1.4 1 3 2.5 2.7 4.2.9.5 2.1 0 3.1-.3 1-.4 2.4-.5 3 .4.1.3.3.7.4.9 1 1.3 3.7-.7 4.7.8.5.7 0 1.7.5 2.4.5.9 1.7.9 2.7.9s2.4.1 2.6 1.2c0 .3 0 .7.3.9.3.4.8.4 1.2.4h5c1.2-.1 2.1-1.2 2.2-2.2 1 0 1.7 1.2 1.6 2.2 0 1-.7 2-.8 3 0 .4 0 .8-.3 1.2-.4.8-1.4.9-2.2 1-.9.3-1.7.7-2.4 1.4-.4.4-.7.9-1.2 1.3s-1.3.5-2.1.8c-2.4.7-4.5 2.1-6 3.9 0 .1-.3.4-.3.7 0 .7.7 1.2 1 1.8.4.5.4 1.3.5 2 0 2 .3 3.9.3 5.9 1.3 0 2.5-.7 3.3-1.7s.7-1.2 1.3-1.3c.5 0 1 .1 1.6 0 1.4-.4 0-3.3 1.6-4.1.4-.3 1-.3 1.4-.4.7-.3.9-.9 1.3-1.6 1-1.4 2.9-2.1 4.6-1.8.9.4 0 2 .5 2.7.7.8 2.1 0 2.9.7.7.5.4 1.6 0 2.2-.5.7-1.2 1.2-1.4 2v1.4c0 1.6.3 3.1 0 4.6 0 .4 0 .7-.3 1-.5 1-1.8 1.2-3 1.4-2.9.7-5.2 3.3-5.4 6.3 0 .4 0 .9-.3 1.3-.3.3-.5.4-.9.5-1.6.5-3.3.3-4.8.7-2.1.4-3.8 1.8-4.8 3.7-1.4.3-2.6 1.3-3.5 2.4-2.5 3-5.5 5.5-8.8 7.3-1.4.8-3 1.7-3.3 3.3s0 1.6 0 2.4c-.1.8-1 1.4-1.7 1-.1-.1-.3-.4-.4-.5-.5-1-.7-2.4-1.3-3.4s-1.8-1.8-3-1.4c-.7.3-1 .8-1.7 1-.7.1-1.3 0-2 0-1.6.3-2.1 2.2-3.1 3.3s-1.4 1-2.1 1.7c-1.3 1.4-1.3 3.7-1 5.6 0 .9.1 2 .8 2.7.5.8 1.7 1.2 2.5.5.4-.3.5-.8.8-1.2.5-.9 1.4-1.6 2.5-2 .5-.1 1-.1 1.6 0 1.2.7.8 2.5 0 3.5s-2 2.1-1.7 3.4c.5.8 1.7.7 2.6.5s2.2 0 2.4 1c0 .5-.3.9-.5 1.3-.8 1.2-1.2 2.7-1.2 4.2s.3 1.8.9 2.4c.7.7 1.7.7 2.4 0 .5.8 1.3 1.7 1 2.6h-.4z"/><path d="m439.1 245.7h.7c.3 0 .5.4.5.8.3.7.4 1.4.5 2.1-.9.3-1.8-.5-2.6-1.2-.4-.4-.9-.9-1.4-1.2-.3 0-1.6 0-1.7-.3-.3-.3-.4-.8-.1-1.4 1.3-2.7 3 .7 4.2 1z"/><path d="m443 251.2h.3c.4 0 .7.7 1 .5.3 0 .4-.3.7-.4s.5 0 .9 0 .7 0 .8-.4c0-.3-.1-.5-.4-.7-.4-.4-.8-.8-1.3-.9-.7-.3-1.4-.3-1.8.3-.3.4-.9 1.6 0 1.7h-.1z"/><path d="m448 251.1c-.1 0-.3 0-.3.3s0 .4.1.5h.1c0 .1.3.1.4.1h.5c.1 0 .4 0 .4-.4v-.3c0-.1-.3-.4-.4-.4h-.9z"/><path d="m493.3 173.9c-.8.3-1.4.9-1.3 1.7 0 .7.9 1 .8 1.7 0 .3-.3.5 0 .8 0 .3.4.4.7.5 1.2.7 1.2 2.5 1 3.8 0 .8-.3 1.6-.4 2.2-.5 1.7-1.7 3.1-2.9 4.5-.5.5-1 1.2-1.6 1.7-.4.3-.8.5-.9.9-.3.4 0 1-.4 1.4-.3.7-.8 1.2-1 1.8s0 1.4 0 2.2c.3.8.5 1.7.7 2.5 0 .1 0 .3.3.5.4.4 1.2.3 1.4-.3.4-.5.5-1 .8-1.6.8-1 2.4-1 3.1-2 .5-.5.7-1.4 1.3-1.8.9-.7 2.1 0 3.1-.3.7-.1 1-.7 1.6-1 1.2-.9 2.5-1.6 3.9-1.7.7 0 1.4-.1 2.1-.4s1.3-.8 1.3-1.6-.5-1.6-.3-2.2c.4-.3.9.4 1 .9s.4 1.3.9 1.2c.3 0 .4-.3.5-.5.3-.4.7-.9.7-1.4s-.3-1.2-.8-1.3c.7-.5 1.7 0 2.5-.3 1-.4.9-2 1.8-2.6.4-.4 1-.4 1.4-.8s.4-1 .7-1.6c.8-2.5 4.3-2.9 5.9-5 .5-.5.8-1.4.4-2.1-1.4.5-2.9.9-4.3 1.3-.4 0-.9 0-.9-.4s.3-.4.5-.5c1.3-.5 2.2-1.6 2.6-2.9-1.4-.3-2.9.7-4.3.3-.5 0-1.2-.4-1.7-.5-1-.3-2.1-.3-3.1-.1-2.7.1-5.4.4-8.1.5-1 0-2 .1-2.9.5-.8.4-1.3.9-2.1 1.3-1.3.8-2.9.3-4.3.7z"/><path d="m575.9 324.7c-.3-.7-.5-1.3-.5-2 0-1 .9-1.8 1.2-2.7.3-.7 0-1.4.4-2.1.5-1.6 2.2-2.5 3.8-3s3.4-.7 4.7-1.6c2.1-1.4 3-4.2 5-5.9 0 .8 1 1.2 1.7.8s1-1 1.6-1.6c1.2-1.4 3.1-2.2 5-1.8.3.4.5.8.8 1.2-.7.4-1 1.4-.7 2.1.3.8 1.2 1.2 2 1 0 1 0 2.6 1.2 2.6s1.2-.9 1.4-1.7c.4-1.6.8-3.1 1.3-4.7 0 .4-.4.8-.3 1.2 0 .3 0 .5.3.8 2.5 4.5 3.9 9.4 4.7 14.4 0 1 .3 2.2 0 3.3-.3 3-2 5.6-3.7 8-.7.9-1.3 1.8-2 2.7-1.6 2.2-3.7 4.7-6.4 4.5-1 0-2-.7-2.9-1.2-.8-.5-1.7-1-1.7-2s.3-1 0-1.6c0-1.3-1.6-2.6-.7-3.5-.8.4-1.6-.4-2-1.2s-.9-1.7-1.8-1.6c-.4 0-.8.4-1 .5-1.8 1-4.5 0-6 1.2-.4.4-.8.9-1.3 1-.9.3-1.8-.7-2.7-.4-1.4.4-3 2.2-2.4-.7.5-2.2 1.6-3.9.8-6.4v.3h.3z"/><path d="m596.9 346c.4-.3.8-.5 1.2-.9.3-.3.7-.5.7-.9.4-1.3-1.3-.7-1.8-.9-.8-.3-.9-1.2-1.7-.3-1.3 1.6-.8 4.6 1.6 2.9h.1z"/><path d="m611.3 353c.4-.3.5-.5.9-.8 0-.1.4-.3.7-.4.7-.3 1.4-.7 2.1-.9 0 0 .4-.1.5-.4v-.4c.3-.8 1.3-.8 2.1-1 .5-.3.9-.5 1.2-.9.9-.8 1.8-1.6 2.9-2.2.7-.4 1.4-.8 2-1.3s.9-1.4.7-2.1c-.4.1-.9 0-1.3-.1 0-.9 0-1.8-.4-2.9 0-.4-.3-.8-.7-.8-.7 1-.3 2.2-.5 3.4 0 .7-.7 1.3-1.3 1.7s-1.4.8-1.3 1.4c0 .4.4.7.3.9 0 .3-.5.3-.8.1s-.5-.4-.8-.5c-.5-.1-1 .3-1.4.7-.9.9-1.6 2-2.6 2.5-.4.3-.9.4-1.3.5-.8.3-3.4 1.2-3.5 2.1-.3 1.2 2.1 1.7 2.7 1.2v.3z"/><path d="m517.7 291.4c-1.8 2.6-2.4 6.3-1 9.2.3.7.5 1.2.7 1.8v1.2c0 .5.4 1 .7 1.6.7 1.2 1 2.4 1.4 3.7 0 .5.3 1 .4 1.6.3.5.7 1 .9 1.6.5.8.8 1.6 1 2.5.3.8.5 1.6.8 2.4s.5 1.7 1.3 2.1c.7.3 1.3 0 2-.1 1.4-.5 3-.9 4.1-2s1.2-1.4 1.7-2.1c.7-.9 1.3-1.8 2-2.7.3-.4.5-.7.7-1.2v-1.8c.4-1.3 2-2.1 2.1-3.4 0-.9-.5-1.7-.5-2.5 0-1.4 1-2.6 2.2-3.4 1-.7 2.2-1.2 2.9-2.2.3-.5.4-1 .5-1.6.4-2.4 0-4.7-.5-7.1 0-.7-.3-1.3-.4-2 0-1 0-1.8-.5-2.9.8-.4 1.4-1.3 1.4-2.2v-.8c0-.5.8-.8 1.3-1 1-.5 2-1.4 2.5-2.5.3-.4.4-.9.9-.9h.9s0-.1.3-.3c1.6-2.5 3-5.1 4.5-7.7.4-.8.8-1.6.8-2.4s-1-1.6-1.7-1.2c-.3 0-.4.4-.7.5-.9.4-1.8-.7-2.9-.4-.3 0-.5.3-.8.3h-.4c-1-.5-1.7-1.7-1.6-2.7-.7.1-1.3-.1-1.7-.7s-.8-1-1-1.7l-1.8-3.9c-.3-.7-.7-1.3-.8-2.1-.4-1.4-.3-2.9-.9-4.3-.3-.7-.7-1.3-.9-2s-.3-1.6.3-2.1c.8.7 1.3 1.6 1.7 2.5 2.1 4.8 3.9 9.8 6.5 14.4 0 .3.5.7.8.5 0 0 .3-.1.4-.3.4-.3.8-.1 1.3-.3.7 0 1.3-.4 2-.8 1.2-.7 2.4-1.3 3.4-2.2.5-.5 1-1.2 1.7-1.6.4-.3.9-.5 1.3-.9.8-.7 1-1.7 1.2-2.7 0-.7.3-1.3 0-1.8 0-.7-.4-1.3-1-1.4-.4-.1-.9-.1-1-.5 0-.3 0-.8-.4-.9h-.4c-.7.3-1.3.5-2.1.8h-.4c-.3 0-.3-.5-.3-.8 0-1.2-1-2.2-1.8-3.1s-1.3-2.5-.5-3.4c1.4-.1 2.5 1.3 3.4 2.4.8.9 2 1.7 3.1 2 .4 0 .9 0 1.2.4.3.1.4.4.5.5.7.5 1.8 0 2.4.4 1.3 0 2.6.3 3.9.4 0 0 .3 0 .4.1.3.1.3.4.3.7.3 1 1.3 1.7 2.4 2.1-.4 0-.7.4-.7.8s.3.7.5.9c.4.4.9.5 1.4.5s1-.4 1.2-.9c.8 2 1.2 4.1 1.4 6.2 0 .7 0 1.3.4 1.8 0 .3.4.5.5.8.3.4.4.9.4 1.3.4 1.7.9 3.3 1.6 4.8.3.7.7 1.2 1.4 1.4 0-2 1.7-3.8 1.7-5.8s-.4-2.1 0-2.9c.3-.4.7-.7 1-.9.4-.4.5-.9.8-1.3.7-1.2 1.8-2 2.7-3 .3-.3.4-.5.5-.8 0-.4 0-.9.4-1.2 0 0 .3-.1.4-.1 1.3-.3 2.6-.7 3.8-.9.4.9 0 2 .7 2.9.4.7 1.2 1 1.3 1.8v1.7c0 .4.7.7 1.2.7s.9-.3 1.3-.5c.7.4.9 1.2 1.2 2 .4 1.3.9 2.7.7 4.2 0 .8-.4 1.7 0 2.4 0 .1.3.4.3.5v.8c.3 1.7 2.1 2.6 2.5 4.3v1c0 .3.3.5.4.8.7 1 1.4 2.2 2.7 2.5 0-1.7-.4-3.4-1.4-4.8-.3-.4-.5-.7-.8-1 0-.3 0-.7-.4-1-.3-.5-1-.8-1.2-1.4 0-.5 0-1.2-.3-1.4 0 0-.3-.1-.4-.3-.4-.4 0-1 .3-1.6.3-.7.4-1.6 0-2.2.5.4 1.2.8 2 .9.3 0 .4 0 .7.3.4.3.4.8.7 1.3.3.4.7.8 1.2.8 0 .8.3 1.6.9 2 .7-.7 1.4-1.4 1.7-2.4 0-.4 0-.8.3-1.2 0-.3.3-.7.5-.9.8-1.6 0-3.4-1-4.7-.3-.3-.5-.5-.7-.9 0-.4-.3-.8-.4-1.2-.3-.5-.8-1-.8-1.6v-.7c.3-.5.5-.9 1-1.2s1-.4 1.6 0c0 .5 0 1-.4 1.6 0 .5 0 1.2.5 1.3.4 0 .8-.4.8-.9v-1.3c0-.4 0-.7.4-.9s.7-.3.9 0c0-.5.5-1.2 1-1.3h1c.4 0 .8-.3 1.2-.5 1-.8 2.4-2.2 1.8-3.4-.3-.7.4-1.3.7-2 .4-.7.4-1.4.4-2.1v-1.7c0-.8 0-1.7-.4-2.4-.3-.5-.9-.9-1.3-1.4-1-1-1.6-2.5-1.4-3.9v-1.2c0-.4-.4-.8-.8-.8h-.5c-.3 0-.5-.1-.7-.3-.3-.3-.7-.4-.8-.7s-.3-.8 0-1c0-.3.5-.3.7-.5.3-.3.3-.9.7-1.2s1 0 1.3.3c.3.4.4.9.4 1.4.3-.8 1.4-1.2 2-.7.5.4.5 1.2.5 1.8.5 0 1.2.4 1.3.9v1.7c1 0 1.4 1.6 2.5 1.7.7 0 1.2-.9 1-1.6 0-.7-.7-1.2-1-1.8-1.6-2.2-1.6-5.5 0-7.9.7.1 1.3-.4 1.8-1 .3-.4.5-.9.7-1.3.3-.8.4-1.7.5-2.6 0-.7 0-1.3.3-2v-2c-.3-1.3-1.6-2.2-1.4-3.5 1.3 1.8 2.5 3.8 3.3 5.9.4.9 1 1.8 2.1 2-1-1.2-1.6-2.7-1.7-4.3 0-.7 0-1.2-.3-1.7-.4-.9-1.3-1.4-1.7-2.4-.3-.5-.3-1-.5-1.4-.8-1-2.7-.7-3 .7 0-.4-.3-.7-.4-1-.5-.1-1.2 0-1.7 0s-1.3-.4-1.3-.9 0-.5.3-.8c.3-.8 0-1.7-.3-2.5s0-2 .7-2.4c.4-.3.9 0 1.3-.4.4-.3.5-.9 1-1.2.4-.3.9-.1 1.3 0 1.2 0 2.4-.3 3.3-.9-.5-1-.7-2.5 0-3.5 1.2.3 2.4.5 3.5.7.4 0 .8.1.9.4.3.4 0 .9 0 1.3-1.2 5 1.3 10.5 5.8 13.1-.3-.8-.5-1.7-.4-2.6 0-.9.7-1.7 1.4-2.1-1.2-.4-1.4-2-2-3.1-.4-.8-1-1.4-1.6-2.2s-.9-1.7-.7-2.5 1.3-1.6 2.1-1c.4-.5-1-.8-1-1.4s.4-.7.8-.9c.8-.3 1.6-.7 2.1-1.4s.7-1.7 0-2.4c0-.3-.4-.4-.7-.7-.3-.4 0-.9 0-1.4h1.3c0-.4.3-.8.5-1 .8.3 1.6.3 2.2 0 .5-1-.7-2.4-1.8-2.6s-2.5 0-3.7-.5c-.4-.1-.8-.4-1.2-.5-.4 0-.9 0-1.3-.1-1.3-.1-2.4-1-3.4-1.8-1-.7-2.5-1.3-3.5-.8-.7 1.6-2.4 2.6-4.2 2.6s-2.9-.9-4.3-1.2c-2.1-.3-4.3.8-6.4 0-.8-.3-1.4-.8-2.2-.8-1.2 0-2.1.9-3.3 1.2-2 .4-3.7-1.7-5.8-1.7s-2.4.7-3.7.5c-.9-.1-1.6-.9-2.5-1.3-1.7-.8-4.3-.3-5.5 1.2v-1.3c-.4 0-.7-.3-1-.4 0-1.3-1.4-2-2.6-2.4-.3 0-.5-.1-.8 0-.4.3-.4.8-.5 1.2-.3.9-1.4 1.2-2.5 1.2s-2-.3-2.9.3c-.7.4-1 .9-1.7 1.3-.4.3-.9.3-1.3.4-1.6.5-2.6 2-3.5 3.4-.7-.4-1.2-.8-1.8-1.2-.5 1.8-.3 3.8.5 5.4.5 1 1.4 2.4.8 3.4h-.9c0-1.3-1.4-2.2-1.7-3.5-.3-1 .3-2.2 0-3.3 0-1-1-2.4-2-2-1.2 1.6-1.2 3.9 0 5.5-2 .3-4.1-.8-5.9 0-1.4.7-2.7 2.4-4.2 1.7-.4-.3-.8-.7-1.3-.7s-1 .4-1.4.8c-1 1.2-2.1 2.2-3.1 3.4-.8.8-2.1 1.6-2.7.7-.4-.7 0-1.3.7-1.7.5-.4 1.2-.8 1.4-1.4.4-1-.4-2.1-1.3-2.7s-2-.9-2.7-1.7-.7-.8-1-1c-.5-.3-1.2-.1-1.8 0-2 .5-4.5 1.3-4.8 3.4 0 .4 0 .8-.4 1-.3.3-.8.3-1.2.3-2.4 0-4.7 1.3-5.6 3.5-.4.9-.7 2-1.2 2.7-1.2 1.8-4.2 2.9-4.1 5.1 1.6.4 3.3 0 4.8-.7.3 1.2 0 2.5-.8 3.5 0 .3-.4.7-.3.9.3.3.7.1.9 0 1.4-.5 3-1.2 3.7-2.5.4-.8.4-1.7.7-2.6.5-3 2.6-5.8 5.5-6.9.9.5.5 2 0 2.7-.8.8-1.7 1.6-1.7 2.6s.8 1.7.7 2.5c0 1.2-1.4 1.6-2.1 2.6-.4.5-.4 1.2-.8 1.7-.9 1.4-2.9 1.6-4.6 1.6s-2-.1-2.4-1c-.4-1.2.9-2.7 0-3.5-.8.3-1.7.3-2.5 0 .5 2-.5 3.9-1.8 5.4s-2.9 2.6-4.1 4.2c0 .3-.4.5-.7.7-.5.1-1 0-1.4-.3-1.2-.4-2.5-.1-3.4.5.8.4 1.7.8 2.4 1.6s.9 2.2.3 3c0 .7-.3 1.2-.8 1.6-.5.3-1.2.4-1.8.4-1.2 0-2.4.1-3.4.3-.3 0-.5 0-.7.1 0 0-.3.3-.4.5-.5 1.2-1 2.5-1.6 3.7 0 .3-.3.7-.3.9s0 .4.3.7c.5 1 1.3 2.1 2.5 2.5 1.6.5 3.4-.4 4.6-1.6s2.6-3.5 3.5-5.4c1.6.9 3.5-1 5.4-.7 1 .3 1.8 1.2 2.5 2.1 1 1.4 2.1 3 2.4 4.8.7-1.2 1.4-2.2 2.2-3.3 0-1-.9-2-1.7-2.7s-1.3-2-.9-3c2.6 1.4 3.7 4.6 4.6 7.5.4 1 .9 2.2 2 2.6-.5-2.1.7-4.5 2.5-5.2.8-.4 1.7-.5 2.4-1 1.2-1 1.3-3.1 2.9-3.4 0 .7 1 .9 1.7.9s1.3-.5 2-.8c0 .8 0 1.4.3 2.2 1-.3 2.2.9 1.8 2.1-3.1 1-6.4 1.6-9.7 1.4-.5 0-1 0-1.4.3-.4.4-.4 1-.4 1.6 0 1.3.5 3.1 1.8 3.3h.9c.5.1.8.8 1.2 1.2.8.8 2.4.9 3.1 0 0 2.1-.9 4.3-2.5 5.6 0-.8-1-1.3-1.8-1.3s-1.7.3-2.5.1c-1.7-.3-3.4-2-4.8-1-.4.3-.7.5-.9.9-1.3 1.3-3.8 1.2-5-.1-.4-.5-.7-1.2-1.2-1.4-.3-.3-.8-.4-1-.7-1-1.3 1.4-3.4.3-4.7-1.8 1.2-4.6-.4-6.5.7-.5.3-.9.8-1.4 1-1.3.8-2.9.4-4.3.5-2 .1-3.9 1.2-5.1 2.7-.8 1-1.3 2.2-2 3.3-2.1 3-6 4.8-6.8 8.4 0 .5 0 .9-.4 1.4-.3.4-.7.7-1 .9-1.6 1.2-2.4 3.3-2 5.2.3 1.3.8 2.2 1.2 3.4.3 1 .8 2 1.3 2.9l2 3.9c0 .4.4.7.7.9s.5.4.8.7c.5.4.9.8 1.4 1.2 1.2.9 2.6 1 4.1 1s2.9-.4 4.2-.4c0-.7.9-.9 1.6-1 .7 0 1.2-.1 1.8 0 .7 0 1.2.4 1.4 1 0 .4 0 .8.5 1 .7.5 1.7-.5 2.5-.3.5.3.8.9.7 1.6 0 .7-.3 1.2 0 1.8 0 .4.4.7.5 1 .3 1-.7 2.1-.5 3.1 0 1.2 1.7 1.8 2 3.1v1.2c0 .3.4.5.7.8 1.4 1.8 0 4.6 1.6 6.4l.8.3h.5z"/><path d="m544.3 302.7c-.3.4-.5.8-.7 1.3 0 .4.3.8.4 1.2v1.8c0 .7.3 1.3.8 1.6.8.3 1.6-.4 1.8-1 .3-.5.4-1 .4-1.4 0-.7 0-1.3.3-1.7 0-.3.4-.4.5-.5.5-.7.7-1.6.8-2.4.3-1.4 1-2.9 1.4-4.3s.4-3.1-.7-4.3c-.9.7-1.7 1.6-2 2.7 0 .3 0 .5-.3.7 0 .3-.5.3-.8.4-1.2.4-2.5 1-2.2 2.5.3 1.3.7 2.5 0 3.7h.1z"/><path d="m622.1 225.5v.9c0 .8.9 1.3.9 2.1v.5c0 .3.3.3.4.4.3.3.3.8.3 1.3s-.3.9-.3 1.3v.9c0 .3-.7.4-.8 0-.5.5-.3 1.3-.8 1.8 0 .1-.4.3-.7.3-1 .4-2.1 1.2-2.7 2.1 0 .1-.3.4-.3.5v.5c.3.7.4 1.4.7 2.1 0 .1 0 .4.3.5.4.4.9.3 1.2-.1s.3-.9 0-1.3v-.5c0-.4.8-.5.9-1 .7.3 1.4.3 2.1.3h.4c.3-.1.3-.5 0-.8 0-.3-.3-.5 0-.8.7 0 1.3 0 1.8-.5.7-.5.7-1.7 0-2.4.5-.8.5-1.8.5-2.9s0-1.3-.3-1.8c-.3-.4-.5-.7-.8-.9-.3-.3-.4-.8-.3-1 .5.1 1-.4.8-.9v-.4c0-.3.4-.5.5-.8 0-.4 0-.8-.5-1 0-.1-.4-.3-.5-.5 0 0-.3-.3-.4-.3h-.4c-.8 0-1.3-1.7-2-1.3-.3.1 0 .9 0 1.2 0 .7.3 1.3 0 2.1v.5h-.1z"/><path d="m595.5 276.5c0 .4 0 .7.4 1 .3.3.5.4.9.7 1.2.7 2 2 2.2 3.4 0 .3 0 .5.3.8 0 .1.3.3.5.4 1.3.8 1.8 2.5 1.4 3.9 0 .1 0 .4-.4.4h-.3c-2.4-1-3.7-3.7-4.7-6.2-.5-1.2-1-2.4-1.6-3.7 0-.4-.4-.8-.7-1s-.5-.3-.8-.5c-.8-.7-1.2-2.9.4-2.2 1.2.5 2.1 1.8 2.5 3.1h-.3z"/><path d="m604.1 290.5c0 .1.4.3.7.4.7.3 1.4 0 2.1 0s1.6.3 2.4.5c.3 0 .5.1.8.3.4 0 .8.3 1 .4.8.4 1.6 1 2.4.8-.3-.4 0-1 .7-1s.5 0 .8.1c.3 0 .7 0 .7-.4-1.3-.1-2.5-.4-3.8-.5-1.2-.1-2.4-.4-3.5-.8-.7-.3-1.2-.7-1.8-.7h-1c-.3 0-.5-.4-.8-.7-.7-.5-1.4-.9-2.4-1h-.7c-.9.5 2.1 2.4 2.6 2.7z"/><path d="m605.5 278.2h.7c.8 0 .9-1.2 1.4-1.6.8-.7 2.4 0 2.7-1v-.5c0-.9.7-1.7 1.3-2.4.8.1 1 1.2.9 2s-.5 1.6-.4 2.4c0 .4.3.8.4 1.2.4 1.6-.8 3-1.3 4.6 0 .5-.3 1.2-.5 1.7s-.9.9-1.4.7c-.4-.1-.7-.5-1-.7-.8-.4-1.7.3-2.5-.1s-.7-.5-1.2-.7c-.3 0-.8 0-.9-.3-.3-.4.3-.9.5-1.2.4-.5.7-1 .7-1.8s-.7-2.1.5-2.4h.1z"/><path d="m613.2 287.4v.7c0 .1.5 0 .7 0 0-.1.3-.4.3-.7 0-.9 0-1.8.4-2.5 0 .3.3.5.5.8.3.4.5.7.9.9.4.1.9 0 1-.3.3-.5-.4-1-.4-1.7s.7-.8.9-1.2c0-.3.3-.5 0-.9 0-.3-.4-.1-.5-.1-.4.3-.8.3-1.2.3-.3-.5-.4-1.3 0-1.7.4-.3.8 0 1.3 0s1.6-.3 1.7-.8c.3-.8-1.2-.8-1.8-.8-1 0-2.2.1-2.9 1-.5.8-.7 2-.9 2.9-.3.8-.5 1.4-.4 2.2.3.9.4 1 .3 2h.1z"/><path d="m561.3 264.5c-2.2 2.2-4.5 4.5-6.7 6.7z"/><path d="m625.7 285.5c0 .4.5.8 1 .7.4 0 .7-.3.9-.3s.3.1.4.3c.8.8 1.4 1.6 2.2 2.2.3.4.7.8.5 1.2 0 .3-.3.4-.3.5-.3.7.7 1.6 1.3 1.2 0 .8 1 1.4 1.7 1 .3-.1.5-.5.8-.7.7-.4 1.4 0 2.1.3.5.3 1 .4 1.3.9.3.4.4.8.5 1.2s.3.9.7 1.2.9.3 1.2 0v-.4c0-.8-.4-1.7-.8-2.4s-.8-1.4-.4-2c.5-.7 1.4-.3 2.2-.3 1.3 0 2.4-1.4 2-2.7-1.6.9-3.4 1.8-5.1 1.2-1.6-.7-2.4-2.4-3.7-3.3-.9-.7-2-.9-2.9-1.6-.3-.1-.4-.4-.7-.4-.4 0-.8.3-1 .5-.4.4-.8.7-1.3.8-.3 0-.7.3-1 0-.4-.1-.5-.7-.5-1.2v-1.7h-.4c-.9 0-1.7 0-2.5-.4-.8.9.4 1.3 1 1.6.4.1 1.2.4 1.3.9 0 .5-.8.9-.5 1.6h-.1z"/><path d="m465.9 367.9c.7 0 1.3 0 1.6-.5.7-.8-.3-2-1.2-2.4s-2.1-.7-2.6-1.6c1-1.2 3-.8 4.6-.5 3.8.8 7.7.4 11.4-.9-2.2-.7-4.1-2.6-4.6-4.8.7-.5 1.4-.7 2.2-.5 0-2-1.2-3.7-1.7-5.5s0-4.3 1.8-4.8c1.8 1.6.5 4.7 1.2 6.9.9 2.7 4.7 4.3 4.6 7.2 3.3 1.6 6.5 3 9.8 4.6 2.1.9 4.2 2 6.4 2.2s4.7-.3 6.3-2 1.8-4.2.9-6.3c4.2-3.5 9.6-5.6 15.1-5.6s5.5.4 8.2.3c2.1 0 4.1-.3 6.2-.7 3.1-.4 6.3-.9 9.3-2.1 1.7-.7 3.4-1.6 5.1-1.3 2.4.4 3.9 2.7 6.2 3.8 3.5 1.7 7.5-.5 11.3-1.3 2.7-.5 5.6-.4 8.4 0 1.4 0 3.1.5 3.5 1.8.4-1.4 2.4-1.6 3.8-1.2s2.9 1.2 4.2.9c.9-.3 1.7-.9 2.6-1s1.7.3 2.5.7c5.4 2.5 10.2 6.2 14.1 10.6.4.5.9 1 1 1.6.4 1.7-1.4 3-3 3.7-1.7.5-3.5 1-4.3 2.6-.4.9-.4 1.8-.8 2.7-.5 1-1.7 1.7-2.2 2.7-.5 1.2 0 2.6-.8 3.9-.4.8-1 1.3-1.7 1.8-7.6 5.6-17.7 6.5-27.1 6.3-9.4-.3-19.1-1.3-28.1 1.2-2.5.7-4.8 1.7-7.3 2.1-10.9 1.8-20.9-6.4-32.1-7.5-4.3-.4-8.8.4-13.1-.3s-8.2-2.5-12-4.6c-4.3-2.4-8.6-4.8-12.8-7.6-5.9-3.8-2-4.2 3-4.5l.3-.3z"/><path d="m458.4 175.4c0 .4-.3.7-.4 1 0 .4 0 .8.5.9 0 0 .3 0 .4.3.3.3 0 .7-.3.8h-1c-.4 0-.8 0-.9.3v.9c.3.3.5.4.9.4 1.2.1 2.5-.5 3.7 0 0 0 .3.1.3.3v.5c0 .3.4.4.7.4.5 0 1 .1 1.4 0 .5-.1.9-.7.8-1v-.8c0-.3.4-.4.7-.3h.8c.7 0 .9-.8 1-1.4 0-.4 0-.7.3-1v-.3c0-.3-.4-.4-.7-.3-.3 0-.5.3-.7.4-.5.4-1 .5-1.7.7-.3-.4 0-.8.3-1.2 0-.5-.5-1.2-1-.9-.3-.3 0-.8 0-1-.5-.9-1.4-1.6-2.5-1.8h-.5s-.3-.3-.4-.3c-.7-.5-1.6-.1-2.4.1-.7.3-2.6.8-2.4 1.8 0 1 2.1 1.3 2.9 1.4h.3z"/><path d="m470.1 168.8v.4s0 .3-.3.4c0 .1-.4.4-.7.5-.5.3-1 0-1.6 0s-3.8.8-2.1-.3c.5-.4 1.2-.7 1.7-.8.5 0 2.2-.5 2.6-.3h.3z"/><path d="m470.1 172.3c.4.3 1.2.1 1.4-.4 0-.1 0-.4.3-.5 0-.1.4-.3.5 0v.3c0 .5-.4.9-.8 1.3-.4.3-.7.7-1.2.7s-.8-.1-1-.3c-.9-.4-1.8-.7-2.7-.8 0-.4 0-.8.4-1 .3-.3.7-.4 1-.5.4-.1 1.4-.7 1.7-.1.3.4 0 .9.4 1.3z"/><path d="m475.3 176.6h.7c.3 0 .4.3.4.5s-.3.4-.5.5c-.8.4-1.7.5-2.5 1-.5.3-1.4 1-2.1.7-.5-.3-.4-.5 0-.8.9-.9 2.9-1.7 4.1-2z"/><path d="m474 180c-.4.3-.8.5-1.2.8 0 0-.3.1-.4.3-.3.4 0 .9.4 1s.8.1 1.3 0c.4 0 .9-.1 1.3 0 .4 0 .7.4.9.7.4.3.7.7.9 1 .3.5.3 1 .5 1.6s.9.9 1.3.5c.5 1 .5 2.2 0 3.3v.4c0 .3.3.5.5.5h.9c.4 0 .8.4 1.2.7s.9.4 1.3.3c.5-.4.4-1.2 0-1.7-.4-.8-.8-1.7-1-2.5v-.4c0-.3.3-.4.5-.5.8-.5 1-1.6.7-2.4 0-.3-.3-.5-.3-.8 0-.4.3-.7 0-1 0-.5-.7-.7-1.2-.8.3-.3.4-.8 0-1 0 0 .3-.3.3-.5-1.3-.8-3.4.8-4.2-.5-.4-.7-.5-.7-1.2-.4-.9.4-1.7.9-2.6 1.4h-.1.1z"/><path d="m496.9 171.1c-.9.4-1.8.7-2.7 1-1.3.4-2.7.8-3.9 1.6-.5.4-1 .9-1.7 1h-1.7c-.5 0-1.2.3-1.3.8-1.6-.4-3-.7-4.6-.8-.4 0-.3.7 0 .9s.7.3 1 .3h1.3c.4 0 .9 0 .9.5s-.3.5-.5.8c-.4.3-.8.4-1.2.5s-.9.3-1.3.1-.8-.5-1-.9c-.7-.7-1.7-.9-2.6-.8 0-.9 1.6-1 1.8-2v-.5c0-.3.5-.3.8-.1.3 0 .5.3.8.3.8.3 1.6 0 2.4-.4.8-.3 1.7-.5 2.4 0 .5-.3.7-1 0-1.4-.7-.7-1.8 0-2.6-.3-.3 0-.4-.3-.3-.5 0-.1.3-.3.4-.3h1c.4 0 .7-.3.8-.7.3-.7-.8-1.4-.3-2.1 0 0 .3-.1.4-.3.5-.1 1-.4 1.6-.5.5-.1 1.2-.3 1.6 0 .3.4 0 .9 0 1.4s0 1 .4 1.3c.4.1.8-.3.9-.5 0-.4.3-.8.5-1.2.4-.5 1-.7 1.6-.7s1.2.4 1.7.7c0-.3.3-.5.5-.7s.7 0 .9-.1c.9 0 1.8 0 2.6.3.3 0 .5.3.8.3.8 0 1.4-.4 2.4 0 .5.3.9.8.5 1.3s-1.2.8-1.8.9c-.8.1-1.6.5-2.2.9l-.3-.3h.1z"/><path d="m553.7 188.4c.5-1 1.6-1.6 2.4-2.4s.5-.7.9-.9.9-.4 1.3-.7.8-.8.5-1.3c-1.2 0-2.1.5-3.1 1-.9.5-1.8 1-2.6 1.7-.9.8-1.6 1.7-2.2 2.5-.3.4-.7.8-.4 1.3 0 .5.8.7 1.2 1 0 .1.3.4.4.7.4.7 1.7.9 1.8 0 0-.4-.3-.9-.3-1.4s0-1 .3-1.6h-.1z"/></g><path d="m383.3 125.2h267.3v45h-267.3c-2.5 0-4.5-2-4.5-4.5v-36.3c0-2.5 2-4.5 4.5-4.5z" fill="#3bd9cc"/><path d="m664.8 165h-278.4v-34.3h278.4c-7.9 10.1-7.9 24.2 0 34.3z" fill="#f0f0f0"/><path d="m386.3 130.7h89.5v34.3h-89.5z" fill="#fff"/><path d="m475.9 125.2h191.7c1 0 1.8.8 1.8 1.8v1.8c0 1-.8 1.8-1.8 1.8h-191.7z" fill="#03c7c0"/><path d="m475.9 165h191.7c1 0 1.8.8 1.8 1.8v1.8c0 1-.8 1.8-1.8 1.8h-191.7z" fill="#03c7c0"/><path d="m464.3 160.9-6.2-9.2c-.3-.4-.7-.4-.9 0l-6.2 9.2c-.3.4-1 .3-1-.3v-20.8h15.4v20.8c0 .5-.7.8-1 .3z" fill="#ffbd32"/><path d="m371.1 48.5h2.7v23.8h-2.7z" fill="#b03e2c"/><path d="m530.2 49.1-80 28h-.5l-80-28c-.7-.3-.7-1.2 0-1.3l80-29.8h.5l80 29.8c.7.3.7 1.2 0 1.3z" fill="#ffd359"/><path d="m369.6 49.1 3.1 1.2 76.8-28.7h.5l76.8 28.7 3.1-1.2c.7-.3.7-1.2 0-1.3l-80-29.8h-.5l-80 29.8c-.7.3-.7 1.2 0 1.3z" fill="#ffbd32"/><path d="m497.5 89.8h-95.2v-31.9c29.7-15.7 65.3-15.7 95.2 0z" fill="#ffbd32"/><path d="m490 57.9c-16.2-8.6-34.3-12.4-52.1-11.7 14.8.7 29.6 4.6 43.1 11.7v31.9h9z" fill="#ffd359"/><path d="m377.2 72.8c0 2.6-2.1 4.7-4.7 4.7s-4.7-2.1-4.7-4.7 2.1-4.7 4.7-4.7 4.7 2.1 4.7 4.7z" fill="#da4d36"/><path d="m371 73.6c-2.5.3-4.6 2.2-4.8 4.7-.1 1.4-.3 2.9-.4 4.2 0 2.4-.3 4.7-.4 7.2 0 1.8-.3 3.8-.8 5.5-.7 1.8-1.8 3.4-3.5 4.2 2.7.3 4.8-2.4 6.4-4.7l1.2 8.5c2-3.9 3.1-8.4 3.5-12.7 1.4 1.4 2.2 3.5 2.2 5.5.5-2.4 1-6.2 2-9.3.9-2.9 1-5.9.5-8.8-.5-2.7-3-4.7-5.9-4.5z" fill="#da4d36"/><path d="m383.4 89.7h175.5v35.6h-175.5c-1.7 0-3-1.4-3-3v-29.5c0-1.7 1.4-3 3-3z" fill="#7ebcd9"/><path d="m562.6 119.7h-174.8v-24.5h174.8c-2.9 7.9-2.9 16.6 0 24.5z" fill="#f0f0f0"/><path d="m386.7 95.2h118.3v24.5h-118.3z" fill="#fff"/><path d="m505 89.7h62.8c.7 0 1.3.5 1.3 1.3v3c0 .7-.5 1.3-1.3 1.3h-62.8z" fill="#5493b0"/><path d="m505 119.7h62.8c.7 0 1.3.5 1.3 1.3v3c0 .7-.5 1.3-1.3 1.3h-62.8z" fill="#5493b0"/><path d="m550.9 114-3.9-5.8c0-.3-.4-.3-.7 0l-3.9 5.8c-.3.3-.7.1-.7-.3v-13.2h9.8v13.2c0 .4-.4.5-.7.3z" fill="#3bd9cc"/><path d="m579.9 125.3 5 27.2h5.5l.7-24.2c5.8-2.9 12.4-2.9 18.1 0l-.4 24.2h5.5l5.8-27.4c0-.9-.3-1.8-1.2-2.2l-8.8-4.3h-20.7l-8.8 4.6c-.3.1-.5.4-.8.7v1.4z" fill="#316882"/><path d="m619.6 160h-8.8c-.9 0-1.6-.8-1.6-1.6v-5.8h5.5v3.9l5.1 2.5c.5.3.4.9 0 1h-.3z" fill="#03405c"/><path d="m619.6 160-7.2-3.4v-3.9h2.2v3.9l5.1 2.5c.5.3.4.9 0 1h-.1z" fill="#03c7c0"/><path d="m612.4 153.3h2.2v.5h-2.2z" fill="#03405c"/><path d="m612.4 154.5h2.2v.5h-2.2z" fill="#03405c"/><path d="m612.4 155.8h2.2v.5h-2.2z" fill="#03405c"/><path d="m579.9 160h8.8c.9 0 1.6-.8 1.6-1.6v-5.8h-5.5v3.9l-5.1 2.5c-.5.3-.4.9 0 1h.3z" fill="#03405c"/><path d="m579.9 160 7.2-3.4v-3.9h-2.2v3.9l-5.1 2.5c-.5.3-.4.9 0 1h.1z" fill="#03c7c0"/><path d="m584.9 153.3h2.2v.5h-2.2z" fill="#03405c"/><path d="m584.9 154.5h2.2v.5h-2.2z" fill="#03405c"/><path d="m584.9 155.8h2.2v.5h-2.2z" fill="#03405c"/><path d="m620.1 123.9-.9.9v.3l.8-.8v-.4z" fill="#03405c"/><path d="m580.1 124.3.8.8v-.3l-.9-.9v.3h.3-.1z" fill="#03405c"/><path d="m612.5 116.7c0 .9 0 2-.3 2.9 0 .4 0 .8-.4 1-.5.5-1.3.8-2.2 1-3.7.7-7.5.7-11.3.5-3 0-6.2-.4-8.9-1.3-.4-.1-.9-.4-1.2-.7s-.3-.7-.4-1c-.3-1.8-.4-6.2-.5-10.3v-9.7c0-2.5 2.5-11.4 4.2-13.1.3-.3 4.1-.3 4.5-.4s.8-.1 1.2-.3c2.4-.3 4.8-.5 7.2-.7h1.2c.4.1.8.4 1 .8 5.6 1.4 4.8 2.7 5.2 5 .4 2.4 0 5.1 0 6.5.3 1.4 0 3 .3 4.6 0 1.6.4 3.3.5 4.8.3 3.4 0 6.8 0 10.1h-.1z" fill="#03c7c0"/><path d="m595.4 111c-.7 1.4-1 3.1 0 4.5.5.9 1.7 1.4 2.7 1.6 1 .1 2.2 0 3.3-.3s9.4-1.4 9.4-1.4c.9-.1 3.5-1 4.3-1.4l-2.4-4.3c-2.2.5-5.9 1.6-7.6 2.6-.9.5-2.1.8-3.1.7h-.4c0-1.2-1-2.1-2.1-2.4-.4 0-.8 0-1-.3-.3 0-.4-.3-.5-.4-.4-.3-1-.1-1.4 0-.4.3-.7.8-.9 1.2h-.3z" fill="#efecf0"/><path d="m613.3 89.3c2.4 1.7 4.3 3.9 5.5 6.5.4.9.8 1.8 1 2.7.8 3.4 1.3 7.1.7 10.6 0 .8-.4 1.6-.8 2.4-.8 1.4-2.1 2.5-3.4 3.5-2 1.3-4.2 2.5-6.5 2.9-1.4.3-3.1.1-4.2-.9-.8-.8-1-1.8-1.2-2.9v-1.7c0-.3.3-.5.5-.8.8-.8 1.7-1.4 2.6-2 .5-.3 1-.5 1.6-.8.8-.5 1.3-1.3 1.7-2.2.7-1.4.7-3 .3-4.5-.8-3.3-2.6-10.3-3-11-.7-1-.9-2.2-.4-3.4 0 0-1-2-.8-2.1.7-.5 3.8 1.6 6.2 3.4h.3z" fill="#03c7c0"/><path d="m604.9 116.9h.3v-4.8c-.8 0-1.6 0-2.4.1 0 0-.3 1.7-.3 1.8v1.8c0 .4 0 .8.4 1s1.2 0 1.7 0h.3z" fill="#441e45"/><path d="m611.1 102.1-1.6-6.4 1.5 7.6z" fill="#03ada7"/><path d="m605.1 111c.7 1.4 1 3.1 0 4.5-.5.9-1.7 1.4-2.7 1.6-1 .1-2.2 0-3.3-.3s-9.4-1.4-9.4-1.4c-.9-.1-3.5-1-4.3-1.4l2.4-4.3c2.2.5 5.9 1.6 7.6 2.6.9.5 2.1.8 3.1.7h.4c0-1.2 1-2.1 2.1-2.4.4 0 .8 0 1-.3.3 0 .4-.3.5-.4.4-.3 1-.1 1.4 0 .4.3.7.8.9 1.2h.3z" fill="#efecf0"/><path d="m587 89.3c-2.4 1.7-4.3 3.9-5.5 6.5-.4.9-.8 1.8-1 2.7-.8 3.4-1.3 7.1-.7 10.6 0 .8.4 1.6.8 2.4.8 1.4 2.1 2.5 3.4 3.5 2 1.3 4.2 2.5 6.5 2.9 1.4.3 3.1.1 4.2-.9.8-.8 1-1.8 1.2-2.9v-1.7c0-.3-.3-.5-.5-.8-.8-.8-1.7-1.4-2.6-2-.5-.3-1-.5-1.6-.8-.8-.5-1.3-1.3-1.7-2.2-.7-1.4-.7-3-.3-4.5.8-3.3 2.6-10.3 3-11 .7-1 .9-2.2.4-3.4 0 0 1-2 .8-2.1-.7-.5-3.8 1.6-6.2 3.4h-.3z" fill="#03c7c0"/><path d="m595.5 116.9h-.3v-4.8c.8 0 1.6 0 2.4.1 0 0 .3 1.7.3 1.8v1.8c0 .4 0 .8-.4 1s-1.2 0-1.7 0h-.3z" fill="#441e45"/><path d="m589.2 102.1 1.6-6.4-1.3 7.6z" fill="#03ada7"/><g fill="#fff"><path d="m586.7 120.5h-.9v-.7h.7v.7h.3z"/><path d="m587.7 120.5h-.9v-.7h.7v.7h.3z"/><path d="m588.6 120.5h-.9v-.7h.7v.7h.3z"/><path d="m589.6 120.5h-.9v-.7h.7v.7h.3z"/><path d="m590.4 120.5h-.9v-.7h.7v.7h.3z"/><path d="m591.3 120.5h-.9v-.7h.7v.7h.3z"/><path d="m592.2 120.5h-.9v-.7h.7v.7h.3z"/><path d="m593.2 120.5h-.9v-.7h.7v.7h.3z"/><path d="m594.1 120.5h-.9v-.7h.7v.7h.3z"/><path d="m595 120.5h-.9v-.7h.7v.7h.3z"/><path d="m595.8 120.5h-.9v-.7h.7v.7h.3z"/><path d="m596.7 120.5h-.9v-.7h.7v.7h.3z"/><path d="m597.6 120.5h-.9v-.7h.7v.7h.3z"/><path d="m598.5 120.5h-.9v-.7h.7v.7h.3z"/><path d="m599.4 120.5h-.9v-.7h.7v.7h.3z"/><path d="m600.5 120.5h-.9v-.7h.7v.7h.3z"/><path d="m601.3 120.5h-.9v-.7h.7v.7h.3z"/><path d="m602.2 120.5h-.9v-.7h.7v.7h.3z"/><path d="m603.1 120.5h-.9v-.7h.7v.7h.3z"/><path d="m604 120.5h-.9v-.7h.7v.7h.3z"/><path d="m604.9 120.5h-.9v-.7h.7v.7h.3z"/><path d="m605.8 120.5h-.9v-.7h.7v.7h.3z"/><path d="m606.6 120.5h-.9v-.7h.7v.7h.3z"/><path d="m607.6 120.5h-.9v-.7h.7v.7h.3z"/><path d="m608.5 120.5h-.9v-.7h.7v.7h.3z"/><path d="m609.4 120.5h-.9v-.7h.7v.7h.3z"/><path d="m610.3 120.5h-.9v-.7h.7v.7h.3z"/><path d="m611.3 120.5h-.9v-.7h.7v.7h.3z"/><path d="m612.1 120.5h-.9v-.7h.7v.7h.3z"/><path d="m613 120.5h-.9v-.7h.7v.7h.3z"/><path d="m614 120.5h-.9v-.7h.7v.7h.3z"/><path d="m614.9 120.5h-.9v-.7h.7v.7h.3z"/></g><path d="m612.1 117.8h2v3.1h-2z" fill="#989899"/><path d="m586.7 117.8h2v3.1h-2z" fill="#989899"/><rect fill="#d0ced1" height="1.8" rx=".4" width="29.8" x="585.4" y="120.3"/><rect fill="#d0ced1" height="16.8" rx=".5" width="29.8" x="585.4" y="102.1"/><path d="m597.9 110.5c0 1.3 1 2.5 2.5 2.5s2.5-1 2.5-2.5-1-2.5-2.5-2.5-2.5 1-2.5 2.5z" fill="#fff"/><path d="m596 95.7c-1-.3-2-.3-3-.7-.9-.4-1.8-1-2.2-2-.3-.7 0-1.4-.4-2.1 0-.5-.5-1-.9-1.4-1-1.7-1.2-3.9-.7-5.9s1.7-3.7 2.9-5.4c.4-.7.9-1.2 1.2-1.8.5-.9.7-2 1-2.9.5-1.7 1.3-3.4 2.5-4.7 1.3-1.3 3.1-2 4.8-1.4.5.1.9.4 1.4.5.5 0 .9 0 1.4-.1 1.4-.3 2.9-.4 4.2 0s2.6 1.2 3.4 2.4c.4.8.7 1.6 1 2.2s1 1 1.4 1.7c.7 1.3 0 2.9 0 4.3s1.7 3.3 1.2 4.8c-.3.7-.8 1.2-1 2-.3.7 0 1.4-.3 2.2-.3 1-1.3 1.8-2.2 2.2-1 .4-2.1.5-3.1.8-3.8 1-6.7 4.6-7.1 8.5-.9-.7-1.4-1.4-2.5-2.1-.9-.5-2-.9-3-1.2h-.1z" fill="#da4d36"/><path d="m607.7 80.4c-.3 1.2-.9 2.1-1.6 3s-1.4 1.8-2.1 2.7c-.4.7-.7 1.3-1 1.8-.9 1-2.4 1.4-3.8 1.6h-1.8c-.7-.1-1.2-.5-1.4-1.2-.3-.8 0-1.7 0-2.6-.3-.8-1-1.3-1.2-2.1 0-.5 0-1.3.3-1.8.4-1.3 1.3-2.5 1.3-3.9v-1.6c0-.4 0-.9.3-1.3v-.3c.5-.5 1.3-.4 2-.3h.5s.3-.1.3-.3c.4-.5.9-1.2 1.4-1.6.7-.4 1.3-.7 2.1-.5h.4c.5.3 1 .7 1.3 1.2.4.7.7 1.3.8 2 0 .3 0 .7.4.9s.7.5.9.8c.9.7 1.2 2 1 3.1v.3z" fill="#ffbd32"/><path d="m608.2 69.5c.3 0 .5-.3.9-.3s.7 0 .9.3.4.5.4.9 0 .7-.3.9c-.4.8-1.2 1.6-2.1 1.8h-.4c-.4-.3-.8-.5-1-.9-.9-1.3.5-2.4 1.6-2.7z" fill="#ffbd32"/><path d="m607.8 72.7-.9-.8 2.1-1.4z" fill="#d49d29"/><path d="m605.3 72 1.6-.6-.1.5h.8l-.2.3.7.1v.4h.5l.3 1.4z" fill="#da4d36"/><path d="m593 74.4h-.8c-.3 0-.5.1-.7.4s-.3.5 0 .8c0 .3.3.5.4.8.5.7 1.2 1 2 1.2.3-.3.5-.5.7-.9.5-1.2-.8-1.7-1.7-2v-.3z" fill="#ffbd32"/><path d="m593.9 76.7.6-.7-1.9-.8z" fill="#d49d29"/><path d="m595.9 75.6-1.4-.3.2.4-.6.1.1.3-.5.1.1.4h-.5l.1 1.7z" fill="#da4d36"/><path d="m603.2 72.6-3.7 5.9.3 3.1-.3.8-2.9.9v-.5l1.2-4.2-1.4-3.3v-.3c.5-.5 1.3-.4 2-.3h.5s.3-.1.3-.3c.4-.5.9-1.2 1.4-1.6.7-.4 1.3-.7 2.1-.5h.5z" fill="#d49d29"/><path d="m598.1 82.4c.4-.3.8-.5 1.2-.8 0-.1.4-.3.7-.1s0 .5 0 .8c-.4 1-1.3 1.8-2.1 2.6h-.3c-.5-.1-2-.9-1.7-1.7 0-.7 1.7-.7 2.2-.9z" fill="#03405c"/><path d="m601.1 78.4-.3 1.3-.4-1.3c0-.1 0-.4.3-.4l1.3-.4-1 .8z" fill="#03405c"/><path d="m596.7 78.7v1.2l.5-1.2v-.4l-1.2-.4.8.8z" fill="#03405c"/><path d="m601.7 76.7s0 .3-.5.7c-.3.3-.7.5-.7.4 0 0 0-.3.5-.7.3-.3.7-.5.7-.4z" fill="#03405c"/><path d="m596.2 76.9s0 .4.4.7.5.5.7.4c0 0 0-.4-.4-.7s-.5-.5-.7-.4z" fill="#03405c"/><path d="m615.9 251.4h187.1v44.4h-187.1c-2 0-3.7-1.6-3.7-3.7v-37.2c0-2 1.6-3.7 3.7-3.7z" fill="#ffd359"/><path d="m809.4 290.4h-189.8v-33.8h189.8c-5.6 10.6-5.6 23.2 0 33.8z" fill="#f0f0f0"/><path d="m618.4 256.6h89.5v33.8h-89.5z" fill="#fff"/><path d="m707.8 251.4h106c.9 0 1.8.8 1.8 1.8v1.8c0 .9-.8 1.8-1.8 1.8h-106z" fill="#ffbd32"/><path d="m707.8 290.4h106c.9 0 1.8.8 1.8 1.8v1.8c0 .9-.8 1.8-1.8 1.8h-106z" fill="#ffbd32"/><path d="m602.8 295.7h222.3v60.2h-222.3c-1.3 0-2.5-1-2.5-2.5v-55.4c0-1.3 1-2.5 2.5-2.5z" fill="#7ebcd9"/><path d="m728.2 295.7h96.3v60.2h-96.3z" fill="#5493b0"/><path d="m833.5 349.4h-98.4v-47h98.4c-6.7 14.9-6.7 32.1 0 47z" fill="#f0f0f0"/><path d="m813.7 295.7h22.9c.7 0 1.2.5 1.2 1.2v4.3c0 .7-.5 1.2-1.2 1.2h-22.9z" fill="#5493b0"/><path d="m602.8 295.7h131.2v6.7h-133.7v-4.2c0-1.3 1-2.5 2.5-2.5z" fill="#5493b0"/><path d="m813.7 349.4h22.9c.7 0 1.2.5 1.2 1.2v4.3c0 .7-.5 1.2-1.2 1.2h-22.9z" fill="#5493b0"/><path d="m632 312.5h5.4v28h-5.4z" fill="#5493b0"/><path d="m645.5 312.5h5.4v28h-5.4z" fill="#5493b0"/><path d="m659 312.5h5.4v28h-5.4z" fill="#5493b0"/><path d="m777.9 350.7-14.4 12.2v-38.9h14.4z" fill="#ffbd32"/><path d="m440.6 212.1h-153.8v-41.8h153.8c.9 0 1.7.8 1.7 1.7v38.4c0 .9-.8 1.7-1.7 1.7z" fill="#5493b0"/><path d="m287.1 170.3h66.6v41.8h-66.6z" fill="#7ebcd9"/><path d="m280.8 174.9h68.2v32.5h-68.2c4.7-10.3 4.7-22.1 0-32.5z" fill="#f0f0f0"/><path d="m294.5 212h-15.8c-.4 0-.8-.4-.8-.8v-3c0-.4.4-.8.8-.8h15.8z" fill="#7ebcd9"/><path d="m442.3 174.9h-92.6v-4.6h90.9c.9 0 1.7.8 1.7 1.7v3z" fill="#7ebcd9"/><path d="m294.5 174.9h-15.8c-.4 0-.8-.4-.8-.8v-3c0-.4.4-.8.8-.8h15.8z" fill="#7ebcd9"/><path d="m416.6 181.2h3.7v19.5h-3.7z" fill="#7ebcd9"/><path d="m407.3 181.1h3.7v19.5h-3.7z" fill="#7ebcd9"/><path d="m398 181.1h3.7v19.5h-3.7z" fill="#7ebcd9"/><path d="m329.4 196-10 8.4v-27h10z" fill="#ffbd32"/><path d="m692 405.6h201.6v36.5h-201.6c-1.8 0-3.4-1.4-3.4-3.4v-29.8c0-1.8 1.4-3.4 3.4-3.4z" fill="#7ebcd9"/><path d="m899.9 436.3h-203.4v-25.1h203.4c-4.8 7.6-4.8 17.4 0 25.1z" fill="#fff"/><path d="m695.1 411.2h145.7v25.1h-145.7z" fill="#f0f0f0"/><path d="m840.8 405.6h64.4c.8 0 1.3.7 1.3 1.3v3c0 .8-.7 1.3-1.3 1.3h-64.4v-5.8z" fill="#5493b0"/><path d="m840.8 436.3h64.4c.8 0 1.3.7 1.3 1.3v3c0 .8-.7 1.3-1.3 1.3h-64.4v-5.8z" fill="#5493b0"/><path d="m737.4 367.9c-1.8-.7-3.8-1.3-5-2.9 0 0 0-.1-.3-.1s-.3.3-.3.4c0 1.3.5 2.5 1.2 3.5s1.6 2 2.5 2.9c.5-.1.8-.7 1.2-1 .7-.4 1.4-.4 2.2-.4h.3v-.3c0-.5.3-1.2-.3-1.4-.4-.3-1.3-.4-1.8-.5h.3z" fill="#da4d36"/><path d="m734.3 368.4s-.3 0-.3.1c.3.4.5.8.9 1.2.5.4 1 .8 1.6 1.2 0-.3.8-.8.8-1 0-.4-.7-.4-1-.4-.8-.3-1.6-.5-2.2-1h.3z" fill="#efecf0"/><path d="m752.3 378.9c.4.7.4 1.6 0 2.1l-4.8 5-2.9 2.6-3.3-5.4c-.5-1.3-1.6-2.2-2.7-2.9-.8-.4-1.6-.7-2.5-.7h-2c-.9.3-1.8.3-2.6 0l-.9-.3-1.3-.4c-.3 0-.5-.3-.7-.5v-.7c0-.4.3-.7.5-.9l.7-.4 1.6-.9c1.3-.7 2.4-1.8 3-3.1.3-.7.7-1 1-1.6.3-.3.5-.5.8-.7.3-.3.5-.4.9-.7 0 0 .4-.3.5-.3.4-.3.9-.4 1.3-.5.3 0 .7-.1.9-.3h2c.9 0 1.8.4 2.7.8.8.4 1.6.9 2.1 1.6l1.6 1.6c.4.4.7.8.9 1.2l3.5 5.2h-.4z" fill="#da4d36"/><path d="m746.6 384.5c.3.3.5.5.8.8h-.3c0 .1 0 .4.3.5l-2.9 2.6-3.3-5.4c-.5-1.3-1.6-2.2-2.7-2.9-.8-.4-1.6-.7-2.5-.7h-2c-.9.3-1.8.3-2.6 0l-.9-.3c.7-.5 1.3-1 2.1-1.2 1.4-.4 3 0 4.2-.8 0 0 0 .3-.3.4 1.7-.5 3.7.7 5.5.5 0 .3-.5.4-.8.4 1.2-.1 2 1.4 3.1 1.4-.3.3-.7.4-.9.3.7.5 1.4 1 2.2 1.4 0 0-.3.1-.4.3.3.1.5.4.8.5s.3.4.5.7c.4.4 1 .5 1.6.8-.4.1-.9.3-1.3.4h-.3z" fill="#efecf0"/><path d="m728.1 378s.5-.1.7-.1c.5-.1 1-.3 1.7-.5h-.9v-.4l-.7.4c-.4.1-.5.5-.5.9z" fill="#441e45"/><path d="m738.6 370.2c1.8-.4 3.8-.4 5.8-.1v-.4c-1-1.8-2.2-3.5-3.5-5.2-.4-.4-1.2-1.8-1.8-1-.5.7-.5 2.2-.5 3 0 1.2 0 2.5.3 3.7h-.1z" fill="#da4d36"/><path d="m742.1 369.8-1.8-3.1c0-.3-.5-.3-.7 0-.3 1.2-.3 2.2 0 3.4v.5l2.4-.8z" fill="#efecf0"/><path d="m736.5 373.4c.3-.1.7-.3 1-.4.4 0 .7-.3.9-.5 0 .4-.4.8-.7 1-.4.4-.9.8-1.6.9-.8 0 0-.8 0-.9h.3z" fill="#441e45"/><path d="m782.8 389.3h14.5v16.2h-14.5z" fill="#ffbd32"/><path d="m786.2 405.3c0 1-14.3.4-17.9.4s-5.1 0-7.5-.5c-2.2-.5-4.3-1.3-6.4-2.4l-1.6-.8s-.3-.1-.4-.3c-2.1-1-4.2-2.1-5.8-3.7-2.4-2.2-3.5-5.5-3.8-8.6-.3-2.7-1-9.6 2.2-10.9 4.3-1.8 8.6.3 12.4 2.6 1.6.9 3.1 1.8 4.6 2.6 3 1.6 6.3 2.7 9.7 3.7 4.3 1.2 8.8 1.4 13.1 1 1 0 2 0 2.2.7.3.5-.7 13.4-.8 16h-.1z" fill="#b3f5f3"/><path d="m833.5 401.8c0-.1.3-.3.3-.4v-.4l5.9-25-5.4-1.3-6.3 20.9-30.9-6.3 6 14.9 29.6-2c.3 0 .5-.3.7-.5h.1z" fill="#d49d29"/><path d="m846.2 369.8-8.5-2c-.9-.3-1.7.4-2 1.2l-1.3 5.5 5.4 1.3.9-3.8 5.5-1.2c.5 0 .5-.8 0-1z" fill="#efecf0"/><path d="m846.2 369.8-7.7 1.7-.9 3.8 2.2.5.9-3.8 5.5-1.2c.5 0 .5-.8 0-1z" fill="#d0d9e8"/><path d="m838.3 373.2h.5v2.2h-.5z" fill="#efecf0" transform="matrix(.22665131 -.97397597 .97397597 .22665131 283.9 1106.2)"/><path d="m838.5 371.9h.5v2.2h-.5z" fill="#efecf0" transform="matrix(.22665131 -.97397597 .97397597 .22665131 285.3 1105.4)"/><path d="m838.9 370.7h.5v2.2h-.5z" fill="#efecf0" transform="matrix(.22665131 -.97397597 .97397597 .22665131 286.8 1104.9)"/><path d="m833.5 401.8c0-.1.3-.3.3-.4l-.9-.4-.9-.4s-.3 0-.4.1v.3l1.7.8h.3z" fill="#b96b44"/><path d="m831.7 405.3.5-.3s.3-.1.3-.3l15.8-20.3-4.3-3.4-14.5 16.4-32.1-8.1v16.1h33.5c.3 0 .5 0 .8-.1z" fill="#ffbd32"/><path d="m856.5 381.8-6.9-5.4c-.7-.5-1.7-.4-2.2.3l-3.5 4.5 4.3 3.4 2.4-3 5.5 1.2c.5 0 .8-.5.5-.9z" fill="#efecf0"/><path d="m856.5 381.8-7.7-1.7-2.4 3 1.7 1.3 2.4-3 5.5 1.2c.5 0 .8-.5.5-.9z" fill="#d0d9e8"/><path d="m847.7 382.5h.5v2.2h-.5z" fill="#efecf0" transform="matrix(.61703588 -.78693502 .78693502 .61703588 22.9 814.2)"/><path d="m848.6 381.4h.5v2.2h-.5z" fill="#efecf0" transform="matrix(.61703588 -.78693502 .78693502 .61703588 24.1 814.5)"/><path d="m849.6 380.5h.5v2.2h-.5z" fill="#efecf0" transform="matrix(.61703588 -.78693502 .78693502 .61703588 25.1 814.9)"/><path d="m831.7 405.3.5-.3-.7-.7-.7-.8h-.4v.3l1.2 1.4z" fill="#300d30"/><path d="m787.9 389.3h4.7v2h-4.7z" fill="#ffbd32"/><path d="m754.4 402.8-1.6-.8-1.8-14z" fill="#92d4d2"/><path d="m800.4 384.5c3.5-.3 7.2.9 10.3 2.6 2.1 1.2 4.5 2.5 6.7 1.6 0 .5-.4.9-.9.9 3 0 6 1.2 9 1.7s6.5.3 8.5-2.1c-.4 1.3-1.3 2.5-2.5 3.1 3.4 1.4 7.6 1.3 10.9-.4-2.1 3.5-6.2 5.9-10.3 5.8.3.7 1.2.5 1.8.4-4.8 2.1-10.5 2.5-15.6.9 0 .3 1 .7 1 .7-5.2-.3-10.3-2.2-14.8-5.2-2-1.3-3.7-2.9-5.8-3.9s-4.6-1.7-6.8-.9c-.3 0-.5.3-.8 0-1.2-.4 3-3.4 3.5-3.7 1.7-.9 3.7-1.4 5.6-1.6z" fill="#da4d36"/><path d="m823.3 398.4c.9.5 1.8 1 2.9 1.4 2.5-.1 5.4-.8 7.7-1.8-.5 0-1.6 0-1.8-.4 4.2 0 8.2-2.2 10.3-5.8-3.3 1.7-7.5 2-10.9.4 1.2-.7 2.1-1.8 2.5-3.1-1.8 2.5-5.5 2.7-8.5 2.1h-.4c-.8.1-1.6.3-2.5.4 2.9 1.8 6.2 3 9.4 3.3-1.7.7-3.5.8-5.4.9.8.5 1.7.9 2.5 1.4-2 .8-3.9 1.3-6 1.3h.1z" fill="#efecf0"/><path d="m738.2 402.8h.7s.3 0 .3.3v.7h-1.2v-.7c0-.1 0-.3.3-.3z" fill="#e5e2e6"/><path d="m736.9 402.8h.7s.3 0 .3.3v.7h-1.2v-.7c0-.1 0-.3.3-.3z" fill="#e5e2e6"/><path d="m735.7 402.8h.7s.3 0 .3.3v.7h-1.2v-.7c0-.1 0-.3.3-.3z" fill="#e5e2e6"/><path d="m734.4 402.8h.7s.3 0 .3.3v.7h-1.2v-.7c0-.1 0-.3.3-.3z" fill="#e5e2e6"/><path d="m733.1 402.8h.7s.3 0 .3.3v.7h-1.2v-.7c0-.1 0-.3.3-.3z" fill="#e5e2e6"/><path d="m731.8 402.8h.7s.3 0 .3.3v.7h-1.2v-.7c0-.1 0-.3.3-.3z" fill="#e5e2e6"/><path d="m730.5 402.8h.7s.3 0 .3.3v.7h-1.2v-.7c0-.1 0-.3.3-.3z" fill="#e5e2e6"/><path d="m729.2 402.8h.7s.3 0 .3.3v.7h-1.2v-.7c0-.1 0-.3.3-.3z" fill="#e5e2e6"/><path d="m727.9 402.8h.7s.3 0 .3.3v.7h-1.2v-.7c0-.1 0-.3.3-.3z" fill="#e5e2e6"/><path d="m726.5 402.8h.7s.3 0 .3.3v.7h-1.2v-.7c0-.1 0-.3.3-.3z" fill="#e5e2e6"/><path d="m725.2 402.8h.7s.3 0 .3.3v.7h-1.2v-.7c0-.1 0-.3.3-.3z" fill="#e5e2e6"/><path d="m723.9 402.8h.7s.3 0 .3.3v.7h-1.2v-.7c0-.1 0-.3.3-.3z" fill="#e5e2e6"/><path d="m722.6 402.8h.7s.3 0 .3.3v.7h-1.2v-.7c0-.1 0-.3.3-.3z" fill="#e5e2e6"/><path d="m721.3 402.8h.7s.3 0 .3.3v.7h-1.2v-.7c0-.1 0-.3.3-.3z" fill="#e5e2e6"/><path d="m720 402.8h.7s.3 0 .3.3v.7h-1.2v-.7c0-.1 0-.3.3-.3z" fill="#e5e2e6"/><path d="m718.8 402.8h.7s.3 0 .3.3v.7h-1.2v-.7c0-.1 0-.3.3-.3z" fill="#e5e2e6"/><path d="m740.2 405.8h-28c-.4 0-.7-.3-.7-.7v-.9c0-.4.3-.7.7-.7h28c.7 0 1.2.5 1.2 1.2 0 .7-.5 1.2-1.2 1.2z" fill="#ffbd32"/><path d="m711 405.2-10.5-22.5c-.3-.5 0-1.3.5-1.6.5-.3 1.3 0 1.6.5l10.5 22.5c.3.5 0 1.3-.5 1.6-.5.3-1.3 0-1.6-.5z" fill="#ffbd32"/><path d="m731.3 399c-.4-.3-.7-.4-1-.7-.4-.1-.8-.3-1.2-.3s-.5.3-.5.5c-.7 0-1.3-.5-2-.7-.5-.1-1-.3-1.6-.3h-.8c-.3 0-.5.4-.4.7h-.9c-.3 0-.4.1-.5.4v.9c-.3 0-.5.1-.7.5v.8c0 .1.3.3.4.4 0 0 .3.1.4.3 0 0 .3 0 .3.3v.7c0 .3.4.3.7.4 1 .3 2.2.5 3.4.4.4 0 .7-.1 1-.3.5 0 1 0 1.6.1 1.3.3 2.5.5 3.8.9.3-1.4.7-2.9.9-4.3h-.8c-.3 0-.5 0-.8-.1-.7-.1-1.2-.4-1.7-.8h.4z" fill="#da4d36"/><path d="m746.1 378.9c-1.6 0-2.9 1-3.3 2.6-.7 2.5-.5 5.1-.3 7.6.4 3.4 1.3 6.8 1.3 10.2-3.5-.1-7.1 0-10.6.4h-.4v.4c0 1.3-.4 2.6-.5 4.1 6.4 1.6 13.1 2.1 19.6 1.6.8 0 .9-.9.9-1.7 0-3.5-1.7-16.5-3.3-22.5-.4-1.6-1.8-2.6-3.5-2.6z" fill="#b3f5f3"/><path d="m602.4 212.4h192.4v39h-192.4c-1.8 0-3.4-1.6-3.4-3.4v-32.2c0-1.8 1.6-3.4 3.4-3.4z" fill="#3bd9cc"/><path d="m798.9 245.2h-191.5v-26.8h191.5c-3.3 8.6-3.3 18.2 0 26.8z" fill="#f0f0f0"/><path d="m606.1 218.4h129.7v26.8h-129.7z" fill="#fff"/><path d="m735.7 212.4h68.9c.8 0 1.4.7 1.4 1.4v3.3c0 .8-.7 1.4-1.4 1.4h-68.9v-6.2z" fill="#03c7c0"/><path d="m735.7 245.2h68.9c.8 0 1.4.7 1.4 1.4v3.3c0 .8-.7 1.4-1.4 1.4h-68.9v-6.2z" fill="#03c7c0"/><path d="m770.9 257.4-14.4 12v-38.8h14.4z" fill="#da4d36"/><path d="m434.5 313.7h-152.5v-41.4h152.5c.9 0 1.7.8 1.7 1.7v38c0 .9-.8 1.7-1.7 1.7z" fill="#ffbd32"/><path d="m282 272.3h66.2v41.4h-66.2z" fill="#ffd359"/><path d="m275.8 276.8h67.7v32.3h-67.7c5.6-9.9 5.6-22.3 0-32.3z" fill="#f0f0f0"/><path d="m289.4 313.6h-15.7c-.4 0-.8-.4-.8-.8v-3c0-.4.4-.8.8-.8h15.7z" fill="#ffd359"/><path d="m434.4 313.6h-90.2v-4.6h91.8v2.9c0 .9-.8 1.7-1.7 1.7z" fill="#ffd359"/><path d="m289.4 276.8h-15.7c-.4 0-.8-.4-.8-.8v-3c0-.4.4-.8.8-.8h15.7z" fill="#ffd359"/><path d="m410.5 282.9h3.7v19.2h-3.7z" fill="#ffd359"/><path d="m401.4 282.9h3.7v19.2h-3.7z" fill="#ffd359"/><path d="m392.1 282.9h3.7v19.2h-3.7z" fill="#ffd359"/><path d="m285.4 211.2h140.3v23.7h-140.3c-1.3 0-2.4-1-2.4-2.4v-19.1c0-1.3 1-2.4 2.4-2.4z" fill="#ffd359"/><path d="m433.2 232h-146.2v-17.9h146.2c-4.1 5.2-4.1 12.7 0 17.9z" fill="#f0f0f0"/><path d="m287 214.1h47v17.9h-47z" fill="#fff"/><path d="m334 211.2h100.7c.5 0 .9.4.9.9v.9c0 .5-.4.9-.9.9h-100.7v-2.9z" fill="#ffbd32"/><path d="m334 232h100.7c.5 0 .9.4.9.9v.9c0 .5-.4.9-.9.9h-100.7v-2.9z" fill="#ffbd32"/><path d="m327.9 229.9-3.3-4.8c0-.1-.4-.1-.5 0l-3.3 4.8c-.1.3-.5 0-.5-.1v-10.9h8.1v10.9c0 .3-.4.4-.5.1z" fill="#5493b0"/><path d="m236.6 313.6h204.1v41h-204.1c-1 0-2-.9-2-2v-37c0-1 .9-2 2-2z" fill="#3bd9cc"/><path d="m351.9 313.6h88.4v41h-88.4z" fill="#03c7c0"/><path d="m448.5 348.5h-90.3v-28.8h90.3c-6.5 8.5-6.5 20.3 0 28.8z" fill="#f0f0f0"/><path d="m430.4 313.6h21.1c.7 0 1 .5 1 1v3.9c0 .7-.5 1-1 1h-21.1v-6.2z" fill="#03c7c0"/><path d="m236.9 313.6h120.3v6.2h-122.5v-3.8c0-1.3 1-2.2 2.2-2.2z" fill="#03c7c0"/><path d="m430.4 348.5h21.1c.7 0 1 .5 1 1v3.9c0 .7-.5 1-1 1h-21.1v-6.2z" fill="#03c7c0"/><path d="m288.1 341c.7 0 1.2 0 1.7.3v-9.6c-.5.1-1.2.3-1.7.3-3.5 0-6.5-2.9-6.5-6.5h-9.6c0 3.5-2.9 6.5-6.5 6.5s-1 0-1.6-.3v9.4c.5 0 1-.3 1.6-.3 3.5 0 6.5 2.9 6.5 6.5h9.6c0-3.5 2.9-6.5 6.5-6.5z" fill="#03c7c0"/><path d="m437.5 347.7h182.2v34.4h-182.2c-1.4 0-2.6-1.2-2.6-2.6v-29.3c0-1.4 1.2-2.6 2.6-2.6z" fill="#ffd359"/><path d="m538 347.7h81v34.4h-81z" fill="#ffd359"/><path d="m622.9 376.8h-79.5v-23.7h79.5c-2.5 7.7-2.5 16 0 23.7z" fill="#fff"/><path d="m543.4 347.7h81.9c.5 0 1 .4 1 1v3.4c0 .5-.4 1-1 1h-81.9z" fill="#ffbd32"/><path d="m434.9 376.8h178.2v5.4h-175.7c-1.4 0-2.6-1.2-2.6-2.6v-2.7h.1z" fill="#ffd359"/><path d="m543.4 376.8h81.9c.5 0 1 .4 1 1v3.4c0 .5-.4 1-1 1h-81.9z" fill="#ffbd32"/><path d="m460.5 355.6h4.3v13.9h-4.3z" fill="#ffbd32"/><path d="m471.4 355.6h4.3v13.9h-4.3z" fill="#ffbd32"/><path d="m482.3 355.6h4.3v13.9h-4.3z" fill="#ffbd32"/><path d="m538 347.7h5.5v34.4h-5.5z" fill="#ffbd32"/><path d="m585.3 170.3h222.2v42h-222.2c-1.7 0-3.1-1.4-3.1-3.1v-35.7c0-1.7 1.4-3.1 3.1-3.1z" fill="#ffd359"/><path d="m708 170.3h98.8v42h-98.8z" fill="#ffd359"/><path d="m811.4 205.8h-96.9v-28.9h96.9c-3 9.4-3 19.5 0 28.9z" fill="#fff"/><path d="m714.6 170.3h99.9c.7 0 1.2.5 1.2 1.2v4.2c0 .7-.5 1.2-1.2 1.2h-99.9v-6.5z" fill="#ffbd32"/><path d="m582.2 205.8h217.3v6.5h-214.2c-1.7 0-3.1-1.4-3.1-3.1z" fill="#ffd359"/><path d="m714.6 205.8h99.9c.7 0 1.2.5 1.2 1.2v4.2c0 .7-.5 1.2-1.2 1.2h-99.9v-6.5z" fill="#ffbd32"/><path d="m708 170.3h6.7v42h-6.7z" fill="#ffbd32"/><path d="m642.4 196.5c.7 0 1.2 0 1.7.3v-9.6c-.5.1-1.2.3-1.7.3-3.5 0-6.5-2.9-6.5-6.5h-9.6c0 3.5-2.9 6.5-6.5 6.5s-1 0-1.6-.3v9.4c.5 0 1-.3 1.6-.3 3.5 0 6.5 2.9 6.5 6.5h9.6c0-3.5 2.9-6.5 6.5-6.5z" fill="#ffbd32"/><path d="m608.5 343.4h9.3v131.8h-9.3z" fill="#5493b0" transform="matrix(.99999391 -.00349065 .00349065 .99999391 -1.4 2.1)"/><path d="m608.4 471h9.3v7.9h-9.3z" fill="#03405c" transform="matrix(.99999391 -.00349065 .00349065 .99999391 -1.7 2.1)"/><path d="m608.3 472.8h9.3v.9h-9.3z" fill="#47a7e3" transform="matrix(.99999391 -.00349065 .00349065 .99999391 -1.6 2.1)"/><path d="m608.4 475.9h9.3v.9h-9.3z" fill="#47a7e3" transform="matrix(.99999391 -.00349065 .00349065 .99999391 -1.7 2.1)"/><path d="m617 486.9h-7.7c-.4 0-.8-.4-.8-.8v-7.2h9.3v7.2c0 .4-.4.8-.8.8z" fill="#da4d36"/><path d="m608.1 343.5 3.6-8.6 1-2.1.9 2.1 3.8 8.6z" fill="#605f61"/><path d="m611.7 334.9 1-2.1.9 2.1z" fill="#fff"/><path d="m632.8 484.8 7.2 1.2c.8 0 1.4-.4 1.6-1.2l.8-4.7-4.5-.8-.5 3.3-4.5 1.3c-.4 0-.4.8 0 .8h-.1z" fill="#316882"/><path d="m632.8 484.8 6.3-1.8.5-3.3-1.8-.3-.5 3.3-4.5 1.3c-.4 0-.4.8 0 .8z" fill="#03405c"/><path d="m637.7 480.5 1.8.2v-.4l-1.8-.2z" fill="#316882"/><path d="m637.5 481.5 1.7.3.2-.4-1.9-.4z" fill="#316882"/><path d="m637.3 482.6 1.8.2.1-.4-1.8-.4z" fill="#316882"/><path d="m649.6 443.2c-1 3.5-2.4 6.8-3 10.5v1c-.4 2.1-.8 4.3-1.2 6.4-.3 1.4-.5 2.9-.8 4.3-.4 1.8-2.4 13-2.2 14.8l-4.5-.8s1.2-26.8 1.6-28.9c2.2-12 4.7-24.1 7.1-36 0-.1 0-.4.3-.5 0 0 .3-.1.5-.1 2.6-.3 5.9 0 8.4-.3.8 2.1.5 4.5 0 6.7-1.3 7.7-3.8 15.3-6.2 22.8z" fill="#ffbd32"/><path d="m639.1 452.1 1.8-.7v-.3s0-.1-.3-.1l-1.7.5v.5h.1z" fill="#d49d29"/><path d="m657.6 486.4 7.2-.8c.8 0 1.3-.8 1.2-1.4l-.5-4.7-4.6.5.4 3.3-3.9 2.5c-.4.3 0 .8.3.8z" fill="#316882"/><path d="m657.6 486.4 5.5-3.5-.4-3.3-1.8.3.4 3.3-3.9 2.5c-.4.3 0 .8.3.8z" fill="#03405c"/><path d="m661.1 480.9 1.8-.3-.1-.4-1.8.3z" fill="#316882"/><path d="m661.1 481.9 1.8-.3v-.4l-1.8.2z" fill="#316882"/><path d="m661.2 482.9 1.9-.2v-.4l-1.9.1z" fill="#316882"/><path d="m663.1 441.6c0 3.7-.5 7.2 0 10.9.4 3.9.8 8 1 12 .3 2.9 1.6 14.9 1.6 14.9l-4.6.5s-4.3-19.8-5.6-26.3v-.5c0-.8-.3-1.3-.3-1.4-1-12.2-1.7-24.5-2.5-36.7v-.5c0-.1.3-.3.4-.3 2.4-.9 5.6-1.6 8-2.5 1.3 1.8 1.7 4.2 1.8 6.4.8 7.9.4 15.7 0 23.6h.3-.1z" fill="#ffbd32"/><path d="m656.9 452.4-1.6 1v-.5l1.4-.9h.3v.3h-.1z" fill="#d49d29"/><path d="m651.5 373.5c-.4.7 12.7 11.1 15.1 13.1-2.2 2.5-4.8 6.3-6.8 9v.7l2.5 2.9c5-3.7 9.4-8.1 13-13.1.4-.5 0-1.2-.7-1.7-3-2.7-12.7-16.8-13.4-17-.5-.3-9.3 5.4-9.8 6.2h.1z" fill="#316882"/><path d="m642.1 442.9h3.4s.3 0 .3-.3 0-.3-.3-.3h-3.4s-.3 0-.3.3 0 .3.3.3z" fill="#adbde1"/><path d="m658.1 442.9h3.4s.3 0 .3-.3 0-.3-.3-.3h-3.4s-.3 0-.3.3 0 .3.3.3z" fill="#adbde1"/><path d="m671.3 445.5v.8c0 .3-.3.4-.5.4-2.2 1-4.6 1.6-6.9 1.6s-3.8-.4-5.6 0c-2.2.3-4.3 1.2-6.4 1.6-5.8.9-11.5-2.5-17.3-1.7 1.2-9.4 2.4-18.7 3.5-28.1.7-5 1.3-9.9 2.7-14.7 5.6-2 11.7-2.6 17.7-2 3.8.4 4.3 2.5 4.7 5.8.5 4.2 1 8.2 1.7 12.4 1.3 8.2 3.3 16.4 6.3 24h.1z" fill="#49acea"/><path d="m652.3 348.6c0-.4-.4-.7-.5-1 0-.4 0-.8-.4-1.2-.5-1.2-2.1-1.6-2.7-2.7-.7.1-1 .9-.9 1.6 0 .7.4 1.3.8 1.8s.9 1.2 1.4 1.6c.3.3.5.4.8.7 0 .3.3.5.4.7.3.7.7 1.3.9 2.1l.7-.7c.3-.3.4-.7.4-.9 0-.7-.3-1.2-.5-1.7h-.3z" fill="#d49d29"/><path d="m648.9 345.2c0 .8 0 1.7.7 2.4s1 1.2 1.6 2c0 .1 1 1.4 1.2.9l-.5-.8c0-.3-.4-.5-.5-.8-.8-1.2-1.4-2.4-2.2-3.5h-.1z" fill="#efecf0"/><path d="m654.8 344.2c0-1.4.5-3 0-4.5-.4-1.2-1.3-2.4-1-3.5 0-1.3 1.6-2.4 1.4-3.7-2.4 1.4-3.4 4.7-2.4 7.2 0 .4.4.8.5 1.3.3 1 0 2-.4 3-.4 1.3-1.6 5 .3 5.6.3 0 .8.1 1.2 0 .8-.3.5-.7.5-1.4v-4.1h-.1z" fill="#605f61"/><path d="m658.1 373.9c-3.4-.9-5.5-2.4-8.8-3.5.4-.3 1.4-2.9 2-4.3.5-1.4.7-3.4 0-4.8 0-.1-.3-.4-.4-.5-.3 0-.4 0-.7.1-1 .5-2.1 1.2-3.1 1.8-.3 0-.4.3-.7.3s-.4 0-.5-.1c-.9-.4-1.7-.7-2.6-1 0 0-.4-.1-.4-.3v-1.6-.4c0-.3 0-.5.3-.8.7-1.3 1.8-2.2 2.7-3.3.8-.9 1.3-1.8 1.7-3 .3-.8.4-1.6 1-2 .3-.3.8-.4 1.2-.7 1.3-.5 3.4-1.8 4.8-1.4s3 1.2 3.9 2.4c.5.8.9 1.6 1.2 2.5.5 1.3.9 2.7 1.2 4.2v2.9c0 4.6-1 9.2-2.6 13.5h-.3z" fill="#ffbd32"/><path d="m645.3 358.7c0 .5-1 .5-1.3.9 0 .1 0 .3-.3.4h-.7v-.4c0-.3.3-.5.4-.7l.8-.4c.3 0 .4-.1.7 0 .3 0 .5.3.5.4v-.3h-.1z" fill="#03405c"/><path d="m643.6 360q0 .1-.3.1s-.3 0-.3-.1v-.4c0-.3 0-.5.3-.8q0-.1.3 0c0 .1.3.4.3.7v.3l-.3.3z" fill="#03405c"/><path d="m661 343.4c3.5-2.2 8.4-1.2 11.7-3.7 1-.8 1.2-2.4 2.2-3.1.3-.1.5 0 .4.4-.7 1.8-2.1 4.3-4.3 5.5s-5.6 1.2-7.9 2.4c-2.4 1.3-3.7 3.9-5 6.3 0 .1 0 .3-.3.4h-.4c-2.4-.5-.7-2.5 0-3.8.9-1.6 2-3.1 3.5-4.2z" fill="#605f61"/><path d="m652.1 353.5c-.3.4-.4.7-.7 1s-.5.7-1 .8c-.5 0-.9-.1-.7-.7.4-.8 1.4-1.3 2.4-1.2z" fill="#03405c"/><path d="m659.1 350.6c.4-.1.7-.4 1-.7s.7-.7 1-.8c1.2-.7 2.9-.1 4.1-.8.4 0 .5.4.5.8 0 1.4-1.2 2.1-2.2 2.5-.7.3-1.4.5-2.1.5s-.8 0-1 .1c-.3 0-.5.3-.8.4l-1.2.8c-.4.3-.9 0-1-.5v-1c.3-.7.9-.9 1.4-1.2h.3z" fill="#d49d29"/><path d="m664.1 349.6c-.3.8-1 1.3-1.8 1.7-.8.3-1.7.4-2.5.8 0 0-1.7.7-1.6.1 0-.1.8-.4.9-.4.3-.1.7-.3.9-.4 1.3-.5 2.6-1.2 3.9-1.8h.1z" fill="#efecf0"/><path d="m659.8 366.8c.3.3.7.5.7.9s0 .7-.4.9c-.7.7-1.6 1-2.4 1.2-.9.1-1.8.1-2.6.3h-3.1c-.5 0-1.2 0-1.7-.1-.5-.3-1-.7-1.6-1-.3-.3-.7-.7-.5-1 0-.3.4-.4.7-.4 1.4-.5 3-1 4.5-1.4 1.4-.3 3.1-.8 4.6-.4.7.1 1.4.8 2 1.3z" fill="#ffbd32"/><path d="m659.1 367c.3 0 .5-.3.8-.3.7 0 1.3.5 1.7 1.2 2.7 3.9 3.7 8.9 3.8 13.7s-.7 9.6-1.2 14.4c-.4 3.4-.7 6.9-.8 10.3 0 1.3 0 2.7-1 3.7-.8.8-2.1.9-3.3.9-4.3.3-8.8.5-12.7-1-1.4-.5-2.9-1.4-4.2-2.4-.3-.3-.7-.5-.9-.8-.3-.4-.4-1-.4-1.6-1-7.7-.5-15.7 1.4-23.3.5-1.8 1-3.5 1.4-5.4.4-1.6.7-3.3 1.3-4.8.9-2.4 2.2-5 5-4.2 3 .9 6.3.9 9.2-.5h-.1z" fill="#316882"/><path d="m659.8 409.5c.7-.3 1.3-.4 2-.5s1.3-.4 1.8-1c0 .1.3.4.3.7.8-.5 1.6-1.2 2.1-2 0 1.7 0 3.5-.8 5.1-1 2.2-3.4 3.7-5.8 3.7s-1.6-.1-2.1-.7c-.7-.4-1-1.2-.9-2 0-1 .9-1 1.6-1.4.8-.5 1-1.4 2-1.8h-.1z" fill="#ffbd32"/><path d="m665.2 411.7c-.4.9-.9 1.6-1.7 2.2l-.4.3c.8-.7 1.4-2.1 1.6-3.1-.4.4-.8.7-1.2.9v-.8c-1.3.7-2.6 1.2-4.1 1.3.9-.5 1.7-1.3 2.2-2.2-.8.3-1.6.4-2.5.4.4-.3.5-.8.7-1.3.7-.3 1.3-.3 2-.5.7-.1 1.3-.4 1.8-1 0 .1.3.4.3.7.8-.5 1.6-1.2 2.1-2 0 1.7 0 3.5-.8 5.1z" fill="#605f61"/><path d="m617 376.9c-1.6-.8-3.4-1.2-5-2s-2.5-1.6-3.5-2.6c-.7-.8-1.3-2-.8-2.7s1.7-.8 2.7-.5c2 .5 3.7 1.6 5.1 3 .8.7 1.3 1.7 2.1 2.2 2.6 1.7 4.6 3.3 7.2 4.1-.8 1.4-2.4 2.9-2.4 2.9-1.6-1-3.7-3.4-5.4-4.3h-.1z" fill="#ffbd32"/><path d="m610.3 368.9c1.7.5 3.3 1.3 4.6 2.5-.9-.7-2-1-3.1-1.4-.9-.3-2.1-.4-2.7.5-.5.9 0 2.1.8 2.7.3.3.5.5.8.8-.8-.5-1.6-1.2-2.4-1.8-.7-.8-1.3-2-.8-2.7s1.7-.8 2.7-.5h.1z" fill="#605f61"/><path d="m619.5 373.8c1.6 1.2 15.8 8.2 16.6 7.6.9-.9 5.6-8.4 7.5-11.3.7-1 1.6-2 2.6-2.5 3.3-1.7 5.1.5 6.3 1.6 1.4 1.3 1.3 3.1.7 4.2-.3.4-.5.8-.8 1-1.4 1.4-10.3 9.4-12 10.9-1.6 1.2-3.9 4.3-6.9 3.8-.5 0-11.9-7.7-17.3-10.7l3.4-4.6z" fill="#316882"/><path d="m149.6 392h133.8v31.8h-133.8c-1.4 0-2.6-1.2-2.6-2.6v-26.6c0-1.4 1.2-2.6 2.6-2.6z" fill="#ffd359"/><path d="m288.1 420h-135.8v-24.2h135.8c-4.1 7.6-4.1 16.6 0 24.2z" fill="#f0f0f0"/><path d="m151.3 395.8h64v24.2h-64z" fill="#fff"/><path d="m215.3 392h75.9c.7 0 1.3.5 1.3 1.3v1.3c0 .7-.5 1.3-1.3 1.3h-75.9v-3.8z" fill="#ffbd32"/><path d="m215.3 420h75.9c.7 0 1.3.5 1.3 1.3v1.3c0 .7-.5 1.3-1.3 1.3h-75.9v-3.8z" fill="#ffbd32"/><path d="m160.8 423.8h158.9v43.1h-158.9c-.9 0-1.8-.8-1.8-1.8v-39.5c0-.9.8-1.7 1.7-1.7h.1z" fill="#7ebcd9"/><path d="m250.6 423.8h68.9v43.1h-68.9z" fill="#5493b0"/><path d="m325.8 462.1h-70.4v-33.6h70.4c-4.8 10.7-4.8 22.9 0 33.6z" fill="#f0f0f0"/><path d="m311.7 423.8h16.4c.5 0 .8.4.8.8v3.1c0 .5-.4.8-.8.8h-16.4z" fill="#5493b0"/><path d="m160.8 423.8h93.9v4.7h-95.6v-3c0-.9.8-1.7 1.7-1.7z" fill="#5493b0"/><path d="m311.7 462.1h16.4c.5 0 .8.4.8.8v3.1c0 .5-.4.8-.8.8h-16.4z" fill="#5493b0"/><path d="m181.7 435.7h3.8v20h-3.8z" fill="#5493b0"/><path d="m191.4 435.7h3.8v20h-3.8z" fill="#5493b0"/><path d="m200.9 435.8h3.8v20h-3.8z" fill="#5493b0"/><path d="m286 463.2-10.3 8.6v-27.9h10.3z" fill="#da4d36"/><path d="m323.3 437.4 7 2.7 9.9-30.7-8.7-6.4z" fill="#a5a5a5"/><path d="m332.8 451.7-10.9-4.3c-1-.4-1.7-1.7-1.2-2.7l2.7-7.1 6.8 2.7-2 4.8 5.1 5.5c.5.5 0 1.3-.7 1.2z" fill="#316882"/><path d="m332.8 451.7-7.2-7.7 2-4.8 2.7 1-2 4.8 5.1 5.5c.5.5 0 1.3-.7 1.2z" fill="#22759c"/><path d="m328.1 439.6h.8v3h-.8z" fill="#ffbd32" transform="matrix(.36812455 -.92977649 .92977649 .36812455 -202.6 584.1)"/><path d="m327.5 441.2h.8v3h-.8z" fill="#ffbd32" transform="matrix(.36812455 -.92977649 .92977649 .36812455 -204.5 584.6)"/><path d="m326.8 443h.8v3h-.8z" fill="#ffbd32" transform="matrix(.36812455 -.92977649 .92977649 .36812455 -206.5 585.1)"/><path d="m282.6 412.9c-.4.5-.9 1.2-.7 2 .3.7.9 1 1.6 1.3.1 0 .4.1.5.1h.5c.3 0 .4 0 .7.1 1.4.5 3 0 4.1-1.2.8-.8 1.4-2 1.4-3.1s0-2-.7-2.9c-.7-1-1.6-.3-2.5.1-1.8.9-3.8 2-5.1 3.5h.1z" fill="#605f61"/><path d="m288.1 419.3h28.3v-13.5h-28.1z" fill="#d0ced1"/><path d="m295.5 424.2 34.7-.3 4.3-11.3-46.3-5.4-.7 8.5c-.8 4.7 3.1 8.9 7.9 8.4h.1z" fill="#d0ced1"/><path d="m345.1 443.4 6.8-3-17.4-27.9-4.3 11.3z" fill="#d0ced1"/><path d="m361.8 446.8-10.7 4.7c-1 .5-2.4 0-2.9-1.2l-3-6.9 6.8-2.9 2.1 4.8 7.5.3c.7 0 .9.9.3 1.3z" fill="#316882"/><path d="m361.8 446.8-10.6-.4-2.1-4.8 2.7-1.2 2.1 4.8 7.5.3c.7 0 .9.9.3 1.3z" fill="#22759c"/><path d="m349.3 442.4h3v.8h-3z" fill="#ffbd32" transform="matrix(.91706007 -.39874907 .39874907 .91706007 -147.5 176.6)"/><path d="m350.1 443.9h3v.8h-3z" fill="#ffbd32" transform="matrix(.91706007 -.39874907 .39874907 .91706007 -148 177.1)"/><path d="m350.7 445.5h3v.8h-3z" fill="#ffbd32" transform="matrix(.91706007 -.39874907 .39874907 .91706007 -148.6 177.4)"/><path d="m334.2 427.8-4.2-3.9 4 4.9z" fill="#605f61"/><path d="m339.2 399.6c.4.1.8.3 1 .5.4.3.7.5.8.9v.8c.4.7 1 .9 1.7 1.3.4.3.8.8 1 1.2.1.3.4.5.4.8s0 .7-.4.8c.1.3.4.5.4.9v.7c-.1.4-.7.3-.9.4 0 .3.1.5 0 .8s-.4.4-.8.4-.4 0-.5-.1c-.1 0-.4-.1-.5-.3-.1 0-.3-.3-.4 0s-.3.4-.5.4-.5-.3-.7-.4c-.9-.8-1.7-1.7-2.2-2.7 0-.4-.3-.7-.4-1-.3-.5-.7-.9-1-1.3-.9-.9-1.8-2-2.9-2.9 1-1 2.2-2.1 3.3-3.1 0 0 .3.7.4.8.1.3.4.4.7.5.5.4 1 .8 1.7 1v-.3h-.1z" fill="#605f61"/><path d="m341.2 404.4v.5c0 .1-.3.4-.4.5-.7.5-1.7.4-2.4 0-.3-.3-.5-.7-.4-1 0-.3.4-.4.7-.5h.1c0-.4.4-.7.8-.8h.1c.3-.5 1-.5 1.3 0 .1.3 0 .5 0 .8v1.2-.7h.1z" fill="#d0ced1"/><path d="m342.7 403.5s-.3-.3-.4-.3-.4 0-.4.1v.3c.1.5.5 1 1 1.2h.4c.3-.1 0-.4 0-.7-.3-.3-.4-.5-.7-.8z" fill="#d0ced1"/><path d="m343.5 405.7c-.3-.3-.5-.4-.9-.4h-.3v.8l.3.3s.1.3.3.3c.1.1.7.8.9.3.3-.4 0-.9-.3-1.2z" fill="#d0ced1"/><path d="m342.5 407.2c-.1-.3-.4-.5-.7-.8-.1 0-.3-.3-.5-.1-.1 0-.3.3-.1.4 0 .1.1.3.3.4 0 .1.3.4.4.5 0 .1.3.4.5.4s.4 0 .5-.3c0-.3 0-.5-.3-.8v.3z" fill="#d0ced1"/><path d="m339.6 406.8s-.3-.3-.4-.3-.3.3-.3.4.1.3.3.4l.4.4s.3.3.5.3.3 0 .3-.3c0-.4-.5-.8-.8-1z" fill="#d0ced1"/><path d="m289.2 390h25.9v18.2h-25.9z" fill="#efecf0"/><path d="m312.1 377.8c.1.4.5 1.2 1 2.1 1.3 2.4 2.9 4.6 4.6 6.7.5.7 1 1.2 1.4 1.8 2 2.4 4.2 4.5 6.4 6.5.3.1.4.3.4.4 2.6 2.4 5.2 4.6 8.1 6.5.3.1.5.4.8.4s.4 0 .7-.3c1-.5 1.8-1.3 2.6-2.2.1-.3.4-.5.4-.8 0-.4-.3-.8-.7-1-4.6-4.5-8-10.2-10.9-15.8-2.9-5.8-5.5-11.7-9-17-1.2-1.7-2.4-3.4-4.1-4.5-1-.7-4.5-2.1-5.5-.8-.9 1.2 2.9 16 3.7 17.9z" fill="#03405c"/><path d="m313.1 360.4-15.3-5.7-1.7 8.1 15.2 29.7z" fill="#e6f5ff"/><path d="m300.2 362.6c-.3 1.2-.7 2.5-.3 3.8.4 1.4 1.4 2.6 2.5 3.7.5.7 1.2 1.4 1.7 2.1 0-.1.3-1.2.4-1.4.1-.5.3-.9.5-1.4.4-.9.8-1.8 1.2-2.6.4-.9-.8-.9-1.4-1-.8-.3-1.6-.7-2.4-1-.8-.5-1.4-1.2-2.1-2h-.1z" fill="#fff"/><path d="m308.3 366.2c.5 1.2 1.6 2 2.1 3.1.4.8.5 1.8 1.2 2.5.8-1.3 1.4-2.6 2-4.1.5-1.2.9-2.4.8-3.7 0-.4 0-.8-.3-1.2s-.8-1.2-1.3-.7c-.5.4-.9 1-1.3 1.4-.9.9-2 1.8-3.1 2.5z" fill="#fff"/><path d="m306.7 370.6c-.1.1-.3.4-.3.7 0 .4-.1.7-.3 1 0 .5-.3.9-.4 1.4s-.3 1-.3 1.6c0 1.8 1 4.2 1.6 5.9.7 2.2 1.2 4.3 1.8 6.5.8 2.7 1.4 5.6 3 8.1 0-3.9 0-7.7-.3-11.7 0-2-.3-3.8-.5-5.8-.1-1.8-.5-3-1.2-4.7-.3-.5-.3-1.2-.5-1.7-.1-.5-.5-1.2-1-1.4-.4-.3-1.2-.1-1.6.3v-.3h-.1z" fill="#ffbd32"/><path d="m309.3 367.7c0-.4 0-.9-.3-1.2-.3-.1-.5-.3-.8-.4h-1c-.7 0-1.3 0-2 .1h-.5c-.3.1-.4.5-.4.9s.3.7.4.9c.3.4.5.7.8 1 .5.7 1.4 2.4 2.4 1.6.4-.4.5-.9.7-1.4.1-.7.5-1.2.7-1.7h.1z" fill="#d49d29"/><path d="m310.9 409.6 5.9-2.1-2.4-45.1-3.1 30.1z" fill="#03405c"/><path d="m287.5 411.2 22.8.3 1-19-14.7-33-6.9 2.9-1 32.2-.2 2.1z" fill="#03405c"/><path d="m292.7 395.2c-.4 1.2.4 2.5 1.4 3 1 .7 2.4.8 3.5.8s1.2 0 1.7.1h2c.7-.1 1.8-.9.9-1.3s-2.2-.5-3.3-.7c-2.1-.5-4.3-1.2-6.3-2z" fill="#22759c"/><path d="m315.9 395.6c.1.9-.1 2-.7 2.5-.4.5-.9.7-1.4.7h-1.6c-.3 0-.8-.8-.4-1 .4-.4.9-.4 1.3-.5.9-.4 1.8-.9 2.6-1.6h.1z" fill="#22759c"/><path d="m311.3 392.5.7-34.6 6 4-3.4 3.5 2.7 3.9z" fill="#22759c"/><path d="m310.3 393.3c0 .7.5 1.2 1.2 1.2s1.2-.5 1.2-1.2-.5-1.2-1.2-1.2-1.2.5-1.2 1.2z" fill="#03405c"/><path d="m315.4 381.4c0-.7-.1-1.3-.3-2 0 1.8-.1 3.7-.3 5.4v2.7c.3.8.8 1.6 1 2.2l-.5-8.5z" fill="#023045"/><path d="m314.1 397.2c.4.1.8.3 1.2.4s.8.4.9.8c.1.3.1.7 0 .8.4.7 1.2.8 1.8 1.2.5.3.8.7 1.2 1s.4.5.5.8c0 .3 0 .7-.3.8.3.3.4.5.5.8 0 .3.1.4 0 .7-.1.4-.5.4-.9.5 0 .3.3.5 0 .8 0 .3-.4.4-.7.5h-.5c-.1 0-.4 0-.5-.1-.1 0-.3-.1-.4 0 0 .3-.3.4-.5.4s-.5-.1-.8-.4c-1-.7-2-1.4-2.5-2.6-.1-.3-.3-.7-.5-.9-.3-.5-.8-.9-1.2-1.3-1-.9-2.1-1.7-3.3-2.6 1-1.2 2-2.4 3-3.5 0 0 .4.7.4.8.1.3.4.4.7.5.5.4 1.2.7 1.8.9z" fill="#605f61"/><path d="m301.5 410.9h-1.2v-.8s0-.1.1-.1h.9s.1 0 .1.1v.8z" fill="#dbe7ff"/><path d="m302.7 410.9h-1.2v-.8s0-.1.1-.1h.9s.1 0 .1.1v.8z" fill="#dbe7ff"/><path d="m304 410.9h-1.2v-.8s0-.1.1-.1h.9s.1 0 .1.1v.8z" fill="#dbe7ff"/><path d="m305.2 410.9h-1.2v-.8s0-.1.1-.1h.9s.1 0 .1.1v.8z" fill="#dbe7ff"/><path d="m306.6 410.9h-1.2v-.8s0-.1.1-.1h.9s.1 0 .1.1v.8z" fill="#dbe7ff"/><path d="m307.8 410.9h-1.2v-.8s0-.1.1-.1h.9s.1 0 .1.1v.8z" fill="#dbe7ff"/><path d="m309.1 410.9h-1.2v-.8s0-.1.1-.1h.9s.1 0 .1.1v.8z" fill="#dbe7ff"/><path d="m310.4 410.9h-1.2v-.8s0-.1.1-.1h.9s.1 0 .1.1v.8z" fill="#dbe7ff"/><path d="m311.7 410.9h-1.2v-.8s0-.1.1-.1h.9s.1 0 .1.1v.8z" fill="#dbe7ff"/><path d="m313 410.9h-1.2v-.8s0-.1.1-.1h.9s.1 0 .1.1v.8z" fill="#dbe7ff"/><path d="m314.2 410.9h-1.2v-.8s0-.1.1-.1h.9s.1 0 .1.1v.8z" fill="#dbe7ff"/><path d="m315.5 410.9h-1.2v-.8s0-.1.1-.1h.9s.1 0 .1.1v.8z" fill="#dbe7ff"/><path d="m316.8 410.9h-1.2v-.8s0-.1.1-.1h.9s.1 0 .1.1v.8z" fill="#dbe7ff"/><path d="m318.1 410.9h-1.2v-.8s0-.1.1-.1h.9s.1 0 .1.1v.8z" fill="#dbe7ff"/><path d="m319.3 410.9h-1.2v-.8s0-.1.1-.1h.9s.1 0 .1.1v.8z" fill="#dbe7ff"/><path d="m320.6 410.9h-1.2v-.8s0-.1.1-.1h.9s.1 0 .1.1v.8z" fill="#dbe7ff"/><path d="m321.8 410.9h-1.2v-.8s0-.1.1-.1h.9s.1 0 .1.1v.8z" fill="#dbe7ff"/><path d="m323.2 410.9h-1.2v-.8s0-.1.1-.1h.9s.1 0 .1.1v.8z" fill="#dbe7ff"/><path d="m324.4 410.9h-1.2v-.8s0-.1.1-.1h.9s.1 0 .1.1v.8z" fill="#dbe7ff"/><path d="m325.7 410.9h-1.2v-.8s0-.1.1-.1h.9s.1 0 .1.1v.8z" fill="#dbe7ff"/><path d="m327 410.9h-1.2v-.8s0-.1.1-.1h.9s.1 0 .1.1v.8z" fill="#dbe7ff"/><path d="m328.3 410.9h-1.2v-.8s0-.1.1-.1h.9s.1 0 .1.1v.8z" fill="#dbe7ff"/><path d="m329.6 410.9h-1.2v-.8s0-.1.1-.1h.9s.1 0 .1.1v.8z" fill="#dbe7ff"/><path d="m330.8 410.9h-1.2v-.8s0-.1.1-.1h.9s.1 0 .1.1v.8z" fill="#dbe7ff"/><path d="m332.1 410.9h-1.2v-.8s0-.1.1-.1h.9s.1 0 .1.1v.8z" fill="#dbe7ff"/><path d="m333.4 410.9h-1.2v-.8s0-.1.1-.1h.9s.1 0 .1.1v.8z" fill="#dbe7ff"/><path d="m334.7 410.9h-1.2v-.8s0-.1.1-.1h.9s.1 0 .1.1v.8z" fill="#dbe7ff"/><path d="m335.9 410.9h-1.2v-.8s0-.1.1-.1h.9s.1 0 .1.1v.8z" fill="#dbe7ff"/><path d="m337.2 410.9h-1.2v-.8s0-.1.1-.1h.9s.1 0 .1.1v.8z" fill="#dbe7ff"/><path d="m338.4 410.9h-1.2v-.8s0-.1.1-.1h.9s.1 0 .1.1v.8z" fill="#dbe7ff"/><path d="m339.8 410.9h-1.2v-.8s0-.1.1-.1h.9s.1 0 .1.1v.8z" fill="#dbe7ff"/><path d="m341 410.9h-1.2v-.8s0-.1.1-.1h.9s.1 0 .1.1v.8z" fill="#dbe7ff"/><path d="m340.8 408.9h3.4v1.7h-3.4z" fill="#d49d29" transform="matrix(.27395922 -.96174131 .96174131 .27395922 -145.4 626.9)"/><path d="m311.1 408.9h3.4v1.7h-3.4z" fill="#d49d29" transform="matrix(.27395922 -.96174131 .96174131 .27395922 -166.9 598.3)"/><path d="m346.5 392.4-4.6 17.1h-31.8c-.3 0-.5-.3-.4-.5l4.5-17.1c0-.4.5-.8.9-.8h30.5c.7 0 1 .7.9 1.2z" fill="#d49d29"/><path d="m348.1 392.4-4.6 16.9c0 .1-.3.3-.4.3h-31.5c-.3 0-.5-.3-.4-.5l4.5-17.1c0-.4.5-.8.9-.8h30.5c.7 0 1 .7.9 1.2z" fill="#ffbd32"/><path d="m343.1 413h-45.9c-.4 0-.8-.4-.8-.8v-.7c0-.4.4-.8.8-.8h45.9c.1 0 .3.1.3.3v1.6c0 .1-.1.3-.3.3z" fill="#d49d29"/><path d="m343.1 413h-31.9v-2.2h31.9c.1 0 .3.1.3.3v1.6c0 .1-.1.3-.3.3z" fill="#ffbd32"/><path d="m327 401.7c0 1.7 1.4 3.1 3.1 3.1s3.1-1.4 3.1-3.1-1.4-3.1-3.1-3.1-3.1 1.4-3.1 3.1z" fill="#efecf0"/><path d="m288 386.1c.1.7.5 1.2 1.2 1.6.4.3.8.7.9.7 6.5 3.9 12.7 9 19.6 12 .8-.8 2.1-3 2.6-3.9 0-.1.1-.3.1-.5s-.1-.4-.4-.7c-1.2-1.3-2.5-2.4-3.9-3.3-1.2-.8-11.9-9.9-12.3-10.7-.4-.9-1-6.4-.9-10.2 0-2.7-.8-5.4-2.6-7.5-1.2-1.3-2.5-2.1-3.7-.9l-.4.4c-1.3 1.7-2.1 3.9-2.1 6 0 5.2 1 14.5 1.7 16.8v.3h.1z" fill="#03405c"/><path d="m311.3 392.5-13.7-33.8-5.5 5 4.2 3.4-.2 3.7z" fill="#22759c"/><path d="m316 346.9c0-.3.3-.7.3-.9 0-1.2-1-2.4-2.2-2.6-1.2-.3-2.5 0-3.5.7.4-.1 2.7 2.9 3 3.3s.7 1.3 1.3 1.3.9-1.2 1.2-1.7z" fill="#d0ced1"/><path d="m315.2 346.5v-.5c0-.7-.5-1.3-1.2-1.4s-1.3 0-2 .4c.3 0 1.6 1.6 1.7 1.8.1.3.4.8.8.7.4 0 .5-.7.7-.9z" fill="#da4d36"/><path d="m304 364.9c-.8-.4-1.6-.7-2.4-1.2-2.5-1.3-4.7-3.4-6.2-5.9-.3-.4-1.3-3.7-1.3-3.7.5 0 .7-.9.1-1.2.5 0 .9-.4.9-.9h-.4c.4-.3.7-.7 1-.9-.1-.1-.4-.3-.5-.4.4 0 .7-.4.8-.7s0-.8-.4-.9c.3-.1.7-.3.9-.4 0 0-.1-.1-.3 0 .8-.7 1.2-1.6 1.8-2.4 1.2-1.6 2.9-2.7 4.7-3 1-.3 2.2-.1 3.4 0 1.6.1 3.1.4 4.7 1 3.1 1.4 3.7 4.1 4.7 6.9-.3 0-.7-.3-.9-.4 0 .7.4 1.3.9 1.8 0 .1-.3.3-.5.1 0 .4.3.8.5.9-.3 0-.4.4-.3.7 0 .3.4.5.5.7-.4.3 0 .7 0 1s0 .5-.1 1c-.4.8-.8 1.6-1.3 2.2-1 1.3-2.4 2.5-3.9 3.4-.9.5-1.8.9-2.6 1.6s-1.3 1.4-1.7 2.4c-.8-.7-1.7-1.2-2.6-1.6l.3-.4z" fill="#efecf0"/><path d="m296.3 345.8c0-.4-.1-.8 0-1.2 0-1.6 1.7-2.7 3.3-2.9 1.4 0 2.9.5 4.1 1.3.1 0 .1.3 0 .4-.9.8-3.7 3.1-4.1 3.5-.5.4-1.2 1.4-2 1.2s-1-1.7-1.2-2.2h-.1z" fill="#d0ced1"/><path d="m298 345.5v-.7c0-.9.9-1.6 1.8-1.6s1.2 0 1.7.4c.3.1.4.5 0 .8-.7.5-1.7 1.4-1.8 1.6-.3.3-.7.9-1 .8-.4 0-.5-.9-.7-1.3z" fill="#da4d36"/><path d="m309.3 355.8c-.5 0-.9-.4-1.4-.5-.3 0-.5-.1-.8 0-.3.3 0 .5 0 .8.7 1 1.8 1.7 2.9 2.4h.3c.5-.3 1.8-1.4 1.4-2.2-.4-.7-2-.3-2.6-.4h.3z" fill="#605f61"/><path d="m308.9 352.8c.3.5.7.9 1 1.3.5.4 1 .7 1.6.8.7 0 1.3 0 1.7-.4s.4-.5.5-.8c.3-.7.4-1.4 0-2.1s-1-.9-1.6-1.3c-.7-.3-1.3-.5-2-.4-1.3.1-1.8 2-1.3 3z" fill="#605f61"/><path d="m311 351.6h.4s.3 0 .3.3v.3c-.1.4-.7.7-1 .7-.1-.5.3-.9.7-1h-.3z" fill="#efecf0"/><path d="m311 351.8h.3s.1 0 .1.1v.3c0 .3-.4.5-.8.4-.1-.3.3-.7.5-.7h-.1z" fill="#605f61"/><path d="m306.6 353c-.4.7-.9 1-1.6 1.4s-1.4.7-2.2.7-1.6-.3-2.1-.9c-.3-.3-.4-.7-.5-1-.3-.9-.1-2 .4-2.7s1.4-1 2.4-1.2c.8-.3 1.7-.4 2.5-.1 1.6.5 1.8 2.7 1 4.1h.1z" fill="#605f61"/><path d="m304.2 351.1h-.4c-.1 0-.3 0-.4.3v.4c.1.5.7 1 1.3 1h.1c.4-.5-.1-1.2-.7-1.4v-.3z" fill="#efecf0"/><path d="m304.2 351.3h-.3s-.3 0-.3.1v.3c0 .4.5.7.9.7.3-.4-.1-.8-.5-.9h.1z" fill="#605f61"/><path d="m294.9 369.5 3.2 11.3 14.4 15.2-15.6-14.2z" fill="#023045"/><path d="m309.6 400.5-20.8-13v1.7z" fill="#023045"/><path d="m343.2 113.9c1-.7 2.1-1.4 2.9-2.5.4-.5.7-1 .9-1.6.4-.8 1.4-.7 1.7.1.7 2.2.7 4.8-.5 6.9-.3 0-.4-.3-.5-.5-.7-.9-4.5-2.6-4.6-2.5h.1z" fill="#efecf0"/><path d="m341 114.3c-1.4 0-3-.4-4.3-1.2-.8-.4-1.4-.8-2.1-1.3s-1.6 0-1.4.9v.4c.5 2.7 2 5.2 4.2 6.9.1-.3.3-.5.3-.8.3-1.3 3.1-5 3.4-5z" fill="#d0ced1"/><path d="m334.1 113c.5 1.6 1.6 3 3 4.1 0-.5.1-.8.3-1.2 0-.3.3-.4.4-.5.3-.3 0-.3-.3-.4-.5 0-.9-.3-1.3-.4s-.9-.4-1.3-.7c-.3-.1-1-.5-1.2-.8h.4z" fill="#efecf0"/><path d="m348 110.1c.3 1.4 0 3-.7 4.3h-.1c-.3-.3-.4-.5-.7-.7-.1-.1-.4-.1-.5-.3-.3 0-.1-.1 0-.4.3-.3.7-.5.9-.9s.5-.7.7-1c0-.3.5-.8.5-1z" fill="#d0ced1"/><path d="m335.3 124.1v.4c.1 0 .3-.1.4-.3.4.3.8.4 1.2.5.5.3 1 .4 1.6.5.8.3 1.7.4 2.2 1 0 0 .1.1.1.3.4.7 0 5.2 0 5.2 8.8 1.3 10.1-2.1 10.1-2.1-1.3-1.2-2.6-3-2.2-4.7 0-.3 2.9-3.7 2.9-3.8 0 0 .3-.3.4-.3 0 0 .4-.1.5 0 0 0-.3-.3-.3-.4h.3c-.1-.1-.3-.3-.4-.4h.5c-.3-.1-.4-.4-.7-.7h.4c0-.1-.3-.3-.4-.4h.5c-.4-.3-.8-.4-1-.7-.9-.7-1.7-1.6-2.4-2.5-.1-.3-.3-.5-.5-.7l-.5-.9c-.4-.7-1-1.2-1.7-1.3l-1.6-.3h-.3c-1.8-.4-3.8 0-5.5 1l-.4.3-.8.4c-1.3.7-1.2 2.9-1.2 2.9 0 .7-.3 1.2-.4 1.8-.4 1.2-.9 2.4-1.6 3.4 0 0 0 .1-.1.3h.3v.5s.3 0 .3-.1c0 .3-.3.5-.3.8h.4c0 .1-.3.4-.3.5 0 0 .3 0 .3-.1v-.4h.1z" fill="#efecf0"/><path d="m336.3 119c.1-.5.3-1.2.4-1.7s-.3-2.2 1.2-2.9l.8-.4.4-.3c.1 0 .3-.1.5-.3.4.3.8.8.4 1.2 0 0-.3.3-.4.3h-.3c0 .3 0 .4-.3.4h-.5c-.1 0-.4 0-.4.3s0 .4.1.5c0 .1.3.4.1.5 0 .3-.4.3-.5.5v1c0 .1-.4.4-.7.4s-.5.1-.7.1l-.3.3z" fill="#d0ced1"/><path d="m343 122.8c.5.8 1.6 1.2 2.5.7.8-.5 1.2-1.6.7-2.5-.5-.8-1.6-1.2-2.5-.7s-1.2 1.6-.7 2.5z" fill="#d0ced1"/><path d="m340 123.5c.5.8 1.6 1 2.4.7.8-.5 1-1.6.7-2.4-.5-.8-1.6-1-2.4-.7-.8.5-1 1.6-.7 2.4z" fill="#d0ced1"/><path d="m341.8 120.9v.3c.1.3.4.5.7.7 0 0 .3.1.4 0h.1c.1-.4.8-1.3.3-1.4-.3 0-1.4.4-1.6.5h.1z" fill="#727173"/><path d="m346.5 116.4c-.1.5-.3 1-.4 1.6-.1.5-.5 1-1 1.3s-1.2.1-1.2-.5c.1-1.2 1.4-2.2 2.5-2.2h.1z" fill="#727173"/><path d="m338.1 118.2c.3.4.4.8.7 1.2s.7.8 1 .8 1-.1.8-.7c-.4-.9-1.7-1.4-2.5-1.2z" fill="#727173"/><path d="m340.1 116.5s-.4-.1-.9-.3h-.9s.4.1.9.3z" fill="#d0ced1"/><path d="m345.5 114.8s-.4.3-.8.4-.9.1-.9 0c0 0 .4-.3.8-.4s.9-.1.9 0z" fill="#d0ced1"/><path d="m392.7 175.1c-2 2.6-5.5 3.9-8.8 3.5.1.5.9.5 1.4.5-1.7.5-3.4.7-5.2.7s-3.7-.3-5.4-.9c-.5-.1-1.2-.4-1.7-.7 0 .3.8.7.8.7-4.2-.7-8-2.7-11.1-5.6-1.4-1.2-2.6-2.6-4.2-3.7s-3.4-1.8-5.2-1.4h-.7c-.9-.5 2.7-2.4 3.1-2.5 1.4-.5 3-.8 4.6-.7 1.8 0 3.5.7 5.1 1.4.9.5 2 1 2.7 1.7.9.7 2.1 1.4 3.1 1.8.7.3 1.3.3 2 0 0 .4-.4.7-.8.7 2.5.3 4.6 1.6 6.9 2.2 2.4.8 5.1.9 6.9-.8-.4 1-1.3 1.8-2.4 2.2 2.6 1.6 5.8 1.8 8.5.8h.1z" fill="#d0ced1"/><path d="m371.4 169.8c-.5.7-1.2 1.2-2 1.6h-.4s-.1-.1-.3-.3v-1c0-.4-.3-.8-.5-.8-.7-.3-1.3.8-2.1.5-.3 0-.4-.3-.5-.4-.5-.7-.7-1.6-.4-2.4 0-.1.1-.4.3-.7.9.5 2 1 2.7 1.7.9.7 2.1 1.4 3.1 1.8z" fill="#efecf0"/><path d="m380 179.2v.4c-1.8 0-3.7-.3-5.4-.9.5-1 1-2 1.8-2.2 1.8-.5 3.3 1 3.5 2.7z" fill="#efecf0"/><path d="m334.2 153.8h22.8v11.4h-22.8z" fill="#2b3e78"/><path d="m334.7 155.3c0 .8 0 1.7.3 2.5 0 .3.1.7.4.9.4.5 1.2.8 2 .9 3.3.7 6.5.5 9.9.4 2.6 0 5.4-.3 7.9-1.2.4-.1.8-.3 1-.7.3-.3.3-.5.3-.9.3-1.6.4-5.4.5-9.2v-8.5c0-1.2 0 0 0 0 0-2.2-.8-4.5-1.4-6.5-.4-1.2-.8-2.4-1.3-3.4 0-.3-.4-.4-.5-.7-.3-.3-.7-.5-1-.8-.3-.1-.7-.4-.9-.3-.1 0-.5.3-1 .7-1.8 1.2-3.9 1.8-6 1.8-1.4 0-3-.3-4.3-.8-.4-.1-.8-.4-.8-.4-.3 0-.8.9-.9 1.2-.5.8-.9 1.6-1.3 2.4-.8 1.6-1.7 3.4-2 5.1-.3 1.3 0 2.6-.1 4.1 0 1.4-.3 2.9-.4 4.3-.3 3 0 6 0 8.9h-.1z" fill="#da4d36"/><path d="m349.9 150.7c.7 1.2.9 2.6.1 3.8-.5.8-1.4 1.2-2.4 1.3-.9 0-2 0-2.9-.3-.5 0-8.4-1.3-8.4-1.3-.8-.1-3-.9-3.8-1.2l2.1-3.7c2 .5 5.1 1.3 6.7 2.2.8.5 1.8.7 2.7.5h.4c0-.9.9-1.8 1.8-2 .3 0 .7 0 .9-.1.1 0 .3-.3.5-.4.4-.3.9-.1 1.3 0 .4.3.7.7.8 1z" fill="#efecf0"/><path d="m334.1 132.2c-2.1 1.4-3.8 3.4-4.8 5.5-.4.8-.7 1.6-.9 2.4-.8 2.9-1.2 6-.5 8.9.1.7.4 1.4.7 2 .7 1.2 1.8 2.1 3 3 1.7 1.2 3.7 2.1 5.8 2.5 1.3.3 2.7.1 3.7-.8.7-.7.9-1.6 1-2.5v-1.4c0-.3-.3-.4-.5-.7-.7-.7-1.4-1.3-2.4-1.7-.4-.3-.9-.4-1.3-.7-.7-.4-1.2-1-1.6-1.8-.5-1.2-.7-2.5-.3-3.8.8-2.7 2.4-8.8 2.7-9.3.7-.9.8-1.8.3-2.9 0 0 .9-1.7.7-1.8-.5-.4-3.4 1.3-5.5 2.9v.3z" fill="#da4d36"/><path d="m341.4 155.7h-.3v-.3c0-1.3-.1-2.5 0-3.8h2.1s.1 1.4.3 1.6v1.6c0 .3 0 .7-.4.8s-1 0-1.6 0h-.1z" fill="#441e45"/><path d="m335.9 146.5c-.4-1.2-.4-2.5 0-3.7l1.4-5.1z" fill="#b03e2c"/><path d="m341.3 150.4c-.7 1.2-.9 2.7-.1 3.9.5.8 1.4 1.3 2.4 1.4.9 0 2 0 2.9-.3.5 0 8.4-1.3 8.4-1.3.8-.1 3-.9 3.8-1.2l-2.1-3.8c-2 .5-5.1 1.4-6.7 2.2-.8.5-1.8.7-2.7.5h-.4c0-1-.9-1.8-1.8-2-.3 0-.7 0-.9-.1-.1 0-.3-.3-.5-.4-.4-.3-.9-.1-1.3 0-.4.3-.7.7-.8 1z" fill="#efecf0"/><path d="m357.3 131.2c2.1 1.6 3.8 3.5 4.8 5.8.4.8.7 1.6.9 2.5.8 3 1.2 6.3.5 9.3-.1.8-.4 1.4-.7 2.1-.7 1.3-1.8 2.2-3 3.1-1.7 1.2-3.7 2.2-5.8 2.6-1.3.3-2.7.1-3.7-.8-.7-.7-.9-1.7-1-2.6v-1.4c0-.3.3-.5.5-.7.7-.8 1.4-1.3 2.4-1.7.4-.3.9-.4 1.3-.7.7-.5 1.2-1.2 1.6-2 .5-1.2.7-2.6.3-3.9-.8-2.9-2.4-9.2-2.7-9.7-.7-.9-.8-2-.3-3 0 0-.9-1.7-.7-2 .5-.5 3.4 1.4 5.5 3z" fill="#da4d36"/><path d="m349.8 155.5h.3v-.3c0-1.3.1-2.6 0-3.9h-2.1s-.1 1.4-.3 1.6v1.7c0 .3 0 .7.4.9s1 0 1.6 0z" fill="#441e45"/><path d="m355.3 146.6c.4-1.2.4-2.5 0-3.7l-1.6-6 1.4 9.8h.1z" fill="#b03e2c"/><path d="m332.1 175.3c.1 1.6 1 3 2 4.5.3.4.7.8 1 1 1.3.7 2.2-.3 3-1 .9-.8 2.1-1.4 3.1-1.8l-1.7-5.6s-7.7 0-7.5 3z" fill="#03405c"/><g clip-path="url(#c)"><path d="m337.7 175.1c-1.3.3-2.7.4-4.2.3-.7 0-1.3-.1-2.1-.1h-.3v.3c0 1.4.5 2.7 1 4.1.1.4.5.9.9.8.3 0 .4-.1.5-.3.8-.8 1.6-1.6 2.5-2.2 1.6-1 3.4-1.2 5.2-1.7 0 0 .1 0 .3-.1v-.3c-.3-.5-.7-1.8-1.4-1.6-.4 0-.7.4-1 .5s-.8.3-1.3.4h-.1z" fill="#22759c"/><g clip-path="url(#d)" fill="#5899b8"><path d="m335.4 173.9h.8v5.1h-.8z" transform="matrix(.94942548 -.31399246 .31399246 .94942548 -38.4 114.4)"/><path d="m336.8 174.4h.8v5.1h-.8z" transform="matrix(.94997205 -.31233492 .31233492 .94997205 -38.4 114.2)"/><path d="m338.4 173.6h.8v5.1h-.8z" transform="matrix(.94997205 -.31233492 .31233492 .94997205 -38.1 114.6)"/></g></g><path d="m360.7 174.9c-.4 1.6-1.3 2.9-2.4 4.2-.3.4-.8.7-1.2.9-1.4.5-2.1-.5-2.9-1.3-.8-.9-2-1.7-3-2.2l2.4-5.4s7.7.9 7.1 3.8z" fill="#441e45"/><path d="m360.7 174.9c-.4 1.6-1.3 2.9-2.4 4.2-.3.4-.8.7-1.2.9-1.4.5-2.1-.5-2.9-1.3-.8-.9-2-1.7-3-2.2l2.4-5.4s7.7.9 7.1 3.8z" fill="#03405c"/><g clip-path="url(#e)"><path d="m355 174c1.3.4 2.7.7 4.1.7h2.4v.3c0 1.4-.8 2.7-1.4 3.9-.3.4-.5.8-1 .8s-.4-.3-.5-.4c-.8-.8-1.3-1.8-2.2-2.5-1.4-1.2-3.3-1.6-5-2.4 0 0-.1 0-.3-.1v-.3c.3-.5.9-1.7 1.6-1.4.4.1.7.5 1 .7.4.3.8.4 1.2.5l.3.3z" fill="#22759c"/><g clip-path="url(#f)" fill="#5899b8"><path d="m354 176.1h5.1v.8h-5.1z" transform="matrix(.41310443 -.91068366 .91068366 .41310443 48.5 428.3)"/><path d="m352.4 175.2h5.1v.8h-5.1z" transform="matrix(.41310443 -.91068366 .91068366 .41310443 48.4 426.3)"/><path d="m350.8 174.2h5.1v.8h-5.1z" transform="matrix(.41310443 -.91068366 .91068366 .41310443 48.3 424.3)"/></g></g><path d="m337.9 172.2 15.1-11.9c1.3-1 2.6-2.2 3.7-3.4l4.2-4.3c1.3-1.4 3.5-1.6 5.1-.5 1.8 1.2 2.4 3.5 1.2 5.4-2.6 4.2-5.9 7.7-9.9 10.5l-15.8 11.1-3.5-6.9h.1z" fill="#2976b3"/><path d="m326.5 154.6c2.5 9.6 12 17.7 20.8 20.3l2.7-.7-23.6-19.5z" fill="#21628e"/><path d="m354.5 170.6-14.9-12c-1.3-1-2.5-2.2-3.7-3.4l-4.1-4.3c-1.3-1.4-3.5-1.7-5.1-.7-1.8 1.2-2.4 3.5-1.2 5.4 2.5 4.2 5.9 7.7 9.8 10.6l15.7 11.3 3.5-6.8h-.1z" fill="#2976b3"/><path d="m359 162h.7v.5h-.8v-.5z" fill="#d3f2f1"/><path d="m358 162h.7v.5h-.8v-.5z" fill="#d3f2f1"/><path d="m357.1 162h.7v.5h-.8v-.5z" fill="#d3f2f1"/><path d="m356.3 162h.7v.5h-.8v-.5z" fill="#d3f2f1"/><path d="m355.4 162h.7v.5h-.8v-.5z" fill="#d3f2f1"/><path d="m354.6 162h.7v.5h-.8v-.5z" fill="#d3f2f1"/><path d="m353.7 162h.7v.5h-.8v-.5z" fill="#d3f2f1"/><path d="m352.8 162h.7v.5h-.8v-.5z" fill="#d3f2f1"/><path d="m352 162h.7v.5h-.8v-.5z" fill="#d3f2f1"/><path d="m351.1 162h.7v.5h-.8v-.5z" fill="#d3f2f1"/><path d="m350.3 162h.7v.5h-.8v-.5z" fill="#d3f2f1"/><path d="m349.4 162h.7v.5h-.8v-.5z" fill="#d3f2f1"/><path d="m348.5 162h.7v.5h-.8v-.5z" fill="#d3f2f1"/><path d="m347.7 162h.7v.5h-.8v-.5z" fill="#d3f2f1"/><path d="m346.8 162h.7v.5h-.8v-.5z" fill="#d3f2f1"/><path d="m345.9 162h.7v.5h-.8v-.5z" fill="#d3f2f1"/><path d="m345.1 162h.7v.5h-.8v-.5z" fill="#d3f2f1"/><path d="m344.2 162h.7v.5h-.8v-.5z" fill="#d3f2f1"/><path d="m343.4 162h.7v.5h-.8v-.5z" fill="#d3f2f1"/><path d="m342.5 162h.7v.5h-.8v-.5z" fill="#d3f2f1"/><path d="m341.5 162h.7v.5h-.8v-.5z" fill="#d3f2f1"/><path d="m340.8 162h.7v.5h-.8v-.5z" fill="#d3f2f1"/><path d="m339.8 162h.7v.5h-.8v-.5z" fill="#d3f2f1"/><path d="m339.1 162h.7v.5h-.8v-.5z" fill="#d3f2f1"/><path d="m338.1 162h.7v.5h-.8v-.5z" fill="#d3f2f1"/><path d="m337.2 162h.7v.5h-.8v-.5z" fill="#d3f2f1"/><path d="m336.4 162h.7v.5h-.8v-.5z" fill="#d3f2f1"/><path d="m335.5 162h.7v.5h-.8v-.5z" fill="#d3f2f1"/><path d="m334.7 162h.7v.5h-.8v-.5z" fill="#d3f2f1"/><path d="m333.8 162h.7v.5h-.8v-.5z" fill="#d3f2f1"/><path d="m332.9 162h.7v.5h-.8v-.5z" fill="#d3f2f1"/><path d="m332.1 162h.7v.5h-.8v-.5z" fill="#d3f2f1"/><path d="m332.8 160.3h1.8v2.9h-1.8z" fill="#03c7c0"/><path d="m357 160.3h1.8v2.9h-1.8z" fill="#03c7c0"/><rect fill="#03c7c0" height="1.8" rx=".4" width="28.5" x="331.6" y="162.6"/><rect fill="#b3f5f3" height="16" rx=".5" width="28.5" x="331.6" y="145.2"/><path d="m348.2 153.2c0 1.3-1 2.4-2.4 2.4s-2.4-1-2.4-2.4 1-2.4 2.4-2.4 2.4 1 2.4 2.4z" fill="#03c7c0"/><path d="m341.9 128.7c-.8-.3-1.4-.5-2.2-.5h-.8c-.4 0-.7.4-.9.7s-.4.4-.5.7c0 .4.1.7.4.9.3.1.7.3 1 .3h.3s.3.1.3.3c.4.4.9.7 1.4.7h1.8c.1 0 .3 0 .4.1.3.1.7.3 1 .3h.4s.3-.1.3-.3c.3-.4.3-.8.1-1.2 0-.4-.5-.5-.8-.7-.8-.4-1.7-.8-2.6-1h.4z" fill="#f77863"/><path d="m348.2 128.3c.7-.4 1.4-.7 2.1-.9h.8c.4 0 .7.3.9.5.3.1.5.4.5.7 0 .4 0 .7-.3.9s-.7.4-.9.4h-.3s-.1.1-.3.3c-.3.4-.8.7-1.3.9-.5.1-1 .1-1.6.1h-.3c-.1 0-.3.1-.4.3-.3.3-.7.4-1 .4h-.4c-.1 0-.3-.1-.4-.3-.3-.3-.4-.7-.3-1 0-.4.4-.5.7-.8.8-.5 1.6-.9 2.4-1.4z" fill="#f77863"/><path d="m339.8 122c-1.4.4-2.9-.5-3.3-2s.5-2.9 2-3.3 2.9.5 3.3 2-.5 2.9-2 3.3zm-1.1-4.5c-1 .3-1.8 1.4-1.6 2.5.3 1 1.4 1.8 2.5 1.6s1.8-1.4 1.6-2.5-1.4-1.8-2.5-1.6z" fill="#03405c"/><path d="m346.1 120.5c-1.4.4-2.9-.5-3.3-2s.5-2.9 2-3.3 2.9.5 3.3 2-.5 2.9-2 3.3zm-1.2-4.6c-1 .3-1.8 1.4-1.6 2.5.3 1 1.4 1.8 2.5 1.6s1.8-1.4 1.6-2.5c-.3-1-1.4-1.8-2.5-1.6z" fill="#03405c"/><path d="m341.3 117.6h1.7v.7h-1.7z" fill="#03405c" transform="matrix(.96987202 -.24361501 .24361501 .96987202 -18.4 86.9)"/><path d="m450.2 272.2h-201.6v-36.5h201.6c1.8 0 3.4 1.4 3.4 3.4v29.8c0 1.8-1.4 3.4-3.4 3.4z" fill="#5493b0"/><path d="m242.3 241.4h203.4v25.1h-203.4c4.8-7.6 4.8-17.4 0-25.1z" fill="#fff"/><path d="m301.4 241.4h145.7v25.1h-145.7z" fill="#f0f0f0"/><path d="m301.4 272.2h-64.4c-.8 0-1.3-.7-1.3-1.3v-3c0-.8.7-1.3 1.3-1.3h64.4v5.8z" fill="#7ebcd9"/><path d="m301.4 241.4h-64.4c-.8 0-1.3-.7-1.3-1.3v-3c0-.8.7-1.3 1.3-1.3h64.4v5.8z" fill="#7ebcd9"/><path d="m274.1 274.7-7.7-11.4c-.3-.4-.9-.4-1.2 0l-7.7 11.4c-.4.5-1.3.3-1.3-.4v-26.1h19.2v26.1c0 .7-.9.9-1.3.4z" fill="#3bd9cc"/><path d="m843.1 174.1-3.1 5.4c-.3.5-1 .8-1.6.4l-3.4-2 2-3.4 2.4 1.4 3.3-2.2c.3-.3.7 0 .5.4z" fill="#5493b0"/><path d="m843.1 174.1-4.6 3.1-2.4-1.4.8-1.3 2.4 1.4 3.3-2.2c.3-.3.7 0 .5.4z" fill="#03c7c0"/><path d="m835.9 175h1.6v.4h-1.6z" fill="#efecf0" transform="matrix(.50452762 -.86339555 .86339555 .50452762 263.3 809.2)"/><path d="m836.6 175.4h1.6v.4h-1.6z" fill="#efecf0" transform="matrix(.50452762 -.86339555 .86339555 .50452762 263.3 810)"/><path d="m837.4 175.9h1.6v.4h-1.6z" fill="#efecf0" transform="matrix(.50452762 -.86339555 .86339555 .50452762 263.3 811)"/><path d="m806.9 163c.3 0 .5.3.9.4 2.5 1 5.1 1.8 7.5 3.3 2.9 1.7 5.9 3.3 8.8 5 2.1 1.2 10.9 6.3 10.9 6.3l2-3.4s-13.6-10.1-18.2-13.4c0 0-.3-.1-.4-.3-.5-.4-.9-.7-1-.7-9.8-6-16.9-3.4-19-3.1 0 3.9 8 5.6 8.6 6z" fill="#d8d6d9"/><path d="m817.3 162.1 1.3-.9s-.3-.1-.4-.3l-1.2.8v.3h.3z" fill="#a5a5a5"/><path d="m819.5 169.2c-.7-2.6-2.2-4.8-4.3-6.5l-3.1-2.5 7.5 9.2z" fill="#a5a5a5"/><path d="m835.6 188.1-4.8 3.7c-.5.4-1.2.3-1.6-.3l-2.5-3.1 3.1-2.4 1.7 2.2 3.9-.8c.4 0 .5.4.3.7z" fill="#5493b0"/><path d="m835.6 188.1-5.4 1.2-1.7-2.2 1.2-.9 1.7 2.2 3.9-.8c.4 0 .5.4.3.7z" fill="#03c7c0"/><path d="m829.1 187.8h1.6v.4h-1.6z" fill="#efecf0" transform="matrix(.79652992 -.60459911 .60459911 .79652992 55.2 540)"/><path d="m829.5 188.4h1.6v.4h-1.6z" fill="#efecf0" transform="matrix(.79652992 -.60459911 .60459911 .79652992 54.9 540.4)"/><path d="m830.1 189.2h1.6v.4h-1.6z" fill="#efecf0" transform="matrix(.79652992 -.60459911 .60459911 .79652992 54.6 540.9)"/><path d="m806.5 164.1c.3.3.4.4.7.7 2 1.8 4.1 3.7 5.6 5.9 2.1 2.6 4.2 5.4 6.3 7.9 1.6 1.8 7.6 9.9 7.6 9.9l3.1-2.4s-8.8-14.5-11.8-19.4c0 0 0-.3-.3-.4-.4-.5-.7-.9-.7-1-6.8-9.3-14.3-9.6-16.4-10.2-1.6 3.5 5.1 8.2 5.6 8.8v.3h.1z" fill="#d8d6d9"/><path d="m816.5 167.1 1.6-.3s0-.3-.3-.4l-1.4.3v.3s0 .1.3.1h-.1z" fill="#a5a5a5"/><path d="m828.8 129.1s.4-.3.7-.4c.7-.5.9-1.4.7-2.1l-.3-.7c0-.5-.7-.9-1.2-1.2h-.3c-.7 0-1.3.1-1.7.7s-.8 1-.9 1.7-.4 1.2-.8 1.8-1 .8-1.7 1.2c0 0 1.4.9 1.6 1 .4 0 .8-.3 1-.5.9-.5 2-.9 2.9-1.4z" fill="#d8d6d9"/><path d="m829.3 127.8c.3.3.5.3.8 0l.5-.5c.3-.3.3-.5 0-.8-.3-.3-.5-.3-.8 0l-.5.5c-.3.3-.3.5 0 .8z" fill="#d8d6d9"/><path d="m828.8 126.7c.3.3.5.3.8 0l.5-.5c.3-.3.3-.5 0-.8-.3-.3-.5-.3-.8 0l-.5.5c-.3.3-.3.5 0 .8z" fill="#d8d6d9"/><path d="m828.1 126c.3.3.5.3.8 0l.5-.5c.3-.3.3-.5 0-.8-.3-.3-.5-.3-.8 0l-.5.5c-.3.3-.3.5 0 .8z" fill="#d8d6d9"/><path d="m827.2 125.4c.3.3.5.3.8 0l.5-.5c.3-.3.3-.5 0-.8-.3-.3-.5-.3-.8 0l-.5.5c-.3.3-.3.5 0 .8z" fill="#d8d6d9"/><path d="m824.5 128.1c-1.4 1-11 6.8-12.6 7.3-.9.3-1.6-.8-2.2-1.3-1-1-8-8.4-8.4-9.2-.3-.4-.4-.7-.7-.9 0-.1-.4-.4-.5-.5-1.3-1-3.3-1.3-4.7-.4 0 0-.3.3-.4.4s-.3.3-.3.4c-.5.9-.5 2.1 0 3 .3.4.5.8.7.9 1.2 1.3 9 8.4 10.6 9.7 1.3 1 2.7 2.1 4.3 3 .5.4 1.2.7 1.8.5.5 0 10.1-6.8 14.7-10.1l-2.2-2.6v-.3h-.1z" fill="#3b94d9"/><path d="m797 112.5c0-.5.3-1 .4-1.6 0-.3.3-.7.5-.9.5-.5 1.2-.8 1.8-1.2.8-.5 1.3-1.2 1.7-2v.8c.7-.7 1.2-1.3 1.7-2.1 0 .7-.4 1.2-.7 1.7.5-.4 1-.8 1.4-1.3-.4.7-.7 1.3-1 2 0 0 .4-.1.5-.3 0 .4-.3.7-.4 1 0 0 .3 0 .4-.1-.5 1.2-1.2 2.4-1.8 3.5 0 .4-.4.8-.3 1.3-.5.4-1.2.7-1.8.9-.5 0-1.3.3-1.7 0-.4-.4-.5-1.2-.5-1.7h-.3z" fill="#a5a5a5"/><path d="m796.3 129-2.1 1.8-10.1-5.8 2.5-3.4s3.4-2.2 4.2-3.9v-1c-.4-1-.4-2.1-.4-3 0-1.2.5-2.2 1-3.1l.7-.9c.8-1.2 2.1-1.8 3.5-1.6 1.2.3 2.4.7 3.4 1.3 1.6.9 2.7 2.4 3.4 3.9l1.4 3.3c.5 1 .3 2.2-.7 3-.7.5-1.4.8-2.2.7l-3.9-.7c-.7 0-1.2.3-1.4.8-.4 1 1 3.8 1 3.8l1.6 4.7h-2.2.3z" fill="#d8d6d9"/><path d="m797.8 111.4v1c0 .4 0 .8.5.9.4.3.8.3.8-.3 0-.8-.7-1.6-1.3-1.8z" fill="#636363"/><path d="m803.3 117.2c-.5-.3-3-1.6-4.3-2.2-.7-.3-1.3-.4-2-.4-.4 0-.9.1-1.2.5v.9c0 1 .9 1.8 1.8 2.2s2 .4 3 .3 2-.5 3-.8c0-.3-.3-.5-.3-.5h-.1z" fill="#efecf0"/><path d="m796.3 128.3c.3-.8.5-1.4.4-2.2 0-1.2-1-2.1-2-2.7-.8-.5-1.8-.9-2.7-.5-1 .4-1.6 1.7-2 2.7-.7 1.7-1.2 3.4-1.8 5.2 0 .1 2.5 1.8 2.9 2 .5.4 1.2.8 2 .5 1.7-.4 2.9-3.5 3.4-5h-.1z" fill="#efecf0"/><path d="m802.9 117.1c0 .3.3.5.4.8.3.5 1.3.4 1-.4 0-.4-1.4-.9-1.4-.5z" fill="#636363"/><path d="m791.3 109.5c-.3-.7 0-1.3 0-2s0-.8.3-1.2c.3-.8 1-1.4 1.6-2.1.7-.8 1-1.7 1.2-2.7v.9c.5-.9.9-2 1-3v2.2c.5-.7.8-1.3 1.2-2 0 .9-.3 1.7-.5 2.6 0 0 .4-.3.5-.5v1.3s.3-.1.3-.4c0 1.6-.5 3-.7 4.6v1.6.3c-.5.5-1 1-1.7 1.4-.5.3-1.3.8-2 .5-.5-.3-.9-1.2-1.2-1.7h-.1.1z" fill="#a5a5a5"/><path d="m791.7 108.8c0-.8.3-1.7.7-2.4.5-.7 1.2-1.2 1.8-1.7.3-.1.5-.4.8-.4.5 1.3 0 2.7.3 4.1v.8c0 .3-.3.4-.5.5-.5.3-1.3.9-1.8.7-.7-.3-1-1-1.2-1.7z" fill="#fff"/><path d="m792.7 109.7c0-.3 0-.5.3-.8 0-.3.3-.4.4-.7.4-.5.8-1.2 1.2-1.7 0 .5 0 .9-.3 1.4v1.4c0 .3.3.4.3.7.3.7 0 .9-.5 1-.4.3-.9.4-1.2-.1 0-.4-.3-.9-.3-1.3h.1z" fill="#d8d6d9"/><path d="m756 132.9c2 3.3 6.3 5.2 9.8 3.8h.4c.4-.1.9-.4 1.3-.4 1 0 2 .8 2.6 1.6 4.2 5.1 5.2 11.9 7.3 18.1.7 1.7 1.3 3.4 2.5 4.8 1 1.2 2.5 2.1 3.9 2.7s3.1 1.4 4.7 1.4c3.1 0 1.3-2.2.3-3.9-2-3.1-2.1-7.2-2.1-10.9v-7.5c0-2.2.3-4.3.3-6.5 0-3.8-.8-7.6-2.2-11.1-1.2-2.9-2.7-5.6-5-7.7-3.5-3.3-8.6-5-13.4-3.9-7.7 1.6-15.1 12.3-10.6 19.8v-.3h.1z" fill="#efecf0"/><path d="m764.9 136.2c.3.1.7.3 1 .3h.3c.4-.1.9-.4 1.3-.4 1 0 2 .8 2.6 1.6-.3-.7-.8-1.4-1.2-1.8-.9-1-2.4-1.6-3.8-1.3-.4 0-.8.3-.8.7s0 .8.5.9z" fill="#a5a5a5"/><path d="m798.9 148.3c0-2 2.1-12 2-16.4v-2.5c-.7-2.4-1.8-4.5-3.4-6.3l-1.3-1.4c.3 1 .4 2.2-.7 2.7-.4.3-.9 0-1.3 0-1.6-.5-3.1-1-4.7-1.7-.4-.1-.9-.5-1.4-.8-.3 0-1.2-.5-1.3-.5 0 0-.4.5-.7.9-2.2 3.3-1.7 9.6-1.7 13.6s1.2 10.7 1.8 14.9c.3 1.4-.5 3.1-1 4.6-.7 1.8-1.4 3.5-1.8 5.5-.3 2 0 3.9.9 5.6s3 2.7 5 3.3 3.9.5 6 .5h16.6c.4-4.2.9-13.1.9-13.2 0-.3-10.2-2.1-11.5-3.1-1-.9-2.1-3.8-2.2-5.6h-.1z" fill="#49acea"/><path d="m795.5 154.4s.4.3.7.4c.8.4 1.7.3 2.4-.4l.5-.5c.4-.4.7-1 .5-1.6v-.3c0-.7-.8-1.2-1.4-1.3-.7-.3-1.3-.3-2.1-.1s-1.3.1-2.1 0c-.8 0-1.3-.7-2-1 0 0-.3 1.8-.3 2 0 .4.7.5.9.8.9.7 1.7 1.4 2.7 2.1h.1z" fill="#f2c06d"/><path d="m797 154.2c0 .3 0 .7.4.7l.8.3c.3 0 .7 0 .7-.4 0-.3 0-.7-.4-.7l-.8-.3c-.3 0-.7 0-.7.4z" fill="#f2c06d"/><path d="m797.8 153.3c0 .3 0 .7.4.7l.8.3c.3 0 .7 0 .7-.4 0-.3 0-.7-.4-.7l-.8-.3c-.3 0-.7 0-.7.4z" fill="#f2c06d"/><path d="m798.2 152.4c0 .3 0 .7.4.7l.8.3c.3 0 .7 0 .7-.4 0-.3 0-.7-.4-.7l-.8-.3c-.3 0-.7 0-.7.4z" fill="#f2c06d"/><path d="m798.3 151.2c0 .3 0 .7.4.7l.8.3c.3 0 .7 0 .7-.4 0-.3 0-.7-.4-.7l-.8-.3c-.3 0-.7 0-.7.4z" fill="#f2c06d"/><path d="m794.9 150.3c-1.6-.8-11-6.9-12-8-.7-.8 0-1.7.3-2.6.4-1.4 4.1-10.9 4.5-11.5.3-.4.4-.7.5-1 0-.3 0-.5.3-.8.4-1.7-.3-3.4-1.7-4.5 0 0-.4-.1-.5-.3h-.4c-1 0-2.1.4-2.6 1.3-.3.4-.4.8-.5 1-.7 1.7-3.5 11.8-4.1 13.7-.4 1.7-.7 3.4-.8 5.1 0 .7 0 1.4.4 1.8.3.4 10.5 6.2 15.6 8.6l1.4-3.1h-.3z" fill="#3b94d9"/><path d="m790.4 155.5h-.8v-.5h.7v.5z" fill="#dbe7ff"/><path d="m791.1 155.5h-.8v-.5h.7v.5z" fill="#dbe7ff"/><path d="m791.9 155.5h-.8v-.5h.7v.5z" fill="#dbe7ff"/><path d="m792.8 155.5h-.8v-.5h.7v.5z" fill="#dbe7ff"/><path d="m793.6 155.5h-.8v-.5h.7v.5z" fill="#dbe7ff"/><path d="m794.4 155.5h-.8v-.5h.7v.5z" fill="#dbe7ff"/><path d="m795.3 155.5h-.8v-.5h.7v.5z" fill="#dbe7ff"/><path d="m795.9 155.5h-.8v-.5h.7v.5z" fill="#dbe7ff"/><path d="m796.7 155.5h-.8v-.5h.7v.5z" fill="#dbe7ff"/><path d="m797.6 155.5h-.8v-.5h.7v.5z" fill="#dbe7ff"/><path d="m798.4 155.5h-.8v-.5h.7v.5z" fill="#dbe7ff"/><path d="m799.2 155.5h-.8v-.5h.7v.5z" fill="#dbe7ff"/><path d="m800.1 155.5h-.8v-.5h.7v.5z" fill="#dbe7ff"/><path d="m800.8 155.5h-.8v-.5h.7v.5z" fill="#dbe7ff"/><path d="m801.6 155.5h-.8v-.5h.7v.5z" fill="#dbe7ff"/><path d="m802.5 155.5h-.8v-.5h.7v.5z" fill="#dbe7ff"/><path d="m803.3 155.5h-.8v-.5h.7v.5z" fill="#dbe7ff"/><path d="m804 155.5h-.8v-.5h.7v.5z" fill="#dbe7ff"/><path d="m805 155.5h-.8v-.5h.7v.5z" fill="#dbe7ff"/><path d="m805.7 155.5h-.8v-.5h.7v.5z" fill="#dbe7ff"/><path d="m806.4 155.5h-.8v-.5h.7v.5z" fill="#dbe7ff"/><path d="m807.2 155.5h-.8v-.5h.7v.5z" fill="#dbe7ff"/><path d="m808.1 155.5h-.8v-.5h.7v.5z" fill="#dbe7ff"/><path d="m808.9 155.5h-.8v-.5h.7v.5z" fill="#dbe7ff"/><path d="m809.7 155.5h-.8v-.5h.7v.5z" fill="#dbe7ff"/><path d="m810.6 155.5h-.8v-.5h.7v.5z" fill="#dbe7ff"/><path d="m811.2 155.5h-.8v-.5h.7v.5z" fill="#dbe7ff"/><path d="m812 155.5h-.8v-.5h.7v.5z" fill="#dbe7ff"/><path d="m812.9 155.5h-.8v-.5h.7v.5z" fill="#dbe7ff"/><path d="m813.7 155.5h-.8v-.5h.7v.5z" fill="#dbe7ff"/><path d="m814.5 155.5h-.8v-.5h.7v.5z" fill="#dbe7ff"/><path d="m815.4 155.5h-.8v-.5h.7v.5z" fill="#dbe7ff"/><path d="m815.4 153.7h2.1v1h-2.1z" fill="#a84332" transform="matrix(.27395922 -.96174131 .96174131 .27395922 444.4 897.2)"/><path d="m796.6 153.8h2.1v1h-2.1z" fill="#a84332" transform="matrix(.27395922 -.96174131 .96174131 .27395922 430.7 879.2)"/><path d="m818.7 143.9-2.9 10.9h-20s-.3-.1-.3-.4l2.7-10.9c0-.3.3-.5.7-.5h19.2c.4 0 .7.4.7.8h-.1z" fill="#a84332"/><path d="m819.8 143.9-2.9 10.6s0 .1-.3.1h-19.9s-.3-.1-.3-.4l2.7-10.9c0-.3.3-.5.7-.5h19.2c.4 0 .7.4.7.8v.3z" fill="#da4d36"/><path d="m816.7 156.9h-29.1c-.3 0-.5-.3-.5-.5v-.5c0-.3.3-.5.5-.5h29.1v1.2.4z" fill="#a84332"/><path d="m816.7 156.9h-20.2v-1.4h20.2v1.2.3z" fill="#da4d36"/><path d="m806.5 149.7c0 1 .9 2 2 2s2-.9 2-2-.9-2-2-2-2 .9-2 2z" fill="#e37664"/></svg>